<svg width="63" height="84" viewBox="0 0 63 84" fill="none" xmlns="http://www.w3.org/2000/svg">
<path d="M46.025 47.5803C46.0765 45.4686 45.6615 42.4563 45.407 40.1137C45.2414 38.59 44.8071 36.5572 44.7012 33.3336C45.3256 38.275 46.6275 39.9635 47.0068 44.2469C47.8196 53.4258 46.7406 55.6641 46.9409 58.534C47.1412 61.4038 48.2074 63.7816 49.4074 64.0816C50.6074 64.3816 56.1278 64.0816 57.4877 63.5179C58.8476 62.9542 60.2241 60.4496 59.9071 57C59.5901 53.5504 57.411 49.2766 56.6945 43.4182C55.978 37.5598 56.0072 33.3 56.0072 28.2C56.0072 23.1 55.1049 18.7757 52.7074 15.6C51.7668 14.3541 50.5022 13.5316 48.7147 12.7748C48.1472 12.5345 47.0272 12.0904 46.334 11.903C45.6409 11.7155 44.6628 11.5662 43.8057 11.903C40.0037 10.717 34.8235 10.3154 31.3687 10.3154C27.9204 10.3154 22.7921 10.7155 18.9921 11.8963C18.1392 11.5672 17.7921 11.6891 16.8017 11.8963C15.8113 12.1035 14.8519 12.4633 14.3099 12.6863C12.4097 13.468 11.0825 14.3053 10.1051 15.6C7.70758 18.7757 6.80527 23.1 6.80527 28.2C6.80527 33.3 6.83451 37.5598 6.11801 43.4182C5.40151 49.2766 3.22237 53.5504 2.90539 57C2.5884 60.4496 3.96486 62.9542 5.32478 63.5179C6.6847 64.0816 12.2051 64.3816 13.4051 64.0816C14.6051 63.7816 15.6713 61.4038 15.8716 58.534C16.0719 55.6641 14.9929 53.4258 15.8057 44.2469C16.2007 39.7861 17.5963 38.1396 18.1853 32.7025C17.9842 37.9286 17.1033 42.5711 17.0478 44.1411C16.9725 46.2712 17.0972 48.2348 17.4299 49.2086C17.7625 50.1823 18.402 51.7205 20.9377 52.1348C23.4733 52.5491 26.4727 52.6171 28.8727 52.1348C30.0635 51.8956 31.4076 51.5348 31.4076 48.2348C31.4076 51.5348 32.9169 51.8956 34.1076 52.1348C36.5076 52.6171 41.3405 52.4206 43.0892 52.1348C44.8379 51.8491 45.9735 49.6921 46.025 47.5803Z" fill="#E3E0D3"/>
</svg>
