<svg width="64" height="84" viewBox="0 0 64 84" fill="none" xmlns="http://www.w3.org/2000/svg">
<path d="M43.0694 43.5036C44.818 43.2179 45.8443 41.7687 46.0224 40.0994C46.1224 39.163 46.1102 38.3528 46.0803 37.2814C46.2616 37.467 46.4769 37.6247 46.7325 37.7534C48.2332 38.5088 54.5288 37.7113 55.8477 36.9559C57.1665 36.2005 57.692 34.9401 56.9364 32.7377C56.1809 30.5354 55.3932 29.013 54.9573 25.6236C54.5214 22.2341 53.0852 18.8838 50.9409 16.5505C50.0894 15.624 48.7227 14.2915 46.9265 12.9439L46.8799 12.9089C46.2483 12.435 45.3368 11.751 44.5025 11.2549C43.6474 10.7464 42.9448 10.4924 42.2303 10.6071C40.0717 9.56127 35.5194 8.46631 31.7607 8.46631C28.0021 8.46631 23.5342 9.56127 21.3755 10.6071C20.661 10.4923 19.9643 10.6071 19.0644 11.2015C18.1646 11.796 17.5203 12.3154 16.8644 12.7995C14.9725 14.1959 13.5379 15.5909 12.656 16.5505C10.5117 18.8838 9.07544 22.2341 8.63956 25.6236C8.20369 29.013 7.41602 30.5354 6.66044 32.7377C5.90485 34.9401 6.43033 36.2005 7.74919 36.9559C9.06805 37.7113 15.3637 38.5088 16.8644 37.7534C17.0734 37.6482 17.2555 37.5235 17.4141 37.3801C17.4665 39.7783 17.5514 39.7333 17.8251 40.5345C18.1578 41.5082 18.7973 43.0464 21.3329 43.4607C23.8686 43.875 26.868 43.943 29.268 43.4607C30.4587 43.2215 31.8686 43.0401 31.8686 39.7401C31.8686 43.0401 33.3073 43.2644 34.498 43.5036C36.898 43.9859 41.3207 43.7894 43.0694 43.5036Z" fill="#E3E0D3"/>
</svg>
