<svg width="63" height="84" viewBox="0 0 63 84" fill="none" xmlns="http://www.w3.org/2000/svg">
<path d="M42.2709 43.5036C44.0196 43.2179 45.0458 41.7687 45.224 40.0994C45.2934 39.4487 45.3088 38.8589 45.3016 38.2001C45.8367 40.1105 46.3778 41.7311 46.6005 44.247C47.4134 53.4259 46.3344 55.6642 46.5347 58.5341C46.735 61.4039 47.8011 63.7817 49.0011 64.0817C50.2011 64.3817 55.7215 64.0817 57.0815 63.518C58.4414 62.9543 59.8178 60.4497 59.5009 57.0001C59.1839 53.5505 57.0047 49.2767 56.2882 43.4183C55.5717 37.5599 55.601 33.3001 55.601 28.2001C55.601 23.1001 54.6987 18.7758 52.3012 15.6001C50.8204 13.6386 48.5365 12.7268 44.6738 11.468C44.8588 11.0098 44.8498 10.5136 44.3108 10.0678C43.6619 9.53099 43.0771 9.15506 42.0442 8.70451C41.0344 8.26406 40.38 8.85136 39.6047 9.64363C37.4453 8.81118 34.3462 8.46631 30.9612 8.46631C27.5908 8.46631 24.5341 8.8082 22.3821 9.63286C21.6115 8.84604 20.9584 8.26604 19.9532 8.7045C18.9202 9.15505 18.3355 9.53098 17.6865 10.0678C17.1473 10.5139 17.1386 11.0104 17.3238 11.4688C13.4626 12.7272 11.1793 13.639 9.69883 15.6001C7.30133 18.7758 6.39902 23.1001 6.39902 28.2001C6.39902 33.3001 6.42826 37.5599 5.71176 43.4183C4.99526 49.2767 2.81612 53.5505 2.49914 57.0001C2.18215 60.4497 3.55861 62.9543 4.91853 63.518C6.27845 64.0817 11.7989 64.3817 12.9989 64.0817C14.1989 63.7817 15.265 61.4039 15.4653 58.5341C15.6656 55.6642 14.5866 53.4259 15.3995 44.247C15.6149 41.8145 16.1278 40.2188 16.6452 38.389C16.7015 39.7867 16.7985 39.8666 17.0267 40.5345C17.3593 41.5082 17.9988 43.0464 20.5345 43.4607C23.0701 43.875 26.0695 43.943 28.4695 43.4607C29.6603 43.2215 31.0702 43.0401 31.0702 39.7401C31.0702 43.0401 32.5088 43.2644 33.6996 43.5036C36.0996 43.9859 40.5223 43.7894 42.2709 43.5036Z" fill="#E3E0D3"/>
</svg>
