<svg width="64" height="84" viewBox="0 0 64 84" fill="none" xmlns="http://www.w3.org/2000/svg">
<path d="M43.0678 43.5036C44.8165 43.2179 45.8427 41.7687 46.0209 40.0994C46.0903 39.4487 46.1056 38.8589 46.0985 38.2001C46.6336 40.1105 47.1746 41.7311 47.3974 44.247C48.2103 53.4259 47.1313 55.6642 47.3316 58.5341C47.5319 61.4039 48.598 63.7817 49.798 64.0817C50.998 64.3817 56.5184 64.0817 57.8783 63.518C59.2383 62.9543 60.6147 60.4497 60.2977 57.0001C59.9808 53.5505 57.8016 49.2767 57.0851 43.4183C56.3686 37.5599 56.3979 33.3001 56.3979 28.2001C56.3979 23.1001 56.067 21.3679 54.8998 18.7545C53.7327 16.1412 51.0431 13.7814 49.0418 12.8366C47.0404 11.8918 45.7106 11.4649 44.6113 11.0523C43.5119 10.6397 42.9433 10.4924 42.2287 10.6071C40.0701 9.56127 35.5178 8.46631 31.7592 8.46631C28.0005 8.46631 23.5326 9.56127 21.374 10.6071C20.6598 10.4924 20.1284 10.6882 19.239 11.0158L19.2377 11.0163C18.3475 11.3443 17.2381 11.7077 15.2931 12.4499C13.3481 13.1921 11.8269 13.8368 10.4957 15.6001C8.09821 18.7758 7.1959 23.1001 7.1959 28.2001C7.1959 33.3001 7.22514 37.5599 6.50863 43.4183C5.79213 49.2767 3.613 53.5505 3.29601 57.0001C2.97903 60.4497 4.35549 62.9543 5.71541 63.518C7.07533 64.0817 12.5957 64.3817 13.7958 64.0817C14.9958 63.7817 16.0619 61.4039 16.2622 58.5341C16.4625 55.6642 15.3835 53.4259 16.1963 44.247C16.4117 41.8145 16.9247 40.2188 17.4421 38.389C17.4984 39.7867 17.5954 39.8666 17.8236 40.5345C18.1562 41.5082 18.7957 43.0464 21.3313 43.4607C23.867 43.875 26.8664 43.943 29.2664 43.4607C30.4572 43.2215 31.8671 43.0401 31.8671 39.7401C31.8671 43.0401 33.3057 43.2644 34.4965 43.5036C36.8965 43.9859 41.3191 43.7894 43.0678 43.5036Z" fill="#E3E0D3"/>
</svg>
