<svg width="63" height="84" viewBox="0 0 63 84" fill="none" xmlns="http://www.w3.org/2000/svg">
<path d="M45.2054 40.1137C45.4599 42.4563 45.875 45.4686 45.8235 47.5803C45.772 49.6921 44.6363 51.8491 42.8876 52.1348C41.139 52.4205 36.3061 52.6171 33.9061 52.1348C32.7153 51.8956 31.2061 51.5348 31.2061 48.2348C31.2061 51.5348 29.8619 51.8956 28.6712 52.1348C26.2712 52.6171 23.2718 52.5491 20.7361 52.1348C18.2004 51.7205 17.561 50.1823 17.2283 49.2086C16.8957 48.2348 16.7709 46.2712 16.8462 44.1411C16.8946 42.7718 17.5709 39.0651 17.8764 34.6726C17.7512 36.1523 17.3478 37.2111 16.2707 37.7533C14.7699 38.5087 8.4743 37.7112 7.15544 36.9558C5.83658 36.2004 5.3111 34.94 6.06669 32.7376C6.82227 30.5353 7.60994 29.0129 8.04581 25.6235C8.48169 22.234 9.91796 18.8837 12.0623 16.5504C12.8227 15.723 13.9939 14.5719 15.515 13.3753C16.0441 12.9591 16.5897 12.5231 17.0701 12.2092C17.5506 11.8953 18.1227 11.565 18.794 11.8953C22.5936 10.7152 27.7198 10.3154 31.1671 10.3154C34.6214 10.3154 39.8006 10.7168 43.6025 11.9024C44.2775 11.5627 45.3719 12.2118 45.6735 12.4225C45.9751 12.6332 46.9817 13.3057 47.9632 14.1338C48.9447 14.9619 49.6697 15.8133 50.3471 16.5504C52.4914 18.8837 53.9277 22.234 54.3636 25.6235C54.7994 29.0129 55.5871 30.5353 56.3427 32.7376C57.0983 34.94 56.5728 36.2004 55.2539 36.9558C53.9351 37.7112 47.6394 38.5087 46.1387 37.7533C45.0301 37.1952 44.6612 36.0402 44.5538 34.492C44.7103 37.0592 45.0606 38.7812 45.2054 40.1137Z" fill="#E3E0D3"/>
</svg>
