<svg width="63" height="84" viewBox="0 0 63 84" fill="none" xmlns="http://www.w3.org/2000/svg">
<path d="M28.3016 63.3001C25.9016 63.7823 20.668 63.7671 18.5666 63.3001C16.4781 62.836 15.4322 62.019 15.0258 61.1043C14.5633 62.7216 13.8118 63.8785 12.9989 64.0817C11.7989 64.3817 6.27845 64.0817 4.91853 63.518C3.55861 62.9543 2.18215 60.4497 2.49914 57.0001C2.81612 53.5505 4.99526 49.2767 5.71176 43.4183C6.42826 37.5599 6.39902 33.3001 6.39902 28.2001C6.39902 23.1001 7.30133 18.7758 9.69883 15.6001C11.1793 13.639 13.4627 12.7274 17.324 11.4691C17.1385 11.0106 17.1471 10.514 17.6865 10.0678C18.3355 9.53098 18.9202 9.15505 19.9532 8.7045C20.9584 8.26604 21.6115 8.84604 22.3821 9.63286C24.5341 8.8082 27.5908 8.46631 30.9612 8.46631C34.3462 8.46631 37.4453 8.81118 39.6047 9.64363C40.38 8.85136 41.0344 8.26406 42.0442 8.70451C43.0771 9.15506 43.6619 9.53099 44.3108 10.0678C44.8498 10.5136 44.8588 11.0098 44.6738 11.468C48.5365 12.7268 50.8204 13.6386 52.3012 15.6001C54.6987 18.7758 55.601 23.1001 55.601 28.2001C55.601 33.3001 55.5717 37.5599 56.2882 43.4183C57.0047 49.2767 59.1839 53.5505 59.5009 57.0001C59.8178 60.4497 58.4414 62.9543 57.0815 63.518C55.7215 64.0817 50.2011 64.3817 49.0011 64.0817C48.1918 63.8794 47.4433 62.7319 46.9804 61.1258C46.5672 62.0318 45.5087 62.8396 43.4365 63.3001C41.3351 63.7671 36.1014 63.7823 33.7014 63.3001C32.5107 63.0608 31.0016 62.7001 31.0016 59.4001C31.0016 62.7001 29.4924 63.0608 28.3016 63.3001Z" fill="#E3E0D3"/>
</svg>
