<svg width="63" height="84" viewBox="0 0 63 84" fill="none" xmlns="http://www.w3.org/2000/svg">
<path d="M14.5745 69.9C14.3487 68.5701 14.3067 65.885 14.7063 63.6C14.8946 62.5231 15.145 61.4897 15.3753 60.3916C14.9477 62.3752 14.1299 63.8496 13.202 64.0816C12.002 64.3816 6.48158 64.0816 5.12166 63.5179C3.76174 62.9542 2.38528 60.4496 2.70226 57C3.01925 53.5504 5.19838 49.2766 5.91488 43.4182C6.63139 37.5598 6.60215 33.3 6.60215 28.2C6.60215 23.1 7.50446 18.7757 9.90195 15.6C10.9326 14.2348 11.6892 13.9268 13.0066 13.281C14.3239 12.6353 15.6929 12.111 16.5712 11.8953C17.4494 11.6796 18.1212 11.565 18.7924 11.8953C22.592 10.7152 27.7183 10.3154 31.1656 10.3154C34.6199 10.3154 39.7991 10.7168 43.601 11.9024C44.276 11.5627 44.6682 11.624 45.2979 11.694C45.9275 11.7639 46.7282 12.0873 47.2776 12.2897C49.7374 13.196 51.3604 14.0848 52.5043 15.6C54.9018 18.7757 55.8041 23.1 55.8041 28.2C55.8041 33.3 55.7749 37.5598 56.4914 43.4182C57.2079 49.2766 59.387 53.5504 59.704 57C60.021 60.4496 58.6445 62.9542 57.2846 63.5179C55.9247 64.0816 50.4043 64.3816 49.2042 64.0816C48.2808 63.8507 47.3553 62.4167 46.9239 60.4476C47.151 61.5249 47.3961 62.5414 47.5812 63.6C47.9808 65.885 47.9388 68.5701 47.713 69.9C47.4872 71.2299 47.5814 72 44.8814 72.6C42.78 73.067 36.1811 73.3822 33.7811 72.9C32.5903 72.6607 31.2064 72.3 31.2064 69C31.2064 72.3 29.6972 72.6607 28.5064 72.9C26.1064 73.3822 19.5075 73.067 17.4061 72.6C14.7061 72 14.8003 71.2299 14.5745 69.9Z" fill="#E3E0D3"/>
</svg>
