<svg width="63" height="84" viewBox="0 0 63 84" fill="none" xmlns="http://www.w3.org/2000/svg">
<path d="M42.4741 43.5035C44.2227 43.2178 45.2489 41.7686 45.4271 40.0993C45.4966 39.4486 45.5119 38.8588 45.5047 38.2C46.0398 40.1104 46.5809 41.7311 46.8037 44.2469C47.6165 53.4258 46.5375 55.6641 46.7378 58.534C46.9381 61.4038 48.0042 63.7816 49.2042 64.0816C50.4043 64.3816 55.9247 64.0816 57.2846 63.5179C58.6445 62.9542 60.021 60.4496 59.704 57C59.387 53.5504 57.2079 49.2766 56.4914 43.4182C55.7749 37.5598 55.8041 33.3 55.8041 28.2C55.8041 23.1 54.9018 18.7757 52.5043 15.6C51.4541 14.209 50.0001 13.3458 47.8655 12.5125C47.1963 12.2512 46.6595 12.0578 45.7995 11.9024C44.9394 11.747 44.276 11.5627 43.601 11.9024C39.7991 10.7168 34.6199 10.3154 31.1656 10.3154C27.7183 10.3154 22.592 10.7152 18.7924 11.8953C18.1212 11.565 17.548 11.6152 16.9235 11.7477C16.2991 11.8801 15.1462 12.2736 14.454 12.5465C12.3667 13.3694 10.9378 14.2279 9.90195 15.6C7.50446 18.7757 6.60215 23.1 6.60215 28.2C6.60215 33.3 6.63139 37.5598 5.91488 43.4182C5.19838 49.2766 3.01925 53.5504 2.70226 57C2.38528 60.4496 3.76174 62.9542 5.12166 63.5179C6.48158 64.0816 12.002 64.3816 13.202 64.0816C14.402 63.7816 15.4681 61.4038 15.6684 58.534C15.8687 55.6641 14.7897 53.4258 15.6026 44.2469C15.818 41.8144 16.3309 40.2187 16.8483 38.3889C16.9047 39.7866 17.0016 39.8665 17.2298 40.5344C17.5625 41.5081 18.2019 43.0463 20.7376 43.4606C23.2733 43.8749 26.2727 43.9429 28.6727 43.4606C29.8634 43.2214 31.2733 43.04 31.2733 39.74C31.2733 43.04 32.712 43.2643 33.9027 43.5035C36.3027 43.9858 40.7254 43.7893 42.4741 43.5035Z" fill="#E3E0D3"/>
</svg>
