<svg width="63" height="84" viewBox="0 0 63 84" fill="none" xmlns="http://www.w3.org/2000/svg">
<path d="M42.6709 43.5035C44.4196 43.2178 45.4458 41.7686 45.624 40.0993C45.7239 39.1629 45.7118 38.3527 45.6818 37.2813C45.8631 37.4669 46.0784 37.6246 46.334 37.7533C47.8348 38.5087 54.1304 37.7112 55.4492 36.9558C56.7681 36.2004 57.2936 34.94 56.538 32.7376C55.7824 30.5353 54.9948 29.0129 54.5589 25.6235C54.123 22.234 53.2943 20.8261 52.2364 18.9119C51.1785 16.9976 48.4163 14.2658 47.3347 13.4272C46.253 12.5886 44.6566 11.5662 43.7995 11.903C39.9974 10.717 34.8172 10.3154 31.3625 10.3154C27.9141 10.3154 22.7858 10.7155 18.9859 11.8963C18.1329 11.5672 17.2426 12.2485 15.8709 13.2282C14.4992 14.208 12.3305 15.8267 11.0361 17.7732C9.74173 19.7197 8.677 22.234 8.24112 25.6235C7.80525 29.0129 7.01758 30.5353 6.262 32.7376C5.50641 34.94 6.03189 36.2004 7.35075 36.9558C8.66961 37.7112 14.9652 38.5087 16.466 37.7533C16.6989 37.636 16.8984 37.4946 17.0692 37.33L17.0157 37.3836C17.0681 39.7781 17.1531 39.7336 17.4267 40.5344C17.7593 41.5081 18.3988 43.0463 20.9345 43.4606C23.4701 43.8749 26.4695 43.9429 28.8695 43.4606C30.0603 43.2214 31.4702 43.04 31.4702 39.74C31.4702 43.04 32.9088 43.2643 34.0996 43.5035C36.4996 43.9858 40.9223 43.7893 42.6709 43.5035Z" fill="#E3E0D3"/>
</svg>
