<svg width="63" height="84" viewBox="0 0 63 84" fill="none" xmlns="http://www.w3.org/2000/svg">
<path d="M46.0188 47.5803C46.0703 45.4686 45.6552 42.4563 45.4007 40.1137C45.2687 38.8987 44.9658 37.3601 44.7948 35.1522C44.9532 36.3822 45.3771 37.2716 46.334 37.7533C47.8348 38.5087 54.1304 37.7112 55.4492 36.9558C56.7681 36.2004 57.2936 34.94 56.538 32.7376C55.7824 30.5353 54.9948 29.0129 54.5589 25.6235C54.123 22.234 52.2385 18.1475 50.9482 16.7106C49.6579 15.2737 49.4527 14.9204 48.221 13.9834C46.9894 13.0464 44.6566 11.5662 43.7995 11.903C39.9974 10.717 34.8172 10.3154 31.3625 10.3154C27.9141 10.3154 22.7858 10.7155 18.9859 11.8963C18.1329 11.5672 16.0152 12.8364 14.811 13.9068C13.6068 14.9772 13.0213 15.3842 11.2921 17.4061C9.56291 19.4281 8.677 22.234 8.24112 25.6235C7.80525 29.0129 7.01758 30.5353 6.262 32.7376C5.50641 34.94 6.03189 36.2004 7.35075 36.9558C8.66961 37.7112 14.9652 38.5087 16.466 37.7533C17.2819 37.3426 17.7952 36.6355 17.9951 35.6735C17.6659 39.6217 17.0862 42.8771 17.0415 44.1411C16.9662 46.2712 17.091 48.2348 17.4236 49.2086C17.7563 50.1823 18.3958 51.7205 20.9314 52.1348C23.4671 52.5491 26.4665 52.6171 28.8665 52.1348C30.0572 51.8956 31.4014 51.5348 31.4014 48.2348C31.4014 51.5348 32.9106 51.8956 34.1014 52.1348C36.5014 52.6171 41.3343 52.4205 43.083 52.1348C44.8316 51.8491 45.9673 49.6921 46.0188 47.5803Z" fill="#E3E0D3"/>
</svg>
