<svg width="64" height="84" viewBox="0 0 64 84" fill="none" xmlns="http://www.w3.org/2000/svg">
<path d="M45.7991 40.1138C46.0537 42.4564 46.4687 45.4687 46.4172 47.5804C46.3657 49.6922 45.2301 51.8492 43.4814 52.1349C41.7327 52.4206 36.8998 52.6171 34.4998 52.1349C33.3091 51.8957 31.7998 51.5349 31.7998 48.2349C31.7998 51.5349 30.4557 51.8957 29.2649 52.1349C26.8649 52.6171 23.8655 52.5492 21.3299 52.1349C18.7942 51.7206 18.1547 50.1824 17.8221 49.2087C17.4894 48.2349 17.3646 46.2713 17.44 44.1412C17.4887 42.7624 18.174 39.0141 18.4764 34.582C18.3657 36.1092 17.9635 37.2002 16.8644 37.7534C15.3637 38.5088 9.06805 37.7113 7.74919 36.9559C6.43033 36.2005 5.90485 34.9401 6.66044 32.7377C7.41602 30.5354 8.20369 29.013 8.63956 25.6236C9.07544 22.2341 10.5117 18.8838 12.656 16.5505C13.6025 15.5206 15.1856 13.9891 17.2876 12.4927C17.7697 12.1495 18.4598 11.674 19.1311 11.2625C19.8025 10.8511 20.661 10.4923 21.3755 10.6071C23.5342 9.56127 28.0021 8.46631 31.7607 8.46631C35.5194 8.46631 40.0717 9.56127 42.2303 10.6071C42.9448 10.4924 43.9497 10.8294 44.6428 11.3059C45.3358 11.7823 45.921 12.2126 46.4421 12.5878C48.478 14.0537 50.0144 15.5424 50.9409 16.5505C53.0852 18.8838 54.5214 22.2341 54.9573 25.6236C55.3932 29.013 56.1809 30.5354 56.9364 32.7377C57.692 34.9401 57.1665 36.2005 55.8477 36.9559C54.5288 37.7113 48.2332 38.5088 46.7325 37.7534C45.6152 37.191 45.2543 36.073 45.1484 34.5059C45.3053 37.0655 45.6546 38.7837 45.7991 40.1138Z" fill="#E3E0D3"/>
</svg>
