<svg width="63" height="84" viewBox="0 0 63 84" fill="none" xmlns="http://www.w3.org/2000/svg">
<path d="M45.0023 40.1138C45.2568 42.4564 45.6718 45.4687 45.6203 47.5804C45.5688 49.6922 44.4332 51.8492 42.6845 52.1349C40.9359 52.4206 36.1029 52.6171 33.7029 52.1349C32.5122 51.8957 31.003 51.5349 31.003 48.2349C31.003 51.5349 29.6588 51.8957 28.4681 52.1349C26.0681 52.6171 23.0686 52.5492 20.533 52.1349C17.9973 51.7206 17.3579 50.1824 17.0252 49.2087C16.6925 48.2349 16.5678 46.2713 16.6431 44.1412C16.6905 42.8002 17.3401 39.2174 17.6539 34.9441C17.5296 36.3853 17.1267 37.2202 16.0675 37.7534C14.5668 38.5088 8.27117 37.7113 6.95231 36.9559C5.63346 36.2005 5.10798 34.9401 5.86356 32.7377C6.61914 30.5354 7.40681 29.013 7.84269 25.6236C8.27856 22.2341 9.71483 18.8838 11.8591 16.5505C12.9512 15.3623 14.8906 13.5063 17.4965 11.807L17.4597 11.7429C17.1585 11.2144 17.0392 10.6046 17.6881 10.0678C18.337 9.53098 18.9218 9.15505 19.9547 8.7045C20.96 8.26604 21.613 8.84604 22.3837 9.63286C24.5356 8.8082 27.5924 8.46631 30.9627 8.46631C34.3477 8.46631 37.4468 8.81118 39.6063 9.64364C40.3815 8.85136 41.0359 8.26406 42.0457 8.70451C43.0787 9.15506 43.6635 9.53099 44.3124 10.0678C44.9613 10.6046 44.842 11.2144 44.5408 11.7429L44.505 11.8059C47.1118 13.5055 49.0517 15.362 50.144 16.5505C52.2883 18.8838 53.7246 22.2341 54.1604 25.6236C54.5963 29.013 55.384 30.5354 56.1396 32.7377C56.8951 34.9401 56.3697 36.2005 55.0508 36.9559C53.732 37.7113 47.4363 38.5088 45.9356 37.7534C44.8501 37.207 44.4855 36.2585 44.3693 34.7799C44.5334 37.1891 44.863 38.8317 45.0023 40.1138Z" fill="#E3E0D3"/>
</svg>
