<svg width="64" height="84" viewBox="0 0 64 84" fill="none" xmlns="http://www.w3.org/2000/svg">
<path d="M15.1683 69.9001C14.9425 68.5702 14.9005 65.8851 15.3001 63.6001C15.484 62.5483 15.7271 61.5379 15.953 60.4683C15.5204 62.4069 14.7093 63.8533 13.7958 64.0817C12.5957 64.3817 7.07533 64.0817 5.71541 63.518C4.35549 62.9543 2.97903 60.4497 3.29601 57.0001C3.613 53.5505 5.79213 49.2767 6.50863 43.4183C7.22514 37.5599 7.1959 33.3001 7.1959 28.2001C7.1959 23.1001 8.09821 18.7758 10.4957 15.6001C11.6443 14.0787 12.999 13.3971 14.3851 12.8158C15.7713 12.2346 16.939 11.8769 18.3002 11.385C19.6614 10.8931 20.6594 10.4923 21.374 10.6071C23.5326 9.56127 28.0005 8.46631 31.7592 8.46631C35.5178 8.46631 40.0701 9.56127 42.2287 10.6071C42.9433 10.4924 43.7764 10.7267 44.6113 11.0523C45.4462 11.3779 47.6439 12.1333 49.2578 12.7925C50.8718 13.4516 52.0231 14.1762 53.098 15.6001C55.4955 18.7758 56.3979 23.1001 56.3979 28.2001C56.3979 33.3001 56.3686 37.5599 57.0851 43.4183C57.8016 49.2767 59.9808 53.5505 60.2977 57.0001C60.6147 60.4497 59.2383 62.9543 57.8783 63.518C56.5184 64.0817 50.998 64.3817 49.798 64.0817C48.8602 63.8472 47.9223 62.3665 47.4974 60.3508C47.7301 61.4641 47.9843 62.5098 48.1749 63.6001C48.5745 65.8851 48.5325 68.5702 48.3067 69.9001C48.0809 71.23 48.1752 72.0001 45.4752 72.6001C43.3738 73.0671 36.7748 73.3823 34.3748 72.9001C33.1841 72.6608 31.8002 72.3001 31.8002 69.0001C31.8002 72.3001 30.2909 72.6608 29.1002 72.9001C26.7002 73.3823 20.1012 73.0671 17.9998 72.6001C15.2998 72.0001 15.3941 71.23 15.1683 69.9001Z" fill="#E3E0D3"/>
</svg>
