<svg width="63" height="84" viewBox="0 0 63 84" fill="none" xmlns="http://www.w3.org/2000/svg">
<path d="M14.7777 69.9C14.5519 68.5701 14.5099 65.885 14.9095 63.6C15.0562 62.761 15.2405 61.9484 15.4237 61.1111C14.9605 62.3766 14.1022 63.9074 13.4051 64.0816C12.2051 64.3816 6.6847 64.0816 5.32478 63.5179C3.96486 62.9542 2.5884 60.4496 2.90539 57C3.22237 53.5504 5.40151 49.2766 6.11801 43.4182C6.83451 37.5598 6.80527 33.3 6.80527 28.2C6.80527 23.1 7.21817 20.0002 9.00391 17.5001C10.7896 15 12.5039 14.1037 14.5039 13C16.5039 11.8963 18.1392 11.5672 18.9921 11.8963C22.7921 10.7155 27.9204 10.3154 31.3687 10.3154C34.8235 10.3154 40.0037 10.717 43.8057 11.903C44.6628 11.5662 46.0039 11.9536 47.5039 12.5C49.0039 13.0464 51.5039 14.5 53.5039 17.5001C55.5039 20.5002 56.0072 23.1 56.0072 28.2C56.0072 33.3 55.978 37.5598 56.6945 43.4182C57.411 49.2766 59.5901 53.5504 59.9071 57C60.2241 60.4496 58.8476 62.9542 57.4877 63.5179C56.1278 64.0816 50.6074 64.3816 49.4074 64.0816C48.5551 63.8685 47.6716 62.6073 47.2166 60.8661C47.417 61.7906 47.6233 62.6795 47.7843 63.6C48.1839 65.885 48.1419 68.5701 47.9161 69.9C47.6903 71.2299 47.7846 72 45.0846 72.6C42.9832 73.067 36.3842 73.3822 33.9842 72.9C32.7934 72.6607 31.4096 72.3 31.4096 69C31.4096 72.3 29.9003 72.6607 28.7096 72.9C26.3096 73.3822 19.7106 73.067 17.6092 72.6C14.9092 72 15.0034 71.2299 14.7777 69.9Z" fill="#E3E0D3"/>
</svg>
