<svg width="63" height="84" viewBox="0 0 63 84" fill="none" xmlns="http://www.w3.org/2000/svg">
<path d="M14.7714 69.9C14.5456 68.5701 14.5036 65.885 14.9032 63.6C15.3028 61.315 15.9815 59.2256 16.1567 56.2993C16.3117 53.7103 15.3788 53.3027 15.356 48.8405C15.3425 46.2137 16.4356 41.9181 17.2146 37.1763C17.0146 37.408 16.7685 37.601 16.466 37.7533C14.9652 38.5087 8.66961 37.7112 7.35075 36.9558C6.03189 36.2004 5.50641 34.94 6.262 32.7376C7.01758 30.5353 7.80525 29.0129 8.24112 25.6235C8.677 22.234 10.1133 18.8837 12.2576 16.5504C12.7519 16.0126 13.0654 15.6582 13.9461 14.9069C14.8269 14.1557 15.4246 13.6079 16.1018 13.0464C16.7789 12.4848 18.1329 11.5672 18.9859 11.8963C22.7858 10.7155 27.9141 10.3154 31.3625 10.3154C34.8172 10.3154 39.9974 10.717 43.7995 11.903C44.6566 11.5662 45.8113 12.3048 46.5398 12.8645C47.2683 13.4242 48.0541 14.1516 48.6591 14.6957C49.4363 15.3947 50.069 16.0353 50.5424 16.5504C52.6867 18.8837 54.123 22.234 54.5589 25.6235C54.9948 29.0129 55.7824 30.5353 56.538 32.7376C57.2936 34.94 56.7681 36.2004 55.4492 36.9558C54.1304 37.7112 47.8348 38.5087 46.334 37.7533C45.9509 37.5604 45.6583 37.3023 45.4351 36.983C46.2158 41.8012 47.3389 46.1781 47.3253 48.8405C47.3024 53.3027 46.3696 53.7103 46.5246 56.2993C46.6998 59.2256 47.3785 61.315 47.778 63.6C48.1776 65.885 48.1356 68.5701 47.9099 69.9C47.6841 71.2299 47.7783 72 45.0783 72.6C42.9769 73.067 36.3779 73.3822 33.9779 72.9C32.7872 72.6607 31.4033 72.3 31.4033 69C31.4033 72.3 29.8941 72.6607 28.7033 72.9C26.3033 73.3822 19.7043 73.067 17.6029 72.6C14.9029 72 14.9972 71.2299 14.7714 69.9Z" fill="#E3E0D3"/>
</svg>
