<svg width="63" height="84" viewBox="0 0 63 84" fill="none" xmlns="http://www.w3.org/2000/svg">
<path d="M28.5048 63.3C26.1048 63.7822 20.8711 63.767 18.7697 63.3C16.6812 62.8359 15.6353 62.0189 15.2289 61.1042C14.7664 62.7216 14.0149 63.8784 13.202 64.0816C12.002 64.3816 6.48158 64.0816 5.12166 63.5179C3.76174 62.9542 2.38528 60.4496 2.70226 57C3.01925 53.5504 5.19838 49.2766 5.91488 43.4182C6.63139 37.5598 6.60215 33.3 6.60215 28.2C6.60215 23.1 7.50446 18.7757 9.90195 15.6C10.9959 14.1509 12.5282 13.2747 14.8115 12.4083C15.4072 12.1822 16.1144 11.9218 16.8396 11.7556C17.5648 11.5894 18.1212 11.565 18.7924 11.8953C22.592 10.7152 27.7183 10.3154 31.1656 10.3154C34.6199 10.3154 39.7991 10.7168 43.601 11.9024C44.276 11.5627 44.9258 11.6312 45.5247 11.7668C46.1235 11.9024 46.5887 12.0382 47.1615 12.2472C49.6865 13.1683 51.3425 14.0611 52.5043 15.6C54.9018 18.7757 55.8041 23.1 55.8041 28.2C55.8041 33.3 55.7749 37.5598 56.4914 43.4182C57.2079 49.2766 59.387 53.5504 59.704 57C60.021 60.4496 58.6445 62.9542 57.2846 63.5179C55.9247 64.0816 50.4043 64.3816 49.2042 64.0816C48.3916 63.8784 47.6403 62.7223 47.1778 61.1058C46.7916 62.0456 45.7755 62.8254 43.6396 63.3C41.5382 63.767 36.3046 63.7822 33.9046 63.3C32.7138 63.0607 31.2048 62.7 31.2048 59.4C31.2048 62.7 29.6955 63.0607 28.5048 63.3Z" fill="#E3E0D3"/>
</svg>
