<svg width="63" height="84" viewBox="0 0 63 84" fill="none" xmlns="http://www.w3.org/2000/svg">
<path d="M45.6188 47.5804C45.6703 45.4687 45.2552 42.4564 45.0007 40.1138C44.8352 38.5901 44.4008 36.5572 44.295 33.3337C44.9194 38.2751 46.2212 39.9636 46.6005 44.247C47.4134 53.4259 46.3344 55.6642 46.5347 58.5341C46.735 61.4039 47.8011 63.7817 49.0011 64.0817C50.2011 64.3817 55.7215 64.0817 57.0815 63.518C58.4414 62.9543 59.8178 60.4497 59.5009 57.0001C59.1839 53.5505 57.0047 49.2767 56.2882 43.4183C55.5717 37.5599 55.601 33.3001 55.601 28.2001C55.601 23.1001 54.6987 18.7758 52.3012 15.6001C50.8204 13.6386 48.5365 12.7268 44.6738 11.468C44.8588 11.0098 44.8498 10.5136 44.3108 10.0678C43.6619 9.53099 43.0771 9.15506 42.0442 8.70451C41.0344 8.26406 40.38 8.85136 39.6047 9.64363C37.4453 8.81118 34.3462 8.46631 30.9612 8.46631C27.5908 8.46631 24.5341 8.8082 22.3821 9.63286C21.6115 8.84604 20.9584 8.26604 19.9532 8.7045C18.9202 9.15505 18.3355 9.53098 17.6865 10.0678C17.1473 10.5139 17.1386 11.0104 17.3238 11.4688C13.4626 12.7272 11.1793 13.639 9.69883 15.6001C7.30133 18.7758 6.39902 23.1001 6.39902 28.2001C6.39902 33.3001 6.42826 37.5599 5.71176 43.4183C4.99526 49.2767 2.81612 53.5505 2.49914 57.0001C2.18215 60.4497 3.55861 62.9543 4.91853 63.518C6.27845 64.0817 11.7989 64.3817 12.9989 64.0817C14.1989 63.7817 15.265 61.4039 15.4653 58.5341C15.6656 55.6642 14.5866 53.4259 15.3995 44.247C15.7961 39.7681 17.2014 38.1263 17.7862 32.6361C17.5526 37.6674 16.6953 42.6187 16.6415 44.1412C16.5662 46.2713 16.691 48.2349 17.0236 49.2087C17.3563 50.1824 17.9958 51.7206 20.5314 52.1349C23.0671 52.5492 26.0665 52.6171 28.4665 52.1349C29.6572 51.8957 31.0014 51.5349 31.0014 48.2349C31.0014 51.5349 32.5106 51.8957 33.7014 52.1349C36.1014 52.6171 40.9343 52.4206 42.683 52.1349C44.4316 51.8492 45.5673 49.6921 45.6188 47.5804Z" fill="#E3E0D3"/>
</svg>
