<svg width="64" height="84" viewBox="0 0 64 84" fill="none" xmlns="http://www.w3.org/2000/svg">
<path d="M46.4157 47.5804C46.4672 45.4687 46.0521 42.4564 45.7976 40.1138C45.632 38.5901 45.1977 36.5572 45.0918 33.3337C45.7162 38.2751 47.0181 39.9636 47.3974 44.247C48.2103 53.4259 47.1313 55.6642 47.3316 58.5341C47.5319 61.4039 48.598 63.7817 49.798 64.0817C50.998 64.3817 56.5184 64.0817 57.8783 63.518C59.2383 62.9543 60.6147 60.4497 60.2977 57.0001C59.9808 53.5505 57.8016 49.2767 57.0851 43.4183C56.3686 37.5599 56.3979 33.3001 56.3979 28.2001C56.3979 23.1001 55.4955 18.7758 53.098 15.6001C51.7681 13.8385 49.7904 12.9235 46.603 11.8434C45.9858 11.6343 45.2541 11.3122 44.3887 10.9975C43.5232 10.6828 42.9433 10.4924 42.2287 10.6071C40.0701 9.56127 35.5178 8.46631 31.7592 8.46631C28.0005 8.46631 23.5326 9.56127 21.374 10.6071C20.6594 10.4923 19.7427 10.7418 18.9914 11.0523C18.2401 11.3628 17.3747 11.7109 16.7223 11.935C13.6916 12.9761 11.7879 13.8885 10.4957 15.6001C8.09821 18.7758 7.1959 23.1001 7.1959 28.2001C7.1959 33.3001 7.22514 37.5599 6.50863 43.4183C5.79213 49.2767 3.613 53.5505 3.29601 57.0001C2.97903 60.4497 4.35549 62.9543 5.71541 63.518C7.07533 64.0817 12.5957 64.3817 13.7958 64.0817C14.9958 63.7817 16.0619 61.4039 16.2622 58.5341C16.4625 55.6642 15.3835 53.4259 16.1963 44.247C16.5914 39.7862 17.9869 38.1397 18.5759 32.7026C18.3748 37.9287 17.4939 42.5712 17.4384 44.1412C17.3631 46.2713 17.4879 48.2349 17.8205 49.2087C18.1532 50.1824 18.7926 51.7206 21.3283 52.1349C23.8639 52.5492 26.8634 52.6171 29.2634 52.1349C30.4541 51.8957 31.7983 51.5349 31.7983 48.2349C31.7983 51.5349 33.3075 51.8957 34.4983 52.1349C36.8983 52.6171 41.7312 52.4206 43.4798 52.1349C45.2285 51.8492 46.3642 49.6921 46.4157 47.5804Z" fill="#E3E0D3"/>
</svg>
