<svg width="63" height="84" viewBox="0 0 63 84" fill="none" xmlns="http://www.w3.org/2000/svg">
<path d="M14.3714 69.9001C14.1456 68.5702 14.1036 65.8851 14.5032 63.6001C14.6564 62.7241 14.8404 61.961 15.0315 61.0843C14.5695 62.7121 13.8152 63.8776 12.9989 64.0817C11.7989 64.3817 6.27845 64.0817 4.91853 63.518C3.55861 62.9543 2.18215 60.4497 2.49914 57.0001C2.81612 53.5505 4.99526 49.2767 5.71176 43.4183C6.42826 37.5599 6.39902 33.3001 6.39902 28.2001C6.39902 23.1001 7.30133 18.7758 9.69883 15.6001C11.1793 13.639 13.4626 12.7272 17.3238 11.4688C17.1386 11.0104 17.1473 10.5139 17.6865 10.0678C18.3355 9.53098 18.9202 9.15505 19.9532 8.7045C20.9584 8.26604 21.6115 8.84604 22.3821 9.63286C24.5341 8.8082 27.5908 8.46631 30.9612 8.46631C34.3462 8.46631 37.4453 8.81118 39.6047 9.64363C40.38 8.85136 41.0344 8.26406 42.0442 8.70451C43.0771 9.15506 43.6619 9.53099 44.3108 10.0678C44.8498 10.5136 44.8588 11.0098 44.6738 11.468C48.5365 12.7268 50.8204 13.6386 52.3012 15.6001C54.6987 18.7758 55.601 23.1001 55.601 28.2001C55.601 33.3001 55.5717 37.5599 56.2882 43.4183C57.0047 49.2767 59.1839 53.5505 59.5009 57.0001C59.8178 60.4497 58.4414 62.9543 57.0815 63.518C55.7215 64.0817 50.2011 64.3817 49.0011 64.0817C48.0902 63.854 47.2564 62.4289 46.8199 60.5002C47.0439 61.558 47.1959 62.5587 47.378 63.6001C47.7776 65.8851 47.7356 68.5702 47.5098 69.9001C47.2841 71.23 47.3783 72.0001 44.6783 72.6001C42.5769 73.0671 35.9779 73.3823 33.5779 72.9001C32.3872 72.6608 31.0033 72.3001 31.0033 69.0001C31.0033 72.3001 29.4941 72.6608 28.3033 72.9001C25.9033 73.3823 19.3043 73.0671 17.2029 72.6001C14.5029 72.0001 14.5972 71.23 14.3714 69.9001Z" fill="#E3E0D3"/>
</svg>
