<svg width="63" height="84" viewBox="0 0 63 84" fill="none" xmlns="http://www.w3.org/2000/svg">
<path d="M45.8219 47.5803C45.8734 45.4686 45.4584 42.4563 45.2038 40.1137C45.0333 38.5437 44.5773 36.4332 44.4894 33.0366C45.1013 38.165 46.4183 39.8947 46.8037 44.2469C47.6165 53.4258 46.5375 55.6641 46.7378 58.534C46.9381 61.4038 48.0042 63.7816 49.2042 64.0816C50.4043 64.3816 55.9247 64.0816 57.2846 63.5179C58.6445 62.9542 60.021 60.4496 59.704 57C59.387 53.5504 57.2079 49.2766 56.4914 43.4182C55.7749 37.5598 55.8041 33.3 55.8041 28.2C55.8041 23.1 54.9018 18.7757 52.5043 15.6C51.3719 14.1001 49.77 13.2139 47.3515 12.317C46.7204 12.083 45.8122 11.807 45.311 11.7354C44.8097 11.6638 44.276 11.5627 43.601 11.9024C39.7991 10.7168 34.6199 10.3154 31.1656 10.3154C27.7183 10.3154 22.592 10.7152 18.7924 11.8953C18.1212 11.565 17.6681 11.6118 17.2273 11.659C16.7865 11.7062 15.6388 12.0991 14.9921 12.3404C12.6086 13.2293 11.0245 14.1131 9.90195 15.6C7.50446 18.7757 6.60215 23.1 6.60215 28.2C6.60215 33.3 6.63139 37.5598 5.91488 43.4182C5.19838 49.2766 3.01925 53.5504 2.70226 57C2.38528 60.4496 3.76174 62.9542 5.12166 63.5179C6.48158 64.0816 12.002 64.3816 13.202 64.0816C14.402 63.7816 15.4681 61.4038 15.6684 58.534C15.8687 55.6641 14.7897 53.4258 15.6026 44.2469C16.0058 39.6933 17.4282 38.0722 17.9944 32.358C17.8201 37.7236 16.9014 42.5367 16.8446 44.1411C16.7693 46.2712 16.8941 48.2348 17.2268 49.2086C17.5594 50.1823 18.1989 51.7205 20.7345 52.1348C23.2702 52.5491 26.2696 52.6171 28.6696 52.1348C29.8604 51.8956 31.2045 51.5348 31.2045 48.2348C31.2045 51.5348 32.7138 51.8956 33.9045 52.1348C36.3045 52.6171 41.1374 52.4206 42.8861 52.1348C44.6348 51.8491 45.7704 49.6921 45.8219 47.5803Z" fill="#E3E0D3"/>
</svg>
