<svg width="63" height="84" viewBox="0 0 63 84" fill="none" xmlns="http://www.w3.org/2000/svg">
<path d="M42.4756 43.5035C44.2243 43.2178 45.2505 41.7686 45.4287 40.0993C45.5286 39.1629 45.5165 38.3527 45.4865 37.2813C45.6678 37.4669 45.8831 37.6246 46.1387 37.7533C47.6394 38.5087 53.9351 37.7112 55.2539 36.9558C56.5728 36.2004 57.0983 34.94 56.3427 32.7376C55.5871 30.5353 54.7994 29.0129 54.3636 25.6235C53.9277 22.234 52.4914 18.8837 50.3471 16.5504C49.5875 15.7239 48.4178 14.5742 46.899 13.3789C46.3896 12.978 45.6086 12.375 45.2553 12.1714C44.9019 11.9678 44.2775 11.5627 43.6025 11.9024C39.8006 10.7168 34.6214 10.3154 31.1671 10.3154C27.7198 10.3154 22.5936 10.7152 18.794 11.8953C18.1227 11.565 17.5841 11.8953 17.1089 12.2237C16.6337 12.552 16.3524 12.7323 15.8827 13.0905C14.1819 14.3876 12.8828 15.6575 12.0623 16.5504C9.91796 18.8837 8.48169 22.234 8.04581 25.6235C7.60994 29.0129 6.82227 30.5353 6.06669 32.7376C5.3111 34.94 5.83658 36.2004 7.15544 36.9558C8.4743 37.7112 14.7699 38.5087 16.2707 37.7533C16.4797 37.6481 16.6618 37.5234 16.8203 37.38C16.8727 39.7782 16.9577 39.7332 17.2314 40.5344C17.564 41.5081 18.2035 43.0463 20.7392 43.4606C23.2748 43.8749 26.2742 43.9429 28.6742 43.4606C29.865 43.2214 31.2749 43.04 31.2749 39.74C31.2749 43.04 32.7135 43.2643 33.9043 43.5035C36.3043 43.9858 40.727 43.7893 42.4756 43.5035Z" fill="#E3E0D3"/>
</svg>
