<svg width="64" height="84" viewBox="0 0 64 84" fill="none" xmlns="http://www.w3.org/2000/svg">
<path d="M15.1698 69.9001C14.944 68.5702 14.9021 65.8851 15.3016 63.6001C15.7012 61.3151 16.3799 59.2257 16.5551 56.2994C16.7101 53.7104 15.7773 53.3028 15.7544 48.8406C15.741 46.2138 16.834 41.9182 17.6131 37.1764C17.413 37.4081 17.1669 37.6011 16.8644 37.7534C15.3637 38.5088 9.06805 37.7113 7.74919 36.9559C6.43033 36.2005 5.90485 34.9401 6.66044 32.7377C7.41602 30.5354 8.20369 29.013 8.63956 25.6236C9.07544 22.2341 10.5117 18.8838 12.656 16.5505C13.569 15.5571 15.0741 14.0971 17.0659 12.652C17.6652 12.2173 18.2059 11.7547 19.0196 11.2233C19.8334 10.6919 20.661 10.4923 21.3755 10.6071C23.5342 9.56127 28.0021 8.46631 31.7607 8.46631C35.5194 8.46631 40.0717 9.56127 42.2303 10.6071C42.9448 10.4924 43.8259 10.7793 44.8662 11.4555C45.9064 12.1316 46.9207 12.9378 48.013 13.77C49.1052 14.6022 50.0843 15.6184 50.9409 16.5505C53.0852 18.8838 54.5214 22.2341 54.9573 25.6236C55.3932 29.013 56.1809 30.5354 56.9364 32.7377C57.692 34.9401 57.1665 36.2005 55.8477 36.9559C54.5288 37.7113 48.2332 38.5088 46.7325 37.7534C46.3493 37.5605 46.0568 37.3024 45.8335 36.9831C46.6143 41.8013 47.7373 46.1782 47.7237 48.8406C47.7009 53.3028 46.768 53.7104 46.923 56.2994C47.0982 59.2257 47.7769 61.3151 48.1765 63.6001C48.5761 65.8851 48.5341 68.5702 48.3083 69.9001C48.0825 71.23 48.1768 72.0001 45.4767 72.6001C43.3753 73.0671 36.7764 73.3823 34.3764 72.9001C33.1856 72.6608 31.8018 72.3001 31.8018 69.0001C31.8018 72.3001 30.2925 72.6608 29.1018 72.9001C26.7018 73.3823 20.1028 73.0671 18.0014 72.6001C15.3014 72.0001 15.3956 71.23 15.1698 69.9001Z" fill="#E3E0D3"/>
</svg>
