<svg width="63" height="84" viewBox="0 0 63 84" fill="none" xmlns="http://www.w3.org/2000/svg">
<path d="M14.5761 69.9C14.3503 68.5701 14.3083 65.885 14.7079 63.6C15.1075 61.315 15.7862 59.2256 15.9613 56.2993C16.1163 53.7103 15.1835 53.3027 15.1607 48.8405C15.1472 46.2137 16.2403 41.9181 17.0193 37.1763C16.8193 37.408 16.5732 37.601 16.2707 37.7533C14.7699 38.5087 8.4743 37.7112 7.15544 36.9558C5.83658 36.2004 5.3111 34.94 6.06669 32.7376C6.82227 30.5353 7.60994 29.0129 8.04581 25.6235C8.48169 22.234 9.91796 18.8837 12.0623 16.5504C12.7653 15.7854 13.8197 14.7436 15.177 13.645C15.8413 13.1073 16.4261 12.696 17.0231 12.2956C17.62 11.8953 18.1227 11.565 18.794 11.8953C22.5936 10.7152 27.7198 10.3154 31.1671 10.3154C34.6214 10.3154 39.8006 10.7168 43.6025 11.9024C44.2775 11.5627 45.3284 12.308 45.9552 12.7109C46.5821 13.1138 47.1474 13.5628 47.7709 14.091C48.8709 15.0227 49.74 15.8898 50.3471 16.5504C52.4914 18.8837 53.9277 22.234 54.3636 25.6235C54.7994 29.0129 55.5871 30.5353 56.3427 32.7376C57.0983 34.94 56.5728 36.2004 55.2539 36.9558C53.9351 37.7112 47.6394 38.5087 46.1387 37.7533C45.7556 37.5604 45.463 37.3023 45.2398 36.983C46.0205 41.8012 47.1436 46.1781 47.1299 48.8405C47.1071 53.3027 46.1743 53.7103 46.3293 56.2993C46.5045 59.2256 47.1832 61.315 47.5827 63.6C47.9823 65.885 47.9403 68.5701 47.7145 69.9C47.4887 71.2299 47.583 72 44.883 72.6C42.7816 73.067 36.1826 73.3822 33.7826 72.9C32.5919 72.6607 31.208 72.3 31.208 69C31.208 72.3 29.6988 72.6607 28.508 72.9C26.108 73.3822 19.509 73.067 17.4076 72.6C14.7076 72 14.8019 71.2299 14.5761 69.9Z" fill="#E3E0D3"/>
</svg>
