<svg width="63" height="84" viewBox="0 0 63 84" fill="none" xmlns="http://www.w3.org/2000/svg">
<path d="M42.6772 43.5035C44.4259 43.2178 45.4521 41.7686 45.6302 40.0993C45.6997 39.4486 45.715 38.8588 45.7079 38.2C46.243 40.1104 46.784 41.7311 47.0068 44.2469C47.8196 53.4258 46.7406 55.6641 46.9409 58.534C47.1412 61.4038 48.2074 63.7816 49.4074 64.0816C50.6074 64.3816 56.1278 64.0816 57.4877 63.5179C58.8476 62.9542 60.2241 60.4496 59.9071 57C59.5901 53.5504 57.411 49.2766 56.6945 43.4182C55.978 37.5598 56.0072 33.3 56.0072 28.2C56.0072 23.1 55.1049 18.7757 52.7074 15.6C51.7354 14.3124 50.4173 13.4771 48.5337 12.6991L48.4921 12.6819C47.8994 12.4371 46.9485 12.0442 46.3941 11.903C45.8265 11.7584 44.6628 11.5662 43.8057 11.903C40.0037 10.717 34.8235 10.3154 31.3687 10.3154C27.9204 10.3154 22.7921 10.7155 18.9921 11.8963C18.1392 11.5672 17.5162 11.6562 16.8345 11.815C16.1529 11.9738 14.8155 12.4751 14.2067 12.729C12.3615 13.4986 11.0647 14.3289 10.1051 15.6C7.70758 18.7757 6.80527 23.1 6.80527 28.2C6.80527 33.3 6.83451 37.5598 6.11801 43.4182C5.40151 49.2766 3.22237 53.5504 2.90539 57C2.5884 60.4496 3.96486 62.9542 5.32478 63.5179C6.6847 64.0816 12.2051 64.3816 13.4051 64.0816C14.6051 63.7816 15.6713 61.4038 15.8716 58.534C16.0719 55.6641 14.9929 53.4258 15.8057 44.2469C16.0211 41.8144 16.5341 40.2187 17.0515 38.3889C17.1078 39.7866 17.2048 39.8665 17.4329 40.5344C17.7656 41.5081 18.4051 43.0463 20.9407 43.4606C23.4764 43.8749 26.4758 43.9429 28.8758 43.4606C30.0665 43.2214 31.4764 43.04 31.4764 39.74C31.4764 43.04 32.9151 43.2643 34.1058 43.5035C36.5058 43.9858 40.9285 43.7893 42.6772 43.5035Z" fill="#E3E0D3"/>
</svg>
