<svg width="64" height="84" viewBox="0 0 64 84" fill="none" xmlns="http://www.w3.org/2000/svg">
<path d="M15.6216 60.2821C15.5356 59.054 15.6216 56.9151 16.4769 54.0048C17.3321 51.0944 16.4996 49.7882 16.4768 45.326C16.4653 43.0851 17.0879 40.2954 17.6289 37.1582C17.426 37.398 17.1749 37.5973 16.8644 37.7536C15.3637 38.509 9.06805 37.7115 7.74919 36.9561C6.43033 36.2007 5.90485 34.9403 6.66044 32.7379C7.41602 30.5356 8.20369 29.0132 8.63956 25.6237C9.07544 22.2343 10.5117 18.884 12.656 16.5507C13.5063 15.6256 14.8702 14.2956 16.6625 12.95C17.3144 12.4605 18.0032 11.9066 18.9149 11.3495C19.8265 10.7924 20.661 10.4923 21.3755 10.6071C23.5342 9.56127 28.0021 8.46631 31.7607 8.46631C35.5194 8.46631 40.0717 9.56127 42.2303 10.6071C43.1451 10.3819 44.2639 11.136 44.777 11.4575C45.29 11.779 46.4146 12.549 47.1914 13.1451C48.8574 14.4233 50.1317 15.6703 50.9409 16.5507C53.0852 18.884 54.5214 22.2343 54.9573 25.6237C55.3932 29.0132 56.1809 30.5356 56.9364 32.7379C57.692 34.9403 57.1665 36.2007 55.8477 36.9561C54.5288 37.7115 48.2332 38.509 46.7325 37.7536C46.4239 37.5983 46.1741 37.4006 45.9719 37.1627C46.5127 40.2981 47.1346 43.0862 47.1232 45.326C47.1003 49.7882 46.2678 51.0944 47.1231 54.0048C47.9784 56.9151 48.0644 59.054 47.9784 60.2821C47.8924 61.5103 46.935 62.7001 44.235 63.3001C42.1336 63.7671 36.8999 63.7823 34.4999 63.3001C33.3091 63.0608 31.8001 62.7001 31.8001 59.4001C31.8001 62.7001 30.2908 63.0608 29.1001 63.3001C26.7001 63.7823 21.4664 63.7671 19.365 63.3001C16.665 62.7001 15.7076 61.5103 15.6216 60.2821Z" fill="#E3E0D3"/>
</svg>
