<svg width="64" height="84" viewBox="0 0 64 84" fill="none" xmlns="http://www.w3.org/2000/svg">
<path d="M29.0985 63.3001C26.6985 63.7823 21.4649 63.7671 19.3634 63.3001C17.2749 62.836 16.2291 62.019 15.8227 61.1043C15.3602 62.7216 14.6087 63.8785 13.7958 64.0817C12.5957 64.3817 7.07533 64.0817 5.71541 63.518C4.35549 62.9543 2.97903 60.4497 3.29601 57.0001C3.613 53.5505 5.79213 49.2767 6.50863 43.4183C7.22514 37.5599 7.1959 33.3001 7.1959 28.2001C7.1959 23.1001 8.09821 18.7758 10.4957 15.6001C11.8112 13.8576 13.7605 12.9434 16.8875 11.8785C17.5135 11.6653 18.3992 11.2918 19.1531 11.0405C19.907 10.7892 20.6594 10.4923 21.374 10.6071C23.5326 9.56127 28.0005 8.46631 31.7592 8.46631C35.5178 8.46631 40.0701 9.56127 42.2287 10.6071C42.9433 10.4924 43.9192 10.8386 44.6154 11.111C45.3116 11.3835 47.7008 12.3545 48.8894 12.7925L48.9213 12.8042C50.1082 13.2414 51.7831 13.8583 53.098 15.6001C55.4955 18.7758 56.3979 23.1001 56.3979 28.2001C56.3979 33.3001 56.3686 37.5599 57.0851 43.4183C57.8016 49.2767 59.9808 53.5505 60.2977 57.0001C60.6147 60.4497 59.2383 62.9543 57.8783 63.518C56.5184 64.0817 50.998 64.3817 49.798 64.0817C48.9858 63.8786 48.2349 62.7237 47.7723 61.1085C47.3645 62.0215 46.3187 62.8367 44.2334 63.3001C42.132 63.7671 36.8983 63.7823 34.4983 63.3001C33.3076 63.0608 31.7985 62.7001 31.7985 59.4001C31.7985 62.7001 30.2893 63.0608 29.0985 63.3001Z" fill="#E3E0D3"/>
</svg>
