<svg width="63" height="84" viewBox="0 0 63 84" fill="none" xmlns="http://www.w3.org/2000/svg">
<path d="M15.2232 60.282C15.1372 59.0539 15.2231 56.915 16.0784 54.0047C16.9337 51.0943 16.1012 49.7881 16.0784 45.3259C16.0669 43.0849 16.6895 40.2951 17.2305 37.1578C17.0276 37.3977 16.7765 37.597 16.466 37.7533C14.9652 38.5087 8.66961 37.7112 7.35075 36.9558C6.03189 36.2004 5.50641 34.94 6.262 32.7376C7.01758 30.5353 7.80525 29.0129 8.24112 25.6235C8.677 22.234 10.1133 18.8837 12.2576 16.5504C13.0875 15.6474 14.227 14.4784 15.5823 13.2737C16.9377 12.0689 18.1329 11.5672 18.9859 11.8963C22.7858 10.7155 27.9141 10.3154 31.3625 10.3154C34.8172 10.3154 39.9974 10.717 43.7995 11.903C44.6566 11.5662 46.0431 12.0389 47.6243 13.5898C49.2056 15.1406 49.7781 15.7187 50.5424 16.5504C52.6867 18.8837 54.123 22.234 54.5589 25.6235C54.9948 29.0129 55.7824 30.5353 56.538 32.7376C57.2936 34.94 56.7681 36.2004 55.4492 36.9558C54.1304 37.7112 47.8348 38.5087 46.334 37.7533C46.0255 37.598 45.7756 37.4003 45.5734 37.1624C46.1142 40.2979 46.7362 43.086 46.7247 45.3259C46.7019 49.7881 45.8694 51.0943 46.7247 54.0047C47.58 56.915 47.6659 59.0539 47.5799 60.282C47.4939 61.5102 46.5365 62.7 43.8365 63.3C41.7351 63.767 36.5014 63.7822 34.1014 63.3C32.9107 63.0607 31.4016 62.7 31.4016 59.4C31.4016 62.7 29.8924 63.0607 28.7016 63.3C26.3016 63.7822 21.068 63.767 18.9666 63.3C16.2666 62.7 15.3092 61.5102 15.2232 60.282Z" fill="#E3E0D3"/>
</svg>
