<svg width="63" height="84" viewBox="0 0 63 84" fill="none" xmlns="http://www.w3.org/2000/svg">
<path d="M14.8247 60.2821C14.7387 59.054 14.8247 56.9151 15.68 54.0048C16.5353 51.0944 15.7028 49.7882 15.6799 45.326C15.6685 43.085 16.291 40.2952 16.832 37.1579C16.6291 37.3978 16.3781 37.5971 16.0675 37.7534C14.5668 38.5088 8.27117 37.7113 6.95231 36.9559C5.63346 36.2005 5.10798 34.9401 5.86356 32.7377C6.61914 30.5354 7.40681 29.013 7.84269 25.6236C8.27856 22.2341 9.71483 18.8838 11.8591 16.5505C12.9512 15.3623 14.8906 13.5063 17.4965 11.807L17.4597 11.7429C17.1585 11.2144 17.0392 10.6046 17.6881 10.0678C18.337 9.53098 18.9218 9.15505 19.9547 8.7045C20.96 8.26604 21.613 8.84604 22.3837 9.63286C24.5356 8.8082 27.5924 8.46631 30.9627 8.46631C34.3477 8.46631 37.4468 8.81118 39.6063 9.64364C40.3815 8.85136 41.0359 8.26406 42.0457 8.70451C43.0787 9.15506 43.6635 9.53099 44.3124 10.0678C44.9613 10.6046 44.842 11.2144 44.5408 11.7429L44.505 11.806C47.1117 13.5056 49.0517 15.362 50.144 16.5505C52.2883 18.8838 53.7246 22.2341 54.1604 25.6236C54.5963 29.013 55.384 30.5354 56.1396 32.7377C56.8951 34.9401 56.3697 36.2005 55.0508 36.9559C53.732 37.7113 47.4363 38.5088 45.9356 37.7534C45.627 37.5981 45.3772 37.4004 45.175 37.1625C45.7158 40.298 46.3378 43.0861 46.3263 45.326C46.3035 49.7882 45.4709 51.0944 46.3262 54.0048C47.1815 56.9151 47.2675 59.054 47.1815 60.2821C47.0955 61.5103 46.1381 62.7001 43.4381 63.3001C41.3367 63.7671 36.103 63.7823 33.703 63.3001C32.5123 63.0608 31.0032 62.7001 31.0032 59.4001C31.0032 62.7001 29.494 63.0608 28.3032 63.3001C25.9032 63.7823 20.6695 63.7671 18.5681 63.3001C15.8681 62.7001 14.9107 61.5103 14.8247 60.2821Z" fill="#E3E0D3"/>
</svg>
