<svg width="63" height="84" viewBox="0 0 63 84" fill="none" xmlns="http://www.w3.org/2000/svg">
<path d="M28.7079 63.3C26.3079 63.7822 21.0742 63.767 18.9728 63.3C16.8843 62.8359 15.8385 62.0189 15.4321 61.1042C14.9696 62.7216 14.2181 63.8784 13.4051 64.0816C12.2051 64.3816 6.6847 64.0816 5.32478 63.5179C3.96486 62.9542 2.5884 60.4496 2.90539 57C3.22237 53.5504 5.40151 49.2766 6.11801 43.4182C6.83451 37.5598 6.80527 33.3 6.80527 28.2C6.80527 23.1 7.70758 18.7757 10.1051 15.6C10.9346 14.5013 12.0161 13.7319 13.4859 13.0464C14.1546 12.7345 15.3752 12.1878 16.2206 11.8963C17.066 11.6048 18.1392 11.5672 18.9921 11.8963C22.7921 10.7155 27.9204 10.3154 31.3687 10.3154C34.8235 10.3154 40.0037 10.717 43.8057 11.903C44.6628 11.5662 45.6794 11.7508 46.5936 12.032C47.5078 12.3133 48.6579 12.7345 49.3266 13.0464C50.7965 13.7319 51.8779 14.5013 52.7074 15.6C55.1049 18.7757 56.0072 23.1 56.0072 28.2C56.0072 33.3 55.978 37.5598 56.6945 43.4182C57.411 49.2766 59.5901 53.5504 59.9071 57C60.2241 60.4496 58.8476 62.9542 57.4877 63.5179C56.1278 64.0816 50.6074 64.3816 49.4074 64.0816C48.5951 63.8786 47.8442 62.7236 47.3816 61.1084C46.9739 62.0214 45.9281 62.8366 43.8428 63.3C41.7414 63.767 36.5077 63.7822 34.1077 63.3C32.917 63.0607 31.4079 62.7 31.4079 59.4C31.4079 62.7 29.8986 63.0607 28.7079 63.3Z" fill="#E3E0D3"/>
</svg>
