<svg width="63" height="84" viewBox="0 0 63 84" fill="none" xmlns="http://www.w3.org/2000/svg">
<path d="M15.0279 60.282C14.9419 59.0539 15.0278 56.915 15.8831 54.0047C16.7384 51.0943 15.9059 49.7881 15.8831 45.3259C15.8716 43.0849 16.4942 40.2951 17.0351 37.1578C16.8323 37.3977 16.5812 37.597 16.2707 37.7533C14.7699 38.5087 8.4743 37.7112 7.15544 36.9558C5.83658 36.2004 5.3111 34.94 6.06669 32.7376C6.82227 30.5353 7.60994 29.0129 8.04581 25.6235C8.48169 22.234 9.91796 18.8837 12.0623 16.5504C12.7653 15.7854 13.8197 14.7436 15.177 13.645C15.735 13.1934 16.2656 12.819 16.7396 12.503C17.2135 12.187 18.1227 11.565 18.794 11.8953C22.5936 10.7152 27.7198 10.3154 31.1671 10.3154C34.6214 10.3154 39.8006 10.7168 43.6025 11.9024C44.2775 11.5627 46.1307 12.6956 47.3106 13.645C48.4906 14.5944 49.644 15.7854 50.3471 16.5504C52.4914 18.8837 53.9277 22.234 54.3636 25.6235C54.7994 29.0129 55.5871 30.5353 56.3427 32.7376C57.0983 34.94 56.5728 36.2004 55.2539 36.9558C53.9351 37.7112 47.6394 38.5087 46.1387 37.7533C45.8301 37.598 45.5803 37.4003 45.3781 37.1624C45.9189 40.2979 46.5409 43.086 46.5294 45.3259C46.5066 49.7881 45.6741 51.0943 46.5294 54.0047C47.3847 56.915 47.4706 59.0539 47.3846 60.282C47.2986 61.5102 46.3412 62.7 43.6412 63.3C41.5398 63.767 36.3061 63.7822 33.9061 63.3C32.7154 63.0607 31.2063 62.7 31.2063 59.4C31.2063 62.7 29.6971 63.0607 28.5063 63.3C26.1063 63.7822 20.8727 63.767 18.7713 63.3C16.0713 62.7 15.1139 61.5102 15.0279 60.282Z" fill="#E3E0D3"/>
</svg>
