<svg width="63" height="84" viewBox="0 0 63 84" fill="none" xmlns="http://www.w3.org/2000/svg">
<path d="M14.373 69.9001C14.1472 68.5702 14.1052 65.8851 14.5048 63.6001C14.9044 61.3151 15.583 59.2257 15.7582 56.2994C15.9132 53.7104 14.9804 53.3028 14.9576 48.8406C14.9441 46.2138 16.0371 41.9182 16.8162 37.1764C16.6161 37.4081 16.3701 37.6011 16.0675 37.7534C14.5668 38.5088 8.27117 37.7113 6.95231 36.9559C5.63346 36.2005 5.10798 34.9401 5.86356 32.7377C6.61914 30.5354 7.40681 29.013 7.84269 25.6236C8.27856 22.2341 9.71483 18.8838 11.8591 16.5505C12.9512 15.3623 14.8906 13.5063 17.4965 11.807L17.4597 11.7429C17.1585 11.2144 17.0392 10.6046 17.6881 10.0678C18.337 9.53098 18.9218 9.15505 19.9547 8.7045C20.96 8.26604 21.613 8.84604 22.3837 9.63286C24.5356 8.8082 27.5924 8.46631 30.9627 8.46631C34.3477 8.46631 37.4468 8.81118 39.6063 9.64364C40.3815 8.85136 41.0359 8.26406 42.0457 8.70451C43.0787 9.15506 43.6635 9.53099 44.3124 10.0678C44.9613 10.6046 44.842 11.2144 44.5408 11.7429L44.505 11.806C47.1117 13.5056 49.0517 15.362 50.144 16.5505C52.2883 18.8838 53.7246 22.2341 54.1604 25.6236C54.5963 29.013 55.384 30.5354 56.1396 32.7377C56.8951 34.9401 56.3697 36.2005 55.0508 36.9559C53.732 37.7113 47.4363 38.5088 45.9356 37.7534C45.5525 37.5605 45.2599 37.3024 45.0366 36.9831C45.8174 41.8013 46.9404 46.1782 46.9268 48.8406C46.904 53.3028 45.9712 53.7104 46.1262 56.2994C46.3013 59.2257 46.98 61.3151 47.3796 63.6001C47.7792 65.8851 47.7372 68.5702 47.5114 69.9001C47.2856 71.23 47.3799 72.0001 44.6799 72.6001C42.5785 73.0671 35.9795 73.3823 33.5795 72.9001C32.3887 72.6608 31.0049 72.3001 31.0049 69.0001C31.0049 72.3001 29.4956 72.6608 28.3049 72.9001C25.9049 73.3823 19.3059 73.0671 17.2045 72.6001C14.5045 72.0001 14.5988 71.23 14.373 69.9001Z" fill="#E3E0D3"/>
</svg>
