<svg width="63" height="84" viewBox="0 0 63 84" fill="none" xmlns="http://www.w3.org/2000/svg">
<path d="M42.2725 43.5036C44.0212 43.2179 45.0474 41.7687 45.2256 40.0994C45.3255 39.163 45.3134 38.3528 45.2834 37.2814C45.4647 37.467 45.68 37.6247 45.9356 37.7534C47.4363 38.5088 53.732 37.7113 55.0508 36.9559C56.3697 36.2005 56.8951 34.9401 56.1396 32.7377C55.384 30.5354 54.5963 29.013 54.1604 25.6236C53.7246 22.2341 52.2883 18.8838 50.144 16.5505C49.0517 15.362 47.1117 13.5056 44.505 11.806L44.5408 11.7429C44.842 11.2144 44.9613 10.6046 44.3124 10.0678C43.6635 9.53099 43.0787 9.15506 42.0457 8.70451C41.0359 8.26406 40.3815 8.85136 39.6063 9.64364C37.4468 8.81118 34.3477 8.46631 30.9627 8.46631C27.5924 8.46631 24.5356 8.8082 22.3837 9.63286C21.613 8.84604 20.96 8.26604 19.9547 8.7045C18.9218 9.15505 18.337 9.53098 17.6881 10.0678C17.0392 10.6046 17.1585 11.2144 17.4597 11.7429L17.4965 11.807C14.8906 13.5063 12.9512 15.3623 11.8591 16.5505C9.71483 18.8838 8.27856 22.2341 7.84269 25.6236C7.40681 29.013 6.61914 30.5354 5.86356 32.7377C5.10798 34.9401 5.63346 36.2005 6.95231 36.9559C8.27117 37.7113 14.5668 38.5088 16.0675 37.7534C16.2766 37.6482 16.4587 37.5235 16.6172 37.3801C16.6696 39.7783 16.7546 39.7333 17.0282 40.5345C17.3609 41.5082 18.0004 43.0464 20.536 43.4607C23.0717 43.875 26.0711 43.943 28.4711 43.4607C29.6619 43.2215 31.0717 43.0401 31.0717 39.7401C31.0717 43.0401 32.5104 43.2644 33.7011 43.5036C36.1011 43.9859 40.5238 43.7894 42.2725 43.5036Z" fill="#E3E0D3"/>
</svg>
