<svg width="64" height="54" viewBox="0 0 64 54" fill="none" xmlns="http://www.w3.org/2000/svg">
<path d="M4.63821 44.3864C3.52368 45.3738 3.32915 46.1565 3.32813 46.8973C3.3271 47.6381 3.6518 48.2717 4.01063 48.3153C4.01063 48.3153 3.32813 49.5262 3.32813 50.3064C3.32813 51.0866 3.99831 51.3919 4.99903 51.5615C5.99976 51.7311 8.89247 51.8967 12.0059 51.8943C15.6894 51.8914 19.2804 51.7128 20.9707 51.5333C22.6611 51.3538 23.4361 49.5153 23.4361 49.5153C23.4361 49.5153 23.4065 51.5333 25.2312 51.5333H27.7697C28.7762 51.5333 29.3862 51.2286 29.661 50.4051C29.9357 49.5816 29.661 44.5057 29.661 44.5057C29.661 44.5057 28.9155 39.9772 28.8823 38.2527C28.849 36.5283 29.6552 6.28914 29.503 5.13215C29.298 3.57413 29.0987 2.64171 27.4177 2.64171L18.9537 2.64171C17.9287 2.64171 16.4423 2.60385 16.2015 4.37253C15.9607 6.14121 18.1961 36.5676 17.4412 38.2527C16.6863 39.9379 12.4015 42.7527 10.6194 43.0513C8.83727 43.3499 5.75274 43.399 4.63821 44.3864Z" fill="#E3E0D3"/>
<path d="M58.9602 44.3863C60.0748 45.3737 60.2693 46.1564 60.2703 46.8972C60.2713 47.638 59.9466 48.2717 59.5878 48.3152C59.5878 48.3152 60.2703 49.5261 60.2703 50.3063C60.2703 51.0866 59.6001 51.3919 58.5994 51.5615C57.5987 51.7311 54.706 51.8967 51.5925 51.8942C47.909 51.8914 44.3181 51.7128 42.6277 51.5333C40.9374 51.3538 40.1623 49.5152 40.1623 49.5152C40.1623 49.5152 40.192 51.5333 38.3672 51.5333H35.8288C34.8223 51.5333 34.2123 51.2286 33.9375 50.4051C33.6627 49.5816 33.9375 44.5057 33.9375 44.5057C33.9375 44.5057 34.6829 39.9771 34.7162 38.2527C34.7494 36.5283 33.9432 6.28909 34.0954 5.1321C34.3004 3.57408 34.4997 2.64167 36.1808 2.64167L44.6447 2.64167C45.6697 2.64167 47.1561 2.6038 47.3969 4.37248C47.6377 6.14116 45.4023 36.5676 46.1572 38.2527C46.9121 39.9378 51.1969 42.7526 52.9791 43.0512C54.7612 43.3498 57.8457 43.3989 58.9602 44.3863Z" fill="#E3E0D3"/>
</svg>
