<svg width="63" height="54" viewBox="0 0 63 54" fill="none" xmlns="http://www.w3.org/2000/svg">
<path d="M3.84 44.8598C2.72547 45.8472 2.67613 46.7543 2.6751 47.4951C2.67408 48.2359 2.97125 48.9156 2.97125 48.9156C2.97125 48.9156 2.67198 49.7433 2.67188 50.3739C2.67177 51.0045 2.77849 51.9291 3.84 52.0951C4.90152 52.2611 8.09426 52.497 11.2077 52.4946C14.8912 52.4917 18.4822 52.3131 20.1725 52.1336C21.8629 51.9541 22.6379 50.1156 22.6379 50.1156C22.6379 50.1156 22.6083 52.1336 24.433 52.1336H26.9715C27.978 52.1336 28.588 51.8289 28.8627 51.0054C29.1375 50.1819 28.8627 45.106 28.8627 45.106C28.6222 43.1022 27.9432 40.344 27.7382 38.786L27.7306 38.728C27.5313 37.2116 27.4472 36.5718 25.7872 36.5718H20.1725C18.1034 36.5718 17.702 36.6014 17.1159 38.1738C16.5298 39.7461 16.0413 40.5767 14.8456 41.6486C13.65 42.7206 11.6033 43.353 9.82117 43.6515C8.03906 43.9501 4.95453 43.8724 3.84 44.8598Z" fill="#E3E0D3"/>
<path d="M58.3026 44.8599C59.4172 45.8474 59.4665 46.7544 59.4675 47.4952C59.4686 48.236 59.1714 48.9157 59.1714 48.9157C59.1714 48.9157 59.4707 49.7434 59.4708 50.374C59.4709 51.0046 59.3642 51.9292 58.3026 52.0952C57.2411 52.2612 54.0484 52.4971 50.9349 52.4947C47.2515 52.4918 43.6605 52.3132 41.9701 52.1337C40.2798 51.9542 39.5047 50.1157 39.5047 50.1157C39.5047 50.1157 39.5344 52.1337 37.7096 52.1337H35.1712C34.1647 52.1337 33.5547 51.829 33.2799 51.0055C33.0051 50.182 33.2799 45.1061 33.2799 45.1061C33.5204 43.1023 34.1995 40.3441 34.4045 38.7861L34.4121 38.7281C34.6113 37.2118 34.6954 36.5719 36.3555 36.5719H41.9701C44.0392 36.5719 44.4406 36.6015 45.0267 38.1739C45.6128 39.7463 46.1014 40.5768 47.297 41.6488C48.4927 42.7207 50.5394 43.3531 52.3215 43.6517C54.1036 43.9503 57.1881 43.8725 58.3026 44.8599Z" fill="#E3E0D3"/>
</svg>
