<svg width="63" height="54" viewBox="0 0 63 54" fill="none" xmlns="http://www.w3.org/2000/svg">
<path d="M4.43644 44.3865C3.32191 45.374 3.18853 46.1934 3.1875 46.9341C3.18648 47.6749 3.50888 48.3355 3.50888 48.3355C3.50888 48.3355 3.30123 49.6178 3.30112 50.2484C3.30101 50.879 3.8428 51.3603 4.90432 51.5263C5.96583 51.6923 8.69069 51.8969 11.8042 51.8945C15.4876 51.8916 19.0786 51.713 20.769 51.5335C22.4593 51.354 23.2344 49.5154 23.2344 49.5154C23.2344 49.5154 23.2047 51.5335 25.0295 51.5335H27.5679C28.5744 51.5335 29.1844 51.2288 29.4592 50.4053C29.734 49.5818 29.4592 44.5059 29.4592 44.5059C29.4592 44.5059 29.11 34.6395 28.905 33.0815C28.7 31.5235 28.635 30.8673 26.954 30.8673L20.769 30.8673C19.744 30.8673 18.333 30.553 18.0922 32.3217C17.8514 34.0903 18.0922 38.079 16.4846 39.7729C14.8769 41.4668 12.1997 42.7528 10.4176 43.0514C8.6355 43.35 5.55097 43.3991 4.43644 44.3865Z" fill="#E3E0D3"/>
<path d="M58.821 44.3866C59.9355 45.374 60.0689 46.1934 60.0699 46.9342C60.0709 47.675 59.7485 48.3356 59.7485 48.3356C59.7485 48.3356 59.9562 49.6179 59.9563 50.2485C59.9564 50.8791 59.4146 51.3604 58.3531 51.5264C57.2916 51.6923 54.5667 51.8969 51.4532 51.8945C47.7698 51.8916 44.1788 51.713 42.4884 51.5335C40.7981 51.354 40.023 49.5155 40.023 49.5155C40.023 49.5155 40.0527 51.5335 38.2279 51.5335H35.6895C34.683 51.5335 34.073 51.2288 33.7982 50.4053C33.5234 49.5818 33.7982 44.5059 33.7982 44.5059C33.7982 44.5059 34.1474 34.6396 34.3524 33.0815L34.36 33.0236C34.5593 31.5072 34.6433 30.8674 36.3034 30.8674L42.4884 30.8674C43.5134 30.8674 44.9244 30.553 45.1652 32.3217C45.406 34.0904 45.1652 38.079 46.7728 39.7729C48.3805 41.4669 51.0577 42.7529 52.8398 43.0515C54.6219 43.3501 57.7064 43.3992 58.821 44.3866Z" fill="#E3E0D3"/>
</svg>
