<svg width="63" height="54" viewBox="0 0 63 54" fill="none" xmlns="http://www.w3.org/2000/svg">
<path d="M29.0602 45.3145C29.2826 47.3918 29.0602 48.6842 29.0602 48.6842C29.0602 48.6842 29.3626 51.626 28.5678 51.626H23.5264C22.595 51.626 22.3756 50.4813 22.3756 50.4813C22.3756 50.4813 20.599 50.8016 18.8516 51.0346C17.1041 51.2676 15.2336 51.5075 13.7264 51.6366C8.61178 52.0746 5.42833 51.8058 4.48547 51.8058C3.54261 51.8058 2.48946 51.6098 2.48946 50.8221C2.48946 50.517 2.45656 50.0958 2.48927 50.0004C2.43888 49.7672 2.04247 47.7326 3.09949 46.7962C4.21402 45.8088 7.24603 46.1103 9.44775 45.5504C11.6495 44.9906 12.7379 44.4474 14.029 43.6025C14.9129 43.024 15.9286 42.4695 16.6911 41.2549C17.2505 40.3637 17.7461 39.2466 17.7683 38.5617C17.7904 37.8767 17.8607 37.2722 19.0061 37.1473C19.3348 37.1114 24.6868 37.1473 25.7477 37.1473C26.8087 37.1473 27.6039 37.2452 27.7137 38.1971C27.8235 39.149 28.7877 42.769 29.0602 45.3145Z" fill="#E3E0D3"/>
<path d="M33.3009 45.3145C33.0785 47.3918 33.3009 48.6842 33.3009 48.6842C33.3009 48.6842 32.9985 51.626 33.7934 51.626H38.8348C39.7662 51.626 39.9856 50.4813 39.9856 50.4813C39.9856 50.4813 41.7622 50.8016 43.5096 51.0346C45.2571 51.2676 47.1276 51.5075 48.6348 51.6366C53.7494 52.0746 56.9329 51.8058 57.8757 51.8058C58.8186 51.8058 59.8717 51.6098 59.8717 50.8221C59.8717 50.517 59.9046 50.0958 59.8719 50.0004C59.9223 49.7672 60.3187 47.7326 59.2617 46.7962C58.1472 45.8088 55.1151 46.1103 52.9134 45.5504C50.7117 44.9906 49.6233 44.4474 48.3322 43.6025C47.4483 43.024 46.4326 42.4695 45.6701 41.2549C45.1106 40.3637 44.615 39.2466 44.5929 38.5617C44.5708 37.8767 44.5005 37.2722 43.3551 37.1473C43.0264 37.1114 37.6744 37.1473 36.6134 37.1473C35.5525 37.1473 34.7573 37.2452 34.6475 38.1971C34.5376 39.149 33.5735 42.769 33.3009 45.3145Z" fill="#E3E0D3"/>
</svg>
