<svg width="63" height="54" viewBox="0 0 63 54" fill="none" xmlns="http://www.w3.org/2000/svg">
<path d="M29.0613 45.3145C29.2837 47.3918 28.9906 48.8169 29.0613 48.8193C29.0613 48.8193 29.3637 51.626 28.5688 51.626H23.5275C22.596 51.626 22.3766 50.4813 22.3766 50.4813C22.3766 50.4813 20.6001 50.8016 18.8526 51.0346C17.1052 51.2676 15.2346 51.5075 13.7274 51.6366C8.61281 52.0746 4.63408 51.6366 3.92598 51.6366C2.9529 51.6366 2.49049 51.6098 2.49049 50.8221C2.49049 50.517 2.52645 50.3651 2.55916 50.2697C2.50877 50.0364 2.0435 47.7326 3.10053 46.7962C4.21505 45.8088 7.24707 46.1102 9.44878 45.5504C11.6505 44.9905 12.7389 44.4474 14.03 43.6025C14.9139 43.024 16.757 41.0714 17.5195 39.8569C18.079 38.9656 15.4927 7.64005 15.4927 6.19746C15.4927 4.75486 16.4037 4.05932 17.5491 3.93439C17.8778 3.89853 25.1726 3.93441 26.8108 3.9344C28.449 3.93439 28.7998 4.84341 28.7998 6.19746C28.7998 7.24066 28.2807 37.6033 28.2807 39.0744C28.2807 40.5455 28.9987 44.7301 29.0613 45.3145Z" fill="#E3E0D3"/>
<path d="M33.3413 45.3146C33.1189 47.3919 33.4119 48.8169 33.3413 48.8193C33.3413 48.8193 33.0389 51.626 33.8337 51.626H38.8751C39.8065 51.626 40.0259 50.4814 40.0259 50.4814C40.0259 50.4814 41.8025 50.8017 43.5499 51.0347C45.2974 51.2677 47.1679 51.5076 48.6751 51.6367C53.7897 52.0747 57.7684 51.6367 58.4765 51.6367C59.4496 51.6367 59.912 51.6099 59.912 50.8221C59.912 50.5171 59.8761 50.3652 59.8434 50.2698C59.8938 50.0365 60.359 47.7327 59.302 46.7962C58.1875 45.8088 55.1555 46.1103 52.9538 45.5505C50.752 44.9906 49.6636 44.4475 48.3725 43.6025C47.4886 43.0241 45.6455 41.0715 44.883 39.8569C44.3236 38.9657 46.9099 7.64013 46.9099 6.19754C46.9099 4.75494 45.9988 4.0594 44.8535 3.93447C44.5247 3.89861 37.2299 3.93449 35.5917 3.93448C33.9535 3.93447 33.6028 4.84349 33.6028 6.19754C33.6028 7.24074 34.1219 37.6034 34.1219 39.0745C34.1219 40.5456 33.4038 44.7302 33.3413 45.3146Z" fill="#E3E0D3"/>
</svg>
