<svg width="63" height="129" viewBox="0 0 63 129" fill="none" xmlns="http://www.w3.org/2000/svg">
<path d="M45.6226 70.7813C47.1909 69.5386 47.9218 67.6328 48.199 66C48.3466 65.1307 48.445 64.1841 48.5105 63.1106C48.8396 63.6648 49.2575 64.0075 49.8997 64.1681C50.108 64.2202 50.4096 64.2448 50.7705 64.2483C51.4017 64.2545 52.2146 64.1962 53.0273 64.1078C53.7818 64.0256 54.5361 63.9175 55.1451 63.8106C55.6663 63.7192 56.0809 63.6287 56.298 63.5564C56.5492 63.4726 56.8703 63.3707 57.2028 63.2155C58.0618 62.8144 58.9966 62.0572 58.9966 60.3372C58.9966 57.9512 58.9972 54.9816 58.9966 51.237C58.996 47.4924 58.6339 42.4385 57.6443 36.4156C56.6547 30.3927 56.0346 27.6859 53.8568 23.1196C52.1402 19.5202 51.2902 17.855 49.097 15.548C48.5079 14.9283 47.1467 13.5549 46.6751 13.1881C46.2035 12.8213 44.6535 11.5662 43.7964 11.903C39.9943 10.717 34.8141 10.3154 31.3593 10.3154C27.9109 10.3154 22.7823 10.7155 18.9823 11.8965C18.1294 11.5676 17.1273 12.4023 16.3754 13.0464C15.6235 13.6904 14.411 14.8072 13.8588 15.3789C11.5443 17.7753 10.6952 19.4329 8.93692 23.1196C6.75916 27.6859 6.13905 30.3927 5.14947 36.4156C4.15989 42.4385 3.79771 47.4924 3.79713 51.237C3.79655 54.9816 3.79713 57.9512 3.79713 60.3372C3.79713 62.0572 4.73193 62.8144 5.59091 63.2155C5.92343 63.3707 6.24459 63.4726 6.49577 63.5564C6.71281 63.6287 7.12749 63.7192 7.6487 63.8106C8.25764 63.9175 9.01199 64.0257 9.76642 64.1078C10.5464 64.1927 11.3264 64.2498 11.946 64.2487C12.3412 64.2481 12.6711 64.2238 12.894 64.1681C13.5381 64.0071 13.9565 63.6628 14.2861 63.1058C14.3516 64.1813 14.45 65.1294 14.5979 66C14.8751 67.6328 15.606 69.5386 17.1743 70.7813C17.9151 71.3684 18.8428 71.8075 19.9979 72C20.1046 72.0178 20.2129 72.0345 20.3227 72.0503C21.3934 72.2036 22.6027 72.2611 23.8346 72.2663C25.0774 72.2715 26.3431 72.2234 27.5126 72.1667C29.0737 72.091 30.4632 72 31.3979 72C32.3325 72 33.7232 72.091 35.2843 72.1667C36.4538 72.2234 37.7195 72.2715 38.9623 72.2663C40.1942 72.2611 41.4035 72.2036 42.4742 72.0503C42.5839 72.0345 42.6923 72.0178 42.799 72C43.954 71.8075 44.8817 71.3684 45.6226 70.7813Z" fill="#E3E0D3"/>
</svg>
