<svg width="63" height="129" viewBox="0 0 63 129" fill="none" xmlns="http://www.w3.org/2000/svg">
<path d="M45.232 70.7814C46.8002 69.5387 47.5312 67.6329 47.8084 66.0001C47.956 65.1308 48.0544 64.1842 48.1199 63.1107C48.449 63.6649 48.8669 64.0076 49.5091 64.1682C49.7174 64.2203 50.0189 64.2449 50.3799 64.2484C51.0111 64.2546 51.824 64.1963 52.6367 64.1079C53.3911 64.0257 54.1455 63.9176 54.7544 63.8107C55.2756 63.7193 55.6903 63.6288 55.9074 63.5565C56.1585 63.4727 56.4797 63.3708 56.8122 63.2156C57.6712 62.8145 58.606 62.0573 58.606 60.3373C58.606 57.9513 58.6066 54.9817 58.606 51.2371C58.6054 47.4925 58.2432 42.4386 57.2537 36.4157C56.2641 30.3927 55.644 27.686 53.4662 23.1197C51.2884 18.5534 50.5055 17.1001 46.6054 13.5001C46.0044 12.9453 45.4034 12.4475 44.8034 12.0001C44.2736 11.605 43.4673 11.0245 42.8102 10.6726C42.1531 10.3208 40.9835 9.64044 40.2041 9.90065C38.0421 8.89149 34.6673 8.46631 30.9695 8.46631C27.2668 8.46631 23.9425 8.87897 21.7807 9.89109C21.0092 9.64428 19.8639 10.2163 19.0638 10.7254C18.2637 11.2346 17.9483 11.4489 17.2091 12.0001C16.6091 12.4475 16.0081 12.9453 15.4071 13.5001C11.5071 17.1001 10.7241 18.5534 8.54629 23.1197C6.36853 27.686 5.74842 30.3927 4.75884 36.4157C3.76927 42.4386 3.40709 47.4925 3.40651 51.2371C3.40593 54.9817 3.40651 57.9513 3.40651 60.3373C3.40651 62.0573 4.3413 62.8145 5.20028 63.2156C5.53281 63.3708 5.85397 63.4727 6.10514 63.5565C6.32219 63.6288 6.73687 63.7193 7.25807 63.8107C7.86702 63.9176 8.62136 64.0257 9.3758 64.1079C10.1558 64.1928 10.9358 64.2499 11.5554 64.2488C11.9506 64.2482 12.2804 64.2239 12.5034 64.1682C13.1474 64.0072 13.5659 63.6629 13.8955 63.1059C13.961 64.1814 14.0594 65.1295 14.2072 66.0001C14.4845 67.6329 15.2154 69.5387 16.7837 70.7814C17.5245 71.3685 18.4522 71.8076 19.6072 72.0001C19.714 72.0179 19.8223 72.0346 19.9321 72.0504C21.0028 72.2037 22.2121 72.2612 23.4439 72.2664C24.6867 72.2716 25.9525 72.2235 27.122 72.1668C28.683 72.0911 30.0738 72.0001 31.0084 72.0001C31.943 72.0001 33.3326 72.0911 34.8937 72.1668C36.0631 72.2235 37.3289 72.2716 38.5717 72.2664C39.8035 72.2612 41.0128 72.2037 42.0835 72.0504C42.1933 72.0346 42.3017 72.0179 42.4084 72.0001C43.5634 71.8076 44.4911 71.3685 45.232 70.7814Z" fill="#E3E0D3"/>
</svg>
