<svg width="63" height="129" viewBox="0 0 63 129" fill="none" xmlns="http://www.w3.org/2000/svg">
<path d="M42.4091 50.5426C43.6178 50.3412 44.5288 49.9345 45.2327 49.341C45.3993 49.2005 45.5542 49.0496 45.6988 48.8885C46.5487 55.5885 47.1 60.2363 47.3742 61.1691C47.8923 62.9319 48.3091 63.8682 49.5091 64.1682C49.7174 64.2203 50.0189 64.2449 50.3799 64.2484C51.0111 64.2546 51.824 64.1963 52.6367 64.1079C53.3911 64.0257 54.1455 63.9176 54.7544 63.8107C55.2756 63.7193 55.6903 63.6288 55.9074 63.5565C56.1585 63.4727 56.4797 63.3708 56.8122 63.2156C57.6712 62.8145 58.606 62.0573 58.606 60.3373C58.606 57.9513 58.6066 54.9817 58.606 51.2371C58.6054 47.4925 58.2432 42.4386 57.2537 36.4157C56.2641 30.3927 55.644 27.686 53.4662 23.1197C51.2884 18.5534 50.5055 17.1001 46.6054 13.5001C45.8305 12.7847 45.0547 11.9426 44.1458 11.3502C43.237 10.7579 42.0869 10.4831 41.348 10.6228C39.1894 9.57702 35.0986 8.46631 31.006 8.46631C26.9134 8.46631 22.7487 9.56235 20.5901 10.6082C19.8737 10.4916 18.9251 10.8889 18.2109 11.3514C17.4966 11.8139 16.2408 12.7305 15.4071 13.5001C11.5071 17.1001 10.7241 18.5534 8.54629 23.1197C6.36853 27.686 5.74842 30.3927 4.75884 36.4157C3.76927 42.4386 3.40709 47.4925 3.40651 51.2371C3.40593 54.9817 3.40651 57.9513 3.40651 60.3373C3.40651 62.0573 4.3413 62.8145 5.20028 63.2156C5.53281 63.3708 5.85397 63.4727 6.10514 63.5565C6.32219 63.6288 6.73687 63.7193 7.25807 63.8107C7.86702 63.9176 8.62136 64.0257 9.3758 64.1079C10.1558 64.1928 10.9358 64.2499 11.5554 64.2488C11.9506 64.2482 12.2804 64.2239 12.5034 64.1682C13.7034 63.8682 14.1202 62.9319 14.6383 61.1691C14.9125 60.2362 15.464 55.5871 16.3141 48.8854C16.4595 49.0477 16.6153 49.1996 16.7829 49.341C17.4868 49.9345 18.3978 50.3412 19.6065 50.5426C19.7132 50.5604 19.8216 50.5772 19.9314 50.5929C21.0019 50.7463 22.2112 50.8038 23.4432 50.8089C24.6859 50.8141 25.9517 50.7661 27.1212 50.7094C28.6835 50.6337 30.0742 50.5426 31.0091 50.5426C31.9438 50.5426 33.3333 50.6336 34.8944 50.7093C36.0639 50.766 37.3296 50.8141 38.5724 50.8089C39.8043 50.8038 41.0136 50.7463 42.0843 50.5929L42.0906 50.592C42.1982 50.5765 42.3044 50.5601 42.4091 50.5426Z" fill="#E3E0D3"/>
</svg>
