<svg width="63" height="129" viewBox="0 0 63 129" fill="none" xmlns="http://www.w3.org/2000/svg">
<path d="M42.4091 62.3241C43.6178 62.1226 44.5288 61.716 45.2327 61.1224C46.0095 60.4674 46.5341 59.5847 46.9282 58.4992C47.1195 59.8844 47.2677 60.8068 47.3742 61.169C47.8923 62.9318 48.3091 63.8681 49.5091 64.1681C49.7174 64.2202 50.0189 64.2448 50.3799 64.2483C51.0111 64.2545 51.824 64.1962 52.6367 64.1078C53.3911 64.0256 54.1455 63.9175 54.7544 63.8106C55.2756 63.7192 55.6903 63.6287 55.9074 63.5564C56.1585 63.4726 56.4797 63.3707 56.8122 63.2155C57.6712 62.8144 58.606 62.0572 58.606 60.3372C58.606 57.9512 58.6066 54.9816 58.606 51.237C58.6054 47.4924 58.2432 42.4385 57.2537 36.4156C56.2641 30.3927 55.644 27.6859 53.4662 23.1196C52.0499 20.1499 51.2235 18.4969 49.746 16.7137C48.9516 15.755 47.4714 14.0991 46.9091 13.6945C46.3468 13.2899 44.2628 11.5662 43.4057 11.903C39.6037 10.717 34.4235 10.3154 30.9687 10.3154C27.5202 10.3154 22.3917 10.7155 18.5917 11.8965C17.7388 11.5676 16.3495 12.6238 15.4071 13.5C14.4646 14.3762 12.9717 15.8457 12.1585 16.8452C10.7479 18.5791 9.92774 20.2231 8.54629 23.1196C6.36853 27.6859 5.74842 30.3927 4.75884 36.4156C3.76927 42.4385 3.40709 47.4924 3.40651 51.237C3.40593 54.9816 3.40651 57.9512 3.40651 60.3372C3.40651 62.0572 4.3413 62.8144 5.20028 63.2155C5.53281 63.3707 5.85397 63.4726 6.10514 63.5564C6.32219 63.6287 6.73687 63.7192 7.25807 63.8106C7.86702 63.9175 8.62136 64.0257 9.3758 64.1078C10.1558 64.1927 10.9358 64.2498 11.5554 64.2487C11.9506 64.2481 12.2804 64.2238 12.5034 64.1681C13.7034 63.8681 14.1202 62.9318 14.6383 61.169C14.7449 60.8062 14.8935 59.8816 15.0852 58.4929C15.4795 59.5814 16.0046 60.4661 16.7829 61.1224C17.4868 61.716 18.3978 62.1226 19.6065 62.3241C19.7132 62.3419 19.8216 62.3586 19.9314 62.3743C21.002 62.5277 22.2113 62.5852 23.4432 62.5904C24.686 62.5955 25.9517 62.5474 27.1212 62.4907C28.6823 62.4151 30.0719 62.3241 31.0065 62.3241C31.9415 62.3241 33.3321 62.4151 34.8944 62.4908C36.064 62.5475 37.3297 62.5956 38.5724 62.5904C39.8044 62.5852 41.0137 62.5277 42.0843 62.3743C42.1941 62.3586 42.3024 62.3419 42.4091 62.3241Z" fill="#E3E0D3"/>
</svg>
