<svg width="63" height="129" viewBox="0 0 63 129" fill="none" xmlns="http://www.w3.org/2000/svg">
<path d="M42.6123 50.5425C43.821 50.3411 44.7319 49.9344 45.4358 49.3409C45.6024 49.2004 45.7573 49.0495 45.9019 48.8884C46.7518 55.5884 47.3031 60.2362 47.5773 61.169C48.0954 62.9318 48.5122 63.8681 49.7122 64.1681C49.9205 64.2202 50.2221 64.2448 50.583 64.2483C51.2142 64.2545 52.0271 64.1962 52.8398 64.1078C53.5943 64.0256 54.3486 63.9175 54.9576 63.8106C55.4788 63.7192 55.8934 63.6287 56.1105 63.5564C56.3617 63.4726 56.6828 63.3707 57.0153 63.2155C57.8743 62.8144 58.8091 62.0572 58.8091 60.3372C58.8091 57.9512 58.8097 54.9816 58.8091 51.237C58.8085 47.4924 58.4464 42.4385 57.4568 36.4156C56.4672 30.3927 55.8471 27.6859 53.6693 23.1196C51.4916 18.5534 50.7086 17.1 46.8086 13.5C46.073 12.821 45.417 12.341 44.9326 12.07C44.4483 11.7989 43.9279 11.7776 43.6089 11.903C39.8068 10.717 34.6266 10.3154 31.1718 10.3154C27.7234 10.3154 22.5948 10.7155 18.7948 11.8965C18.4803 11.7752 17.7013 11.8965 17.2266 12.2373C16.752 12.5782 16.3458 12.821 15.6102 13.5C11.7102 17.1 10.9272 18.5534 8.74942 23.1196C6.57166 27.6859 5.95155 30.3927 4.96197 36.4156C3.97239 42.4385 3.61021 47.4924 3.60963 51.237C3.60905 54.9816 3.60963 57.9512 3.60963 60.3372C3.60963 62.0572 4.54443 62.8144 5.40341 63.2155C5.73593 63.3707 6.05709 63.4726 6.30827 63.5564C6.52531 63.6287 6.93999 63.7192 7.4612 63.8106C8.07014 63.9175 8.82449 64.0257 9.57892 64.1078C10.3589 64.1927 11.1389 64.2498 11.7585 64.2487C12.1537 64.2481 12.4836 64.2238 12.7065 64.1681C13.9065 63.8681 14.3234 62.9318 14.8415 61.169C15.1157 60.2361 15.6671 55.587 16.5172 48.8853C16.6626 49.0476 16.8184 49.1996 16.986 49.3409C17.6899 49.9344 18.6009 50.3411 19.8096 50.5425C19.9164 50.5603 20.0247 50.5771 20.1345 50.5928C21.205 50.7462 22.4144 50.8037 23.6463 50.8088C24.889 50.814 26.1548 50.766 27.3244 50.7093C28.8866 50.6336 30.2773 50.5425 31.2123 50.5425C32.1469 50.5425 33.5365 50.6335 35.0975 50.7092C36.267 50.7659 37.5328 50.814 38.7756 50.8088C40.0074 50.8037 41.2167 50.7462 42.2874 50.5928L42.2937 50.5919C42.4013 50.5764 42.5076 50.56 42.6123 50.5425Z" fill="#E3E0D3"/>
</svg>
