<svg width="63" height="129" viewBox="0 0 63 129" fill="none" xmlns="http://www.w3.org/2000/svg">
<path d="M42.6123 62.3242C43.8209 62.1227 44.7319 61.7161 45.4358 61.1225C46.2126 60.4675 46.7372 59.5848 47.1313 58.4993C47.3226 59.8845 47.4708 60.8069 47.5773 61.1691C48.0954 62.9319 48.5122 63.8682 49.7122 64.1682C49.9205 64.2203 50.2221 64.2449 50.583 64.2484C51.2142 64.2546 52.0271 64.1963 52.8398 64.1079C53.5943 64.0257 54.3486 63.9176 54.9576 63.8107C55.4788 63.7193 55.8934 63.6288 56.1105 63.5565C56.3617 63.4727 56.6828 63.3708 57.0153 63.2156C57.8743 62.8145 58.8091 62.0573 58.8091 60.3373C58.8091 57.9513 58.8097 54.9817 58.8091 51.2371C58.8085 47.4925 58.4464 42.4386 57.4568 36.4157C56.4672 30.3927 55.8471 27.686 53.6693 23.1197C51.4916 18.5534 50.7086 17.1001 46.8086 13.5001C46.3386 13.0663 45.8687 12.6673 45.3993 12.3001C44.7108 11.7615 43.9225 11.0937 43.2107 10.7169L43.1953 10.7088C42.4802 10.3301 41.1811 9.64229 40.4072 9.90065C38.2452 8.89149 34.8704 8.46631 31.1727 8.46631C27.4699 8.46631 24.1456 8.87897 21.9838 9.89109C21.2123 9.64428 20.2322 9.89109 19.3492 10.5276C18.4662 11.1641 17.8303 11.6658 17.0195 12.3001C16.5501 12.6673 16.0801 13.0663 15.6102 13.5001C11.7102 17.1001 10.9272 18.5534 8.74942 23.1197C6.57166 27.686 5.95155 30.3927 4.96197 36.4157C3.97239 42.4386 3.61021 47.4925 3.60963 51.2371C3.60905 54.9817 3.60963 57.9513 3.60963 60.3373C3.60963 62.0573 4.54443 62.8145 5.40341 63.2156C5.73593 63.3708 6.05709 63.4727 6.30827 63.5565C6.52531 63.6288 6.93999 63.7193 7.4612 63.8107C8.07014 63.9176 8.82449 64.0257 9.57892 64.1079C10.3589 64.1928 11.1389 64.2499 11.7585 64.2488C12.1537 64.2482 12.4836 64.2239 12.7065 64.1682C13.9065 63.8682 14.3234 62.9319 14.8415 61.1691C14.9481 60.8063 15.0966 59.8817 15.2883 58.493C15.6827 59.5815 16.2078 60.4662 16.986 61.1225C17.6899 61.7161 18.6009 62.1227 19.8096 62.3242C19.9164 62.342 20.0247 62.3587 20.1345 62.3744C21.2052 62.5278 22.4145 62.5853 23.6463 62.5905C24.8891 62.5956 26.1549 62.5475 27.3244 62.4908C28.8854 62.4152 30.275 62.3242 31.2096 62.3242C32.1446 62.3242 33.5352 62.4152 35.0975 62.4909C36.2671 62.5476 37.5328 62.5957 38.7755 62.5905C40.0075 62.5853 41.2168 62.5278 42.2874 62.3744C42.3972 62.3587 42.5055 62.342 42.6123 62.3242Z" fill="#E3E0D3"/>
</svg>
