<svg width="63" height="129" viewBox="0 0 63 129" fill="none" xmlns="http://www.w3.org/2000/svg">
<path d="M42.7998 62.3242C44.0084 62.1227 44.9194 61.7161 45.6233 61.1225C46.4001 60.4675 46.9247 59.5848 47.3188 58.4993C47.5101 59.8845 47.6583 60.8069 47.7648 61.1691C48.2829 62.9319 48.6997 63.8682 49.8997 64.1682C50.108 64.2203 50.4096 64.2449 50.7705 64.2484C51.4017 64.2546 52.2146 64.1963 53.0273 64.1079C53.7818 64.0257 54.5361 63.9176 55.1451 63.8107C55.6663 63.7193 56.0809 63.6288 56.298 63.5565C56.5492 63.4727 56.8703 63.3708 57.2028 63.2156C58.0618 62.8145 58.9966 62.0573 58.9966 60.3373C58.9966 57.9513 58.9972 54.9817 58.9966 51.2371C58.996 47.4925 58.6339 42.4386 57.6443 36.4157C56.6547 30.3927 56.0346 27.686 53.8568 23.1197C51.6791 18.5534 50.8961 17.1001 46.9961 13.5001C46.1878 12.754 45.5164 12.1047 44.5525 11.4913C43.5886 10.8779 42.4776 10.4831 41.7386 10.6228C39.58 9.57702 35.4893 8.46631 31.3967 8.46631C27.3041 8.46631 23.1393 9.56235 20.9807 10.6082C20.2643 10.4916 19.2675 10.8933 18.5182 11.3514C17.769 11.8095 16.6481 12.7151 15.7977 13.5001C11.8977 17.1001 11.1147 18.5534 8.93692 23.1197C6.75916 27.686 6.13905 30.3927 5.14947 36.4157C4.15989 42.4386 3.79771 47.4925 3.79713 51.2371C3.79655 54.9817 3.79713 57.9513 3.79713 60.3373C3.79713 62.0573 4.73193 62.8145 5.59091 63.2156C5.92343 63.3708 6.24459 63.4727 6.49577 63.5565C6.71281 63.6288 7.12749 63.7193 7.6487 63.8107C8.25764 63.9176 9.01199 64.0257 9.76642 64.1079C10.5464 64.1928 11.3264 64.2499 11.946 64.2488C12.3412 64.2482 12.6711 64.2239 12.894 64.1682C14.094 63.8682 14.5109 62.9319 15.029 61.1691C15.1356 60.8063 15.2841 59.8817 15.4758 58.493C15.8702 59.5815 16.3953 60.4662 17.1735 61.1225C17.8774 61.7161 18.7884 62.1227 19.9971 62.3242C20.1039 62.342 20.2122 62.3587 20.322 62.3744C21.3927 62.5278 22.602 62.5853 23.8338 62.5905C25.0766 62.5956 26.3424 62.5475 27.5119 62.4908C29.0729 62.4152 30.4625 62.3242 31.3971 62.3242C32.3321 62.3242 33.7227 62.4152 35.285 62.4909C36.4546 62.5476 37.7203 62.5957 38.963 62.5905C40.195 62.5853 41.4043 62.5278 42.4749 62.3744C42.5847 62.3587 42.693 62.342 42.7998 62.3242Z" fill="#E3E0D3"/>
</svg>
