<svg width="64" height="129" viewBox="0 0 64 129" fill="none" xmlns="http://www.w3.org/2000/svg">
<path d="M43.1982 50.5426C44.4069 50.3412 45.3179 49.9345 46.0218 49.341C46.1883 49.2005 46.3433 49.0496 46.4878 48.8885C47.3378 55.5885 47.8891 60.2363 48.1632 61.1691C48.6813 62.9319 49.0982 63.8682 50.2982 64.1682C50.5064 64.2203 50.808 64.2449 51.1689 64.2484C51.8002 64.2546 52.613 64.1963 53.4258 64.1079C54.1802 64.0257 54.9346 63.9176 55.5435 63.8107C56.0647 63.7193 56.4794 63.6288 56.6964 63.5565C56.9476 63.4727 57.2688 63.3708 57.6013 63.2156C58.4603 62.8145 59.3951 62.0573 59.3951 60.3373C59.3951 57.9513 59.3956 54.9817 59.3951 51.2371C59.3945 47.4925 59.0323 42.4386 58.0427 36.4157C57.0531 30.3927 56.433 27.686 54.2553 23.1197C52.0775 18.5534 51.2945 17.1001 47.3945 13.5001C46.3831 12.5665 45.1989 11.6693 44.3656 11.1522C43.5323 10.635 41.7725 9.64044 40.9932 9.90065C38.8312 8.89149 35.4564 8.46631 31.7586 8.46631C28.0559 8.46631 24.7315 8.87897 22.5698 9.89109C21.7982 9.64428 20.6249 10.2657 19.6595 10.8789C18.6941 11.4922 17.289 12.4913 16.1961 13.5001C12.2961 17.1001 11.5131 18.5534 9.33536 23.1197C7.15759 27.686 6.53749 30.3927 5.54791 36.4157C4.55833 42.4386 4.19615 47.4925 4.19557 51.2371C4.19499 54.9817 4.19557 57.9513 4.19557 60.3373C4.19557 62.0573 5.13037 62.8145 5.98934 63.2156C6.32187 63.3708 6.64303 63.4727 6.8942 63.5565C7.11125 63.6288 7.52593 63.7193 8.04713 63.8107C8.65608 63.9176 9.41042 64.0257 10.1649 64.1079C10.9448 64.1928 11.7249 64.2499 12.3445 64.2488C12.7396 64.2482 13.0695 64.2239 13.2924 64.1682C14.4925 63.8682 14.9093 62.9319 15.4274 61.1691C15.7016 60.2362 16.253 55.5871 17.1032 48.8854C17.2485 49.0477 17.4044 49.1996 17.572 49.341C18.2759 49.9345 19.1869 50.3412 20.3956 50.5426C20.5023 50.5604 20.6106 50.5772 20.7204 50.5929C21.791 50.7463 23.0003 50.8038 24.2323 50.8089C25.475 50.8141 26.7407 50.7661 27.9103 50.7094C29.4726 50.6337 30.8632 50.5426 31.7982 50.5426C32.7328 50.5426 34.1224 50.6336 35.6834 50.7093C36.8529 50.766 38.1187 50.8141 39.3615 50.8089C40.5933 50.8038 41.8027 50.7463 42.8733 50.5929L42.8796 50.592C42.9873 50.5765 43.0935 50.5601 43.1982 50.5426Z" fill="#E3E0D3"/>
</svg>
