<svg width="64" height="129" viewBox="0 0 64 129" fill="none" xmlns="http://www.w3.org/2000/svg">
<path d="M46.021 70.7814C47.5893 69.5387 48.3202 67.6329 48.5975 66.0001C48.7489 65.1082 48.856 64.2047 48.9215 63.0965C49.251 63.6535 49.6541 64.0072 50.2982 64.1682C50.5064 64.2203 50.808 64.2449 51.1689 64.2484C51.8002 64.2546 52.613 64.1963 53.4258 64.1079C54.1802 64.0257 54.9346 63.9176 55.5435 63.8107C56.0647 63.7193 56.4794 63.6288 56.6964 63.5565C56.9476 63.4727 57.2688 63.3708 57.6013 63.2156C58.4603 62.8145 59.3951 62.0573 59.3951 60.3373C59.3951 57.9513 59.3956 54.9817 59.3951 51.2371C59.3945 47.4925 59.0323 42.4386 58.0427 36.4157C57.0531 30.3927 56.433 27.686 54.2553 23.1197C52.0775 18.5534 51.2945 17.1001 47.3945 13.5001C46.6329 12.797 45.7102 11.9197 44.8067 11.3502C43.9033 10.7808 42.876 10.4831 42.1371 10.6228C39.9784 9.57702 35.8877 8.46631 31.7951 8.46631C27.7025 8.46631 23.5377 9.56235 21.3791 10.6082C20.6628 10.4916 19.5693 10.9357 18.9243 11.3514C18.2794 11.7672 17.105 12.6611 16.1961 13.5001C12.2961 17.1001 11.5131 18.5534 9.33536 23.1197C7.15759 27.686 6.53749 30.3927 5.54791 36.4157C4.55833 42.4386 4.19615 47.4925 4.19557 51.2371C4.19499 54.9817 4.19557 57.9513 4.19557 60.3373C4.19557 62.0573 5.13037 62.8145 5.98934 63.2156C6.32187 63.3708 6.64303 63.4727 6.8942 63.5565C7.11125 63.6288 7.52593 63.7193 8.04713 63.8107C8.65608 63.9176 9.41042 64.0257 10.1649 64.1079C10.9448 64.1928 11.7249 64.2499 12.3445 64.2488C12.7396 64.2482 13.0695 64.2239 13.2924 64.1682C13.9365 64.0072 14.3549 63.6629 14.6845 63.1059C14.75 64.1814 14.8485 65.1295 14.9963 66.0001C15.2735 67.6329 16.0045 69.5387 17.5727 70.7814C18.3136 71.3685 19.2413 71.8076 20.3963 72.0001C20.503 72.0179 20.6114 72.0346 20.7212 72.0504C21.7918 72.2037 23.0011 72.2612 24.233 72.2664C25.4758 72.2716 26.7415 72.2235 27.911 72.1668C29.4721 72.0911 30.8628 72.0001 31.7975 72.0001C32.7321 72.0001 34.1217 72.0911 35.6827 72.1668C36.8522 72.2235 38.118 72.2716 39.3608 72.2664C40.5926 72.2612 41.8019 72.2037 42.8726 72.0504C42.9824 72.0346 43.0907 72.0179 43.1975 72.0001C44.3525 71.8076 45.2802 71.3685 46.021 70.7814Z" fill="#E3E0D3"/>
</svg>
