<svg width="64" height="129" viewBox="0 0 64 129" fill="none" xmlns="http://www.w3.org/2000/svg">
<path d="M29.1629 64.176C27.9832 64.2629 23.7993 63.8781 22.0294 63.7424C20.7095 63.6411 18.1578 63.4754 16.3876 63.2867C16.0345 64.0036 15.2508 64.3885 14.3272 64.3567C13.1623 64.3165 6.77073 63.5175 5.05792 63.0173C3.34512 62.5171 3.4726 61.8779 3.39388 61.1285C3.31516 60.3791 4.6827 47.0109 5.6495 40.4159C6.61631 33.821 8.51352 23.6763 10.5603 19.9239C12.1099 17.0828 13.9979 14.8171 16.0979 13.1256C15.6037 12.6229 15.2945 11.9667 15.2945 11.0998C15.2945 7.7998 19.1945 5.3998 21.8945 4.4998C24.5945 3.5998 27.2057 3.2998 31.7945 3.2998C36.3834 3.2998 38.9945 3.59979 41.6945 4.49979C44.3945 5.39979 48.2945 7.79979 48.2945 11.0998C48.2945 11.8144 48.0845 12.3858 47.7338 12.8461C49.9765 14.5644 51.9905 16.9233 53.6273 19.9239C55.674 23.6763 57.5712 33.821 58.538 40.4159C59.5048 47.0109 60.8723 60.3791 60.7936 61.1285C60.7149 61.8779 60.8424 62.5171 59.1296 63.0173C57.4168 63.5175 51.0252 64.3165 49.8603 64.3567C48.9094 64.3895 48.1067 63.9804 47.7696 63.2221C46.0244 63.4373 43.0311 63.6297 41.5627 63.7424C39.7928 63.8781 35.6089 64.2629 34.4292 64.176C33.2495 64.089 32.7777 63.5154 32.4199 62.8273C32.0621 62.1392 31.7944 58.7998 31.7944 58.7998C31.7944 58.7998 31.53 62.1392 31.1722 62.8273C30.8144 63.5154 30.3426 64.089 29.1629 64.176Z" fill="#E3E0D3"/>
</svg>
