<svg width="63" height="129" viewBox="0 0 63 129" fill="none" xmlns="http://www.w3.org/2000/svg">
<path d="M28.366 64.1763C27.1863 64.2632 23.0024 63.8784 21.2325 63.7427C19.9126 63.6414 17.3609 63.4757 15.5908 63.287C15.2376 64.0039 14.4539 64.3888 13.5303 64.357C12.3654 64.3168 5.97385 63.5178 4.26105 63.0176C2.54824 62.5174 2.67572 61.8782 2.597 61.1288C2.51828 60.3794 3.88583 47.0112 4.85263 40.4162C5.81943 33.8213 7.71665 23.6766 9.76338 19.9242C11.8101 16.1719 14.447 13.4231 17.3829 11.6755C17.4792 11.6182 17.5749 11.5618 17.6701 11.5061C17.5967 11.3854 17.525 11.2641 17.4559 11.1428C17.1548 10.6142 16.9048 10.1125 17.6844 9.46767C18.4639 8.82284 18.7011 8.66005 20.0358 7.97609C21.3705 7.29212 21.6729 8.03536 22.4718 8.85498C22.5568 8.94216 22.7344 9.1447 22.9751 9.42415C25.0781 8.75005 27.9259 8.46627 30.9965 8.46627C34.0814 8.46627 36.9036 8.7527 39.0097 9.4336C39.2546 9.14927 39.4353 8.94314 39.5212 8.85498C40.3201 8.03536 40.6225 7.29212 41.9572 7.97609C43.2919 8.66005 43.5291 8.82284 44.3086 9.46767C45.0882 10.1125 44.8382 10.6142 44.5371 11.1428C44.517 11.1781 44.4967 11.2134 44.4762 11.2487C44.7183 11.3858 44.9628 11.5279 45.2108 11.6755C48.1468 13.4231 50.7836 16.1719 52.8304 19.9242C54.8771 23.6766 56.7743 33.8213 57.7411 40.4162C58.7079 47.0112 60.0755 60.3794 59.9968 61.1288C59.918 61.8782 60.0455 62.5174 58.3327 63.0176C56.6199 63.5178 50.2283 64.3168 49.0635 64.357C48.1125 64.3897 47.3098 63.9807 46.9728 63.2224C45.2276 63.4375 42.2342 63.63 40.7658 63.7427C38.9959 63.8784 34.812 64.2632 33.6323 64.1763C32.4526 64.0893 31.9808 63.5157 31.623 62.8276C31.2652 62.1395 30.9975 58.8001 30.9975 58.8001C30.9975 58.8001 30.7331 62.1395 30.3753 62.8276C30.0175 63.5157 29.5457 64.0893 28.366 64.1763Z" fill="#E3E0D3"/>
</svg>
