<svg width="63" height="129" viewBox="0 0 63 129" fill="none" xmlns="http://www.w3.org/2000/svg">
<path d="M28.7699 90.7055C27.5902 90.7925 21.6063 90.4076 19.8364 90.2719C18.0666 90.1361 14.0818 89.8844 12.7366 89.6169C11.3915 89.3493 10.5992 88.6337 10.6207 87.5006C10.632 86.9089 11.1529 77.2329 12.2143 64.1985C9.84271 63.9324 5.9477 63.3916 4.6673 63.0176C2.95449 62.5174 3.08197 61.8782 3.00325 61.1288C2.92453 60.3794 4.29208 47.0112 5.25888 40.4162C6.22568 33.8213 8.1229 23.6766 10.1696 19.9242C11.9781 16.6087 14.2473 14.0766 16.7766 12.3265V12.0377C16.7766 11.3264 16.7766 10.361 17.8683 9.70046C18.9599 9.03992 19.6466 8.73491 20.7645 8.27761C21.8823 7.82032 23.9688 7.23855 24.6769 7.26139C26.1577 7.30916 26.3503 7.98548 26.6081 8.74192C28.0659 8.55222 29.6771 8.46625 31.3672 8.46625C33.0711 8.46625 34.7324 8.55364 36.1996 8.74661C36.4582 7.98828 36.6486 7.30926 38.1324 7.26139C38.8405 7.23855 40.927 7.82032 42.0448 8.27761C43.1627 8.73491 43.8494 9.03992 44.9411 9.70046C45.979 10.3285 46.0301 11.232 46.0326 11.9308C48.8017 13.686 51.2869 16.3498 53.2366 19.9242C55.2834 23.6766 57.1806 33.8213 58.1474 40.4162C59.1142 47.0112 60.4817 60.3794 60.403 61.1288C60.3243 61.8782 60.4518 62.5174 58.739 63.0176C57.3455 63.4246 52.8554 64.0292 50.6022 64.2622C51.6601 77.2644 52.1794 86.9099 52.1906 87.5006C52.2122 88.6337 51.4199 89.3493 50.0747 89.6169C48.7296 89.8844 44.7448 90.1361 42.9749 90.2719C41.2051 90.4076 35.2212 90.7925 34.0415 90.7055C32.8618 90.6186 32.39 90.0449 32.0321 89.3568C31.7825 88.8767 31.5462 87.8337 31.4057 86.7598C31.2652 87.8337 31.0289 88.8767 30.7792 89.3568C30.4214 90.0449 29.9496 90.6186 28.7699 90.7055Z" fill="#E3E0D3"/>
</svg>
