<svg width="64" height="129" viewBox="0 0 64 129" fill="none" xmlns="http://www.w3.org/2000/svg">
<path d="M29.0387 120.515C27.859 120.602 21.875 120.217 20.1052 120.081C18.3353 119.946 14.3505 119.694 13.0054 119.426C11.6602 119.159 10.868 118.443 10.8895 117.31C10.9032 116.59 11.7208 90.3661 13.3359 64.2763C11.1347 64.0549 6.48113 63.433 5.05792 63.0173C3.34512 62.5171 3.4726 61.8779 3.39388 61.1285C3.31516 60.3791 4.6827 47.0109 5.6495 40.4159C6.61631 33.821 8.51352 23.6763 10.5603 19.9239C12.1099 17.0828 13.9979 14.8171 16.0979 13.1256C15.6037 12.6229 15.2945 11.9667 15.2945 11.0998C15.2945 7.7998 19.1945 5.3998 21.8945 4.4998C24.5945 3.5998 27.2057 3.2998 31.7945 3.2998C36.3834 3.2998 38.9945 3.59979 41.6945 4.49979C44.3945 5.39979 48.2945 7.79979 48.2945 11.0998C48.2945 11.8144 48.0845 12.3858 47.7338 12.8461C49.9765 14.5644 51.9905 16.9233 53.6273 19.9239C55.674 23.6763 57.5712 33.821 58.538 40.4159C59.5048 47.0109 60.8723 60.3791 60.7936 61.1285C60.7149 61.8779 60.8424 62.5171 59.1296 63.0173C57.5604 63.4756 52.0642 64.1846 50.2578 64.3312C51.8706 90.4028 52.6872 116.59 52.7008 117.31C52.7224 118.443 51.9301 119.159 50.5849 119.426C49.2398 119.694 45.255 119.946 43.4851 120.081C41.7153 120.217 35.7314 120.602 34.5517 120.515C33.372 120.428 32.9002 119.854 32.5424 119.166C32.1845 118.478 31.8555 116.943 31.7952 115.508C31.7348 116.943 31.4058 118.478 31.048 119.166C30.6901 119.854 30.2184 120.428 29.0387 120.515Z" fill="#E3E0D3"/>
</svg>
