<svg width="63" height="129" viewBox="0 0 63 129" fill="none" xmlns="http://www.w3.org/2000/svg">
<path d="M28.3637 90.7055C27.184 90.7925 21.2 90.4076 19.4302 90.2719C17.6603 90.1361 13.6755 89.8844 12.3304 89.6169C10.9852 89.3493 10.193 88.6337 10.2145 87.5006C10.2257 86.9089 10.7467 77.2329 11.8081 64.1985C9.43646 63.9324 5.54145 63.3916 4.26105 63.0176C2.54824 62.5174 2.67572 61.8782 2.597 61.1288C2.51828 60.3794 3.88583 47.0112 4.85263 40.4162C5.81943 33.8213 7.71665 23.6766 9.76338 19.9242C11.8101 16.1719 14.447 13.4231 17.3829 11.6755C17.4792 11.6182 17.5749 11.5618 17.6701 11.5061C17.5967 11.3854 17.525 11.2641 17.4559 11.1428C17.1548 10.6142 16.9048 10.1125 17.6844 9.46767C18.4639 8.82284 18.7011 8.66005 20.0358 7.97609C21.3705 7.29212 21.6729 8.03536 22.4718 8.85498C22.5568 8.94216 22.7344 9.1447 22.9751 9.42415C25.0781 8.75005 27.9259 8.46627 30.9965 8.46627C34.0814 8.46627 36.9036 8.7527 39.0097 9.4336C39.2546 9.14927 39.4353 8.94314 39.5212 8.85498C40.3201 8.03536 40.6225 7.29212 41.9572 7.97609C43.2919 8.66005 43.5291 8.82284 44.3086 9.46767C45.0882 10.1125 44.8382 10.6142 44.5371 11.1428C44.517 11.1781 44.4967 11.2134 44.4762 11.2487C44.7183 11.3858 44.9628 11.5279 45.2108 11.6755C48.1468 13.4231 50.7836 16.1719 52.8304 19.9242C54.8771 23.6766 56.7743 33.8213 57.7411 40.4162C58.7079 47.0112 60.0755 60.3794 59.9968 61.1288C59.918 61.8782 60.0455 62.5174 58.3327 63.0176C56.9393 63.4246 52.4491 64.0292 50.196 64.2622C51.2539 77.2644 51.7732 86.9099 51.7844 87.5006C51.8059 88.6337 51.0136 89.3493 49.6685 89.6169C48.3234 89.8844 44.3385 90.1361 42.5687 90.2719C40.7988 90.4076 34.8149 90.7925 33.6352 90.7055C32.4555 90.6186 31.9837 90.0449 31.6259 89.3568C31.3762 88.8767 31.14 87.8337 30.9994 86.7598C30.8589 87.8337 30.6226 88.8767 30.373 89.3568C30.0151 90.0449 29.5434 90.6186 28.3637 90.7055Z" fill="#E3E0D3"/>
</svg>
