<svg width="64" height="129" viewBox="0 0 64 129" fill="none" xmlns="http://www.w3.org/2000/svg">
<path d="M29.0668 90.7052C27.8871 90.7922 21.9032 90.4073 20.1333 90.2716C18.3635 90.1358 14.3786 89.8841 13.0335 89.6166C11.6884 89.349 10.8961 88.6335 10.9176 87.5004C10.9289 86.9087 11.4498 77.2326 12.5112 64.1982C10.1396 63.9321 6.24457 63.3913 4.96417 63.0173C3.25137 62.5171 3.37885 61.8779 3.30013 61.1285C3.22141 60.3791 4.58895 47.0109 5.55575 40.4159C6.52256 33.821 8.41977 23.6763 10.4665 19.9239C12.0162 17.0828 13.9042 14.8171 16.0042 13.1256C15.5099 12.6229 15.2008 11.9667 15.2008 11.0998C15.2008 7.7998 19.1008 5.3998 21.8008 4.4998C24.5008 3.5998 27.1119 3.2998 31.7008 3.2998C36.2896 3.2998 38.9008 3.59979 41.6008 4.49979C44.3008 5.39979 48.2008 7.79979 48.2008 11.0998C48.2008 11.8144 47.9907 12.3858 47.6401 12.8461C49.8827 14.5644 51.8968 16.9233 53.5335 19.9239C55.5802 23.6763 57.4774 33.821 58.4442 40.4159C59.4111 47.0109 60.7786 60.3791 60.6999 61.1285C60.6212 61.8779 60.7486 62.5171 59.0358 63.0173C57.6424 63.4243 53.1523 64.0289 50.8991 64.2619C51.957 77.2641 52.4763 86.9096 52.4875 87.5004C52.509 88.6335 51.7167 89.349 50.3716 89.6166C49.0265 89.8841 45.0417 90.1358 43.2718 90.2716C41.5019 90.4073 35.518 90.7922 34.3383 90.7052C33.1586 90.6183 32.6868 90.0446 32.329 89.3565C32.0793 88.8764 31.8431 87.8334 31.7026 86.7595C31.562 87.8334 31.3258 88.8764 31.0761 89.3565C30.7183 90.0446 30.2465 90.6183 29.0668 90.7052Z" fill="#E3E0D3"/>
</svg>
