<svg width="63" height="129" viewBox="0 0 63 129" fill="none" xmlns="http://www.w3.org/2000/svg">
<path d="M28.648 120.515C27.4683 120.602 21.4844 120.217 19.7146 120.082C17.9447 119.946 13.9599 119.694 12.6148 119.427C11.2696 119.159 10.4773 118.444 10.4989 117.31C10.5125 116.59 11.3302 90.3664 12.9453 64.2766C10.7441 64.0552 6.0905 63.4333 4.6673 63.0176C2.95449 62.5174 3.08197 61.8782 3.00325 61.1288C2.92453 60.3794 4.29208 47.0112 5.25888 40.4162C6.22568 33.8213 8.1229 23.6766 10.1696 19.9242C11.9781 16.6087 14.2473 14.0766 16.7766 12.3265V12.0377C16.7766 11.3264 16.7766 10.361 17.8683 9.70046C18.9599 9.03992 19.6466 8.73491 20.7645 8.27761C21.8823 7.82032 23.9688 7.23855 24.6769 7.26139C26.1577 7.30916 26.3503 7.98548 26.6081 8.74192C28.0659 8.55222 29.6771 8.46625 31.3672 8.46625C33.0711 8.46625 34.7324 8.55364 36.1996 8.74661C36.4582 7.98828 36.6486 7.30926 38.1324 7.26139C38.8405 7.23855 40.927 7.82032 42.0448 8.27761C43.1627 8.73491 43.8494 9.03992 44.9411 9.70046C45.979 10.3285 46.0301 11.232 46.0326 11.9308C48.8017 13.686 51.2869 16.3498 53.2366 19.9242C55.2834 23.6766 57.1806 33.8213 58.1474 40.4162C59.1142 47.0112 60.4817 60.3794 60.403 61.1288C60.3243 61.8782 60.4518 62.5174 58.739 63.0176C57.1698 63.4759 51.6736 64.1849 49.8672 64.3315C51.48 90.4031 52.2965 116.591 52.3102 117.31C52.3317 118.444 51.5394 119.159 50.1943 119.427C48.8492 119.694 44.8644 119.946 43.0945 120.082C41.3246 120.217 35.3407 120.602 34.161 120.515C32.9813 120.428 32.5095 119.855 32.1517 119.167C31.7939 118.478 31.4649 116.943 31.4045 115.509C31.3442 116.943 31.0152 118.478 30.6573 119.167C30.2995 119.855 29.8277 120.428 28.648 120.515Z" fill="#E3E0D3"/>
</svg>
