<svg width="63" height="129" viewBox="0 0 63 129" fill="none" xmlns="http://www.w3.org/2000/svg">
<path d="M28.5691 64.1763C27.3894 64.2632 23.2055 63.8784 21.4357 63.7427C20.1158 63.6414 17.564 63.4757 15.7939 63.287C15.4408 64.0039 14.657 64.3888 13.7334 64.3569C12.5685 64.3168 6.17698 63.5178 4.46417 63.0176C2.75137 62.5174 2.87885 61.8782 2.80013 61.1288C2.72141 60.3794 4.08895 47.0112 5.05575 40.4162C6.02256 33.8213 7.91977 23.6766 9.9665 19.9242C12.0132 16.1719 13.9923 14.164 15.9777 12.7254C17.963 11.2869 21.2029 9.64428 21.9744 9.89109C24.1362 8.87897 27.4605 8.46631 31.1633 8.46631C34.8744 8.46631 38.2419 8.88084 40.4043 9.89797C41.1815 9.64149 42.3015 10.0429 43.2309 10.4752C43.9476 10.8338 44.6649 11.2296 45.4139 11.6755C48.3499 13.4231 50.9868 16.1719 53.0335 19.9242C55.0802 23.6766 56.9774 33.8213 57.9442 40.4162C58.9111 47.0112 60.2786 60.3794 60.1999 61.1288C60.1212 61.8782 60.2486 62.5174 58.5358 63.0176C56.823 63.5178 50.4315 64.3168 49.2666 64.3569C48.3156 64.3897 47.513 63.9807 47.1759 63.2224C45.4307 63.4375 42.4374 63.63 40.9689 63.7427C39.1991 63.8784 35.0151 64.2632 33.8354 64.1763C32.6557 64.0893 32.1839 63.5157 31.8261 62.8276C31.4683 62.1395 31.2007 58.8001 31.2007 58.8001C31.2007 58.8001 30.9363 62.1395 30.5784 62.8276C30.2206 63.5157 29.7488 64.0893 28.5691 64.1763Z" fill="#E3E0D3"/>
</svg>
