<svg width="63" height="129" viewBox="0 0 63 129" fill="none" xmlns="http://www.w3.org/2000/svg">
<path d="M28.2418 120.515C27.0621 120.602 21.0782 120.217 19.3083 120.082C17.5385 119.946 13.5536 119.694 12.2085 119.427C10.8634 119.159 10.0711 118.444 10.0926 117.31C10.1063 116.59 10.924 90.3664 12.5391 64.2766C10.3378 64.0552 5.68426 63.4333 4.26105 63.0176C2.54824 62.5174 2.67572 61.8782 2.597 61.1288C2.51828 60.3794 3.88583 47.0112 4.85263 40.4162C5.81943 33.8213 7.71665 23.6766 9.76338 19.9242C11.8101 16.1719 14.447 13.4231 17.3829 11.6755C17.4792 11.6182 17.5749 11.5618 17.6701 11.5061C17.5967 11.3854 17.525 11.2641 17.4559 11.1428C17.1548 10.6142 16.9048 10.1125 17.6844 9.46767C18.4639 8.82284 18.7011 8.66005 20.0358 7.97609C21.3705 7.29212 21.6729 8.03536 22.4718 8.85498C22.5568 8.94216 22.7344 9.1447 22.9751 9.42415C25.0781 8.75005 27.9259 8.46627 30.9965 8.46627C34.0814 8.46627 36.9036 8.7527 39.0097 9.4336C39.2546 9.14927 39.4353 8.94314 39.5212 8.85498C40.3201 8.03536 40.6225 7.29212 41.9572 7.97609C43.2919 8.66005 43.5291 8.82284 44.3086 9.46767C45.0882 10.1125 44.8382 10.6142 44.5371 11.1428C44.517 11.1781 44.4967 11.2134 44.4762 11.2487C44.7183 11.3858 44.9628 11.5279 45.2108 11.6755C48.1468 13.4231 50.7836 16.1719 52.8304 19.9242C54.8771 23.6766 56.7743 33.8213 57.7411 40.4162C58.7079 47.0112 60.0755 60.3794 59.9968 61.1288C59.918 61.8782 60.0455 62.5174 58.3327 63.0176C56.7635 63.4759 51.2672 64.1849 49.4608 64.3315C51.0737 90.4031 51.8903 116.591 51.904 117.31C51.9255 118.444 51.1332 119.159 49.7881 119.427C48.4429 119.694 44.4581 119.946 42.6883 120.082C40.9184 120.217 34.9345 120.602 33.7548 120.515C32.5751 120.428 32.1033 119.855 31.7455 119.167C31.3877 118.478 31.0586 116.943 30.9983 115.509C30.9379 116.943 30.6089 118.478 30.2511 119.167C29.8933 119.855 29.4215 120.428 28.2418 120.515Z" fill="#E3E0D3"/>
</svg>
