<svg width="63" height="129" viewBox="0 0 63 129" fill="none" xmlns="http://www.w3.org/2000/svg">
<path d="M28.5668 90.7055C27.3871 90.7925 21.4032 90.4076 19.6333 90.2719C17.8635 90.1361 13.8786 89.8844 12.5335 89.6169C11.1884 89.3493 10.3961 88.6338 10.4176 87.5006C10.4289 86.909 10.9498 77.2329 12.0112 64.1985C9.63958 63.9324 5.74457 63.3916 4.46417 63.0176C2.75137 62.5174 2.87885 61.8782 2.80013 61.1288C2.72141 60.3794 4.08895 47.0112 5.05575 40.4162C6.02256 33.8213 7.91977 23.6766 9.9665 19.9242C12.0132 16.1719 13.4225 15.0033 15.2979 13.4024C17.1733 11.8014 21.2029 9.64428 21.9744 9.89109C24.1362 8.87897 27.4605 8.46631 31.1633 8.46631C34.8744 8.46631 38.2419 8.88084 40.4043 9.89797C41.1815 9.64149 42.5743 10.1812 43.5038 10.6135C44.1301 10.935 44.7599 11.2862 45.4139 11.6755C48.3499 13.4231 50.9868 16.1719 53.0335 19.9242C55.0802 23.6766 56.9774 33.8213 57.9442 40.4162C58.9111 47.0112 60.2786 60.3794 60.1999 61.1288C60.1212 61.8782 60.2486 62.5174 58.5358 63.0176C57.1424 63.4246 52.6523 64.0292 50.3991 64.2622C51.457 77.2644 51.9763 86.9099 51.9875 87.5006C52.009 88.6338 51.2167 89.3493 49.8716 89.6169C48.5265 89.8844 44.5417 90.1361 42.7718 90.2719C41.0019 90.4076 35.018 90.7925 33.8383 90.7055C32.6586 90.6186 32.1868 90.0449 31.829 89.3568C31.5793 88.8767 31.3431 87.8337 31.2026 86.7598C31.062 87.8337 30.8258 88.8767 30.5761 89.3568C30.2183 90.0449 29.7465 90.6186 28.5668 90.7055Z" fill="#E3E0D3"/>
</svg>
