<svg width="63" height="129" viewBox="0 0 63 129" fill="none" xmlns="http://www.w3.org/2000/svg">
<path d="M28.7723 64.1763C27.5926 64.2632 23.4086 63.8784 21.6388 63.7427C20.3189 63.6414 17.7671 63.4757 15.997 63.287C15.6439 64.0039 14.8602 64.3888 13.9365 64.357C12.7717 64.3168 6.3801 63.5178 4.6673 63.0176C2.95449 62.5174 3.08197 61.8782 3.00325 61.1288C2.92453 60.3794 4.29208 47.0112 5.25888 40.4162C6.22568 33.8213 8.1229 23.6766 10.1696 19.9242C11.9781 16.6087 14.2473 14.0766 16.7766 12.3265V12.0377C16.7766 11.3264 16.7766 10.361 17.8683 9.70046C18.9599 9.03992 19.6466 8.73491 20.7645 8.27761C21.8823 7.82032 23.9688 7.23855 24.6769 7.26139C26.1577 7.30916 26.3503 7.98548 26.6081 8.74192C28.0659 8.55222 29.6771 8.46625 31.3672 8.46625C33.0711 8.46625 34.7324 8.55364 36.1996 8.74661C36.4582 7.98828 36.6486 7.30926 38.1324 7.26139C38.8405 7.23855 40.927 7.82032 42.0448 8.27761C43.1627 8.73491 43.8494 9.03992 44.9411 9.70046C45.979 10.3285 46.0301 11.232 46.0326 11.9308C48.8017 13.686 51.2869 16.3498 53.2366 19.9242C55.2834 23.6766 57.1806 33.8213 58.1474 40.4162C59.1142 47.0112 60.4817 60.3794 60.403 61.1288C60.3243 61.8782 60.4518 62.5174 58.739 63.0176C57.0262 63.5178 50.6346 64.3168 49.4697 64.357C48.5187 64.3897 47.7161 63.9807 47.379 63.2224C45.6338 63.4375 42.6405 63.63 41.172 63.7427C39.4022 63.8784 35.2183 64.2632 34.0386 64.1763C32.8589 64.0893 32.3871 63.5157 32.0293 62.8276C31.6714 62.1395 31.4038 58.8001 31.4038 58.8001C31.4038 58.8001 31.1394 62.1395 30.7816 62.8276C30.4237 63.5157 29.952 64.0893 28.7723 64.1763Z" fill="#E3E0D3"/>
</svg>
