<svg width="63" height="102" viewBox="0 0 63 102" fill="none" xmlns="http://www.w3.org/2000/svg">
<path d="M30.1313 12.2998L32.324 12.2998H42.7438H44.6957C47.0957 12.2998 47.3968 13.7998 47.6964 16.1998C47.7973 17.0083 47.8974 18.4822 47.9861 20.1783C48.1606 23.5168 48.2912 27.7166 48.2982 29.3998C48.3087 31.9382 49.4277 55.0876 49.4982 61.1998C49.5686 67.312 50.7422 87.1222 50.7406 93.7141V93.7258C50.7406 94.7538 50.7406 95.1459 50.1056 95.6169C49.5712 96.0132 49.5754 95.9998 48.0822 95.9998H34.5225C32.8854 95.9998 32.5188 95.2929 32.5188 94.34C32.3188 79.9399 32.3998 41.3998 31.1998 35.9998C29.9998 41.3998 30.0781 79.9399 29.8781 94.3399C29.8781 95.2929 29.5115 95.9998 27.8743 95.9998H14.3147C12.8214 95.9998 12.8257 96.0132 12.2913 95.6168C11.6562 95.1458 11.6562 94.7538 11.6563 93.7258V93.7141C11.6547 87.1222 12.8283 67.312 12.8987 61.1998C12.9692 55.0876 14.0882 31.9382 14.0987 29.3998C14.1057 27.7166 14.2363 23.5168 14.4108 20.1783C14.4995 18.4822 14.5995 17.0083 14.7005 16.1998C15 13.7998 15.3011 12.2998 17.7011 12.2998H19.6531H30.1313Z" fill="#E3E0D3"/>
</svg>
