<svg width="63" height="102" viewBox="0 0 63 102" fill="none" xmlns="http://www.w3.org/2000/svg">
<path d="M14.5002 16.1998C14.7998 13.7998 15.1009 12.2998 17.5009 12.2998H19.4531H29.9297H32.1224H42.5437H44.4959C46.8959 12.2998 47.197 13.7998 47.4966 16.1998C47.5975 17.0084 47.6976 18.4822 47.7862 20.1783C47.9608 23.5168 48.0914 27.7166 48.0983 29.3998C48.106 31.2456 46.234 57.5051 45.8994 62.1503C45.5647 66.7955 43.795 92.4419 43.855 94.1942C43.9149 95.9464 41.7162 95.9998 40.9631 95.9998H35.6763C33.9589 95.9998 34.0415 94.6071 34.0238 92.8905C34.0177 92.2922 33.7052 72.062 33.3559 66.9102C33.0066 61.7584 32.4178 43.2377 30.9972 35.9998C29.5767 43.2377 28.9902 61.7584 28.6409 66.9102C28.2916 72.062 27.9791 92.2922 27.973 92.8905C27.9553 94.6071 28.0379 95.9998 26.3205 95.9998H21.0337C20.2806 95.9998 18.0819 95.9464 18.1418 94.1942C18.2018 92.4419 16.4321 66.7955 16.0974 62.1503C15.7628 57.5051 13.8908 31.2456 13.8985 29.3998C13.9054 27.7166 14.036 23.5168 14.2106 20.1783C14.2992 18.4822 14.3993 17.0084 14.5002 16.1998Z" fill="#E3E0D3"/>
</svg>
