<svg width="63" height="102" viewBox="0 0 63 102" fill="none" xmlns="http://www.w3.org/2000/svg">
<path d="M14.9002 16.1998C15.1998 13.7998 15.5009 12.2998 17.9009 12.2998H19.8531H30.3297H32.5224H42.9437H44.8959C47.2959 12.2998 47.597 13.7998 47.8966 16.1998C47.9975 17.0084 48.0976 18.4822 48.1862 20.1783C48.3608 23.5168 48.4914 27.7166 48.4983 29.3998C48.506 31.2456 48.7747 56.8312 48.9681 62.1503C49.1615 67.4695 49.595 92.4419 49.655 94.1942C49.7149 95.9464 47.5162 95.9998 46.7631 95.9998H34.8764C33.1589 95.9998 33.2415 94.6071 33.2239 92.8905C33.2177 92.2922 32.755 87.2794 32.7313 77.9312C32.7281 76.6667 32.7013 71.0929 32.7313 69.6869C32.7613 68.2809 31.8692 38.1238 31.3973 35.9998C30.9253 38.1238 30.0355 68.2809 30.0655 69.6869C30.0955 71.0929 30.0687 76.6667 30.0655 77.9312C30.0418 87.2794 29.5791 92.2922 29.573 92.8905C29.5553 94.6071 29.638 95.9998 27.9205 95.9998H16.0337C15.2806 95.9998 13.0819 95.9464 13.1418 94.1942C13.2018 92.4419 13.6353 67.4695 13.8287 62.1503C14.0222 56.8312 14.2908 31.2456 14.2985 29.3998C14.3054 27.7154 14.4362 23.5107 14.6109 20.171C14.6995 18.478 14.7994 17.0072 14.9002 16.1998Z" fill="#E3E0D3"/>
</svg>
