<svg width="64" height="102" viewBox="0 0 64 102" fill="none" xmlns="http://www.w3.org/2000/svg">
<path d="M18.2953 12.2998H31.7998H45.2984C47.6984 12.2998 47.9995 13.7998 48.2991 16.1998C48.4058 17.0549 48.5344 18.5036 48.648 20.1828C48.8532 23.2164 49.0097 27.0023 48.9008 29.3998C48.6 41.9998 47.3783 51.4199 46.7783 58.9199C46.1783 66.4199 49.7713 93.1931 49.9316 94.3676C50.0919 95.5421 49.6226 96.1563 47.8406 96.1563C46.0586 96.1563 38.6332 96.3262 36.5526 96.1563C34.4721 95.9865 33.6127 96.0402 33.6138 94.696C33.615 93.3518 32.994 41.3998 31.794 35.9998C30.594 41.3998 29.9788 93.3518 29.9799 94.696C29.9811 96.0402 29.1217 95.9865 27.0411 96.1563C24.9606 96.3262 17.5352 96.1563 15.7532 96.1563C13.9711 96.1563 13.5019 95.5421 13.6621 94.3676C13.8224 93.1931 17.4155 66.4199 16.8155 58.9199C16.2155 51.4199 14.9937 41.9998 14.6929 29.3998C14.5239 25.6752 14.9951 18.5998 15.2946 16.1998C15.5942 13.7998 15.8953 12.2998 18.2953 12.2998Z" fill="#E3E0D3"/>
</svg>
