<svg width="63" height="129" viewBox="0 0 63 129" fill="none" xmlns="http://www.w3.org/2000/svg">
<path d="M15.7849 61.8658C14.7629 60.1044 12.911 55.2374 14.7629 49.5002C13.0601 43.4043 13.4537 37.5148 16.0775 32.1002C15.9219 30.6079 15.8306 29.1672 15.8837 27.6712C17.756 25.3794 18.147 21.8428 18.0011 20.2345C17.8105 18.1328 17.1953 16.2002 16.541 15.1552C15.8867 14.1102 16.1196 12.9664 17.1953 12.0002C17.6893 11.5565 18.9395 10.7144 20.5505 9.89664C20.4965 9.81738 20.4464 9.74026 20.4012 9.66608C20.1521 9.25741 20.0534 8.78596 20.5901 8.37092C21.1268 7.95589 21.6104 7.66524 22.4648 7.31689C23.273 6.98733 23.8059 7.40197 24.4206 7.98424C26.4058 7.48215 28.8852 7.26641 31.5625 7.26641C34.2531 7.26641 36.7814 7.4843 38.7715 7.99175C39.3895 7.40554 39.9235 6.98592 40.7352 7.31689C41.5896 7.66524 42.0732 7.95589 42.6099 8.37092C43.1466 8.78596 43.0479 9.25741 42.7988 9.66608C42.7533 9.74071 42.7029 9.81834 42.6485 9.89811C44.2581 10.7154 45.5071 11.5568 46.0008 12.0002C47.0765 12.9664 47.3094 14.1102 46.6551 15.1552C46.0008 16.2002 45.3856 18.1328 45.195 20.2345C45.0453 21.8846 45.4608 25.5649 47.4617 27.8477C47.5019 29.2808 47.4117 30.6667 47.2623 32.1002C49.886 37.5148 50.2797 43.4043 48.5769 49.5002C50.4288 55.2374 48.5769 60.1044 47.5549 61.8658C46.533 63.6272 44.7709 63.9053 42.9627 64.2298C41.1545 64.5543 36.3806 65.1105 31.7361 64.6399C27.0915 65.1105 22.1853 64.5543 20.3771 64.2298C18.5689 63.9053 16.8068 63.6272 15.7849 61.8658Z" fill="#E3E0D3"/>
</svg>
