<svg width="63" height="129" viewBox="0 0 63 129" fill="none" xmlns="http://www.w3.org/2000/svg">
<path d="M14.3635 75.8291C13.4366 73.5278 11.5766 63.7909 14.0137 56.8869C12.2549 49.0932 12.6615 41.5633 15.3715 34.6407C15.1847 32.4232 15.0875 30.3723 15.2102 28.1989C17.4981 25.9614 17.9673 21.9717 17.8097 20.2339C17.6191 18.1322 17.0039 16.1996 16.3496 15.1546C15.6953 14.1096 15.9282 12.9657 17.0039 11.9996C17.72 11.3565 20.5186 9.72917 23.2078 8.69961C23.2078 8.69961 23.2856 6.0473 23.3766 4.79961C23.4675 3.55192 24.1078 2.69961 25.6078 2.69961C26.6917 2.69961 29.3421 2.81709 31.4082 2.79737C32.2014 2.78981 32.9085 2.76202 33.4078 2.69961C35.2078 2.47461 36.4078 2.69961 36.4078 2.69961C37.3078 2.69961 38.4806 3.55192 38.5716 4.79961C38.6625 6.0473 38.7403 8.69961 38.7403 8.69961C41.8919 9.70231 44.9952 11.2684 45.8094 11.9996C46.8851 12.9657 47.118 14.1096 46.4637 15.1546C45.8094 16.1996 45.1942 18.1322 45.0036 20.2339C44.846 21.9721 45.3153 25.9629 47.6043 28.2001C47.7269 30.3731 47.6297 32.4236 47.4429 34.6407C50.153 41.5633 50.5596 49.0932 48.8008 56.8869C51.2378 63.7909 49.3778 73.5278 48.4509 75.8291C50.4601 79.4046 50.9664 89.9333 48.8774 95.3998C50.1095 97.323 50.4875 104.748 50.0051 110.7C49.8102 113.104 48.8061 117 47.6061 118.5C46.4061 120 44.3082 120.9 42.2061 121.2C40.1039 121.5 35.0063 121.5 31.4062 121.5C27.8063 121.5 22.7105 121.5 20.6084 121.2C18.5062 120.9 16.4084 120 15.2084 118.5C14.0084 117 13.0042 113.104 12.8094 110.7C12.327 104.748 12.705 97.323 13.9371 95.3998C11.848 89.9333 12.3543 79.4046 14.3635 75.8291Z" fill="#E3E0D3"/>
</svg>
