<svg width="63" height="129" viewBox="0 0 63 129" fill="none" xmlns="http://www.w3.org/2000/svg">
<path d="M15.17 49.2002C14.6062 47.7002 13.706 45.3002 15.17 41.1002C13.4056 35.1002 14.5701 32.4002 15.8846 29.7002C15.8101 28.9862 15.7504 28.3076 15.7142 27.6434C17.567 25.3509 17.9542 21.8363 17.8089 20.2345C17.6183 18.1328 17.0031 16.2002 16.3488 15.1552C15.6945 14.1102 15.9274 12.9664 17.0031 12.0002C17.4971 11.5565 18.7473 10.7144 20.3583 9.89664C20.3043 9.81738 20.2542 9.74026 20.209 9.66608C19.9599 9.25741 19.8612 8.78596 20.3979 8.37092C20.9346 7.95589 21.4183 7.66524 22.2726 7.31689C23.0808 6.98733 23.6138 7.40197 24.2284 7.98424C26.2136 7.48215 28.693 7.26641 31.3703 7.26641C34.0609 7.26641 36.5892 7.4843 38.5793 7.99175C39.1973 7.40554 39.7314 6.98592 40.5431 7.31689C41.3974 7.66524 41.881 7.95589 42.4177 8.37092C42.9544 8.78596 42.8557 9.25741 42.6066 9.66608C42.5611 9.74071 42.5107 9.81834 42.4564 9.89811C44.0659 10.7154 45.3149 11.5568 45.8086 12.0002C46.8843 12.9664 47.1172 14.1102 46.4629 15.1552C45.8086 16.2002 45.1934 18.1328 45.0028 20.2345C44.8574 21.8381 45.2456 25.3588 47.1038 27.6511C47.0675 28.3129 47.008 28.989 46.9338 29.7002C48.2483 32.4002 49.4128 35.1002 47.6484 41.1002C49.1124 45.3002 48.2122 47.7002 47.6484 49.2002C47.0847 50.7002 46.4095 51.9002 43.7095 52.5002C41.0095 53.1002 35.6087 53.7002 31.4076 53.1002C27.2065 53.7002 21.8089 53.1002 19.1089 52.5002C16.4089 51.9002 15.7337 50.7002 15.17 49.2002Z" fill="#E3E0D3"/>
</svg>
