<svg width="63" height="129" viewBox="0 0 63 129" fill="none" xmlns="http://www.w3.org/2000/svg">
<path d="M31.5454 64.6395C26.9008 65.1101 21.9947 64.5539 20.1865 64.2294C18.6229 63.9488 17.0937 63.7029 16.0479 62.5026C15.8679 62.8734 15.6836 63.1516 15.5058 63.2998C14.4259 64.1998 4.73845 63.4574 3.52444 61.4286C2.31043 59.3998 2.90993 55.4998 4.10852 53.9998C2.00625 47.3998 3.52444 40.1998 6.20625 35.9998C4.70625 29.9998 7.40625 21.8998 10.7063 20.0998C12.0514 15.0828 17.5691 10.4135 23.2086 8.69961C23.2086 8.69961 23.2864 6.0473 23.3773 4.79961C23.4683 3.55192 24.1086 2.69961 25.6086 2.69961C26.6927 2.69961 29.3438 2.81713 31.4101 2.79736C32.2028 2.78978 32.9095 2.76199 33.4086 2.69961C35.2086 2.47461 36.4086 2.69961 36.4086 2.69961C37.3086 2.69961 38.4814 3.55192 38.5723 4.79961C38.6633 6.0473 38.7411 8.69961 38.7411 8.69961C44.7541 10.1597 50.6929 14.8158 52.1096 20.0998C55.4096 21.8998 58.1096 29.9998 56.6096 35.9998C59.2914 40.1998 60.8096 47.3998 58.7073 53.9998C59.9059 55.4998 60.5054 59.3998 59.2914 61.4286C58.0774 63.4574 48.3899 64.1998 47.31 63.2998C47.1489 63.1655 46.9824 62.9244 46.8187 62.6044C45.7763 63.7172 44.2904 63.9569 42.7721 64.2294C40.9639 64.5539 36.19 65.1101 31.5454 64.6395Z" fill="#E3E0D3"/>
</svg>
