<svg width="63" height="129" viewBox="0 0 63 129" fill="none" xmlns="http://www.w3.org/2000/svg">
<path d="M13.5316 95.4002C11.4426 89.9337 11.9489 79.405 13.958 75.8295C13.3128 74.2275 12.2154 69.0222 12.4302 63.6776C9.13982 63.6655 3.98234 62.8731 3.11819 61.429C1.90418 59.4002 2.50368 55.5002 3.70227 54.0002C1.6 47.4002 3.11819 40.2002 5.8 36.0002C4.3 30.0002 7 21.9002 10.3 20.1002C11.4472 15.8213 15.1877 11.7593 19.7621 9.59344C19.5458 9.20221 19.4881 8.76158 19.9932 8.37092C20.5299 7.95589 21.0136 7.66524 21.8679 7.31689C22.6761 6.98733 23.2091 7.40197 23.8237 7.98424C25.8089 7.48215 28.2883 7.26641 30.9656 7.26641C33.6562 7.26641 36.1845 7.4843 38.1746 7.99175C38.7926 7.40555 39.3267 6.98592 40.1384 7.31689C40.9927 7.66524 41.4763 7.95589 42.013 8.37092C42.5062 8.75229 42.4628 9.18128 42.2593 9.56544C46.8318 11.7318 50.5565 15.8226 51.7034 20.1002C55.0033 21.9002 57.7034 30.0002 56.2034 36.0002C58.8852 40.2002 60.4034 47.4002 58.3011 54.0002C59.4997 55.5002 60.0992 59.4002 58.8852 61.429C58.021 62.8731 52.8637 63.6654 49.5734 63.6776C49.7881 69.0222 48.6907 74.2275 48.0455 75.8295C50.0547 79.405 50.561 89.9337 48.4719 95.4002C49.704 97.3234 50.082 104.748 49.5996 110.7C49.4048 113.104 48.4006 117 47.2006 118.5C46.0006 120 43.9027 120.9 41.8006 121.2C39.6985 121.5 34.6027 121.5 31.0027 121.5C27.4027 121.5 22.305 121.5 20.2029 121.2C18.1008 120.9 16.0029 120 14.8029 118.5C13.6029 117 12.5988 113.104 12.4039 110.7C11.9215 104.748 12.2995 97.3234 13.5316 95.4002Z" fill="#E3E0D3"/>
</svg>
