<svg width="63" height="129" viewBox="0 0 63 129" fill="none" xmlns="http://www.w3.org/2000/svg">
<path d="M15.5974 61.8654C14.5754 60.104 12.7235 55.237 14.5754 49.4998C12.8726 43.4039 13.2662 37.5144 15.89 32.0998C15.7344 30.6076 15.6431 29.1669 15.6962 27.6709C17.5685 25.379 17.9595 21.8424 17.8136 20.2341C17.623 18.1324 17.0078 16.1999 16.3535 15.1548C15.6992 14.1098 15.9321 12.966 17.0078 11.9999C17.7452 11.3376 20.4202 9.73101 23.2117 8.69961C23.2117 8.69961 23.2895 6.0473 23.3805 4.79961C23.4714 3.55192 24.1117 2.69961 25.6117 2.69961C26.6958 2.69961 29.3469 2.81713 31.4132 2.79736C32.206 2.78978 32.9126 2.76199 33.4117 2.69961C35.2117 2.47461 36.4117 2.69961 36.4117 2.69961C37.3117 2.69961 38.4845 3.55192 38.5755 4.79961C38.6664 6.0473 38.7442 8.69961 38.7442 8.69961C41.8142 9.71415 45.0169 11.2845 45.8133 11.9999C46.889 12.966 47.1219 14.1098 46.4676 15.1548C45.8133 16.1999 45.1981 18.1324 45.0075 20.2341C44.8578 21.8842 45.2733 25.5645 47.2742 27.8473C47.3144 29.2804 47.2242 30.6663 47.0748 32.0998C49.6985 37.5144 50.0922 43.4039 48.3894 49.4998C50.2413 55.237 48.3894 60.104 47.3674 61.8654C46.3455 63.6268 44.5834 63.9049 42.7752 64.2294C40.967 64.5539 36.1931 65.1101 31.5486 64.6395C26.904 65.1101 21.9978 64.5539 20.1896 64.2294C18.3814 63.9049 16.6193 63.6268 15.5974 61.8654Z" fill="#E3E0D3"/>
</svg>
