<svg width="63" height="129" viewBox="0 0 63 129" fill="none" xmlns="http://www.w3.org/2000/svg">
<path d="M31.1392 64.6399C26.4946 65.1105 21.5884 64.5543 19.7802 64.2298C18.2166 63.9492 16.6875 63.7033 15.6416 62.503C15.4617 62.8738 15.2774 63.152 15.0996 63.3002C14.0197 64.2002 4.3322 63.4578 3.11819 61.429C1.90418 59.4002 2.50368 55.5002 3.70227 54.0002C1.6 47.4002 3.11819 40.2002 5.8 36.0002C4.3 30.0002 7 21.9002 10.3 20.1002C11.4472 15.8213 15.1877 11.7593 19.7621 9.59344C19.5458 9.20221 19.4881 8.76158 19.9932 8.37092C20.5299 7.95589 21.0136 7.66524 21.8679 7.31689C22.6761 6.98733 23.2091 7.40197 23.8237 7.98424C25.8089 7.48215 28.2883 7.26641 30.9656 7.26641C33.6562 7.26641 36.1845 7.4843 38.1746 7.99175C38.7926 7.40554 39.3267 6.98592 40.1384 7.31689C40.9927 7.66524 41.4763 7.95589 42.013 8.37092C42.5187 8.76194 42.4603 9.20303 42.2436 9.59453C46.8169 11.7607 50.5563 15.822 51.7034 20.1002C55.0033 21.9002 57.7034 30.0002 56.2034 36.0002C58.8852 40.2002 60.4034 47.4002 58.3011 54.0002C59.4997 55.5002 60.0992 59.4002 58.8852 61.429C57.6711 63.4578 47.9837 64.2002 46.9038 63.3002C46.7426 63.1659 46.5762 62.9248 46.4124 62.6048C45.37 63.7176 43.8842 63.9573 42.3658 64.2298C40.5576 64.5543 35.7838 65.1105 31.1392 64.6399Z" fill="#E3E0D3"/>
</svg>
