<svg width="63" height="129" viewBox="0 0 63 129" fill="none" xmlns="http://www.w3.org/2000/svg">
<path d="M14.5588 75.8293C13.632 73.5279 11.7719 63.7911 14.209 56.8871C12.4502 49.0934 12.8568 41.5635 15.5668 34.6409C15.3801 32.4235 15.2829 30.3727 15.4055 28.1993C17.6934 25.9619 18.1626 21.9722 18.005 20.2343C17.8144 18.1326 17.1992 16.2001 16.5449 15.155C15.8906 14.11 16.1235 12.9662 17.1992 12.0001C17.6723 11.5751 18.8273 10.9048 20.3517 10.0004C21.8761 9.09604 22.0831 9.24209 22.3776 9.29099C24.5394 8.27887 27.8637 7.86621 31.5664 7.86621C35.2746 7.86621 38.6289 8.2887 40.7904 9.3041C41.1813 9.24194 41.3661 9.27294 42.0292 9.59172C42.6923 9.91049 45.4489 11.5009 46.0047 12.0001C47.0804 12.9662 47.3133 14.11 46.659 15.155C46.0047 16.2001 45.3895 18.1326 45.1989 20.2343C45.0413 21.9725 45.5107 25.9633 47.7996 28.2005C47.9222 30.3735 47.825 32.4239 47.6383 34.6409C50.3483 41.5635 50.7549 49.0934 48.9961 56.8871C51.4331 63.7911 49.5731 73.5279 48.6463 75.8293C50.6554 79.4048 51.1617 89.9335 49.0727 95.4C50.3048 97.3232 50.6828 104.748 50.2004 110.7C50.0055 113.104 49.0014 117 47.8014 118.5C46.6014 120 44.5035 120.9 42.4014 121.2C40.2993 121.5 35.2035 121.5 31.6035 121.5C28.0035 121.5 22.9058 121.5 20.8037 121.2C18.7016 120.9 16.6037 120 15.4037 118.5C14.2037 117 13.1995 113.104 13.0047 110.7C12.5223 104.748 12.9003 97.3232 14.1324 95.4C12.0433 89.9335 12.5496 79.4048 14.5588 75.8293Z" fill="#E3E0D3"/>
</svg>
