<svg width="63" height="129" viewBox="0 0 63 129" fill="none" xmlns="http://www.w3.org/2000/svg">
<path d="M13.9378 95.3998C11.8488 89.9333 12.3551 79.4046 14.3643 75.8291C13.7191 74.2271 12.6216 69.0218 12.8364 63.6772C9.54607 63.6651 4.38859 62.8727 3.52444 61.4286C2.31043 59.3998 2.90993 55.4998 4.10852 53.9998C2.00625 47.3998 3.52444 40.1998 6.20625 35.9998C4.70625 29.9998 7.40625 21.8998 10.7063 20.0998C12.0783 14.9826 17.4279 10.3242 23.2086 8.69961C23.2086 8.69961 23.2864 6.0473 23.3773 4.79961C23.4683 3.55192 24.1086 2.69961 25.6086 2.69961C26.6925 2.69961 29.3428 2.81709 31.409 2.79737C32.2022 2.78981 32.9093 2.76202 33.4086 2.69961C35.2086 2.47461 36.4086 2.69961 36.4086 2.69961C37.3086 2.69961 38.4814 3.55192 38.5723 4.79961C38.6633 6.0473 38.7411 8.69961 38.7411 8.69961C44.7866 10.1349 50.6865 14.7922 52.1096 20.0998C55.4096 21.8998 58.1096 29.9998 56.6096 35.9998C59.2914 40.1998 60.8096 47.3998 58.7073 53.9998C59.9059 55.4998 60.5054 59.3998 59.2914 61.4286C58.4273 62.8727 53.27 63.665 49.9796 63.6772C50.1944 69.0218 49.097 74.2271 48.4517 75.8291C50.4609 79.4046 50.9672 89.9333 48.8782 95.3998C50.1103 97.323 50.4883 104.748 50.0059 110.7C49.811 113.104 48.8069 117 47.6069 118.5C46.4069 120 44.309 120.9 42.2069 121.2C40.1047 121.5 35.009 121.5 31.409 121.5C27.809 121.5 22.7113 121.5 20.6092 121.2C18.507 120.9 16.4092 120 15.2092 118.5C14.0092 117 13.005 113.104 12.8102 110.7C12.3277 104.748 12.7057 97.323 13.9378 95.3998Z" fill="#E3E0D3"/>
</svg>
