<svg width="63" height="129" viewBox="0 0 63 129" fill="none" xmlns="http://www.w3.org/2000/svg">
<path d="M31.0029 53.0998C26.8018 53.6998 21.4042 53.0998 18.7042 52.4998C18.2639 52.402 17.8774 52.2881 17.5364 52.1597C17.2534 53.2118 16.9409 54.0535 16.6241 54.5998C17.5 56.6998 16.1795 62.3998 15.0996 63.2998C14.0197 64.1998 4.3322 63.4574 3.11819 61.4286C1.90418 59.3998 2.50368 55.4998 3.70227 53.9998C1.6 47.3998 3.11819 40.1998 5.8 35.9998C4.3 29.9998 7 21.8998 10.3 20.0998C11.6324 15.1303 17.2302 10.4534 22.8023 8.69961C22.8023 8.69961 22.8801 6.0473 22.9711 4.79961C23.0621 3.55192 23.7023 2.69961 25.2023 2.69961C26.2863 2.69961 28.9367 2.81709 31.0029 2.79737C31.796 2.7898 32.5031 2.76202 33.0023 2.69961C34.8023 2.47461 36.0023 2.69961 36.0023 2.69961C36.9023 2.69961 38.0751 3.55192 38.1661 4.79961C38.2571 6.0473 38.3348 8.69961 38.3348 8.69961C44.3228 10.1786 50.2915 14.8339 51.7034 20.0998C55.0033 21.8998 57.7034 29.9998 56.2034 35.9998C58.8852 40.1998 60.4034 47.3998 58.3011 53.9998C59.4997 55.4998 60.0992 59.3998 58.8852 61.4286C57.6711 63.4574 47.9837 64.1998 46.9038 63.2998C45.8238 62.3998 44.5033 56.6998 45.3792 54.5998C45.0626 54.0538 44.7504 53.2128 44.4675 52.1616C44.1278 52.2893 43.743 52.4024 43.3048 52.4998C40.6048 53.0998 35.204 53.6998 31.0029 53.0998Z" fill="#E3E0D3"/>
</svg>
