<svg width="63" height="129" viewBox="0 0 63 129" fill="none" xmlns="http://www.w3.org/2000/svg">
<path d="M14.1332 95.4C12.0441 89.9335 12.5504 79.4048 14.5596 75.8293C13.9144 74.2273 12.817 69.022 13.0317 63.6774C9.74138 63.6653 4.5839 62.8729 3.71975 61.4288C2.50574 59.4 3.10525 55.5 4.30383 54C2.20156 47.4 3.71975 40.2 6.40156 36C4.90156 30 7.60156 21.9 10.9016 20.1C11.7925 16.7769 14.2475 13.5847 17.4426 11.3098C18.0992 10.8423 19.1655 10.1867 19.8775 9.80345C20.7985 9.37511 21.6068 9.04418 22.3784 9.29099C24.5401 8.27887 27.8644 7.86621 31.5672 7.86621C35.2754 7.86621 38.6297 8.2887 40.7912 9.3041C41.5734 9.03896 42.7286 9.57213 43.6655 10.0079C47.8614 12.2526 51.2272 16.0806 52.3049 20.1C55.6049 21.9 58.3049 30 56.8049 36C59.4867 40.2 61.0049 47.4 58.9026 54C60.1012 55.5 60.7007 59.4 59.4867 61.4288C58.6226 62.8729 53.4654 63.6652 50.175 63.6774C50.3898 69.022 49.2923 74.2273 48.647 75.8293C50.6562 79.4048 51.1625 89.9335 49.0735 95.4C50.3056 97.3232 50.6836 104.748 50.2012 110.7C50.0063 113.104 49.0022 117 47.8022 118.5C46.6022 120 44.5043 120.9 42.4022 121.2C40.3 121.5 35.2023 121.5 31.6023 121.5C28.0023 121.5 22.9066 121.5 20.8045 121.2C18.7023 120.9 16.6045 120 15.4045 118.5C14.2045 117 13.2003 113.104 13.0055 110.7C12.523 104.748 12.901 97.3232 14.1332 95.4Z" fill="#E3E0D3"/>
</svg>
