<svg width="63" height="129" viewBox="0 0 63 129" fill="none" xmlns="http://www.w3.org/2000/svg">
<path d="M13.9573 75.8295C13.0304 73.5281 11.1704 63.7913 13.6074 56.8873C11.8486 49.0935 12.2552 41.5637 14.9653 34.6411C14.7785 32.4237 14.6813 30.3729 14.804 28.1995C17.0919 25.9621 17.5611 21.9724 17.4034 20.2345C17.2128 18.1328 16.5976 16.2002 15.9433 15.1552C15.289 14.1102 15.522 12.9664 16.5976 12.0002C17.0917 11.5565 18.3419 10.7144 19.9528 9.89664C19.8988 9.81738 19.8487 9.74026 19.8035 9.66608C19.5545 9.25741 19.4557 8.78596 19.9925 8.37092C20.5292 7.95589 21.0128 7.66524 21.8671 7.31689C22.6753 6.98733 23.2083 7.40197 23.8229 7.98424C25.8081 7.48215 28.2876 7.26641 30.9648 7.26641C33.6554 7.26641 36.1837 7.4843 38.1738 7.99175C38.7918 7.40555 39.3259 6.98592 40.1376 7.31689C40.9919 7.66524 41.4755 7.95589 42.0122 8.37092C42.5489 8.78596 42.4502 9.25741 42.2012 9.66608C42.1557 9.74072 42.1052 9.81834 42.0509 9.89811C43.6604 10.7154 44.9094 11.5568 45.4031 12.0002C46.4788 12.9664 46.7117 14.1102 46.0574 15.1552C45.4031 16.2002 44.788 18.1328 44.5974 20.2345C44.4397 21.9727 44.9091 25.9635 47.1981 28.2007C47.3206 30.3736 47.2234 32.4241 47.0367 34.6411C49.7468 41.5637 50.1534 49.0935 48.3945 56.8873C50.8316 63.7913 48.9716 73.5281 48.0447 75.8295C50.0539 79.405 50.5602 89.9337 48.4711 95.4002C49.7033 97.3234 50.0813 104.748 49.5988 110.7C49.404 113.104 48.3998 117 47.1998 118.5C45.9998 120 43.902 120.9 41.7998 121.2C39.6977 121.5 34.6 121.5 31 121.5C27.4 121.5 22.3043 121.5 20.2021 121.2C18.1 120.9 16.0021 120 14.8021 118.5C13.6021 117 12.598 113.104 12.4031 110.7C11.9207 104.748 12.2987 97.3234 13.5308 95.4002C11.4418 89.9337 11.9481 79.405 13.9573 75.8295Z" fill="#E3E0D3"/>
</svg>
