<svg width="63" height="129" viewBox="0 0 63 129" fill="none" xmlns="http://www.w3.org/2000/svg">
<path d="M15.5271 61.2445C14.5051 59.4831 12.6532 54.6161 14.5051 48.8789C12.8023 42.783 13.1959 36.8935 15.8197 31.4789C15.6641 29.9867 15.5727 28.5459 15.6259 27.05C17.4982 24.7581 17.8891 21.2215 17.7433 19.6132C17.5527 17.5115 16.9375 15.579 16.2832 14.5339C15.6289 13.4889 15.8618 12.3451 16.9375 11.379C17.3555 11.0035 18.8499 10.008 19.6927 9.48487C20.5356 8.96172 21.3443 8.42308 22.1159 8.66989C24.2776 7.65778 27.6019 7.24512 31.3047 7.24512C35.0129 7.24512 38.3672 7.66761 40.5287 8.68301C41.3109 8.41787 42.2464 9.0784 43.0021 9.57206C43.7577 10.0657 45.3249 11.0035 45.743 11.379C46.8187 12.3451 47.0516 13.4889 46.3973 14.5339C45.743 15.579 45.1278 17.5115 44.9372 19.6132C44.7875 21.2633 45.203 24.9436 47.2039 27.2264C47.2441 28.6595 47.1539 30.0454 47.0044 31.4789C49.6282 36.8935 50.0219 42.783 48.319 48.8789C50.171 54.6161 48.319 59.4831 47.2971 61.2445C46.2752 63.0059 44.5131 63.284 42.7049 63.6085C40.8967 63.933 36.1228 64.4892 31.4782 64.0186C26.8336 64.4892 21.9275 63.933 20.1193 63.6085C18.3111 63.284 16.549 63.0059 15.5271 61.2445Z" fill="#E3E0D3"/>
</svg>
