<svg width="63" height="129" viewBox="0 0 63 129" fill="none" xmlns="http://www.w3.org/2000/svg">
<path d="M15.3653 49.1998C14.8016 47.6998 13.9013 45.2998 15.3653 41.0998C13.6009 35.0998 14.7654 32.3998 16.0799 29.6998C16.0055 28.9858 15.9457 28.3073 15.9095 27.643C17.7623 25.3505 18.1495 21.8359 18.0042 20.2341C17.8136 18.1324 17.1984 16.1999 16.5441 15.1548C15.8898 14.1098 16.1227 12.966 17.1984 11.9999C17.917 11.3545 20.701 9.7296 23.4023 8.69961C23.4023 8.69961 23.4801 6.0473 23.5711 4.79961C23.6621 3.55192 24.3023 2.69961 25.8023 2.69961C26.8863 2.69961 29.5367 2.81709 31.6029 2.79737C32.396 2.7898 33.1031 2.76202 33.6023 2.69961C35.4023 2.47461 36.6023 2.69961 36.6023 2.69961C37.5023 2.69961 38.6751 3.55192 38.7661 4.79961C38.8571 6.0473 38.9348 8.69961 38.9348 8.69961C41.9559 9.71965 45.2181 11.294 46.0039 11.9999C47.0796 12.966 47.3125 14.1098 46.6582 15.1548C46.0039 16.1999 45.3887 18.1324 45.1981 20.2341C45.0527 21.8377 45.4409 25.3584 47.2991 27.6507C47.2628 28.3125 47.2033 28.9886 47.1291 29.6998C48.4436 32.3998 49.6081 35.0998 47.8437 41.0998C49.3077 45.2998 48.4075 47.6998 47.8437 49.1998C47.28 50.6998 46.6048 51.8998 43.9048 52.4998C41.2048 53.0998 35.804 53.6998 31.6029 53.0998C27.4018 53.6998 22.0042 53.0998 19.3042 52.4998C16.6042 51.8998 15.929 50.6998 15.3653 49.1998Z" fill="#E3E0D3"/>
</svg>
