<svg width="63" height="129" viewBox="0 0 63 129" fill="none" xmlns="http://www.w3.org/2000/svg">
<path d="M31.7407 64.6397C27.0961 65.1103 22.19 64.5541 20.3818 64.2296C18.8182 63.949 17.289 63.7031 16.2432 62.5028C16.0632 62.8736 15.8789 63.1518 15.7012 63.3C14.6212 64.2 4.93376 63.4576 3.71975 61.4288C2.50574 59.4 3.10525 55.5 4.30383 54C2.20156 47.4 3.71975 40.2 6.40156 36C4.90156 30 7.60156 21.9 10.9016 20.1C11.9664 16.1285 15.2652 12.3438 19.3914 10.0887C20.3124 9.66039 21.6068 9.04418 22.3784 9.29099C24.5401 8.27887 27.8644 7.86621 31.5672 7.86621C35.2754 7.86621 38.6297 8.2887 40.7912 9.3041C41.5652 9.04173 42.8452 9.6371 43.7797 10.0718L43.8091 10.0855C47.9381 12.3402 51.2396 16.1266 52.3049 20.1C55.6049 21.9 58.3049 30 56.8049 36C59.4867 40.2 61.0049 47.4 58.9026 54C60.1012 55.5 60.7007 59.4 59.4867 61.4288C58.2727 63.4576 48.5853 64.2 47.5053 63.3C47.3442 63.1657 47.1777 62.9246 47.014 62.6046C45.9716 63.7174 44.4858 63.9571 42.9674 64.2296C41.1592 64.5541 36.3853 65.1103 31.7407 64.6397Z" fill="#E3E0D3"/>
</svg>
