<svg width="63" height="129" viewBox="0 0 63 129" fill="none" xmlns="http://www.w3.org/2000/svg">
<path d="M14.7637 49.2C14.2 47.7 13.2997 45.3 14.7637 41.1C12.9993 35.1 14.1638 32.4 15.4783 29.7C15.4039 28.986 15.3441 28.3075 15.3079 27.6432C17.1607 25.3507 17.5479 21.8361 17.4027 20.2343C17.212 18.1326 16.5969 16.2 15.9426 15.155C15.2883 14.11 15.5212 12.9662 16.5969 12C17.0429 11.5994 18.1356 10.9146 18.8921 10.4213C19.6485 9.92794 21.0037 9.04418 21.7752 9.29099C23.937 8.27887 27.2613 7.86621 30.9641 7.86621C34.6723 7.86621 38.0265 8.2887 40.1881 9.3041C40.9703 9.03896 41.9768 9.86514 42.7672 10.276C43.5576 10.6868 44.9847 11.625 45.4024 12C46.4781 12.9662 46.711 14.11 46.0567 15.155C45.4024 16.2 44.7872 18.1326 44.5966 20.2343C44.4511 21.8379 44.8394 25.3586 46.6976 27.6509C46.6613 28.3127 46.6017 28.9888 46.5276 29.7C47.8421 32.4 49.0066 35.1 47.2422 41.1C48.7062 45.3 47.8059 47.7 47.2422 49.2C46.6784 50.7 46.0033 51.9 43.3033 52.5C40.6033 53.1 35.2025 53.7 31.0014 53.1C26.8002 53.7 21.4026 53.1 18.7026 52.5C16.0026 51.9 15.3275 50.7 14.7637 49.2Z" fill="#E3E0D3"/>
</svg>
