<svg width="63" height="129" viewBox="0 0 63 129" fill="none" xmlns="http://www.w3.org/2000/svg">
<path d="M31.2061 53.1002C27.0049 53.7002 21.6073 53.1002 18.9073 52.5002C18.467 52.4023 18.0805 52.2885 17.7395 52.16C17.4565 53.2122 17.144 54.0539 16.8272 54.6002C17.7031 56.7002 16.3827 62.4002 15.3027 63.3002C14.2228 64.2002 4.53533 63.4578 3.32131 61.429C2.1073 59.4002 2.70681 55.5002 3.9054 54.0002C1.80312 47.4002 3.32131 40.2002 6.00313 36.0002C4.50313 30.0002 7.20312 21.9002 10.5031 20.1002C11.6504 15.8213 15.3908 11.7593 19.9652 9.59344C19.749 9.20221 19.6912 8.76158 20.1964 8.37092C20.7331 7.95589 21.2167 7.66524 22.071 7.31689C22.8792 6.98733 23.4122 7.40197 24.0269 7.98424C26.012 7.48215 28.4915 7.26641 31.1688 7.26641C33.8593 7.26641 36.3876 7.4843 38.3777 7.99175C38.9957 7.40554 39.5298 6.98592 40.3415 7.31689C41.1958 7.66524 41.6794 7.95589 42.2161 8.37092C42.7218 8.76194 42.6634 9.20303 42.4467 9.59453C47.0201 11.7607 50.7594 15.822 51.9065 20.1002C55.2065 21.9002 57.9065 30.0002 56.4065 36.0002C59.0883 40.2002 60.6065 47.4002 58.5042 54.0002C59.7028 55.5002 60.3023 59.4002 59.0883 61.429C57.8743 63.4578 48.1868 64.2002 47.1069 63.3002C46.0269 62.4002 44.7065 56.7002 45.5824 54.6002C45.2658 54.0542 44.9535 53.2132 44.6706 52.162C44.3309 52.2897 43.9461 52.4028 43.5079 52.5002C40.8079 53.1002 35.4072 53.7002 31.2061 53.1002Z" fill="#E3E0D3"/>
</svg>
