<svg width="63" height="129" viewBox="0 0 63 129" fill="none" xmlns="http://www.w3.org/2000/svg">
<path d="M31.0029 53.1C26.8018 53.7 21.4042 53.1 18.7042 52.5C18.2639 52.4022 17.8774 52.2884 17.5364 52.1599C17.2534 53.212 16.9409 54.0537 16.6241 54.6C17.5 56.7 16.1795 62.4 15.0996 63.3C14.0197 64.2 4.3322 63.4576 3.11819 61.4288C1.90418 59.4 2.50368 55.5 3.70227 54C1.6 47.4 3.11819 40.2 5.8 36C4.3 30 7 21.9 10.3 20.1C11.3575 16.156 14.6181 12.3963 18.7042 10.1358C19.6252 9.70749 21.0052 9.04421 21.7768 9.29102C23.9386 8.2789 27.2629 7.86624 30.9656 7.86624C34.6739 7.86624 38.0281 8.28873 40.1896 9.30413C40.9718 9.039 42.6423 9.85814 43.5792 10.2939C47.5338 12.569 50.6702 16.2466 51.7034 20.1C55.0033 21.9 57.7034 30 56.2034 36C58.8852 40.2 60.4034 47.4 58.3011 54C59.4997 55.5 60.0992 59.4 58.8852 61.4288C57.6711 63.4576 47.9837 64.2 46.9038 63.3C45.8238 62.4 44.5033 56.7 45.3792 54.6C45.0626 54.054 44.7504 53.213 44.4675 52.1618C44.1278 52.2895 43.743 52.4027 43.3048 52.5C40.6048 53.1 35.204 53.7 31.0029 53.1Z" fill="#E3E0D3"/>
</svg>
