<svg width="63" height="54" viewBox="0 0 63 54" fill="none" xmlns="http://www.w3.org/2000/svg">
<path d="M28.5433 43.9223C28.8179 45.4686 28.9082 45.7043 29.1941 47.5935C29.4801 49.4826 29.2109 50.434 29.1526 51.0751C29.0944 51.7162 28.3113 52.0611 27.5608 52.1114C27.1432 52.1395 25.0744 52.323 23.8249 51.8588C22.829 51.4887 22.5605 50.4515 22.5605 50.4515C22.5605 50.4515 22.3571 51.9773 20.9613 51.9773C19.5655 51.9773 14.6435 51.9773 14.6435 51.9773L7.79114 51.8588C7.79114 51.8588 4.64675 51.645 3.41787 51.5818C2.18899 51.5185 2.68483 50.3257 2.68483 50.0049C2.68539 48.7806 2.1373 47.768 4.10041 46.139C6.06352 44.51 10.4939 44.4151 12.6335 44.6055C13.0508 44.3725 13.6359 43.988 14.2787 43.4762C14.7127 43.1306 15.173 42.7269 15.6257 42.2727C16.0787 41.8181 16.5239 41.3129 16.9276 40.7644C17.332 39.9159 17.5596 39.0565 18.1768 38.8728C18.7941 38.6892 18.8812 39.1426 20.4074 39.618C20.7646 39.7293 21.8561 39.956 22.3571 40.0427C24.9985 40.4999 25.4652 39.1565 26.5828 39.1565C27.6972 39.1565 28.2656 42.3579 28.541 43.9092L28.5433 43.9223Z" fill="#E3E0D3"/>
<path d="M33.7297 43.9223C33.4551 45.4686 33.3648 45.7043 33.0789 47.5935C32.7929 49.4826 33.0621 50.434 33.1204 51.0751C33.1786 51.7162 33.9617 52.0611 34.7122 52.1114C35.1298 52.1395 37.1985 52.323 38.4481 51.8588C39.4439 51.4887 39.7125 50.4515 39.7125 50.4515C39.7125 50.4515 39.9159 51.9773 41.3117 51.9773C42.7075 51.9773 47.6295 51.9773 47.6295 51.9773L54.4818 51.8588C54.4818 51.8588 57.6262 51.645 58.8551 51.5818C60.084 51.5185 59.5882 50.3257 59.5882 50.0049C59.5876 48.7806 60.1357 47.768 58.1726 46.139C56.2095 44.51 51.7791 44.4151 49.6395 44.6055C49.2222 44.3725 48.6371 43.988 47.9943 43.4762C47.5603 43.1306 47.1 42.7269 46.6473 42.2727C46.1943 41.8181 45.749 41.3129 45.3454 40.7644C44.941 39.9159 44.7134 39.0565 44.0962 38.8728C43.4789 38.6892 43.3918 39.1426 41.8656 39.618C41.5084 39.7293 40.4168 39.956 39.9159 40.0427C37.2745 40.4999 36.8077 39.1565 35.6902 39.1565C34.5758 39.1565 34.0074 42.3579 33.732 43.9092L33.7297 43.9223Z" fill="#E3E0D3"/>
</svg>
