<svg width="64" height="54" viewBox="0 0 64 54" fill="none" xmlns="http://www.w3.org/2000/svg">
<path d="M29.1537 42.851C29.4283 44.3973 29.8046 46.9805 29.8046 46.9805C30.0418 48.2028 29.9745 50.3956 29.9162 51.0366C29.8579 51.6777 29.0748 52.0227 28.3243 52.073C27.5739 52.1234 25.6412 52.073 24.3894 52.073H22.9968C22.9968 52.073 22.2298 51.0631 20.416 51.5433C18.9378 51.9347 17.0427 51.9389 15.407 51.9389C11.7641 51.9389 10.169 51.8894 8.55469 51.8203C6.94034 51.7513 5.41029 51.6066 4.18142 51.5433C2.95254 51.4801 3.20131 49.8208 3.20131 49.5001C3.20187 48.2758 2.74773 46.6968 4.71084 45.0677C6.67395 43.4387 11.1043 43.3438 13.2439 43.5342C13.6612 43.3012 14.2463 42.9167 14.8891 42.4049C15.3232 42.0593 15.7835 41.6557 16.2361 41.2014C16.6891 40.7468 17.1344 40.2416 17.538 39.6931C17.9424 38.8446 18.17 37.9852 18.7873 37.8016C19.4045 37.6179 19.4916 38.0713 21.0178 38.5467C21.375 38.658 22.4666 38.8847 22.9675 38.9714C25.6089 39.4286 26.0757 38.0852 27.1932 38.0852C28.3076 38.0852 28.876 41.2866 29.1514 42.8379L29.1537 42.851Z" fill="#E3E0D3"/>
<path d="M34.4549 42.851C34.1804 44.3973 33.8041 46.9805 33.8041 46.9805C33.5669 48.2028 33.6342 50.3956 33.6925 51.0366C33.7507 51.6777 34.5338 52.0227 35.2843 52.073C36.0348 52.1234 37.9675 52.073 39.2192 52.073H40.6119C40.6119 52.073 41.3789 51.0631 43.1927 51.5433C44.6708 51.9347 46.5659 51.9389 48.2016 51.9389C51.8445 51.9389 53.4396 51.8894 55.054 51.8203C56.6683 51.7513 58.1984 51.6066 59.4272 51.5433C60.6561 51.4801 60.4073 49.8208 60.4073 49.5001C60.4068 48.2758 60.8609 46.6968 58.8978 45.0677C56.9347 43.4387 52.5043 43.3438 50.3647 43.5342C49.9474 43.3012 49.3623 42.9167 48.7195 42.4049C48.2855 42.0593 47.8252 41.6557 47.3725 41.2014C46.9196 40.7468 46.4743 40.2416 46.0706 39.6931C45.6662 38.8446 45.4386 37.9852 44.8214 37.8016C44.2041 37.6179 44.1171 38.0713 42.5908 38.5467C42.2337 38.658 41.1421 38.8847 40.6411 38.9714C37.9997 39.4286 37.533 38.0852 36.4154 38.0852C35.3011 38.0852 34.7326 41.2866 34.4572 42.8379L34.4549 42.851Z" fill="#E3E0D3"/>
</svg>
