<svg width="57" height="54" viewBox="0 0 57 54" fill="none" xmlns="http://www.w3.org/2000/svg">
<path d="M2.3909 47.4028C1.17456 47.996 0.790053 49.1314 0.985937 49.9803C1.18182 50.8291 1.73569 51.8233 3.30276 52.1023C4.86983 52.3813 12.2387 52.5469 13.6051 52.3813C14.9715 52.2157 15.9446 51.6567 16.9797 50.7251C17.5714 50.1926 19.1623 48.4238 21.3114 46.8254C22.7282 47.9798 22.9601 50.6318 22.9601 52.2687C23.321 52.366 25.3968 52.4414 25.85 52.2687C26.0991 49.9759 26.7844 45.8513 26.8998 44.1109C26.8998 42.559 25.85 40.9615 25.85 40.9615C23.6657 41.9422 20.3273 43.837 18.2734 44.7955C16.2195 45.754 15.1863 46.3005 12.3956 46.8881C9.60492 47.4757 7.38987 45.3947 7.38987 45.3947C7.38987 45.3947 3.60724 46.8096 2.3909 47.4028Z" fill="#E3E0D3"/>
<path d="M55.2075 47.4027C56.4239 47.9959 56.8084 49.1314 56.6125 49.9802C56.4166 50.829 55.8628 51.8233 54.2957 52.1023C52.7286 52.3813 45.3597 52.5469 43.9933 52.3813C42.6269 52.2156 41.6539 51.6567 40.6187 50.725C40.0276 50.193 38.4388 48.4266 36.2923 46.8293C34.8755 47.9837 34.6383 50.6318 34.6383 52.2686C34.2774 52.366 32.2016 52.4413 31.7484 52.2686C31.4994 49.9759 30.814 45.8512 30.6987 44.1108C30.6987 42.559 31.7484 40.9614 31.7484 40.9614C33.9327 41.9421 37.2712 43.837 39.3251 44.7954C41.379 45.7539 42.4121 46.3005 45.2028 46.888C47.9935 47.4756 50.2086 45.3947 50.2086 45.3947C50.2086 45.3947 53.9912 46.8096 55.2075 47.4027Z" fill="#E3E0D3"/>
</svg>
