<svg width="57" height="54" viewBox="0 0 57 54" fill="none" xmlns="http://www.w3.org/2000/svg">
<path d="M8.3077 44.0001C3.87396 46.4056 1.44462 47.4393 1.18825 49.0933C0.931877 50.7473 2.24836 52.06 3.97847 52.06C5.70857 52.06 11.6325 52.2257 12.9989 52.06C13.7203 51.9726 14.972 51.7097 15.9356 50.379C16.8992 49.0483 18.4594 46.4844 19.1018 45.6068L19.1106 45.5947C19.4713 45.1019 20.4068 43.8236 21.9186 42.5675C23.3353 43.7219 23.8387 50.4232 23.8387 52.06C24.1996 52.1574 25.3906 52.2327 25.8438 52.06C25.8438 50.2483 25.5415 43.3551 26.8068 39.966C27.2415 36.8818 25.8438 35.4795 25.8438 35.4795C20.6619 39.5038 18.8913 41.9737 16.8992 43.8185C14.9071 45.6634 13.2877 45.3373 12.0534 45.3373C9.16911 45.3373 8.47356 44.403 8.3077 44.0001Z" fill="#E3E0D3"/>
<path d="M49.2775 44.0001C53.7112 46.4056 56.1405 47.4393 56.3969 49.0933C56.6533 50.7473 55.3368 52.06 53.6067 52.06C51.8766 52.06 45.9527 52.2257 44.5863 52.06C43.8649 51.9726 42.6132 51.7097 41.6496 50.379C40.686 49.0483 39.1258 46.4844 38.4834 45.6068L38.4746 45.5947C38.1147 45.1031 37.1829 43.8297 35.6774 42.5766C34.2607 43.731 33.7464 50.4232 33.7464 52.06C33.3856 52.1574 32.1946 52.2327 31.7414 52.06C31.7414 50.2483 32.0436 43.3551 30.7784 39.966C30.3437 36.8818 31.7414 35.4795 31.7414 35.4795C36.9232 39.5038 38.6938 41.9737 40.686 43.8185C42.6781 45.6634 44.2974 45.3373 45.5318 45.3373C48.4161 45.3373 49.1116 44.403 49.2775 44.0001Z" fill="#E3E0D3"/>
</svg>
