<svg width="63" height="84" viewBox="0 0 63 84" fill="none" xmlns="http://www.w3.org/2000/svg">
<path d="M31.4047 61.3757C36.8781 62.3605 42.5195 62.6664 44.9021 61.7998C45.8156 61.4675 46.5553 61.0141 47.1212 60.4636C47.9062 61.5319 48.5034 62.0134 48.5034 62.0134C48.5034 62.0134 47.9995 63.9867 49.5365 64.3709C51.0734 64.7552 56.029 64.1998 57.2924 63.095C58.5559 61.9901 57.8908 60.5682 57.8908 60.5682C57.8908 60.5682 59.8926 56.0473 58.2576 46.9052C56.6225 37.7631 55.8705 29.5892 54.8037 25.4998C53.7369 21.4105 51.5034 17.0998 47.6034 13.4998C47.4496 13.3579 47.2959 13.2188 47.1422 13.0824C47.6121 12.5854 47.9039 11.9421 47.9039 11.0998C47.9039 7.79979 44.0039 5.39979 41.3039 4.49979C38.6039 3.59979 35.9927 3.2998 31.4039 3.2998C26.8151 3.2998 24.2039 3.5998 21.5039 4.4998C18.8039 5.3998 14.9039 7.7998 14.9039 11.0998C14.9039 11.9417 15.1954 12.5848 15.6649 13.0816C15.5109 13.2182 15.3569 13.3576 15.2029 13.4998C11.3029 17.0998 9.06933 21.4105 8.00254 25.4998C6.93575 29.5892 6.18371 37.7631 4.54868 46.9052C2.91364 56.0473 4.91544 60.5682 4.91544 60.5682C4.91544 60.5682 4.25034 61.9901 5.51381 63.095C6.77729 64.1998 11.7328 64.7552 13.2698 64.3709C14.8067 63.9867 14.3029 62.0134 14.3029 62.0134C14.3029 62.0134 14.9006 61.5314 15.6864 60.4619C16.2525 61.0132 16.9928 61.4672 17.9073 61.7998C20.2896 62.6663 25.932 62.3601 31.4047 61.3757Z" fill="#E3E0D3"/>
</svg>
