<svg width="63" height="84" viewBox="0 0 63 84" fill="none" xmlns="http://www.w3.org/2000/svg">
<path d="M31.2017 43.4417C35.9747 44.3285 40.5942 44.5683 42.8997 43.7998C42.9799 43.7731 43.0585 43.745 43.1355 43.7155C43.3581 49.2157 43.783 53.6242 44.5831 55.916C46.0897 60.2311 48.3003 62.0134 48.3003 62.0134C48.3003 62.0134 47.7964 63.9867 49.3333 64.3709C50.8703 64.7552 55.8258 64.1998 57.0893 63.095C58.3528 61.9901 57.6877 60.5682 57.6877 60.5682C57.6877 60.5682 59.6895 56.0473 58.0545 46.9052C56.4194 37.7631 55.6674 29.5892 54.6006 25.4998C53.5338 21.4105 51.3003 17.0998 47.4003 13.4998C47.2465 13.3579 47.0928 13.2188 46.939 13.0824C47.409 12.5854 47.7008 11.9421 47.7008 11.0998C47.7008 7.79979 43.8008 5.39979 41.1008 4.49979C38.4008 3.59979 35.7896 3.2998 31.2008 3.2998C26.6119 3.2998 24.0008 3.5998 21.3008 4.4998C18.6008 5.3998 14.7008 7.7998 14.7008 11.0998C14.7008 11.9417 14.9923 12.5848 15.4618 13.0816C15.3078 13.2182 15.1538 13.3576 14.9997 13.4998C11.0997 17.0998 8.8662 21.4105 7.79941 25.4998C6.73263 29.5892 5.98058 37.7631 4.34555 46.9052C2.71052 56.0473 4.71232 60.5682 4.71232 60.5682C4.71232 60.5682 4.04721 61.9901 5.31069 63.095C6.57417 64.1998 11.5297 64.7552 13.0667 64.3709C14.6036 63.9867 14.0997 62.0134 14.0997 62.0134C14.0997 62.0134 16.3103 60.2311 17.8169 55.916C18.6171 53.6241 19.042 49.2151 19.2645 43.7143C19.3426 43.7442 19.4222 43.7727 19.5035 43.7998C21.8087 44.5682 26.4293 44.3282 31.2017 43.4417Z" fill="#E3E0D3"/>
</svg>
