<svg width="63" height="84" viewBox="0 0 63 84" fill="none" xmlns="http://www.w3.org/2000/svg">
<path d="M30.9985 71.5753C36.472 72.5602 42.115 72.8664 44.4976 71.9998C47.3282 70.9702 48.8607 67.6651 48.22 63.6746C48.3811 63.9874 48.6602 64.2534 49.1302 64.3709C50.6672 64.7552 55.6227 64.1998 56.8862 63.095C58.1497 61.9901 57.4846 60.5682 57.4846 60.5682C57.4846 60.5682 59.4864 56.0473 57.8513 46.9052C56.2163 37.7631 55.4642 29.5892 54.3975 25.4998C53.3307 21.4105 51.0971 17.0998 47.1971 13.4998C47.0434 13.3579 46.8896 13.2188 46.7359 13.0824C47.2058 12.5854 47.4977 11.9421 47.4977 11.0998C47.4977 7.79979 43.5977 5.39979 40.8977 4.49979C38.1977 3.59979 35.5865 3.2998 30.9977 3.2998C26.4088 3.2998 23.7977 3.5998 21.0977 4.4998C18.3977 5.3998 14.4977 7.7998 14.4977 11.0998C14.4977 11.9417 14.7892 12.5848 15.2587 13.0816C15.1047 13.2182 14.9506 13.3576 14.7966 13.4998C10.8966 17.0998 8.66308 21.4105 7.59629 25.4998C6.5295 29.5892 5.77746 37.7631 4.14243 46.9052C2.50739 56.0473 4.50919 60.5682 4.50919 60.5682C4.50919 60.5682 3.84409 61.9901 5.10756 63.095C6.37104 64.1998 11.3266 64.7552 12.8635 64.3709C13.3381 64.2523 13.6181 63.9821 13.7785 63.6653C13.1339 67.66 14.6666 70.9694 17.4994 71.9998C19.8819 72.8664 25.5253 72.5601 30.9985 71.5753Z" fill="#E3E0D3"/>
</svg>
