<svg width="64" height="84" viewBox="0 0 64 84" fill="none" xmlns="http://www.w3.org/2000/svg">
<path d="M13.6604 64.3709C12.1235 64.7552 7.16792 64.1998 5.90444 63.095C4.64096 61.9901 5.30607 60.5682 5.30607 60.5682C5.30607 60.5682 3.30427 56.0473 4.9393 46.9052C6.57433 37.7631 7.32638 29.5892 8.39316 25.4998C9.45995 21.4105 11.6935 17.0998 15.5935 13.4998C15.7475 13.3576 15.9015 13.2182 16.0556 13.0816C15.5861 12.5848 15.2945 11.9417 15.2945 11.0998C15.2945 7.7998 19.1945 5.3998 21.8945 4.4998C24.5945 3.5998 27.2057 3.2998 31.7945 3.2998C36.3834 3.2998 38.9945 3.59979 41.6945 4.49979C44.3945 5.39979 48.2945 7.79979 48.2945 11.0998C48.2945 11.9421 48.0027 12.5854 47.5328 13.0824C47.6865 13.2188 47.8403 13.3579 47.994 13.4998C51.894 17.0998 54.1276 21.4105 55.1943 25.4998C56.2611 29.5892 57.0132 37.7631 58.6482 46.9052C60.2832 56.0473 58.2814 60.5682 58.2814 60.5682C58.2814 60.5682 58.9465 61.9901 57.6831 63.095C56.4196 64.1998 51.464 64.7552 49.9271 64.3709C48.3901 63.9867 48.894 62.0134 48.894 62.0134C48.894 62.0134 46.6834 60.2311 45.1768 55.916C44.7337 54.6468 44.4057 52.7283 44.1634 50.3348C41.4937 50.9195 36.6001 50.7016 31.7954 49.9087C26.9888 50.7019 22.0932 50.9197 19.4242 50.3341C19.1819 52.7279 18.8538 54.6466 18.4107 55.916C16.9041 60.2311 14.6935 62.0134 14.6935 62.0134C14.6935 62.0134 15.1974 63.9867 13.6604 64.3709Z" fill="#E3E0D3"/>
</svg>
