<svg width="63" height="129" viewBox="0 0 63 129" fill="none" xmlns="http://www.w3.org/2000/svg">
<path d="M31.4013 45.3002C24.2501 45.3002 19.3487 43.7223 17.9033 43.3097C17.0215 43.058 16.7126 42.8643 16.5889 42.4403C15.7021 52.3239 14.9841 61.4635 14.8998 62.1001C14.7715 63.0702 14.5999 63.9001 13.3998 64.2001C12.1998 64.5001 7.09986 64.2001 6.19986 63.9001C5.29986 63.6001 5 63.0001 5 62.1001C5 61.2001 5.39623 49.3952 6.11273 43.5368C6.82923 37.6784 7.16967 32.8453 7.8381 28.5005C8.50653 24.1557 8.70584 20.9617 10.4794 18.6003C12.253 16.2389 14.1528 14.6939 15.428 13.736C16.7033 12.7782 18.1519 11.8385 18.987 11.897C22.787 10.716 27.9156 10.3159 31.3641 10.3159C34.8186 10.3159 39.9983 10.7174 43.8002 11.9032C44.5613 11.8754 46.8588 13.3765 48.0363 14.3017C49.2139 15.2268 50.6355 16.2654 52.1924 18.6003C53.7493 20.9352 54.2927 24.1557 54.9611 28.5005C55.6296 32.8453 55.97 37.6784 56.6865 43.5368C57.403 49.3952 57.7992 61.2001 57.7992 62.1001C57.7992 63.0001 57.4994 63.6001 56.5994 63.9001C55.6994 64.2001 50.5994 64.5001 49.3994 64.2001C48.1994 63.9001 48.0277 63.0702 47.8994 62.1001C47.8152 61.4638 47.0978 52.3322 46.2115 42.4538C46.0852 42.8684 45.7736 43.0607 44.9011 43.3097C43.4557 43.7223 38.5525 45.3002 31.4013 45.3002Z" fill="#E3E0D3"/>
</svg>
