<svg width="64" height="129" viewBox="0 0 64 129" fill="none" xmlns="http://www.w3.org/2000/svg">
<path d="M17.7085 50.5139L17.6935 50.5096C16.753 50.2411 16.4642 50.0386 16.3568 49.5524C15.775 56.3416 15.3538 61.6216 15.2905 62.1C15.1621 63.0701 14.9905 63.9 13.7905 64.2C12.5905 64.5 7.49049 64.2 6.59049 63.9C5.69049 63.6 5.39062 63 5.39062 62.1C5.39062 61.2 5.78685 49.3951 6.50336 43.5367C7.21986 37.6783 7.5603 32.8452 8.22873 28.5004C8.89716 24.1556 9.09895 21.0379 10.6682 18.5533C12.2374 16.0687 16.2895 13.5056 18.1381 12.2657C19.9868 11.0258 21.8049 9.83673 22.5659 9.89109C24.7276 8.87897 28.0519 8.46631 31.7547 8.46631C35.4557 8.46631 38.8334 8.88756 40.9953 9.89864C41.9505 9.88359 45.4834 11.9582 47.6848 13.7262C49.8862 15.4942 52.4156 18.0159 53.4006 20.3142C54.3856 22.6125 54.6833 24.1556 55.3517 28.5004C56.0202 32.8452 56.3606 37.6783 57.0771 43.5367C57.7936 49.3951 58.1898 61.2 58.1898 62.1C58.1898 63 57.89 63.6 56.99 63.9C56.09 64.2 50.99 64.5 49.79 64.2C48.59 63.9 48.4184 63.0701 48.29 62.1C48.2268 61.622 47.8062 56.3503 47.2252 49.5693C47.1147 50.0433 46.8218 50.2442 45.8923 50.5095L45.8773 50.5138C44.4081 50.9332 38.9189 52.5001 31.7934 52.5001C24.6666 52.5001 19.1766 50.9329 17.7085 50.5139Z" fill="#E3E0D3"/>
</svg>
