<svg width="64" height="129" viewBox="0 0 64 129" fill="none" xmlns="http://www.w3.org/2000/svg">
<path d="M31.7919 45.3001C24.6407 45.3001 19.7394 43.7222 18.294 43.3096C17.4121 43.0579 17.1032 42.8642 16.9796 42.4402C16.0928 52.3238 15.3747 61.4634 15.2905 62.1C15.1621 63.0701 14.9905 63.9 13.7905 64.2001C12.5905 64.5 7.49049 64.2001 6.59049 63.9C5.69049 63.6 5.39062 63 5.39062 62.1C5.39062 61.2 5.78685 49.3951 6.50336 43.5367C7.21986 37.6783 7.5603 32.8452 8.22873 28.5004C8.89716 24.1556 10.2742 19.0712 11.8633 17.3042C12.7053 16.3679 16.0518 13.6335 17.3435 12.7925C18.6352 11.9514 20.3457 10.6524 21.2698 10.5928C23.4284 9.54695 27.9951 8.46631 31.7537 8.46631C35.5123 8.46631 40.0424 9.56491 42.2011 10.6107C43.2929 10.7282 44.1044 11.3503 45.1354 12.104C46.1663 12.8578 50.6967 16.1101 52.455 18.7501C54.2133 21.3901 54.6833 24.1556 55.3517 28.5004C56.0202 32.8452 56.3606 37.6783 57.0771 43.5367C57.7936 49.3951 58.1898 61.2 58.1898 62.1C58.1898 63 57.89 63.6 56.99 63.9C56.09 64.2001 50.99 64.5 49.79 64.2001C48.59 63.9 48.4184 63.0701 48.29 62.1C48.2058 61.4637 47.4884 52.3321 46.6021 42.4537C46.4758 42.8683 46.1642 43.0606 45.2918 43.3096C43.8464 43.7222 38.9431 45.3001 31.7919 45.3001Z" fill="#E3E0D3"/>
</svg>
