<svg width="63" height="129" viewBox="0 0 63 129" fill="none" xmlns="http://www.w3.org/2000/svg">
<path d="M17.1225 50.5135L17.1076 50.5092C16.167 50.2407 15.8783 50.0383 15.7708 49.552C15.189 56.3412 14.7678 61.6212 14.7045 62.0997C14.5762 63.0697 14.4045 63.8997 13.2045 64.1997C12.0045 64.4997 6.90455 64.1997 6.00455 63.8997C5.10455 63.5997 4.80469 62.9997 4.80469 62.0997C4.80469 61.1997 5.20092 49.3947 5.91742 43.5363C6.63392 37.6779 6.97436 32.8448 7.64279 28.5C8.31122 24.1552 8.45359 21.2699 10.0199 19.0554C11.5862 16.841 15.1807 13.9977 16.0188 13.3957C16.8568 12.7937 18.1245 11.8701 18.7916 11.8965C22.5916 10.7155 27.7203 10.3154 31.1688 10.3154C34.6233 10.3154 39.803 10.7169 43.6049 11.9027C44.348 11.9356 45.534 12.7386 46.5789 13.4896C47.6238 14.2405 51.1987 17.0469 52.3561 19.3134C53.5134 21.58 54.0974 24.1552 54.7658 28.5C55.4342 32.8448 55.7747 37.6779 56.4912 43.5363C57.2077 49.3947 57.6039 61.1997 57.6039 62.0997C57.6039 62.9997 57.3041 63.5997 56.404 63.8997C55.504 64.1997 50.4041 64.4997 49.2041 64.1997C48.004 63.8997 47.8324 63.0697 47.7041 62.0997C47.6408 61.6216 47.2202 56.3499 46.6392 49.5689C46.5288 50.0429 46.2359 50.2438 45.3063 50.5091L45.2914 50.5134C43.8222 50.9328 38.333 52.4997 31.2074 52.4997C24.0807 52.4997 18.5906 50.9326 17.1225 50.5135Z" fill="#E3E0D3"/>
</svg>
