<svg width="63" height="129" viewBox="0 0 63 129" fill="none" xmlns="http://www.w3.org/2000/svg">
<path d="M31.2081 64.5002C24.0569 64.5002 17.9536 62.9223 16.5082 62.5097C15.0628 62.0971 15.1568 61.8404 15.0824 60.4703C15.0824 60.4703 14.9443 62.0471 14.8512 62.6673C14.758 63.2875 14.4045 63.9001 13.2045 64.2001C12.0045 64.5001 6.90455 64.2001 6.00455 63.9001C5.10455 63.6001 4.80469 63.0001 4.80469 62.1001C4.80469 61.2001 5.20092 49.3952 5.91742 43.5368C6.63392 37.6784 6.97436 32.8453 7.64279 28.5005C8.31122 24.1557 8.67521 20.9482 10.3644 18.4301C12.0536 15.9121 16.8344 12.5167 21.1484 10.0382C21.9382 9.08074 22.8869 8.07346 23.3091 8.07346C23.86 8.07346 24.0212 8.45017 24.2125 9.13836C26.1655 8.66897 28.574 8.46641 31.1683 8.46641C33.7781 8.46641 36.2374 8.67141 38.1966 9.14683C38.389 8.45312 38.5492 8.07324 39.1024 8.07324C39.5252 8.07324 40.4756 9.08304 41.2661 10.0416C45.5783 12.52 49.973 15.9121 51.7906 18.849C53.6083 21.7859 54.0974 24.1557 54.7658 28.5005C55.4342 32.8453 55.7747 37.6784 56.4912 43.5368C57.2077 49.3952 57.6039 61.2001 57.6039 62.1001C57.6039 63.0001 57.3041 63.6001 56.404 63.9001C55.504 64.2001 50.4041 64.5001 49.2041 64.2001C48.004 63.9001 47.566 63.0898 47.5037 62.321C47.4414 61.5521 47.3341 60.4702 47.3341 60.4702C47.2597 61.8403 47.3537 62.0971 45.9083 62.5096C44.4629 62.9222 38.3593 64.5002 31.2081 64.5002Z" fill="#E3E0D3"/>
</svg>
