<svg width="63" height="129" viewBox="0 0 63 129" fill="none" xmlns="http://www.w3.org/2000/svg">
<path d="M17.3179 50.5136L17.3029 50.5093C16.309 50.2256 16.0429 50.0156 15.9495 49.4666C15.3715 56.2149 14.9629 61.6233 14.8998 62.0998C14.7715 63.0698 14.5999 63.8997 13.3998 64.1998C12.1998 64.4998 7.09986 64.1998 6.19986 63.8997C5.29986 63.5998 5 62.9998 5 62.0998C5 61.1998 5.39623 49.3948 6.11273 43.5364C6.82923 37.678 7.16967 32.8449 7.8381 28.5001C8.50653 24.1553 9.88359 19.0709 11.4727 17.3039C12.6983 15.9411 18.4045 11.421 23.2008 9.03991C23.2008 9.03991 23.2786 6.0473 23.3695 4.79961C23.4605 3.55192 24.1008 2.69961 25.6008 2.69961C27.1008 2.69961 31.6008 2.9246 33.4008 2.69961C35.2008 2.47461 36.4008 2.69961 36.4008 2.69961C37.3008 2.69961 38.4735 3.55192 38.5645 4.79961C38.6467 5.92661 38.7181 8.19963 38.7312 8.62883C43.681 10.8571 49.7901 15.3068 51.8609 18.3482C53.9316 21.3897 54.2927 24.1553 54.9611 28.5001C55.6296 32.8449 55.97 37.678 56.6865 43.5364C57.403 49.3948 57.7992 61.1998 57.7992 62.0998C57.7992 62.9998 57.4994 63.5998 56.5994 63.8997C55.6994 64.1998 50.5994 64.4998 49.3994 64.1998C48.1994 63.8997 48.0277 63.0698 47.8994 62.0998C47.8361 61.6217 47.4156 56.35 46.8345 49.569C46.7241 50.043 46.4312 50.2439 45.5016 50.5092L45.4867 50.5135C44.0175 50.9329 38.5283 52.4998 31.4027 52.4998C24.276 52.4998 18.7859 50.9327 17.3179 50.5136Z" fill="#E3E0D3"/>
</svg>
