<svg width="63" height="129" viewBox="0 0 63 129" fill="none" xmlns="http://www.w3.org/2000/svg">
<path d="M16.9194 50.5139L16.9045 50.5096C15.9639 50.2411 15.6752 50.0386 15.5677 49.5524C14.9859 56.3416 14.5647 61.6216 14.5014 62.1C14.3731 63.0701 14.2014 63.9 13.0014 64.2C11.8014 64.5 6.70142 64.2 5.80142 63.9C4.90142 63.6 4.60156 63 4.60156 62.1C4.60156 61.2 4.99779 49.3951 5.71429 43.5367C6.43079 37.6783 6.77123 32.8452 7.43966 28.5004C8.10809 24.1556 8.14822 21.7461 10.1755 18.75C12.2029 15.7539 17.4748 12.2039 18.1969 11.742C18.9189 11.2802 19.7503 10.5671 20.4807 10.5928C22.6393 9.54695 27.206 8.46631 30.9646 8.46631C34.7233 8.46631 39.2534 9.56491 41.412 10.6107C42.5711 10.6184 43.5253 11.4649 44.6252 12.1287C45.7251 12.7925 49.7908 16.2111 51.5495 18.3544C53.3081 20.4978 53.8943 24.1556 54.5627 28.5004C55.2311 32.8452 55.5716 37.6783 56.2881 43.5367C57.0046 49.3951 57.4008 61.2 57.4008 62.1C57.4008 63 57.1009 63.6 56.2009 63.9C55.3009 64.2 50.2009 64.5 49.0009 64.2C47.8009 63.9 47.6293 63.0701 47.5009 62.1C47.4377 61.622 47.0171 56.3503 46.4361 49.5693C46.3256 50.0433 46.0327 50.2442 45.1032 50.5095L45.0882 50.5138C43.619 50.9332 38.1298 52.5001 31.0043 52.5001C23.8776 52.5001 18.3875 50.9329 16.9194 50.5139Z" fill="#E3E0D3"/>
</svg>
