<svg width="63" height="129" viewBox="0 0 63 129" fill="none" xmlns="http://www.w3.org/2000/svg">
<path d="M31.0028 45.3001C23.8517 45.3001 18.9503 43.7222 17.5049 43.3096C16.623 43.0579 16.3142 42.8642 16.1905 42.4402C15.3037 52.3238 14.5856 61.4634 14.5014 62.1C14.3731 63.0701 14.2014 63.9 13.0014 64.2C11.8014 64.5 6.70142 64.2 5.80142 63.9C4.90142 63.6 4.60156 63 4.60156 62.1C4.60156 61.2 4.99779 49.3951 5.71429 43.5367C6.43079 37.6783 6.77123 32.8452 7.43966 28.5004C8.10809 24.1556 8.46786 20.4086 10.4674 17.9989C12.4669 15.5892 16.0441 13.2093 17.656 12.0365C19.268 10.8638 20.7741 9.79852 21.7768 9.89109C23.9386 8.87897 27.2629 8.46631 30.9656 8.46631C34.6666 8.46631 38.0444 8.88756 40.2062 9.89864C40.984 9.64121 42.5333 10.7123 44.3463 12.0169C46.1594 13.3216 49.8565 15.4953 51.937 18.9129C54.0176 22.3304 53.8943 24.1556 54.5627 28.5004C55.2311 32.8452 55.5716 37.6783 56.2881 43.5367C57.0046 49.3951 57.4008 61.2 57.4008 62.1C57.4008 63 57.1009 63.6 56.2009 63.9C55.3009 64.2 50.2009 64.5 49.0009 64.2C47.8009 63.9 47.6293 63.0701 47.5009 62.1C47.4167 61.4637 46.6993 52.3321 45.8131 42.4537C45.6867 42.8683 45.3751 43.0606 44.5027 43.3096C43.0573 43.7222 38.154 45.3001 31.0028 45.3001Z" fill="#E3E0D3"/>
</svg>
