<svg width="63" height="129" viewBox="0 0 63 129" fill="none" xmlns="http://www.w3.org/2000/svg">
<path d="M31.0039 74.1001C23.8527 74.1001 17.7512 72.5219 16.3058 72.1094C14.8604 71.6968 13.9057 71.3998 13.68 70.07C13.6043 69.6243 13.5793 67.4953 13.6784 63.9136C13.4992 64.0339 13.2775 64.131 13.0014 64.2C11.8014 64.5 6.70142 64.2 5.80142 63.9C4.90142 63.6 4.60156 63 4.60156 62.1C4.60156 61.2 4.99779 49.3951 5.71429 43.5367C6.43079 37.6783 6.77123 32.8452 7.43966 28.5004C8.10809 24.1556 8.47478 20.9167 9.92091 18.7499C11.367 16.5832 12.8305 15.5085 14.915 13.8793C16.9995 12.25 19.2318 10.5768 20.4807 10.5928C22.6393 9.54695 27.206 8.46631 30.9646 8.46631C34.7233 8.46631 39.2534 9.56491 41.412 10.6107C42.7345 10.6057 45.7041 12.9122 47.1457 14.0078C48.5872 15.1034 50.8144 17.0653 52.0998 19.5558C53.3853 22.0464 53.8943 24.1556 54.5627 28.5004C55.2311 32.8452 55.5716 37.6783 56.2881 43.5367C57.0046 49.3951 57.4008 61.2 57.4008 62.1C57.4008 63 57.1009 63.6 56.2009 63.9C55.3009 64.2 50.2009 64.5 49.0009 64.2C48.7277 64.1317 48.5078 64.0359 48.3295 63.9173C48.4285 67.4968 48.4035 69.6244 48.3279 70.0699C48.1021 71.3997 47.1474 71.6967 45.702 72.1093C44.2566 72.5218 38.1551 74.1001 31.0039 74.1001Z" fill="#E3E0D3"/>
</svg>
