<svg width="63" height="129" viewBox="0 0 63 129" fill="none" xmlns="http://www.w3.org/2000/svg">
<path d="M31.206 45.3002C24.0548 45.3002 19.1534 43.7223 17.708 43.3097C16.8261 43.058 16.5173 42.8643 16.3936 42.4403C15.5068 52.3239 14.7888 61.4635 14.7045 62.1001C14.5762 63.0702 14.4045 63.9001 13.2045 64.2001C12.0045 64.5001 6.90455 64.2001 6.00455 63.9001C5.10455 63.6001 4.80469 63.0001 4.80469 62.1001C4.80469 61.2001 5.20092 49.3952 5.91742 43.5368C6.63392 37.6784 6.97436 32.8453 7.64279 28.5005C8.31122 24.1557 9.68828 19.0713 11.2774 17.3043C12.3476 16.1142 16.8344 12.5167 21.1484 10.0382C21.9382 9.08074 22.8869 8.07346 23.3091 8.07346C23.86 8.07346 24.0212 8.45017 24.2125 9.13836C26.1655 8.66897 28.574 8.46641 31.1683 8.46641C33.7781 8.46641 36.2374 8.67141 38.1966 9.14683C38.389 8.45312 38.5492 8.07324 39.1024 8.07324C39.5252 8.07324 40.4756 9.08304 41.2661 10.0416C45.5783 12.52 49.8784 15.9522 51.5884 18.2955C53.2984 20.6388 54.0974 24.1557 54.7658 28.5005C55.4342 32.8453 55.7747 37.6784 56.4912 43.5368C57.2077 49.3952 57.6039 61.2001 57.6039 62.1001C57.6039 63.0001 57.3041 63.6001 56.404 63.9001C55.504 64.2001 50.4041 64.5001 49.2041 64.2001C48.004 63.9001 47.8324 63.0702 47.7041 62.1001C47.6199 61.4638 46.9024 52.3322 46.0162 42.4538C45.8899 42.8684 45.5783 43.0607 44.7058 43.3097C43.2604 43.7223 38.3572 45.3002 31.206 45.3002Z" fill="#E3E0D3"/>
</svg>
