<svg width="64" height="129" viewBox="0 0 64 129" fill="none" xmlns="http://www.w3.org/2000/svg">
<path d="M31.7919 45.3002C24.6407 45.3002 19.7394 43.7223 18.294 43.3097C17.4121 43.058 17.1032 42.8643 16.9796 42.4403C16.0928 52.3239 15.3747 61.4635 15.2905 62.1001C15.1621 63.0702 14.9905 63.9001 13.7905 64.2001C12.5905 64.5001 7.49049 64.2001 6.59049 63.9001C5.69049 63.6001 5.39062 63.0001 5.39062 62.1001C5.39062 61.2001 5.78685 49.3952 6.50336 43.5368C7.21986 37.6784 7.5603 32.8453 8.22873 28.5005C8.89716 24.1557 10.2742 19.0713 11.8633 17.3043C12.6605 16.4179 15.3531 14.1958 18.458 12.0954C18.3869 11.9783 18.3175 11.8606 18.2505 11.743C17.9493 11.2144 17.6994 10.7127 18.4789 10.0678C19.2584 9.42301 19.4956 9.26023 20.8303 8.57626C22.1651 7.8923 22.4674 8.63553 23.2663 9.45516C23.2915 9.48096 23.3248 9.51686 23.3654 9.56187C25.5053 8.78857 28.4817 8.46637 31.7535 8.46637C35.0398 8.46637 38.0655 8.79142 40.2074 9.57211C40.2523 9.52224 40.2887 9.48282 40.3157 9.45508C41.1147 8.63546 41.417 7.89222 42.7517 8.57619C44.0865 9.26015 44.3237 9.42294 45.1032 10.0678C45.8827 10.7126 45.6328 11.2143 45.3316 11.7429C45.2644 11.8608 45.1949 11.9788 45.1236 12.0962C48.228 14.1964 50.7702 16.1598 52.3599 18.3456C53.9496 20.5314 54.6833 24.1557 55.3517 28.5005C56.0202 32.8453 56.3606 37.6784 57.0771 43.5368C57.7936 49.3952 58.1898 61.2001 58.1898 62.1001C58.1898 63.0001 57.89 63.6001 56.99 63.9001C56.09 64.2001 50.99 64.5001 49.79 64.2001C48.59 63.9001 48.4184 63.0702 48.29 62.1001C48.2058 61.4638 47.4884 52.3322 46.6021 42.4538C46.4758 42.8684 46.1642 43.0607 45.2918 43.3097C43.8464 43.7223 38.9431 45.3002 31.7919 45.3002Z" fill="#E3E0D3"/>
</svg>
