<svg width="64" height="129" viewBox="0 0 64 129" fill="none" xmlns="http://www.w3.org/2000/svg">
<path d="M31.794 64.5002C24.6428 64.5002 18.5396 62.9223 17.0942 62.5097C15.6488 62.0971 15.7427 61.8404 15.6683 60.4703C15.5906 61.3844 15.4433 62.075 15.3251 62.6661C15.2069 63.2573 14.9905 63.9001 13.7905 64.2001C12.5905 64.5001 7.49049 64.2001 6.59049 63.9001C5.69049 63.6001 5.39062 63.0001 5.39062 62.1001C5.39062 61.2001 5.78685 49.3952 6.50336 43.5368C7.21986 37.6784 7.5603 32.8453 8.22873 28.5005C8.89716 24.1557 9.2227 20.0914 11.8633 17.3043C14.5039 14.5172 15.3531 14.1958 18.458 12.0954C18.3869 11.9783 18.3175 11.8606 18.2505 11.743C17.9493 11.2144 17.6994 10.7127 18.4789 10.0678C19.2584 9.42301 19.4956 9.26023 20.8303 8.57626C22.1651 7.8923 22.4674 8.63553 23.2663 9.45516C23.2915 9.48096 23.3248 9.51686 23.3654 9.56187C25.5053 8.78857 28.4817 8.46637 31.7535 8.46637C35.0398 8.46637 38.0655 8.79142 40.2074 9.57211C40.2523 9.52224 40.2887 9.48282 40.3157 9.45508C41.1147 8.63546 41.417 7.89222 42.7517 8.57619C44.0865 9.26015 44.3237 9.42294 45.1032 10.0678C45.8827 10.7126 45.6328 11.2143 45.3316 11.7429C45.2644 11.8608 45.1949 11.9788 45.1236 12.0962C48.228 14.1964 51.5595 16.2351 53.0253 19.253C54.4912 22.2709 54.6833 24.1557 55.3517 28.5005C56.0202 32.8453 56.3606 37.6784 57.0771 43.5368C57.7936 49.3952 58.1898 61.2001 58.1898 62.1001C58.1898 63.0001 57.89 63.6001 56.99 63.9001C56.09 64.2001 50.99 64.5001 49.79 64.2001C48.59 63.9001 48.3143 63.2928 48.1747 62.3954C48.0351 61.498 47.9201 60.4702 47.9201 60.4702C47.8457 61.8403 47.9396 62.0971 46.4942 62.5096C45.0488 62.9222 38.9452 64.5002 31.794 64.5002Z" fill="#E3E0D3"/>
</svg>
