<svg width="63" height="129" viewBox="0 0 63 129" fill="none" xmlns="http://www.w3.org/2000/svg">
<path d="M31.4023 74.1002C24.2512 74.1002 18.1497 72.522 16.7043 72.1095C15.2589 71.6969 14.3042 71.3999 14.0784 70.0701C14.0027 69.6244 13.9778 67.4954 14.0768 63.9135C13.8976 64.0339 13.676 64.131 13.3998 64.2C12.1998 64.5 7.09986 64.2 6.19986 63.9C5.29986 63.6 5 63 5 62.1C5 61.2 5.39623 49.395 6.11273 43.5366C6.82923 37.6782 7.16967 32.8451 7.8381 28.5003C8.50653 24.1555 9.88359 19.0711 11.4727 17.3042C12.5429 16.1141 17.0299 12.5164 21.344 10.038C22.1337 9.08055 23.0822 8.07346 23.5044 8.07346C24.0553 8.07346 24.2165 8.45017 24.4078 9.13836C26.3608 8.66897 28.7693 8.46641 31.3636 8.46641C33.9734 8.46641 36.4327 8.67141 38.3919 9.14683C38.5843 8.45312 38.7445 8.07324 39.2977 8.07324C39.7204 8.07324 40.6708 9.08285 41.4611 10.0413C45.7734 12.5197 50.2453 15.9119 51.9871 18.3857C53.729 20.8596 54.2927 24.1555 54.9611 28.5003C55.6296 32.8451 55.97 37.6782 56.6865 43.5366C57.403 49.395 57.7992 61.2 57.7992 62.1C57.7992 63 57.4994 63.6 56.5994 63.9C55.6994 64.2 50.5994 64.5 49.3994 64.2C49.1261 64.1317 48.9062 64.0359 48.728 63.9172C48.8269 67.4968 48.8019 69.6245 48.7263 70.07C48.5005 71.3998 47.5458 71.6968 46.1004 72.1094C44.655 72.5219 38.5535 74.1002 31.4023 74.1002Z" fill="#E3E0D3"/>
</svg>
