<svg width="64" height="129" viewBox="0 0 64 129" fill="none" xmlns="http://www.w3.org/2000/svg">
<path d="M31.793 74.1001C24.6418 74.1001 18.5403 72.5219 17.0949 72.1094C15.6495 71.6968 14.6948 71.3998 14.469 70.07C14.3934 69.6243 14.3684 67.4953 14.4675 63.9134C14.2882 64.0338 14.0666 64.1309 13.7905 64.1999C12.5905 64.4999 7.49049 64.1999 6.59049 63.8999C5.69049 63.5999 5.39062 62.9999 5.39062 62.0999C5.39062 61.1999 5.78685 49.3949 6.50336 43.5365C7.21986 37.6781 7.5603 32.845 8.22873 28.5002C8.89716 24.1554 10.2742 19.071 11.8633 17.3041C12.6272 16.4547 14.736 14.297 17.6757 12.2771C18.4007 11.7789 19.1833 11.2658 19.9105 10.812C20.6377 10.3582 21.8729 9.74686 22.5659 9.89109C24.7276 8.87897 28.0519 8.46631 31.7547 8.46631C35.4557 8.46631 38.6756 8.97009 40.8375 9.98118C41.5881 9.85608 42.7401 10.6034 43.5402 11.064C44.3404 11.5247 45.2186 12.1466 46.3043 12.8825C47.39 13.6184 51.7672 16.6414 53.0422 19.4858C54.3173 22.3302 54.6833 24.1554 55.3517 28.5002C56.0202 32.845 56.3606 37.6781 57.0771 43.5365C57.7936 49.3949 58.1898 61.1999 58.1898 62.0999C58.1898 62.9999 57.89 63.5999 56.99 63.8999C56.09 64.1999 50.99 64.4999 49.79 64.1999C49.5167 64.1316 49.2968 64.0358 49.1186 63.9171C49.2175 67.4967 49.1926 69.6244 49.1169 70.0699C48.8911 71.3997 47.9365 71.6967 46.4911 72.1093C45.0457 72.5219 38.9442 74.1001 31.793 74.1001Z" fill="#E3E0D3"/>
</svg>
