<svg width="63" height="129" viewBox="0 0 63 129" fill="none" xmlns="http://www.w3.org/2000/svg">
<path d="M16.9194 50.514L16.9045 50.5097C15.9639 50.2412 15.6752 50.0387 15.5677 49.5525C14.9859 56.3417 14.5647 61.6217 14.5014 62.1001C14.3731 63.0702 14.2014 63.9001 13.0014 64.2001C11.8014 64.5001 6.70142 64.2001 5.80142 63.9001C4.90142 63.6001 4.60156 63.0001 4.60156 62.1001C4.60156 61.2001 4.99779 49.3952 5.71429 43.5368C6.43079 37.6784 6.77123 32.8453 7.43966 28.5005C8.10809 24.1557 9.48515 19.0713 11.0742 17.3043C11.8714 16.4179 14.564 14.1958 17.6689 12.0954C17.5978 11.9783 17.5284 11.8606 17.4614 11.743C17.1602 11.2144 16.9103 10.7127 17.6898 10.0678C18.4693 9.42301 18.7065 9.26023 20.0413 8.57626C21.376 7.8923 21.6783 8.63553 22.4773 9.45516C22.5024 9.48096 22.5357 9.51686 22.5763 9.56187C24.7162 8.78857 27.6926 8.46637 30.9645 8.46637C34.2507 8.46637 37.2764 8.79142 39.4183 9.57211C39.4632 9.52224 39.4996 9.48282 39.5267 9.45508C40.3256 8.63546 40.6279 7.89222 41.9627 8.57619C43.2974 9.26015 43.5346 9.42294 44.3141 10.0678C45.0936 10.7126 44.8437 11.2143 44.5425 11.7429C44.4754 11.8608 44.4058 11.9788 44.3345 12.0962C47.4389 14.1964 50.486 16.5769 52.0978 19.1439C53.7097 21.7109 53.8943 24.1557 54.5627 28.5005C55.2311 32.8453 55.5716 37.6784 56.2881 43.5368C57.0046 49.3952 57.4008 61.2001 57.4008 62.1001C57.4008 63.0001 57.1009 63.6001 56.2009 63.9001C55.3009 64.2001 50.2009 64.5001 49.0009 64.2001C47.8009 63.9001 47.6293 63.0702 47.5009 62.1001C47.4377 61.6221 47.0171 56.3504 46.4361 49.5694C46.3256 50.0434 46.0327 50.2443 45.1032 50.5096L45.0882 50.5139C43.619 50.9333 38.1298 52.5002 31.0043 52.5002C23.8776 52.5002 18.3875 50.933 16.9194 50.514Z" fill="#E3E0D3"/>
</svg>
