<svg width="63" height="129" viewBox="0 0 63 129" fill="none" xmlns="http://www.w3.org/2000/svg">
<path d="M31.207 74.1002C24.0559 74.1002 17.9543 72.522 16.5089 72.1095C15.0635 71.6969 14.1089 71.3999 13.8831 70.0701C13.8074 69.6244 13.7825 67.4954 13.8815 63.9135C13.7023 64.0339 13.4806 64.131 13.2045 64.2C12.0045 64.5 6.90455 64.2 6.00455 63.9C5.10455 63.6 4.80469 63 4.80469 62.1C4.80469 61.2 5.20092 49.395 5.91742 43.5366C6.63392 37.6782 6.97436 32.8451 7.64279 28.5003C8.31122 24.1555 9.68828 19.0711 11.2774 17.3042C11.667 16.8709 13.096 15.2098 14.6526 14.1282C16.2091 13.0466 17.771 11.8186 18.7916 11.897C22.5916 10.716 27.7203 10.3159 31.1688 10.3159C34.6233 10.3159 39.803 10.7174 43.6049 11.9032C44.3051 11.8699 45.9952 12.5365 47.9398 14.0616C49.8843 15.5867 52.159 17.7337 52.9538 20.5029C53.7486 23.272 54.0974 24.1555 54.7658 28.5003C55.4342 32.8451 55.7747 37.6782 56.4912 43.5366C57.2077 49.395 57.6039 61.2 57.6039 62.1C57.6039 63 57.3041 63.6 56.404 63.9C55.504 64.2 50.4041 64.5 49.2041 64.2C48.9308 64.1317 48.7109 64.0359 48.5326 63.9172C48.6316 67.4968 48.6066 69.6245 48.531 70.07C48.3052 71.3998 47.3505 71.6968 45.9051 72.1094C44.4597 72.5219 38.3582 74.1002 31.207 74.1002Z" fill="#E3E0D3"/>
</svg>
