<svg width="63" height="129" viewBox="0 0 63 129" fill="none" xmlns="http://www.w3.org/2000/svg">
<path d="M31.206 45.2998C24.0548 45.2998 19.1534 43.7219 17.708 43.3093C16.7741 43.0427 16.4829 42.8412 16.3736 42.3624C15.49 52.2163 14.7886 61.4648 14.7045 62.0998C14.5762 63.0698 14.4045 63.8997 13.2045 64.1998C12.0045 64.4998 6.90455 64.1998 6.00455 63.8997C5.10455 63.5998 4.80469 62.9998 4.80469 62.0998C4.80469 61.1998 5.20092 49.3948 5.91742 43.5364C6.63392 37.678 6.97436 32.8449 7.64279 28.5001C8.31122 24.1553 9.68828 19.0709 11.2774 17.3039C12.503 15.9411 18.2092 11.421 23.0055 9.03991C23.0055 9.03991 23.0832 6.0473 23.1742 4.79961C23.2652 3.55192 23.9055 2.69961 25.4055 2.69961C26.4896 2.69961 29.1406 2.81713 31.2069 2.79736C31.9997 2.78978 32.7064 2.76199 33.2055 2.69961C35.0055 2.47461 36.2055 2.69961 36.2055 2.69961C37.1055 2.69961 38.2782 3.55192 38.3692 4.79961C38.4514 5.92661 38.5228 8.19963 38.5358 8.62883C43.4857 10.8571 49.8307 15.8578 51.1312 17.3039C52.7203 19.0709 54.0974 24.1553 54.7658 28.5001C55.4342 32.8449 55.7747 37.678 56.4912 43.5364C57.2077 49.3948 57.6039 61.1998 57.6039 62.0998C57.6039 62.9998 57.3041 63.5998 56.404 63.8997C55.504 64.1998 50.4041 64.4998 49.2041 64.1998C48.004 63.8997 47.8324 63.0698 47.7041 62.0998C47.6199 61.4634 46.9024 52.3318 46.0162 42.4534C45.8899 42.868 45.5783 43.0603 44.7058 43.3093C43.2604 43.7219 38.3572 45.2998 31.206 45.2998Z" fill="#E3E0D3"/>
</svg>
