<svg width="63" height="129" viewBox="0 0 63 129" fill="none" xmlns="http://www.w3.org/2000/svg">
<path d="M31.0039 74.1002C23.8527 74.1002 17.7512 72.522 16.3058 72.1095C14.8604 71.6969 13.9057 71.3999 13.68 70.0701C13.6043 69.6244 13.5793 67.4954 13.6784 63.9135C13.4992 64.0339 13.2775 64.131 13.0014 64.2C11.8014 64.5 6.70142 64.2 5.80142 63.9C4.90142 63.6 4.60156 63 4.60156 62.1C4.60156 61.2 4.99779 49.395 5.71429 43.5366C6.43079 37.6782 6.77123 32.8451 7.43966 28.5003C8.10809 24.1555 9.48515 19.0711 11.0742 17.3042C11.8714 16.4177 14.564 14.1957 17.6689 12.0953C17.5978 11.9782 17.5284 11.8606 17.4614 11.743C17.1602 11.2144 16.9103 10.7127 17.6898 10.0678C18.4693 9.42301 18.7065 9.26023 20.0413 8.57626C21.376 7.8923 21.6783 8.63553 22.4773 9.45516C22.5024 9.48096 22.5357 9.51686 22.5763 9.56187C24.7162 8.78857 27.6926 8.46637 30.9645 8.46637C34.2507 8.46637 37.2764 8.79142 39.4183 9.57211C39.4632 9.52224 39.4996 9.48282 39.5267 9.45508C40.3256 8.63546 40.6279 7.89222 41.9627 8.57619C43.2974 9.26015 43.5346 9.42294 44.3141 10.0678C45.0936 10.7126 44.8437 11.2143 44.5425 11.7429C44.4754 11.8608 44.4058 11.9787 44.3346 12.096C47.439 14.1962 50.8602 16.5108 52.1289 18.7505C53.3975 20.9901 53.8943 24.1555 54.5627 28.5003C55.2311 32.8451 55.5716 37.6782 56.2881 43.5366C57.0046 49.395 57.4008 61.2 57.4008 62.1C57.4008 63 57.1009 63.6 56.2009 63.9C55.3009 64.2 50.2009 64.5 49.0009 64.2C48.7277 64.1317 48.5078 64.0359 48.3295 63.9172C48.4285 67.4968 48.4035 69.6245 48.3279 70.07C48.1021 71.3998 47.1474 71.6968 45.702 72.1094C44.2566 72.5219 38.1551 74.1002 31.0039 74.1002Z" fill="#E3E0D3"/>
</svg>
