<svg width="63" height="129" viewBox="0 0 63 129" fill="none" xmlns="http://www.w3.org/2000/svg">
<path d="M31.2081 64.4998C24.0569 64.4998 17.9536 62.9219 16.5082 62.5093C15.0628 62.0968 15.1568 61.84 15.0824 60.4699C15.0824 60.4699 14.9007 61.7873 14.7896 62.5093C14.6786 63.2313 14.4045 63.8997 13.2045 64.1998C12.0045 64.4998 6.90455 64.1998 6.00455 63.8997C5.10455 63.5998 4.80469 62.9998 4.80469 62.0998C4.80469 61.1998 5.20092 49.3948 5.91742 43.5364C6.63392 37.678 6.97436 32.8449 7.64279 28.5001C8.31122 24.1553 8.73485 20.4601 11.2774 17.3039C13.8199 14.1477 18.2092 11.421 23.0055 9.03991C23.0055 9.03991 23.0832 6.0473 23.1742 4.79961C23.2652 3.55192 23.9055 2.69961 25.4055 2.69961C26.4896 2.69961 29.1408 2.81713 31.2071 2.79736C31.9998 2.78978 32.7064 2.76199 33.2055 2.69961C35.0055 2.47461 36.2055 2.69961 36.2055 2.69961C37.1055 2.69961 38.2782 3.55192 38.3692 4.79961C38.4514 5.92661 38.5228 8.19965 38.5358 8.62883C43.4857 10.8571 49.5258 15.1522 51.5349 18.3484C53.5439 21.5446 54.0974 24.1553 54.7658 28.5001C55.4342 32.8449 55.7747 37.678 56.4912 43.5364C57.2077 49.3948 57.6039 61.1998 57.6039 62.0998C57.6039 62.9998 57.3041 63.5998 56.404 63.8997C55.504 64.1998 50.4041 64.4998 49.2041 64.1998C48.004 63.8997 47.609 63.0752 47.5423 62.2759C47.4757 61.4765 47.3341 60.4698 47.3341 60.4698C47.2597 61.8399 47.3537 62.0967 45.9083 62.5092C44.4629 62.9218 38.3593 64.4998 31.2081 64.4998Z" fill="#E3E0D3"/>
</svg>
