<svg width="63" height="129" viewBox="0 0 63 129" fill="none" xmlns="http://www.w3.org/2000/svg">
<path d="M31.005 64.5001C23.8538 64.5001 17.7505 62.9222 16.3051 62.5096C14.8597 62.097 14.9537 61.8403 14.8792 60.4702C14.8792 60.4702 14.8778 61.36 14.6723 62.3012C14.4668 63.2423 14.2014 63.9 13.0014 64.2C11.8014 64.5 6.70142 64.2 5.80142 63.9C4.90142 63.6 4.60156 63 4.60156 62.1C4.60156 61.2 4.99779 49.3951 5.71429 43.5367C6.43079 37.6783 6.77123 32.8452 7.43966 28.5004C8.10809 24.1556 8.61389 20.3988 10.4977 17.8494C12.3815 15.3 13.253 14.6877 15.6818 12.9111C18.1107 11.1346 20.9543 9.9155 21.7768 9.89109C23.9386 8.87897 27.2629 8.46631 30.9656 8.46631C34.6666 8.46631 38.0444 8.88756 40.2062 9.89864C40.9358 9.84535 43.3204 11.2797 44.4018 12.097C45.4833 12.9144 50.1225 15.7112 51.9504 18.9861C53.7783 22.2611 53.8943 24.1556 54.5627 28.5004C55.2311 32.8452 55.5716 37.6783 56.2881 43.5367C57.0046 49.3951 57.4008 61.2 57.4008 62.1C57.4008 63 57.1009 63.6 56.2009 63.9C55.3009 64.2 50.2009 64.5 49.0009 64.2C47.8009 63.9 47.4894 63.2492 47.3521 62.3796C47.2149 61.5099 47.131 60.4701 47.131 60.4701C47.0566 61.8402 47.1505 62.097 45.7051 62.5095C44.2597 62.9221 38.1561 64.5001 31.005 64.5001Z" fill="#E3E0D3"/>
</svg>
