<svg width="63" height="129" viewBox="0 0 63 129" fill="none" xmlns="http://www.w3.org/2000/svg">
<path d="M17.3179 50.514L17.3029 50.5097C16.3623 50.2412 16.0736 50.0387 15.9661 49.5525C15.3844 56.3417 14.9632 61.6217 14.8998 62.1001C14.7715 63.0702 14.5999 63.9001 13.3998 64.2001C12.1998 64.5001 7.09986 64.2001 6.19986 63.9001C5.29986 63.6001 5 63.0001 5 62.1001C5 61.2001 5.39623 49.3952 6.11273 43.5368C6.82923 37.6784 7.16967 32.8453 7.8381 28.5005C8.50653 24.1557 9.88359 19.0713 11.4727 17.3043C12.5502 16.1062 16.9719 12.5558 21.3127 10.0759C22.1085 9.10737 23.0767 8.07346 23.5044 8.07346C24.0553 8.07346 24.2165 8.45017 24.4078 9.13836C26.3608 8.66897 28.7693 8.46641 31.3636 8.46641C33.9734 8.46641 36.4327 8.67141 38.3919 9.14683C38.5843 8.45312 38.7445 8.07324 39.2977 8.07324C39.7205 8.07324 40.671 9.08305 41.4614 10.0416C45.7736 12.52 50.2578 15.9119 51.9681 18.6502C53.6784 21.3885 54.2927 24.1557 54.9611 28.5005C55.6296 32.8453 55.97 37.6784 56.6865 43.5368C57.403 49.3952 57.7992 61.2001 57.7992 62.1001C57.7992 63.0001 57.4994 63.6001 56.5994 63.9001C55.6994 64.2001 50.5994 64.5001 49.3994 64.2001C48.1994 63.9001 48.0277 63.0702 47.8994 62.1001C47.8361 61.6221 47.4156 56.3504 46.8345 49.5694C46.7241 50.0434 46.4312 50.2443 45.5016 50.5096L45.4867 50.5139C44.0175 50.9333 38.5283 52.5002 31.4027 52.5002C24.276 52.5002 18.7859 50.933 17.3179 50.514Z" fill="#E3E0D3"/>
</svg>
