<svg width="63" height="129" viewBox="0 0 63 129" fill="none" xmlns="http://www.w3.org/2000/svg">
<path d="M31.4023 74.0998C24.2512 74.0998 18.1497 72.5216 16.7043 72.1091C15.2589 71.6965 14.3042 71.3995 14.0784 70.0697C14.0027 69.624 13.9778 67.495 14.0768 63.9133C13.8976 64.0336 13.676 64.1307 13.3998 64.1998C12.1998 64.4998 7.09986 64.1998 6.19986 63.8997C5.29986 63.5998 5 62.9998 5 62.0998C5 61.1998 5.39623 49.3948 6.11273 43.5364C6.82923 37.678 7.16967 32.8449 7.8381 28.5001C8.50653 24.1553 8.86853 20.2981 11.4727 17.3039C14.0768 14.3097 18.4045 11.421 23.2008 9.03991C23.2008 9.03991 23.2786 6.0473 23.3695 4.79961C23.4605 3.55192 24.1008 2.69961 25.6008 2.69961C26.6849 2.69961 29.336 2.81713 31.4023 2.79736C32.1951 2.78978 32.9017 2.76199 33.4008 2.69961C35.2008 2.47461 36.4008 2.69961 36.4008 2.69961C37.3008 2.69961 38.4735 3.55192 38.5645 4.79961C38.6467 5.92661 38.7181 8.19965 38.7312 8.62883C43.681 10.8571 49.3994 14.3097 51.3265 17.3039C53.2537 20.2981 54.2927 24.1553 54.9611 28.5001C55.6296 32.8449 55.97 37.678 56.6865 43.5364C57.403 49.3948 57.7992 61.1998 57.7992 62.0998C57.7992 62.9998 57.4994 63.5998 56.5994 63.8997C55.6994 64.1998 50.5994 64.4998 49.3994 64.1998C49.1261 64.1314 48.9062 64.0357 48.728 63.917C48.8269 67.4965 48.8019 69.6241 48.7263 70.0696C48.5005 71.3995 47.5458 71.6964 46.1004 72.109C44.655 72.5216 38.5535 74.0998 31.4023 74.0998Z" fill="#E3E0D3"/>
</svg>
