<svg width="64" height="129" viewBox="0 0 64 129" fill="none" xmlns="http://www.w3.org/2000/svg">
<path d="M31.794 64.5001C24.6428 64.5001 18.5396 62.9222 17.0942 62.5096C15.6488 62.097 15.7427 61.8403 15.6683 60.4702C15.6683 60.4702 15.5553 61.796 15.4286 62.5096C15.3019 63.2233 14.9905 63.9 13.7905 64.2C12.5905 64.5 7.49049 64.2 6.59049 63.9C5.69049 63.6 5.39062 63 5.39062 62.1C5.39062 61.2 5.78685 49.3951 6.50336 43.5367C7.21986 37.6783 7.5603 32.8452 8.22873 28.5004C8.89716 24.1556 9.6308 19.9463 11.8633 17.3042C14.0958 14.6621 20.1611 10.6334 21.2698 10.5928C23.4284 9.54695 27.9951 8.46631 31.7537 8.46631C35.5123 8.46631 40.0424 9.56491 42.2011 10.6107C43.2406 10.6309 49.7106 14.5988 51.7172 17.3042C53.7237 20.0096 54.6833 24.1556 55.3517 28.5004C56.0202 32.8452 56.3606 37.6783 57.0771 43.5367C57.7936 49.3951 58.1898 61.2 58.1898 62.1C58.1898 63 57.89 63.6 56.99 63.9C56.09 64.2 50.99 64.5 49.79 64.2C48.59 63.9 48.1796 62.9624 48.0962 62.1C48.0128 61.2377 47.9201 60.4701 47.9201 60.4701C47.8457 61.8402 47.9396 62.097 46.4942 62.5095C45.0488 62.9221 38.9452 64.5001 31.794 64.5001Z" fill="#E3E0D3"/>
</svg>
