<svg width="63" height="129" viewBox="0 0 63 129" fill="none" xmlns="http://www.w3.org/2000/svg">
<path d="M31.4034 64.4997C24.2522 64.4997 18.1489 62.9218 16.7035 62.5092C15.2581 62.0967 15.3521 61.8399 15.2777 60.4698C15.2777 60.4698 15.2777 61.46 15.1232 62.3783C14.9687 63.2965 14.5999 63.8996 13.3998 64.1996C12.1998 64.4996 7.09986 64.1996 6.19986 63.8996C5.29986 63.5996 5 62.9996 5 62.0996C5 61.1996 5.39623 49.3947 6.11273 43.5363C6.82923 37.6779 7.16967 32.8448 7.8381 28.5C8.50653 24.1552 8.63829 21.3165 10.1687 19.1417C11.699 16.967 14.8606 14.3322 15.9645 13.5437C17.0684 12.7552 18.1962 11.9283 18.987 11.8965C22.787 10.7155 27.9156 10.3154 31.3641 10.3154C34.8186 10.3154 39.7923 10.7516 43.5943 11.9373C44.3425 11.8454 46.8965 13.442 48.171 14.4482C49.4455 15.4543 51.8049 17.2726 52.796 19.1227C53.7871 20.9727 54.2927 24.1552 54.9611 28.5C55.6296 32.8448 55.97 37.6779 56.6865 43.5363C57.403 49.3947 57.7992 61.1996 57.7992 62.0996C57.7992 62.9996 57.4994 63.5996 56.5994 63.8996C55.6994 64.1996 50.5994 64.4996 49.3994 64.1996C48.1994 63.8996 47.9299 63.2758 47.761 62.3104C47.592 61.3451 47.5294 60.4697 47.5294 60.4697C47.455 61.8398 47.549 62.0966 46.1036 62.5091C44.6582 62.9217 38.5546 64.4997 31.4034 64.4997Z" fill="#E3E0D3"/>
</svg>
