<svg width="63" height="102" viewBox="0 0 63 102" fill="none" xmlns="http://www.w3.org/2000/svg">
<path d="M14.2369 90.5998C14.2353 84.0079 14.302 65.1964 14.3016 61.1998C14.3012 57.2032 14.2442 26.5382 14.2547 23.9998C14.3165 20.8385 14.6724 17.9643 14.8927 16.1998C15.0701 14.7788 15.2901 13.4094 15.7064 12.8546C16.1227 12.2998 16.9144 12.2998 17.8934 12.2998H21.792H38.3031H41.0031H44.9018C45.8808 12.2998 46.6725 12.2998 47.0888 12.8546C47.5051 13.4094 47.7257 14.7788 47.9031 16.1998C48.1234 17.9643 48.4787 20.8385 48.5405 23.9998C48.551 26.5382 48.5019 57.2032 48.5015 61.1998C48.5011 65.1964 48.5678 84.0079 48.5662 90.5998C49.6463 90.5998 50.0063 91.2351 50.0063 93.141C50.0063 95.0469 49.6463 95.9998 46.7663 95.9998H34.4031C32.9631 95.9998 32.6031 95.3645 32.6031 94.4116V92.188C32.6031 91.3715 32.9837 90.9747 33.5004 90.782C33.3004 76.382 32.6004 41.3998 31.4004 35.9998C30.2004 41.3998 29.5027 76.382 29.3027 90.782C29.8194 90.9747 30.2 91.3715 30.2 92.188V94.4116C30.2 95.3645 29.84 95.9998 28.4 95.9998H16.0369C13.1569 95.9998 12.7969 95.0469 12.7969 93.141C12.7969 91.2351 13.1569 90.5998 14.2369 90.5998Z" fill="#E3E0D3"/>
</svg>
