<svg width="64" height="102" viewBox="0 0 64 102" fill="none" xmlns="http://www.w3.org/2000/svg">
<path d="M13.6621 94.3676C13.8224 93.1931 17.4155 66.4199 16.8155 58.9199C16.2155 51.4199 14.9507 36.5998 14.6499 23.9998C14.7117 20.8385 15.0677 17.9643 15.2879 16.1998C15.4653 14.7788 15.6853 13.4094 16.1016 12.8546C16.5179 12.2998 17.3096 12.2998 18.2886 12.2998H22.1873H38.6983H41.3983H45.297C46.276 12.2998 47.0677 12.2998 47.484 12.8546C47.9003 13.4094 48.121 14.7788 48.2983 16.1998C48.5186 17.9643 48.8739 20.8385 48.9357 23.9998C48.6349 36.5998 47.3877 51.4199 46.7877 58.9199C46.1877 66.4199 49.7807 93.1931 49.941 94.3676C50.1013 95.5421 49.632 96.1563 47.85 96.1563C46.0679 96.1563 38.6425 96.3262 36.562 96.1563C34.4814 95.9865 33.6221 96.0402 33.6232 94.696C33.6244 93.3518 32.994 41.3998 31.794 35.9998C30.594 41.3998 29.9788 93.3518 29.9799 94.696C29.9811 96.0402 29.1217 95.9865 27.0411 96.1563C24.9606 96.3262 17.5352 96.1563 15.7532 96.1563C13.9711 96.1563 13.5019 95.5421 13.6621 94.3676Z" fill="#E3E0D3"/>
</svg>
