<svg width="63" height="102" viewBox="0 0 63 102" fill="none" xmlns="http://www.w3.org/2000/svg">
<path d="M18.0995 90.6731C17.6 84.1731 16.5503 63.2998 15.9503 55.7998C15.3503 48.2998 14.1524 36.5998 13.8516 23.9998C13.9133 20.8385 14.2693 17.9643 14.4896 16.1998C14.667 14.7788 14.887 13.4094 15.3033 12.8546C15.7196 12.2998 16.5113 12.2998 17.4903 12.2998H21.3889H37.9H40.6H44.4987C45.4777 12.2998 46.2693 12.2998 46.6857 12.8546C47.102 13.4094 47.3226 14.7788 47.5 16.1998C47.7203 17.9643 48.0756 20.8385 48.1374 23.9998C47.8365 36.5998 46.6031 53.6998 46.0032 61.1998C45.4032 68.6998 44.4004 84.1731 43.9008 90.6731C44.5641 90.8875 44.8002 91.5977 44.8002 93.141C44.8002 95.0469 44.4402 95.9998 41.5602 95.9998H34.0002C32.5602 95.9998 32.2002 95.3645 32.2002 94.4116V92.188C32.2002 91.3697 32.5825 90.973 33.1008 90.7807C32.9008 76.3807 32.1995 41.3998 30.9995 35.9998C29.7995 41.3998 29.0995 76.3807 28.8995 90.7807C29.4179 90.973 29.8002 91.3697 29.8002 92.188V94.4116C29.8002 95.3645 29.4402 95.9998 28.0002 95.9998H20.4402C17.5602 95.9998 17.2002 95.0469 17.2002 93.141C17.2002 91.5977 17.4362 90.8875 18.0995 90.6731Z" fill="#E3E0D3"/>
</svg>
