<svg width="63" height="102" viewBox="0 0 63 102" fill="none" xmlns="http://www.w3.org/2000/svg">
<path d="M11.7039 90.6125C11.7024 84.0206 12.8308 67.312 12.9012 61.1998C12.9716 55.0876 14.0441 26.5382 14.0546 23.9998C14.1164 20.8385 14.4724 17.9643 14.6926 16.1998C14.87 14.7788 15.09 13.4094 15.5063 12.8546C15.9226 12.2998 16.7143 12.2998 17.6933 12.2998H21.5919H38.103H40.803H44.7017C45.6807 12.2998 46.4724 12.2998 46.8887 12.8546C47.305 13.4094 47.5256 14.7788 47.703 16.1998C47.9233 17.9643 48.2786 20.8385 48.3404 23.9998C48.3509 26.5382 49.4315 55.0876 49.5019 61.1998C49.5724 67.312 50.7064 84.0212 50.7049 90.6131C51.67 90.7131 51.7695 91.3921 51.7695 93.141C51.7695 94.1777 51.8164 95.1441 51.179 95.6168C50.6445 96.0132 49.5792 95.9998 48.0859 95.9998H34.0301C32.3929 95.9998 31.9836 95.3645 31.9836 94.4116V92.188C31.9836 91.56 32.1105 90.9291 32.68 90.7321C32.48 76.3321 32.4008 41.3998 31.2008 35.9998C30.0008 41.3998 29.9231 76.3321 29.7231 90.7321C30.2926 90.9291 30.4195 91.56 30.4195 92.188V94.4116C30.4195 95.3645 30.0102 95.9998 28.3731 95.9998H14.3172C12.8239 95.9998 11.7586 96.0132 11.2242 95.6168C10.5867 95.1441 10.6336 94.1777 10.6336 93.141C10.6336 91.3887 10.7335 90.7104 11.7039 90.6125Z" fill="#E3E0D3"/>
</svg>
