<svg width="63" height="84" viewBox="0 0 63 84" fill="none" xmlns="http://www.w3.org/2000/svg">
<path d="M20.1284 43.1334C20.0186 43.1177 19.9103 43.1009 19.8035 43.0832C16.6721 42.5612 16.3008 39.5924 16.2573 37.2864C15.8206 37.2529 15.3775 37.209 14.9342 37.1565C14.1709 37.0662 13.4068 36.9508 12.6729 36.8205C11.9343 36.6894 11.2264 36.5432 10.5809 36.3922C9.77802 36.2045 9.07162 36.0094 8.52266 35.8271C8.36982 35.7763 8.22918 35.7265 8.10206 35.6782C6.2758 34.9832 5.84635 33.4823 5.8941 32.2823C5.94186 31.0823 6.93722 28.5844 8.10194 24.8999C8.65758 23.1422 9.26543 21.7199 9.99254 20.4411C10.283 19.9302 10.9338 19.061 11.4039 18.691C11.874 18.3209 12.5744 18.1214 13.752 17.9918C14.3653 17.9243 15.0516 17.8989 15.825 17.8989C15.9505 17.8989 16.2216 17.9015 16.6126 17.9059L17.3953 17.915L17.5286 17.9166C18.4378 17.9273 19.642 17.9416 21.0153 17.9552C22.1666 17.9666 23.4366 17.9776 24.7514 17.9856C25.9703 17.9932 27.2276 17.9982 28.4643 17.9989C29.2557 17.9993 30.045 17.9979 30.804 17.9942C31.5629 17.9979 32.3457 17.9993 33.137 17.9989C34.3737 17.9982 35.6312 17.9932 36.8502 17.9856C38.1649 17.9776 39.435 17.9666 40.5862 17.9552C41.9595 17.9416 43.1637 17.9274 44.0729 17.9166L44.0734 17.9166L44.2063 17.915L44.989 17.9059C45.38 17.9015 45.6511 17.8989 45.7766 17.8989C46.55 17.8989 47.2363 17.9243 47.8496 17.9918C49.4443 18.1673 50.5459 18.6277 51.4045 19.6671C52.5934 21.1063 53.4175 22.3871 53.6675 23.089C53.889 23.6537 54.1002 24.2542 54.3043 24.8999C55.469 28.5844 56.4644 31.0823 56.5122 32.2823C56.5599 33.4823 56.1305 34.9832 54.3042 35.6782C54.1771 35.7265 54.0364 35.7763 53.8836 35.8271C53.3346 36.0094 52.6282 36.2045 51.8254 36.3922C51.1856 36.5418 50.4847 36.6868 49.7533 36.817C49.0118 36.949 48.2391 37.0659 47.4674 37.1571C47.0266 37.2092 46.5862 37.2528 46.1521 37.2862C46.1086 39.5922 45.7374 42.5612 42.6059 43.0832C42.4991 43.1009 42.3908 43.1177 42.281 43.1334C41.2103 43.2868 40.001 43.3443 38.7691 43.3494C37.5264 43.3546 36.2606 43.3065 35.0911 43.2498C33.5301 43.1741 32.1405 43.0832 31.2059 43.0832C30.2712 43.0832 28.8793 43.1741 27.3183 43.2498C26.1488 43.3065 24.883 43.3546 23.6402 43.3494C22.4084 43.3443 21.1991 43.2868 20.1284 43.1334Z" fill="#E3E0D3"/>
</svg>
