<svg width="64" height="84" viewBox="0 0 64 84" fill="none" xmlns="http://www.w3.org/2000/svg">
<path d="M17.5735 49.3408C16.181 48.1665 15.599 46.2608 15.1262 43.7656C14.8682 42.4043 14.8984 39.8278 15.0419 37.0957C14.4415 37.0166 13.8447 36.9232 13.2666 36.8205C12.5281 36.6894 11.8202 36.5432 11.1746 36.3922C10.3718 36.2045 9.66537 36.0094 9.11641 35.8271C8.96357 35.7763 8.82293 35.7265 8.69581 35.6782C6.86955 34.9832 6.4401 33.4823 6.48785 32.2823C6.53561 31.0823 7.53097 28.5844 8.69569 24.8999C9.23067 23.2076 9.81405 21.8262 10.5057 20.5843C10.8193 20.0212 11.3763 19.2849 11.9593 18.7894C12.5422 18.2939 13.1682 18.1214 14.3457 17.9918C14.9591 17.9243 15.6453 17.8989 16.4188 17.8989C16.5442 17.8989 16.8154 17.9015 17.2063 17.9059L17.989 17.915L18.1223 17.9166C19.0316 17.9273 20.2358 17.9416 21.6091 17.9552C22.7603 17.9666 24.0304 17.9776 25.3452 17.9856C26.564 17.9932 27.8214 17.9982 29.058 17.9989C29.8494 17.9993 30.6388 17.9979 31.3978 17.9942C32.1566 17.9979 32.9395 17.9993 33.7307 17.9989C34.9675 17.9982 36.2249 17.9932 37.4439 17.9856C38.7587 17.9776 40.0288 17.9666 41.18 17.9552C42.5533 17.9416 43.7574 17.9274 44.6667 17.9166L44.6672 17.9166L44.8001 17.915L45.5827 17.9059C45.9737 17.9015 46.2449 17.8989 46.3703 17.8989C47.1438 17.8989 47.83 17.9243 48.4433 17.9918C50.0381 18.1673 51.1396 18.6277 51.9983 19.6671C53.1871 21.1063 54.0113 22.3871 54.2612 23.089C54.4828 23.6537 54.6939 24.2542 54.8981 24.8999C56.0628 28.5844 57.0581 31.0823 57.1059 32.2823C57.1537 33.4823 56.7242 34.9832 54.8979 35.6782C54.7708 35.7265 54.6302 35.7763 54.4773 35.8271C53.9284 36.0094 53.222 36.2045 52.4191 36.3922C51.7794 36.5418 51.0784 36.6868 50.3471 36.817C49.7638 36.9209 49.1612 37.0153 48.555 37.0953C48.6984 39.8276 48.7287 42.4042 48.4707 43.7656C47.9978 46.2608 47.4159 48.1665 46.0233 49.3408C45.3194 49.9344 44.4085 50.341 43.1998 50.5425C43.093 50.5603 42.9847 50.577 42.8749 50.5927C41.8109 50.7452 40.6099 50.8029 39.386 50.8087C38.1594 50.8144 36.9097 50.768 35.7516 50.7124C34.1635 50.6361 32.745 50.5425 31.7971 50.5425C30.8625 50.5425 29.4729 50.6335 27.9119 50.7092C26.7424 50.7659 25.4766 50.8139 24.2338 50.8088C23.002 50.8036 21.7927 50.7461 20.722 50.5927C20.6122 50.577 20.5039 50.5603 20.3971 50.5425C19.1884 50.341 18.2774 49.9344 17.5735 49.3408Z" fill="#E3E0D3"/>
</svg>
