<svg width="64" height="84" viewBox="0 0 64 84" fill="none" xmlns="http://www.w3.org/2000/svg">
<path d="M20.5987 50.5426C19.39 50.3412 18.479 49.9345 17.7751 49.341C17.6075 49.1996 17.4516 49.0477 17.3063 48.8854C16.4561 55.5871 15.9047 60.2362 15.6305 61.1691C15.1124 62.9319 14.6956 63.8682 13.4956 64.1682C13.303 64.2163 13.0307 64.241 12.7055 64.2472C12.0637 64.2596 11.2158 64.2002 10.368 64.1079C9.61355 64.0257 8.8592 63.9176 8.25026 63.8107C7.72906 63.7193 7.31437 63.6288 7.09733 63.5565C6.84616 63.4727 6.52499 63.3708 6.19247 63.2156C5.33349 62.8145 4.3987 62.0573 4.3987 60.3373C4.3987 57.9513 4.39812 54.9817 4.3987 51.2371C4.39927 47.4925 4.76145 42.4386 5.75103 36.4157C6.74061 30.3927 7.36072 27.686 9.53848 23.1197C11.7162 18.5534 12.4992 17.1001 16.3992 13.5001C17.8954 12.1191 19.3915 11.0912 20.8707 10.315C21.2445 10.1188 21.3945 10.0208 21.7809 9.89109C22.1673 9.76141 22.5196 9.81005 22.7729 9.89109C24.9347 8.87897 28.259 8.46631 31.9617 8.46631C35.6732 8.46631 39.042 8.88093 41.2034 9.89829C41.4631 9.81246 41.7828 9.84361 42.0486 9.89829C42.3144 9.95296 42.6382 10.064 42.9546 10.226C44.4896 11.0122 46.0436 12.0656 47.5976 13.5001C51.4976 17.1001 52.2806 18.5534 54.4584 23.1197C56.6362 27.686 57.2563 30.3927 58.2458 36.4157C59.2354 42.4386 59.5976 47.4925 59.5982 51.2371C59.5988 54.9817 59.5982 57.9513 59.5982 60.3373C59.5982 62.0573 58.6634 62.8145 57.8044 63.2156C57.4719 63.3708 57.1507 63.4727 56.8995 63.5565C56.6825 63.6288 56.2678 63.7193 55.7466 63.8107C55.1377 63.9176 54.3833 64.0257 53.6289 64.1079C52.8168 64.1963 52.0046 64.2545 51.3735 64.2484C51.0119 64.2449 50.7098 64.2203 50.5013 64.1682C49.3013 63.8682 48.8845 62.9319 48.3664 61.1691C48.0922 60.2363 47.5409 55.5885 46.691 48.8885C46.5464 49.0496 46.3914 49.2005 46.2249 49.341C45.521 49.9345 44.61 50.3412 43.4013 50.5426C43.2946 50.5604 43.1862 50.5772 43.0765 50.5929C42.0124 50.7453 40.8115 50.8031 39.5876 50.8088C38.3609 50.8146 37.1112 50.7682 35.9531 50.7125C34.365 50.6362 32.9492 50.5426 32.0013 50.5426C31.0667 50.5426 29.6745 50.6336 28.1134 50.7093C26.9439 50.766 25.6782 50.8141 24.4354 50.8089C23.2035 50.8038 21.9942 50.7463 20.9235 50.5929C20.8138 50.5772 20.7054 50.5604 20.5987 50.5426Z" fill="#E3E0D3"/>
</svg>
