<svg width="63" height="84" viewBox="0 0 63 84" fill="none" xmlns="http://www.w3.org/2000/svg">
<path d="M14.201 65.9999C13.7928 63.5958 13.7609 60.5999 13.7609 55.9652C13.7609 52.8931 14.5466 44.6982 14.9459 37.1813C14.8743 37.1732 14.8027 37.165 14.731 37.1565C13.9678 37.0662 13.2036 36.9508 12.4698 36.8205C11.7312 36.6894 11.0233 36.5432 10.3777 36.3922C9.57489 36.2045 8.86849 36.0094 8.31953 35.8271C8.16669 35.7763 8.02605 35.7265 7.89894 35.6782C6.07268 34.9832 5.64322 33.4823 5.69098 32.2823C5.73873 31.0823 6.73409 28.5844 7.89882 24.8999C8.43379 23.2076 9.01717 21.8262 9.7088 20.5843C10.0225 20.0212 10.4923 19.3215 11.0626 18.8203C11.6329 18.3191 12.3713 18.1214 13.5489 17.9918C14.1622 17.9243 14.8484 17.8989 15.6219 17.8989C15.7473 17.8989 16.0185 17.9015 16.4094 17.9059L17.1921 17.915L17.3254 17.9166C18.2347 17.9273 19.4389 17.9416 20.8122 17.9552C21.9634 17.9666 23.2335 17.9776 24.5483 17.9856C25.7672 17.9932 27.0245 17.9982 28.2612 17.9989C29.0525 17.9993 29.8419 17.9979 30.6009 17.9942C31.3598 17.9979 32.1426 17.9993 32.9338 17.9989C34.1706 17.9982 35.428 17.9932 36.647 17.9856C37.9618 17.9776 39.2319 17.9666 40.3831 17.9552C41.7564 17.9416 42.9605 17.9274 43.8698 17.9166L43.8703 17.9166L44.0032 17.915L44.7859 17.9059C45.1768 17.9015 45.448 17.8989 45.5734 17.8989C46.3469 17.8989 47.0331 17.9243 47.6465 17.9918C49.2412 18.1673 50.3427 18.6277 51.2014 19.6671C52.3903 21.1063 52.3462 21.1344 52.7481 21.8127C53.1501 22.491 53.8725 24.1766 54.1012 24.8999C55.2659 28.5844 56.2613 31.0823 56.309 32.2823C56.3568 33.4823 55.9273 34.9832 54.1011 35.6782C53.9739 35.7265 53.8333 35.7763 53.6805 35.8271C53.1315 36.0094 52.4251 36.2045 51.6223 36.3922C50.9825 36.5418 50.2815 36.6868 49.5502 36.817C48.8087 36.949 48.036 37.0659 47.2642 37.1571C47.1952 37.1652 47.1262 37.1732 47.0573 37.1809C47.4565 44.698 48.2422 52.893 48.2422 55.9652C48.2422 60.5999 48.2103 63.5958 47.8022 65.9999C47.5249 67.6328 46.794 69.5385 45.2257 70.7812C44.4849 71.3683 43.5572 71.8074 42.4021 71.9999C42.2954 72.0177 42.1871 72.0345 42.0773 72.0502C41.0066 72.2036 39.7973 72.2611 38.5654 72.2662C37.3278 72.2714 36.0674 72.2237 34.9019 72.1673C33.335 72.0915 31.9397 71.9999 31.0021 71.9999C30.0675 71.9999 28.6768 72.0909 27.1157 72.1666C25.9462 72.2233 24.6805 72.2714 23.4377 72.2662C22.2058 72.2611 20.9965 72.2036 19.9258 72.0502C19.8161 72.0345 19.7077 72.0177 19.601 71.9999C18.4177 71.8027 17.473 71.3467 16.7233 70.7379C15.1923 69.4944 14.475 67.6139 14.201 65.9999Z" fill="#E3E0D3"/>
</svg>
