<svg width="63" height="84" viewBox="0 0 63 84" fill="none" xmlns="http://www.w3.org/2000/svg">
<path d="M20.1346 43.1336C20.0248 43.1178 19.9165 43.1011 19.8098 43.0833C18.7187 42.9015 17.9627 42.4225 17.4389 41.7781C16.0537 52.1826 15.2045 59.9337 14.8415 61.1691C14.3234 62.9319 13.9065 63.8682 12.7065 64.1682C12.514 64.2163 12.2416 64.241 11.9164 64.2472C11.2746 64.2596 10.4267 64.2002 9.57892 64.1079C8.82449 64.0257 8.07014 63.9176 7.4612 63.8107C6.93999 63.7193 6.52531 63.6288 6.30827 63.5565C6.05709 63.4727 5.73593 63.3708 5.40341 63.2156C4.54443 62.8145 3.60963 62.0573 3.60963 60.3373C3.60963 57.9513 3.60905 54.9817 3.60963 51.2371C3.61021 47.4925 3.97239 42.4386 4.96197 36.4157C5.95155 30.3927 6.57166 27.686 8.74942 23.1197C10.9272 18.5534 11.7102 17.1001 15.6102 13.5001C17.0143 12.204 18.4184 11.219 19.8085 10.4611C20.274 10.2073 20.4974 10.1355 20.8696 9.98663C21.2418 9.83775 21.7305 9.81005 21.9838 9.89109C24.1456 8.87897 27.4699 8.46631 31.1727 8.46631C34.8842 8.46631 38.253 8.88093 40.4143 9.89829C40.6741 9.81246 41.2147 9.84503 41.5642 9.9397C41.9138 10.0344 42.1532 10.2114 42.6229 10.4679C44.0088 11.2249 45.4087 12.2079 46.8086 13.5001C50.7086 17.1001 51.4916 18.5534 53.6693 23.1197C55.8471 27.686 56.4672 30.3927 57.4568 36.4157C58.4464 42.4386 58.8085 47.4925 58.8091 51.2371C58.8097 54.9817 58.8091 57.9513 58.8091 60.3373C58.8091 62.0573 57.8743 62.8145 57.0153 63.2156C56.6828 63.3708 56.3617 63.4727 56.1105 63.5565C55.8934 63.6288 55.4788 63.7193 54.9576 63.8107C54.3486 63.9176 53.5943 64.0257 52.8398 64.1079C52.0277 64.1963 51.2155 64.2545 50.5844 64.2484C50.2229 64.2449 49.9208 64.2203 49.7122 64.1682C48.5122 63.8682 48.0954 62.9319 47.5773 61.1691C47.2143 59.9339 46.3652 52.1842 44.9803 41.7814C44.4566 42.4242 43.7014 42.9018 42.6121 43.0833C42.5054 43.1011 42.397 43.1178 42.2872 43.1336C41.2166 43.2869 40.0073 43.3444 38.7754 43.3496C37.5326 43.3548 36.2669 43.3067 35.0974 43.25C33.5363 43.1743 32.1467 43.0833 31.2121 43.0833C30.2775 43.0833 28.8856 43.1743 27.3245 43.25C26.155 43.3067 24.8893 43.3548 23.6465 43.3496C22.4146 43.3444 21.2053 43.2869 20.1346 43.1336Z" fill="#E3E0D3"/>
</svg>
