<svg width="63" height="84" viewBox="0 0 63 84" fill="none" xmlns="http://www.w3.org/2000/svg">
<path d="M19.9971 62.3242C18.7884 62.1227 17.8774 61.7161 17.1735 61.1225C16.3953 60.4662 15.8702 59.5815 15.4758 58.493C15.2841 59.8817 15.1356 60.8063 15.029 61.1691C14.5109 62.9319 14.094 63.8682 12.894 64.1682C12.7015 64.2163 12.4291 64.241 12.1039 64.2472C11.4621 64.2596 10.6142 64.2002 9.76642 64.1079C9.01199 64.0257 8.25764 63.9176 7.6487 63.8107C7.12749 63.7193 6.71281 63.6288 6.49577 63.5565C6.24459 63.4727 5.92343 63.3708 5.59091 63.2156C4.73193 62.8145 3.79713 62.0573 3.79713 60.3373C3.79713 57.9513 3.79655 54.9817 3.79713 51.2371C3.79771 47.4925 4.15989 42.4386 5.14947 36.4157C6.13905 30.3927 6.75916 27.686 8.93692 23.1197C11.1147 18.5534 11.8977 17.1001 15.7977 13.5001C17.3077 12.1062 18.8178 11.0721 20.3104 10.2934C20.6704 10.1055 21.0595 9.96312 21.3483 9.89109C21.6371 9.81905 21.918 9.81005 22.1713 9.89109C24.3331 8.87897 27.6574 8.46631 31.3602 8.46631C35.0717 8.46631 38.4405 8.88093 40.6018 9.89829C40.8616 9.81246 41.3217 9.77291 41.5767 9.87057C41.8317 9.96823 42.1691 10.1276 42.5522 10.3294C44.0224 11.104 45.5092 12.1276 46.9961 13.5001C50.8961 17.1001 51.6791 18.5534 53.8568 23.1197C56.0346 27.686 56.6547 30.3927 57.6443 36.4157C58.6339 42.4386 58.996 47.4925 58.9966 51.2371C58.9972 54.9817 58.9966 57.9513 58.9966 60.3373C58.9966 62.0573 58.0618 62.8145 57.2028 63.2156C56.8703 63.3708 56.5492 63.4727 56.298 63.5565C56.0809 63.6288 55.6663 63.7193 55.1451 63.8107C54.5361 63.9176 53.7818 64.0257 53.0273 64.1079C52.2152 64.1963 51.403 64.2545 50.7719 64.2484C50.4104 64.2449 50.1083 64.2203 49.8997 64.1682C48.6997 63.8682 48.2829 62.9319 47.7648 61.1691C47.6583 60.8069 47.5101 59.8845 47.3188 58.4993C46.9385 59.5468 46.4367 60.4054 45.704 61.0528C44.9894 61.6843 44.0552 62.1149 42.7998 62.3242C42.693 62.342 42.5847 62.3587 42.4749 62.3744C41.4042 62.5278 40.1949 62.5853 38.963 62.5905C37.7203 62.5956 36.4545 62.5475 35.285 62.4908C33.7239 62.4152 32.3317 62.3242 31.3971 62.3242C30.4625 62.3242 29.0729 62.4152 27.5119 62.4908C26.3424 62.5475 25.0766 62.5956 23.8338 62.5905C22.602 62.5853 21.3927 62.5278 20.322 62.3744C20.2122 62.3587 20.1039 62.342 19.9971 62.3242Z" fill="#E3E0D3"/>
</svg>
