<svg width="63" height="84" viewBox="0 0 63 84" fill="none" xmlns="http://www.w3.org/2000/svg">
<path d="M19.9971 62.324C18.7884 62.1226 17.8774 61.7159 17.1735 61.1224C16.3953 60.4661 15.8702 59.5813 15.4758 58.4929C15.2841 59.8815 15.1356 60.8062 15.029 61.1689C14.5109 62.9318 14.094 63.868 12.894 64.168C12.7015 64.2162 12.4291 64.2408 12.1039 64.2471C11.4621 64.2594 10.6142 64.2 9.76642 64.1077C9.01199 64.0256 8.25764 63.9174 7.6487 63.8106C7.12749 63.7191 6.71281 63.6286 6.49577 63.5563C6.24459 63.4726 5.92343 63.3707 5.59091 63.2154C4.73193 62.8144 3.79713 62.0572 3.79713 60.3371C3.79713 57.9512 3.79655 54.9815 3.79713 51.2369C3.79771 47.4924 4.15989 42.4384 5.14947 36.4155C6.13905 30.3926 6.62261 27.5905 8.80037 23.0243C9.17888 22.2306 9.71061 21.337 10.1102 20.7154C10.5099 20.0937 10.9056 19.4373 11.6039 18.8313C12.3021 18.2253 12.7176 18.127 13.9457 17.9918C14.5591 17.9243 15.2453 17.8989 16.0188 17.8989C16.1442 17.8989 16.4154 17.9015 16.8063 17.9059L17.589 17.915L17.7223 17.9166C18.6316 17.9273 19.8358 17.9416 21.2091 17.9552C22.3603 17.9666 23.6304 17.9776 24.9452 17.9856C26.164 17.9932 27.4214 17.9982 28.658 17.9989C29.4494 17.9993 30.2388 17.9979 30.9978 17.9942C31.7566 17.9979 32.5395 17.9993 33.3307 17.9989C34.5675 17.9982 35.8249 17.9932 37.0439 17.9856C38.3587 17.9776 39.6288 17.9666 40.78 17.9552C42.1533 17.9416 43.3574 17.9274 44.2667 17.9166L44.2672 17.9166L44.4001 17.915L45.1827 17.9059C45.5737 17.9015 45.8449 17.8989 45.9703 17.8989C46.7438 17.8989 47.43 17.9243 48.0433 17.9918C49.6381 18.1673 50.1218 18.6448 50.7918 19.1123C51.4618 19.5797 52.3031 20.5999 52.7394 21.2624C53.1757 21.925 53.6802 22.7491 53.8568 23.1196C56.0346 27.6858 56.6547 30.3926 57.6443 36.4155C58.6339 42.4384 58.996 47.4924 58.9966 51.2369C58.9972 54.9815 58.9966 57.9512 58.9966 60.3371C58.9966 62.0572 58.0618 62.8144 57.2028 63.2154C56.8703 63.3707 56.5492 63.4726 56.298 63.5563C56.0809 63.6286 55.6663 63.7191 55.1451 63.8106C54.5361 63.9174 53.7818 64.0256 53.0273 64.1077C52.2152 64.1961 51.403 64.2543 50.7719 64.2483C50.4104 64.2448 50.1083 64.2202 49.8997 64.168C48.6997 63.868 48.2829 62.9318 47.7648 61.1689C47.6583 60.8067 47.5101 59.8843 47.3188 58.4991C46.9385 59.5467 46.4367 60.4052 45.704 61.0527C44.9894 61.6841 44.0552 62.1148 42.7998 62.324C42.693 62.3418 42.5847 62.3585 42.4749 62.3743C41.4042 62.5277 40.1949 62.5852 38.963 62.5903C37.7203 62.5955 36.4545 62.5474 35.285 62.4907C33.7239 62.415 32.3317 62.324 31.3971 62.324C30.4625 62.324 29.0729 62.415 27.5119 62.4907C26.3424 62.5474 25.0766 62.5955 23.8338 62.5903C22.602 62.5852 21.3927 62.5277 20.322 62.3743C20.2122 62.3585 20.1039 62.3418 19.9971 62.324Z" fill="#E3E0D3"/>
</svg>
