<svg width="63" height="84" viewBox="0 0 63 84" fill="none" xmlns="http://www.w3.org/2000/svg">
<path d="M16.7296 70.7379C15.1985 69.4944 14.4812 67.6139 14.2072 65.9999C14.0594 65.1294 13.961 64.1812 13.8955 63.1058C13.5659 63.6627 13.1474 64.007 12.5034 64.168C12.3108 64.2162 12.0385 64.2408 11.7133 64.2471C11.0715 64.2594 10.2236 64.2 9.3758 64.1077C8.62136 64.0256 7.86702 63.9174 7.25807 63.8106C6.73687 63.7191 6.32219 63.6286 6.10514 63.5563C5.85397 63.4726 5.53281 63.3707 5.20028 63.2154C4.3413 62.8144 3.40651 62.0572 3.40651 60.3371C3.40651 57.9512 3.40593 54.9815 3.40651 51.2369C3.40709 47.4924 3.76927 42.4384 4.75884 36.4155C5.74842 30.3926 6.36853 27.6858 8.54629 23.1196C8.95335 22.2661 9.31168 21.5213 9.65075 20.851C9.98783 20.1845 10.9374 19.1452 11.4145 18.8271C11.8916 18.509 12.3269 18.127 13.5551 17.9918C14.1684 17.9243 14.8547 17.8989 15.6281 17.8989C15.7536 17.8989 16.0247 17.9015 16.4157 17.9059L17.1984 17.915L17.3317 17.9166C18.2409 17.9273 19.4451 17.9416 20.8184 17.9552C21.9697 17.9666 23.2398 17.9776 24.5545 17.9856C25.7734 17.9932 27.0307 17.9982 28.2674 17.9989C29.0588 17.9993 29.8481 17.9979 30.6071 17.9942C31.366 17.9979 32.1488 17.9993 32.9401 17.9989C34.1769 17.9982 35.4343 17.9932 36.6533 17.9856C37.9681 17.9776 39.2381 17.9666 40.3894 17.9552C41.7626 17.9416 42.9668 17.9274 43.8761 17.9166L43.8765 17.9166L44.0094 17.915L44.7921 17.9059C45.1831 17.9015 45.4542 17.8989 45.5797 17.8989C46.3531 17.8989 47.0394 17.9243 47.6527 17.9918C49.2475 18.1673 50.349 18.6277 51.2076 19.6671C51.9517 20.5678 52.1171 20.8246 52.4417 21.3019C52.7662 21.7792 53.2919 22.754 53.4662 23.1196C55.644 27.6858 56.2641 30.3926 57.2537 36.4155C58.2432 42.4384 58.6054 47.4924 58.606 51.2369C58.6066 54.9815 58.606 57.9512 58.606 60.3371C58.606 62.0572 57.6712 62.8144 56.8122 63.2154C56.4797 63.3707 56.1585 63.4726 55.9074 63.5563C55.6903 63.6286 55.2756 63.7191 54.7544 63.8106C54.1455 63.9174 53.3911 64.0256 52.6367 64.1077C51.8246 64.1961 51.0124 64.2543 50.3813 64.2483C50.0198 64.2448 49.7177 64.2202 49.5091 64.168C48.8669 64.0075 48.449 63.6647 48.1199 63.1105C48.0544 64.184 47.956 65.1307 47.8084 65.9999C47.5312 67.6328 46.8002 69.5385 45.232 70.7812C44.4911 71.3683 43.5634 71.8074 42.4084 71.9999C42.3017 72.0177 42.1933 72.0345 42.0835 72.0502C41.0128 72.2036 39.8035 72.2611 38.5717 72.2662C37.334 72.2714 36.0736 72.2237 34.9082 72.1673C33.3412 72.0915 31.9459 71.9999 31.0084 71.9999C30.0738 71.9999 28.683 72.0909 27.122 72.1666C25.9525 72.2233 24.6867 72.2714 23.4439 72.2662C22.2121 72.2611 21.0028 72.2036 19.9321 72.0502C19.8223 72.0345 19.714 72.0177 19.6072 71.9999C18.4239 71.8027 17.4792 71.3467 16.7296 70.7379Z" fill="#E3E0D3"/>
</svg>
