<svg width="64" height="84" viewBox="0 0 64 84" fill="none" xmlns="http://www.w3.org/2000/svg">
<path d="M20.7221 43.1335C20.6123 43.1177 20.504 43.101 20.3973 43.0832C17.2658 42.5613 16.8945 39.5924 16.851 37.2865C16.4143 37.253 15.9713 37.209 15.5279 37.1566L13.2666 36.8206C12.5281 36.6895 11.8202 36.5432 11.1746 36.3923C10.3718 36.2045 9.66537 36.0095 9.11641 35.8272C8.96357 35.7764 8.82293 35.7266 8.69581 35.6782C6.86955 34.9833 6.4401 33.4823 6.48785 32.2823C6.53561 31.0823 7.53097 28.5845 8.69569 24.9C9.86041 21.2155 11.2546 19.0047 13.4957 16.5C14.6872 15.1683 15.8295 14.0495 16.9419 13.1053C17.55 12.5892 18.0165 12.2834 18.3808 12.0894C18.7451 11.8954 19.1962 11.8017 19.3865 11.8954C23.1916 10.7153 28.351 10.3154 31.7985 10.3154C35.2527 10.3154 40.3927 10.7168 44.1946 11.9024C44.1946 11.9024 44.6603 11.649 45.5754 12.2971C46.4905 12.9453 47.5572 13.8794 48.0994 14.4022C48.6416 14.925 49.0672 15.3478 50.0981 16.5C52.3392 19.0047 53.7333 21.2155 54.8981 24.9C56.0628 28.5845 57.0581 31.0823 57.1059 32.2823C57.1537 33.4823 56.7242 34.9833 54.8979 35.6782C54.7708 35.7266 54.6302 35.7764 54.4773 35.8272C53.9284 36.0095 53.222 36.2045 52.4191 36.3923C51.7794 36.5419 51.0784 36.6868 50.3471 36.8171C49.6056 36.9491 48.8329 37.066 48.0611 37.1571C47.6204 37.2092 47.18 37.2529 46.7458 37.2863C46.7024 39.5922 46.3312 42.5613 43.1996 43.0832C43.0929 43.101 42.9845 43.1177 42.8747 43.1335C41.8041 43.2868 40.5948 43.3443 39.3629 43.3495C38.1201 43.3547 36.8544 43.3066 35.6849 43.2499C34.1238 43.1742 32.7342 43.0832 31.7996 43.0832C30.865 43.0832 29.4731 43.1742 27.912 43.2499C26.7425 43.3066 25.4768 43.3547 24.234 43.3495C23.0021 43.3443 21.7928 43.2868 20.7221 43.1335Z" fill="#E3E0D3"/>
</svg>
