<svg width="63" height="84" viewBox="0 0 63 84" fill="none" xmlns="http://www.w3.org/2000/svg">
<path d="M19.8096 50.5425C18.6009 50.3411 17.6899 49.9344 16.986 49.3409C16.8184 49.1996 16.6626 49.0476 16.5172 48.8853C15.6671 55.587 15.1157 60.2361 14.8415 61.169C14.3234 62.9318 13.9065 63.8681 12.7065 64.1681C12.514 64.2162 12.2416 64.2409 11.9164 64.2471C11.2746 64.2595 10.4267 64.2001 9.57892 64.1078C8.82449 64.0257 8.07014 63.9175 7.4612 63.8106C6.93999 63.7192 6.52531 63.6287 6.30827 63.5564C6.05709 63.4726 5.73593 63.3707 5.40341 63.2155C4.54443 62.8144 3.60963 62.0572 3.60963 60.3372C3.60963 57.9512 3.60905 54.9816 3.60963 51.237C3.61021 47.4924 3.97239 42.4385 4.96197 36.4156C5.95155 30.3927 6.57166 27.6859 8.74942 23.1196C10.9272 18.5534 11.7102 17.1 15.6102 13.5C15.9418 13.1939 16.2734 12.9051 16.6049 12.6326C17.0086 12.3007 17.4241 12.0569 17.7092 11.958C17.9943 11.8591 18.4803 11.7752 18.7948 11.8965C22.5949 10.7155 27.7625 10.3154 31.211 10.3154C34.6658 10.3154 39.8068 10.717 43.6089 11.903C43.9279 11.7776 44.4154 11.7918 44.7115 11.903C45.0076 12.0141 45.3533 12.2574 45.7285 12.5627C46.0884 12.8556 46.4485 13.1676 46.8086 13.5C50.7086 17.1 51.4916 18.5534 53.6693 23.1196C55.8471 27.6859 56.4672 30.3927 57.4568 36.4156C58.4464 42.4385 58.8085 47.4924 58.8091 51.237C58.8097 54.9816 58.8091 57.9512 58.8091 60.3372C58.8091 62.0572 57.8743 62.8144 57.0153 63.2155C56.6828 63.3707 56.3617 63.4726 56.1105 63.5564C55.8934 63.6287 55.4788 63.7192 54.9576 63.8106C54.3486 63.9175 53.5943 64.0256 52.8398 64.1078C52.0277 64.1962 51.2155 64.2544 50.5844 64.2483C50.2229 64.2448 49.9208 64.2202 49.7122 64.1681C48.5122 63.8681 48.0954 62.9318 47.5773 61.169C47.3031 60.2362 46.7518 55.5884 45.9019 48.8884C45.7573 49.0495 45.6024 49.2004 45.4358 49.3409C44.7319 49.9344 43.821 50.3411 42.6123 50.5425C42.5055 50.5603 42.3972 50.5771 42.2874 50.5928C41.2234 50.7452 40.0224 50.803 38.7985 50.8087C37.5719 50.8145 36.3222 50.7681 35.1641 50.7124C33.576 50.6361 32.1575 50.5425 31.2096 50.5425C30.275 50.5425 28.8854 50.6335 27.3244 50.7092C26.1549 50.7659 24.8891 50.814 23.6463 50.8088C22.4145 50.8037 21.2052 50.7462 20.1345 50.5928C20.0247 50.5771 19.9164 50.5603 19.8096 50.5425Z" fill="#E3E0D3"/>
</svg>
