<svg width="63" height="84" viewBox="0 0 63 84" fill="none" xmlns="http://www.w3.org/2000/svg">
<path d="M20.1284 43.1336C20.0186 43.1178 19.9103 43.1011 19.8035 43.0833C16.6721 42.5614 16.3008 39.5925 16.2573 37.2866C15.8206 37.2531 15.3775 37.2091 14.9342 37.1567C14.1709 37.0664 13.4068 36.951 12.6729 36.8207C11.9343 36.6896 11.2264 36.5433 10.5809 36.3924C9.77802 36.2046 9.07162 36.0096 8.52266 35.8272C8.36982 35.7765 8.22918 35.7267 8.10206 35.6783C6.2758 34.9834 5.84635 33.4824 5.8941 32.2824C5.94186 31.0824 6.93722 28.5846 8.10194 24.9001C9.26666 21.2156 10.6608 19.0048 12.9019 16.5001C15.5347 13.5575 17.9277 11.6543 20.2872 10.3778C20.6829 10.1637 20.9245 10.0562 21.1953 9.94141C21.4662 9.82663 21.8126 9.83832 21.9776 9.89109C24.1394 8.87897 27.4637 8.46631 31.1664 8.46631C34.8779 8.46631 38.2467 8.88093 40.4081 9.89829C40.5797 9.84158 41.0488 9.8598 41.4179 10.0245C41.7694 10.1813 41.8574 10.2303 42.2685 10.4593L42.3327 10.495C44.6232 11.7701 46.951 13.6463 49.5043 16.5001C51.7454 19.0048 53.1396 21.2156 54.3043 24.9001C55.469 28.5846 56.4644 31.0824 56.5122 32.2824C56.5599 33.4824 56.1305 34.9834 54.3042 35.6783C54.1771 35.7267 54.0364 35.7765 53.8836 35.8272C53.3346 36.0096 52.6282 36.2046 51.8254 36.3924C51.1856 36.542 50.4847 36.6869 49.7533 36.8172C49.0118 36.9492 48.2391 37.0661 47.4674 37.1572C47.0266 37.2093 46.5862 37.253 46.1521 37.2863C46.1086 39.5923 45.7374 42.5614 42.6059 43.0833C42.4991 43.1011 42.3908 43.1178 42.281 43.1336C41.2103 43.2869 40.001 43.3444 38.7691 43.3496C37.5264 43.3548 36.2606 43.3067 35.0911 43.25C33.5301 43.1743 32.101 43.0833 31.1664 43.0833C30.2318 43.0833 28.8793 43.1743 27.3183 43.25C26.1488 43.3067 24.883 43.3548 23.6402 43.3496C22.4084 43.3444 21.1991 43.2869 20.1284 43.1336Z" fill="#E3E0D3"/>
</svg>
