<svg width="63" height="84" viewBox="0 0 63 84" fill="none" xmlns="http://www.w3.org/2000/svg">
<path d="M14.6072 66C14.199 63.5958 14.1672 60.6 14.1672 55.9652C14.1672 52.8932 14.9528 44.6983 15.3521 37.1813C15.2805 37.1733 15.2089 37.1651 15.1373 37.1566L12.876 36.8206C12.1375 36.6895 11.4295 36.5432 10.784 36.3923C9.98114 36.2045 9.27474 36.0095 8.72578 35.8272C8.57294 35.7764 8.4323 35.7266 8.30519 35.6782C6.47893 34.9833 6.04947 33.4823 6.09723 32.2823C6.14498 31.0823 7.14034 28.5845 8.30507 24.9C9.46979 21.2155 10.8639 19.0047 13.105 16.5C14.4476 14.9995 15.7277 13.7693 16.9729 12.7546C17.4265 12.385 17.5966 12.2102 17.9918 12.0126C18.3871 11.815 18.7742 11.8126 18.9917 11.8965C22.7917 10.7155 27.9594 10.3154 31.4079 10.3154C34.8626 10.3154 40.0037 10.717 43.8057 11.903C44.0281 11.8156 44.4504 11.7885 44.8066 11.9792C45.1627 12.17 45.3754 12.3769 45.8233 12.7414C47.0736 13.7586 48.3591 14.993 49.7075 16.5C51.9486 19.0047 53.3427 21.2155 54.5074 24.9C55.6722 28.5845 56.6675 31.0823 56.7153 32.2823C56.763 33.4823 56.3336 34.9833 54.5073 35.6782C54.3802 35.7266 54.2396 35.7764 54.0867 35.8272C53.5378 36.0095 52.8314 36.2045 52.0285 36.3923C51.3888 36.5419 50.6878 36.6868 49.9564 36.8171C49.2149 36.9491 48.4422 37.066 47.6705 37.1571C47.6015 37.1653 47.5325 37.1732 47.4635 37.181C47.8628 44.698 48.6484 52.8931 48.6484 55.9652C48.6484 60.6 48.6166 63.5958 48.2084 66C47.9312 67.6328 47.2002 69.5386 45.632 70.7813C44.8911 71.3684 43.9634 71.8075 42.8084 72C42.7017 72.0178 42.5933 72.0345 42.4835 72.0503C41.4128 72.2036 40.2035 72.2611 38.9717 72.2663C37.734 72.2715 36.4736 72.2238 35.3082 72.1674C33.7412 72.0916 32.3459 72 31.4084 72C30.4738 72 29.083 72.091 27.522 72.1667C26.3525 72.2234 25.0867 72.2715 23.8439 72.2663C22.6121 72.2611 21.4028 72.2036 20.3321 72.0503C20.2223 72.0345 20.114 72.0178 20.0072 72C18.8239 71.8028 17.8792 71.3467 17.1296 70.7379C15.5985 69.4945 14.8812 67.6139 14.6072 66Z" fill="#E3E0D3"/>
</svg>
