<svg width="64" height="84" viewBox="0 0 64 84" fill="none" xmlns="http://www.w3.org/2000/svg">
<path d="M20.3956 50.5425C19.1869 50.341 18.2759 49.9344 17.572 49.3408C17.4044 49.1995 17.2485 49.0476 17.1032 48.8853C16.253 55.5869 15.7016 60.236 15.4274 61.1689C14.9093 62.9318 14.4925 63.868 13.2924 64.168C13.0999 64.2162 12.8276 64.2408 12.5023 64.2471C11.8605 64.2594 11.0126 64.2 10.1649 64.1077C9.41042 64.0256 8.65608 63.9174 8.04713 63.8106C7.52593 63.7191 7.11125 63.6286 6.8942 63.5563C6.64303 63.4726 6.32187 63.3707 5.98934 63.2154C5.13037 62.8144 4.19557 62.0572 4.19557 60.3371C4.19557 57.9512 4.19499 54.9815 4.19557 51.2369C4.19615 47.4924 4.55833 42.4384 5.54791 36.4155C6.53749 30.3926 7.15759 27.6858 9.33536 23.1196C9.68587 22.3846 10.0003 21.7303 10.2973 21.1347C10.6882 20.351 11.4161 19.3953 12.0363 18.9351L12.053 18.9227C12.6649 18.4687 13.127 18.1258 14.3442 17.9918C14.9575 17.9243 15.6438 17.8989 16.4172 17.8989C16.5426 17.8989 16.8138 17.9015 17.2048 17.9059L17.9874 17.915L18.1207 17.9166C19.03 17.9273 20.2342 17.9416 21.6075 17.9552C22.7587 17.9666 24.0288 17.9776 25.3436 17.9856C26.5625 17.9932 27.8198 17.9982 29.0565 17.9989C29.8478 17.9993 30.6372 17.9979 31.3962 17.9942C32.1551 17.9979 32.9379 17.9993 33.7291 17.9989C34.9659 17.9982 36.2234 17.9932 37.4423 17.9856C38.7571 17.9776 40.0272 17.9666 41.1784 17.9552C42.5517 17.9416 43.7559 17.9274 44.6651 17.9166L44.6656 17.9166L44.7985 17.915L45.5812 17.9059C45.9721 17.9015 46.2433 17.8989 46.3687 17.8989C47.1422 17.8989 47.8284 17.9243 48.4418 17.9918C50.0365 18.1673 51.1381 18.6277 51.9967 19.6671C53.1856 21.1063 54.0054 22.4177 54.2553 23.1196C56.433 27.6858 57.0531 30.3926 58.0427 36.4155C59.0323 42.4384 59.3945 47.4924 59.3951 51.2369C59.3956 54.9815 59.3951 57.9512 59.3951 60.3371C59.3951 62.0572 58.4603 62.8144 57.6013 63.2154C57.2688 63.3707 56.9476 63.4726 56.6964 63.5563C56.4794 63.6286 56.0647 63.7191 55.5435 63.8106C54.9346 63.9174 54.1802 64.0256 53.4258 64.1077C52.6137 64.1961 51.8014 64.2543 51.1704 64.2483C50.8088 64.2448 50.5067 64.2202 50.2982 64.168C49.0982 63.868 48.6813 62.9318 48.1632 61.1689C47.8891 60.2361 47.3378 55.5883 46.4878 48.8883C46.3433 49.0495 46.1883 49.2004 46.0218 49.3408C45.3179 49.9344 44.4069 50.341 43.1982 50.5425C43.0915 50.5603 42.9831 50.577 42.8733 50.5927C41.8093 50.7452 40.6084 50.8029 39.3844 50.8087C38.1578 50.8144 36.9081 50.768 35.75 50.7124C34.1619 50.6361 32.7434 50.5425 31.7956 50.5425C30.8609 50.5425 29.4714 50.6335 27.9103 50.7092C26.7408 50.7659 25.4751 50.8139 24.2323 50.8088C23.0004 50.8036 21.7911 50.7461 20.7204 50.5927C20.6106 50.577 20.5023 50.5603 20.3956 50.5425Z" fill="#E3E0D3"/>
</svg>
