<svg width="63" height="84" viewBox="0 0 63 84" fill="none" xmlns="http://www.w3.org/2000/svg">
<path d="M20.3315 43.1336C20.2217 43.1178 20.1134 43.1011 20.0066 43.0833C16.8752 42.5614 16.5039 39.5925 16.4604 37.2866C16.0237 37.2531 15.5807 37.2091 15.1373 37.1567L12.876 36.8207C12.1375 36.6896 11.4295 36.5433 10.784 36.3924C9.98114 36.2046 9.27474 36.0096 8.72578 35.8272C8.57294 35.7765 8.4323 35.7267 8.30519 35.6783C6.47893 34.9834 6.04947 33.4824 6.09723 32.2824C6.14498 31.0824 7.14034 28.5846 8.30507 24.9001C9.46979 21.2156 10.8639 19.0048 13.105 16.5001C15.2115 14.1458 17.1644 12.4569 19.0695 11.2219C19.4209 10.9941 19.7905 10.7972 20.0709 10.6786C20.3514 10.5599 20.6912 10.5621 20.9618 10.6037C23.1204 9.55788 27.6099 8.46631 31.3685 8.46631C35.1272 8.46631 39.3682 9.62662 41.5268 10.6724C41.896 10.5766 42.5917 10.6177 42.9622 10.803C43.3327 10.9882 43.6388 11.1458 44.1169 11.4697C45.9038 12.6803 47.7386 14.2996 49.7075 16.5001C51.9486 19.0048 53.3427 21.2156 54.5074 24.9001C55.6722 28.5846 56.6675 31.0824 56.7153 32.2824C56.763 33.4824 56.3336 34.9834 54.5073 35.6783C54.3802 35.7267 54.2396 35.7765 54.0867 35.8272C53.5378 36.0096 52.8314 36.2046 52.0285 36.3924C51.3888 36.542 50.6878 36.6869 49.9564 36.8172C49.2149 36.9492 48.4422 37.0661 47.6705 37.1572C47.2298 37.2093 46.7893 37.253 46.3552 37.2863C46.3117 39.5923 45.9405 42.5614 42.809 43.0833C42.7022 43.1011 42.5939 43.1178 42.4841 43.1336C41.4134 43.2869 40.2041 43.3444 38.9723 43.3496C37.7295 43.3548 36.4637 43.3067 35.2942 43.25C33.7332 43.1743 32.3436 43.0833 31.409 43.0833C30.4744 43.0833 29.0824 43.1743 27.5214 43.25C26.3519 43.3067 25.0861 43.3548 23.8433 43.3496C22.6115 43.3444 21.4022 43.2869 20.3315 43.1336Z" fill="#E3E0D3"/>
</svg>
