<svg width="63" height="84" viewBox="0 0 63 84" fill="none" xmlns="http://www.w3.org/2000/svg">
<path d="M17.1829 49.3409C15.7903 48.1666 15.2084 46.2608 14.7355 43.7657C14.4772 42.4025 14.5079 39.8208 14.6519 37.0845L12.876 36.8206C12.1375 36.6895 11.4295 36.5432 10.784 36.3923C9.98114 36.2045 9.27474 36.0095 8.72578 35.8272C8.57294 35.7764 8.4323 35.7266 8.30519 35.6782C6.47893 34.9833 6.04947 33.4823 6.09723 32.2823C6.14498 31.0823 7.14034 28.5845 8.30507 24.9C9.46979 21.2155 10.8639 19.0047 13.105 16.5C14.3951 15.0582 15.6276 13.8659 16.8268 12.8746C17.3334 12.4558 17.6574 12.2001 18.129 11.9735C18.6006 11.7469 18.9958 11.8954 18.9958 11.8954C22.8009 10.7153 27.9604 10.3154 31.4079 10.3154C34.8621 10.3154 40.0021 10.7168 43.804 11.9024C44.024 11.7917 44.6052 11.7686 45.2204 12.2547C45.8357 12.7408 46.1177 12.9551 46.9719 13.7288C47.8594 14.5327 48.7682 15.4502 49.7075 16.5C51.9486 19.0047 53.3427 21.2155 54.5074 24.9C55.6722 28.5845 56.6675 31.0823 56.7153 32.2823C56.763 33.4823 56.3336 34.9833 54.5073 35.6782C54.3802 35.7266 54.2396 35.7764 54.0867 35.8272C53.5378 36.0095 52.8314 36.2045 52.0285 36.3923C51.3888 36.5419 50.6878 36.6868 49.9564 36.8171C49.3732 36.9209 48.7706 37.0154 48.1643 37.0954C48.3078 39.8276 48.3381 42.4043 48.0801 43.7657C47.6072 46.2608 47.0253 48.1666 45.6327 49.3409C44.9288 49.9344 44.0178 50.3411 42.8091 50.5425C42.7024 50.5603 42.5941 50.5771 42.4843 50.5928C41.4202 50.7452 40.2193 50.803 38.9954 50.8087C37.7687 50.8145 36.519 50.7681 35.3609 50.7124C33.7729 50.6361 32.3544 50.5425 31.4065 50.5425C30.4719 50.5425 29.0823 50.6335 27.5212 50.7092C26.3517 50.7659 25.086 50.814 23.8432 50.8088C22.6113 50.8037 21.402 50.7462 20.3314 50.5928C20.2216 50.5771 20.1132 50.5603 20.0065 50.5425C18.7978 50.3411 17.8868 49.9344 17.1829 49.3409Z" fill="#E3E0D3"/>
</svg>
