<svg width="63" height="84" viewBox="0 0 63 84" fill="none" xmlns="http://www.w3.org/2000/svg">
<path d="M14.4041 66C13.9959 63.5958 13.9641 60.6 13.9641 55.9652C13.9641 52.8932 14.7497 44.6983 15.149 37.1813C15.0774 37.1733 15.0058 37.1651 14.9342 37.1566L12.6729 36.8206C11.9343 36.6895 11.2264 36.5432 10.5809 36.3923C9.77802 36.2045 9.07162 36.0095 8.52266 35.8272C8.36982 35.7764 8.22918 35.7266 8.10206 35.6782C6.2758 34.9833 5.84635 33.4823 5.8941 32.2823C5.94186 31.0823 6.93722 28.5845 8.10194 24.9C9.26666 21.2155 10.6608 19.0047 12.9019 16.5C14.3236 14.9111 15.6753 13.6252 16.9896 12.5774C17.3794 12.2667 17.5743 12.1469 17.9035 11.977C18.2327 11.8071 18.5766 11.789 18.7927 11.8954C22.5978 10.7153 27.7573 10.3154 31.2047 10.3154C34.659 10.3154 39.799 10.7168 43.6008 11.9024C43.8209 11.7917 44.2302 11.8131 44.5658 12.0048C44.9014 12.1966 44.9103 12.1797 45.2403 12.4381C46.61 13.5107 48.019 14.8399 49.5043 16.5C51.7454 19.0047 53.1396 21.2155 54.3043 24.9C55.469 28.5845 56.4644 31.0823 56.5122 32.2823C56.5599 33.4823 56.1305 34.9833 54.3042 35.6782C54.1771 35.7266 54.0364 35.7764 53.8836 35.8272C53.3346 36.0095 52.6282 36.2045 51.8254 36.3923C51.1856 36.5419 50.4847 36.6868 49.7533 36.8171C49.0118 36.9491 48.2391 37.066 47.4674 37.1571C47.3983 37.1653 47.3293 37.1732 47.2604 37.181C47.6596 44.698 48.4453 52.8931 48.4453 55.9652C48.4453 60.6 48.4135 63.5958 48.0053 66C47.728 67.6328 46.9971 69.5386 45.4288 70.7813C44.688 71.3684 43.7603 71.8075 42.6053 72C42.4985 72.0178 42.3902 72.0345 42.2804 72.0503C41.2097 72.2036 40.0004 72.2611 38.7686 72.2663C37.5309 72.2715 36.2705 72.2238 35.105 72.1674C33.5381 72.0916 32.1428 72 31.2053 72C30.2707 72 28.8799 72.091 27.3189 72.1667C26.1494 72.2234 24.8836 72.2715 23.6408 72.2663C22.409 72.2611 21.1997 72.2036 20.129 72.0503C20.0192 72.0345 19.9108 72.0178 19.8041 72C18.6208 71.8028 17.6761 71.3467 16.9264 70.7379C15.3954 69.4945 14.6781 67.6139 14.4041 66Z" fill="#E3E0D3"/>
</svg>
