<svg width="63" height="84" viewBox="0 0 63 84" fill="none" xmlns="http://www.w3.org/2000/svg">
<path d="M16.7296 70.738C15.1985 69.4946 14.4812 67.614 14.2072 66.0001C14.0594 65.1295 13.961 64.1814 13.8955 63.1059C13.5659 63.6629 13.1474 64.0072 12.5034 64.1682C12.3108 64.2163 12.0385 64.241 11.7133 64.2472C11.0715 64.2596 10.2236 64.2002 9.3758 64.1079C8.62136 64.0257 7.86702 63.9176 7.25807 63.8107C6.73687 63.7193 6.32219 63.6288 6.10514 63.5565C5.85397 63.4727 5.53281 63.3708 5.20028 63.2156C4.3413 62.8145 3.40651 62.0573 3.40651 60.3373C3.40651 57.9513 3.40593 54.9817 3.40651 51.2371C3.40709 47.4925 3.76927 42.4386 4.75884 36.4157C5.74842 30.3927 6.36853 27.686 8.54629 23.1197C10.7241 18.5534 11.5071 17.1001 15.4071 13.5001C16.0681 12.8899 16.7292 12.3486 17.3888 11.8676C18.03 11.3999 19.3035 10.5816 19.7688 10.3353C20.2342 10.0889 21.0092 9.64428 21.7807 9.89109C23.9425 8.87897 27.2668 8.46631 30.9695 8.46631C34.681 8.46631 38.0498 8.88093 40.2112 9.89829C40.9887 9.64136 42.5178 10.4821 42.9817 10.7262C43.4456 10.9703 44.4381 11.7155 45.0675 12.2002C45.5797 12.5947 46.0926 13.0267 46.6054 13.5001C50.5055 17.1001 51.2884 18.5534 53.4662 23.1197C55.644 27.686 56.2641 30.3927 57.2537 36.4157C58.2432 42.4386 58.6054 47.4925 58.606 51.2371C58.6066 54.9817 58.606 57.9513 58.606 60.3373C58.606 62.0573 57.6712 62.8145 56.8122 63.2156C56.4797 63.3708 56.1585 63.4727 55.9074 63.5565C55.6903 63.6288 55.2756 63.7193 54.7544 63.8107C54.1455 63.9176 53.3911 64.0257 52.6367 64.1079C51.8246 64.1963 51.0124 64.2545 50.3813 64.2484C50.0198 64.2449 49.7177 64.2203 49.5091 64.1682C48.8669 64.0076 48.449 63.6649 48.1199 63.1107C48.0544 64.1842 47.956 65.1308 47.8084 66.0001C47.5312 67.6329 46.8002 69.5387 45.232 70.7814C44.4911 71.3685 43.5634 71.8076 42.4084 72.0001C42.3017 72.0179 42.1933 72.0346 42.0835 72.0504C41.0128 72.2037 39.8035 72.2612 38.5717 72.2664C37.334 72.2715 36.0736 72.2239 34.9082 72.1675C33.3412 72.0917 31.9459 72.0001 31.0084 72.0001C30.0738 72.0001 28.683 72.0911 27.122 72.1668C25.9525 72.2235 24.6867 72.2716 23.4439 72.2664C22.2121 72.2612 21.0028 72.2037 19.9321 72.0504C19.8223 72.0346 19.714 72.0179 19.6072 72.0001C18.4239 71.8029 17.4792 71.3468 16.7296 70.738Z" fill="#E3E0D3"/>
</svg>
