<svg width="63" height="84" viewBox="0 0 63 84" fill="none" xmlns="http://www.w3.org/2000/svg">
<path d="M16.9327 70.7379C15.4017 69.4945 14.6844 67.6139 14.4104 66C14.2625 65.1294 14.1641 64.1813 14.0986 63.1058C13.769 63.6628 13.3506 64.0071 12.7065 64.1681C12.514 64.2162 12.2416 64.2409 11.9164 64.2471C11.2746 64.2595 10.4267 64.2001 9.57892 64.1078C8.82449 64.0257 8.07014 63.9175 7.4612 63.8106C6.93999 63.7192 6.52531 63.6287 6.30827 63.5564C6.05709 63.4726 5.73593 63.3707 5.40341 63.2155C4.54443 62.8144 3.60963 62.0572 3.60963 60.3372C3.60963 57.9512 3.60905 54.9816 3.60963 51.237C3.61021 47.4924 3.97239 42.4385 4.96197 36.4156C5.95155 30.3927 6.57166 27.6859 8.74942 23.1196C10.9272 18.5534 11.7102 17.1 15.6102 13.5C15.8467 13.2816 16.0833 13.0721 16.3198 12.871C16.8292 12.4379 17.1545 12.236 17.4978 12.0657C17.841 11.8954 18.4654 11.7312 18.799 11.8954C22.6041 10.7153 27.7635 10.3154 31.211 10.3154C34.6652 10.3154 39.8052 10.7168 43.6071 11.9024C43.9442 11.7327 44.5257 11.7434 45.0073 12.0228C45.489 12.3022 45.6801 12.5082 46.2348 12.9874C46.426 13.1527 46.6173 13.3234 46.8086 13.5C50.7086 17.1 51.4916 18.5534 53.6693 23.1196C55.8471 27.6859 56.4672 30.3927 57.4568 36.4156C58.4464 42.4385 58.8085 47.4924 58.8091 51.237C58.8097 54.9816 58.8091 57.9512 58.8091 60.3372C58.8091 62.0572 57.8743 62.8144 57.0153 63.2155C56.6828 63.3707 56.3617 63.4726 56.1105 63.5564C55.8934 63.6287 55.4788 63.7192 54.9576 63.8106C54.3486 63.9175 53.5943 64.0256 52.8398 64.1078C52.0277 64.1962 51.2155 64.2544 50.5844 64.2483C50.2229 64.2448 49.9208 64.2202 49.7122 64.1681C49.07 64.0075 48.6521 63.6648 48.323 63.1106C48.2575 64.1841 48.1591 65.1307 48.0115 66C47.7343 67.6328 47.0034 69.5386 45.4351 70.7813C44.6942 71.3684 43.7665 71.8075 42.6115 72C42.5048 72.0178 42.3964 72.0345 42.2867 72.0503C41.216 72.2036 40.0067 72.2611 38.7748 72.2663C37.5372 72.2715 36.2767 72.2238 35.1113 72.1674C33.5443 72.0916 32.149 72 31.2115 72C30.2769 72 28.8862 72.091 27.3251 72.1667C26.1556 72.2234 24.8899 72.2715 23.6471 72.2663C22.4152 72.2611 21.2059 72.2036 20.1352 72.0503C20.0254 72.0345 19.9171 72.0178 19.8104 72C18.6271 71.8028 17.6823 71.3467 16.9327 70.7379Z" fill="#E3E0D3"/>
</svg>
