<svg width="64" height="84" viewBox="0 0 64 84" fill="none" xmlns="http://www.w3.org/2000/svg">
<path d="M20.3955 62.3241C19.1869 62.1226 18.2759 61.716 17.572 61.1224C16.7937 60.4661 16.2686 59.5814 15.8743 58.4929C15.6825 59.8816 15.534 60.8062 15.4274 61.169C14.9093 62.9318 14.4925 63.8681 13.2924 64.1681C13.0999 64.2162 12.8276 64.2409 12.5023 64.2471C11.8605 64.2595 11.0126 64.2001 10.1649 64.1078C9.41042 64.0257 8.65608 63.9175 8.04713 63.8106C7.52593 63.7192 7.11125 63.6287 6.8942 63.5564C6.64303 63.4726 6.32187 63.3707 5.98934 63.2155C5.13037 62.8144 4.19557 62.0572 4.19557 60.3372C4.19557 57.9512 4.19499 54.9816 4.19557 51.237C4.19615 47.4924 4.55833 42.4385 5.54791 36.4156C6.53749 30.3927 7.15759 27.6859 9.33536 23.1196C11.5131 18.5534 12.2961 17.1 16.1961 13.5C16.553 13.1706 16.9098 12.8613 17.2664 12.5707C17.6449 12.2623 18.1048 11.9658 18.3078 11.9008C18.5109 11.8357 19.0663 11.7752 19.3807 11.8965C23.1808 10.7155 28.3484 10.3154 31.7969 10.3154C35.2517 10.3154 40.3927 10.717 44.1948 11.903C44.4652 11.8404 44.8653 11.7698 45.2554 11.903C45.6455 12.0361 45.8141 12.163 46.1209 12.407C46.5451 12.7444 46.9698 13.108 47.3945 13.5C51.2945 17.1 52.0775 18.5534 54.2553 23.1196C56.433 27.6859 57.0531 30.3927 58.0427 36.4156C59.0323 42.4385 59.3945 47.4924 59.3951 51.237C59.3956 54.9816 59.3951 57.9512 59.3951 60.3372C59.3951 62.0572 58.4603 62.8144 57.6013 63.2155C57.2688 63.3707 56.9476 63.4726 56.6964 63.5564C56.4794 63.6287 56.0647 63.7192 55.5435 63.8106C54.9346 63.9175 54.1802 64.0256 53.4258 64.1078C52.6137 64.1962 51.8014 64.2544 51.1704 64.2483C50.8088 64.2448 50.5067 64.2202 50.2982 64.1681C49.0982 63.8681 48.6813 62.9318 48.1632 61.169C48.0568 60.8068 47.9085 59.8844 47.7172 58.4992C47.3369 59.5467 46.8352 60.4053 46.1025 61.0527C45.3879 61.6842 44.4536 62.1148 43.1982 62.3241C43.0914 62.3419 42.9831 62.3586 42.8733 62.3743C41.8026 62.5277 40.5933 62.5852 39.3615 62.5904C38.1187 62.5955 36.8529 62.5474 35.6834 62.4907C34.1224 62.4151 32.7302 62.3241 31.7956 62.3241C30.8609 62.3241 29.4714 62.4151 27.9103 62.4907C26.7408 62.5474 25.4751 62.5955 24.2323 62.5904C23.0004 62.5852 21.7911 62.5277 20.7204 62.3743C20.6106 62.3586 20.5023 62.3419 20.3955 62.3241Z" fill="#E3E0D3"/>
</svg>
