<svg width="63" height="84" viewBox="0 0 63 84" fill="none" xmlns="http://www.w3.org/2000/svg">
<path d="M19.6065 50.5426C18.3978 50.3412 17.4868 49.9345 16.7829 49.341C16.6146 49.199 16.4581 49.0464 16.3122 48.8833C15.4657 55.5581 14.9118 60.2385 14.6383 61.1691C14.1202 62.9319 13.7034 63.8682 12.5034 64.1682C12.3108 64.2163 12.0385 64.241 11.7133 64.2472C11.0715 64.2596 10.2236 64.2002 9.3758 64.1079C8.62136 64.0257 7.86702 63.9176 7.25807 63.8107C6.73687 63.7193 6.32219 63.6288 6.10514 63.5565C5.85397 63.4727 5.53281 63.3708 5.20028 63.2156C4.3413 62.8145 3.40651 62.0573 3.40651 60.3373C3.40651 57.9513 3.40593 54.9817 3.40651 51.2371C3.40709 47.4925 3.76927 42.4386 4.75884 36.4157C5.74842 30.3927 6.36853 27.686 8.54629 23.1197C10.7241 18.5534 11.5071 17.1001 15.4071 13.5001C16.3397 12.6392 17.2723 11.9156 18.2008 11.3046C18.5479 11.0762 19.1589 10.7617 19.4511 10.6592C19.7432 10.5566 20.1463 10.5398 20.5618 10.6037C22.7204 9.55788 27.2099 8.46631 30.9685 8.46631C34.7272 8.46631 38.9682 9.62662 41.1268 10.6724C41.6358 10.5403 42.5585 10.6386 43.0494 10.852C43.5402 11.0654 43.9483 11.3796 44.5417 11.8081C45.2285 12.3039 45.917 12.8646 46.6054 13.5001C50.5055 17.1001 51.2884 18.5534 53.4662 23.1197C55.644 27.686 56.2641 30.3927 57.2537 36.4157C58.2432 42.4386 58.6054 47.4925 58.606 51.2371C58.6066 54.9817 58.606 57.9513 58.606 60.3373C58.606 62.0573 57.6712 62.8145 56.8122 63.2156C56.4797 63.3708 56.1585 63.4727 55.9074 63.5565C55.6903 63.6288 55.2756 63.7193 54.7544 63.8107C54.1455 63.9176 53.3911 64.0257 52.6367 64.1079C51.8246 64.1963 51.0124 64.2545 50.3813 64.2484C50.0198 64.2449 49.7177 64.2203 49.5091 64.1682C48.3091 63.8682 47.8923 62.9319 47.3742 61.1691C47.1 60.2363 46.5487 55.5885 45.6988 48.8885C45.5542 49.0496 45.3993 49.2005 45.2327 49.341C44.5288 49.9345 43.6178 50.3412 42.4091 50.5426C42.3024 50.5604 42.1941 50.5772 42.0843 50.5929C41.0202 50.7453 39.8193 50.8031 38.5954 50.8088C37.3687 50.8146 36.119 50.7682 34.9609 50.7125C33.3729 50.6362 31.9544 50.5426 31.0065 50.5426C30.0719 50.5426 28.6823 50.6336 27.1212 50.7093C25.9517 50.766 24.686 50.8141 23.4432 50.8089C22.2113 50.8038 21.002 50.7463 19.9314 50.5929C19.8216 50.5772 19.7132 50.5604 19.6065 50.5426Z" fill="#E3E0D3"/>
</svg>
