<svg width="64" height="84" viewBox="0 0 64 84" fill="none" xmlns="http://www.w3.org/2000/svg">
<path d="M17.5186 70.738C15.9876 69.4946 15.2703 67.614 14.9963 66.0001C14.8485 65.1295 14.75 64.1814 14.6845 63.1059C14.3549 63.6629 13.9365 64.0072 13.2924 64.1682C13.0999 64.2163 12.8276 64.241 12.5023 64.2472C11.8605 64.2596 11.0126 64.2002 10.1649 64.1079C9.41042 64.0257 8.65608 63.9176 8.04713 63.8107C7.52593 63.7193 7.11125 63.6288 6.8942 63.5565C6.64303 63.4727 6.32187 63.3708 5.98934 63.2156C5.13037 62.8145 4.19557 62.0573 4.19557 60.3373C4.19557 57.9513 4.19499 54.9817 4.19557 51.2371C4.19615 47.4925 4.55833 42.4386 5.54791 36.4157C6.53749 30.3927 7.15759 27.686 9.33536 23.1197C11.5131 18.5534 12.2961 17.1001 16.1961 13.5001C16.9499 12.8043 17.7037 12.1981 18.4554 11.6686C18.9813 11.2981 19.4334 11.09 19.853 10.9167C20.2726 10.7434 20.9354 10.5398 21.3509 10.6037C23.5095 9.55788 27.999 8.46631 31.7576 8.46631C35.5162 8.46631 39.7573 9.62662 41.9159 10.6724C42.7142 10.4652 43.8657 10.8358 44.6097 11.3105C45.3523 11.7842 45.7113 12.0747 46.2623 12.5205L46.2654 12.5231C46.6416 12.8275 47.0181 13.1526 47.3945 13.5001C51.2945 17.1001 52.0775 18.5534 54.2553 23.1197C56.433 27.686 57.0531 30.3927 58.0427 36.4157C59.0323 42.4386 59.3945 47.4925 59.3951 51.2371C59.3956 54.9817 59.3951 57.9513 59.3951 60.3373C59.3951 62.0573 58.4603 62.8145 57.6013 63.2156C57.2688 63.3708 56.9476 63.4727 56.6964 63.5565C56.4794 63.6288 56.0647 63.7193 55.5435 63.8107C54.9346 63.9176 54.1802 64.0257 53.4258 64.1079C52.6137 64.1963 51.8014 64.2545 51.1704 64.2484C50.8088 64.2449 50.5067 64.2203 50.2982 64.1682C49.656 64.0076 49.2381 63.6649 48.9089 63.1107C48.8434 64.1842 48.7451 65.1308 48.5975 66.0001C48.3202 67.6329 47.5893 69.5387 46.021 70.7814C45.2802 71.3685 44.3525 71.8076 43.1975 72.0001C43.0907 72.0179 42.9824 72.0346 42.8726 72.0504C41.8019 72.2037 40.5926 72.2612 39.3608 72.2664C38.1231 72.2715 36.8627 72.2239 35.6972 72.1675C34.1303 72.0917 32.735 72.0001 31.7975 72.0001C30.8628 72.0001 29.4721 72.0911 27.911 72.1668C26.7415 72.2235 25.4758 72.2716 24.233 72.2664C23.0011 72.2612 21.7918 72.2037 20.7212 72.0504C20.6114 72.0346 20.503 72.0179 20.3963 72.0001C19.213 71.8029 18.2683 71.3468 17.5186 70.738Z" fill="#E3E0D3"/>
</svg>
