<svg width="63" height="84" viewBox="0 0 63 84" fill="none" xmlns="http://www.w3.org/2000/svg">
<path d="M19.8096 62.3242C18.6009 62.1227 17.6899 61.7161 16.986 61.1225C16.2078 60.4662 15.6827 59.5815 15.2883 58.493C15.0966 59.8817 14.9481 60.8063 14.8415 61.1691C14.3234 62.9319 13.9065 63.8682 12.7065 64.1682C12.514 64.2163 12.2416 64.241 11.9164 64.2472C11.2746 64.2596 10.4267 64.2002 9.57892 64.1079C8.82449 64.0257 8.07014 63.9176 7.4612 63.8107C6.93999 63.7193 6.52531 63.6288 6.30827 63.5565C6.05709 63.4727 5.73593 63.3708 5.40341 63.2156C4.54443 62.8145 3.60963 62.0573 3.60963 60.3373C3.60963 57.9513 3.60905 54.9817 3.60963 51.2371C3.61021 47.4925 3.97239 42.4386 4.96197 36.4157C5.95155 30.3927 6.57166 27.686 8.74942 23.1197C10.9272 18.5534 11.7102 17.1001 15.6102 13.5001C16.383 12.7868 17.1558 12.1676 17.9262 11.6288C18.4331 11.2742 18.9114 10.9844 19.3839 10.794C19.8565 10.6037 20.3494 10.5398 20.7649 10.6037C22.9235 9.55788 27.413 8.46631 31.1717 8.46631C34.9303 8.46631 39.1713 9.62662 41.3299 10.6724C41.8389 10.5403 42.4168 10.5966 42.9545 10.8117C43.4921 11.0268 44.0165 11.2936 44.5421 11.6635C45.2961 12.1942 46.0524 12.802 46.8086 13.5001C50.7086 17.1001 51.4916 18.5534 53.6693 23.1197C55.8471 27.686 56.4672 30.3927 57.4568 36.4157C58.4464 42.4386 58.8085 47.4925 58.8091 51.2371C58.8097 54.9817 58.8091 57.9513 58.8091 60.3373C58.8091 62.0573 57.8743 62.8145 57.0153 63.2156C56.6828 63.3708 56.3617 63.4727 56.1105 63.5565C55.8934 63.6288 55.4788 63.7193 54.9576 63.8107C54.3486 63.9176 53.5943 64.0257 52.8398 64.1079C52.0277 64.1963 51.2155 64.2545 50.5844 64.2484C50.2229 64.2449 49.9208 64.2203 49.7122 64.1682C48.5122 63.8682 48.0954 62.9319 47.5773 61.1691C47.4708 60.8069 47.3226 59.8845 47.1313 58.4993C46.751 59.5468 46.2492 60.4054 45.5165 61.0528C44.8019 61.6843 43.8677 62.1149 42.6123 62.3242C42.5055 62.342 42.3972 62.3587 42.2874 62.3744C41.2167 62.5278 40.0074 62.5853 38.7755 62.5905C37.5328 62.5956 36.267 62.5475 35.0975 62.4908C33.5364 62.4152 32.1442 62.3242 31.2096 62.3242C30.275 62.3242 28.8854 62.4152 27.3244 62.4908C26.1549 62.5475 24.8891 62.5956 23.6463 62.5905C22.4145 62.5853 21.2052 62.5278 20.1345 62.3744C20.0247 62.3587 19.9164 62.342 19.8096 62.3242Z" fill="#E3E0D3"/>
</svg>
