<svg width="63" height="84" viewBox="0 0 63 84" fill="none" xmlns="http://www.w3.org/2000/svg">
<path d="M17.1829 61.1225C15.7903 59.9482 15.2084 58.0425 14.7355 55.5473C14.3302 53.4085 14.6364 44.4509 14.9752 37.1326L12.876 36.8207C12.1375 36.6896 11.4295 36.5433 10.784 36.3924C9.98114 36.2046 9.27474 36.0096 8.72578 35.8272C8.57294 35.7765 8.4323 35.7267 8.30519 35.6783C6.47893 34.9834 6.04947 33.4824 6.09723 32.2824C6.14498 31.0824 7.14034 28.5846 8.30507 24.9001C9.46979 21.2156 10.8639 19.0048 13.105 16.5001C15.8687 13.4113 18.3681 11.4677 20.8419 10.192C21.12 10.0486 21.3503 9.94354 21.535 9.89109C21.7198 9.83863 22.0157 9.83832 22.1807 9.89109C24.3425 8.87897 27.6668 8.46631 31.3695 8.46631C35.081 8.46631 38.4498 8.88093 40.6112 9.89829C40.7828 9.84158 41.0373 9.84013 41.2776 9.89829C41.5179 9.95645 41.653 10.0294 41.9111 10.1614C44.4043 11.4366 46.9216 13.3865 49.7075 16.5001C51.9486 19.0048 53.3427 21.2156 54.5074 24.9001C55.6722 28.5846 56.6675 31.0824 56.7153 32.2824C56.763 33.4824 56.3336 34.9834 54.5073 35.6783C54.3802 35.7267 54.2396 35.7765 54.0867 35.8272C53.5378 36.0096 52.8314 36.2046 52.0285 36.3924C51.3888 36.542 50.6878 36.6869 49.9564 36.8172C49.2694 36.9395 48.5556 37.0488 47.8406 37.1367C48.1793 44.4543 48.4853 53.4089 48.0801 55.5473C47.6165 57.9937 47.048 59.8735 45.7134 61.0528C44.9988 61.6843 44.0646 62.1149 42.8091 62.3242C42.7024 62.342 42.5941 62.3587 42.4843 62.3744C41.4136 62.5278 40.2043 62.5853 38.9724 62.5905C37.7296 62.5956 36.4639 62.5475 35.2944 62.4908C33.7333 62.4152 32.3411 62.3242 31.4065 62.3242C30.4719 62.3242 29.0823 62.4152 27.5212 62.4908C26.3517 62.5475 25.086 62.5956 23.8432 62.5905C22.6113 62.5853 21.402 62.5278 20.3314 62.3744C20.2216 62.3587 20.1132 62.342 20.0065 62.3242C18.7978 62.1227 17.8868 61.7161 17.1829 61.1225Z" fill="#E3E0D3"/>
</svg>
