<svg width="63" height="84" viewBox="0 0 63 84" fill="none" xmlns="http://www.w3.org/2000/svg">
<path d="M17.1202 70.7379C15.5892 69.4945 14.8719 67.6139 14.5979 66C14.45 65.1294 14.3516 64.1813 14.2861 63.1058C13.9565 63.6628 13.5381 64.0071 12.894 64.1681C12.7015 64.2162 12.4291 64.2409 12.1039 64.2471C11.4621 64.2595 10.6142 64.2001 9.76642 64.1078C9.01199 64.0257 8.25764 63.9175 7.6487 63.8106C7.12749 63.7192 6.71281 63.6287 6.49577 63.5564C6.24459 63.4726 5.92343 63.3707 5.59091 63.2155C4.73193 62.8144 3.79713 62.0572 3.79713 60.3372C3.79713 57.9512 3.79655 54.9816 3.79713 51.237C3.79771 47.4924 4.15989 42.4385 5.14947 36.4156C6.13905 30.3927 6.75916 27.6859 8.93692 23.1196C11.1147 18.5534 11.8977 17.1 15.7977 13.5C16.2032 13.1257 16.6086 12.7774 17.0138 12.4529C17.3436 12.1888 17.7569 11.9761 18.0189 11.8965C18.281 11.8169 18.6678 11.7752 18.9823 11.8965C22.7824 10.7155 27.95 10.3154 31.3985 10.3154C34.8533 10.3154 39.9943 10.717 43.7964 11.903C44.1154 11.7776 44.6372 11.7736 45.0764 11.9781C45.5157 12.1826 45.6851 12.3676 46.1326 12.7414C46.4204 12.9817 46.7082 13.2343 46.9961 13.5C50.8961 17.1 51.6791 18.5534 53.8568 23.1196C56.0346 27.6859 56.6547 30.3927 57.6443 36.4156C58.6339 42.4385 58.996 47.4924 58.9966 51.237C58.9972 54.9816 58.9966 57.9512 58.9966 60.3372C58.9966 62.0572 58.0618 62.8144 57.2028 63.2155C56.8703 63.3707 56.5492 63.4726 56.298 63.5564C56.0809 63.6287 55.6663 63.7192 55.1451 63.8106C54.5361 63.9175 53.7818 64.0256 53.0273 64.1078C52.2152 64.1962 51.403 64.2544 50.7719 64.2483C50.4104 64.2448 50.1083 64.2202 49.8997 64.1681C49.2575 64.0075 48.8396 63.6648 48.5105 63.1106C48.445 64.1841 48.3466 65.1307 48.199 66C47.9218 67.6328 47.1909 69.5386 45.6226 70.7813C44.8817 71.3684 43.954 71.8075 42.799 72C42.6923 72.0178 42.5839 72.0345 42.4742 72.0503C41.4035 72.2036 40.1942 72.2611 38.9623 72.2663C37.7247 72.2715 36.4642 72.2238 35.2988 72.1674C33.7318 72.0916 32.3365 72 31.399 72C30.4644 72 29.0737 72.091 27.5126 72.1667C26.3431 72.2234 25.0774 72.2715 23.8346 72.2663C22.6027 72.2611 21.3934 72.2036 20.3227 72.0503C20.2129 72.0345 20.1046 72.0178 19.9979 72C18.8146 71.8028 17.8698 71.3467 17.1202 70.7379Z" fill="#E3E0D3"/>
</svg>
