<svg width="63" height="84" viewBox="0 0 63 84" fill="none" xmlns="http://www.w3.org/2000/svg">
<path d="M16.9798 49.3409C15.5872 48.1666 15.0053 46.2608 14.5324 43.7657C14.2744 42.4044 14.3047 39.8279 14.4482 37.0958C13.8478 37.0166 13.2509 36.9232 12.6729 36.8206C11.9343 36.6895 11.2264 36.5432 10.5809 36.3923C9.77802 36.2045 9.07162 36.0095 8.52266 35.8272C8.36982 35.7764 8.22918 35.7266 8.10206 35.6782C6.2758 34.9833 5.84635 33.4823 5.8941 32.2823C5.94186 31.0823 6.93722 28.5845 8.10194 24.9C9.26666 21.2155 10.6608 19.0047 12.9019 16.5C14.1183 15.1405 15.2835 14.0029 16.4179 13.0464C16.9916 12.5626 17.516 12.2172 17.9059 12.0569C18.2958 11.8965 18.571 11.8126 18.7885 11.8965C22.5886 10.7155 27.7563 10.3154 31.2047 10.3154C34.6595 10.3154 39.8006 10.717 43.6026 11.903C43.8249 11.8156 44.4841 12.0318 44.7775 12.204C45.0709 12.3763 45.3154 12.4862 45.8374 12.92C47.0193 13.9022 48.2339 15.0801 49.5043 16.5C51.7454 19.0047 53.1396 21.2155 54.3043 24.9C55.469 28.5845 56.4644 31.0823 56.5122 32.2823C56.5599 33.4823 56.1305 34.9833 54.3042 35.6782C54.1771 35.7266 54.0364 35.7764 53.8836 35.8272C53.3346 36.0095 52.6282 36.2045 51.8254 36.3923C51.1856 36.5419 50.4847 36.6868 49.7533 36.8171C49.17 36.9209 48.5674 37.0154 47.9612 37.0954C48.1047 39.8276 48.1349 42.4043 47.877 43.7657C47.4041 46.2608 46.8222 48.1666 45.4296 49.3409C44.7257 49.9344 43.8147 50.3411 42.606 50.5425C42.4993 50.5603 42.3909 50.5771 42.2811 50.5928C41.2171 50.7452 40.0162 50.803 38.7922 50.8087C37.5656 50.8145 36.3159 50.7681 35.1578 50.7124C33.5697 50.6361 32.1512 50.5425 31.2034 50.5425C30.2687 50.5425 28.8792 50.6335 27.3181 50.7092C26.1486 50.7659 24.8829 50.814 23.6401 50.8088C22.4082 50.8037 21.1989 50.7462 20.1282 50.5928C20.0184 50.5771 19.9101 50.5603 19.8034 50.5425C18.5947 50.3411 17.6837 49.9344 16.9798 49.3409Z" fill="#E3E0D3"/>
</svg>
