<svg width="63" height="84" viewBox="0 0 63 84" fill="none" xmlns="http://www.w3.org/2000/svg">
<path d="M20.3221 43.1336C20.2123 43.1178 20.104 43.1011 19.9973 43.0833C18.9062 42.9015 18.1502 42.4225 17.6264 41.7781C16.2412 52.1826 15.392 59.9337 15.029 61.1691C14.5109 62.9319 14.094 63.8682 12.894 64.1682C12.7015 64.2163 12.4291 64.241 12.1039 64.2472C11.4621 64.2596 10.6142 64.2002 9.76642 64.1079C9.01199 64.0257 8.25764 63.9176 7.6487 63.8107C7.12749 63.7193 6.71281 63.6288 6.49577 63.5565C6.24459 63.4727 5.92343 63.3708 5.59091 63.2156C4.73193 62.8145 3.79713 62.0573 3.79713 60.3373C3.79713 57.9513 3.79655 54.9817 3.79713 51.2371C3.79771 47.4925 4.15989 42.4386 5.14947 36.4157C6.13905 30.3927 6.75916 27.686 8.93692 23.1197C11.1147 18.5534 11.8977 17.1001 15.7977 13.5001C16.5957 12.7635 17.3937 12.1274 18.1891 11.5763C18.6481 11.2583 19.178 10.9874 19.5772 10.7956C19.9764 10.6037 20.5396 10.5402 20.9524 10.6037C23.111 9.55788 27.6005 8.46631 31.3592 8.46631C35.1178 8.46631 39.3588 9.62662 41.5174 10.6724C42.0264 10.5403 42.7081 10.603 43.199 10.7802C43.6898 10.9575 44.1953 11.2881 44.7165 11.6543C45.4749 12.1872 46.2355 12.798 46.9961 13.5001C50.8961 17.1001 51.6791 18.5534 53.8568 23.1197C56.0346 27.686 56.6547 30.3927 57.6443 36.4157C58.6339 42.4386 58.996 47.4925 58.9966 51.2371C58.9972 54.9817 58.9966 57.9513 58.9966 60.3373C58.9966 62.0573 58.0618 62.8145 57.2028 63.2156C56.8703 63.3708 56.5492 63.4727 56.298 63.5565C56.0809 63.6288 55.6663 63.7193 55.1451 63.8107C54.5361 63.9176 53.7818 64.0257 53.0273 64.1079C52.2152 64.1963 51.403 64.2545 50.7719 64.2484C50.4104 64.2449 50.1083 64.2203 49.8997 64.1682C48.6997 63.8682 48.2829 62.9319 47.7648 61.1691C47.4018 59.9339 46.5527 52.1842 45.1678 41.7814C44.6441 42.4242 43.8889 42.9018 42.7996 43.0833C42.6929 43.1011 42.5845 43.1178 42.4747 43.1336C41.4041 43.2869 40.1948 43.3444 38.9629 43.3496C37.7201 43.3548 36.4544 43.3067 35.2849 43.25C33.7238 43.1743 32.3342 43.0833 31.3996 43.0833C30.465 43.0833 29.0731 43.1743 27.512 43.25C26.3425 43.3067 25.0768 43.3548 23.834 43.3496C22.6021 43.3444 21.3928 43.2869 20.3221 43.1336Z" fill="#E3E0D3"/>
</svg>
