<svg width="63" height="84" viewBox="0 0 63 84" fill="none" xmlns="http://www.w3.org/2000/svg">
<path d="M20.1346 43.1334C20.0248 43.1177 19.9165 43.1009 19.8098 43.0832C18.7187 42.9013 17.9627 42.4224 17.4389 41.7779C16.0537 52.1824 15.2045 59.9336 14.8415 61.1689C14.3234 62.9318 13.9065 63.868 12.7065 64.168C12.514 64.2162 12.2416 64.2408 11.9164 64.2471C11.2746 64.2594 10.4267 64.2 9.57892 64.1077C8.82449 64.0256 8.07014 63.9174 7.4612 63.8106C6.93999 63.7191 6.52531 63.6286 6.30827 63.5563C6.05709 63.4726 5.73593 63.3707 5.40341 63.2154C4.54443 62.8144 3.60963 62.0572 3.60963 60.3371C3.60963 57.9512 3.60905 54.9815 3.60963 51.2369C3.61021 47.4924 3.97239 42.4384 4.96197 36.4155C5.95155 30.3926 6.57166 27.6858 8.74942 23.1196C9.11765 22.3475 9.44601 21.6644 9.7563 21.0448C10.13 20.2987 10.8063 19.3385 11.2961 18.9052C11.7859 18.4719 12.5301 18.127 13.7582 17.9918C14.3716 17.9243 15.0578 17.8989 15.8313 17.8989C15.9567 17.8989 16.2279 17.9015 16.6188 17.9059L17.4015 17.915L17.5348 17.9166C18.4441 17.9273 19.6483 17.9416 21.0216 17.9552C22.1728 17.9666 23.4429 17.9776 24.7577 17.9856C25.9765 17.9932 27.2339 17.9982 28.4705 17.9989C29.2619 17.9993 30.0513 17.9979 30.8103 17.9942C31.5691 17.9979 32.352 17.9993 33.1432 17.9989C34.38 17.9982 35.6374 17.9932 36.8564 17.9856C38.1712 17.9776 39.4413 17.9666 40.5925 17.9552C41.9658 17.9416 43.1699 17.9274 44.0792 17.9166L44.0797 17.9166L44.2126 17.915L44.9952 17.9059C45.3862 17.9015 45.6574 17.8989 45.7828 17.8989C46.5563 17.8989 47.2425 17.9243 47.8558 17.9918C49.4506 18.1673 50.5521 18.6277 51.4108 19.6671C52.5996 21.1063 53.4194 22.4177 53.6693 23.1196C55.8471 27.6858 56.4672 30.3926 57.4568 36.4155C58.4464 42.4384 58.8085 47.4924 58.8091 51.2369C58.8097 54.9815 58.8091 57.9512 58.8091 60.3371C58.8091 62.0572 57.8743 62.8144 57.0153 63.2154C56.6828 63.3707 56.3617 63.4726 56.1105 63.5563C55.8934 63.6286 55.4788 63.7191 54.9576 63.8106C54.3486 63.9174 53.5943 64.0256 52.8398 64.1077C52.0277 64.1961 51.2155 64.2543 50.5844 64.2483C50.2229 64.2448 49.9208 64.2202 49.7122 64.168C48.5122 63.868 48.0954 62.9318 47.5773 61.1689C47.2151 59.9367 46.3593 52.1463 44.9804 41.7817C44.4567 42.4244 43.7012 42.9016 42.6121 43.0832C42.5054 43.1009 42.397 43.1177 42.2872 43.1334C41.2166 43.2868 40.0073 43.3443 38.7754 43.3494C37.5326 43.3546 36.2669 43.3065 35.0974 43.2498C33.5363 43.1741 32.1467 43.0832 31.2121 43.0832C30.2775 43.0832 28.8856 43.1741 27.3245 43.2498C26.155 43.3065 24.8893 43.3546 23.6465 43.3494C22.4146 43.3443 21.2053 43.2868 20.1346 43.1334Z" fill="#E3E0D3"/>
</svg>
