<svg width="63" height="84" viewBox="0 0 63 84" fill="none" xmlns="http://www.w3.org/2000/svg">
<path d="M19.9315 43.1335C19.8217 43.1177 19.7134 43.101 19.6066 43.0832C18.5155 42.9014 17.7595 42.4224 17.2357 41.778C15.8506 52.1825 15.0014 59.9336 14.6383 61.169C14.1202 62.9318 13.7034 63.8681 12.5034 64.1681C12.3108 64.2162 12.0385 64.2409 11.7133 64.2471C11.0715 64.2595 10.2236 64.2001 9.3758 64.1078C8.62136 64.0257 7.86702 63.9175 7.25807 63.8106C6.73687 63.7192 6.32219 63.6287 6.10514 63.5564C5.85397 63.4726 5.53281 63.3707 5.20028 63.2155C4.3413 62.8144 3.40651 62.0572 3.40651 60.3372C3.40651 57.9512 3.40593 54.9816 3.40651 51.237C3.40709 47.4924 3.76927 42.4385 4.75884 36.4156C5.74842 30.3927 6.36853 27.6859 8.54629 23.1196C10.7241 18.5534 11.5071 17.1 15.4071 13.5C15.7595 13.1746 16.112 12.8689 16.4643 12.5814C16.8471 12.2689 17.1552 12.0421 17.506 11.9008C17.8569 11.7595 18.2772 11.7752 18.5917 11.8965C22.3917 10.7155 27.5594 10.3154 31.0079 10.3154C34.4627 10.3154 39.6037 10.717 43.4058 11.903C43.7248 11.7776 44.3148 11.8407 44.6793 12.0082C45.0437 12.1756 45.2945 12.3676 45.742 12.7414C46.0297 12.9817 46.3176 13.2343 46.6054 13.5C50.5055 17.1 51.2884 18.5534 53.4662 23.1196C55.644 27.6859 56.2641 30.3927 57.2537 36.4156C58.2432 42.4385 58.6054 47.4924 58.606 51.237C58.6066 54.9816 58.606 57.9512 58.606 60.3372C58.606 62.0572 57.6712 62.8144 56.8122 63.2155C56.4797 63.3707 56.1585 63.4726 55.9074 63.5564C55.6903 63.6287 55.2756 63.7192 54.7544 63.8106C54.1455 63.9175 53.3911 64.0256 52.6367 64.1078C51.8246 64.1962 51.0124 64.2544 50.3813 64.2483C50.0198 64.2448 49.7177 64.2202 49.5091 64.1681C48.3091 63.8681 47.8923 62.9318 47.3742 61.169C47.0111 59.9338 46.1621 52.1841 44.7772 41.7813C44.2535 42.4241 43.4982 42.9017 42.409 43.0832C42.3022 43.101 42.1939 43.1177 42.0841 43.1335C41.0134 43.2868 39.8041 43.3443 38.5723 43.3495C37.3295 43.3547 36.0637 43.3066 34.8942 43.2499C33.3332 43.1742 31.9436 43.0832 31.009 43.0832C30.0744 43.0832 28.6824 43.1742 27.1214 43.2499C25.9519 43.3066 24.6861 43.3547 23.4433 43.3495C22.2115 43.3443 21.0022 43.2868 19.9315 43.1335Z" fill="#E3E0D3"/>
</svg>
