<svg width="63" height="84" viewBox="0 0 63 84" fill="none" xmlns="http://www.w3.org/2000/svg">
<path d="M19.9971 50.5425C18.7884 50.3411 17.8774 49.9344 17.1735 49.3409C17.0059 49.1996 16.8501 49.0476 16.7047 48.8853C15.8546 55.587 15.3032 60.2361 15.029 61.169C14.5109 62.9318 14.094 63.8681 12.894 64.1681C12.7015 64.2162 12.4291 64.2409 12.1039 64.2471C11.4621 64.2595 10.6142 64.2001 9.76642 64.1078C9.01199 64.0257 8.25764 63.9175 7.6487 63.8106C7.12749 63.7192 6.71281 63.6287 6.49577 63.5564C6.24459 63.4726 5.92343 63.3707 5.59091 63.2155C4.73193 62.8144 3.79713 62.0572 3.79713 60.3372C3.79713 57.9512 3.79655 54.9816 3.79713 51.237C3.79771 47.4924 4.15989 42.4385 5.14947 36.4156C6.13905 30.3927 6.75916 27.6859 8.93692 23.1196C11.1147 18.5534 11.8977 17.1 15.7977 13.5C16.3142 13.0232 16.8307 12.5886 17.3465 12.1918C17.5752 12.0159 17.8597 11.8616 18.1269 11.7999C18.3941 11.7383 18.6836 11.7463 18.9865 11.8954C22.7916 10.7153 27.951 10.3154 31.3985 10.3154C34.8527 10.3154 39.9927 10.7168 43.7946 11.9024C44.1317 11.7327 44.44 11.726 44.7568 11.8282C45.0737 11.9304 45.3766 12.1331 45.6853 12.3775C46.1219 12.7232 46.559 13.0965 46.9961 13.5C50.8961 17.1 51.6791 18.5534 53.8568 23.1196C56.0346 27.6859 56.6547 30.3927 57.6443 36.4156C58.6339 42.4385 58.996 47.4924 58.9966 51.237C58.9972 54.9816 58.9966 57.9512 58.9966 60.3372C58.9966 62.0572 58.0618 62.8144 57.2028 63.2155C56.8703 63.3707 56.5492 63.4726 56.298 63.5564C56.0809 63.6287 55.6663 63.7192 55.1451 63.8106C54.5361 63.9175 53.7818 64.0256 53.0273 64.1078C52.2152 64.1962 51.403 64.2544 50.7719 64.2483C50.4104 64.2448 50.1083 64.2202 49.8997 64.1681C48.6997 63.8681 48.2829 62.9318 47.7648 61.169C47.4906 60.2362 46.9393 55.5884 46.0894 48.8884C45.9448 49.0495 45.7899 49.2004 45.6233 49.3409C44.9194 49.9344 44.0085 50.3411 42.7998 50.5425C42.693 50.5603 42.5847 50.5771 42.4749 50.5928C41.4109 50.7452 40.2099 50.803 38.986 50.8087C37.7594 50.8145 36.5097 50.7681 35.3516 50.7124C33.7635 50.6361 32.3476 50.5425 31.3998 50.5425C30.4651 50.5425 29.0729 50.6335 27.5119 50.7092C26.3424 50.7659 25.0766 50.814 23.8338 50.8088C22.602 50.8037 21.3927 50.7462 20.322 50.5928C20.2122 50.5771 20.1039 50.5603 19.9971 50.5425Z" fill="#E3E0D3"/>
</svg>
