<svg width="64" height="84" viewBox="0 0 64 84" fill="none" xmlns="http://www.w3.org/2000/svg">
<path d="M14.9979 66.0001C14.5897 63.5959 14.5578 60.6001 14.5578 55.9653C14.5578 52.8932 15.3435 44.6984 15.7427 37.1814C15.6712 37.1734 15.5995 37.1651 15.5279 37.1567C14.7647 37.0664 14.0005 36.951 13.2666 36.8207C12.5281 36.6896 11.8202 36.5433 11.1746 36.3924C10.3718 36.2046 9.66537 36.0096 9.11641 35.8272C8.96357 35.7765 8.82293 35.7267 8.69581 35.6783C6.86955 34.9834 6.4401 33.4824 6.48785 32.2824C6.53561 31.0824 7.53097 28.5846 8.69569 24.9001C9.86041 21.2156 11.2546 19.0048 13.4957 16.5001C15.4297 14.3385 17.2344 12.7378 18.9914 11.5343C19.489 11.1935 19.7648 11.0621 20.2338 10.8329C20.7028 10.6037 21.3524 10.6037 21.3524 10.6037C23.511 9.55788 28.0005 8.46631 31.7592 8.46631C35.5178 8.46631 39.7588 9.62662 41.9174 10.6724C42.2866 10.5766 42.8898 10.6622 43.3486 10.8276C43.8074 10.9929 44.0981 11.1885 44.6113 11.5404C46.3655 12.7432 48.1673 14.3422 50.0981 16.5001C52.3392 19.0048 53.7333 21.2156 54.8981 24.9001C56.0628 28.5846 57.0581 31.0824 57.1059 32.2824C57.1537 33.4824 56.7242 34.9834 54.8979 35.6783C54.7708 35.7267 54.6302 35.7765 54.4773 35.8272C53.9284 36.0096 53.222 36.2046 52.4191 36.3924C51.7794 36.542 51.0784 36.6869 50.3471 36.8172C49.6056 36.9492 48.8329 37.0661 48.0611 37.1572C47.9921 37.1654 47.9231 37.1733 47.8541 37.1811C48.2534 44.6981 49.0391 52.8932 49.0391 55.9653C49.0391 60.6001 49.0072 63.5959 48.599 66.0001C48.3218 67.6329 47.5909 69.5387 46.0226 70.7814C45.2817 71.3685 44.354 71.8076 43.199 72.0001C43.0923 72.0179 42.9839 72.0346 42.8742 72.0504C41.8035 72.2037 40.5942 72.2612 39.3623 72.2664C38.1247 72.2715 36.8642 72.2239 35.6988 72.1675C34.1318 72.0917 32.7365 72.0001 31.799 72.0001C30.8644 72.0001 29.4737 72.0911 27.9126 72.1668C26.7431 72.2235 25.4774 72.2716 24.2346 72.2664C23.0027 72.2612 21.7934 72.2037 20.7227 72.0504C20.6129 72.0346 20.5046 72.0179 20.3979 72.0001C19.2146 71.8029 18.2698 71.3468 17.5202 70.738C15.9892 69.4946 15.2719 67.614 14.9979 66.0001Z" fill="#E3E0D3"/>
</svg>
