<svg width="63" height="84" viewBox="0 0 63 84" fill="none" xmlns="http://www.w3.org/2000/svg">
<path d="M16.7845 61.1224C15.3919 59.9481 14.81 58.0423 14.3371 55.5471C13.9318 53.4084 14.238 44.4508 14.5768 37.1324L12.4776 36.8205C11.739 36.6894 11.0311 36.5432 10.3855 36.3922C9.58271 36.2045 8.8763 36.0094 8.32735 35.8271C8.1745 35.7763 8.03387 35.7265 7.90675 35.6782C6.08049 34.9832 5.65104 33.4823 5.69879 32.2823C5.74654 31.0823 6.74191 28.5844 7.90663 24.8999C8.4416 23.2076 9.02499 21.8262 9.71661 20.5843C10.0303 20.0212 10.5595 19.2912 11.1605 18.8304C11.7616 18.3695 12.3791 18.1214 13.5567 17.9918C14.17 17.9243 14.8563 17.8989 15.6297 17.8989C15.7551 17.8989 16.0263 17.9015 16.4173 17.9059L17.1999 17.915L17.3332 17.9166C18.2425 17.9273 19.4467 17.9416 20.82 17.9552C21.9712 17.9666 23.2413 17.9776 24.5561 17.9856C25.775 17.9932 27.0323 17.9982 28.269 17.9989C29.0603 17.9993 29.8497 17.9979 30.6087 17.9942C31.3676 17.9979 32.1504 17.9993 32.9416 17.9989C34.1784 17.9982 35.4359 17.9932 36.6548 17.9856C37.9696 17.9776 39.2397 17.9666 40.3909 17.9552C41.7642 17.9416 42.9684 17.9274 43.8776 17.9166L43.8781 17.9166L44.011 17.915L44.7937 17.9059C45.1846 17.9015 45.4558 17.8989 45.5812 17.8989C46.3547 17.8989 47.041 17.9243 47.6543 17.9918C49.249 18.1673 50.0284 18.6403 50.6586 19.1654C51.2889 19.6906 52.4793 21.2837 52.8644 21.9489C53.2495 22.6142 53.9049 24.2542 54.109 24.8999C55.2737 28.5844 56.2691 31.0823 56.3168 32.2823C56.3646 33.4823 55.9351 34.9832 54.1089 35.6782C53.9818 35.7265 53.8411 35.7763 53.6883 35.8271C53.1393 36.0094 52.4329 36.2045 51.6301 36.3922C50.9903 36.5418 50.2893 36.6868 49.558 36.817C48.871 36.9393 48.1572 37.0486 47.4421 37.1366C47.7809 44.4541 48.0869 53.4088 47.6816 55.5471C47.218 57.9935 46.6496 59.8734 45.315 61.0527C44.6004 61.6841 43.6661 62.1148 42.4107 62.324C42.3039 62.3418 42.1956 62.3585 42.0858 62.3743C41.0151 62.5277 39.8058 62.5852 38.574 62.5903C37.3312 62.5955 36.0654 62.5474 34.8959 62.4907C33.3349 62.415 31.9427 62.324 31.0081 62.324C30.0734 62.324 28.6839 62.415 27.1228 62.4907C25.9533 62.5474 24.6876 62.5955 23.4448 62.5903C22.2129 62.5852 21.0036 62.5277 19.9329 62.3743C19.8231 62.3585 19.7148 62.3418 19.608 62.324C18.3994 62.1226 17.4884 61.7159 16.7845 61.1224Z" fill="#E3E0D3"/>
</svg>
