<svg width="63" height="84" viewBox="0 0 63 84" fill="none" xmlns="http://www.w3.org/2000/svg">
<path d="M19.9252 43.1335C19.8155 43.1177 19.7071 43.101 19.6004 43.0832C16.4689 42.5613 16.0977 39.5924 16.0541 37.2865C15.6175 37.253 15.1744 37.209 14.731 37.1566C13.9678 37.0663 13.2036 36.9509 12.4698 36.8206C11.7312 36.6895 11.0233 36.5432 10.3777 36.3923C9.57489 36.2045 8.86849 36.0095 8.31953 35.8272C8.16669 35.7764 8.02605 35.7266 7.89894 35.6782C6.07268 34.9833 5.64322 33.4823 5.69098 32.2823C5.73873 31.0823 6.73409 28.5845 7.89882 24.9C9.06354 21.2155 10.4577 19.0047 12.6988 16.5C13.9924 15.0542 15.2281 13.8593 16.4304 12.8664C16.9304 12.4535 17.0521 12.3833 17.4506 12.0954C17.8491 11.8075 18.3679 11.8126 18.5854 11.8965C22.3855 10.7155 27.5531 10.3154 31.0016 10.3154C34.4564 10.3154 39.5974 10.717 43.3995 11.903C43.6218 11.8156 44.0574 11.8575 44.3977 12.0309C44.738 12.2043 44.9691 12.3769 45.4171 12.7414C46.6674 13.7586 47.9528 14.993 49.3012 16.5C51.5423 19.0047 52.9365 21.2155 54.1012 24.9C55.2659 28.5845 56.2613 31.0823 56.309 32.2823C56.3568 33.4823 55.9273 34.9833 54.1011 35.6782C53.9739 35.7266 53.8333 35.7764 53.6805 35.8272C53.1315 36.0095 52.4251 36.2045 51.6223 36.3923C50.9825 36.5419 50.2815 36.6868 49.5502 36.8171C48.8087 36.9491 48.036 37.066 47.2642 37.1571C46.8235 37.2092 46.3831 37.2529 45.949 37.2863C45.9055 39.5922 45.5343 42.5613 42.4027 43.0832C42.296 43.101 42.1877 43.1177 42.0779 43.1335C41.0072 43.2868 39.7979 43.3443 38.566 43.3495C37.3232 43.3547 36.0575 43.3066 34.888 43.2499C33.3269 43.1742 31.9374 43.0832 31.0027 43.0832C30.0681 43.0832 28.6762 43.1742 27.1151 43.2499C25.9456 43.3066 24.6799 43.3547 23.4371 43.3495C22.2052 43.3443 20.9959 43.2868 19.9252 43.1335Z" fill="#E3E0D3"/>
</svg>
