<svg width="63" height="84" viewBox="0 0 63 84" fill="none" xmlns="http://www.w3.org/2000/svg">
<path d="M16.7767 49.341C15.3841 48.1667 14.8022 46.2609 14.3293 43.7658C14.0713 42.4045 14.1016 39.828 14.245 37.0959C13.6446 37.0167 13.0478 36.9233 12.4698 36.8207C11.7312 36.6896 11.0233 36.5433 10.3777 36.3924C9.57489 36.2046 8.86849 36.0096 8.31953 35.8272C8.16669 35.7765 8.02605 35.7267 7.89894 35.6783C6.07268 34.9834 5.64322 33.4824 5.69098 32.2824C5.73873 31.0824 6.73409 28.5846 7.89882 24.9001C9.06354 21.2156 10.4577 19.0048 12.6988 16.5001C14.7326 14.2271 16.6232 12.5742 18.4659 11.3513C18.8837 11.074 19.0711 10.9147 19.4738 10.7592C19.8766 10.6037 20.285 10.5621 20.5555 10.6037C22.7142 9.55788 27.2036 8.46631 30.9623 8.46631C34.7209 8.46631 38.962 9.62662 41.1206 10.6724C41.4897 10.5766 42.0105 10.6298 42.4536 10.8044C42.8967 10.9789 43.2543 11.1593 43.7435 11.492C45.5201 12.7002 47.3444 14.3131 49.3012 16.5001C51.5423 19.0048 52.9365 21.2156 54.1012 24.9001C55.2659 28.5846 56.2613 31.0824 56.309 32.2824C56.3568 33.4824 55.9273 34.9834 54.1011 35.6783C53.9739 35.7267 53.8333 35.7765 53.6805 35.8272C53.1315 36.0096 52.4251 36.2046 51.6223 36.3924C50.9825 36.542 50.2815 36.6869 49.5502 36.8172C48.9669 36.921 48.3643 37.0155 47.7581 37.0955C47.9016 39.8277 47.9318 42.4044 47.6738 43.7658C47.201 46.2609 46.619 48.1667 45.2265 49.341C44.5226 49.9345 43.6116 50.3412 42.4029 50.5426C42.2961 50.5604 42.1878 50.5772 42.078 50.5929C41.014 50.7453 39.813 50.8031 38.5891 50.8088C37.3625 50.8146 36.1128 50.7682 34.9547 50.7125C33.3666 50.6362 31.9508 50.5426 31.0029 50.5426C30.0683 50.5426 28.676 50.6336 27.115 50.7093C25.9455 50.766 24.6797 50.8141 23.437 50.8089C22.2051 50.8038 20.9958 50.7463 19.9251 50.5929C19.8153 50.5772 19.707 50.5604 19.6002 50.5426C18.3915 50.3412 17.4806 49.9345 16.7767 49.341Z" fill="#E3E0D3"/>
</svg>
