<svg width="63" height="84" viewBox="0 0 63 84" fill="none" xmlns="http://www.w3.org/2000/svg">
<path d="M16.9798 61.1225C15.5872 59.9482 15.0053 58.0425 14.5324 55.5473C14.1271 53.4085 14.4333 44.4509 14.7721 37.1326L12.6729 36.8207C11.9343 36.6896 11.2264 36.5433 10.5809 36.3924C9.77802 36.2046 9.07162 36.0096 8.52266 35.8272C8.36982 35.7765 8.22918 35.7267 8.10206 35.6783C6.2758 34.9834 5.84635 33.4824 5.8941 32.2824C5.94186 31.0824 6.93722 28.5846 8.10194 24.9001C9.26666 21.2156 10.6608 19.0048 12.9019 16.5001C15.0326 14.1188 17.0062 12.4181 18.9321 11.1794C19.2614 10.9676 19.547 10.7997 19.7958 10.7017C20.0446 10.6037 20.4881 10.5621 20.7587 10.6037C22.9173 9.55788 27.4068 8.46631 31.1654 8.46631C34.924 8.46631 39.1651 9.62662 41.3237 10.6724C41.6928 10.5766 42.1849 10.6359 42.5874 10.765C42.9898 10.8941 43.3679 11.1038 43.8114 11.4008C45.6306 12.6187 47.4978 14.2575 49.5043 16.5001C51.7454 19.0048 53.1396 21.2156 54.3043 24.9001C55.469 28.5846 56.4644 31.0824 56.5122 32.2824C56.5599 33.4824 56.1305 34.9834 54.3042 35.6783C54.1771 35.7267 54.0364 35.7765 53.8836 35.8272C53.3346 36.0096 52.6282 36.2046 51.8254 36.3924C51.1856 36.542 50.4847 36.6869 49.7533 36.8172C49.0663 36.9395 48.3534 37.0693 47.6384 37.1572C47.9768 44.471 48.2818 53.4109 47.8769 55.5473C47.4133 57.9937 46.8449 59.8735 45.5103 61.0528C44.7957 61.6843 43.8614 62.1149 42.606 62.3242C42.4993 62.342 42.3909 62.3587 42.2811 62.3744C41.2105 62.5278 40.0011 62.5853 38.7693 62.5905C37.5265 62.5956 36.2608 62.5475 35.0913 62.4908C33.5302 62.4152 32.138 62.3242 31.2034 62.3242C30.2687 62.3242 28.8792 62.4152 27.3181 62.4908C26.1486 62.5475 24.8829 62.5956 23.6401 62.5905C22.4082 62.5853 21.1989 62.5278 20.1282 62.3744C20.0184 62.3587 19.9101 62.342 19.8034 62.3242C18.5947 62.1227 17.6837 61.7161 16.9798 61.1225Z" fill="#E3E0D3"/>
</svg>
