<svg width="63" height="84" viewBox="0 0 63 84" fill="none" xmlns="http://www.w3.org/2000/svg">
<path d="M19.6065 62.3241C18.3978 62.1226 17.4868 61.716 16.7829 61.1224C16.0046 60.4661 15.4795 59.5814 15.0852 58.4929C14.8935 59.8816 14.7449 60.8062 14.6383 61.169C14.1202 62.9318 13.7034 63.8681 12.5034 64.1681C12.3108 64.2162 12.0385 64.2409 11.7133 64.2471C11.0715 64.2595 10.2236 64.2001 9.3758 64.1078C8.62136 64.0257 7.86702 63.9175 7.25807 63.8106C6.73687 63.7192 6.32219 63.6287 6.10514 63.5564C5.85397 63.4726 5.53281 63.3707 5.20028 63.2155C4.3413 62.8144 3.40651 62.0572 3.40651 60.3372C3.40651 57.9512 3.40593 54.9816 3.40651 51.237C3.40709 47.4924 3.76927 42.4385 4.75884 36.4156C5.74842 30.3927 6.36853 27.6859 8.54629 23.1196C10.7241 18.5534 11.5071 17.1 15.4071 13.5C15.7336 13.1986 16.0601 12.914 16.3865 12.6452C16.8058 12.2998 17.2031 12.0242 17.5326 11.8954C17.8621 11.7666 18.2623 11.7312 18.5958 11.8954C22.4009 10.7153 27.5604 10.3154 31.0079 10.3154C34.4621 10.3154 39.6021 10.7168 43.404 11.9024C43.7467 11.7299 44.394 11.8851 45.0105 12.2484C45.6269 12.6117 46.0714 13.0391 46.6054 13.5C50.5055 17.1 51.2884 18.5534 53.4662 23.1196C55.644 27.6859 56.2641 30.3927 57.2537 36.4156C58.2432 42.4385 58.6054 47.4924 58.606 51.237C58.6066 54.9816 58.606 57.9512 58.606 60.3372C58.606 62.0572 57.6712 62.8144 56.8122 63.2155C56.4797 63.3707 56.1585 63.4726 55.9074 63.5564C55.6903 63.6287 55.2756 63.7192 54.7544 63.8106C54.1455 63.9175 53.3911 64.0256 52.6367 64.1078C51.8246 64.1962 51.0124 64.2544 50.3813 64.2483C50.0198 64.2448 49.7177 64.2202 49.5091 64.1681C48.3091 63.8681 47.8923 62.9318 47.3742 61.169C47.2677 60.8068 47.1195 59.8844 46.9282 58.4992C46.5479 59.5467 46.0461 60.4053 45.3134 61.0527C44.5988 61.6842 43.6646 62.1148 42.4091 62.3241C42.3024 62.3419 42.1941 62.3586 42.0843 62.3743C41.0136 62.5277 39.8043 62.5852 38.5724 62.5904C37.3296 62.5955 36.0639 62.5474 34.8944 62.4907C33.3333 62.4151 31.9411 62.3241 31.0065 62.3241C30.0719 62.3241 28.6823 62.4151 27.1212 62.4907C25.9517 62.5474 24.686 62.5955 23.4432 62.5904C22.2113 62.5852 21.002 62.5277 19.9314 62.3743C19.8216 62.3586 19.7132 62.3419 19.6065 62.3241Z" fill="#E3E0D3"/>
</svg>
