<svg width="63" height="84" viewBox="0 0 63 84" fill="none" xmlns="http://www.w3.org/2000/svg">
<path d="M14.201 66.0001C13.7928 63.5959 13.7609 60.6001 13.7609 55.9653C13.7609 52.8932 14.5466 44.6984 14.9459 37.1814C14.8743 37.1734 14.8027 37.1651 14.731 37.1567L12.4698 36.8207C11.7312 36.6896 11.0233 36.5433 10.3777 36.3924C9.57489 36.2046 8.86849 36.0096 8.31953 35.8272C8.16669 35.7765 8.02605 35.7267 7.89894 35.6783C6.07268 34.9834 5.64322 33.4824 5.69098 32.2824C5.73873 31.0824 6.73409 28.5846 7.89882 24.9001C9.06354 21.2156 10.4577 19.0048 12.6988 16.5001C15.1244 13.7891 17.3465 11.9603 19.5263 10.691C19.5263 10.691 20.2641 10.2665 20.6969 10.0788C21.1296 9.89109 21.6222 9.84237 21.7744 9.89109C23.9362 8.87897 27.2605 8.46631 30.9633 8.46631C34.6748 8.46631 38.0436 8.88093 40.205 9.89829C40.3766 9.84158 40.7815 9.91069 41.154 10.0312C41.5264 10.1517 41.6902 10.249 42.1714 10.5184C44.4484 11.793 46.7634 13.6637 49.3012 16.5001C51.5423 19.0048 52.9365 21.2156 54.1012 24.9001C55.2659 28.5846 56.2613 31.0824 56.309 32.2824C56.3568 33.4824 55.9273 34.9834 54.1011 35.6783C53.9739 35.7267 53.8333 35.7765 53.6805 35.8272C53.1315 36.0096 52.4251 36.2046 51.6223 36.3924C50.9825 36.542 50.2815 36.6869 49.5502 36.8172C48.8087 36.9492 47.829 37.0899 47.0573 37.1811C47.4565 44.6981 48.2422 52.8932 48.2422 55.9653C48.2422 60.6001 48.2103 63.5959 47.8022 66.0001C47.5249 67.6329 46.794 69.5387 45.2257 70.7814C44.4849 71.3685 43.5572 71.8076 42.4021 72.0001C42.2954 72.0179 42.1871 72.0346 42.0773 72.0504C41.0066 72.2037 39.7973 72.2612 38.5654 72.2664C37.3278 72.2715 36.0674 72.2239 34.9019 72.1675C33.335 72.0917 31.9397 72.0001 31.0021 72.0001C30.0675 72.0001 28.6768 72.0911 27.1157 72.1668C25.9462 72.2235 24.6805 72.2716 23.4377 72.2664C22.2058 72.2612 20.9965 72.2037 19.9258 72.0504C19.8161 72.0346 19.7077 72.0179 19.601 72.0001C18.4177 71.8029 17.473 71.3468 16.7233 70.738C15.1923 69.4946 14.475 67.614 14.201 66.0001Z" fill="#E3E0D3"/>
</svg>
