<svg width="64" height="84" viewBox="0 0 64 84" fill="none" xmlns="http://www.w3.org/2000/svg">
<path d="M17.5735 61.1224C16.181 59.9481 15.599 58.0424 15.1262 55.5472C14.7209 53.4089 15.0269 44.4545 15.3657 37.137C14.6565 37.0499 13.9485 36.9417 13.2666 36.8206C12.5281 36.6895 11.8202 36.5432 11.1746 36.3923C10.3718 36.2045 9.66537 36.0095 9.11641 35.8272C8.96357 35.7764 8.82293 35.7266 8.69581 35.6782C6.86955 34.9833 6.4401 33.4823 6.48785 32.2823C6.53561 31.0823 7.53097 28.5845 8.69569 24.9C9.86041 21.2155 11.2546 19.0047 13.4957 16.5C14.941 14.8847 16.314 13.5825 17.6489 12.5253C18.0057 12.2428 18.2574 12.0994 18.5634 11.9683C18.8695 11.8371 19.1648 11.8126 19.3823 11.8965C23.1824 10.7155 28.35 10.3154 31.7985 10.3154C35.2533 10.3154 40.3943 10.717 44.1964 11.903C44.4187 11.8156 44.7118 11.8122 45.0171 11.903C45.3224 11.9937 45.5159 12.1889 45.8356 12.4393C47.2048 13.5117 48.6133 14.8406 50.0981 16.5C52.3392 19.0047 53.7333 21.2155 54.8981 24.9C56.0628 28.5845 57.0581 31.0823 57.1059 32.2823C57.1537 33.4823 56.7242 34.9833 54.8979 35.6782C54.7708 35.7266 54.6302 35.7764 54.4773 35.8272C53.9284 36.0095 53.222 36.2045 52.4191 36.3923C51.7794 36.5419 51.0784 36.6868 50.3471 36.8171C49.66 36.9394 48.9462 37.0487 48.2312 37.1366C48.57 44.4542 48.8759 53.4088 48.4707 55.5472C48.0071 57.9936 47.4386 59.8734 46.104 61.0527C45.3894 61.6842 44.4552 62.1148 43.1998 62.3241C43.093 62.3419 42.9847 62.3586 42.8749 62.3743C41.8042 62.5277 40.5949 62.5852 39.363 62.5904C38.1202 62.5955 36.8545 62.5474 35.685 62.4907C34.1239 62.4151 32.7317 62.3241 31.7971 62.3241C30.8625 62.3241 29.4729 62.4151 27.9119 62.4907C26.7424 62.5474 25.4766 62.5955 24.2338 62.5904C23.002 62.5852 21.7927 62.5277 20.722 62.3743C20.6122 62.3586 20.5039 62.3419 20.3971 62.3241C19.1884 62.1226 18.2774 61.716 17.5735 61.1224Z" fill="#E3E0D3"/>
</svg>
