<svg width="64" height="84" viewBox="0 0 64 84" fill="none" xmlns="http://www.w3.org/2000/svg">
<path d="M20.7206 43.1335C20.6108 43.1177 20.5024 43.101 20.3957 43.0832C19.3046 42.9014 18.5486 42.4224 18.0248 41.778C16.6397 52.1825 15.7905 59.9336 15.4274 61.169C14.9093 62.9318 14.4925 63.8681 13.2924 64.1681C13.0999 64.2162 12.8276 64.2409 12.5023 64.2471C11.8605 64.2595 11.0126 64.2001 10.1649 64.1078C9.41042 64.0257 8.65608 63.9175 8.04713 63.8106C7.52593 63.7192 7.11125 63.6287 6.8942 63.5564C6.64303 63.4726 6.32187 63.3707 5.98934 63.2155C5.13037 62.8144 4.19557 62.0572 4.19557 60.3372C4.19557 57.9512 4.19499 54.9816 4.19557 51.237C4.19615 47.4924 4.55833 42.4385 5.54791 36.4156C6.53749 30.3927 7.15759 27.6859 9.33536 23.1196C11.5131 18.5534 12.2961 17.1 16.1961 13.5C16.6483 13.0826 17.1004 12.6975 17.5521 12.3419C17.8457 12.1107 18.1457 11.9751 18.4083 11.8954C18.6709 11.8157 19.0514 11.7312 19.3849 11.8954C23.19 10.7153 28.3495 10.3154 31.7969 10.3154C35.2512 10.3154 40.3911 10.7168 44.193 11.9024C44.5302 11.7327 44.9596 11.766 45.3053 11.9024C45.651 12.0389 45.87 12.2044 46.2263 12.4914C46.6155 12.8048 47.005 13.1404 47.3945 13.5C51.2945 17.1 52.0775 18.5534 54.2553 23.1196C56.433 27.6859 57.0531 30.3927 58.0427 36.4156C59.0323 42.4385 59.3945 47.4924 59.3951 51.237C59.3956 54.9816 59.3951 57.9512 59.3951 60.3372C59.3951 62.0572 58.4603 62.8144 57.6013 63.2155C57.2688 63.3707 56.9476 63.4726 56.6964 63.5564C56.4794 63.6287 56.0647 63.7192 55.5435 63.8106C54.9346 63.9175 54.1802 64.0256 53.4258 64.1078C52.6137 64.1962 51.8014 64.2544 51.1704 64.2483C50.8088 64.2448 50.5067 64.2202 50.2982 64.1681C49.0982 63.8681 48.6813 62.9318 48.1632 61.169C47.8002 59.9338 46.9511 52.1841 45.5663 41.7813C45.0426 42.4241 44.2873 42.9017 43.198 43.0832C43.0913 43.101 42.983 43.1177 42.8732 43.1335C41.8025 43.2868 40.5932 43.3443 39.3613 43.3495C38.1185 43.3547 36.8528 43.3066 35.6833 43.2499C34.1222 43.1742 32.7327 43.0832 31.798 43.0832C30.8634 43.0832 29.4715 43.1742 27.9104 43.2499C26.7409 43.3066 25.4752 43.3547 24.2324 43.3495C23.0006 43.3443 21.7912 43.2868 20.7206 43.1335Z" fill="#E3E0D3"/>
</svg>
