<svg width="64" height="84" viewBox="0 0 64 84" fill="none" xmlns="http://www.w3.org/2000/svg">
<path d="M17.5735 49.341C16.181 48.1667 15.599 46.2609 15.1262 43.7658C14.8682 42.4045 14.8984 39.828 15.0419 37.0959C14.4415 37.0167 13.8447 36.9233 13.2666 36.8207C12.5281 36.6896 11.8202 36.5433 11.1746 36.3924C10.3718 36.2046 9.66537 36.0096 9.11641 35.8272C8.96357 35.7765 8.82293 35.7267 8.69581 35.6783C6.86955 34.9834 6.4401 33.4824 6.48785 32.2824C6.53561 31.0824 7.53097 28.5846 8.69569 24.9001C9.86041 21.2156 11.2546 19.0048 13.4957 16.5001C16.1467 13.5372 18.5546 11.628 20.9299 10.3513C21.3092 10.1475 21.4957 10.0416 21.7483 9.96636C22.0009 9.89109 22.4064 9.83832 22.5713 9.89109C24.7331 8.87897 28.0574 8.46631 31.7602 8.46631C35.4717 8.46631 38.8405 8.88093 41.0018 9.89829C41.1735 9.84158 41.4984 9.89252 41.7838 9.97125C42.0692 10.05 42.2317 10.1213 42.5842 10.3088C44.9854 11.5855 47.4174 13.5041 50.0981 16.5001C52.3392 19.0048 53.7333 21.2156 54.8981 24.9001C56.0628 28.5846 57.0581 31.0824 57.1059 32.2824C57.1537 33.4824 56.7242 34.9834 54.8979 35.6783C54.7708 35.7267 54.6302 35.7765 54.4773 35.8272C53.9284 36.0096 53.222 36.2046 52.4191 36.3924C51.7794 36.542 51.0784 36.6869 50.3471 36.8172C49.7638 36.921 49.1612 37.0155 48.555 37.0955C48.6984 39.8277 48.7287 42.4044 48.4707 43.7658C47.9978 46.2609 47.4159 48.1667 46.0233 49.341C45.3194 49.9345 44.4085 50.3412 43.1998 50.5426C43.093 50.5604 42.9847 50.5772 42.8749 50.5929C41.8109 50.7453 40.6099 50.8031 39.386 50.8088C38.1594 50.8146 36.9097 50.7682 35.7516 50.7125C34.1635 50.6362 32.7476 50.5426 31.7998 50.5426C30.8651 50.5426 29.4729 50.6336 27.9119 50.7093C26.7424 50.766 25.4766 50.8141 24.2338 50.8089C23.002 50.8038 21.7927 50.7463 20.722 50.5929C20.6122 50.5772 20.5039 50.5604 20.3971 50.5426C19.1884 50.3412 18.2774 49.9345 17.5735 49.341Z" fill="#E3E0D3"/>
</svg>
