<svg width="63" height="84" viewBox="0 0 63 84" fill="none" xmlns="http://www.w3.org/2000/svg">
<path d="M16.7767 61.1224C15.3841 59.9481 14.8022 58.0424 14.3293 55.5472C13.924 53.4084 14.2301 44.4508 14.569 37.1325L12.4698 36.8206C11.7312 36.6895 11.0233 36.5432 10.3777 36.3923C9.57489 36.2045 8.86849 36.0095 8.31953 35.8272C8.16669 35.7764 8.02605 35.7266 7.89894 35.6782C6.07268 34.9833 5.64322 33.4823 5.69098 32.2823C5.73873 31.0823 6.73409 28.5845 7.89882 24.9C9.06354 21.2155 10.4577 19.0047 12.6988 16.5C14.3715 14.6305 15.9474 13.1805 17.4795 12.0442C17.6282 11.9339 17.9027 11.8256 18.0664 11.8047C18.207 11.7812 18.3735 11.789 18.5896 11.8954C22.3947 10.7153 27.5542 10.3154 31.0016 10.3154C34.4559 10.3154 39.5958 10.7168 43.3977 11.9024C43.6177 11.7917 43.918 11.8281 44.0781 11.8711C44.2383 11.9141 44.4664 12.0024 44.674 12.159C46.1578 13.2777 47.6843 14.6929 49.3012 16.5C51.5423 19.0047 52.9365 21.2155 54.1012 24.9C55.2659 28.5845 56.2613 31.0823 56.309 32.2823C56.3568 33.4823 55.9273 34.9833 54.1011 35.6782C53.9739 35.7266 53.8333 35.7764 53.6805 35.8272C53.1315 36.0095 52.4251 36.2045 51.6223 36.3923C50.9825 36.5419 50.2815 36.6868 49.5502 36.8171C48.8632 36.9394 48.1493 37.0487 47.4343 37.1366C47.7731 44.4542 48.0791 53.4088 47.6738 55.5472C47.2102 57.9936 46.6417 59.8734 45.3072 61.0527C44.5926 61.6842 43.6583 62.1148 42.4029 62.3241C42.2961 62.3419 42.1878 62.3586 42.078 62.3743C41.0073 62.5277 39.798 62.5852 38.5662 62.5904C37.3234 62.5955 36.0576 62.5474 34.8881 62.4907C33.3271 62.4151 31.9349 62.3241 31.0002 62.3241C30.0656 62.3241 28.676 62.4151 27.115 62.4907C25.9455 62.5474 24.6797 62.5955 23.4369 62.5904C22.2051 62.5852 20.9958 62.5277 19.9251 62.3743C19.8153 62.3586 19.707 62.3419 19.6002 62.3241C18.3915 62.1226 17.4806 61.716 16.7767 61.1224Z" fill="#E3E0D3"/>
</svg>
