<svg width="63" height="54" viewBox="0 0 63 54" fill="none" xmlns="http://www.w3.org/2000/svg">
<path d="M28.9072 44.9423C28.9843 45.8113 29.0609 46.0222 29.0609 48.2318C29.0609 48.2318 29.3633 51.6259 28.5684 51.6259H23.527C22.5956 51.6259 22.2091 50.4459 22.2091 50.4459C22.2091 50.4459 16.9207 51.363 13.727 51.6366C8.6124 52.0746 4.63367 51.6365 3.92557 51.6365C2.95249 51.6365 2.49008 51.6098 2.49008 50.822C2.49008 50.5171 2.52747 50.3651 2.56017 50.2697C2.51357 50.054 2.11011 48.0647 2.88655 47.0289C2.9497 46.9446 3.02061 46.8666 3.10011 46.7961C4.21464 45.8087 7.24665 46.1102 9.44837 45.5504C10.8217 45.2012 11.7618 44.8585 12.5882 44.445C12.2222 44.1749 12.2334 43.8644 12.3541 43.6127C12.5055 43.297 13.4047 42.8536 13.9158 42.5616C14.4269 42.2695 14.7578 42.2773 15.1223 42.4195C15.1854 42.4441 15.2527 42.4742 15.3239 42.5101C15.7875 42.0555 16.2171 41.5865 16.537 41.2548C17.1482 40.621 17.7277 40.6722 18.3254 40.9378C18.8287 41.1614 20.39 42.1877 20.7046 43.3252C21.9155 42.6249 23.3495 41.8597 24.7948 41.6059C26.4341 41.3181 27.7746 41.5077 28.1715 42.1479C28.5684 42.7882 28.8301 44.0734 28.9072 44.9423Z" fill="#E3E0D3"/>
<path d="M33.4612 44.9423C33.3841 45.8113 33.3076 46.0222 33.3076 48.2318C33.3076 48.2318 33.0052 51.6259 33.8 51.6259H38.8414C39.7728 51.6259 40.1594 50.4459 40.1594 50.4459C40.1594 50.4459 45.4477 51.363 48.6415 51.6366C53.756 52.0746 57.7348 51.6365 58.4429 51.6365C59.4159 51.6365 59.8783 51.6098 59.8783 50.822C59.8783 50.5171 59.841 50.3651 59.8083 50.2697C59.8549 50.054 60.2583 48.0647 59.4819 47.0289C59.4187 46.9446 59.3478 46.8666 59.2683 46.7961C58.1538 45.8087 55.1218 46.1102 52.9201 45.5504C51.5468 45.2012 50.6066 44.8585 49.7802 44.445C50.1462 44.1749 50.1351 43.8644 50.0144 43.6127C49.863 43.297 48.9637 42.8536 48.4526 42.5616C47.9416 42.2695 47.6106 42.2773 47.2461 42.4195C47.183 42.4441 47.1157 42.4742 47.0445 42.5101C46.5809 42.0555 46.1513 41.5865 45.8315 41.2548C45.2202 40.621 44.6408 40.6722 44.0431 40.9378C43.5397 41.1614 41.9785 42.1877 41.6638 43.3252C40.453 42.6249 39.0189 41.8597 37.5736 41.6059C35.9343 41.3181 34.5938 41.5077 34.1969 42.1479C33.8 42.7882 33.5383 44.0734 33.4612 44.9423Z" fill="#E3E0D3"/>
</svg>
