<svg width="64" height="54" viewBox="0 0 64 54" fill="none" xmlns="http://www.w3.org/2000/svg">
<path d="M3.70108 44.996C2.64406 45.9324 3.11124 48.2362 3.16163 48.4695C3.12892 48.5649 3.09105 48.7168 3.09105 49.0219C3.09105 49.8096 3.55346 51.6364 4.52654 51.6364C4.8509 51.6364 7.78307 51.8976 10.8965 51.8952C14.58 51.8924 17.4497 51.8053 19.1401 51.6258C20.8304 51.4462 22.2262 50.4137 22.2262 50.4137C22.2262 50.4137 23.1281 51.6258 24.0595 51.6258H28.5734C29.2937 51.6258 29.3801 51.4001 29.5178 50.9951C29.9717 49.6608 29.6618 46.3982 29.6618 46.3982C29.6618 43.4212 28.7999 41.6971 28.5734 41.0481C28.0994 40.204 26.4071 40.3564 24.7686 40.6193C23.3426 40.8481 22.3297 41.2123 21.4077 41.5897C21.0931 40.4522 19.4297 39.3612 18.9263 39.1376C18.3286 38.8721 17.7492 38.8208 17.1379 39.4546C16.8181 39.7863 16.3885 40.2553 15.9249 40.71C15.8537 40.6741 15.7864 40.6439 15.7233 40.6193C15.3588 40.4772 15.0278 40.4694 14.5168 40.7614C14.0057 41.0535 13.1064 41.4968 12.955 41.8126C12.8343 42.0643 12.8232 42.3748 13.1891 42.6448C12.3628 43.0583 11.4226 43.401 10.0493 43.7502C7.84762 44.31 4.81561 44.0085 3.70108 44.996Z" fill="#E3E0D3"/>
<path d="M59.9026 44.9959C60.9596 45.9323 60.4924 48.2361 60.442 48.4694C60.4747 48.5648 60.5126 48.7167 60.5126 49.0217C60.5126 49.8095 60.0502 51.6363 59.0771 51.6363C58.7527 51.6363 55.8206 51.8975 52.7071 51.8951C49.0236 51.8923 46.1539 51.8052 44.4636 51.6257C42.7732 51.4461 41.3775 50.4136 41.3775 50.4136C41.3775 50.4136 40.4756 51.6257 39.5442 51.6257H35.0302C34.3099 51.6257 34.2236 51.4 34.0858 50.995C33.632 49.6607 33.9418 46.3981 33.9418 46.3981C33.9418 43.4211 34.8038 41.6969 35.0302 41.048C35.5042 40.2039 37.1965 40.3563 38.8351 40.6192C40.2611 40.848 41.274 41.2122 42.1959 41.5896C42.5106 40.4521 44.1739 39.3611 44.6773 39.1375C45.275 38.872 45.8545 38.8207 46.4657 39.4545C46.7856 39.7862 47.2152 40.2552 47.6788 40.7099C47.75 40.674 47.8172 40.6438 47.8804 40.6192C48.2449 40.4771 48.5758 40.4693 49.0869 40.7613C49.5979 41.0534 50.4972 41.4967 50.6486 41.8125C50.7693 42.0641 50.7805 42.3747 50.4145 42.6447C51.2409 43.0582 52.181 43.4009 53.5543 43.7501C55.756 44.3099 58.788 44.0084 59.9026 44.9959Z" fill="#E3E0D3"/>
</svg>
