<svg width="63" height="147" viewBox="0 0 63 147" fill="none" xmlns="http://www.w3.org/2000/svg">
<path d="M11.0469 138.6C11.0469 138.6 11.3 124.2 11.9 111.3C12.5 98.3999 12.7991 88.7999 13.4 80.6999C14.0009 72.5999 14.8511 66.2249 15.5628 59.9999C16.2746 53.7749 17.4034 46.6615 17.7059 45.1447C17.7059 45.1447 16.1428 38.6806 16.7876 31.6142C18.8103 27.4676 18.3959 25.3905 18.2598 23.5527C18.1236 21.715 17.3138 19.472 16.811 17.9059L16.9404 17.9074C19.7886 17.9411 26.2372 18.0173 30.996 17.9942C36.3377 18.0201 42.8691 17.9319 45.1874 17.9059C44.6831 19.4747 44.3778 21.1416 44.2993 21.8997C44.2032 22.8281 43.9652 27.4547 46.0141 31.6142C46.6584 38.6798 45.0957 45.1447 45.0957 45.1447C45.3982 46.6615 46.3385 54.1433 47.2372 59.9999C48.1358 65.8565 48.7991 72.5999 49.4 80.6999C50.0009 88.7999 50.3 98.3999 50.9 111.3C51.5 124.2 51.7531 138.6 51.7531 138.6C45.5 139.5 41 140.1 31.4 140.1C21.8 140.1 17.3 139.5 11.0469 138.6Z" fill="#E3E0D3"/>
</svg>
