<svg width="64" height="147" viewBox="0 0 64 147" fill="none" xmlns="http://www.w3.org/2000/svg">
<path d="M11.4375 138.6C11.4375 138.6 11.6906 124.2 12.2906 111.3C12.8906 98.4001 13.1898 88.8001 13.7906 80.7001C14.3915 72.6001 15.3072 66.3848 15.9535 60.0001C16.5997 53.6154 17.7955 46.654 18.0965 45.1449C18.0965 45.1449 16.533 38.681 17.1773 31.6154C19.2262 27.4558 18.9882 22.8283 18.8921 21.8999C18.7601 20.6253 17.8951 16.7816 16.7379 15.1549C15.5808 13.5282 17.0844 12.1524 18.6344 11.255C20.1845 10.3576 20.9187 10.1945 21.653 10.276C23.8116 9.23024 27.9958 8.46631 31.7545 8.46631C35.5131 8.46631 39.7266 9.23024 41.8852 10.276C43.0274 10.0313 43.8024 10.6024 45.1077 11.2958C46.413 11.9893 48.0013 13.5282 46.8441 15.1549C45.687 16.7816 44.8219 20.6253 44.6899 21.8999C44.5938 22.8283 44.3559 27.4558 46.4047 31.6154C47.0491 38.681 45.4863 45.1449 45.4863 45.1449C45.7873 46.654 46.4047 53.2625 47.6278 60.0001C48.8509 66.7377 49.1898 72.6001 49.7906 80.7001C50.3915 88.8001 50.6906 98.4001 51.2906 111.3C51.8906 124.2 52.1438 138.6 52.1438 138.6C45.8906 139.5 41.3906 140.1 31.7906 140.1C22.1906 140.1 17.6906 139.5 11.4375 138.6Z" fill="#E3E0D3"/>
</svg>
