<svg width="64" height="147" viewBox="0 0 64 147" fill="none" xmlns="http://www.w3.org/2000/svg">
<path d="M11.4422 138.6C11.4422 138.6 11.6953 124.2 12.2953 111.3C12.8953 98.4001 13.1945 88.8001 13.7953 80.7001C14.3962 72.6001 15.3776 63.4091 15.8624 60.0001C16.3471 56.5911 17.8019 46.6456 18.1012 45.1449C18.1012 45.1449 17.3767 42.1481 17.1177 38.0051C15.5293 49.5899 13.5266 61.903 13.4296 62.6361C13.3012 63.6062 13.3791 64.1752 12.0419 64.2257C10.7046 64.2761 7.06976 63.822 6.03526 63.5192C5.00076 63.2164 5.20359 62.653 5.20359 61.753C5.20359 60.853 5.79171 49.3949 6.50821 43.5365C7.22471 37.6781 7.56515 32.845 8.23358 28.5002C8.90201 24.1554 9.32261 21.9269 10.9264 18.75C12.5302 15.5731 14.3376 14.1041 16.2194 12.7925C18.1012 11.4808 20.4886 10.5215 21.1388 10.578C23.2974 9.53219 28.0005 8.46631 31.7592 8.46631C35.5178 8.46631 40.1819 9.54529 42.3405 10.5911C43.0246 10.5053 44.4692 10.9069 46.4743 12.1082C48.4794 13.3096 50.1618 15.1721 52.2244 18.1986C54.287 21.2251 54.6894 24.1554 55.3578 28.5002C56.0263 32.845 56.3667 37.6781 57.0832 43.5365C57.7997 49.3949 58.3878 60.853 58.3878 61.753C58.3878 62.653 58.5906 63.2164 57.5561 63.5192C56.5216 63.822 52.8868 64.2761 51.5495 64.2257C50.2123 64.1752 50.2902 63.6062 50.1618 62.6361C50.0648 61.9031 48.0625 49.5927 46.4743 38.009C46.2151 42.15 45.491 45.1449 45.491 45.1449C45.7903 46.6456 46.9813 54.9431 47.6325 60.0001C48.2837 65.0571 49.1945 72.6001 49.7953 80.7001C50.3962 88.8001 50.6953 98.4001 51.2953 111.3C51.8953 124.2 52.1484 138.6 52.1484 138.6C45.8953 139.5 41.3953 140.1 31.7953 140.1C22.1953 140.1 17.6953 139.5 11.4422 138.6Z" fill="#E3E0D3"/>
</svg>
