<svg width="63" height="147" viewBox="0 0 63 147" fill="none" xmlns="http://www.w3.org/2000/svg">
<path d="M10.8516 138.6C10.8516 138.6 11.1047 124.2 11.7047 111.3C12.3047 98.4 12.6038 88.8 13.2047 80.7C13.8055 72.6 14.8023 64.7444 15.3675 60C15.9327 55.2556 17.2175 46.6141 17.5106 45.1448C17.5106 45.1448 15.9475 38.6797 16.5923 31.6134C18.6402 27.4543 18.4023 22.828 18.3062 21.8998C18.1742 20.6252 17.3091 16.7815 16.152 15.1548C14.9948 13.5281 16.1027 12.389 16.8063 11.9998C17.5098 11.6106 18.1243 11.565 18.7956 11.8953C22.5952 10.7152 27.7214 10.3154 31.1687 10.3154C34.6231 10.3154 39.7965 10.7169 43.6038 11.9026C44.2789 11.5627 44.8668 11.7034 45.4335 11.9026C46.0002 12.1017 47.4153 13.5281 46.2582 15.1548C45.101 16.7815 44.236 20.6252 44.104 21.8998C44.0079 22.8282 43.7699 27.4557 45.8188 31.6153C46.4631 38.6809 44.9004 45.1448 44.9004 45.1448C45.1934 46.6141 46.3723 55.2556 47.0419 60C47.7114 64.7444 48.6038 72.6 49.2047 80.7C49.8055 88.8 50.1047 98.4 50.7047 111.3C51.3047 124.2 51.5578 138.6 51.5578 138.6C45.3047 139.5 40.8047 140.1 31.2047 140.1C21.6047 140.1 17.1047 139.5 10.8516 138.6Z" fill="#E3E0D3"/>
</svg>
