<svg width="63" height="147" viewBox="0 0 63 147" fill="none" xmlns="http://www.w3.org/2000/svg">
<path d="M11.0445 138.6C11.0445 138.6 11.2977 124.2 11.8977 111.3C12.4977 98.4 12.7968 88.8 13.3977 80.7C13.9985 72.6 14.942 64.704 15.5605 60C16.179 55.296 17.3964 46.6848 17.7035 45.1448C17.7035 45.1448 16.8734 41.7113 16.6727 37.1138C13.0348 37.5126 10.0444 37.0635 9.082 36.8431C7.9879 36.5926 7.13165 36.4625 7.13281 35.0933C7.13507 32.4485 7.70197 29.1325 8.21889 26.0013L8.22784 25.9471C8.73932 22.8485 9.04438 21.0004 10.5067 18.5459C11.1498 17.4663 13.0892 15.102 15.0329 13.645C16.9765 12.188 18.3173 11.565 18.9885 11.8953C22.7881 10.7152 27.9144 10.3154 31.3617 10.3154C34.8161 10.3154 39.9895 10.7169 43.7968 11.9026C44.4719 11.5627 46.0728 12.3684 47.4949 13.3491C48.917 14.3299 50.9254 16.2001 52.2934 18.5459C53.6613 20.8918 54.0607 22.8485 54.5722 25.9471L54.5811 26.0013C55.098 29.1325 55.6649 32.4485 55.6672 35.0933C55.6684 36.4625 54.8121 36.5926 53.718 36.8431C52.7553 37.0635 49.7635 37.5128 46.1242 37.1135C45.9235 41.7112 45.0933 45.1448 45.0933 45.1448C45.4005 46.6848 46.1242 54.2107 47.2348 60C48.3454 65.7893 48.7968 72.6 49.3977 80.7C49.9985 88.8 50.2977 98.4 50.8977 111.3C51.4977 124.2 51.7508 138.6 51.7508 138.6C45.4977 139.5 40.9977 140.1 31.3977 140.1C21.7977 140.1 17.2977 139.5 11.0445 138.6Z" fill="#E3E0D3"/>
</svg>
