<svg width="63" height="147" viewBox="0 0 63 147" fill="none" xmlns="http://www.w3.org/2000/svg">
<path d="M11.0516 138.238C11.0516 138.238 11.3047 123.838 11.9047 110.938C12.5047 98.0377 12.8038 88.4377 13.4047 80.3377C14.0055 72.2377 14.5356 64.5478 15.2891 58.8971C16.0425 53.2464 17.4273 46.2028 17.7106 44.7825C17.7106 44.7825 16.986 41.7857 16.7271 37.6427C15.1387 49.2275 13.136 61.5406 13.039 62.2737C12.9106 63.2438 12.9885 63.8128 11.6512 63.8633C10.314 63.9137 6.67913 63.4596 5.64464 63.1568C4.61014 62.854 4.81297 62.2906 4.81297 61.3906C4.81297 60.4906 5.40108 49.0325 6.11759 43.1741C6.83409 37.3157 7.17453 32.4826 7.84296 28.1378C8.51139 23.793 9.07287 21.184 10.3256 18.7829C11.5784 16.3818 13.5097 14.4639 15.0235 13.2827C16.5372 12.1015 18.3243 11.2027 18.9956 11.533C22.7952 10.3529 27.9214 9.95312 31.3687 9.95312C34.8231 9.95312 39.9965 10.3546 43.8038 11.5403C44.4789 11.2004 46.2902 11.6974 48.4303 13.2827C50.5704 14.868 51.7188 16.5384 52.9193 19.3571C54.1199 22.1758 54.2988 23.793 54.9672 28.1378C55.6356 32.4826 55.9761 37.3157 56.6926 43.1741C57.4091 49.0325 57.9972 60.4906 57.9972 61.3906C57.9972 62.2906 58.2 62.854 57.1655 63.1568C56.131 63.4596 52.4962 63.9137 51.1589 63.8633C49.8216 63.8128 49.8995 63.2438 49.7712 62.2737C49.6742 61.5407 47.6719 49.2303 46.0836 37.6466C45.8244 41.7876 45.1004 44.7825 45.1004 44.7825C45.3837 46.2028 46.5565 53.9998 47.1215 58.332C47.6866 62.6642 48.8038 72.2377 49.4047 80.3377C50.0055 88.4377 50.3047 98.0377 50.9047 110.938C51.5047 123.838 51.7578 138.238 51.7578 138.238C45.5047 139.138 41.0047 139.738 31.4047 139.738C21.8047 139.738 17.3047 139.138 11.0516 138.238Z" fill="#E3E0D3"/>
</svg>
