<svg width="63" height="147" viewBox="0 0 63 147" fill="none" xmlns="http://www.w3.org/2000/svg">
<path d="M11.0469 138.6C11.0469 138.6 11.3 124.2 11.9 111.3C12.5 98.4 12.7991 88.8 13.4 80.7C14.0009 72.6 14.6659 65.3799 15.5628 60C16.4598 54.6201 17.404 46.6582 17.7059 45.1448C17.7059 45.1448 16.1428 38.6797 16.7876 31.6134C18.8355 27.4543 18.5976 22.828 18.5015 21.8998C18.3695 20.6252 17.5044 16.7815 16.3473 15.1548C15.1901 13.5281 16.0927 12.5899 17.0016 11.9998C17.9105 11.4097 18.6079 11.2962 19.294 11.6884C23.0939 10.5075 27.9155 10.3154 31.364 10.3154C34.8188 10.3154 39.7794 10.5221 43.5815 11.7081C44.1239 11.4949 44.9482 11.584 45.7992 11.9998C46.6503 12.4156 47.6106 13.5281 46.4535 15.1548C45.2964 16.7815 44.4313 20.6252 44.2993 21.8998C44.2032 22.8282 43.9652 27.4557 46.0141 31.6153C46.6584 38.6809 45.0957 45.1448 45.0957 45.1448C45.3975 46.6582 46.408 54.7773 47.2372 60C48.0663 65.2227 48.7991 72.6 49.4 80.7C50.0009 88.8 50.3 98.4 50.9 111.3C51.5 124.2 51.7531 138.6 51.7531 138.6C45.5 139.5 41 140.1 31.4 140.1C21.8 140.1 17.3 139.5 11.0469 138.6Z" fill="#E3E0D3"/>
</svg>
