<svg width="63" height="147" viewBox="0 0 63 147" fill="none" xmlns="http://www.w3.org/2000/svg">
<path d="M11.0516 138.6C11.0516 138.6 11.3047 124.2 11.9047 111.3C12.5047 98.3999 12.8038 88.7999 13.4047 80.6999C14.0055 72.5999 14.9571 65.5778 15.5675 59.9999C16.1779 54.422 17.4029 46.6875 17.7106 45.1448C17.7106 45.1448 16.986 42.148 16.7271 38.0049C15.1387 49.5897 13.136 61.9029 13.039 62.6359C12.9106 63.606 12.9885 64.1751 11.6512 64.2255C10.314 64.276 6.67913 63.8218 5.64464 63.519C4.61014 63.2162 4.81297 62.6528 4.81297 61.7528C4.81297 60.8528 5.40108 49.3948 6.11759 43.5364C6.83409 37.678 7.17453 32.8449 7.84296 28.5001C8.26561 25.7528 9.22832 21.1534 10.4002 19.6671C11.572 18.1808 13.2435 17.8989 16.0281 17.8989C16.1536 17.8989 16.4247 17.9015 16.8157 17.9059C19.133 17.9319 25.6593 18.0201 31.0007 17.9942C36.3424 18.0201 42.8738 17.9319 45.1921 17.9059C45.5831 17.9015 45.8543 17.8989 45.9797 17.8989C48.7643 17.8989 50.9349 18.2841 52.2332 19.6823C53.5316 21.0806 54.031 23.178 54.4805 25.575C54.9299 27.972 55.9761 37.678 56.6926 43.5364C57.4091 49.3948 57.9972 60.8528 57.9972 61.7528C57.9972 62.6528 58.2 63.2162 57.1655 63.519C56.131 63.8218 52.4962 64.276 51.1589 64.2255C49.8216 64.1751 49.8995 63.606 49.7712 62.6359C49.6742 61.9029 47.6719 49.5925 46.0836 38.0089C45.8244 42.1498 45.1004 45.1448 45.1004 45.1448C45.4081 46.6875 46.6577 54.7158 47.2419 59.9999C47.8261 65.2841 48.8038 72.5999 49.4047 80.6999C50.0055 88.7999 50.3047 98.3999 50.9047 111.3C51.5047 124.2 51.7578 138.6 51.7578 138.6C45.5047 139.5 41.0047 140.1 31.4047 140.1C21.8047 140.1 17.3047 139.5 11.0516 138.6Z" fill="#E3E0D3"/>
</svg>
