<svg width="63" height="147" viewBox="0 0 63 147" fill="none" xmlns="http://www.w3.org/2000/svg">
<path d="M10.6406 138.6C10.6406 138.6 10.8938 124.2 11.4938 111.3C12.0938 98.4001 12.3929 88.8001 12.9937 80.7001C13.5946 72.6001 14.4518 65.3518 15.1566 60.0001C15.8614 54.6484 16.988 46.7073 17.2996 45.1449C17.2996 45.1449 15.7366 38.6798 16.3814 31.6135C18.4292 27.4544 18.1913 22.8281 18.0952 21.8999C17.9632 20.6253 17.0982 16.7816 15.941 15.1549C14.7839 13.5282 15.5196 12.966 16.5953 11.9999L17.2989 11.4099C17.1379 10.9681 17.1679 10.4949 17.6842 10.0678C18.3331 9.53098 18.9179 9.15505 19.9508 8.7045C20.9561 8.26604 21.6091 8.84604 22.3798 9.63286C24.5317 8.8082 27.5885 8.46631 30.9588 8.46631C34.3434 8.46631 37.4493 8.8111 39.6027 9.64334C40.3778 8.85121 41.0322 8.26411 42.0418 8.70451C43.0748 9.15506 43.6595 9.53099 44.3085 10.0678C44.8407 10.508 44.8561 10.9974 44.6784 11.4507C44.9884 11.6666 45.2312 11.8546 45.393 11.9999C46.4686 12.966 47.2044 13.5282 46.0473 15.1549C44.8901 16.7816 44.025 20.6253 43.8931 21.8999C43.797 22.8283 43.559 27.4558 45.6079 31.6154C46.2522 38.681 44.6894 45.1449 44.6894 45.1449C45.0011 46.7073 46.0693 54.5652 46.8309 60.0001C47.5926 65.435 48.3929 72.6001 48.9938 80.7001C49.5946 88.8001 49.8938 98.4001 50.4938 111.3C51.0938 124.2 51.3469 138.6 51.3469 138.6C45.0938 139.5 40.5938 140.1 30.9938 140.1C21.3938 140.1 16.8938 139.5 10.6406 138.6Z" fill="#E3E0D3"/>
</svg>
