<svg width="63" height="147" viewBox="0 0 63 147" fill="none" xmlns="http://www.w3.org/2000/svg">
<path d="M10.6406 138.6C10.6406 138.6 10.8938 124.2 11.4938 111.3C12.0938 98.4001 12.3929 88.8001 12.9937 80.7001C13.5946 72.6001 14.3691 65.8772 15.1566 60.0001C15.9441 54.123 16.9937 46.6785 17.2996 45.1449C17.2996 45.1449 15.7366 38.6798 16.3814 31.6135C18.4292 27.4544 18.1913 22.8281 18.0952 21.8999C17.9632 20.6253 17.0982 16.7816 15.941 15.1549C14.7839 13.5282 15.5196 12.966 16.5953 11.9999C16.9848 11.6501 18.3657 10.6185 19.2441 10.2548C20.1226 9.89108 20.9982 9.64427 21.7698 9.89108C23.9316 8.87897 27.2559 8.46631 30.9586 8.46631C34.6701 8.46631 38.0389 8.88092 40.2003 9.89828C40.9777 9.64135 42.4129 10.1699 43.2662 10.5616C44.1194 10.9532 45.0335 11.6771 45.393 11.9999C46.4686 12.966 47.2044 13.5282 46.0473 15.1549C44.8901 16.7816 44.025 20.6253 43.8931 21.8999C43.797 22.8283 43.559 27.4558 45.6079 31.6154C46.2522 38.681 44.6894 45.1449 44.6894 45.1449C44.994 46.6718 45.9602 53.6822 46.8195 59.9176L46.8309 60.0001C47.6931 66.2561 48.3929 72.6001 48.9938 80.7001C49.5946 88.8001 49.8938 98.4001 50.4938 111.3C51.0938 124.2 51.3469 138.6 51.3469 138.6C45.0938 139.5 40.5938 140.1 30.9938 140.1C21.3938 140.1 16.8938 139.5 10.6406 138.6Z" fill="#E3E0D3"/>
</svg>
