<svg width="63" height="147" viewBox="0 0 63 147" fill="none" xmlns="http://www.w3.org/2000/svg">
<path d="M10.8492 138.6C10.8492 138.6 11.1023 124.2 11.7023 111.3C12.3023 98.3999 12.6015 88.7999 13.2023 80.6999C13.8032 72.5999 14.4251 63.5965 15.1128 58.6117C15.8005 53.627 17.1983 46.6988 17.5082 45.1448C17.5082 45.1448 16.6781 41.7113 16.4774 37.1138C12.8395 37.5125 9.8491 37.0634 8.88668 36.8431C7.79259 36.5925 6.93634 36.4624 6.9375 35.0933C6.93976 32.4484 7.50666 29.1325 8.02358 26.0012L8.03252 25.947C8.34032 24.0824 8.51389 23.1116 8.88668 21.9564C9.25856 20.8041 9.71499 20.2516 10.1943 19.6714L10.1978 19.6671C11.3867 18.2279 13.0412 17.8989 15.8258 17.8989C15.9512 17.8989 16.2224 17.9015 16.6134 17.9059C18.9306 17.9319 25.4569 18.0201 30.7983 17.9942C36.14 18.0201 42.6715 17.9319 44.9898 17.9059C45.3808 17.9015 45.6519 17.8989 45.7773 17.8989C48.562 17.8989 50.6558 17.9081 52.0892 19.5523C53.5227 21.1966 53.5227 22.2121 54.3769 25.947C55.231 29.6819 55.4696 32.4484 55.4719 35.0933C55.473 36.4624 54.6168 36.5925 53.5227 36.8431C52.56 37.0635 49.5682 37.5128 45.9289 37.1134C45.7282 41.7111 44.898 45.1448 44.898 45.1448C45.208 46.6988 46.7068 52.7089 47.2935 58.6117C47.8801 64.5145 48.6015 72.5999 49.2023 80.6999C49.8032 88.7999 50.1023 98.3999 50.7023 111.3C51.3023 124.2 51.5555 138.6 51.5555 138.6C45.3023 139.5 40.8023 140.1 31.2023 140.1C21.6023 140.1 17.1023 139.5 10.8492 138.6Z" fill="#E3E0D3"/>
</svg>
