<svg width="63" height="147" viewBox="0 0 63 147" fill="none" xmlns="http://www.w3.org/2000/svg">
<path d="M10.6461 138.6C10.6461 138.6 10.8992 124.2 11.4992 111.3C12.0992 98.4001 12.3984 88.8001 12.9992 80.7001C13.6001 72.6001 14.5676 65.3144 15.1621 60.0001C15.7565 54.6858 16.9978 46.6858 17.3051 45.1449C17.3051 45.1449 16.475 41.7114 16.2742 37.1139C12.6363 37.5127 9.64597 37.0636 8.68356 36.8432C7.58946 36.5927 6.73321 36.4626 6.73438 35.0934C6.73663 32.4486 7.30353 29.1326 7.82045 26.0013L7.8294 25.9472C8.34089 22.8486 8.64595 21.0005 10.1082 18.546C10.8542 17.2938 13.1145 14.6385 15.5318 12.7925C17.9491 10.9464 19.6925 10.5215 20.3427 10.578C22.5013 9.53219 27.2044 8.46631 30.9631 8.46631C34.7217 8.46631 39.3858 9.54529 41.5444 10.5911C42.2285 10.5053 44.0968 11.2673 46.413 12.7925C48.7293 14.3176 50.326 16.0449 51.6322 18.1986C52.9383 20.3523 53.6622 22.8486 54.1737 25.9472L54.1827 26.0013C54.6996 29.1326 55.2665 32.4486 55.2688 35.0934C55.2699 36.4626 54.4137 36.5927 53.3196 36.8432C52.3569 37.0636 49.3651 37.5129 45.7258 37.1136C45.525 41.7113 44.6949 45.1449 44.6949 45.1449C45.0022 46.6858 46.2389 54.5977 46.8364 60.0001C47.4339 65.4025 48.3984 72.6001 48.9992 80.7001C49.6001 88.8001 49.8992 98.4001 50.4992 111.3C51.0992 124.2 51.3523 138.6 51.3523 138.6C45.0992 139.5 40.5992 140.1 30.9992 140.1C21.3992 140.1 16.8992 139.5 10.6461 138.6Z" fill="#E3E0D3"/>
</svg>
