<svg width="64" height="129" viewBox="0 0 64 129" fill="none" xmlns="http://www.w3.org/2000/svg">
<path d="M23.541 56.3311L21.8107 57.2198C21.8107 57.2198 19.3158 56.6342 18.1257 56.3145L16.014 64.3611C16.014 64.3611 6.89946 63.9001 5.99946 63.6001C5.99946 63.6001 5.68832 62.266 5.09894 59.4C4.50956 56.5339 4.03988 54.339 3.43988 51.939C2.83988 49.539 6.59919 37.7608 6.59919 37.7608L10.574 19.7106C10.574 19.7106 14.4407 14.9556 17.2373 12.9358C18.6277 11.9316 21.1967 10.7307 23.4287 9.77683C23.7837 7.90231 24.5117 3.8999 24.5117 3.8999H38.0664L39.1341 9.34027C41.5529 10.3418 44.7509 11.7711 46.3635 12.9358C49.1601 14.9556 53.0268 19.7106 53.0268 19.7106L57.0016 37.7608C57.0016 37.7608 60.7609 49.539 60.1609 51.939C59.5609 54.339 59.0912 56.5339 58.5018 59.4C57.9125 62.266 57.6013 63.6001 57.6013 63.6001C56.7013 63.9001 47.5867 64.3611 47.5867 64.3611L45.4755 56.3161C44.2832 56.636 41.7962 57.2198 41.7962 57.2198L40.0659 56.3311C39.816 56.5302 37.8175 57.2198 37.8175 57.2198C37.3178 57.0576 35.4442 56.3311 35.4442 56.3311C34.7919 56.5302 33.1541 57.2198 33.1541 57.2198L31.8268 56.3311L30.4528 57.2198C30.4528 57.2198 28.8151 56.5302 28.1627 56.3311C28.1627 56.3311 26.2891 57.0576 25.7894 57.2198C25.7894 57.2198 23.7909 56.5302 23.541 56.3311Z" fill="#E3E0D3"/>
</svg>
