<svg width="63" height="129" viewBox="0 0 63 129" fill="none" xmlns="http://www.w3.org/2000/svg">
<path d="M53.8497 116.275L55.6285 109.182L53.3684 86.8739L52.1647 74.9929L51.6832 70.2403L51.0393 64.1197C53.5491 63.9629 56.328 63.7589 56.8044 63.6001C56.8044 63.6001 57.1156 62.266 57.705 59.4C58.2943 56.5339 58.764 54.339 59.364 51.939C59.964 49.539 56.2047 37.7608 56.2047 37.7608L52.23 19.7106C52.23 19.7106 48.3632 14.9556 45.5666 12.9358C43.9851 11.7936 40.8788 10.3968 38.478 9.39869L37.2695 3.8999H31.0068H23.7149C23.7149 3.8999 23.022 7.88728 22.667 9.7618C20.4268 10.718 17.8381 11.9263 16.4404 12.9358C13.6438 14.9556 9.77708 19.7106 9.77708 19.7106L5.80232 37.7608C5.80232 37.7608 2.043 49.539 2.643 51.939C3.243 54.339 3.71269 56.5339 4.30207 59.4C4.89145 62.266 5.20259 63.6001 5.20259 63.6001C5.67948 63.7591 8.46277 63.9632 10.9743 64.1201L10.3305 70.2403L9.849 74.9929L8.6453 86.8739L6.38516 109.182L8.16395 116.275C8.16395 116.275 6.66988 119.618 7.76373 120.171C8.85758 120.723 9.73016 120.171 9.73016 120.171L11.6933 120.936L13.8964 119.868L15.954 120.756L17.9363 119.868L19.8162 120.756L21.5465 119.868C21.7963 120.067 23.7949 120.756 23.7949 120.756C24.2945 120.594 26.1682 119.868 26.1682 119.868C26.8205 120.067 28.4582 120.756 28.4582 120.756L31.0086 119.868L33.5554 120.756C33.5554 120.756 35.1932 120.067 35.8455 119.868C35.8455 119.868 37.7191 120.594 38.2188 120.756C38.2188 120.756 40.2174 120.067 40.4672 119.868L42.1975 120.756L44.0774 119.868L46.0597 120.756L48.1173 119.868L50.3204 120.936L52.2835 120.171C52.2835 120.171 53.1561 120.723 54.25 120.171C55.3438 119.618 53.8497 116.275 53.8497 116.275Z" fill="#E3E0D3"/>
</svg>
