<svg width="63" height="129" viewBox="0 0 63 129" fill="none" xmlns="http://www.w3.org/2000/svg">
<path d="M10.9734 82.1632C10.9734 81.2632 9.17344 78.5632 9.17344 77.0632C9.17344 76.9968 9.23624 76.6868 9.34785 76.1885C9.70238 74.6055 10.5494 71.1213 11.441 67.4993C11.7003 66.4459 11.9633 65.3808 12.2191 64.3475L12.2619 64.1749C9.56215 64.0134 6.12792 63.7783 5.59321 63.6001C5.59321 63.6001 5.28207 62.266 4.69269 59.4C4.10331 56.5339 3.63363 54.339 3.03363 51.939C2.43363 49.539 6.19294 37.7608 6.19294 37.7608L10.1677 19.7106C10.1677 19.7106 14.0344 14.9556 16.8311 12.9358C18.2353 11.9216 20.8416 10.7068 23.0889 9.74846C23.4439 7.87394 24.1055 3.8999 24.1055 3.8999L31.3975 3.89971L37.6601 3.8999L38.7906 9.3663C41.2018 10.3665 44.3586 11.7812 45.9572 12.9358C48.7539 14.9556 52.6206 19.7106 52.6206 19.7106L56.5953 37.7608C56.5953 37.7608 60.3547 49.539 59.7547 51.939C59.1547 54.339 58.685 56.5339 58.0956 59.4C57.5062 62.266 57.1951 63.6001 57.1951 63.6001C56.6608 63.7782 53.2318 64.013 50.5331 64.1745L50.6178 64.517C50.8931 65.6294 51.1761 66.7756 51.4531 67.902C52.3512 71.5537 53.1866 74.9974 53.4956 76.4067C53.5768 76.7772 53.6216 77.0071 53.6216 77.0632C53.6216 78.5632 51.8216 81.2632 51.8216 82.1632C51.8216 83.0632 52.7216 84.2632 52.4216 85.1632C52.1216 86.0632 51.2204 87.5632 51.2204 87.5632C50.9077 87.6914 48.1551 87.8709 46.8456 87.5632C46.3774 87.7484 42.5905 88.6373 42.5905 88.6373L40.8602 87.7486C40.6104 87.9477 38.6118 88.6373 38.6118 88.6373C38.1122 88.4751 36.2385 87.7486 36.2385 87.7486C35.5862 87.9477 33.9485 88.6373 33.9485 88.6373L31.3975 87.7277L28.8465 88.6373C28.8465 88.6373 27.2088 87.9477 26.5565 87.7486C26.5565 87.7486 24.6828 88.4751 24.1832 88.6373C24.1832 88.6373 22.1846 87.9477 21.9348 87.7486L20.2045 88.6373C20.2045 88.6373 16.4176 87.7484 15.9494 87.5632C14.6399 87.8709 11.8873 87.6914 11.5746 87.5632C11.5746 87.5632 10.6734 86.0632 10.3734 85.1632C10.0734 84.2632 10.9734 83.0632 10.9734 82.1632Z" fill="#E3E0D3"/>
</svg>
