<svg width="63" height="147" viewBox="0 0 63 147" fill="none" xmlns="http://www.w3.org/2000/svg">
<path d="M11.3445 88.5001C11.3445 88.5001 12.5013 73.5081 13.4711 67.0211C14.4408 60.5341 16.7912 47.7216 17.3051 45.1449C17.3051 45.1449 16.4867 41.7547 16.293 37.1119C12.6466 37.5142 9.64762 37.064 8.68356 36.8432C7.58946 36.5927 6.73321 36.4626 6.73438 35.0934C6.73663 32.4486 7.30353 29.1326 7.82045 26.0013L7.8294 25.9472C8.34089 22.8486 8.64595 21.0005 10.1082 18.546C10.89 17.2338 13.8911 14.1913 15.8457 12.7925C17.8004 11.3936 19.6925 10.5215 20.3427 10.578C22.5013 9.53219 27.2044 8.46631 30.9631 8.46631C34.7217 8.46631 39.3858 9.54529 41.5444 10.5911C42.2285 10.5053 43.6511 11.2089 45.7346 12.522C47.8182 13.835 51.1487 17.2935 51.8949 18.546C53.3572 21.0005 53.6622 22.8486 54.1737 25.9472L54.1827 26.0013C54.6996 29.1326 55.2665 32.4486 55.2688 35.0934C55.2699 36.4626 54.4137 36.5927 53.3196 36.8432C52.3569 37.0636 49.3651 37.5129 45.7258 37.1136C45.525 41.7113 44.6949 45.1449 44.6949 45.1449C45.2088 47.7216 47.559 61.5584 48.5289 67.0211C49.4988 72.4838 50.6539 88.5001 50.6539 88.5001C50.6539 88.5001 46.2992 90.9001 30.9992 90.9001C15.6992 90.9001 11.3445 88.5001 11.3445 88.5001Z" fill="#E3E0D3"/>
</svg>
