<svg width="63" height="147" viewBox="0 0 63 147" fill="none" xmlns="http://www.w3.org/2000/svg">
<path d="M11.3438 88.5001C11.3438 88.5001 12.4839 73.8499 13.8375 64.2257C15.1912 54.6014 16.7904 47.7216 17.3043 45.1449C17.3043 45.1449 16.5798 42.1481 16.3208 38.0051C14.7325 49.5899 12.7297 61.903 12.6327 62.6361C12.5044 63.6062 12.5823 64.1752 11.245 64.2257C9.90771 64.2761 6.27288 63.822 5.23839 63.5192C4.20389 63.2164 4.40672 62.653 4.40672 61.753C4.40672 60.853 4.99483 49.3949 5.71134 43.5365C6.42784 37.6781 6.76828 32.845 7.43671 28.5002C8.10514 24.1554 9.48219 19.071 11.0713 17.3041C12.0004 16.2709 13.8777 13.8921 16.8282 11.7484C19.7787 9.60464 21.0029 9.64427 21.7745 9.89108C23.9362 8.87897 27.2605 8.46631 30.9633 8.46631C34.6748 8.46631 38.0436 8.88092 40.205 9.89828C40.9824 9.64135 42.874 10.1642 45.3667 12.0973C47.8593 14.0304 49.8619 15.8417 51.6334 18.5274C53.4048 21.2132 53.8925 24.1554 54.561 28.5002C55.2294 32.845 55.5698 37.6781 56.2863 43.5365C57.0028 49.3949 57.5909 60.853 57.5909 61.753C57.5909 62.653 57.7938 63.2164 56.7593 63.5192C55.7248 63.822 52.09 64.2761 50.7527 64.2257C49.4154 64.1752 49.4933 63.6062 49.3649 62.6361C49.2679 61.9031 47.2656 49.5927 45.6774 38.009C45.4182 42.15 44.6941 45.1449 44.6941 45.1449C45.2081 47.7216 46.9054 57.4054 48.0656 64.2257C49.2259 71.0459 50.6531 88.5001 50.6531 88.5001C50.6531 88.5001 46.2984 90.9001 30.9984 90.9001C15.6984 90.9001 11.3438 88.5001 11.3438 88.5001Z" fill="#E3E0D3"/>
</svg>
