<svg width="63" height="147" viewBox="0 0 63 147" fill="none" xmlns="http://www.w3.org/2000/svg">
<path d="M11.5469 88.5C11.5469 88.5 12.5511 74.6301 13.6734 67.021C14.7958 59.4119 16.9935 47.7215 17.5074 45.1448C17.5074 45.1448 16.7829 42.148 16.5239 38.005C14.9356 49.5898 12.9329 61.9029 12.8359 62.636C12.7075 63.6061 12.7854 64.1751 11.4481 64.2256C10.1108 64.276 6.47601 63.8219 5.44151 63.5191C4.40701 63.2163 4.60984 62.6529 4.60984 61.7529C4.60984 60.8529 5.19796 49.3948 5.91446 43.5364C6.63096 37.678 6.9714 32.8449 7.63983 28.5001C8.30826 24.1554 9.11139 21.5102 10.099 19.4551C11.0866 17.4001 12.9111 15.1606 14.2106 14.1287C15.5101 13.0967 18.1212 11.565 18.7924 11.8953C22.592 10.7152 27.7183 10.3154 31.1656 10.3154C34.62 10.3154 39.7934 10.7169 43.6007 11.9026C44.2758 11.5627 46.1165 12.6698 47.3428 13.645C48.5691 14.6203 51.1104 17.4001 52.2422 19.5714C53.374 21.7428 54.0956 24.1554 54.7641 28.5001C55.4325 32.8449 55.7729 37.678 56.4894 43.5364C57.206 49.3948 57.7941 60.8529 57.7941 61.7529C57.7941 62.6529 57.9969 63.2163 56.9624 63.5191C55.9279 63.8219 52.2931 64.276 50.9558 64.2256C49.6185 64.1751 49.6964 63.6061 49.5681 62.636C49.4711 61.903 47.4688 49.5926 45.8805 38.0089C45.6213 42.1499 44.8973 45.1448 44.8973 45.1448C45.4112 47.7215 47.7499 60.0709 48.7313 67.021C49.7126 73.971 50.8563 88.5 50.8563 88.5C50.8563 88.5 46.5016 90.9 31.2016 90.9C15.9016 90.9 11.5469 88.5 11.5469 88.5Z" fill="#E3E0D3"/>
</svg>
