<svg width="63" height="147" viewBox="0 0 63 147" fill="none" xmlns="http://www.w3.org/2000/svg">
<path d="M11.743 88.5C11.743 88.5 12.7683 74.4969 13.8695 67.021C14.9708 59.545 17.1896 47.7215 17.7035 45.1448C17.7035 45.1448 16.8734 41.7113 16.6727 37.1138C13.0348 37.5126 10.0444 37.0635 9.082 36.8431C7.9879 36.5926 7.13165 36.4625 7.13281 35.0933C7.13507 32.4485 7.70197 29.1325 8.21889 26.0013L8.22784 25.9471C8.73932 22.8485 9.04044 20.4529 10.6798 18.0001C12.3191 15.5472 13.1241 14.8684 14.7684 13.645C16.4128 12.4216 18.3173 11.565 18.9885 11.8953C22.7881 10.7152 27.9144 10.3154 31.3617 10.3154C34.8161 10.3154 39.9895 10.7169 43.7968 11.9026C44.4719 11.5627 45.5729 12.0994 46.9872 13.0423C48.4015 13.9851 50.5424 15.9522 52.1302 18.5459C53.718 21.1396 54.0607 22.8485 54.5722 25.9471L54.5811 26.0013C55.098 29.1325 55.6649 32.4485 55.6672 35.0933C55.6684 36.4625 54.8121 36.5926 53.718 36.8431C52.7553 37.0635 49.7635 37.5128 46.1242 37.1135C45.9235 41.7112 45.0933 45.1448 45.0933 45.1448C45.6073 47.7215 47.7507 60.3728 48.9273 67.021C50.104 73.6692 51.0523 88.5 51.0523 88.5C51.0523 88.5 46.6977 90.9 31.3977 90.9C16.0977 90.9 11.743 88.5 11.743 88.5Z" fill="#E3E0D3"/>
</svg>
