<svg width="63" height="147" viewBox="0 0 63 147" fill="none" xmlns="http://www.w3.org/2000/svg">
<path d="M11.3438 88.5001C11.3438 88.5001 12.3622 73.0672 13.4703 67.0211C14.5784 60.9749 16.7904 47.7216 17.3043 45.1449C17.3043 45.1449 16.5798 42.1481 16.3208 38.0051C14.7325 49.5899 12.7297 61.903 12.6327 62.6361C12.5044 63.6062 12.5823 64.1752 11.245 64.2257C9.90771 64.2761 6.27288 63.822 5.23839 63.5192C4.20389 63.2164 4.40672 62.653 4.40672 61.753C4.40672 60.853 4.99483 49.3949 5.71134 43.5365C6.42784 37.6781 6.76828 32.845 7.43671 28.5002C8.10514 24.1554 9.48219 19.071 11.0713 17.3041C11.869 16.417 14.565 14.1924 17.6727 12.0906C17.5953 11.9707 17.5239 11.8543 17.4604 11.7429C17.1593 11.2144 17.0399 10.6046 17.6889 10.0678C18.3378 9.53098 18.9226 9.15505 19.9555 8.7045C20.9607 8.26604 21.6138 8.84604 22.3844 9.63286C24.5364 8.8082 27.5932 8.46631 30.9635 8.46631C34.3481 8.46631 37.454 8.8111 39.6073 9.64334C40.3825 8.85121 41.0368 8.26411 42.0465 8.70451C43.0795 9.15506 43.6642 9.53099 44.3132 10.0678C44.9621 10.6046 44.8428 11.2144 44.5416 11.7429C44.4778 11.8549 44.406 11.9721 44.3281 12.0927C47.4345 14.1939 50.1289 16.4173 50.9264 17.3041C52.5155 19.071 53.8925 24.1554 54.561 28.5002C55.2294 32.845 55.5698 37.6781 56.2863 43.5365C57.0028 49.3949 57.5909 60.853 57.5909 61.753C57.5909 62.653 57.7938 63.2164 56.7593 63.5192C55.7248 63.822 52.09 64.2761 50.7527 64.2257C49.4154 64.1752 49.4933 63.6062 49.3649 62.6361C49.2679 61.9031 47.2656 49.5927 45.6774 38.009C45.4182 42.15 44.6941 45.1449 44.6941 45.1449C45.2081 47.7216 47.6995 60.5596 48.5281 67.0211C49.3567 73.4825 50.6531 88.5001 50.6531 88.5001C50.6531 88.5001 46.2984 90.9001 30.9984 90.9001C15.6984 90.9001 11.3438 88.5001 11.3438 88.5001Z" fill="#E3E0D3"/>
</svg>
