<svg width="64" height="147" viewBox="0 0 64 147" fill="none" xmlns="http://www.w3.org/2000/svg">
<path d="M12.1406 88.5001C12.1406 88.5001 13.5569 73.0167 14.2672 67.0211C14.9775 61.0255 17.5873 47.7216 18.1012 45.1449C18.1012 45.1449 16.5382 38.6798 17.183 31.6135C19.2308 27.4544 18.9929 22.8281 18.8968 21.8999C18.7648 20.6253 17.8997 16.7816 16.7426 15.1549C15.5855 13.5282 17.0062 12.1967 18.4385 11.3873C19.8707 10.578 20.4886 10.5215 21.1388 10.578C23.2974 9.53219 28.0005 8.46631 31.7592 8.46631C35.5178 8.46631 40.1819 9.54529 42.3405 10.5911C43.0246 10.5053 43.9683 10.9833 45.1672 11.6021C46.3662 12.2209 48.006 13.5282 46.8488 15.1549C45.6917 16.7816 44.8266 20.6253 44.6946 21.8999C44.5985 22.8283 44.3605 27.4558 46.4094 31.6154C47.0537 38.681 45.491 45.1449 45.491 45.1449C46.0049 47.7216 47.8701 59.3591 49.325 67.0211C50.7799 74.683 51.45 88.5001 51.45 88.5001C51.45 88.5001 47.0953 90.9001 31.7953 90.9001C16.4953 90.9001 12.1406 88.5001 12.1406 88.5001Z" fill="#E3E0D3"/>
</svg>
