<svg width="63" height="147" viewBox="0 0 63 147" fill="none" xmlns="http://www.w3.org/2000/svg">
<path d="M11.5477 88.4999C11.5477 88.4999 12.2174 77.8027 13.2185 70.1999C14.2195 62.5972 16.9943 47.7215 17.5082 45.1448C17.5082 45.1448 16.6781 41.7113 16.4774 37.1138C12.8395 37.5125 9.8491 37.0634 8.88668 36.8431C7.79259 36.5925 6.93634 36.4624 6.9375 35.0933C6.93976 32.4484 7.50666 29.1325 8.02358 26.0012L8.03252 25.947C8.33913 24.0896 8.48215 23.6069 8.79269 22.5588L8.79632 22.5466C9.10938 21.49 9.71725 20.2489 10.1978 19.6671C11.3867 18.2279 13.0412 17.8989 15.8258 17.8989C15.9512 17.8989 16.2224 17.9015 16.6134 17.9059C18.9306 17.9319 25.4569 18.0201 30.7983 17.9942C36.14 18.0201 42.6715 17.9319 44.9898 17.9059C45.3808 17.9015 45.6519 17.8989 45.7773 17.8989C48.562 17.8989 50.8411 18.217 52.03 19.6561C53.2188 21.0953 53.5227 21.9924 53.8141 23.0735C54.1054 24.1545 54.2225 25.0122 54.3769 25.947L54.3858 26.0012C54.9027 29.1325 55.4696 32.4484 55.4719 35.0933C55.473 36.4624 54.6168 36.5925 53.5227 36.8431C52.56 37.0635 49.5682 37.5128 45.9289 37.1134C45.7282 41.7111 44.898 45.1448 44.898 45.1448C45.412 47.7215 47.8386 61.3459 48.732 67.0209C49.6255 72.696 50.857 88.4999 50.857 88.4999C50.857 88.4999 46.5023 90.8999 31.2023 90.8999C15.9023 90.8999 11.5477 88.4999 11.5477 88.4999Z" fill="#E3E0D3"/>
</svg>
