<svg width="63" height="147" viewBox="0 0 63 147" fill="none" xmlns="http://www.w3.org/2000/svg">
<path d="M11.9375 88.4999C11.9375 88.4999 12.9096 73.6366 14.0641 67.0209C15.2185 60.4053 17.3841 47.7215 17.8981 45.1448C17.8981 45.1448 17.1735 42.148 16.9146 38.0049C15.3262 49.5897 13.3235 61.9029 13.2265 62.6359C13.0981 63.606 13.176 64.1751 11.8387 64.2255C10.5015 64.276 6.86663 63.8218 5.83214 63.519C4.79764 63.2162 5.00047 62.6528 5.00047 61.7528C5.00047 60.8528 5.58858 49.3948 6.30509 43.5364C7.02159 37.678 7.36203 32.8449 8.03046 28.5001C8.45527 25.7388 8.86532 22.2574 10.0285 20.1258C11.1918 17.9942 13.431 17.8989 16.2156 17.8989C16.3411 17.8989 16.6122 17.9015 17.0032 17.9059C19.3205 17.9319 25.8468 18.0201 31.1882 17.9942C36.5299 18.0201 43.0613 17.9319 45.3796 17.9059C45.7706 17.9015 46.0418 17.8989 46.1672 17.8989C48.9518 17.8989 51.0447 18.189 52.2336 19.6282C53.4225 21.0673 53.9131 22.2358 54.3109 23.9596C54.7087 25.6833 54.9099 26.9088 55.1547 28.5001C55.8231 32.8449 56.1636 37.678 56.8801 43.5364C57.5966 49.3948 58.1847 60.8528 58.1847 61.7528C58.1847 62.6528 58.3875 63.2162 57.353 63.519C56.3185 63.8218 52.6837 64.276 51.3464 64.2255C50.0091 64.1751 50.087 63.606 49.9587 62.6359C49.8617 61.9029 47.8594 49.5925 46.2711 38.0089C46.0119 42.1498 45.2879 45.1448 45.2879 45.1448C45.8018 47.7215 48.0827 61.1963 49.1219 67.0209C50.161 72.8455 51.2469 88.4999 51.2469 88.4999C51.2469 88.4999 46.8922 90.8999 31.5922 90.8999C16.2922 90.8999 11.9375 88.4999 11.9375 88.4999Z" fill="#E3E0D3"/>
</svg>
