<svg width="64" height="147" viewBox="0 0 64 147" fill="none" xmlns="http://www.w3.org/2000/svg">
<path d="M12.1406 88.5001C12.1406 88.5001 13.1082 74.8682 14.2672 67.0211C15.4262 59.1739 17.5873 47.7216 18.1012 45.1449C18.1012 45.1449 17.3767 42.1481 17.1177 38.0051C15.5293 49.5899 13.5266 61.903 13.4296 62.6361C13.3012 63.6062 13.3791 64.1752 12.0419 64.2257C10.7046 64.2761 7.06976 63.822 6.03526 63.5192C5.00076 63.2164 5.20359 62.653 5.20359 61.753C5.20359 60.853 5.79171 49.3949 6.50821 43.5365C7.22471 37.6781 7.56515 32.845 8.23358 28.5002C8.90201 24.1554 10.2791 19.071 11.8682 17.3041C12.7103 16.3677 15.063 14.2812 17.0499 12.7925C19.0369 11.3038 19.8067 10.6992 21.1388 10.578C23.2974 9.53219 28.0005 8.46631 31.7592 8.46631C35.5178 8.46631 40.1819 9.54529 42.3405 10.5911C43.0246 10.5053 44.722 10.68 47.3318 12.7925C49.9416 14.9049 51.6815 17.1341 52.8233 19.2002C53.9651 21.2663 54.6894 24.1554 55.3578 28.5002C56.0263 32.845 56.3667 37.6781 57.0832 43.5365C57.7997 49.3949 58.3878 60.853 58.3878 61.753C58.3878 62.653 58.5906 63.2164 57.5561 63.5192C56.5216 63.822 52.8868 64.2761 51.5495 64.2257C50.2123 64.1752 50.2902 63.6062 50.1618 62.6361C50.0648 61.9031 48.0625 49.5927 46.4743 38.009C46.2151 42.15 45.491 45.1449 45.491 45.1449C46.0049 47.7216 48.449 61.753 49.325 67.0211C50.201 72.2892 51.45 88.5001 51.45 88.5001C51.45 88.5001 47.0953 90.9001 31.7953 90.9001C16.4953 90.9001 12.1406 88.5001 12.1406 88.5001Z" fill="#E3E0D3"/>
</svg>
