<svg width="64" height="147" viewBox="0 0 64 147" fill="none" xmlns="http://www.w3.org/2000/svg">
<path d="M12.1414 88.5001C12.1414 88.5001 13.046 74.5893 14.268 67.0211C15.4899 59.4529 17.588 47.7216 18.102 45.1449C18.102 45.1449 17.2719 41.7114 17.0711 37.1139C13.4332 37.5127 10.4428 37.0636 9.48043 36.8432C8.38634 36.5927 7.53009 36.4626 7.53125 35.0934C7.53351 32.4486 8.10041 29.1326 8.61733 26.0013L8.62627 25.9472C9.13776 22.8486 9.44282 21.0005 10.9051 18.546C11.6797 17.2457 14.9116 14.5379 18.4988 12.1345C18.4104 11.9991 18.3292 11.8678 18.2581 11.7429C17.957 11.2144 17.8376 10.6046 18.4865 10.0678C19.1355 9.53098 19.7202 9.15505 20.7532 8.7045C21.7584 8.26604 22.4115 8.84604 23.1821 9.63286C25.3341 8.8082 28.3908 8.46631 31.7612 8.46631C35.1458 8.46631 38.2516 8.8111 40.405 9.64334C41.1801 8.85121 41.8345 8.26411 42.8442 8.70451C43.8771 9.15506 44.4619 9.53099 45.1108 10.0678C45.7598 10.6046 45.6404 11.2144 45.3393 11.7429C45.2681 11.8678 45.1869 11.9992 45.0985 12.1347C48.6854 14.5381 51.9172 17.2457 52.6918 18.546C54.1541 21.0005 54.4591 22.8486 54.9706 25.9472L54.9795 26.0013C55.4965 29.1326 56.0634 32.4486 56.0656 35.0934C56.0668 36.4626 55.2105 36.5927 54.1164 36.8432C53.1538 37.0636 50.162 37.5129 46.5227 37.1136C46.3219 41.7113 45.4918 45.1449 45.4918 45.1449C46.0057 47.7216 48.215 60.0107 49.3258 67.0211C50.4366 74.0315 51.4508 88.5001 51.4508 88.5001C51.4508 88.5001 47.0961 90.9001 31.7961 90.9001C16.4961 90.9001 12.1414 88.5001 12.1414 88.5001Z" fill="#E3E0D3"/>
</svg>
