<svg width="63" height="147" viewBox="0 0 63 147" fill="none" xmlns="http://www.w3.org/2000/svg">
<path d="M11.3438 88.5001C11.3438 88.5001 12.268 75.2655 13.4703 67.0211C14.6727 58.7767 16.7904 47.7216 17.3043 45.1449C17.3043 45.1449 15.7413 38.6798 16.3861 31.6135C16.4045 31.576 16.4228 31.5385 16.4409 31.5009C18.4296 27.3713 18.1951 22.8198 18.0999 21.8999C17.9679 20.6253 17.1029 16.7816 15.9457 15.1549C14.7886 13.5282 15.5243 12.966 16.6 11.9999C16.7624 11.8541 17.0064 11.6652 17.3181 11.4483C17.1413 10.9956 17.1576 10.5073 17.6889 10.0678C18.3378 9.53098 18.9226 9.15505 19.9555 8.7045C20.9607 8.26604 21.6138 8.84604 22.3844 9.63286C24.5364 8.8082 27.5932 8.46631 30.9635 8.46631C34.3481 8.46631 37.454 8.8111 39.6073 9.64334C40.3825 8.85121 41.0368 8.26411 42.0465 8.70451C43.0795 9.15506 43.6642 9.53099 44.3132 10.0678C44.8454 10.508 44.8608 10.9974 44.683 11.4507C44.9931 11.6666 45.2359 11.8546 45.3976 11.9999C46.4733 12.966 47.2091 13.5282 46.0519 15.1549C44.8948 16.7816 44.0297 20.6253 43.8978 21.8999C43.8016 22.8283 43.5637 27.4558 45.6125 31.6154C46.2569 38.681 44.6941 45.1449 44.6941 45.1449C45.2081 47.7216 47.1629 59.0066 48.5281 67.0211C49.8933 75.0356 50.6531 88.5001 50.6531 88.5001C50.6531 88.5001 46.2984 90.9001 30.9984 90.9001C15.6984 90.9001 11.3438 88.5001 11.3438 88.5001Z" fill="#E3E0D3"/>
</svg>
