<svg width="63" height="147" viewBox="0 0 63 147" fill="none" xmlns="http://www.w3.org/2000/svg">
<path d="M11.75 88.5C11.75 88.5 13.0289 72.1502 13.8766 67.021C14.7242 61.8918 17.1966 47.7215 17.7106 45.1448C17.7106 45.1448 16.1475 38.6797 16.7923 31.6134C18.8402 27.4543 18.6023 22.828 18.5062 21.8998C18.3742 20.6252 17.5091 16.7815 16.352 15.1548C15.1948 13.5281 16.0436 12.7935 16.7674 12.2187C17.4911 11.644 18.1388 11.5676 18.9917 11.8965C22.7917 10.7155 27.9202 10.3154 31.3687 10.3154C34.8235 10.3154 40.0037 10.717 43.8057 11.903C44.6628 11.5662 45.3802 11.9097 45.9944 12.2054C46.6085 12.5011 47.6153 13.5281 46.4582 15.1548C45.301 16.7815 44.436 20.6252 44.304 21.8998C44.2079 22.8282 43.9699 27.4557 46.0188 31.6153C46.6631 38.6809 45.1004 45.1448 45.1004 45.1448C45.6143 47.7215 47.9682 61.2749 48.9344 67.021C49.9006 72.7671 51.0594 88.5 51.0594 88.5C51.0594 88.5 46.7047 90.9 31.4047 90.9C16.1047 90.9 11.75 88.5 11.75 88.5Z" fill="#E3E0D3"/>
</svg>
