<svg width="63" height="147" viewBox="0 0 63 147" fill="none" xmlns="http://www.w3.org/2000/svg">
<path d="M11.75 88.5001C11.75 88.5001 12.8652 73.896 13.8766 67.0211C14.8879 60.1462 17.1966 47.7217 17.7106 45.145C17.7106 45.145 16.1475 38.6798 16.7923 31.6135C18.8402 27.4544 18.548 24.4602 18.2635 22.6725C17.9791 20.8848 17.3185 19.4723 16.8157 17.9061L45.2248 17.9058C44.7204 19.4746 44.3825 21.1418 44.304 21.8999C44.2079 22.8283 43.9699 27.4559 46.0188 31.6154C46.6631 38.681 45.1004 45.145 45.1004 45.145C45.6143 47.7217 47.8942 60.2235 48.9344 67.0211C49.9745 73.8187 51.0594 88.5001 51.0594 88.5001C51.0594 88.5001 46.7047 90.9001 31.4047 90.9001C16.1047 90.9001 11.75 88.5001 11.75 88.5001Z" fill="#E3E0D3"/>
</svg>
