<svg width="64" height="84" viewBox="0 0 64 84" fill="none" xmlns="http://www.w3.org/2000/svg">
<path d="M20.4845 50.5449C17.9027 50.0578 15.3706 48.5425 17.504 42.4728C17.2097 41.6725 16.6165 40.0236 16.5632 36.6785C13.3394 36.4996 9.35493 36.8896 8.28156 36.8434C6.9645 36.7868 6.29839 36.0001 6.34615 34.8001C6.3939 33.6001 6.89863 32.4001 7.4984 31.5001C7.4984 29.4001 7.96735 27.0944 8.6984 24.9001C9.8144 21.5504 11.2573 19.0048 13.4984 16.5001C15.2111 14.5859 16.8223 13.1115 18.3889 11.9633C18.3421 11.8881 18.2981 11.8144 18.2573 11.7429C17.9562 11.2144 17.8368 10.6046 18.4857 10.0678C19.1347 9.53098 19.7194 9.15505 20.7524 8.7045C21.7576 8.26604 22.4107 8.84604 23.1813 9.63286C25.3333 8.8082 28.3901 8.46631 31.7604 8.46631C35.145 8.46631 38.2509 8.8111 40.4042 9.64334C41.1793 8.85121 41.8337 8.26411 42.8434 8.70451C43.8764 9.15506 44.4611 9.53099 45.11 10.0678C45.759 10.6046 45.6396 11.2144 45.3385 11.7429C45.2976 11.8148 45.2533 11.8887 45.2063 11.9644C46.7724 13.1124 48.3832 14.5865 50.0954 16.5001C52.3365 19.0048 53.7794 21.5504 54.8953 24.9001C55.6264 27.0944 56.0953 29.4001 56.0953 31.5001C56.6951 32.4001 57.1998 33.6001 57.2476 34.8001C57.2954 36.0001 56.6292 36.7868 55.3122 36.8434C54.2392 36.8896 50.2569 36.4999 47.0336 36.6784C46.9804 40.0236 46.3871 41.6725 46.0929 42.4728C48.2262 48.5425 45.6941 50.0578 43.1123 50.5449C41.3716 50.8733 36.7063 50.9908 31.7305 50.2803C26.7761 50.9821 22.2187 50.8721 20.4845 50.5449Z" fill="#E3E0D3"/>
</svg>
