<svg width="63" height="84" viewBox="0 0 63 84" fill="none" xmlns="http://www.w3.org/2000/svg">
<path d="M20.7068 43.5001C17.7067 43.2001 17.0354 41.1001 16.8068 38.7001C16.7574 38.1815 16.7467 37.5089 16.7686 36.7367C13.4402 36.4306 8.85193 36.8935 7.68781 36.8434C6.37075 36.7868 5.70464 36.0001 5.7524 34.8001C5.80015 33.6001 6.30488 32.4001 6.90465 31.5001C6.90465 29.4001 7.3736 27.0944 8.10465 24.9001C9.22065 21.5504 10.6635 19.0048 12.9046 16.5001C14.6174 14.5859 16.2286 13.1115 17.7951 11.9633C17.7483 11.8881 17.7043 11.8144 17.6636 11.7429C17.3624 11.2144 17.2431 10.6046 17.892 10.0678C18.5409 9.53098 19.1257 9.15505 20.1586 8.7045C21.1639 8.26604 21.8169 8.84604 22.5876 9.63286C24.7395 8.8082 27.7963 8.46631 31.1666 8.46631C34.5512 8.46631 37.6571 8.8111 39.8105 9.64334C40.5856 8.85121 41.24 8.26411 42.2496 8.70451C43.2826 9.15506 43.8674 9.53099 44.5163 10.0678C45.1652 10.6046 45.0459 11.2144 44.7447 11.7429C44.7038 11.8148 44.6596 11.8887 44.6125 11.9644C46.1786 13.1124 47.7894 14.5865 49.5016 16.5001C51.7427 19.0048 53.1856 21.5504 54.3016 24.9001C55.0327 27.0944 55.5016 29.4001 55.5016 31.5001C56.1014 32.4001 56.6061 33.6001 56.6539 34.8001C56.7016 36.0001 56.0355 36.7868 54.7184 36.8434C53.5547 36.8935 48.9689 36.4309 45.6407 36.7364C45.6627 37.5088 45.652 38.1815 45.6026 38.7001C45.374 41.1001 44.7027 43.2001 41.7026 43.5001C39.7082 43.6995 35.6387 43.832 31.0774 43.1496C26.571 43.8107 22.6823 43.6976 20.7068 43.5001Z" fill="#E3E0D3"/>
</svg>
