<svg width="64" height="84" viewBox="0 0 64 84" fill="none" xmlns="http://www.w3.org/2000/svg">
<path d="M31.7289 50.2803C36.7047 50.9908 41.3701 50.8733 43.1107 50.5449C44.2726 50.3257 45.4245 49.8982 46.1455 48.9412C46.5673 52.4107 47.2949 55.533 48.8952 58.2001C48.5953 59.4 48.2953 60.9001 48.2953 62.1001C48.2953 63.3001 48.5953 63.9001 49.7953 64.2001C50.9953 64.5001 56.6953 64.2001 57.5953 63.9001C58.4953 63.6001 59.0953 63.0001 59.0953 62.1001C59.0953 61.2001 58.9332 60.1872 58.4952 59.4C58.8209 58.2057 59.0952 54.3 58.7952 50.7C58.4952 47.1 58.1676 43.8042 57.5952 41.4C56.0952 35.1 56.6952 32.4001 54.8952 25.5001C53.9664 21.9398 51.2952 17.1001 47.3952 13.5001C46.6991 12.8576 46.0031 12.2916 45.3088 11.7917L45.3369 11.7429C45.6381 11.2144 45.7574 10.6046 45.1085 10.0678C44.4595 9.53099 43.8748 9.15506 42.8418 8.70451C41.8322 8.26411 41.1778 8.85121 40.4027 9.64334C38.2493 8.8111 35.1434 8.46631 31.7588 8.46631C28.3885 8.46631 25.3317 8.8082 23.1798 9.63286C22.4091 8.84604 21.7561 8.26604 20.7508 8.7045C19.7179 9.15505 19.1331 9.53098 18.4842 10.0678C17.8352 10.6046 17.9546 11.2144 18.2558 11.7429L18.2826 11.7895C17.5872 12.2899 16.8902 12.8567 16.1931 13.5001C12.2931 17.1001 9.6219 21.9398 8.69313 25.5001C6.89313 32.4001 7.49313 35.1 5.99313 41.4C5.42068 43.8042 5.09313 47.1 4.79313 50.7C4.49313 54.3 4.76742 58.2057 5.09313 59.4C4.65506 60.1872 4.79312 61.2001 4.79312 62.1001C4.79312 63.0001 5.09298 63.6001 5.99298 63.9001C6.89298 64.2001 12.593 64.5001 13.793 64.2001C14.993 63.9001 15.293 63.3001 15.293 62.1001C15.293 60.9001 14.993 59.4 14.6931 58.2001C16.2943 55.5314 17.0219 52.407 17.4435 48.935C18.1643 49.8964 19.3186 50.3252 20.483 50.5449C22.2172 50.8721 26.7745 50.9821 31.7289 50.2803Z" fill="#E3E0D3"/>
</svg>
