<svg width="63" height="84" viewBox="0 0 63 84" fill="none" xmlns="http://www.w3.org/2000/svg">
<path d="M14.9053 55.5001C14.415 52.0981 13.7052 48.065 14.9052 42.6001C15.2069 41.2261 15.4628 39.0704 15.6602 36.655C12.5393 36.5393 8.90807 36.8872 7.89094 36.8434C6.57388 36.7868 5.90777 36.0001 5.95552 34.8001C6.00328 33.6001 6.50801 32.4001 7.10778 31.5001C7.10778 29.4001 7.57672 27.0944 8.30778 24.9001C9.42377 21.5504 10.8667 19.0048 13.1078 16.5001C14.8205 14.5859 16.4317 13.1115 17.9982 11.9633C17.9515 11.8881 17.9074 11.8144 17.8667 11.7429C17.5655 11.2144 17.4462 10.6046 18.0951 10.0678C18.7441 9.53098 19.3288 9.15505 20.3618 8.7045C21.367 8.26604 22.02 8.84604 22.7907 9.63286C24.9426 8.8082 27.9994 8.46631 31.3698 8.46631C34.7544 8.46631 37.8602 8.8111 40.0136 9.64334C40.7887 8.85121 41.4431 8.26411 42.4528 8.70451C43.4857 9.15506 44.0705 9.53099 44.7194 10.0678C45.3684 10.6046 45.249 11.2144 44.9479 11.7429C44.9069 11.8148 44.8627 11.8887 44.8157 11.9644C46.3818 13.1124 47.9925 14.5865 49.7048 16.5001C51.9458 19.0048 53.3887 21.5504 54.5047 24.9001C55.2358 27.0944 55.7047 29.4001 55.7047 31.5001C56.3045 32.4001 56.8092 33.6001 56.857 34.8001C56.9047 36.0001 56.2386 36.7868 54.9216 36.8434C53.8652 36.8889 49.9895 36.5119 46.794 36.6704C46.8639 39.0796 47.0073 41.229 47.3084 42.6001C48.5084 48.065 47.7986 52.0981 47.3083 55.5001C47.7971 56.9666 48.3433 59.4001 48.1259 60.6001C47.9084 61.8001 47.0084 62.4001 46.1084 62.4767C45.2084 62.5534 36.4093 62.1691 33.5467 61.334C26.5517 62.4786 17.8552 62.6556 16.7055 62.5096C15.2055 62.3192 14.1357 61.8001 14.0706 60.3001C14.0055 58.8001 14.4375 56.9034 14.9053 55.5001Z" fill="#E3E0D3"/>
</svg>
