<svg width="63" height="84" viewBox="0 0 63 84" fill="none" xmlns="http://www.w3.org/2000/svg">
<path d="M14.5018 65.1001C14.0115 61.6981 12.7015 60.9001 13.9018 52.2001C14.573 47.3348 14.6652 41.6196 14.625 36.6378C11.6613 36.5839 8.43414 36.8843 7.48469 36.8434C6.16763 36.7868 5.50152 36.0001 5.54927 34.8001C5.59703 33.6001 6.10176 32.4001 6.70153 31.5001C6.70153 29.4001 7.17047 27.0944 7.90153 24.9001C9.01752 21.5504 10.4604 19.0048 12.7015 16.5001C14.4142 14.5859 16.0255 13.1115 17.592 11.9633C17.5452 11.8881 17.5012 11.8144 17.4604 11.7429C17.1593 11.2144 17.0399 10.6046 17.6889 10.0678C18.3378 9.53098 18.9226 9.15505 19.9555 8.7045C20.9607 8.26604 21.6138 8.84604 22.3844 9.63286C24.5364 8.8082 27.5932 8.46631 30.9635 8.46631C34.3481 8.46631 37.454 8.8111 39.6073 9.64334C40.3825 8.85121 41.0368 8.26411 42.0465 8.70451C43.0795 9.15506 43.6642 9.53099 44.3132 10.0678C44.9621 10.6046 44.8428 11.2144 44.5416 11.7429C44.5007 11.8148 44.4564 11.8887 44.4094 11.9644C45.9755 13.1124 47.5863 14.5865 49.2985 16.5001C51.5396 19.0048 52.9825 21.5504 54.0985 24.9001C54.8295 27.0944 55.2985 29.4001 55.2985 31.5001C55.8982 32.4001 56.403 33.6001 56.4507 34.8001C56.4985 36.0001 55.8324 36.7868 54.5153 36.8434C53.5662 36.8843 50.3409 36.5841 47.3781 36.6377C47.3379 41.6196 47.4301 47.3348 48.1014 52.2001C49.3016 60.9001 47.9916 61.6981 47.5013 65.1001C47.9471 66.4376 48.4013 68.1001 48.3465 69.6001C48.2917 71.1001 47.2013 72.0001 45.7013 72.1096C44.2013 72.2192 33.9936 71.9942 30.0609 71.3681C23.8124 72.1227 17.287 72.2347 16.3019 72.1096C14.8019 71.9192 13.9019 71.4001 13.6761 70.0702C13.4503 68.7403 14.022 66.5395 14.5018 65.1001Z" fill="#E3E0D3"/>
</svg>
