<svg width="63" height="84" viewBox="0 0 63 84" fill="none" xmlns="http://www.w3.org/2000/svg">
<path d="M33.5373 61.334C36.3999 62.1691 45.199 62.5534 46.099 62.4767C46.8442 62.4133 47.5893 61.9911 47.9471 61.1666C47.9151 61.49 47.8969 61.8042 47.8969 62.1001C47.8969 63.3001 48.1969 63.9001 49.3969 64.2001C50.5969 64.5001 56.2969 64.2001 57.1969 63.9001C58.0969 63.6001 58.6969 63.0001 58.6969 62.1001C58.6969 61.2001 58.5348 60.1872 58.0967 59.4C58.4224 58.2057 58.6967 54.3 58.3967 50.7C58.0967 47.1 57.7692 43.8042 57.1967 41.4C55.6967 35.1 56.2967 32.4001 54.4967 25.5001C53.568 21.9398 50.8967 17.1001 46.9967 13.5001C46.3007 12.8576 45.6047 12.2916 44.9104 11.7917L44.9385 11.7429C45.2396 11.2144 45.359 10.6046 44.71 10.0678C44.0611 9.53099 43.4764 9.15506 42.4434 8.70451C41.4337 8.26411 40.7793 8.85121 40.0042 9.64334C37.8509 8.8111 34.745 8.46631 31.3604 8.46631C27.9901 8.46631 24.9333 8.8082 22.7813 9.63286C22.0107 8.84604 21.3576 8.26604 20.3524 8.7045C19.3194 9.15505 18.7347 9.53098 18.0857 10.0678C17.4368 10.6046 17.5562 11.2144 17.8573 11.7429L17.8841 11.7895C17.1888 12.2899 16.4918 12.8567 15.7947 13.5001C11.8947 17.1001 9.22346 21.9398 8.2947 25.5001C6.4947 32.4001 7.0947 35.1 5.59469 41.4C5.02225 43.8042 4.69469 47.1 4.39469 50.7C4.09469 54.3 4.36899 58.2057 4.6947 59.4C4.25662 60.1872 4.39468 61.2001 4.39468 62.1001C4.39468 63.0001 4.69454 63.6001 5.59454 63.9001C6.49454 64.2001 12.1945 64.5001 13.3945 64.2001C14.5945 63.9001 14.8945 63.3001 14.8945 62.1001C14.8945 62.045 14.8939 61.9894 14.8927 61.9331C15.3513 62.25 15.9738 62.4179 16.6961 62.5096C17.8458 62.6556 26.5423 62.4786 33.5373 61.334Z" fill="#E3E0D3"/>
</svg>
