<svg width="58" height="54" viewBox="0 0 58 54" fill="none" xmlns="http://www.w3.org/2000/svg">
<path d="M26.6645 45.3143C26.7738 46.9477 26.6645 48.8191 26.6645 48.8191C26.6645 48.8191 26.9669 51.6258 26.1721 51.6258H21.1307C21.1307 51.6258 18.2033 50.8015 16.4559 51.0345C14.7084 51.2675 12.8379 51.5073 11.3306 51.6364C6.21607 52.0745 3.44468 51.8451 2.27101 51.775C1.09735 51.705 0.09375 51.6096 0.09375 50.8219C0.09375 50.1917 0.196063 49.8375 0.196063 49.8375C0.196063 49.8375 -0.350981 46.4222 1.91735 45.3143C4.18568 44.2065 5.82268 45.293 8.02439 44.7332C10.2261 44.1733 11.7734 42.2248 13.3632 39.5034C14.9531 36.7819 13.0498 6.05276 13.0719 5.36782C13.094 4.68288 13.1643 4.07838 14.3097 3.95345C14.6384 3.9176 23.4629 3.95339 24.5239 3.95339C25.5849 3.95339 26.0622 4.05126 26.1721 5.00319C26.2659 5.81638 26.3599 32.7997 26.5552 42.2347C26.5885 43.8444 26.5552 43.681 26.6645 45.3143Z" fill="#E3E0D3"/>
<path d="M30.9253 45.3143C30.816 46.9477 30.9253 48.8191 30.9253 48.8191C30.9253 48.8191 30.6229 51.6258 31.4178 51.6258H36.4591C36.4591 51.6258 39.3865 50.8015 41.134 51.0345C42.8814 51.2675 44.7519 51.5073 46.2592 51.6364C51.3738 52.0745 54.1452 51.8451 55.3188 51.775C56.4925 51.705 57.4961 51.6096 57.4961 50.8219C57.4961 50.1917 57.3938 49.8375 57.3938 49.8375C57.3938 49.8375 57.9408 46.4222 55.6725 45.3143C53.4042 44.2065 51.7672 45.293 49.5655 44.7332C47.3637 44.1733 45.8164 42.2248 44.2266 39.5034C42.6368 36.7819 44.5401 6.05276 44.518 5.36782C44.4959 4.68288 44.4255 4.07838 43.2802 3.95345C42.9514 3.9176 34.1269 3.95339 33.0659 3.95339C32.0049 3.95339 31.5276 4.05126 31.4178 5.00319C31.3239 5.81638 31.2299 32.7997 31.0346 42.2347C31.0013 43.8444 31.0346 43.681 30.9253 45.3143Z" fill="#E3E0D3"/>
</svg>
