<svg width="58" height="54" viewBox="0 0 58 54" fill="none" xmlns="http://www.w3.org/2000/svg">
<path d="M26.6645 45.3144C26.7738 46.9477 26.6645 48.8191 26.6645 48.8191C26.6645 48.8191 26.9669 51.6258 26.1721 51.6258H21.1307C21.1307 51.6258 18.2033 50.8015 16.4559 51.0345C14.7084 51.2675 12.8379 51.5074 11.3306 51.6365C6.21607 52.0745 3.44468 51.8451 2.27101 51.7751C1.09735 51.705 0.09375 51.6097 0.09375 50.8219C0.09375 50.1918 0.196063 49.8375 0.196063 49.8375C0.196063 49.8375 -0.350981 46.4223 1.91735 45.3144C4.18568 44.2065 5.82268 45.2931 8.02439 44.7332C10.2261 44.1734 12.7917 42.9141 14.1211 40.4873C15.4505 38.0605 15.7472 34.0952 15.7693 33.4103C15.7914 32.7254 15.8618 32.1209 17.0072 31.9959C17.3359 31.9601 23.8597 31.9959 24.9207 31.9959C25.9817 31.9959 26.5552 32.5438 26.5552 33.6631C26.5552 34.7823 26.5391 41.2485 26.5552 42.2348C26.5885 43.8445 26.5552 43.681 26.6645 45.3144Z" fill="#E3E0D3"/>
<path d="M30.9253 45.3144C30.816 46.9478 30.9253 48.8192 30.9253 48.8192C30.9253 48.8192 30.6229 51.6259 31.4178 51.6259H36.4591C36.4591 51.6259 39.3865 50.8016 41.134 51.0345C42.8814 51.2675 44.7519 51.5074 46.2592 51.6365C51.3738 52.0746 54.1452 51.8452 55.3188 51.7751C56.4925 51.7051 57.4961 51.6097 57.4961 50.822C57.4961 50.1918 57.3938 49.8375 57.3938 49.8375C57.3938 49.8375 57.9408 46.4223 55.6725 45.3144C53.4042 44.2065 51.7672 45.2931 49.5655 44.7333C47.3637 44.1734 44.7982 42.9141 43.4688 40.4873C42.1393 38.0606 41.8426 34.0953 41.8205 33.4103C41.7984 32.7254 41.7281 32.1209 40.5827 31.996C40.2539 31.9601 33.7301 31.9959 32.6691 31.9959C31.6081 31.9959 31.0346 32.5439 31.0346 33.6631C31.0346 34.7823 31.0507 41.2485 31.0346 42.2348C31.0013 43.8445 31.0346 43.6811 30.9253 45.3144Z" fill="#E3E0D3"/>
</svg>
