<svg width="58" height="54" viewBox="0 0 58 54" fill="none" xmlns="http://www.w3.org/2000/svg">
<path d="M6.554 52.0986C3.33632 52.015 0.603649 51.3911 0.349251 50.6411C0.216742 50.2505 0.367032 49.7605 0.454972 49.427C0.542911 49.0934 0.95825 48.8367 1.48491 49.0091C2.45387 49.3265 4.30637 49.7771 7.01366 49.7771C7.56404 49.7771 8.32823 49.7669 9.24038 49.7493C9.14827 48.5979 6.82776 46.2194 6.554 46.0207C6.28025 45.8219 6.23101 45.2819 6.7107 45.0499C7.54703 44.6455 9.10598 43.8734 9.81387 43.6904C10.5218 43.5075 10.8653 43.811 11.0668 43.9952C12.5099 45.3139 13.6874 47.4809 14.4016 49.6205C15.5463 49.5879 16.7302 49.5525 17.898 49.5163C17.8317 48.6875 17.0364 46.2527 15.8091 44.6829C15.1889 43.8897 14.4449 43.2429 13.8847 42.8114C13.393 42.4327 13.3679 42.0624 13.8847 41.8267C14.2908 41.6415 15.0059 41.347 15.6452 41.146C15.8195 41.0912 16.2248 40.9795 16.746 41.4655C17.2671 41.9515 18.4663 43.0374 19.2201 44.4213C20.2031 43.8066 24.1396 42.3035 24.7892 42.0794C25.4388 41.8553 25.7835 41.9769 25.9709 42.3546C26.1583 42.7324 26.5815 43.4288 26.6213 43.6012C26.6828 43.8677 26.671 44.1753 25.9709 44.419C25.2708 44.6628 22.7533 45.6216 20.2732 46.7451C20.762 48.1074 20.9903 49.4182 20.9903 49.4182C23.268 49.3443 25.2901 49.2775 26.4691 49.2345C27.6482 49.1916 27.7814 49.7995 27.7814 50.3138C27.7814 50.8281 27.9628 51.5152 26.6455 51.5152C25.3282 51.5152 9.77168 52.1822 6.554 52.0986Z" fill="#E3E0D3"/>
<path d="M51.0631 52.0986C54.2808 52.015 57.0135 51.3911 57.2679 50.6411C57.4004 50.2505 57.2501 49.7605 57.1622 49.427C57.0742 49.0934 56.6589 48.8367 56.1322 49.0091C55.1633 49.3265 53.3108 49.7771 50.6035 49.7771C50.0531 49.7771 49.2889 49.7669 48.3768 49.7493C48.4689 48.5979 50.7894 46.2194 51.0631 46.0207C51.3369 45.8219 51.3861 45.2819 50.9064 45.0499C50.0701 44.6455 48.5112 43.8734 47.8033 43.6904C47.0954 43.5075 46.7518 43.811 46.5503 43.9952C45.1072 45.3139 43.9298 47.4809 43.2156 49.6205C42.0708 49.5879 40.887 49.5525 39.7191 49.5163C39.7854 48.6875 40.5808 46.2527 41.8081 44.6829C42.4282 43.8897 43.1723 43.2429 43.7324 42.8114C44.2241 42.4327 44.2493 42.0624 43.7324 41.8266C43.3263 41.6414 42.6112 41.347 41.972 41.146C41.7976 41.0912 41.3923 40.9795 40.8712 41.4655C40.35 41.9515 39.1508 43.0374 38.3971 44.4213C37.4141 43.8066 33.4775 42.3035 32.828 42.0794C32.1784 41.8553 31.8336 41.9769 31.6462 42.3546C31.4589 42.7324 31.0356 43.4288 30.9958 43.6012C30.9343 43.8677 30.9462 44.1752 31.6462 44.419C32.3463 44.6628 34.8639 45.6216 37.3439 46.7451C36.8552 48.1074 36.6268 49.4182 36.6268 49.4182C34.3492 49.3443 32.3271 49.2775 31.148 49.2345C29.9689 49.1916 29.8358 49.7995 29.8358 50.3137C29.8358 50.828 29.6543 51.5152 30.9716 51.5152C32.2889 51.5152 47.8455 52.1821 51.0631 52.0986Z" fill="#E3E0D3"/>
</svg>
