<svg width="63" height="54" viewBox="0 0 63 54" fill="none" xmlns="http://www.w3.org/2000/svg">
<path d="M8.75713 52.0986C5.53945 52.015 2.80677 51.3911 2.55238 50.6411C2.41987 50.2505 2.57016 49.7605 2.6581 49.427C2.74604 49.0934 3.16138 48.8367 3.68804 49.0091C4.657 49.3265 6.50949 49.7771 9.21679 49.7771C9.76716 49.7771 10.5314 49.7669 11.4435 49.7493C11.3514 48.5979 9.03089 46.2194 8.75713 46.0207C8.48337 45.8219 8.43414 45.2819 8.91383 45.0499C9.75015 44.6455 11.3091 43.8734 12.017 43.6904C12.7249 43.5075 13.0684 43.811 13.27 43.9952C14.7131 45.3139 15.8905 47.4809 16.6047 49.6205C17.7494 49.5879 18.9333 49.5525 20.1012 49.5163C20.0349 48.6875 19.2395 46.2527 18.0122 44.6829C17.392 43.8897 16.648 43.2429 16.0879 42.8114C15.5962 42.4327 15.571 42.0624 16.0879 41.8267C16.4939 41.6415 17.209 41.347 17.8483 41.146C18.0226 41.0912 18.4279 40.9795 18.9491 41.4655C19.4702 41.9515 20.6695 43.0374 21.4232 44.4213C22.4062 43.8066 26.3428 42.3035 26.9923 42.0794C27.6419 41.8553 27.9867 41.9769 28.174 42.3546C28.3614 42.7324 28.7847 43.4288 28.8245 43.6012C28.886 43.8677 28.8741 44.1753 28.174 44.419C27.474 44.6628 24.9564 45.6216 22.4764 46.7451C22.9651 48.1074 23.1934 49.4182 23.1934 49.4182C25.4711 49.3443 27.4932 49.2775 28.6723 49.2345C29.8514 49.1916 29.9845 49.7995 29.9845 50.3138C29.9845 50.8281 30.1659 51.5152 28.8486 51.5152C27.5313 51.5152 11.9748 52.1822 8.75713 52.0986Z" fill="#E3E0D3"/>
<path d="M53.2663 52.0986C56.4839 52.015 59.2166 51.3911 59.471 50.6411C59.6035 50.2505 59.4532 49.7605 59.3653 49.427C59.2774 49.0934 58.862 48.8367 58.3354 49.0091C57.3664 49.3265 55.5139 49.7771 52.8066 49.7771C52.2562 49.7771 51.492 49.7669 50.5799 49.7493C50.672 48.5979 52.9925 46.2194 53.2663 46.0207C53.54 45.8219 53.5893 45.2819 53.1096 45.0499C52.2732 44.6455 50.7143 43.8734 50.0064 43.6904C49.2985 43.5075 48.955 43.811 48.7534 43.9952C47.3103 45.3139 46.1329 47.4809 45.4187 49.6205C44.274 49.5879 43.0901 49.5525 41.9222 49.5163C41.9885 48.6875 42.7839 46.2527 44.0112 44.6829C44.6314 43.8897 45.3754 43.2429 45.9355 42.8114C46.4272 42.4327 46.4524 42.0624 45.9355 41.8266C45.5295 41.6414 44.8144 41.347 44.1751 41.146C44.0008 41.0912 43.5955 40.9795 43.0743 41.4655C42.5532 41.9515 41.3539 43.0374 40.6002 44.4213C39.6172 43.8066 35.6806 42.3035 35.0311 42.0794C34.3815 41.8553 34.0367 41.9769 33.8494 42.3546C33.662 42.7324 33.2387 43.4288 33.1989 43.6012C33.1374 43.8677 33.1493 44.1752 33.8494 44.419C34.5494 44.6628 37.067 45.6216 39.547 46.7451C39.0583 48.1074 38.83 49.4182 38.83 49.4182C36.5523 49.3443 34.5302 49.2775 33.3511 49.2345C32.172 49.1916 32.0389 49.7995 32.0389 50.3137C32.0389 50.828 31.8575 51.5152 33.1748 51.5152C34.4921 51.5152 50.0486 52.1821 53.2663 52.0986Z" fill="#E3E0D3"/>
</svg>
