<svg width="63" height="129" viewBox="0 0 63 129" fill="none" xmlns="http://www.w3.org/2000/svg">
<path d="M15.7097 72.1095C14.2643 71.6969 13.3097 70.7999 13.0839 69.4701L13.0801 69.4477C13.0013 68.985 12.9815 68.8688 13.1093 64.7994C13.1093 64.6414 13.1394 64.471 13.2001 64.3004C10.7766 64.4042 5.36222 64.1521 4.60611 63.9001C3.70611 63.6001 3.40625 63.0001 3.40625 62.1001C3.40625 61.779 3.5889 58.9733 3.5889 58.2187C3.5889 57.7059 4.08324 57.1529 4.7168 56.8685C4.90371 52.8125 5.31664 46.8264 5.71898 43.5367C6.43548 37.6783 6.77592 32.8452 7.44435 28.5004C8.11278 24.1556 9.48984 19.0712 11.0789 17.3042C11.5625 16.7665 12.7438 15.7372 14.2915 14.5416C14.903 14.0692 15.5719 13.5708 16.2775 13.0666C16.0115 12.3226 16.1462 11.5621 16.908 10.8003C17.808 9.90027 18.7125 9.26023 20.0473 8.57626C21.382 7.8923 21.6843 8.63553 22.4833 9.45516C22.5084 9.48096 22.5417 9.51688 22.5823 9.5619C24.7222 8.78861 27.7361 8.46641 31.008 8.46641C34.2942 8.46641 37.2824 8.79145 39.4243 9.57214C39.4692 9.52226 39.5056 9.48283 39.5326 9.45508C40.3316 8.63546 40.6339 7.89222 41.9686 8.57619C43.3034 9.26015 44.208 9.9002 45.108 10.8002C45.8704 11.5627 46.0046 12.3239 45.7378 13.0685C46.4441 13.5733 47.1135 14.0723 47.7256 14.5451C49.271 15.7392 50.4504 16.767 50.9336 17.3042C52.5227 19.0712 53.8997 24.1556 54.5681 28.5004C55.2366 32.8452 55.577 37.6783 56.2935 43.5367C56.6959 46.8264 57.1088 52.8125 57.2957 56.8685C57.9293 57.1529 58.4236 57.7059 58.4236 58.2187C58.4236 58.9733 58.6063 61.779 58.6063 62.1001C58.6063 63.0001 58.3064 63.6001 57.4064 63.9001C56.651 64.1519 51.246 64.4037 48.8191 64.3007C48.8798 64.4712 48.9098 64.6414 48.9098 64.7994C49.0376 68.8688 49.0178 68.985 48.9391 69.4477L48.9353 69.4701C48.7095 70.7999 47.7548 71.6969 46.3094 72.1095C45.4906 72.3432 43.6155 73.1309 40.2966 73.6139C37.7566 73.9835 34.3331 74.0999 31.0096 74.0999C27.686 74.0999 24.2625 73.9835 21.7226 73.6139C18.4037 73.1309 16.5285 72.3432 15.7097 72.1095Z" fill="#E3E0D3"/>
</svg>
