<svg width="63" height="129" viewBox="0 0 63 129" fill="none" xmlns="http://www.w3.org/2000/svg">
<path d="M22.1234 63.712C18.8044 63.2291 16.9293 62.4413 16.1105 62.2076C16.072 62.1966 16.0338 62.1853 15.996 62.1736C15.9937 62.2039 15.9913 62.2286 15.9887 62.2482C15.8604 63.2183 15.8045 63.9001 14.6045 64.2001C13.4045 64.5001 5.90455 64.2001 5.00455 63.9001C4.10455 63.6001 3.80469 63.0001 3.80469 62.1001C3.80469 61.779 3.98734 58.9733 3.98734 58.2187C3.98734 57.7059 4.48168 57.1529 5.11524 56.8685C5.30215 52.8125 5.71508 46.8264 6.11742 43.5367C6.83392 37.6783 7.17436 32.8452 7.84279 28.5004C8.51122 24.1556 9.88828 19.0712 11.4774 17.3042C11.9611 16.7664 13.1426 15.7368 14.6906 14.5411C15.302 14.0688 15.9706 13.5706 16.6759 13.0666C16.41 12.3226 16.5446 11.5621 17.3064 10.8003C18.2064 9.90027 19.111 9.26023 20.4457 8.57626C21.7804 7.8923 22.0828 8.63553 22.8817 9.45516C22.9069 9.48096 22.9401 9.51688 22.9808 9.5619C25.1207 8.78861 28.1345 8.46641 31.4064 8.46641C34.6926 8.46641 37.6808 8.79145 39.8227 9.57214C39.8676 9.52226 39.904 9.48283 39.9311 9.45508C40.73 8.63546 41.0323 7.89222 42.3671 8.57619C43.7018 9.26015 44.6064 9.9002 45.5064 10.8002C46.2689 11.5627 46.4031 12.3239 46.1362 13.0685C46.8427 13.5734 47.5123 14.0725 48.1244 14.5454C49.6697 15.7393 50.8489 16.7671 51.332 17.3042C52.9211 19.0712 54.2982 24.1556 54.9666 28.5004C55.635 32.8452 55.9755 37.6783 56.692 43.5367C57.0943 46.8264 57.5072 52.8125 57.6941 56.8685C58.3277 57.1529 58.822 57.7059 58.822 58.2187C58.822 58.9733 59.0047 61.779 59.0047 62.1001C59.0047 63.0001 58.7048 63.6001 57.8048 63.9001C56.9048 64.2001 49.4049 64.5001 48.2048 64.2001C47.0048 63.9001 46.949 63.2183 46.8206 62.2482C46.8181 62.2292 46.8158 62.2052 46.8136 62.1761C46.7784 62.1869 46.7429 62.1974 46.7072 62.2076C45.8884 62.4413 44.0132 63.2291 40.6943 63.712C38.1544 64.0816 34.7309 64.1981 31.4073 64.1981C28.0838 64.1981 24.6633 64.0816 22.1234 63.712Z" fill="#E3E0D3"/>
</svg>
