<svg width="64" height="129" viewBox="0 0 64 129" fill="none" xmlns="http://www.w3.org/2000/svg">
<path d="M22.512 52.6281C19.1931 52.1452 18.4869 51.6696 17.6921 51.3076C17.1718 51.0706 16.7011 50.7978 16.3051 50.4776C16.0867 53.0608 15.8921 55.4054 15.7327 57.3145C16.2747 57.5772 16.6572 58.0624 16.5974 58.779C16.4127 60.9927 16.4109 62.0099 16.3793 62.2482C16.251 63.2183 16.1952 63.9001 14.9952 64.2001C13.7951 64.5001 6.29517 64.2001 5.39517 63.9001C4.49517 63.6001 4.19531 63.0001 4.19531 62.1001C4.19531 61.779 4.37796 58.9733 4.37796 58.2187C4.37796 57.7059 4.8723 57.1529 5.50586 56.8685C5.69278 52.8125 6.10571 46.8264 6.50804 43.5367C7.22454 37.6783 7.56498 32.8452 8.23341 28.5004C8.90184 24.1556 10.2789 19.0712 11.868 17.3042C12.3515 16.7666 13.5325 15.7374 15.0799 14.5421C15.6916 14.0695 16.3607 13.571 17.0665 13.0666C16.8006 12.3226 16.9352 11.5621 17.697 10.8003C18.597 9.90027 19.5016 9.26023 20.8363 8.57626C22.1711 7.8923 22.4734 8.63553 23.2723 9.45516C23.2975 9.48096 23.3308 9.51688 23.3714 9.5619C25.5113 8.78861 28.5252 8.46641 31.797 8.46641C35.0833 8.46641 38.0714 8.79145 40.2134 9.57214C40.2582 9.52226 40.2947 9.48283 40.3217 9.45508C41.1207 8.63546 41.423 7.89222 42.7577 8.57619C44.0924 9.26015 44.997 9.9002 45.897 10.8002C46.6595 11.5627 46.7937 12.3239 46.5268 13.0685C47.2333 13.5735 47.9029 14.0725 48.5151 14.5455C50.0603 15.7394 51.2395 16.7671 51.7226 17.3042C53.3117 19.0712 54.6888 24.1556 55.3572 28.5004C56.0256 32.8452 56.3661 37.6783 57.0826 43.5367C57.4849 46.8264 57.8979 52.8125 58.0848 56.8685C58.7183 57.1529 59.2127 57.7059 59.2127 58.2187C59.2127 58.9733 59.3953 61.779 59.3953 62.1001C59.3953 63.0001 59.0955 63.6001 58.1955 63.9001C57.2955 64.2001 49.7955 64.5001 48.5955 64.2001C47.3955 63.9001 47.3396 63.2183 47.2113 62.2482C47.1797 62.0099 47.1779 60.9927 46.9932 58.779C46.9334 58.0624 47.3159 57.5772 47.8579 57.3145C47.7 55.4225 47.5074 53.1027 47.2914 50.547C46.8847 50.9179 46.4316 51.2071 46.0143 51.3805C44.9821 51.8094 44.4039 52.1452 41.085 52.6281C38.5451 52.9977 35.1216 53.1142 31.798 53.1142C28.4745 53.1142 25.0519 52.9977 22.512 52.6281Z" fill="#E3E0D3"/>
</svg>
