<svg width="64" height="84" viewBox="0 0 64 84" fill="none" xmlns="http://www.w3.org/2000/svg">
<path d="M17.7161 50.5139L17.7011 50.5096C16.761 50.2413 16.4721 50.0388 16.3645 49.5531C16.0531 53.1868 15.7878 56.3882 15.5986 58.6524C15.4344 60.6183 15.3277 61.8777 15.2983 62.1C15.1699 63.0701 14.9983 63.9 13.7983 64.2C12.5983 64.5 7.4983 64.2 6.5983 63.9C5.6983 63.6 5.39844 63 5.39844 62.1C5.39844 61.8146 5.43828 60.4326 5.51555 58.4913C5.68195 54.3109 6.02188 47.5372 6.51117 43.5366C7.22767 37.6782 7.56811 32.8451 8.23654 28.5003C8.90497 24.1555 10.282 19.0711 11.8711 17.3042C12.3567 16.7642 13.5457 15.7286 15.1027 14.5268C16.1033 13.7545 17.2559 12.9136 18.4716 12.0914C18.394 11.9712 18.3224 11.8545 18.2589 11.7429C17.9577 11.2144 17.8384 10.6046 18.4873 10.0678C19.1362 9.53098 19.721 9.15505 20.754 8.7045C21.7592 8.26604 22.4122 8.84604 23.1829 9.63286C25.3348 8.8082 28.4291 8.46631 31.7995 8.46631C35.184 8.46631 38.2524 8.8111 40.4058 9.64334C41.1809 8.85121 41.8353 8.26411 42.845 8.70451C43.8779 9.15506 44.4627 9.53099 45.1116 10.0678C45.7605 10.6046 45.6412 11.2144 45.34 11.7429C45.2763 11.8548 45.2046 11.9718 45.1267 12.0923C46.3427 12.9148 47.4956 13.756 48.4963 14.5285C50.0523 15.7296 51.2404 16.7644 51.7258 17.3042C53.3148 19.0711 54.6919 24.1555 55.3603 28.5003C56.0288 32.8451 56.3692 37.6782 57.0857 43.5366C57.575 47.5372 57.9149 54.3109 58.0813 58.4913C58.1586 60.4326 58.1984 61.8146 58.1984 62.1C58.1984 63 57.8986 63.6 56.9986 63.9C56.0986 64.2 50.9986 64.5 49.7986 64.2C48.5986 63.9 48.4269 63.0701 48.2986 62.1C48.2692 61.8777 48.1625 60.6183 47.9982 58.6524C47.8093 56.3903 47.5442 53.1927 47.2332 49.5632C47.1239 50.0417 46.8325 50.2431 45.8989 50.5096L45.8828 50.5142C44.413 50.9338 38.9258 52.5001 31.801 52.5001C24.6742 52.5001 19.1842 50.9329 17.7161 50.5139Z" fill="#E3E0D3"/>
</svg>
