<svg width="63" height="84" viewBox="0 0 63 84" fill="none" xmlns="http://www.w3.org/2000/svg">
<path d="M31.4016 64.5001C24.2504 64.5001 18.1481 62.9222 16.7027 62.5096C15.2573 62.0971 15.3512 61.8403 15.2768 60.4702C15.2416 59.8215 15.5594 55.9153 15.9038 50.2816C15.6193 53.614 15.3766 56.5407 15.2002 58.6524C15.036 60.6183 14.9293 61.8777 14.8998 62.1C14.7715 63.0701 14.5999 63.9 13.3998 64.2C12.1998 64.5 7.09986 64.2 6.19986 63.9C5.29986 63.6 5 63 5 62.1C5 61.8146 5.03985 60.4326 5.11711 58.4913C5.28351 54.3109 5.62344 47.5372 6.11273 43.5366C6.82923 37.6782 7.16967 32.8451 7.8381 28.5003C8.50653 24.1555 9.88359 19.0711 11.4727 17.3042C11.9583 16.7642 13.1472 15.7286 14.7043 14.5268C15.7049 13.7545 16.8575 12.9136 18.0731 12.0914C17.9955 11.9712 17.924 11.8545 17.8604 11.7429C17.5593 11.2144 17.4399 10.6046 18.0889 10.0678C18.7378 9.53098 19.3226 9.15505 20.3555 8.7045C21.3607 8.26604 22.0138 8.84604 22.7844 9.63286C24.9364 8.8082 28.0307 8.46631 31.401 8.46631C34.7856 8.46631 37.854 8.8111 40.0073 9.64334C40.7825 8.85121 41.4368 8.26411 42.4465 8.70451C43.4795 9.15506 44.0642 9.53099 44.7132 10.0678C45.3621 10.6046 45.2428 11.2144 44.9416 11.7429C44.8779 11.8548 44.8061 11.9718 44.7283 12.0923C45.9443 12.9148 47.0972 13.756 48.0979 14.5285C49.6539 15.7296 50.8419 16.7644 51.3273 17.3042C52.9164 19.0711 54.2935 24.1555 54.9619 28.5003C55.6303 32.8451 55.9708 37.6782 56.6873 43.5366C57.1766 47.5372 57.5165 54.3109 57.6829 58.4913C57.7602 60.4326 57.8 61.8146 57.8 62.1C57.8 63 57.5001 63.6 56.6001 63.9C55.7001 64.2 50.6002 64.5 49.4002 64.2C48.2001 63.9 48.0285 63.0701 47.9002 62.1C47.8707 61.8777 47.764 60.6183 47.5998 58.6524C47.4453 56.8023 47.2399 54.7201 47 51.894C47.3029 56.6529 47.5581 59.8853 47.5263 60.4702C47.4519 61.8403 47.5458 62.0971 46.1005 62.5096C44.6551 62.9222 38.5527 64.5001 31.4016 64.5001Z" fill="#E3E0D3"/>
</svg>
