<svg width="63" height="84" viewBox="0 0 63 84" fill="none" xmlns="http://www.w3.org/2000/svg">
<path d="M31.0049 74.0998C23.8537 74.0998 17.7504 72.5219 16.305 72.1094C14.8596 71.6968 13.905 71.3998 13.6792 70.07C13.4847 68.9248 13.6251 56.6638 15.3444 37.1993C12.1335 37.4367 9.56261 37.0446 8.68356 36.8433C7.58946 36.5928 6.73321 36.4627 6.73438 35.0935C6.73503 34.3222 6.78372 33.4937 6.86518 32.6294C7.06305 30.5302 7.45429 28.2195 7.82045 26.0014L7.8294 25.9473C8.34089 22.8487 8.64595 21.0006 10.1082 18.5461C10.6244 17.6796 12.2319 16.188 14.3086 14.578C15.3483 13.7719 16.5056 12.9361 17.7025 12.1342C17.6142 11.9989 17.5331 11.8677 17.462 11.7429C17.1609 11.2144 17.0415 10.6046 17.6904 10.0678C18.3394 9.53098 18.9241 9.15505 19.9571 8.7045C20.9623 8.26604 21.6154 8.84604 22.386 9.63286C24.538 8.8082 27.6323 8.46631 31.0026 8.46631C34.3872 8.46631 37.4556 8.8111 39.6089 9.64334C40.384 8.85121 41.0384 8.26411 42.0481 8.70451C43.081 9.15506 43.6658 9.53099 44.3147 10.0678C44.9637 10.6046 44.8443 11.2144 44.5432 11.7429C44.4719 11.868 44.3906 11.9995 44.3021 12.1351C45.4993 12.9373 46.6568 13.7733 47.6967 14.5796C49.7723 16.189 51.3789 17.6799 51.8949 18.5461C53.3572 21.0006 53.6622 22.8487 54.1737 25.9473L54.1827 26.0014C54.5488 28.2195 54.9401 30.5302 55.1379 32.6294C55.2194 33.4937 55.2681 34.3222 55.2688 35.0935C55.2699 36.4627 54.4137 36.5928 53.3196 36.8433C52.4408 37.0445 49.8713 37.4364 46.6619 37.1995C48.3811 56.6639 48.5215 68.9248 48.3271 70.07C48.1013 71.3998 47.1466 71.6968 45.7012 72.1094C44.2558 72.5219 38.1561 74.0998 31.0049 74.0998Z" fill="#E3E0D3"/>
</svg>
