<svg width="63" height="84" viewBox="0 0 63 84" fill="none" xmlns="http://www.w3.org/2000/svg">
<path d="M31.2053 45.3001C24.0541 45.3001 19.1528 43.7222 17.7074 43.3096C16.8682 43.0701 16.5479 42.8831 16.4123 42.5003C16.4056 42.4813 16.3993 42.4619 16.3935 42.4419C15.8164 48.8732 15.3109 54.9893 15.0049 58.6524C14.8407 60.6183 14.734 61.8777 14.7045 62.1C14.5762 63.0701 14.4045 63.9 13.2045 64.2C12.0045 64.5 6.90455 64.2 6.00455 63.9C5.10455 63.6 4.80469 63 4.80469 62.1C4.80469 61.8146 4.84453 60.4326 4.9218 58.4913C5.0882 54.3109 5.42813 47.5372 5.91742 43.5366C6.63392 37.6782 6.97436 32.8451 7.64279 28.5003C8.31122 24.1555 9.68828 19.0711 11.2774 17.3042C11.763 16.7642 12.9519 15.7286 14.5089 14.5268C15.5095 13.7545 16.6622 12.9136 17.8778 12.0914C17.8002 11.9712 17.7287 11.8545 17.6651 11.7429C17.364 11.2144 17.2446 10.6046 17.8936 10.0678C18.5425 9.53098 19.1272 9.15505 20.1602 8.7045C21.1654 8.26604 21.8185 8.84604 22.5891 9.63286C24.7411 8.8082 27.8354 8.46631 31.2057 8.46631C34.5903 8.46631 37.6587 8.8111 39.812 9.64334C40.5872 8.85121 41.2415 8.26411 42.2512 8.70451C43.2842 9.15506 43.8689 9.53099 44.5179 10.0678C45.1668 10.6046 45.0474 11.2144 44.7463 11.7429C44.6826 11.8548 44.6108 11.9718 44.533 12.0923C45.749 12.9148 46.9019 13.756 47.9026 14.5285C49.4586 15.7296 50.6466 16.7644 51.132 17.3042C52.7211 19.0711 54.0982 24.1555 54.7666 28.5003C55.435 32.8451 55.7755 37.6782 56.492 43.5366C56.9812 47.5372 57.3212 54.3109 57.4876 58.4913C57.5648 60.4326 57.6047 61.8146 57.6047 62.1C57.6047 63 57.3048 63.6 56.4048 63.9C55.5048 64.2 50.4049 64.5 49.2048 64.2C48.0048 63.9 47.8332 63.0701 47.7048 62.1C47.6754 61.8777 47.5687 60.6183 47.4045 58.6524C47.0987 54.9908 46.5934 48.8783 46.0166 42.45C45.891 42.8672 45.5802 43.0598 44.7051 43.3096C43.2597 43.7222 38.3565 45.3001 31.2053 45.3001Z" fill="#E3E0D3"/>
</svg>
