<svg width="63" height="84" viewBox="0 0 63 84" fill="none" xmlns="http://www.w3.org/2000/svg">
<path d="M31.2053 45.3001C24.0541 45.3001 19.1528 43.7222 17.7074 43.3096C16.262 42.8971 16.3559 42.6403 16.2815 41.2702C16.2458 40.6128 16.2963 39.2754 16.3586 37.1348C12.8095 37.4967 9.83177 37.0597 8.88668 36.8433C7.79259 36.5928 6.93634 36.4627 6.9375 35.0935C6.93816 34.3222 6.98684 33.4937 7.06831 32.6294C7.26617 30.5302 7.65741 28.2195 8.02358 26.0014L8.03252 25.9473C8.54401 22.8487 8.84907 21.0006 10.3113 18.5461C10.8291 17.677 12.4448 16.179 14.5305 14.5634C15.5654 13.7618 16.716 12.9312 17.9056 12.1342C17.8173 11.9989 17.7362 11.8677 17.6651 11.7429C17.364 11.2144 17.2446 10.6046 17.8936 10.0678C18.5425 9.53098 19.1272 9.15505 20.1602 8.7045C21.1654 8.26604 21.8185 8.84604 22.5891 9.63286C24.7411 8.8082 27.8354 8.46631 31.2057 8.46631C34.5903 8.46631 37.6587 8.8111 39.812 9.64334C40.5872 8.85121 41.2415 8.26411 42.2512 8.70451C43.2842 9.15506 43.8689 9.53099 44.5179 10.0678C45.1668 10.6046 45.0474 11.2144 44.7463 11.7429C44.675 11.868 44.5938 11.9995 44.5052 12.1351C45.6959 12.9329 46.8474 13.7642 47.8828 14.5665C49.9667 16.1809 51.5806 17.6775 52.098 18.5461C53.5603 21.0006 53.8654 22.8487 54.3769 25.9473L54.3858 26.0014C54.752 28.2195 55.1432 30.5302 55.3411 32.6294C55.4225 33.4937 55.4712 34.3222 55.4719 35.0935C55.473 36.4627 54.6168 36.5928 53.5227 36.8433C52.571 37.0612 49.6365 37.5028 46.0537 37.1271C46.116 39.2722 46.1668 40.612 46.131 41.2702C46.0566 42.6403 46.1505 42.8971 44.7051 43.3096C43.2597 43.7222 38.3565 45.3001 31.2053 45.3001Z" fill="#E3E0D3"/>
</svg>
