<svg width="63" height="84" viewBox="0 0 63 84" fill="none" xmlns="http://www.w3.org/2000/svg">
<path d="M31.4016 64.5001C24.2504 64.5001 18.1481 62.9222 16.7027 62.5096C15.2573 62.0971 15.3512 61.8403 15.2768 60.4702C15.218 59.3879 16.1418 49.2397 16.5325 37.1293C12.9581 37.5016 10.032 37.0608 9.082 36.8433C7.9879 36.5928 7.13165 36.4627 7.13281 35.0935C7.13347 34.3222 7.18216 33.4937 7.26362 32.6294C7.46148 30.5302 7.85273 28.2195 8.21889 26.0014L8.22784 25.9473C8.73932 22.8487 9.04438 21.0006 10.5067 18.5461C11.0244 17.677 12.6401 16.179 14.7258 14.5634C15.7607 13.7618 16.9113 12.9312 18.1009 12.1342C18.0126 11.9989 17.9315 11.8677 17.8604 11.7429C17.5593 11.2144 17.4399 10.6046 18.0889 10.0678C18.7378 9.53098 19.3226 9.15505 20.3555 8.7045C21.3607 8.26604 22.0138 8.84604 22.7844 9.63286C24.9364 8.8082 28.0307 8.46631 31.401 8.46631C34.7856 8.46631 37.854 8.8111 40.0074 9.64334C40.7825 8.85121 41.4368 8.26411 42.4465 8.70451C43.4795 9.15506 44.0642 9.53099 44.7132 10.0678C45.3621 10.6046 45.2428 11.2144 44.9416 11.7429C44.8704 11.868 44.7891 11.9995 44.7005 12.1351C45.8905 12.9324 47.0413 13.7632 48.0763 14.565C50.161 16.18 51.7757 17.6773 52.2934 18.5461C53.7556 21.0006 54.0607 22.8487 54.5722 25.9473L54.5811 26.0014C54.9473 28.2195 55.3385 30.5302 55.5364 32.6294C55.6178 33.4937 55.6665 34.3222 55.6672 35.0935C55.6684 36.4627 54.8121 36.5928 53.718 36.8433C52.7683 37.0608 49.8436 37.501 46.2706 37.1293C46.6614 49.2397 47.5851 59.3879 47.5263 60.4702C47.4519 61.8403 47.5459 62.0971 46.1005 62.5096C44.6551 62.9222 38.5527 64.5001 31.4016 64.5001Z" fill="#E3E0D3"/>
</svg>
