<svg width="63" height="84" viewBox="0 0 63 84" fill="none" xmlns="http://www.w3.org/2000/svg">
<path d="M31.0049 74.0998C23.8537 74.0998 17.7504 72.5219 16.305 72.1094C14.8596 71.6968 13.905 71.3998 13.6792 70.07C13.6035 69.6244 13.5786 67.4955 13.6776 63.914C13.4985 64.0342 13.2771 64.1311 13.0014 64.2C11.8014 64.5 6.70142 64.2 5.80142 63.9C4.90142 63.6 4.60156 63 4.60156 62.1C4.60156 61.8146 4.64141 60.4326 4.71868 58.4913C4.88507 54.3109 5.22501 47.5372 5.71429 43.5366C6.43079 37.6782 6.77123 32.8451 7.43966 28.5003C8.10809 24.1555 9.48515 19.0711 11.0742 17.3042C11.5579 16.7664 12.7391 15.7371 14.2868 14.5415C15.2918 13.7652 16.4513 12.9188 17.6747 12.0914C17.5971 11.9712 17.5256 11.8545 17.462 11.7429C17.1609 11.2144 17.0415 10.6046 17.6904 10.0678C18.3394 9.53098 18.9241 9.15505 19.9571 8.7045C20.9623 8.26604 21.6154 8.84604 22.386 9.63286C24.538 8.8082 27.6323 8.46631 31.0026 8.46631C34.3872 8.46631 37.4556 8.8111 39.6089 9.64334C40.384 8.85121 41.0384 8.26411 42.0481 8.70451C43.081 9.15506 43.6658 9.53099 44.3147 10.0678C44.9637 10.6046 44.8443 11.2144 44.5432 11.7429C44.4794 11.8548 44.4077 11.9718 44.3299 12.0923C45.5536 12.92 46.7134 13.7667 47.7185 14.5432C49.2651 15.738 50.4455 16.7666 50.9289 17.3042C52.518 19.0711 53.895 24.1555 54.5635 28.5003C55.2319 32.8451 55.5723 37.6782 56.2888 43.5366C56.7781 47.5372 57.1181 54.3109 57.2845 58.4913C57.3617 60.4326 57.4016 61.8146 57.4016 62.1C57.4016 63 57.1017 63.6 56.2017 63.9C55.3017 64.2 50.2017 64.5 49.0017 64.2C48.7276 64.1315 48.5072 64.0353 48.3287 63.9162C48.4277 67.4964 48.4027 69.6244 48.3271 70.07C48.1013 71.3998 47.1466 71.6968 45.7012 72.1094C44.2558 72.5219 38.1561 74.0998 31.0049 74.0998Z" fill="#E3E0D3"/>
</svg>
