<svg width="64" height="84" viewBox="0 0 64 84" fill="none" xmlns="http://www.w3.org/2000/svg">
<path d="M17.7161 50.5139L17.7011 50.5096C16.2557 50.097 16.3497 49.8403 16.2752 48.4702C16.2196 47.4449 16.7097 45.0027 16.9599 37.126C13.3724 37.5036 10.433 37.0614 9.48043 36.8433C8.38634 36.5928 7.53009 36.4627 7.53125 35.0935C7.53191 34.3222 7.58059 33.4937 7.66206 32.6294C7.85992 30.5302 8.25116 28.2195 8.61733 26.0014L8.62627 25.9473C9.13776 22.8487 9.44282 21.0006 10.9051 18.5461C11.4229 17.677 13.0385 16.179 15.1243 14.5634C16.1556 13.7645 17.302 12.9368 18.4873 12.1422L18.2589 11.7429C17.9577 11.2144 17.8384 10.6046 18.4873 10.0678C19.1362 9.53098 19.721 9.15505 20.754 8.7045C21.7592 8.26604 22.4122 8.84604 23.1829 9.63286C25.3348 8.8082 28.4291 8.46631 31.7995 8.46631C35.184 8.46631 38.2524 8.8111 40.4058 9.64334C41.1809 8.85121 41.8353 8.26411 42.845 8.70451C43.8779 9.15506 44.4627 9.53099 45.1116 10.0678C45.7605 10.6046 45.6412 11.2144 45.34 11.7429C45.2688 11.868 45.1875 11.9995 45.099 12.1351C46.2889 12.9324 47.4398 13.7632 48.4747 14.565C50.5595 16.18 52.1742 17.6773 52.6918 18.5461C54.1541 21.0006 54.4591 22.8487 54.9706 25.9473L54.9795 26.0014C55.3457 28.2195 55.737 30.5302 55.9348 32.6294C56.0163 33.4937 56.065 34.3222 56.0656 35.0935C56.0668 36.4627 55.2105 36.5928 54.1164 36.8433C53.1641 37.0614 50.2262 37.5034 46.6401 37.1263C46.8903 45.0028 47.3804 47.4449 47.3248 48.4702C47.2503 49.8403 47.3282 50.1017 45.8828 50.5142L45.8827 50.5142C44.4129 50.9338 38.9258 52.5001 31.801 52.5001C24.6742 52.5001 19.1842 50.9329 17.7161 50.5139Z" fill="#E3E0D3"/>
</svg>
