<svg width="63" height="102" viewBox="0 0 63 102" fill="none" xmlns="http://www.w3.org/2000/svg">
<path d="M13.9212 40.488C13.9246 39.3329 13.8475 31.1502 13.8507 29.1279C13.8538 27.1056 13.8315 25.1384 13.8538 23.9998C13.9155 20.8385 14.2715 17.9643 14.4918 16.1998C14.6692 14.7788 14.8892 13.4094 15.3055 12.8546C15.7218 12.2998 16.5134 12.2998 17.4925 12.2998H21.3911H37.9022H40.6022H44.5008C45.4799 12.2998 46.2715 12.2998 46.6878 12.8546C47.1042 13.4094 47.3248 14.7788 47.5022 16.1998C47.7225 17.9643 48.0778 20.8385 48.1395 23.9998C48.1618 25.1384 48.1395 26.7499 48.1395 28.9197C48.1395 31.0894 48.0769 39.3329 48.0803 40.488C48.0837 41.6431 45.6741 41.965 44.8351 42.0754C43.9962 42.1858 41.0722 42.3397 39.3447 42.3221C37.6171 42.3044 34.8938 42.0973 34.1168 41.9608C32.5358 41.683 32.3055 41.4176 32.0871 40.6575C31.8687 39.8973 31.5893 35.1464 31.0007 32.4979C30.4122 35.1464 30.1328 39.8973 29.9143 40.6575C29.6959 41.4176 29.4657 41.683 27.8846 41.9608C27.1076 42.0973 24.3843 42.3044 22.6568 42.3221C20.9292 42.3397 18.0052 42.1858 17.1663 42.0754C16.3274 41.965 13.9178 41.6431 13.9212 40.488Z" fill="#E3E0D3"/>
</svg>
