<svg width="63" height="102" viewBox="0 0 63 102" fill="none" xmlns="http://www.w3.org/2000/svg">
<path d="M15.6845 41.023C15.1843 39.6431 14.4119 31.925 14.1318 27.4889C14.0576 26.3142 14.0417 25.1384 14.064 23.9998C14.1257 20.8385 14.4811 17.9643 14.7013 16.1998C14.8787 14.7788 15.0994 13.4094 15.5157 12.8546C15.932 12.2998 16.7237 12.2998 17.7027 12.2998H21.6013H24.3013H40.8124H44.7111C45.6901 12.2998 46.4817 12.2998 46.8981 12.8546C47.3144 13.4094 47.5344 14.7788 47.7117 16.1998C47.932 17.9643 48.288 20.8385 48.3498 23.9998C48.372 25.1384 48.3561 26.3142 48.2819 27.4889C48.0018 31.925 47.2294 39.6431 46.7292 41.023C46.229 42.4029 43.6415 42.6446 42.3221 42.7423C41.0028 42.8401 37.7745 42.8547 36.5805 42.6202C35.3865 42.3857 33.4988 41.8133 33.4988 41.1924C33.0754 36.7427 32.7558 34.5995 31.1966 32.777C29.6375 34.5995 29.3383 36.7427 28.9149 41.1924C28.9149 41.8133 27.0272 42.3857 25.8332 42.6202C24.6392 42.8547 21.4109 42.8401 20.0916 42.7423C18.7722 42.6446 16.1848 42.4029 15.6845 41.023Z" fill="#E3E0D3"/>
</svg>
