<svg width="63" height="102" viewBox="0 0 63 102" fill="none" xmlns="http://www.w3.org/2000/svg">
<path d="M11.8775 38.6707C11.8806 36.5656 12.3193 32.7899 12.6864 30.5415C13.0535 28.2931 13.3669 26.1605 13.7497 24.0337C14.1326 21.907 14.6731 17.9643 14.8934 16.1998C15.0708 14.7788 15.2907 13.4094 15.7071 12.8546C16.1234 12.2998 16.915 12.2998 17.894 12.2998H21.7927H38.3038H41.0038H44.9024C45.8815 12.2998 46.6731 12.2998 47.0894 12.8546C47.5057 13.4094 47.7264 14.7788 47.9038 16.1998C48.124 17.9643 48.7592 21.8127 49.0707 23.906C49.3822 25.9993 49.7642 28.0692 50.1182 30.2061C50.4722 32.3431 50.9241 36.5656 50.9272 38.6707C50.9303 40.7758 51.0537 41.6717 49.0707 42.0141C47.0877 42.3565 43.0776 42.6339 40.4203 42.6512C37.8525 42.668 35.2944 42.493 34.5174 42.3565C32.9364 42.0788 32.78 41.7311 32.5534 41.1522C32.327 40.5736 31.9903 35.4651 31.4023 32.8154C30.8143 35.4651 30.4776 40.5736 30.2512 41.1522C30.0247 41.7311 29.8683 42.0788 28.2872 42.3565C27.5102 42.493 24.9521 42.668 22.3844 42.6512C19.7271 42.6339 15.717 42.3565 13.7339 42.0141C11.7509 41.6717 11.8744 40.7758 11.8775 38.6707Z" fill="#E3E0D3"/>
</svg>
