<svg width="63" height="102" viewBox="0 0 63 102" fill="none" xmlns="http://www.w3.org/2000/svg">
<path d="M16.3187 58.691C16.3221 57.5359 13.9809 33.3127 13.9306 27.4889C13.8564 26.3142 13.829 25.1384 13.8513 23.9998C13.913 20.8385 14.269 17.9643 14.4893 16.1998C14.6667 14.7788 14.8867 13.4094 15.303 12.8546C15.7193 12.2998 16.5109 12.2998 17.49 12.2998H21.3886H37.8997H40.5997H44.4983C44.4983 12.2998 46.269 12.2998 46.6853 12.8546C47.1017 13.4094 47.3223 14.7788 47.4997 16.1998C47.72 17.9643 48.0753 20.8385 48.137 23.9998C48.1593 25.1384 48.1433 26.3142 48.0691 27.4889C48.0188 33.3127 45.6744 57.5359 45.6778 58.691C45.6812 59.8461 43.4273 60.3126 42.108 60.4104C40.7886 60.5081 37.5604 60.5227 36.3664 60.2882C35.1724 60.0537 33.2846 59.4813 33.2846 58.8604C33.0837 47.943 32.5574 37.8223 30.9982 35.9998C29.4391 37.8223 28.9128 47.943 28.7118 58.8604C28.7118 59.4813 26.8241 60.0537 25.6301 60.2882C24.4361 60.5227 21.2078 60.5081 19.8885 60.4104C18.5691 60.3126 16.3153 59.8461 16.3187 58.691Z" fill="#E3E0D3"/>
</svg>
