<svg width="63" height="102" viewBox="0 0 63 102" fill="none" xmlns="http://www.w3.org/2000/svg">
<path d="M14.3196 58.691C14.323 57.5359 14.2488 33.0212 14.2505 30.5463C14.2521 28.0714 14.2299 25.1384 14.2521 23.9998C14.3139 20.8385 14.6699 17.9643 14.8902 16.1998C15.0675 14.7788 15.2875 13.4094 15.7038 12.8546C16.1202 12.2998 16.9118 12.2998 17.8908 12.2998H21.7895H38.3006H41.0006H44.8992C45.8782 12.2998 46.6699 12.2998 47.0862 12.8546C47.5025 13.4094 47.7232 14.7788 47.9006 16.1998C48.1208 17.9643 48.4762 20.8385 48.5379 23.9998C48.5602 25.1384 48.5379 29.3766 48.5379 32.2632C48.5379 35.1499 48.4753 57.5359 48.4786 58.691C48.482 59.8461 46.0724 60.168 45.2335 60.2784C44.3946 60.3887 41.4706 60.5427 39.743 60.525C38.0155 60.5074 35.2922 60.3002 34.5152 60.1637C32.9342 59.886 32.4855 59.4813 32.4855 58.8604C32.2846 47.943 31.9877 38.6483 31.3991 35.9998C30.8106 38.6483 30.5136 47.943 30.3127 58.8604C30.3127 59.4813 29.864 59.886 28.283 60.1637C27.506 60.3002 24.7827 60.5074 23.0552 60.525C21.3276 60.5427 18.4036 60.3887 17.5647 60.2784C16.7258 60.168 14.3162 59.8461 14.3196 58.691Z" fill="#E3E0D3"/>
</svg>
