<svg width="64" height="102" viewBox="0 0 64 102" fill="none" xmlns="http://www.w3.org/2000/svg">
<path d="M11.7188 58.691C11.7221 57.5359 13.2405 40.9055 13.6842 35.9998C14.1279 31.0941 14.6281 25.1384 14.6503 23.9998C14.7121 20.8385 15.0681 17.9643 15.2883 16.1998C15.4657 14.7788 15.6857 13.4094 16.102 12.8546C16.5183 12.2998 17.31 12.2998 18.289 12.2998H22.1877H38.6987H41.3987H45.2974C46.2764 12.2998 47.0681 12.2998 47.4844 12.8546C47.9007 13.4094 48.1214 14.7788 48.2987 16.1998C48.519 17.9643 48.8743 20.8385 48.9361 23.9998C48.9583 25.1384 49.674 31.6788 50.1512 36.0044C50.6284 40.33 51.8724 57.5359 51.8758 58.691C51.8792 59.8461 49.4639 59.8461 48.0561 60.0988C47.3402 60.2273 43.4725 60.4411 40.8152 60.4585C38.2475 60.4753 35.6894 60.3002 34.9124 60.1637C33.3313 59.886 32.8826 59.4813 32.8826 58.8604C32.6818 47.9493 32.3862 38.6544 31.7983 35.9998C31.2104 38.6544 30.9127 47.9493 30.7119 58.8604C30.7119 59.4813 30.2632 59.886 28.6822 60.1637C27.9052 60.3002 25.3471 60.4753 22.7793 60.4585C20.122 60.4411 16.2544 60.2273 15.5384 60.0988C14.1306 59.8461 11.7154 59.8461 11.7188 58.691Z" fill="#E3E0D3"/>
</svg>
