<svg width="63" height="102" viewBox="0 0 63 102" fill="none" xmlns="http://www.w3.org/2000/svg">
<path d="M11.3438 40.5C11.3438 40.5 12.1028 28.2 13.0006 22.2C13.8984 16.2 15.1618 12 15.1618 12H30.9989L30.9984 44.1997C29.5979 44.1997 28.0619 44.1796 26.8398 44.1431L26.8533 43.7664C24.9613 43.7056 22.9369 43.6052 21.4478 43.4794L21.4603 43.1166C19.4274 42.936 17.3625 42.66 16.0155 42.4229C16.02 42.2408 16.0254 42.0293 16.0318 41.7913C12.6721 41.1624 11.3438 40.5 11.3438 40.5Z" fill="#E3E0D3"/>
<path d="M50.654 40.5C50.654 40.5 49.895 28.2 48.9971 22.2C48.0993 16.2 46.8359 12 46.8359 12H30.9989L30.9984 44.1997C32.399 44.1997 33.9358 44.1796 35.1579 44.1431L35.1444 43.7664C37.0364 43.7056 39.0608 43.6052 40.55 43.4794L40.5374 43.1166C42.5703 42.936 44.6352 42.66 45.9822 42.4229C45.9778 42.2408 45.9724 42.0293 45.9659 41.7913C49.3256 41.1624 50.654 40.5 50.654 40.5Z" fill="#E3E0D3"/>
</svg>
