<svg width="63" height="102" viewBox="0 0 63 102" fill="none" xmlns="http://www.w3.org/2000/svg">
<path d="M10.0938 59.5769C10.9468 46.4379 12.8221 31.242 14.2471 22.2C15.6721 13.158 15.9233 12 15.9233 12H46.8642C46.8642 12 47.1154 13.158 48.5404 22.2C49.9654 31.242 51.8407 46.4379 52.6938 59.5769C52.6938 59.5769 50.693 60.2702 47.1547 60.899C47.1634 61.1518 47.1698 61.3535 47.1735 61.4998C45.7549 61.7369 43.5816 62.0335 41.4405 62.2141L41.4524 62.5563C39.884 62.6821 37.7523 62.7825 35.7596 62.8433L35.7736 63.22C34.4864 63.2565 32.8687 63.2766 31.3937 63.2766C29.9187 63.2766 28.3011 63.2565 27.0139 63.22L27.0279 62.8433C25.0352 62.7825 22.9035 62.6821 21.3351 62.5563C21.3388 62.454 21.343 62.3328 21.3476 62.1935C19.2066 62.0129 17.0326 61.7369 15.614 61.4998C15.6178 61.3523 15.6242 61.1483 15.6331 60.8926C12.0947 60.2638 10.0938 59.5769 10.0938 59.5769Z" fill="#E3E0D3"/>
</svg>
