<svg width="64" height="102" viewBox="0 0 64 102" fill="none" xmlns="http://www.w3.org/2000/svg">
<path d="M10.5 88.421C11.353 75.282 13.2284 31.242 14.6534 22.2C16.0784 13.158 16.3295 12 16.3295 12H47.2705C47.2705 12 47.5216 13.158 48.9466 22.2C50.3716 31.242 52.247 75.282 53.1 88.421C53.1 88.421 51.104 89.1084 47.5657 89.7372C47.572 90.0212 47.5767 90.2256 47.5798 90.3439C46.1612 90.581 43.9894 90.8732 41.8484 91.0538C41.8521 91.1991 41.8556 91.3151 41.8586 91.4004C40.2903 91.5262 38.1605 91.6265 36.1679 91.6874C36.1724 91.8475 36.1764 91.9737 36.1798 92.0641C34.8927 92.1006 33.275 92.1207 31.8 92.1207C30.325 92.1207 28.7073 92.1006 27.4202 92.0641C27.4236 91.9737 27.4276 91.8475 27.4321 91.6874C25.4395 91.6265 23.3097 91.5262 21.7414 91.4004C21.7446 91.3119 21.7481 91.1905 21.752 91.0376C19.611 90.857 17.4388 90.581 16.0202 90.3439C16.0232 90.2278 16.0278 90.0288 16.034 89.7531C12.4956 89.1243 10.5 88.421 10.5 88.421Z" fill="#E3E0D3"/>
</svg>
