<svg width="64" height="102" viewBox="0 0 64 102" fill="none" xmlns="http://www.w3.org/2000/svg">
<path d="M15.2942 16.1998C15.5938 13.7998 15.8949 12.2998 18.2949 12.2998H22.1922H24.8922H38.7016L41.3932 12.2998L45.2989 12.2998C47.6989 12.2998 48 13.7998 48.2995 16.1998C48.4727 17.5869 48.6432 20.9319 48.7583 23.9984C48.8423 26.2377 48.8969 28.3285 48.9013 29.3998C48.9118 31.9382 50.0308 55.0876 50.1013 61.1998C50.1717 67.312 51.3453 87.1222 51.3438 93.7141V93.7258C51.3438 94.7538 51.3438 95.1459 50.7087 95.6169C50.1743 96.0132 50.1786 95.9998 48.6853 95.9998H35.1257C33.4885 95.9998 33.1219 95.2929 33.1219 94.34C32.9219 79.94 32.9935 41.3998 31.7935 35.9998C30.5935 41.3998 30.6718 79.94 30.4718 94.34C30.4718 95.2929 30.1052 95.9998 28.4681 95.9998H14.9085C13.4152 95.9998 13.4195 96.0132 12.885 95.6169C12.25 95.1459 12.25 94.7538 12.25 93.7258V93.7141C12.2485 87.1222 13.422 67.312 13.4925 61.1998C13.5629 55.0876 14.682 31.9382 14.6925 29.3998C14.6969 28.3285 14.7514 26.2377 14.8355 23.9984C14.9506 20.9319 15.1211 17.5869 15.2942 16.1998Z" fill="#E3E0D3"/>
</svg>
