<svg width="63" height="102" viewBox="0 0 63 102" fill="none" xmlns="http://www.w3.org/2000/svg">
<path d="M14.4978 16.1998C14.7974 13.7998 15.0985 12.2998 17.4985 12.2998H21.3938H24.0938H30.9903H30.9972H37.8938H40.5938H44.489C46.889 12.2998 47.1901 13.7998 47.4897 16.1998C47.6628 17.5869 47.8333 20.9318 47.9484 23.9983C48.0325 26.2377 48.087 28.3285 48.0914 29.3998C48.1019 31.9382 48.0918 57.2032 48.0914 61.1998C48.091 65.1964 48.4816 91.4446 48.4371 93.0971L48.4368 93.1063C48.3924 94.7542 48.3588 95.9998 46.3562 95.9998H34.8078C33.0903 95.9998 33.173 94.6071 33.1553 92.8905C33.1377 91.1756 32.1921 41.4942 30.9937 36.0153C29.7954 41.4942 28.8498 91.1756 28.8322 92.8905C28.8145 94.6071 28.8972 95.9998 27.1797 95.9998H15.6313C13.6287 95.9998 13.5951 94.7542 13.5507 93.1063L13.5504 93.0971C13.5059 91.4446 13.8965 65.1964 13.8961 61.1998C13.8957 57.2032 13.8856 31.9382 13.8961 29.3998C13.9005 28.3285 13.955 26.2377 14.0391 23.9983C14.1542 20.9318 14.3247 17.5869 14.4978 16.1998Z" fill="#E3E0D3"/>
</svg>
