<svg width="63" height="102" viewBox="0 0 63 102" fill="none" xmlns="http://www.w3.org/2000/svg">
<path d="M14.8962 16.1998C15.1958 13.7998 15.4969 12.2998 17.8969 12.2998H21.7984H24.4984H31.3955H38.2984H40.9984H44.9C47.3 12.2998 47.6011 13.7998 47.9007 16.1998C48.2003 18.5998 48.6715 25.6752 48.5024 29.3998C48.2016 41.9998 46.9798 51.4199 46.3798 58.9199C45.7798 66.4199 49.3729 93.1931 49.5332 94.3676C49.6935 95.5421 49.2242 96.1563 47.4422 96.1563C45.6601 96.1563 38.2347 96.3262 36.1542 96.1563C34.0736 95.9865 33.2142 96.0402 33.2154 94.696C33.2165 93.3518 32.5955 41.3998 31.3955 35.9998C30.1955 41.3998 29.5803 93.3518 29.5815 94.696C29.5826 96.0402 28.7233 95.9865 26.6427 96.1563C24.5621 96.3262 17.1368 96.1563 15.3547 96.1563C13.5727 96.1563 13.1034 95.5421 13.2637 94.3676C13.424 93.1931 17.017 66.4199 16.417 58.9199C15.817 51.4199 14.5953 41.9998 14.2945 29.3998C14.2287 27.9498 14.2599 25.9919 14.3402 23.9997C14.4663 20.8747 14.7133 17.6655 14.8962 16.1998Z" fill="#E3E0D3"/>
</svg>
