<svg width="63" height="84" viewBox="0 0 63 84" fill="none" xmlns="http://www.w3.org/2000/svg">
<path d="M14.4987 65.1C14.0084 61.698 12.6984 60.9 13.8986 52.2C15.0273 44.0186 14.5189 33.4341 14.4966 27.9746C15.0837 27.71 16.7726 27.0298 19.3596 26.6489C20.0979 26.5402 20.8864 26.4603 21.7066 26.4017C24.508 26.2016 27.6792 26.2504 30.4846 26.2504C33.2901 26.2504 36.5733 26.2016 39.3747 26.4017C40.1948 26.4603 40.9833 26.5402 41.7216 26.6489C44.9817 27.1289 47.4982 28.3418 47.4982 28.3418C47.4564 33.898 46.9943 44.1984 48.0982 52.2C49.2985 60.9 47.9885 61.698 47.4982 65.1C47.944 66.4374 48.3981 68.1 48.3434 69.6C48.2886 71.1 47.1981 72 45.6981 72.1095C44.1981 72.219 33.67 72.0322 29.7372 71.4061C23.5879 72.1263 17.267 72.2324 16.2988 72.1095C14.7988 71.919 13.8987 71.4 13.6729 70.0701C13.4471 68.7402 14.0189 66.5394 14.4987 65.1Z" fill="#E3E0D3"/>
</svg>
