<svg width="63" height="84" viewBox="0 0 63 84" fill="none" xmlns="http://www.w3.org/2000/svg">
<path d="M14.4987 65.0999C14.0084 61.6979 12.6984 60.8999 13.8986 52.1999C14.6758 46.5669 14.6768 39.7947 14.5948 34.3404C18.5484 29.7605 18.2164 23.0401 18.0983 21.8999C17.9664 20.6253 17.1013 16.7816 15.9442 15.1549C14.787 13.5282 15.5228 12.966 16.5985 11.9999C16.9763 11.6606 17.9042 10.9729 18.6493 10.4761C19.3945 9.97932 20.2077 9.57782 20.5896 9.43836C21.2994 9.1792 21.7938 9.31643 22.2296 9.69183C24.3883 8.82411 27.5099 8.46582 30.9602 8.46582C34.424 8.46582 37.5942 8.82696 39.7538 9.70216C40.1837 9.32666 40.6695 9.18264 41.3628 9.4231C41.7543 9.55888 42.5976 10.0406 43.433 10.5761C44.2685 11.1117 45.085 11.7212 45.3953 11.9999C46.471 12.966 47.2067 13.5282 46.0496 15.1549C44.8925 16.7816 44.0274 20.6253 43.8954 21.8999C43.7773 23.0404 43.4452 29.764 47.4021 34.344C47.3201 39.7977 47.3213 46.5682 48.0982 52.1999C49.2985 60.8999 47.9885 61.6979 47.4982 65.0999C47.944 66.4374 48.3981 68.0999 48.3434 69.5999C48.2886 71.0999 47.1981 71.9999 45.6981 72.1094C44.1981 72.219 33.67 72.0322 29.7372 71.406C23.5879 72.1263 17.267 72.2324 16.2988 72.1094C14.7988 71.919 13.8987 71.3999 13.6729 70.07C13.4471 68.7401 14.0189 66.5393 14.4987 65.0999Z" fill="#E3E0D3"/>
</svg>
