<svg width="63" height="84" viewBox="0 0 63 84" fill="none" xmlns="http://www.w3.org/2000/svg">
<path d="M14.9038 55.5C14.4134 52.098 13.7037 48.0648 14.9037 42.6C15.5774 39.5315 16.0228 32.5646 16.0975 27.5125C16.9604 27.2209 18.1988 26.8799 19.7674 26.6489C20.5057 26.5402 21.2942 26.4603 22.1144 26.4017C24.9158 26.2016 28.087 26.2504 30.8924 26.2504C33.6979 26.2504 36.9811 26.2016 39.7825 26.4017C40.6027 26.4603 41.3911 26.5402 42.1294 26.6489C44.3856 26.9811 45.9587 27.5409 46.7136 27.8542C46.7441 32.8741 46.6481 39.6001 47.3068 42.6C48.5068 48.0648 47.797 52.098 47.3067 55.5C47.7956 56.9665 48.3418 59.4 48.1243 60.6C47.9068 61.8 47.0068 62.4 46.1068 62.4766C45.2068 62.5532 36.2197 62.1994 33.357 61.3644C26.3952 62.4816 17.8433 62.6542 16.7039 62.5095C15.2039 62.319 14.1341 61.8 14.069 60.3C14.0039 58.8 14.436 56.9032 14.9038 55.5Z" fill="#E3E0D3"/>
</svg>
