<svg width="64" height="84" viewBox="0 0 64 84" fill="none" xmlns="http://www.w3.org/2000/svg">
<path d="M21.3041 43.5C18.304 43.2 17.6327 41.1 17.4041 38.7C17.2123 36.6861 17.6039 32.3485 18.2244 28.878C19.1392 25.618 18.9771 22.6265 18.9019 21.9C18.7699 20.6254 17.9048 16.7817 16.7477 15.155C15.5905 13.5283 16.9024 12.6879 17.9781 11.7218C18.7373 11.1617 19.3088 10.9871 19.8215 11.7661C23.5704 10.6859 28.4837 10.3154 31.802 10.3154C35.1239 10.3154 40.0047 10.6867 43.7552 11.7695C44.2684 10.9866 44.841 11.1609 45.6013 11.7218C46.677 12.6879 48.0103 13.5283 46.8531 15.155C45.696 16.7817 44.8309 20.6254 44.6989 21.9C44.6255 22.6098 44.5024 25.5338 45.3485 28.7058C45.9869 32.2038 46.3948 36.6526 46.1998 38.7C45.9713 41.1 45.2999 43.2 42.2999 43.5C40.3055 43.6994 36.3612 43.8133 31.7999 43.131C27.2404 43.8127 23.2978 43.6994 21.3041 43.5Z" fill="#E3E0D3"/>
</svg>
