<svg width="64" height="84" viewBox="0 0 64 84" fill="none" xmlns="http://www.w3.org/2000/svg">
<path d="M15.2956 65.1001C14.8053 61.6981 13.4952 60.9001 14.6955 52.2001C15.4726 46.5671 15.4737 39.7949 15.3916 34.3406C19.3453 29.7607 19.0133 23.0403 18.8952 21.9001C18.7632 20.6255 17.8982 16.7818 16.741 15.1551C15.5839 13.5284 16.3196 12.9662 17.3953 12.0001C17.6881 11.7371 18.4399 11.2423 18.9883 10.8793C19.5367 10.5163 20.4231 10.0573 21.0335 10.0215C21.3668 10.002 21.6812 10.0616 21.9802 10.1796C24.1389 9.13383 27.9974 8.46631 31.756 8.46631C35.5147 8.46631 39.4576 9.13383 41.6162 10.1796C42.0184 10.0209 42.4481 9.96783 42.9145 10.0708C43.4301 10.1846 44.1159 10.5639 44.8772 11.0527C45.6384 11.5415 45.9372 11.7711 46.1922 12.0001C47.2679 12.9662 48.0036 13.5284 46.8465 15.1551C45.6893 16.7818 44.8243 20.6255 44.6923 21.9001C44.5742 23.0403 44.2459 29.721 48.1996 34.3009C48.1169 39.762 48.1161 46.5535 48.8951 52.2001C50.0954 60.9001 48.7853 61.6981 48.295 65.1001C48.7409 66.4376 49.195 68.1001 49.1403 69.6001C49.0855 71.1001 47.995 72.0001 46.495 72.1096C44.995 72.2192 34.4668 72.0324 30.5341 71.4062C24.3848 72.1264 18.0639 72.2326 17.0957 72.1096C15.5957 71.9192 14.6956 71.4001 14.4698 70.0702C14.244 68.7403 14.8158 66.5395 15.2956 65.1001Z" fill="#E3E0D3"/>
</svg>
