<svg width="63" height="84" viewBox="0 0 63 84" fill="none" xmlns="http://www.w3.org/2000/svg">
<path d="M14.7018 65.1C14.2115 61.698 12.9015 60.9 14.1018 52.2C14.8789 46.567 14.8799 39.7948 14.7979 34.3405C18.7516 29.7606 18.4195 23.0402 18.3015 21.9C18.1695 20.6254 17.3044 16.7817 16.1473 15.155C14.9901 13.5283 16.3017 12.6879 17.3773 11.7218C18.1365 11.1617 18.7084 10.9871 19.2211 11.7661C22.97 10.6859 27.8832 10.3154 31.2016 10.3154C34.5235 10.3154 39.4043 10.6867 43.1548 11.7695C43.668 10.9866 44.2405 11.1609 45.0008 11.7218C46.0765 12.6879 47.4099 13.5283 46.2527 15.155C45.0956 16.7817 44.2305 20.6254 44.0985 21.9C43.9804 23.0405 43.6483 29.7641 47.6052 34.3441C47.5232 39.7978 47.5244 46.5683 48.3014 52.2C49.5016 60.9 48.1916 61.698 47.7013 65.1C48.1471 66.4375 48.6013 68.1 48.5465 69.6C48.4917 71.1 47.4013 72 45.9013 72.1095C44.4013 72.2191 33.8731 72.0323 29.9403 71.4061C23.791 72.1264 17.4702 72.2325 16.5019 72.1095C15.0019 71.9191 14.1019 71.4 13.8761 70.0701C13.6503 68.7402 14.222 66.5394 14.7018 65.1Z" fill="#E3E0D3"/>
</svg>
