<svg width="63" height="84" viewBox="0 0 63 84" fill="none" xmlns="http://www.w3.org/2000/svg">
<path d="M14.905 65.1C14.4147 61.698 13.1046 60.9 14.3049 52.2C15.082 46.567 15.0831 39.7948 15.001 34.3405C18.9547 29.7606 18.6226 23.0402 18.5046 21.9C18.3726 20.6254 17.5076 16.7817 16.3504 15.155C15.1933 13.5283 15.1407 13.106 16.2164 12.1399C17.8062 10.5834 18.6859 10.915 19.4531 11.7578C23.1982 10.684 28.0557 10.3154 31.3656 10.3154C34.6842 10.3154 39.5979 10.6859 43.347 11.7664C44.116 10.9172 44.9963 10.5782 46.5914 12.1399C47.6671 13.106 47.613 13.5283 46.4558 15.155C45.2987 16.7817 44.4336 20.6254 44.3017 21.9C44.1836 23.0405 43.8514 29.7641 47.8083 34.3441C47.7263 39.7978 47.7275 46.5683 48.5045 52.2C49.7048 60.9 48.3947 61.698 47.9044 65.1C48.3502 66.4375 48.8044 68.1 48.7496 69.6C48.6949 71.1 47.6044 72 46.1044 72.1095C44.6044 72.2191 34.0762 72.0323 30.1435 71.4061C23.9941 72.1264 17.6733 72.2325 16.7051 72.1095C15.2051 71.9191 14.305 71.4 14.0792 70.0701C13.8534 68.7402 14.4251 66.5394 14.905 65.1Z" fill="#E3E0D3"/>
</svg>
