<svg width="63" height="84" viewBox="0 0 63 84" fill="none" xmlns="http://www.w3.org/2000/svg">
<path d="M14.4975 55.5C14.0072 52.098 13.2974 48.0649 14.4974 42.6C14.9394 40.5872 15.2831 36.8968 15.4884 33.1699C18.4968 28.6917 18.2082 22.9463 18.0999 21.9C17.9679 20.6254 17.1029 16.7817 15.9457 15.155C14.7886 13.5283 16.1001 12.6879 17.1758 11.7218C17.935 11.1617 18.5069 10.9871 19.0195 11.7661C22.7685 10.6859 27.6817 10.3154 31 10.3154C34.3219 10.3154 39.2027 10.6867 42.9533 11.7695C43.4665 10.9866 44.0389 11.1609 44.7992 11.7218C45.8749 12.6879 47.2083 13.5283 46.0512 15.155C44.894 16.7817 44.0289 20.6254 43.897 21.9C43.7909 22.9247 43.512 28.4556 46.3257 32.8899C46.3515 36.711 46.4475 40.5368 46.9006 42.6C48.1006 48.0649 47.3908 52.098 46.9005 55.5C47.3893 56.9665 47.9355 59.4 47.7181 60.6C47.5006 61.8 46.6006 62.4 45.7006 62.4766C44.8006 62.5533 35.8134 62.1995 32.9508 61.3644C25.9889 62.4817 17.4371 62.6542 16.2977 62.5095C14.7977 62.3191 13.7279 61.8 13.6628 60.3C13.5977 58.8 14.0297 56.9033 14.4975 55.5Z" fill="#E3E0D3"/>
</svg>
