<svg width="64" height="84" viewBox="0 0 64 84" fill="none" xmlns="http://www.w3.org/2000/svg">
<path d="M15.2944 55.5C14.8041 52.098 14.0943 48.0649 15.2943 42.6C15.7363 40.5872 16.08 36.8968 16.2852 33.1699C19.2936 28.6917 19.0051 22.9463 18.8968 21.9C18.7648 20.6254 17.8997 16.7817 16.7426 15.155C15.5855 13.5283 15.5329 13.106 16.6086 12.1399C18.1983 10.5834 19.0781 10.915 19.8452 11.7578C23.5903 10.684 28.4479 10.3154 31.7578 10.3154C35.0764 10.3154 39.9901 10.6859 43.7392 11.7664C44.5082 10.9172 45.3885 10.5782 46.9836 12.1399C48.0593 13.106 48.0052 13.5283 46.848 15.155C45.6909 16.7817 44.8258 20.6254 44.6938 21.9C44.5878 22.9247 44.3089 28.4556 47.1226 32.8899C47.1483 36.711 47.2444 40.5368 47.6974 42.6C48.8974 48.0649 48.1877 52.098 47.6973 55.5C48.1862 56.9665 48.7324 59.4 48.5149 60.6C48.2975 61.8 47.3975 62.4 46.4975 62.4766C45.5975 62.5533 36.6103 62.1995 33.7477 61.3644C26.7858 62.4817 18.234 62.6542 17.0945 62.5095C15.5945 62.3191 14.5248 61.8 14.4597 60.3C14.3945 58.8 14.8266 56.9033 15.2944 55.5Z" fill="#E3E0D3"/>
</svg>
