<svg width="63" height="84" viewBox="0 0 63 84" fill="none" xmlns="http://www.w3.org/2000/svg">
<path d="M20.0896 50.5448C17.5078 50.0577 14.9757 48.5424 17.1091 42.4727C16.7102 41.3879 15.7619 38.7437 16.354 32.4289C18.8694 28.0806 18.6059 22.8894 18.5034 21.9C18.3715 20.6254 17.5064 16.7817 16.3493 15.155C15.1921 13.5283 16.5036 12.6879 17.5793 11.7218C18.3385 11.1617 18.9104 10.9871 19.423 11.7661C23.172 10.6859 28.0852 10.3154 31.4036 10.3154C34.7254 10.3154 39.6063 10.6867 43.3568 11.7695C43.87 10.9866 44.4425 11.1609 45.2028 11.7218C46.2784 12.6879 47.6118 13.5283 46.4547 15.155C45.2975 16.7817 44.4325 20.6254 44.3005 21.9C44.198 22.8899 43.9342 28.0856 46.4536 32.4352C47.0445 38.7455 46.0967 41.3882 45.6979 42.4727C47.8313 48.5424 45.2992 50.0577 42.7174 50.5448C40.9767 50.8732 36.3919 50.9792 31.4162 50.2688C26.4307 50.9832 21.8332 50.8738 20.0896 50.5448Z" fill="#E3E0D3"/>
</svg>
