<svg width="63" height="84" viewBox="0 0 63 84" fill="none" xmlns="http://www.w3.org/2000/svg">
<path d="M20.9082 43.5001C17.9082 43.2001 17.2368 41.1001 17.0082 38.7001C16.8165 36.6862 17.208 32.3486 17.8285 28.8781C18.7433 25.6181 18.5812 22.6266 18.506 21.9001C18.3741 20.6255 17.509 16.7818 16.3518 15.1551C15.1947 13.5284 15.9305 12.9662 17.0061 12.0001C17.2611 11.7711 17.9989 11.2372 18.5781 10.8335C19.1573 10.4298 19.6237 10.2723 20.0799 10.128C20.6293 9.95427 21.1284 9.99704 21.5911 10.1796C23.7497 9.13383 27.6082 8.46631 31.3668 8.46631C35.1255 8.46631 39.0684 9.13383 41.227 10.1796C41.7036 9.99154 42.2189 9.95181 42.788 10.1443C43.2301 10.2938 44.0099 10.7699 44.488 11.0527C44.9661 11.3355 45.548 11.7711 45.803 12.0001C46.8787 12.9662 47.6144 13.5284 46.4573 15.1551C45.3001 16.7818 44.4351 20.6255 44.3031 21.9001C44.2276 22.6288 44.0648 25.6367 44.9891 28.9084C45.6065 32.3739 45.9952 36.6921 45.804 38.7001C45.5754 41.1001 44.9041 43.2001 41.904 43.5001C39.9097 43.6995 35.9653 43.8134 31.4041 43.1311C26.8446 43.8128 22.902 43.6995 20.9082 43.5001Z" fill="#E3E0D3"/>
</svg>
