<svg width="64" height="84" viewBox="0 0 64 84" fill="none" xmlns="http://www.w3.org/2000/svg">
<path d="M20.4876 50.5448C17.9058 50.0576 15.3737 48.5424 17.5071 42.4727C17.0124 41.1272 15.6724 37.3829 17.4748 27.2115C18.2144 27.0066 19.1149 26.8032 20.1627 26.6489C20.9011 26.5402 21.6895 26.4603 22.5097 26.4017C25.3111 26.2016 28.4823 26.2504 31.2877 26.2504C34.0932 26.2504 37.3764 26.2016 40.1778 26.4017C40.998 26.4603 41.7864 26.5402 42.5248 26.6489C44.0846 26.8786 45.318 27.217 46.1802 27.5076C47.9046 37.4558 46.5858 41.1403 46.096 42.4727C48.2293 48.5424 45.6973 50.0576 43.1154 50.5448C41.3748 50.8732 36.79 50.9792 31.8142 50.2687C26.8287 50.9832 22.2313 50.8738 20.4876 50.5448Z" fill="#E3E0D3"/>
</svg>
