<svg width="63" height="84" viewBox="0 0 63 84" fill="none" xmlns="http://www.w3.org/2000/svg">
<path d="M19.686 50.5449C17.1041 50.0578 14.5721 48.5425 16.7054 42.4728C16.3066 41.388 15.3582 38.7438 15.9504 32.429C18.4658 28.0807 18.2022 22.8895 18.0998 21.9001C17.9678 20.6255 17.1027 16.7818 15.9456 15.1551C14.7885 13.5284 15.5242 12.9662 16.5999 12.0001C16.8549 11.7711 17.1733 11.5432 17.9149 11.0527C18.6565 10.5622 19.3605 10.1903 19.8722 10.074C20.3441 9.96676 20.7785 10.0193 21.1848 10.1796C23.3434 9.13383 27.202 8.46631 30.9606 8.46631C34.7192 8.46631 38.6621 9.13383 40.8208 10.1796C41.2626 10.0053 41.7376 9.9584 42.258 10.1058C42.735 10.241 43.471 10.6836 44.0817 11.0527C44.6925 11.4219 45.1417 11.7711 45.3967 12.0001C46.4724 12.9662 47.2082 13.5284 46.051 15.1551C44.8939 16.7818 44.0288 20.6255 43.8968 21.9001C43.7944 22.89 43.5306 28.0857 46.0499 32.4353C46.6408 38.7456 45.693 41.3883 45.2943 42.4728C47.4276 48.5425 44.8956 50.0578 42.3137 50.5449C40.5731 50.8733 35.9883 50.9793 31.0125 50.2689C26.027 50.9833 21.4296 50.8739 19.686 50.5449Z" fill="#E3E0D3"/>
</svg>
