<svg width="63" height="84" viewBox="0 0 63 84" fill="none" xmlns="http://www.w3.org/2000/svg">
<path d="M20.7051 43.4999C17.705 43.1999 17.0337 41.0999 16.8051 38.6999C16.6133 36.686 17.0049 32.3484 17.6254 28.8779C18.5402 25.6179 18.3781 22.6264 18.3029 21.8999C18.1709 20.6253 17.3059 16.7816 16.1487 15.1549C14.9916 13.5282 15.7273 12.966 16.803 11.9999C17.1803 11.6611 18.1854 10.9875 19.0071 10.4159C19.8288 9.84432 20.4502 9.55624 20.8431 9.42102C21.5268 9.18567 22.0084 9.32511 22.4341 9.69183C24.5929 8.82411 27.7145 8.46582 31.1647 8.46582C34.6286 8.46582 37.7988 8.82696 39.9584 9.70216C40.3779 9.33577 40.8505 9.18976 41.5173 9.40628C41.9197 9.53696 42.7283 10.0436 43.5287 10.5156C44.3291 10.9876 45.2609 11.6955 45.5999 11.9999C46.6755 12.966 47.4113 13.5282 46.2542 15.1549C45.097 16.7816 44.2319 20.6253 44.1 21.8999C44.0245 22.6286 43.8617 25.6365 44.786 28.9082C45.4034 32.3737 45.7921 36.6919 45.6009 38.6999C45.3723 41.0999 44.701 43.1999 41.7009 43.4999C39.7066 43.6993 35.7622 43.8132 31.201 43.1309C26.6414 43.8126 22.6988 43.6993 20.7051 43.4999Z" fill="#E3E0D3"/>
</svg>
