<svg width="63" height="84" viewBox="0 0 63 84" fill="none" xmlns="http://www.w3.org/2000/svg">
<path d="M16.8068 38.7C16.5782 36.3 17.1781 30.6 18.0067 27C18.4668 26.9008 19.0257 26.7284 19.5659 26.6489C20.3042 26.5402 21.0927 26.4603 21.9128 26.4017C24.7142 26.2016 27.8854 26.2504 30.6909 26.2504C33.4963 26.2504 36.7795 26.2016 39.5809 26.4017C40.4011 26.4603 41.1896 26.5402 41.9279 26.6489C42.894 26.7912 43.7348 26.9751 44.4398 27.1636C45.2491 30.7705 45.8277 36.336 45.6026 38.7C45.374 41.1 44.7027 43.2 41.7026 43.5C39.7082 43.6994 35.7639 43.8133 31.2026 43.1309C26.6431 43.8126 22.7005 43.6993 20.7068 43.5C17.7067 43.2 17.0354 41.1 16.8068 38.7Z" fill="#E3E0D3"/>
</svg>
