<svg width="63" height="84" viewBox="0 0 63 84" fill="none" xmlns="http://www.w3.org/2000/svg">
<path d="M14.9038 55.4999C14.4134 52.0979 13.7037 48.0648 14.9037 42.5999C15.3456 40.5871 15.6893 36.8967 15.8946 33.1698C18.903 28.6916 18.6145 22.9462 18.5062 21.8999C18.3742 20.6253 17.5091 16.7816 16.352 15.1549C15.1948 13.5282 15.9306 12.966 17.0063 11.9999C17.3865 11.6584 18.4493 10.9389 19.2621 10.3815C20.075 9.8241 20.7864 9.4835 21.2151 9.36939C21.8109 9.21081 22.2476 9.35603 22.6374 9.69183C24.7961 8.82411 27.9177 8.46582 31.368 8.46582C34.8319 8.46582 38.002 8.82696 40.1616 9.70216C40.5549 9.35872 40.9948 9.20892 41.5975 9.36982C42.0259 9.48418 42.6198 9.76933 43.5953 10.3641C44.5707 10.9589 45.4099 11.6467 45.8031 11.9999C46.8788 12.966 47.6145 13.5282 46.4574 15.1549C45.3003 16.7816 44.4352 20.6253 44.3032 21.8999C44.1971 22.9246 43.9182 28.4555 46.732 32.8898C46.7577 36.7109 46.8538 40.5367 47.3068 42.5999C48.5068 48.0648 47.797 52.0979 47.3067 55.4999C47.7956 56.9664 48.3418 59.3999 48.1243 60.5999C47.9068 61.7999 47.0068 62.3999 46.1068 62.4765C45.2068 62.5532 36.2197 62.1994 33.357 61.3643C26.3952 62.4816 17.8433 62.6541 16.7039 62.5094C15.2039 62.319 14.1341 61.7999 14.069 60.2999C14.0039 58.7999 14.436 56.9032 14.9038 55.4999Z" fill="#E3E0D3"/>
</svg>
