<svg width="63" height="84" viewBox="0 0 63 84" fill="none" xmlns="http://www.w3.org/2000/svg">
<path d="M20.509 43.5C17.509 43.2 16.8376 41.1 16.6091 38.7C16.4165 36.6777 16.8121 32.3124 17.4371 28.8347C18.2561 25.6991 18.1796 22.603 18.1068 21.9C17.9749 20.6254 17.1098 16.7817 15.9526 15.155C14.7955 13.5283 14.743 13.106 15.8186 12.1399C17.4084 10.5834 18.2881 10.915 19.0553 11.7578C22.8004 10.684 27.658 10.3154 30.9678 10.3154C34.2864 10.3154 39.2001 10.6859 42.9492 11.7664C43.7183 10.9172 44.5985 10.5782 46.1936 12.1399C47.2693 13.106 47.2152 13.5283 46.0581 15.155C44.9009 16.7817 44.0359 20.6254 43.9039 21.9C43.8284 22.6287 43.6656 25.6366 44.5899 28.9083C45.2073 32.3738 45.596 36.692 45.4048 38.7C45.1762 41.1 44.5049 43.2 41.5048 43.5C39.5105 43.6994 35.5661 43.8133 31.0049 43.131C26.4454 43.8127 22.5028 43.6994 20.509 43.5Z" fill="#E3E0D3"/>
</svg>
