<svg width="63" height="84" viewBox="0 0 63 84" fill="none" xmlns="http://www.w3.org/2000/svg">
<path d="M19.8961 50.5448C17.3143 50.0577 14.7822 48.5424 16.9156 42.4727C16.5167 41.3879 15.5684 38.7437 16.1606 32.4289C18.676 28.0806 18.4124 22.8894 18.31 21.9C18.178 20.6254 17.3129 16.7817 16.1558 15.155C14.9986 13.5283 14.9461 13.106 16.0218 12.1399C17.6115 10.5834 18.4912 10.915 19.2584 11.7578C23.0035 10.684 27.8611 10.3154 31.1709 10.3154C34.4896 10.3154 39.4033 10.6859 43.1524 11.7664C43.9214 10.9172 44.8017 10.5782 46.3968 12.1399C47.4725 13.106 47.4184 13.5283 46.2612 15.155C45.1041 16.7817 44.239 20.6254 44.107 21.9C44.0045 22.8899 43.7408 28.0856 46.2601 32.4352C46.851 38.7455 45.9032 41.3882 45.5045 42.4727C47.6378 48.5424 45.1058 50.0577 42.5239 50.5448C40.7832 50.8732 36.1985 50.9792 31.2227 50.2688C26.2372 50.9832 21.6398 50.8738 19.8961 50.5448Z" fill="#E3E0D3"/>
</svg>
