<svg width="63" height="84" viewBox="0 0 63 84" fill="none" xmlns="http://www.w3.org/2000/svg">
<path d="M14.7006 55.5001C14.2103 52.0981 13.5005 48.065 14.7005 42.6001C15.1425 40.5873 15.4862 36.8969 15.6915 33.17C18.6999 28.6918 18.4114 22.9464 18.303 21.9001C18.1711 20.6255 17.306 16.7818 16.1488 15.1551C14.9917 13.5284 15.7275 12.9662 16.8031 12.0001C17.0581 11.7711 17.422 11.5325 18.1181 11.0527C18.8142 10.5729 19.3786 10.2977 19.8183 10.1473C20.3909 9.95141 20.909 9.99057 21.388 10.1796C23.5467 9.13383 27.4052 8.46631 31.1638 8.46631C34.9225 8.46631 38.8654 9.13383 41.024 10.1796C41.4724 10.0026 41.9551 9.95702 42.4847 10.1126C42.9552 10.2508 43.4939 10.5367 44.1001 10.932C44.7063 11.3273 45.345 11.7711 45.6 12.0001C46.6757 12.9662 47.4114 13.5284 46.2543 15.1551C45.0971 16.7818 44.2321 20.6255 44.1001 21.9001C43.994 22.9248 43.7151 28.4557 46.5288 32.89C46.5546 36.7111 46.6506 40.5369 47.1037 42.6001C48.3037 48.065 47.5939 52.0981 47.1036 55.5001C47.5925 56.9666 48.1386 59.4001 47.9212 60.6001C47.7037 61.8001 46.8037 62.4001 45.9037 62.4767C45.0037 62.5534 36.0165 62.1996 33.1539 61.3645C26.192 62.4818 17.6402 62.6543 16.5008 62.5096C15.0008 62.3192 13.931 61.8001 13.8659 60.3001C13.8008 58.8001 14.2329 56.9034 14.7006 55.5001Z" fill="#E3E0D3"/>
</svg>
