<svg width="64" height="54" viewBox="0 0 64 54" fill="none" xmlns="http://www.w3.org/2000/svg">
<path d="M29.3564 44.6385C29.5403 45.5162 30.2097 48.1538 29.6649 50.8699C29.6649 50.8699 29.9674 52.2262 29.1725 52.2262C28.3777 52.2262 6.2464 52.2368 4.52966 52.2368C3.55657 52.2368 3.09416 52.21 3.09416 51.4223C3.09416 51.1213 3.1306 50.966 3.16283 50.8699C2.48858 49.015 2.70811 48.0314 3.81957 47.0467C4.9341 46.0593 6.22428 46.1896 8.53054 45.4258C9.58447 45.0767 11.3585 44.5071 13.0008 43.7757C14.9523 42.9066 16.7473 41.8701 17.3392 41.5607C18.4292 40.9908 20.4738 41.3664 20.2257 42.6584C20.1308 43.1525 19.8618 43.6266 19.5242 44.0585C19.8224 44.2696 20.9001 44.7447 21.6953 44.9991C21.845 44.8721 21.9861 44.7492 22.1076 44.6385C22.834 43.9762 23.0275 43.7708 24.4755 43.9153C25.9236 44.0598 26.6187 43.9732 27.6033 43.5677C28.588 43.1623 29.1725 43.7608 29.3564 44.6385Z" fill="#E3E0D3"/>
<path d="M34.2547 44.6386C34.0709 45.5163 33.4015 48.1539 33.9462 50.87C33.9462 50.87 33.6438 52.2263 34.4386 52.2263C35.2335 52.2263 57.3647 52.2369 59.0815 52.2369C60.0546 52.2369 60.517 52.2101 60.517 51.4224C60.517 51.1214 60.4805 50.9661 60.4483 50.87C61.1225 49.0151 60.903 48.0315 59.7916 47.0468C58.677 46.0594 57.3868 46.1897 55.0806 45.4259C54.0266 45.0768 52.2527 44.5072 50.6103 43.7758C48.6588 42.9067 46.8638 41.8702 46.2719 41.5608C45.1819 40.9909 43.1373 41.3665 43.3854 42.6585C43.4803 43.1526 43.7493 43.6267 44.0869 44.0586C43.7888 44.2697 42.711 44.7448 41.9158 44.9992C41.7661 44.8722 41.625 44.7493 41.5035 44.6386C40.7771 43.9763 40.5836 43.7709 39.1356 43.9154C37.6875 44.0599 36.9925 43.9733 36.0078 43.5678C35.0231 43.1624 34.4386 43.7609 34.2547 44.6386Z" fill="#E3E0D3"/>
</svg>
