<svg width="63" height="54" viewBox="0 0 63 54" fill="none" xmlns="http://www.w3.org/2000/svg">
<path d="M28.5595 44.6385C28.7434 45.5162 29.4128 48.1538 28.8681 50.8699C28.8681 50.8699 29.1705 52.2262 28.3756 52.2262C27.5808 52.2262 5.44953 52.2368 3.73278 52.2368C2.7597 52.2368 2.29729 52.21 2.29729 51.4223C2.29729 51.1213 2.33373 50.966 2.36595 50.8699C1.69171 49.015 1.91123 48.0314 3.0227 47.0467C4.13723 46.0593 5.4274 46.1896 7.73366 45.4258C8.7876 45.0767 10.5616 44.5071 12.2039 43.7757C14.1554 42.9066 15.9504 41.8701 16.5423 41.5607C17.6323 40.9908 19.6769 41.3664 19.4288 42.6584C19.3339 43.1525 19.065 43.6266 18.7273 44.0585C19.0255 44.2696 20.1033 44.7447 20.8984 44.9991C21.0481 44.8721 21.1893 44.7492 21.3107 44.6385C22.0371 43.9762 22.2306 43.7708 23.6787 43.9153C25.1267 44.0598 25.8218 43.9732 26.8065 43.5677C27.7912 43.1623 28.3756 43.7608 28.5595 44.6385Z" fill="#E3E0D3"/>
<path d="M33.4579 44.6386C33.274 45.5163 32.6046 48.1539 33.1493 50.87C33.1493 50.87 32.8469 52.2263 33.6417 52.2263C34.4366 52.2263 56.5678 52.2369 58.2846 52.2369C59.2577 52.2369 59.7201 52.2101 59.7201 51.4224C59.7201 51.1214 59.6836 50.9661 59.6514 50.87C60.3257 49.0151 60.1061 48.0315 58.9947 47.0468C57.8801 46.0594 56.59 46.1897 54.2837 45.4259C53.2298 45.0768 51.4558 44.5072 49.8134 43.7758C47.862 42.9067 46.0669 41.8702 45.4751 41.5608C44.3851 40.9909 42.3404 41.3665 42.5885 42.6585C42.6834 43.1526 42.9524 43.6267 43.2901 44.0586C42.9919 44.2697 41.9141 44.7448 41.119 44.9992C40.9692 44.8722 40.8281 44.7493 40.7067 44.6386C39.9803 43.9763 39.7868 43.7709 38.3387 43.9154C36.8906 44.0599 36.1956 43.9733 35.2109 43.5678C34.2262 43.1624 33.6417 43.7609 33.4579 44.6386Z" fill="#E3E0D3"/>
</svg>
