<svg width="64" height="54" viewBox="0 0 64 54" fill="none" xmlns="http://www.w3.org/2000/svg">
<path d="M59.7251 45.9691C61.1323 47.3252 61.1161 49.0107 60.4405 50.8695C60.4405 50.8695 60.5092 51.1209 60.5092 51.4219C60.5092 52.2096 60.0468 52.2364 59.0737 52.2364C57.357 52.2364 35.2257 52.2258 34.4309 52.2258C33.636 52.2258 33.9384 50.8695 33.9384 50.8695C33.9029 49.0159 33.9614 46.9124 34.071 44.8607C34.3202 40.1933 34.8339 35.7936 35.1071 35.2123C35.5004 34.3753 36.5938 33.7946 37.9403 34.0981C39.2868 34.4015 40.7098 34.5438 40.7098 34.5438C41.721 33.9144 42.8335 33.4729 43.9547 33.6386C44.8634 33.7728 44.4664 36.1661 45.3522 38.2379C45.5593 38.7223 45.8366 39.1891 46.2171 39.6054C46.4998 39.9147 46.8909 40.2249 47.354 40.5294C48.0022 40.9555 48.7916 41.3707 49.6234 41.7575C50.5307 42.1794 51.4883 42.5676 52.3679 42.8994C54.1966 43.5893 55.6879 44.0356 55.6879 44.0356C57.269 44.4838 58.7755 45.0538 59.7251 45.9691Z" fill="#E3E0D3"/>
<path d="M3.87212 45.9691C2.465 47.3252 2.48117 49.0107 3.15672 50.8695C3.15672 50.8695 3.08806 51.1209 3.08806 51.4219C3.08806 52.2096 3.55046 52.2364 4.52355 52.2364C6.2403 52.2364 28.3716 52.2258 29.1664 52.2258C29.9612 52.2258 29.6588 50.8695 29.6588 50.8695C29.6944 49.0159 29.6359 46.9124 29.5263 44.8607C29.277 40.1933 28.7633 35.7936 28.4901 35.2123C28.0969 34.3753 27.0034 33.7946 25.6569 34.0981C24.3105 34.4015 22.8874 34.5438 22.8874 34.5438C21.8762 33.9144 20.7637 33.4729 19.6425 33.6386C18.7338 33.7728 19.1308 36.1661 18.245 38.2379C18.0379 38.7223 17.7607 39.1891 17.3802 39.6054C17.0974 39.9147 16.7064 40.2249 16.2433 40.5294C15.5951 40.9555 14.8056 41.3707 13.9738 41.7575C13.0666 42.1794 12.109 42.5676 11.2294 42.8994C9.4007 43.5893 7.90936 44.0356 7.90936 44.0356C6.32824 44.4838 4.82176 45.0538 3.87212 45.9691Z" fill="#E3E0D3"/>
</svg>
