<svg width="63" height="54" viewBox="0 0 63 54" fill="none" xmlns="http://www.w3.org/2000/svg">
<path d="M3.27154 45.9691C1.86442 47.3252 1.87903 49.0107 2.55458 50.8695C2.52236 50.9657 2.48748 51.1209 2.48748 51.4219C2.48748 52.2096 2.94988 52.2364 3.92297 52.2364C5.63972 52.2364 27.771 52.2258 28.5658 52.2258C29.3607 52.2258 29.0583 50.8695 29.0583 50.8695C29.1027 48.5504 28.9597 46.4976 28.744 44.7993C28.3951 42.0524 27.8562 40.2333 27.6132 39.7161C27.2199 38.8792 26.4197 38.5099 25.0732 38.8134C23.7267 39.1168 21.9692 38.9697 21.7352 38.8134C21.5012 38.657 20.1631 38.0249 19.042 38.1905C17.9208 38.3562 17.439 39.2718 16.0817 40.3161C15.9845 40.3909 15.8563 40.4741 15.7019 40.564C15.1502 40.8854 14.2649 41.2934 13.2719 41.7158C12.3957 42.0885 11.4356 42.4725 10.5467 42.8181C8.78839 43.5019 7.30878 44.0356 7.30878 44.0356C5.72766 44.4838 4.22119 45.0538 3.27154 45.9691Z" fill="#E3E0D3"/>
<path d="M59.0769 45.9691C60.484 47.3252 60.4694 49.0108 59.7939 50.8695C59.8261 50.9657 59.861 51.121 59.861 51.4219C59.861 52.2097 59.3986 52.2364 58.4255 52.2364C56.7087 52.2364 34.5775 52.2258 33.7826 52.2258C32.9878 52.2258 33.2902 50.8695 33.2902 50.8695C33.2457 48.5505 33.3888 46.4976 33.6044 44.7994C33.9533 42.0525 34.4922 40.2334 34.7352 39.7162C35.1285 38.8792 35.9287 38.51 37.2752 38.8134C38.6217 39.1169 40.3793 38.9698 40.6133 38.8134C40.8473 38.6571 42.1853 38.0249 43.3065 38.1906C44.4277 38.3562 44.9094 39.2718 46.2667 40.3162C46.3639 40.391 46.4922 40.4741 46.6465 40.564C47.1982 40.8854 48.0835 41.2934 49.0765 41.7158C49.9527 42.0886 50.9128 42.4725 51.8017 42.8182C53.5601 43.5019 55.0397 44.0356 55.0397 44.0356C56.6208 44.4839 58.1273 45.0539 59.0769 45.9691Z" fill="#E3E0D3"/>
</svg>
