<svg width="63" height="84" viewBox="0 0 63 84" fill="none" xmlns="http://www.w3.org/2000/svg">
<path d="M40.5964 43.5001C38.0082 43.7576 34.6776 43.5793 30.9969 42.895C27.3162 43.5793 23.9855 43.7576 21.3974 43.5001C20.5581 43.4166 19.785 43.2641 19.0839 43.0463C18.8691 48.8577 18.4428 53.5323 17.6104 55.9163C16.1039 60.2313 13.8933 62.0137 13.8933 62.0137C13.8933 62.0137 14.3972 63.987 12.8602 64.3712C11.3233 64.7555 6.36771 64.2001 5.10423 63.0953C3.84076 61.9904 4.50586 60.5685 4.50586 60.5685C4.50586 60.5685 0.104061 56.0476 1.73909 46.9055C3.37413 37.7634 5.66884 29.6277 6.73562 25.5384C7.80241 21.449 10.2933 17.1001 14.1933 13.5001C15.1012 12.662 15.8212 12.1776 16.8298 11.4146C17.8383 10.6516 19.9656 10.029 20.324 10.2089C20.774 9.47332 21.3641 9.40269 22.0014 9.78415C24.1653 8.8419 27.3753 8.46631 30.9586 8.46631C34.6213 8.46631 37.9512 8.87009 40.1144 9.85845C40.8766 9.53354 41.6226 9.70282 42.1484 10.4259C42.2725 10.3638 42.477 10.3034 42.7437 10.2826C43.2494 10.2428 44.5586 10.891 45.4706 11.632C46.3826 12.373 47.0115 12.7747 47.7974 13.5001C51.6974 17.1001 54.1882 21.449 55.255 25.5384C56.3218 29.6277 58.6165 37.7634 60.2515 46.9055C61.8866 56.0476 57.4848 60.5685 57.4848 60.5685C57.4848 60.5685 58.1499 61.9904 56.8864 63.0953C55.6229 64.2001 50.6674 64.7555 49.1304 64.3712C47.5935 63.987 48.0974 62.0137 48.0974 62.0137C48.0974 62.0137 45.8868 60.2313 44.3802 55.9163C43.5479 53.5324 43.1216 48.8582 42.9067 43.0473C42.2065 43.2645 41.4345 43.4167 40.5964 43.5001Z" fill="#E3E0D3"/>
</svg>
