<svg width="64" height="84" viewBox="0 0 64 84" fill="none" xmlns="http://www.w3.org/2000/svg">
<path d="M31.7938 42.895C35.4745 43.5793 38.8051 43.7576 41.3932 43.5001C42.2313 43.4167 43.0034 43.2645 43.7036 43.0473C43.9185 48.8582 44.3447 53.5324 45.1771 55.9163C46.6836 60.2313 48.8942 62.0137 48.8942 62.0137C48.8942 62.0137 48.3903 63.987 49.9273 64.3712C51.4642 64.7555 56.4198 64.2001 57.6833 63.0953C58.9467 61.9904 58.2816 60.5685 58.2816 60.5685C58.2816 60.5685 62.6834 56.0476 61.0484 46.9055C59.4134 37.7634 57.1187 29.6277 56.0519 25.5384C54.9851 21.449 52.4942 17.1001 48.5942 13.5001C48.0216 12.9715 47.289 12.4277 46.5309 11.9066C45.7729 11.3854 44.4047 10.7743 43.9503 10.8812C43.4563 10.0029 42.7065 9.96682 41.8798 10.3503C39.7212 9.30451 35.5515 8.46631 31.7929 8.46631C28.0343 8.46631 23.9976 9.35985 21.8389 10.4057C21.0122 10.0222 20.1483 10.0029 19.6543 10.8812C19.1999 10.7743 17.9751 11.0854 17.0696 11.7494C16.1793 12.4024 15.6116 12.9264 15.0203 13.4723L14.9901 13.5001C11.0901 17.1001 8.59929 21.449 7.5325 25.5384C6.46571 29.6277 4.171 37.7634 2.53597 46.9055C0.900936 56.0476 5.30273 60.5685 5.30273 60.5685C5.30273 60.5685 4.63763 61.9904 5.90111 63.0953C7.16458 64.2001 12.1201 64.7555 13.6571 64.3712C15.194 63.987 14.6901 62.0137 14.6901 62.0137C14.6901 62.0137 16.9007 60.2313 18.4073 55.9163C19.2397 53.5323 19.666 48.8577 19.8808 43.0463C20.5818 43.2641 21.3549 43.4166 22.1943 43.5001C24.7824 43.7576 28.113 43.5793 31.7938 42.895Z" fill="#E3E0D3"/>
</svg>
