<svg width="63" height="84" viewBox="0 0 63 84" fill="none" xmlns="http://www.w3.org/2000/svg">
<path d="M31.4043 61.5413C35.585 62.3654 39.5423 62.595 42.3714 61.9311C44.2791 61.4835 45.7291 60.8134 46.8018 60.0102C47.7385 61.3967 48.5036 62.0136 48.5036 62.0136C48.5036 62.0136 47.9997 63.9869 49.5367 64.3711C51.0736 64.7554 56.0292 64.2 57.2926 63.0952C58.5561 61.9903 57.891 60.5684 57.891 60.5684C57.891 60.5684 62.2928 56.0475 60.6578 46.9054C59.0228 37.7633 56.728 29.6276 55.6613 25.5383C54.809 22.2712 53.723 19.8938 52.6832 17.9132C51.6434 15.9327 50.6986 14.8975 49.5253 13.6876C48.352 12.4776 46.1023 11.7002 45.5023 11.7002C44.6993 10.8971 44.0676 11.1104 43.3996 11.782C39.6434 10.6895 34.6987 10.3154 31.364 10.3154C28.038 10.3154 23.1491 10.6876 19.3967 11.7736C18.7318 11.1086 18.102 10.9005 17.3023 11.7002C16.7023 11.7002 14.5977 13.0465 13.7842 13.8024C12.9707 14.5583 11.9096 15.6417 10.5301 17.9408C9.15064 20.2399 8.02821 22.1407 7.14187 25.5383C6.07509 29.6276 3.78038 37.7633 2.14534 46.9054C0.510311 56.0475 4.91211 60.5684 4.91211 60.5684C4.91211 60.5684 4.24701 61.9903 5.51048 63.0952C6.77396 64.2 11.7295 64.7554 13.2665 64.3711C14.8034 63.9869 14.2995 62.0136 14.2995 62.0136C14.2995 62.0136 15.0652 61.3962 16.0024 60.0086C17.0753 60.8124 18.5259 61.4832 20.4348 61.9311C23.2645 62.5951 27.2228 62.3658 31.4043 61.5413Z" fill="#E3E0D3"/>
</svg>
