<svg width="63" height="84" viewBox="0 0 63 84" fill="none" xmlns="http://www.w3.org/2000/svg">
<path d="M31.4037 71.6688C36.0705 72.5517 40.6601 72.8141 43.5706 72.1311C48.0832 71.0722 50.0567 67.2896 50.5812 64.4875C52.6509 64.5508 56.2438 64.0123 57.2926 63.0952C58.5561 61.9903 57.891 60.5684 57.891 60.5684C57.891 60.5684 62.2928 56.0475 60.6578 46.9054C59.0228 37.7633 56.728 29.6276 55.6613 25.5383C54.7349 21.9872 54.2827 20.8932 52.9237 18.2415C51.5647 15.5899 50.3383 14.6618 49.2777 13.7337C48.217 12.8056 46.1023 11.7002 45.5023 11.7002C44.6993 10.8971 44.0676 11.1104 43.3996 11.782C39.6434 10.6895 34.6987 10.3154 31.364 10.3154C28.038 10.3154 23.1491 10.6876 19.3967 11.7736C18.7318 11.1086 18.102 10.9005 17.3023 11.7002C16.7023 11.7002 15.2271 12.6017 14.0416 13.7872C12.8562 14.9726 11.2444 16.8506 9.95501 18.8043C8.66558 20.758 7.95349 22.4271 7.14187 25.5383C6.07509 29.6276 3.78038 37.7633 2.14534 46.9054C0.510311 56.0475 4.91211 60.5684 4.91211 60.5684C4.91211 60.5684 4.24701 61.9903 5.51048 63.0952C6.55982 64.0127 10.1558 64.5513 12.225 64.4874C12.7495 67.2895 14.723 71.0722 19.2356 72.1311C22.1464 72.8142 26.7365 72.5519 31.4037 71.6688Z" fill="#E3E0D3"/>
</svg>
