<svg width="63" height="84" viewBox="0 0 63 84" fill="none" xmlns="http://www.w3.org/2000/svg">
<path d="M41.9652 61.9312C39.1361 62.5951 35.1787 62.3655 30.998 61.5414C26.8165 62.3659 22.8582 62.5952 20.0286 61.9312C18.1197 61.4833 16.6691 60.8125 15.5962 60.0087C14.6589 61.3963 13.8933 62.0137 13.8933 62.0137C13.8933 62.0137 14.3972 63.987 12.8602 64.3712C11.3233 64.7555 6.36771 64.2001 5.10423 63.0953C3.84076 61.9904 4.50586 60.5685 4.50586 60.5685C4.50586 60.5685 0.104061 56.0476 1.73909 46.9055C3.37413 37.7634 5.66884 29.6277 6.73562 25.5384C7.80241 21.449 10.2933 17.1001 14.1933 13.5001C15.2195 12.5528 16.4043 11.6253 17.4265 11.0274C18.4487 10.4295 19.9656 10.029 20.324 10.2089C20.774 9.47332 21.3641 9.40269 22.0014 9.78415C24.1653 8.8419 27.3753 8.46631 30.9586 8.46631C34.6213 8.46631 37.9512 8.87009 40.1144 9.85845C40.8766 9.53354 41.6226 9.70282 42.1484 10.4259C42.2725 10.3638 42.477 10.3034 42.7437 10.2826C43.2494 10.2428 44.5798 10.7783 45.4889 11.4878C46.398 12.1974 46.9501 12.718 47.7974 13.5001C51.6974 17.1001 54.1882 21.449 55.255 25.5384C56.3218 29.6277 58.6165 37.7634 60.2515 46.9055C61.8866 56.0476 57.4848 60.5685 57.4848 60.5685C57.4848 60.5685 58.1499 61.9904 56.8864 63.0953C55.6229 64.2001 50.6674 64.7555 49.1304 64.3712C47.5935 63.987 48.0974 62.0137 48.0974 62.0137C48.0974 62.0137 47.3323 61.3968 46.3956 60.0103C45.3229 60.8135 43.8728 61.4836 41.9652 61.9312Z" fill="#E3E0D3"/>
</svg>
