<svg width="63" height="84" viewBox="0 0 63 84" fill="none" xmlns="http://www.w3.org/2000/svg">
<path d="M31.4031 50.142C35.5837 50.9661 39.5398 51.195 42.3688 50.5311C42.8608 50.4157 43.3202 50.2612 43.7469 50.073C43.9916 52.5887 44.3272 54.601 44.7864 55.9162C46.293 60.2312 48.5036 62.0136 48.5036 62.0136C48.5036 62.0136 47.9997 63.9869 49.5367 64.3711C51.0736 64.7554 56.0292 64.2 57.2926 63.0952C58.5561 61.9903 57.891 60.5684 57.891 60.5684C57.891 60.5684 62.2928 56.0475 60.6578 46.9054C59.0228 37.7633 56.728 29.6276 55.6613 25.5383C54.9014 22.6254 53.4189 19.5807 51.2192 16.7689C50.3309 15.6333 49.9763 15.1306 48.9728 14.0886C47.9693 13.0465 46.1023 11.7002 45.5023 11.7002C44.6993 10.8971 44.0676 11.1104 43.3996 11.782C39.6434 10.6895 34.6987 10.3154 31.364 10.3154C28.038 10.3154 23.1491 10.6876 19.3967 11.7736C18.7318 11.1086 18.102 10.9005 17.3023 11.7002C16.7023 11.7002 14.8263 12.8045 13.5941 14.2543C12.3618 15.704 11.9952 16.1651 10.963 17.5948C9.10295 20.1712 7.82793 22.9084 7.14187 25.5383C6.07509 29.6276 3.78038 37.7633 2.14534 46.9054C0.510311 56.0475 4.91211 60.5684 4.91211 60.5684C4.91211 60.5684 4.24701 61.9903 5.51048 63.0952C6.77396 64.2 11.7295 64.7554 13.2665 64.3711C14.8034 63.9869 14.2995 62.0136 14.2995 62.0136C14.2995 62.0136 16.5101 60.2312 18.0167 55.9162C18.476 54.6008 18.8116 52.588 19.0563 50.0716C19.4839 50.2605 19.9443 50.4154 20.4374 50.5311C23.2662 51.1949 27.223 50.9659 31.4031 50.142Z" fill="#E3E0D3"/>
</svg>
