<svg width="64" height="84" viewBox="0 0 64 84" fill="none" xmlns="http://www.w3.org/2000/svg">
<path d="M31.7938 50.1421C35.9743 50.9662 39.9304 51.1951 42.7595 50.5312C43.2514 50.4158 43.7108 50.2613 44.1376 50.0731C44.3823 52.5888 44.7179 54.6011 45.1771 55.9163C46.6836 60.2313 48.8942 62.0137 48.8942 62.0137C48.8942 62.0137 48.3903 63.987 49.9273 64.3712C51.4642 64.7555 56.4198 64.2001 57.6833 63.0953C58.9467 61.9904 58.2816 60.5685 58.2816 60.5685C58.2816 60.5685 62.6834 56.0476 61.0484 46.9055C59.4134 37.7634 57.1187 29.6277 56.0519 25.5384C54.9851 21.449 52.4942 17.1001 48.5942 13.5001C47.9933 12.9454 47.313 12.334 46.4588 11.6628C45.6045 10.9916 44.4047 10.7743 43.9503 10.8812C43.4563 10.0029 42.7065 9.96682 41.8798 10.3503C39.7212 9.30451 35.5515 8.46631 31.7929 8.46631C28.0343 8.46631 23.9976 9.35985 21.8389 10.4057C21.0122 10.0222 20.1483 10.0029 19.6543 10.8812C19.1999 10.7743 17.8618 11.1358 16.9519 11.8315C16.0532 12.5188 15.6578 12.8838 15.0141 13.478L14.9901 13.5001C11.0901 17.1001 8.59929 21.449 7.5325 25.5384C6.46571 29.6277 4.171 37.7634 2.53597 46.9055C0.900936 56.0476 5.30273 60.5685 5.30273 60.5685C5.30273 60.5685 4.63763 61.9904 5.90111 63.0953C7.16458 64.2001 12.1201 64.7555 13.6571 64.3712C15.194 63.987 14.6901 62.0137 14.6901 62.0137C14.6901 62.0137 16.9007 60.2313 18.4073 55.9163C18.8666 54.6009 19.2022 52.5881 19.4469 50.0717C19.8746 50.2606 20.3349 50.4155 20.828 50.5312C23.6568 51.195 27.6136 50.966 31.7938 50.1421Z" fill="#E3E0D3"/>
</svg>
