<svg width="63" height="84" viewBox="0 0 63 84" fill="none" xmlns="http://www.w3.org/2000/svg">
<path d="M31.209 61.5412C35.3897 62.3653 39.347 62.595 42.1761 61.9311C44.0838 61.4834 45.5338 60.8132 46.6065 60.0101C47.5432 61.3966 48.3083 62.0135 48.3083 62.0135C48.3083 62.0135 47.8044 63.9868 49.3414 64.3711C50.8783 64.7553 55.8339 64.1999 57.0973 63.0951C58.3608 61.9903 57.6957 60.5683 57.6957 60.5683C57.6957 60.5683 62.0975 56.0475 60.4625 46.9053C58.8274 37.7632 55.9557 28.2472 55.0949 25.5008C54.2341 22.7544 53.0564 20.4599 51.336 19.7184C51.5436 17.8989 48.5624 17.8989 45.7778 17.8989C45.6524 17.8989 45.3812 17.9015 44.9902 17.9059C42.6717 17.9319 36.1394 18.0201 30.7976 17.9942C25.4562 18.0201 18.9299 17.9319 16.6126 17.9059C16.2217 17.9015 15.9505 17.8989 15.8251 17.8989C13.0405 17.8989 10.0592 17.8989 10.2669 19.7184C8.54642 20.4599 7.19647 24.573 6.94656 25.2748C5.87977 29.3642 3.58506 37.7632 1.95003 46.9053C0.314998 56.0475 4.7168 60.5683 4.7168 60.5683C4.7168 60.5683 4.05169 61.9903 5.31517 63.0951C6.57864 64.1999 11.5342 64.7553 13.0711 64.3711C14.6081 63.9868 14.1042 62.0135 14.1042 62.0135C14.1042 62.0135 14.8699 61.3962 15.8071 60.0085C16.88 60.8124 18.3306 61.4831 20.2395 61.9311C23.0691 62.5951 27.0275 62.3657 31.209 61.5412Z" fill="#E3E0D3"/>
</svg>
