<svg width="63" height="84" viewBox="0 0 63 84" fill="none" xmlns="http://www.w3.org/2000/svg">
<path d="M43.1644 72.1312C40.2539 72.8142 35.6643 72.5518 30.9975 71.6689C26.3302 72.552 21.7401 72.8143 18.8294 72.1312C14.3168 71.0723 12.3433 67.2896 11.8188 64.4875C9.74955 64.5514 6.15357 64.0128 5.10423 63.0953C3.84076 61.9904 4.50586 60.5685 4.50586 60.5685C4.50586 60.5685 0.104061 56.0476 1.73909 46.9055C3.37413 37.7634 5.66884 29.6277 6.73562 25.5384C7.80241 21.449 10.2933 17.1001 14.1933 13.5001C15.1936 12.5767 15.6593 12.2256 16.8242 11.4005C17.9891 10.5753 19.9656 10.029 20.324 10.2089C20.774 9.47332 21.3641 9.40269 22.0014 9.78415C24.1653 8.8419 27.3753 8.46631 30.9586 8.46631C34.6213 8.46631 37.9512 8.87009 40.1144 9.85845C40.8766 9.53354 41.6226 9.70282 42.1484 10.4259C42.2725 10.3638 42.477 10.3034 42.7437 10.2826C43.2494 10.2431 44.3159 10.7848 45.3963 11.5627C46.4767 12.3406 47.3096 13.0499 47.7974 13.5001C51.6974 17.1001 54.1882 21.449 55.255 25.5384C56.3218 29.6277 58.6165 37.7634 60.2515 46.9055C61.8866 56.0476 57.4848 60.5685 57.4848 60.5685C57.4848 60.5685 58.1499 61.9904 56.8864 63.0953C55.8376 64.0124 52.2447 64.5509 50.175 64.4876C49.6504 67.2897 47.6769 71.0723 43.1644 72.1312Z" fill="#E3E0D3"/>
</svg>
