<svg width="63" height="84" viewBox="0 0 63 84" fill="none" xmlns="http://www.w3.org/2000/svg">
<path d="M31.4031 42.8949C35.0838 43.5792 38.4145 43.7575 41.0026 43.5C41.8407 43.4166 42.6128 43.2645 43.313 43.0472C43.5278 48.8581 43.9541 53.5323 44.7864 55.9162C46.293 60.2312 48.5036 62.0136 48.5036 62.0136C48.5036 62.0136 47.9997 63.9869 49.5367 64.3711C51.0736 64.7554 56.0292 64.2 57.2926 63.0952C58.5561 61.9903 57.891 60.5684 57.891 60.5684C57.891 60.5684 62.2928 56.0475 60.6578 46.9054C59.0228 37.7633 56.728 29.6276 55.6613 25.5383C54.7621 22.0917 52.8118 18.7723 51.2893 16.7148C49.7667 14.6574 46.1023 11.7002 45.5023 11.7002C44.6993 10.8971 44.0676 11.1104 43.3996 11.782C39.6434 10.6895 34.6987 10.3154 31.364 10.3154C28.038 10.3154 23.1491 10.6876 19.3967 11.7736C18.7318 11.1086 18.102 10.9005 17.3023 11.7002C16.7023 11.7002 12.7053 14.8283 10.8537 17.5948C9.00213 20.3614 8.02845 22.1398 7.14187 25.5383C6.07509 29.6276 3.78038 37.7633 2.14534 46.9054C0.510311 56.0475 4.91211 60.5684 4.91211 60.5684C4.91211 60.5684 4.24701 61.9903 5.51048 63.0952C6.77396 64.2 11.7295 64.7554 13.2665 64.3711C14.8034 63.9869 14.2995 62.0136 14.2995 62.0136C14.2995 62.0136 16.5101 60.2312 18.0167 55.9162C18.8491 53.5322 19.2753 48.8576 19.4902 43.0462C20.1912 43.264 20.9643 43.4165 21.8036 43.5C24.3918 43.7575 27.7224 43.5792 31.4031 42.8949Z" fill="#E3E0D3"/>
</svg>
