<svg width="63" height="84" viewBox="0 0 63 84" fill="none" xmlns="http://www.w3.org/2000/svg">
<path d="M31.2084 71.6688C35.8752 72.5516 40.4648 72.8141 43.3753 72.1311C47.8879 71.0721 49.8622 67.2895 50.3867 64.4875C52.4566 64.5506 56.0487 64.0121 57.0973 63.0951C58.3608 61.9903 57.6957 60.5683 57.6957 60.5683C57.6957 60.5683 62.0975 56.0475 60.4625 46.9053C58.8274 37.7632 56.5327 29.6276 55.4659 25.5382C55.261 24.7524 54.7429 23.4401 54.1703 22.4095C53.5978 21.3788 53.0564 20.4599 51.336 19.7184C51.5436 17.8989 48.5624 17.8989 45.7778 17.8989C45.6524 17.8989 45.3812 17.9015 44.9902 17.9059C42.6717 17.9319 36.1394 18.0201 30.7976 17.9942C25.4562 18.0201 18.9299 17.9319 16.6126 17.9059C16.2217 17.9015 15.9505 17.8989 15.8251 17.8989C13.0405 17.8989 10.0592 17.8989 10.2669 19.7184C8.54642 20.4599 8.08367 22.0524 7.71918 23.1592C7.35469 24.2661 7.15155 24.7524 6.94656 25.5382C5.87977 29.6276 3.58506 37.7632 1.95003 46.9053C0.314998 56.0475 4.7168 60.5683 4.7168 60.5683C4.7168 60.5683 4.05169 61.9903 5.31517 63.0951C6.36451 64.0127 9.96049 64.5513 12.0297 64.4874C12.5542 67.2894 14.5277 71.0721 19.0403 72.1311C21.9511 72.8141 26.5412 72.5518 31.2084 71.6688Z" fill="#E3E0D3"/>
</svg>
