<svg width="64" height="84" viewBox="0 0 64 84" fill="none" xmlns="http://www.w3.org/2000/svg">
<path d="M31.7943 71.6689C36.4612 72.5518 41.0507 72.8142 43.9613 72.1312C48.4938 71.0676 50.4647 67.2561 50.9787 64.4504C53.0479 64.5144 56.6339 64.0129 57.6833 63.0953C58.9467 61.9904 58.2816 60.5685 58.2816 60.5685C58.2816 60.5685 62.6834 56.0476 61.0484 46.9055C59.4134 37.7634 57.1187 29.6277 56.0519 25.5384C54.9851 21.449 52.4942 17.1001 48.5942 13.5001C47.9671 12.9212 47.5229 12.5238 46.6022 11.8589C45.6816 11.194 44.4047 10.7743 43.9503 10.8812C43.4563 10.0029 42.7065 9.96682 41.8798 10.3503C39.7212 9.30451 35.5515 8.46631 31.7929 8.46631C28.0343 8.46631 23.9976 9.35985 21.8389 10.4057C21.0122 10.0222 20.1483 10.0029 19.6543 10.8812C19.1999 10.7743 18.1517 10.8812 17.2632 11.5112C16.3747 12.1413 15.6362 12.9038 14.9901 13.5001C11.0901 17.1001 8.59929 21.449 7.5325 25.5384C6.46571 29.6277 4.171 37.7634 2.53597 46.9055C0.900936 56.0476 5.30273 60.5685 5.30273 60.5685C5.30273 60.5685 4.63763 61.9904 5.90111 63.0953C6.95044 64.0128 10.5464 64.5514 12.6156 64.4875C13.1402 67.2896 15.1137 71.0723 19.6262 72.1312C22.537 72.8143 27.1271 72.552 31.7943 71.6689Z" fill="#E3E0D3"/>
</svg>
