<svg width="64" height="84" viewBox="0 0 64 84" fill="none" xmlns="http://www.w3.org/2000/svg">
<path d="M31.7949 61.5414C35.9756 62.3655 39.9329 62.5951 42.762 61.9312C44.6697 61.4836 46.1197 60.8134 47.1924 60.0102C48.1291 61.3968 48.8942 62.0137 48.8942 62.0137C48.8942 62.0137 48.3903 63.987 49.9273 64.3712C51.4642 64.7555 56.4198 64.2001 57.6833 63.0953C58.9467 61.9904 58.2816 60.5685 58.2816 60.5685C58.2816 60.5685 62.6834 56.0476 61.0484 46.9055C59.4134 37.7634 57.1187 29.6277 56.0519 25.5384C54.9851 21.449 52.4942 17.1001 48.5942 13.5001C47.5037 12.4934 47.3281 12.2835 46.4777 11.7383C45.6273 11.1932 44.208 10.8205 43.9503 10.8812C43.4563 10.0029 42.7065 9.96682 41.8798 10.3503C39.7212 9.30451 35.5515 8.46631 31.7929 8.46631C28.0343 8.46631 23.9976 9.35985 21.8389 10.4057C21.0122 10.0222 20.1483 10.0029 19.6543 10.8812C19.3928 10.8196 18.309 10.8555 17.3641 11.5642C16.4192 12.2728 16.0784 12.4956 14.9901 13.5001C11.0901 17.1001 8.59929 21.449 7.5325 25.5384C6.46571 29.6277 4.171 37.7634 2.53597 46.9055C0.900936 56.0476 5.30273 60.5685 5.30273 60.5685C5.30273 60.5685 4.63763 61.9904 5.90111 63.0953C7.16458 64.2001 12.1201 64.7555 13.6571 64.3712C15.194 63.987 14.6901 62.0137 14.6901 62.0137C14.6901 62.0137 15.4558 61.3964 16.3929 60.0089C17.4658 60.8127 18.9166 61.4833 20.8255 61.9312C23.6551 62.5952 27.6134 62.3659 31.7949 61.5414Z" fill="#E3E0D3"/>
</svg>
