<svg width="64" height="84" viewBox="0 0 64 84" fill="none" xmlns="http://www.w3.org/2000/svg">
<path d="M33.9358 61.3339C36.7984 62.169 45.5975 62.5533 46.4975 62.4766C47.2426 62.4132 47.9878 61.991 48.3455 61.1665C48.3136 61.4899 48.2953 61.8041 48.2953 62.1C48.2953 63.3 48.5953 63.9 49.7953 64.2C50.9953 64.5 56.6953 64.2 57.5953 63.9C58.4953 63.6 59.0953 63 59.0953 62.1C59.0953 61.2 58.9332 60.1871 58.4952 59.3999C58.8209 58.2056 59.0952 54.2999 58.7952 50.6999L58.7854 50.5824C58.4899 47.0367 58.2512 44.1716 57.685 41.7935C56.185 35.4935 55.5738 29.4044 54.7843 26.0981C53.9947 22.7918 52.0098 18.3091 49.8536 15.4158C47.6974 12.5225 45.0519 11.5662 44.1948 11.903C40.3927 10.717 35.2126 10.3154 31.7578 10.3154C28.3083 10.3154 23.2007 10.7224 19.4004 11.9041C18.5425 11.5659 16.4945 12.7066 14.099 15.4901C11.7035 18.2736 9.6219 21.9397 8.69313 25.5C6.89313 32.4 7.49313 35.0999 5.99313 41.3999C5.42068 43.8041 5.09313 47.0999 4.79313 50.6999C4.49313 54.2999 4.76742 58.2056 5.09313 59.3999C4.65506 60.1871 4.79312 61.2 4.79312 62.1C4.79312 63 5.09298 63.6 5.99298 63.9C6.89298 64.2 12.593 64.5 13.793 64.2C14.993 63.9 15.2911 63.133 15.2911 61.933C15.7497 62.2499 16.3723 62.4178 17.0945 62.5095C18.2442 62.6555 26.9407 62.4785 33.9358 61.3339Z" fill="#E3E0D3"/>
</svg>
