<svg width="63" height="84" viewBox="0 0 63 84" fill="none" xmlns="http://www.w3.org/2000/svg">
<path d="M14.0729 70.0701C13.8471 68.7402 14.4189 66.5394 14.8987 65.1C14.8132 64.5066 14.7027 63.9924 14.585 63.5016C14.359 63.8313 13.9861 64.0521 13.3945 64.2C12.1945 64.5 6.49454 64.2 5.59454 63.9C4.69454 63.6 4.39468 63 4.39468 62.1C4.39468 61.2 4.25662 60.1871 4.6947 59.3999C4.36899 58.2056 4.09469 54.2999 4.39469 50.6999C4.69469 47.0999 5.02225 43.8041 5.59469 41.3999C7.0947 35.0999 6.4947 32.4 8.2947 25.5C9.22346 21.9397 10.8183 18.6786 12.9359 16.012C15.0536 13.3453 18.1441 11.5659 19.0019 11.9041C22.8022 10.7224 27.9099 10.3154 31.3593 10.3154C34.8141 10.3154 39.9943 10.717 43.7964 11.903C44.6535 11.5662 47.8408 13.2338 50.0452 15.9895C52.2497 18.7452 53.568 21.9397 54.4967 25.5C56.2967 32.4 55.6967 35.0999 57.1967 41.3999C57.7692 43.8041 58.0967 47.0999 58.3967 50.6999C58.6967 54.2999 58.4224 58.2056 58.0967 59.3999C58.5348 60.1871 58.6969 61.2 58.6969 62.1C58.6969 63 58.0969 63.6 57.1969 63.9C56.2969 64.2 50.5969 64.5 49.3969 64.2C48.8088 64.053 48.4369 63.8339 48.2105 63.5075C48.0933 63.9965 47.9833 64.5089 47.8982 65.1C48.344 66.4375 48.7981 68.1 48.7434 69.6C48.6886 71.1 47.5981 72 46.0981 72.1095C44.5981 72.2191 34.3905 71.9941 30.4577 71.368C24.2093 72.1226 17.6839 72.2346 16.6988 72.1095C15.1988 71.9191 14.2987 71.4 14.0729 70.0701Z" fill="#E3E0D3"/>
</svg>
