<svg width="63" height="84" viewBox="0 0 63 84" fill="none" xmlns="http://www.w3.org/2000/svg">
<path d="M14.9053 55.4999C14.415 52.098 13.7052 48.0648 14.9052 42.5999C15.2069 41.2259 15.4628 39.0702 15.6602 36.6548C12.5393 36.5392 8.90807 36.887 7.89094 36.8433C6.57388 36.7866 5.90777 35.9999 5.95552 34.7999C6.00328 33.5999 6.50801 32.3999 7.10778 31.4999C7.10778 29.3999 7.1658 26.6354 7.89094 24.4604C8.61607 22.2854 9.2113 21.1063 10.4002 19.6671C11.589 18.2279 13.2435 17.8989 16.0281 17.8989C16.1536 17.8989 16.4247 17.9015 16.8157 17.9059C19.133 17.9319 25.6593 18.0201 31.0007 17.9942C36.3421 18.0201 42.8748 17.9319 45.1921 17.9059C45.5831 17.9015 45.8542 17.8989 45.9797 17.8989C48.7643 17.8989 50.4188 18.2279 51.6076 19.6671C52.7965 21.1063 53.5301 22.231 54.5047 24.8999C55.4794 27.5688 55.7047 29.3999 55.7047 31.4999C56.3045 32.3999 56.8092 33.5999 56.857 34.7999C56.9047 35.9999 56.2386 36.7866 54.9216 36.8433C53.8652 36.8887 49.9895 36.5118 46.794 36.6703C46.8639 39.0794 47.0073 41.2289 47.3084 42.5999C48.5084 48.0648 47.7986 52.098 47.3083 55.4999C47.7971 56.9664 48.3433 59.3999 48.1259 60.5999C47.9084 61.7999 47.0084 62.3999 46.1084 62.4766C45.2084 62.5532 36.4093 62.1689 33.5467 61.3339C26.5517 62.4785 17.8552 62.6555 16.7055 62.5095C15.2055 62.319 14.1357 61.7999 14.0706 60.2999C14.0055 58.7999 14.4375 56.9032 14.9053 55.4999Z" fill="#E3E0D3"/>
</svg>
