<svg width="64" height="84" viewBox="0 0 64 84" fill="none" xmlns="http://www.w3.org/2000/svg">
<path d="M31.7289 50.2803C36.7047 50.9908 41.3701 50.8733 43.1107 50.5449C44.2726 50.3257 45.4245 49.8982 46.1455 48.9412C46.5673 52.4107 47.2949 55.533 48.8952 58.2001C48.5953 59.4 48.2953 60.9001 48.2953 62.1001C48.2953 63.3001 48.5953 63.9001 49.7953 64.2001C50.9953 64.5001 56.6953 64.2001 57.5953 63.9001C58.4953 63.6001 59.0953 63.0001 59.0953 62.1001C59.0953 61.2001 58.9332 60.1872 58.4952 59.4C58.8209 58.2057 59.0952 54.3 58.7952 50.7C58.4952 47.1 58.1676 43.8042 57.5952 41.4C56.0952 35.1 56.6952 32.4001 54.8952 25.5001C53.9664 21.9398 53.1328 20.1198 50.5202 16.3833C47.9075 12.6469 44.4196 10.6836 43.5617 10.226C42.7038 9.76835 41.7777 9.64135 41.0003 9.89828C38.8389 8.88092 35.4701 8.46631 31.7586 8.46631C28.0559 8.46631 24.7316 8.87897 22.5698 9.89108C21.7982 9.64427 19.7371 10.2586 18.631 10.9653C17.5249 11.6719 15.7301 12.4951 13.2861 15.8868C10.8421 19.2784 9.6219 21.9398 8.69313 25.5001C6.89313 32.4001 7.49313 35.1 5.99313 41.4C5.42068 43.8042 5.09313 47.1 4.79313 50.7C4.49313 54.3 4.76742 58.2057 5.09313 59.4C4.65506 60.1872 4.79312 61.2001 4.79312 62.1001C4.79312 63.0001 5.09298 63.6001 5.99298 63.9001C6.89298 64.2001 12.593 64.5001 13.793 64.2001C14.993 63.9001 15.293 63.3001 15.293 62.1001C15.293 60.9001 14.993 59.4 14.6931 58.2001C16.2943 55.5314 17.0219 52.407 17.4435 48.935C18.1643 49.8964 19.3186 50.3252 20.483 50.5449C22.2172 50.8721 26.7745 50.9821 31.7289 50.2803Z" fill="#E3E0D3"/>
</svg>
