<svg width="63" height="84" viewBox="0 0 63 84" fill="none" xmlns="http://www.w3.org/2000/svg">
<path d="M14.6944 55.5001C14.2041 52.0981 13.4943 48.065 14.6943 42.6001C14.996 41.2261 15.2519 39.0704 15.4492 36.655C12.3283 36.5393 8.69713 36.8872 7.68 36.8434C6.36294 36.7868 5.69683 36.0001 5.74459 34.8001C5.79234 33.6001 6.29707 32.4001 6.89684 31.5001C6.89684 29.4001 7.36579 27.0944 8.09684 24.9001C9.21283 21.5504 11.2248 17.192 13.8597 14.3624C16.4945 11.5328 20.0068 10.5003 20.7023 10.5966C22.8609 9.55079 27.4365 8.46631 31.1951 8.46631C34.9537 8.46631 39.2861 9.59583 41.4447 10.6416C42.2085 10.4748 45.8975 11.8066 48.4993 14.91C51.101 18.0135 53.1778 21.5504 54.2938 24.9001C55.0248 27.0944 55.4938 29.4001 55.4938 31.5001C56.0936 32.4001 56.5983 33.6001 56.646 34.8001C56.6938 36.0001 56.0277 36.7868 54.7106 36.8434C53.6543 36.8889 49.7786 36.5119 46.5831 36.6704C46.653 39.0796 46.7964 41.229 47.0974 42.6001C48.2974 48.065 47.5877 52.0981 47.0974 55.5001C47.5862 56.9666 48.1324 59.4001 47.9149 60.6001C47.6975 61.8001 46.7975 62.4001 45.8975 62.4767C44.9975 62.5534 36.1984 62.1691 33.3358 61.334C26.3407 62.4786 17.6442 62.6556 16.4945 62.5096C14.9945 62.3192 13.9248 61.8001 13.8597 60.3001C13.7945 58.8001 14.2266 56.9034 14.6944 55.5001Z" fill="#E3E0D3"/>
</svg>
