<svg width="63" height="84" viewBox="0 0 63 84" fill="none" xmlns="http://www.w3.org/2000/svg">
<path d="M20.0939 50.5448C17.512 50.0577 14.98 48.5424 17.1133 42.4727C16.824 41.6857 16.2454 40.0779 16.1757 36.8433C16.1745 36.7888 16.1735 36.7339 16.1726 36.6784C12.9487 36.4996 8.9643 36.8895 7.89094 36.8433C6.57388 36.7867 5.90777 36 5.95552 34.8C6.00328 33.6 6.50801 32.4 7.10778 31.5C7.10778 29.4 7.57672 27.0943 8.30778 24.9C9.42377 21.5503 10.9663 18.2645 13.2245 15.718C15.4827 13.1715 18.3243 11.565 18.9956 11.8953C22.7952 10.7152 27.9606 10.3154 31.4079 10.3154C34.8621 10.3154 40.0022 10.7168 43.8041 11.9024C44.4791 11.5627 47.6739 12.7391 50.4125 16.5828C53.1512 20.4266 53.3887 21.5503 54.5047 24.9C55.2358 27.0943 55.7047 29.4 55.7047 31.5C56.3045 32.4 56.8092 33.6 56.857 34.8C56.9047 36 56.2386 36.7867 54.9216 36.8433C53.8485 36.8895 49.8663 36.4998 46.643 36.6783C46.5897 40.0235 45.9965 41.6724 45.7022 42.4727C47.8356 48.5424 45.3035 50.0577 42.7217 50.5448C40.981 50.8732 36.3156 50.9907 31.3399 50.2802C26.3855 50.982 21.8281 50.872 20.0939 50.5448Z" fill="#E3E0D3"/>
</svg>
