<svg width="63" height="84" viewBox="0 0 63 84" fill="none" xmlns="http://www.w3.org/2000/svg">
<path d="M30.9399 50.2803C35.9156 50.9908 40.581 50.8733 42.3217 50.5449C43.4836 50.3257 44.6354 49.8982 45.3565 48.9412C45.7782 52.4107 46.5059 55.533 48.1061 58.2001C47.8063 59.4 47.5063 60.9001 47.5063 62.1001C47.5063 63.3001 47.8063 63.9001 49.0063 64.2001C50.2063 64.5001 55.9063 64.2001 56.8063 63.9001C57.7063 63.6001 58.3063 63.0001 58.3063 62.1001C58.3063 61.2001 58.1442 60.1872 57.7061 59.4C58.0318 58.2057 58.3061 54.3 58.0061 50.7C57.7061 47.1 57.3785 43.8042 56.8061 41.4C55.3061 35.1 55.9061 32.4001 54.1061 25.5001C53.1773 21.9398 50.5061 17.1001 46.6061 13.5001C45.9223 12.8689 45.2341 12.2539 44.1935 11.5444C43.1529 10.8349 42.0195 10.4748 41.2557 10.6416C39.097 9.59583 34.7647 8.46631 31.006 8.46631C27.2474 8.46631 22.6719 9.55079 20.5133 10.5966C19.8178 10.5003 18.8162 10.7639 17.8228 11.4734C16.836 12.1783 16.2303 12.7375 15.4201 13.4853L15.4041 13.5001C11.5041 17.1001 8.83283 21.9398 7.90407 25.5001C6.10407 32.4001 6.70407 35.1 5.20407 41.4C4.63162 43.8042 4.30407 47.1 4.00407 50.7C3.70407 54.3 3.97836 58.2057 4.30407 59.4C3.866 60.1872 4.00406 61.2001 4.00406 62.1001C4.00406 63.0001 4.30392 63.6001 5.20392 63.9001C6.10392 64.2001 11.8039 64.5001 13.0039 64.2001C14.2039 63.9001 14.5039 63.3001 14.5039 62.1001C14.5039 60.9001 14.2039 59.4 13.9041 58.2001C15.5052 55.5314 16.2328 52.407 16.6545 48.935C17.3752 49.8964 18.5295 50.3252 19.6939 50.5449C21.4281 50.8721 25.9855 50.9821 30.9399 50.2803Z" fill="#E3E0D3"/>
</svg>
