<svg width="63" height="84" viewBox="0 0 63 84" fill="none" xmlns="http://www.w3.org/2000/svg">
<path d="M14.9053 55.5001C14.415 52.0981 13.7052 48.065 14.9052 42.6001C15.2069 41.2261 15.4628 39.0704 15.6602 36.655C12.5393 36.5393 8.90807 36.8872 7.89094 36.8434C6.57388 36.7868 5.90777 36.0001 5.95552 34.8001C6.00328 33.6001 6.50801 32.4001 7.10778 31.5001C7.10778 29.4001 7.57672 27.0944 8.30778 24.9001C9.42377 21.5504 11.408 17.3059 14.9052 13.7659C18.4024 10.226 21.4092 9.64427 22.1807 9.89108C24.3425 8.87897 27.6668 8.46631 31.3695 8.46631C35.081 8.46631 38.4498 8.88092 40.6112 9.89828C41.3887 9.64135 44.9415 11.2869 48.0863 14.5329C51.2311 17.779 53.3887 21.5504 54.5047 24.9001C55.2358 27.0944 55.7047 29.4001 55.7047 31.5001C56.3045 32.4001 56.8092 33.6001 56.857 34.8001C56.9047 36.0001 56.2386 36.7868 54.9216 36.8434C53.8652 36.8889 49.9895 36.5119 46.794 36.6704C46.8639 39.0796 47.0073 41.229 47.3084 42.6001C48.5084 48.065 47.7986 52.0981 47.3083 55.5001C47.7971 56.9666 48.3433 59.4001 48.1259 60.6001C47.9084 61.8001 47.0084 62.4001 46.1084 62.4767C45.2084 62.5534 36.4093 62.1691 33.5467 61.334C26.5517 62.4786 17.8552 62.6556 16.7055 62.5096C15.2055 62.3192 14.1357 61.8001 14.0706 60.3001C14.0055 58.8001 14.4375 56.9034 14.9053 55.5001Z" fill="#E3E0D3"/>
</svg>
