<svg width="63" height="84" viewBox="0 0 63 84" fill="none" xmlns="http://www.w3.org/2000/svg">
<path d="M30.8805 44.1495C35.4418 44.8319 39.5114 44.6994 41.5057 44.5C43.247 44.3259 44.2038 43.5453 44.7449 42.4517C45.1929 48.9753 45.4227 54.7276 48.1061 59.2C47.8063 60.3999 47.5063 61.9 47.5063 63.1C47.5063 64.3 47.8063 64.9 49.0063 65.2C50.2063 65.5 55.9063 65.2 56.8063 64.9C57.7063 64.6 58.3063 64 58.3063 63.1C58.3063 62.2 58.1442 61.1871 57.7061 60.3999C58.0318 59.2056 58.3061 55.2999 58.0061 51.6999C57.7061 48.0999 57.3785 44.8041 56.8061 42.3999C55.3061 36.0999 55.9061 33.4 54.1061 26.5C53.1773 22.9397 50.9102 18.9274 48.4366 16.1165C45.9631 13.3056 44.2628 12.5662 43.4058 12.903C39.6037 11.717 34.4235 11.3154 30.9687 11.3154C27.5193 11.3154 22.4116 11.7224 18.6113 12.9041C17.7534 12.5659 16.018 13.3806 13.7319 15.6668C11.4457 17.9529 8.83283 22.9397 7.90407 26.5C6.10407 33.4 6.70407 36.0999 5.20407 42.3999C4.63162 44.8041 4.30407 48.0999 4.00407 51.6999C3.70407 55.2999 3.97836 59.2056 4.30407 60.3999C3.866 61.1871 4.00406 62.2 4.00406 63.1C4.00406 64 4.30392 64.6 5.20392 64.9C6.10392 65.2 11.8039 65.5 13.0039 65.2C14.2039 64.9 14.5039 64.3 14.5039 63.1C14.5039 61.9 14.2039 60.3999 13.9041 59.2C16.5888 54.7254 16.8175 48.9696 17.266 42.442C17.8062 43.5407 18.7634 44.3254 20.5099 44.5C22.4854 44.6975 26.3741 44.8106 30.8805 44.1495Z" fill="#E3E0D3"/>
</svg>
