<svg width="64" height="84" viewBox="0 0 64 84" fill="none" xmlns="http://www.w3.org/2000/svg">
<path d="M31.7289 50.2802C36.7047 50.9906 41.3701 50.8732 43.1107 50.5447C44.2726 50.3255 45.4245 49.8981 46.1455 48.941C46.5673 52.4106 47.2949 55.5329 48.8952 58.1999C48.5953 59.3998 48.2953 60.8999 48.2953 62.0999C48.2953 63.2999 48.5953 63.8999 49.7953 64.1999C50.9953 64.4999 56.6953 64.1999 57.5953 63.8999C58.4953 63.5999 59.0953 62.9999 59.0953 62.0999C59.0953 61.1999 58.9332 60.187 58.4952 59.3998C58.8209 58.2055 59.0952 54.2998 58.7952 50.6998C58.4952 47.0998 58.1676 43.8041 57.5952 41.3998C56.547 36.9974 56.5242 34.353 55.9914 30.805C55.7618 29.2756 55.2913 26.8221 54.4325 24.3684C53.5737 21.9146 53.1856 21.1063 51.9967 19.6671C50.8078 18.2279 49.1534 17.8989 46.3687 17.8989C46.2433 17.8989 45.9721 17.9015 45.5812 17.9059C43.2639 17.9319 36.7312 18.0201 31.3897 17.9942C26.0483 18.0201 19.522 17.9319 17.2048 17.9059C16.8138 17.9015 16.5426 17.8989 16.4172 17.8989C13.6326 17.8989 11.9781 18.2279 10.7892 19.6671C9.60037 21.1063 9.20122 22.3405 8.73381 24.0933C8.2664 25.8461 7.82652 29.2756 7.59686 30.805C7.06406 34.353 7.04132 36.9974 5.99313 41.3998C5.42068 43.8041 5.09313 47.0998 4.79313 50.6998C4.49313 54.2998 4.76742 58.2055 5.09313 59.3998C4.65506 60.187 4.79312 61.1999 4.79312 62.0999C4.79312 62.9999 5.09298 63.5999 5.99298 63.8999C6.89298 64.1999 12.593 64.4999 13.793 64.1999C14.993 63.8999 15.293 63.2999 15.293 62.0999C15.293 60.8999 14.993 59.3998 14.6931 58.1999C16.2943 55.5313 17.0219 52.4069 17.4435 48.9348C18.1643 49.8962 19.3186 50.325 20.483 50.5447C22.2172 50.872 26.7745 50.982 31.7289 50.2802Z" fill="#E3E0D3"/>
</svg>
