<svg width="63" height="84" viewBox="0 0 63 84" fill="none" xmlns="http://www.w3.org/2000/svg">
<path d="M20.9099 43.5001C17.9098 43.2001 17.2385 41.1001 17.0099 38.7001C16.9606 38.1815 16.9498 37.5089 16.9718 36.7367C13.6433 36.4306 9.05505 36.8935 7.89094 36.8434C6.57388 36.7868 5.90777 36.0001 5.95552 34.8001C6.00328 33.6001 6.50801 32.4001 7.10778 31.5001C7.10778 29.4001 7.57672 27.0944 8.30778 24.9001C9.42377 21.5504 11.1667 18.2591 14.3585 14.6557C17.5502 11.0523 20.2178 10.5003 20.9133 10.5966C23.0719 9.55079 27.6474 8.46631 31.406 8.46631C35.1647 8.46631 39.497 9.59583 41.6557 10.6416C42.4195 10.4748 45.5427 11.353 48.7213 14.5448C51.8999 17.7366 53.3887 21.5504 54.5047 24.9001C55.2358 27.0944 55.7047 29.4001 55.7047 31.5001C56.3045 32.4001 56.8092 33.6001 56.857 34.8001C56.9047 36.0001 56.2386 36.7868 54.9216 36.8434C53.7578 36.8935 49.1721 36.4309 45.8439 36.7364C45.8658 37.5088 45.8551 38.1815 45.8057 38.7001C45.5771 41.1001 44.9058 43.2001 41.9057 43.5001C39.9114 43.6995 35.8418 43.832 31.2805 43.1496C26.7741 43.8107 22.8854 43.6976 20.9099 43.5001Z" fill="#E3E0D3"/>
</svg>
