<svg width="63" height="84" viewBox="0 0 63 84" fill="none" xmlns="http://www.w3.org/2000/svg">
<path d="M20.699 43.4999C17.6989 43.1999 17.0276 41.0999 16.799 38.6999C16.7496 38.1814 16.7389 37.5088 16.7608 36.7366C13.4324 36.4304 8.84412 36.8934 7.68 36.8433C6.36294 36.7866 5.69683 35.9999 5.74459 34.7999C5.79234 33.5999 6.29707 32.3999 6.89684 31.4999C6.89684 29.3999 6.92114 26.4322 7.68 24.4301C8.43885 22.428 9.00037 21.1063 10.1892 19.6671C11.3781 18.2279 13.0326 17.8989 15.8172 17.8989C15.9426 17.8989 16.2138 17.9015 16.6048 17.9059C18.922 17.9319 25.4483 18.0201 30.7897 17.9942C36.1312 18.0201 42.6639 17.9319 44.9812 17.9059C45.3721 17.9015 45.6433 17.8989 45.7687 17.8989C48.5534 17.8989 50.2078 18.2279 51.3967 19.6671C52.5856 21.1063 53.6026 22.9867 54.3476 25.0819C55.0926 27.1772 55.4938 29.3999 55.4938 31.4999C56.0936 32.3999 56.5983 33.5999 56.646 34.7999C56.6938 35.9999 56.0277 36.7866 54.7106 36.8433C53.5469 36.8933 48.9611 36.4307 45.6329 36.7363C45.6549 37.5086 45.6441 38.1813 45.5948 38.6999C45.3662 41.0999 44.6949 43.1999 41.6948 43.4999C39.7004 43.6994 35.6309 43.8318 31.0696 43.1494C26.5632 43.8105 22.6744 43.6975 20.699 43.4999Z" fill="#E3E0D3"/>
</svg>
