<svg width="63" height="84" viewBox="0 0 63 84" fill="none" xmlns="http://www.w3.org/2000/svg">
<path d="M31.1274 50.2802C36.1031 50.9907 40.7685 50.8732 42.5092 50.5448C43.6711 50.3256 44.8229 49.8981 45.544 48.9411C45.9657 52.4106 46.6934 55.5329 48.2936 58.2C47.9938 59.3999 47.6938 60.9 47.6938 62.1C47.6938 63.3 47.9938 63.9 49.1938 64.2C50.3938 64.5 56.0938 64.2 56.9938 63.9C57.8938 63.6 58.4938 63 58.4938 62.1C58.4938 61.2 58.3317 60.1871 57.8936 59.3999C58.2193 58.2056 58.4936 54.2999 58.1936 50.6999C57.8936 47.0999 57.566 43.8041 56.9936 41.3999C55.4936 35.0999 56.0936 32.4 54.2936 25.5C53.7619 23.4618 52.8519 21.5008 51.3977 18.6C49.9435 15.6992 47.937 13.6183 46.6528 12.7514C45.3685 11.8846 44.4503 11.5662 43.5933 11.903C39.7912 10.717 34.611 10.3154 31.1562 10.3154C27.7068 10.3154 22.5991 10.7224 18.7988 11.9041C17.9409 11.5659 17.0909 11.5567 15.8939 12.4581C14.6969 13.3594 13.1382 15.0783 11.4215 17.4275C9.70475 19.7766 8.66202 23.3133 8.09157 25.5C6.29157 32.4 6.89157 35.0999 5.39157 41.3999C4.81912 43.8041 4.49157 47.0999 4.19157 50.6999C3.89157 54.2999 4.16586 58.2056 4.49157 59.3999C4.0535 60.1871 4.19156 61.2 4.19156 62.1C4.19156 63 4.49142 63.6 5.39142 63.9C6.29142 64.2 11.9914 64.5 13.1914 64.2C14.3914 63.9 14.6914 63.3 14.6914 62.1C14.6914 60.9 14.3914 59.3999 14.0916 58.2C15.6927 55.5313 16.4203 52.4069 16.842 48.9349C17.5627 49.8963 18.717 50.3251 19.8814 50.5448C21.6156 50.872 26.173 50.982 31.1274 50.2802Z" fill="#E3E0D3"/>
</svg>
