<svg width="63" height="84" viewBox="0 0 63 84" fill="none" xmlns="http://www.w3.org/2000/svg">
<path d="M14.5018 65.1001C14.0115 61.6981 12.7015 60.9001 13.9018 52.2001C14.573 47.3348 14.6652 41.6196 14.625 36.6378C11.6613 36.5839 8.43414 36.8843 7.48469 36.8434C6.16763 36.7867 5.50152 36.0001 5.54927 34.8001C5.59703 33.6001 6.10176 32.4001 6.70153 31.5001C6.70153 29.4001 6.53632 27.6527 7.48469 24.6781C8.43305 21.7036 9.14464 20.3313 10.3203 19.0957C11.496 17.86 12.8373 17.8991 15.6219 17.8991C15.7473 17.8991 16.0185 17.9017 16.4094 17.9061C18.7267 17.9321 25.253 18.0203 30.5944 17.9943C35.9359 18.0203 42.4686 17.9321 44.7859 17.9061C45.1768 17.9017 45.448 17.8991 45.5734 17.8991C48.3581 17.8991 50.0125 18.2281 51.2014 19.6672C52.3903 21.1064 53.2699 22.6882 53.8561 24.7131C54.4422 26.7379 55.2985 29.4001 55.2985 31.5001C55.8982 32.4001 56.403 33.6001 56.4507 34.8001C56.4985 36.0001 55.8324 36.7867 54.5153 36.8434C53.5662 36.8842 50.3409 36.5841 47.3781 36.6377C47.3379 41.6195 47.4301 47.3348 48.1014 52.2001C49.3016 60.9001 47.9916 61.6981 47.5013 65.1001C47.9471 66.4375 48.4013 68.1001 48.3465 69.6001C48.2917 71.1001 47.2013 72.0001 45.7013 72.1096C44.2013 72.2191 33.9936 71.9942 30.0609 71.3681C23.8124 72.1227 17.287 72.2347 16.3019 72.1096C14.8019 71.9191 13.9019 71.4001 13.6761 70.0702C13.4503 68.7403 14.022 66.5395 14.5018 65.1001Z" fill="#E3E0D3"/>
</svg>
