<svg width="63" height="84" viewBox="0 0 63 84" fill="none" xmlns="http://www.w3.org/2000/svg">
<path d="M20.699 43.5001C17.6989 43.2001 17.0276 41.1001 16.799 38.7001C16.7496 38.1815 16.7389 37.5089 16.7608 36.7367C13.4324 36.4306 8.84411 36.8935 7.68 36.8434C6.36294 36.7868 5.69683 36.0001 5.74459 34.8001C5.79234 33.6001 6.29707 32.4001 6.89684 31.5001C6.89684 29.4001 7.36579 27.0944 8.09684 24.9001C9.21283 21.5504 11.441 17.4431 14.498 14.365C17.5549 11.2869 21.1982 9.64427 21.9698 9.89108C24.1316 8.87897 27.4559 8.46631 31.1586 8.46631C34.8701 8.46631 38.2389 8.88092 40.4003 9.89828C41.1777 9.64135 45.6329 11.6677 48.9033 15.3C52.1737 18.9323 53.1778 21.5504 54.2938 24.9001C55.0248 27.0944 55.4938 29.4001 55.4938 31.5001C56.0936 32.4001 56.5983 33.6001 56.646 34.8001C56.6938 36.0001 56.0277 36.7868 54.7106 36.8434C53.5469 36.8935 48.9611 36.4309 45.6329 36.7364C45.6549 37.5088 45.6441 38.1815 45.5948 38.7001C45.3662 41.1001 44.6949 43.2001 41.6948 43.5001C39.7004 43.6995 35.6309 43.832 31.0696 43.1496C26.5632 43.8107 22.6744 43.6976 20.699 43.5001Z" fill="#E3E0D3"/>
</svg>
