<svg width="63" height="84" viewBox="0 0 63 84" fill="none" xmlns="http://www.w3.org/2000/svg">
<path d="M14.4991 55.5C14.0088 52.098 13.299 48.0649 14.499 42.6C14.8007 41.226 15.0566 39.0703 15.2539 36.6549C12.133 36.5392 8.50182 36.8871 7.48469 36.8433C6.16763 36.7867 5.50152 36 5.54927 34.8C5.59703 33.6 6.10176 32.4 6.70153 31.5C6.70153 29.4 7.17047 27.0943 7.90153 24.9C9.01752 21.5503 9.69919 19.3923 12.5657 15.8536C15.4322 12.3148 17.1773 11.7221 18.5893 11.8953C22.3889 10.7152 27.5543 10.3154 31.0016 10.3154C34.4559 10.3154 39.5959 10.7168 43.3978 11.9024C44.0729 11.5627 46.902 12.2804 49.4603 15.3126C52.0185 18.3448 52.9825 21.5503 54.0985 24.9C54.8295 27.0943 55.2985 29.4 55.2985 31.5C55.8982 32.4 56.403 33.6 56.4507 34.8C56.4985 36 55.8324 36.7867 54.5153 36.8433C53.459 36.8888 49.5833 36.5118 46.3877 36.6703C46.4576 39.0795 46.6011 41.2289 46.9021 42.6C48.1021 48.0649 47.3923 52.098 46.902 55.5C47.3909 56.9665 47.9371 59.4 47.7196 60.6C47.5022 61.8 46.6022 62.4 45.7022 62.4766C44.8022 62.5533 36.0031 62.169 33.1404 61.3339C26.1454 62.4785 17.4489 62.6555 16.2992 62.5095C14.7992 62.3191 13.7295 61.8 13.6643 60.3C13.5992 58.8 14.0313 56.9033 14.4991 55.5Z" fill="#E3E0D3"/>
</svg>
