<svg width="63" height="84" viewBox="0 0 63 84" fill="none" xmlns="http://www.w3.org/2000/svg">
<path d="M33.1467 61.3339C36.0093 62.169 44.8084 62.5533 45.7084 62.4766C46.4536 62.4132 47.1987 61.991 47.5565 61.1665C47.5245 61.4899 47.5063 61.8041 47.5063 62.1C47.5063 63.3 47.8063 63.9 49.0063 64.2C50.2063 64.5 55.9063 64.2 56.8063 63.9C57.7063 63.6 58.3063 63 58.3063 62.1C58.3063 61.2 58.1442 60.1871 57.7061 59.3999C58.0318 58.2056 58.3061 54.2999 58.0061 50.6999C57.7061 47.0999 57.3785 43.8041 56.8061 41.3999C55.3061 35.0999 56.1041 32.7012 54.3041 25.8012C53.3754 22.241 52.1581 19.3624 50.1603 16.5467C48.1626 13.7309 46.6429 12.7461 45.8683 12.3243C45.0937 11.9024 44.0791 11.5627 43.4041 11.9024C39.6022 10.7168 34.4621 10.3154 31.0079 10.3154C27.5606 10.3154 22.3952 10.7152 18.5956 11.8953C17.9243 11.565 16.9744 11.7025 15.7055 12.6883C14.4366 13.674 12.1512 15.6807 10.7078 18.2155C9.26442 20.7503 8.83283 21.9397 7.90407 25.5C6.10407 32.4 6.70407 35.0999 5.20407 41.3999C4.63162 43.8041 4.30407 47.0999 4.00407 50.6999C3.70407 54.2999 3.97836 58.2056 4.30407 59.3999C3.866 60.1871 4.00406 61.2 4.00406 62.1C4.00406 63 4.30392 63.6 5.20392 63.9C6.10392 64.2 11.8039 64.5 13.0039 64.2C14.2039 63.9 14.5039 63.3 14.5039 62.1C14.5039 62.0449 14.5033 61.9893 14.502 61.933C14.9607 62.2499 15.5832 62.4178 16.3055 62.5095C17.4552 62.6555 26.1517 62.4785 33.1467 61.3339Z" fill="#E3E0D3"/>
</svg>
