<svg width="63" height="84" viewBox="0 0 63 84" fill="none" xmlns="http://www.w3.org/2000/svg">
<path d="M19.6876 50.5449C17.1058 50.0578 14.5737 48.5425 16.7071 42.4728C16.4129 41.6725 15.8196 40.0236 15.7663 36.6785C12.5425 36.4997 8.55805 36.8896 7.48469 36.8434C6.16763 36.7868 5.50152 36.0001 5.54927 34.8001C5.59703 33.6001 6.10176 32.4001 6.70153 31.5001C6.70153 29.4001 7.17047 27.0944 7.90153 24.9001C9.01752 21.5504 11.4009 17.415 14.054 14.4589C16.7071 11.5027 19.8115 10.5003 20.507 10.5966C22.6656 9.55079 27.2411 8.46631 30.9998 8.46631C34.7584 8.46631 39.0908 9.59583 41.2494 10.6416C42.0132 10.4748 46.2367 11.8312 48.9255 14.8968C51.6143 17.9625 52.9825 21.5504 54.0985 24.9001C54.8295 27.0944 55.2985 29.4001 55.2985 31.5001C55.8982 32.4001 56.403 33.6001 56.4507 34.8001C56.4985 36.0001 55.8324 36.7868 54.5153 36.8434C53.4423 36.8896 49.46 36.4999 46.2367 36.6784C46.1835 40.0236 45.5902 41.6725 45.296 42.4728C47.4293 48.5425 44.8973 50.0578 42.3154 50.5449C40.5748 50.8733 35.9094 50.9908 30.9336 50.2803C25.9792 50.9821 21.4219 50.8721 19.6876 50.5449Z" fill="#E3E0D3"/>
</svg>
