<svg width="64" height="84" viewBox="0 0 64 84" fill="none" xmlns="http://www.w3.org/2000/svg">
<path d="M20.4845 50.5447C17.9027 50.0576 15.3706 48.5424 17.504 42.4726C17.2097 41.6724 16.6165 40.0235 16.5632 36.6784C13.3394 36.4995 9.35493 36.8895 8.28156 36.8433C6.9645 36.7866 6.29839 35.9999 6.34615 34.7999C6.3939 33.5999 6.89863 32.3999 7.4984 31.4999C7.4984 29.3999 7.51842 26.4919 8.28156 24.3879C9.0447 22.2839 9.60193 21.1063 10.7908 19.6671C11.9797 18.2279 13.6341 17.8989 16.4188 17.8989C16.5442 17.8989 16.8154 17.9015 17.2063 17.9059C19.5236 17.9319 26.0499 18.0201 31.3913 17.9942C36.7327 18.0201 43.2655 17.9319 45.5827 17.9059C45.9737 17.9015 46.2449 17.8989 46.3703 17.8989C49.1549 17.8989 50.8094 18.2279 51.9983 19.6671C53.1871 21.1063 53.8796 21.8832 54.8314 24.1875C55.7832 26.4919 56.0953 29.3999 56.0953 31.4999C56.6951 32.3999 57.1998 33.5999 57.2476 34.7999C57.2954 35.9999 56.6292 36.7866 55.3122 36.8433C54.2392 36.8894 50.2569 36.4997 47.0336 36.6782C46.9804 40.0234 46.3871 41.6723 46.0929 42.4726C48.2262 48.5424 45.6941 50.0576 43.1123 50.5447C41.3716 50.8732 36.7063 50.9906 31.7305 50.2802C26.7761 50.982 22.2187 50.872 20.4845 50.5447Z" fill="#E3E0D3"/>
</svg>
