<svg width="64" height="84" viewBox="0 0 64 84" fill="none" xmlns="http://www.w3.org/2000/svg">
<path d="M15.2959 55.5C14.8056 52.098 14.0959 48.0649 15.2959 42.6C15.5976 41.226 15.8535 39.0703 16.0508 36.6549C12.9299 36.5392 9.2987 36.8871 8.28156 36.8433C6.9645 36.7867 6.29839 36 6.34615 34.8C6.3939 33.6 6.89863 32.4 7.4984 31.5C7.4984 29.4 7.96735 27.0943 8.6984 24.9C9.8144 21.5503 10.9471 18.7369 13.7216 15.4383C16.4961 12.1396 18.5441 11.5659 19.4019 11.9041C23.2022 10.7224 28.3099 10.3154 31.7593 10.3154C35.2141 10.3154 40.3943 10.717 44.1964 11.903C45.0535 11.5662 47.699 12.5529 50.3878 15.7236C53.0765 18.8942 53.7794 21.5503 54.8953 24.9C55.6264 27.0943 56.0953 29.4 56.0953 31.5C56.6951 32.4 57.1998 33.6 57.2476 34.8C57.2954 36 56.6292 36.7867 55.3122 36.8433C54.2559 36.8888 50.3801 36.5118 47.1846 36.6703C47.2545 39.0795 47.3979 41.2289 47.699 42.6C48.899 48.0649 48.1892 52.098 47.6989 55.5C48.1878 56.9665 48.7339 59.4 48.5165 60.6C48.299 61.8 47.399 62.4 46.499 62.4766C45.599 62.5533 36.7999 62.169 33.9373 61.3339C26.9423 62.4785 18.2458 62.6555 17.0961 62.5095C15.5961 62.3191 14.5263 61.8 14.4612 60.3C14.3961 58.8 14.8282 56.9033 15.2959 55.5Z" fill="#E3E0D3"/>
</svg>
