<svg width="64" height="84" viewBox="0 0 64 84" fill="none" xmlns="http://www.w3.org/2000/svg">
<path d="M31.6696 43.1495C36.2309 43.8319 40.3004 43.6994 42.2948 43.5C44.0361 43.3259 44.9929 42.5453 45.5339 41.4517C45.9819 47.9753 46.2118 53.7276 48.8952 58.2C48.5953 59.3999 48.2953 60.9 48.2953 62.1C48.2953 63.3 48.5953 63.9 49.7953 64.2C50.9953 64.5 56.6953 64.2 57.5953 63.9C58.4953 63.6 59.0953 63 59.0953 62.1C59.0953 61.2 58.9332 60.1871 58.4952 59.3999C58.8209 58.2056 59.0952 54.2999 58.7952 50.6999C58.4952 47.0999 58.1676 43.8041 57.5952 41.3999C56.0952 35.0999 56.3995 32.3135 54.5995 25.4135C54.0234 23.2054 52.8394 20.4292 51.8603 18.5287C50.8812 16.6281 49.6662 15.2607 48.0016 13.645C46.3369 12.0293 44.8682 11.5627 44.1931 11.9024C40.3912 10.7168 35.2512 10.3154 31.7969 10.3154C28.3496 10.3154 23.1842 10.7152 19.3846 11.8953C18.7134 11.565 17.2013 12.2237 15.7325 13.645C14.2637 15.0663 13.5246 16.1029 12.426 17.6898C10.632 20.2812 9.26917 23.2919 8.69313 25.5C6.89313 32.4 7.49313 35.0999 5.99313 41.3999C5.42068 43.8041 5.09313 47.0999 4.79313 50.6999C4.49313 54.2999 4.76742 58.2056 5.09313 59.3999C4.65506 60.1871 4.79312 61.2 4.79312 62.1C4.79312 63 5.09298 63.6 5.99298 63.9C6.89298 64.2 12.593 64.5 13.793 64.2C14.993 63.9 15.293 63.3 15.293 62.1C15.293 60.9 14.993 59.3999 14.6931 58.2C17.3778 53.7254 17.6066 47.9695 18.055 41.442C18.5952 42.5407 19.5525 43.3254 21.299 43.5C23.2744 43.6975 27.1632 43.8106 31.6696 43.1495Z" fill="#E3E0D3"/>
</svg>
