<svg width="63" height="84" viewBox="0 0 63 84" fill="none" xmlns="http://www.w3.org/2000/svg">
<path d="M31.2712 43.1496C35.8324 43.832 39.902 43.6995 41.8963 43.5001C43.6377 43.326 44.5944 42.5454 45.1355 41.4518C45.5835 47.9754 45.8134 53.7277 48.4967 58.2001C48.1969 59.4 47.8969 60.9001 47.8969 62.1001C47.8969 63.3001 48.1969 63.9001 49.3969 64.2001C50.5969 64.5001 56.2969 64.2001 57.1969 63.9001C58.0969 63.6001 58.6969 63.0001 58.6969 62.1001C58.6969 61.2001 58.5348 60.1872 58.0967 59.4C58.4224 58.2057 58.6967 54.3 58.3967 50.7C58.0967 47.1 57.7692 43.8042 57.1967 41.4C55.6967 35.1 56.1463 32.5073 54.3463 25.6073C53.7363 23.2686 52.5247 20.2707 50.5565 17.5419C49.5284 16.1165 48.2734 14.5984 46.4349 12.7925C44.5964 10.9865 42.4101 10.4748 41.6463 10.6416C39.4877 9.59583 35.1553 8.46631 31.3967 8.46631C27.638 8.46631 23.0625 9.55079 20.9039 10.5966C20.2084 10.5003 18.7355 10.8316 16.8759 12.3425C15.0164 13.8533 13.4774 15.871 12.5144 17.1611C10.3954 19.9998 8.93324 23.0523 8.2947 25.5001C6.4947 32.4001 7.0947 35.1 5.59469 41.4C5.02225 43.8042 4.69469 47.1 4.39469 50.7C4.09469 54.3 4.36899 58.2057 4.6947 59.4C4.25662 60.1872 4.39468 61.2001 4.39468 62.1001C4.39468 63.0001 4.69454 63.6001 5.59454 63.9001C6.49454 64.2001 12.1945 64.5001 13.3945 64.2001C14.5945 63.9001 14.8945 63.3001 14.8945 62.1001C14.8945 60.9001 14.5945 59.4 14.2947 58.2001C16.9794 53.7255 17.2082 47.9697 17.6566 41.4421C18.1968 42.5408 19.1541 43.3255 20.9005 43.5001C22.876 43.6976 26.7648 43.8107 31.2712 43.1496Z" fill="#E3E0D3"/>
</svg>
