<svg width="63" height="84" viewBox="0 0 63 84" fill="none" xmlns="http://www.w3.org/2000/svg">
<path d="M33.3342 61.334C36.1968 62.1691 44.9959 62.5534 45.8959 62.4767C46.6411 62.4133 47.3862 61.9911 47.744 61.1666C47.712 61.49 47.6938 61.8042 47.6938 62.1001C47.6938 63.3001 47.9938 63.9001 49.1938 64.2001C50.3938 64.5001 56.0938 64.2001 56.9938 63.9001C57.8938 63.6001 58.4938 63.0001 58.4938 62.1001C58.4938 61.2001 58.3317 60.1872 57.8936 59.4C58.2193 58.2057 58.4936 54.3 58.1936 50.7C57.8936 47.1 57.566 43.8042 56.9936 41.4C55.4936 35.1 55.07 29.6289 54.0482 25.8339C53.0265 22.0389 52.4074 19.4462 48.9546 15.3796C45.5017 11.3129 42.207 10.4748 41.4432 10.6416C39.2845 9.59583 34.9522 8.46631 31.1935 8.46631C27.4349 8.46631 22.8594 9.55079 20.7008 10.5966C20.0053 10.5003 18.0325 11.5431 15.1935 13.9984C12.3545 16.4538 9.02033 21.9398 8.09157 25.5001C6.29157 32.4001 6.89157 35.1 5.39157 41.4C4.81912 43.8042 4.49157 47.1 4.19157 50.7C3.89157 54.3 4.16586 58.2057 4.49157 59.4C4.0535 60.1872 4.19156 61.2001 4.19156 62.1001C4.19156 63.0001 4.49142 63.6001 5.39142 63.9001C6.29142 64.2001 11.9914 64.5001 13.1914 64.2001C14.3914 63.9001 14.6895 63.1331 14.6895 61.9331C15.1482 62.25 15.7707 62.4179 16.493 62.5096C17.6427 62.6556 26.3392 62.4786 33.3342 61.334Z" fill="#E3E0D3"/>
</svg>
