<svg width="64" height="84" viewBox="0 0 64 84" fill="none" xmlns="http://www.w3.org/2000/svg">
<path d="M21.3005 43.5C18.3005 43.2 17.6291 41.1 17.4006 38.7C17.3512 38.1814 17.3405 37.5088 17.3624 36.7366C14.0339 36.4305 9.44568 36.8934 8.28156 36.8433C6.9645 36.7867 6.29839 36 6.34615 34.8C6.3939 33.6 6.89863 32.4 7.4984 31.5C7.4984 29.4 7.96735 27.0943 8.6984 24.9C9.8144 21.5503 11.8401 17.4072 14.2716 14.806C16.7032 12.2048 18.7149 11.565 19.3862 11.8953C23.1858 10.7152 28.3512 10.3154 31.7985 10.3154C35.2528 10.3154 40.3928 10.7168 44.1947 11.9024C44.8697 11.5627 48.0306 12.9965 50.4621 16.2001C52.8937 19.4036 53.7794 21.5503 54.8953 24.9C55.6264 27.0943 56.0953 29.4 56.0953 31.5C56.6951 32.4 57.1998 33.6 57.2476 34.8C57.2954 36 56.6292 36.7867 55.3122 36.8433C54.1484 36.8934 49.5627 36.4308 46.2345 36.7363C46.2564 37.5087 46.2457 38.1814 46.1963 38.7C45.9678 41.1 45.2964 43.2 42.2963 43.5C40.302 43.6994 36.2324 43.8319 31.6712 43.1495C27.1648 43.8106 23.276 43.6975 21.3005 43.5Z" fill="#E3E0D3"/>
</svg>
