<svg width="63" height="84" viewBox="0 0 63 84" fill="none" xmlns="http://www.w3.org/2000/svg">
<path d="M31.3305 50.2802C36.3063 50.9907 40.9716 50.8732 42.7123 50.5448C43.8742 50.3256 45.026 49.8981 45.7471 48.9411C46.1688 52.4106 46.8965 55.5329 48.4967 58.2C48.1969 59.3999 47.8969 60.9 47.8969 62.1C47.8969 63.3 48.1969 63.9 49.3969 64.2C50.5969 64.5 56.2969 64.2 57.1969 63.9C58.0969 63.6 58.6969 63 58.6969 62.1C58.6969 61.2 58.5348 60.1871 58.0967 59.3999C58.4224 58.2056 58.6967 54.2999 58.3967 50.6999C58.0967 47.0999 57.7692 43.8041 57.1967 41.3999C55.6967 35.0999 56.2967 32.4 54.4967 25.5C53.568 21.9397 50.8967 17.1 46.9967 13.5C46.9967 13.5 46.465 12.9574 45.8149 12.493C45.1647 12.0286 44.4697 11.5627 43.7947 11.9024C39.9928 10.7168 34.8528 10.3154 31.3985 10.3154C27.9512 10.3154 22.7858 10.7152 18.9862 11.8953C18.3149 11.565 17.5572 12.0468 16.9271 12.5193C16.2971 12.9919 15.7947 13.5 15.7947 13.5C11.8947 17.1 9.22346 21.9397 8.2947 25.5C6.4947 32.4 7.0947 35.0999 5.59469 41.3999C5.02225 43.8041 4.69469 47.0999 4.39469 50.6999C4.09469 54.2999 4.36899 58.2056 4.6947 59.3999C4.25662 60.1871 4.39468 61.2 4.39468 62.1C4.39468 63 4.69454 63.6 5.59454 63.9C6.49454 64.2 12.1945 64.5 13.3945 64.2C14.5945 63.9 14.8945 63.3 14.8945 62.1C14.8945 60.9 14.5945 59.3999 14.2947 58.2C15.8959 55.5313 16.6235 52.4069 17.0451 48.9349C17.7658 49.8963 18.9201 50.3251 20.0845 50.5448C21.8187 50.872 26.3761 50.982 31.3305 50.2802Z" fill="#E3E0D3"/>
</svg>
