<svg width="63" height="84" viewBox="0 0 63 84" fill="none" xmlns="http://www.w3.org/2000/svg">
<path d="M14.9081 65.1C14.4178 61.698 13.1077 60.9 14.308 52.2C14.9792 47.3347 15.0715 41.6195 15.0313 36.6377C12.0676 36.5838 8.84039 36.8842 7.89094 36.8433C6.57388 36.7867 5.90777 36 5.95552 34.8C6.00328 33.6 6.50801 32.4 7.10778 31.5C7.10778 29.4 7.57672 27.0943 8.30778 24.9C9.42377 21.5503 11.3618 17.3519 13.7091 14.8902C16.0563 12.4284 18.1534 11.5659 19.0113 11.9041C22.8116 10.7224 27.9193 10.3154 31.3687 10.3154C34.8235 10.3154 40.0037 10.717 43.8057 11.903C44.6628 11.5662 47.4866 12.4284 49.9483 15.5199C52.4093 18.6105 53.3881 21.5485 54.5037 24.897L54.5047 24.9C55.2358 27.0943 55.7047 29.4 55.7047 31.5C56.3045 32.4 56.8092 33.6 56.857 34.8C56.9047 36 56.2386 36.7867 54.9216 36.8433C53.9724 36.8842 50.7472 36.584 47.7843 36.6376C47.7441 41.6195 47.8364 47.3347 48.5076 52.2C49.7079 60.9 48.3978 61.698 47.9075 65.1C48.3534 66.4375 48.8075 68.1 48.7528 69.6C48.698 71.1 47.6075 72 46.1075 72.1095C44.6075 72.2191 34.3999 71.9941 30.4671 71.368C24.2186 72.1226 17.6932 72.2346 16.7082 72.1095C15.2082 71.9191 14.3081 71.4 14.0823 70.0701C13.8565 68.7402 14.4283 66.5394 14.9081 65.1Z" fill="#E3E0D3"/>
</svg>
