<svg width="64" height="84" viewBox="0 0 64 84" fill="none" xmlns="http://www.w3.org/2000/svg">
<path d="M14.4714 70.0702C14.2456 68.7403 14.8173 66.5395 15.2972 65.1001C15.2116 64.5067 15.1012 63.9925 14.9834 63.5017C14.7574 63.8314 14.3846 64.0522 13.793 64.2001C12.593 64.5001 6.89298 64.2001 5.99298 63.9001C5.09298 63.6001 4.79312 63.0001 4.79312 62.1001C4.79312 61.2001 4.65506 60.1872 5.09313 59.4C4.76742 58.2057 4.49313 54.3 4.79313 50.7C5.09313 47.1 5.42068 43.8042 5.99313 41.4C7.49313 35.1 6.89313 32.4001 8.69313 25.5001C9.6219 21.9398 11.2344 18.2309 14.3173 14.8053C17.4003 11.3798 20.8817 10.5384 21.3023 10.5966C23.4609 9.55079 28.0365 8.46631 31.7951 8.46631C35.5537 8.46631 39.8861 9.59583 42.0447 10.6416C42.4923 10.5439 45.0465 10.6623 48.2966 14.1862C51.5466 17.7102 53.0063 19.7388 54.7065 25.9258C56.4066 32.1128 56.0952 35.1 57.5952 41.4C58.1676 43.8042 58.4952 47.1 58.7952 50.7C59.0952 54.3 58.8209 58.2057 58.4952 59.4C58.9332 60.1872 59.0953 61.2001 59.0953 62.1001C59.0953 63.0001 58.4953 63.6001 57.5953 63.9001C56.6953 64.2001 50.9953 64.5001 49.7953 64.2001C49.2073 64.0531 48.8353 63.834 48.6089 63.5076C48.4917 63.9966 48.3818 64.509 48.2966 65.1001C48.7424 66.4376 49.1966 68.1001 49.1418 69.6001C49.087 71.1001 47.9966 72.0001 46.4966 72.1096C44.9966 72.2192 34.7889 71.9942 30.8562 71.3681C24.6077 72.1227 18.0823 72.2347 17.0972 72.1096C15.5972 71.9192 14.6972 71.4001 14.4714 70.0702Z" fill="#E3E0D3"/>
</svg>
