<svg width="63" height="84" viewBox="0 0 63 84" fill="none" xmlns="http://www.w3.org/2000/svg">
<path d="M13.6823 70.0702C13.4565 68.7403 14.0283 66.5395 14.5081 65.1001C14.4226 64.5067 14.3121 63.9925 14.1944 63.5017C13.9684 63.8314 13.5955 64.0522 13.0039 64.2001C11.8039 64.5001 6.10392 64.2001 5.20392 63.9001C4.30392 63.6001 4.00406 63.0001 4.00406 62.1001C4.00406 61.2001 3.866 60.1872 4.30407 59.4C3.97836 58.2057 3.70407 54.3 4.00407 50.7C4.30407 47.1 4.63162 43.8042 5.20407 41.4C6.70407 35.1 6.10407 32.4001 7.90407 25.5001C8.83283 21.9398 11.5041 17.1001 15.4041 13.5001C16.4536 12.5313 17.8423 11.5547 18.5469 11.08C19.2514 10.6054 21.0092 9.64427 21.7807 9.89108C23.9425 8.87897 27.2668 8.46631 30.9695 8.46631C34.681 8.46631 38.0498 8.88092 40.2112 9.89828C40.9887 9.64135 42.4918 10.2502 43.5172 10.894C44.5425 11.5378 45.8146 12.7695 46.6061 13.5001C50.5061 17.1001 53.1773 21.9398 54.1061 25.5001C55.9061 32.4001 55.3061 35.1 56.8061 41.4C57.3785 43.8042 57.7061 47.1 58.0061 50.7C58.3061 54.3 58.0318 58.2057 57.7061 59.4C58.1442 60.1872 58.3063 61.2001 58.3063 62.1001C58.3063 63.0001 57.7063 63.6001 56.8063 63.9001C55.9063 64.2001 50.2063 64.5001 49.0063 64.2001C48.4182 64.0531 48.0463 63.834 47.8199 63.5076C47.7027 63.9966 47.5927 64.509 47.5075 65.1001C47.9534 66.4376 48.4075 68.1001 48.3528 69.6001C48.298 71.1001 47.2075 72.0001 45.7075 72.1096C44.2075 72.2192 33.9999 71.9942 30.0671 71.3681C23.8186 72.1227 17.2932 72.2347 16.3082 72.1096C14.8082 71.9192 13.9081 71.4001 13.6823 70.0702Z" fill="#E3E0D3"/>
</svg>
