<svg width="63" height="84" viewBox="0 0 63 84" fill="none" xmlns="http://www.w3.org/2000/svg">
<path d="M31.068 43.1496C35.6293 43.832 39.6989 43.6995 41.6932 43.5001C43.4345 43.326 44.3913 42.5454 44.9324 41.4518C45.3804 47.9754 45.6102 53.7277 48.2936 58.2001C47.9938 59.4 47.6938 60.9001 47.6938 62.1001C47.6938 63.3001 47.9938 63.9001 49.1938 64.2001C50.3938 64.5001 56.0938 64.2001 56.9938 63.9001C57.8938 63.6001 58.4938 63.0001 58.4938 62.1001C58.4938 61.2001 58.3317 60.1872 57.8936 59.4C58.2193 58.2057 58.4936 54.3 58.1936 50.7C57.8936 47.1 57.566 43.8042 56.9936 41.4C55.4936 35.1 56.0936 32.4001 54.2936 25.5001C53.3648 21.9398 50.6936 17.1001 46.7936 13.5001C45.7204 12.5094 45.0925 11.9743 43.8608 11.0593C42.6292 10.1444 41.1762 9.64135 40.3987 9.89828C38.2373 8.88092 34.8685 8.46631 31.157 8.46631C27.4543 8.46631 24.13 8.87897 21.9682 9.89108C21.1967 9.64427 19.7521 10.0755 18.7834 10.777C17.8148 11.4784 16.6648 12.5094 15.5916 13.5001C11.6916 17.1001 9.02033 21.9398 8.09157 25.5001C6.29157 32.4001 6.89157 35.1 5.39157 41.4C4.81912 43.8042 4.49157 47.1 4.19157 50.7C3.89157 54.3 4.16586 58.2057 4.49157 59.4C4.0535 60.1872 4.19156 61.2001 4.19156 62.1001C4.19156 63.0001 4.49142 63.6001 5.39142 63.9001C6.29142 64.2001 11.9914 64.5001 13.1914 64.2001C14.3914 63.9001 14.6914 63.3001 14.6914 62.1001C14.6914 60.9001 14.3914 59.4 14.0916 58.2001C16.7763 53.7255 17.005 47.9696 17.4535 41.4421C17.9937 42.5408 18.9509 43.3255 20.6974 43.5001C22.6729 43.6976 26.5616 43.8107 31.068 43.1496Z" fill="#E3E0D3"/>
</svg>
