<svg width="63" height="84" viewBox="0 0 63 84" fill="none" xmlns="http://www.w3.org/2000/svg">
<path d="M14.6972 65.1C14.2069 61.698 12.8968 60.9 14.0971 52.2C14.7683 47.3347 14.8605 41.6195 14.8204 36.6377C11.8566 36.5838 8.62945 36.8842 7.68 36.8433C6.36294 36.7867 5.69683 36 5.74459 34.8C5.79234 33.6 6.29707 32.4 6.89684 31.5C6.89684 29.4 7.36579 27.0943 8.09684 24.9C9.21283 21.5503 9.84138 19.0195 12.6791 15.4574C15.5169 11.8953 18.1134 11.565 18.7846 11.8953C22.5842 10.7152 27.7496 10.3154 31.1969 10.3154C34.6512 10.3154 39.7912 10.7168 43.5931 11.9024C44.2682 11.5627 46.0351 12.0517 48.8034 15.2916C51.5716 18.5315 53.1778 21.5503 54.2938 24.9C55.0248 27.0943 55.4938 29.4 55.4938 31.5C56.0936 32.4 56.5983 33.6 56.646 34.8C56.6938 36 56.0277 36.7867 54.7106 36.8433C53.7615 36.8842 50.5363 36.584 47.5734 36.6376C47.5332 41.6195 47.6255 47.3347 48.2967 52.2C49.4969 60.9 48.1869 61.698 47.6966 65.1C48.1424 66.4375 48.5966 68.1 48.5418 69.6C48.487 71.1 47.3966 72 45.8966 72.1095C44.3966 72.2191 34.1889 71.9941 30.2562 71.368C24.0077 72.1226 17.4823 72.2346 16.4972 72.1095C14.9972 71.9191 14.0972 71.4 13.8714 70.0701C13.6456 68.7402 14.2173 66.5394 14.6972 65.1Z" fill="#E3E0D3"/>
</svg>
