<svg width="64" height="84" viewBox="0 0 64 84" fill="none" xmlns="http://www.w3.org/2000/svg">
<path d="M15.2987 65.1001C14.8084 61.6981 13.4984 60.9001 14.6986 52.2001C15.3699 47.3348 15.4621 41.6196 15.4219 36.6378C12.4582 36.5839 9.23101 36.8843 8.28156 36.8434C6.9645 36.7868 6.29839 36.0001 6.34615 34.8001C6.3939 33.6001 6.89863 32.4001 7.4984 31.5001C7.4984 29.4001 7.96735 27.0944 8.6984 24.9001C9.8144 21.5504 12.5296 16.4544 15.2987 13.7902C18.0678 11.126 20.6084 10.5003 21.3039 10.5966C23.4625 9.55079 28.038 8.46631 31.7967 8.46631C35.5553 8.46631 39.8877 9.59583 42.0463 10.6416C42.8101 10.4748 46.3843 11.1615 49.7874 15.1019C53.1905 19.0424 53.7794 21.5504 54.8953 24.9001C55.6264 27.0944 56.0953 29.4001 56.0953 31.5001C56.6951 32.4001 57.1998 33.6001 57.2476 34.8001C57.2954 36.0001 56.6292 36.7868 55.3122 36.8434C54.3631 36.8843 51.1378 36.5841 48.175 36.6377C48.1348 41.6196 48.227 47.3348 48.8982 52.2001C50.0985 60.9001 48.7885 61.6981 48.2982 65.1001C48.744 66.4376 49.1981 68.1001 49.1434 69.6001C49.0886 71.1001 47.9981 72.0001 46.4981 72.1096C44.9981 72.2192 34.7905 71.9942 30.8577 71.3681C24.6093 72.1227 18.0839 72.2347 17.0988 72.1096C15.5988 71.9192 14.6987 71.4001 14.4729 70.0702C14.2471 68.7403 14.8189 66.5395 15.2987 65.1001Z" fill="#E3E0D3"/>
</svg>
