<svg width="63" height="84" viewBox="0 0 63 84" fill="none" xmlns="http://www.w3.org/2000/svg">
<path d="M14.5018 65.1001C14.0115 61.6981 12.7015 60.9001 13.9018 52.2001C14.573 47.3348 14.6652 41.6196 14.625 36.6378C11.6613 36.5839 8.43414 36.8843 7.48469 36.8434C6.16763 36.7868 5.50152 36.0001 5.54927 34.8001C5.59703 33.6001 6.10176 32.4001 6.70153 31.5001C6.70153 29.4001 7.17047 27.0944 7.90153 24.9001C9.01752 21.5504 10.4604 19.0048 12.7015 16.5001C13.953 15.1013 16.0157 13.0998 17.7049 11.6629C19.3942 10.226 21.0029 9.64427 21.7745 9.89108C23.9362 8.87897 27.2605 8.46631 30.9633 8.46631C34.6748 8.46631 38.0436 8.88092 40.205 9.89828C40.9824 9.64135 42.5862 10.1614 44.7004 11.9025C46.8146 13.6437 48.047 15.1013 49.2985 16.5001C51.5396 19.0048 52.9825 21.5504 54.0985 24.9001C54.8295 27.0944 55.2985 29.4001 55.2985 31.5001C55.8982 32.4001 56.403 33.6001 56.4507 34.8001C56.4985 36.0001 55.8324 36.7868 54.5153 36.8434C53.5662 36.8843 50.3409 36.5841 47.3781 36.6377C47.3379 41.6196 47.4301 47.3348 48.1014 52.2001C49.3016 60.9001 47.9916 61.6981 47.5013 65.1001C47.9471 66.4376 48.4013 68.1001 48.3465 69.6001C48.2917 71.1001 47.2013 72.0001 45.7013 72.1096C44.2013 72.2192 33.9936 71.9942 30.0609 71.3681C23.8124 72.1227 17.287 72.2347 16.3019 72.1096C14.8019 71.9192 13.9019 71.4001 13.6761 70.0702C13.4503 68.7403 14.022 66.5395 14.5018 65.1001Z" fill="#E3E0D3"/>
</svg>
