<svg width="63" height="84" viewBox="0 0 63 84" fill="none" xmlns="http://www.w3.org/2000/svg">
<path d="M31.068 43.1494C35.6293 43.8318 39.6989 43.6994 41.6932 43.4999C43.4345 43.3258 44.3913 42.5453 44.9324 41.4516C45.3804 47.9752 45.6102 53.7276 48.2936 58.1999C47.9938 59.3998 47.6938 60.8999 47.6938 62.0999C47.6938 63.2999 47.9938 63.8999 49.1938 64.1999C50.3938 64.4999 56.0938 64.1999 56.9938 63.8999C57.8938 63.5999 58.4938 62.9999 58.4938 62.0999C58.4938 61.1999 58.3317 60.187 57.8936 59.3998C58.2193 58.2055 58.4936 54.2998 58.1936 50.6998C57.8936 47.0998 57.566 43.8041 56.9936 41.3998C56.0264 37.3376 55.9323 34.7722 55.505 31.6124C55.2695 29.8718 54.7848 27.0679 54.0122 24.7501C53.2396 22.4323 52.584 21.1063 51.3951 19.6671C50.2063 18.2279 48.5518 17.8989 45.7672 17.8989C45.6417 17.8989 45.3706 17.9015 44.9796 17.9059C42.6623 17.9319 36.1296 18.0201 30.7882 17.9942C25.4468 18.0201 18.9205 17.9319 16.6032 17.9059C16.2122 17.9015 15.9411 17.8989 15.8156 17.8989C13.031 17.8989 11.3765 18.2279 10.1877 19.6671C8.99881 21.1063 8.55719 22.1748 7.97774 24.6857C7.39828 27.1967 7.2381 29.2071 7.00928 30.7124C6.46281 34.3073 6.44884 36.9592 5.39157 41.3998C4.81912 43.8041 4.49157 47.0998 4.19157 50.6998C3.89157 54.2998 4.16586 58.2055 4.49157 59.3998C4.0535 60.187 4.19156 61.1999 4.19156 62.0999C4.19156 62.9999 4.49142 63.5999 5.39142 63.8999C6.29142 64.1999 11.9914 64.4999 13.1914 64.1999C14.3914 63.8999 14.6914 63.2999 14.6914 62.0999C14.6914 60.8999 14.3914 59.3998 14.0916 58.1999C16.7763 53.7253 17.005 47.9695 17.4535 41.4419C17.9937 42.5407 18.9509 43.3253 20.6974 43.4999C22.6729 43.6975 26.5616 43.8105 31.068 43.1494Z" fill="#E3E0D3"/>
</svg>
