<svg width="63" height="84" viewBox="0 0 63 84" fill="none" xmlns="http://www.w3.org/2000/svg">
<path d="M20.5037 43.5C17.5036 43.2 16.8323 41.1 16.6037 38.7C16.5543 38.1814 16.5436 37.5088 16.5655 36.7366C13.2371 36.4305 8.6488 36.8934 7.48469 36.8433C6.16763 36.7867 5.50152 36 5.54927 34.8C5.59703 33.6 6.10176 32.4 6.70153 31.5C6.70153 29.4 7.17047 27.0943 7.90153 24.9C9.01752 21.5503 10.4781 18.3003 12.824 15.4246C15.1699 12.549 17.7472 11.5659 18.605 11.9041C22.4053 10.7224 27.513 10.3154 30.9625 10.3154C34.4172 10.3154 39.5974 10.717 43.3995 11.903C44.2566 11.5662 47.3316 12.549 49.9802 16.3327C52.6288 20.1165 52.9825 21.5503 54.0985 24.9C54.8295 27.0943 55.2985 29.4 55.2985 31.5C55.8982 32.4 56.403 33.6 56.4507 34.8C56.4985 36 55.8324 36.7867 54.5153 36.8433C53.3516 36.8934 48.7658 36.4308 45.4376 36.7363C45.4595 37.5087 45.4488 38.1814 45.3994 38.7C45.1709 41.1 44.4995 43.2 41.4995 43.5C39.5051 43.6994 35.4355 43.8319 30.8743 43.1495C26.3679 43.8106 22.4791 43.6975 20.5037 43.5Z" fill="#E3E0D3"/>
</svg>
