<svg width="63" height="84" viewBox="0 0 63 84" fill="none" xmlns="http://www.w3.org/2000/svg">
<path d="M33.5373 61.3339C36.3999 62.1689 45.199 62.5532 46.099 62.4766C46.8442 62.4131 47.5893 61.9909 47.9471 61.1665C47.9151 61.4899 47.8969 61.804 47.8969 62.0999C47.8969 63.2999 48.1969 63.8999 49.3969 64.1999C50.5969 64.4999 56.2969 64.1999 57.1969 63.8999C58.0969 63.5999 58.6969 62.9999 58.6969 62.0999C58.6969 61.1999 58.5348 60.187 58.0967 59.3998C58.4224 58.2055 58.6967 54.2998 58.3967 50.6998C58.0967 47.0998 58.438 46.613 57.1967 41.3998C55.9555 36.1865 56.231 36.6192 55.6443 33.5392C55.0576 30.4592 54.3781 26.4044 53.8263 24.4336C53.2744 22.4628 52.7871 21.1063 51.5983 19.6671C50.4094 18.2279 48.7549 17.8989 45.9703 17.8989C45.8449 17.8989 45.5737 17.9015 45.1827 17.9059C42.8655 17.9319 36.3327 18.0201 30.9913 17.9942C25.6499 18.0201 19.1236 17.9319 16.8063 17.9059C16.4154 17.9015 16.1442 17.8989 16.0188 17.8989C13.2341 17.8989 11.5797 18.2279 10.3908 19.6671C9.20193 21.1063 9.04677 21.606 8.35156 23.089C7.65635 24.572 7.03535 26.9999 6.71776 30.5515C6.40016 34.1031 7.0947 35.0998 5.59469 41.3998C5.02225 43.8041 4.69469 47.0998 4.39469 50.6998C4.09469 54.2998 4.36899 58.2055 4.6947 59.3998C4.25662 60.187 4.39468 61.1999 4.39468 62.0999C4.39468 62.9999 4.69454 63.5999 5.59454 63.8999C6.49454 64.1999 12.1945 64.4999 13.3945 64.1999C14.5945 63.8999 14.8927 63.1329 14.8927 61.9329C15.3513 62.2499 15.9738 62.4178 16.6961 62.5095C17.8458 62.6555 26.5423 62.4785 33.5373 61.3339Z" fill="#E3E0D3"/>
</svg>
