<svg width="63" height="84" viewBox="0 0 63 84" fill="none" xmlns="http://www.w3.org/2000/svg">
<path d="M13.8698 70.0701C13.644 68.7402 14.2158 66.5394 14.6956 65.1C14.6101 64.5066 14.4996 63.9924 14.3819 63.5016C14.1559 63.8313 13.783 64.0521 13.1914 64.2C11.9914 64.5 6.29142 64.2 5.39142 63.9C4.49142 63.6 4.19156 63 4.19156 62.1C4.19156 61.2 4.0535 60.1871 4.49157 59.3999C4.16586 58.2056 3.89157 54.2999 4.19157 50.6999C4.49157 47.0999 4.81912 43.8041 5.39157 41.3999C6.89157 35.0999 6.29157 32.4 8.09157 25.5C9.02033 21.9397 12.2446 16.3822 14.3099 14.3169C16.3752 12.2516 18.1118 11.565 18.7831 11.8953C22.5827 10.7152 27.7481 10.3154 31.1954 10.3154C34.6496 10.3154 39.7897 10.7168 43.5916 11.9024C44.2666 11.5627 45.0101 11.1911 47.2429 13.1447C49.4756 15.0984 52.3256 18.0001 54.1608 25.2835C55.996 32.5669 55.4936 35.0999 56.9936 41.3999C57.566 43.8041 57.8936 47.0999 58.1936 50.6999C58.4936 54.2999 58.2193 58.2056 57.8936 59.3999C58.3317 60.1871 58.4938 61.2 58.4938 62.1C58.4938 63 57.8938 63.6 56.9938 63.9C56.0938 64.2 50.3938 64.5 49.1938 64.2C48.6057 64.053 48.2338 63.8339 48.0074 63.5075C47.8902 63.9965 47.7802 64.5089 47.695 65.1C48.1409 66.4375 48.595 68.1 48.5403 69.6C48.4855 71.1 47.395 72 45.895 72.1095C44.395 72.2191 34.1874 71.9941 30.2546 71.368C24.0061 72.1226 17.4807 72.2346 16.4957 72.1095C14.9957 71.9191 14.0956 71.4 13.8698 70.0701Z" fill="#E3E0D3"/>
</svg>
