<svg width="63" height="84" viewBox="0 0 63 84" fill="none" xmlns="http://www.w3.org/2000/svg">
<path d="M19.883 50.5448C17.3011 50.0577 14.7691 48.5424 16.9024 42.4727C16.6082 41.6724 16.0149 40.0235 15.9617 36.6784C12.7378 36.4996 8.75337 36.8895 7.68 36.8433C6.36294 36.7867 5.69683 36 5.74459 34.8C5.79234 33.6 6.29707 32.4 6.89684 31.5C6.89684 29.4 7.36579 27.0943 8.09684 24.9C9.21283 21.5503 10.6116 18.6761 12.7877 15.8612C14.9638 13.0464 17.9425 11.5659 18.8004 11.9041C22.6007 10.7224 27.7083 10.3154 31.1578 10.3154C34.6126 10.3154 39.7927 10.717 43.5948 11.903C44.4519 11.5662 47.2574 13.0464 49.6946 15.8612C52.1319 18.6761 53.1778 21.5503 54.2938 24.9C55.0248 27.0943 55.4938 29.4 55.4938 31.5C56.0936 32.4 56.5983 33.6 56.646 34.8C56.6938 36 56.0277 36.7867 54.7106 36.8433C53.6376 36.8895 49.6553 36.4998 46.432 36.6783C46.3788 40.0235 45.7855 41.6724 45.4913 42.4727C47.6246 48.5424 45.0926 50.0577 42.5107 50.5448C40.7701 50.8732 36.1047 50.9907 31.1289 50.2802C26.1745 50.982 21.6172 50.872 19.883 50.5448Z" fill="#E3E0D3"/>
</svg>
