<svg width="63" height="84" viewBox="0 0 63 84" fill="none" xmlns="http://www.w3.org/2000/svg">
<path d="M33.5373 61.334C36.3999 62.1691 45.199 62.5534 46.099 62.4767C46.792 62.4177 47.5503 62.0485 47.9317 61.334C47.9093 61.5985 47.8969 61.8555 47.8969 62.1001C47.8969 63.3001 48.1969 63.9001 49.3969 64.2001C50.5969 64.5001 56.2969 64.2001 57.1969 63.9001C58.0969 63.6001 58.6969 63.0001 58.6969 62.1001C58.6969 61.2001 58.5348 60.1872 58.0967 59.4C58.4224 58.2057 58.6967 54.3 58.3967 50.7C58.0967 47.1 57.7692 43.8042 57.1967 41.4C55.6967 35.1 56.115 34.5974 54.9514 28.8629C53.7879 23.1284 52.0111 19.4555 49.9959 16.7238C47.9807 13.9921 45.4815 11.9458 44.0916 10.9221C42.7018 9.89828 41.3793 9.64135 40.6018 9.89828C38.4404 8.88092 35.0717 8.46631 31.3602 8.46631C27.6574 8.46631 24.3331 8.87897 22.1713 9.89108C21.3998 9.64427 20.2157 9.89108 18.6483 10.9916C17.081 12.0922 15.021 14.1264 13.1401 16.3655C11.2593 18.6046 9.22346 21.9398 8.2947 25.5001C6.4947 32.4001 7.0947 35.1 5.59469 41.4C5.02225 43.8042 4.69469 47.1 4.39469 50.7C4.09469 54.3 4.36899 58.2057 4.6947 59.4C4.25662 60.1872 4.39468 61.2001 4.39468 62.1001C4.39468 63.0001 4.69454 63.6001 5.59454 63.9001C6.49454 64.2001 12.1945 64.5001 13.3945 64.2001C14.5945 63.9001 14.8959 63.1354 14.8959 61.9354C15.3543 62.2508 15.9756 62.4181 16.6961 62.5096C17.8458 62.6556 26.5423 62.4786 33.5373 61.334Z" fill="#E3E0D3"/>
</svg>
