<svg width="63" height="84" viewBox="0 0 63 84" fill="none" xmlns="http://www.w3.org/2000/svg">
<path d="M13.6823 70.0701C13.4565 68.7402 14.0283 66.5394 14.5081 65.0999C14.4226 64.5065 14.3121 63.9923 14.1944 63.5016C13.9684 63.8312 13.5955 64.052 13.0039 64.1999C11.8039 64.4999 6.10392 64.1999 5.20392 63.8999C4.30392 63.5999 4.00406 62.9999 4.00406 62.0999C4.00406 61.1999 3.866 60.187 4.30407 59.3998C3.97836 58.2055 3.70407 54.2998 4.00407 50.6998C4.30407 47.0998 4.63162 43.8041 5.20407 41.3998C6.70407 35.0998 7.44527 27.9109 7.90407 25.4999C8.36287 23.089 8.22223 21.4353 10.0002 19.6671C11.7781 17.8989 12.8435 17.8989 15.6281 17.8989C15.7536 17.8989 16.0247 17.9015 16.4157 17.9059C18.733 17.9319 25.2593 18.0201 30.6007 17.9942C35.9421 18.0201 42.4748 17.9319 44.7921 17.9059C45.1831 17.9015 45.4542 17.8989 45.5797 17.8989C48.3643 17.8989 50.0776 18.483 51.2076 19.6671C52.3377 20.8512 53.1676 21.7356 54.1061 25.4999C55.0446 29.2642 55.3061 35.0998 56.8061 41.3998C57.3785 43.8041 57.7061 47.0998 58.0061 50.6998C58.3061 54.2998 58.0318 58.2055 57.7061 59.3998C58.1442 60.187 58.3063 61.1999 58.3063 62.0999C58.3063 62.9999 57.7063 63.5999 56.8063 63.8999C55.9063 64.1999 50.2063 64.4999 49.0063 64.1999C48.4182 64.0529 48.0463 63.8339 47.8199 63.5074C47.7027 63.9964 47.5927 64.5089 47.5075 65.0999C47.9534 66.4374 48.4075 68.0999 48.3528 69.5999C48.298 71.0999 47.2075 71.9999 45.7075 72.1095C44.2075 72.219 33.9999 71.9941 30.0671 71.3679C23.8186 72.1225 17.2932 72.2346 16.3082 72.1095C14.8082 71.919 13.9081 71.3999 13.6823 70.0701Z" fill="#E3E0D3"/>
</svg>
