<svg width="63" height="102" viewBox="0 0 63 102" fill="none" xmlns="http://www.w3.org/2000/svg">
<path d="M17.8929 12.2998H44.8728C47.1235 12.2998 47.5283 13.619 47.817 15.7625C47.8362 15.9047 47.8548 16.0505 47.8734 16.1998C48.0359 17.5017 48.1961 20.5283 48.3104 23.4307C48.4067 25.8787 48.4704 28.2384 48.4752 29.3998C48.479 30.324 50.2031 66.8663 50.2031 71.7863V86.3369C50.2031 89.492 48.3516 91.8734 48.3516 91.8734C48.3516 91.8734 48.7111 92.5206 48.5324 93.9229C48.3537 95.3251 47.2108 95.9998 45.1833 95.9998H34.8532C33.9588 95.9998 33.17 94.9394 33.1066 93.9229C33.0482 92.9874 33.6819 92.0892 33.6819 92.0892C33.6819 92.0892 32.6849 90.4347 32.6849 87.1714V66.2015C32.6849 58.9196 31.7625 37.7478 31.3741 35.9998C30.9856 37.7478 30.0808 58.9196 30.0808 66.2015V87.1714C30.0808 90.4347 29.0838 92.0892 29.0838 92.0892C29.0838 92.0892 29.7175 92.9874 29.6591 93.9229C29.5956 94.9394 28.8068 95.9998 27.9124 95.9998H17.5823C15.5548 95.9998 14.4119 95.3251 14.2332 93.9229C14.0545 92.5206 14.4141 91.8734 14.4141 91.8734C14.4141 91.8734 12.5625 89.492 12.5625 86.3369V71.7863C12.5625 66.8663 14.2866 30.324 14.2905 29.3998C14.2952 28.2384 14.3589 25.8787 14.4553 23.4307C14.5695 20.5283 14.7297 17.5017 14.8922 16.1998C14.9108 16.0505 14.9295 15.9047 14.9486 15.7625C15.2374 13.619 15.6422 12.2998 17.8929 12.2998Z" fill="#E3E0D3"/>
</svg>
