<svg width="63" height="102" viewBox="0 0 63 102" fill="none" xmlns="http://www.w3.org/2000/svg">
<path d="M17.4949 12.2998H44.4935C46.7442 12.2998 47.149 13.619 47.4378 15.7625C47.4569 15.9047 47.4756 16.0505 47.4942 16.1998C47.6567 17.5017 47.8169 20.5283 47.9311 23.4307C48.0275 25.8787 48.0911 28.2384 48.0959 29.3998C48.0998 30.324 48.0964 48.4798 48.0964 53.3998C48.0964 58.3198 48.0937 66.5998 47.4936 75.2998C47.1985 79.5794 46.8417 84.1306 46.2931 87.1714C45.7264 90.3124 44.3723 91.8734 44.3723 91.8734C44.3723 91.8734 45.3319 92.5206 45.1532 93.9229C44.9744 95.3251 44.7217 95.9998 42.6942 95.9998H34.4739C33.5796 95.9998 32.7908 94.9394 32.7273 93.9229C32.6689 92.9874 33.3026 92.0892 33.3026 92.0892C33.3026 92.0892 32.3056 90.4347 32.3056 87.1714V66.2015C32.3056 58.9196 31.382 37.7478 30.9935 35.9998C30.6051 37.7478 29.6828 58.9196 29.6828 66.2015V87.1714C29.6828 90.4347 28.6858 92.0892 28.6858 92.0892C28.6858 92.0892 29.3195 92.9874 29.2611 93.9229C29.1976 94.9394 28.4088 95.9998 27.5144 95.9998H19.2942C17.2667 95.9998 17.0139 95.3251 16.8352 93.9229C16.6565 92.5206 17.6161 91.8734 17.6161 91.8734C17.6161 91.8734 16.262 90.3124 15.6953 87.1714C15.1467 84.1306 14.7899 79.5794 14.4947 75.2998C13.8947 66.5998 13.892 58.3198 13.892 53.3998C13.892 48.4798 13.8886 30.324 13.8925 29.3998C13.8973 28.2384 13.9609 25.8787 14.0573 23.4307C14.1715 20.5283 14.3317 17.5017 14.4942 16.1998C14.5128 16.0505 14.5315 15.9047 14.5506 15.7625C14.8394 13.619 15.2442 12.2998 17.4949 12.2998Z" fill="#E3E0D3"/>
</svg>
