<svg width="64" height="129" viewBox="0 0 64 129" fill="none" xmlns="http://www.w3.org/2000/svg">
<path d="M38.4463 53.1407L36.5054 58.0657C31.4394 57.8342 24.2022 57.4757 18.0434 56.628L17.6425 58.1559L16.7736 61.4668L16.014 64.361C16.014 64.361 6.89946 63.9 5.99946 63.6C5.99946 63.6 5.68832 62.2659 5.09894 59.3999C4.50956 56.5338 4.03988 54.3389 3.43988 51.9389C2.83988 49.5389 6.59919 37.7607 6.59919 37.7607L10.574 19.7105C10.574 19.7105 14.3822 15.0274 17.1734 12.9821V11.2924C17.1734 11.2924 20.4546 9.19519 26.4028 8.42578C26.4437 8.55172 26.4849 8.67941 26.5263 8.80879C28.1068 8.57231 29.9243 8.46624 31.8015 8.46624C33.6915 8.46624 35.4829 8.57375 37.0715 8.81363C37.116 8.68215 37.159 8.55283 37.2003 8.42578C43.1485 9.19519 46.4296 11.2924 46.4296 11.2924V12.9827C49.2208 15.0283 53.0283 19.7105 53.0283 19.7105L57.0031 37.7607C57.0031 37.7607 60.7624 49.5389 60.1624 51.9389C59.5624 54.3389 59.0927 56.5338 58.5033 59.3999C57.9139 62.2659 57.6028 63.6 57.6028 63.6C56.7028 63.9 47.5882 64.361 47.5882 64.361L46.8287 61.4668L45.9598 58.1559L45.6376 56.9283C42.3042 57.7584 40.312 58.1028 40.312 58.1028L38.4463 53.1407Z" fill="#E3E0D3"/>
</svg>
