<svg width="63" height="129" viewBox="0 0 63 129" fill="none" xmlns="http://www.w3.org/2000/svg">
<path d="M19.209 119.8C14.1389 119.173 10.7945 117.88 10.7945 117.88C10.7945 117.88 12.4171 88.1949 13.8583 64.2887C11.2824 64.1471 5.88451 63.8273 5.20259 63.6C5.20259 63.6 4.89145 62.2659 4.30207 59.3999C3.71269 56.5338 3.243 54.3389 2.643 51.9389C2.043 49.5389 5.80232 37.7607 5.80232 37.7607L9.77708 19.7105C9.77708 19.7105 13.5853 15.0274 16.3766 12.9821V11.2924C16.3766 11.2924 19.6577 9.19519 25.6059 8.42578C25.6468 8.55172 25.688 8.67941 25.7294 8.80879C27.3099 8.57231 29.1274 8.46624 31.0047 8.46624C32.8947 8.46624 34.6861 8.57375 36.2746 8.81363C36.3191 8.68215 36.3621 8.55283 36.4034 8.42578C42.3516 9.19519 45.6327 11.2924 45.6327 11.2924V12.9827C48.4239 15.0283 52.2314 19.7105 52.2314 19.7105L56.2062 37.7607C56.2062 37.7607 59.9655 49.5389 59.3655 51.9389C58.7655 54.3389 58.2958 56.5338 57.7064 59.3999C57.1171 62.2659 56.8059 63.6 56.8059 63.6C56.1206 63.8284 50.6725 64.1502 48.1122 64.2908C49.5533 88.1966 51.1758 117.88 51.1758 117.88C51.1758 117.88 47.8315 119.173 42.7614 119.8C41.6598 119.936 40.5809 120.054 39.4965 120.146L37.6339 114.845L35.7101 119.8C28.8705 120.659 24.2791 120.427 19.209 119.8Z" fill="#E3E0D3"/>
</svg>
