<svg width="63" height="129" viewBox="0 0 63 129" fill="none" xmlns="http://www.w3.org/2000/svg">
<path d="M21.4074 87.6963C16.3373 87.0695 12.993 85.7762 12.993 85.7762C12.993 85.7762 13.5137 75.966 14.2181 64.2865C11.6273 64.1439 6.27956 63.8262 5.60103 63.6C5.60103 63.6 5.28989 62.2659 4.7005 59.3999C4.11112 56.5338 3.64144 54.3389 3.04144 51.9389C2.44144 49.5389 6.20076 37.7607 6.20076 37.7607L10.1755 19.7105C10.1755 19.7105 13.9837 15.0274 16.775 12.9821V11.2924C16.775 11.2924 20.0562 9.19519 26.0043 8.42578C26.0453 8.55172 26.0865 8.67941 26.1278 8.80879C27.7084 8.57231 29.5258 8.46624 31.4031 8.46624C33.2931 8.46624 35.0845 8.57375 36.673 8.81363C36.7176 8.68215 36.7605 8.55283 36.8019 8.42578C42.75 9.19519 46.0312 11.2924 46.0312 11.2924V12.9827C48.8224 15.0283 52.6299 19.7105 52.6299 19.7105L56.6046 37.7607C56.6046 37.7607 60.3639 49.5389 59.7639 51.9389C59.1639 54.3389 58.6943 56.5338 58.1049 59.3999C57.5155 62.2659 57.2043 63.6 57.2043 63.6C56.4853 63.8397 50.5224 64.1822 48.154 64.3102C49.06 76.034 49.8153 85.7762 49.8153 85.7762C49.8153 85.7762 45.1989 87.3985 40.1288 88.0253L38.0175 82.8116L36.1085 87.6963C29.269 88.5557 26.4775 88.3232 21.4074 87.6963Z" fill="#E3E0D3"/>
</svg>
