<svg width="84" height="73" viewBox="0 0 84 73" fill="none" xmlns="http://www.w3.org/2000/svg">
<path d="M14.7914 57.1628C14.7914 57.1628 12.9671 62.7999 14.6612 67.3861C16.3553 71.9723 21.4828 72.4277 26.9107 72.2854C34.5449 72.0852 42.419 71.1055 50.0254 69.5123C54.3964 70.5673 60.5836 71.2143 65.8171 71.474C67.8944 71.5771 70.2592 70.3101 71.2118 66.5965C72.1644 62.8829 69.2633 56.1628 69.2633 56.1628C69.2633 56.1628 69.2633 51.2958 68.9567 48.6022C73.9702 47.9763 77.324 47.4778 80.0766 46.469C82.8291 45.4602 83.9361 44.4343 83.9365 41.3184C83.9369 38.2025 79.647 23.6792 76.0146 17.0854C70.1489 7.96891 65.1551 4.73179 59.4738 1.69192C55.9882 -0.17305 53.8154 1.29903 52.8219 2.19575C51.8283 3.09246 47.6019 6.88157 41.6602 6.88157C35.7185 6.88157 32.2264 3.09246 31.2328 2.19575C30.2392 1.29903 28.0665 -0.17305 24.5809 1.69192C18.8996 4.73179 13.9058 7.96891 8.04012 17.0854C4.40772 23.6792 0.117772 38.2025 0.118164 41.3184C0.118556 44.4343 1.22556 45.4602 3.97812 46.469C6.73069 47.4778 9.64766 47.9763 14.6612 48.6022C14.7914 53.4092 14.7914 57.1628 14.7914 57.1628Z" fill="#DECAAD"/>
</svg>
