<svg width="84" height="100" viewBox="0 0 84 100" fill="none" xmlns="http://www.w3.org/2000/svg">
<path d="M14.7914 84.1628C14.7914 84.1628 11.1735 89.8258 12.8675 94.412C14.5616 98.9982 21.4828 99.4277 26.9107 99.2854C34.5449 99.0852 42.419 98.1055 50.0254 96.5123C54.3964 97.5673 60.5836 98.2143 65.8171 98.474C67.8944 98.5771 70.2592 97.3101 71.2118 93.5965C72.1644 89.8829 69.2633 83.1628 69.2633 83.1628C69.9553 72.5428 70.7979 67.1561 68.9567 48.6022C73.9702 47.9763 77.324 47.4778 80.0766 46.469C82.8291 45.4602 83.9361 44.4343 83.9365 41.3184C83.9369 38.2025 79.647 23.6792 76.0146 17.0854C70.1489 7.96891 65.1551 4.73179 59.4738 1.69192C55.9882 -0.17305 53.8154 1.29903 52.8219 2.19575C51.8283 3.09246 47.6019 6.88157 41.6602 6.88157C35.7185 6.88157 32.2264 3.09246 31.2328 2.19575C30.2392 1.29903 28.0665 -0.17305 24.5809 1.69192C18.8996 4.73179 13.9058 7.96891 8.04012 17.0854C4.40772 23.6792 0.117772 38.2025 0.118164 41.3184C0.118556 44.4343 1.22556 45.4602 3.97812 46.469C6.73069 47.4778 9.64766 47.9763 14.6612 48.6022C12.8877 66.7227 13.9678 75.6007 14.7914 84.1628Z" fill="#DECAAD"/>
</svg>
