<svg width="89" height="119" viewBox="0 0 89 119" fill="none" xmlns="http://www.w3.org/2000/svg">
<path d="M11.7522 90.0563C7.23631 90.1567 4.47659 90.0563 0.906945 89.1204C0.360512 87.6226 1.42918 84.17 2.09338 82.9341C-0.877948 79.6873 0.19384 72.7379 0.906945 68.5018C2.3074 60.1825 1.27301 54.4558 2.09338 45.2256C2.9169 35.96 4.75403 25.0245 10.0137 15.5245C14.9052 7.97631 23.5151 2.62951 27.2086 0.899627C30.6941 -0.965348 32.8669 0.506733 33.8605 1.40345C34.8541 2.30016 38.3462 6.08927 44.2879 6.08927C50.2296 6.08927 54.4559 2.30016 55.4495 1.40345C56.4431 0.506733 58.6159 -0.965348 62.1014 0.899627C71.3287 6.08927 75.5784 12.2853 78.3164 15.6214C83.576 25.1214 85.4132 36.0569 86.2367 45.3226C87.0571 54.5527 86.0227 60.2795 87.4231 68.5987C88.1362 72.8348 89.208 79.7843 86.2367 83.031C86.9009 84.2669 87.9696 87.7195 87.4231 89.2173C83.8535 90.1533 81.0938 90.2536 76.5779 90.1533H73.8319C73.8319 94.218 72.9995 104.404 72.719 107.116C74.5703 110.263 74.829 114.083 73.0892 116.681C71.3495 119.279 57.6452 119.718 47.473 117.459C32.2791 119.771 19.7212 118.73 16.251 117.802C12.7808 116.873 12.2764 111.991 14.7617 106.459C14.096 99.4566 13.2553 91.5752 13.7047 90.0563H11.7522Z" fill="#DECAAD"/>
</svg>
