<svg width="89" height="99" viewBox="0 0 89 99" fill="none" xmlns="http://www.w3.org/2000/svg">
<path d="M11.634 90.0563C7.11814 90.1567 4.35843 90.0563 0.788781 89.1204C0.242348 87.6226 1.31102 84.17 1.97522 82.9341C-0.996112 79.6873 0.0756764 72.7379 0.788781 68.5018C2.18923 60.1825 1.15485 54.4558 1.97522 45.2256C2.79874 35.96 4.63586 25.0245 9.89551 15.5245C14.787 7.97631 23.3969 2.62951 27.0904 0.899627C30.576 -0.965348 32.7487 0.506733 33.7423 1.40345C34.7359 2.30016 38.2281 6.08927 44.1697 6.08927C50.1114 6.08927 54.3378 2.30016 55.3314 1.40345C56.3249 0.506733 58.4977 -0.965348 61.9833 0.899627C71.2105 6.08927 75.4602 12.2853 78.1982 15.6214C83.4579 25.1214 85.295 36.0569 86.1185 45.3226C86.9389 54.5527 85.9045 60.2795 87.305 68.5987C88.0181 72.8348 89.0899 79.7843 86.1185 83.031C86.7827 84.2669 87.8514 87.7195 87.305 89.2173C83.7353 90.1533 80.9756 90.2536 76.4597 90.1533H73.7137C74.4809 92.7928 74.2067 95.1778 72.4243 97.0037C69.9688 99.5191 56.2376 99.5381 46.0654 97.2787C30.8715 99.5909 16.1143 99.2927 14.8434 97.6216C13.0556 95.2706 12.7891 92.7514 13.5865 90.0563H11.634Z" fill="#DECAAD"/>
</svg>
