<svg width="89" height="91" viewBox="0 0 89 91" fill="none" xmlns="http://www.w3.org/2000/svg">
<path d="M12.221 90.0563C7.70506 90.1567 4.94534 90.0563 1.37569 89.1204C0.829262 87.6226 1.89793 84.17 2.56213 82.9341C-0.409198 79.6873 0.66259 72.7379 1.37569 68.5018C2.77615 60.1825 1.74176 54.4558 2.56213 45.2256C3.38565 35.96 5.22278 25.0245 10.4824 15.5245C15.374 7.97631 23.9838 2.62951 27.6773 0.899627C31.1629 -0.965348 33.3357 0.506733 34.3292 1.40345C35.3228 2.30016 38.815 6.08927 44.7566 6.08927C50.6983 6.08927 54.9247 2.30016 55.9183 1.40345C56.9119 0.506733 59.0846 -0.965348 62.5702 0.899627C71.7974 6.08927 76.0471 12.2853 78.7852 15.6214C84.0448 25.1214 85.8819 36.0569 86.7054 45.3226C87.5258 54.5527 86.4914 60.2795 87.8919 68.5987C88.605 72.8348 89.6768 79.7843 86.7054 83.031C87.3696 84.2669 88.4383 87.7195 87.8919 89.2173C84.3222 90.1533 79.058 90.1567 74.5421 90.0563C72.6496 88.9805 72.1821 85.1941 72.2786 80.9816C69.7541 73.9719 66.6345 59.9764 66.7901 58.0206C66.7901 58.0206 61.2577 62.8946 48.2461 59.0846C30.6978 62.4238 22.7101 58.0206 22.7101 58.0206C23.1387 64.3659 20.5228 73.8631 18.3414 80.1978C18.6762 83.6701 19.3426 86.949 17.3901 90.0563H12.221Z" fill="#DECAAD"/>
</svg>

