<svg width="85" height="119" viewBox="0 0 85 119" fill="none" xmlns="http://www.w3.org/2000/svg">
<path d="M12.93 100.05C10.6065 104.117 10.033 114.773 11.8938 116.806C13.7547 118.838 21.6215 118.315 27.0494 118.173C34.7073 117.972 42.535 117.002 50.1641 115.4C54.535 116.455 60.7223 117.102 65.9558 117.362C69.1506 117.52 71.0365 117.565 72.5686 116.043C74.1007 114.522 75.3247 108.27 71.402 100.05C72.9147 85.499 72.0838 68.6972 69.5322 48.6022C74.5457 47.9763 77.4627 47.4778 80.2152 46.469C82.9678 45.4602 84.0748 44.4343 84.0752 41.3184C84.0756 38.2025 79.7856 23.6792 76.1532 17.0854C70.2876 7.96891 65.2938 4.73179 59.6124 1.69192C56.1269 -0.17305 53.9541 1.29903 52.9605 2.19575C51.9669 3.09246 47.7406 6.88157 41.7989 6.88157C35.8572 6.88157 32.3651 3.09246 31.3715 2.19575C30.3779 1.29903 28.2051 -0.17305 24.7196 1.69192C19.0382 4.73179 14.0444 7.96891 8.17879 17.0854C4.54639 23.6792 0.256444 38.2025 0.256836 41.3184C0.257228 44.4343 1.36423 45.4602 4.1168 46.469C6.86936 47.4778 9.78633 47.9763 14.7999 48.6022C12.2524 68.6741 11.4184 85.5096 12.93 100.05Z" fill="#DECAAD"/>
</svg>
