<svg width="85" height="60" viewBox="0 0 85 60" fill="none" xmlns="http://www.w3.org/2000/svg">
<path d="M56.3073 59.3655C58.3847 59.4686 66.4323 58.8833 67.3848 55.1697C67.3848 55.1697 68.832 51.2958 68.5254 48.6022C73.5389 47.9763 77.4041 47.4778 80.1566 46.469C82.9092 45.4602 84.0162 44.4343 84.0166 41.3184C84.017 38.2025 79.727 23.6792 76.0947 17.0854C70.229 7.96891 65.2352 4.73179 59.5538 1.69192C56.0683 -0.17305 53.8955 1.29903 52.9019 2.19575C51.9084 3.09246 47.682 6.88157 41.7403 6.88157C35.7986 6.88157 32.3065 3.09246 31.3129 2.19575C30.3193 1.29903 28.1465 -0.17305 24.661 1.69192C18.9796 4.73179 13.9859 7.96891 8.1202 17.0854C4.4878 23.6792 0.19785 38.2025 0.198242 41.3184C0.198634 44.4343 1.30563 45.4602 4.0582 46.469C6.81077 47.4778 12.8835 48.6022 18.3534 48.6022C18.4835 53.4092 17.7473 50.1711 19.4414 54.7573C21.1354 59.3435 25.3569 59.5079 30.7847 59.3655C38.419 59.1653 47.5339 56.8842 47.5339 56.8842C47.5339 56.8842 51.0738 59.1058 56.3073 59.3655Z" fill="#DECAAD"/>
</svg>
