<svg width="63" height="84" viewBox="0 0 63 84" fill="none" xmlns="http://www.w3.org/2000/svg">
<path d="M31.0837 43.1493C35.6449 43.8317 39.7145 43.6992 41.7088 43.4998C43.4502 43.3257 44.407 42.5451 44.948 41.4515C45.396 47.9751 45.6259 53.7274 48.3092 58.1998C48.0094 59.3997 47.7094 60.8998 47.7094 62.0998C47.7094 63.2998 48.0094 63.8998 49.2094 64.1998C50.4094 64.4998 56.1094 64.1998 57.0094 63.8998C57.9094 63.5998 58.5094 62.9998 58.5094 62.0998C58.5094 61.1998 58.3473 60.1869 57.9092 59.3997C58.2349 58.2054 58.5092 54.2997 58.2092 50.6997C57.9092 47.0997 57.5817 43.8039 57.0092 41.3997C55.5092 35.0997 56.1092 32.3998 54.3092 25.4998C53.3805 21.9395 50.7092 17.0998 46.8092 13.4998C43.8071 10.7287 40.8051 9.37959 37.9398 8.63162C37.927 8.20957 37.8555 5.92907 37.7731 4.79961C37.6821 3.55192 36.5094 2.69961 35.6094 2.69961C35.6094 2.69961 34.4094 2.47461 32.6094 2.69961C30.8094 2.9246 27.5094 2.69961 26.0094 2.69961C24.5094 2.69961 23.8691 3.55192 23.7781 4.79961C23.6871 6.0473 23.6094 8.87598 23.6094 8.87598C21.0084 9.66489 18.3078 11.0069 15.6072 13.4998C11.7072 17.0998 9.03596 21.9395 8.1072 25.4998C6.3072 32.3998 6.9072 35.0997 5.40719 41.3997C4.83475 43.8039 4.50719 47.0997 4.20719 50.6997C3.90719 54.2997 4.18149 58.2054 4.5072 59.3997C4.06912 60.1869 4.20718 61.1998 4.20718 62.0998C4.20718 62.9998 4.50704 63.5998 5.40704 63.8998C6.30704 64.1998 12.007 64.4998 13.207 64.1998C14.407 63.8998 14.707 63.2998 14.707 62.0998C14.707 60.8998 14.407 59.3997 14.1072 58.1998C16.7919 53.7252 17.0207 47.9694 17.4691 41.4418C18.0093 42.5405 18.9666 43.3252 20.713 43.4998C22.6885 43.6973 26.5773 43.8104 31.0837 43.1493Z" fill="#E3E0D3"/>
</svg>
