<svg width="63" height="84" viewBox="0 0 63 84" fill="none" xmlns="http://www.w3.org/2000/svg">
<path d="M20.7068 43.4998C17.7067 43.1998 17.0354 41.0998 16.8068 38.6998C16.7574 38.1812 16.7467 37.5086 16.7686 36.7364C13.4402 36.4303 8.85193 36.8932 7.68781 36.8431C6.37075 36.7865 5.70464 35.9998 5.7524 34.7998C5.80015 33.5998 6.30488 32.3998 6.90465 31.4998C6.90465 29.3998 7.3736 27.0941 8.10465 24.8998C9.22065 21.5501 10.6635 19.0045 12.9046 16.4998C16.7701 12.1796 20.1186 10.0998 23.6031 8.95414C23.6031 8.95414 23.6809 6.0473 23.7719 4.79961C23.8629 3.55192 24.5031 2.69961 26.0031 2.69961C27.5031 2.69961 30.8031 2.9246 32.6031 2.69961C34.4031 2.47461 35.6031 2.69961 35.6031 2.69961C36.5031 2.69961 37.6759 3.55192 37.7669 4.79961C37.8544 5.99978 37.9297 8.49962 37.9353 8.68829C41.7373 9.77102 45.3164 11.8222 49.5016 16.4998C51.7427 19.0045 53.1856 21.5501 54.3016 24.8998C55.0327 27.0941 55.5016 29.3998 55.5016 31.4998C56.1014 32.3998 56.6061 33.5998 56.6539 34.7998C56.7016 35.9998 56.0355 36.7865 54.7184 36.8431C53.5547 36.8932 48.9689 36.4306 45.6407 36.7361C45.6627 37.5085 45.652 38.1812 45.6026 38.6998C45.374 41.0998 44.7027 43.1998 41.7026 43.4998C39.7082 43.6992 35.6387 43.8317 31.0774 43.1493C26.571 43.8104 22.6823 43.6973 20.7068 43.4998Z" fill="#E3E0D3"/>
</svg>
