<svg width="63" height="84" viewBox="0 0 63 84" fill="none" xmlns="http://www.w3.org/2000/svg">
<path d="M33.5373 61.3338C36.3999 62.1688 45.199 62.5531 46.099 62.4764C46.8442 62.413 47.5893 61.9908 47.9471 61.1663C47.9151 61.4897 47.8969 61.8039 47.8969 62.0998C47.8969 63.2998 48.1969 63.8998 49.3969 64.1998C50.5969 64.4998 56.2969 64.1998 57.1969 63.8998C58.0969 63.5998 58.6969 62.9998 58.6969 62.0998C58.6969 61.1998 58.5348 60.1869 58.0967 59.3997C58.4224 58.2054 58.6967 54.2997 58.3967 50.6997C58.0967 47.0997 57.7692 43.8039 57.1967 41.3997C55.6967 35.0997 56.2967 32.3998 54.4967 25.4998C53.568 21.9395 50.8967 17.0998 46.9967 13.4998C43.9946 10.7287 40.9926 9.37959 38.1273 8.63162C38.1145 8.20957 38.043 5.92907 37.9606 4.79961C37.8696 3.55192 36.6969 2.69961 35.7969 2.69961C35.7969 2.69961 34.5969 2.47461 32.7969 2.69961C30.9969 2.9246 27.6969 2.69961 26.1969 2.69961C24.6969 2.69961 24.0566 3.55192 23.9656 4.79961C23.8746 6.0473 23.7969 8.87598 23.7969 8.87598C21.1959 9.66489 18.4953 11.0069 15.7947 13.4998C11.8947 17.0998 9.22346 21.9395 8.2947 25.4998C6.4947 32.3998 7.0947 35.0997 5.59469 41.3997C5.02225 43.8039 4.69469 47.0997 4.39469 50.6997C4.09469 54.2997 4.36899 58.2054 4.6947 59.3997C4.25662 60.1869 4.39468 61.1998 4.39468 62.0998C4.39468 62.9998 4.69454 63.5998 5.59454 63.8998C6.49454 64.1998 12.1945 64.4998 13.3945 64.1998C14.5945 63.8998 14.8945 63.2998 14.8945 62.0998C14.8945 62.0448 14.8939 61.9891 14.8927 61.9328C15.3513 62.2497 15.9738 62.4176 16.6961 62.5093C17.8458 62.6553 26.5423 62.4783 33.5373 61.3338Z" fill="#E3E0D3"/>
</svg>
