<svg width="63" height="84" viewBox="0 0 63 84" fill="none" xmlns="http://www.w3.org/2000/svg">
<path d="M13.6823 70.0699C13.4565 68.74 14.0283 66.5392 14.5081 65.0998C14.4226 64.5064 14.3121 63.9922 14.1944 63.5014C13.9684 63.8311 13.5955 64.0519 13.0039 64.1998C11.8039 64.4998 6.10392 64.1998 5.20392 63.8998C4.30392 63.5998 4.00406 62.9998 4.00406 62.0998C4.00406 61.1998 3.866 60.1869 4.30407 59.3997C3.97836 58.2054 3.70407 54.2997 4.00407 50.6997C4.30407 47.0997 4.63162 43.8039 5.20407 41.3997C6.70407 35.0997 6.10407 32.3998 7.90407 25.4998C8.83283 21.9395 11.5041 17.0998 15.4041 13.4998C18.1047 11.0069 20.8053 9.66489 23.4062 8.87598C23.4062 8.87598 23.484 6.0473 23.575 4.79961C23.666 3.55192 24.3062 2.69961 25.8062 2.69961C27.3062 2.69961 30.6063 2.9246 32.4062 2.69961C34.2062 2.47461 35.4062 2.69961 35.4062 2.69961C36.3063 2.69961 37.479 3.55192 37.57 4.79961C37.6523 5.92907 37.7239 8.20958 37.7367 8.63162C40.6019 9.3796 43.604 10.7287 46.6061 13.4998C50.5061 17.0998 53.1773 21.9395 54.1061 25.4998C55.9061 32.3998 55.3061 35.0997 56.8061 41.3997C57.3785 43.8039 57.7061 47.0997 58.0061 50.6997C58.3061 54.2997 58.0318 58.2054 57.7061 59.3997C58.1442 60.1869 58.3063 61.1998 58.3063 62.0998C58.3063 62.9998 57.7063 63.5998 56.8063 63.8998C55.9063 64.1998 50.2063 64.4998 49.0063 64.1998C48.4182 64.0528 48.0463 63.8337 47.8199 63.5073C47.7027 63.9963 47.5927 64.5087 47.5075 65.0998C47.9534 66.4373 48.4075 68.0998 48.3528 69.5998C48.298 71.0998 47.2075 71.9998 45.7075 72.1093C44.2075 72.2189 33.9999 71.9939 30.0671 71.3678C23.8186 72.1224 17.2932 72.2344 16.3082 72.1093C14.8082 71.9189 13.9081 71.3998 13.6823 70.0699Z" fill="#E3E0D3"/>
</svg>
