<svg width="63" height="84" viewBox="0 0 63 84" fill="none" xmlns="http://www.w3.org/2000/svg">
<path d="M14.5018 65.0998C14.0115 61.6978 12.7015 60.8998 13.9018 52.1998C14.573 47.3345 14.6652 41.6193 14.625 36.6375C11.6613 36.5836 8.43414 36.884 7.48469 36.8431C6.16763 36.7865 5.50152 35.9998 5.54927 34.7998C5.59703 33.5998 6.10176 32.3998 6.70153 31.4998C6.70153 29.3998 7.17047 27.0941 7.90153 24.8998C9.01752 21.5501 10.4604 19.0045 12.7015 16.4998C16.567 12.1796 19.9155 10.0998 23.4 8.95414C23.4 8.95414 23.4778 6.0473 23.5688 4.79961C23.6597 3.55192 24.3 2.69961 25.8 2.69961C27.3 2.69961 30.6 2.9246 32.4 2.69961C34.2 2.47461 35.4 2.69961 35.4 2.69961C36.3 2.69961 37.4728 3.55192 37.5637 4.79961C37.6513 5.99978 37.7266 8.49962 37.7322 8.68829C41.5341 9.77102 45.1133 11.8222 49.2985 16.4998C51.5396 19.0045 52.9825 21.5501 54.0985 24.8998C54.8295 27.0941 55.2985 29.3998 55.2985 31.4998C55.8982 32.3998 56.403 33.5998 56.4507 34.7998C56.4985 35.9998 55.8324 36.7865 54.5153 36.8431C53.5662 36.884 50.3409 36.5838 47.3781 36.6374C47.3379 41.6193 47.4301 47.3345 48.1014 52.1998C49.3016 60.8998 47.9916 61.6978 47.5013 65.0998C47.9471 66.4373 48.4013 68.0998 48.3465 69.5998C48.2917 71.0998 47.2013 71.9998 45.7013 72.1093C44.2013 72.2189 33.9936 71.9939 30.0609 71.3678C23.8124 72.1224 17.287 72.2344 16.3019 72.1093C14.8019 71.9189 13.9019 71.3998 13.6761 70.0699C13.4503 68.74 14.022 66.5392 14.5018 65.0998Z" fill="#E3E0D3"/>
</svg>
