<svg width="63" height="84" viewBox="0 0 63 84" fill="none" xmlns="http://www.w3.org/2000/svg">
<path d="M31.2072 45.3001C24.056 45.3001 19.1528 43.7222 17.7074 43.3096C16.262 42.8971 16.3559 42.6403 16.2815 41.2702C16.2227 40.1877 16.3978 37.262 16.4739 31.9421C18.9824 27.0057 18.4262 23.0908 18.3029 21.9001C18.1709 20.6255 17.3059 16.7818 16.1487 15.1551C14.9916 13.5284 15.7273 12.9662 16.803 12.0001C17.1467 11.6914 18.1124 10.9782 18.8086 10.5277C19.5047 10.0773 20.2296 9.68818 20.5544 9.53907C21.3976 9.15203 21.9536 9.2753 22.4376 9.69224C24.5963 8.82458 27.7178 8.46631 31.168 8.46631C34.6318 8.46631 37.8019 8.82742 39.9615 9.70257C40.3762 9.34027 40.8428 9.19337 41.4976 9.3992C41.905 9.52726 42.6118 9.93291 43.467 10.4898C44.3222 11.0466 45.221 11.654 45.6064 12.0001C46.682 12.9662 47.4178 13.5284 46.2607 15.1551C45.1035 16.7818 44.2384 20.6255 44.1065 21.9001C43.9831 23.0913 43.4265 27.0091 45.9387 31.9484C46.0149 37.2643 46.1898 40.1882 46.131 41.2702C46.0566 42.6403 46.1505 42.8971 44.7051 43.3096C43.2597 43.7222 38.3584 45.3001 31.2072 45.3001Z" fill="#E3E0D3"/>
</svg>
