<svg width="63" height="84" viewBox="0 0 63 84" fill="none" xmlns="http://www.w3.org/2000/svg">
<path d="M31.4032 52.5C24.2783 52.5 18.7912 50.9337 17.3214 50.5141L17.3052 50.5095C15.8598 50.097 15.9538 49.8402 15.8794 48.4701C15.8129 47.247 16.5238 44.0077 16.677 31.9317C19.1795 27.0002 18.624 23.0899 18.5008 21.9C18.3688 20.6254 17.5037 16.7817 16.3466 15.155C15.1895 13.5283 16.5042 12.6879 17.5799 11.7218C18.3391 11.1617 18.911 10.9871 19.4236 11.7661C23.1726 10.6859 28.0858 10.3154 31.4042 10.3154C34.726 10.3154 39.6068 10.6867 43.3574 11.7695C43.8706 10.9866 44.443 11.1609 45.2033 11.7218C46.279 12.6879 47.6157 13.5283 46.4585 15.155C45.3014 16.7817 44.4363 20.6254 44.3043 21.9C44.1811 23.0905 43.6251 27.0041 46.1319 31.9391C46.2853 44.009 46.9953 47.2472 46.9289 48.4701C46.8545 49.8402 46.9484 50.097 45.503 50.5095L45.4881 50.5138C44.02 50.9328 38.5299 52.5 31.4032 52.5Z" fill="#E3E0D3"/>
</svg>
