<svg width="63" height="84" viewBox="0 0 63 84" fill="none" xmlns="http://www.w3.org/2000/svg">
<path d="M30.9982 74.0998C23.8471 74.0998 17.7473 72.5219 16.3019 72.1094C14.8565 71.6968 13.9018 71.3998 13.676 70.07C13.4678 68.8432 13.6438 54.8582 15.7337 32.9257C18.8509 27.5308 18.228 23.1689 18.0967 21.9001C17.9647 20.6255 17.0996 16.7818 15.9425 15.1551C14.7853 13.5284 15.5211 12.9662 16.5968 12.0001C17.0173 11.6224 17.4121 11.3361 18.1113 10.8699C18.8106 10.4038 19.8003 9.82947 20.0473 9.69224C21.0632 9.12767 21.692 9.22761 22.2313 9.69224C24.39 8.82458 27.5116 8.46631 30.9617 8.46631C34.4255 8.46631 37.5956 8.82742 39.7552 9.70257C40.1704 9.33984 40.6377 9.19302 41.2937 9.39995C41.7006 9.52829 42.8437 10.1714 43.4911 10.5932C44.1386 11.015 44.9825 11.625 45.4001 12.0001C46.4758 12.9662 47.2115 13.5284 46.0544 15.1551C44.8973 16.7818 44.0322 20.6255 43.9002 21.9001C43.7688 23.1694 43.1454 27.5343 46.2669 32.9322C48.3563 54.861 48.5322 68.8433 48.324 70.07C48.0982 71.3998 47.1435 71.6968 45.6981 72.1094C44.2527 72.5219 38.1494 74.0998 30.9982 74.0998Z" fill="#E3E0D3"/>
</svg>
