<svg width="63" height="84" viewBox="0 0 63 84" fill="none" xmlns="http://www.w3.org/2000/svg">
<path d="M31.2032 45.2999C24.052 45.2999 19.1487 43.722 17.7033 43.3095C16.2579 42.8969 16.3519 42.6402 16.2775 41.2701C16.2035 39.9073 16.5001 35.6232 16.5033 27.3187C17.3055 27.079 18.3329 26.8301 19.5634 26.6489C20.3017 26.5402 21.0902 26.4603 21.9104 26.4017C24.7118 26.2016 27.995 26.2504 30.8005 26.2504C33.6059 26.2504 36.7771 26.2016 39.5785 26.4017C40.3986 26.4603 41.1871 26.5402 41.9254 26.6489C43.6903 26.9088 45.0372 27.3079 45.9014 27.6193C45.9115 35.7268 46.2001 39.9239 46.127 41.2701C46.0526 42.6402 46.1465 42.8969 44.7011 43.3095C43.2557 43.722 38.3544 45.2999 31.2032 45.2999Z" fill="#E3E0D3"/>
</svg>
