<svg width="63" height="129" viewBox="0 0 63 129" fill="none" xmlns="http://www.w3.org/2000/svg">
<path d="M31.2047 52.4998C24.0536 52.4998 17.9522 50.9219 16.5068 50.5093C15.0614 50.0968 14.5553 48.64 14.4809 47.2699C14.4076 45.9201 15.2804 43.2793 15.3062 27.8848C17.3356 25.6051 17.7565 21.8933 17.606 20.2341C17.4154 18.1324 16.8002 16.1999 16.1459 15.1548C15.7947 14.594 15.6991 14.0047 15.8522 13.4296C15.1615 12.8957 14.7049 12.1534 14.7049 11.0998C14.7049 7.79981 18.6049 5.3998 21.3049 4.4998C24.0049 3.5998 26.6161 3.2998 31.2049 3.2998C35.7937 3.2998 38.4049 3.59979 41.1049 4.49979C43.8049 5.39979 47.7049 7.79979 47.7049 11.0998C47.7049 12.1551 47.2469 12.8981 46.5544 13.4321C46.7065 14.0064 46.6107 14.5948 46.26 15.1548C45.6057 16.1999 44.9905 18.1324 44.7999 20.2341C44.6493 21.8948 45.071 25.6117 47.1052 27.891C47.1312 43.28 48.0037 45.9202 47.9304 47.2699C47.856 48.64 47.35 50.0968 45.9046 50.5093C44.4592 50.9219 38.3559 52.4998 31.2047 52.4998Z" fill="#E3E0D3"/>
</svg>
