<svg width="63" height="84" viewBox="0 0 63 84" fill="none" xmlns="http://www.w3.org/2000/svg">
<path d="M31.0015 64.5C23.8503 64.5 17.7489 62.9221 16.3035 62.5095C14.8581 62.097 14.9521 61.8402 14.8777 60.4701C14.8108 59.2388 16.0204 46.1909 16.2653 31.9514C18.7793 27.0106 18.2224 23.0915 18.0991 21.9C17.9671 20.6254 17.102 16.7817 15.9449 15.155C14.7878 13.5283 16.1025 12.6879 17.1782 11.7218C17.9374 11.1617 18.5093 10.9871 19.0219 11.7661C22.7709 10.6859 27.6841 10.3154 31.0025 10.3154C34.3243 10.3154 39.2052 10.6867 42.9557 11.7695C43.4689 10.9866 44.0413 11.1609 44.8016 11.7218C45.8773 12.6879 47.214 13.5283 46.0568 15.155C44.8997 16.7817 44.0346 20.6254 43.9026 21.9C43.7792 23.0925 43.2215 27.0176 45.7432 31.9646C45.9853 46.2311 47.1942 59.2368 47.1272 60.4701C47.0528 61.8402 47.1467 62.097 45.7013 62.5095C44.2559 62.9221 38.1527 64.5 31.0015 64.5Z" fill="#E3E0D3"/>
</svg>
