<svg width="63" height="84" viewBox="0 0 63 84" fill="none" xmlns="http://www.w3.org/2000/svg">
<path d="M31.3999 64.5001C24.2487 64.5001 18.1474 62.9222 16.702 62.5096C15.2566 62.097 15.3505 61.8403 15.2761 60.4702C15.2091 59.2368 16.4183 46.2273 16.6602 31.9584C19.1782 27.0143 18.6209 23.0921 18.4975 21.9001C18.3656 20.6255 17.5005 16.7818 16.3433 15.1551C15.1862 13.5284 15.922 12.9662 16.9976 12.0001C17.3986 11.64 18.0765 11.1841 18.7748 10.7103C19.4731 10.2364 20.2012 9.82947 20.4481 9.69224C21.4641 9.12767 22.0929 9.22761 22.6322 9.69224C24.7909 8.82458 27.9125 8.46631 31.3626 8.46631C34.8264 8.46631 37.9965 8.82742 40.1561 9.70257C40.5995 9.31517 41.1023 9.17405 41.8311 9.44711C42.2079 9.58829 43.2432 10.1727 43.8772 10.6236C44.5113 11.0745 45.4024 11.6421 45.801 12.0001C46.8767 12.9662 47.6124 13.5284 46.4553 15.1551C45.2981 16.7818 44.4331 20.6255 44.3011 21.9001C44.1776 23.0926 43.6199 27.0177 46.1416 31.9647C46.3838 46.2312 47.5926 59.2369 47.5256 60.4702C47.4512 61.8403 47.5452 62.097 46.0998 62.5096C44.6544 62.9222 38.5511 64.5001 31.3999 64.5001Z" fill="#E3E0D3"/>
</svg>
