<svg width="64" height="84" viewBox="0 0 64 84" fill="none" xmlns="http://www.w3.org/2000/svg">
<path d="M31.7984 64.5C24.6472 64.5 18.5458 62.9221 17.1004 62.5095C15.655 62.097 15.749 61.8402 15.6746 60.4701C15.6076 59.2367 16.8168 46.2272 17.0587 31.9583C19.5767 27.0142 19.0194 23.092 18.896 21.9C18.764 20.6254 17.8989 16.7817 16.7418 15.155C15.5846 13.5283 15.5353 13.106 16.611 12.1399C18.2008 10.5834 19.0805 10.915 19.8477 11.7578C23.5928 10.684 28.4504 10.3154 31.7602 10.3154C35.0788 10.3154 39.9925 10.6859 43.7416 11.7664C44.5106 10.9172 45.3909 10.5782 46.986 12.1399C48.0617 13.106 48.0109 13.5283 46.8537 15.155C45.6966 16.7817 44.8315 20.6254 44.6995 21.9C44.5761 23.0925 44.0183 27.0176 46.5401 31.9646C46.7822 46.2311 47.991 59.2368 47.9241 60.4701C47.8497 61.8402 47.9436 62.097 46.4982 62.5095C45.0528 62.9221 38.9495 64.5 31.7984 64.5Z" fill="#E3E0D3"/>
</svg>
