<svg width="63" height="84" viewBox="0 0 63 84" fill="none" xmlns="http://www.w3.org/2000/svg">
<path d="M31.0016 45.3C23.8504 45.3 18.9471 43.7221 17.5017 43.3095C16.0564 42.897 16.1503 42.6402 16.0759 41.2701C16.0171 40.1876 16.1922 37.2619 16.2683 31.942C18.7768 27.0056 18.2206 23.0907 18.0973 21.9C17.9653 20.6254 17.1003 16.7817 15.9431 15.155C14.786 13.5283 14.7367 13.106 15.8124 12.1399C17.4021 10.5834 18.2818 10.915 19.049 11.7578C22.7941 10.684 27.6517 10.3154 30.9615 10.3154C34.2802 10.3154 39.1939 10.6859 42.9429 11.7664C43.712 10.9172 44.5922 10.5782 46.1874 12.1399C47.263 13.106 47.2122 13.5283 46.055 15.155C44.8979 16.7817 44.0328 20.6254 43.9009 21.9C43.7775 23.0912 43.2209 27.009 45.7331 31.9483C45.8093 37.2642 45.9842 40.1881 45.9254 41.2701C45.851 42.6402 45.9449 42.897 44.4995 43.3095C43.0541 43.7221 38.1528 45.3 31.0016 45.3Z" fill="#E3E0D3"/>
</svg>
