<svg width="64" height="84" viewBox="0 0 64 84" fill="none" xmlns="http://www.w3.org/2000/svg">
<path d="M17.712 50.5141L17.712 50.5141L17.6959 50.5095C16.2505 50.0969 16.3444 49.8402 16.27 48.4701C16.1958 47.1038 17.0908 43.2219 17.0958 27.3187C17.8981 27.079 18.9254 26.8301 20.1559 26.6489C20.8943 26.5402 21.6827 26.4603 22.5029 26.4017C25.3043 26.2016 28.5875 26.2504 31.393 26.2504C34.1984 26.2504 37.3696 26.2016 40.171 26.4017C40.9912 26.4603 41.7796 26.5402 42.5179 26.6489C44.2828 26.9088 45.6296 27.3079 46.4939 27.6193C46.51 43.271 47.3932 47.1125 47.3195 48.4701C47.2451 49.8402 47.339 50.0969 45.8936 50.5095L45.8787 50.5137C44.4106 50.9328 38.9205 52.4999 31.7938 52.4999C24.669 52.4999 19.1818 50.9336 17.712 50.5141Z" fill="#E3E0D3"/>
</svg>
