<svg width="63" height="84" viewBox="0 0 63 84" fill="none" xmlns="http://www.w3.org/2000/svg">
<path d="M31.2046 64.5001C24.0534 64.5001 17.9521 62.9222 16.5067 62.5096C15.0613 62.097 15.1552 61.8403 15.0808 60.4702C15.0138 59.2368 16.223 46.2273 16.4649 31.9584C18.9829 27.0143 18.4256 23.0921 18.3022 21.9001C18.1702 20.6255 17.3052 16.7818 16.148 15.1551C14.9909 13.5284 15.7266 12.9662 16.8023 12.0001C17.0573 11.7711 17.5255 11.4354 18.1173 11.0527C18.7092 10.67 19.4482 10.2574 19.9143 10.1172C20.4543 9.95485 20.9456 10.0017 21.4014 10.184C23.56 9.13818 27.4076 8.46631 31.1663 8.46631C34.9249 8.46631 38.8569 9.13818 41.0155 10.184C41.566 9.9638 42.1682 9.94125 42.8453 10.246C43.213 10.4115 43.8637 10.775 44.2907 11.0527C44.7177 11.3304 45.3507 11.7711 45.6057 12.0001C46.6814 12.9662 47.4171 13.5284 46.26 15.1551C45.1028 16.7818 44.2378 20.6255 44.1058 21.9001C43.9823 23.0926 43.4246 27.0177 45.9463 31.9647C46.1885 46.2312 47.3973 59.2369 47.3303 60.4702C47.2559 61.8403 47.3498 62.097 45.9045 62.5096C44.4591 62.9222 38.3558 64.5001 31.2046 64.5001Z" fill="#E3E0D3"/>
</svg>
