<svg width="63" height="129" viewBox="0 0 63 129" fill="none" xmlns="http://www.w3.org/2000/svg">
<path d="M31.4082 64.2C24.257 64.2 17.5538 62.6221 16.1084 62.2095C14.663 61.797 14.1569 60.3402 14.0825 58.9701C14.0101 57.6369 14.8605 43.6826 14.9064 28.1753C17.4555 26.0057 17.9725 21.7462 17.8081 19.9343C17.6175 17.8326 17.0023 15.9001 16.348 14.855C15.9969 14.2942 15.9013 13.7049 16.0543 13.1298C15.3637 12.5959 14.907 11.8536 14.907 10.8C14.907 7.5 18.807 5.1 21.507 4.2C24.207 3.3 26.8182 3 31.407 3C35.9959 3 38.607 3.29998 41.307 4.19998C44.007 5.09998 47.907 7.49998 47.907 10.8C47.907 11.8553 47.449 12.5982 46.7565 13.1323C46.9086 13.7066 46.8128 14.295 46.4621 14.855C45.8078 15.9001 45.1926 17.8326 45.002 19.9343C44.8376 21.7474 45.3554 26.0117 47.9091 28.1798C47.9551 43.6853 48.8054 57.6371 48.733 58.9701C48.6586 60.3402 48.1525 61.797 46.7071 62.2095C45.2617 62.6221 38.5594 64.2 31.4082 64.2Z" fill="#E3E0D3"/>
</svg>
