<svg width="63" height="84" viewBox="0 0 63 84" fill="none" xmlns="http://www.w3.org/2000/svg">
<path d="M31.4025 45.3001C24.2513 45.3001 19.3481 43.7222 17.9027 43.3096C16.4573 42.8971 16.5512 42.6403 16.4768 41.2702C16.418 40.1877 16.5931 37.262 16.6692 31.9421C19.1777 27.0057 18.6215 23.0908 18.4982 21.9001C18.3662 20.6255 17.5012 16.7818 16.344 15.1551C15.1869 13.5284 15.9226 12.9662 16.9983 12.0001C17.2533 11.7711 17.7271 11.4824 18.3133 11.0527C18.8995 10.6231 19.5432 10.3186 19.9694 10.164C20.5652 9.94777 21.1022 9.98592 21.5974 10.184C23.7561 9.13818 27.6036 8.46631 31.3623 8.46631C35.1209 8.46631 39.0529 9.13818 41.2115 10.184C41.7215 9.98002 42.2758 9.94564 42.893 10.184C43.3038 10.3426 44.0188 10.7428 44.4867 11.0527C44.9546 11.3626 45.5467 11.7711 45.8017 12.0001C46.8774 12.9662 47.6131 13.5284 46.456 15.1551C45.2988 16.7818 44.4338 20.6255 44.3018 21.9001C44.1784 23.0913 43.6218 27.0091 46.134 31.9484C46.2102 37.2643 46.3851 40.1882 46.3263 41.2702C46.2519 42.6403 46.3459 42.8971 44.9005 43.3096C43.4551 43.7222 38.5537 45.3001 31.4025 45.3001Z" fill="#E3E0D3"/>
</svg>
