<svg width="63" height="84" viewBox="0 0 63 84" fill="none" xmlns="http://www.w3.org/2000/svg">
<path d="M31.2044 52.5C24.0796 52.5 18.5924 50.9337 17.1226 50.5141L17.1065 50.5095C15.6611 50.097 15.755 49.8402 15.6806 48.4701C15.6142 47.247 16.3245 44.0079 16.4777 31.9328C18.9808 27.0008 18.4252 23.09 18.302 21.9C18.1701 20.6254 17.305 16.7817 16.1478 15.155C14.9907 13.5283 14.9384 13.106 16.0141 12.1399C17.6038 10.5834 18.4866 10.915 19.2537 11.7578C22.9988 10.684 27.8564 10.3154 31.1663 10.3154C34.4849 10.3154 39.3986 10.6859 43.1477 11.7664C43.9167 10.9172 44.797 10.5782 46.3921 12.1399C47.4678 13.106 47.4169 13.5283 46.2598 15.155C45.1026 16.7817 44.2376 20.6254 44.1056 21.9C43.9823 23.0905 43.4263 27.0041 45.9332 31.9391C46.0865 44.009 46.7966 47.2472 46.7301 48.4701C46.6557 49.8402 46.7497 50.097 45.3043 50.5095L45.2893 50.5138C43.8212 50.9328 38.3312 52.5 31.2044 52.5Z" fill="#E3E0D3"/>
</svg>
