<svg width="63" height="129" viewBox="0 0 63 129" fill="none" xmlns="http://www.w3.org/2000/svg">
<path d="M31.0016 52.5001C23.8504 52.5001 17.7491 50.9222 16.3037 50.5096C14.8583 50.097 14.3522 48.6403 14.2778 47.2702C14.2045 45.9203 15.0772 43.2796 15.1031 27.8851C17.1325 25.6054 17.5534 21.8936 17.4029 20.2344C17.2123 18.1327 16.5971 16.2001 15.9428 15.1551C15.2885 14.1101 15.5214 12.9663 16.5971 12.0001C16.9635 11.6711 18.0078 10.9788 19.2362 10.226C20.4646 9.47325 21.5635 9.11467 22.2339 9.69224C24.3926 8.82458 27.5142 8.46631 30.9643 8.46631C34.4281 8.46631 37.5982 8.82742 39.7578 9.70257C40.4305 9.11488 41.8085 9.73604 43.0348 10.3492C44.2318 10.9477 44.9988 11.6372 45.3756 11.9759L45.4026 12.0001C46.4783 12.9663 46.7112 14.1101 46.0569 15.1551C45.4026 16.2001 44.7874 18.1327 44.5968 20.2344C44.4462 21.8951 44.8679 25.612 46.9021 27.8913C46.9281 43.2803 47.8006 45.9205 47.7273 47.2702C47.6529 48.6403 47.1469 50.097 45.7015 50.5096C44.2561 50.9222 38.1528 52.5001 31.0016 52.5001Z" fill="#E3E0D3"/>
</svg>
