<svg width="63" height="84" viewBox="0 0 63 84" fill="none" xmlns="http://www.w3.org/2000/svg">
<path d="M31.4045 74.0997C24.2533 74.0997 18.1536 72.5218 16.7082 72.1093C15.2628 71.6967 14.3081 71.3997 14.0823 70.0699C13.874 68.8431 14.05 54.8581 16.14 32.9256C19.2572 27.5307 18.6343 23.1688 18.5029 21.9C18.3709 20.6254 17.5059 16.7817 16.3487 15.155C15.1916 13.5283 15.1423 13.106 16.218 12.1399C17.8077 10.5834 18.6874 10.915 19.4546 11.7578C23.1997 10.684 28.0573 10.3154 31.3671 10.3154C34.6858 10.3154 39.5995 10.6859 43.3486 11.7664C44.1176 10.9172 44.9979 10.5782 46.593 12.1399C47.6687 13.106 47.6178 13.5283 46.4607 15.155C45.3035 16.7817 44.4384 20.6254 44.3065 21.9C44.1751 23.1693 43.5517 27.5342 46.6731 32.9321C48.7625 54.8609 48.9385 68.8432 48.7302 70.0699C48.5044 71.3997 47.5497 71.6967 46.1043 72.1093C44.6589 72.5218 38.5557 74.0997 31.4045 74.0997Z" fill="#E3E0D3"/>
</svg>
