<svg width="63" height="129" viewBox="0 0 63 129" fill="none" xmlns="http://www.w3.org/2000/svg">
<path d="M31.4082 64.4998C24.257 64.4998 17.5538 62.9219 16.1084 62.5093C14.663 62.0968 14.1569 60.64 14.0825 59.2699C14.0101 57.9367 14.8605 43.9824 14.9064 28.4751C17.4555 26.3055 17.9725 22.046 17.8081 20.2341C17.6175 18.1324 17.0023 16.1999 16.348 15.1548C15.6937 14.1098 15.9266 12.966 17.0023 11.9999C17.762 11.3176 20.3096 9.69314 23.2073 8.66418C23.2169 8.34582 23.2902 5.96256 23.375 4.79961C23.466 3.55192 24.1063 2.69961 25.6063 2.69961C26.6903 2.69961 29.341 2.81711 31.4073 2.79737C32.2002 2.78979 32.9071 2.762 33.4063 2.69961C35.2063 2.47461 36.4063 2.69961 36.4063 2.69961C37.3063 2.69961 38.479 3.55192 38.57 4.79961C38.6415 5.78082 38.7049 7.63074 38.7287 8.37618C41.9758 9.36047 44.9726 11.2497 45.8078 11.9999C46.8835 12.966 47.1164 14.1098 46.4621 15.1548C45.8078 16.1999 45.1926 18.1324 45.002 20.2341C44.8376 22.0473 45.3554 26.3115 47.9091 28.4796C47.9551 43.9851 48.8054 57.9369 48.733 59.2699C48.6586 60.64 48.1525 62.0968 46.7071 62.5093C45.2617 62.9219 38.5594 64.4998 31.4082 64.4998Z" fill="#E3E0D3"/>
</svg>
