<svg width="64" height="84" viewBox="0 0 64 84" fill="none" xmlns="http://www.w3.org/2000/svg">
<path d="M31.799 52.5001C24.6742 52.5001 19.187 50.9338 17.7172 50.5142L17.7011 50.5096C16.2557 50.097 16.3497 49.8403 16.2752 48.4702C16.2088 47.2471 16.9191 44.008 17.0723 31.9329C19.5755 27.0009 19.0199 23.0901 18.8967 21.9001C18.7647 20.6255 17.8996 16.7818 16.7425 15.1551C15.5853 13.5284 16.3211 12.9662 17.3968 12.0001C17.7945 11.6429 18.8318 10.8719 19.5193 10.4665C20.2068 10.061 21.0286 9.56703 21.4161 9.42964C22.1127 9.18268 22.6006 9.32114 23.0313 9.69224C25.19 8.82458 28.3116 8.46631 31.7617 8.46631C35.2255 8.46631 38.3956 8.82742 40.5552 9.70257C40.9498 9.35788 41.3913 9.20816 41.9972 9.37168C42.4244 9.48696 43.2124 9.99047 44.0234 10.4488C44.8343 10.9072 45.7994 11.6402 46.2001 12.0001C47.2758 12.9662 48.0115 13.5284 46.8544 15.1551C45.6973 16.7818 44.8322 20.6255 44.7002 21.9001C44.577 23.0906 44.0209 27.0042 46.5278 31.9392C46.6812 44.0091 47.3912 47.2473 47.3248 48.4702C47.2503 49.8403 47.3443 50.097 45.8989 50.5096L45.8839 50.5139C44.4159 50.9329 38.9258 52.5001 31.799 52.5001Z" fill="#E3E0D3"/>
</svg>
