<svg width="63" height="129" viewBox="0 0 63 129" fill="none" xmlns="http://www.w3.org/2000/svg">
<path d="M31.2094 74.1066C24.0582 74.1066 17.9554 72.5216 16.5101 72.1091C15.0647 71.6965 13.51 70.1995 13.2842 68.8697C13.0606 67.5528 12.6915 52.7114 15.2341 27.9656C17.3268 25.6938 17.7596 21.9129 17.6073 20.2339C17.4167 18.1322 16.8015 16.1996 16.1472 15.1546C15.7961 14.5938 15.7005 14.0046 15.8535 13.4296C15.1628 12.8957 14.7063 12.1534 14.7063 11.0998C14.7063 7.79981 18.6062 5.3998 21.3063 4.4998C24.0063 3.5998 26.6174 3.2998 31.2063 3.2998C35.7951 3.2998 38.4063 3.59979 41.1063 4.49979C43.8063 5.39979 47.7063 7.79979 47.7063 11.0998C47.7063 12.155 47.2482 12.898 46.5558 13.4321C46.7078 14.0063 46.612 14.5946 46.2614 15.1546C45.6071 16.1996 44.9919 18.1322 44.8013 20.2339C44.6487 21.9157 45.0832 25.7065 47.1851 27.9771C49.7265 52.716 49.3574 67.553 49.1339 68.8697C48.9081 70.1995 47.3534 71.6965 45.908 72.1091C44.4626 72.5216 38.3606 74.1066 31.2094 74.1066Z" fill="#E3E0D3"/>
</svg>
