<svg width="63" height="84" viewBox="0 0 63 84" fill="none" xmlns="http://www.w3.org/2000/svg">
<path d="M31.0022 52.5001C23.8773 52.5001 18.3902 50.9338 16.9204 50.5142L16.9042 50.5096C15.4588 50.097 15.5528 49.8403 15.4784 48.4702C15.4119 47.2471 16.1222 44.008 16.2754 31.9329C18.7786 27.0009 18.223 23.0901 18.0998 21.9001C17.9678 20.6255 17.1027 16.7818 15.9456 15.1551C14.7885 13.5284 15.5242 12.9662 16.5999 12.0001C16.8705 11.7571 17.258 11.4524 17.9522 10.9949C18.6463 10.5374 19.2967 10.2278 19.7826 10.0971C20.2948 9.95921 20.7631 10.0096 21.199 10.184C23.3576 9.13818 27.2052 8.46631 30.9638 8.46631C34.7225 8.46631 38.6544 9.13818 40.8131 10.184C41.2633 10.0039 41.748 9.95604 42.28 10.1112C42.7518 10.2489 43.2864 10.5577 43.8309 10.8941C44.3755 11.2304 45.1482 11.7711 45.4032 12.0001C46.4789 12.9662 47.2147 13.5284 46.0575 15.1551C44.9004 16.7818 44.0353 20.6255 43.9033 21.9001C43.7801 23.0906 43.2241 27.0042 45.7309 31.9392C45.8843 44.0091 46.5943 47.2473 46.5279 48.4702C46.4535 49.8403 46.5474 50.097 45.102 50.5096L45.0871 50.5139C43.619 50.9329 38.1289 52.5001 31.0022 52.5001Z" fill="#E3E0D3"/>
</svg>
