<svg width="63" height="84" viewBox="0 0 63 84" fill="none" xmlns="http://www.w3.org/2000/svg">
<path d="M31.2014 74.0997C24.0502 74.0997 17.9504 72.5218 16.505 72.1093C15.0596 71.6967 14.105 71.3997 13.8792 70.0699C13.6709 68.8431 13.8469 54.8581 15.9369 32.9256C19.0541 27.5307 18.4311 23.1688 18.2998 21.9C18.1678 20.6254 17.3027 16.7817 16.1456 15.155C14.9885 13.5283 16.3032 12.6879 17.3789 11.7218C18.1381 11.1617 18.71 10.9871 19.2226 11.7661C22.9716 10.6859 27.8848 10.3154 31.2032 10.3154C34.525 10.3154 39.4058 10.6867 43.1564 11.7695C43.6696 10.9866 44.242 11.1609 45.0023 11.7218C46.078 12.6879 47.4147 13.5283 46.2575 15.155C45.1004 16.7817 44.2353 20.6254 44.1033 21.9C43.9719 23.1693 43.3486 27.5342 46.47 32.9321C48.5594 54.8609 48.7354 68.8432 48.5271 70.0699C48.3013 71.3997 47.3466 71.6967 45.9012 72.1093C44.4558 72.5218 38.3526 74.0997 31.2014 74.0997Z" fill="#E3E0D3"/>
</svg>
