<svg width="63" height="84" viewBox="0 0 63 84" fill="none" xmlns="http://www.w3.org/2000/svg">
<path d="M31.3999 64.4999C24.2487 64.4999 18.1474 62.922 16.702 62.5095C15.2566 62.0969 15.3505 61.8401 15.2761 60.4701C15.2019 59.1038 16.6935 43.2893 16.7019 27.3187C17.5041 27.079 18.5315 26.8301 19.7621 26.6489C20.5004 26.5402 21.2888 26.4603 22.109 26.4017C24.9104 26.2016 28.1936 26.2504 30.9991 26.2504C33.8045 26.2504 36.9757 26.2016 39.7771 26.4017C40.5973 26.4603 41.3858 26.5402 42.1241 26.6489C43.889 26.9088 45.2359 27.3079 46.1002 27.6194C46.1269 43.4873 47.5994 59.1124 47.5256 60.4701C47.4512 61.8401 47.5452 62.0969 46.0998 62.5095C44.6544 62.922 38.5511 64.4999 31.3999 64.4999Z" fill="#E3E0D3"/>
</svg>
