<svg width="63" height="129" viewBox="0 0 63 129" fill="none" xmlns="http://www.w3.org/2000/svg">
<path d="M31.4004 64.5001C24.2492 64.5001 17.5459 62.9222 16.1005 62.5096C14.6552 62.097 14.1491 60.6403 14.0747 59.2702C14.0023 57.937 14.8527 43.9827 14.8986 28.4754C17.4476 26.3058 17.9646 22.0463 17.8003 20.2344C17.6097 18.1327 16.9945 16.2001 16.3402 15.1551C15.6859 14.1101 15.9188 12.9663 16.9945 12.0001C17.2495 11.7711 17.8994 11.2369 19.012 10.5856C20.1246 9.93435 20.6966 9.85156 21.5305 10.1589C23.6891 9.11307 27.6396 8.46631 31.3982 8.46631C35.1569 8.46631 39.1134 9.11426 41.2721 10.1601C42.1067 9.85117 42.621 9.98327 43.5663 10.4989C44.5116 11.0145 45.5328 11.7601 45.8 12.0001C46.8757 12.9663 47.1086 14.1101 46.4543 15.1551C45.8 16.2001 45.1848 18.1327 44.9942 20.2344C44.8298 22.0475 45.3476 26.3118 47.9013 28.4799C47.9473 43.9854 48.7976 57.9372 48.7252 59.2702C48.6507 60.6403 48.1447 62.097 46.6993 62.5096C45.2539 62.9222 38.5516 64.5001 31.4004 64.5001Z" fill="#E3E0D3"/>
</svg>
