<svg width="63" height="129" viewBox="0 0 63 129" fill="none" xmlns="http://www.w3.org/2000/svg">
<path d="M31.0063 74.1068C23.8551 74.1068 17.7523 72.5219 16.3069 72.1094C14.8615 71.6968 13.3069 70.1998 13.0811 68.8699C12.8575 67.553 12.4883 52.7117 15.031 27.9659C17.1237 25.6941 17.5565 21.9132 17.4042 20.2342C17.2136 18.1325 16.5984 16.1999 15.9441 15.1549C15.2898 14.1099 15.5227 12.966 16.5984 11.9999C16.9749 11.6617 17.6429 11.1786 18.8182 10.3423C19.9935 9.50605 21.5649 9.11467 22.2352 9.69224C24.3939 8.82458 27.5155 8.46631 30.9656 8.46631C34.4294 8.46631 37.5995 8.82742 39.7591 9.70257C40.4318 9.11488 41.9255 9.70257 42.9661 10.276C44.0067 10.8495 45.0419 11.6747 45.4039 11.9999C46.4796 12.966 46.7125 14.1099 46.0582 15.1549C45.4039 16.1999 44.7887 18.1325 44.5981 20.2342C44.4456 21.916 44.8801 25.7068 46.982 27.9774C49.5233 52.7163 49.1543 67.5532 48.9307 68.8699C48.7049 70.1998 47.1503 71.6968 45.7049 72.1094C44.2595 72.5219 38.1574 74.1068 31.0063 74.1068Z" fill="#E3E0D3"/>
</svg>
