<svg width="63" height="84" viewBox="0 0 63 84" fill="none" xmlns="http://www.w3.org/2000/svg">
<path d="M30.9982 74.0997C23.8471 74.0997 17.7473 72.5218 16.3019 72.1092C14.8565 71.6967 13.9018 71.3997 13.676 70.0698C13.4505 68.7415 13.6755 52.4566 16.2927 27.3212C17.0961 27.0807 18.1263 26.8307 19.3612 26.6489C20.0995 26.5402 20.888 26.4603 21.7082 26.4017C24.5095 26.2016 27.7928 26.2504 30.5982 26.2504C33.4037 26.2504 36.5749 26.2016 39.3762 26.4017C40.1964 26.4603 40.9849 26.5402 41.7232 26.6489C43.4872 26.9086 44.874 27.3075 45.7383 27.6189C48.3263 52.5851 48.5486 68.7468 48.324 70.0698C48.0982 71.3997 47.1435 71.6967 45.6981 72.1092C44.2527 72.5218 38.1494 74.0997 30.9982 74.0997Z" fill="#E3E0D3"/>
</svg>
