<svg width="63" height="129" viewBox="0 0 63 129" fill="none" xmlns="http://www.w3.org/2000/svg">
<path d="M31.6032 52.4996C24.452 52.4996 18.3506 50.9217 16.9052 50.5091C15.4598 50.0966 14.9538 48.6398 14.8794 47.2697C14.8061 45.9199 15.6788 43.2791 15.7046 27.8846C17.7341 25.6049 18.1549 21.8931 18.0044 20.2339C17.8138 18.1322 17.1986 16.1997 16.5443 15.1546C15.89 14.1096 16.123 12.9658 17.1986 11.9997C17.4536 11.7706 18.263 11.1391 19.2961 10.5287C20.3291 9.91823 20.9008 9.85107 21.7347 10.1584C23.8933 9.11258 27.8437 8.46582 31.6023 8.46582C35.361 8.46582 39.3176 9.11377 41.4762 10.1596C42.3108 9.85068 43.0975 10.1596 43.9433 10.6322C44.789 11.1049 45.7491 11.7706 46.0041 11.9997C47.0798 12.9658 47.3127 14.1096 46.6584 15.1546C46.0042 16.1997 45.389 18.1322 45.1984 20.2339C45.0477 21.8946 45.4695 25.6116 47.5036 27.8908C47.5297 43.2798 48.4022 45.92 48.3289 47.2697C48.2545 48.6398 47.7484 50.0966 46.303 50.5091C44.8576 50.9217 38.7544 52.4996 31.6032 52.4996Z" fill="#E3E0D3"/>
</svg>
