<svg width="64" height="84" viewBox="0 0 64 84" fill="none" xmlns="http://www.w3.org/2000/svg">
<path d="M31.7951 74.0998C24.6439 74.0998 18.5442 72.5219 17.0988 72.1094C15.6534 71.6968 14.6987 71.3998 14.4729 70.07C14.2646 68.8432 14.4406 54.8589 16.5305 32.9273C19.6487 27.5316 19.0257 23.169 18.8943 21.9001C18.7623 20.6255 17.8973 16.7818 16.7401 15.1551C15.583 13.5284 16.3187 12.9662 17.3944 12.0001C17.6716 11.7511 18.3377 11.3499 18.7477 11.0641C19.1577 10.7784 19.9013 10.3426 20.312 10.184C20.9292 9.94564 21.4835 9.98002 21.9935 10.184C24.1521 9.13818 27.9997 8.46631 31.7584 8.46631C35.517 8.46631 39.449 9.13818 41.6076 10.184C42.1176 9.98002 42.6719 9.94564 43.2891 10.184C43.6999 10.3426 44.4318 10.785 44.8828 11.0527C45.3337 11.3204 45.9428 11.7711 46.1978 12.0001C47.2734 12.9662 48.0092 13.5284 46.8521 15.1551C45.6949 16.7818 44.8298 20.6255 44.6979 21.9001C44.5665 23.1693 43.9432 27.5334 47.0636 32.9306C49.1531 54.8603 49.3291 68.8432 49.1208 70.07C48.895 71.3998 47.9404 71.6968 46.495 72.1094C45.0496 72.5219 38.9463 74.0998 31.7951 74.0998Z" fill="#E3E0D3"/>
</svg>
