<svg width="64" height="84" viewBox="0 0 64 84" fill="none" xmlns="http://www.w3.org/2000/svg">
<path d="M31.805 45.3C24.6538 45.3 19.7505 43.7221 18.3051 43.3095C16.8597 42.897 16.9537 42.6402 16.8793 41.2701C16.8205 40.1876 16.9955 37.2619 17.0716 31.942C19.5802 27.0056 19.024 23.0907 18.9007 21.9C18.7687 20.6254 17.9036 16.7817 16.7465 15.155C15.5894 13.5283 16.9073 12.6879 17.983 11.7218C18.7422 11.1617 19.3109 10.9871 19.8235 11.7661C23.5725 10.6859 28.4857 10.3154 31.8041 10.3154C35.1259 10.3154 40.0068 10.6867 43.7573 11.7695C44.2705 10.9866 44.8429 11.1609 45.6032 11.7218C46.6789 12.6879 48.0156 13.5283 46.8584 15.155C45.7013 16.7817 44.8362 20.6254 44.7042 21.9C44.5809 23.0912 44.0243 27.009 46.5365 31.9483C46.6126 37.2642 46.7875 40.1881 46.7288 41.2701C46.6544 42.6402 46.7483 42.897 45.3029 43.3095C43.8575 43.7221 38.9562 45.3 31.805 45.3Z" fill="#E3E0D3"/>
</svg>
