<svg width="63" height="129" viewBox="0 0 63 129" fill="none" xmlns="http://www.w3.org/2000/svg">
<path d="M17.9092 71.9998C17.3082 71.6998 14.3094 68.6998 14.0094 67.4998C13.8569 66.8899 14.2912 65.382 14.7326 63.9121C14.5386 64.0348 14.2962 64.1262 14.0023 64.1997C12.8023 64.4997 6.50234 63.8997 5.60234 63.5997C4.70234 63.2997 3.80711 62.5121 4.10469 61.4997C4.40227 60.4873 4.40129 60.5994 4.70182 59.3996C5.00234 58.1997 2.90171 50.6997 2.30171 48.2997C1.70171 45.8997 5.30053 40.7997 5.60234 38.0997C5.90414 35.3997 6.20234 23.9997 7.70469 21.5997C9.20704 19.1997 11.3013 16.7997 14.3018 14.6997C14.8812 14.2942 15.4831 13.8887 16.1224 13.481C15.3938 12.9437 14.907 12.1877 14.907 11.0998C14.907 7.79981 18.807 5.3998 21.507 4.4998C24.207 3.5998 26.8182 3.2998 31.407 3.2998C35.9959 3.2998 38.607 3.59979 41.307 4.49979C44.007 5.39979 47.907 7.79979 47.907 11.0998C47.907 12.1886 47.4194 12.9449 46.6898 13.4823C47.3284 13.8896 47.9296 14.2946 48.5083 14.6997C51.5089 16.7997 53.6031 19.1997 55.1055 21.5997C56.6078 23.9997 56.906 35.3997 57.2078 38.0997C57.5096 40.7997 61.1084 45.8997 60.5084 48.2997C59.9085 50.6997 57.8078 58.1997 58.1083 59.3996C58.4089 60.5994 58.4079 60.4873 58.7055 61.4997C59.0031 62.5121 58.1078 63.2997 57.2078 63.5997C56.3078 63.8997 50.0078 64.4997 48.8078 64.1997C48.5179 64.1272 48.2782 64.0373 48.0855 63.9171C48.5265 65.3854 48.9595 66.8905 48.8072 67.4998C48.5072 68.6998 45.5084 71.6998 44.9074 71.9998C44.4955 72.2055 37.7441 71.8472 31.4102 71.0218C25.0762 71.8472 18.3211 72.2055 17.9092 71.9998Z" fill="#E3E0D3"/>
</svg>
