<svg width="64" height="129" viewBox="0 0 64 129" fill="none" xmlns="http://www.w3.org/2000/svg">
<path d="M14.393 64.1997C13.193 64.4997 6.89296 63.8997 5.99296 63.5997C5.09296 63.2997 4.19773 62.5121 4.49531 61.4997C4.79289 60.4873 4.79192 60.5994 5.09244 59.3996C5.39296 58.1997 3.29234 50.6997 2.69234 48.2997C2.09234 45.8997 5.69115 40.7997 5.99296 38.0997C6.29477 35.3997 6.59296 23.9997 8.09531 21.5997C9.59766 19.1997 11.6919 16.7997 14.6924 14.6997C16.9926 13.0899 19.6465 11.48 23.5969 9.73502C23.5969 9.73502 23.6747 6.0473 23.7656 4.79961C23.8566 3.55192 24.4969 2.69961 25.9969 2.69961C27.0808 2.69961 29.7312 2.81709 31.7974 2.79737C32.5905 2.7898 33.2976 2.76202 33.7969 2.69961C35.5969 2.47461 36.7969 2.69961 36.7969 2.69961C37.6969 2.69961 38.8696 3.55192 38.9606 4.79961C39.0516 6.0473 39.1294 9.35963 39.1294 9.35963C43.5647 11.2504 46.4348 12.9751 48.899 14.6997C51.8995 16.7997 53.9937 19.1997 55.4961 21.5997C56.9985 23.9997 57.2966 35.3997 57.5984 38.0997C57.9003 40.7997 61.4991 45.8997 60.8991 48.2997C60.2991 50.6997 58.1984 58.1997 58.499 59.3996C58.7995 60.5994 58.7985 60.4873 59.0961 61.4997C59.3937 62.5121 58.4985 63.2997 57.5984 63.5997C56.6984 63.8997 50.3985 64.4997 49.1984 64.1997C47.9984 63.8997 47.658 63.2997 47.9556 61.4997C48.2533 59.6997 48.5991 59.3996 48.899 58.1997C47.4703 55.8185 45.8988 52.7725 45.4346 50.4366C44.2781 50.5935 37.8193 50.4856 31.7987 49.8739C25.7716 50.4864 19.3047 50.5938 18.1569 50.4361C17.6929 52.7721 16.1212 55.8184 14.6924 58.1997C14.9923 59.3996 15.3382 59.6997 15.6358 61.4997C15.9335 63.2997 15.593 63.8997 14.393 64.1997Z" fill="#E3E0D3"/>
</svg>
