<svg width="63" height="129" viewBox="0 0 63 129" fill="none" xmlns="http://www.w3.org/2000/svg">
<path d="M13.5961 64.2C12.3961 64.5 6.09609 63.9 5.19609 63.6C4.29609 63.3 3.40086 62.5124 3.69844 61.5C3.99602 60.4876 3.99504 60.5997 4.29557 59.3999C4.59609 58.2 2.49546 50.7 1.89546 48.3C1.29546 45.9 4.89428 40.8 5.19609 38.1C5.49789 35.4 5.79609 24 7.29844 21.6C8.80079 19.2 10.895 16.8 13.8956 14.7C15.1673 13.8099 16.996 12.3903 17.9258 11.8539C18.8555 11.3175 19.4603 10.7496 20.4274 10.5866C22.586 9.54075 27.2036 8.46631 30.9623 8.46631C34.7209 8.46631 39.3271 9.55308 41.4857 10.5989C42.5121 10.6562 43.1546 11.2221 44.3106 12.0073C45.4667 12.7925 46.9428 13.8887 48.1021 14.7C51.1026 16.8 53.1969 19.2 54.6992 21.6C56.2016 24 56.4998 35.4 56.8016 38.1C57.1034 40.8 60.7022 45.9 60.1022 48.3C59.5022 50.7 57.4016 58.2 57.7021 59.3999C58.0026 60.5997 58.0016 60.4876 58.2992 61.5C58.5968 62.5124 57.7016 63.3 56.8016 63.6C55.9016 63.9 49.6016 64.5 48.4016 64.2C47.2016 63.9 46.8611 63.3 47.1587 61.5C47.4564 59.7 47.8022 59.3999 48.1021 58.2C46.6734 55.8188 45.1019 52.7728 44.6377 50.4369C43.4812 50.5938 37.0224 50.4858 31.0018 49.8741C24.9748 50.4866 18.5078 50.5941 17.3601 50.4364C16.896 52.7724 15.3243 55.8187 13.8956 58.2C14.1954 59.3999 14.5413 59.7 14.8389 61.5C15.1366 63.3 14.7961 63.9 13.5961 64.2Z" fill="#E3E0D3"/>
</svg>
