<svg width="64" height="129" viewBox="0 0 64 129" fill="none" xmlns="http://www.w3.org/2000/svg">
<path d="M18.2998 72.0001C17.6988 71.7001 14.7001 68.7001 14.4001 67.5001C14.2476 66.8901 14.6818 65.3823 15.1232 63.9124C14.9292 64.0351 14.6868 64.1265 14.393 64.2C13.193 64.5 6.89296 63.9 5.99296 63.6C5.09296 63.3 4.19773 62.5124 4.49531 61.5C4.79289 60.4876 4.79192 60.5997 5.09244 59.3999C5.39296 58.2 3.29234 50.7 2.69234 48.3C2.09234 45.9 5.69115 40.8 5.99296 38.1C6.29477 35.4 6.59296 24 8.09531 21.6C9.59766 19.2 11.6919 16.8 14.6924 14.7C15.9642 13.8099 17.6187 12.5807 18.5121 11.9732C19.4055 11.3657 20.1802 10.8493 21.2242 10.5866C23.3829 9.54075 28.0005 8.46631 31.7592 8.46631C35.5178 8.46631 40.124 9.55308 42.2826 10.5989C43.2125 10.6623 43.5466 10.9501 44.8946 11.8713C46.2425 12.7925 47.736 13.8861 48.899 14.7C51.8995 16.8 53.9937 19.2 55.4961 21.6C56.9985 24 57.2966 35.4 57.5984 38.1C57.9003 40.8 61.4991 45.9 60.8991 48.3C60.2991 50.7 58.1984 58.2 58.499 59.3999C58.7995 60.5997 58.7985 60.4876 59.0961 61.5C59.3937 62.5124 58.4985 63.3 57.5984 63.6C56.6984 63.9 50.3985 64.5 49.1984 64.2C48.9086 64.1275 48.6688 64.0376 48.4762 63.9174C48.9171 65.3857 49.3501 66.8908 49.1978 67.5001C48.8978 68.7001 45.899 71.7001 45.2981 72.0001C44.8861 72.2057 38.1347 71.8475 31.8008 71.022C25.4669 71.8475 18.7118 72.2057 18.2998 72.0001Z" fill="#E3E0D3"/>
</svg>
