<svg width="63" height="129" viewBox="0 0 63 129" fill="none" xmlns="http://www.w3.org/2000/svg">
<path d="M31.0019 61.3701C37.9744 62.2322 45.8823 62.6097 46.3028 62.3998C46.549 62.2769 46.8452 61.9525 47.1504 61.5505C46.8676 63.311 47.2129 63.9026 48.4016 64.1997C49.6016 64.4997 55.9016 63.8997 56.8016 63.5997C57.7016 63.2997 58.5968 62.5121 58.2992 61.4997C58.0016 60.4873 58.0026 60.5994 57.7021 59.3996C57.4016 58.1997 59.5022 50.6997 60.1022 48.2997C60.7022 45.8997 57.1034 40.7997 56.8016 38.0997C56.4998 35.3997 56.2016 23.9997 54.6992 21.5997C53.1969 19.1997 51.1026 16.7997 48.1021 14.6997C47.5316 14.3004 46.9059 13.8882 46.2775 13.4868C47.0105 12.9491 47.5008 12.1916 47.5008 11.0998C47.5008 7.79979 43.6008 5.39979 40.9008 4.49979C38.2008 3.59979 35.5896 3.2998 31.0008 3.2998C26.412 3.2998 23.8008 3.5998 21.1008 4.4998C18.4008 5.3998 14.5008 7.7998 14.5008 11.0998C14.5008 12.1877 14.9876 12.9437 15.7162 13.481C15.0768 13.8887 14.475 14.2942 13.8956 14.6997C10.895 16.7997 8.80079 19.1997 7.29844 21.5997C5.79609 23.9997 5.49789 35.3997 5.19609 38.0997C4.89428 40.7997 1.29546 45.8997 1.89546 48.2997C2.49546 50.6997 4.59609 58.1997 4.29557 59.3996C3.99504 60.5994 3.99602 60.4873 3.69844 61.4997C3.40086 62.5121 4.29609 63.2997 5.19609 63.5997C6.09609 63.8997 12.3961 64.4997 13.5961 64.1997C14.7871 63.902 15.1314 63.3087 14.8455 61.5402C15.1535 61.947 15.4527 62.2758 15.7011 62.3998C16.1215 62.6097 24.0294 62.2322 31.0019 61.3701Z" fill="#E3E0D3"/>
</svg>
