<svg width="63" height="129" viewBox="0 0 63 129" fill="none" xmlns="http://www.w3.org/2000/svg">
<path d="M13.7992 64.1997C12.5992 64.4997 6.29921 63.8997 5.39921 63.5997C4.49921 63.2997 3.60398 62.5121 3.90156 61.4997C4.19914 60.4873 4.19817 60.5994 4.49869 59.3996C4.79921 58.1997 2.69859 50.6997 2.09859 48.2997C1.49859 45.8997 5.0974 40.7997 5.39921 38.0997C5.70102 35.3997 5.99921 23.9997 7.50156 21.5997C9.00391 19.1997 11.0982 16.7997 14.0987 14.6997C14.6781 14.2942 15.2799 13.8887 15.9193 13.481C15.1907 12.9437 14.7039 12.1877 14.7039 11.0998C14.7039 7.7998 18.6039 5.3998 21.3039 4.4998C24.0039 3.5998 26.6151 3.2998 31.2039 3.2998C35.7927 3.2998 38.4039 3.59979 41.1039 4.49979C43.8039 5.39979 47.7039 7.79979 47.7039 11.0998C47.7039 12.1886 47.2163 12.9449 46.4867 13.4824C47.1253 13.8896 47.7264 14.2946 48.3052 14.6997C51.3057 16.7997 53.4 19.1997 54.9023 21.5997C56.4047 23.9997 56.7029 35.3997 57.0047 38.0997C57.3065 40.7997 60.9053 45.8997 60.3053 48.2997C59.7053 50.6997 57.6047 58.1997 57.9052 59.3996C58.2057 60.5994 58.2048 60.4873 58.5023 61.4997C58.7999 62.5121 57.9047 63.2997 57.0047 63.5997C56.1047 63.8997 49.8047 64.4997 48.6047 64.1997C47.4047 63.8997 47.0642 63.2997 47.3619 61.4997C47.6595 59.6997 48.0054 59.3996 48.3052 58.1997C46.8765 55.8185 45.305 52.7725 44.8408 50.4366C43.6843 50.5935 37.2255 50.4856 31.2049 49.8739C25.1779 50.4864 18.7109 50.5938 17.5632 50.4361C17.0991 52.7721 15.5275 55.8184 14.0987 58.1997C14.3985 59.3996 14.7444 59.6997 15.0421 61.4997C15.3397 63.2997 14.9992 63.8997 13.7992 64.1997Z" fill="#E3E0D3"/>
</svg>
