<svg width="63" height="129" viewBox="0 0 63 129" fill="none" xmlns="http://www.w3.org/2000/svg">
<path d="M17.5029 71.9998C16.902 71.6998 13.9032 68.6998 13.6032 67.4998C13.4507 66.8899 13.8849 65.382 14.3263 63.9121C14.1323 64.0348 13.89 64.1262 13.5961 64.1997C12.3961 64.4997 6.09609 63.8997 5.19609 63.5997C4.29609 63.2997 3.40086 62.5121 3.69844 61.4997C3.99602 60.4873 3.99504 60.5994 4.29557 59.3996C4.59609 58.1997 2.49546 50.6997 1.89546 48.2997C1.29546 45.8997 4.89428 40.7997 5.19609 38.0997C5.49789 35.3997 5.79609 23.9997 7.29844 21.5997C8.80079 19.1997 10.895 16.7997 13.8956 14.6997C16.1957 13.0899 18.8496 11.48 22.8 9.73502C22.8 9.73502 22.8778 6.0473 22.9688 4.79961C23.0597 3.55192 23.7 2.69961 25.2 2.69961C26.2842 2.69961 28.9357 2.81715 31.0021 2.79736C31.7946 2.78977 32.501 2.76198 33 2.69961C34.8 2.47461 36 2.69961 36 2.69961C36.9 2.69961 38.0728 3.55192 38.1637 4.79961C38.2547 6.0473 38.3325 9.35963 38.3325 9.35963C42.7678 11.2504 45.6379 12.9751 48.1021 14.6997C51.1026 16.7997 53.1969 19.1997 54.6992 21.5997C56.2016 23.9997 56.4998 35.3997 56.8016 38.0997C57.1034 40.7997 60.7022 45.8997 60.1022 48.2997C59.5022 50.6997 57.4016 58.1997 57.7021 59.3996C58.0026 60.5994 58.0016 60.4873 58.2992 61.4997C58.5968 62.5121 57.7016 63.2997 56.8016 63.5997C55.9016 63.8997 49.6016 64.4997 48.4016 64.1997C48.1117 64.1272 47.872 64.0373 47.6793 63.9171C48.1202 65.3854 48.5533 66.8905 48.4009 67.4998C48.1009 68.6998 45.1022 71.6998 44.5012 71.9998C44.0892 72.2055 37.3379 71.8472 31.0039 71.0218C24.67 71.8472 17.9149 72.2055 17.5029 71.9998Z" fill="#E3E0D3"/>
</svg>
