<svg width="63" height="129" viewBox="0 0 63 129" fill="none" xmlns="http://www.w3.org/2000/svg">
<path d="M31.205 61.3701C38.1776 62.2322 46.0854 62.6097 46.5059 62.3998C46.7521 62.2769 47.0484 61.9525 47.3536 61.5505C47.0707 63.311 47.416 63.9026 48.6047 64.1997C49.8047 64.4997 56.1047 63.8997 57.0047 63.5997C57.9047 63.2997 58.7999 62.5121 58.5023 61.4997C58.2048 60.4873 58.2057 60.5994 57.9052 59.3996C57.6047 58.1997 59.7053 50.6997 60.3053 48.2997C60.9053 45.8997 57.3065 40.7997 57.0047 38.0997C56.7029 35.3997 56.4047 23.9997 54.9023 21.5997C53.4 19.1997 51.3057 16.7997 48.3052 14.6997C45.841 12.9751 42.9709 11.2504 38.5356 9.35963C38.5356 9.35963 38.4578 6.0473 38.3669 4.79961C38.2759 3.55192 37.1031 2.69961 36.2031 2.69961C36.2031 2.69961 35.0031 2.47461 33.2031 2.69961C32.7041 2.76198 31.9976 2.78977 31.205 2.79736C29.1387 2.81714 26.4873 2.69961 25.4031 2.69961C23.9031 2.69961 23.2629 3.55192 23.1719 4.79961C23.0809 6.0473 23.0031 9.73502 23.0031 9.73502C19.0527 11.48 16.3989 13.0899 14.0987 14.6997C11.0982 16.7997 9.00391 19.1997 7.50156 21.5997C5.99921 23.9997 5.70102 35.3997 5.39921 38.0997C5.0974 40.7997 1.49859 45.8997 2.09859 48.2997C2.69859 50.6997 4.79921 58.1997 4.49869 59.3996C4.19817 60.5994 4.19914 60.4873 3.90156 61.4997C3.60398 62.5121 4.49921 63.2997 5.39921 63.5997C6.29921 63.8997 12.5992 64.4997 13.7992 64.1997C14.9902 63.902 15.3345 63.3087 15.0487 61.5402C15.3566 61.947 15.6559 62.2758 15.9042 62.3998C16.3246 62.6097 24.2325 62.2322 31.205 61.3701Z" fill="#E3E0D3"/>
</svg>
