<svg width="63" height="129" viewBox="0 0 63 129" fill="none" xmlns="http://www.w3.org/2000/svg">
<path d="M31.4082 61.3704C38.3807 62.2325 46.2886 62.61 46.709 62.4001C46.9552 62.2772 47.2515 61.9528 47.5567 61.5508C47.2739 63.3113 47.6192 63.9028 48.8078 64.2C50.0078 64.5 56.3078 63.9 57.2078 63.6C58.1078 63.3 59.0031 62.5124 58.7055 61.5C58.4079 60.4876 58.4089 60.5997 58.1083 59.3999C57.8078 58.2 59.9085 50.7 60.5084 48.3C61.1084 45.9 57.5096 40.8 57.2078 38.1C56.906 35.4 56.6078 24 55.1055 21.6C53.6031 19.2 51.5089 16.8 48.5083 14.7C47.4205 13.9387 46.3075 13.0913 45.0283 12.1883C43.7491 11.2853 43.0532 10.7265 41.8919 10.5989C39.7333 9.55308 35.1272 8.46631 31.3685 8.46631C27.6099 8.46631 22.9922 9.54075 20.8336 10.5866C19.8874 10.6483 18.943 11.2913 18.0262 11.9236C17.1093 12.5559 15.5736 13.8099 14.3018 14.7C11.3013 16.8 9.20704 19.2 7.70469 21.6C6.20234 24 5.90414 35.4 5.60234 38.1C5.30053 40.8 1.70171 45.9 2.30171 48.3C2.90171 50.7 5.00234 58.2 4.70182 59.3999C4.40129 60.5997 4.40227 60.4876 4.10469 61.5C3.80711 62.5124 4.70234 63.3 5.60234 63.6C6.50234 63.9 12.8023 64.5 14.0023 64.2C15.1933 63.9023 15.5376 63.309 15.2518 61.5405C15.5598 61.9473 15.859 62.2761 16.1073 62.4001C16.5278 62.61 24.4356 62.2325 31.4082 61.3704Z" fill="#E3E0D3"/>
</svg>
