<svg width="63" height="129" viewBox="0 0 63 129" fill="none" xmlns="http://www.w3.org/2000/svg">
<path d="M33.2275 61.32C36.0901 62.155 44.8037 62.5534 45.7037 62.4767C46.4482 62.4133 47.1926 61.9919 47.5508 61.1689C47.5189 61.4915 47.5008 61.8048 47.5008 62.1C47.5008 63.3 47.8008 63.9 49.0008 64.2C50.2008 64.5 55.9008 64.2 56.8008 63.9C57.7008 63.6 58.3008 63 58.3008 62.1C58.3008 61.2 58.1387 60.1871 57.7006 59.3999C58.0263 58.2056 58.3006 54.2999 58.0006 50.6999C57.7006 47.0999 57.3731 43.8041 56.8006 41.3999C55.3006 35.0999 55.9006 32.4 54.1006 25.5C53.1719 21.9397 50.5006 17.1 46.6006 13.5C45.7952 12.7566 45.0397 12.1702 44.1871 11.5609C43.3345 10.9516 42.0831 10.4832 41.3445 10.6226C39.1859 9.57679 34.7225 8.46631 30.9638 8.46631C27.2052 8.46631 22.6571 9.54941 20.4985 10.5952C19.8058 10.5015 18.596 10.9606 17.8825 11.475C17.169 11.9894 16.2145 12.7448 15.3963 13.5001C11.4963 17.1001 8.82502 21.9398 7.89626 25.5001C6.09626 32.4001 6.69626 35.1 5.19626 41.4C4.62381 43.8042 4.29626 47.0999 3.99626 50.6999C3.69626 54.2999 3.97055 58.2057 4.29626 59.4C3.85819 60.1872 3.99624 61.2001 3.99624 62.1001C3.99624 63.0001 4.29611 63.6001 5.19611 63.9001C6.09611 64.2001 11.7961 64.5001 12.9961 64.2001C14.1961 63.9001 14.4961 63.3001 14.4961 62.1001C14.4961 62.0443 14.4954 61.9879 14.4942 61.9309C14.9531 62.2492 15.5769 62.4177 16.3008 62.5096C17.3356 62.641 24.4842 62.5108 31.0031 61.6488C31.7565 61.5492 32.5014 61.4399 33.2275 61.32Z" fill="#E3E0D3"/>
</svg>
