<svg width="64" height="129" viewBox="0 0 64 129" fill="none" xmlns="http://www.w3.org/2000/svg">
<path d="M34.0244 61.32C36.887 62.155 45.6006 62.5534 46.5006 62.4767C47.0806 62.4274 47.6605 62.1606 48.0578 61.6561C48.0578 62.8561 48.5977 63.9 49.7977 64.2C50.9977 64.5 56.6977 64.2 57.5977 63.9C58.4977 63.6 59.0977 63 59.0977 62.1C59.0977 61.2 58.9356 60.1871 58.4975 59.3999C58.8232 58.2056 59.0975 54.2999 58.7975 50.6999C58.4975 47.0999 58.17 43.8041 57.5975 41.3999C56.0975 35.0999 56.6975 32.4 54.8975 25.5C53.9687 21.9397 51.2975 17.1 47.3975 13.5C46.6946 12.8512 46.0143 12.293 45.3132 11.7896L45.34 11.7429C45.6412 11.2144 45.7605 10.6046 45.1116 10.0678C44.4627 9.53099 43.8779 9.15506 42.845 8.70451C41.8353 8.26411 41.1809 8.85121 40.4058 9.64334C38.2524 8.8111 35.1465 8.46631 31.762 8.46631C28.3916 8.46631 25.3348 8.8082 23.1829 9.63286C22.4122 8.84604 21.7592 8.26604 20.754 8.7045C19.721 9.15505 19.1362 9.53098 18.4873 10.0678C17.8384 10.6046 17.9577 11.2144 18.2589 11.7429L18.2848 11.7879C17.5887 12.2887 16.8909 12.856 16.1931 13.5001C12.2931 17.1001 9.6219 21.9398 8.69313 25.5001C6.89313 32.4001 7.49313 35.1 5.99313 41.4C5.42068 43.8042 5.09313 47.1 4.79313 50.7C4.49313 54.3 4.76742 58.2057 5.09313 59.4C4.65506 60.1872 4.79312 61.2001 4.79312 62.1001C4.79312 63.0001 5.09298 63.6001 5.99298 63.9001C6.89298 64.2001 12.593 64.5001 13.793 64.2001C14.993 63.9001 15.293 63.1322 15.293 61.9322C15.7517 62.2497 16.3747 62.4178 17.0977 62.5096C18.1325 62.641 25.2811 62.5108 31.8 61.6489C32.5533 61.5492 33.2983 61.4399 34.0244 61.32Z" fill="#E3E0D3"/>
</svg>
