<svg width="64" height="129" viewBox="0 0 64 129" fill="none" xmlns="http://www.w3.org/2000/svg">
<path d="M14.4745 70.0702C14.2487 68.7403 14.8205 66.5395 15.3003 65.1001C15.2146 64.5053 15.1038 63.9901 14.9857 63.4983C14.76 63.8299 14.3866 64.0517 13.793 64.2001C12.593 64.5001 6.89298 64.2001 5.99298 63.9001C5.09298 63.6001 4.79312 63.0001 4.79312 62.1001C4.79312 61.2001 4.65506 60.1872 5.09313 59.4C4.76742 58.2057 4.49313 54.2999 4.79313 50.6999C5.09313 47.0999 5.42068 43.8042 5.99313 41.4C7.49313 35.1 6.89313 32.4001 8.69313 25.5001C9.6219 21.9398 12.2931 17.1001 16.1931 13.5001C17.0489 12.7102 18.4041 11.7 19.0142 11.2971C19.6243 10.8942 20.6026 10.5015 21.2954 10.5952C23.454 9.54941 28.0021 8.46631 31.7607 8.46631C35.5194 8.46631 39.9827 9.57679 42.1414 10.6226C42.88 10.4832 44.0008 10.8531 45.066 11.6178C46.1312 12.3826 46.6195 12.7819 47.3975 13.5C51.2975 17.1 53.9687 21.9397 54.8975 25.5C56.6975 32.4 56.0975 35.0999 57.5975 41.3999C58.17 43.8041 58.4975 47.0999 58.7975 50.6999C59.0975 54.2999 58.8232 58.2056 58.4975 59.3999C58.9356 60.1871 59.0977 61.2 59.0977 62.1C59.0977 63 58.4977 63.6 57.5977 63.9C56.6977 64.2 50.9977 64.5 49.7977 64.2C49.2101 64.0531 48.8383 63.8343 48.6119 63.5084C48.4947 63.9971 48.3849 64.5093 48.2997 65.1001C48.7456 66.4375 49.1997 68.1001 49.1449 69.6001C49.0902 71.1001 47.9997 72.0001 46.4997 72.1096C44.9997 72.2192 35.7324 71.8754 31.7996 71.2493C25.2815 72.1108 18.135 72.241 17.1004 72.1096C15.6004 71.9192 14.7003 71.4001 14.4745 70.0702Z" fill="#E3E0D3"/>
</svg>
