<svg width="63" height="129" viewBox="0 0 63 129" fill="none" xmlns="http://www.w3.org/2000/svg">
<path d="M14.0761 70.0701C13.8503 68.7402 14.422 66.5394 14.9018 65.1C14.8161 64.5052 14.7053 63.99 14.5873 63.4982C14.3615 63.8298 13.9881 64.0516 13.3945 64.2C12.1945 64.5 6.49454 64.2 5.59454 63.9C4.69454 63.6 4.39468 63 4.39468 62.1C4.39468 61.2 4.25662 60.1871 4.6947 59.3999C4.36899 58.2056 4.09469 54.2999 4.39469 50.6999C4.69469 47.0999 5.02225 43.8041 5.59469 41.3999C7.09469 35.0999 6.4947 32.4 8.2947 25.5C8.99131 22.8296 10.6682 19.4395 13.1086 16.3925C13.9218 15.3771 15.3007 13.8019 16.1557 13.0464C17.0107 12.2908 18.1326 11.5676 18.9854 11.8965C22.7854 10.7155 27.914 10.3154 31.3625 10.3154C34.8172 10.3154 39.9974 10.717 43.7995 11.903C44.6566 11.5662 46.1215 12.705 46.9991 13.4999C47.8766 14.2948 48.3296 14.8012 48.9354 15.4954C51.7827 18.7586 53.7332 22.5642 54.4991 25.4999C56.2991 32.3999 55.6991 35.0998 57.1991 41.3998C57.7715 43.804 58.0991 47.0998 58.3991 50.6998C58.6991 54.2998 58.4248 58.2055 58.0991 59.3998C58.5371 60.187 58.6992 61.1999 58.6992 62.0999C58.6992 62.9999 58.0992 63.5999 57.1992 63.8999C56.2992 64.1999 50.5992 64.4999 49.3992 64.1999C48.8117 64.053 48.4399 63.8342 48.2134 63.5083C48.0963 63.997 47.9864 64.5092 47.9013 65.1C48.3471 66.4375 48.8013 68.1 48.7465 69.6C48.6917 71.1 47.6013 72 46.1013 72.1095C44.6013 72.2191 35.334 71.8753 31.4012 71.2492C24.8831 72.1107 17.7366 72.2409 16.7019 72.1095C15.2019 71.9191 14.3019 71.4 14.0761 70.0701Z" fill="#E3E0D3"/>
</svg>
