<svg width="64" height="129" viewBox="0 0 64 129" fill="none" xmlns="http://www.w3.org/2000/svg">
<path d="M31.7873 50.2725C36.763 50.9829 41.3732 50.8733 43.1139 50.5449C44.2754 50.3257 45.4269 49.8985 46.148 48.942C46.5697 52.4112 47.2974 55.5332 48.8975 58.2C48.5977 59.3999 48.2977 60.9 48.2977 62.1C48.2977 63.3 48.5977 63.9 49.7977 64.2C50.9977 64.5 56.6977 64.2 57.5977 63.9C58.4977 63.6 59.0977 63 59.0977 62.1C59.0977 61.2 58.9356 60.1871 58.4975 59.3999C58.8232 58.2056 59.0975 54.2999 58.7975 50.6999C58.4975 47.0999 58.17 43.8041 57.5975 41.3999C56.0975 35.0999 56.6975 32.4 54.8975 25.5C53.9687 21.9397 51.2975 17.1 47.3975 13.5C46.6313 12.7927 45.8604 12.2502 44.9751 11.6869C44.0899 11.1236 42.88 10.4832 42.1414 10.6226C39.9827 9.57679 35.5194 8.46631 31.7607 8.46631C28.0021 8.46631 23.454 9.54941 21.2954 10.5952C20.6026 10.5015 19.4253 11.0294 18.6795 11.5109C17.9336 11.9924 17.0229 12.7342 16.1931 13.5001C12.2931 17.1001 9.6219 21.9398 8.69313 25.5001C6.89313 32.4001 7.49313 35.1 5.99313 41.4C5.42068 43.8042 5.09313 47.0999 4.79313 50.6999C4.49313 54.2999 4.76742 58.2057 5.09313 59.4C4.65506 60.1872 4.79312 61.2001 4.79312 62.1001C4.79312 63.0001 5.09298 63.6001 5.99298 63.9001C6.89298 64.2001 12.593 64.5001 13.793 64.2001C14.993 63.9001 15.293 63.3001 15.293 62.1001C15.293 60.9001 14.993 59.4 14.6931 58.2001C16.2949 55.5305 17.0224 52.4049 17.444 48.9314C18.1645 49.8953 19.3202 50.3249 20.4861 50.5449C22.2267 50.8733 26.8115 50.9829 31.7873 50.2725Z" fill="#E3E0D3"/>
</svg>
