<svg width="63" height="129" viewBox="0 0 63 129" fill="none" xmlns="http://www.w3.org/2000/svg">
<path d="M33.626 61.3197C36.4886 62.1548 45.2022 62.5531 46.1022 62.4764C46.8466 62.4131 47.591 61.9916 47.9492 61.1687C47.9174 61.4912 47.8992 61.8045 47.8992 62.0997C47.8992 63.2997 48.1992 63.8997 49.3992 64.1997C50.5992 64.4997 56.2992 64.1997 57.1992 63.8997C58.0992 63.5997 58.6992 62.9997 58.6992 62.0997C58.6992 61.1997 58.5371 60.1868 58.0991 59.3996C58.4248 58.2053 58.6991 54.2996 58.3991 50.6996C58.0991 47.0996 57.7715 43.8038 57.1991 41.3996C55.6991 35.0996 56.2991 32.3997 54.4991 25.4997C53.5703 21.9394 50.8991 17.0997 46.9991 13.4997C44.2068 10.9223 41.4146 9.57505 38.7325 8.79747C38.7325 8.79747 38.6547 6.0473 38.5637 4.79961C38.4728 3.55192 37.3 2.69961 36.4 2.69961C36.4 2.69961 35.2 2.47461 33.4 2.69961C32.9009 2.76199 32.1943 2.78978 31.4016 2.79736C29.3352 2.81713 26.6841 2.69961 25.6 2.69961C24.1 2.69961 23.4597 3.55192 23.3688 4.79961C23.2778 6.0473 23.2 9.06642 23.2 9.06642C20.7839 9.87632 18.2893 11.1971 15.7947 13.4998C11.8947 17.0998 9.22346 21.9395 8.2947 25.4998C6.4947 32.3998 7.09469 35.0997 5.59469 41.3997C5.02225 43.8039 4.69469 47.0997 4.39469 50.6997C4.09469 54.2997 4.36899 58.2054 4.6947 59.3997C4.25662 60.1869 4.39468 61.1998 4.39468 62.0998C4.39468 62.9998 4.69454 63.5998 5.59454 63.8998C6.49454 64.1998 12.1945 64.4998 13.3945 64.1998C14.5945 63.8998 14.8945 63.2998 14.8945 62.0998C14.8945 62.044 14.8939 61.9876 14.8926 61.9306C15.3516 62.249 15.9753 62.4174 16.6992 62.5093C17.734 62.6407 24.8826 62.5105 31.4016 61.6486C32.1549 61.549 32.8998 61.4396 33.626 61.3197Z" fill="#E3E0D3"/>
</svg>
