<svg width="63" height="129" viewBox="0 0 63 129" fill="none" xmlns="http://www.w3.org/2000/svg">
<path d="M33.4306 61.3199C36.2933 62.1549 45.0068 62.5533 45.9068 62.4766C46.6513 62.4132 47.3957 61.9918 47.7539 61.1689C47.7221 61.4914 47.7039 61.8047 47.7039 62.0999C47.7039 63.2999 48.0039 63.8999 49.2039 64.1999C50.4039 64.4999 56.1039 64.1999 57.0039 63.8999C57.9039 63.5999 58.5039 62.9999 58.5039 62.0999C58.5039 61.1999 58.3418 60.187 57.9038 59.3998C58.2295 58.2055 58.5038 54.2998 58.2038 50.6998C57.9038 47.0998 57.5762 43.804 57.0038 41.3998C55.5038 35.0998 56.1038 32.3999 54.3038 25.4999C53.6173 22.8686 51.9791 19.5383 49.5964 16.5262C48.7552 15.4629 47.697 14.3487 46.6983 13.5027C45.6995 12.6567 44.4613 11.5662 43.6042 11.903C39.8021 10.717 34.6219 10.3154 31.1671 10.3154C27.7187 10.3154 22.5901 10.7155 18.7901 11.8965C17.9372 11.5676 16.8975 12.2857 16.0609 13.0464C15.2242 13.8071 13.8027 15.2945 13.017 16.2638C10.5204 19.3437 8.80583 22.792 8.09938 25.5C6.29938 32.4 6.89938 35.0999 5.39938 41.3999C4.82693 43.8041 4.49938 47.0999 4.19938 50.6999C3.89938 54.2999 4.17367 58.2056 4.49938 59.3999C4.06131 60.1871 4.19937 61.2 4.19937 62.1C4.19937 63 4.49923 63.6 5.39923 63.9C6.29923 64.2 11.9992 64.5 13.1992 64.2C14.3992 63.9 14.6992 63.3 14.6992 62.1C14.6992 62.0273 14.7014 62.0069 14.6992 61.9321C15.158 62.2496 15.781 62.4177 16.5039 62.5095C17.5387 62.6409 24.6873 62.5107 31.2062 61.6488C31.9596 61.5491 32.7045 61.4398 33.4306 61.3199Z" fill="#E3E0D3"/>
</svg>
