<svg width="63" height="129" viewBox="0 0 63 129" fill="none" xmlns="http://www.w3.org/2000/svg">
<path d="M31.0031 43.1307C35.5644 43.8131 39.5067 43.6995 41.501 43.5001C43.2416 43.326 44.1983 42.5461 44.7395 41.4532C45.1874 47.9761 45.4175 53.728 48.1006 58.2C47.8008 59.3999 47.5008 60.9 47.5008 62.1C47.5008 63.3 47.8008 63.9 49.0008 64.2C50.2008 64.5 55.9008 64.2 56.8008 63.9C57.7008 63.6 58.3008 63 58.3008 62.1C58.3008 61.2 58.1387 60.1871 57.7006 59.3999C58.0263 58.2056 58.3006 54.2999 58.0006 50.6999C57.7006 47.0999 57.3731 43.8041 56.8006 41.3999C55.3006 35.0999 55.9006 32.4 54.1006 25.5C53.1719 21.9397 50.5006 17.1 46.6006 13.5C45.7999 12.7609 45.0598 12.1341 44.2011 11.5705C43.3423 11.007 42.0831 10.4832 41.3445 10.6226C39.1859 9.57679 34.7225 8.46631 30.9638 8.46631C27.2052 8.46631 22.6571 9.54941 20.4985 10.5952C19.8058 10.5015 18.9191 10.9337 18.2019 11.3866C17.4848 11.8396 16.2001 12.7581 15.3963 13.5001C11.4963 17.1001 8.82502 21.9398 7.89626 25.5001C6.09626 32.4001 6.69626 35.1 5.19626 41.4C4.62381 43.8042 4.29626 47.0999 3.99626 50.6999C3.69626 54.2999 3.97055 58.2057 4.29626 59.4C3.85819 60.1872 3.99624 61.2001 3.99624 62.1001C3.99624 63.0001 4.29611 63.6001 5.19611 63.9001C6.09611 64.2001 11.7961 64.5001 12.9961 64.2001C14.1961 63.9001 14.4961 63.3001 14.4961 62.1001C14.4961 60.9001 14.1961 59.4 13.8963 58.2001C16.5817 53.7242 16.8099 47.9664 17.2586 41.4365C17.7982 42.5381 18.7558 43.3252 20.5052 43.5001C22.4952 43.6991 26.4546 43.8081 31.0031 43.1307Z" fill="#E3E0D3"/>
</svg>
