<svg width="63" height="129" viewBox="0 0 63 129" fill="none" xmlns="http://www.w3.org/2000/svg">
<path d="M30.9904 50.2725C35.9662 50.9829 40.5763 50.8733 42.317 50.5449C43.4785 50.3257 44.63 49.8985 45.3511 48.942C45.7729 52.4112 46.5006 55.5332 48.1006 58.2C47.8008 59.3999 47.5008 60.9 47.5008 62.1C47.5008 63.3 47.8008 63.9 49.0008 64.2C50.2008 64.5 55.9008 64.2 56.8008 63.9C57.7008 63.6 58.3008 63 58.3008 62.1C58.3008 61.2 58.1387 60.1871 57.7006 59.3999C58.0263 58.2056 58.3006 54.2999 58.0006 50.6999C57.7006 47.0999 57.3731 43.8041 56.8006 41.3999C55.3006 35.0999 55.9006 32.4 54.1006 25.5C53.1719 21.9397 50.5006 17.1 46.6006 13.5C45.9048 12.8577 45.209 12.2918 44.5149 11.7921L44.5432 11.7429C44.8443 11.2144 44.9637 10.6046 44.3147 10.0678C43.6658 9.53099 43.081 9.15506 42.0481 8.70451C41.0384 8.26411 40.384 8.85121 39.6089 9.64334C37.4556 8.8111 34.3872 8.46631 31.0026 8.46631C27.6323 8.46631 24.538 8.8082 22.386 9.63286C21.6154 8.84604 20.9623 8.26604 19.9571 8.7045C18.9241 9.15505 18.3394 9.53098 17.6904 10.0678C17.0415 10.6046 17.1609 11.2144 17.462 11.7429L17.4879 11.7879C16.7918 12.2887 16.0941 12.856 15.3963 13.5001C11.4963 17.1001 8.82502 21.9398 7.89626 25.5001C6.09626 32.4001 6.69626 35.1 5.19626 41.4C4.62381 43.8042 4.29626 47.0999 3.99626 50.6999C3.69626 54.2999 3.97055 58.2057 4.29626 59.4C3.85819 60.1872 3.99624 61.2001 3.99624 62.1001C3.99624 63.0001 4.29611 63.6001 5.19611 63.9001C6.09611 64.2001 11.7961 64.5001 12.9961 64.2001C14.1961 63.9001 14.4961 63.3001 14.4961 62.1001C14.4961 60.9001 14.1961 59.4 13.8963 58.2001C15.498 55.5305 16.2255 52.4049 16.6471 48.9314C17.3677 49.8953 18.5234 50.3249 19.6892 50.5449C21.4299 50.8733 26.0147 50.9829 30.9904 50.2725Z" fill="#E3E0D3"/>
</svg>
