<svg width="63" height="129" viewBox="0 0 63 129" fill="none" xmlns="http://www.w3.org/2000/svg">
<path d="M31.1935 50.2722C36.1693 50.9826 40.7794 50.873 42.5201 50.5446C43.6817 50.3255 44.8331 49.8982 45.5542 48.9418C45.976 52.4109 46.7037 55.5329 48.3038 58.1997C48.0039 59.3996 47.7039 60.8997 47.7039 62.0997C47.7039 63.2997 48.0039 63.8997 49.2039 64.1997C50.4039 64.4997 56.1039 64.1997 57.0039 63.8997C57.9039 63.5997 58.5039 62.9997 58.5039 62.0997C58.5039 61.1997 58.3418 60.1868 57.9038 59.3996C58.2295 58.2053 58.5038 54.2996 58.2038 50.6996C57.9038 47.0996 57.5762 43.8038 57.0038 41.3996C55.5038 35.0996 56.1038 32.3997 54.3038 25.4997C53.375 21.9394 50.7038 17.0997 46.8038 13.4997C44.0115 10.9223 41.2193 9.57505 38.5372 8.79747C38.5372 8.79747 38.4594 6.0473 38.3684 4.79961C38.2775 3.55192 37.1047 2.69961 36.2047 2.69961C36.2047 2.69961 35.0047 2.47461 33.2047 2.69961C32.7056 2.76199 31.9989 2.78978 31.2062 2.79736C29.1399 2.81713 26.4888 2.69961 25.4047 2.69961C23.9047 2.69961 23.2644 3.55192 23.1734 4.79961C23.0825 6.0473 23.0047 9.06642 23.0047 9.06642C20.5886 9.87632 18.094 11.1971 15.5994 13.4998C11.6994 17.0998 9.02815 21.9395 8.09938 25.4998C6.29938 32.3998 6.89938 35.0997 5.39938 41.3997C4.82693 43.8039 4.49938 47.0997 4.19938 50.6997C3.89938 54.2997 4.17367 58.2054 4.49938 59.3997C4.06131 60.1869 4.19937 61.1998 4.19937 62.0998C4.19937 62.9998 4.49923 63.5998 5.39923 63.8998C6.29923 64.1998 11.9992 64.4998 13.1992 64.1998C14.3992 63.8998 14.6992 63.2998 14.6992 62.0998C14.6992 60.8998 14.3992 59.3997 14.0994 58.1998C15.7011 55.5302 16.4286 52.4046 16.8502 48.9311C17.5708 49.895 18.7265 50.3246 19.8923 50.5446C21.633 50.873 26.2178 50.9826 31.1935 50.2722Z" fill="#E3E0D3"/>
</svg>
