<svg width="63" height="129" viewBox="0 0 63 129" fill="none" xmlns="http://www.w3.org/2000/svg">
<path d="M14.0761 70.0699C13.8503 68.74 14.422 66.5392 14.9018 65.0998C14.8161 64.505 14.7053 63.9898 14.5873 63.4981C14.3615 63.8296 13.9881 64.0514 13.3945 64.1998C12.1945 64.4998 6.49454 64.1998 5.59454 63.8998C4.69454 63.5998 4.39468 62.9998 4.39468 62.0998C4.39468 61.1998 4.25662 60.1869 4.6947 59.3997C4.36899 58.2054 4.09469 54.2997 4.39469 50.6997C4.69469 47.0997 5.02225 43.8039 5.59469 41.3997C7.09469 35.0997 6.4947 32.3998 8.2947 25.4998C9.22346 21.9395 11.8947 17.0998 15.7947 13.4998C15.8477 13.4508 15.9008 13.4023 15.9538 13.3542C15.3162 12.8264 14.9008 12.1047 14.9008 11.0998C14.9008 7.7998 18.8008 5.3998 21.5008 4.4998C24.2008 3.5998 26.812 3.2998 31.4008 3.2998C35.9896 3.2998 38.6008 3.59979 41.3008 4.49979C44.0008 5.39979 47.9008 7.79979 47.9008 11.0998C47.9008 12.1068 47.4837 12.8295 46.8437 13.3576C46.8955 13.4045 46.9473 13.4519 46.9991 13.4997C50.8991 17.0997 53.5703 21.9394 54.4991 25.4997C56.2991 32.3997 55.6991 35.0996 57.1991 41.3996C57.7715 43.8038 58.0991 47.0996 58.3991 50.6996C58.6991 54.2996 58.4248 58.2053 58.0991 59.3996C58.5371 60.1868 58.6992 61.1997 58.6992 62.0997C58.6992 62.9997 58.0992 63.5997 57.1992 63.8997C56.2992 64.1997 50.5992 64.4997 49.3992 64.1997C48.7928 64.0481 48.4371 63.8537 48.2129 63.5101C48.096 63.9982 47.9863 64.5099 47.9013 65.0998C48.3471 66.4373 48.8013 68.0998 48.7465 69.5998C48.6917 71.0998 47.6013 71.9998 46.1013 72.1093C44.6013 72.2189 35.334 71.8751 31.4012 71.249C24.8831 72.1105 17.7366 72.2407 16.7019 72.1093C15.2019 71.9189 14.3019 71.3998 14.0761 70.0699Z" fill="#E3E0D3"/>
</svg>
