<svg width="63" height="129" viewBox="0 0 63 129" fill="none" xmlns="http://www.w3.org/2000/svg">
<path d="M31.2063 43.1305C35.7675 43.8128 39.7098 43.6992 41.7042 43.4998C43.4448 43.3258 44.4015 42.5458 44.9426 41.4529C45.3905 47.9758 45.6206 53.7277 48.3038 58.1997C48.0039 59.3996 47.7039 60.8997 47.7039 62.0997C47.7039 63.2997 48.0039 63.8997 49.2039 64.1997C50.4039 64.4997 56.1039 64.1997 57.0039 63.8997C57.9039 63.5997 58.5039 62.9997 58.5039 62.0997C58.5039 61.1997 58.3418 60.1868 57.9038 59.3996C58.2295 58.2053 58.5038 54.2996 58.2038 50.6996C57.9038 47.0996 57.5762 43.8038 57.0038 41.3996C55.5038 35.0996 56.1038 32.3997 54.3038 25.4997C53.375 21.9394 50.7038 17.0997 46.8038 13.4997C46.752 13.4519 46.7002 13.4045 46.6484 13.3576C47.2883 12.8295 47.7055 12.1068 47.7055 11.0998C47.7055 7.79979 43.8055 5.39979 41.1055 4.49979C38.4055 3.59979 35.7943 3.2998 31.2055 3.2998C26.6166 3.2998 24.0055 3.5998 21.3055 4.4998C18.6055 5.3998 14.7055 7.7998 14.7055 11.0998C14.7055 12.1047 15.1208 12.8264 15.7585 13.3542C15.7055 13.4023 15.6524 13.4508 15.5994 13.4998C11.6994 17.0998 9.02815 21.9395 8.09938 25.4998C6.29938 32.3998 6.89938 35.0997 5.39938 41.3997C4.82693 43.8039 4.49938 47.0997 4.19938 50.6997C3.89938 54.2997 4.17367 58.2054 4.49938 59.3997C4.06131 60.1869 4.19937 61.1998 4.19937 62.0998C4.19937 62.9998 4.49923 63.5998 5.39923 63.8998C6.29923 64.1998 11.9992 64.4998 13.1992 64.1998C14.3992 63.8998 14.6992 63.2998 14.6992 62.0998C14.6992 60.8998 14.3992 59.3997 14.0994 58.1998C16.7849 53.7239 17.013 47.9661 17.4617 41.4362C18.0013 42.5379 18.9589 43.3249 20.7083 43.4998C22.6983 43.6988 26.6577 43.8078 31.2063 43.1305Z" fill="#E3E0D3"/>
</svg>
