<svg width="63" height="129" viewBox="0 0 63 129" fill="none" xmlns="http://www.w3.org/2000/svg">
<path d="M33.4306 61.3197C36.2933 62.1548 45.0068 62.5531 45.9068 62.4764C46.6513 62.4131 47.3957 61.9916 47.7539 61.1687C47.7221 61.4912 47.7039 61.8045 47.7039 62.0997C47.7039 63.2997 48.0039 63.8997 49.2039 64.1997C50.4039 64.4997 56.1039 64.1997 57.0039 63.8997C57.9039 63.5997 58.5039 62.9997 58.5039 62.0997C58.5039 61.1997 58.3418 60.1868 57.9038 59.3996C58.2295 58.2053 58.5038 54.2996 58.2038 50.6996C57.9038 47.0996 57.5762 43.8038 57.0038 41.3996C55.5038 35.0996 56.1038 32.3997 54.3038 25.4997C53.375 21.9394 50.7038 17.0997 46.8038 13.4997C46.752 13.4519 46.7002 13.4045 46.6484 13.3576C47.2883 12.8295 47.7055 12.1068 47.7055 11.0998C47.7055 7.79979 43.8055 5.39979 41.1055 4.49979C38.4055 3.59979 35.7943 3.2998 31.2055 3.2998C26.6166 3.2998 24.0055 3.5998 21.3055 4.4998C18.6055 5.3998 14.7055 7.7998 14.7055 11.0998C14.7055 12.1047 15.1208 12.8264 15.7585 13.3542C15.7055 13.4023 15.6524 13.4508 15.5994 13.4998C11.6994 17.0998 9.02815 21.9395 8.09938 25.4998C6.29938 32.3998 6.89938 35.0997 5.39938 41.3997C4.82693 43.8039 4.49938 47.0997 4.19938 50.6997C3.89938 54.2997 4.17367 58.2054 4.49938 59.3997C4.06131 60.1869 4.19937 61.1998 4.19937 62.0998C4.19937 62.9998 4.49923 63.5998 5.39923 63.8998C6.29923 64.1998 11.9992 64.4998 13.1992 64.1998C14.3992 63.8998 14.6992 63.2998 14.6992 62.0998C14.6992 62.044 14.6986 61.9876 14.6973 61.9306C15.1562 62.249 15.78 62.4174 16.5039 62.5093C17.5387 62.6407 24.6873 62.5105 31.2062 61.6486C31.9596 61.549 32.7045 61.4396 33.4306 61.3197Z" fill="#E3E0D3"/>
</svg>
