<svg width="64" height="129" viewBox="0 0 64 129" fill="none" xmlns="http://www.w3.org/2000/svg">
<path d="M31.8 43.1307C36.3613 43.8131 40.3036 43.6995 42.2979 43.5001C44.0385 43.326 44.9952 42.5461 45.5364 41.4532C45.9843 47.9761 46.2143 53.728 48.8975 58.2C48.5977 59.3999 48.2977 60.9 48.2977 62.1C48.2977 63.3 48.5977 63.9 49.7977 64.2C50.9977 64.5 56.6977 64.2 57.5977 63.9C58.4977 63.6 59.0977 63 59.0977 62.1C59.0977 61.2 58.9356 60.1871 58.4975 59.3999C58.8232 58.2056 59.0975 54.2999 58.7975 50.6999C58.4975 47.0999 58.17 43.8041 57.5975 41.3999C56.0975 35.0999 56.6975 32.4 54.8975 25.5C53.9687 21.9397 51.2975 17.1 47.3975 13.5C46.3172 12.5028 45.3594 11.7688 44.163 11.0226C42.9665 10.2764 41.7824 9.64163 41.0055 9.89758C38.8437 8.88589 35.5013 8.46631 31.7992 8.46631C28.0965 8.46631 24.7358 8.87897 22.5729 9.89109C21.8014 9.64427 20.732 10.2526 19.8351 10.7419C18.9382 11.2311 17.3227 12.4575 16.1931 13.5001C12.2931 17.1001 9.6219 21.9398 8.69313 25.5001C6.89313 32.4001 7.49313 35.1 5.99313 41.4C5.42068 43.8042 5.09313 47.0999 4.79313 50.6999C4.49313 54.2999 4.76742 58.2057 5.09313 59.4C4.65506 60.1872 4.79312 61.2001 4.79312 62.1001C4.79312 63.0001 5.09298 63.6001 5.99298 63.9001C6.89298 64.2001 12.593 64.5001 13.793 64.2001C14.993 63.9001 15.293 63.3001 15.293 62.1001C15.293 60.9001 14.993 59.4 14.6931 58.2001C17.3786 53.7242 17.6067 47.9664 18.0554 41.4365C18.5951 42.5381 19.5527 43.3252 21.3021 43.5001C23.2921 43.6991 27.2515 43.8081 31.8 43.1307Z" fill="#E3E0D3"/>
</svg>
