<svg width="63" height="129" viewBox="0 0 63 129" fill="none" xmlns="http://www.w3.org/2000/svg">
<path d="M13.6776 70.0702C13.4518 68.7403 14.0236 66.5395 14.5034 65.1001C14.4177 64.5053 14.3069 63.9901 14.1889 63.4984C13.9631 63.8299 13.5897 64.0517 12.9961 64.2001C11.7961 64.5001 6.09611 64.2001 5.19611 63.9001C4.29611 63.6001 3.99624 63.0001 3.99624 62.1001C3.99624 61.2001 3.85819 60.1872 4.29626 59.4C3.97055 58.2057 3.69626 54.3 3.99626 50.7C4.29626 47.1 4.62381 43.8042 5.19626 41.4C6.69626 35.1 6.09626 32.4001 7.89626 25.5001C8.82502 21.9398 11.4963 17.1001 15.3963 13.5001C16.3379 12.6309 17.8105 11.5091 18.7738 10.9163C19.7371 10.3235 21.0045 9.64428 21.776 9.8911C23.9389 8.87898 27.3 8.46621 31.0028 8.46621C34.7048 8.46621 38.0468 8.88589 40.2086 9.89759C40.9856 9.64164 42.0925 10.2683 42.7031 10.5939C43.3136 10.9196 44.0823 11.4694 44.7422 11.9581C45.3609 12.4163 45.9808 12.9278 46.6006 13.5C50.5006 17.1 53.1719 21.9397 54.1006 25.5C55.9006 32.4 55.3006 35.0999 56.8006 41.3999C57.3731 43.8041 57.7006 47.0999 58.0006 50.6999C58.3006 54.2999 58.0263 58.2056 57.7006 59.3999C58.1387 60.1871 58.3008 61.2 58.3008 62.1C58.3008 63 57.7008 63.6 56.8008 63.9C55.9008 64.2 50.2008 64.5 49.0008 64.2C48.4132 64.0531 48.0415 63.8343 47.815 63.5084C47.6979 63.9971 47.588 64.5093 47.5028 65.1001C47.9487 66.4376 48.4028 68.1001 48.3481 69.6001C48.2933 71.1001 47.2028 72.0001 45.7028 72.1096C44.2028 72.2192 34.9355 71.8754 31.0028 71.2493C24.4846 72.1108 17.3381 72.241 16.3035 72.1096C14.8035 71.9192 13.9034 71.4001 13.6776 70.0702Z" fill="#E3E0D3"/>
</svg>
