<svg width="63" height="129" viewBox="0 0 63 129" fill="none" xmlns="http://www.w3.org/2000/svg">
<path d="M31.2063 43.1306C35.7675 43.813 39.7098 43.6994 41.7042 43.5C43.4448 43.3259 44.4015 42.546 44.9426 41.4531C45.3905 47.976 45.6206 53.7279 48.3038 58.1999C48.0039 59.3998 47.7039 60.8999 47.7039 62.0999C47.7039 63.2999 48.0039 63.8999 49.2039 64.1999C50.4039 64.4999 56.1039 64.1999 57.0039 63.8999C57.9039 63.5999 58.5039 62.9999 58.5039 62.0999C58.5039 61.1999 58.3418 60.187 57.9038 59.3998C58.2295 58.2055 58.5038 54.2998 58.2038 50.6998C57.9038 47.0998 57.5762 43.804 57.0038 41.3998C55.5038 35.0998 56.1038 32.3999 54.3038 25.4999C53.5827 22.7359 51.8115 19.2008 49.2305 16.0733L49.1975 16.0333C48.4673 15.1485 47.8148 14.3578 46.8038 13.4999C45.7775 12.6291 44.4613 11.5662 43.6042 11.903C39.8021 10.717 34.6219 10.3154 31.1671 10.3154C27.7187 10.3154 22.5901 10.7155 18.7901 11.8965C17.9372 11.5676 16.5261 12.6561 15.5994 13.5C14.6727 14.3439 13.9972 15.0862 13.2842 15.9391C10.6427 19.0994 8.83076 22.6964 8.09938 25.5C6.29938 32.4 6.89938 35.0999 5.39938 41.3999C4.82693 43.8041 4.49938 47.0999 4.19938 50.6999C3.89938 54.2999 4.17367 58.2056 4.49938 59.3999C4.06131 60.1871 4.19937 61.2 4.19937 62.1C4.19937 63 4.49923 63.6 5.39923 63.9C6.29923 64.2 11.9992 64.5 13.1992 64.2C14.3992 63.9 14.6992 63.3 14.6992 62.1C14.6992 60.9 14.3992 59.3999 14.0994 58.2C16.7849 53.7241 17.013 47.9663 17.4617 41.4364C18.0013 42.5381 18.9589 43.3251 20.7083 43.5C22.6983 43.699 26.6577 43.808 31.2063 43.1306Z" fill="#E3E0D3"/>
</svg>
