<svg width="63" height="129" viewBox="0 0 63 129" fill="none" xmlns="http://www.w3.org/2000/svg">
<path d="M31.3889 50.2722C36.3646 50.9826 40.9748 50.873 42.7154 50.5446C43.877 50.3255 45.0285 49.8982 45.7495 48.9418C46.1713 52.4109 46.899 55.5329 48.4991 58.1997C48.1992 59.3996 47.8992 60.8997 47.8992 62.0997C47.8992 63.2997 48.1992 63.8997 49.3992 64.1997C50.5992 64.4997 56.2992 64.1997 57.1992 63.8997C58.0992 63.5997 58.6992 62.9997 58.6992 62.0997C58.6992 61.1997 58.5371 60.1868 58.0991 59.3996C58.4248 58.2053 58.6991 54.2996 58.3991 50.6996C58.0991 47.0996 57.7715 43.8038 57.1991 41.3996C55.6991 35.0996 56.2991 32.3997 54.4991 25.4997C53.5703 21.9394 50.8991 17.0997 46.9991 13.4997C46.9473 13.4519 46.8955 13.4045 46.8437 13.3576C47.4837 12.8295 47.9008 12.1068 47.9008 11.0998C47.9008 7.79979 44.0008 5.39979 41.3008 4.49979C38.6008 3.59979 35.9896 3.2998 31.4008 3.2998C26.812 3.2998 24.2008 3.5998 21.5008 4.4998C18.8008 5.3998 14.9008 7.7998 14.9008 11.0998C14.9008 12.1047 15.3162 12.8264 15.9538 13.3542C15.9008 13.4023 15.8477 13.4508 15.7947 13.4998C11.8947 17.0998 9.22346 21.9395 8.2947 25.4998C6.4947 32.3998 7.09469 35.0997 5.59469 41.3997C5.02225 43.8039 4.69469 47.0997 4.39469 50.6997C4.09469 54.2997 4.36899 58.2054 4.6947 59.3997C4.25662 60.1869 4.39468 61.1998 4.39468 62.0998C4.39468 62.9998 4.69454 63.5998 5.59454 63.8998C6.49454 64.1998 12.1945 64.4998 13.3945 64.1998C14.5945 63.8998 14.8945 63.2998 14.8945 62.0998C14.8945 60.8998 14.5945 59.3997 14.2947 58.1998C15.8964 55.5302 16.624 52.4046 17.0455 48.9311C17.7661 49.895 18.9218 50.3246 20.0876 50.5446C21.8283 50.873 26.4131 50.9826 31.3889 50.2722Z" fill="#E3E0D3"/>
</svg>
