<svg width="64" height="129" viewBox="0 0 64 129" fill="none" xmlns="http://www.w3.org/2000/svg">
<path d="M31.8 43.1307C36.3613 43.8131 40.3036 43.6995 42.2979 43.5001C44.0385 43.326 44.9952 42.5461 45.5364 41.4532C45.9843 47.9761 46.2143 53.728 48.8975 58.2C48.5977 59.3999 48.2977 60.9 48.2977 62.1C48.2977 63.3 48.5977 63.9 49.7977 64.2C50.9977 64.5 56.6977 64.2 57.5977 63.9C58.4977 63.6 59.0977 63 59.0977 62.1C59.0977 61.2 58.9356 60.1871 58.4975 59.3999C58.8232 58.2056 59.0975 54.2999 58.7975 50.6999C58.4975 47.0999 58.17 43.8041 57.5975 41.3999C56.0975 35.0999 56.6975 32.4 54.8975 25.5C53.9687 21.9397 51.2975 17.1 47.3975 13.5C46.7017 12.8577 46.0059 12.2918 45.3117 11.7921L45.34 11.7429C45.6412 11.2144 45.7605 10.6046 45.1116 10.0678C44.4627 9.53099 43.8779 9.15506 42.845 8.70451C41.8353 8.26411 41.1809 8.85121 40.4058 9.64334C38.2524 8.8111 35.184 8.46631 31.7995 8.46631C28.4291 8.46631 25.3348 8.8082 23.1829 9.63286C22.4122 8.84604 21.7592 8.26604 20.754 8.7045C19.721 9.15505 19.1362 9.53098 18.4873 10.0678C17.8384 10.6046 17.9577 11.2144 18.2589 11.7429L18.2848 11.7879C17.5887 12.2887 16.8909 12.856 16.1931 13.5001C12.2931 17.1001 9.6219 21.9398 8.69313 25.5001C6.89313 32.4001 7.49313 35.1 5.99313 41.4C5.42068 43.8042 5.09313 47.0999 4.79313 50.6999C4.49313 54.2999 4.76742 58.2057 5.09313 59.4C4.65506 60.1872 4.79312 61.2001 4.79312 62.1001C4.79312 63.0001 5.09298 63.6001 5.99298 63.9001C6.89298 64.2001 12.593 64.5001 13.793 64.2001C14.993 63.9001 15.293 63.3001 15.293 62.1001C15.293 60.9001 14.993 59.4 14.6931 58.2001C17.3786 53.7242 17.6067 47.9664 18.0554 41.4365C18.5951 42.5382 19.5527 43.3252 21.3021 43.5001C23.2921 43.6991 27.2515 43.8081 31.8 43.1307Z" fill="#E3E0D3"/>
</svg>
