<svg width="63" height="129" viewBox="0 0 63 129" fill="none" xmlns="http://www.w3.org/2000/svg">
<path d="M31.3889 50.2724C36.3646 50.9828 40.9748 50.8732 42.7154 50.5448C43.877 50.3256 45.0285 49.8984 45.7495 48.942C46.1713 52.4111 46.899 55.5331 48.4991 58.1999C48.1992 59.3998 47.8992 60.8999 47.8992 62.0999C47.8992 63.2999 48.1992 63.8999 49.3992 64.1999C50.5992 64.4999 56.2992 64.1999 57.1992 63.8999C58.0992 63.5999 58.6992 62.9999 58.6992 62.0999C58.6992 61.1999 58.5371 60.187 58.0991 59.3998C58.4248 58.2055 58.6991 54.2998 58.3991 50.6998C58.0991 47.0998 57.7715 43.804 57.1991 41.3998C55.6991 35.0998 56.2991 32.3999 54.4991 25.4999C53.8043 22.8365 52.1343 19.4571 49.7043 16.4163C48.886 15.3923 47.9975 14.3946 46.9724 13.4356C45.9473 12.4767 44.6566 11.5662 43.7995 11.903C39.9974 10.717 34.8172 10.3154 31.3625 10.3154C27.914 10.3154 22.7854 10.7155 18.9854 11.8965C18.1326 11.5676 16.9334 12.5752 16.1391 13.2518C15.3449 13.9284 14.1296 15.1532 13.3927 16.0435C10.7983 19.1784 9.01803 22.7272 8.2947 25.5C6.4947 32.4 7.09469 35.0999 5.59469 41.3999C5.02225 43.8041 4.69469 47.0999 4.39469 50.6999C4.09469 54.2999 4.36899 58.2056 4.6947 59.3999C4.25662 60.1871 4.39468 61.2 4.39468 62.1C4.39468 63 4.69454 63.6 5.59454 63.9C6.49454 64.2 12.1945 64.5 13.3945 64.2C14.5945 63.9 14.8945 63.3 14.8945 62.1C14.8945 60.9 14.5945 59.3999 14.2947 58.2C15.8964 55.5304 16.624 52.4048 17.0455 48.9313C17.7661 49.8952 18.9218 50.3248 20.0876 50.5448C21.8283 50.8732 26.4131 50.9828 31.3889 50.2724Z" fill="#E3E0D3"/>
</svg>
