<svg width="64" height="129" viewBox="0 0 64 129" fill="none" xmlns="http://www.w3.org/2000/svg">
<path d="M34.0244 61.32C36.887 62.155 45.6006 62.5534 46.5006 62.4767C47.245 62.4133 47.9895 61.9919 48.3477 61.169C48.3158 61.4915 48.2977 61.8048 48.2977 62.1C48.2977 63.3 48.5977 63.9 49.7977 64.2C50.9977 64.5 56.6977 64.2 57.5977 63.9C58.4977 63.6 59.0977 63 59.0977 62.1C59.0977 61.2 58.9356 60.1871 58.4975 59.3999C58.8232 58.2056 59.0975 54.2999 58.7975 50.6999C58.4975 47.0999 58.17 43.8041 57.5975 41.3999C56.0975 35.0999 56.6975 32.4 54.8975 25.5C53.9687 21.9397 51.2975 17.1 47.3975 13.5C46.3302 12.5148 45.338 11.7364 44.2018 11.0468C43.0656 10.3572 41.7824 9.64163 41.0055 9.89758C38.8437 8.88589 35.5013 8.46631 31.7992 8.46631C28.0965 8.46631 24.7358 8.87897 22.5729 9.89109C21.8014 9.64427 20.1718 10.4976 19.1165 11.1795C18.0612 11.8613 17.4379 12.3511 16.1931 13.5001C12.2931 17.1001 9.6219 21.9398 8.69313 25.5001C6.89313 32.4001 7.49313 35.1 5.99313 41.4C5.42068 43.8042 5.09313 47.1 4.79313 50.7C4.49313 54.3 4.76742 58.2057 5.09313 59.4C4.65506 60.1872 4.79312 61.2001 4.79312 62.1001C4.79312 63.0001 5.09298 63.6001 5.99298 63.9001C6.89298 64.2001 12.593 64.5001 13.793 64.2001C14.993 63.9001 15.293 63.3001 15.293 62.1001C15.293 62.0443 15.2923 61.9879 15.2911 61.9309C15.75 62.2492 16.3737 62.4177 17.0977 62.5096C18.1325 62.641 25.2811 62.5108 31.8 61.6489C32.5533 61.5492 33.2983 61.4399 34.0244 61.32Z" fill="#E3E0D3"/>
</svg>
