<svg width="120" height="120" viewBox="0 0 120 120" fill="none" xmlns="http://www.w3.org/2000/svg">
<path d="M33.6335 97.3959C33.6335 97.3959 33.0699 83.2743 33.1452 80.85L14.7539 80.5911L17.2017 14.2812H34.8801L90.8436 15.5825H108.631L107.878 80.5911H90.5151V86.301V108.254H33.6335V97.3959Z" fill="#F7F6EF"/>
<path d="M41.3594 72.6272V22.5879L84.3146 22.5879L83.2918 72.6272H41.3594Z" fill="#E3E0D3"/>
<path d="M90.0248 94.1015C90.0248 94.1015 86.7688 94.2055 82.8408 94.1015C74.5848 93.8775 55.5821 94.1015 52.3213 94.1015C49.0605 94.1015 35.7689 94.1849 33.1769 94.4729M33.1769 94.4729C32.9935 90.0881 32.9685 86.0159 33.0652 80.861M33.1769 94.4729C33.2329 95.8106 33.5125 99.1473 33.617 102.52M34.801 14.3809H17.092C16.9494 17.6614 14.617 80.5731 14.617 80.5731C14.617 80.5731 31.7512 81.4245 33.0652 80.861M34.801 14.3809C34.801 14.3809 51.1769 14.3809 62.401 14.3809C73.6251 14.3809 90.9367 15.3932 90.9367 15.3932M34.801 14.3809C34.897 17.2609 33.0652 50.6459 33.0652 50.6459C33.0652 50.6459 33.0652 69.0612 33.0652 80.861M34.801 14.3809C36.913 16.9729 39.2558 19.2542 41.3598 21.8382M33.0652 80.861C34.2172 80.861 35.9206 80.853 37.0726 80.861C48.0168 80.937 52.7847 80.861 58.7628 80.861C64.7409 80.861 89.4488 80.6691 90.0248 80.5731M33.0652 80.861L40.7791 73.2303M90.9367 15.3932H108.57C108.57 15.3932 107.943 59.7579 107.943 63.1694C107.943 66.5809 107.943 80.861 107.943 80.861L90.0248 80.5731M90.9367 15.3932C90.9367 15.3932 91.0567 36.2448 90.9367 44.8848C90.8407 51.9808 90.6492 59.2224 90.5692 66.3184C90.5212 70.8304 90.0248 80.5731 90.0248 80.5731M90.9367 15.3932L84.297 22.355M90.0248 80.5731C90.0248 80.5731 90.5212 85.2779 90.5692 86.9099C90.7292 91.9979 90.5692 102.445 90.5692 102.445M90.0248 80.5731C90.0248 80.5731 86.6127 75.7705 83.6791 72.7007M90.5692 102.445H112.761M90.5692 102.445V107.788L33.617 108.166C33.617 108.166 33.6996 105.186 33.617 102.52M84.297 22.355C84.297 22.355 45.9678 21.6462 41.3598 21.8382M84.297 22.355C84.297 22.355 83.9204 53.0395 83.6791 72.7007M41.3598 21.8382C40.9758 30.2782 40.7791 41.3456 40.7791 48.2495C40.7791 55.1534 40.7791 73.2303 40.7791 73.2303M83.6791 72.7007C78.4642 72.8279 40.7791 73.2303 40.7791 73.2303M33.617 102.52C33.617 102.52 14.3785 103.252 8.03906 103.298M70.1127 99.6319C70.1127 99.6319 57.6013 99.8899 52.3213 100.098M69.5933 86.9099C69.5933 86.9099 58.0733 86.6539 52.3213 87.1979M38.3294 28.594C52.8561 28.594 82.9604 28.594 87.1639 28.594" stroke="black" stroke-linecap="round" stroke-linejoin="round"/>
<path d="M77.5034 68.629C76.692 70.3098 72.403 67.8755 71.5337 64.8617C70.6643 61.8478 71.324 38.0812 72.0865 34.4865C72.4867 32.6 74.1947 32.0552 75.2104 32.4158C76.6141 32.9141 77.5034 33.7956 77.9671 38.0266C78.4308 42.2576 78.3149 66.9482 77.5034 68.629Z" fill="#F7F6EF"/>
<path d="M75.2104 32.4158C76.6141 32.9141 77.5034 33.7956 77.9671 38.0266C78.4308 42.2576 78.3149 66.9482 77.5034 68.629C76.692 70.3098 72.403 67.8755 71.5337 64.8617C70.6643 61.8478 71.324 38.0812 72.0865 34.4865C72.4867 32.6 74.1947 32.0552 75.2104 32.4158ZM75.2104 32.4158V30.0661C75.8497 29.8304 76.8335 29.5573 76.6881 27.7405C76.5428 25.9237 74.2899 25.9964 73.9266 27.1107" stroke="black" stroke-linecap="round" stroke-linejoin="round"/>
<path d="M71.5425 68.629C70.7311 70.3098 66.4421 67.8755 65.5727 64.8617C64.7033 61.8478 65.363 38.0812 66.1256 34.4865C66.5257 32.6 68.2337 32.0552 69.2495 32.4158C70.6532 32.9141 71.5425 33.7956 72.0062 38.0266C72.4699 42.2576 72.3539 66.9482 71.5425 68.629Z" fill="#F7F6EF"/>
<path d="M69.2495 32.4158C70.6532 32.9141 71.5425 33.7956 72.0062 38.0266C72.4699 42.2576 72.3539 66.9482 71.5425 68.629C70.7311 70.3098 66.4421 67.8755 65.5727 64.8617C64.7033 61.8478 65.363 38.0812 66.1256 34.4865C66.5257 32.6 68.2337 32.0552 69.2495 32.4158ZM69.2495 32.4158V30.0661C69.8888 29.8304 70.8725 29.5573 70.7272 27.7405C70.5818 25.9237 68.329 25.9964 67.9656 27.1107" stroke="black" stroke-linecap="round" stroke-linejoin="round"/>
</svg>
