<svg width="120" height="120" viewBox="0 0 120 120" fill="none" xmlns="http://www.w3.org/2000/svg">
<path d="M33.6335 97.3959C33.6335 97.3959 33.0699 83.2743 33.1452 80.85L14.7539 80.5911L17.2017 14.2812H34.8801L90.8436 15.5825H108.631L107.878 80.5911H90.5151V86.301V108.254H33.6335V97.3959Z" fill="#F7F6EF"/>
<path d="M41.3594 72.6272V22.5879L84.3146 22.5879L83.2918 72.6272H41.3594Z" fill="#E3E0D3"/>
<path d="M90.0248 94.1015C90.0248 94.1015 86.7688 94.2055 82.8408 94.1015C74.5848 93.8775 55.5821 94.1015 52.3213 94.1015C49.0605 94.1015 35.7689 94.1849 33.1769 94.4729M33.1769 94.4729C32.9935 90.0881 32.9685 86.0159 33.0652 80.861M33.1769 94.4729C33.2329 95.8106 33.5125 99.1473 33.617 102.52M34.801 14.3809H17.092C16.9494 17.6614 14.617 80.5731 14.617 80.5731C14.617 80.5731 31.7512 81.4245 33.0652 80.861M34.801 14.3809C34.801 14.3809 51.1769 14.3809 62.401 14.3809C73.6251 14.3809 90.9367 15.3932 90.9367 15.3932M34.801 14.3809C34.897 17.2609 33.0652 50.6459 33.0652 50.6459C33.0652 50.6459 33.0652 69.0612 33.0652 80.861M34.801 14.3809C36.913 16.9729 39.2558 19.2542 41.3598 21.8382M33.0652 80.861C34.2172 80.861 35.9206 80.853 37.0726 80.861C48.0168 80.937 52.7847 80.861 58.7628 80.861C64.7409 80.861 89.4488 80.6691 90.0248 80.5731M33.0652 80.861L40.7791 73.2303M90.9367 15.3932H108.57C108.57 15.3932 107.943 59.7579 107.943 63.1694C107.943 66.5809 107.943 80.861 107.943 80.861L90.0248 80.5731M90.9367 15.3932C90.9367 15.3932 91.0567 36.2448 90.9367 44.8848C90.8407 51.9808 90.6492 59.2224 90.5692 66.3184C90.5212 70.8304 90.0248 80.5731 90.0248 80.5731M90.9367 15.3932L84.297 22.355M90.0248 80.5731C90.0248 80.5731 90.5212 85.2779 90.5692 86.9099C90.7292 91.9979 90.5692 102.445 90.5692 102.445M90.0248 80.5731C90.0248 80.5731 86.6127 75.7705 83.6791 72.7007M90.5692 102.445H112.761M90.5692 102.445V107.788L33.617 108.166C33.617 108.166 33.6996 105.186 33.617 102.52M84.297 22.355C84.297 22.355 45.9678 21.6462 41.3598 21.8382M84.297 22.355C84.297 22.355 83.9204 53.0395 83.6791 72.7007M41.3598 21.8382C40.9758 30.2782 40.7791 41.3456 40.7791 48.2495C40.7791 55.1534 40.7791 73.2303 40.7791 73.2303M83.6791 72.7007C78.4642 72.8279 40.7791 73.2303 40.7791 73.2303M33.617 102.52C33.617 102.52 14.3785 103.252 8.03906 103.298M70.1127 99.6319C70.1127 99.6319 57.6013 99.8899 52.3213 100.098M69.5933 86.9099C69.5933 86.9099 58.0733 86.6539 52.3213 87.1979M38.3294 28.594C52.8561 28.594 82.9604 28.594 87.1639 28.594" stroke="black" stroke-width="1.2" stroke-linecap="round" stroke-linejoin="round"/>
<path d="M69.1328 32.3439C69.533 30.4574 71.271 30.2368 72.2568 30.2732M72.2568 30.2732V27.9235C72.896 27.6878 73.8798 27.4148 73.7344 25.5979C73.5891 23.7811 71.3362 23.8538 70.9729 24.9681M72.2568 30.2732C73.2425 30.3096 74.3005 30.7081 74.8074 32.3439" stroke="black" stroke-linecap="round" stroke-linejoin="round"/>
<path d="M65.5755 33.4121H77.6625C78.6708 33.4121 78.8522 34.0031 78.9815 34.9634C78.9901 35.0271 78.9984 35.0924 79.0068 35.1593C79.0796 35.7425 79.1514 37.0985 79.2025 38.3987C79.2457 39.4955 79.2742 40.5526 79.2764 41.0729C79.2781 41.4869 80.0505 59.0172 80.0505 61.2214C80.0505 62.6348 79.221 63.7017 79.221 63.7017C79.221 63.7017 79.3821 63.9917 79.302 64.6199C79.222 65.2481 78.7099 65.5504 77.8016 65.5504H73.1737C72.773 65.5504 72.4197 65.0753 72.3912 64.6199C72.3651 64.2008 72.649 63.7984 72.649 63.7984C72.649 63.7984 72.2023 61.4207 72.2023 58.6769C72.2023 55.9332 72.2023 52.2007 72.2023 52.2007C72.2023 48.9384 71.7891 44.8128 71.6151 44.0297C71.4411 44.8128 71.0357 48.9384 71.0357 52.2007C71.0357 52.2007 71.1585 55.3087 71.1775 58.2228C71.1964 61.1369 70.589 63.7984 70.589 63.7984C70.589 63.7984 70.8729 64.2008 70.8468 64.6199C70.8183 65.0753 70.465 65.5503 70.0643 65.5503H65.4364C64.5281 65.5503 64.016 65.2481 63.936 64.6199C63.8559 63.9917 64.017 63.7017 64.017 63.7017C64.017 63.7017 63.1875 62.6348 63.1875 61.2214V54.7027C63.1875 52.4985 63.9599 41.4869 63.9616 41.0729C63.9638 40.5526 63.9923 39.4955 64.0355 38.3987C64.0866 37.0985 64.1584 35.7425 64.2312 35.1593C64.2396 35.0924 64.2479 35.0271 64.2565 34.9634C64.3858 34.0031 64.5672 33.4121 65.5755 33.4121Z" fill="#F7F6EF"/>
<path d="M64.68 63.8747C64.9269 63.7404 65.5035 63.6225 65.9932 63.6741C66.6053 63.7385 66.9168 63.9506 67.9316 63.778C68.9464 63.6055 69.6158 63.6123 70.0668 63.778M66.8182 33.4121C66.8182 36.1873 66.5996 36.8297 65.9761 37.5345C65.3526 38.2393 64.5184 38.3791 64.038 38.3987M70.1683 33.4121V38.7178M78.5631 63.8747C78.3161 63.7404 77.7396 63.6225 77.2499 63.6741C76.6378 63.7385 76.3262 63.9506 75.3114 63.778C74.2966 63.6055 73.6273 63.6123 73.1762 63.778M76.2896 33.4121C76.2896 36.022 76.9096 36.9173 77.4488 37.5345C77.988 38.1517 78.7246 38.3791 79.2051 38.3987M73.0747 33.4121V38.7178M64.038 38.3987C64.0892 37.0985 64.1609 35.7425 64.2337 35.1593C64.2421 35.0924 64.2504 35.0271 64.259 34.9634C64.3884 34.0031 64.5697 33.4121 65.578 33.4121H77.665C78.6733 33.4121 78.8547 34.0031 78.984 34.9634C78.9926 35.0271 79.001 35.0924 79.0093 35.1593C79.0821 35.7425 79.1539 37.0985 79.2051 38.3987M64.038 38.3987C63.9948 39.4955 63.9663 40.5526 63.9641 41.0729C63.9624 41.4869 63.2772 53.9996 63.1756 58.1164C63.074 62.2331 64.0195 63.778 64.0195 63.778C64.0195 63.778 63.8584 64.068 63.9385 64.6962C64.0186 65.3244 64.5306 65.6266 65.4389 65.6266H70.0668C70.4675 65.6266 70.8208 65.1516 70.8493 64.6962C70.8754 64.2771 70.5916 63.8747 70.5916 63.8747C70.5916 63.8747 71.201 61.9206 71.201 59.9705C71.201 58.0204 71.201 54.779 71.201 54.779C71.201 51.5167 71.4436 44.8128 71.6176 44.0297C71.7916 44.8128 72.2048 51.5167 72.2048 54.779C72.2048 54.779 72.2048 58.1164 72.2048 59.9705C72.2048 61.8246 72.6515 63.8747 72.6515 63.8747C72.6515 63.8747 72.3676 64.2771 72.3938 64.6962C72.4222 65.1516 72.7756 65.6266 73.1762 65.6266H77.8041C78.7125 65.6266 79.2245 65.3244 79.3045 64.6962C79.3846 64.068 79.2235 63.778 79.2235 63.778C79.2235 63.778 80.053 62.3535 80.053 59.815C80.053 57.2765 79.9107 54.2868 79.7979 51.9175C79.6851 49.5483 79.2806 41.4869 79.2789 41.0729C79.2768 40.5526 79.2482 39.4955 79.2051 38.3987" stroke="black" stroke-width="1.2" stroke-linecap="round" stroke-linejoin="round"/>
</svg>
