<svg width="120" height="120" viewBox="0 0 120 120" fill="none" xmlns="http://www.w3.org/2000/svg">
<path d="M41.2539 37.1305L38.0391 59.944L82.9277 64.2694C84.0855 57.6198 86.5607 43.5038 87.1991 40.2369C87.8374 36.97 85.1113 36.2049 83.6684 36.2307L46.4591 33.5312C43.2201 33.5312 41.6394 35.9307 41.2539 37.1305Z" fill="#EDEDED"/>
<path d="M35.8348 75.3406L31.2852 99.3953L76.9145 102.596C78.0723 95.9465 79.6551 84.4723 80.2935 81.2054C80.9319 77.9385 78.3574 75.6562 76.9145 75.682L58.4854 74.6175L39.8974 72.4922C36.6584 72.4922 36.2203 74.1408 35.8348 75.3406Z" fill="#EDEDED"/>
<path d="M53.3647 43.3239C53.691 41.7351 53.1785 39.9138 50.9819 39.9137C48.1793 39.6333 47.8055 41.4554 47.7121 42.5767C47.6186 43.6979 47.9928 45.6601 50.2353 45.6601C52.4778 45.6601 53.0384 44.9126 53.3647 43.3239Z" fill="white"/>
<path d="M47.6108 82.0973C47.9371 80.5086 47.4246 78.6872 45.228 78.6871C42.4254 78.4068 42.0516 80.2289 41.9582 81.3501C41.8647 82.4713 42.2389 84.4335 44.4814 84.4335C46.7239 84.4335 47.2845 83.686 47.6108 82.0973Z" fill="white"/>
<path d="M30.2133 100.757L31.0414 95.9304C35.291 93.5168 48.4312 88.3149 51.8703 86.8065C55.3094 85.2981 58.0431 86.8893 59.3252 87.7944L63.4568 93.453C65.2417 92.0201 68.9648 90.0324 71.0162 89.9721C73.0676 89.9118 76.3622 94.5852 77.4683 96.5964C77.3427 97.5265 77.325 100.04 76.4804 103.962C75.6357 107.883 71.5441 108.022 70.1112 107.771C58.5465 106.866 34.7835 104.98 32.2495 104.679C29.7154 104.377 29.8362 101.938 30.2133 100.757Z" fill="#BDBDBD"/>
<path d="M37.2563 64.4719L38.0844 59.6458C42.3339 57.2322 51.6928 52.0279 55.1319 50.5196C58.571 49.0112 61.995 50.4444 63.2771 51.3495L70.1402 58.0618C71.9251 56.6288 76.0078 53.7478 78.0592 53.6875C80.1106 53.6271 82.8357 57.6345 83.9418 59.6458C83.8161 60.5758 83.3536 63.4165 82.5089 67.3383C81.6642 71.26 78.5871 71.7377 77.1542 71.4863C65.5894 70.5813 41.8265 68.6958 39.2924 68.3941C36.7584 68.0924 36.8791 65.6536 37.2563 64.4719Z" fill="#BDBDBD"/>
<path d="M43.6 24.7111L53.8835 18.3009C58.133 15.8874 58.7782 15.9998 62.9661 16.3545C67.154 16.7091 73.4409 23.7791 73.4409 23.7791C73.4409 23.7791 78.0535 19.4428 81.5591 19.4428C85.0647 19.4428 88.2944 23.7048 89.4005 25.716C89.2748 26.6461 89.4005 29.8822 88.4228 30.7121C87.4451 31.5419 85.4788 31.5156 84.0458 31.2642C72.4811 30.3592 48.1702 28.9349 45.6362 28.6333C43.1021 28.3316 43.2229 25.8928 43.6 24.7111Z" fill="#BDBDBD"/>
<path d="M83.5304 59.4956C82.623 57.7338 81.9582 56.8474 80.2665 55.0081C78.5747 53.1688 75.904 53.5348 74.47 54.6328C73.042 55.7248 70.0913 58.0523 70.0913 58.0523C70.0913 58.0523 69.0004 57.3856 65.0989 53.063C61.1973 48.7405 56.1874 49.8818 53.103 51.3824C50.0186 52.883 44.0197 55.6157 38.4817 59.7857M76.6476 103.251C78.0709 96.2081 79.8666 84.7422 80.2187 81.7243C80.5708 78.7065 79.8274 76.0725 76.2874 75.9165C69.5974 75.6105 61.7656 74.9271 56.1874 74.4316C50.6092 73.9361 41.256 72.7213 39.8137 72.6311C38.3714 72.541 36.1077 72.5286 35.612 76.0892C35.1162 79.6498 30.9464 99.0118 30.9464 99.0118M95.8172 20.8338C95.0046 27.1593 93.5316 39.2477 92.7189 44.5808C91.9063 49.9139 87.6715 79.4714 86.9272 85.0432C86.1829 90.6151 85.1746 96.6951 83.6934 103.721M37.048 16.8301C37.048 16.8301 35.5003 29.934 34.6303 36.258C33.8083 42.258 32.1077 54.6328 30.6007 65.1126C29.0938 75.5925 24.7501 97.9921 24.7501 97.9921H24.7489M77.4953 96.6776C76.2874 94.5754 76.3317 93.8283 73.9751 91.436C71.6184 89.0436 68.8376 90.1888 67.6459 90.8128C66.4543 91.4368 63.461 93.6186 63.461 93.6186C63.461 93.6186 60.5612 88.925 59.1347 87.6551C57.7082 86.3852 55.228 85.8869 52.5915 86.6779C49.955 87.4688 48.6518 88.255 46.0546 89.382C43.4575 90.5091 32.085 96.1238 32.085 96.1238M43.5287 16.9905C43.1992 20.6698 42.9739 24.4474 43.0684 25.9219C43.163 27.3963 43.9191 28.1714 45.3936 28.1714C46.8681 28.1714 78.8431 30.5813 81.3515 30.7694C83.8599 30.9576 85.2254 31.2149 86.4486 31.2776C87.6717 31.3404 88.8523 30.6234 89.0203 28.9254C89.3143 25.9614 89.6147 23.2714 90.0947 20.3314M55.0599 17.6938C48.5953 21.0086 43.3665 25.5637 43.3665 25.5637M78.702 20.3007C76.5693 21.1474 75.0325 22.8724 73.5271 24.0328C72.4351 22.2388 70.9554 21.0534 69.7636 20.0184M84.7488 20.8338C86.4486 22.496 87.7903 24.3052 89.0203 25.8832M23.8637 50.6004C21.2816 50.5969 18.6994 50.5934 16.125 50.5896M25.2843 43.6429C23.0421 42.7978 20.7999 41.9527 18.5654 41.1073M21.4039 59.5292C19.695 60.7866 17.9861 62.0441 16.2772 63.3016M97.603 57.5812C100.185 57.5847 102.767 57.5882 105.342 57.592M96.1824 64.5387C98.4245 65.3839 100.667 66.229 102.901 67.0744M100.063 48.6525C101.772 47.395 103.481 46.1375 105.189 44.88M84.7488 36.258C81.8698 35.8954 73.5271 35.2134 65.0989 34.812C56.6706 34.4107 50.614 33.8308 47.3719 33.6687C44.1298 33.5066 41.7793 34.844 41.2119 37.924C40.6445 41.004 39.8137 46.1 39.227 50.886C38.6403 55.6721 37.4603 62.808 37.0568 65.1126C36.6533 67.4173 37.8468 68.1099 41.4374 68.5134C45.028 68.9169 49.8327 69.2911 55.6069 69.738C61.381 70.185 75.4282 71.4581 77.6203 71.4581C79.8124 71.4581 81.5288 71.0881 82.1818 68.3158C82.8349 65.5435 82.975 64.9435 84.067 58.5574C85.1589 52.1714 87.2145 41.0086 87.3417 39.5777C87.4689 38.1469 86.5239 36.4816 84.7488 36.258ZM47.4104 81.3025C47.4585 79.375 45.2661 78.1704 43.4591 78.8691C41.6521 79.5678 41.416 82.217 42.046 83.291C42.664 84.359 43.6568 84.8072 44.9288 84.5792C46.1648 84.3572 47.3622 83.2299 47.4104 81.3025ZM50.8407 39.9294C53.825 40.1015 54.1377 42.7068 53.103 44.447C52.0683 46.1873 49.2463 46.1402 48.1645 44.447C47.0827 42.7538 47.5122 39.9294 50.8407 39.9294Z" stroke="black" stroke-width="1.2" stroke-linecap="round" stroke-linejoin="round"/>
</svg>
