<svg width="120" height="121" viewBox="0 0 120 121" fill="none" xmlns="http://www.w3.org/2000/svg">
<path d="M5.59618 70.8707C4.06756 79.2838 3.86551 100.691 3.95556 110.343L114.727 110.07C115.091 97.7776 115.109 71.8267 112.268 66.3634C109.427 60.9 101.433 57.2581 97.7904 56.1201C93.2012 57.2132 88.1385 61.4012 86.1807 63.3585C83.3125 60.9457 76.893 56.1201 74.1614 56.1201C71.4297 56.1201 64.1907 61.9473 60.9127 64.8609C60.9127 64.8609 50.6234 57.4858 47.2543 56.1201C47.2543 56.1201 36.8284 62.0386 34.4155 64.178C34.4155 64.178 23.2156 56.9394 20.8937 56.1201C16.4314 57.5315 7.12481 62.4575 5.59618 70.8707Z" fill="#E9E9E9"/>
<path d="M116.581 42.1961C111.606 42.3807 3.41797 43.4608 3.41797 43.4608M4.04045 109.918C4.04045 109.918 3.17325 71.5647 7.34683 65.7128C11.5204 59.8608 21.2113 55.9046 21.2113 55.9046M38.2096 110.521C38.2096 110.521 38.9767 71.7098 35.5851 66.1805C35.237 65.6131 34.8091 65.054 34.3213 64.5074M21.2113 55.9046C21.2113 55.9046 20.0761 52.4451 22.4545 49.7424C24.8329 47.0397 25.7858 46.0093 25.6578 43.3053C25.5378 40.7293 23.7518 37.4721 20.3464 38.3169C16.941 39.1618 16.619 43.4608 16.619 43.4608M21.2113 55.9046C21.2113 55.9046 30.0552 59.727 34.3213 64.5074M21.2113 56.989C20.8513 60.629 21.2113 109.918 21.2113 109.918M64.2273 110.521C64.2273 110.521 64.9943 71.7098 61.6027 66.1805C61.373 65.8061 61.1085 65.4352 60.815 65.0691M47.229 55.9046C47.229 55.9046 46.0938 52.4451 48.4722 49.7424C50.8506 47.0397 51.8035 46.0093 51.6755 43.3053C51.5555 40.7293 49.7695 37.4721 46.3641 38.3169C42.9587 39.1618 42.6367 43.4608 42.6367 43.4608M47.229 55.9046C47.229 55.9046 38.8528 59.3241 34.3213 64.5074M47.229 55.9046C47.229 55.9046 56.774 60.0301 60.815 65.0691M47.229 56.989C46.869 60.629 47.229 109.918 47.229 109.918M91.1911 110.521C91.1911 110.521 91.9581 71.7098 88.5665 66.1805C87.9551 65.1838 87.0971 64.2125 86.1012 63.2898M74.1927 55.9046C74.1927 55.9046 73.0576 52.4451 75.436 49.7424C77.8144 47.0397 78.7673 46.0093 78.6393 43.3053C78.5193 40.7293 76.7333 37.4721 73.3279 38.3169C69.9224 39.1618 69.6005 43.4608 69.6005 43.4608M74.1927 55.9046C74.1927 55.9046 65.2078 59.5726 60.815 65.0691M74.1927 55.9046C74.1927 55.9046 81.5724 59.0942 86.1012 63.2898M74.1927 56.989C73.8327 60.629 74.1927 109.918 74.1927 109.918M114.844 110.521C114.844 110.521 115.611 71.7098 112.219 66.1805C108.827 60.6512 97.8451 55.9046 97.8451 55.9046M97.8451 55.9046C97.8451 55.9046 96.71 52.4451 99.0884 49.7424C101.467 47.0397 102.42 46.0093 102.292 43.3053C102.172 40.7293 100.386 37.4721 96.9803 38.3169C93.5749 39.1618 93.2529 43.4608 93.2529 43.4608M97.8451 55.9046C97.8451 55.9046 90.7642 58.7953 86.1012 63.2898M97.8451 56.989C97.4851 60.629 97.8451 109.918 97.8451 109.918" stroke="black" stroke-width="1.6" stroke-linecap="round" stroke-linejoin="round"/>
<path d="M14.0335 29.9031C12.434 27.9467 8.37296 23.5866 8.37296 23.5866M15.7439 17.5795C16.8004 20.676 17.8568 23.7724 18.9106 26.8593" stroke="black" stroke-width="1.4" stroke-linecap="round" stroke-linejoin="round"/>
<path d="M106.318 29.9031C107.918 27.9467 111.979 23.5866 111.979 23.5866M104.608 17.5795C103.551 20.676 102.495 23.7724 101.441 26.8593" stroke="black" stroke-width="1.4" stroke-linecap="round" stroke-linejoin="round"/>
</svg>
