<svg width="120" height="120" viewBox="0 0 120 120" fill="none" xmlns="http://www.w3.org/2000/svg">
<path d="M15.7812 94.4724C15.7802 96.4898 19.411 106.405 21.2266 111.111L98.7762 111.513C99.7511 108.051 102.064 100.259 103.516 96.7904C104.968 93.3214 102.911 91.849 101.701 91.5465L93.9358 88.723L94.7425 86.5044L90.4063 81.5631C79.5959 75.8351 74.4059 75.7477 73.1621 76.42L71.1453 77.7314C70.4058 79.3784 67.1721 82.7127 60.1534 82.874C53.1347 83.0354 48.9598 78.6386 47.7497 76.42C48.3548 75.8823 47.3665 75.3918 38.573 77.7314C29.7795 80.0709 26.1693 84.4213 25.4634 86.304L26.6736 88.723L18.4044 91.4464C17.5305 91.6145 15.7823 92.455 15.7812 94.4724Z" fill="#E3E0D3"/>
<path d="M49.1552 76.8006L54.0984 75.4944C54.0984 75.4944 54.7279 73.1057 53.7874 70.8295C53.2041 69.4178 52.9214 68.7148 50.9933 66.7866C49.0651 64.8584 46.1418 58.5142 47.5101 51.6723C48.8785 44.8304 53.6373 39.4963 60.7293 39.6632C67.8212 39.83 71.1231 44.8306 72.4915 51.6725C73.8599 58.5143 70.9365 64.8586 69.0084 66.7868C67.0802 68.715 66.7976 69.418 66.2142 70.8297C65.2737 73.1059 65.9033 75.4946 65.9033 75.4946L70.8465 76.8008M26.2589 89.1012C25.5869 86.7912 23.4599 83.1483 21.1989 82.7773C18.9353 82.406 17.7691 83.1337 14.3393 83.0446C10.9095 82.9555 8.33888 81.4418 5.61256 82.1092C4.59756 82.3612 2.31765 82.7774 2.71367 84.6927C3.10969 86.608 6.05437 87.6771 10.1968 88.5234C14.3393 89.3697 17.7246 87.1196 18.8266 91.4282M21.0056 111.413C21.0056 111.413 17.0529 97.767 16.2604 95.8864C15.4678 94.0058 16.0193 92.4628 17.3694 91.9324C18.7195 91.402 25.9699 89.18 27.0234 88.872C28.0769 88.564 29.278 89.0554 29.9332 90.9937C30.5884 92.9319 37.7507 111.413 37.7507 111.413M25.2858 86.55C27.9045 82.1018 31.0474 80.4556 34.4805 79.1828C37.9136 77.9101 43.1125 76.2253 45.2483 75.9477C47.384 75.6701 48.1654 76.2431 49.1552 77.9101C50.1449 79.577 53.6954 82.7773 59.7994 82.7773C65.9033 82.7773 69.8568 79.5772 70.8465 77.9102C71.8362 76.2433 72.6176 75.6703 74.7534 75.9479C76.8891 76.2255 82.088 77.9103 85.5211 79.183C88.9543 80.4558 92.0972 82.102 94.7159 86.5502M29.3762 44.621C29.3762 44.621 29.0614 43.7395 28.3688 41.6616C27.6761 39.5837 31.5616 37.4344 30.9412 33.7551C30.3207 30.0759 26.4452 29.6076 24.2945 30.6234C22.1438 31.6391 22.3067 33.7804 22.2717 34.6484M5.6135 111.413H59.7994M93.7428 89.1014C94.4148 86.7914 96.5417 83.1485 98.8027 82.7775C101.066 82.4062 102.233 83.1339 105.662 83.0448C109.092 82.9557 111.663 81.442 114.389 82.1094C115.404 82.3614 117.684 82.7775 117.288 84.6929C116.892 86.6082 113.947 87.6773 109.805 88.5236C105.662 89.3699 102.277 87.1198 101.175 91.4284M98.9961 111.413C98.9961 111.413 102.949 97.7672 103.741 95.8866C104.534 94.006 103.982 92.463 102.632 91.9326C101.282 91.4022 94.0317 89.1802 92.9783 88.8722C91.9248 88.5642 90.7236 89.0556 90.0684 90.9938C89.4133 92.9321 82.442 111.413 82.442 111.413M112.301 111.413H60.2023M49.7966 29.9832C49.7966 29.9832 49.5771 29.0733 49.1091 26.9336C48.6411 24.7939 52.7329 23.0694 52.5067 19.345C52.2806 15.6207 48.4767 14.7435 46.2303 15.525C43.9839 16.3066 43.9185 18.4531 43.7915 19.3124M73.896 31.5169C73.896 31.5169 74.3011 30.673 75.2906 28.719C76.2802 26.765 80.5411 28.0145 82.7196 24.9853C84.898 21.9561 82.5045 18.8722 80.2697 18.0582C78.0348 17.2442 76.6276 18.8663 75.986 19.4521M87.1302 46.76C87.1302 46.76 87.6749 45.9987 88.9872 44.2451C90.2995 42.4915 94.2805 44.4583 96.9495 41.8511C99.6186 39.2438 97.7938 35.7928 95.7333 34.6049C93.6727 33.417 92.0063 34.7716 91.2732 35.2377M62.7014 61.5155H57.9756M60.1348 54.9247V57.8046" stroke="black" stroke-width="1.6" stroke-linecap="round" stroke-linejoin="round"/>
<circle cx="31.3799" cy="49.1094" r="1.00879" fill="black"/>
<circle cx="50.9072" cy="33.6855" r="1.00879" fill="black"/>
<circle cx="72.1963" cy="35.7031" r="1.00879" fill="black"/>
<circle cx="85.3252" cy="50.1191" r="1.00879" fill="black"/>
<circle cx="55.3916" cy="54.9258" r="1.00879" fill="black"/>
<circle cx="64.3525" cy="54.9258" r="1.00879" fill="black"/>
</svg>
