<svg width="120" height="120" viewBox="0 0 120 120" fill="none" xmlns="http://www.w3.org/2000/svg">
<path d="M83.6334 38.1637C74.1555 38.6828 61.4875 48.8778 58.2428 53.6315L77.2512 63.8149L83.6334 38.1637Z" fill="#E3E0D3"/>
<path d="M57.8339 53.9187C55.1597 56.8371 43.1457 66.3678 37.7067 70.5275C40.1649 73.9065 53.9358 80.5364 60.514 83.429C61.1027 82.2003 62.0345 77.4851 61.0515 68.454C60.0686 59.4229 58.6528 54.8403 57.8339 53.9187Z" fill="#E3E0D3"/>
<path d="M50.2234 33.2051L57.3663 53.2486C45.3867 53.9855 32.3051 44.7501 27.2617 40.0402L50.2234 33.2051Z" fill="#E3E0D3"/>
<path d="M58.0914 53.5724C65.543 57.6098 77.1724 63.9107 77.1724 63.9107M58.0914 53.5724C65.2626 44.3279 77.1724 39.0885 83.6908 38.2824M58.0914 53.5724C60.2508 60.6865 60.5981 62.5701 61.1179 69.9865C61.6377 77.4029 60.5981 83.8171 60.5981 83.8171M58.0914 53.5724C51.6395 60.066 44.9042 65.6044 37.2866 70.6804M58.0914 53.5724C50.6011 54.0018 48.0576 52.0809 41.0479 49.4062C34.3613 46.8548 26.7342 40.1075 26.7342 40.1075M58.0914 53.5724C56.7591 50.8254 51.3685 35.6923 50.1377 32.8984M77.1724 63.9107L93.3637 73.8625C94.0928 74.3107 95.0035 73.7113 94.8496 72.8693C93.6515 66.3149 89.6385 46.4441 83.6908 38.2824M77.1724 63.9107L83.6908 38.2824M60.5981 83.8171C58.8701 83.0395 57.1349 82.2835 55.4213 81.4771C53.7077 80.6707 41.0018 73.0132 37.2866 70.6804M60.5981 83.8171C59.5254 84.1877 56.4525 84.3124 53.0881 84.326M37.2866 70.6804C32.0018 74.2012 22.8706 79.5766 22.8706 79.5766V79.5766C21.354 80.4526 21.9739 82.8464 23.724 82.916C32.3456 83.2586 41.6977 84.0905 41.6977 84.0905C41.6977 84.0905 45.188 84.2386 49.2003 84.3005M26.7342 40.1075C26.7342 40.1075 27.694 36.2519 31.9582 27.57C35.151 21.0694 40.8258 13.7601 43.4758 10.4976C44.0225 9.82456 45.0975 10.1304 45.2234 10.9883C45.8882 15.5167 47.6004 25.9629 50.1377 32.8984M26.7342 40.1075C26.7342 40.1075 46.3126 35.1875 50.1377 32.8984M49.2003 84.3005C48.8547 86.3741 47.1123 100.133 47.1123 100.133L45.3123 112.23M49.2003 84.3005C50.4752 84.3202 51.803 84.3312 53.0881 84.326M45.3123 112.23L17.3398 112.012M45.3123 112.23L53.6065 112.066M83.6908 112.012L53.6065 112.066M53.6065 112.066C53.6065 112.066 53.4481 100.643 53.3401 95.2073C53.2825 92.2697 53.1745 87.2636 53.0881 84.326M28.4789 53.5053C27.8165 56.4933 26.9957 59.4669 27.7013 62.5701M23.0357 53.764C22.4741 56.68 21.6389 59.5744 22.5173 62.5696M59.0429 26.0517C62.2037 25.4541 64.7021 27.5853 67.5893 28.1253M68.3668 23.9784C66.0196 22.0632 63.478 20.8176 60.3388 21.6456M77.1724 78.3734C75.5308 79.4102 73.8892 80.447 72.2476 81.4838M74.8946 85.7796C76.1467 85.38 79.2575 83.96 81.6845 81.4771" stroke="black" stroke-width="1.2" stroke-linecap="round" stroke-linejoin="round"/>
</svg>