<svg width="121" height="120" viewBox="0 0 121 120" fill="none" xmlns="http://www.w3.org/2000/svg">
<path d="M32.6428 87.4871C27.4637 87.535 25.2739 90.6763 24.8264 92.241C24.0371 90.6563 21.3076 87.8707 16.7043 89.405C12.1009 90.9394 11.1496 95.8774 11.2493 98.1545C8.49256 98.4941 3.49446 100.42 5.55598 105.406C7.61751 110.392 13.8471 109.601 16.7043 108.582C17.8427 109.201 20.7548 110.572 23.2958 111.099C25.8367 111.626 29.0289 109.641 30.3074 108.582C31.3261 109.281 34.1907 110.632 37.4987 110.44C40.8068 110.248 42.7125 107.843 43.2518 106.664C44.2906 107.044 46.9074 107.659 49.0648 107.084C51.2223 106.509 51.8016 103.688 51.8215 102.35C53.5595 101.99 55.2974 100.312 54.4584 98.2744C53.7872 96.6443 51.9813 96.1569 51.1623 96.117C50.5431 94.825 48.909 91.8656 47.3269 90.3639C45.7448 88.8622 41.6338 90.0577 39.776 90.8431C39.5563 89.7044 37.822 87.4392 32.6428 87.4871Z" fill="#D8D8D8"/>
<path d="M82.2738 52.7976C77.9077 52.3707 74.0509 55.8619 72.6683 57.6608C70.153 56.9348 64.1551 55.9183 60.2868 57.6608C56.4185 59.4034 54.6108 63.5689 54.1905 65.4338C50.196 64.3125 39.684 67.8865 41.9966 78.118C43.8467 86.3031 53.0928 85.2193 57.4846 83.6542C57.8582 85.0324 60.175 87.999 66.4541 88.84C72.7331 89.6809 77.7601 86.6208 79.4887 84.9857C81.0304 86.4807 85.5728 89.3445 91.4086 88.84C97.2444 88.3354 100.839 84.6084 101.906 82.808C104.239 83.8558 109.96 85.4532 114.183 83.4604C119.462 80.9694 119.64 75.8096 118.631 72.1917C117.825 69.2974 113.037 67.269 110.743 66.6166C108.608 60.9823 108.727 60.6264 103.092 57.0679C98.585 54.2211 93.4251 56.277 91.4086 57.6608C90.1829 56.2176 86.6399 53.2244 82.2738 52.7976Z" fill="#D8D8D8"/>
<path d="M78.2249 53.426C83.0359 49.6764 82.2137 40.1594 82.2137 40.1594C79.9569 43.4234 73.4909 46.1956 69.8297 46.6773C66.1686 47.159 60.4842 48.2188 51.7167 41.0892C42.9492 33.9596 41.9067 16.631 41.9067 16.631C41.9067 16.631 37.1756 20.6247 33.6963 26.1711C31.1491 30.2317 29.564 36.815 29.3669 40.4472C28.9006 49.0406 32.8329 62.6707 47.5164 66.2704M16.6426 89.3506C12.2183 91.1471 10.9834 96.1365 11.3434 98.0725C11.3434 98.0725 5.15657 98.9389 5.15641 103.749C5.15625 108.559 11.2798 110.593 16.6426 108.412C20.1237 111.559 26.6098 112.773 30.0023 108.412C35.495 112.612 41.5531 110.027 43.0444 106.749C43.0444 106.749 50.9229 110.35 51.6499 102.354C56.1733 100.819 54.9616 96.3762 51.0845 96.1339C51.0845 96.1339 49.8669 91.5146 47.5304 90.5605C43.9485 89.0978 39.9222 91.0531 39.9222 91.0531C39.9222 91.0531 37.1747 86.8941 31.9636 87.6385C26.7525 88.383 24.6863 92.3506 24.6863 92.3506C24.6863 92.3506 21.0669 87.5542 16.6426 89.3506ZM91.48 57.6198C88.8715 53.4463 83.9421 52.0373 79.503 53.0492C75.0639 54.061 72.6734 57.6198 72.6734 57.6198C72.6734 57.6198 65.8438 55.2381 61.641 56.9268C57.4381 58.6155 55.9396 60.8498 54.6196 65.5298C42.255 63.6691 39.7741 75.9611 43.0444 80.923C46.3148 85.8849 53.1374 85.9977 57.4529 83.6628C58.2209 87.3188 64.4682 89.3786 68.1354 89.1566C71.8026 88.9345 75.7212 87.9506 79.503 85.0185C84.4086 87.725 87.0825 89.3771 92.3291 88.6382C97.5758 87.8993 101.782 82.9596 101.782 82.9596C101.782 82.9596 110.591 85.5289 115.088 82.9596C119.584 80.3903 120.434 73.7361 117.655 70.401C114.875 67.0658 110.762 67.0658 110.762 67.0658C110.762 67.0658 111.113 65.0758 107.95 60.5072C104.787 55.9387 95.9144 54.4375 91.48 57.6198ZM9.61973 70.6145L11.6317 65.4128L15.8029 69.1424H20.9065L18.3056 74.1969L20.1237 79.4967L14.9687 77.8773L10.6012 81.9504L9.61973 76.0616L5.15625 72.921C5.15625 72.921 8.26507 71.4679 9.61973 70.6145ZM89.3173 21.8326L91.3293 16.6309L95.5005 20.3604H100.604L98.0032 25.4149L99.8213 30.7148L94.6663 29.0954L90.2988 33.1684L89.3173 27.2797L84.8538 24.139C84.8538 24.139 87.9626 22.6859 89.3173 21.8326Z" stroke="black" stroke-width="1.6" stroke-linecap="round" stroke-linejoin="round"/>
</svg>
