<svg width="120" height="120" viewBox="0 0 120 120" fill="none" xmlns="http://www.w3.org/2000/svg">
<path d="M14.2346 35.5582C12.9348 42.712 12.763 60.915 12.8396 69.1222L107.03 68.89C107.339 58.4375 107.355 36.3711 104.939 31.7256C102.523 27.08 95.7254 23.9833 92.6284 23.0156C88.7261 23.9451 84.4212 27.5062 82.7566 29.1705C80.3176 27.1189 74.8591 23.0156 72.5364 23.0156C70.2136 23.0156 64.0582 27.9706 61.2709 30.448C61.2709 30.448 52.5218 24.1769 49.657 23.0156C49.657 23.0156 40.7918 28.0481 38.74 29.8673C38.74 29.8673 29.2166 23.7123 27.2422 23.0156C23.4479 24.2157 15.5344 28.4044 14.2346 35.5582Z" fill="#EFEDE5"/>
<path d="M5.59618 71.0377C4.06756 79.4508 3.86551 100.858 3.95556 110.51L114.727 110.237C115.091 97.9446 115.109 71.9937 112.268 66.5303C109.427 61.067 101.433 57.4251 97.7904 56.2871C93.2012 57.3802 88.1385 61.5682 86.1807 63.5255C83.3125 61.1127 76.893 56.2871 74.1614 56.2871C71.4297 56.2871 64.1907 62.1143 60.9127 65.0279C60.9127 65.0279 50.6234 57.6528 47.2543 56.2871C47.2543 56.2871 36.8284 62.2056 34.4155 64.345C34.4155 64.345 23.2156 57.1064 20.8937 56.2871C16.4314 57.6985 7.12481 62.6245 5.59618 71.0377Z" fill="#E3E0D3"/>
<path d="M116.581 42.1638C111.606 42.3485 3.41797 43.4285 3.41797 43.4285M4.04045 109.885C4.04045 109.885 3.17325 71.5325 7.34683 65.6805C11.5204 59.8286 21.2113 55.8724 21.2113 55.8724M38.2096 110.489C38.2096 110.489 38.9767 71.6776 35.5851 66.1483C35.237 65.5809 34.8091 65.0218 34.3213 64.4751M21.2113 55.8724C21.2113 55.8724 20.0761 52.4129 22.4545 49.7102C24.8329 47.0075 25.7858 45.9771 25.6578 43.2731C25.5378 40.6971 23.7518 37.4398 20.3464 38.2847C16.941 39.1296 16.619 43.4285 16.619 43.4285M21.2113 55.8724C21.2113 55.8724 30.0552 59.6948 34.3213 64.4751M21.2113 56.9567C20.8513 60.5967 21.2113 109.885 21.2113 109.885M64.2273 110.489C64.2273 110.489 64.9943 71.6776 61.6027 66.1483C61.373 65.7738 61.1085 65.403 60.815 65.0369M47.229 55.8724C47.229 55.8724 46.0938 52.4129 48.4722 49.7102C50.8506 47.0075 51.8035 45.9771 51.6755 43.2731C51.5555 40.6971 49.7695 37.4398 46.3641 38.2847C42.9587 39.1296 42.6367 43.4285 42.6367 43.4285M47.229 55.8724C47.229 55.8724 38.8528 59.2919 34.3213 64.4751M47.229 55.8724C47.229 55.8724 56.774 59.9978 60.815 65.0369M47.229 56.9567C46.869 60.5967 47.229 109.885 47.229 109.885M91.1911 110.489C91.1911 110.489 91.9581 71.6776 88.5665 66.1483C87.9551 65.1515 87.0971 64.1802 86.1012 63.2576M74.1927 55.8724C74.1927 55.8724 73.0576 52.4129 75.436 49.7102C77.8144 47.0075 78.7673 45.9771 78.6393 43.2731C78.5193 40.6971 76.7333 37.4398 73.3279 38.2847C69.9224 39.1296 69.6005 43.4285 69.6005 43.4285M74.1927 55.8724C74.1927 55.8724 65.2078 59.5404 60.815 65.0369M74.1927 55.8724C74.1927 55.8724 81.5724 59.0619 86.1012 63.2576M74.1927 56.9567C73.8327 60.5967 75.436 84.9638 74.1927 109.885M114.844 110.489C114.844 110.489 115.611 71.6776 112.219 66.1483C108.827 60.619 97.8451 55.8724 97.8451 55.8724M97.8451 55.8724C97.8451 55.8724 96.71 52.4129 99.0884 49.7102C101.467 47.0075 102.42 45.9771 102.292 43.2731C102.172 40.6971 100.386 37.4398 96.9803 38.2847C93.5749 39.1296 93.2529 43.4285 93.2529 43.4285M97.8451 55.8724C97.8451 55.8724 90.7642 58.7631 86.1012 63.2576M97.8451 56.9567C97.4851 60.5967 97.8451 109.885 97.8451 109.885" stroke="black" stroke-width="1.6" stroke-linecap="round" stroke-linejoin="round"/>
<path d="M107.42 11.2011C103.25 11.3558 12.582 12.261 12.582 12.261M27.4939 22.6896C27.4939 22.6896 26.5426 19.7904 28.5358 17.5254C30.529 15.2603 31.3276 14.3968 31.2204 12.1307C31.1198 9.97184 29.623 7.24209 26.7691 7.95014C23.9151 8.65818 23.6453 12.261 23.6453 12.261M27.4939 22.6896C27.4939 22.6896 19.3724 26.0052 15.8746 30.9095C15.1352 31.9464 14.5845 34.2007 14.1759 37.1115M27.4939 22.6896C27.4939 22.6896 34.9057 25.8931 38.4808 29.8993M49.2983 22.6896C49.2983 22.6896 48.3469 19.7904 50.3402 17.5254C52.3334 15.2603 53.132 14.3968 53.0247 12.1307C52.9242 9.97184 51.4274 7.24209 48.5734 7.95014C45.7195 8.65818 45.4497 12.261 45.4497 12.261M49.2983 22.6896C49.2983 22.6896 42.2785 25.5554 38.4808 29.8993M49.2983 22.6896C49.2983 22.6896 57.2976 26.147 60.6842 30.3701M71.8955 22.6896C71.8955 22.6896 70.9442 19.7904 72.9374 17.5254C74.9306 15.2603 75.7292 14.3968 75.622 12.1307C75.5214 9.97184 74.0246 7.24209 71.1707 7.95014C68.3167 8.65818 68.0469 12.261 68.0469 12.261M71.8955 22.6896C71.8955 22.6896 64.3656 25.7637 60.6842 30.3701M71.8955 22.6896C71.8955 22.6896 78.0801 25.3627 81.8755 28.8789M91.7176 22.6896C91.7176 22.6896 100.921 26.6676 103.764 31.3015C104.344 32.2473 104.779 34.3553 105.104 37.1115M91.7176 22.6896C91.7176 22.6896 90.7663 19.7904 92.7596 17.5254C94.7528 15.2603 95.5514 14.3968 95.4441 12.1307C95.3436 9.97184 93.8468 7.24209 90.9928 7.95014C88.1389 8.65818 87.8691 12.261 87.8691 12.261M91.7176 22.6896C91.7176 22.6896 85.7834 25.1123 81.8755 28.8789M38.4808 29.8993C38.8897 30.3574 39.2483 30.826 39.54 31.3015C40.1201 32.2473 40.5551 34.3553 40.88 37.1115M60.6842 30.3701C60.9302 30.6768 61.1518 30.9877 61.3443 31.3015C61.9245 32.2473 62.3595 34.3553 62.6843 37.1115M81.8755 28.8789C82.7101 29.6521 83.4292 30.4662 83.9416 31.3015C84.5218 32.2473 84.9567 34.3553 85.2816 37.1115" stroke="black" stroke-width="1.6" stroke-linecap="round" stroke-linejoin="round"/>
</svg>
