<svg width="120" height="120" viewBox="0 0 120 120" fill="none" xmlns="http://www.w3.org/2000/svg">
<path d="M82.324 31.6823C80.098 33.1583 78.4065 35.0835 77.1999 36.1843C75.9933 37.2851 75.6546 38.2165 75.5699 39.7618C75.4852 41.3071 75.2781 43.1031 75.2907 45.148C75.3034 47.193 75.3685 48.4968 78.8463 49.1583C82.324 49.8198 84.8389 49.9162 85.6211 49.9317C86.4034 49.9472 86.9799 49.449 87.5745 49.0159C90.0008 47.2491 93.8574 43.4863 93.8574 43.4863M101.97 23.6972C93.3776 31.5812 85.0649 39.7304 76.2629 47.3864M89.9732 47.8588C90.2295 54.4745 83.2912 58.3312 83.2912 58.3312C83.2912 58.3312 86.4765 61.4186 87.5745 62.9306C90.8385 67.4126 90.5056 71.8348 87.9536 75.0667C85.4015 78.2986 82.0642 78.8456 78.9724 78.6493C75.8805 78.453 71.7481 75.5575 71.7481 75.5575C70.6662 81.2014 65.5699 83.6999 61.5874 83.9883C57.6049 84.2766 53.6747 82.33 52.6727 78.2204C51.6707 74.1108 52.1631 70.5869 54.4851 66.8789C52.3232 69.0301 46.2471 69.1109 42.5991 66.8969C38.9571 64.6829 37.6831 61.1957 38.3851 57.3497C38.9851 54.0617 40.6938 51.4897 43.7666 49.9847C46.8394 48.4796 50.1644 49.1731 50.1644 49.1731C50.1644 49.1731 46.5224 40.899 47.0324 36.879C47.6444 32.019 51.0344 29.139 55.5644 27.585C58.5704 26.553 61.2104 27.165 63.3224 29.535C66.4124 33.009 69.3764 41.613 69.3764 41.613C73.7567 37.444 75.5699 37.8058 75.5699 37.8058M98.2158 16.0586C98.2158 16.0586 87.1677 26.0806 85.4131 27.67C83.6584 29.2594 82.9181 30.3609 82.9514 31.2438C82.9847 32.1266 83.4728 40.9344 83.4728 40.9344C83.4728 40.9344 93.2297 43.4491 94.8047 42.9569C96.3798 42.4647 104.007 34.2972 109.229 29.535M101.209 72.9643C106.878 79.9583 105.209 88.8868 105.209 88.8868C105.209 88.8868 99.4006 90.1708 96.5806 90.0388C93.0766 89.8768 89.3926 89.4988 86.2186 87.5848C82.8171 85.532 80.594 82.6333 79.589 78.8975M89.9732 72.0607C93.2372 73.2667 100.949 74.0195 106.878 70.3781C112.807 66.7366 115.468 62.535 115.468 62.535L112.32 57.3748C112.32 57.3748 108.038 49.7171 102.402 48.6027C97.6504 47.6631 93.2773 48.7966 89.6562 50.6253M87.5745 76.2806C87.5745 76.2806 92.1323 79.6562 96.9886 81.7883M100.585 58.9948C100.585 58.9948 91.9348 59.4169 86.2186 61.0309M15.7936 68.8979C20.7947 70.8911 22.0579 76.9903 22.0579 76.9903C22.0579 76.9903 16.8614 79.5045 13.1598 79.0062C9.45814 78.5079 6.05625 76.5216 4.40625 72.2436C5.81625 70.8936 10.7925 66.9047 15.7936 68.8979ZM23.3992 67.7312C23.3992 67.7312 26.9701 63.3455 26.2582 58.6473C25.5464 53.949 19.9227 53.166 19.9227 53.166C19.9227 53.166 17.2889 57.3497 18.2143 60.9252C19.1397 64.5007 23.3992 67.7312 23.3992 67.7312ZM39.9662 76.9903C39.9662 76.9903 41.7087 75.0815 44.0319 74.6491C46.3552 74.2168 49.7675 75.0301 50.1305 78.5312C50.4935 82.0323 48.4307 84.5664 48.4307 84.5664C48.4307 84.5664 51.8631 85.8535 52.6727 88.4128C53.4823 90.9722 52.4708 94.236 49.6385 95.8512C46.8062 97.4663 43.0657 95.5764 43.0657 95.5764C43.0657 95.5764 43.3112 97.3545 41.3614 99.5867C39.4116 101.819 34.0509 101.214 32.4697 98.1916C30.8886 95.1689 32.4697 93.2071 32.4697 93.2071C32.4697 93.2071 29.4416 94.0063 26.6197 92.6577C23.7979 91.3091 23.411 87.3383 24.7596 84.9988C26.1082 82.6594 29.4416 81.7648 29.4416 81.7648C29.4416 81.7648 28.2347 78.9608 29.0318 75.9216C29.8289 72.8825 33.8716 71.5374 36.4054 72.7829C38.9392 74.0284 39.9662 76.9903 39.9662 76.9903ZM68.4885 92.5008C68.4885 92.5008 69.1451 90.2777 68.1048 88.6848C67.0645 87.0919 64.5567 87.2545 63.8787 87.6445C61.2147 89.1625 62.0257 92.2282 62.0257 92.2282C62.0257 92.2282 60.0752 91.0254 58.5832 91.2855C57.0912 91.5455 56.0766 93.2685 56.4017 94.6664C56.7268 96.0643 58.5832 97.1695 58.5832 97.1695C58.5832 97.1695 57.0519 98.0148 56.8243 99.8678C56.5968 101.721 58.2547 103.346 60.1402 103.249C62.0257 103.151 63.4886 100.68 63.4886 100.68C63.4886 100.68 63.4886 102.715 65.3416 103.736C67.1946 104.758 69.1776 103.801 69.7628 102.143C70.3479 100.485 68.9175 98.99 68.9175 98.99C68.9175 98.99 70.738 99.2826 71.9084 97.9823C73.0787 96.6819 72.9486 94.1462 71.7133 93.171C70.478 92.1957 68.4885 92.5008 68.4885 92.5008ZM64.2464 54.5086C61.8036 56.2238 61.5957 59.81 63.4667 61.6291C65.3378 63.4482 67.0048 63.8263 69.3764 62.9306C71.7481 62.0349 72.8636 59.8092 72.1796 57.1589C71.4956 54.5086 66.6891 52.7935 64.2464 54.5086ZM40.6672 88.8514C41.7001 88.1567 42.094 85.9902 40.6672 84.5669C39.2403 83.1435 37.1211 83.6022 36.2348 85.0055C35.3485 86.4087 35.8409 88.2661 37.0226 88.8514C38.2043 89.4368 39.6342 89.5462 40.6672 88.8514Z" stroke="black" stroke-width="1.6" stroke-linecap="round" stroke-linejoin="round"/>
</svg>
