<svg width="120" height="120" viewBox="0 0 120 120" fill="none" xmlns="http://www.w3.org/2000/svg">
<path d="M78.0746 29.4955C78.0748 33.1003 74.8247 37.6948 73.1996 39.5414L58.3522 31.6377L66.9188 23.4018L67.5848 27.2429L72.5703 24.8787L72.8667 29.4955H78.0746Z" fill="#E3E0D3"/>
<path d="M93.979 38.5366C91.9777 38.9744 87.6729 41.4291 85.7706 42.6017C85.7706 42.6017 84.502 41.4035 84.1158 39.5414C83.7656 37.8535 84.2758 35.5409 84.598 34.5497C84.598 34.5497 85.3104 31.1992 84.598 28.4329C83.9395 25.8763 81.8842 23.91 81.1583 23.4018C81.1583 23.4018 77.0926 22.0851 73.8881 19.9565C70.8258 17.9224 68.6212 15.0934 68.4939 14.2241L85.7706 8.75195L89.9139 14.2241L98.7477 18.3675C99.4773 19.2014 101.14 21.2287 101.953 22.6671C102.766 24.1055 101.614 29.7289 100.937 32.3608L99.6076 37.0513C98.5652 37.364 95.9803 38.0989 93.979 38.5366Z" fill="#E3E0D3"/>
<path d="M39.9032 70.9038C37.8638 79.8769 34.9748 100.729 33.7852 110.034H49.462C49.0796 108.759 48.1364 103.992 47.4226 95.1209C46.7089 86.2498 48.4848 78.3389 49.462 75.4923C49.462 67.6409 45.4683 59.2201 43.4714 55.9911C43.1317 57.2233 41.9425 61.9307 39.9032 70.9038Z" fill="#E3E0D3"/>
<path d="M69.473 110.034C71.5123 99.9389 71.4273 85.3491 71.1299 79.3161L76.4874 77.8736C76.4874 77.8736 80.1828 74.4784 80.3865 73.3379C80.3865 73.3379 79.2725 64.6378 78.7951 62.1975C78.7951 62.1975 69.2219 53.534 65.7778 49.0098L67.7343 47.7947C67.7343 47.7947 78.238 50.4206 79.1929 51.6142C80.1478 52.8078 84.2961 62.1975 86.0627 70.9038C87.8293 79.6101 90.0177 101.366 90.1395 110.034H69.473Z" fill="#E3E0D3"/>
<path d="M43.1377 55.3531C43.1377 55.3531 39.1293 74.7209 37.5929 82.3047C36.0565 89.8885 33.5812 109.842 33.5812 109.842M43.1377 55.3531C41.7245 52.7053 35.4324 42.5624 36.3518 40.6206C37.2712 38.6788 39.3887 35.4803 41.3324 32.9385C43.2761 30.3967 44.5903 27.9568 44.5903 27.0149C44.5903 26.0729 43.4112 24.4352 43.0752 23.6792C42.4872 22.2512 43.3644 20.3342 44.9268 19.6808C46.4893 19.0274 50.9463 18.7079 51.3873 20.1989M43.1377 55.3531C43.1377 55.3531 45.133 58.7344 46.7065 63.0507C48.2799 67.3671 49.3783 75.3452 49.3783 75.3452M51.3873 20.1989C56.9243 18.1829 62.4333 16.0619 68.0193 14.1859C73.6823 12.2819 79.4222 10.6229 85.1412 8.90092C85.4002 8.82392 86.0092 9.12492 86.1072 9.38392C87.7382 13.5839 91.4762 15.1309 95.2072 16.6639C98.1962 17.8889 101.185 19.2749 101.913 22.7399C102.319 24.6509 101.99 26.7719 101.71 28.7599C101.381 31.0489 100.562 33.2749 100.296 35.5709C100.093 37.3279 98.7282 37.6289 97.7132 37.7549C93.5552 38.2659 90.1042 40.3239 86.6742 42.4099C85.6032 43.0609 85.6033 42.7459 85.0783 41.8919C84.1543 40.4009 84.0982 39.0079 84.3222 37.3139C84.7842 33.7929 85.6453 30.1809 83.8673 26.7509C82.3203 23.7689 79.4433 22.3969 76.5593 21.2489C73.0943 19.8699 70.1263 18.0989 68.7683 14.4029M51.3873 20.1989C52.1363 22.7679 51.2742 27.8148 49.5102 29.5998C47.5314 33.8356 45.5177 39.9942 45.5177 39.9942L51.1273 47.6991H55.6714C53.1516 44.3848 53.7173 39.8351 55.2227 37.4485C56.7281 35.062 57.3129 34.3388 58.9308 32.9385M67.2047 47.6991C70.3967 48.4551 73.2904 48.606 76.4684 49.9145C79.6464 51.2231 81.5254 55.142 83.404 60.9956C85.2827 66.8493 86.3785 72.6701 87.9441 81.6777C89.5096 90.6853 90.1252 103.512 90.2932 110.561M71.8252 61.751L73.3736 72.6701C73.3736 72.6701 71.223 73.4443 69.9757 73.9605C68.7283 74.4766 67.8654 74.9812 66.2414 75.5762C65.1074 75.9962 64.1261 76.068 62.6644 75.7232C61.2027 75.3783 58.5171 75.1501 56.7281 76.6702C55.5135 77.7023 54.1044 78.9577 55.2227 80.7212C56.341 82.4847 59.245 82.8208 60.4597 82.3047C61.6744 81.7886 62.3123 81.7432 64.9863 80.4552C66.6173 79.6642 68.1277 79.5799 69.9757 79.2509C72.8247 78.7469 73.0332 78.8136 75.8682 78.2186C77.0792 77.9596 79.9973 75.8618 79.9973 73.1863C79.9973 70.5107 79.8683 67.2937 79.2418 62.632C77.9802 61.1288 67.6231 51.3221 65.5625 48.6547C67.0743 47.9258 68.9739 46.6611 70.1119 44.3848C71.2499 42.1086 71.3582 41.8919 71.9224 39.3672M25.5078 110.352C25.5078 110.352 46.7742 110.366 49.3712 110.352M49.3712 110.352C68.104 110.448 97.3395 110.597 97.3395 110.597M49.3712 110.352C48.7818 106.674 47.3623 94.7687 47.3623 89.5385C47.3623 84.3084 49.3783 75.3452 49.3783 75.3452M71.0574 79.7436C71.8252 85.7922 71.471 88.5563 71.0574 94.2387C70.5985 100.543 70.0284 104.984 69.5244 110.353M49.3783 75.3452L60.2118 75.4209C60.2118 75.4209 60.3757 67.99 60.4597 63.538M59.4516 91.8599C54.1224 92.8588 47.8661 90.9615 47.8661 90.9615M99.2391 59.4836C96.0051 59.2036 92.9601 60.0856 89.9221 60.9956M97.9791 52.4336C95.0391 53.6096 92.1061 54.7856 89.1661 55.9616M26.4604 36.8174C24.1084 35.8934 18.4336 34.0768 18.4336 34.0768M57.1835 42.1086C57.3585 44.3066 61.0609 45.7845 63.7837 44.8125M67.7606 64.7753C62.9656 63.1093 58.0656 63.3963 53.1516 64.0193M21.9244 25.232C24.3604 27.416 26.7964 29.6 29.2254 31.777M71.0574 90.9615C65.9964 93.0729 62.1856 92.2166 59.9555 91.8599M65.987 69.6871C65.987 69.6871 62.1265 69.2249 60.7044 69.0945C59.2822 68.9641 57.3514 69.0525 55.6714 69.0525M59.4516 86.4328C59.4516 86.4328 59.9555 100.993 59.9555 109.842M59.9555 109.842C60.0395 111.774 59.8715 107.917 59.9555 109.842ZM47.6145 21.7115C45.0945 22.8035 42.5745 23.8955 40.0615 24.9875M61.2208 28.2711C59.9749 29.5701 58.1766 31.7318 58.1766 31.7318L73.2278 39.9942C76.9288 36.3211 78.6113 29.2231 78.6113 29.2231H72.8804L72.6175 24.8592L67.8329 27.0149L66.7795 23.2345C66.7795 23.2345 63.2485 26.1569 61.2208 28.2711Z" stroke="black" stroke-width="1.2" stroke-linecap="round" stroke-linejoin="round"/>
<circle cx="60" cy="37.9414" r="0.972656" fill="black"/>
<circle cx="64.4336" cy="39.8867" r="0.972656" fill="black"/>
</svg>
