<svg width="120" height="120" viewBox="0 0 120 120" fill="none" xmlns="http://www.w3.org/2000/svg">
<path d="M33.6335 97.3959C33.6335 97.3959 33.0699 83.2743 33.1452 80.85L14.7539 80.5911L17.2017 14.2812H34.8801L90.8436 15.5825H108.631L107.878 80.5911H90.5151V86.301V108.254H33.6335V97.3959Z" fill="#F7F6EF"/>
<path d="M41.3594 72.6272V22.5879L84.3146 22.5879L83.2918 72.6272H41.3594Z" fill="#E3E0D3"/>
<path d="M90.0248 94.1015C90.0248 94.1015 86.7688 94.2055 82.8408 94.1015C74.5848 93.8775 55.5821 94.1015 52.3213 94.1015C49.0605 94.1015 35.7689 94.1849 33.1769 94.4729M33.1769 94.4729C32.9935 90.0881 32.9685 86.0159 33.0652 80.861M33.1769 94.4729C33.2329 95.8106 33.5125 99.1473 33.617 102.52M34.801 14.3809H17.092C16.9494 17.6614 14.617 80.5731 14.617 80.5731C14.617 80.5731 31.7512 81.4245 33.0652 80.861M34.801 14.3809C34.801 14.3809 51.1769 14.3809 62.401 14.3809C73.6251 14.3809 90.9367 15.3932 90.9367 15.3932M34.801 14.3809C34.897 17.2609 33.0652 50.6459 33.0652 50.6459C33.0652 50.6459 33.0652 69.0612 33.0652 80.861M34.801 14.3809C36.913 16.9729 39.2558 19.2542 41.3598 21.8382M33.0652 80.861C34.2172 80.861 35.9206 80.853 37.0726 80.861C48.0168 80.937 52.7847 80.861 58.7628 80.861C64.7409 80.861 89.4488 80.6691 90.0248 80.5731M33.0652 80.861L40.7791 73.2303M90.9367 15.3932H108.57C108.57 15.3932 107.943 59.7579 107.943 63.1694C107.943 66.5809 107.943 80.861 107.943 80.861L90.0248 80.5731M90.9367 15.3932C90.9367 15.3932 91.0567 36.2448 90.9367 44.8848C90.8407 51.9808 90.6492 59.2224 90.5692 66.3184C90.5212 70.8304 90.0248 80.5731 90.0248 80.5731M90.9367 15.3932L84.297 22.355M90.0248 80.5731C90.0248 80.5731 90.5212 85.2779 90.5692 86.9099C90.7292 91.9979 90.5692 102.445 90.5692 102.445M90.0248 80.5731C90.0248 80.5731 86.6127 75.7705 83.6791 72.7007M90.5692 102.445H112.761M90.5692 102.445V107.788L33.617 108.166C33.617 108.166 33.6996 105.186 33.617 102.52M84.297 22.355C84.297 22.355 45.9678 21.6462 41.3598 21.8382M84.297 22.355C84.297 22.355 83.9204 53.0395 83.6791 72.7007M41.3598 21.8382C40.9758 30.2782 40.7791 41.3456 40.7791 48.2495C40.7791 55.1534 40.7791 73.2303 40.7791 73.2303M83.6791 72.7007C78.4642 72.8279 40.7791 73.2303 40.7791 73.2303M33.617 102.52C33.617 102.52 14.3785 103.252 8.03906 103.298M70.1127 99.6319C70.1127 99.6319 57.6013 99.8899 52.3213 100.098M69.5933 86.9099C69.5933 86.9099 58.0733 86.6539 52.3213 87.1979M38.3294 28.594C52.8561 28.594 82.9604 28.594 87.1639 28.594" stroke="black" stroke-width="1.2" stroke-linecap="round" stroke-linejoin="round"/>
<path d="M69.1328 32.3439C69.533 30.4574 71.271 30.2368 72.2568 30.2732M72.2568 30.2732V27.9235C72.896 27.6878 73.8798 27.4148 73.7344 25.5979C73.5891 23.7811 71.3362 23.8538 70.9729 24.9681M72.2568 30.2732C73.2425 30.3096 74.3005 30.7081 74.8074 32.3439" stroke="black" stroke-linecap="round" stroke-linejoin="round"/>
<path d="M73.0395 57.4574C74.4708 57.875 78.8276 58.0741 79.2776 58.0358C79.5676 58.0111 79.8576 57.8778 80.0563 57.6255C80.0563 58.2255 80.3262 58.7474 80.9262 58.8974C81.5262 59.0474 84.3762 58.8974 84.8262 58.7474C85.2762 58.5974 85.5762 58.2974 85.5762 57.8474C85.5762 57.3974 85.4951 56.891 85.2761 56.4974C85.439 55.9002 85.5761 53.9474 85.4261 52.1474C85.2761 50.3474 85.1123 48.6995 84.8261 47.4974C84.0761 44.3474 84.3761 42.9974 83.4761 39.5474C83.0117 37.7673 81.6761 35.3474 79.7261 33.5474C79.3747 33.223 79.0345 32.9439 78.6839 32.6922L78.6974 32.6689C78.8479 32.4046 78.9076 32.0997 78.5831 31.8313C78.2587 31.5629 77.9663 31.375 77.4498 31.1497C76.945 30.9295 76.6178 31.223 76.2302 31.6191L71.9273 35.8746L67.6188 31.6139C67.2335 31.2205 66.9069 30.9305 66.4043 31.1497C65.8878 31.375 65.5955 31.5629 65.271 31.8313C64.9465 32.0997 65.0062 32.4046 65.1568 32.6689L65.1697 32.6914C64.8217 32.9418 64.4728 33.2254 64.1239 33.5475C62.1739 35.3475 60.8383 37.7674 60.3739 39.5475C59.4739 42.9975 59.7739 44.3474 59.0239 47.4974C58.7377 48.6996 58.5739 50.3474 58.4239 52.1474C58.2739 53.9474 58.4111 55.9003 58.5739 56.4974C58.3549 56.891 58.4239 57.3975 58.4239 57.8475C58.4239 58.2975 58.5738 58.5975 59.0238 58.7475C59.4738 58.8975 62.3238 59.0475 62.9238 58.8975C63.5238 58.7475 63.6738 58.3636 63.6738 57.7636C63.9032 57.9223 64.2147 58.0064 64.5762 58.0523C65.0936 58.118 68.6679 58.0528 71.9273 57.6219C72.304 57.5721 72.6765 57.5174 73.0395 57.4574Z" fill="#F7F6EF"/>
<path d="M64.2762 40.2975C64.2508 42.8387 64.0245 46.5107 63.6761 48.0975C63.3082 49.7728 63.2993 51.179 63.4039 52.4084C63.47 53.1841 63.5813 53.8894 63.6761 54.5475C63.4422 55.2491 63.2262 56.1975 63.2587 56.9475C63.2756 57.336 63.4273 57.5929 63.6738 57.7636M79.5776 40.2975C79.6031 42.8387 79.5292 46.5107 79.8776 48.0975C80.2421 49.7572 80.2542 51.1529 80.1526 52.3741C80.087 53.1633 79.9738 53.8797 79.8776 54.5475C80.122 55.2807 80.3951 56.4975 80.2864 57.0975C80.2477 57.3108 80.1659 57.4863 80.0563 57.6255M71.9273 57.6219C68.6679 58.0528 65.0936 58.118 64.5762 58.0523C64.2147 58.0064 63.9032 57.9223 63.6738 57.7636M71.9273 57.6219C72.304 57.5721 72.6765 57.5174 73.0395 57.4574C74.4708 57.875 78.8276 58.0741 79.2776 58.0358C79.5676 58.0111 79.8576 57.8778 80.0563 57.6255M71.9273 57.6219L71.9271 36.1724M71.9271 36.1724C71.9271 36.1724 71.1866 37.4129 70.5818 37.8802C69.9771 38.3475 69.3125 37.8771 68.3271 36.6975C67.5796 35.8025 66.9945 35.1791 66.2167 34.1205C65.9732 33.7892 65.4402 33.1565 65.1697 32.6914M71.9271 36.1724C71.9271 36.1724 70.8673 35.0724 69.887 34.056C69.191 33.3344 67.8268 31.8273 67.6188 31.6139C67.2335 31.2205 66.9069 30.9305 66.4043 31.1497C65.8878 31.375 65.5955 31.5629 65.271 31.8313C64.9465 32.0997 65.0062 32.4046 65.1568 32.6689C65.161 32.6764 65.1654 32.6839 65.1697 32.6914M71.9271 36.1724C71.9271 36.1724 72.6676 37.4129 73.2723 37.8802C73.877 38.3475 74.5417 37.8771 75.527 36.6975C76.2746 35.8025 76.8597 35.1791 77.6375 34.1205C77.8808 33.7894 78.4133 33.1573 78.6839 32.6922M71.9271 36.1724C71.9271 36.1724 72.9869 35.0724 73.9671 34.056C74.6631 33.3344 75.9953 31.8601 76.2033 31.6467C76.2123 31.6374 76.2213 31.6282 76.2302 31.6191C76.6178 31.223 76.945 30.9295 77.4498 31.1497C77.9663 31.375 78.2587 31.5629 78.5831 31.8313C78.9076 32.0997 78.8479 32.4046 78.6974 32.6689C78.693 32.6766 78.6885 32.6844 78.6839 32.6922M63.6738 57.7636C63.6738 58.3636 63.5238 58.7475 62.9238 58.8975C62.3238 59.0475 59.4738 58.8975 59.0238 58.7475C58.5738 58.5975 58.4239 58.2975 58.4239 57.8475C58.4239 57.3975 58.3549 56.891 58.5739 56.4974C58.4111 55.9003 58.2739 53.9474 58.4239 52.1474C58.5739 50.3474 58.7377 48.6996 59.0239 47.4974C59.7739 44.3474 59.4739 42.9975 60.3739 39.5475C60.8383 37.7674 62.1739 35.3475 64.1239 33.5475C64.4728 33.2254 64.8217 32.9418 65.1697 32.6914M80.0563 57.6255C80.0563 58.2255 80.3262 58.7474 80.9262 58.8974C81.5262 59.0474 84.3762 58.8974 84.8262 58.7474C85.2762 58.5974 85.5762 58.2974 85.5762 57.8474C85.5762 57.3974 85.4951 56.891 85.2761 56.4974C85.439 55.9002 85.5761 53.9474 85.4261 52.1474C85.2761 50.3474 85.1123 48.6995 84.8261 47.4974C84.0761 44.3474 84.3761 42.9974 83.4761 39.5474C83.0117 37.7673 81.6761 35.3474 79.7261 33.5474C79.3747 33.223 79.0345 32.9439 78.6839 32.6922" stroke="black" stroke-width="1.2" stroke-linecap="round" stroke-linejoin="round"/>
</svg>
