<svg width="120" height="120" viewBox="0 0 120 120" fill="none" xmlns="http://www.w3.org/2000/svg">
<path d="M24.3277 102.986C20.8478 108.435 15.1085 109.907 12.6739 109.962C11.6502 109.787 12.0462 109.902 21.8201 111.767C31.5941 113.633 39.7556 111.341 42.6146 109.962L87.5819 107.896L106.235 105.666C114.172 95.4613 97.5216 92.1875 88.2042 91.8262L53.3789 93.7957L52.8044 96.5859C51.0319 97.9646 48.2362 97.981 47.06 97.8168L46.2393 94.4522L44.3519 93.7957L41.8079 94.8625L40.9052 92.5647L39.5101 91.8262L36.6378 92.5647V89.9387L35.6531 88.8711L30.8934 89.3639C30.1548 91.6343 27.8077 97.5374 24.3277 102.986Z" fill="#BDBDBD"/>
<path d="M105.927 105.755C99.318 106.633 92.2005 107.483 87.0908 107.759C81.9811 108.036 67.0863 108.602 62.6058 108.907C58.1254 109.212 47.1605 109.899 42.6634 110.359M53.5632 93.9751C53.5632 93.9751 63.5023 93.1521 68.3954 92.8046C73.2886 92.457 87.7267 91.7928 87.7267 91.7928M43.2537 82.7013C37.6479 82.447 34.9534 85.2298 32.8725 87.1274C30.7916 89.025 28.8032 94.8291 26.9424 98.3871C25.0815 101.945 22.8004 105.806 18.9102 107.561C15.0201 109.316 11.4551 109.977 11.4551 109.977C11.4551 109.977 18.4028 111.528 24.238 112.098C30.0733 112.667 37.6682 112.416 42.1255 110.359C46.5827 108.302 51.6918 102.568 52.5767 97.3909C53.4616 92.214 52.7193 88.6761 52.5767 87.1274M57.7824 76.3921C57.7824 80.7952 56.077 83.1829 54.9607 84.5472C53.8444 85.9116 51.6118 87.1274 49.5343 86.6867C47.4568 86.2461 46.0924 85.4008 44.9141 84.0511C43.7358 82.7013 43.5696 80.2991 44.1079 78.2526C44.6463 76.2061 46.4645 73.6014 49.9064 71.5549M31.3623 89.6868C31.3623 89.6868 34.6582 88.604 35.8509 89.1049C37.0437 89.6059 36.7152 92.457 36.7152 92.457C36.7152 92.457 38.796 91.1285 40.1751 91.7928C41.5542 92.457 41.8388 95.2086 41.8388 95.2086C41.8388 95.2086 44.1781 93.1686 45.5778 93.9751C46.9775 94.7816 46.9775 97.8178 46.9775 97.8178C46.9775 97.8178 48.6703 98.3871 52.2758 96.6854M41.3284 100.718C38.2498 105.157 32.412 107.037 32.412 107.037M33.9126 97.3909C32.8725 100.968 30.9169 103.345 28.657 104.121M91.2914 25.9049C94.6082 24.568 95.4806 21.0745 95.2491 20.0091C95.0177 18.9437 93.7483 17.8381 92.0285 18.2074C90.3087 18.5767 88.5479 20.0077 87.7699 23.3661M10.2305 76.3921H44.1079M58.4405 76.3921H109.386M51.0666 66.4694C52.8294 64.0752 69.8265 43.5301 69.8265 43.5301C69.8265 43.5301 79.1901 31.1598 84.0566 25.1204C85.4822 23.3514 87.2315 23.084 89.3051 24.568C91.5343 26.162 91.7613 27.1876 90.556 29.3C87.9835 33.7907 85.0415 38.0545 82.1903 42.3702C75.5613 52.3818 68.9498 62.5398 62.6058 72.7328C61.6274 74.301 59.6964 76.7285 57.6015 75.8751C55.5067 75.0216 51.317 72.2038 50.491 71.3751C49.665 70.5464 49.3038 68.8636 51.0666 66.4694Z" stroke="black" stroke-width="1.2" stroke-linecap="round" stroke-linejoin="round"/>
<path d="M47.3066 56.0288C47.3541 54.4065 48.6171 50.856 53.2887 49.6321M43.1367 54.2208C43.1831 52.3667 44.6942 48.2135 50.3677 46.4336" stroke="black" stroke-width="1.08" stroke-linecap="round"/>
<path d="M79.17 64.1784C80.6554 63.5245 83.4707 61.0195 82.8488 56.2304M82.4128 67.3628C84.1135 66.6229 87.3941 63.6614 86.9108 57.7349" stroke="black" stroke-width="1.08" stroke-linecap="round"/>
</svg>
