<svg width="120" height="121" viewBox="0 0 120 121" fill="none" xmlns="http://www.w3.org/2000/svg">
<path d="M34.4141 89.4026L26.043 84.0198L26.9408 66.0852L43.0835 43.5653L61.3186 40.1768C66.5666 42.0036 78.6371 47.2516 84.9347 53.6289C91.2323 60.0063 94.0024 68.8415 94.6003 72.462L89.3191 75.1524L86.1304 68.9744C83.5396 63.8261 75.9865 53.2703 66.5002 52.234C54.6424 50.9386 50.6565 52.832 43.781 59.8072C38.2805 65.3873 36.5068 77.0789 36.3075 82.2271L34.4141 89.4026Z" fill="#CFDEC7"/>
<path d="M29.1091 87.0829H19.9958L16.875 80.4662L25.6143 47.881L51.4577 30.0283L78.6744 35.021L99.7737 57.4935V72.1006H94.1555C91.1592 63.2365 92.4077 65.1092 85.5411 54.7468C78.6745 44.3845 67.0636 43.7606 59.8225 43.5109C52.5814 43.2612 41.5948 46.6325 34.4785 58.7427C28.7854 68.4309 28.5268 81.6729 29.1091 87.0829Z" fill="#F0E3A3"/>
<path d="M28.3526 53.0866C21.2169 63.0337 20.9627 77.506 21.7276 83.4987L19.2948 92.5545C17.988 92.6896 15.0502 91.0677 13.7526 83.4987C12.1307 74.0374 14.8337 64.5763 17.4018 57.0073C19.9698 49.4384 31.7287 32.9475 48.6238 28.7575C65.5188 24.5676 75.791 29.4333 89.0367 39.4352C99.6332 47.4367 104.805 61.4213 106.067 67.4134L102.688 72.4143L98.4979 66.4672C98.3627 66.0167 96.9841 62.899 92.5508 54.0325C87.0093 42.9494 72.8174 34.4352 59.5717 34.4352C46.326 34.4352 37.2721 40.6526 28.3526 53.0866Z" fill="#EAD4D4"/>
<path d="M13.9079 84.0776C9.95855 84.1586 8.4993 87.4707 8.26335 89.1166C5.34313 89.1166 3.92896 91.6352 3.7274 95.4649C3.56615 98.5286 7.55708 100.437 9.5727 101.008C8.32973 102.52 7.45662 105.926 13.9079 107.458C20.3591 108.99 22.5745 105.005 22.8758 102.822C22.9766 103.729 24.4077 105.543 29.3258 105.543C34.2439 105.543 36.0781 101.982 36.3804 100.202C37.8586 101.613 41.7017 103.185 45.2492 98.186C48.7967 93.1872 44.7789 90.0569 42.3265 89.1166C42.7632 87.4369 42.6893 83.775 38.9 82.5646C35.1106 81.3543 32.282 83.6738 31.3414 84.9848C30.8375 84.1781 28.963 82.5646 25.4961 82.5646C22.0292 82.5646 19.886 85.3198 19.2477 86.6974C19.1133 85.7903 17.8572 83.9965 13.9079 84.0776Z" fill="#E3E0D3"/>
<path d="M86.2594 68.9447C82.3101 69.0258 80.8509 72.3379 80.6149 73.9838C77.6947 73.9838 76.2805 76.5024 76.079 80.3321C75.9177 83.3958 79.9086 85.3039 81.9243 85.875C80.6813 87.3868 79.8082 90.7931 86.2594 92.325C92.7107 93.8569 94.9261 89.8727 95.2273 87.6891C95.3281 88.5961 96.7592 90.4102 101.677 90.4102C106.595 90.4102 108.43 86.8493 108.732 85.0688C110.21 86.4797 114.053 88.0519 117.601 83.0532C121.148 78.0544 117.13 74.9241 114.678 73.9838C115.115 72.3041 115.041 68.6422 111.252 67.4318C107.462 66.2215 104.634 68.541 103.693 69.852C103.189 69.0453 101.315 67.4318 97.8477 67.4318C94.3808 67.4318 92.2375 70.187 91.5992 71.5645C91.4649 70.6575 90.2088 68.8637 86.2594 68.9447Z" fill="#E3E0D3"/>
<path d="M105.838 67.1057C101.296 49.3073 91.564 41.5213 84.5206 36.2007C77.4771 30.88 66.1834 26.5447 58.016 27.333C49.8486 28.1212 41.84 29.9933 32.2011 37.6422C22.5621 45.2911 17.6186 53.739 15.2539 64.6269C12.8892 75.5148 13.5141 83.7676 13.5141 83.7676M36.2575 81.6002C36.8516 76.4839 37.7029 66.7065 43.6627 59.6578C49.6224 52.609 56.3148 51.7546 61.2491 51.7546C66.1834 51.7546 71.6442 53.2498 76.3434 57.0946C81.0426 60.9394 84.2209 64.6335 85.8461 68.7437M98.5047 66.7296C97.1681 62.4931 95.0718 57.6642 91.8308 53.0362C88.5898 48.4082 79.4241 34.1804 59.2395 34.4671C39.0549 34.7538 30.2112 49.658 25.7874 57.7249C21.3637 65.7918 21.0587 76.4909 21.5646 83.7676M48.0059 45.845C41.9762 48.7855 37.8955 53.1074 33.4811 60.5122C29.0667 67.917 28.8535 80.5172 28.4971 82.2993M68.9583 44.5278C77.9373 46.2632 82.0543 50.3809 85.9546 55.112C89.855 59.8432 92.5163 65.0879 93.4076 69.3664M46.4144 12.2217L46.4144 17.5653M103.584 36.8488V43.1918M55.4974 45.2529C55.4974 45.2529 57.1365 46.9362 60.1575 46.7313C63.1786 46.5265 63.9519 44.5278 63.9519 44.5278M65.6461 12.7789V18.1428M80.2383 98.8172L80.2383 104.086M115.071 54.2092V60.3502M1 68.3702V75.3602M85.6873 23.7568C85.6873 23.7568 85.8729 27.4993 85.9546 29.3631M60.3066 90.2759V95.6223M48.8204 72.112L49.6224 77.9857M59.2395 40.1196L59.2395 43.1918M25.3103 21.895V28.039M8.74312 40.1193V46.2632M66.9844 65.2314L66.9844 70.5002M52.8585 102.574L52.8585 107.842M98.5047 99.5149L98.5047 104.784M31.4865 84.9361C31.4865 84.9361 30.1896 83.3507 28.8463 82.9801C27.503 82.6096 24.8628 81.7758 22.1299 83.7676C19.397 85.7593 19.3998 87.0389 19.3998 87.0389C19.3998 87.0389 18.7097 84.9361 16.02 84.4023C13.3302 83.8685 11.7383 84.5534 10.311 85.6977C8.88382 86.842 8.33489 89.156 8.33489 89.156C8.33489 89.156 5.86469 89.7049 4.54725 91.736C3.22981 93.767 3.33959 97.0057 5.26086 98.8172C7.18213 100.629 9.37786 100.684 9.37786 100.684C9.37786 100.684 8.06042 103.685 10.86 106.008C13.6595 108.331 17.5021 108.314 20.0272 106.722C22.5523 105.13 22.871 102.574 22.871 102.574C22.871 102.574 23.8437 104.954 27.0861 105.431C30.3285 105.909 32.7204 105.353 34.3584 103.685C35.9963 102.018 36.2575 100.35 36.2575 100.35C36.2575 100.35 39.9168 101.879 42.8349 100.35C45.7531 98.8216 46.7586 95.6302 46.1564 92.9436C45.5542 90.2571 42.2041 89.2658 42.2041 89.2658C42.2041 89.2658 42.8831 85.7593 41.84 84.2308C40.7969 82.7022 38.2029 81.4516 35.2385 82.2993C32.274 83.1471 31.4865 84.9361 31.4865 84.9361ZM104.163 69.3664C104.163 69.3664 102.866 67.7809 101.523 67.4104C100.179 67.0398 97.5392 66.2061 94.8063 68.1978C92.0734 70.1896 92.0762 71.4691 92.0762 71.4691C92.0762 71.4691 91.3861 69.3664 88.6964 68.8326C86.0066 68.2988 84.4147 68.9836 82.9874 70.128C81.5602 71.2723 81.0113 73.5862 81.0113 73.5862C81.0113 73.5862 78.5411 74.1352 77.2236 76.1662C75.9062 78.1973 76.016 81.436 77.9373 83.2475C79.8585 85.0589 82.0543 85.1138 82.0543 85.1138C82.0543 85.1138 80.7368 88.1154 83.5364 90.4385C86.3359 92.7616 90.1785 92.744 92.7036 91.1521C95.2287 89.5602 95.5474 87.0038 95.5474 87.0038C95.5474 87.0038 96.5201 89.3842 99.7625 89.8615C103.005 90.3388 105.397 89.783 107.035 88.1154C108.673 86.4479 108.934 84.7804 108.934 84.7804C108.934 84.7804 112.593 86.309 115.511 84.7804C118.43 83.2518 119.435 80.0604 118.833 77.3739C118.231 74.6873 114.88 73.696 114.88 73.696C114.88 73.696 115.56 70.1896 114.516 68.661C113.473 67.1325 110.879 65.8818 107.915 66.7296C104.95 67.5773 104.163 69.3664 104.163 69.3664Z" stroke="black" stroke-width="1.48513" stroke-linecap="round" stroke-linejoin="round"/>
<circle cx="54.5195" cy="41.3447" r="0.972656" fill="black"/>
<circle cx="63.4062" cy="41.3447" r="0.972656" fill="black"/>
</svg>
