<svg width="120" height="120" viewBox="0 0 120 120" fill="none" xmlns="http://www.w3.org/2000/svg">
<path d="M84.3142 31.5163C81.7714 33.9168 83.2547 39.2639 84.3142 41.6374C85.4123 41.7749 87.9971 42.2619 89.5505 43.1093C91.104 43.9566 92.787 45.463 93.4342 46.1103C93.8854 45.9338 95.2113 45.5101 96.906 45.2277C99.0244 44.8746 100.907 41.6374 99.4363 38.7548C98.2594 36.4488 94.7092 36.4994 93.0812 36.813C93.0812 36.813 91.7866 33.6469 91.7866 32.9878C91.7866 32.164 87.4927 28.5157 84.3142 31.5163Z" fill="#F0E3A3"/>
<path d="M64.6106 78.4042C61.2689 77.6694 61.4083 74.7569 61.8958 73.3925C60.4339 73.3925 57.7647 73.3925 57.723 69.7595C57.6896 66.8532 60.8549 65.8481 62.4417 65.7089C60.646 62.8274 60.4372 59.8203 64.6106 58.6927C67.9494 57.7907 69.066 61.6582 69.2069 63.7047C71.2448 61.9675 73.9537 63.1753 75.0534 63.9964C77.1247 66.1012 74.775 68.7155 73.3412 69.7595C74.0094 69.8848 77.2667 72.0981 75.5545 74.7291C74.1848 76.8338 71.0583 75.8566 69.6663 75.1049C69.5828 76.8174 68.7877 79.3227 64.6106 78.4042Z" fill="#E8D8E8"/>
<path d="M75.0532 99.6082C71.7115 98.8734 71.8509 95.9609 72.3383 94.5965C70.8764 94.5965 68.2073 94.5965 68.1656 90.9635C68.1321 88.0572 71.2974 87.0521 72.8843 86.9129C71.0885 84.0314 70.8797 81.0243 75.0532 79.8967C78.3919 78.9947 79.5085 82.8622 79.6495 84.9087C81.6874 83.1715 84.3963 84.3793 85.496 85.2005C87.5673 87.3052 85.2176 89.9195 83.7838 90.9635C84.452 91.0888 87.7093 93.3021 85.9971 95.9331C84.6274 98.0378 81.5009 97.0606 80.1089 96.3089C80.0253 98.0214 79.2303 100.527 75.0532 99.6082Z" fill="#E8D8E8"/>
<path d="M89.3959 85.7381C89.1311 81.9444 92.2803 81.1794 93.8881 81.2711C93.4294 79.7123 92.5921 76.8663 96.4527 75.6821C99.5411 74.7347 101.606 77.7944 102.252 79.4427C104.761 76.624 107.902 75.458 110.414 79.5543C112.423 82.8313 108.649 85.2352 106.511 86.0275C109.003 87.6554 108.565 90.9228 108.034 92.3529C106.44 95.2218 102.915 93.5365 101.352 92.3352C101.428 93.087 100.09 97.2545 96.7479 96.2542C94.074 95.454 94.1351 91.8138 94.4999 90.0937C92.6478 90.5419 89.7269 90.4801 89.3959 85.7381Z" fill="#E8D8E8"/>
<path d="M55.4115 94.7102C53.6042 98.0561 50.5347 97.0163 49.2259 96.0781C48.7788 97.6402 47.9623 100.492 44.0676 99.4257C40.9519 98.5724 40.8461 94.8827 41.1826 93.1446C37.5544 94.182 34.2773 93.4853 34.349 88.6809C34.4064 84.8375 38.8805 84.8273 41.1104 85.3026C39.8774 82.5936 41.9967 80.0686 43.2105 79.1446C46.093 77.5751 48.1678 80.8856 48.8448 82.737C49.1831 82.0613 52.5444 79.2577 54.832 81.892C56.662 83.9994 54.6615 87.0413 53.4325 88.2988C55.2368 88.9118 57.6707 90.5277 55.4115 94.7102Z" fill="#E8D8E8"/>
<path d="M30.0754 94.7102C28.268 98.0561 25.1986 97.0163 23.8897 96.0781C23.4426 97.6402 22.6262 100.492 18.7315 99.4257C15.6157 98.5724 15.5099 94.8827 15.8465 93.1446C12.2182 94.182 8.94115 93.4853 9.01287 88.6809C9.07025 84.8375 13.5444 84.8273 15.7742 85.3026C14.5413 82.5936 16.6605 80.0686 17.8743 79.1446C20.7568 77.5751 22.8316 80.8856 23.5087 82.737C23.8469 82.0613 27.2083 79.2577 29.4958 81.892C31.3258 83.9994 29.3253 87.0413 28.0963 88.2988C29.9006 88.9118 32.3345 90.5277 30.0754 94.7102Z" fill="#E8D8E8"/>
<path d="M49.4459 27.557C49.0087 17.5003 40.2636 14.2644 33.0045 15.2259C20.1481 19.336 20.4124 30.7047 21.0245 33.4156C21.6367 36.1266 25.7468 44.3469 38.3397 42.9477C48.414 41.8284 49.9414 32.2208 49.4459 27.557Z" fill="#F0E3A3"/>
<circle cx="39.543" cy="26.168" r="0.972656" fill="black"/>
<circle cx="30.7852" cy="28.1133" r="0.972656" fill="black"/>
<path d="M93.5379 46.0093C95.9859 45.5533 97.8635 45.5694 99.1465 43.4433C100.429 41.3172 100.1 38.6412 97.9368 37.4315C95.774 36.2218 92.988 36.9183 92.988 36.9183C92.988 36.9183 92.6581 33.8757 91.2651 32.2628C89.8722 30.6499 87.5873 30.1306 85.6853 30.9346C83.7233 31.7566 81.1914 34.3889 84.1903 41.0606M41.0125 32.5413C41.0125 32.5413 40.1401 35.231 36.9415 35.6672C33.7429 36.1033 31.1083 33.4012 31.1083 33.4012M61.2867 113.915C59.5713 94.5107 64.3809 78.9127 64.3809 78.9127M82.3208 41.6471C82.3208 41.6471 80.2237 38.1988 75.8034 40.1091M58.5519 16.887L53.9839 19.3549M30.6832 47.8159C29.9272 49.8319 28.9497 53.7762 28.9497 53.7762M55.1142 30.8004L61.5459 31.4564M17.7302 40.7391C16.5182 41.1891 12.6234 43.4899 12.6234 43.4899M46.9243 5.67456L44.4326 10.6578M13.7203 27.7849C11.7874 27.7849 8.77074 27.7849 8.77074 27.7849M43.6312 46.6623L46.2232 52.4303M52.7032 40.7391L58.0944 43.4899M29.9944 9.22698L28.3857 3.71094M14.2841 12.127C14.2841 12.127 18.1849 15.9776 19.0262 15.9165M21.1696 100.18C20.7089 101.885 20.1821 107.118 21.7595 114.414M45.1742 100.18C44.8045 102.83 44.4718 109.386 46.0985 114.414M77.8949 99.5668C78.3351 101.116 81.1239 108.088 80.9911 113.399M101.033 94.8499C101.758 97.4515 102.854 104.907 101.436 113.915M35.5989 28.4228L36.0743 30.8004M38.9043 15.2685C43.1992 15.9165 47.1916 18.7189 48.8636 24.472C50.5356 30.2251 49.2764 34.5739 46.2232 39.0678C43.1699 43.5617 35.6383 43.7364 32.1895 42.8641C28.7406 41.9917 23.1293 39.6918 21.3119 34.5172C19.4945 29.3426 21.7454 23.4413 25.4555 19.3549C29.1657 15.2685 34.6093 14.6205 38.9043 15.2685ZM69.0416 63.8384C69.0416 63.8384 69.1192 60.3252 67.6432 59.2632C66.4852 58.4292 65.3437 58.2999 63.9234 58.735C62.5032 59.17 61.4573 60.308 61.2867 61.9384C61.1161 63.5687 62.6402 66.0685 62.6402 66.0685C62.6402 66.0685 60.2677 65.5958 58.7899 67.2985C57.312 69.0013 57.6012 71.2502 58.7899 72.5353C59.9786 73.8204 62.0347 73.4349 62.0347 73.4349C62.0347 73.4349 61.4886 74.9448 62.0347 76.6797C62.5809 78.4146 66.9551 79.539 68.396 77.9969C69.8368 76.4548 69.5847 74.7842 69.5847 74.7842C69.5847 74.7842 71.548 76.1708 73.3969 75.9226C75.2457 75.6744 76.4652 73.8059 75.7571 72.1341C75.049 70.4622 73.0625 69.7148 73.0625 69.7148C73.0625 69.7148 75.1788 68.9049 75.5925 66.8166C76.0061 64.7283 74.7572 63.3147 72.5575 62.8971C70.3579 62.4794 69.0416 63.8384 69.0416 63.8384ZM82.1008 42.4169C81.8809 44.0947 85.3893 43.7366 88.0393 45.0196C90.6893 46.3026 92.2916 49.0519 93.5379 48.4287C94.7842 47.8055 93.5379 46.2659 92.4015 45.2762C91.2651 44.2864 90.6893 43.7732 89.1024 42.8991C87.5154 42.025 82.3208 40.7391 82.1008 42.4169ZM79.2932 84.9142C79.2932 84.9142 79.3709 81.4011 77.8949 80.3391C76.7369 79.5051 75.5954 79.3758 74.1751 79.8108C72.7548 80.2459 71.709 81.3838 71.5384 83.0142C71.3677 84.6446 72.8919 87.1444 72.8919 87.1444C72.8919 87.1444 70.5194 86.6716 69.0416 88.3744C67.5637 90.0771 67.8528 92.3261 69.0416 93.6111C70.2303 94.8962 72.2864 94.5107 72.2864 94.5107C72.2864 94.5107 71.7403 96.0207 72.2864 97.7556C72.8326 99.4904 77.2067 100.615 78.6476 99.0728C80.0885 97.5307 79.8363 95.8601 79.8363 95.8601C79.8363 95.8601 81.7997 97.2467 83.6485 96.9985C85.4974 96.7503 86.7169 94.8818 86.0088 93.2099C85.3007 91.5381 83.3142 90.7907 83.3142 90.7907C83.3142 90.7907 85.4305 89.9808 85.8441 87.8925C86.2578 85.8042 85.0088 84.3906 82.8092 83.973C80.6096 83.5553 79.2932 84.9142 79.2932 84.9142ZM106.582 86.0261C106.582 86.0261 110.484 84.9436 111.165 82.9619C111.7 81.407 111.463 80.1046 110.511 78.6823C109.559 77.2599 107.955 76.4845 106.1 76.8384C104.244 77.1923 101.993 79.7052 101.993 79.7052C101.993 79.7052 101.726 76.9305 99.3556 75.8662C96.9856 74.8019 94.6005 75.8688 93.578 77.6076C92.5554 79.3465 93.6645 81.4868 93.6645 81.4868C93.6645 81.4868 91.8169 81.3864 90.0845 82.5658C88.352 83.7453 88.566 88.9453 90.7466 90.0222C92.9271 91.0991 94.6865 90.2653 94.6865 90.2653C94.6865 90.2653 93.8095 92.8926 94.6982 94.8499C95.5868 96.8072 98.0539 97.5312 99.6629 96.194C101.272 94.8569 101.436 92.4166 101.436 92.4166C101.436 92.4166 103.033 94.4822 105.475 94.2441C107.916 94.0061 109.061 92.158 108.79 89.5923C108.519 87.0265 106.582 86.0261 106.582 86.0261ZM41.0234 85.3369C41.0234 85.3369 37.1518 84.1505 35.5118 85.4546C34.2243 86.4776 33.7234 87.703 33.761 89.4142C33.7986 91.1255 34.733 92.6417 36.4875 93.3415C38.2421 94.0413 41.4916 93.1341 41.4916 93.1341C41.4916 93.1341 40.2243 95.6169 41.6497 97.7891C43.075 99.9613 45.6595 100.345 47.4569 99.4292C49.2543 98.5135 49.4707 96.1126 49.4707 96.1126C49.4707 96.1126 50.9742 97.1912 53.0691 97.1289C55.164 97.0666 57.781 92.5681 56.5221 90.4873C55.2633 88.4065 53.3317 88.1629 53.3317 88.1629C53.3317 88.1629 55.4843 86.4199 55.7881 84.2919C56.092 82.1639 54.4018 80.2264 52.3261 80.488C50.2503 80.7496 48.7993 82.7184 48.7993 82.7184C48.7993 82.7184 48.564 80.1179 46.3778 79.0051C44.1916 77.8924 42.2328 78.8346 41.0807 81.1431C39.9287 83.4516 41.0234 85.3369 41.0234 85.3369ZM15.8151 85.3365C15.8151 85.3365 11.9436 84.1501 10.3036 85.4543C9.01605 86.4772 8.51513 87.7026 8.55274 89.4139C8.59035 91.1251 9.52474 92.6413 11.2793 93.3411C13.0338 94.041 16.2833 93.1337 16.2833 93.1337C16.2833 93.1337 15.016 95.6166 16.4414 97.7887C17.8668 99.9609 20.4513 100.345 22.2486 99.4289C24.046 98.5132 24.2625 96.1123 24.2625 96.1123C24.2625 96.1123 25.7659 97.1909 27.8608 97.1286C29.9558 97.0663 32.5727 92.5678 31.3139 90.4869C30.0551 88.4061 28.1235 88.1625 28.1235 88.1625C28.1235 88.1625 30.2761 86.4196 30.5799 84.2915C30.8837 82.1635 29.1936 80.226 27.1178 80.4876C25.0421 80.7492 23.5911 82.7181 23.5911 82.7181C23.5911 82.7181 23.3558 80.1175 21.1696 79.0048C18.9833 77.892 17.0246 78.8343 15.8725 81.1427C14.7204 83.4512 15.8151 85.3365 15.8151 85.3365Z" stroke="black" stroke-width="1.2" stroke-linecap="round" stroke-linejoin="round"/>
</svg>
