<svg width="120" height="121" viewBox="0 0 120 121" fill="none" xmlns="http://www.w3.org/2000/svg">
<path d="M38.8779 64.0389C40.8112 71.2011 46.9048 78.0642 49.71 80.6004L54.815 74.9609C54.4867 74.6625 53.8302 73.439 53.8302 70.9322C53.8302 67.7989 56.9636 65.7398 60.4551 66.1874C63.2483 66.5455 66.6324 70.216 67.9752 72.0066C69.4076 72.0961 71.9143 71.3799 73.9734 74.0656C75.6207 76.2142 74.6598 78.9597 73.9734 80.0638L78.0021 81.4067L81.5831 77.8257C84.0003 74.4834 89.0495 66.3306 89.9089 60.4578C90.9832 53.1167 88.6556 46.4918 80.5088 44.3432C73.9913 42.6243 67.8857 48.7001 65.6476 51.9529C64.8717 51.0278 62.4068 48.4435 58.7541 45.5069C54.1883 41.8361 48.3682 41.0306 42.7281 45.5069C37.088 49.9832 36.4613 55.0861 38.8779 64.0389Z" fill="#4D4C4C"/>
<path d="M106.515 111.778C106.515 111.778 70.9295 112.37 64.0475 112.37C57.1655 112.37 13.6562 113.21 13.6562 113.21M54.5289 42.65C51.6169 39.146 50.6889 36.4475 50.4969 32.0875C50.1369 23.7915 53.3198 18.3181 58.5925 15.6406C63.8652 12.963 70.4504 13.2687 74.352 16.2523C78.2537 19.2359 81.3927 25.3124 80.9295 32.0875C80.4663 38.8627 79.3359 40.9344 76.8927 43.9159M67.4813 85.874C73.1533 89.658 78.2733 94.266 84.7373 96.85C89.2493 98.65 94.5145 99.0443 97.4019 96.1377C100.289 93.2311 100.186 82.1001 99.7795 78.0565C99.3732 74.0128 99.0989 69.3779 96.8764 63.7135C95.6201 60.5115 93.6656 55.8942 89.8961 53.7025M99.3055 78.9099C95.5813 80.4374 91.55 80.4374 87.6239 80.4374M24.7486 78.1508C25.3006 78.3668 28.8428 79.2041 31.898 79.2381C34.9531 79.272 37.8312 78.9324 37.8312 78.9324M67.4274 71.6779C66.3606 70.3897 65.6395 69.2501 64.0475 67.9941C61.6075 66.0661 58.7429 65.5753 56.4455 66.8702C54.1482 68.165 53.2833 71.4394 54.3153 74.6394M37.8312 96.0422L39.1214 112.233M74.352 80.1067C78.5121 82.1302 91.943 86.1621 91.943 86.1621M85.7309 97.7024L84.7373 111.778M78.2346 80.9439C78.2346 80.9439 79.5984 80.2581 82.4177 76.7881C85.237 73.3182 88.2106 67.1867 89.0789 63.7135C89.9472 60.2403 90.5338 55.9499 89.0789 51.6595C87.6239 47.3691 81.2886 42.65 75.4886 44.5614C69.6886 46.4729 65.7531 52.1852 65.7531 52.1852C65.7531 52.1852 58.8079 44.0311 54.3153 42.9704C49.8226 41.9097 45.1971 42.7064 41.5337 46.5567C37.8703 50.4069 37.0011 54.617 37.8312 60.0805C38.6614 65.544 40.4251 67.9941 42.4695 71.7701C44.5138 75.5461 47.2735 78.5705 49.0575 80.1225M37.8312 52.4947C32.3424 54.07 28.663 61.4729 27.1124 66.1894C25.5618 70.9058 24.1791 78.0982 23.9317 80.7196C23.6843 83.341 23.239 88.043 23.5853 90.715C23.9317 93.3871 26.4966 95.6982 29.7606 96.0422C33.4566 96.4262 37.2425 96.053 41.1022 94.7943C44.9618 93.5355 49.8859 90.7464 55.1499 89.3224C61.2299 87.6744 69.1868 85.9035 72.3606 82.1302C75.5344 78.3569 74.9444 75.4612 74.0969 74.0128C73.2494 72.5644 71.5031 71.6737 68.6424 71.8408C65.7816 72.0079 61.6394 73.9464 60.8314 75.2344C60.5808 72.3522 57.1609 72.6584 54.5289 75.2344C52.9529 76.7784 51.4329 78.3704 50.4969 80.4104C45.984 81.5541 34.9531 83.8583 34.9531 83.8583M70.9295 38.0982C68.1928 40.6918 62.8452 40.3052 60.5258 38.8878M37.8312 71.7701C38.0952 75.0261 38.2822 78.9324 38.6249 82.5872M36.4509 33.2021C36.4509 33.2021 32.1129 36.7541 31.4969 39.5301M93.6656 34.642C95.8256 35.938 98.2736 40.114 98.2736 40.114M39.8486 37.5224C38.2646 39.2024 36.3126 40.5624 35.2406 42.7064M90.5031 38.674C92.3511 39.898 93.7351 41.586 95.1111 43.282M65.7531 33.2021V36.082M87.6239 75.2185C87.5279 78.0425 86.6715 83.7316 86.6715 83.7316" stroke="black" stroke-width="1.2" stroke-linecap="round" stroke-linejoin="round"/>
<circle cx="70.3916" cy="32.3613" r="1.00879" fill="black"/>
<circle cx="61.0088" cy="32.3613" r="1.00879" fill="black"/>
</svg>
