<svg width="120" height="120" viewBox="0 0 120 120" fill="none" xmlns="http://www.w3.org/2000/svg">
<path d="M33.6335 97.3959C33.6335 97.3959 33.0699 83.2743 33.1452 80.85L14.7539 80.5911L17.2017 14.2812H34.8801L90.8436 15.5825H108.631L107.878 80.5911H90.5151V86.301V108.254H33.6335V97.3959Z" fill="#F7F6EF"/>
<path d="M41.3594 72.6272V22.5879L84.3146 22.5879L83.2918 72.6272H41.3594Z" fill="#E3E0D3"/>
<path d="M90.0248 94.1015C90.0248 94.1015 86.7688 94.2055 82.8408 94.1015C74.5848 93.8775 55.5821 94.1015 52.3213 94.1015C49.0605 94.1015 35.7689 94.1849 33.1769 94.4729M33.1769 94.4729C32.9935 90.0881 32.9685 86.0159 33.0652 80.861M33.1769 94.4729C33.2329 95.8106 33.5125 99.1473 33.617 102.52M34.801 14.3809H17.092C16.9494 17.6614 14.617 80.5731 14.617 80.5731C14.617 80.5731 31.7512 81.4245 33.0652 80.861M34.801 14.3809C34.801 14.3809 51.1769 14.3809 62.401 14.3809C73.6251 14.3809 90.9367 15.3932 90.9367 15.3932M34.801 14.3809C34.897 17.2609 33.0652 50.6459 33.0652 50.6459C33.0652 50.6459 33.0652 69.0612 33.0652 80.861M34.801 14.3809C36.913 16.9729 39.2558 19.2542 41.3598 21.8382M33.0652 80.861C34.2172 80.861 35.9206 80.853 37.0726 80.861C48.0168 80.937 52.7847 80.861 58.7628 80.861C64.7409 80.861 89.4488 80.6691 90.0248 80.5731M33.0652 80.861L40.7791 73.2303M90.9367 15.3932H108.57C108.57 15.3932 107.943 59.7579 107.943 63.1694C107.943 66.5809 107.943 80.861 107.943 80.861L90.0248 80.5731M90.9367 15.3932C90.9367 15.3932 91.0567 36.2448 90.9367 44.8848C90.8407 51.9808 90.6492 59.2224 90.5692 66.3184C90.5212 70.8304 90.0248 80.5731 90.0248 80.5731M90.9367 15.3932L84.297 22.355M90.0248 80.5731C90.0248 80.5731 90.5212 85.2779 90.5692 86.9099C90.7292 91.9979 90.5692 102.445 90.5692 102.445M90.0248 80.5731C90.0248 80.5731 86.6127 75.7705 83.6791 72.7007M90.5692 102.445H112.761M90.5692 102.445V107.788L33.617 108.166C33.617 108.166 33.6996 105.186 33.617 102.52M84.297 22.355C84.297 22.355 45.9678 21.6462 41.3598 21.8382M84.297 22.355C84.297 22.355 83.9204 53.0395 83.6791 72.7007M41.3598 21.8382C40.9758 30.2782 40.7791 41.3456 40.7791 48.2495C40.7791 55.1534 40.7791 73.2303 40.7791 73.2303M83.6791 72.7007C78.4642 72.8279 40.7791 73.2303 40.7791 73.2303M33.617 102.52C33.617 102.52 14.3785 103.252 8.03906 103.298M70.1127 99.6319C70.1127 99.6319 57.6013 99.8899 52.3213 100.098M69.5933 86.9099C69.5933 86.9099 58.0733 86.6539 52.3213 87.1979M38.3294 28.594C52.8561 28.594 82.9604 28.594 87.1639 28.594" stroke="black" stroke-width="1.2" stroke-linecap="round" stroke-linejoin="round"/>
<path d="M64.9631 53.4738C64.7235 52.5838 64.6853 51.3367 64.7422 50.1407C64.7992 48.9447 65.4103 46.6146 65.3939 44.2234C64.1851 44.1975 62.869 44.3417 62.4817 44.3221C61.9446 44.2949 61.6729 43.9173 61.6924 43.3413C61.7119 42.7653 61.9177 42.1893 62.1623 41.7573C62.1623 40.7493 62.2138 39.4883 62.7753 37.1372C63.3368 34.7861 64.6887 33.5282 65.5643 32.7916C66.4399 32.0549 67.995 31.2665 68.3097 31.3849C68.5583 31.4785 68.7877 31.692 68.9978 32.0549C69.474 32.8773 70.4822 33.9812 72.0733 33.9812C73.6643 33.9812 74.6712 32.8773 75.1473 32.0549C75.3549 31.6964 75.5813 31.4837 75.8264 31.3884C76.1435 31.2651 78.8022 32.3054 79.704 33.4729C80.6059 34.6404 81.452 35.9888 81.7714 37.8698C82.0908 39.7508 81.9822 40.7493 81.9822 41.7573C82.2268 42.1893 82.4327 42.7653 82.4521 43.3413C82.4716 43.9173 82.2 44.2949 81.6628 44.3221C81.2757 44.3417 79.9603 44.1976 78.7519 44.2233C78.7355 46.6146 79.0998 47.4152 79.3916 49.777C79.6835 52.1388 79.8186 52.5838 79.6817 53.4738C79.5448 54.3637 78.9246 55.0053 78.3128 55.0578C77.701 55.1104 73.5379 55.0025 71.934 54.7019C69.3856 55.0641 66.7243 55.1179 66.3225 55.0578C65.7107 54.9664 65.2027 54.3637 64.9631 53.4738Z" fill="#F7F6EF"/>
<path d="M65.3436 39.5973C65.3345 40.6725 65.381 42.3386 65.3939 44.2234M78.8022 39.5973C78.8113 40.6725 78.7649 42.3386 78.7519 44.2233M65.3939 44.2234C64.1851 44.1975 62.869 44.3417 62.4817 44.3221C61.9446 44.2949 61.6729 43.9173 61.6924 43.3413C61.7119 42.7653 61.9177 42.1893 62.1623 41.7573C62.1623 40.7493 62.2138 39.4883 62.7753 37.1372C63.3368 34.7861 64.6887 33.5282 65.5643 32.7916C66.4399 32.0549 67.995 31.2665 68.3097 31.3849C68.5583 31.4785 68.7877 31.692 68.9978 32.0549C69.474 32.8773 70.4822 33.9812 72.0733 33.9812C73.6643 33.9812 74.6712 32.8773 75.1473 32.0549C75.3549 31.6964 75.5813 31.4837 75.8264 31.3884C76.1435 31.2651 78.8022 32.3054 79.704 33.4729C80.6059 34.6404 81.452 35.9888 81.7714 37.8698C82.0908 39.7508 81.9822 40.7493 81.9822 41.7573C82.2268 42.1893 82.4327 42.7653 82.4521 43.3413C82.4716 43.9173 82.2 44.2949 81.6628 44.3221C81.2757 44.3417 79.9603 44.1976 78.7519 44.2233M65.3939 44.2234C65.4103 46.6146 64.7992 48.9447 64.7422 50.1407C64.6853 51.3367 64.7235 52.5838 64.9631 53.4738C65.2027 54.3637 65.7107 54.9664 66.3225 55.0578C66.7243 55.1179 69.3856 55.0641 71.934 54.7019C73.5379 55.0025 77.701 55.1104 78.3128 55.0578C78.9246 55.0053 79.5448 54.3637 79.6817 53.4738C79.8186 52.5838 79.6835 52.1388 79.3916 49.777C79.0998 47.4152 78.7355 46.6146 78.7519 44.2233" stroke="black" stroke-width="1.2" stroke-linecap="round" stroke-linejoin="round"/>
<path d="M69.1328 32.3439C69.533 30.4574 71.271 30.2368 72.2568 30.2732M72.2568 30.2732V27.9235C72.896 27.6878 73.8798 27.4148 73.7344 25.5979C73.5891 23.7811 71.3362 23.8538 70.9729 24.9681M72.2568 30.2732C73.2425 30.3096 74.3005 30.7081 74.8074 32.3439" stroke="black" stroke-linecap="round" stroke-linejoin="round"/>
</svg>
