<svg width="120" height="120" viewBox="0 0 120 120" fill="none" xmlns="http://www.w3.org/2000/svg">
<path d="M40.5156 100.913L40.9954 22.0096L84.3139 22.588L83.4966 100.913H40.5156Z" fill="#E3E0D3"/>
<rect x="38.5703" y="35.9551" width="47.8477" height="1.61914" fill="#F7F6EF"/>
<rect x="38.5703" y="57.5586" width="47.8477" height="1.61914" fill="#F7F6EF"/>
<rect x="38.5703" y="77.9727" width="47.8477" height="1.61914" fill="#F7F6EF"/>
<path d="M33.2185 103.027C33.2185 103.027 33.7984 85.4209 33.7984 77.9454C33.7984 70.4699 34.4985 17.255 34.4025 14.375M33.2185 103.027C33.2185 103.027 13.9801 103.246 7.64062 103.292M33.2185 103.027V108.16M34.4025 14.375C34.4025 14.375 50.7784 14.375 62.0025 14.375C73.2267 14.375 90.5382 15.3873 90.5382 15.3873M34.4025 14.375C36.5145 16.967 38.8574 19.2483 40.9614 21.8323M90.5382 15.3873C90.5382 15.3873 90.6582 36.2389 90.5382 44.8789C90.4422 51.9749 90.1707 70.8758 90.1707 77.5212C90.1707 84.1666 90.1707 102.439 90.1707 102.439M90.5382 15.3873L83.8985 22.3491M33.2185 108.16L90.1707 107.782M33.2185 108.16L40.4247 100.971M90.1707 107.782V102.439M90.1707 107.782L83.2806 100.971M90.1707 102.439H112.362M83.8985 22.3491C83.8985 22.3491 45.5694 21.6403 40.9614 21.8323M83.8985 22.3491C83.8985 22.3491 83.8647 27.6404 83.8109 35.5814M40.9614 21.8323C40.7699 26.0425 40.6249 30.9065 40.5277 35.5814M83.2806 100.971C78.0657 101.098 40.4247 100.971 40.4247 100.971M83.2806 100.971C83.3418 95.9826 83.4118 88.4653 83.482 80.0231M40.4247 100.971C40.4247 100.971 40.4153 91.212 40.4052 80.0231M40.5277 35.5814C39.5678 35.5814 38.6539 35.5814 37.7944 35.5814V38.0048H40.4812M40.5277 35.5814C53.7067 35.5814 75.5442 35.5814 83.8109 35.5814M40.4812 38.0048C40.4144 41.8103 40.3807 45.3841 40.3807 48.2436C40.3807 49.7595 40.3828 53.1514 40.3861 57.5226M40.4812 38.0048H83.7944M83.8109 35.5814C85.1192 35.5814 86.0876 35.5814 86.628 35.5814V38.0048H83.7944M83.7944 38.0048C83.7555 43.6944 83.7082 50.4703 83.6565 57.5226M83.6565 57.5226C75.2754 57.5226 53.6255 57.5226 40.5277 57.5226C40.4804 57.5226 40.4332 57.5226 40.3861 57.5226M83.6565 57.5226C83.7085 57.5226 83.76 57.5226 83.8109 57.5226C85.1192 57.5226 86.0876 57.5226 86.628 57.5226V59.9461H83.7944H83.6387M83.6387 59.9461H40.4812H40.388M83.6387 59.9461C83.595 65.8588 83.5486 71.8989 83.502 77.5997M40.3861 57.5226C39.4778 57.5226 38.6115 57.5226 37.7944 57.5226V59.9461H40.388M40.388 59.9461C40.3921 65.2198 40.3976 71.529 40.4031 77.5997M83.502 77.5997C75.0121 77.5997 53.5458 77.5997 40.5277 77.5997C40.4861 77.5997 40.4445 77.5997 40.4031 77.5997M83.502 77.5997C83.607 77.5997 83.71 77.5997 83.8109 77.5997C85.1192 77.5997 86.0876 77.5997 86.628 77.5997V80.0231H83.7944H83.482M83.482 80.0231H40.4812H40.4052M40.4031 77.5997C39.4886 77.5997 38.6166 77.5997 37.7944 77.5997V80.0231H40.4052" stroke="black" stroke-width="1.2" stroke-linecap="round" stroke-linejoin="round"/>
<path d="M64.5923 99.7877C64.7258 101.034 64.5923 101.891 64.5923 101.891C64.5923 101.891 64.7738 103.575 64.2969 103.575H61.2721C60.7132 103.575 60.5816 102.888 60.5816 102.888C60.5816 102.888 59.5156 103.08 58.4671 103.22C57.4187 103.36 56.2964 103.504 55.392 103.581C52.3233 103.844 49.936 103.581 49.5112 103.581C48.9273 103.581 48.6499 103.565 48.6499 103.092C48.6499 102.909 48.6316 102.566 48.6512 102.509C48.621 102.369 48.3817 101.239 49.0159 100.677C49.6846 100.084 51.5038 100.265 52.8249 99.9293C54.1459 99.5933 55.0053 99.2844 55.7799 98.7774C56.3103 98.4304 56.824 98.0475 57.1708 97.3519C57.5177 96.6563 57.8039 93.0563 57.8172 92.6453C57.8304 92.2344 57.8726 91.8717 58.5598 91.7967C58.7571 91.7752 62.6714 91.7967 63.308 91.7967C63.9446 91.7967 64.231 91.8554 64.2969 92.4265C64.3628 92.9977 64.4288 98.2604 64.5923 99.7877Z" fill="#F7F6EF"/>
<path d="M67.1372 99.7877C67.0037 101.034 67.1372 101.891 67.1372 101.891C67.1372 101.891 66.9557 103.575 67.4326 103.575H70.4575C71.0163 103.575 71.148 102.888 71.148 102.888C71.148 102.888 72.2139 103.08 73.2624 103.22C74.3108 103.36 75.4331 103.503 76.3375 103.581C79.4062 103.844 81.7935 103.581 82.2183 103.581C82.8022 103.581 83.0796 103.565 83.0796 103.092C83.0796 102.909 83.0979 102.566 83.0783 102.509C83.1086 102.369 83.3478 101.239 82.7136 100.677C82.0449 100.084 80.2257 100.265 78.9047 99.9292C77.5836 99.5933 76.7243 99.2844 75.9496 98.7774C75.4193 98.4303 74.9055 98.0475 74.5587 97.3519C74.2119 96.6563 73.9256 93.0563 73.9124 92.6453C73.8991 92.2343 73.8569 91.8716 73.1697 91.7967C72.9724 91.7752 69.0581 91.7966 68.4215 91.7966C67.7849 91.7966 67.4985 91.8554 67.4326 92.4265C67.3667 92.9977 67.3007 98.2604 67.1372 99.7877Z" fill="#F7F6EF"/>
<path d="M64.5923 99.7877C64.7258 101.034 64.5923 101.891 64.5923 101.891C64.5923 101.891 64.7738 103.575 64.2969 103.575H61.2721C60.7132 103.575 60.5816 102.888 60.5816 102.888C60.5816 102.888 59.5156 103.08 58.4671 103.22C57.4187 103.36 56.2964 103.504 55.392 103.581C52.3233 103.844 49.936 103.581 49.5112 103.581C48.9273 103.581 48.6499 103.565 48.6499 103.092C48.6499 102.909 48.6316 102.566 48.6512 102.509C48.621 102.369 48.3817 101.239 49.0159 100.677C49.6846 100.084 51.5038 100.265 52.8249 99.9293C54.1459 99.5933 55.0053 99.2844 55.7799 98.7774C56.3103 98.4304 56.824 98.0475 57.1708 97.3519C57.5177 96.6563 57.8039 93.0563 57.8172 92.6453C57.8304 92.2344 57.8726 91.8717 58.5598 91.7967C58.7571 91.7752 62.6714 91.7967 63.308 91.7967C63.9446 91.7967 64.231 91.8554 64.2969 92.4265C64.3628 92.9977 64.4288 98.2604 64.5923 99.7877Z" stroke="black" stroke-width="1.2" stroke-linecap="round" stroke-linejoin="round"/>
<path d="M67.1372 99.7877C67.0037 101.034 67.1372 101.891 67.1372 101.891C67.1372 101.891 66.9557 103.575 67.4326 103.575H70.4575C71.0163 103.575 71.148 102.888 71.148 102.888C71.148 102.888 72.2139 103.08 73.2624 103.22C74.3108 103.36 75.4331 103.503 76.3375 103.581C79.4062 103.844 81.7935 103.581 82.2183 103.581C82.8022 103.581 83.0796 103.565 83.0796 103.092C83.0796 102.909 83.0979 102.566 83.0783 102.509C83.1086 102.369 83.3478 101.239 82.7136 100.677C82.0449 100.084 80.2257 100.265 78.9047 99.9292C77.5836 99.5933 76.7243 99.2844 75.9496 98.7774C75.4193 98.4303 74.9055 98.0475 74.5587 97.3519C74.2119 96.6563 73.9256 93.0563 73.9124 92.6453C73.8991 92.2343 73.8569 91.8716 73.1697 91.7967C72.9724 91.7752 69.0581 91.7966 68.4215 91.7966C67.7849 91.7966 67.4985 91.8554 67.4326 92.4265C67.3667 92.9977 67.3007 98.2604 67.1372 99.7877Z" stroke="black" stroke-width="1.2" stroke-linecap="round" stroke-linejoin="round"/>
</svg>
