<svg width="120" height="122" viewBox="0 0 120 122" fill="none" xmlns="http://www.w3.org/2000/svg">
<path d="M115.582 79.9932C93.6361 79.993 36.9405 96.4527 11.3359 104.683L14.5026 118.61C19.7854 117.809 25.8104 116.472 32.464 114.672C44.6755 111.369 58.5486 107.178 72.3295 104.215C89.2124 100.586 105.729 98.3682 116.285 96.9507L116.848 96.8751L115.582 79.9932Z" fill="#E3E0D3"/>
<path d="M7.1375 84.0289C7.07124 89.2659 11.2505 89.7357 13.3484 89.316C18.0664 96.2656 26.4459 95.1761 30.0459 93.7626C35.9539 90.6072 43.1934 89.091 46.0747 88.7274L44.2284 90.9093C42.3262 91.0772 38.6561 92.2185 39.1932 95.441C39.8646 99.4692 45.4872 99.4692 51.4456 97.7069C56.2123 96.297 56.3969 90.4058 55.8934 87.6364C57.7732 87.0322 64.8449 87.049 68.1458 87.1329C66.6352 87.7763 63.5637 89.4323 63.3623 90.9093C63.1105 92.7556 63.1944 95.5249 71.1669 95.441C77.5448 95.3739 79.8666 89.147 80.2303 86.0419C82.6472 85.5049 91.9791 86.2657 96.343 86.7133C97.6186 87.9218 97.8256 91.1331 97.7697 92.5877C97.1654 98.8985 91.8113 100.924 89.2098 101.148C82.0933 100.879 82.4961 96.504 83.5871 94.3501C86.004 91.4632 90.8043 92.6437 92.9023 93.5948C91.5595 89.4995 87.3076 89.2589 85.3494 89.6505C77.8302 91.5975 76.7896 97.623 77.2092 100.392C77.7462 107.509 86.7761 107.777 91.2239 107.022C100.824 105.612 105.239 96.0844 106.246 91.4968C110.677 80.1507 104.847 69.4257 101.378 65.4814C94.6646 57.6936 82.1325 53.5088 76.7056 52.3899V51.7182C76.1182 48.3613 76.2021 44.4174 65.0407 45.3405C56.1116 46.079 48.6203 53.9843 45.9908 57.8446C44.1781 58.5155 38.1862 62.8237 35.4168 64.8939L34.0741 61.2854C31.8082 54.8235 29.2906 54.2372 27.5283 54.2372C26.1184 54.2372 22.8567 56.0831 21.4021 57.006C11.4995 62.1252 7.22032 77.4826 7.1375 84.0289Z" fill="#E3E0D3"/>
<path d="M47.8611 70.7222C45.2276 71.2866 45.3003 62.7543 45.6657 58.4175C46.1358 57.5033 47.9538 54.907 51.4646 51.8361C55.8532 47.9975 62.3577 44.6266 70.0378 45.0184C76.1818 45.3319 77.1431 50.2164 76.8558 52.6194L81.3227 53.7172C79.2538 64.1244 76.1766 66.0993 74.8966 65.7858C71.8873 65.5977 73.6427 56.9299 74.8966 52.6194C73.3919 51.8042 68.4182 51.7575 66.1194 51.8361L65.0222 59.5162C64.5207 66.4125 61.7308 67.3529 60.3986 66.9611C58.5804 65.5191 58.9096 56.7992 59.3014 52.6194C58.2356 52.6194 54.3642 53.8731 52.5618 54.4999C52.5618 54.7611 52.4834 56.4121 52.1699 60.9261C51.7781 66.5685 51.1528 70.0167 47.8611 70.7222Z" fill="#CCC7B3"/>
<path d="M41.9006 91.793C46.0522 90.2001 46.4846 88.4353 46.1818 87.752C45.2153 83.1074 47.1484 80.8153 50.4058 80.574C53.6631 80.3327 55.2918 82.9264 55.5331 87.2092C55.7744 91.492 56.1966 94.8097 51.9138 97.5242C47.631 100.239 42.6226 98.429 41.0542 98.3687C39.4859 98.3083 36.7111 93.7842 41.9006 91.793Z" fill="#CCC7B3"/>
<path d="M63.4352 91.6125C63.2904 88.331 66.7529 87.1085 68.5022 86.9074C69.8494 84.0924 73.2314 78.4262 75.9821 78.2814C79.4204 78.1005 80.1442 80.1514 79.8426 85.4597C79.541 90.768 77.1885 93.784 73.147 95.1714C69.1054 96.5588 63.6162 95.7143 63.4352 91.6125Z" fill="#CCC7B3"/>
<path d="M78.8819 79.4342C83.7461 79.7143 90.483 80.5981 94.1657 84.2259C97.8485 87.8537 99.2847 92.196 95.7598 97.6376C92.2348 103.079 85.6021 100.738 84.2773 99.6223C82.8085 98.3839 82.8157 96.5839 83.2189 95.2879C83.6941 93.7687 86.0269 92.5663 87.8701 92.7031C89.0725 92.7895 89.673 92.7031 93.1479 93.9776C91.9896 90.9702 89.4098 89.496 86.5667 89.5487C83.7236 89.6013 78.8819 92.3391 77.9321 95.2879C76.9823 98.2367 76.1946 101.921 80.0381 105.344C83.8815 108.766 94.316 107.675 98.9866 103.642C103.657 99.6098 107.351 92.5185 107.867 83.8099C108.382 75.1012 102.703 66.6537 99.8004 63.6522C96.8982 60.6507 90.5492 57.0142 86.5683 55.3863C82.5874 53.7584 75.2364 51.3813 67.1499 51.7359C59.0633 52.0906 53.0876 53.5794 47.1423 57.2876C41.197 60.9958 37.2683 63.6809 35.2955 64.9553C35.2955 64.9553 33.9528 60.8195 33.0564 59.0536C32.16 57.2876 30.1557 53.2555 26.7357 54.5731C15.7125 58.8211 9.9093 67.2163 7.5765 78.4195C7.1301 80.5723 6.24305 88.7879 10.3658 89.4534C14.4886 90.1189 23.0555 88.383 27.7787 83.3358M78.1085 103.027C64.5149 106 49.3642 109.286 36.073 113.426C29.6074 115.442 14.2922 119.023 14.2922 119.023M52.6486 54.4836C52.159 57.9324 52.3235 63.3643 51.4091 66.7771C50.4947 70.1899 47.0812 72.4513 46.159 69.3547C45.2367 66.2582 45.6511 58.4747 45.6511 58.4747M46.159 88.8295C41.3782 89.6575 35.5573 91.1554 31.1293 93.1426C27.1261 94.9426 22.9933 95.5834 18.6877 93.7618C17.2693 93.1642 14.737 91.8389 13.7361 89.7915M66.3138 51.7771C65.241 55.1539 65.1549 59.0536 64.5708 62.1693C63.9867 65.2851 62.613 67.3962 61.209 67.1514C59.7546 66.8994 59.373 65.4271 59.373 63.6522C59.373 61.8773 59.373 52.5665 59.373 52.5665M11.198 104.317C12.5444 104.303 13.79 104.209 15.1148 103.604C19.3268 101.696 24.6647 100.424 28.298 99.3994C31.9313 98.375 37.0889 96.7697 39.3857 96.2441M74.9257 52.5665C74.9257 52.5665 73.9166 57.2876 73.6829 59.5408C73.4493 61.7941 73.1174 65.3673 74.9257 65.6959C76.7339 66.0245 78.6479 63.396 79.4656 60.6507C80.2834 57.9053 81.0731 54.8833 81.218 53.875M96.4122 86.814C89.1889 85.8697 83.9314 85.6543 80.3602 86.1871M68.5685 86.814C61.209 86.8895 55.594 87.9874 55.594 87.9874M76.7339 52.2547C76.993 47.6682 73.6829 45.0139 67.9427 45.0475C62.2025 45.081 55.4848 48.4533 52.6486 50.7054C49.8125 52.9574 46.0793 57.0477 44.0633 59.2293M47.1423 82.0024C47.1423 82.0024 34.6792 83.9063 24.9286 94.2232M67.1502 3.04172C60.9644 20.8383 60.9644 36.9684 60.9644 36.9684M60.9644 36.9684C62.0948 37.2636 62.7725 38.712 62.2326 40.7192C61.6927 42.7263 59.6405 43.7075 59.6405 43.7075C59.6405 43.7075 58.3076 42.6035 58.5943 40.1048C58.881 37.606 60.9644 36.9684 60.9644 36.9684ZM73.3517 79.169C73.3517 79.169 61.9615 79.1614 52.2893 80.9397M116.187 96.8956C112.515 97.3564 103.295 98.8621 103.295 98.8621M115.819 79.7143C113.918 79.9519 109.818 80.8375 107.874 80.7511M17.174 79.169C17.174 79.169 17.5766 81.2914 17.9366 82.825M89.3862 1.27246C83.2004 19.069 83.2004 35.1991 83.2004 35.1991M83.2004 35.1991C84.3308 35.4943 85.0084 36.9428 84.4686 38.9499C83.9287 40.9571 81.8765 41.9382 81.8765 41.9382C81.8765 41.9382 80.5435 40.8342 80.8303 38.3355C81.117 35.8368 83.2004 35.1991 83.2004 35.1991ZM75.2331 94.4316C73.162 95.7061 69.9498 95.7199 67.1562 95.2879C64.7802 94.9207 63.2523 93.7688 63.2682 91.6307C63.284 89.4926 65.3346 88.0955 67.1562 87.7499C69.741 87.2603 70.2585 81.598 72.5921 79.7143C74.9257 77.8305 77.3499 77.8281 79.1722 79.7143C80.2008 80.7789 80.438 84.9309 79.3755 88.3375C78.5557 90.966 77.3043 93.157 75.2331 94.4316ZM57.12 15.7216C53.3334 16.5326 51.447 20.3654 51.447 20.3654C51.447 20.3654 55.2463 21.8377 58.2963 20.7793C61.3463 19.7209 63.5429 15.9948 63.5429 15.9948C63.5429 15.9948 60.9067 14.9106 57.12 15.7216ZM63.7056 15.2509C63.7056 15.2509 67.6758 15.7216 69.4326 18.0141C71.1893 20.3065 70.9239 24.0228 70.9239 24.0228C70.9239 24.0228 68.1133 24.0196 65.9095 21.8181C63.7056 19.6166 63.7056 15.2509 63.7056 15.2509ZM61.3072 30.7362C61.3072 30.7362 64.8672 29.8827 67.1499 31.097C69.4326 32.3112 70.1399 35.4196 70.1399 35.4196C70.1399 35.4196 67.1499 35.4196 64.7972 34.8873C62.4446 34.3549 61.3072 30.7362 61.3072 30.7362ZM39.2657 95.6593C39.5358 98.8325 45.3267 99.27 46.6587 98.9676C48.8979 98.4636 53.558 97.7209 54.8822 94.5302C56.2063 91.3395 55.5438 85.5994 54.8822 83.6077C54.2205 81.6159 51.8182 80.118 49.538 80.7511C47.2632 81.3828 45.8106 82.629 46.0417 85.8697C46.2728 89.1105 46.4276 89.5153 44.8741 90.4943C43.3206 91.4733 38.9956 92.486 39.2657 95.6593ZM56.2005 29.4456C53.028 30.3199 51.447 34.1568 51.447 34.1568C51.447 34.1568 54.2577 35.5144 57.4147 34.1568C60.5717 32.7993 61.3528 30.2321 61.3528 30.2321C61.3528 30.2321 59.373 28.5714 56.2005 29.4456ZM79.356 13.9524C75.5693 14.7634 73.6829 18.5962 73.6829 18.5962C73.6829 18.5962 77.4823 20.0685 80.5323 19.0101C83.5823 17.9517 85.7789 14.2255 85.7789 14.2255C85.7789 14.2255 83.1427 13.1414 79.356 13.9524ZM85.9416 13.4817C85.9416 13.4817 89.9118 13.9524 91.6686 16.2448C93.4253 18.5373 93.1598 22.2535 93.1598 22.2535C93.1598 22.2535 90.3493 22.2504 88.1454 20.0489C85.9416 17.8474 85.9416 13.4817 85.9416 13.4817ZM83.5432 28.9669C83.5432 28.9669 87.1032 28.1135 89.3859 29.3277C91.6686 30.5419 92.3758 33.6504 92.3758 33.6504C92.3758 33.6504 89.3859 33.6504 87.0332 33.118C84.6806 32.5856 83.5432 28.9669 83.5432 28.9669ZM78.4365 27.6764C75.264 28.5506 73.6829 32.3876 73.6829 32.3876C73.6829 32.3876 76.4937 33.7451 79.6507 32.3876C82.8077 31.03 83.5888 28.4628 83.5888 28.4628C83.5888 28.4628 81.6089 26.8021 78.4365 27.6764Z" stroke="black" stroke-width="1.44" stroke-linecap="round" stroke-linejoin="round"/>
<circle cx="21.582" cy="76.583" r="0.972656" fill="black"/>
<circle cx="12.8242" cy="78.5283" r="0.972656" fill="black"/>
</svg>
