<svg width="120" height="120" viewBox="0 0 120 120" fill="none" xmlns="http://www.w3.org/2000/svg">
<path d="M77.2398 92.5368L73.3984 102.564C74.6789 101.749 77.759 100.029 79.8356 99.6699C81.9122 99.3108 83.5277 100.119 84.0759 100.568C84.1757 99.803 85.2233 98.0836 88.6155 97.3253C92.0078 96.567 93.5542 98.5725 93.9034 99.6699L96.1483 100.568L97.146 98.8718L99.2412 99.6699L100.039 98.2731L99.5405 95.5294C99.6403 94.3488 100.389 91.8081 102.584 91.0902C104.779 90.3722 107.888 91.6553 109.168 92.3866C109.335 91.8046 109.817 90.2216 110.416 88.5454C111.014 86.8693 114.593 85.089 116.522 84.9228C113.977 82.9938 108.53 80.454 105.377 81.6113C102.224 82.7687 98.576 87.3149 97.146 89.4434L95.1007 86.3504L94.4023 87.6474L91.9579 88.1463L90.4114 87.2988L89.6631 91.0902C88.6155 90.641 85.802 89.6828 82.9285 89.4434C80.0551 89.2039 77.9388 91.4059 77.2398 92.5368Z" fill="#D8D8D8"/>
<path d="M50.5623 27.8573C43.8237 37.0403 43.3305 45.7243 43.9262 48.9184C34.4898 50.9398 24.0586 42.2492 20.0225 37.6512C19.1099 40.1084 16.5049 46.1601 13.3862 50.7093C10.2674 55.2586 5.06623 62.0123 2.85547 64.8205C4.39996 64.6099 8.66839 64.7152 13.3862 66.8214C18.1039 68.9275 20.1956 75.3512 20.6518 78.2999C23.5311 75.3161 31.2485 70.2965 39.0834 74.0876C46.9182 77.8786 49.579 88.9359 49.93 93.9906C51.5447 90.3751 55.8483 83.144 60.1448 83.144C64.4414 83.144 68.1833 89.8135 69.5172 93.1482C69.798 90.3049 70.3597 84.0286 70.3597 81.6697C70.3597 79.3108 74.4315 75.6321 76.4675 74.0876C81.2695 70.802 88.999 70.7528 92.2636 71.139C91.3369 64.7363 94.4048 59.7658 96.0546 58.0808C99.1717 54.7953 110.903 52.64 116.379 51.973C106.185 45.9073 94.5101 35.1941 89.9468 30.5956C84.6393 40.7051 76.5728 45.3387 73.203 46.3917C71.855 35.2713 65.9016 28.4189 63.0934 26.3828V33.0172L54.037 33.9649L50.5623 27.8573Z" fill="#BDBDBD"/>
<path d="M32.7466 54.7315C32.7466 54.7315 28.2617 61.0817 25.836 68.0355M48.1013 59.3451C48.1013 59.3451 48.6211 63.6943 46.9137 73.0007M73.2483 70.2718L69.8168 59.3451M86.4286 60.8444C86.4286 60.8444 82.9227 59.0749 78.099 52.3133M56.6783 99.9435L56.1456 108.293M66.0005 99.2139L67.7839 107.239M54.6278 44.9193C54.6278 44.9193 56.267 46.6025 59.288 46.3977C62.309 46.1929 63.0823 44.1942 63.0823 44.1942M58.3699 39.786L58.3699 42.8582M49.803 94.4832C50.2106 88.4867 47.3191 82.5744 43.9295 78.001C41.659 74.9349 38.4635 73.3177 34.4465 73.0007C28.7282 72.5479 20.3854 78.2877 20.3854 78.2877C20.3854 78.2877 20.7475 73.4988 16.3498 68.9959C11.952 64.493 2.71484 65.035 2.71484 65.035C2.71484 65.035 16.3498 50.419 20.2985 37.4887C23.9928 41.6029 29.3258 46.1037 32.7466 47.6013C36.1674 49.099 39.9661 49.3455 43.7551 49.099C43.7551 46.5337 43.8679 42.8592 44.8842 38.6323C45.9006 34.4053 50.5017 27.6941 50.5017 27.6941L53.9938 33.7426L63.0823 32.963L63.3026 26.0645C63.3026 26.0645 72.0721 33.7426 73.2483 46.9949C75.1113 45.7594 79.6685 43.4319 83.6128 39.398C87.557 35.3641 90.0443 30.1708 90.0443 30.1708C95.9502 38.3925 116.82 52.3133 116.82 52.3133C116.82 52.3133 100.933 53.4173 96.1114 58.5138C91.2896 63.6103 92.1387 71.2496 92.1387 71.2496C92.1387 71.2496 82.8756 70.2718 78.099 73.0007C73.3223 75.7297 70.093 80.0898 69.8103 84.6469C69.5276 89.2041 69.8103 93.552 69.8103 93.552C69.8103 93.552 65.3132 83.2195 60.0926 83.3283C54.8719 83.4371 50.5862 90.1826 49.803 94.4832ZM110.806 87.3488C109.404 88.7198 108.829 92.0034 108.829 92.0034C108.829 92.0034 106.639 91.2033 106.037 91.0351C102.622 90.0648 99.9762 91.462 99.2711 94.8322C99.1573 95.3717 100.382 98.2157 99.2711 98.864C98.1604 99.5123 96.9161 98.3848 96.9161 98.3848C96.9161 98.3848 96.7738 100.182 95.5336 100.182C94.2933 100.182 92.9833 97.5384 91.6259 97.135C86.9478 95.7446 84.8513 98.3704 83.9069 100.182C80.5173 97.219 73.079 102.512 73.079 102.512C73.079 102.512 75.1911 96.2255 76.8004 93.2082C78.4096 90.1909 80.9743 88.8834 82.9859 89.2857C84.9974 89.688 89.7749 90.9452 89.7749 90.9452L90.1956 87.0392C90.1956 87.0392 91.1084 87.5222 91.6259 87.8391L94.1741 87.3488L94.748 85.9778L96.9161 89.485C96.9161 89.485 98.8543 86.3767 100.797 84.3913C102.739 82.4059 105.268 80.5175 107.855 81.2189C110.442 81.9203 115.99 84.6469 115.99 84.6469C115.99 84.6469 112.208 85.9778 110.806 87.3488Z" stroke="black" stroke-width="1.2" stroke-linecap="round" stroke-linejoin="round"/>
<circle cx="53.8594" cy="40.3164" r="0.972656" fill="black"/>
<circle cx="62.7461" cy="40.3164" r="0.972656" fill="black"/>
</svg>
