<svg width="64" height="129" viewBox="0 0 64 129" fill="none" xmlns="http://www.w3.org/2000/svg">
<path d="M36.185 47.861C36.185 47.4302 35.8358 47.081 35.405 47.081C34.9742 47.081 34.625 47.4302 34.625 47.861C34.625 48.2918 34.9742 48.641 35.405 48.641C35.8358 48.641 36.185 48.2918 36.185 47.861Z" fill="#1E1E1E"/>
<path d="M36.185 61.4211C36.185 60.9903 35.8358 60.6411 35.405 60.6411C34.9742 60.6411 34.625 60.9903 34.625 61.4211C34.625 61.8518 34.9742 62.2011 35.405 62.2011C35.8358 62.2011 36.185 61.8518 36.185 61.4211Z" fill="#1E1E1E"/>
<path d="M36.185 34.3009C36.185 33.8702 35.8358 33.5209 35.405 33.5209C34.9742 33.5209 34.625 33.8702 34.625 34.3009C34.625 34.7317 34.9742 35.0809 35.405 35.0809C35.8358 35.0809 36.185 34.7317 36.185 34.3009Z" fill="#1E1E1E"/>
<path d="M36.185 20.7409C36.185 20.3102 35.8358 19.9609 35.405 19.9609C34.9742 19.9609 34.625 20.3102 34.625 20.7409C34.625 21.1717 34.9742 21.5209 35.405 21.5209C35.8358 21.5209 36.185 21.1717 36.185 20.7409Z" fill="#1E1E1E"/>
<path d="M36.185 74.9811C36.185 74.5503 35.8358 74.2011 35.405 74.2011C34.9742 74.2011 34.625 74.5503 34.625 74.9811C34.625 75.4119 34.9742 75.7611 35.405 75.7611C35.8358 75.7611 36.185 75.4119 36.185 74.9811Z" fill="#1E1E1E"/>
</svg>
