<svg width="63" height="129" viewBox="0 0 63 129" fill="none" xmlns="http://www.w3.org/2000/svg">
<path d="M35.7788 47.8611C35.7788 47.4303 35.4295 47.0811 34.9988 47.0811C34.568 47.0811 34.2188 47.4303 34.2188 47.8611C34.2188 48.2918 34.568 48.6411 34.9988 48.6411C35.4295 48.6411 35.7788 48.2918 35.7788 47.8611Z" fill="#1E1E1E"/>
<path d="M35.7788 61.4211C35.7788 60.9903 35.4295 60.6411 34.9988 60.6411C34.568 60.6411 34.2188 60.9903 34.2188 61.4211C34.2188 61.8519 34.568 62.2011 34.9988 62.2011C35.4295 62.2011 35.7788 61.8519 35.7788 61.4211Z" fill="#1E1E1E"/>
<path d="M35.7788 74.9812C35.7788 74.5504 35.4295 74.2012 34.9988 74.2012C34.568 74.2012 34.2188 74.5504 34.2188 74.9812C34.2188 75.412 34.568 75.7612 34.9988 75.7612C35.4295 75.7612 35.7788 75.412 35.7788 74.9812Z" fill="#1E1E1E"/>
</svg>
