<svg width="63" height="129" viewBox="0 0 63 129" fill="none" xmlns="http://www.w3.org/2000/svg">
<path d="M35.3881 47.8611C35.3881 47.4303 35.0389 47.0811 34.6081 47.0811C34.1773 47.0811 33.8281 47.4303 33.8281 47.8611C33.8281 48.2918 34.1773 48.6411 34.6081 48.6411C35.0389 48.6411 35.3881 48.2918 35.3881 47.8611Z" fill="#1E1E1E"/>
<path d="M35.3881 61.4211C35.3881 60.9903 35.0389 60.6411 34.6081 60.6411C34.1773 60.6411 33.8281 60.9903 33.8281 61.4211C33.8281 61.8519 34.1773 62.2011 34.6081 62.2011C35.0389 62.2011 35.3881 61.8519 35.3881 61.4211Z" fill="#1E1E1E"/>
<path d="M35.3881 34.301C35.3881 33.8702 35.0389 33.521 34.6081 33.521C34.1773 33.521 33.8281 33.8702 33.8281 34.301C33.8281 34.7318 34.1773 35.081 34.6081 35.081C35.0389 35.081 35.3881 34.7318 35.3881 34.301Z" fill="#1E1E1E"/>
<path d="M35.3881 74.9812C35.3881 74.5504 35.0389 74.2012 34.6081 74.2012C34.1773 74.2012 33.8281 74.5504 33.8281 74.9812C33.8281 75.412 34.1773 75.7612 34.6081 75.7612C35.0389 75.7612 35.3881 75.412 35.3881 74.9812Z" fill="#1E1E1E"/>
</svg>
