<svg width="63" height="129" viewBox="0 0 63 129" fill="none" xmlns="http://www.w3.org/2000/svg">
<path d="M35.3881 43.6609C35.3881 43.2301 35.0389 42.8809 34.6081 42.8809C34.1773 42.8809 33.8281 43.2301 33.8281 43.6609C33.8281 44.0916 34.1773 44.4409 34.6081 44.4409C35.0389 44.4409 35.3881 44.0916 35.3881 43.6609Z" fill="#1E1E1E"/>
<path d="M35.3881 57.2209C35.3881 56.7901 35.0389 56.4409 34.6081 56.4409C34.1773 56.4409 33.8281 56.7901 33.8281 57.2209C33.8281 57.6517 34.1773 58.0009 34.6081 58.0009C35.0389 58.0009 35.3881 57.6517 35.3881 57.2209Z" fill="#1E1E1E"/>
<path d="M35.3881 30.1008C35.3881 29.67 35.0389 29.3208 34.6081 29.3208C34.1773 29.3208 33.8281 29.67 33.8281 30.1008C33.8281 30.5316 34.1773 30.8808 34.6081 30.8808C35.0389 30.8808 35.3881 30.5316 35.3881 30.1008Z" fill="#1E1E1E"/>
</svg>
