<svg width="63" height="129" viewBox="0 0 63 129" fill="none" xmlns="http://www.w3.org/2000/svg">
<path d="M35.5913 43.6609C35.5913 43.2301 35.242 42.8809 34.8113 42.8809C34.3805 42.8809 34.0312 43.2301 34.0312 43.6609C34.0312 44.0916 34.3805 44.4409 34.8113 44.4409C35.242 44.4409 35.5913 44.0916 35.5913 43.6609Z" fill="#1E1E1E"/>
<path d="M35.5913 57.2209C35.5913 56.7901 35.242 56.4409 34.8113 56.4409C34.3805 56.4409 34.0312 56.7901 34.0312 57.2209C34.0312 57.6517 34.3805 58.0009 34.8113 58.0009C35.242 58.0009 35.5913 57.6517 35.5913 57.2209Z" fill="#1E1E1E"/>
<path d="M35.5913 30.1008C35.5913 29.67 35.242 29.3208 34.8113 29.3208C34.3805 29.3208 34.0312 29.67 34.0312 30.1008C34.0312 30.5316 34.3805 30.8808 34.8113 30.8808C35.242 30.8808 35.5913 30.5316 35.5913 30.1008Z" fill="#1E1E1E"/>
</svg>
