<svg width="63" height="129" viewBox="0 0 63 129" fill="none" xmlns="http://www.w3.org/2000/svg">
<path d="M35.5913 47.861C35.5913 47.4302 35.242 47.081 34.8113 47.081C34.3805 47.081 34.0312 47.4302 34.0312 47.861C34.0312 48.2918 34.3805 48.641 34.8113 48.641C35.242 48.641 35.5913 48.2918 35.5913 47.861Z" fill="#1E1E1E"/>
<path d="M35.5913 61.4211C35.5913 60.9903 35.242 60.6411 34.8113 60.6411C34.3805 60.6411 34.0312 60.9903 34.0312 61.4211C34.0312 61.8518 34.3805 62.2011 34.8113 62.2011C35.242 62.2011 35.5913 61.8518 35.5913 61.4211Z" fill="#1E1E1E"/>
<path d="M35.5913 34.3009C35.5913 33.8702 35.242 33.5209 34.8113 33.5209C34.3805 33.5209 34.0312 33.8702 34.0312 34.3009C34.0312 34.7317 34.3805 35.0809 34.8113 35.0809C35.242 35.0809 35.5913 34.7317 35.5913 34.3009Z" fill="#1E1E1E"/>
<path d="M35.5913 20.7409C35.5913 20.3102 35.242 19.9609 34.8113 19.9609C34.3805 19.9609 34.0312 20.3102 34.0312 20.7409C34.0312 21.1717 34.3805 21.5209 34.8113 21.5209C35.242 21.5209 35.5913 21.1717 35.5913 20.7409Z" fill="#1E1E1E"/>
<path d="M35.5913 74.9811C35.5913 74.5503 35.242 74.2011 34.8113 74.2011C34.3805 74.2011 34.0312 74.5503 34.0312 74.9811C34.0312 75.4119 34.3805 75.7611 34.8113 75.7611C35.242 75.7611 35.5913 75.4119 35.5913 74.9811Z" fill="#1E1E1E"/>
</svg>
