<svg width="64" height="129" viewBox="0 0 64 129" fill="none" xmlns="http://www.w3.org/2000/svg">
<path d="M36.185 43.6609C36.185 43.2301 35.8358 42.8809 35.405 42.8809C34.9742 42.8809 34.625 43.2301 34.625 43.6609C34.625 44.0916 34.9742 44.4409 35.405 44.4409C35.8358 44.4409 36.185 44.0916 36.185 43.6609Z" fill="#1E1E1E"/>
<path d="M36.185 57.2209C36.185 56.7901 35.8358 56.4409 35.405 56.4409C34.9742 56.4409 34.625 56.7901 34.625 57.2209C34.625 57.6517 34.9742 58.0009 35.405 58.0009C35.8358 58.0009 36.185 57.6517 36.185 57.2209Z" fill="#1E1E1E"/>
<path d="M36.185 30.1008C36.185 29.67 35.8358 29.3208 35.405 29.3208C34.9742 29.3208 34.625 29.67 34.625 30.1008C34.625 30.5316 34.9742 30.8808 35.405 30.8808C35.8358 30.8808 36.185 30.5316 36.185 30.1008Z" fill="#1E1E1E"/>
</svg>
