<svg width="64" height="84" viewBox="0 0 64 84" fill="white" xmlns="http://www.w3.org/2000/svg">
<path d="M14.9952 64.2001C13.7951 64.5001 6.29517 64.2001 5.39517 63.9001C4.49517 63.6001 4.19531 63.0001 4.19531 62.1001C4.19531 61.779 4.37796 58.9733 4.37796 58.2187C4.37796 57.7059 4.8723 57.1529 5.50586 56.8685C5.80466 56.7344 6.13442 56.66 6.45789 56.6778C8.76611 56.8046 12.1729 56.9568 14.7855 57.0836C15.118 57.0998 15.4474 57.1763 15.7327 57.3145C16.2747 57.5772 16.6572 58.0624 16.5974 58.779C16.4127 60.9927 16.4109 62.0099 16.3793 62.2482C16.251 63.2183 16.1952 63.9001 14.9952 64.2001Z" fill="white"/>
<path d="M48.5955 64.2001C49.7955 64.5001 57.2955 64.2001 58.1955 63.9001C59.0955 63.6001 59.3953 63.0001 59.3953 62.1001C59.3953 61.779 59.2127 58.9733 59.2127 58.2187C59.2127 57.7059 58.7183 57.1529 58.0848 56.8685C57.786 56.7344 57.4562 56.66 57.1327 56.6778C54.8245 56.8046 51.4178 56.9568 48.8052 57.0836C48.4727 57.0998 48.1432 57.1763 47.8579 57.3145C47.3159 57.5772 46.9334 58.0624 46.9932 58.779C47.1779 60.9927 47.1797 62.0099 47.2113 62.2482C47.3396 63.2183 47.3955 63.9001 48.5955 64.2001Z" fill="white"/>
<path d="M17.6921 51.3076C17.1718 51.0706 16.7011 50.7978 16.3051 50.4776C15.66 49.956 15.2132 49.3084 15.0732 48.4843L15.0695 48.462C14.9907 47.9993 14.9709 47.883 15.0987 43.8137C15.0987 43.1184 15.6807 42.1858 16.8902 42.0403C17.2218 42.0005 17.6006 42.0198 18.0276 42.1193C18.984 42.3424 20.2815 43.068 23.1428 43.4831C26.2172 43.929 29.6995 44.0374 31.7984 44.0374C33.8974 44.0374 37.3798 43.929 40.4542 43.4831C43.3155 43.068 44.613 42.3424 45.5694 42.1193C45.9964 42.0198 46.3752 42.0005 46.7068 42.0403C47.9163 42.1858 48.4983 43.1184 48.4983 43.8137C48.6261 47.883 48.6063 47.9993 48.5275 48.462L48.5238 48.4843C48.3892 49.2766 47.8907 50.0005 47.2914 50.547C46.8847 50.9179 46.4316 51.2071 46.0143 51.3805C44.9821 51.8094 44.4039 52.1452 41.085 52.6281C38.5451 52.9977 35.1216 53.1142 31.798 53.1142C28.4745 53.1142 25.0519 52.9977 22.512 52.6281C19.1931 52.1452 18.4869 51.6696 17.6921 51.3076Z" fill="white"/>
<path d="M27.9066 24.5656C26.6971 25.5002 25.157 24.592 23.335 22.4109C21.5131 20.2298 20.475 18.5558 19.5715 17.2306C18.6679 15.9055 17.7265 14.3409 17.2494 13.4697C17.1762 13.3359 17.1148 13.2015 17.0665 13.0666C16.8006 12.3226 16.9352 11.5621 17.697 10.8003C18.597 9.90027 19.5016 9.26023 20.8363 8.57626C22.1711 7.8923 22.4734 8.63553 23.2723 9.45516C23.2975 9.48096 23.3308 9.51688 23.3714 9.5619C24.0026 10.2616 26.4091 13.1613 27.7169 14.5172C29.6774 16.5499 31.797 18.7502 31.797 18.7502C31.797 18.7502 29.116 23.631 27.9066 24.5656Z" fill="white"/>
<path d="M35.6875 24.5655C36.8969 25.5001 38.4371 24.592 40.259 22.4109C42.0809 20.2297 43.1191 18.5557 44.0226 17.2306C44.9261 15.9054 45.8675 14.3408 46.3446 13.4696C46.4175 13.3365 46.4787 13.2028 46.5268 13.0685C46.7937 12.3239 46.6595 11.5627 45.897 10.8002C44.997 9.9002 44.0924 9.26015 42.7577 8.57619C41.423 7.89222 41.1207 8.63546 40.3217 9.45508C40.2947 9.48283 40.2582 9.52226 40.2134 9.57214C39.5681 10.2895 37.1786 13.1678 35.8771 14.5172C33.9166 16.5498 31.797 18.7502 31.797 18.7502C31.797 18.7502 34.478 23.631 35.6875 24.5655Z" fill="white"/>
</svg>
