<svg width="63" height="84" viewBox="0 0 63 84" fill="white" xmlns="http://www.w3.org/2000/svg">
<path d="M27.1175 24.5656C25.9081 25.5002 24.3679 24.592 22.546 22.4109C20.7241 20.2298 19.6859 18.5558 18.7824 17.2306C17.8789 15.9055 16.9374 14.3409 16.4604 13.4697C16.3871 13.3359 16.3257 13.2015 16.2775 13.0666C16.0115 12.3226 16.1462 11.5621 16.908 10.8003C17.808 9.90027 18.7125 9.26023 20.0473 8.57626C21.382 7.8923 21.6843 8.63553 22.4833 9.45516C22.5084 9.48096 22.5417 9.51688 22.5823 9.5619C23.2136 10.2616 25.6201 13.1613 26.9279 14.5172C28.8884 16.5499 31.008 18.7502 31.008 18.7502C31.008 18.7502 28.3269 23.631 27.1175 24.5656Z" fill="white"/>
<path d="M34.8984 24.5655C36.1078 25.5001 37.648 24.592 39.4699 22.4109C41.2919 20.2297 42.33 18.5557 43.2335 17.2306C44.137 15.9054 45.0785 14.3408 45.5555 13.4696C45.6284 13.3365 45.6896 13.2028 45.7378 13.0685C46.0046 12.3239 45.8704 11.5627 45.108 10.8002C44.208 9.9002 43.3034 9.26015 41.9686 8.57619C40.6339 7.89222 40.3316 8.63546 39.5326 9.45508C39.5056 9.48283 39.4692 9.52226 39.4243 9.57214C38.7791 10.2895 36.3895 13.1678 35.0881 14.5172C33.1275 16.5498 31.008 18.7502 31.008 18.7502C31.008 18.7502 33.689 23.631 34.8984 24.5655Z" fill="white"/>
<path d="M15.7097 72.1096C14.2643 71.697 13.3097 70.8 13.0839 69.4702L13.0801 69.4478C13.0013 68.9851 12.9815 68.8689 13.1093 64.7996C13.1093 64.6415 13.1394 64.4711 13.2001 64.3005C10.7766 64.4043 5.36222 64.1522 4.60611 63.9002C3.70611 63.6002 3.40625 63.0002 3.40625 62.1002C3.40625 61.7791 3.5889 58.9735 3.5889 58.2188C3.5889 57.7061 4.08324 57.153 4.7168 56.8686C5.01559 56.7345 5.34536 56.6601 5.66883 56.6779C7.97705 56.8047 11.3838 56.9569 13.9964 57.0837C14.1778 57.0925 14.3583 57.1193 14.5312 57.1643C14.4654 59.445 14.4108 61.4616 14.3485 63.1596C14.79 62.9925 15.3519 62.9451 16.0382 63.1052C16.9946 63.3283 19.4922 64.0539 22.3534 64.4689C25.4278 64.9149 28.9089 65.0667 31.0078 65.0667C33.1068 65.0667 36.5914 64.9149 39.6657 64.4689C42.527 64.0539 45.0245 63.3283 45.981 63.1052C46.6672 62.9451 47.2291 62.9925 47.6706 63.1596C47.6083 61.4612 47.5538 59.444 47.4879 57.1626C47.6588 57.1187 47.837 57.0924 48.0161 57.0837C50.6287 56.9569 54.0355 56.8047 56.3437 56.6779C56.6671 56.6601 56.9969 56.7345 57.2957 56.8686C57.9293 57.153 58.4236 57.7061 58.4236 58.2188C58.4236 58.9735 58.6063 61.7791 58.6063 62.1002C58.6063 63.0002 58.3064 63.6002 57.4064 63.9002C56.651 64.152 51.246 64.4038 48.8191 64.3008C48.8798 64.4713 48.9098 64.6416 48.9098 64.7996C49.0376 68.8689 49.0178 68.9851 48.9391 69.4478L48.9353 69.4702C48.7095 70.8 47.7548 71.697 46.3094 72.1096C45.4906 72.3433 43.6155 73.131 40.2966 73.614C37.7566 73.9836 34.3331 74.1001 31.0096 74.1001C27.686 74.1001 24.2625 73.9836 21.7226 73.614C18.4037 73.131 16.5285 72.3433 15.7097 72.1096Z" fill="white"/>
</svg>
