<svg width="63" height="84" viewBox="0 0 63 84" fill="white" xmlns="http://www.w3.org/2000/svg">
<path d="M22.7464 54.567C19.8851 54.1519 17.3876 53.4263 16.4311 53.2032C15.7594 53.0465 15.2067 53.0886 14.7696 53.2472C13.9156 53.5571 13.5023 54.3116 13.5023 54.8976C13.4745 55.7837 13.4536 56.4824 13.4389 57.0381C10.9911 56.9215 8.09719 56.7897 6.05946 56.6778C5.73598 56.66 5.40622 56.7344 5.10743 56.8685C4.47386 57.1529 3.97953 57.7059 3.97953 58.2187C3.97953 58.9733 3.79688 61.779 3.79688 62.1001C3.79688 63.0001 4.09674 63.6001 4.99674 63.9001C5.89674 64.2001 13.3967 64.5001 14.5967 64.2001C15.7967 63.9001 15.8526 63.2183 15.9809 62.2482C15.9835 62.2286 15.9859 62.2039 15.9882 62.1736C16.026 62.1853 16.0642 62.1966 16.1027 62.2076C16.9215 62.4413 18.7966 63.2291 22.1155 63.712C24.6555 64.0816 28.076 64.1981 31.3995 64.1981C34.7231 64.1981 38.1466 64.0816 40.6865 63.712C44.0054 63.2291 45.8806 62.4413 46.6994 62.2076C46.7351 62.1974 46.7706 62.1869 46.8058 62.1761C46.808 62.2052 46.8103 62.2292 46.8128 62.2482C46.9412 63.2183 46.997 63.9001 48.197 64.2001C49.397 64.5001 56.897 64.2001 57.797 63.9001C58.697 63.6001 58.9969 63.0001 58.9969 62.1001C58.9969 61.779 58.8142 58.9733 58.8142 58.2187C58.8142 57.7059 58.3199 57.1529 57.6863 56.8685C57.3875 56.7344 57.0578 56.66 56.7343 56.6778C54.6989 56.7896 51.8092 56.9212 49.3632 57.0377C49.3484 56.4821 49.3276 55.7835 49.2998 54.8976C49.2998 54.3116 48.8865 53.5571 48.0325 53.2472C47.5953 53.0886 47.0427 53.0465 46.3709 53.2032C45.4145 53.4263 42.9169 54.1519 40.0556 54.567C36.9955 55.0108 33.5307 55.1404 31.4287 55.1416C29.3298 55.1416 25.8208 55.0129 22.7464 54.567Z" fill="white"/>
<path d="M27.5081 24.5656C26.2987 25.5002 24.7585 24.592 22.9366 22.4109C21.1147 20.2298 20.0765 18.5558 19.173 17.2306C18.2695 15.9055 17.3281 14.3409 16.851 13.4697C16.7777 13.3359 16.7163 13.2015 16.6681 13.0666C16.4021 12.3226 16.5368 11.5621 17.2986 10.8003C18.1986 9.90027 19.1032 9.26023 20.4379 8.57626C21.7726 7.8923 22.0749 8.63553 22.8739 9.45516C22.8991 9.48096 22.9323 9.51688 22.9729 9.5619C23.6042 10.2616 26.0107 13.1613 27.3185 14.5172C29.279 16.5499 31.3986 18.7502 31.3986 18.7502C31.3986 18.7502 28.7176 23.631 27.5081 24.5656Z" fill="white"/>
<path d="M35.289 24.5655C36.4985 25.5001 38.0386 24.592 39.8606 22.4109C41.6825 20.2297 42.7206 18.5557 43.6242 17.2306C44.5277 15.9054 45.4691 14.3408 45.9462 13.4696C46.0191 13.3365 46.0802 13.2028 46.1284 13.0685C46.3953 12.3239 46.2611 11.5627 45.4986 10.8002C44.5986 9.9002 43.694 9.26015 42.3593 8.57619C41.0245 7.89222 40.7222 8.63546 39.9233 9.45508C39.8962 9.48283 39.8598 9.52226 39.8149 9.57214C39.1697 10.2895 36.7802 13.1678 35.4787 14.5172C33.5182 16.5498 31.3986 18.7502 31.3986 18.7502C31.3986 18.7502 34.0796 23.631 35.289 24.5655Z" fill="white"/>
</svg>
