<svg width="64" height="129" viewBox="0 0 64 129" fill="none" xmlns="http://www.w3.org/2000/svg">
<path d="M36.3538 45.9967C36.3538 45.5659 36.0045 45.2167 35.5737 45.2167C35.143 45.2167 34.7938 45.5659 34.7938 45.9967C34.7938 46.4275 35.143 46.7767 35.5737 46.7767C36.0045 46.7767 36.3538 46.4275 36.3538 45.9967Z" fill="#1E1E1E"/>
<path d="M27.1616 31.6213C27.1616 31.1905 26.8123 30.8413 26.3816 30.8413C25.9508 30.8413 25.6016 31.1905 25.6016 31.6213C25.6016 32.0521 25.9508 32.4013 26.3816 32.4013C26.8123 32.4013 27.1616 32.0521 27.1616 31.6213Z" fill="#1E1E1E"/>
<path d="M27.1616 38.809C27.1616 38.3782 26.8123 38.029 26.3816 38.029C25.9508 38.029 25.6016 38.3782 25.6016 38.809C25.6016 39.2398 25.9508 39.589 26.3816 39.589C26.8123 39.589 27.1616 39.2398 27.1616 38.809Z" fill="#1E1E1E"/>
<path d="M27.1616 45.9967C27.1616 45.5659 26.8123 45.2167 26.3816 45.2167C25.9508 45.2167 25.6016 45.5659 25.6016 45.9967C25.6016 46.4275 25.9508 46.7767 26.3816 46.7767C26.8123 46.7767 27.1616 46.4275 27.1616 45.9967Z" fill="#1E1E1E"/>
<path d="M9.56 59.1367C9.56 58.7059 9.21078 58.3567 8.78 58.3567C8.34922 58.3567 8 58.7059 8 59.1367C8 59.5675 8.34922 59.9167 8.78 59.9167C9.21078 59.9167 9.56 59.5675 9.56 59.1367Z" fill="#1E1E1E"/>
<path d="M54.0275 59.1367C54.0275 58.7059 54.3767 58.3567 54.8075 58.3567C55.2383 58.3567 55.5875 58.7059 55.5875 59.1367C55.5875 59.5675 55.2383 59.9167 54.8075 59.9167C54.3767 59.9167 54.0275 59.5675 54.0275 59.1367Z" fill="#1E1E1E"/>
</svg>
