<svg width="63" height="129" viewBox="0 0 63 129" fill="none" xmlns="http://www.w3.org/2000/svg">
<path d="M26.7709 43.0609C26.7709 42.6301 26.4217 42.2809 25.9909 42.2809C25.5602 42.2809 25.2109 42.6301 25.2109 43.0609C25.2109 43.4917 25.5602 43.8409 25.9909 43.8409C26.4217 43.8409 26.7709 43.4917 26.7709 43.0609Z" fill="#1E1E1E"/>
<path d="M26.7709 54.5007C26.7709 54.07 26.4217 53.7207 25.9909 53.7207C25.5602 53.7207 25.2109 54.07 25.2109 54.5007C25.2109 54.9315 25.5602 55.2807 25.9909 55.2807C26.4217 55.2807 26.7709 54.9315 26.7709 54.5007Z" fill="#1E1E1E"/>
<path d="M26.7709 65.9406C26.7709 65.5099 26.4217 65.1606 25.9909 65.1606C25.5602 65.1606 25.2109 65.5099 25.2109 65.9406C25.2109 66.3714 25.5602 66.7206 25.9909 66.7206C26.4217 66.7206 26.7709 66.3714 26.7709 65.9406Z" fill="#1E1E1E"/>
<path d="M35.7709 43.0608C35.7709 42.63 35.4217 42.2808 34.9909 42.2808C34.5602 42.2808 34.2109 42.63 34.2109 43.0608C34.2109 43.4915 34.5602 43.8408 34.9909 43.8408C35.4217 43.8408 35.7709 43.4915 35.7709 43.0608Z" fill="#1E1E1E"/>
<path d="M35.7709 54.5006C35.7709 54.0698 35.4217 53.7206 34.9909 53.7206C34.5602 53.7206 34.2109 54.0698 34.2109 54.5006C34.2109 54.9314 34.5602 55.2806 34.9909 55.2806C35.4217 55.2806 35.7709 54.9314 35.7709 54.5006Z" fill="#1E1E1E"/>
<path d="M35.7709 65.9407C35.7709 65.51 35.4217 65.1607 34.9909 65.1607C34.5602 65.1607 34.2109 65.51 34.2109 65.9407C34.2109 66.3715 34.5602 66.7207 34.9909 66.7207C35.4217 66.7207 35.7709 66.3715 35.7709 65.9407Z" fill="#1E1E1E"/>
<path d="M9.16938 59.1367C9.16938 58.7059 8.82016 58.3567 8.38938 58.3567C7.95859 58.3567 7.60938 58.7059 7.60938 59.1367C7.60938 59.5675 7.95859 59.9167 8.38938 59.9167C8.82016 59.9167 9.16938 59.5675 9.16938 59.1367Z" fill="#1E1E1E"/>
<path d="M53.6369 59.1367C53.6369 58.7059 53.9861 58.3567 54.4169 58.3567C54.8477 58.3567 55.1969 58.7059 55.1969 59.1367C55.1969 59.5675 54.8477 59.9167 54.4169 59.9167C53.9861 59.9167 53.6369 59.5675 53.6369 59.1367Z" fill="#1E1E1E"/>
</svg>
