<svg width="63" height="129" viewBox="0 0 63 129" fill="none" xmlns="http://www.w3.org/2000/svg">
<path d="M8.76313 59.1367C8.76313 58.7059 8.41391 58.3567 7.98313 58.3567C7.55234 58.3567 7.20312 58.7059 7.20312 59.1367C7.20312 59.5675 7.55234 59.9167 7.98313 59.9167C8.41391 59.9167 8.76313 59.5675 8.76313 59.1367Z" fill="#1E1E1E"/>
<path d="M53.2306 59.1367C53.2306 58.7059 53.5798 58.3567 54.0106 58.3567C54.4414 58.3567 54.7906 58.7059 54.7906 59.1367C54.7906 59.5675 54.4414 59.9167 54.0106 59.9167C53.5798 59.9167 53.2306 59.5675 53.2306 59.1367Z" fill="#1E1E1E"/>
<path d="M26.3647 43.0613C26.3647 42.6305 26.0155 42.2812 25.5847 42.2812C25.1539 42.2812 24.8047 42.6305 24.8047 43.0613C24.8047 43.492 25.1539 43.8413 25.5847 43.8413C26.0155 43.8413 26.3647 43.492 26.3647 43.0613Z" fill="#1E1E1E"/>
<path d="M26.3647 56.6213C26.3647 56.1905 26.0155 55.8413 25.5847 55.8413C25.1539 55.8413 24.8047 56.1905 24.8047 56.6213C24.8047 57.0521 25.1539 57.4013 25.5847 57.4013C26.0155 57.4013 26.3647 57.0521 26.3647 56.6213Z" fill="#1E1E1E"/>
<path d="M26.3647 70.1814C26.3647 69.7506 26.0155 69.4014 25.5847 69.4014C25.1539 69.4014 24.8047 69.7506 24.8047 70.1814C24.8047 70.6121 25.1539 70.9614 25.5847 70.9614C26.0155 70.9614 26.3647 70.6121 26.3647 70.1814Z" fill="#1E1E1E"/>
<path d="M26.3647 83.7414C26.3647 83.3106 26.0155 82.9614 25.5847 82.9614C25.1539 82.9614 24.8047 83.3106 24.8047 83.7414C24.8047 84.1722 25.1539 84.5214 25.5847 84.5214C26.0155 84.5214 26.3647 84.1722 26.3647 83.7414Z" fill="#1E1E1E"/>
<path d="M26.3647 97.3015C26.3647 96.8707 26.0155 96.5215 25.5847 96.5215C25.1539 96.5215 24.8047 96.8707 24.8047 97.3015C24.8047 97.7323 25.1539 98.0815 25.5847 98.0815C26.0155 98.0815 26.3647 97.7323 26.3647 97.3015Z" fill="#1E1E1E"/>
<path d="M35.3647 43.0613C35.3647 42.6305 35.0155 42.2812 34.5847 42.2812C34.1539 42.2812 33.8047 42.6305 33.8047 43.0613C33.8047 43.492 34.1539 43.8413 34.5847 43.8413C35.0155 43.8413 35.3647 43.492 35.3647 43.0613Z" fill="#1E1E1E"/>
<path d="M35.3647 56.6213C35.3647 56.1905 35.0155 55.8413 34.5847 55.8413C34.1539 55.8413 33.8047 56.1905 33.8047 56.6213C33.8047 57.0521 34.1539 57.4013 34.5847 57.4013C35.0155 57.4013 35.3647 57.0521 35.3647 56.6213Z" fill="#1E1E1E"/>
<path d="M35.3647 70.1814C35.3647 69.7506 35.0155 69.4014 34.5847 69.4014C34.1539 69.4014 33.8047 69.7506 33.8047 70.1814C33.8047 70.6121 34.1539 70.9614 34.5847 70.9614C35.0155 70.9614 35.3647 70.6121 35.3647 70.1814Z" fill="#1E1E1E"/>
<path d="M35.3647 83.7414C35.3647 83.3106 35.0155 82.9614 34.5847 82.9614C34.1539 82.9614 33.8047 83.3106 33.8047 83.7414C33.8047 84.1722 34.1539 84.5214 34.5847 84.5214C35.0155 84.5214 35.3647 84.1722 35.3647 83.7414Z" fill="#1E1E1E"/>
<path d="M35.3647 97.3015C35.3647 96.8707 35.0155 96.5215 34.5847 96.5215C34.1539 96.5215 33.8047 96.8707 33.8047 97.3015C33.8047 97.7323 34.1539 98.0815 34.5847 98.0815C35.0155 98.0815 35.3647 97.7323 35.3647 97.3015Z" fill="#1E1E1E"/>
</svg>
