<svg width="63" height="54" viewBox="0 0 63 54" fill="white" xmlns="http://www.w3.org/2000/svg">
<path d="M22.439 49.308C14.9632 49.8951 9.89762 49.8651 2.36186 49.6698C2.36186 49.6698 2.24711 50.0086 2.25862 50.3517C2.27014 50.6949 2.37744 52.1831 3.84737 52.3668C4.52545 52.4516 9.52286 52.8132 14.8366 52.7167C21.0418 52.604 26.4309 52.064 27.3273 51.7726C28.2237 51.4813 28.6772 51.2088 28.9685 50.6486C29.2598 50.0883 29.1266 48.6876 29.1266 48.6876C26.657 48.9454 24.4599 49.1492 22.439 49.308Z" fill="#EBE3D2"/>
<path d="M12.5466 30.6936C12.4739 31.4751 13.1601 31.885 13.3645 32.0361C15.4905 31.958 19.2095 31.8616 22.435 31.8593C24.7216 31.8576 26.7601 31.9032 27.8071 32.0361C28.4782 32.0361 28.6275 31.1741 28.6123 30.7787C28.597 30.3833 28.3273 29.5595 27.4239 29.4413C26.5205 29.3232 23.0034 29.288 20.9444 29.2615C18.8854 29.235 14.166 29.413 13.7523 29.4413C13.3386 29.4697 12.6374 29.7168 12.5466 30.6936Z" fill="#EBE3D2"/>
<path d="M39.5644 49.3079C47.0402 49.8951 52.1058 49.8651 59.6415 49.6697C59.6415 49.6697 59.7563 50.0085 59.7448 50.3517C59.7333 50.6949 59.626 52.1831 58.156 52.3668C57.478 52.4516 52.4805 52.8132 47.1668 52.7166C40.9616 52.6039 35.5725 52.0639 34.6761 51.7726C33.7797 51.4813 33.3262 51.2088 33.0349 50.6485C32.7436 50.0883 32.8768 48.6875 32.8768 48.6875C35.3464 48.9454 37.5435 49.1492 39.5644 49.3079Z" fill="#EBE3D2"/>
<path d="M49.4568 30.6936C49.5295 31.475 48.8433 31.885 48.6389 32.0361C46.5129 31.958 42.7939 31.8616 39.5684 31.8593C37.2818 31.8576 35.2433 31.9032 34.1963 32.0361C33.5252 32.0361 33.3759 31.1741 33.3911 30.7787C33.4064 30.3833 33.6761 29.5595 34.5795 29.4413C35.4829 29.3231 39 29.2879 41.059 29.2615C43.118 29.235 47.8374 29.413 48.2511 29.4413C48.6648 29.4696 49.366 29.7168 49.4568 30.6936Z" fill="#EBE3D2"/>
</svg>
