<svg width="63" height="54" viewBox="0 0 63 54" fill="none" xmlns="http://www.w3.org/2000/svg">
<path d="M2.86019 49.7519C2.84867 49.4087 2.96343 49.0699 2.96343 49.0699C10.908 49.2759 16.107 49.2981 24.2792 48.6071C25.9542 48.4654 27.7542 48.2938 29.7282 48.0877C29.7282 48.0877 29.8614 49.4885 29.5701 50.0487C29.2787 50.609 28.8253 50.8815 27.9289 51.1728C27.0325 51.4642 21.6433 52.0041 15.4381 52.1168C10.1244 52.2134 5.12701 51.8518 4.44893 51.767C2.979 51.5833 2.8717 50.0951 2.86019 49.7519Z" fill="#EBE3D2"/>
<path d="M14.3138 37.8233C13.8157 38.0857 13.8572 38.9598 13.932 39.0652C14.4805 40.5665 17.302 43.2298 24.2792 43.9452C25.8436 44.1056 27.6168 44.1681 29.6202 44.0976C30.0302 43.7983 30.158 43.4743 30.158 43.0954C30.158 42.7166 29.8315 42.1117 29.1028 42.1117C28.3741 42.1117 26.4147 42.3702 22.1649 41.5934C17.9152 40.8165 15.9382 38.3273 15.606 38.0425C15.2738 37.7578 14.8119 37.5608 14.3138 37.8233Z" fill="#EBE3D2"/>
<path d="M60.3463 49.752C60.3579 49.4088 60.2431 49.07 60.2431 49.07C52.2987 49.2759 47.0997 49.2981 38.9277 48.6072C37.2526 48.4655 35.4525 48.2939 33.4783 48.0878C33.4783 48.0878 33.3451 49.4885 33.6365 50.0488C33.9278 50.609 34.3812 50.8815 35.2776 51.1729C36.174 51.4642 41.5632 52.0042 47.7684 52.1169C53.0821 52.2134 58.0795 51.8518 58.7576 51.7671C60.2275 51.5833 60.3348 50.0951 60.3463 49.752Z" fill="#EBE3D2"/>
<path d="M48.8927 37.8233C49.3908 38.0857 49.3493 38.9598 49.2746 39.0653C48.726 40.5665 45.9047 43.2298 38.9277 43.9452C37.3633 44.1056 35.5899 44.1681 33.5863 44.0976C33.1763 43.7983 33.0486 43.4743 33.0486 43.0955C33.0486 42.7166 33.3751 42.1117 34.1038 42.1117C34.8324 42.1117 36.7918 42.3703 41.0416 41.5934C45.2914 40.8166 47.2683 38.3273 47.6005 38.0426C47.9327 37.7578 48.3946 37.5609 48.8927 37.8233Z" fill="#EBE3D2"/>
</svg>
