<svg width="32" height="32" viewBox="0 0 32 32" fill="none" xmlns="http://www.w3.org/2000/svg">
<path d="M14.8471 26.1846C13.9328 26.3683 11.939 26.3625 11.1385 26.1846C10.3428 26.0078 9.94442 25.6966 9.7896 25.3481C9.61341 25.9642 9.32712 26.4049 9.01743 26.4824C8.56028 26.5966 6.45727 26.4824 5.9392 26.2676C5.42114 26.0529 4.89677 25.0987 5.01753 23.7846C5.13829 22.4705 5.96843 20.8424 6.24138 18.6106C6.51434 16.3788 6.5032 14.756 6.5032 12.8132C6.5032 10.8703 6.84694 9.22296 7.76027 8.01317C8.07627 7.5946 8.48826 7.3015 9.04819 7.04036C9.30295 6.92154 9.76794 6.7133 10.09 6.60224C10.4121 6.49118 10.8209 6.47688 11.1458 6.60224C12.5934 6.15239 14.547 6 15.8607 6C17.1768 6 19.1502 6.15296 20.5986 6.60477C20.9251 6.47647 21.3124 6.54679 21.6606 6.65395C22.0089 6.7611 22.4471 6.92154 22.7018 7.04036C23.2617 7.3015 23.6737 7.5946 23.9897 8.01317C24.9031 9.22296 25.2468 10.8703 25.2468 12.8132C25.2468 14.756 25.2357 16.3788 25.5086 18.6106C25.7816 20.8424 26.6117 22.4705 26.7325 23.7846C26.8532 25.0987 26.3289 26.0529 25.8108 26.2676C25.2927 26.4824 23.1897 26.5966 22.7326 26.4824C22.4231 26.405 22.1371 25.965 21.9609 25.3497C21.8055 25.6975 21.4071 26.0081 20.6127 26.1846C19.8122 26.3625 17.8184 26.3683 16.9041 26.1846C16.4505 26.0935 15.8756 25.956 15.8756 24.6989C15.8756 25.956 15.3007 26.0935 14.8471 26.1846Z" fill="white"/>
<path d="M10.7328 12.356C10.9785 15.1086 10.0295 17.6374 10.0382 19.3373C10.0469 21.0372 10.364 21.5348 10.0382 22.6435C9.71238 23.7522 9.67964 24.567 9.7124 25.0349C9.71982 25.1409 9.74427 25.2461 9.7896 25.3481M15.8756 24.6989C15.8756 25.956 15.3007 26.0935 14.8471 26.1846C13.9328 26.3683 11.939 26.3625 11.1385 26.1846C10.3428 26.0078 9.94442 25.6966 9.7896 25.3481M15.8756 24.6989C15.8756 25.956 16.4505 26.0935 16.9041 26.1846C17.8184 26.3683 19.8122 26.3625 20.6127 26.1846C21.4071 26.0081 21.8055 25.6975 21.9609 25.3497M15.8756 24.6989C15.9518 24.4322 15.8982 23.3727 15.9897 20.9956C16.0892 18.4073 15.7574 18.3826 15.7574 16.0955C15.7574 15.1374 15.8866 14.9213 15.9897 13.0401C16.0518 11.9054 16.0518 10.7371 15.9897 9.60247M21.0184 12.356C20.7727 15.1086 21.7217 17.6374 21.713 19.3373C21.7043 21.0372 21.3871 21.5348 21.713 22.6435C22.0388 23.7522 22.0715 24.567 22.0388 25.0349C22.0313 25.1414 22.0067 25.2472 21.9609 25.3497M15.9897 9.60247C15.9897 9.60247 15.2431 9.35431 14.2205 8.94434C13.1978 8.53437 12.0335 7.47482 11.7019 7.04036C11.5368 6.82405 11.3488 6.68054 11.1458 6.60224M15.9897 9.60247C15.9897 9.60247 16.7117 9.45938 17.7822 8.86541C18.8527 8.27143 19.7354 7.45078 20.0487 7.04036C20.2121 6.82626 20.398 6.68359 20.5986 6.60477M20.5986 6.60477C19.1502 6.15296 17.1768 6 15.8607 6C14.547 6 12.5934 6.15239 11.1458 6.60224M20.5986 6.60477C20.9251 6.47647 21.3124 6.54679 21.6606 6.65395C22.0089 6.7611 22.4471 6.92154 22.7018 7.04036C23.2617 7.3015 23.6737 7.5946 23.9897 8.01317C24.9031 9.22296 25.2468 10.8703 25.2468 12.8132C25.2468 14.756 25.2357 16.3788 25.5086 18.6106C25.7816 20.8424 26.6117 22.4705 26.7325 23.7846C26.8532 25.0987 26.3289 26.0529 25.8108 26.2676C25.2927 26.4824 23.1897 26.5966 22.7326 26.4824C22.4231 26.405 22.1371 25.965 21.9609 25.3497M11.1458 6.60224C10.8209 6.47688 10.4121 6.49118 10.09 6.60224C9.76794 6.7133 9.30295 6.92154 9.04819 7.04036C8.48826 7.3015 8.07627 7.5946 7.76027 8.01317C6.84694 9.22296 6.5032 10.8703 6.5032 12.8132C6.5032 14.756 6.51434 16.3788 6.24138 18.6106C5.96843 20.8424 5.13829 22.4705 5.01753 23.7846C4.89677 25.0987 5.42114 26.0529 5.9392 26.2676C6.45727 26.4824 8.56028 26.5966 9.01743 26.4824C9.32712 26.4049 9.61341 25.9642 9.7896 25.3481" stroke="#1E1E1E" stroke-width="0.8" stroke-linecap="round"/>
<path d="M17.6251 21.4988C17.6251 21.3726 17.5228 21.2703 17.3965 21.2703C17.2703 21.2703 17.168 21.3726 17.168 21.4988C17.168 21.6251 17.2703 21.7274 17.3965 21.7274C17.5228 21.7274 17.6251 21.6251 17.6251 21.4988Z" fill="#1E1E1E"/>
<path d="M17.6251 16.4703C17.6251 16.344 17.5228 16.2417 17.3965 16.2417C17.2703 16.2417 17.168 16.344 17.168 16.4703C17.168 16.5965 17.2703 16.6988 17.3965 16.6988C17.5228 16.6988 17.6251 16.5965 17.6251 16.4703Z" fill="#1E1E1E"/>
<path d="M17.6251 11.4417C17.6251 11.3155 17.5228 11.2131 17.3965 11.2131C17.2703 11.2131 17.168 11.3155 17.168 11.4417C17.168 11.5679 17.2703 11.6703 17.3965 11.6703C17.5228 11.6703 17.6251 11.5679 17.6251 11.4417Z" fill="#1E1E1E"/>
</svg>
