<svg width="32" height="32" viewBox="0 0 32 32" fill="none" xmlns="http://www.w3.org/2000/svg">
<path d="M28.7571 19.2724C28.9706 21.2666 28.7571 22.637 28.7571 22.637C28.7571 22.637 29.0474 25.3314 28.2844 25.3314H23.4447C22.5505 25.3314 22.3399 24.2325 22.3399 24.2325C22.3399 24.2325 20.6344 24.54 18.9568 24.7637C17.2793 24.9874 15.4836 25.2176 14.0366 25.3416C9.12661 25.7621 5.30703 25.3416 4.62726 25.3416C3.6931 25.3416 3.24918 25.3159 3.24918 24.5596C3.24918 24.2668 3.21989 23.7181 3.25128 23.6265C3.20291 23.4025 2.82008 21.5938 3.83482 20.6948C4.90477 19.7469 7.8155 20.0363 9.92914 19.4988C12.0428 18.9614 13.4178 18.4671 14.6572 17.6559C15.5058 17.1006 16.3278 16.4881 16.8827 15.3751C17.4376 14.2622 17.8956 8.50208 17.9168 7.84454C17.938 7.187 18.0056 6.60668 19.1051 6.48675C19.4207 6.45233 25.6836 6.48669 26.7022 6.48669C27.7207 6.48669 28.1789 6.58065 28.2844 7.4945C28.3898 8.40836 28.4955 16.8287 28.7571 19.2724Z" fill="white" stroke="#1E1E1E" stroke-width="0.576" stroke-linecap="round" stroke-linejoin="round"/>
<path d="M28.7571 22.637C28.7571 22.637 28.9706 21.2666 28.7571 19.2724C28.4955 16.8287 28.3898 8.40836 28.2844 7.4945C28.1789 6.58065 27.7207 6.48669 26.7022 6.48669C25.6836 6.48669 19.4207 6.45233 19.1051 6.48675C18.0056 6.60668 17.938 7.187 17.9168 7.84454C17.8956 8.50208 17.4376 14.2622 16.8827 15.3751C16.3278 16.4881 15.5058 17.1006 14.6572 17.6559C13.4178 18.4671 12.0428 18.9614 9.92914 19.4988C7.8155 20.0363 4.90477 19.7469 3.83482 20.6948C2.82008 21.5938 3.20291 23.4025 3.25128 23.6265M28.7571 22.637C28.7571 22.637 29.0474 25.3314 28.2844 25.3314H23.4447C22.5505 25.3314 22.3399 24.2325 22.3399 24.2325C22.3399 24.2325 20.6344 24.54 18.9568 24.7637C17.2793 24.9874 15.4836 25.2176 14.0366 25.3416C9.12661 25.7621 5.30703 25.3416 4.62726 25.3416C3.6931 25.3416 3.24918 25.3159 3.24918 24.5596C3.24918 24.2668 3.21989 23.7181 3.25128 23.6265M28.7571 22.637C28.7571 22.637 25.1009 22.5042 23.0917 22.6369C21.0824 22.7696 18.4511 23.0116 14.0366 23.6265C9.62215 24.2413 3.25128 23.6265 3.25128 23.6265" stroke="#1E1E1E" stroke-width="0.9" stroke-linecap="round"/>
</svg>
