<svg width="32" height="32" viewBox="0 0 32 32" fill="none" xmlns="http://www.w3.org/2000/svg">
<path d="M19.8582 25.5173C20.3187 25.4405 20.6657 25.2856 20.9339 25.0595C21.2298 24.81 21.4296 24.4737 21.5798 24.0602C21.6527 24.5879 21.7091 24.9393 21.7497 25.0773C21.9471 25.7488 22.1059 26.1055 22.563 26.2198C22.6423 26.2396 22.7572 26.249 22.8947 26.2503C23.1352 26.2527 23.4448 26.2305 23.7545 26.1968C24.0419 26.1655 24.3292 26.1243 24.5612 26.0836C24.7598 26.0488 24.9177 26.0143 25.0004 25.9867C25.0961 25.9548 25.2185 25.916 25.3451 25.8569C25.6724 25.7041 26.0285 25.4156 26.0285 24.7604C26.0285 23.8514 26.0287 22.7201 26.0285 21.2936C26.0283 19.8671 25.8903 17.9418 25.5133 15.6474C25.1363 13.3529 24.9001 12.3218 24.0705 10.5823C23.2408 8.84272 22.9426 8.28906 21.4568 6.91763C21.2778 6.75238 21.0988 6.6004 20.92 6.46049C20.6577 6.25531 20.3574 6.00092 20.0862 5.85736L20.0804 5.85427C19.8079 5.71002 19.313 5.44799 19.0182 5.54642C18.1946 5.16197 16.909 5 15.5003 5C14.0897 5 12.8233 5.1572 11.9998 5.54277C11.7059 5.44875 11.3325 5.54277 10.9961 5.78526C10.6598 6.02775 10.4175 6.21884 10.1086 6.46049C9.92979 6.6004 9.75076 6.75238 9.57173 6.91763C8.08602 8.28906 7.78774 8.84272 6.95811 10.5823C6.12849 12.3218 5.89226 13.3529 5.51527 15.6474C5.13829 17.9418 5.00032 19.8671 5.0001 21.2936C4.99988 22.7201 5.0001 23.8514 5.0001 24.7604C5.0001 25.4156 5.35621 25.7041 5.68344 25.8569C5.81012 25.916 5.93246 25.9548 6.02815 25.9867C6.11083 26.0143 6.26881 26.0488 6.46736 26.0836C6.69934 26.1243 6.98671 26.1655 7.27411 26.1968C7.57124 26.2291 7.86841 26.2509 8.10444 26.2505C8.25497 26.2502 8.38064 26.241 8.46557 26.2198C8.92272 26.1055 9.08152 25.7488 9.27889 25.0773C9.3195 24.9391 9.37609 24.5868 9.44912 24.0578C9.59935 24.4724 9.79938 24.8095 10.0959 25.0595C10.364 25.2856 10.7111 25.4405 11.1715 25.5173C11.2122 25.5241 11.2535 25.5304 11.2953 25.5364C11.7032 25.5949 12.1638 25.6168 12.6331 25.6187C13.1066 25.6207 13.5888 25.6024 14.0343 25.5808C14.629 25.5519 15.1583 25.5173 15.5144 25.5173C15.8706 25.5173 16.4003 25.552 16.9955 25.5808C17.441 25.6024 17.9232 25.6207 18.3966 25.6187C18.866 25.6168 19.3267 25.5948 19.7345 25.5364C19.7763 25.5304 19.8176 25.5241 19.8582 25.5173Z" fill="white"/>
<path d="M9.45724 12.0605C9.45724 12.0605 8.89236 21.5046 9.16354 22.9356C9.243 23.3549 9.33055 23.7305 9.44912 24.0578M11.2953 25.5364C11.2788 25.284 11.2558 24.6329 11.2953 24.3656M11.2953 25.5364C11.2535 25.5304 11.2122 25.5241 11.1715 25.5173C10.7111 25.4405 10.364 25.2856 10.0959 25.0595C9.79938 24.8095 9.59935 24.4724 9.44912 24.0578M11.2953 25.5364C11.7032 25.5949 12.1638 25.6168 12.6331 25.6187C13.1066 25.6207 13.5888 25.6024 14.0343 25.5808M14.0343 25.5808C14.0343 25.3625 14.0602 24.7147 14.0861 24.4889M14.0343 25.5808C14.629 25.5519 15.1583 25.5173 15.5144 25.5173M21.5725 12.0605C21.5725 12.0605 22.1374 21.5046 21.8662 22.9356C21.7866 23.3559 21.6988 23.7323 21.5798 24.0602M19.7345 25.5364C19.751 25.284 19.774 24.6329 19.7345 24.3656M19.7345 25.5364C19.7763 25.5304 19.8176 25.5241 19.8582 25.5173C20.3187 25.4405 20.6657 25.2856 20.9339 25.0595C21.2298 24.81 21.4296 24.4737 21.5798 24.0602M19.7345 25.5364C19.3267 25.5948 18.866 25.6168 18.3966 25.6187C17.9232 25.6207 17.441 25.6024 16.9955 25.5808M16.9955 25.5808C16.9955 25.3625 16.9696 24.7147 16.9437 24.4889M16.9955 25.5808C16.4003 25.552 15.8706 25.5173 15.5144 25.5173M15.5144 25.5173L15.5152 7.60333M15.5152 7.60333C15.8844 7.60333 16.2199 7.54927 16.5225 7.458M15.5152 7.60333C15.1404 7.60333 14.7989 7.54758 14.4927 7.45374M5.68344 25.8569C5.70881 25.5245 5.7078 25.151 5.74433 24.8648M5.68344 25.8569C5.81012 25.916 5.93246 25.9548 6.02815 25.9867C6.11083 26.0143 6.26881 26.0488 6.46736 26.0836C6.69934 26.1243 6.98671 26.1655 7.27411 26.1968M5.68344 25.8569C5.35621 25.7041 5.0001 25.4156 5.0001 24.7604C5.0001 23.8514 4.99988 22.7201 5.0001 21.2936C5.00032 19.8671 5.13829 17.9418 5.51527 15.6474C5.89226 13.3529 6.12849 12.3218 6.95811 10.5823C7.78774 8.84272 8.08602 8.28906 9.57174 6.91763C9.75076 6.75238 9.92979 6.6004 10.1086 6.46049C10.4175 6.21884 10.6598 6.02775 10.9961 5.78526C11.3325 5.54277 11.7059 5.44875 11.9998 5.54277M7.27411 26.1968C7.35276 25.8151 7.42785 25.3018 7.46439 25.154M7.27411 26.1968C7.57124 26.2291 7.86841 26.2509 8.10444 26.2505C8.25497 26.2502 8.38064 26.241 8.46557 26.2198C8.92272 26.1055 9.08152 25.7488 9.27889 25.0772C9.3195 24.9391 9.37609 24.5868 9.44912 24.0578M25.3451 25.8569C25.3198 25.5245 25.3208 25.151 25.2842 24.8648M25.3451 25.8569C25.2185 25.916 25.0961 25.9548 25.0004 25.9867C24.9177 26.0143 24.7598 26.0487 24.5612 26.0836C24.3292 26.1243 24.0419 26.1655 23.7545 26.1968M25.3451 25.8569C25.6724 25.7041 26.0285 25.4156 26.0285 24.7604C26.0285 23.8514 26.0287 22.7201 26.0285 21.2936C26.0283 19.8671 25.8903 17.9418 25.5133 15.6474C25.1363 13.3529 24.9001 12.3218 24.0705 10.5823C23.2408 8.84272 22.9426 8.28906 21.4568 6.91763C21.2778 6.75238 21.0988 6.6004 20.92 6.46049C20.6577 6.25531 20.3574 6.00092 20.0862 5.85736C19.815 5.71381 19.3151 5.44729 19.0182 5.54642M23.7545 26.1968C23.6758 25.8151 23.6007 25.3018 23.5642 25.154M23.7545 26.1968C23.4448 26.2305 23.1352 26.2527 22.8947 26.2503C22.7572 26.249 22.6423 26.2396 22.563 26.2198C22.1059 26.1055 21.9471 25.7488 21.7497 25.0772C21.7091 24.9393 21.6527 24.5879 21.5798 24.0602M12.3885 7.26359C12.5123 7.15013 12.8531 6.81129 13.0512 6.56993M13.0512 6.56993C12.8857 6.40208 12.7497 6.23181 12.6426 6.07452C12.6042 6.01824 12.5652 5.96649 12.5255 5.91909C12.3619 5.7239 12.1866 5.60254 11.9998 5.54277M13.0512 6.56993C13.2405 6.76204 13.4685 6.95099 13.7362 7.11371C13.9604 7.24996 14.2123 7.36782 14.4927 7.45374M14.1751 8.30698C14.2501 8.15877 14.4381 7.69324 14.4927 7.45374M18.6407 7.26359C18.5169 7.15013 18.1818 6.80544 17.9838 6.56408M17.9838 6.56408C18.1466 6.39813 18.2807 6.22999 18.3866 6.07452C18.42 6.02557 18.4538 5.98005 18.4882 5.93784C18.653 5.73562 18.8297 5.60937 19.0182 5.54642M17.9838 6.56408C17.7906 6.76093 17.5569 6.95471 17.2815 7.12062C17.0565 7.2562 16.8037 7.37317 16.5225 7.458M16.8541 8.30698C16.779 8.15877 16.5771 7.6975 16.5225 7.458M11.9998 5.54277C12.8233 5.1572 14.0897 5 15.5003 5C16.909 5 18.1946 5.16197 19.0182 5.54642" stroke="#1E1E1E" stroke-width="0.8" stroke-linecap="round"/>
<path d="M16.9298 22.5747C16.9298 22.4485 16.8275 22.3462 16.7012 22.3462C16.575 22.3462 16.4727 22.4485 16.4727 22.5747C16.4727 22.701 16.575 22.8033 16.7012 22.8033C16.8275 22.8033 16.9298 22.701 16.9298 22.5747Z" fill="#1E1E1E"/>
<path d="M16.9298 18.9176C16.9298 18.7914 16.8275 18.689 16.7012 18.689C16.575 18.689 16.4727 18.7914 16.4727 18.9176C16.4727 19.0438 16.575 19.1462 16.7012 19.1462C16.8275 19.1462 16.9298 19.0438 16.9298 18.9176Z" fill="#1E1E1E"/>
<path d="M16.9298 16.1747C16.9298 16.0485 16.8275 15.9462 16.7012 15.9462C16.575 15.9462 16.4727 16.0485 16.4727 16.1747C16.4727 16.301 16.575 16.4033 16.7012 16.4033C16.8275 16.4033 16.9298 16.301 16.9298 16.1747Z" fill="#1E1E1E"/>
<path d="M16.9298 13.4319C16.9298 13.3056 16.8275 13.2033 16.7012 13.2033C16.575 13.2033 16.4727 13.3056 16.4727 13.4319C16.4727 13.5581 16.575 13.6604 16.7012 13.6604C16.8275 13.6604 16.9298 13.5581 16.9298 13.4319Z" fill="#1E1E1E"/>
<path d="M16.9298 10.689C16.9298 10.5628 16.8275 10.4604 16.7012 10.4604C16.575 10.4604 16.4727 10.5628 16.4727 10.689C16.4727 10.8153 16.575 10.9176 16.7012 10.9176C16.8275 10.9176 16.9298 10.8153 16.9298 10.689Z" fill="#1E1E1E"/>
</svg>
