<svg width="32" height="33" viewBox="0 0 32 33" fill="none" xmlns="http://www.w3.org/2000/svg">
<path d="M15.2397 30.8055C14.9457 30.8272 13.4544 30.7313 13.0133 30.6974C12.5722 30.6636 11.5791 30.6009 11.2439 30.5342C10.9086 30.4675 10.7112 30.2892 10.7165 30.0068C10.7199 29.8273 10.9237 23.2917 11.3262 16.7896C10.7776 16.7344 9.61788 16.5794 9.26318 16.4759C8.83632 16.3512 8.86809 16.1919 8.84847 16.0051C8.82885 15.8184 9.16967 12.4867 9.41062 10.8431C9.65157 9.19952 10.1244 6.67123 10.6345 5.73607C11.1446 4.8009 11.8017 4.11586 12.5334 3.68031C12.5574 3.66604 12.5813 3.65197 12.605 3.63811C12.5867 3.60802 12.5688 3.57779 12.5516 3.54755C12.4766 3.41582 12.4143 3.29078 12.6086 3.13007C12.8028 2.96937 12.8619 2.9288 13.1946 2.75834C13.5272 2.58788 13.6026 2.77311 13.8017 2.97738C13.8229 2.9991 13.8671 3.04958 13.9271 3.11923C14.4512 2.95123 15.161 2.8805 15.9262 2.8805C16.695 2.8805 17.3984 2.95189 17.9233 3.12158C17.9843 3.05072 18.0293 2.99935 18.0508 2.97738C18.2499 2.77311 18.3252 2.58788 18.6579 2.75834C18.9905 2.9288 19.0496 2.96937 19.2439 3.13007C19.4382 3.29078 19.3759 3.41582 19.3008 3.54755L19.2856 3.57393C19.346 3.6081 19.4069 3.64353 19.4687 3.68031C20.2004 4.11586 20.8576 4.8009 21.3677 5.73607C21.8778 6.67123 22.3506 9.19952 22.5915 10.8431C22.8325 12.4867 23.1733 15.8184 23.1537 16.0051C23.1341 16.1919 23.1659 16.3512 22.739 16.4759C22.3479 16.5901 20.9781 16.7668 20.5279 16.8033C20.9299 23.3009 21.1334 29.8274 21.1368 30.0068C21.1422 30.2892 20.9447 30.4675 20.6095 30.5342C20.2742 30.6009 19.2811 30.6636 18.8401 30.6974C18.399 30.7313 16.9077 30.8272 16.6136 30.8055C16.3196 30.7838 16.2021 30.6409 16.1129 30.4694C16.0237 30.2979 15.9417 29.9152 15.9267 29.5577C15.9116 29.9152 15.8296 30.2979 15.7405 30.4694C15.6513 30.6409 15.5337 30.7838 15.2397 30.8055Z" fill="white"/>
<path d="M17.0216 12.6986C17.0216 12.5912 16.9346 12.5042 16.8272 12.5042C16.7198 12.5042 16.6328 12.5912 16.6328 12.6986C16.6328 12.806 16.7198 12.893 16.8272 12.893C16.9346 12.893 17.0216 12.806 17.0216 12.6986Z" fill="#1E1E1E"/>
<path d="M17.0216 16.0781C17.0216 15.9707 16.9346 15.8837 16.8272 15.8837C16.7198 15.8837 16.6328 15.9707 16.6328 16.0781C16.6328 16.1854 16.7198 16.2724 16.8272 16.2724C16.9346 16.2724 17.0216 16.1854 17.0216 16.0781Z" fill="#1E1E1E"/>
<path d="M17.0216 9.31915C17.0216 9.21179 16.9346 9.12476 16.8272 9.12476C16.7198 9.12476 16.6328 9.21179 16.6328 9.31915C16.6328 9.42651 16.7198 9.51354 16.8272 9.51354C16.9346 9.51354 17.0216 9.42651 17.0216 9.31915Z" fill="#1E1E1E"/>
<path d="M17.0216 19.4575C17.0216 19.3502 16.9346 19.2631 16.8272 19.2631C16.7198 19.2631 16.6328 19.3502 16.6328 19.4575C16.6328 19.5649 16.7198 19.6519 16.8272 19.6519C16.9346 19.6519 17.0216 19.5649 17.0216 19.4575Z" fill="#1E1E1E"/>
<path d="M17.0216 22.837C17.0216 22.7296 16.9346 22.6426 16.8272 22.6426C16.7198 22.6426 16.6328 22.7296 16.6328 22.837C16.6328 22.9443 16.7198 23.0314 16.8272 23.0314C16.9346 23.0314 17.0216 22.9443 17.0216 22.837Z" fill="#1E1E1E"/>
<path d="M17.0216 26.2164C17.0216 26.1091 16.9346 26.022 16.8272 26.022C16.7198 26.022 16.6328 26.1091 16.6328 26.2164C16.6328 26.3238 16.7198 26.4108 16.8272 26.4108C16.9346 26.4108 17.0216 26.3238 17.0216 26.2164Z" fill="#1E1E1E"/>
<path d="M12.2141 6.8443C11.853 9.34604 11.557 13.0623 11.3262 16.7896M15.9267 29.5577C15.9116 29.9152 15.8296 30.2979 15.7405 30.4694C15.6513 30.6409 15.5337 30.7838 15.2397 30.8055C14.9457 30.8272 13.4544 30.7313 13.0133 30.6974C12.5722 30.6636 11.5791 30.6009 11.2439 30.5342C10.9086 30.4675 10.7112 30.2892 10.7165 30.0068C10.7199 29.8273 10.9237 23.2917 11.3262 16.7896M15.9267 29.5577C15.9417 29.9152 16.0237 30.2979 16.1129 30.4694C16.2021 30.6409 16.3196 30.7838 16.6136 30.8055C16.9077 30.8272 18.399 30.7313 18.8401 30.6974C19.2811 30.6636 20.2742 30.6009 20.6095 30.5342C20.9447 30.4675 21.1422 30.2892 21.1368 30.0068C21.1334 29.8274 20.9299 23.3009 20.5279 16.8033M15.9267 29.5577L15.9262 5.29382M19.6393 6.8443C20.0008 9.3491 20.2971 13.0714 20.5279 16.8033M15.9262 5.29382C15.9262 5.29382 15.5571 5.91218 15.2557 6.14509C14.9543 6.378 14.7922 6.41712 14.1164 5.6081C13.4406 4.79908 13.1016 4.33371 12.9778 4.17354C12.8701 4.03418 12.7276 3.83964 12.605 3.63811M15.9262 5.29382C15.9262 5.29382 15.398 4.74554 14.9094 4.23895C14.6333 3.95274 14.1609 3.39055 13.9271 3.11923M15.9262 5.29382C15.9262 5.29382 16.2953 5.91218 16.5967 6.14509C16.8982 6.378 17.0603 6.41712 17.7361 5.6081C18.4119 4.79908 18.7508 4.33371 18.8746 4.17354C18.9937 4.01943 19.1554 3.79784 19.2856 3.57393M15.9262 5.29382C15.9262 5.29382 16.4545 4.74554 16.9431 4.23895C17.2183 3.95357 17.6889 3.39379 17.9233 3.12158M13.9271 3.11923C14.4512 2.95123 15.161 2.8805 15.9262 2.8805C16.695 2.8805 17.3984 2.95189 17.9233 3.12158M13.9271 3.11923C13.8671 3.04958 13.8229 2.9991 13.8017 2.97738C13.6026 2.77311 13.5272 2.58788 13.1946 2.75834C12.8619 2.9288 12.8028 2.96937 12.6086 3.13007C12.4143 3.29078 12.4766 3.41582 12.5516 3.54755C12.5688 3.57779 12.5867 3.60802 12.605 3.63811M17.9233 3.12158C17.9843 3.05072 18.0293 2.99935 18.0508 2.97738C18.2499 2.77311 18.3252 2.58788 18.6579 2.75834C18.9905 2.9288 19.0496 2.96937 19.2439 3.13007C19.4382 3.29078 19.3759 3.41582 19.3008 3.54755C19.2958 3.55635 19.2908 3.56514 19.2856 3.57393M11.3262 16.7896C10.7776 16.7344 9.61788 16.5794 9.26318 16.4759C8.83632 16.3512 8.86809 16.1919 8.84847 16.0051C8.82885 15.8184 9.16967 12.4867 9.41062 10.8431C9.65157 9.19952 10.1244 6.67123 10.6345 5.73607C11.1446 4.8009 11.8017 4.11586 12.5334 3.68031C12.5574 3.66604 12.5813 3.65197 12.605 3.63811M20.5279 16.8033C20.9781 16.7668 22.3479 16.5901 22.739 16.4759C23.1659 16.3512 23.1341 16.1919 23.1537 16.0051C23.1733 15.8184 22.8325 12.4867 22.5916 10.8431C22.3506 9.19952 21.8778 6.67123 21.3677 5.73607C20.8576 4.8009 20.2004 4.11586 19.4687 3.68031C19.4069 3.64352 19.346 3.6081 19.2856 3.57393" stroke="#1E1E1E" stroke-width="0.7" stroke-linecap="round"/>
</svg>
