<svg width="32" height="32" viewBox="0 0 32 32" fill="none" xmlns="http://www.w3.org/2000/svg">
<path d="M10.1334 2.50678C10.24 1.65345 10.347 1.12012 11.2004 1.12012H11.8945H15.6195H16.3991H20.1045H20.7986C21.6519 1.12012 21.759 1.65345 21.8655 2.50678C21.9014 2.79427 21.9369 3.3183 21.9685 3.92137C22.0305 5.1084 22.077 6.60165 22.0794 7.20012C22.0822 7.85641 22.1777 16.9535 22.2465 18.8447C22.3152 20.736 22.4694 29.6151 22.4907 30.2381C22.512 30.8611 21.7302 30.8801 21.4625 30.8801H17.2361C16.6254 30.8801 16.6548 30.3849 16.6485 29.7746C16.6463 29.5619 16.4818 27.7795 16.4734 24.4557C16.4723 24.0061 16.4627 22.0243 16.4734 21.5244C16.484 21.0245 16.1669 10.302 15.9991 9.54678C15.8312 10.302 15.5149 21.0245 15.5255 21.5244C15.5362 22.0243 15.5267 24.0061 15.5255 24.4557C15.5171 27.7795 15.3526 29.5619 15.3504 29.7746C15.3442 30.3849 15.3735 30.8801 14.7629 30.8801H10.5365C10.2687 30.8801 9.48693 30.8611 9.50824 30.2381C9.52955 29.6151 9.6837 20.736 9.75247 18.8447C9.82124 16.9535 9.91678 7.85641 9.91949 7.20012C9.92196 6.60121 9.96846 5.10622 10.0306 3.91878C10.0621 3.31679 10.0976 2.79385 10.1334 2.50678Z" fill="white"/>
<path d="M16.3991 1.12012C16.3996 2.1551 16.3827 3.43001 16.3655 3.65848C16.3485 3.88379 16.0912 3.95604 15.995 3.95799C15.8993 3.95604 15.6701 3.8838 15.6531 3.65848C15.6359 3.43002 15.619 2.1551 15.6195 1.12012M16.3991 1.12012H15.6195M16.3991 1.12012H20.1045M11.8945 1.12012C11.8635 1.93418 11.5796 2.75624 11.1835 3.19565C10.8097 3.61023 10.3987 3.8736 10.0306 3.91878M11.8945 1.12012H15.6195M11.8945 1.12012H11.2004C10.347 1.12012 10.24 1.65345 10.1334 2.50678C10.0976 2.79386 10.0621 3.31679 10.0306 3.91878M11.8945 1.12012H20.1045M20.1045 1.12012C20.1355 1.93418 20.4193 2.86365 20.8155 3.30306C21.1893 3.71769 21.6004 3.89259 21.9685 3.92137M20.1045 1.12012H20.7986C21.6519 1.12012 21.759 1.65345 21.8655 2.50678C21.9014 2.79427 21.9369 3.3183 21.9685 3.92137M21.9685 3.92137C22.0305 5.1084 22.077 6.60165 22.0794 7.20012C22.0822 7.85641 22.1777 16.9535 22.2465 18.8447C22.3152 20.736 22.4694 29.6151 22.4907 30.2381C22.512 30.8611 21.7302 30.8801 21.4625 30.8801H17.2361C16.6254 30.8801 16.6548 30.3849 16.6485 29.7746C16.6463 29.5619 16.4818 27.7795 16.4734 24.4557C16.4723 24.0061 16.4627 22.0243 16.4734 21.5244C16.484 21.0245 16.1669 10.302 15.9991 9.54678C15.8312 10.302 15.5149 21.0245 15.5255 21.5244C15.5362 22.0243 15.5267 24.0061 15.5255 24.4557C15.5171 27.7795 15.3526 29.5619 15.3504 29.7746C15.3442 30.3849 15.3735 30.8801 14.7629 30.8801H10.5365C10.2687 30.8801 9.48693 30.8611 9.50824 30.2381C9.52955 29.6151 9.6837 20.736 9.75247 18.8447C9.82124 16.9535 9.91678 7.85641 9.91949 7.20012C9.92196 6.60121 9.96846 5.10622 10.0306 3.91878" stroke="#1E1E1E" stroke-width="0.7" stroke-linecap="round" stroke-linejoin="round"/>
</svg>
