<svg width="32" height="33" viewBox="0 0 32 33" fill="none" xmlns="http://www.w3.org/2000/svg">
<path d="M16.053 28.2827C14.2837 28.462 12.4146 28.2501 11.7258 28.1265C11.1301 28.0196 10.5476 27.9259 10.1492 27.4686C10.0806 27.6099 10.0104 27.7159 9.9427 27.7723C9.5313 28.1152 5.84084 27.8324 5.37836 27.0595C4.91588 26.2866 5.14426 24.8009 5.60087 24.2295C4.8 21.7152 5.37836 18.9723 6.4 17.3723C5.82857 15.0866 6.85714 12.0009 8.11429 11.3152C8.62672 9.40394 10.7287 7.62516 12.8771 6.97225C12.8771 6.97225 12.9067 5.96184 12.9414 5.48653C12.976 5.01122 13.2199 4.68653 13.7914 4.68653C14.2044 4.68653 15.2143 4.7313 16.0015 4.72377C16.3035 4.72088 16.5727 4.7103 16.7628 4.68653C17.4485 4.60082 17.9057 4.68653 17.9057 4.68653C18.2485 4.68653 18.6953 5.01122 18.7299 5.48653C18.7646 5.96184 18.7942 6.97225 18.7942 6.97225C21.0849 7.52849 23.3473 9.30221 23.887 11.3152C25.1441 12.0009 26.1727 15.0866 25.6013 17.3723C26.6229 18.9723 27.2013 21.7152 26.4004 24.2295C26.857 24.8009 27.0854 26.2866 26.6229 27.0595C26.1604 27.8324 22.47 28.1152 22.0586 27.7723C21.9972 27.7212 21.9338 27.6293 21.8714 27.5074C21.4743 27.9313 20.9083 28.0227 20.3298 28.1265C19.641 28.2501 17.8224 28.462 16.053 28.2827Z" fill="white"/>
<path d="M9.97638 27.2259L9.63039 27.4266L9.97638 27.2259ZM10.8951 11.6702C10.965 11.4607 10.8517 11.2341 10.6422 11.1643C10.4326 11.0944 10.2061 11.2077 10.1362 11.4173L10.8951 11.6702ZM11.7258 28.1265L11.7964 27.7327H11.7964L11.7258 28.1265ZM13.3732 23.1438C13.5942 23.1438 13.7732 22.9647 13.7732 22.7438C13.7732 22.5228 13.5942 22.3438 13.3732 22.3438V23.1438ZM13.7161 16.5152C13.937 16.5152 14.1161 16.3361 14.1161 16.1152C14.1161 15.8943 13.937 15.7152 13.7161 15.7152V16.5152ZM22.0793 27.2259L22.4252 27.4266H22.4252L22.0793 27.2259ZM21.9194 11.4173C21.8496 11.2077 21.6231 11.0944 21.4135 11.1643C21.2039 11.2341 21.0906 11.4607 21.1605 11.6702L21.9194 11.4173ZM20.3298 28.1265L20.2592 27.7327H20.2592L20.3298 28.1265ZM18.6824 22.3438C18.4615 22.3438 18.2824 22.5228 18.2824 22.7438C18.2824 22.9647 18.4615 23.1438 18.6824 23.1438V22.3438ZM18.3395 15.7152C18.1186 15.7152 17.9395 15.8943 17.9395 16.1152C17.9395 16.3361 18.1186 16.5152 18.3395 16.5152V15.7152ZM5.37836 27.0595L5.03512 27.2649H5.03512L5.37836 27.0595ZM9.9427 27.7723L10.1988 28.0796H10.1988L9.9427 27.7723ZM8.11429 11.3152L8.30583 11.6663C8.4019 11.6139 8.4723 11.5245 8.50064 11.4188L8.11429 11.3152ZM6.4 17.3723L6.73713 17.5876C6.79631 17.4949 6.81472 17.382 6.78806 17.2753L6.4 17.3723ZM5.60087 24.2295L5.91336 24.4792C5.99682 24.3747 6.02258 24.2355 5.982 24.1081L5.60087 24.2295ZM7.60733 23.8716C7.40971 23.7729 7.16947 23.8531 7.07074 24.0507C6.97201 24.2483 7.05218 24.4886 7.24981 24.5873L7.60733 23.8716ZM8.00065 17.2178C7.78906 17.1543 7.56606 17.2744 7.50258 17.486C7.4391 17.6976 7.55918 17.9205 7.77078 17.984L8.00065 17.2178ZM9.74856 11.5152C9.54344 11.4332 9.31066 11.5329 9.22861 11.7381C9.14656 11.9432 9.24633 12.176 9.45144 12.258L9.74856 11.5152ZM26.6229 27.0595L26.9662 27.2649L26.9662 27.2649L26.6229 27.0595ZM22.0586 27.7723L21.8025 28.0796L22.0586 27.7723ZM23.887 11.3152L23.5006 11.4188C23.529 11.5245 23.5994 11.6139 23.6954 11.6663L23.887 11.3152ZM25.6013 17.3723L25.2132 17.2753C25.1866 17.382 25.205 17.4949 25.2641 17.5876L25.6013 17.3723ZM26.4004 24.2295L26.0193 24.1081C25.9787 24.2355 26.0045 24.3747 26.0879 24.4792L26.4004 24.2295ZM24.7515 24.5873C24.9491 24.4886 25.0293 24.2483 24.9305 24.0507C24.8318 23.8531 24.5916 23.7729 24.3939 23.8716L24.7515 24.5873ZM24.2305 17.984C24.4421 17.9205 24.5622 17.6976 24.4987 17.486C24.4352 17.2744 24.2122 17.1543 24.0006 17.2178L24.2305 17.984ZM22.5498 12.258C22.7549 12.176 22.8547 11.9432 22.7727 11.7381C22.6906 11.5329 22.4578 11.4332 22.2527 11.5152L22.5498 12.258ZM12.9414 5.48653L12.5424 5.45744L12.9414 5.48653ZM16.7628 4.68653L16.8124 5.08344L16.7628 4.68653ZM18.7299 5.48653L19.1289 5.45744V5.45744L18.7299 5.48653ZM17.9057 4.68653L17.8319 5.07968L17.8685 5.08653H17.9057V4.68653ZM14.7057 7.60089C14.9266 7.60089 15.1057 7.42181 15.1057 7.20089C15.1057 6.97998 14.9266 6.80089 14.7057 6.80089V7.60089ZM17.1057 6.80089C16.8847 6.80089 16.7057 6.97998 16.7057 7.20089C16.7057 7.42181 16.8847 7.60089 17.1057 7.60089V6.80089ZM16.0015 4.72377L15.9976 4.32379L16.0015 4.72377ZM9.38306 17.9404L9.77452 18.0226L9.38306 17.9404ZM10.336 12.1344L10.7218 12.2401L10.336 12.1344ZM21.7158 12.1205L21.3301 12.2267L21.7158 12.1205ZM22.7664 24.607L22.3666 24.5947L22.7664 24.607ZM21.8714 27.5074L21.5795 27.2339L21.8714 27.5074ZM11.6551 28.5202C12.3686 28.6482 14.2765 28.8647 16.0933 28.6806L16.0127 27.8847C14.2908 28.0592 12.4607 27.8519 11.7964 27.7327L11.6551 28.5202ZM9.54068 22.9125C10.2045 22.99 12.257 23.1438 13.3732 23.1438V22.3438C12.2952 22.3438 10.2747 22.1927 9.63346 22.1179L9.54068 22.9125ZM10.0303 16.2824C10.5743 16.3616 12.4182 16.5152 13.7161 16.5152V15.7152C12.454 15.7152 10.6488 15.564 10.1455 15.4908L10.0303 16.2824ZM20.2592 27.7327C19.5944 27.852 17.8148 28.0591 16.0933 27.8847L16.0127 28.6806C17.8299 28.8648 19.6876 28.6481 20.4005 28.5202L20.2592 27.7327ZM22.4222 22.1179C21.781 22.1927 19.7604 22.3438 18.6824 22.3438V23.1438C19.7987 23.1438 21.8511 22.99 22.515 22.9125L22.4222 22.1179ZM21.9102 15.4908C21.4068 15.564 19.6016 15.7152 18.3395 15.7152V16.5152C19.6375 16.5152 21.4813 16.3616 22.0254 16.2824L21.9102 15.4908ZM5.03512 27.2649C5.14568 27.4496 5.32511 27.5808 5.49626 27.6758C5.67452 27.7748 5.88616 27.8575 6.10999 27.9271C6.55845 28.0666 7.10171 28.1675 7.63178 28.2314C8.16309 28.2955 8.69685 28.3243 9.13036 28.3142C9.34624 28.3091 9.54653 28.2942 9.71329 28.2664C9.7966 28.2525 9.87932 28.2341 9.95517 28.2088C10.0257 28.1853 10.1179 28.147 10.1988 28.0796L9.68662 27.465C9.71608 27.4405 9.73125 27.4402 9.70228 27.4498C9.67865 27.4577 9.63945 27.4676 9.58157 27.4773C9.46596 27.4966 9.30682 27.5098 9.11164 27.5144C8.72303 27.5235 8.22813 27.4976 7.72758 27.4372C7.2258 27.3767 6.73402 27.2834 6.34759 27.1632C6.15398 27.103 5.99822 27.0395 5.88452 26.9763C5.76372 26.9093 5.72665 26.8625 5.7216 26.8541L5.03512 27.2649ZM6.78806 17.2753C6.52409 16.2194 6.62661 14.9518 6.95456 13.8587C7.11769 13.3149 7.33276 12.8276 7.57459 12.442C7.81991 12.0508 8.07516 11.7922 8.30583 11.6663L7.92274 10.964C7.52484 11.1811 7.18009 11.5653 6.89684 12.0169C6.61009 12.4742 6.36802 13.0297 6.1883 13.6288C5.83053 14.8214 5.70448 16.2395 6.01194 17.4693L6.78806 17.2753ZM5.7216 26.8541C5.55431 26.5745 5.49044 26.1115 5.54279 25.6105C5.59522 25.1087 5.75229 24.6807 5.91336 24.4792L5.28837 23.9798C4.99283 24.3496 4.80741 24.9503 4.74712 25.5274C4.68674 26.1053 4.73993 26.7716 5.03512 27.2649L5.7216 26.8541ZM5.982 24.1081C5.2194 21.7139 5.77539 19.0938 6.73713 17.5876L6.06287 17.1571C4.98133 18.8509 4.3806 21.7164 5.21973 24.3509L5.982 24.1081ZM26.2797 26.8541C26.2746 26.8625 26.2376 26.9093 26.1168 26.9763C26.0031 27.0395 25.8473 27.103 25.6537 27.1632C25.2673 27.2834 24.7755 27.3767 24.2737 27.4372C23.7731 27.4976 23.2782 27.5235 22.8896 27.5144C22.6945 27.5098 22.5353 27.4966 22.4197 27.4773C22.3618 27.4676 22.3226 27.4577 22.299 27.4498C22.27 27.4402 22.2852 27.4405 22.3147 27.465L21.8025 28.0796C21.8834 28.147 21.9756 28.1853 22.0461 28.2088C22.122 28.2341 22.2047 28.2525 22.288 28.2664C22.4548 28.2942 22.655 28.3091 22.8709 28.3142C23.3044 28.3243 23.8382 28.2955 24.3695 28.2314C24.8996 28.1675 25.4428 28.0666 25.8913 27.9271C26.1151 27.8575 26.3268 27.7748 26.505 27.6758C26.6762 27.5808 26.8556 27.4496 26.9662 27.2649L26.2797 26.8541ZM25.9893 17.4693C26.2968 16.2395 26.1707 14.8214 25.813 13.6288C25.6333 13.0297 25.3912 12.4742 25.1044 12.0169C24.8212 11.5653 24.4764 11.1811 24.0785 10.964L23.6954 11.6663C23.9261 11.7922 24.1814 12.0508 24.4267 12.442C24.6685 12.8276 24.8836 13.3149 25.0467 13.8587C25.3747 14.9518 25.4772 16.2194 25.2132 17.2753L25.9893 17.4693ZM26.9662 27.2649C27.2613 26.7716 27.3145 26.1053 27.2542 25.5274C27.1939 24.9503 27.0084 24.3496 26.7129 23.9798L26.0879 24.4792C26.249 24.6807 26.4061 25.1087 26.4585 25.6105C26.5108 26.1115 26.447 26.5745 26.2797 26.8541L26.9662 27.2649ZM26.7815 24.3509C27.6207 21.7164 27.0199 18.8509 25.9384 17.1571L25.2641 17.5876C26.2259 19.0938 26.7819 21.7139 26.0193 24.1081L26.7815 24.3509ZM12.5424 5.45744C12.5245 5.70303 12.5082 6.08103 12.4965 6.39259C12.4906 6.54945 12.4858 6.69131 12.4825 6.79395C12.4808 6.84529 12.4795 6.88685 12.4786 6.91561C12.4782 6.92999 12.4778 6.94118 12.4776 6.94879C12.4775 6.9526 12.4774 6.95551 12.4773 6.95748C12.4773 6.95846 12.4773 6.95921 12.4773 6.95972C12.4773 6.95998 12.4773 6.96017 12.4773 6.96031C12.4773 6.96037 12.4773 6.96042 12.4773 6.96046C12.4773 6.96048 12.4773 6.96049 12.4773 6.9605C12.4773 6.96051 12.4773 6.96052 12.8771 6.97225C13.2769 6.98397 13.2769 6.98397 13.2769 6.98397C13.2769 6.98396 13.2769 6.98395 13.2769 6.98394C13.2769 6.98391 13.2769 6.98387 13.2769 6.98382C13.2769 6.98371 13.2769 6.98353 13.2769 6.9833C13.2769 6.98284 13.277 6.98213 13.277 6.98119C13.2771 6.97931 13.2771 6.97649 13.2772 6.97278C13.2775 6.96535 13.2778 6.95437 13.2782 6.94019C13.2791 6.91184 13.2804 6.87075 13.282 6.81993C13.2853 6.71827 13.2901 6.57782 13.2959 6.42267C13.3077 6.11021 13.3236 5.74535 13.3403 5.51562L12.5424 5.45744ZM13.3403 5.51562C13.3536 5.33399 13.403 5.23734 13.4518 5.18718C13.4944 5.14344 13.5832 5.08653 13.7914 5.08653V4.28653C13.4281 4.28653 13.1093 4.39197 12.8783 4.6294C12.6536 4.86042 12.5638 5.16376 12.5424 5.45744L13.3403 5.51562ZM18.331 5.51562C18.3477 5.74535 18.3636 6.11021 18.3754 6.42267C18.3812 6.57782 18.386 6.71827 18.3893 6.81993C18.3909 6.87075 18.3922 6.91184 18.3931 6.94019C18.3935 6.95437 18.3938 6.96535 18.3941 6.97278C18.3942 6.97649 18.3943 6.97931 18.3943 6.98119C18.3943 6.98213 18.3944 6.98284 18.3944 6.9833C18.3944 6.98353 18.3944 6.98371 18.3944 6.98382C18.3944 6.98387 18.3944 6.98391 18.3944 6.98394C18.3944 6.98395 18.3944 6.98396 18.3944 6.98397C18.3944 6.98397 18.3944 6.98397 18.7942 6.97225C19.1941 6.96052 19.1941 6.96051 19.1941 6.9605C19.1941 6.96049 19.1941 6.96048 19.1941 6.96046C19.194 6.96042 19.194 6.96037 19.194 6.96031C19.194 6.96017 19.194 6.95998 19.194 6.95972C19.194 6.95921 19.194 6.95846 19.194 6.95748C19.1939 6.95551 19.1938 6.95259 19.1937 6.94879C19.1935 6.94118 19.1931 6.92999 19.1927 6.91561C19.1918 6.88685 19.1905 6.84529 19.1888 6.79395C19.1855 6.69131 19.1807 6.54945 19.1748 6.39259C19.1631 6.08103 19.1468 5.70303 19.1289 5.45744L18.331 5.51562ZM19.1289 5.45744C19.1027 5.09784 18.9211 4.80575 18.6984 4.60873C18.4814 4.41666 18.193 4.28653 17.9057 4.28653V5.08653C17.9612 5.08653 18.0676 5.11875 18.1683 5.20785C18.2634 5.292 18.3226 5.39991 18.331 5.51562L19.1289 5.45744ZM17.9057 4.68653C17.9794 4.29338 17.9793 4.29337 17.9792 4.29335C17.9792 4.29334 17.9791 4.29333 17.979 4.29331C17.9789 4.29329 17.9787 4.29326 17.9786 4.29324C17.9783 4.29318 17.978 4.29312 17.9776 4.29306C17.9769 4.29293 17.9761 4.29279 17.9752 4.29262C17.9734 4.29229 17.9711 4.29189 17.9684 4.29142C17.9629 4.29048 17.9557 4.28928 17.9468 4.28787C17.929 4.28507 17.9043 4.28146 17.8731 4.27757C17.8109 4.26979 17.7229 4.26086 17.6128 4.25496C17.3927 4.24317 17.083 4.2434 16.7132 4.28962L16.8124 5.08344C17.1284 5.04395 17.39 5.04418 17.57 5.05382C17.6598 5.05863 17.729 5.06578 17.7739 5.07139C17.7963 5.0742 17.8127 5.07661 17.8225 5.07816C17.8274 5.07893 17.8307 5.07949 17.8323 5.07976C17.8331 5.0799 17.8335 5.07996 17.8334 5.07995C17.8334 5.07995 17.8333 5.07992 17.833 5.07988C17.8329 5.07986 17.8327 5.07983 17.8326 5.0798C17.8325 5.07978 17.8324 5.07976 17.8323 5.07974C17.8322 5.07973 17.8321 5.07972 17.8321 5.07971C17.832 5.0797 17.8319 5.07968 17.9057 4.68653ZM12.78 7.36029C13.2618 7.48081 13.9806 7.60089 14.7057 7.60089V6.80089C14.0593 6.80089 13.4067 6.69241 12.9742 6.5842L12.78 7.36029ZM18.6917 6.5856C18.2861 6.69311 17.6354 6.80089 17.1057 6.80089V7.60089C17.7188 7.60089 18.4395 7.4801 18.8967 7.35889L18.6917 6.5856ZM8.50064 11.4188C8.73076 10.5605 9.32876 9.70133 10.1484 8.97038C10.9655 8.24175 11.9775 7.6637 12.9934 7.35496L12.7608 6.58953C11.6283 6.9337 10.5151 7.5715 9.61599 8.3733C8.71946 9.17278 8.01025 10.1586 7.72793 11.2116L8.50064 11.4188ZM24.2733 11.2116C23.9759 10.1023 23.2148 9.08976 22.253 8.28989C21.2886 7.48789 20.0956 6.87663 18.8886 6.58354L18.6998 7.36095C19.7835 7.6241 20.867 8.17782 21.7414 8.90499C22.6184 9.63428 23.2583 10.5151 23.5006 11.4188L24.2733 11.2116ZM13.7914 5.08653C13.9911 5.08653 14.3374 5.09744 14.7459 5.10785C15.1487 5.1181 15.6041 5.12759 16.0053 5.12375L15.9976 4.32379C15.6117 4.32748 15.1685 4.31835 14.7663 4.30811C14.3698 4.29801 14.0046 4.28653 13.7914 4.28653V5.08653ZM16.0053 5.12375C16.3096 5.12084 16.5981 5.11023 16.8124 5.08344L16.7132 4.28962C16.5472 4.31037 16.2973 4.32092 15.9976 4.32379L16.0053 5.12375ZM16.453 28.2827C16.453 22.977 16.4402 19.7343 16.4273 16.4944C16.4144 13.2549 16.4015 10.0183 16.4015 4.72377L15.6015 4.72378C15.6015 10.0199 15.6144 13.2578 15.6273 16.4976C15.6402 19.7371 15.653 22.9785 15.653 28.2827H16.453ZM10.1988 28.0796C10.3347 27.9664 10.4351 27.7957 10.5091 27.6432L9.78932 27.294C9.76082 27.3527 9.73534 27.397 9.71415 27.4284C9.69159 27.4618 9.6813 27.4695 9.68662 27.465L10.1988 28.0796ZM9.63039 27.4266C9.69547 27.5388 9.76805 27.6401 9.84761 27.7314L10.4508 27.2058C10.4057 27.1541 10.3626 27.0945 10.3224 27.0252L9.63039 27.4266ZM9.84761 27.7314C10.3554 28.3142 11.0957 28.4198 11.6551 28.5202L11.7964 27.7327C11.1645 27.6193 10.7398 27.5375 10.4508 27.2058L9.84761 27.7314ZM9.29345 24.2079C8.6872 24.2015 8.05162 24.0936 7.60733 23.8716L7.24981 24.5873C7.84454 24.8844 8.61531 25.0008 9.28508 25.0078L9.29345 24.2079ZM9.20641 22.3923C8.94967 23.1877 8.8684 23.9427 8.88946 24.6203L9.68907 24.5954C9.67059 24.0009 9.74174 23.3382 9.96773 22.6381L9.20641 22.3923ZM8.88946 24.6203C8.92979 25.9178 9.34535 26.9353 9.63039 27.4266L10.3224 27.0252C10.0952 26.6336 9.72478 25.7441 9.68907 24.5954L8.88946 24.6203ZM9.44452 17.5452C8.95802 17.4695 8.45039 17.3527 8.00065 17.2178L7.77078 17.984C8.25456 18.1292 8.79791 18.2542 9.3216 18.3357L9.44452 17.5452ZM9.7279 15.7122C9.39081 16.4078 9.1457 17.1245 8.9916 17.8582L9.77452 18.0226C9.91496 17.3539 10.1386 16.6991 10.4478 16.061L9.7279 15.7122ZM8.9916 17.8582C8.66874 19.3955 8.74747 20.9963 9.20182 22.6228L9.97232 22.4076C9.5487 20.8911 9.48085 19.4209 9.77452 18.0226L8.9916 17.8582ZM10.4405 11.7483C10.226 11.6903 9.99671 11.6145 9.74856 11.5152L9.45144 12.258C9.72725 12.3683 9.98593 12.4541 10.2316 12.5205L10.4405 11.7483ZM10.1362 11.4173C10.0663 11.6269 10.0046 11.8304 9.95023 12.0288L10.7218 12.2401C10.7722 12.0562 10.8297 11.8666 10.8951 11.6702L10.1362 11.4173ZM9.95023 12.0288C9.54305 13.5157 9.5609 14.6897 9.69002 15.9281L10.4857 15.8451C10.3627 14.6655 10.3497 13.599 10.7218 12.2401L9.95023 12.0288ZM21.8236 12.5057C22.0532 12.4414 22.2941 12.3603 22.5498 12.258L22.2527 11.5152C22.0226 11.6073 21.8088 11.6791 21.6079 11.7353L21.8236 12.5057ZM21.1605 11.6702C21.2244 11.8619 21.2807 12.047 21.3301 12.2267L22.1014 12.0143C22.0481 11.8205 21.9876 11.6218 21.9194 11.4173L21.1605 11.6702ZM21.3301 12.2267C21.706 13.592 21.6933 14.6617 21.5699 15.8451L22.3656 15.9281C22.4952 14.6856 22.5127 13.5081 22.1014 12.0143L21.3301 12.2267ZM22.7343 18.327C23.2409 18.2456 23.7634 18.1242 24.2305 17.984L24.0006 17.2178C23.5666 17.348 23.0784 17.4614 22.6073 17.5372L22.7343 18.327ZM21.6078 16.061C21.9158 16.6966 22.1388 17.3487 22.2794 18.0147L23.0622 17.8495C22.908 17.1188 22.6635 16.4051 22.3277 15.7122L21.6078 16.061ZM22.2794 18.0147C22.575 19.4154 22.5077 20.8882 22.0833 22.4076L22.8538 22.6228C23.309 20.9932 23.3871 19.3894 23.0622 17.8495L22.2794 18.0147ZM22.7743 25.007C23.4289 24.994 24.1731 24.8762 24.7515 24.5873L24.3939 23.8716C23.9627 24.0871 23.3505 24.1954 22.7585 24.2071L22.7743 25.007ZM22.0879 22.6381C22.3138 23.3379 22.385 24.0003 22.3666 24.5947L23.1662 24.6194C23.1872 23.9421 23.1058 23.1873 22.8492 22.3923L22.0879 22.6381ZM22.3666 24.5947C22.331 25.7437 21.9605 26.6335 21.7333 27.0252L22.4252 27.4266C22.7103 26.9352 23.126 25.9173 23.1662 24.6194L22.3666 24.5947ZM22.3147 27.465C22.3199 27.4694 22.3117 27.4636 22.2927 27.4365C22.2747 27.4109 22.2527 27.3744 22.2275 27.3252L21.5153 27.6896C21.5845 27.8248 21.6777 27.9756 21.8025 28.0796L22.3147 27.465ZM21.7333 27.0252C21.6856 27.1072 21.634 27.1758 21.5795 27.2339L22.1633 27.7809C22.2604 27.6772 22.3481 27.5596 22.4252 27.4266L21.7333 27.0252ZM21.5795 27.2339C21.29 27.5429 20.8727 27.6227 20.2592 27.7327L20.4005 28.5202C20.9439 28.4227 21.6586 28.3197 22.1633 27.7809L21.5795 27.2339Z" fill="#1E1E1E"/>
</svg>
