<svg width="32" height="32" viewBox="0 0 32 32" fill="none" xmlns="http://www.w3.org/2000/svg">
<path d="M29.4301 14.3161C29.7229 15.9655 29.8192 16.217 30.1243 18.2321C30.4293 20.2472 30.1422 21.2619 30.08 21.9458C30.0178 22.6296 29.1825 22.9975 28.382 23.0512C27.9366 23.0811 25.7299 23.277 24.3971 22.7817C23.3348 22.387 23.0484 21.2806 23.0484 21.2806C23.0484 21.2806 22.8314 22.9081 21.3426 22.9081C19.8537 22.9081 14.6035 22.9081 14.6035 22.9081L7.2944 22.7817C7.2944 22.7817 3.94038 22.5537 2.62958 22.4862C1.31878 22.4188 1.84767 21.1464 1.84767 20.8043C1.84827 19.4984 1.26364 18.4183 3.35763 16.6807C5.45161 14.9431 10.1773 14.8418 12.4596 15.0449C12.9047 14.7964 13.5288 14.3862 14.2145 13.8403C14.6774 13.4717 15.1684 13.0411 15.6513 12.5566C16.1344 12.0717 16.6094 11.5328 17.04 10.9478C17.4713 10.0427 17.7141 9.126 18.3725 8.93007C19.0309 8.73414 19.1238 9.21779 20.7517 9.72492C21.1327 9.84361 22.2971 10.0855 22.8314 10.178C25.6489 10.6656 26.1468 9.23263 27.3388 9.23263C28.5275 9.23263 29.1338 12.6475 29.4276 14.3022L29.4301 14.3161Z" fill="white"/>
<path d="M1.84767 20.8043C1.84827 19.4984 1.26364 18.4183 3.35763 16.6807C5.45161 14.9431 10.1773 14.8418 12.4596 15.0449M1.84767 20.8043L16.7223 21.2156C16.7223 21.2156 17.6137 21.2279 18.9373 21.2427M1.84767 20.8043C1.84767 21.1464 1.31878 22.4188 2.62958 22.4862C3.94038 22.5537 7.2944 22.7817 7.2944 22.7817L14.6035 22.9081C14.6035 22.9081 19.8537 22.9081 21.3426 22.9081C22.8314 22.9081 23.0484 21.2806 23.0484 21.2806C23.0484 21.2806 23.3348 22.387 24.3971 22.7817C25.7299 23.277 27.9366 23.0811 28.382 23.0512C29.1825 22.9975 30.0178 22.6296 30.08 21.9458C30.1422 21.2619 30.4293 20.2472 30.1243 18.2321C29.8192 16.217 29.7229 15.9655 29.4301 14.3161L29.4276 14.3022C29.1338 12.6475 28.5275 9.23263 27.3388 9.23263C26.1468 9.23263 25.6489 10.6656 22.8314 10.178C22.2971 10.0855 21.1327 9.84361 20.7517 9.72492M14.7669 16.217C13.4867 16.1018 13.1881 15.4352 12.4596 15.0449M14.7669 16.217C16.0409 16.8852 18.6587 18.8259 18.9373 21.2427M14.7669 16.217C15.1429 16.2508 15.688 16.023 16.3074 15.5907M12.4596 15.0449C12.9047 14.7964 13.5288 14.3862 14.2145 13.8403M20.7517 9.72492C19.1238 9.21779 19.0309 8.73414 18.3725 8.93007C17.7141 9.126 17.4713 10.0427 17.04 10.9478M20.7517 9.72492C20.4127 10.5781 19.9789 11.3901 19.4965 12.1327M30.1214 21.2156C29.615 21.3446 22.6113 21.2839 18.9373 21.2427M17.04 10.9478C18.137 10.9478 19.0857 11.7361 19.4965 12.1327M17.04 10.9478C16.6094 11.5328 16.1344 12.0717 15.6513 12.5566M19.4965 12.1327C19.038 12.8385 18.5357 13.4817 18.029 14.0384M15.6513 12.5566C17.04 12.5566 17.9068 13.6863 18.029 14.0384M15.6513 12.5566C15.1684 13.0411 14.6774 13.4717 14.2145 13.8403M18.029 14.0384C17.4403 14.6851 16.8458 15.2151 16.3074 15.5907M14.2145 13.8403C15.3757 13.8403 16.1448 15.257 16.3074 15.5907" stroke="#1E1E1E" stroke-width="0.9" stroke-linecap="round" stroke-linejoin="round"/>
</svg>
