<svg width="32" height="32" viewBox="0 0 32 32" fill="none" xmlns="http://www.w3.org/2000/svg">
<path d="M30.0597 14.6365C30.2568 15.7992 30.1908 17.5637 29.8626 18.6963C29.8626 18.6963 29.8626 20.744 28.769 20.9899C27.6812 21.2344 26.6476 21.2344 25.0594 21.2344H25.0345C23.9967 21.2344 23.2433 20.744 23.2433 20.744C23.2433 20.744 22.6092 21.1718 21.9002 21.2344C19.7657 21.4227 15.3772 21.419 12.9411 21.4629C8.63124 21.5405 5.30474 21.3093 4.27039 21.1467C3.23604 20.984 2.25338 20.482 2.25338 19.6274C1.52689 17.6381 1.65201 16.9388 3.40402 15.8126C5.15603 14.6863 9.82453 14.0271 9.82453 14.0271C9.82453 14.0271 11.4963 16.1835 15.56 16.1835C16.6102 16.1835 18.0261 15.9493 19.5487 15.6019C18.944 14.7799 17.4028 12.7653 16.4504 12.017C15.2599 11.0816 16.8471 10.3163 17.4424 10.5714C18.0376 10.8265 20.2344 12.8288 21.5666 15.0964C25.3818 14.0666 29.1628 12.6766 29.1628 12.6766C29.1628 12.6766 29.8626 13.4738 30.0597 14.6365Z" fill="white"/>
<path d="M29.8626 18.6963C30.1908 17.5637 30.2568 15.7992 30.0597 14.6365C29.8626 13.4738 29.1628 12.6766 29.1628 12.6766C29.1628 12.6766 25.3818 14.0666 21.5666 15.0964M29.8626 18.6963C29.8626 18.6963 29.8626 20.744 28.769 20.9899C27.6811 21.2344 26.6476 21.2344 25.0594 21.2344H25.0345C23.9967 21.2344 23.2433 20.744 23.2433 20.744C23.2433 20.744 22.6092 21.1718 21.9002 21.2344C19.7657 21.4227 15.3772 21.419 12.9411 21.4629C8.63124 21.5405 5.30474 21.3093 4.27039 21.1467C3.23604 20.984 2.25338 20.482 2.25338 19.6274M29.8626 18.6963C27.854 19.4189 26.2644 19.4323 24.1016 19.6274C22.645 19.7587 14.0456 19.8559 8.47118 19.7699C5.76904 19.7282 2.25338 19.6274 2.25338 19.6274M2.25338 19.6274C1.52689 17.6381 1.65201 16.9388 3.40402 15.8126C5.15603 14.6863 9.82453 14.0271 9.82453 14.0271C9.82453 14.0271 11.4963 16.1835 15.56 16.1835C16.6102 16.1835 18.0261 15.9493 19.5487 15.6019M19.5487 15.6019C18.944 14.7799 17.4028 12.7653 16.4504 12.017C15.2599 11.0816 16.8471 10.3163 17.4424 10.5714C18.0376 10.8265 20.2344 12.8288 21.5666 15.0964M19.5487 15.6019C20.2083 15.4514 20.888 15.2796 21.5666 15.0964" stroke="black" stroke-width="0.9" stroke-linecap="round" stroke-linejoin="round"/>
</svg>
