<svg width="32" height="32" viewBox="0 0 32 32" fill="none" xmlns="http://www.w3.org/2000/svg">
<path d="M9.90165 16.1907C5.17233 18.7565 2.58103 19.8592 2.30757 21.6234C2.03411 23.3877 3.43836 24.788 5.2838 24.788C7.12925 24.788 13.4481 24.9646 14.9056 24.788C15.6751 24.6947 17.0102 24.4143 18.0381 22.9949C19.0659 21.5754 20.7301 18.8407 21.4153 17.9045L21.4247 17.8916C21.8095 17.3659 22.8073 16.0024 24.4199 14.6626C25.9311 15.894 26.4681 23.042 26.4681 24.788C26.853 24.8918 28.1234 24.9722 28.6068 24.788C28.6068 22.8555 28.2844 15.5027 29.634 11.8877C30.0977 8.59782 28.6068 7.10205 28.6068 7.10205C23.0795 11.3946 21.1909 14.0292 19.0659 15.997C16.941 17.9648 15.2137 17.617 13.897 17.617C10.8205 17.617 10.0786 16.6205 9.90165 16.1907Z" fill="white"/>
<path d="M29.634 11.8877C30.0977 8.59782 28.6068 7.10205 28.6068 7.10205C23.0795 11.3946 21.1909 14.0292 19.0659 15.997C16.941 17.9648 15.2137 17.617 13.897 17.617C10.8205 17.617 10.0786 16.6205 9.90165 16.1907C5.17233 18.7565 2.58103 19.8592 2.30757 21.6234C2.03411 23.3877 3.43836 24.788 5.2838 24.788C7.12925 24.788 13.4481 24.9646 14.9056 24.788C15.6751 24.6947 17.0102 24.4143 18.0381 22.9949C19.0659 21.5754 20.7301 18.8407 21.4153 17.9045L21.4247 17.8916C21.8095 17.3659 22.8073 16.0024 24.4199 14.6626M29.634 11.8877C28.2844 15.5027 28.6068 22.8555 28.6068 24.788C28.1234 24.9722 26.853 24.8918 26.4681 24.788C26.4681 23.042 25.9311 15.894 24.4199 14.6626M29.634 11.8877C27.4813 12.4791 25.7435 13.5629 24.4199 14.6626" stroke="#1E1E1E" stroke-width="0.9" stroke-linecap="round" stroke-linejoin="round"/>
</svg>
