<svg width="32" height="32" viewBox="0 0 32 32" fill="none" xmlns="http://www.w3.org/2000/svg">
<path d="M16.0772 26.1241C18.1623 26.4993 20.3114 26.6159 21.219 26.2857C21.567 26.1591 21.8488 25.9864 22.0644 25.7767C22.3635 26.1837 22.591 26.3671 22.591 26.3671C22.591 26.3671 22.399 27.1188 22.9845 27.2652C23.57 27.4116 25.4578 27.2 25.9392 26.7791C26.4205 26.3582 26.1671 25.8165 26.1671 25.8165C26.1671 25.8165 26.9297 24.0943 26.3068 20.6116C25.684 17.1289 25.3975 14.015 24.9911 12.4571C24.5847 10.8993 23.7338 9.25714 22.2481 7.88571C22.1895 7.83165 22.1309 7.77865 22.0724 7.7267C22.2514 7.53738 22.3626 7.2923 22.3626 6.97142C22.3626 5.71428 20.8769 4.79999 19.8483 4.45714C18.8197 4.11428 17.825 4 16.0769 4C14.3287 4 13.334 4.11429 12.3054 4.45714C11.2769 4.8 9.79115 5.71429 9.79115 6.97143C9.79115 7.29214 9.9022 7.53714 10.0811 7.72641C10.0224 7.77845 9.96371 7.83155 9.90503 7.88571C8.41932 9.25714 7.56845 10.8993 7.16205 12.4571C6.75566 14.015 6.46917 17.1289 5.8463 20.6116C5.22343 24.0943 5.98602 25.8165 5.98602 25.8165C5.98602 25.8165 5.73264 26.3582 6.21397 26.7791C6.69529 27.2 8.58312 27.4116 9.16863 27.2652C9.75413 27.1188 9.56217 26.3671 9.56217 26.3671C9.56217 26.3671 9.7899 26.1835 10.0892 25.776C10.3049 25.986 10.5869 26.159 10.9353 26.2857C11.8428 26.6158 13.9923 26.4992 16.0772 26.1241Z" fill="white"/>
<path d="M9.44949 19.7714L9.84574 19.8261L9.44949 19.7714ZM9.90659 23.2L10.2644 23.3789L10.3538 23.2L10.2644 23.0211L9.90659 23.2ZM10.6432 12.957C10.6037 12.7397 10.3955 12.5955 10.1781 12.635C9.96075 12.6745 9.81659 12.8828 9.8561 13.1001L10.6432 12.957ZM10.9353 26.2857L10.7986 26.6616H10.7986L10.9353 26.2857ZM22.7048 19.7714L22.3086 19.8261L22.7048 19.7714ZM22.2477 23.2L21.8899 23.0211L21.8005 23.2L21.89 23.3789L22.2477 23.2ZM22.2982 13.1001C22.3377 12.8828 22.1936 12.6745 21.9762 12.635C21.7589 12.5955 21.5506 12.7397 21.5111 12.957L22.2982 13.1001ZM21.219 26.2857L21.3557 26.6616H21.3557L21.219 26.2857ZM16.0772 26.1241L16.148 25.7305L16.0772 25.7177L16.0063 25.7305L16.0772 26.1241ZM6.21397 26.7791L5.95066 27.0802H5.95066L6.21397 26.7791ZM9.16863 27.2652L9.07161 26.8771L9.07161 26.8771L9.16863 27.2652ZM5.8463 20.6116L5.45254 20.5412L5.8463 20.6116ZM7.16205 12.4571L6.77501 12.3562L7.16205 12.4571ZM5.98602 25.8165L6.34834 25.986L6.42549 25.8211L6.35176 25.6546L5.98602 25.8165ZM9.90503 7.88571L9.63372 7.59179L9.90503 7.88571ZM9.56217 26.3671L9.31111 26.0557L9.11102 26.217L9.17461 26.466L9.56217 26.3671ZM25.9392 26.7791L26.2025 27.0802L25.9392 26.7791ZM22.9845 27.2652L23.0815 26.8771V26.8771L22.9845 27.2652ZM26.3068 20.6116L26.7006 20.5412L26.3068 20.6116ZM24.9911 12.4571L25.3781 12.3562L24.9911 12.4571ZM26.1671 25.8165L25.8014 25.6546L25.7276 25.8211L25.8048 25.986L26.1671 25.8165ZM22.2481 7.88571L22.5194 7.59179V7.59179L22.2481 7.88571ZM22.591 26.3671L22.9785 26.466L23.0421 26.217L22.842 26.0557L22.591 26.3671ZM12.9426 6.34829C12.7247 6.31197 12.5186 6.45918 12.4823 6.67709C12.446 6.895 12.5932 7.10109 12.8111 7.1374L12.9426 6.34829ZM16.0769 9.88571L15.7844 10.1586C15.8601 10.2397 15.966 10.2857 16.0769 10.2857C16.1877 10.2857 16.2936 10.2397 16.3693 10.1586L16.0769 9.88571ZM12.3054 8.45714L12.2396 8.85168L12.3054 8.45714ZM12.3054 4.45714L12.4319 4.83662L12.3054 4.45714ZM13.9873 15.764C13.9873 15.9849 14.1664 16.164 14.3873 16.164C14.6082 16.164 14.7873 15.9849 14.7873 15.764H13.9873ZM19.3426 7.1374C19.5605 7.10108 19.7077 6.89499 19.6714 6.67708C19.6351 6.45917 19.429 6.31197 19.2111 6.34828L19.3426 7.1374ZM19.8483 8.45714L19.7824 8.0626L19.8483 8.45714ZM17.5668 15.764C17.5668 15.9849 17.7459 16.164 17.9668 16.164C18.1877 16.164 18.3668 15.9849 18.3668 15.764H17.5668ZM10.0811 7.72641L10.3718 7.45168L10.0811 7.72641ZM9.05324 19.7168C8.83859 21.2735 9.05184 22.3847 9.54881 23.3789L10.2644 23.0211C9.84726 22.1867 9.65066 21.2408 9.84574 19.8261L9.05324 19.7168ZM9.8561 13.1001C10.0713 14.284 9.93346 15.5403 9.7052 16.709C9.59134 17.2921 9.4571 17.8438 9.33609 18.352C9.21672 18.8534 9.10758 19.3227 9.05324 19.7168L9.84574 19.8261C9.89383 19.4773 9.99306 19.0466 10.1143 18.5373C10.234 18.0348 10.3727 17.4651 10.4904 16.8624C10.7252 15.6597 10.885 14.2874 10.6432 12.957L9.8561 13.1001ZM22.3086 19.8261C22.5037 21.2408 22.3071 22.1867 21.8899 23.0211L22.6055 23.3789C23.1025 22.3847 23.3157 21.2735 23.1011 19.7168L22.3086 19.8261ZM21.5111 12.957C21.2693 14.2874 21.4291 15.6597 21.664 16.8624C21.7817 17.4651 21.9203 18.0348 22.04 18.5373C22.1613 19.0466 22.2605 19.4773 22.3086 19.8261L23.1011 19.7168C23.0467 19.3227 22.9376 18.8534 22.8182 18.352C22.6972 17.8438 22.563 17.2921 22.4491 16.709C22.2209 15.5403 22.083 14.284 22.2982 13.1001L21.5111 12.957ZM21.0823 25.9098C20.7076 26.0461 20.012 26.1043 19.1049 26.0697C18.2155 26.0358 17.1757 25.9154 16.148 25.7305L16.0063 26.5178C17.0637 26.7081 18.1411 26.8335 19.0744 26.8691C19.99 26.9041 20.8228 26.8555 21.3557 26.6616L21.0823 25.9098ZM10.7986 26.6616C11.3315 26.8555 12.1643 26.904 13.08 26.8691C14.0133 26.8334 15.0907 26.708 16.148 26.5178L16.0063 25.7305C14.9788 25.9153 13.939 26.0357 13.0495 26.0696C12.1423 26.1043 11.4466 26.0461 11.072 25.9098L10.7986 26.6616ZM5.95066 27.0802C6.13849 27.2445 6.41636 27.3562 6.6806 27.4361C6.95887 27.5202 7.27892 27.5852 7.59519 27.6308C7.91224 27.6765 8.23434 27.7039 8.5189 27.7101C8.79416 27.7161 9.06567 27.7032 9.26564 27.6532L9.07161 26.8771C8.97883 26.9003 8.79479 26.9159 8.53637 26.9103C8.28725 26.9048 7.99753 26.8805 7.70927 26.839C7.42023 26.7973 7.14148 26.7397 6.91211 26.6703C6.66871 26.5967 6.53011 26.5242 6.47728 26.478L5.95066 27.0802ZM6.24005 20.682C6.55301 18.9321 6.78142 17.2751 6.98137 15.8688C7.18282 14.4521 7.35295 13.31 7.5491 12.5581L6.77501 12.3562C6.56476 13.1621 6.38845 14.3559 6.18934 15.7562C5.98872 17.1671 5.76245 18.8083 5.45254 20.5412L6.24005 20.682ZM5.98602 25.8165C6.35176 25.6546 6.35184 25.6547 6.35192 25.6549C6.35194 25.655 6.35202 25.6551 6.35206 25.6552C6.35215 25.6554 6.35222 25.6556 6.35229 25.6558C6.35242 25.6561 6.3525 25.6562 6.35254 25.6563C6.35261 25.6565 6.3525 25.6563 6.35222 25.6556C6.35167 25.6543 6.35042 25.6513 6.34854 25.6466C6.34479 25.6373 6.33854 25.6214 6.3303 25.5988C6.31382 25.5536 6.2894 25.4817 6.26117 25.383C6.20472 25.1857 6.13298 24.8811 6.07923 24.4684C5.9718 23.6436 5.93573 22.3836 6.24005 20.682L5.45254 20.5412C5.134 22.3223 5.16778 23.6647 5.28593 24.5717C5.34497 25.025 5.42495 25.3686 5.49202 25.603C5.52555 25.7202 5.55584 25.8101 5.57863 25.8726C5.59003 25.9039 5.59955 25.9284 5.60667 25.946C5.61023 25.9548 5.61318 25.9619 5.61547 25.9674C5.61662 25.9701 5.61759 25.9723 5.6184 25.9742C5.6188 25.9751 5.61915 25.9759 5.61947 25.9767C5.61962 25.977 5.61977 25.9773 5.6199 25.9776C5.61997 25.9778 5.62006 25.978 5.62009 25.9781C5.62018 25.9783 5.62027 25.9785 5.98602 25.8165ZM7.5491 12.5581C7.93847 11.0655 8.75319 9.49331 10.1763 8.17964L9.63372 7.59179C8.08544 9.02097 7.19843 10.733 6.77501 12.3562L7.5491 12.5581ZM9.26564 27.6532C9.5034 27.5938 9.6833 27.4645 9.80381 27.2939C9.91846 27.1317 9.9644 26.9539 9.98201 26.8098C9.99978 26.6644 9.99139 26.5314 9.98009 26.4385C9.97432 26.391 9.96745 26.3513 9.96174 26.3224C9.95887 26.3078 9.95627 26.2958 9.95419 26.2867C9.95315 26.2821 9.95223 26.2782 9.95148 26.2751C9.95111 26.2736 9.95077 26.2722 9.95048 26.271C9.95033 26.2705 9.9502 26.2699 9.95008 26.2694C9.95001 26.2692 9.94995 26.269 9.9499 26.2687C9.94987 26.2686 9.94983 26.2685 9.94982 26.2684C9.94978 26.2683 9.94974 26.2681 9.56217 26.3671C9.17461 26.466 9.17457 26.4659 9.17454 26.4657C9.17453 26.4657 9.17449 26.4656 9.17447 26.4655C9.17442 26.4653 9.17438 26.4651 9.17434 26.465C9.17427 26.4647 9.1742 26.4644 9.17414 26.4642C9.17403 26.4637 9.17396 26.4634 9.17393 26.4633C9.17387 26.4631 9.17397 26.4635 9.17419 26.4644C9.17463 26.4664 9.17558 26.4707 9.17682 26.477C9.17932 26.4897 9.18287 26.5098 9.18594 26.5351C9.19234 26.5877 9.19535 26.6519 9.18792 26.7127C9.18033 26.7749 9.16447 26.8124 9.15045 26.8323C9.14227 26.8439 9.1266 26.8634 9.07161 26.8771L9.26564 27.6532ZM6.47728 26.478C6.34123 26.359 6.31786 26.2401 6.31944 26.1467C6.32031 26.0951 6.32963 26.0492 6.33883 26.0167C6.34331 26.0008 6.3474 25.9895 6.34961 25.9837C6.3507 25.9808 6.35128 25.9795 6.35115 25.9798C6.35108 25.98 6.35083 25.9805 6.35037 25.9816C6.35014 25.9821 6.34986 25.9827 6.34953 25.9834C6.34936 25.9838 6.34917 25.9842 6.34898 25.9846C6.34888 25.9848 6.34878 25.9851 6.34867 25.9853C6.34862 25.9854 6.34853 25.9856 6.34851 25.9856C6.34842 25.9858 6.34834 25.986 5.98602 25.8165C5.62369 25.647 5.62361 25.6472 5.62352 25.6474C5.62349 25.6475 5.6234 25.6477 5.62334 25.6478C5.62322 25.6481 5.62309 25.6483 5.62296 25.6486C5.62271 25.6492 5.62243 25.6498 5.62214 25.6504C5.62157 25.6517 5.62093 25.6531 5.62024 25.6546C5.61885 25.6577 5.61723 25.6614 5.61543 25.6656C5.61182 25.6741 5.60743 25.6848 5.60253 25.6975C5.59276 25.723 5.58082 25.7573 5.56906 25.7988C5.5458 25.881 5.52186 25.9969 5.51955 26.1332C5.51477 26.416 5.60538 26.7783 5.95066 27.0802L6.47728 26.478ZM25.6759 26.478C25.623 26.5242 25.4844 26.5967 25.241 26.6703C25.0116 26.7397 24.7329 26.7973 24.4439 26.839C24.1556 26.8805 23.8659 26.9048 23.6168 26.9103C23.3583 26.9159 23.1743 26.9003 23.0815 26.8771L22.8875 27.6532C23.0875 27.7032 23.359 27.7161 23.6342 27.7101C23.9188 27.7039 24.2409 27.6765 24.5579 27.6308C24.8742 27.5852 25.1943 27.5202 25.4725 27.4361C25.7368 27.3562 26.0146 27.2445 26.2025 27.0802L25.6759 26.478ZM26.7006 20.5412C26.3907 18.8083 26.1644 17.1671 25.9638 15.7562C25.7647 14.3559 25.5884 13.1621 25.3781 12.3562L24.604 12.5581C24.8002 13.31 24.9703 14.4521 25.1718 15.8688C25.3717 17.2751 25.6001 18.9321 25.9131 20.682L26.7006 20.5412ZM26.1671 25.8165C26.5329 25.9785 26.5329 25.9783 26.533 25.9781C26.5331 25.978 26.5332 25.9778 26.5332 25.9776C26.5334 25.9773 26.5335 25.977 26.5337 25.9767C26.534 25.9759 26.5343 25.9751 26.5347 25.9742C26.5355 25.9723 26.5365 25.9701 26.5377 25.9674C26.5399 25.9619 26.5429 25.9548 26.5465 25.946C26.5536 25.9284 26.5631 25.9039 26.5745 25.8726C26.5973 25.8101 26.6276 25.7202 26.6611 25.603C26.7282 25.3686 26.8082 25.025 26.8672 24.5717C26.9853 23.6647 27.0191 22.3223 26.7006 20.5412L25.9131 20.682C26.2174 22.3836 26.1813 23.6436 26.0739 24.4684C26.0201 24.8811 25.9484 25.1857 25.892 25.383C25.8637 25.4817 25.8393 25.5536 25.8228 25.5988C25.8146 25.6214 25.8083 25.6373 25.8046 25.6466C25.8027 25.6513 25.8015 25.6543 25.8009 25.6556C25.8006 25.6563 25.8005 25.6565 25.8006 25.6563C25.8006 25.6562 25.8007 25.6561 25.8008 25.6558C25.8009 25.6556 25.801 25.6554 25.8011 25.6552C25.8011 25.6551 25.8012 25.655 25.8012 25.6549C25.8013 25.6547 25.8014 25.6546 26.1671 25.8165ZM25.3781 12.3562C24.9547 10.733 24.0677 9.02097 22.5194 7.59179L21.9768 8.17964C23.3999 9.49331 24.2147 11.0655 24.604 12.5581L25.3781 12.3562ZM23.0815 26.8771C23.0265 26.8634 23.0109 26.8439 23.0027 26.8323C22.9887 26.8124 22.9728 26.7749 22.9652 26.7127C22.9578 26.6519 22.9608 26.5877 22.9672 26.5351C22.9703 26.5098 22.9738 26.4897 22.9763 26.477C22.9775 26.4707 22.9785 26.4664 22.9789 26.4644C22.9792 26.4635 22.9793 26.4631 22.9792 26.4633C22.9792 26.4634 22.9791 26.4637 22.979 26.4642C22.9789 26.4644 22.9789 26.4647 22.9788 26.465C22.9787 26.4651 22.9787 26.4653 22.9787 26.4655C22.9786 26.4656 22.9786 26.4657 22.9786 26.4657C22.9786 26.4659 22.9785 26.466 22.591 26.3671C22.2034 26.2681 22.2033 26.2683 22.2033 26.2684C22.2033 26.2685 22.2033 26.2686 22.2032 26.2687C22.2032 26.269 22.2031 26.2692 22.2031 26.2694C22.2029 26.2699 22.2028 26.2705 22.2026 26.271C22.2024 26.2722 22.202 26.2736 22.2016 26.2751C22.2009 26.2782 22.2 26.2821 22.1989 26.2867C22.1969 26.2958 22.1943 26.3078 22.1914 26.3224C22.1857 26.3513 22.1788 26.391 22.173 26.4385C22.1617 26.5314 22.1533 26.6644 22.1711 26.8098C22.1887 26.9539 22.2347 27.1317 22.3493 27.2939C22.4698 27.4645 22.6497 27.5938 22.8875 27.6532L23.0815 26.8771ZM26.2025 27.0802C26.5477 26.7783 26.6384 26.416 26.6336 26.1332C26.6313 25.9969 26.6073 25.881 26.5841 25.7988C26.5723 25.7573 26.5604 25.723 26.5506 25.6975C26.5457 25.6848 26.5413 25.6741 26.5377 25.6656C26.5359 25.6614 26.5343 25.6577 26.5329 25.6546C26.5322 25.6531 26.5316 25.6517 26.531 25.6504C26.5307 25.6498 26.5304 25.6492 26.5302 25.6486C26.53 25.6483 26.5299 25.6481 26.5298 25.6478C26.5297 25.6477 26.5296 25.6475 26.5296 25.6474C26.5295 25.6472 26.5294 25.647 26.1671 25.8165C25.8048 25.986 25.8047 25.9858 25.8046 25.9856C25.8046 25.9856 25.8045 25.9854 25.8045 25.9853C25.8044 25.9851 25.8042 25.9848 25.8042 25.9846C25.804 25.9842 25.8038 25.9838 25.8036 25.9834C25.8033 25.9827 25.803 25.9821 25.8028 25.9816C25.8023 25.9805 25.802 25.98 25.802 25.9798C25.8018 25.9795 25.8024 25.9808 25.8035 25.9837C25.8057 25.9895 25.8098 26.0008 25.8143 26.0167C25.8235 26.0492 25.8328 26.0951 25.8337 26.1467C25.8353 26.2401 25.8119 26.359 25.6759 26.478L26.2025 27.0802ZM12.8111 7.1374C13.3962 7.23492 14.124 7.64136 14.6512 8.16855L15.2168 7.60286C14.6012 6.98719 13.729 6.47934 12.9426 6.34829L12.8111 7.1374ZM14.6512 8.16855C15.2455 8.76288 15.6768 9.22019 15.6769 9.88575L16.4769 9.88567C16.4768 8.83695 15.7654 8.15139 15.2168 7.60286L14.6512 8.16855ZM10.1911 6.97143C10.1911 6.50932 10.4652 6.06746 10.9229 5.67513C11.376 5.28675 11.9562 4.99518 12.4319 4.83662L12.1789 4.07767C11.626 4.26197 10.9491 4.59897 10.4023 5.06773C9.85998 5.53254 9.39115 6.17639 9.39115 6.97143H10.1911ZM12.4319 4.83662C13.4011 4.51354 14.3464 4.4 16.0769 4.4V3.6C14.3111 3.6 13.2669 3.71503 12.1789 4.07767L12.4319 4.83662ZM13.998 8.82928C13.9297 9.11932 13.9016 9.58934 13.891 10.122C13.8801 10.6675 13.8874 11.3191 13.9017 11.9952C13.9305 13.3576 13.9873 14.8087 13.9873 15.764H14.7873C14.7873 14.7993 14.7298 13.3146 14.7015 11.9783C14.6873 11.305 14.6803 10.6666 14.6908 10.1379C14.7016 9.5964 14.7307 9.20818 14.7767 9.01251L13.998 8.82928ZM19.2111 6.34828C18.4248 6.47934 17.5525 6.98718 16.9369 7.60285L17.5026 8.16854C18.0297 7.64135 18.7575 7.23491 19.3426 7.1374L19.2111 6.34828ZM16.9369 7.60285C16.3883 8.15138 15.677 8.83695 15.6769 9.88567L16.4769 9.88575C16.4769 9.22019 16.9082 8.76287 17.5026 8.16854L16.9369 7.60285ZM22.7626 6.97142C22.7626 6.17638 22.2937 5.53253 21.7515 5.06772C21.2046 4.59896 20.5277 4.26196 19.9748 4.07766L19.7218 4.83661C20.1975 4.99517 20.7777 5.28674 21.2308 5.67513C21.6886 6.06746 21.9626 6.50932 21.9626 6.97142H22.7626ZM19.9748 4.07766C18.8869 3.71502 17.8427 3.6 16.0769 3.6V4.4C17.8073 4.4 18.7526 4.51354 19.7218 4.83661L19.9748 4.07766ZM17.5774 9.01251C17.6235 9.20818 17.6525 9.59641 17.6633 10.1379C17.6739 10.6666 17.6669 11.305 17.6526 11.9783C17.6243 13.3146 17.5668 14.7993 17.5668 15.764H18.3668C18.3668 14.8087 18.4236 13.3576 18.4524 11.9952C18.4667 11.3191 18.474 10.6675 18.4631 10.122C18.4525 9.58935 18.4244 9.11932 18.3562 8.82928L17.5774 9.01251ZM12.2396 8.85168C12.9246 8.96603 13.308 8.8539 14.2166 9.28264L14.558 8.55914C13.5178 8.06829 12.8572 8.14372 12.3713 8.0626L12.2396 8.85168ZM14.2166 9.28264C14.3955 9.36706 14.7559 9.54578 15.097 9.73158C15.2677 9.82456 15.4292 9.91697 15.5591 9.99861C15.6241 10.0395 15.6779 10.0756 15.7194 10.1061C15.7401 10.1212 15.756 10.1337 15.7678 10.1437C15.7801 10.1541 15.7847 10.159 15.7844 10.1586L16.3693 9.61278C16.2743 9.51101 16.1222 9.40762 15.9849 9.32129C15.8352 9.22721 15.6575 9.12592 15.4797 9.02904C15.1237 8.83512 14.7494 8.64945 14.558 8.55914L14.2166 9.28264ZM19.7824 8.0626C19.2685 8.14838 18.8393 8.06045 17.7943 8.56001L18.1393 9.28178C19.0485 8.84717 19.2474 8.96299 19.9142 8.85168L19.7824 8.0626ZM17.7943 8.56001C17.7089 8.60081 17.5651 8.66557 17.3845 8.74761C17.2069 8.82826 16.9993 8.9231 16.7955 9.02018C16.5927 9.11683 16.3886 9.21805 16.2192 9.31157C16.1345 9.35826 16.0542 9.40544 15.9848 9.45119C15.9212 9.49319 15.8447 9.54822 15.7844 9.61278L16.3693 10.1586C16.3629 10.1655 16.3746 10.1525 16.4255 10.1189C16.4707 10.0891 16.5311 10.0531 16.6057 10.012C16.7545 9.92987 16.9419 9.83659 17.1396 9.7424C17.3364 9.64865 17.5384 9.55634 17.7153 9.47601C17.8891 9.39707 18.0446 9.32705 18.1393 9.28178L17.7943 8.56001ZM9.39115 6.97143C9.39115 7.39591 9.5424 7.73878 9.79034 8.00114L10.3718 7.45168C10.262 7.3355 10.1911 7.18837 10.1911 6.97143H9.39115ZM9.79034 8.00114C10.1337 8.36454 10.6346 8.54443 11.0689 8.65002C11.5022 8.75537 11.9731 8.80721 12.2396 8.85168L12.3713 8.0626C12.0359 8.00662 11.6558 7.96941 11.2579 7.87267C10.861 7.77618 10.5506 7.64093 10.3718 7.45168L9.79034 8.00114ZM10.1763 8.17964C10.2331 8.12725 10.2898 8.07593 10.3465 8.02566L9.81564 7.42716C9.75497 7.48097 9.69433 7.53585 9.63372 7.59179L10.1763 8.17964ZM21.9626 6.97142C21.9626 7.18846 21.8917 7.33564 21.7818 7.45186L22.363 8.00153C22.6112 7.73913 22.7626 7.39614 22.7626 6.97142H21.9626ZM21.7818 7.45186C21.6028 7.64106 21.2924 7.77625 20.8956 7.87271C20.4978 7.96942 20.1178 8.00662 19.7824 8.0626L19.9142 8.85168C20.1805 8.80721 20.6514 8.75538 21.0846 8.65007C21.5188 8.54452 22.0196 8.36471 22.363 8.00153L21.7818 7.45186ZM22.5194 7.59179C22.4589 7.53595 22.3984 7.48117 22.3378 7.42746L21.8069 8.02594C21.8635 8.07612 21.9201 8.12735 21.9768 8.17964L22.5194 7.59179ZM22.591 26.3671C22.842 26.0557 22.8421 26.0557 22.8421 26.0558C22.8422 26.0558 22.8422 26.0558 22.8423 26.0559C22.8424 26.056 22.8424 26.056 22.8425 26.0561C22.8427 26.0562 22.8428 26.0563 22.8429 26.0564C22.8432 26.0566 22.8434 26.0568 22.8435 26.0569C22.8438 26.0571 22.8439 26.0572 22.8437 26.057C22.8434 26.0568 22.8423 26.0559 22.8403 26.0542C22.8364 26.0509 22.8293 26.0447 22.8193 26.0356C22.7992 26.0174 22.7674 25.9875 22.7263 25.9453C22.6441 25.8609 22.5246 25.7274 22.3867 25.5398L21.7421 26.0136C21.9033 26.233 22.0471 26.3946 22.1534 26.5037C22.2065 26.5582 22.2503 26.5996 22.2822 26.6285C22.2981 26.643 22.3111 26.6543 22.3209 26.6626C22.3257 26.6667 22.3298 26.6701 22.3329 26.6728C22.3345 26.6741 22.3359 26.6752 22.3371 26.6762C22.3377 26.6767 22.3382 26.6771 22.3386 26.6775C22.3389 26.6777 22.3391 26.6778 22.3393 26.678C22.3394 26.6781 22.3395 26.6782 22.3396 26.6782C22.3397 26.6783 22.3397 26.6783 22.3398 26.6784C22.3398 26.6784 22.3399 26.6785 22.591 26.3671ZM21.89 23.3789C22.3548 24.3084 22.2512 25.0369 21.7855 25.49L22.3433 26.0634C23.1455 25.2831 23.1642 24.1385 22.6055 23.0211L21.89 23.3789ZM21.7855 25.49C21.6166 25.6543 21.3858 25.7994 21.0823 25.9098L21.3557 26.6616C21.7483 26.5188 22.0811 26.3185 22.3433 26.0634L21.7855 25.49ZM9.56217 26.3671C9.81324 26.6785 9.81331 26.6784 9.81338 26.6784C9.8134 26.6783 9.81347 26.6783 9.81352 26.6782C9.81362 26.6782 9.81372 26.6781 9.81382 26.678C9.81403 26.6778 9.81425 26.6776 9.81448 26.6775C9.81495 26.6771 9.81548 26.6766 9.81606 26.6762C9.81722 26.6752 9.8186 26.6741 9.82019 26.6728C9.82338 26.6701 9.82742 26.6667 9.83229 26.6626C9.84202 26.6543 9.85502 26.6429 9.871 26.6285C9.90294 26.5995 9.94676 26.5581 9.99995 26.5035C10.1063 26.3943 10.2502 26.2325 10.4116 26.0129L9.76687 25.5392C9.6289 25.727 9.50928 25.8607 9.42696 25.9452C9.3858 25.9874 9.35398 26.0174 9.33387 26.0356C9.32382 26.0447 9.31669 26.0509 9.3128 26.0542C9.31085 26.0559 9.30971 26.0568 9.30942 26.057C9.30927 26.0572 9.30934 26.0571 9.30962 26.0569C9.30976 26.0568 9.30995 26.0566 9.3102 26.0564C9.31032 26.0563 9.31046 26.0562 9.31061 26.0561C9.31069 26.056 9.31077 26.056 9.31085 26.0559C9.31089 26.0559 9.31096 26.0558 9.31098 26.0558C9.31104 26.0557 9.31111 26.0557 9.56217 26.3671ZM9.54883 23.0211C8.9903 24.138 9.00879 25.2822 9.81016 26.0626L10.3683 25.4895C9.90304 25.0364 9.79972 24.3081 10.2644 23.3789L9.54883 23.0211ZM9.81016 26.0626C10.0725 26.3181 10.4056 26.5187 10.7986 26.6616L11.072 25.9098C10.7682 25.7993 10.5372 25.654 10.3683 25.4895L9.81016 26.0626Z" fill="#1E1E1E"/>
</svg>
