<svg width="32" height="32" viewBox="0 0 32 32" fill="none" xmlns="http://www.w3.org/2000/svg">
<path d="M15.9998 26.7033C13.2756 26.7033 10.9505 26.1022 10.3999 25.945C9.84927 25.7879 9.88506 25.6901 9.85671 25.1681C9.82712 25.5164 9.77101 25.7794 9.72597 26.0046C9.68093 26.2298 9.5985 26.4747 9.14135 26.589C8.6842 26.7033 6.74135 26.589 6.3985 26.4747C6.05564 26.3604 5.94141 26.1319 5.94141 25.789C5.94141 25.4462 6.09235 20.949 6.3653 18.7173C6.63826 16.4855 6.76795 14.6443 7.02259 12.9892C7.27723 11.334 7.40124 9.78568 8.40719 8.72394C9.41314 7.6622 9.73664 7.53976 10.9194 6.7396C10.8924 6.69499 10.8659 6.65016 10.8404 6.60534C10.7257 6.40398 10.6304 6.21284 10.9274 5.96719C11.2244 5.72154 11.3147 5.65953 11.8232 5.39897C12.3317 5.13841 12.4468 5.42155 12.7512 5.73379C12.7608 5.74362 12.7735 5.75729 12.7889 5.77444C13.6041 5.47985 14.738 5.35711 15.9844 5.35711C17.2363 5.35711 18.389 5.48094 19.2049 5.77834C19.222 5.75935 19.2359 5.74433 19.2462 5.73376C19.5506 5.42152 19.6657 5.13838 20.1742 5.39894C20.6827 5.6595 20.773 5.72151 21.07 5.96716C21.367 6.21281 21.2717 6.40395 21.157 6.60531C21.1314 6.65024 21.1049 6.69517 21.0778 6.73988C22.2604 7.53996 23.5296 8.31663 24.088 9.4663C24.6464 10.616 24.7196 11.334 24.9742 12.9892C25.2289 14.6443 25.3585 16.4855 25.6315 18.7173C25.9045 20.949 26.0554 25.4462 26.0554 25.789C26.0554 26.1319 25.9412 26.3604 25.5983 26.4747C25.2554 26.589 23.3126 26.7033 22.8555 26.589C22.3983 26.4747 22.2933 26.2434 22.2401 25.9015C22.1869 25.5596 22.1431 25.1681 22.1431 25.1681C22.1148 25.69 22.1505 25.7878 21.5999 25.945C21.0493 26.1022 18.7241 26.7033 15.9998 26.7033Z" fill="white"/>
<path d="M15.9998 26.7033C13.2756 26.7033 10.9505 26.1022 10.3999 25.945C9.84927 25.7879 9.88506 25.6901 9.85671 25.1681M15.9998 26.7033C18.7241 26.7033 21.0493 26.1022 21.5999 25.945C22.1505 25.7878 22.1148 25.69 22.1431 25.1681M15.9998 26.7033L15.9844 9.25992M9.85671 25.1681C9.84872 25.0209 9.88843 24.4336 9.94958 23.5291L9.95971 23.3792M9.85671 25.1681C9.82712 25.5164 9.77101 25.7794 9.72597 26.0046C9.68093 26.2298 9.5985 26.4747 9.14135 26.589C8.6842 26.7033 6.74135 26.589 6.3985 26.4747C6.05564 26.3604 5.94141 26.1319 5.94141 25.789C5.94141 25.4462 6.09235 20.949 6.3653 18.7173C6.63826 16.4855 6.76795 14.6443 7.02259 12.9892C7.27723 11.334 7.40124 9.78568 8.40719 8.72394C9.41314 7.6622 9.73664 7.53976 10.9194 6.7396M13.0589 20.2643C13.0959 21.0123 13.0709 22.7419 12.9511 23.0415C12.8313 23.3411 12.6454 23.4283 12.3756 23.4704C12.1059 23.5125 10.6022 23.5219 9.95971 23.3792M10.1625 20.1431C10.8834 20.157 12.4363 20.1839 12.6933 20.181C13.0145 20.1772 13.298 20.2115 13.3483 19.8891C13.3829 19.6681 13.334 19.3721 13.2667 19.0446C13.1994 18.7171 13.0589 18.7175 12.8338 18.6857C12.6087 18.6538 10.8572 18.5997 10.2421 18.5997M10.1625 20.1431C10.1899 19.6513 10.2168 19.135 10.2421 18.5997M10.1625 20.1431C10.1405 20.5363 10.1183 20.9139 10.0964 21.2731C10.0473 22.0773 9.99954 22.7895 9.95971 23.3792M10.2421 18.5997C10.3309 16.7211 10.3999 14.607 10.3999 12.4875M22.1431 25.1681C22.1511 25.0209 22.1114 24.4335 22.0502 23.5291L22.043 23.4217M22.1431 25.1681C22.1431 25.1681 22.1869 25.5596 22.2401 25.9015C22.2933 26.2434 22.3983 26.4747 22.8555 26.589C23.3126 26.7033 25.2554 26.589 25.5983 26.4747C25.9412 26.3604 26.0554 26.1319 26.0554 25.789C26.0554 25.4462 25.9045 20.949 25.6315 18.7173C25.3585 16.4855 25.2289 14.6443 24.9742 12.9892C24.7196 11.334 24.6464 10.616 24.088 9.4663C23.5296 8.31663 22.2604 7.53996 21.0778 6.73988M18.9409 20.2643C18.9039 21.0123 18.929 22.7419 19.0487 23.0415C19.1685 23.3411 19.3545 23.4282 19.6242 23.4703C19.8939 23.5124 21.4005 23.5644 22.043 23.4217M21.8374 20.1431C21.1164 20.1569 19.5635 20.1839 19.3066 20.1809C18.9853 20.1772 18.7019 20.2114 18.6515 19.8891C18.6169 19.6681 18.6658 19.372 18.7331 19.0445C18.8004 18.7171 18.9409 18.7174 19.166 18.6856C19.3911 18.6538 21.1427 18.5996 21.7577 18.5996M21.8374 20.1431C21.81 19.6513 21.783 19.135 21.7577 18.5996M21.8374 20.1431C21.8709 20.7452 21.9052 21.3106 21.9381 21.8296C21.9759 22.4267 22.0119 22.9624 22.043 23.4217M21.7577 18.5996C21.6689 16.721 21.5999 14.6069 21.5999 12.4875M15.9987 9.27475C15.9987 9.27475 15.4345 10.2198 14.9738 10.5759C14.513 10.9319 14.2652 10.9917 13.2322 9.75504C12.1992 8.51839 11.6811 7.80704 11.4919 7.56221C11.3265 7.34822 11.1074 7.04914 10.9194 6.7396M15.9987 9.27475C15.9987 9.27475 15.1912 8.43656 14.4444 7.6622C13.9462 7.14564 13.0294 6.04096 12.7889 5.77444M15.9987 9.27475C15.9987 9.27475 16.5629 10.2198 17.0236 10.5758C17.4844 10.9319 17.7322 10.9917 18.7652 9.75501C19.7982 8.51836 20.3163 7.80701 20.5055 7.56218C20.6708 7.34827 20.8899 7.04931 21.0778 6.73988M15.9987 9.27475C15.9987 9.27475 16.8062 8.43653 17.553 7.66217C18.0488 7.14811 18.9591 6.05161 19.2049 5.77834M12.7889 5.77444C13.6041 5.47985 14.738 5.35711 15.9844 5.35711C17.2363 5.35711 18.389 5.48094 19.2049 5.77834M12.7889 5.77444C12.7735 5.75729 12.7608 5.74362 12.7512 5.73379C12.4468 5.42155 12.3317 5.13841 11.8232 5.39897C11.3147 5.65953 11.2244 5.72154 10.9274 5.96719C10.6304 6.21284 10.7257 6.40398 10.8404 6.60534C10.8659 6.65016 10.8924 6.69499 10.9194 6.7396M19.2049 5.77834C19.222 5.75935 19.2359 5.74433 19.2462 5.73376C19.5506 5.42152 19.6657 5.13838 20.1742 5.39894C20.6827 5.6595 20.773 5.72151 21.07 5.96716C21.367 6.21281 21.2717 6.40395 21.157 6.60532C21.1314 6.65024 21.1049 6.69517 21.0778 6.73988" stroke="#1E1E1E" stroke-width="0.8" stroke-linecap="round"/>
</svg>
