<svg width="32" height="32" viewBox="0 0 32 32" fill="none" xmlns="http://www.w3.org/2000/svg">
<path d="M9.96512 28.9599C9.96458 26.6161 9.98829 19.9275 9.98815 18.5065C9.98801 17.0855 9.96773 6.1824 9.97146 5.27987C9.99342 4.15585 10.12 3.13392 10.1983 2.50654C10.2614 2.0013 10.3396 1.51441 10.4876 1.31714C10.6356 1.11987 10.9171 1.11987 11.2652 1.11987H12.6514H18.522H19.482H20.8682C21.2163 1.11987 21.4978 1.11987 21.6458 1.31714C21.7938 1.51441 21.8723 2.0013 21.9353 2.50654C22.0137 3.13392 22.14 4.15585 22.162 5.27987C22.1657 6.1824 22.1482 17.0855 22.1481 18.5065C22.148 19.9275 22.1717 26.6161 22.1711 28.9599C22.5551 28.9599 22.6831 29.1858 22.6831 29.8634C22.6831 30.5411 22.5551 30.8799 21.5311 30.8799H17.1353C16.6233 30.8799 16.4953 30.654 16.4953 30.3152V29.5246C16.4953 29.2342 16.6307 29.0932 16.8144 29.0246C16.7433 23.9046 16.4944 11.4665 16.0677 9.54654C15.6411 11.4665 15.393 23.9046 15.3219 29.0246C15.5056 29.0932 15.6409 29.2342 15.6409 29.5246V30.3152C15.6409 30.654 15.5129 30.8799 15.0009 30.8799H10.6051C9.58113 30.8799 9.45312 30.5411 9.45312 29.8634C9.45312 29.1858 9.58112 28.9599 9.96512 28.9599Z" fill="white"/>
<path d="M9.96512 28.9599C9.96458 26.6161 9.98829 19.9275 9.98815 18.5065C9.98801 17.0855 9.96773 6.1824 9.97146 5.27987M9.96512 28.9599H14.7449C14.9315 28.9599 15.1483 28.9599 15.3219 29.0246M9.96512 28.9599C9.58112 28.9599 9.45312 29.1858 9.45312 29.8634C9.45312 30.5411 9.58113 30.8799 10.6051 30.8799H15.0009C15.5129 30.8799 15.6409 30.654 15.6409 30.3152V29.5246C15.6409 29.2342 15.5056 29.0932 15.3219 29.0246M15.3219 29.0246C15.393 23.9046 15.6411 11.4665 16.0677 9.54654M16.0677 9.54654C16.4944 11.4665 16.7433 23.9046 16.8144 29.0246M16.0677 9.54654V1.11987M9.97146 5.27987C10.5048 5.27987 11.1353 5.10944 11.6914 4.63987C12.2263 4.18823 12.6096 3.34327 12.6514 2.50654V1.11987M9.97146 5.27987C9.99342 4.15585 10.12 3.13392 10.1983 2.50654C10.2614 2.0013 10.3396 1.51441 10.4876 1.31714C10.6356 1.11987 10.9171 1.11987 11.2652 1.11987L12.6514 1.11987M22.1711 28.9599C22.1717 26.6161 22.148 19.9275 22.1481 18.5065C22.1482 17.0855 22.1657 6.1824 22.162 5.27987M22.1711 28.9599H17.3913C17.2048 28.9599 16.988 28.9599 16.8144 29.0246M22.1711 28.9599C22.5551 28.9599 22.6831 29.1858 22.6831 29.8634C22.6831 30.5411 22.5551 30.8799 21.5311 30.8799H17.1353C16.6233 30.8799 16.4953 30.654 16.4953 30.3152V29.5246C16.4953 29.2342 16.6307 29.0932 16.8144 29.0246M22.162 5.27987C21.6286 5.27987 20.9981 5.10944 20.442 4.63987C19.9071 4.18823 19.5238 3.34327 19.482 2.50654V1.11987M22.162 5.27987C22.14 4.15585 22.0137 3.13392 21.9353 2.50654C21.8723 2.0013 21.7938 1.51441 21.6458 1.31714C21.4978 1.11987 21.2163 1.11987 20.8682 1.11987H19.482M19.482 1.11987H18.522L12.6514 1.11987" stroke="#1E1E1E" stroke-width="0.7" stroke-linecap="round" stroke-linejoin="round"/>
</svg>
