<svg width="32" height="32" viewBox="0 0 32 32" fill="none" xmlns="http://www.w3.org/2000/svg">
<path d="M11.1715 25.5173C10.7111 25.4405 10.364 25.2856 10.0959 25.0595C9.79938 24.8095 9.59935 24.4724 9.44912 24.0578C9.37609 24.5868 9.3195 24.9391 9.27889 25.0773C9.08152 25.7488 8.92272 26.1055 8.46557 26.2198C8.39222 26.2381 8.28848 26.2475 8.16458 26.2499C7.92009 26.2546 7.59708 26.2319 7.27411 26.1968C6.98671 26.1655 6.69934 26.1243 6.46736 26.0836C6.26881 26.0488 6.11083 26.0143 6.02815 25.9867C5.93246 25.9548 5.81012 25.916 5.68344 25.8569C5.35621 25.7041 5.0001 25.4156 5.0001 24.7604C5.0001 23.8514 4.99988 22.7201 5.0001 21.2936C5.00032 19.8671 5.13829 17.9418 5.51527 15.6474C5.89226 13.3529 6.12849 12.3218 6.95811 10.5823C7.78774 8.84272 8.08602 8.28906 9.57173 6.91763C10.147 6.38663 10.7222 5.99269 11.2909 5.69602C11.428 5.62446 11.5762 5.57021 11.6863 5.54277C11.7963 5.51533 11.9033 5.5119 11.9998 5.54277C12.8233 5.1572 14.0897 5 15.5003 5C16.9142 5 18.1976 5.15795 19.0209 5.54552C19.1199 5.51282 19.2952 5.49775 19.3923 5.53496C19.4895 5.57216 19.618 5.63288 19.7639 5.70976C20.324 6.00483 20.8904 6.39479 21.4568 6.91763C22.9426 8.28906 23.2408 8.84272 24.0705 10.5823C24.9001 12.3218 25.1363 13.3529 25.5133 15.6474C25.8903 17.9418 26.0283 19.8671 26.0285 21.2936C26.0287 22.7201 26.0285 23.8514 26.0285 24.7604C26.0285 25.4156 25.6724 25.7041 25.3451 25.8569C25.2185 25.916 25.0961 25.9548 25.0004 25.9867C24.9177 26.0143 24.7598 26.0488 24.5612 26.0836C24.3292 26.1243 24.0419 26.1655 23.7545 26.1968C23.4451 26.2305 23.1357 26.2526 22.8953 26.2503C22.7575 26.249 22.6424 26.2396 22.563 26.2198C22.1059 26.1055 21.9471 25.7488 21.7497 25.0773C21.7091 24.9393 21.6527 24.5879 21.5798 24.0602C21.4349 24.4592 21.2438 24.7863 20.9646 25.033C20.6924 25.2735 20.3365 25.4376 19.8582 25.5173C19.8176 25.5241 19.7763 25.5304 19.7345 25.5364C19.3266 25.5949 18.8659 25.6168 18.3966 25.6187C17.9232 25.6207 17.441 25.6024 16.9955 25.5808C16.4008 25.5519 15.8704 25.5173 15.5144 25.5173C15.1583 25.5173 14.629 25.5519 14.0343 25.5808C13.5888 25.6024 13.1066 25.6207 12.6331 25.6187C12.1638 25.6168 11.7032 25.5949 11.2953 25.5364C11.2535 25.5304 11.2122 25.5241 11.1715 25.5173Z" fill="white"/>
<path d="M9.45724 12.0605C9.45724 12.0605 8.89236 21.5046 9.16354 22.9356C9.243 23.3549 9.33055 23.7305 9.44912 24.0578M11.2953 25.5364C11.2788 25.284 11.2558 24.6329 11.2953 24.3656M11.2953 25.5364C11.2535 25.5304 11.2122 25.5241 11.1715 25.5173C10.7111 25.4405 10.364 25.2856 10.0959 25.0595C9.79938 24.8095 9.59935 24.4724 9.44912 24.0578M11.2953 25.5364C11.7032 25.5949 12.1638 25.6168 12.6331 25.6187C13.1066 25.6207 13.5888 25.6024 14.0343 25.5808M14.0343 25.5808C14.0343 25.3625 14.0602 24.7147 14.0861 24.4889M14.0343 25.5808C14.629 25.5519 15.1583 25.5173 15.5144 25.5173C15.8704 25.5173 16.4008 25.5519 16.9955 25.5808M21.5725 12.0605C21.5725 12.0605 22.1374 21.5046 21.8662 22.9356C21.7866 23.3559 21.6988 23.7323 21.5798 24.0602M19.7345 25.5364C19.751 25.284 19.774 24.6329 19.7345 24.3656M19.7345 25.5364C19.7763 25.5304 19.8176 25.5241 19.8582 25.5173C20.3365 25.4376 20.6924 25.2735 20.9646 25.033C21.2438 24.7863 21.4349 24.4592 21.5798 24.0602M19.7345 25.5364C19.3266 25.5949 18.8659 25.6168 18.3966 25.6187C17.9232 25.6207 17.441 25.6024 16.9955 25.5808M16.9955 25.5808C16.9955 25.3625 16.9696 24.7147 16.9437 24.4889M5.68344 25.8569C5.70881 25.5245 5.7078 25.151 5.74433 24.8648M5.68344 25.8569C5.81012 25.916 5.93246 25.9548 6.02815 25.9867C6.11083 26.0143 6.26881 26.0488 6.46736 26.0836C6.69934 26.1243 6.98671 26.1655 7.27411 26.1968M5.68344 25.8569C5.35621 25.7041 5.0001 25.4156 5.0001 24.7604C5.0001 23.8514 4.99988 22.7201 5.0001 21.2936C5.00032 19.8671 5.13829 17.9418 5.51527 15.6474C5.89226 13.3529 6.12849 12.3218 6.95811 10.5823C7.78774 8.84272 8.08602 8.28906 9.57174 6.91763C10.147 6.38663 10.7222 5.99269 11.2909 5.69602C11.428 5.62446 11.5762 5.57021 11.6863 5.54277C11.7963 5.51533 11.9033 5.5119 11.9998 5.54277M7.27411 26.1968C7.35276 25.8151 7.42785 25.3018 7.46439 25.154M7.27411 26.1968C7.59708 26.2319 7.92009 26.2546 8.16459 26.2499C8.28849 26.2475 8.39222 26.2381 8.46557 26.2198C8.92272 26.1055 9.08152 25.7488 9.27889 25.0773C9.3195 24.9391 9.37609 24.5868 9.44912 24.0578M25.3451 25.8569C25.3198 25.5245 25.3208 25.151 25.2842 24.8648M25.3451 25.8569C25.2185 25.916 25.0961 25.9548 25.0004 25.9867C24.9177 26.0143 24.7598 26.0488 24.5612 26.0836C24.3292 26.1243 24.0419 26.1655 23.7545 26.1968M25.3451 25.8569C25.6724 25.7041 26.0285 25.4156 26.0285 24.7604C26.0285 23.8514 26.0287 22.7201 26.0285 21.2936C26.0283 19.8671 25.8903 17.9418 25.5133 15.6474C25.1363 13.3529 24.9001 12.3218 24.0705 10.5823C23.2408 8.84272 22.9426 8.28906 21.4568 6.91763C20.8904 6.39479 20.324 6.00483 19.7639 5.70976C19.618 5.63288 19.4895 5.57216 19.3923 5.53496C19.2952 5.49775 19.1199 5.51282 19.0209 5.54552M23.7545 26.1968C23.6758 25.8151 23.6007 25.3018 23.5642 25.154M23.7545 26.1968C23.4451 26.2305 23.1357 26.2526 22.8953 26.2503C22.7575 26.249 22.6424 26.2396 22.563 26.2198C22.1059 26.1055 21.9471 25.7488 21.7497 25.0773C21.7091 24.9393 21.6527 24.5879 21.5798 24.0602M12.3885 7.26359C12.5123 7.15013 12.8622 6.82047 13.0602 6.57911M13.0602 6.57911C12.8907 6.40829 12.7517 6.23468 12.6426 6.07452C12.6093 6.02574 12.5756 5.98037 12.5413 5.93828C12.3732 5.73182 12.1927 5.60447 11.9998 5.54277M13.0602 6.57911C13.2483 6.76852 13.4739 6.9545 13.7382 7.11489C13.9606 7.24991 14.2104 7.36681 14.4882 7.45236M14.1751 8.30698C14.2501 8.15877 14.4336 7.69186 14.4882 7.45236M14.4882 7.45236L14.4931 7.45387C14.7992 7.54763 15.1392 7.60333 15.5139 7.60333C15.8887 7.60333 16.2299 7.54763 16.5361 7.45387M18.6407 7.26359C18.5169 7.15013 18.1712 6.81622 17.9731 6.57486M17.9731 6.57486C18.1408 6.40542 18.2784 6.23335 18.3866 6.07452C18.422 6.02257 18.458 5.97448 18.4946 5.93011C18.6583 5.73143 18.8338 5.60736 19.0209 5.54552M17.9731 6.57486C17.7847 6.76528 17.5583 6.9524 17.2929 7.11373C17.0687 7.25004 16.8166 7.36794 16.5361 7.45387M16.8541 8.30698C16.779 8.15877 16.5907 7.69337 16.5361 7.45387M19.0209 5.54552C18.1976 5.15795 16.9142 5 15.5003 5C14.0897 5 12.8233 5.1572 11.9998 5.54277" stroke="#1E1E1E" stroke-width="0.8" stroke-linecap="round"/>
</svg>
