<svg width="32" height="32" viewBox="0 0 32 32" fill="none" xmlns="http://www.w3.org/2000/svg">
<path d="M11.5398 29.9733C11.3628 27.6533 11.0077 22.1568 10.7951 19.4799C10.5826 16.803 9.94645 12.3058 9.83989 7.80868C9.78002 6.4793 9.84148 6.20255 9.94688 4.7035C10.0523 3.20444 10.3721 2.02661 10.3721 2.02661H21.634C21.634 2.02661 21.9539 3.20444 22.0593 4.7035C22.1647 6.20255 22.2261 6.4793 22.1663 7.80868C22.0597 12.3058 21.4235 16.803 21.211 19.4799C20.9985 22.1568 20.6433 27.6533 20.4664 29.9733H17.2785C17.2077 24.8337 17.3836 8.87943 16.0031 9.09358C14.6226 8.87943 14.7985 24.8337 14.7276 29.9733H11.5398Z" fill="white"/>
<path d="M11.5398 29.9733C11.3628 27.6533 11.0077 22.1568 10.7951 19.4799C10.5826 16.803 9.94645 12.3058 9.83989 7.80868C9.78002 6.4793 9.84148 6.20255 9.94688 4.7035C10.0523 3.20444 10.3721 2.02661 10.3721 2.02661H21.634C21.634 2.02661 21.9539 3.20444 22.0593 4.7035C22.1647 6.20255 22.2261 6.4793 22.1663 7.80868C22.0597 12.3058 21.4235 16.803 21.211 19.4799C20.9985 22.1568 20.6433 27.6533 20.4664 29.9733H17.2785C17.2077 24.8337 17.3836 8.87943 16.0031 9.09358C14.6226 8.87943 14.7985 24.8337 14.7276 29.9733H11.5398Z" stroke="#1E1E1E" stroke-width="0.7" stroke-linecap="round" stroke-linejoin="round"/>
</svg>
