<svg width="32" height="32" viewBox="0 0 32 32" fill="none" xmlns="http://www.w3.org/2000/svg">
<path d="M30.0172 14.5611C30.0994 15.488 30.1811 15.713 30.1811 18.0698C30.1811 18.0698 30.5036 21.6903 29.6558 21.6903H24.2783C23.2848 21.6903 22.8725 20.4315 22.8725 20.4315C22.8725 20.4315 17.2316 21.4098 13.8249 21.7016C8.36937 22.1688 4.12539 21.7016 3.37009 21.7016C2.33213 21.7016 1.8389 21.673 1.8389 20.8328C1.8389 20.5075 1.87879 20.3453 1.91366 20.2436C1.86395 20.0135 1.4336 17.8916 2.2618 16.7867C2.32916 16.6969 2.4048 16.6136 2.4896 16.5385C3.67843 15.4852 6.91257 15.8068 9.26107 15.2097C10.7259 14.8372 11.7288 14.4716 12.6102 14.0306C12.2198 13.7425 12.2317 13.4113 12.3605 13.1428C12.522 12.806 13.4812 12.3331 14.0263 12.0216C14.5715 11.7101 14.9245 11.7184 15.3133 11.87C15.3806 11.8963 15.4524 11.9284 15.5283 11.9667C16.0228 11.4818 16.4811 10.9815 16.8222 10.6277C17.4742 9.95162 18.0923 10.0063 18.7299 10.2895C19.2668 10.5281 20.9321 11.6228 21.2677 12.8362C22.5593 12.0892 24.089 11.2729 25.6306 11.0022C27.3792 10.6952 28.8091 10.8974 29.2324 11.5804C29.6558 12.2634 29.9349 13.6342 30.0172 14.5611Z" fill="white"/>
<path d="M30.1811 18.0698C30.1811 15.713 30.0994 15.488 30.0172 14.5611C29.9349 13.6342 29.6558 12.2634 29.2324 11.5804C28.8091 10.8974 27.3792 10.6952 25.6306 11.0022C24.089 11.2729 22.5593 12.0892 21.2677 12.8362M30.1811 18.0698C30.1811 18.0698 30.5036 21.6903 29.6558 21.6903H24.2783C23.2848 21.6903 22.8725 20.4315 22.8725 20.4315C22.8725 20.4315 17.2316 21.4098 13.8249 21.7016C8.36937 22.1688 4.12539 21.7016 3.37009 21.7016C2.33213 21.7016 1.8389 21.673 1.8389 20.8328C1.8389 20.5075 1.87879 20.3453 1.91366 20.2436M30.1811 18.0698C30.1811 18.0698 25.9615 18.3972 23.76 18.6965C21.5584 18.9957 18.7299 19.5604 13.8249 20.2436C8.96101 20.921 2.02935 20.2548 1.91366 20.2436M1.91214 20.2436H1.91366M1.91366 20.2436C1.86395 20.0135 1.4336 17.8916 2.2618 16.7867M21.2677 12.8362C20.9321 11.6228 19.2668 10.5281 18.7299 10.2895C18.0923 10.0063 17.4742 9.95162 16.8222 10.6277C16.4811 10.9815 16.0228 11.4818 15.5283 11.9667M21.2677 12.8362C21.0943 12.9365 20.9252 13.0355 20.7609 13.1319C20.0995 13.5196 19.1713 13.9892 18.2762 14.4186M2.2618 16.7867C3.72254 17.2909 5.61748 17.5034 7.83942 17.4309C8.87539 17.3972 11.9256 16.9448 14.7335 15.9539M2.2618 16.7867C2.32916 16.6969 2.4048 16.6136 2.4896 16.5385C3.67843 15.4852 6.91257 15.8068 9.26107 15.2097C10.7259 14.8372 11.7288 14.4716 12.6102 14.0306M12.6102 14.0306C12.6277 14.0435 12.646 14.0563 12.6652 14.069C13.1114 14.3657 13.5547 14.736 13.9559 15.1048C14.2856 15.4079 14.5046 15.6813 14.7335 15.9539M12.6102 14.0306C12.2198 13.7425 12.2317 13.4113 12.3605 13.1428C12.522 12.806 13.4812 12.3331 14.0263 12.0216C14.5715 11.7101 14.9245 11.7184 15.3133 11.87C15.3806 11.8963 15.4524 11.9284 15.5283 11.9667M15.5283 11.9667C15.8907 12.1493 16.3485 12.4712 16.8784 12.9556C17.5132 13.5358 18.0123 14.0521 18.2762 14.4186M14.7335 15.9539C14.8522 16.0953 14.9736 16.2365 15.1145 16.3815C15.5268 16.8061 15.9439 16.8019 16.3852 16.6698C16.8266 16.5378 17.8862 15.8939 18.2756 15.6447C18.665 15.3955 18.596 14.9292 18.3715 14.5611C18.3443 14.5166 18.3125 14.469 18.2762 14.4186" stroke="#1E1E1E" stroke-width="0.9" stroke-linecap="round" stroke-linejoin="round"/>
</svg>
