<svg width="32" height="32" viewBox="0 0 32 32" fill="none" xmlns="http://www.w3.org/2000/svg">
<path d="M11.678 30.1715C11.678 30.1715 11.7331 27.0368 11.8637 24.2286C11.9943 21.4204 12.0594 19.3306 12.1902 17.5674C12.321 15.8041 12.4372 14.8164 12.661 13.0613C12.8225 11.7956 13.0631 10.1504 13.1275 9.82747C13.1275 9.82747 12.9698 9.17511 12.9135 8.27323C12.5677 10.7951 12.1317 13.4755 12.1106 13.6351C12.0827 13.8462 12.0996 13.9701 11.8085 13.9811C11.5174 13.9921 10.7261 13.8932 10.501 13.8273C10.2758 13.7614 10.3199 13.6388 10.3199 13.4428C10.3199 13.2469 10.4479 10.7526 10.6039 9.47735C10.7599 8.20205 10.834 7.14995 10.9795 6.20414C11.125 5.25834 11.2218 4.57936 11.6707 3.90592C12.1197 3.23249 12.7328 2.83806 13.0304 2.63728C13.328 2.43651 13.9327 2.09944 14.1006 2.15317C14.5712 1.93285 15.2949 1.84302 16.1009 1.84302C16.9089 1.84302 17.6422 1.93327 18.1127 2.15474C18.282 2.09881 18.7079 2.30465 19.0156 2.51348C19.3234 2.72232 20.2246 3.3598 20.5983 3.96432C20.972 4.56883 21.0923 5.25834 21.2378 6.20414C21.3833 7.14995 21.4575 8.20205 21.6134 9.47735C21.7694 10.7526 21.8974 13.2469 21.8974 13.4428C21.8974 13.6388 21.9416 13.7614 21.7164 13.8273C21.4912 13.8932 20.6999 13.9921 20.4088 13.9811C20.1177 13.9701 20.1347 13.8462 20.1067 13.6351C20.0856 13.4755 19.6497 10.7957 19.304 8.27408C19.2476 9.17552 19.09 9.82747 19.09 9.82747C19.1544 10.1504 19.3948 11.7956 19.5561 13.0613C19.7799 14.8164 19.8962 15.8041 20.027 17.5674C20.1577 19.3306 20.2229 21.4204 20.3535 24.2286C20.4841 27.0368 20.5392 30.1715 20.5392 30.1715C19.178 30.3674 18.1984 30.498 16.1086 30.498C14.0188 30.498 13.0392 30.3674 11.678 30.1715Z" fill="white"/>
<path d="M13.1274 5.75386C12.8895 6.6125 12.8669 7.52804 12.9135 8.27323M19.0901 5.75386C19.3281 6.61283 19.3507 7.52874 19.304 8.27408M18.1127 2.15474C17.6422 1.93327 16.9089 1.84302 16.1009 1.84302C15.2949 1.84302 14.5712 1.93285 14.1006 2.15317M18.1127 2.15474C18.282 2.09881 18.7079 2.30465 19.0156 2.51348C19.3234 2.72232 20.2246 3.3598 20.5983 3.96432C20.972 4.56883 21.0923 5.25834 21.2378 6.20415C21.3833 7.14995 21.4575 8.20205 21.6134 9.47735C21.7694 10.7526 21.8974 13.2469 21.8974 13.4428C21.8974 13.6388 21.9416 13.7614 21.7164 13.8273C21.4912 13.8932 20.6999 13.9921 20.4088 13.9811C20.1177 13.9701 20.1347 13.8462 20.1067 13.6351C20.0856 13.4755 19.6497 10.7957 19.304 8.27408M18.1127 2.15474C17.9819 2.19797 17.861 2.29442 17.7502 2.45703C17.4961 2.83 16.9579 3.33063 16.1087 3.33063C15.2595 3.33063 14.7221 2.83 14.4679 2.45703C14.3558 2.29242 14.2333 2.19562 14.1006 2.15317M14.1006 2.15317C13.9327 2.09944 13.328 2.43651 13.0304 2.63728C12.7328 2.83806 12.1197 3.23249 11.6707 3.90592C11.2218 4.57936 11.125 5.25834 10.9795 6.20415C10.834 7.14995 10.7599 8.20205 10.6039 9.47735C10.4479 10.7526 10.3199 13.2469 10.3199 13.4428C10.3199 13.6388 10.2758 13.7614 10.501 13.8273C10.7261 13.8932 11.5174 13.9921 11.8085 13.9811C12.0996 13.9701 12.0827 13.8462 12.1106 13.6351C12.1317 13.4755 12.5677 10.7951 12.9135 8.27323M19.304 8.27408C19.2476 9.17552 19.09 9.82747 19.09 9.82747C19.1544 10.1504 19.3948 11.7956 19.5561 13.0613C19.7799 14.8164 19.8962 15.8041 20.027 17.5674C20.1577 19.3306 20.2229 21.4204 20.3535 24.2286C20.4841 27.0368 20.5392 30.1715 20.5392 30.1715C19.178 30.3674 18.1984 30.498 16.1086 30.498C14.0188 30.498 13.0392 30.3674 11.678 30.1715C11.678 30.1715 11.7331 27.0368 11.8637 24.2286C11.9943 21.4204 12.0594 19.3306 12.1902 17.5674C12.321 15.8041 12.4372 14.8164 12.661 13.0613C12.8225 11.7956 13.0631 10.1504 13.1275 9.82747C13.1275 9.82747 12.9698 9.17511 12.9135 8.27323" stroke="#1E1E1E" stroke-width="0.8" stroke-linecap="round" stroke-linejoin="round"/>
</svg>
