<svg width="32" height="33" viewBox="0 0 32 33" fill="none" xmlns="http://www.w3.org/2000/svg">
<path d="M9.46384 28.2362C9.46384 27.9482 8.88784 27.0842 8.88784 26.6042C8.88784 26.5829 8.90794 26.4837 8.94366 26.3242C9.05711 25.8177 9.32816 24.7027 9.61346 23.5437C9.69643 23.2066 9.78061 22.8658 9.86246 22.5351L9.87614 22.4799C9.01223 22.4282 7.91328 22.353 7.74217 22.296C7.74217 22.296 7.64261 21.8691 7.45401 20.9519C7.2654 20.0348 7.1151 19.3324 6.9231 18.5644C6.7311 17.7964 7.93409 14.0274 7.93409 14.0274L9.20601 8.2513C9.20601 8.2513 10.4434 6.72971 11.3383 6.08337C11.7876 5.75884 12.6217 5.3701 13.3408 5.06343C13.4544 4.46359 13.6661 3.19189 13.6661 3.19189L15.9995 3.19183L18.0036 3.19189L18.3653 4.94114C19.1369 5.2612 20.1471 5.7139 20.6587 6.08337C21.5536 6.72971 22.7909 8.2513 22.7909 8.2513L24.0629 14.0274C24.0629 14.0274 25.2658 17.7964 25.0738 18.5644C24.8818 19.3324 24.7315 20.0348 24.5429 20.9519C24.3543 21.8691 24.2548 22.296 24.2548 22.296C24.0838 22.3529 22.9865 22.4281 22.1229 22.4798L22.1501 22.5894C22.2382 22.9453 22.3287 23.3121 22.4173 23.6726C22.7047 24.8411 22.9721 25.9431 23.0709 26.3941C23.0969 26.5126 23.1112 26.5862 23.1112 26.6042C23.1112 27.0842 22.5352 27.9482 22.5352 28.2362C22.5352 28.5242 22.8232 28.9082 22.7272 29.1962C22.6312 29.4842 22.3429 29.9642 22.3429 29.9642C22.2428 30.0052 21.362 30.0626 20.943 29.9642C20.7931 30.0234 19.5813 30.3079 19.5813 30.3079L19.0276 30.0235C18.9477 30.0872 18.3081 30.3079 18.3081 30.3079C18.1482 30.256 17.5487 30.0235 17.5487 30.0235C17.3399 30.0872 16.8159 30.3079 16.8159 30.3079L15.9995 30.0168L15.1832 30.3079C15.1832 30.3079 14.6592 30.0872 14.4504 30.0235C14.4504 30.0235 13.8508 30.256 13.691 30.3079C13.691 30.3079 13.0514 30.0872 12.9715 30.0235L12.4178 30.3079C12.4178 30.3079 11.206 30.0234 11.0561 29.9642C10.6371 30.0626 9.75628 30.0052 9.65623 29.9642C9.65623 29.9642 9.36784 29.4842 9.27184 29.1962C9.17584 28.9082 9.46384 28.5242 9.46384 28.2362Z" fill="white"/>
<path d="M11.309 19.9105C11.3962 19.9516 11.6619 20.009 12.027 19.9105C12.1576 19.9698 13.2136 20.2543 13.2136 20.2543L13.6961 19.9699C13.7658 20.0336 14.3231 20.2543 14.3231 20.2543C14.4625 20.2023 14.985 19.9699 14.985 19.9699C15.1669 20.0336 15.6236 20.2543 15.6236 20.2543L15.9995 19.9699M15.9995 19.9699L16.3755 20.2543C16.3755 20.2543 16.8322 20.0336 17.0141 19.9699C17.0141 19.9699 17.5366 20.2023 17.676 20.2543C17.676 20.2543 18.2333 20.0336 18.3029 19.9699L18.7855 20.2543C18.7855 20.2543 19.8415 19.9698 19.9721 19.9105C20.3372 20.009 20.6029 19.9516 20.69 19.9105M15.9995 19.9699V30.0168M15.9995 19.9699V3.19189M11.2093 8.20016C11.2093 8.20016 11.4977 8.87215 11.4977 9.06415C11.4977 9.16892 10.1096 17.6007 10.1096 17.6007L10.5096 19.9344C10.5096 19.9344 10.3508 20.5687 10.1326 21.4463C10.0534 21.765 9.9663 22.1158 9.87614 22.4799M15.9995 30.0168L15.1832 30.3079C15.1832 30.3079 14.6592 30.0872 14.4504 30.0235C14.4504 30.0235 13.8508 30.256 13.691 30.3079C13.691 30.3079 13.0514 30.0872 12.9715 30.0235L12.4178 30.3079C12.4178 30.3079 11.206 30.0234 11.0561 29.9642C10.6371 30.0626 9.75628 30.0052 9.65623 29.9642C9.65623 29.9642 9.36784 29.4842 9.27184 29.1962C9.17584 28.9082 9.46384 28.5242 9.46384 28.2362C9.46384 27.9482 8.88784 27.0842 8.88784 26.6042C8.88784 26.5829 8.90794 26.4837 8.94366 26.3242C9.05711 25.8177 9.32816 24.7028 9.61346 23.5437C9.69643 23.2066 9.78061 22.8658 9.86246 22.5352C9.86703 22.5167 9.87159 22.4983 9.87614 22.4799M15.9995 30.0168L16.8159 30.3079C16.8159 30.3079 17.3399 30.0872 17.5487 30.0235C17.5487 30.0235 18.1482 30.256 18.3081 30.3079C18.3081 30.3079 18.9477 30.0872 19.0276 30.0235L19.5813 30.3079C19.5813 30.3079 20.7931 30.0234 20.943 29.9642C21.362 30.0626 22.2428 30.0052 22.3429 29.9642C22.3429 29.9642 22.6312 29.4842 22.7272 29.1962C22.8232 28.9082 22.5352 28.5242 22.5352 28.2362C22.5352 27.9482 23.1112 27.0842 23.1112 26.6042C23.1112 26.5862 23.0969 26.5126 23.0709 26.3941C22.9721 25.9431 22.7047 24.8411 22.4173 23.6726C22.3287 23.3121 22.2382 22.9454 22.1501 22.5894C22.141 22.5527 22.1319 22.5162 22.1229 22.4798M14.648 5.72295C14.5666 6.45452 14.0638 8.73341 14.0638 10.0573M20.7898 8.20016C20.7898 8.20016 20.5014 8.87215 20.5014 9.06415C20.5014 9.16892 21.8895 17.6007 21.8895 17.6007L21.4895 19.9344C21.4895 19.9344 21.6482 20.5686 21.8664 21.446C21.9456 21.7648 22.0327 22.1156 22.1229 22.4798M17.351 5.72295C17.4325 6.45452 17.8493 8.73341 17.8493 10.0573M15.9995 3.19189L13.6661 3.19196C13.6661 3.19196 13.4544 4.46365 13.3408 5.06349C12.6217 5.37015 11.7876 5.7589 11.3383 6.08343C10.4434 6.72976 9.20601 8.25135 9.20601 8.25135L7.93409 14.0274C7.93409 14.0274 6.7311 17.7964 6.9231 18.5644C7.1151 19.3324 7.2654 20.0348 7.45401 20.9519C7.64261 21.8691 7.74217 22.296 7.74217 22.296C7.91328 22.353 9.01223 22.4282 9.87614 22.4799M15.9995 3.19189L18.0036 3.19196L18.3653 4.9412C19.1369 5.26125 20.1471 5.71396 20.6587 6.08343C21.5536 6.72976 22.7909 8.25135 22.7909 8.25135L24.0629 14.0274C24.0629 14.0274 25.2658 17.7964 25.0738 18.5644C24.8818 19.3324 24.7315 20.0348 24.5429 20.9519C24.3543 21.8691 24.2548 22.296 24.2548 22.296C24.0838 22.353 22.9865 22.4281 22.1229 22.4798" stroke="#1E1E1E" stroke-width="0.8" stroke-linecap="round"/>
</svg>
