<svg width="32" height="32" viewBox="0 0 32 32" fill="none" xmlns="http://www.w3.org/2000/svg">
<path d="M9.70937 28.32C9.70937 28.32 10.0742 23.632 10.5074 20.5522C10.9406 17.4725 11.4523 15.2709 11.6168 14.4464C11.6168 14.4464 11.3849 13.4874 11.302 12.1616C10.7938 15.8688 10.1529 19.809 10.1218 20.0436C10.0808 20.354 10.1057 20.5361 9.67777 20.5522C9.24984 20.5684 8.0867 20.423 7.75566 20.3261C7.42462 20.2293 7.48952 20.049 7.48952 19.761C7.48952 19.473 7.67772 15.8064 7.907 13.9317C8.13628 12.057 8.24522 10.5104 8.45912 9.12009C8.67302 7.72975 9.11368 6.10274 9.62219 5.53731C9.91951 5.2067 10.5202 4.44549 11.4644 3.75949C12.4086 3.07349 12.8003 3.08617 13.0472 3.16516C13.739 2.84128 14.8027 2.70923 15.9876 2.70923C17.1753 2.70923 18.2533 2.84191 18.945 3.16746C19.1938 3.08524 19.7991 3.25256 20.5967 3.87115C21.3944 4.48973 22.0352 5.06935 22.6021 5.92879C23.1689 6.78823 23.325 7.72975 23.5389 9.12009C23.7528 10.5104 23.8617 12.057 24.091 13.9317C24.3203 15.8064 24.5085 19.473 24.5085 19.761C24.5085 20.049 24.5734 20.2293 24.2423 20.3261C23.9113 20.423 22.7482 20.5684 22.3202 20.5522C21.8923 20.5361 21.9172 20.354 21.8762 20.0436C21.8451 19.809 21.2044 15.8697 20.6961 12.1629C20.6132 13.488 20.3815 14.4464 20.3815 14.4464C20.546 15.2709 21.0891 18.3697 21.4604 20.5522C21.8317 22.7347 22.2884 28.32 22.2884 28.32C22.2884 28.32 20.8949 29.088 15.9989 29.088C11.1029 29.088 9.70937 28.32 9.70937 28.32Z" fill="white"/>
<path d="M11.6165 8.45817C11.2668 9.72037 11.2336 11.0662 11.302 12.1616M20.3817 8.45817C20.7316 9.72085 20.7647 11.0672 20.6961 12.1629M18.945 3.16746C18.2533 2.84191 17.1753 2.70923 15.9876 2.70923C14.8027 2.70923 13.739 2.84128 13.0472 3.16516M18.945 3.16746C19.1938 3.08524 19.7991 3.25256 20.5967 3.87115C21.3944 4.48973 22.0352 5.06935 22.6021 5.92879C23.1689 6.78823 23.325 7.72975 23.5389 9.12009C23.7528 10.5104 23.8617 12.057 24.091 13.9317C24.3203 15.8064 24.5085 19.473 24.5085 19.761C24.5085 20.049 24.5734 20.2293 24.2423 20.3261C23.9113 20.423 22.7482 20.5684 22.3202 20.5522C21.8923 20.5361 21.9172 20.354 21.8762 20.0436C21.8451 19.809 21.2044 15.8697 20.6961 12.1629M18.945 3.16746C18.7526 3.23102 18.575 3.37279 18.4121 3.61182C18.0386 4.16009 17.2474 4.89602 15.9991 4.89602C14.7507 4.89602 13.9607 4.16009 13.5871 3.61182C13.4223 3.36986 13.2422 3.22755 13.0472 3.16516M13.0472 3.16516C12.8003 3.08617 12.4086 3.07349 11.4644 3.75949C10.5202 4.44549 9.91951 5.2067 9.62219 5.53731C9.11368 6.10274 8.67302 7.72975 8.45912 9.12009C8.24522 10.5104 8.13628 12.057 7.907 13.9317C7.67772 15.8064 7.48952 19.473 7.48952 19.761C7.48952 20.049 7.42462 20.2293 7.75566 20.3261C8.0867 20.423 9.24984 20.5684 9.67777 20.5522C10.1057 20.5361 10.0808 20.354 10.1218 20.0436C10.1529 19.809 10.7938 15.8688 11.302 12.1616M20.6961 12.1629C20.6132 13.488 20.3815 14.4464 20.3815 14.4464C20.546 15.2709 21.0891 18.3697 21.4604 20.5522C21.8317 22.7347 22.2884 28.32 22.2884 28.32C22.2884 28.32 20.8949 29.088 15.9989 29.088C11.1029 29.088 9.70937 28.32 9.70937 28.32C9.70937 28.32 10.0742 23.632 10.5074 20.5522C10.9406 17.4725 11.4523 15.2709 11.6168 14.4464C11.6168 14.4464 11.3849 13.4874 11.302 12.1616" stroke="#1E1E1E" stroke-width="0.8" stroke-linecap="round" stroke-linejoin="round"/>
</svg>
