<svg width="32" height="32" viewBox="0 0 32 32" fill="none" xmlns="http://www.w3.org/2000/svg">
<path d="M17.1511 25.1401C18.2416 25.4582 21.5937 25.6046 21.9365 25.5754C22.2204 25.5512 22.5043 25.3904 22.6406 25.0763C22.6284 25.1995 22.6214 25.3192 22.6214 25.4319C22.6214 25.8891 22.7357 26.1176 23.1929 26.2319C23.65 26.3462 25.8214 26.2319 26.1643 26.1176C26.5071 26.0033 26.7357 25.7748 26.7357 25.4319C26.7357 25.0891 26.674 24.7032 26.5071 24.4033C26.6312 23.9483 26.7357 22.4604 26.6214 21.089C26.5071 19.7176 26.3823 18.4621 26.1642 17.5462C25.5928 15.1462 25.8214 14.1176 25.1357 11.4891C24.7818 10.1328 23.7642 8.28906 22.2785 6.91763C22.0134 6.67288 21.7482 6.45724 21.4837 6.26683L21.4944 6.24824C21.6091 6.04688 21.6546 5.81459 21.4074 5.61009C21.1602 5.40559 20.9374 5.26238 20.5439 5.09074C20.1593 4.92297 19.91 5.14663 19.6147 5.44839C18.7944 5.13135 17.6112 5 16.3218 5C15.0379 5 13.8734 5.13025 13.0536 5.4444C12.76 5.14466 12.5112 4.92371 12.1283 5.09074C11.7348 5.26238 11.512 5.40559 11.2648 5.61009C11.0176 5.81458 11.0631 6.04688 11.1778 6.24824L11.188 6.26599C10.9231 6.4566 10.6576 6.67252 10.392 6.91763C8.90631 8.28906 7.8887 10.1328 7.53488 11.4891C6.84917 14.1176 7.07774 15.1462 6.50631 17.5462C6.28824 18.4621 6.16346 19.7176 6.04917 21.089C5.93488 22.4604 6.03938 23.9483 6.16346 24.4033C5.99657 24.7032 6.04916 25.0891 6.04916 25.4319C6.04916 25.7748 6.1634 26.0033 6.50625 26.1176C6.84911 26.2319 9.02053 26.3462 9.47768 26.2319C9.93483 26.1176 10.0491 25.8891 10.0491 25.4319C10.0491 25.4109 10.0489 25.3897 10.0484 25.3683C10.2231 25.489 10.4603 25.553 10.7354 25.5879C11.1734 25.6435 14.4864 25.5761 17.1511 25.1401Z" fill="white"/>
<path d="M10.5069 12.0605C10.4875 13.9966 10.3151 16.7943 10.0496 18.0033C9.59247 20.0852 9.86286 21.6216 10.0496 22.9176C9.87144 23.4522 9.70685 24.1748 9.73165 24.7462C9.74451 25.0425 9.86026 25.2383 10.0484 25.3683M22.1651 12.0605C22.1845 13.9966 22.1282 16.7943 22.3937 18.0033C22.8508 20.0852 22.5804 21.6216 22.3936 22.9176C22.5799 23.4763 22.7879 24.4033 22.7051 24.8605C22.6908 24.9391 22.6689 25.011 22.6406 25.0763M17.1511 25.1401C18.2416 25.4582 21.5937 25.6046 21.9365 25.5754C22.2204 25.5512 22.5043 25.3904 22.6406 25.0763M17.1511 25.1401C14.4864 25.5761 11.1734 25.6435 10.7354 25.5879C10.4603 25.553 10.2231 25.489 10.0484 25.3683M17.1511 25.1401C17.9631 25.0072 18.7148 24.8402 19.3067 24.6319M16.3363 22.3462C17.6825 22.2605 20.6792 21.5462 20.6792 20.7462C20.6792 20.4033 19.9935 20.2891 19.3077 20.4033M16.3361 8.91764C16.3361 8.91764 15.7719 9.86273 15.3112 10.2188C14.8504 10.5748 14.344 10.2164 13.5933 9.31764C13.0237 8.63577 12.5779 8.16075 11.9853 7.3542C11.8 7.10191 11.3942 6.62031 11.188 6.26599M16.3361 8.91764C16.3361 8.91764 15.5286 8.07945 14.7818 7.30509C14.2515 6.7553 13.2365 5.63198 13.078 5.46939C13.0698 5.461 13.0617 5.45267 13.0536 5.4444M16.3361 8.91764C16.3361 8.91764 16.9003 9.86273 17.361 10.2188C17.8218 10.5748 18.3282 10.2164 19.0789 9.31764C19.6485 8.63577 20.0943 8.16075 20.6869 7.35421C20.8721 7.10212 21.2774 6.62107 21.4837 6.26683M16.3361 8.91764C16.3361 8.91764 17.1436 8.07945 17.8904 7.30509C18.4207 6.7553 19.4357 5.63198 19.5942 5.46939C19.6011 5.46235 19.6079 5.45535 19.6147 5.44839M13.0536 5.4444C13.8734 5.13025 15.0379 5 16.3218 5C17.6112 5 18.7944 5.13135 19.6147 5.44839M13.0536 5.4444C12.76 5.14466 12.5112 4.92371 12.1283 5.09074C11.7348 5.26238 11.512 5.40559 11.2648 5.61009C11.0176 5.81458 11.0631 6.04688 11.1778 6.24824C11.1811 6.25412 11.1845 6.26003 11.188 6.26599M19.6147 5.44839C19.91 5.14663 20.1593 4.92297 20.5439 5.09074C20.9374 5.26238 21.1602 5.40559 21.4074 5.61009C21.6546 5.81459 21.6091 6.04688 21.4944 6.24824C21.4909 6.2544 21.4873 6.26059 21.4837 6.26683M10.0484 25.3683C10.0489 25.3897 10.0491 25.4109 10.0491 25.4319C10.0491 25.8891 9.93483 26.1176 9.47768 26.2319C9.02053 26.3462 6.84911 26.2319 6.50625 26.1176C6.1634 26.0034 6.04916 25.7748 6.04916 25.4319C6.04916 25.0891 5.99657 24.7032 6.16346 24.4033C6.03938 23.9483 5.93488 22.4604 6.04917 21.089C6.16346 19.7176 6.28824 18.4621 6.50631 17.5462C7.07774 15.1462 6.84917 14.1176 7.53488 11.4891C7.8887 10.1328 8.90631 8.28906 10.392 6.91763C10.6576 6.67252 10.9231 6.4566 11.188 6.26599M22.6406 25.0763C22.6284 25.1995 22.6214 25.3192 22.6214 25.4319C22.6214 25.8891 22.7357 26.1176 23.1929 26.2319C23.65 26.3462 25.8214 26.2319 26.1643 26.1176C26.5071 26.0034 26.7357 25.7748 26.7357 25.4319C26.7357 25.0891 26.674 24.7032 26.5071 24.4033C26.6312 23.9483 26.7357 22.4604 26.6214 21.089C26.5071 19.7176 26.3823 18.4621 26.1642 17.5462C25.5928 15.1462 25.8214 14.1176 25.1357 11.4891C24.7818 10.1328 23.7642 8.28906 22.2785 6.91763C22.0134 6.67288 21.7482 6.45724 21.4837 6.26683" stroke="#1E1E1E" stroke-width="0.8" stroke-linecap="round"/>
</svg>
