<svg width="32" height="32" viewBox="0 0 32 32" fill="none" xmlns="http://www.w3.org/2000/svg">
<path d="M28.7267 19.2405C28.8316 20.8085 28.7267 22.605 28.7267 22.605C28.7267 22.605 29.017 25.2995 28.254 25.2995H23.4142C23.4142 25.2995 20.6039 24.5081 18.9264 24.7318C17.2488 24.9555 15.4531 25.1857 14.0062 25.3097C9.09618 25.7302 6.43564 25.51 5.30892 25.4428C4.18221 25.3755 3.21875 25.284 3.21875 24.5277C3.21875 23.9228 3.31697 23.5827 3.31697 23.5827C3.31697 23.5827 2.79181 20.3041 4.9694 19.2405C7.147 18.1769 8.71852 19.22 10.8322 18.6826C12.9458 18.1451 15.4087 16.9362 16.685 14.6065C17.9613 12.2768 18.2461 8.4701 18.2673 7.81256C18.2885 7.15502 18.3561 6.5747 19.4556 6.45477C19.7712 6.42034 26.0341 6.45471 27.0526 6.45471C28.0712 6.45471 28.6218 6.98076 28.6218 8.05522C28.6218 9.12967 28.6063 15.3372 28.6218 16.284C28.6537 17.8294 28.6218 17.6725 28.7267 19.2405Z" fill="white" stroke="#1E1E1E" stroke-width="0.576" stroke-linecap="round" stroke-linejoin="round"/>
<path d="M28.7267 22.605C28.7267 22.605 28.8316 20.8085 28.7267 19.2405C28.6218 17.6725 28.6537 17.8294 28.6218 16.284M28.7267 22.605C28.7267 22.605 29.017 25.2995 28.254 25.2995H23.4142C23.4142 25.2995 20.6039 24.5081 18.9264 24.7318C17.2488 24.9555 15.4531 25.1857 14.0062 25.3097C9.09618 25.7302 6.43564 25.51 5.30892 25.4428C4.18221 25.3755 3.21875 25.284 3.21875 24.5277C3.21875 23.9228 3.31697 23.5827 3.31697 23.5827M28.7267 22.605C28.7267 22.605 24.9832 22.4723 22.974 22.605C22.7642 22.6189 22.5487 22.6338 22.3257 22.6501M3.31697 23.5827C3.31697 23.5827 2.79181 20.3041 4.9694 19.2405C7.147 18.1769 8.71852 19.22 10.8322 18.6826C12.9458 18.1451 15.4087 16.9362 16.685 14.6065C17.9613 12.2768 18.2461 8.4701 18.2673 7.81256C18.2885 7.15502 18.3561 6.5747 19.4556 6.45477C19.7712 6.42034 26.0341 6.45471 27.0526 6.45471C28.0712 6.45471 28.6218 6.98076 28.6218 8.05521C28.6218 9.12967 28.6063 15.3372 28.6218 16.284M3.31697 23.5827C3.31697 23.5827 9.59171 24.1975 14.0062 23.5827C17.9598 23.032 20.4132 22.79 22.3257 22.6501M22.3257 22.6501C22.3257 20.0889 25.1882 16.284 28.6218 16.284" stroke="#1E1E1E" stroke-width="0.9" stroke-linecap="round" stroke-linejoin="round"/>
</svg>
