<svg width="32" height="32" viewBox="0 0 32 32" fill="none" xmlns="http://www.w3.org/2000/svg">
<path d="M8.01411 21.8649C4.58192 21.7757 1.66707 21.1102 1.39571 20.3103C1.25437 19.8936 1.41468 19.3709 1.50848 19.0152C1.60228 18.6594 2.04531 18.3855 2.60708 18.5695C3.64064 18.908 5.61664 19.3886 8.50442 19.3886C9.09148 19.3886 9.90662 19.3778 10.8796 19.359C10.7813 18.1309 8.30612 15.5938 8.01411 15.3818C7.72211 15.1698 7.66959 14.5937 8.18126 14.3463C9.07334 13.915 10.7362 13.0913 11.4913 12.8962C12.2464 12.7011 12.6128 13.0248 12.8278 13.2213C14.3671 14.6279 15.623 16.9394 16.3849 19.2216C17.6059 19.1869 18.8687 19.149 20.1144 19.1105C20.0437 18.2264 19.1953 15.6293 17.8862 13.9548C17.2247 13.1088 16.431 12.4188 15.8336 11.9586C15.3091 11.5546 15.2822 11.1596 15.8336 10.9082C16.2667 10.7106 17.0295 10.3965 17.7113 10.1821C17.8973 10.1236 18.3296 10.0045 18.8855 10.5229C19.4414 11.0413 20.7206 12.1997 21.5246 13.6758C22.5731 13.0201 26.7721 11.4168 27.465 11.1777C28.1578 10.9387 28.5256 11.0684 28.7255 11.4713C28.9253 11.8743 29.3768 12.6171 29.4193 12.801C29.4849 13.0853 29.4722 13.4133 28.7255 13.6733C27.9787 13.9333 25.2933 14.9562 22.648 16.1545C23.1693 17.6077 23.4128 19.0059 23.4128 19.0059C25.8424 18.927 27.9992 18.8557 29.2569 18.8099C30.5146 18.7641 30.6567 19.4125 30.6567 19.9611C30.6567 20.5097 30.8502 21.2426 29.4451 21.2426C28.0399 21.2426 11.4463 21.954 8.01411 21.8649Z" fill="white"/>
<path d="M20.1144 19.1105C20.0437 18.2264 19.1953 15.6293 17.8862 13.9548C17.2247 13.1088 16.431 12.4188 15.8336 11.9586C15.3091 11.5546 15.2822 11.1596 15.8336 10.9082C16.2667 10.7106 17.0295 10.3965 17.7113 10.1821C17.8973 10.1236 18.3296 10.0045 18.8855 10.5229C19.4414 11.0413 20.7206 12.1997 21.5246 13.6758M20.1144 19.1105C18.8687 19.149 17.6059 19.1869 16.3849 19.2216M20.1144 19.1105C21.2424 19.0756 22.3564 19.0401 23.4128 19.0059M10.8796 19.359C9.90662 19.3778 9.09148 19.3886 8.50442 19.3886C5.61664 19.3886 3.64064 18.908 2.60708 18.5695C2.04531 18.3855 1.60228 18.6594 1.50848 19.0152C1.41468 19.3709 1.25437 19.8936 1.39571 20.3103C1.66707 21.1102 4.58192 21.7757 8.01411 21.8649C11.4463 21.954 28.0399 21.2426 29.4451 21.2426C30.8502 21.2426 30.6567 20.5097 30.6567 19.9611C30.6567 19.4125 30.5146 18.7641 29.2569 18.8099C27.9992 18.8557 25.8424 18.927 23.4128 19.0059M10.8796 19.359C12.414 19.3293 14.341 19.2798 16.3849 19.2216M10.8796 19.359C10.7813 18.1309 8.30612 15.5938 8.01411 15.3818C7.72211 15.1698 7.66959 14.5937 8.18126 14.3463C9.07334 13.915 10.7362 13.0913 11.4913 12.8962C12.2464 12.7011 12.6128 13.0248 12.8278 13.2213C14.3671 14.6279 15.623 16.9394 16.3849 19.2216M23.4128 19.0059C23.4128 19.0059 23.1693 17.6077 22.648 16.1545M22.648 16.1545C22.4469 15.594 21.8102 14.2562 21.5246 13.6758M22.648 16.1545C25.2933 14.9562 27.9787 13.9333 28.7255 13.6733C29.4722 13.4133 29.4849 13.0853 29.4193 12.801C29.3768 12.6171 28.9253 11.8743 28.7255 11.4713C28.5256 11.0684 28.1578 10.9387 27.465 11.1777C26.7721 11.4168 22.5731 13.0201 21.5246 13.6758" stroke="#1E1E1E" stroke-width="0.9" stroke-linecap="round" stroke-linejoin="round"/>
</svg>
