<svg width="32" height="33" viewBox="0 0 32 33" fill="none" xmlns="http://www.w3.org/2000/svg">
<path d="M12.4629 27.1865C11.1986 27.0025 10.4842 26.7024 10.1723 26.6134C10.1576 26.6092 10.1431 26.6049 10.1287 26.6005C10.1278 26.612 10.1269 26.6214 10.1259 26.6289C10.077 26.9984 10.0558 27.2582 9.5986 27.3724C9.14146 27.4867 6.28432 27.3724 5.94147 27.2582C5.59861 27.1439 5.48438 26.9153 5.48438 26.5725C5.48438 26.4501 5.55396 25.3813 5.55396 25.0938C5.55396 24.8985 5.74228 24.6878 5.98363 24.5795C6.05484 23.0343 6.21214 20.7539 6.36542 19.5007C6.63837 17.2689 6.76806 15.4277 7.0227 13.7726C7.27734 12.1174 7.80193 10.1805 8.4073 9.50737C8.59157 9.30247 9.04167 8.91025 9.6314 8.45472C9.86431 8.27481 10.119 8.08503 10.3877 7.89301C10.2864 7.60961 10.3377 7.31987 10.6279 7.02966C10.9707 6.6868 11.3153 6.44298 11.8238 6.18242C12.3323 5.92186 12.4475 6.205 12.7518 6.51724C12.7614 6.52707 12.7741 6.54075 12.7895 6.5579C13.6048 6.26331 14.7529 6.14057 15.9993 6.14057C17.2512 6.14057 18.3896 6.2644 19.2055 6.5618C19.2226 6.5428 19.2365 6.52778 19.2468 6.51721C19.5512 6.20497 19.6663 5.92183 20.1748 6.18239C20.6833 6.44295 21.0279 6.68677 21.3707 7.02963C21.6612 7.3201 21.7123 7.6101 21.6107 7.89374C21.8798 8.08611 22.1349 8.27622 22.3681 8.45639C22.9568 8.91121 23.406 9.30272 23.59 9.50737C24.1954 10.1805 24.72 12.1174 24.9746 13.7726C25.2293 15.4277 25.359 17.2689 25.6319 19.5007C25.7852 20.7539 25.9425 23.0343 26.0137 24.5795C26.255 24.6878 26.4434 24.8985 26.4434 25.0938C26.4434 25.3813 26.5129 26.4501 26.5129 26.5725C26.5129 26.9153 26.3987 27.1439 26.0559 27.2582C25.713 27.3724 22.8559 27.4867 22.3987 27.3724C21.9416 27.2582 21.9203 26.9984 21.8714 26.6289C21.8705 26.6216 21.8696 26.6125 21.8687 26.6014C21.8553 26.6055 21.8418 26.6095 21.8282 26.6134C21.5163 26.7024 20.8019 27.0025 19.5376 27.1865C18.57 27.3273 17.2658 27.3717 15.9997 27.3717C14.7336 27.3717 13.4305 27.3273 12.4629 27.1865Z" fill="white"/>
<path d="M12.7032 23.7027C11.6132 23.5446 10.6618 23.2682 10.2974 23.1832C10.0415 23.1235 9.83099 23.1395 9.66445 23.1999C9.33913 23.318 9.18168 23.6054 9.18168 23.8286C9.17108 24.1662 9.16314 24.4324 9.15752 24.6441C8.22502 24.5996 7.12259 24.5495 6.34631 24.5068C6.22308 24.5 6.09746 24.5284 5.98363 24.5795C5.74228 24.6878 5.55396 24.8985 5.55396 25.0938C5.55396 25.3813 5.48438 26.4501 5.48438 26.5725C5.48438 26.9153 5.59861 27.1439 5.94147 27.2582C6.28432 27.3724 9.14146 27.4867 9.5986 27.3724C10.0558 27.2582 10.077 26.9984 10.1259 26.6289C10.1269 26.6214 10.1278 26.612 10.1287 26.6005C10.1431 26.6049 10.1576 26.6092 10.1723 26.6134C10.4842 26.7024 11.1986 27.0025 12.4629 27.1865C13.4305 27.3273 14.7336 27.3717 15.9997 27.3717C17.2658 27.3717 18.57 27.3273 19.5376 27.1865C20.8019 27.0025 21.5163 26.7024 21.8282 26.6134C21.8418 26.6095 21.8553 26.6055 21.8687 26.6014C21.8696 26.6125 21.8705 26.6216 21.8714 26.6289C21.9203 26.9984 21.9416 27.2582 22.3987 27.3724C22.8559 27.4867 25.713 27.3724 26.0559 27.2582C26.3987 27.1439 26.5129 26.9153 26.5129 26.5725C26.5129 26.4501 26.4434 25.3813 26.4434 25.0938C26.4434 24.8985 26.255 24.6878 26.0137 24.5795C25.8999 24.5284 25.7742 24.5 25.651 24.5068C24.8756 24.5494 23.7748 24.5995 22.843 24.6439C22.8373 24.4323 22.8294 24.1661 22.8188 23.8286C22.8188 23.6054 22.6614 23.318 22.336 23.1999C22.1695 23.1395 21.959 23.1235 21.7031 23.1832C21.3387 23.2682 20.3873 23.5446 19.2972 23.7027C18.1315 23.8718 16.8115 23.9211 16.0108 23.9216C15.2112 23.9216 13.8744 23.8726 12.7032 23.7027Z" fill="white"/>
<path d="M14.5172 12.2736C14.0565 12.6296 13.4698 12.2837 12.7757 11.4528C12.0816 10.6219 11.6861 9.98415 11.342 9.47932C10.9978 8.9745 10.6391 8.37846 10.4574 8.04659C10.4295 7.99563 10.4061 7.94442 10.3877 7.89301C10.2864 7.60961 10.3377 7.31987 10.6279 7.02966C10.9707 6.6868 11.3153 6.44298 11.8238 6.18242C12.3323 5.92186 12.4475 6.205 12.7518 6.51724C12.7614 6.52707 12.7741 6.54075 12.7895 6.5579C13.03 6.82444 13.9468 7.92909 14.445 8.44565C15.1919 9.22 15.9993 10.0582 15.9993 10.0582C15.9993 10.0582 14.978 11.9176 14.5172 12.2736Z" fill="white"/>
<path d="M17.4814 12.2736C17.9421 12.6296 18.5289 12.2836 19.2229 11.4527C19.917 10.6218 20.3125 9.98412 20.6567 9.4793C21.0009 8.97447 21.3595 8.37843 21.5412 8.04656C21.569 7.99585 21.5923 7.9449 21.6107 7.89374C21.7123 7.6101 21.6612 7.3201 21.3707 7.02963C21.0279 6.68677 20.6833 6.44295 20.1748 6.18239C19.6663 5.92183 19.5512 6.20497 19.2468 6.51721C19.2365 6.52778 19.2226 6.5428 19.2055 6.5618C18.9597 6.83509 18.0494 7.93156 17.5536 8.44562C16.8068 9.21997 15.9993 10.0582 15.9993 10.0582C15.9993 10.0582 17.0207 11.9175 17.4814 12.2736Z" fill="white"/>
<path d="M9.66445 23.1999C9.76814 20.3749 9.80395 19.0103 10.4004 13.2893C10.4655 12.1791 10.3956 9.72245 9.6314 8.45472M9.66445 23.1999C9.33913 23.318 9.18168 23.6054 9.18168 23.8286C9.17108 24.1662 9.16314 24.4324 9.15752 24.6441M9.66445 23.1999C9.83098 23.1395 10.0415 23.1235 10.2974 23.1832C10.6618 23.2682 11.6132 23.5446 12.7032 23.7027C13.8744 23.8726 15.2112 23.9216 16.0108 23.9216M16.0108 23.9216C16.0111 24.9941 15.9997 26.0829 15.9997 27.3717M16.0108 23.9216C16.0086 16.1548 15.9993 19.3916 15.9993 10.0582M16.0108 23.9216C16.8115 23.9211 18.1315 23.8718 19.2972 23.7027C20.3873 23.5446 21.3387 23.2682 21.7031 23.1832C21.959 23.1235 22.1695 23.1395 22.336 23.1999M15.9997 27.3717C14.7336 27.3717 13.4305 27.3273 12.4629 27.1865C11.1986 27.0025 10.4842 26.7024 10.1723 26.6134C10.1576 26.6092 10.1431 26.6049 10.1287 26.6005M15.9997 27.3717C17.2658 27.3717 18.57 27.3273 19.5376 27.1865C20.8019 27.0025 21.5163 26.7024 21.8282 26.6134C21.8418 26.6095 21.8553 26.6055 21.8687 26.6014M22.336 23.1999C22.2324 20.3749 22.1965 19.0103 21.6001 13.2893C21.5351 12.1796 21.6049 9.72461 22.3681 8.45639M22.336 23.1999C22.6614 23.318 22.8188 23.6054 22.8188 23.8286C22.8294 24.1661 22.8373 24.4323 22.843 24.6439M15.9993 10.0582C15.9993 10.0582 14.978 11.9176 14.5172 12.2736C14.0565 12.6296 13.4698 12.2837 12.7757 11.4528C12.0816 10.6219 11.6861 9.98415 11.342 9.47932C10.9978 8.9745 10.6391 8.37846 10.4574 8.04659C10.4295 7.99563 10.4061 7.94442 10.3877 7.89301M15.9993 10.0582C15.9993 10.0582 15.1919 9.22 14.445 8.44565C13.9468 7.92909 13.03 6.82444 12.7895 6.5579M15.9993 10.0582C15.9993 10.0582 17.0207 11.9175 17.4814 12.2736C17.9421 12.6296 18.5289 12.2836 19.2229 11.4527C19.917 10.6218 20.3125 9.98412 20.6567 9.47929C21.0009 8.97447 21.3595 8.37843 21.5412 8.04656C21.569 7.99585 21.5923 7.9449 21.6107 7.89374M15.9993 10.0582C15.9993 10.0582 16.8068 9.21997 17.5536 8.44562C18.0494 7.93156 18.9597 6.83509 19.2055 6.5618M5.98363 24.5795C6.05484 23.0343 6.21214 20.7539 6.36542 19.5007C6.63837 17.2689 6.76806 15.4277 7.0227 13.7726C7.27734 12.1174 7.80193 10.1805 8.4073 9.50737C8.59157 9.30247 9.04167 8.91025 9.6314 8.45472M5.98363 24.5795C5.74228 24.6878 5.55396 24.8985 5.55396 25.0938C5.55396 25.3813 5.48438 26.4501 5.48438 26.5725C5.48438 26.9153 5.59861 27.1439 5.94147 27.2582C6.28432 27.3725 9.14146 27.4867 9.5986 27.3724C10.0558 27.2582 10.077 26.9984 10.1259 26.6289C10.1269 26.6214 10.1278 26.612 10.1287 26.6005M5.98363 24.5795C6.09746 24.5284 6.22308 24.5 6.34631 24.5068C7.12259 24.5495 8.22502 24.5996 9.15752 24.6441M26.0137 24.5795C25.9425 23.0343 25.7852 20.7539 25.6319 19.5007C25.359 17.2689 25.2293 15.4277 24.9746 13.7726C24.72 12.1174 24.1954 10.1805 23.59 9.50737C23.406 9.30272 22.9568 8.91121 22.3681 8.45639M26.0137 24.5795C26.255 24.6878 26.4434 24.8985 26.4434 25.0938C26.4434 25.3813 26.5129 26.4501 26.5129 26.5725C26.5129 26.9153 26.3987 27.1439 26.0559 27.2582C25.713 27.3725 22.8559 27.4867 22.3987 27.3724C21.9416 27.2582 21.9203 26.9984 21.8714 26.6289C21.8705 26.6216 21.8696 26.6125 21.8687 26.6014M26.0137 24.5795C25.8999 24.5284 25.7742 24.5 25.651 24.5068C24.8756 24.5494 23.7748 24.5995 22.843 24.6439M12.7895 6.5579C13.6048 6.26331 14.7529 6.14057 15.9993 6.14057C17.2512 6.14057 18.3896 6.2644 19.2055 6.5618M12.7895 6.5579C12.7741 6.54075 12.7614 6.52707 12.7518 6.51724C12.4475 6.205 12.3323 5.92186 11.8238 6.18242C11.3153 6.44298 10.9707 6.6868 10.6279 7.02966C10.3377 7.31987 10.2864 7.60961 10.3877 7.89301M19.2055 6.5618C19.2226 6.5428 19.2365 6.52778 19.2468 6.51721C19.5512 6.20497 19.6663 5.92183 20.1748 6.18239C20.6833 6.44295 21.0279 6.68677 21.3707 7.02963C21.6612 7.3201 21.7123 7.6101 21.6107 7.89374M10.1287 26.6005C9.60249 26.4379 9.2557 26.101 9.17198 25.6079L9.17053 25.5994C9.14706 25.4615 9.13733 25.4044 9.15752 24.6441M21.8687 26.6014C22.3966 26.4392 22.7446 26.102 22.8285 25.6079L22.83 25.5994C22.8534 25.4615 22.8632 25.4044 22.843 24.6439M9.6314 8.45472C9.86431 8.27481 10.119 8.08503 10.3877 7.89301M22.3681 8.45639C22.1349 8.27622 21.8798 8.08611 21.6107 7.89374" stroke="#1E1E1E" stroke-width="0.8" stroke-linecap="round"/>
</svg>
