<svg width="32" height="32" viewBox="0 0 32 32" fill="none" xmlns="http://www.w3.org/2000/svg">
<path d="M16.0577 26.3462C13.3335 26.3462 11.0088 25.7451 10.4582 25.5879C9.90753 25.4308 9.94332 25.3329 9.91497 24.811C9.90155 24.5639 10.0226 23.0758 10.1538 20.9296C10.0454 22.1991 9.95298 23.3141 9.88579 24.1185C9.82323 24.8674 9.78258 25.3472 9.77137 25.4319C9.72247 25.8014 9.65709 26.1176 9.19994 26.2319C8.7428 26.3462 6.79995 26.2319 6.45709 26.1176C6.11423 26.0033 6 25.7747 6 25.4319C6 25.3232 6.01518 24.7967 6.04462 24.0571C6.108 22.4646 6.2375 19.8842 6.4239 18.3601C6.69685 16.1284 6.82654 14.2872 7.08118 12.632C7.33582 10.9769 7.86041 9.03994 8.46578 8.3668C8.65077 8.1611 9.1037 7.76659 9.69686 7.30877C10.078 7.01455 10.5171 6.69419 10.9802 6.38098C10.9507 6.33519 10.9234 6.29073 10.8992 6.24824C10.7845 6.04688 10.739 5.81458 10.9862 5.61009C11.2335 5.40559 11.4562 5.26238 11.8497 5.09074C12.2327 4.92371 12.4814 5.14466 12.775 5.4444C13.5948 5.13025 14.7736 5 16.0575 5C17.3469 5 18.5158 5.13135 19.3361 5.44839C19.6314 5.14663 19.8807 4.92297 20.2653 5.09074C20.6589 5.26238 20.8816 5.40559 21.1288 5.61009C21.376 5.81459 21.3306 6.04688 21.2158 6.24824C21.1916 6.29085 21.1642 6.33543 21.1346 6.38134C21.5978 6.69466 22.037 7.01513 22.4182 7.3094C23.011 7.76696 23.4636 8.16119 23.6485 8.3668C24.2539 9.03994 24.7785 10.9769 25.0331 12.632C25.2877 14.2872 25.4174 16.1284 25.6904 18.3601C25.8768 19.8842 26.0063 22.4646 26.0697 24.0571C26.0991 24.7967 26.1143 25.3232 26.1143 25.4319C26.1143 25.7747 26.0001 26.0033 25.6572 26.1176C25.3143 26.2319 23.3715 26.3462 22.9143 26.2319C22.4572 26.1176 22.3918 25.8014 22.3429 25.4319C22.3317 25.3472 22.2911 24.8674 22.2285 24.1185C22.1696 23.4137 22.0914 22.6205 22 21.5439C22.1154 23.3568 22.2126 24.5882 22.2005 24.811C22.1722 25.3329 22.2079 25.4308 21.6573 25.5879C21.1067 25.7451 18.782 26.3462 16.0577 26.3462Z" fill="white"/>
<path d="M16.0577 26.3462C13.3335 26.3462 11.0088 25.7451 10.4582 25.5879C9.90753 25.4308 9.94332 25.3329 9.91497 24.811C9.90155 24.5639 10.0226 23.0758 10.1538 20.9296M16.0577 26.3462C18.782 26.3462 21.1067 25.7451 21.6573 25.5879C22.2079 25.4308 22.1722 25.3329 22.2005 24.811C22.2126 24.5882 22.1154 23.3568 22 21.5439M16.0577 26.3462L16.0575 8.91764M16.0575 8.91764C16.0575 8.91764 15.4933 9.86273 15.0326 10.2188C14.5719 10.5748 14.0655 10.2164 13.3147 9.31764C12.7451 8.63577 12.2994 8.16075 11.7068 7.3542C11.5408 7.12831 11.1981 6.71858 10.9802 6.38098M16.0575 8.91764C16.0575 8.91764 15.2501 8.07945 14.5032 7.30509C13.9729 6.7553 12.9579 5.63198 12.7994 5.46939C12.7913 5.461 12.7831 5.45267 12.775 5.4444M16.0575 8.91764C16.0575 8.91764 16.6217 9.86273 17.0825 10.2188C17.5432 10.5748 18.0496 10.2164 18.8003 9.31764C19.3699 8.63577 19.8157 8.16075 20.4083 7.35421C20.5742 7.1284 20.9167 6.71888 21.1346 6.38134M16.0575 8.91764C16.0575 8.91764 16.865 8.07945 17.6119 7.30509C18.1421 6.7553 19.1571 5.63198 19.3156 5.46939C19.3225 5.46235 19.3293 5.45535 19.3361 5.44839M6.04462 24.0571C6.88601 24.1718 8.79614 24.3427 9.88579 24.1185M6.04462 24.0571C6.01518 24.7967 6 25.3232 6 25.4319C6 25.7747 6.11423 26.0033 6.45709 26.1176C6.79995 26.2319 8.7428 26.3462 9.19994 26.2319C9.65709 26.1176 9.72247 25.8014 9.77137 25.4319C9.78258 25.3472 9.82323 24.8674 9.88579 24.1185M6.04462 24.0571C6.108 22.4646 6.2375 19.8842 6.4239 18.3601C6.69685 16.1283 6.82654 14.2872 7.08118 12.632C7.33582 10.9769 7.86041 9.03994 8.46578 8.3668C8.65077 8.1611 9.1037 7.76659 9.69686 7.30877M9.88579 24.1185C9.95298 23.3141 10.0454 22.1991 10.1538 20.9296M26.0697 24.0571C25.2283 24.1718 23.3181 24.3427 22.2285 24.1185M26.0697 24.0571C26.0991 24.7967 26.1143 25.3232 26.1143 25.4319C26.1143 25.7747 26.0001 26.0033 25.6572 26.1176C25.3143 26.2319 23.3715 26.3462 22.9143 26.2319C22.4572 26.1176 22.3918 25.8014 22.3429 25.4319C22.3317 25.3472 22.2911 24.8674 22.2285 24.1185M26.0697 24.0571C26.0063 22.4646 25.8768 19.8842 25.6904 18.3601C25.4174 16.1283 25.2877 14.2872 25.0331 12.632C24.7785 10.9769 24.2539 9.03994 23.6485 8.3668C23.4636 8.16119 23.011 7.76696 22.4182 7.3094M22.2285 24.1185C22.1696 23.4137 22.0914 22.6205 22 21.5439M19.3361 5.44839C18.5158 5.13135 17.3469 5 16.0575 5C14.7736 5 13.5948 5.13025 12.775 5.4444M19.3361 5.44839C19.6314 5.14663 19.8807 4.92297 20.2653 5.09074C20.6589 5.26238 20.8816 5.40559 21.1288 5.61009C21.376 5.81459 21.3306 6.04688 21.2158 6.24824C21.1916 6.29085 21.1642 6.33543 21.1346 6.38134M12.775 5.4444C12.4814 5.14466 12.2327 4.92371 11.8497 5.09074C11.4562 5.26238 11.2335 5.40559 10.9862 5.61009C10.739 5.81458 10.7845 6.04688 10.8992 6.24824C10.9234 6.29073 10.9507 6.33519 10.9802 6.38098M22.4182 7.3094C21.6617 8.58101 21.5925 11.0242 21.6573 12.1304C21.6573 15.6274 21.8451 19.1098 22 21.5439M22.4182 7.3094C22.037 7.01513 21.5978 6.69466 21.1346 6.38134M10.9802 6.38098C10.5171 6.69419 10.078 7.01455 9.69686 7.30877M9.69686 7.30877C10.4537 8.5802 10.523 11.024 10.4581 12.1304C10.4581 15.3429 10.2997 18.5431 10.1538 20.9296" stroke="#1E1E1E" stroke-width="0.8" stroke-linecap="round"/>
<path d="M17.4298 22.5747C17.4298 22.4485 17.3275 22.3462 17.2012 22.3462C17.075 22.3462 16.9727 22.4485 16.9727 22.5747C16.9727 22.701 17.075 22.8033 17.2012 22.8033C17.3275 22.8033 17.4298 22.701 17.4298 22.5747Z" fill="#1E1E1E"/>
<path d="M17.4298 18.9176C17.4298 18.7914 17.3275 18.689 17.2012 18.689C17.075 18.689 16.9727 18.7914 16.9727 18.9176C16.9727 19.0438 17.075 19.1462 17.2012 19.1462C17.3275 19.1462 17.4298 19.0438 17.4298 18.9176Z" fill="#1E1E1E"/>
<path d="M17.4298 16.1747C17.4298 16.0485 17.3275 15.9462 17.2012 15.9462C17.075 15.9462 16.9727 16.0485 16.9727 16.1747C16.9727 16.301 17.075 16.4033 17.2012 16.4033C17.3275 16.4033 17.4298 16.301 17.4298 16.1747Z" fill="#1E1E1E"/>
<path d="M17.4298 13.4319C17.4298 13.3056 17.3275 13.2033 17.2012 13.2033C17.075 13.2033 16.9727 13.3056 16.9727 13.4319C16.9727 13.5581 17.075 13.6604 17.2012 13.6604C17.3275 13.6604 17.4298 13.5581 17.4298 13.4319Z" fill="#1E1E1E"/>
<path d="M17.4298 10.689C17.4298 10.5628 17.3275 10.4604 17.2012 10.4604C17.075 10.4604 16.9727 10.5628 16.9727 10.689C16.9727 10.8153 17.075 10.9176 17.2012 10.9176C17.3275 10.9176 17.4298 10.8153 17.4298 10.689Z" fill="#1E1E1E"/>
</svg>
