<svg width="32" height="32" viewBox="0 0 32 32" fill="none" xmlns="http://www.w3.org/2000/svg">
<path d="M7.80277 26.6933C7.8044 26.1389 7.76878 14.3718 7.76959 13.1839C7.7704 11.9959 7.75972 10.5881 7.7704 10.0415C7.80005 8.5241 7.97093 7.1445 8.07665 6.29754C8.16179 5.61546 8.26739 4.95817 8.46722 4.69185C8.66705 4.42554 9.04705 4.42554 9.51698 4.42554H11.3883H19.3137H20.6097H22.481C22.9509 4.42554 23.3309 4.42554 23.5308 4.69185C23.7306 4.95817 23.8365 5.61546 23.9216 6.29754C24.0274 7.1445 24.1979 8.5241 24.2276 10.0415C24.2383 10.5881 24.2276 12.6224 24.2276 14.008C24.2276 15.3936 24.1975 26.1389 24.1991 26.6933C24.2008 27.2478 23.0441 27.4023 22.6415 27.4552C22.2388 27.5082 20.8353 27.5821 20.006 27.5737C19.1768 27.5652 17.8696 27.4657 17.4967 27.4002C16.7378 27.2669 16.5224 27.0727 16.5224 26.7746C16.426 21.5343 16.2835 17.0728 16.0009 15.8015C15.7184 17.0728 15.5759 21.5343 15.4795 26.7746C15.4795 27.0727 15.2641 27.2669 14.5052 27.4002C14.1323 27.4657 12.8251 27.5652 11.9959 27.5737C11.1666 27.5821 9.76312 27.5082 9.36044 27.4552C8.95775 27.4023 7.80114 27.2478 7.80277 26.6933Z" fill="white"/>
<path d="M16.0009 15.8015C15.7184 17.0728 15.5759 21.5343 15.4795 26.7746C15.4795 27.0727 15.2641 27.2669 14.5052 27.4002C14.1323 27.4657 12.8251 27.5652 11.9959 27.5737C11.1666 27.5821 9.76312 27.5082 9.36044 27.4552C8.95775 27.4023 7.80114 27.2478 7.80277 26.6933C7.8044 26.1389 7.76878 14.3718 7.76959 13.1839C7.7704 11.9959 7.75972 10.5881 7.7704 10.0415M16.0009 15.8015C16.2835 17.0728 16.426 21.5343 16.5224 26.7746C16.5224 27.0727 16.7378 27.2669 17.4967 27.4002C17.8696 27.4657 19.1768 27.5652 20.006 27.5737C20.8353 27.5821 22.2388 27.5082 22.6415 27.4552C23.0441 27.4023 24.2008 27.2478 24.1991 26.6933C24.1975 26.1389 24.2276 15.3936 24.2276 14.008C24.2276 12.6224 24.2383 10.5881 24.2276 10.0415M16.0009 15.8015L15.9964 10.1304M20.6097 4.42554H22.481C22.9509 4.42554 23.3309 4.42554 23.5308 4.69185C23.7306 4.95817 23.8365 5.61546 23.9216 6.29754C24.0274 7.1445 24.1979 8.5241 24.2276 10.0415M20.6097 4.42554H19.3137L11.3883 4.42554M20.6097 4.42554V6.29754C20.6661 7.42713 21.1836 8.56782 21.9057 9.17754C22.6564 9.81145 23.5076 10.0415 24.2276 10.0415M11.3883 4.42554L9.51698 4.42554C9.04705 4.42554 8.66705 4.42554 8.46722 4.69185C8.26739 4.95817 8.16179 5.61546 8.07665 6.29754C7.97093 7.1445 7.80005 8.5241 7.7704 10.0415M11.3883 4.42554V6.29754C11.3319 7.42713 10.8144 8.56782 10.0923 9.17754C9.34161 9.81145 8.4904 10.0415 7.7704 10.0415M15.9964 10.1304C15.8673 10.1277 15.5472 10.0302 15.5243 9.72603C15.501 9.4176 15.4782 5.82277 15.4788 4.42554M15.9964 10.1304C16.1262 10.1277 16.463 10.0302 16.4859 9.72602C16.5092 9.41759 16.532 5.82277 16.5313 4.42554" stroke="#1E1E1E" stroke-width="0.7" stroke-linecap="round" stroke-linejoin="round"/>
</svg>
