<svg width="32" height="32" viewBox="0 0 32 32" fill="none" xmlns="http://www.w3.org/2000/svg">
<path d="M6.57031 22.264C6.57031 22.264 6.93464 16.36 7.3656 13.48C7.79656 10.6 8.40298 8.58398 8.40298 8.58398H23.6066C23.6066 8.58398 24.213 10.6 24.6439 13.48C25.0749 16.36 25.4392 22.264 25.4392 22.264C25.4392 22.264 23.349 23.416 16.005 23.416C8.66097 23.416 6.57031 22.264 6.57031 22.264Z" fill="white"/>
<path d="M6.57031 22.264C6.57031 22.264 6.93464 16.36 7.3656 13.48C7.79656 10.6 8.40298 8.58398 8.40298 8.58398H23.6066C23.6066 8.58398 24.213 10.6 24.6439 13.48C25.0749 16.36 25.4392 22.264 25.4392 22.264C25.4392 22.264 23.349 23.416 16.005 23.416C8.66097 23.416 6.57031 22.264 6.57031 22.264Z" stroke="#1E1E1E" stroke-width="0.8" stroke-linecap="round" stroke-linejoin="round"/>
</svg>
