<svg width="32" height="32" viewBox="0 0 32 32" fill="none" xmlns="http://www.w3.org/2000/svg">
<path d="M10.135 2.50678C10.2415 1.65345 10.3486 1.12012 11.2019 1.12012H12.5869H13.5469H15.999H16.0014H18.4535H19.4135H20.7985C21.6519 1.12012 21.7589 1.65345 21.8654 2.50678C21.927 2.99996 21.9876 4.18929 22.0285 5.27959C22.0584 6.0758 22.0778 6.8192 22.0794 7.20012C22.0831 8.10264 22.0795 17.0858 22.0794 18.5068C22.0792 19.9278 22.2181 29.2605 22.2023 29.848L22.2022 29.8513C22.1864 30.4372 22.1745 30.8801 21.4624 30.8801H17.3563C16.7457 30.8801 16.775 30.3849 16.7688 29.7746C16.7625 29.1648 16.4263 11.5003 16.0002 9.55229C15.5741 11.5003 15.2379 29.1648 15.2316 29.7746C15.2254 30.3849 15.2548 30.8801 14.6441 30.8801H10.538C9.82596 30.8801 9.81402 30.4372 9.79822 29.8513L9.79813 29.848C9.78229 29.2605 9.92118 19.9278 9.92104 18.5068C9.9209 17.0858 9.91731 8.10264 9.92104 7.20012C9.92261 6.8192 9.94199 6.0758 9.97188 5.27959C10.0128 4.18929 10.0734 2.99996 10.135 2.50678Z" fill="white"/>
<path d="M16.0014 1.12012H13.5469M16.0014 9.54678C15.5748 11.4668 15.2379 29.1643 15.2316 29.7746C15.2254 30.3849 15.2548 30.8801 14.6441 30.8801H10.538C9.82596 30.8801 9.81402 30.4372 9.79822 29.8513L9.79813 29.848C9.78229 29.2605 9.92118 19.9278 9.92104 18.5068C9.9209 17.0858 9.91731 8.10264 9.92104 7.20012C9.92261 6.8192 9.94199 6.0758 9.97188 5.27959M12.5846 30.2899C12.5846 25.6094 12.7128 9.22744 12.8796 5.46892M10.1335 2.50678H12.5869M12.5869 1.12012H13.5469M12.5869 1.12012H11.2019C10.3486 1.12012 10.2415 1.65345 10.135 2.50678C10.0734 2.99996 10.0128 4.18929 9.97188 5.27959M12.5869 1.12012V2.50678M12.5869 2.50678C12.545 3.34352 12.1617 4.18847 11.6269 4.64012C11.0887 5.09459 10.4931 5.26885 9.97188 5.27959M12.5869 2.50678H13.5469M13.5469 2.50678V1.12012M13.5469 2.50678H15.6202M15.999 1.12012H18.4535M21.8654 2.50678C21.7589 1.65345 21.6519 1.12012 20.7985 1.12012H19.4135M21.8654 2.50678H19.4135M21.8654 2.50678C21.927 2.99996 21.9876 4.18929 22.0285 5.27959M15.999 9.54678C16.4257 11.4668 16.7625 29.1643 16.7688 29.7746C16.775 30.3849 16.7457 30.8801 17.3563 30.8801H21.4624C22.1745 30.8801 22.1864 30.4372 22.2022 29.8513L22.2023 29.848C22.2181 29.2605 22.0792 19.9278 22.0794 18.5068C22.0795 17.0858 22.0831 8.10264 22.0794 7.20012C22.0778 6.8192 22.0584 6.0758 22.0285 5.27959M19.4158 30.2899C19.4158 25.6094 19.2876 9.22744 19.1208 5.46892M19.4135 1.12012V2.50678M19.4135 1.12012H18.4535M19.4135 2.50678C19.4554 3.34352 19.8387 4.18847 20.3735 4.64012C20.9118 5.09459 21.5073 5.26885 22.0285 5.27959M19.4135 2.50678H18.4535M18.4535 2.50678H16.3998M18.4535 2.50678V1.12012M15.6202 2.50678C15.6197 3.54177 15.6366 4.81794 15.6539 5.04641C15.6709 5.27172 15.904 5.34392 15.9996 5.34587C16.0958 5.34392 16.3492 5.27171 16.3662 5.0464C16.3834 4.81794 16.4003 3.54177 16.3998 2.50678M15.6202 2.50678H16.3998" stroke="#1E1E1E" stroke-width="0.7" stroke-linecap="round" stroke-linejoin="round"/>
</svg>
