<svg width="32" height="32" viewBox="0 0 32 32" fill="none" xmlns="http://www.w3.org/2000/svg">
<path d="M10.3205 23.9177C10.1337 22.6218 9.8633 21.0853 10.3204 19.0035C10.4888 18.2367 10.6197 16.8308 10.6979 15.411C11.844 13.705 11.7341 11.5164 11.6928 11.1177C11.6425 10.6322 11.313 9.16792 10.8722 8.54822C10.4314 7.92852 10.7117 7.71437 11.1214 7.34632C11.2663 7.21624 11.6712 6.94212 11.9808 6.72978C12.2905 6.51744 12.5615 6.38769 12.7248 6.34422C12.9518 6.2838 13.1181 6.33913 13.2666 6.46705C14.089 6.13649 15.2782 6 16.5926 6C17.9121 6 19.1198 6.13758 19.9425 6.47099C20.0923 6.34015 20.2599 6.28309 20.4895 6.34438C20.6527 6.38794 20.879 6.49657 21.2506 6.72316C21.6222 6.94974 21.9419 7.21177 22.0917 7.34632C22.5014 7.71437 22.7817 7.92852 22.3409 8.54822C21.9001 9.16792 21.5706 10.6322 21.5203 11.1177C21.4799 11.5081 21.3736 13.6151 22.4455 15.3044C22.4553 16.76 22.4919 18.2175 22.6645 19.0035C23.1216 21.0853 22.8513 22.6218 22.6645 23.9177C22.8507 24.4764 23.0588 25.4035 22.9759 25.8606C22.8931 26.3177 22.5502 26.5463 22.2074 26.5755C21.8645 26.6047 18.4408 26.4699 17.3503 26.1518C14.6982 26.5774 11.4403 26.6432 11.0063 26.588C10.4348 26.5155 10.0273 26.3177 10.0025 25.7463C9.97768 25.1749 10.1423 24.4523 10.3205 23.9177Z" fill="white"/>
<path d="M17.3503 26.1518C18.4408 26.4699 21.8645 26.6047 22.2074 26.5755C22.5502 26.5463 22.8931 26.3177 22.9759 25.8606C23.0588 25.4035 22.8507 24.4764 22.6645 23.9177C22.8513 22.6218 23.1216 21.0853 22.6645 19.0035C22.4919 18.2175 22.4553 16.76 22.4455 15.3044C21.3736 13.6151 21.4799 11.5081 21.5203 11.1177C21.5706 10.6322 21.9001 9.16792 22.3409 8.54822C22.7817 7.92852 22.5014 7.71437 22.0917 7.34632C21.9419 7.21177 21.6222 6.94974 21.2506 6.72316C20.879 6.49657 20.6527 6.38794 20.4895 6.34438C20.2599 6.28309 20.0923 6.34015 19.9425 6.47099M17.3503 26.1518C14.6982 26.5774 11.4403 26.6432 11.0063 26.588C10.4348 26.5155 10.0273 26.3177 10.0025 25.7463C9.97768 25.1749 10.1423 24.4523 10.3205 23.9177C10.1337 22.6218 9.8633 21.0853 10.3204 19.0035C10.4888 18.2367 10.6197 16.8308 10.6979 15.411C11.844 13.705 11.7341 11.5164 11.6928 11.1177C11.6425 10.6322 11.313 9.16792 10.8722 8.54822C10.4314 7.92852 10.7117 7.71437 11.1214 7.34632C11.2663 7.21624 11.6712 6.94212 11.9808 6.72978C12.2905 6.51744 12.5615 6.38769 12.7248 6.34422C12.9518 6.2838 13.1181 6.33913 13.2666 6.46705M17.3503 26.1518C18.1896 26.0171 18.9683 25.8464 19.5776 25.632M16.6071 23.3463C17.9533 23.2606 20.95 22.5463 20.95 21.7463C20.95 21.4035 20.2643 21.2892 19.5786 21.4035M19.9425 6.47099C19.1198 6.13758 17.9121 6 16.5926 6C15.2782 6 14.089 6.13649 13.2666 6.46705M19.9425 6.47099C19.7854 6.6082 19.6479 6.82657 19.4789 7.07463C19.0341 7.72732 18.0923 8.60344 16.6062 8.60344C15.1201 8.60344 14.1795 7.72732 13.7348 7.07463C13.5642 6.82418 13.4256 6.60401 13.2666 6.46705" stroke="#1E1E1E" stroke-width="0.8" stroke-linecap="round"/>
</svg>
