<svg width="32" height="32" viewBox="0 0 32 32" fill="none" xmlns="http://www.w3.org/2000/svg">
<path d="M7.90796 21.5192C4.47577 21.4301 2.12044 21.0789 1.65722 20.053C1.39659 19.4759 1.47996 18.499 1.50683 18.01C1.53369 17.521 1.96666 17.3243 2.58269 17.521C3.63691 17.8575 5.58488 18.3136 8.39827 18.3136C8.98533 18.3136 9.80047 18.3028 10.7734 18.284C10.687 17.2032 8.82388 15.104 8.29806 14.6798C7.77224 14.2556 7.64057 13.2676 8.84329 12.8246C9.82893 12.4616 13.1943 11.1825 14.5186 10.7326C15.8429 10.2828 16.4176 10.4077 17.3125 11.1825C18.2073 11.9572 20.2596 14.3037 20.333 18.0255C23.9478 17.913 27.375 17.7964 29.1671 17.7344C29.9843 17.7061 30.5019 17.8009 30.5195 18.7368C30.5371 19.6727 30.6564 20.8969 29.266 20.8969C27.8756 20.8969 11.3402 21.6083 7.90796 21.5192Z" fill="white"/>
<path d="M10.7734 18.284C9.80047 18.3028 8.98533 18.3136 8.39827 18.3136C5.58488 18.3136 3.63691 17.8575 2.58269 17.521C1.96666 17.3243 1.53369 17.521 1.50683 18.01C1.47996 18.499 1.39659 19.4759 1.65722 20.053C2.12044 21.0789 4.47577 21.4301 7.90796 21.5192C11.3402 21.6083 27.8756 20.8969 29.266 20.8969C30.6564 20.8969 30.5371 19.6727 30.5195 18.7368C30.5019 17.8009 29.9843 17.7061 29.1671 17.7344C27.375 17.7964 23.9478 17.913 20.333 18.0255M10.7734 18.284C13.3043 18.2351 16.9031 18.1321 20.333 18.0255M10.7734 18.284C10.687 17.2032 8.82388 15.104 8.29806 14.6798C7.77224 14.2556 7.64057 13.2676 8.84329 12.8246C9.82893 12.4616 13.1943 11.1825 14.5186 10.7326C15.8429 10.2828 16.4176 10.4077 17.3125 11.1825C18.2073 11.9572 20.2596 14.3037 20.333 18.0255" stroke="#1E1E1E" stroke-width="0.9" stroke-linecap="round" stroke-linejoin="round"/>
</svg>
