<svg width="32" height="32" viewBox="0 0 32 32" fill="none" xmlns="http://www.w3.org/2000/svg">
<path d="M29.8976 13.7269C30.0937 14.6631 30.8077 17.4766 30.2267 20.3737C30.2267 20.3737 30.5493 21.8204 29.7015 21.8204C28.8536 21.8204 5.24695 21.8317 3.41575 21.8317C2.37779 21.8317 1.88456 21.8031 1.88456 20.9629C1.88456 20.6419 1.92343 20.4763 1.9578 20.3737C1.2386 18.3951 1.47276 17.346 2.65832 16.2956C3.84716 15.2424 5.22334 15.3814 7.68335 14.5666C8.80755 14.1943 10.6998 13.5868 12.4516 12.8066C14.5332 11.8795 16.4479 10.7739 17.0792 10.4438C18.2419 9.83599 20.4229 10.2366 20.1582 11.6148C20.057 12.1418 19.7701 12.6475 19.4099 13.1082C19.728 13.3334 20.8776 13.8401 21.7258 14.1115C21.8855 13.9761 22.036 13.845 22.1655 13.7269C22.9404 13.0204 23.1468 12.8013 24.6914 12.9555C26.236 13.1096 26.9774 13.0172 28.0277 12.5847C29.078 12.1523 29.7015 12.7907 29.8976 13.7269Z" fill="white"/>
<path d="M1.9578 20.3737H30.2267M1.9578 20.3737C1.2386 18.3951 1.47276 17.346 2.65832 16.2956C3.84715 15.2424 5.22334 15.3814 7.68335 14.5666C8.80755 14.1943 10.6998 13.5868 12.4516 12.8066C14.5332 11.8795 16.4479 10.7739 17.0792 10.4438C18.2419 9.83599 20.4229 10.2366 20.1582 11.6148C20.057 12.1418 19.7701 12.6475 19.4099 13.1082M1.9578 20.3737C1.92343 20.4763 1.88456 20.6419 1.88456 20.9629C1.88456 21.8031 2.37779 21.8317 3.41575 21.8317C5.24695 21.8317 28.8536 21.8204 29.7015 21.8204C30.5493 21.8204 30.2267 20.3737 30.2267 20.3737M30.2267 20.3737C30.8077 17.4766 30.0937 14.6631 29.8976 13.7269C29.7015 12.7907 29.078 12.1523 28.0277 12.5847C26.9774 13.0172 26.236 13.1096 24.6914 12.9555C23.1468 12.8013 22.9404 13.0204 22.1655 13.7269C22.036 13.845 21.8855 13.9761 21.7258 14.1115M19.4099 13.1082C19.728 13.3334 20.8776 13.8401 21.7258 14.1115M19.4099 13.1082C18.8283 13.8522 18.0557 14.479 17.5655 14.8892C16.7718 15.5533 18.3344 16.5354 19.2257 16.0286C19.3135 15.9787 19.8659 15.6058 20.1691 15.3692C20.4081 15.1827 21.1307 14.6164 21.7258 14.1115" stroke="#1E1E1E" stroke-width="0.9" stroke-linecap="round"/>
</svg>
