<svg width="32" height="32" viewBox="0 0 32 32" fill="none" xmlns="http://www.w3.org/2000/svg">
<path d="M2.83339 16.8205C1.33247 18.2671 1.34805 20.0649 2.06864 22.0476C2.03426 22.1502 1.99706 22.3159 1.99706 22.6369C1.99706 23.4771 2.49029 23.5057 3.52825 23.5057C5.35945 23.5057 28.9661 23.4944 29.814 23.4944C30.6618 23.4944 30.3392 22.0476 30.3392 22.0476C30.3866 19.574 30.2341 17.3843 30.004 15.5728C29.6319 12.6428 29.057 10.7024 28.7978 10.1507C28.3783 9.25798 27.5248 8.86412 26.0885 9.18778C24.6523 9.51144 22.7775 9.35455 22.5279 9.18778C22.2783 9.02102 20.8511 8.34671 19.6552 8.5234C18.4593 8.70009 17.9454 9.67672 16.4976 10.7907C16.3939 10.8705 16.2571 10.9592 16.0924 11.0551C15.504 11.3979 14.5597 11.8331 13.5005 12.2837C12.5658 12.6813 11.5417 13.0908 10.5936 13.4595C8.71803 14.1888 7.13978 14.7582 7.13978 14.7582C5.45326 15.2363 3.84635 15.8443 2.83339 16.8205Z" fill="white"/>
<path d="M30.3392 22.0476C30.3392 22.0476 30.6618 23.4944 29.814 23.4944C28.9661 23.4944 5.35945 23.5057 3.52825 23.5057C2.49029 23.5057 1.99706 23.4771 1.99706 22.6369C1.99706 22.3159 2.03426 22.1502 2.06864 22.0476M30.3392 22.0476C30.3866 19.574 30.2341 17.3843 30.004 15.5728M30.3392 22.0476H23.4816M2.06864 22.0476C1.34805 20.0649 1.33247 18.2671 2.83339 16.8205C3.84635 15.8443 5.45326 15.2363 7.13978 14.7582M2.06864 22.0476H10.6392M23.4816 22.0476C23.7241 19.3961 26.4792 15.5728 30.004 15.5728M23.4816 22.0476H10.6392M30.004 15.5728C29.6319 12.6428 29.057 10.7024 28.7978 10.1507C28.3783 9.25798 27.5248 8.86412 26.0885 9.18778C24.6523 9.51144 22.7775 9.35455 22.5279 9.18778M7.13978 14.7582C7.75357 15.073 8.45007 15.5435 9.05952 16.3477M7.13978 14.7582C7.13978 14.7582 8.71803 14.1888 10.5936 13.4595M10.6392 22.0476C10.5753 19.2012 9.90024 17.457 9.05952 16.3477M22.5279 9.18778C22.2783 9.02102 20.8511 8.34671 19.6552 8.5234C18.4593 8.70009 17.9454 9.67672 16.4976 10.7907C16.3939 10.8705 16.2571 10.9592 16.0924 11.0551M22.5279 9.18778C21.2218 10.4762 19.8064 11.5136 18.3217 12.4237M10.5936 13.4595C11.6445 13.8154 12.6327 15.0536 12.6327 15.0536M10.5936 13.4595C11.5417 13.0908 12.5658 12.6813 13.5005 12.2837M12.6327 15.0536C10.6469 15.8232 9.05952 16.3477 9.05952 16.3477M12.6327 15.0536C13.5669 14.6917 14.5892 14.2755 15.5759 13.8342M13.5005 12.2837C14.6022 12.6396 15.5759 13.8342 15.5759 13.8342M13.5005 12.2837C14.5597 11.8331 15.504 11.3979 16.0924 11.0551M15.5759 13.8342C15.9872 13.6502 16.3922 13.462 16.7822 13.2714C17.3023 13.0172 17.816 12.7337 18.3217 12.4237M16.0924 11.0551C17.1241 11.3103 18.3217 12.4237 18.3217 12.4237" stroke="#1E1E1E" stroke-width="0.9" stroke-linecap="round" stroke-linejoin="round"/>
</svg>
