<svg width="32" height="32" viewBox="0 0 32 32" fill="none" xmlns="http://www.w3.org/2000/svg">
<path d="M20.4629 25.3676C19.3852 25.6205 17.8776 25.533 16.285 25.2191C14.692 25.5332 13.1841 25.6205 12.1061 25.3676C11.3789 25.1969 10.8263 24.9414 10.4176 24.6352C10.0606 25.1638 9.76887 25.399 9.76887 25.399C9.76887 25.399 9.96082 26.1507 9.37532 26.2971C8.78981 26.4435 6.90198 26.2319 6.42066 25.811C5.93934 25.3901 6.19271 24.8484 6.19271 24.8484C6.19271 24.8484 4.51583 23.1262 5.1387 19.6435C5.76157 16.1608 6.63575 13.0615 7.04214 11.5037C7.44854 9.9458 8.39744 8.28906 9.88315 6.91763C10.2741 6.55677 10.7254 6.20344 11.1149 5.97567C11.5043 5.7479 12.0821 5.59531 12.2187 5.66383C12.3901 5.38363 12.6149 5.35672 12.8577 5.50204C13.682 5.14308 14.9049 5 16.2699 5C17.6653 5 18.9338 5.15382 19.7579 5.53034C20.0482 5.40656 20.3324 5.47105 20.5327 5.7465C20.58 5.72286 20.6579 5.69984 20.7595 5.69192C20.9522 5.67678 21.459 5.88076 21.8053 6.15106C22.1516 6.42136 22.362 6.61971 22.6847 6.91763C24.1704 8.28906 25.1193 9.9458 25.5257 11.5037C25.9321 13.0615 26.8063 16.1608 27.4292 19.6435C28.052 23.1262 26.3752 24.8484 26.3752 24.8484C26.3752 24.8484 26.6285 25.3901 26.1472 25.811C25.6659 26.2319 23.778 26.4435 23.1925 26.2971C22.607 26.1507 22.799 25.399 22.799 25.399C22.799 25.399 22.5075 25.164 22.1507 24.6358C21.742 24.9418 21.1896 25.1971 20.4629 25.3676Z" fill="white"/>
<path d="M10.227 12.0605C10.2076 13.9966 9.55757 19.9462 9.46311 20.6319C9.36865 21.3176 9.30434 22.2319 9.46312 23.1462C9.55571 23.6793 9.84588 24.2069 10.4176 24.6352M22.342 12.0605C22.3614 13.9966 23.0115 19.9462 23.1059 20.6319C23.2004 21.3176 23.2647 22.2319 23.1059 23.1462C23.0133 23.6796 22.7229 24.2074 22.1507 24.6358M12.2187 5.66383C12.5839 6.49617 13.7933 8.3099 16.2834 8.3099C18.7735 8.3099 20.1671 6.57904 20.5323 5.7467M12.2187 5.66383C12.0821 5.59531 11.5043 5.7479 11.1149 5.97567C10.7254 6.20344 10.2741 6.55677 9.88315 6.91763C8.39744 8.28906 7.44854 9.9458 7.04214 11.5037C6.63575 13.0615 5.76157 16.1608 5.1387 19.6435C4.51583 23.1262 6.19271 24.8484 6.19271 24.8484C6.19271 24.8484 5.93934 25.3901 6.42066 25.811C6.90198 26.2319 8.78981 26.4435 9.37532 26.2971C9.96082 26.1507 9.76887 25.399 9.76887 25.399C9.76887 25.399 10.0606 25.1638 10.4176 24.6352M12.2187 5.66383C12.3901 5.38363 12.6149 5.35672 12.8577 5.50204C13.682 5.14308 14.9049 5 16.2699 5C17.6653 5 18.9338 5.15382 19.7579 5.53034C20.0482 5.40656 20.332 5.47126 20.5323 5.7467M20.5323 5.7467C20.5796 5.72307 20.6579 5.69984 20.7595 5.69192C20.9522 5.67678 21.459 5.88076 21.8053 6.15106C22.1516 6.42136 22.362 6.61971 22.6847 6.91763C24.1704 8.28906 25.1193 9.9458 25.5257 11.5037C25.9321 13.0615 26.8063 16.1608 27.4292 19.6435C28.052 23.1262 26.3752 24.8484 26.3752 24.8484C26.3752 24.8484 26.6285 25.3901 26.1472 25.811C25.6659 26.2319 23.778 26.4435 23.1925 26.2971C22.607 26.1507 22.799 25.399 22.799 25.399C22.799 25.399 22.5075 25.164 22.1507 24.6358M22.1507 24.6358C21.742 24.9418 21.1896 25.1971 20.4629 25.3676C19.3852 25.6205 17.8776 25.533 16.285 25.2191C14.692 25.5332 13.1841 25.6205 12.1061 25.3676C11.3789 25.1969 10.8263 24.9414 10.4176 24.6352" stroke="#1E1E1E" stroke-width="0.8" stroke-linecap="round"/>
</svg>
