<svg width="32" height="32" viewBox="0 0 32 32" fill="none" xmlns="http://www.w3.org/2000/svg">
<path d="M16.4871 25.4733C17.5776 25.7915 20.9296 25.9378 21.2725 25.9087C21.5364 25.8862 21.8253 25.7455 21.9706 25.4733C21.9621 25.5741 21.9574 25.672 21.9574 25.7652C21.9574 26.2223 22.0717 26.4509 22.5288 26.5652C22.9859 26.6795 25.1574 26.5652 25.5002 26.4509C25.8431 26.3366 26.0717 26.108 26.0717 25.7652C26.0717 25.4223 26.0099 25.0364 25.843 24.7365C25.9671 24.2816 26.0716 22.7937 25.9573 21.4223C25.843 20.0508 25.7182 18.7953 25.5002 17.8794C24.9287 15.4794 25.0881 15.288 24.6448 13.1034C24.2016 10.9188 23.5247 9.51961 22.757 8.47895C21.9893 7.4383 21.0372 6.65879 20.5077 6.26878C19.9783 5.87877 19.4745 5.78089 19.1783 5.87877C18.3549 5.4912 17.0716 5.33325 15.6577 5.33325C14.2471 5.33325 12.9807 5.49046 12.1572 5.87602C11.8632 5.782 11.4122 5.87602 10.8151 6.29528C10.218 6.71455 9.43321 7.48948 8.71669 8.34247C8.00018 9.19547 7.22464 10.466 6.87082 11.8223C6.18511 14.4509 6.41368 15.4794 5.84225 17.8794C5.62417 18.7953 5.49939 20.0508 5.38511 21.4223C5.27082 22.7937 5.37531 24.2816 5.49939 24.7365C5.33251 25.0364 5.3851 25.4223 5.3851 25.7652C5.3851 26.108 5.49934 26.3366 5.84219 26.4509C6.18505 26.5652 8.35647 26.6795 8.81362 26.5652C9.27076 26.4509 9.38558 26.1596 9.38558 25.7024C9.56018 25.8226 9.79686 25.8863 10.0714 25.9212C10.5093 25.9768 13.8223 25.9094 16.4871 25.4733Z" fill="white"/>
<path d="M9.84279 12.3937C9.82341 14.3299 9.65103 17.1276 9.38555 18.3366C8.9284 20.4185 9.1988 21.9549 9.38558 23.2509C9.20738 23.7855 9.04279 24.508 9.06759 25.0795C9.08048 25.3764 9.19671 25.5724 9.38558 25.7024C9.56018 25.8226 9.79686 25.8863 10.0714 25.9212C10.5093 25.9768 13.8223 25.9094 16.4871 25.4733M21.501 12.3937C21.5204 14.3299 21.4641 17.1276 21.7296 18.3366C22.1867 20.4185 21.9164 21.9549 21.7296 23.2509C21.9158 23.8096 22.1239 24.7366 22.041 25.1937C21.9582 25.6509 21.6153 25.8795 21.2725 25.9087C20.9296 25.9378 17.5776 25.7915 16.4871 25.4733M16.4871 25.4733C17.299 25.3405 18.0508 25.1734 18.6427 24.9652M15.6722 22.6795C17.0184 22.5937 20.0151 21.8795 20.0151 21.0795C20.0151 20.7366 19.3294 20.6223 18.6437 20.7366M9.38504 25.7652C9.38504 26.2223 9.27076 26.4509 8.81362 26.5652C8.35647 26.6795 6.18505 26.5652 5.84219 26.4509C5.49934 26.3366 5.3851 26.108 5.3851 25.7652C5.3851 25.4223 5.33251 25.0364 5.49939 24.7365C5.37531 24.2816 5.27082 22.7937 5.38511 21.4223C5.49939 20.0508 5.62417 18.7953 5.84225 17.8794C6.41368 15.4794 6.18511 14.4509 6.87082 11.8223C7.22464 10.466 8.00018 9.19547 8.71669 8.34247C9.43321 7.48948 10.218 6.71455 10.8151 6.29528C11.4122 5.87602 11.8632 5.782 12.1572 5.87602M15.6713 7.93657C14.1852 7.93657 13.2446 7.06046 12.7999 6.40777C12.6037 6.11971 12.3893 5.9503 12.1572 5.87602M15.6726 7.93657C17.1587 7.93657 18.0992 7.06046 18.544 6.40777C18.7379 6.12321 18.9494 5.95443 19.1783 5.87877M12.1572 5.87602C12.9807 5.49046 14.2471 5.33325 15.6577 5.33325C17.0716 5.33325 18.3549 5.4912 19.1783 5.87877M19.1783 5.87877C19.4745 5.78089 19.9783 5.87877 20.5077 6.26878C21.0372 6.65879 21.9893 7.4383 22.757 8.47895C23.5247 9.51961 24.2016 10.9188 24.6448 13.1034C25.0881 15.288 24.9287 15.4794 25.5002 17.8794C25.7182 18.7953 25.843 20.0508 25.9573 21.4223C26.0716 22.7937 25.9671 24.2816 25.843 24.7365C26.0099 25.0364 26.0717 25.4223 26.0717 25.7652C26.0717 26.108 25.8431 26.3366 25.5002 26.4509C25.1574 26.5652 22.9859 26.6795 22.5288 26.5652C22.0717 26.4509 21.9574 26.2223 21.9574 25.7652C21.9574 25.672 21.9621 25.5741 21.9706 25.4733" stroke="#1E1E1E" stroke-width="0.8" stroke-linecap="round"/>
</svg>
