<svg width="32" height="32" viewBox="0 0 32 32" fill="none" xmlns="http://www.w3.org/2000/svg">
<path d="M11.2038 1.12012H20.7967C21.5969 1.12012 21.7409 1.58917 21.8435 2.35132C21.8503 2.40187 21.857 2.45371 21.8636 2.50678C21.9214 2.96967 21.9783 4.04582 22.0189 5.07775C22.0532 5.94819 22.0758 6.78716 22.0775 7.20012C22.0789 7.52872 22.6919 20.5215 22.6919 22.2709V27.4444C22.6919 28.5662 22.0336 29.413 22.0336 29.413C22.0336 29.413 22.1614 29.6431 22.0979 30.1417C22.0344 30.6402 21.628 30.8801 20.9071 30.8801H17.2342C16.9162 30.8801 16.6357 30.5031 16.6132 30.1417C16.5924 29.809 16.8177 29.4897 16.8177 29.4897C16.8177 29.4897 16.4632 28.9014 16.4632 27.7411V20.2852C16.4632 17.6961 16.1353 10.1683 15.9972 9.54678C15.859 10.1683 15.5373 17.6961 15.5373 20.2852V27.7411C15.5373 28.9014 15.1828 29.4897 15.1828 29.4897C15.1828 29.4897 15.4081 29.809 15.3874 30.1417C15.3648 30.5031 15.0844 30.8801 14.7664 30.8801H11.0934C10.3725 30.8801 9.96617 30.6402 9.90263 30.1417C9.83909 29.6431 9.96693 29.413 9.96693 29.413C9.96693 29.413 9.30859 28.5662 9.30859 27.4444V22.2709C9.30859 20.5215 9.92162 7.52872 9.92298 7.20012C9.92468 6.78716 9.94732 5.94819 9.98158 5.07775C10.0222 4.04582 10.0791 2.96967 10.1369 2.50678C10.1436 2.45371 10.1502 2.40187 10.157 2.35132C10.2597 1.58917 10.4036 1.12012 11.2038 1.12012Z" fill="white"/>
<path d="M10.4911 29.4897C10.6871 29.3831 11.1447 29.2896 11.5333 29.3305C12.0191 29.3816 12.2663 29.5499 13.0717 29.413C13.8771 29.276 14.4084 29.2814 14.7664 29.413M12.1566 1.12012C12.3868 2.90144 11.7825 3.96611 11.1876 4.45628C10.5927 4.94645 10.3629 5.06214 9.98158 5.07775M14.8469 1.12012V7.41496M21.5094 29.4897C21.3134 29.3831 20.8558 29.2896 20.4672 29.3305C19.9814 29.3816 19.7342 29.5499 18.9288 29.413C18.1234 29.276 17.5921 29.2814 17.2342 29.413M19.897 1.12012C19.6668 2.93021 20.4168 4.01687 20.8129 4.45628C21.2048 4.89093 21.6376 5.06214 22.0189 5.07775M17.1536 1.12012V7.41496M9.98158 5.07775C10.0222 4.04582 10.0791 2.96967 10.1369 2.50678C10.1436 2.45371 10.1502 2.40187 10.157 2.35132C10.2597 1.58917 10.4036 1.12012 11.2038 1.12012H20.7967C21.5969 1.12012 21.7409 1.58917 21.8435 2.35132C21.8503 2.40187 21.857 2.45371 21.8636 2.50678C21.9214 2.96967 21.9783 4.04582 22.0189 5.07775M9.98158 5.07775C9.94732 5.94819 9.92468 6.78716 9.92298 7.20012C9.92162 7.52872 9.30859 20.5215 9.30859 22.2709V27.4444C9.30859 28.5662 9.96693 29.413 9.96693 29.413C9.96693 29.413 9.83909 29.6431 9.90263 30.1417C9.96617 30.6402 10.3725 30.8801 11.0934 30.8801H14.7664C15.0844 30.8801 15.3648 30.5031 15.3874 30.1417C15.4081 29.809 15.1828 29.4897 15.1828 29.4897C15.1828 29.4897 15.5373 28.9014 15.5373 27.7411V20.2852C15.5373 17.6961 15.859 10.1683 15.9972 9.54678C16.1353 10.1683 16.4632 17.6961 16.4632 20.2852V27.7411C16.4632 28.9014 16.8177 29.4897 16.8177 29.4897C16.8177 29.4897 16.5924 29.809 16.6132 30.1417C16.6357 30.5031 16.9162 30.8801 17.2342 30.8801H20.9071C21.628 30.8801 22.0344 30.6402 22.0979 30.1417C22.1614 29.6431 22.0336 29.413 22.0336 29.413C22.0336 29.413 22.6919 28.5662 22.6919 27.4444V22.2709C22.6919 20.5215 22.0789 7.52872 22.0775 7.20012C22.0758 6.78716 22.0532 5.94819 22.0189 5.07775" stroke="#1E1E1E" stroke-width="0.7" stroke-linecap="round" stroke-linejoin="round"/>
</svg>
