<svg width="32" height="33" viewBox="0 0 32 33" fill="none" xmlns="http://www.w3.org/2000/svg">
<path d="M13.0588 30.5586C11.7952 30.4023 10.9618 30.08 10.9618 30.08C10.9618 30.08 11.3661 22.6819 11.7253 16.724C11.0834 16.6887 9.73808 16.609 9.56813 16.5523C9.56813 16.5523 9.49059 16.2199 9.34371 15.5056C9.19682 14.7913 9.07976 14.2443 8.93023 13.6462C8.7807 13.048 9.7176 10.1127 9.7176 10.1127L10.7082 5.61414C10.7082 5.61414 11.6573 4.44702 12.3529 3.9373V3.51618C12.3529 3.51618 13.1707 2.99351 14.6531 2.80176L14.6839 2.89721C15.0778 2.83828 15.5307 2.81184 15.9986 2.81184C16.4696 2.81184 16.916 2.83864 17.3119 2.89842C17.323 2.86565 17.3337 2.83342 17.344 2.80176C18.8265 2.99351 19.6442 3.51618 19.6442 3.51618V3.93745C20.3398 4.44724 21.2887 5.61414 21.2887 5.61414L22.2793 10.1127C22.2793 10.1127 23.2162 13.048 23.0667 13.6462C22.9171 14.2443 22.8001 14.7913 22.6532 15.5056C22.5063 16.2199 22.4288 16.5523 22.4288 16.5523C22.258 16.6093 20.9002 16.6895 20.2621 16.7245C20.6213 22.6823 21.0256 30.08 21.0256 30.08C21.0256 30.08 20.1922 30.4024 18.9286 30.5586C18.654 30.5925 18.3851 30.6218 18.1149 30.6447L17.6507 29.3236L17.1712 30.5586C15.4667 30.7728 14.3224 30.7148 13.0588 30.5586Z" fill="white"/>
<path d="M14.8419 11.4337C14.8419 11.3263 14.7549 11.2393 14.6475 11.2393C14.5402 11.2393 14.4531 11.3263 14.4531 11.4337C14.4531 11.541 14.5402 11.628 14.6475 11.628C14.7549 11.628 14.8419 11.541 14.8419 11.4337Z" fill="#1E1E1E"/>
<path d="M14.8419 14.8131C14.8419 14.7057 14.7549 14.6187 14.6475 14.6187C14.5402 14.6187 14.4531 14.7057 14.4531 14.8131C14.4531 14.9205 14.5402 15.0075 14.6475 15.0075C14.7549 15.0075 14.8419 14.9205 14.8419 14.8131Z" fill="#1E1E1E"/>
<path d="M14.8419 18.1926C14.8419 18.0852 14.7549 17.9982 14.6475 17.9982C14.5402 17.9982 14.4531 18.0852 14.4531 18.1926C14.4531 18.2999 14.5402 18.387 14.6475 18.387C14.7549 18.387 14.8419 18.2999 14.8419 18.1926Z" fill="#1E1E1E"/>
<path d="M14.8419 21.572C14.8419 21.4647 14.7549 21.3776 14.6475 21.3776C14.5402 21.3776 14.4531 21.4647 14.4531 21.572C14.4531 21.6794 14.5402 21.7664 14.6475 21.7664C14.7549 21.7664 14.8419 21.6794 14.8419 21.572Z" fill="#1E1E1E"/>
<path d="M14.8419 24.9515C14.8419 24.8441 14.7549 24.7571 14.6475 24.7571C14.5402 24.7571 14.4531 24.8441 14.4531 24.9515C14.4531 25.0588 14.5402 25.1459 14.6475 25.1459C14.7549 25.1459 14.8419 25.0588 14.8419 24.9515Z" fill="#1E1E1E"/>
<path d="M17.0849 11.4337C17.0849 11.3263 16.9979 11.2393 16.8905 11.2393C16.7831 11.2393 16.6961 11.3263 16.6961 11.4337C16.6961 11.541 16.7831 11.628 16.8905 11.628C16.9979 11.628 17.0849 11.541 17.0849 11.4337Z" fill="#1E1E1E"/>
<path d="M17.0849 14.8131C17.0849 14.7057 16.9979 14.6187 16.8905 14.6187C16.7831 14.6187 16.6961 14.7057 16.6961 14.8131C16.6961 14.9205 16.7831 15.0075 16.8905 15.0075C16.9979 15.0075 17.0849 14.9205 17.0849 14.8131Z" fill="#1E1E1E"/>
<path d="M17.0849 18.1926C17.0849 18.0852 16.9979 17.9982 16.8905 17.9982C16.7831 17.9982 16.6961 18.0852 16.6961 18.1926C16.6961 18.2999 16.7831 18.387 16.8905 18.387C16.9979 18.387 17.0849 18.2999 17.0849 18.1926Z" fill="#1E1E1E"/>
<path d="M17.0849 21.572C17.0849 21.4647 16.9979 21.3776 16.8905 21.3776C16.7831 21.3776 16.6961 21.4647 16.6961 21.572C16.6961 21.6794 16.7831 21.7664 16.8905 21.7664C16.9979 21.7664 17.0849 21.6794 17.0849 21.572Z" fill="#1E1E1E"/>
<path d="M17.0849 24.9515C17.0849 24.8441 16.9979 24.7571 16.8905 24.7571C16.7831 24.7571 16.6961 24.8441 16.6961 24.9515C16.6961 25.0588 16.7831 25.1459 16.8905 25.1459C16.9979 25.1459 17.0849 25.0588 17.0849 24.9515Z" fill="#1E1E1E"/>
<path d="M10.9618 30.08L10.6123 30.0609L10.5984 30.3148L10.8355 30.4065L10.9618 30.08ZM13.0588 30.5586L13.0159 30.9059H13.0159L13.0588 30.5586ZM12.3529 5.06917H12.0029V5.09514L12.0068 5.12083L12.3529 5.06917ZM17.1712 30.5586L17.2149 30.9059L17.422 30.8798L17.4975 30.6853L17.1712 30.5586ZM12.1284 10.5332L11.781 10.4903L11.78 10.4983L11.7794 10.5064L12.1284 10.5332ZM21.0256 30.08L21.1519 30.4065L21.389 30.3148L21.3751 30.0609L21.0256 30.08ZM18.9286 30.5586L18.9715 30.9059H18.9715L18.9286 30.5586ZM19.6442 5.06917L19.99 5.12294L19.9942 5.09621V5.06917H19.6442ZM19.859 10.5332L20.208 10.5064L20.2074 10.4983L20.2064 10.4903L19.859 10.5332ZM18.1149 30.6447L17.7847 30.7608L17.8745 31.0163L18.1444 30.9935L18.1149 30.6447ZM16.0381 9.75971C15.8461 9.73801 15.6727 9.87612 15.651 10.0682C15.6293 10.2603 15.7675 10.4336 15.9595 10.4553L16.0381 9.75971ZM9.56813 16.5523L9.22728 16.6318L9.27174 16.8225L9.45745 16.8844L9.56813 16.5523ZM9.7176 10.1127L10.051 10.2191L10.0559 10.2037L10.0594 10.1879L9.7176 10.1127ZM10.7082 5.61414L10.4366 5.39332L10.3842 5.45776L10.3664 5.53887L10.7082 5.61414ZM9.34371 15.5056L9.68653 15.4351L9.34371 15.5056ZM8.93023 13.6462L9.26978 13.5613H9.26978L8.93023 13.6462ZM12.5738 4.20946C12.7305 4.09628 12.7658 3.8775 12.6526 3.7208C12.5394 3.56409 12.3206 3.5288 12.1639 3.64198L12.5738 4.20946ZM22.4288 16.5523L22.5395 16.8844L22.7252 16.8225L22.7696 16.6318L22.4288 16.5523ZM22.2793 10.1127L21.9375 10.1879L21.941 10.2037L21.9459 10.2191L22.2793 10.1127ZM21.2887 5.61414L21.6305 5.53887L21.6127 5.45776L21.5603 5.39332L21.2887 5.61414ZM22.6532 15.5056L22.3104 15.4351L22.6532 15.5056ZM23.0667 13.6462L23.4062 13.731L23.0667 13.6462ZM19.833 3.64198C19.6763 3.5288 19.4575 3.56409 19.3443 3.7208C19.2312 3.8775 19.2664 4.09628 19.4231 4.20946L19.833 3.64198ZM14.6531 2.80176L14.9859 2.69352L14.8961 2.4174L14.6082 2.45465L14.6531 2.80176ZM17.6434 11.543L17.9934 11.5429L17.9934 11.4532L17.9503 11.3746L17.6434 11.543ZM13.8162 4.8459L14.0995 5.0515L14.5916 4.37356L13.7635 4.49991L13.8162 4.8459ZM12.3529 3.51618L12.1644 3.22128L12.0029 3.32451V3.51618H12.3529ZM12.8992 6.10931L12.616 5.90371L12.466 6.11035L12.617 6.31626L12.8992 6.10931ZM15.0448 8.92442L15.3171 8.70451L15.0448 8.92442ZM18.1809 4.8459L18.2337 4.49991L17.4055 4.37356L17.8976 5.0515L18.1809 4.8459ZM19.6442 3.51618H19.9942V3.32451L19.8327 3.22128L19.6442 3.51618ZM17.344 2.80176L17.3889 2.45465L17.101 2.4174L17.0112 2.69352L17.344 2.80176ZM19.0979 6.10931L19.3695 6.33009L19.5391 6.12139L19.3811 5.90371L19.0979 6.10931ZM14.6839 2.89721L14.3505 3.00385L14.6839 2.89721ZM11.7701 15.9855L11.4207 15.9643L11.7701 15.9855ZM11.7253 16.724L12.0747 16.745L11.7253 16.724ZM20.166 15.1482L19.8167 15.1698L20.166 15.1482ZM20.2174 15.9862L20.5667 15.965L20.2174 15.9862ZM20.2621 16.7245L19.9127 16.7456L20.2621 16.7245ZM16.9999 10.1871L16.677 10.322L16.9999 10.1871ZM16.1447 10.1233L16.3927 9.87632H16.3927L16.1447 10.1233ZM10.9618 30.08C10.8355 30.4065 10.8356 30.4065 10.8356 30.4065C10.8357 30.4065 10.8357 30.4066 10.8358 30.4066C10.8359 30.4066 10.836 30.4067 10.8361 30.4067C10.8364 30.4068 10.8367 30.4069 10.837 30.4071C10.8377 30.4073 10.8386 30.4077 10.8397 30.4081C10.842 30.4089 10.845 30.4101 10.8488 30.4115C10.8565 30.4144 10.8673 30.4184 10.8812 30.4234C10.909 30.4334 10.9492 30.4476 11.001 30.4648C11.1044 30.4994 11.2543 30.5464 11.4442 30.5983C11.8237 30.7021 12.3646 30.8254 13.0159 30.9059L13.1018 30.2112C12.4894 30.1355 11.9818 30.0196 11.6287 29.9231C11.4523 29.8749 11.3148 29.8316 11.2225 29.8008C11.1764 29.7854 11.1416 29.7732 11.1189 29.765C11.1075 29.7609 11.0992 29.7578 11.0941 29.7559C11.0915 29.7549 11.0897 29.7542 11.0886 29.7538C11.0881 29.7536 11.0878 29.7535 11.0877 29.7535C11.0877 29.7535 11.0877 29.7535 11.0877 29.7535C11.0877 29.7535 11.0878 29.7535 11.0878 29.7535C11.0878 29.7535 11.0879 29.7536 11.0879 29.7536C11.088 29.7536 11.088 29.7536 10.9618 30.08ZM12.3529 5.06917C12.0068 5.12083 12.0068 5.12083 12.0068 5.12084C12.0068 5.12086 12.0068 5.12087 12.0068 5.12089C12.0068 5.12094 12.0068 5.121 12.0068 5.1211C12.0068 5.12128 12.0069 5.12155 12.0069 5.12192C12.007 5.12266 12.0072 5.12376 12.0074 5.12522C12.0079 5.12815 12.0085 5.1325 12.0093 5.13819C12.011 5.14957 12.0135 5.16631 12.0167 5.18768C12.023 5.23041 12.0321 5.29166 12.0429 5.36564C12.0647 5.51364 12.0937 5.71238 12.1226 5.91567C12.1516 6.11919 12.1804 6.32623 12.2019 6.49118C12.2127 6.57382 12.2215 6.64446 12.2275 6.69822C12.2344 6.76055 12.2353 6.78035 12.2353 6.77563H12.9353C12.9353 6.70916 12.916 6.55346 12.896 6.40063C12.874 6.2316 12.8447 6.02138 12.8156 5.81698C12.7865 5.61234 12.7573 5.41251 12.7355 5.26391C12.7246 5.18958 12.7155 5.12803 12.7091 5.08504C12.7059 5.06354 12.7034 5.04668 12.7017 5.03519C12.7009 5.02944 12.7002 5.02503 12.6998 5.02205C12.6995 5.02056 12.6994 5.01943 12.6993 5.01867C12.6992 5.01829 12.6992 5.018 12.6991 5.01781C12.6991 5.01771 12.6991 5.01763 12.6991 5.01758C12.6991 5.01756 12.6991 5.01754 12.6991 5.01753C12.6991 5.01751 12.6991 5.0175 12.3529 5.06917ZM13.0159 30.9059C14.3023 31.065 15.4762 31.1243 17.2149 30.9059L17.1276 30.2113C15.4571 30.4212 14.3425 30.3646 13.1018 30.2112L13.0159 30.9059ZM17.4975 30.6853L17.977 29.4503L17.3244 29.197L16.845 30.4319L17.4975 30.6853ZM12.2353 6.77563C12.2353 6.75527 12.2375 6.73837 12.2357 6.7564C12.235 6.76318 12.2339 6.7737 12.2323 6.78836C12.2291 6.81742 12.2243 6.85917 12.218 6.91223C12.2056 7.01817 12.1878 7.16686 12.1664 7.34419C12.1236 7.69875 12.0665 8.16646 12.0094 8.63265C11.9523 9.09879 11.8952 9.56321 11.8524 9.91111C11.831 10.0851 11.8131 10.2299 11.8006 10.3312C11.7944 10.3819 11.7895 10.4216 11.7861 10.4488C11.7845 10.4623 11.7832 10.4727 11.7823 10.4797C11.7819 10.4832 11.7815 10.4859 11.7813 10.4877C11.7812 10.4885 11.7811 10.4892 11.7811 10.4897C11.7811 10.4899 11.781 10.4901 11.781 10.4902C11.781 10.4902 11.781 10.4903 11.781 10.4903C11.781 10.4903 11.781 10.4903 12.1284 10.5332C12.4757 10.5761 12.4757 10.5761 12.4757 10.576C12.4757 10.576 12.4757 10.576 12.4757 10.5759C12.4758 10.5758 12.4758 10.5756 12.4758 10.5754C12.4759 10.575 12.4759 10.5743 12.4761 10.5734C12.4763 10.5716 12.4766 10.569 12.477 10.5654C12.4779 10.5584 12.4792 10.548 12.4809 10.5345C12.4842 10.5073 12.4891 10.4675 12.4954 10.4169C12.5079 10.3155 12.5257 10.1706 12.5471 9.99665C12.59 9.64867 12.6471 9.18409 12.7042 8.71777C12.7614 8.25148 12.8185 7.78327 12.8614 7.42808C12.8828 7.25054 12.9007 7.10091 12.9133 6.99377C12.9195 6.94029 12.9246 6.89682 12.928 6.86556C12.9297 6.85006 12.9312 6.83665 12.9322 6.82617C12.9328 6.82104 12.9333 6.81545 12.9337 6.81012C12.934 6.80749 12.9342 6.80382 12.9345 6.79969C12.9347 6.79735 12.9353 6.78761 12.9353 6.77563H12.2353ZM21.0256 30.08C20.8994 29.7536 20.8994 29.7536 20.8995 29.7536C20.8995 29.7536 20.8996 29.7535 20.8996 29.7535C20.8996 29.7535 20.8997 29.7535 20.8997 29.7535C20.8997 29.7535 20.8997 29.7535 20.8997 29.7535C20.8996 29.7535 20.8993 29.7537 20.8988 29.7538C20.8977 29.7542 20.8959 29.7549 20.8933 29.7559C20.8882 29.7578 20.8798 29.7609 20.8685 29.765C20.8458 29.7732 20.811 29.7854 20.7649 29.8008C20.6726 29.8316 20.5351 29.8749 20.3587 29.9231C20.0056 30.0196 19.498 30.1355 18.8856 30.2112L18.9715 30.9059C19.6228 30.8254 20.1637 30.7021 20.5432 30.5983C20.7331 30.5465 20.883 30.4994 20.9864 30.4649C21.0382 30.4476 21.0784 30.4334 21.1062 30.4234C21.1201 30.4184 21.1309 30.4144 21.1386 30.4115C21.1424 30.4101 21.1454 30.4089 21.1477 30.4081C21.1488 30.4077 21.1497 30.4073 21.1504 30.4071C21.1507 30.4069 21.151 30.4068 21.1513 30.4067C21.1514 30.4067 21.1515 30.4066 21.1516 30.4066C21.1517 30.4066 21.1517 30.4065 21.1517 30.4065C21.1518 30.4065 21.1519 30.4065 21.0256 30.08ZM19.6442 5.06917C19.2983 5.01539 19.2983 5.0154 19.2983 5.01542C19.2983 5.01543 19.2983 5.01545 19.2983 5.01547C19.2983 5.01553 19.2983 5.0156 19.2983 5.0157C19.2983 5.01589 19.2982 5.01618 19.2982 5.01656C19.298 5.01732 19.2979 5.01846 19.2976 5.01995C19.2972 5.02292 19.2965 5.02733 19.2956 5.03308C19.2938 5.04458 19.2912 5.06144 19.2879 5.08294C19.2812 5.12594 19.2718 5.1875 19.2604 5.26183C19.2376 5.41044 19.2073 5.61029 19.1769 5.81496C19.1466 6.01938 19.1161 6.22967 19.0931 6.39878C19.0724 6.55102 19.0521 6.70796 19.0521 6.77563H19.7521C19.7521 6.78133 19.7529 6.76239 19.7602 6.69983C19.7664 6.6462 19.7755 6.57565 19.7867 6.49305C19.8091 6.32818 19.8392 6.12119 19.8694 5.91769C19.8995 5.71443 19.9297 5.51571 19.9523 5.36772C19.9637 5.29375 19.9731 5.23251 19.9797 5.18977C19.983 5.16841 19.9856 5.15168 19.9873 5.14029C19.9882 5.1346 19.9889 5.13025 19.9893 5.12733C19.9896 5.12587 19.9897 5.12477 19.9899 5.12403C19.9899 5.12366 19.99 5.12339 19.99 5.1232C19.99 5.12311 19.99 5.12305 19.99 5.123C19.99 5.12298 19.99 5.12296 19.99 5.12295C19.99 5.12294 19.99 5.12294 19.6442 5.06917ZM19.0521 6.77563C19.0521 6.78762 19.0527 6.79736 19.0529 6.79969C19.0531 6.80383 19.0534 6.8075 19.0537 6.81012C19.0541 6.81545 19.0546 6.82105 19.0552 6.82617C19.0562 6.83665 19.0577 6.85006 19.0594 6.86557C19.0628 6.89683 19.0679 6.9403 19.0741 6.99378C19.0867 7.10092 19.1046 7.25055 19.126 7.42809C19.1689 7.78328 19.226 8.25149 19.2832 8.71777C19.3403 9.1841 19.3974 9.64867 19.4403 9.99666C19.4617 10.1707 19.4795 10.3155 19.492 10.4169C19.4983 10.4675 19.5032 10.5073 19.5065 10.5345C19.5082 10.548 19.5095 10.5584 19.5104 10.5655C19.5108 10.569 19.5111 10.5716 19.5113 10.5734C19.5114 10.5743 19.5115 10.575 19.5116 10.5754C19.5116 10.5756 19.5116 10.5758 19.5116 10.5759C19.5117 10.576 19.5117 10.576 19.5117 10.576C19.5117 10.5761 19.5117 10.5761 19.859 10.5332C20.2064 10.4903 20.2064 10.4903 20.2064 10.4903C20.2064 10.4903 20.2064 10.4902 20.2064 10.4902C20.2064 10.4901 20.2063 10.4899 20.2063 10.4897C20.2063 10.4892 20.2062 10.4886 20.2061 10.4877C20.2058 10.4859 20.2055 10.4832 20.2051 10.4797C20.2042 10.4727 20.2029 10.4623 20.2013 10.4488C20.1979 10.4217 20.193 10.3819 20.1868 10.3312C20.1743 10.2299 20.1564 10.0851 20.135 9.91112C20.0922 9.56322 20.0351 9.09879 19.978 8.63266C19.9209 8.16647 19.8638 7.69875 19.821 7.3442C19.7996 7.16686 19.7818 7.01817 19.7694 6.91224C19.7631 6.85918 19.7583 6.81743 19.7551 6.78837C19.7535 6.77371 19.7524 6.76319 19.7517 6.7564C19.7499 6.73838 19.7521 6.75527 19.7521 6.77563H19.0521ZM18.8856 30.2112C18.6143 30.2448 18.3501 30.2736 18.0854 30.296L18.1444 30.9935C18.4202 30.9701 18.6938 30.9403 18.9715 30.9059L18.8856 30.2112ZM18.4451 30.5287L17.9809 29.2076L17.3205 29.4397L17.7847 30.7608L18.4451 30.5287ZM10.0594 10.1879L11.05 5.68941L10.3664 5.53887L9.37579 10.0374L10.0594 10.1879ZM9.68653 15.4351C9.53941 14.7196 9.42116 14.1668 9.26978 13.5613L8.59068 13.731C8.73837 14.3218 8.85423 14.8629 9.00088 15.5761L9.68653 15.4351ZM9.26978 13.5613C9.26574 13.5451 9.25921 13.4819 9.26995 13.3513C9.27991 13.2301 9.30201 13.0792 9.33428 12.9057C9.3987 12.5592 9.49919 12.1461 9.60603 11.7452C9.71256 11.3456 9.8239 10.9637 9.90874 10.6814C9.95112 10.5403 9.9868 10.4244 10.0118 10.3439C10.0244 10.3036 10.0342 10.2723 10.0409 10.251C10.0443 10.2404 10.0468 10.2323 10.0485 10.2269C10.0494 10.2243 10.05 10.2222 10.0504 10.2209C10.0506 10.2203 10.0508 10.2198 10.0509 10.2195C10.051 10.2193 10.051 10.2192 10.051 10.2191C10.051 10.2191 10.051 10.2191 10.051 10.2191C10.051 10.2191 10.051 10.2191 9.7176 10.1127C9.38417 10.0062 9.38416 10.0063 9.38415 10.0063C9.38414 10.0063 9.38412 10.0064 9.38411 10.0064C9.38407 10.0065 9.38402 10.0067 9.38396 10.0069C9.38383 10.0073 9.38364 10.0079 9.3834 10.0086C9.38292 10.0101 9.38222 10.0124 9.38131 10.0152C9.37948 10.021 9.37679 10.0295 9.37332 10.0405C9.36636 10.0626 9.35623 10.0948 9.34342 10.136C9.31781 10.2184 9.28147 10.3364 9.23835 10.4799C9.1522 10.7667 9.03866 11.156 8.92965 11.565C8.82096 11.9727 8.71526 12.4056 8.64607 12.7777C8.61153 12.9635 8.58496 13.14 8.57231 13.2939C8.56044 13.4383 8.55734 13.5977 8.59068 13.731L9.26978 13.5613ZM9.56813 16.5523C9.90899 16.4728 9.90899 16.4729 9.90899 16.4729C9.90899 16.4729 9.90899 16.4729 9.90899 16.4729C9.90899 16.4729 9.90899 16.4729 9.90899 16.4729C9.90899 16.4728 9.90898 16.4728 9.90896 16.4728C9.90894 16.4726 9.90889 16.4724 9.90883 16.4722C9.9087 16.4716 9.9085 16.4707 9.90822 16.4695C9.90766 16.4671 9.9068 16.4634 9.90564 16.4584C9.90333 16.4483 9.89981 16.4329 9.89512 16.4121C9.88573 16.3705 9.87161 16.3074 9.8529 16.222C9.81549 16.0511 9.75969 15.7908 9.68653 15.4351L9.00088 15.5761C9.07461 15.9346 9.13103 16.1978 9.1691 16.3717C9.18814 16.4586 9.20259 16.5233 9.21233 16.5664C9.2172 16.5879 9.22089 16.6041 9.22339 16.615C9.22464 16.6204 9.22559 16.6245 9.22624 16.6273C9.22656 16.6287 9.22681 16.6298 9.22699 16.6306C9.22707 16.6309 9.22714 16.6312 9.22719 16.6314C9.22721 16.6316 9.22723 16.6316 9.22725 16.6317C9.22726 16.6317 9.22726 16.6318 9.22727 16.6318C9.22727 16.6318 9.22728 16.6318 9.22728 16.6318C9.22728 16.6318 9.22728 16.6318 9.56813 16.5523ZM22.6211 10.0374L21.6305 5.53887L20.9469 5.68941L21.9375 10.1879L22.6211 10.0374ZM22.996 15.5761C23.1427 14.8629 23.2585 14.3218 23.4062 13.731L22.7271 13.5613C22.5757 14.1668 22.4575 14.7196 22.3104 15.4351L22.996 15.5761ZM23.4062 13.731C23.4396 13.5977 23.4365 13.4383 23.4246 13.2939C23.4119 13.14 23.3854 12.9635 23.3508 12.7777C23.2816 12.4056 23.176 11.9727 23.0673 11.565C22.9583 11.156 22.8447 10.7667 22.7586 10.4799C22.7154 10.3364 22.6791 10.2184 22.6535 10.136C22.6407 10.0948 22.6305 10.0626 22.6236 10.0405C22.6201 10.0295 22.6174 10.021 22.6156 10.0152C22.6147 10.0124 22.614 10.0101 22.6135 10.0086C22.6133 10.0079 22.6131 10.0073 22.613 10.0069C22.6129 10.0067 22.6128 10.0065 22.6128 10.0064C22.6128 10.0064 22.6128 10.0063 22.6128 10.0063C22.6127 10.0063 22.6127 10.0062 22.2793 10.1127C21.9459 10.2191 21.9459 10.2191 21.9459 10.2191C21.9459 10.2191 21.9459 10.2191 21.9459 10.2191C21.9459 10.2192 21.946 10.2193 21.946 10.2195C21.9461 10.2198 21.9463 10.2203 21.9465 10.2209C21.9469 10.2222 21.9475 10.2243 21.9484 10.2269C21.9501 10.2323 21.9527 10.2404 21.956 10.251C21.9627 10.2723 21.9725 10.3036 21.9851 10.3439C22.0101 10.4244 22.0458 10.5403 22.0882 10.6814C22.173 10.9637 22.2844 11.3456 22.3909 11.7452C22.4977 12.1461 22.5982 12.5592 22.6626 12.9057C22.6949 13.0792 22.717 13.2301 22.727 13.3513C22.7377 13.4819 22.7312 13.5451 22.7271 13.5613L23.4062 13.731ZM22.4288 16.5523C22.7696 16.6318 22.7696 16.6318 22.7696 16.6318C22.7696 16.6318 22.7696 16.6318 22.7696 16.6318C22.7696 16.6318 22.7697 16.6317 22.7697 16.6317C22.7697 16.6316 22.7697 16.6316 22.7697 16.6314C22.7698 16.6312 22.7698 16.6309 22.7699 16.6306C22.7701 16.6298 22.7703 16.6287 22.7707 16.6273C22.7713 16.6245 22.7723 16.6204 22.7735 16.615C22.776 16.6041 22.7797 16.5879 22.7846 16.5664C22.7943 16.5233 22.8088 16.4586 22.8278 16.3717C22.8659 16.1978 22.9223 15.9346 22.996 15.5761L22.3104 15.4351C22.2372 15.7908 22.1814 16.0511 22.144 16.222C22.1253 16.3074 22.1112 16.3705 22.1018 16.4121C22.0971 16.4329 22.0936 16.4483 22.0913 16.4584C22.0901 16.4634 22.0892 16.4671 22.0887 16.4695C22.0884 16.4707 22.0882 16.4716 22.0881 16.4722C22.088 16.4724 22.088 16.4726 22.0879 16.4728C22.0879 16.4728 22.0879 16.4728 22.0879 16.4729C22.0879 16.4729 22.0879 16.4729 22.0879 16.4729C22.0879 16.4729 22.0879 16.4729 22.0879 16.4729C22.0879 16.4729 22.0879 16.4728 22.4288 16.5523ZM12.4057 5.41516L13.869 5.1919L13.7635 4.49991L12.3001 4.72317L12.4057 5.41516ZM12.3529 3.51618C12.5414 3.81109 12.5413 3.81115 12.5412 3.8112C12.5412 3.81122 12.5411 3.81128 12.5411 3.81131C12.541 3.81137 12.5409 3.81143 12.5408 3.81148C12.5407 3.81158 12.5406 3.81164 12.5405 3.81168C12.5404 3.81175 12.5405 3.81169 12.5408 3.81152C12.5413 3.81117 12.5426 3.81034 12.5448 3.80905C12.549 3.80647 12.5563 3.80205 12.5667 3.79602C12.5875 3.78394 12.6206 3.76537 12.6655 3.74193C12.7555 3.69506 12.8932 3.6288 13.0762 3.55621C13.4421 3.41101 13.9889 3.24059 14.698 3.14887L14.6082 2.45465C13.8348 2.55468 13.2316 2.74147 12.818 2.90555C12.6112 2.98759 12.4518 3.06399 12.3422 3.12111C12.2873 3.14967 12.2449 3.17343 12.2152 3.19069C12.2003 3.19931 12.1887 3.20632 12.1802 3.21149C12.1759 3.21407 12.1725 3.2162 12.1699 3.21784C12.1686 3.21866 12.1675 3.21936 12.1665 3.21993C12.1661 3.22022 12.1657 3.22048 12.1653 3.2207C12.1652 3.22081 12.165 3.22092 12.1648 3.22101C12.1648 3.22106 12.1647 3.22113 12.1646 3.22115C12.1645 3.22122 12.1644 3.22128 12.3529 3.51618ZM12.8992 6.10931C12.617 6.31626 12.617 6.31627 12.617 6.31629C12.617 6.3163 12.617 6.31633 12.617 6.31636C12.6171 6.31641 12.6171 6.3165 12.6172 6.31661C12.6174 6.31683 12.6176 6.31715 12.6179 6.31758C12.6186 6.31843 12.6195 6.3197 12.6207 6.32137C12.6232 6.3247 12.6268 6.32964 12.6315 6.33613C12.6411 6.34909 12.6551 6.3682 12.6733 6.39289C12.7097 6.44227 12.7626 6.51397 12.8288 6.60341C12.9612 6.78225 13.1469 7.03213 13.3604 7.31635C13.7868 7.88392 14.3262 8.59173 14.7726 9.14434L15.3171 8.70451C14.8788 8.16185 14.3454 7.4621 13.9201 6.89593C13.7078 6.61328 13.523 6.36474 13.3914 6.18689C13.3255 6.09798 13.273 6.02676 13.237 5.9778C13.2189 5.95333 13.205 5.93442 13.1956 5.92166C13.191 5.91527 13.1874 5.91043 13.185 5.90719C13.1838 5.90557 13.1829 5.90435 13.1823 5.90354C13.182 5.90314 13.1818 5.90283 13.1817 5.90264C13.1816 5.90254 13.1816 5.90247 13.1815 5.90242C13.1815 5.9024 13.1815 5.90238 13.1815 5.90237C13.1815 5.90236 13.1815 5.90236 12.8992 6.10931ZM13.533 4.64031L12.616 5.90371L13.1825 6.3149L14.0995 5.0515L13.533 4.64031ZM19.697 4.72317L18.2337 4.49991L18.1281 5.1919L19.5914 5.41516L19.697 4.72317ZM19.6442 3.51618C19.8327 3.22128 19.8326 3.22122 19.8325 3.22115C19.8324 3.22113 19.8323 3.22106 19.8323 3.22101C19.8321 3.22092 19.832 3.22081 19.8318 3.2207C19.8314 3.22048 19.831 3.22022 19.8306 3.21993C19.8297 3.21936 19.8285 3.21866 19.8272 3.21784C19.8246 3.2162 19.8212 3.21407 19.8169 3.21149C19.8085 3.20632 19.7968 3.19931 19.7819 3.19069C19.7522 3.17343 19.7098 3.14967 19.6549 3.12111C19.5453 3.06399 19.3859 2.98759 19.1791 2.90555C18.7656 2.74147 18.1623 2.55468 17.3889 2.45465L17.2991 3.14887C18.0082 3.24059 18.555 3.41101 18.9209 3.55621C19.1039 3.6288 19.2416 3.69506 19.3316 3.74193C19.3765 3.76537 19.4096 3.78394 19.4304 3.79602C19.4408 3.80205 19.4481 3.80647 19.4523 3.80905C19.4545 3.81034 19.4558 3.81117 19.4564 3.81152C19.4566 3.81169 19.4567 3.81175 19.4566 3.81168C19.4566 3.81164 19.4565 3.81158 19.4563 3.81148C19.4562 3.81143 19.4561 3.81137 19.456 3.81131C19.456 3.81128 19.4559 3.81122 19.4559 3.8112C19.4558 3.81115 19.4557 3.81109 19.6442 3.51618ZM19.0979 6.10931C18.8263 5.88852 18.8264 5.88848 18.8264 5.88844C18.8264 5.88844 18.8264 5.8884 18.8264 5.88839C18.8264 5.88836 18.8265 5.88836 18.8264 5.88837C18.8264 5.88838 18.8264 5.88847 18.8262 5.88863C18.826 5.88895 18.8255 5.88955 18.8247 5.89043C18.8233 5.89219 18.8209 5.89507 18.8176 5.89902C18.8111 5.90693 18.8008 5.91917 18.7869 5.93547C18.7592 5.96807 18.7169 6.01693 18.6604 6.08C18.5475 6.20617 18.3778 6.38909 18.1542 6.61241C17.7068 7.05925 17.0441 7.66679 16.1875 8.30486L16.6057 8.86623C17.4938 8.20469 18.1818 7.57411 18.6488 7.10773C18.8824 6.87445 19.061 6.68199 19.1819 6.54692C19.2424 6.47938 19.2885 6.42616 19.3198 6.38934C19.3355 6.37093 19.3475 6.35662 19.3558 6.34666C19.36 6.34168 19.3632 6.33779 19.3654 6.33501C19.3666 6.33363 19.3675 6.33252 19.3682 6.3317C19.3685 6.33129 19.3688 6.33095 19.369 6.33068C19.3691 6.33055 19.3692 6.33043 19.3693 6.33033C19.3693 6.33029 19.3694 6.33022 19.3694 6.3302C19.3694 6.33014 19.3695 6.33009 19.0979 6.10931ZM17.8976 5.0515L18.8146 6.3149L19.3811 5.90371L18.4641 4.64031L17.8976 5.0515ZM17.3642 2.55234C16.9464 2.48926 16.4818 2.46184 15.9986 2.46184V3.16184C16.4574 3.16184 16.8856 3.18801 17.2597 3.24449L17.3642 2.55234ZM17.0112 2.69352C17.0014 2.72375 16.9911 2.75463 16.9804 2.78614L17.6434 3.0107C17.655 2.97667 17.6661 2.94309 17.6769 2.91L17.0112 2.69352ZM16.9804 2.78614C16.6501 3.76141 15.9669 5.21763 15.4499 6.4987L16.099 6.7607C16.589 5.54661 17.3068 4.00456 17.6434 3.0107L16.9804 2.78614ZM14.7356 3.24336C15.1076 3.1877 15.5425 3.16184 15.9986 3.16184V2.46184C15.5189 2.46184 15.0479 2.48885 14.6321 2.55106L14.7356 3.24336ZM14.3202 2.91C14.3303 2.94082 14.3403 2.97211 14.3505 3.00385L15.0172 2.79057C15.0067 2.75782 14.9963 2.72547 14.9859 2.69352L14.3202 2.91ZM14.3505 3.00385C14.66 3.97148 15.0114 5.29701 15.439 6.7298L16.1098 6.5296C15.6934 5.13438 15.3273 3.76006 15.0172 2.79057L14.3505 3.00385ZM15.439 6.7298C15.6334 7.38119 15.8419 8.04823 16.0656 8.69929L16.7276 8.4718C16.508 7.83283 16.3026 7.17556 16.1098 6.5296L15.439 6.7298ZM11.7794 10.5064C11.6986 11.5562 11.5903 13.2126 11.4721 15.1259L12.1708 15.1691C12.2889 13.2558 12.397 11.6041 12.4773 10.5601L11.7794 10.5064ZM11.4721 15.1259C11.4552 15.4004 11.438 15.6802 11.4207 15.9643L12.1194 16.0068C12.1367 15.7229 12.1538 15.4433 12.1708 15.1691L11.4721 15.1259ZM11.4721 15.1261L11.4207 15.9641L12.1194 16.007L12.1708 15.1689L11.4721 15.1261ZM11.4207 15.9643C11.4059 16.2075 11.391 16.454 11.376 16.7029L12.0747 16.745C12.0897 16.4962 12.1046 16.2499 12.1194 16.0068L11.4207 15.9643ZM11.376 16.7029C11.1963 19.6826 11.0054 23.0221 10.8594 25.6166C10.7864 26.9138 10.7246 28.0249 10.6811 28.8117C10.6593 29.205 10.6421 29.5173 10.6304 29.7313C10.6245 29.8383 10.62 29.9207 10.6169 29.9763C10.6154 30.0042 10.6142 30.0253 10.6135 30.0395C10.6131 30.0466 10.6128 30.052 10.6126 30.0555C10.6125 30.0573 10.6124 30.0587 10.6124 30.0596C10.6123 30.06 10.6123 30.0604 10.6123 30.0606C10.6123 30.0607 10.6123 30.0608 10.6123 30.0608C10.6123 30.0609 10.6123 30.0609 10.9618 30.08C11.3112 30.0991 11.3112 30.0991 11.3112 30.0991C11.3113 30.099 11.3113 30.0989 11.3113 30.0988C11.3113 30.0986 11.3113 30.0982 11.3113 30.0978C11.3114 30.0969 11.3114 30.0956 11.3115 30.0938C11.3117 30.0902 11.312 30.0848 11.3124 30.0778C11.3132 30.0636 11.3143 30.0425 11.3159 30.0147C11.3189 29.959 11.3234 29.8767 11.3293 29.7697C11.3411 29.5558 11.3583 29.2436 11.38 28.8503C11.4235 28.0637 11.4853 26.9529 11.5583 25.6559C11.7043 23.0618 11.8951 19.7233 12.0747 16.745L11.376 16.7029ZM9.45745 16.8844C9.51311 16.9029 9.58294 16.9138 9.63434 16.9211C9.69536 16.9297 9.76964 16.9382 9.85183 16.9464C10.0167 16.9628 10.2246 16.9795 10.4447 16.9953C10.8854 17.0269 11.3846 17.0558 11.7061 17.0734L11.7445 16.3745C11.4241 16.3569 10.9296 16.3283 10.4948 16.2971C10.277 16.2814 10.0766 16.2653 9.92141 16.2498C9.84355 16.2421 9.77983 16.2347 9.73224 16.228C9.67503 16.2199 9.66564 16.2159 9.67881 16.2203L9.45745 16.8844ZM12.0029 3.51618V3.9373H12.7029V3.51618H12.0029ZM12.0029 3.9373V5.06917H12.7029V3.9373H12.0029ZM10.7082 5.61414C10.9797 5.83496 10.9797 5.83497 10.9797 5.83498C10.9797 5.83498 10.9797 5.83499 10.9797 5.83498C10.9797 5.83497 10.9798 5.83494 10.9798 5.8349C10.9799 5.83481 10.98 5.83465 10.9802 5.83442C10.9806 5.83396 10.9812 5.83323 10.982 5.83222C10.9836 5.83021 10.9861 5.82712 10.9895 5.82301C10.9963 5.81479 11.0064 5.80247 11.0197 5.78651C11.0462 5.75457 11.085 5.70808 11.134 5.65058C11.2319 5.53547 11.3695 5.37679 11.5283 5.20272C11.8512 4.84871 12.2424 4.45222 12.5598 4.21962L12.1461 3.65498C11.7679 3.9321 11.3367 4.37403 11.0111 4.73101C10.8456 4.91243 10.7025 5.07739 10.6008 5.19704C10.5498 5.25692 10.5091 5.30559 10.481 5.33948C10.4669 5.35642 10.456 5.36968 10.4485 5.3788C10.4448 5.38336 10.4419 5.38689 10.4399 5.38932C10.4389 5.39054 10.4381 5.39149 10.4376 5.39216C10.4373 5.39249 10.4371 5.39276 10.4369 5.39295C10.4369 5.39305 10.4368 5.39313 10.4368 5.39319C10.4367 5.39322 10.4367 5.39325 10.4367 5.39327C10.4367 5.39329 10.4366 5.39332 10.7082 5.61414ZM12.5598 4.21962C12.5645 4.21619 12.5691 4.2128 12.5738 4.20946L12.1639 3.64198C12.158 3.64628 12.152 3.65061 12.1461 3.65498L12.5598 4.21962ZM19.2942 3.51618V3.93745H19.9942V3.51618H19.2942ZM19.2942 3.93745V5.06917H19.9942V3.93745H19.2942ZM21.2887 5.61414C21.5603 5.39332 21.5602 5.39329 21.5602 5.39327C21.5602 5.39325 21.5602 5.39322 21.5602 5.39319C21.5601 5.39313 21.56 5.39305 21.56 5.39295C21.5598 5.39276 21.5596 5.39249 21.5593 5.39216C21.5588 5.39149 21.558 5.39054 21.557 5.38933C21.555 5.38689 21.5521 5.38336 21.5484 5.3788C21.5409 5.36968 21.53 5.35643 21.5159 5.33949C21.4878 5.30561 21.4471 5.25694 21.3962 5.19707C21.2944 5.07744 21.1513 4.91251 20.9859 4.73111C20.6604 4.37418 20.2293 3.9323 19.8511 3.65514L19.4373 4.21975C19.7547 4.45239 20.1459 4.84886 20.4687 5.20282C20.6275 5.37687 20.7651 5.53552 20.863 5.65062C20.9119 5.70811 20.9508 5.75459 20.9772 5.78652C20.9905 5.80248 21.0006 5.81479 21.0074 5.82301C21.0108 5.82713 21.0133 5.83021 21.0149 5.83222C21.0158 5.83323 21.0164 5.83396 21.0167 5.83442C21.0169 5.83465 21.017 5.83481 21.0171 5.8349C21.0172 5.83494 21.0172 5.83497 21.0172 5.83498C21.0172 5.83499 21.0172 5.83498 21.0172 5.83498C21.0172 5.83497 21.0172 5.83496 21.2887 5.61414ZM19.8511 3.65514C19.845 3.65072 19.839 3.64634 19.833 3.64198L19.4231 4.20946C19.4278 4.21284 19.4325 4.21627 19.4373 4.21975L19.8511 3.65514ZM18.0007 29.3235L17.9934 11.5429L17.2934 11.5431L17.3007 29.3238L18.0007 29.3235ZM19.5101 10.5601C19.5904 11.6042 19.6985 13.2562 19.8167 15.1698L20.5153 15.1266C20.3972 13.213 20.2888 11.5563 20.208 10.5064L19.5101 10.5601ZM19.8167 15.1698C19.8336 15.444 19.8507 15.7236 19.868 16.0075L20.5667 15.965C20.5494 15.6809 20.5323 15.4011 20.5153 15.1266L19.8167 15.1698ZM19.868 16.0075C19.8828 16.2506 19.8977 16.4968 19.9127 16.7456L20.6115 16.7034C20.5965 16.4546 20.5815 16.2082 20.5667 15.965L19.868 16.0075ZM19.9127 16.7456C20.0923 19.7238 20.2831 23.0621 20.4291 25.6561C20.5021 26.9531 20.5639 28.0639 20.6074 28.8504C20.6291 29.2437 20.6463 29.5559 20.6581 29.7697C20.664 29.8767 20.6685 29.959 20.6715 30.0147C20.6731 30.0425 20.6742 30.0636 20.675 30.0778C20.6754 30.0849 20.6757 30.0902 20.6759 30.0938C20.676 30.0956 20.676 30.0969 20.6761 30.0978C20.6761 30.0982 20.6761 30.0986 20.6761 30.0988C20.6761 30.0989 20.6761 30.099 20.6761 30.0991C20.6762 30.0991 20.6762 30.0991 21.0256 30.08C21.3751 30.0609 21.3751 30.0609 21.3751 30.0609C21.3751 30.0608 21.3751 30.0607 21.3751 30.0606C21.3751 30.0604 21.3751 30.06 21.375 30.0596C21.375 30.0587 21.3749 30.0573 21.3748 30.0555C21.3746 30.052 21.3743 30.0466 21.3739 30.0395C21.3732 30.0253 21.372 30.0042 21.3705 29.9764C21.3674 29.9207 21.3629 29.8383 21.357 29.7313C21.3453 29.5174 21.3281 29.2051 21.3063 28.8117C21.2628 28.025 21.201 26.914 21.128 25.6168C20.982 23.0225 20.7911 19.683 20.6115 16.7034L19.9127 16.7456ZM22.3181 16.2203C22.3313 16.2159 22.3217 16.2199 22.264 16.2281C22.216 16.2348 22.1517 16.2422 22.0732 16.2501C21.9167 16.2657 21.7148 16.2818 21.4957 16.2975C21.0581 16.3289 20.5614 16.3575 20.2429 16.375L20.2813 17.074C20.6009 17.0564 21.1022 17.0275 21.5457 16.9957C21.7671 16.9799 21.9765 16.9632 22.1426 16.9466C22.2254 16.9384 22.3002 16.9299 22.3616 16.9212C22.4134 16.9139 22.4836 16.903 22.5395 16.8844L22.3181 16.2203ZM16.0656 8.69929C16.2574 9.2573 16.4608 9.80494 16.677 10.322L17.3228 10.0521C17.114 9.55242 16.9158 9.01953 16.7276 8.4718L16.0656 8.69929ZM16.677 10.322C16.8839 10.8171 17.1034 11.2864 17.3366 11.7114L17.9503 11.3746C17.7319 10.9768 17.5229 10.5308 17.3228 10.0521L16.677 10.322ZM16.1806 9.77512C16.1334 9.77025 16.0859 9.76511 16.0381 9.75971L15.9595 10.4553C16.0096 10.4609 16.0593 10.4663 16.1087 10.4714L16.1806 9.77512ZM14.7726 9.14434C15.0871 9.53379 15.4978 9.96956 15.8967 10.3702L16.3927 9.87632C16.0001 9.48197 15.6092 9.06608 15.3171 8.70451L14.7726 9.14434ZM15.8967 10.3702C16.2802 10.7555 16.6585 11.1138 16.9404 11.3754C17.0815 11.5063 17.1988 11.6133 17.281 11.6877C17.322 11.7249 17.3544 11.754 17.3765 11.7738C17.3875 11.7838 17.3961 11.7914 17.4018 11.7965C17.4047 11.7991 17.407 11.8011 17.4085 11.8025C17.4092 11.8031 17.4098 11.8037 17.4102 11.804C17.4104 11.8042 17.4106 11.8043 17.4107 11.8044C17.4108 11.8045 17.4108 11.8045 17.4108 11.8046C17.4109 11.8046 17.4109 11.8046 17.4109 11.8046C17.4109 11.8046 17.4109 11.8046 17.6434 11.543C17.8759 11.2814 17.8759 11.2814 17.8759 11.2814C17.8759 11.2814 17.8759 11.2814 17.8759 11.2814C17.8759 11.2814 17.8759 11.2814 17.8759 11.2813C17.8758 11.2813 17.8757 11.2812 17.8755 11.281C17.8752 11.2808 17.8747 11.2803 17.8741 11.2797C17.8727 11.2785 17.8707 11.2767 17.868 11.2743C17.8626 11.2695 17.8544 11.2622 17.8438 11.2527C17.8225 11.2336 17.791 11.2053 17.7509 11.1689C17.6705 11.0961 17.5553 10.9911 17.4166 10.8623C17.1388 10.6045 16.7677 10.253 16.3927 9.87632L15.8967 10.3702Z" fill="#1E1E1E"/>
</svg>
