<svg width="32" height="32" viewBox="0 0 32 32" fill="none" xmlns="http://www.w3.org/2000/svg">
<path d="M17.1511 26.3749C18.2416 26.693 21.5937 26.8394 21.9365 26.8102C22.2204 26.7861 22.5043 26.6252 22.6406 26.3111C22.6284 26.4343 22.6214 26.554 22.6214 26.6667C22.6214 27.1239 22.7357 27.3525 23.1929 27.4667C23.65 27.581 25.8214 27.4667 26.1643 27.3525C26.5071 27.2382 26.7357 27.0096 26.7357 26.6667C26.7357 26.3239 26.674 25.938 26.5071 25.6381C26.6312 25.1832 26.7357 23.6953 26.6214 22.3238C26.5071 20.9524 26.3823 19.6969 26.1642 18.781C25.5928 16.381 25.8214 15.3525 25.1357 12.7239C24.7818 11.3676 23.7642 9.52388 22.2785 8.15246C21.1349 7.09678 19.9912 6.58285 18.8997 6.29791C18.8948 6.13713 18.8676 5.26837 18.8362 4.83809C18.8015 4.36278 18.3548 4.03809 18.0119 4.03809C18.0119 4.03809 17.5548 3.95238 16.869 4.03809C16.1833 4.12381 14.9262 4.03809 14.3548 4.03809C13.7833 4.03809 13.5394 4.36278 13.5048 4.83809C13.4701 5.31341 13.4405 6.391 13.4405 6.391C12.4496 6.69154 11.4208 7.2028 10.392 8.15246C8.90631 9.52388 7.8887 11.3676 7.53488 12.7239C6.84917 15.3525 7.07774 16.381 6.50631 18.781C6.28824 19.6969 6.16346 20.9524 6.04917 22.3238C5.93488 23.6953 6.03938 25.1832 6.16346 25.6381C5.99657 25.938 6.04916 26.3239 6.04916 26.6667C6.04916 27.0096 6.1634 27.2382 6.50625 27.3525C6.84911 27.4667 9.02053 27.581 9.47768 27.4667C9.93483 27.3525 10.0491 27.1239 10.0491 26.6667C10.0491 26.6458 10.0489 26.6246 10.0484 26.6031C10.2231 26.7239 10.4603 26.7878 10.7354 26.8228C11.1734 26.8784 14.4864 26.8109 17.1511 26.3749Z" fill="white"/>
<path d="M10.5069 13.2953C10.4875 15.2315 10.3151 18.0292 10.0496 19.2382C9.59247 21.32 9.86286 22.8565 10.0496 24.1525C9.87144 24.687 9.70685 25.4096 9.73165 25.981C9.74451 26.2773 9.86026 26.4731 10.0484 26.6031M22.1651 13.2953C22.1845 15.2315 22.1282 18.0292 22.3937 19.2382C22.8508 21.32 22.5804 22.8565 22.3936 24.1525C22.5799 24.7111 22.7879 25.6382 22.7051 26.0953C22.6908 26.174 22.6689 26.2459 22.6406 26.3111M17.1511 26.3749C18.2416 26.693 21.5937 26.8394 21.9365 26.8102C22.2204 26.7861 22.5043 26.6252 22.6406 26.3111M17.1511 26.3749C14.4864 26.8109 11.1734 26.8784 10.7354 26.8228C10.4603 26.7878 10.2231 26.7239 10.0484 26.6031M17.1511 26.3749C17.9631 26.2421 18.7148 26.075 19.3067 25.8667M16.3363 23.581C17.6825 23.4953 20.6792 22.781 20.6792 21.981C20.6792 21.6382 19.9935 21.5239 19.3077 21.6382M22.6406 26.3111C22.6284 26.4343 22.6214 26.554 22.6214 26.6667C22.6214 27.1239 22.7357 27.3525 23.1929 27.4667C23.65 27.581 25.8214 27.4667 26.1643 27.3525C26.5071 27.2382 26.7357 27.0096 26.7357 26.6667C26.7357 26.3239 26.674 25.938 26.5071 25.6381C26.6312 25.1832 26.7357 23.6953 26.6214 22.3238C26.5071 20.9524 26.3823 19.6969 26.1642 18.781C25.5928 16.381 25.8214 15.3525 25.1357 12.7239C24.7818 11.3676 23.7642 9.52388 22.2785 8.15246C21.1349 7.09678 19.9912 6.58285 18.8997 6.29791C18.8948 6.13713 18.8676 5.26837 18.8362 4.83809C18.8015 4.36278 18.3548 4.03809 18.0119 4.03809C18.0119 4.03809 17.5548 3.95238 16.869 4.03809C16.1833 4.12381 14.9262 4.03809 14.3548 4.03809C13.7833 4.03809 13.5394 4.36278 13.5048 4.83809C13.4701 5.31341 13.4405 6.391 13.4405 6.391C12.4496 6.69154 11.4208 7.2028 10.392 8.15246C8.90631 9.52388 7.8887 11.3676 7.53488 12.7239C6.84917 15.3525 7.07774 16.381 6.50631 18.781C6.28824 19.6969 6.16346 20.9524 6.04917 22.3238C5.93488 23.6953 6.03938 25.1832 6.16346 25.6381C5.99657 25.938 6.04916 26.3239 6.04916 26.6667C6.04916 27.0096 6.1634 27.2382 6.50625 27.3525C6.84911 27.4667 9.02053 27.581 9.47768 27.4667C9.93483 27.3525 10.0491 27.1239 10.0491 26.6667C10.0491 26.6458 10.0489 26.6246 10.0484 26.6031" stroke="#1E1E1E" stroke-width="0.8" stroke-linecap="round"/>
</svg>
