<svg width="32" height="32" viewBox="0 0 32 32" fill="none" xmlns="http://www.w3.org/2000/svg">
<path d="M27.1832 12.82C27.255 14.0438 27.7976 18.0491 27.7976 22.6456C27.7976 22.6456 27.9126 23.8558 27.6609 24.3399C27.4092 24.8239 27.0174 25.0594 26.243 25.3111C25.4685 25.5628 20.8122 26.0293 15.4509 26.1267C10.8599 26.2101 6.54212 25.8977 5.95625 25.8245C4.68624 25.6657 4.59353 24.3799 4.58358 24.0834C4.57363 23.7869 4.67278 23.4942 4.67278 23.4942C4.08433 21.8829 3.92885 21.1993 4.73034 19.7901C5.53182 18.3809 7.62753 17.2147 8.79375 16.6316C9.83822 16.1093 11.666 15.2897 14.1496 14.8501C14.1496 13.5364 14.1427 10.8557 14.1791 8.25871C14.0024 8.12817 13.4096 7.77396 13.4724 7.0988C13.5508 6.25485 14.1567 6.0413 14.5141 6.01683C14.8715 5.99237 18.9491 5.83857 20.7281 5.86144C22.5071 5.88431 25.5459 5.91473 26.3264 6.01683C27.1069 6.11894 27.34 6.83071 27.3531 7.17234C27.3663 7.51397 27.2373 8.25871 26.6575 8.25871C26.9248 10.1593 27.1114 11.5962 27.1832 12.82Z" fill="white" stroke="#1E1E1E" stroke-width="0.5184" stroke-linecap="round" stroke-linejoin="round"/>
<path d="M22.0186 23.1816C15.5595 23.6889 11.1828 23.6629 4.67193 23.4942C4.67193 23.4942 4.57279 23.7869 4.58273 24.0834C4.59268 24.3799 4.68539 25.6657 5.95541 25.8245C6.54127 25.8977 10.859 26.2101 15.4501 26.1267C20.8114 26.0293 25.4676 25.5628 26.2421 25.3111C27.0166 25.0594 27.4084 24.8239 27.6601 24.3399C27.9118 23.8558 27.7967 22.6456 27.7967 22.6456C25.6629 22.8684 23.7647 23.0445 22.0186 23.1816Z" fill="#F2EFEB"/>
<path d="M13.4715 7.0988C13.4088 7.77396 14.0016 8.12817 14.1782 8.25871C16.0151 8.19124 19.2283 8.10796 22.0151 8.10594C23.9907 8.1045 25.752 8.1439 26.6567 8.25871C27.2365 8.25871 27.3654 7.51397 27.3523 7.17234C27.3391 6.83071 27.1061 6.11894 26.3255 6.01683C25.545 5.91473 22.5062 5.88431 20.7272 5.86144C18.9482 5.83857 14.8707 5.99237 14.5133 6.01683C14.1559 6.0413 13.55 6.25485 13.4715 7.0988Z" fill="#F2EFEB"/>
<path d="M4.67278 23.4942C11.1837 23.6629 15.5603 23.6889 22.0194 23.1816M4.67278 23.4942C4.08433 21.8829 3.92885 21.1993 4.73034 19.7901C5.53182 18.3809 7.62753 17.2147 8.79375 16.6316C9.83822 16.1093 11.666 15.2897 14.1496 14.8501C14.1496 13.5364 14.1427 10.8557 14.1791 8.25871M4.67278 23.4942C4.67278 23.4942 4.57363 23.7869 4.58358 24.0834C4.59353 24.3799 4.68624 25.6657 5.95625 25.8245C6.54212 25.8977 10.8599 26.2101 15.4509 26.1267C20.8122 26.0293 25.4685 25.5628 26.243 25.3111C27.0174 25.0594 27.4092 24.8239 27.6609 24.3399C27.9126 23.8558 27.7976 22.6456 27.7976 22.6456M22.0194 23.1816C23.7655 23.0445 25.6638 22.8684 27.7976 22.6456M22.0194 23.1816C22.21 20.9843 22.0159 13.4833 22.0159 8.10594M27.7976 22.6456C27.7976 18.0491 27.255 14.0438 27.1832 12.82C27.1114 11.5962 26.9248 10.1593 26.6575 8.25871M22.0159 8.10594C19.2292 8.10796 16.0159 8.19124 14.1791 8.25871M22.0159 8.10594C23.9916 8.1045 25.7529 8.1439 26.6575 8.25871M14.1791 8.25871C14.0024 8.12817 13.4096 7.77396 13.4724 7.0988C13.5508 6.25485 14.1567 6.0413 14.5141 6.01683C14.8715 5.99237 18.9491 5.83857 20.7281 5.86144C22.5071 5.88431 25.5459 5.91473 26.3264 6.01683C27.1069 6.11894 27.34 6.83071 27.3531 7.17234C27.3663 7.51397 27.2373 8.25871 26.6575 8.25871" stroke="#1E1E1E" stroke-width="0.9" stroke-linecap="round" stroke-linejoin="round"/>
</svg>
