<svg width="32" height="33" viewBox="0 0 32 33" fill="none" xmlns="http://www.w3.org/2000/svg">
<path d="M16.0004 27.1731C13.2761 27.1731 10.7225 26.572 10.1719 26.4148C9.62123 26.2577 9.42845 25.7027 9.4001 25.1808C9.37252 24.6729 9.69649 19.357 9.71397 13.4494C10.685 12.6229 10.882 11.0002 10.8194 10.31C10.7468 9.50935 10.5124 8.77313 10.2632 8.37503C10.0139 7.97693 10.1026 7.54118 10.5124 7.17313C10.6558 7.04436 10.9485 6.81802 11.4706 6.44506C11.9928 6.07211 12.4044 6.0739 12.6598 6.29393C13.4821 5.96339 14.6713 5.8269 15.9856 5.8269C17.3052 5.8269 18.5128 5.96447 19.3355 6.29786C19.5918 6.07398 20.1029 6.28859 20.4821 6.49727C20.8613 6.70595 21.3395 7.04159 21.4859 7.17313C21.8957 7.54118 21.9845 7.97693 21.7352 8.37503C21.4859 8.77313 21.2516 9.50935 21.179 10.31C21.1163 11.0007 21.3136 12.6252 22.2864 13.4511C22.304 19.358 22.6279 24.6729 22.6003 25.1808C22.5719 25.7027 22.3791 26.2577 21.8285 26.4148C21.2779 26.572 18.7246 27.1731 16.0004 27.1731Z" fill="white"/>
<path d="M16.0004 27.1731C13.2761 27.1731 10.7225 26.572 10.1719 26.4148C9.62123 26.2577 9.42845 25.7027 9.4001 25.1808C9.37252 24.6729 9.69649 19.357 9.71397 13.4494C10.685 12.6229 10.882 11.0002 10.8194 10.31C10.7468 9.50935 10.5124 8.77313 10.2632 8.37503C10.0139 7.97693 10.1026 7.54118 10.5124 7.17313C10.6558 7.04436 10.9485 6.81802 11.4706 6.44506C11.9928 6.07211 12.4044 6.0739 12.6598 6.29393M16.0004 27.1731C18.7246 27.1731 21.2779 26.572 21.8285 26.4148C22.3791 26.2577 22.5719 25.7027 22.6003 25.1808C22.6279 24.6729 22.304 19.358 22.2864 13.4511C21.3136 12.6252 21.1163 11.0007 21.179 10.31C21.2516 9.50935 21.4859 8.77313 21.7352 8.37503C21.9845 7.97693 21.8957 7.54118 21.4859 7.17313C21.3395 7.04159 20.8613 6.70595 20.4821 6.49727C20.1029 6.28859 19.5918 6.07398 19.3355 6.29786M16.0004 27.1731L16.0006 8.43021M16.0006 8.43021C14.5144 8.43021 13.5726 7.55414 13.1279 6.90145C12.9573 6.65103 12.8187 6.43089 12.6598 6.29393M16.0006 8.43021C17.4867 8.43021 18.4272 7.55414 18.8719 6.90145C19.0409 6.65342 19.1785 6.43508 19.3355 6.29786M12.6598 6.29393C13.4821 5.96339 14.6713 5.8269 15.9856 5.8269C17.3052 5.8269 18.5128 5.96447 19.3355 6.29786" stroke="#1E1E1E" stroke-width="0.8" stroke-linecap="round"/>
</svg>
