<svg width="32" height="32" viewBox="0 0 32 32" fill="none" xmlns="http://www.w3.org/2000/svg">
<path d="M16.1434 26.3462C13.4192 26.3462 11.0948 25.7451 10.5442 25.5879C9.99358 25.4308 10.0294 25.3329 10.001 24.811C9.9755 24.3411 10.4362 19.3852 10.5283 13.9494C11.4875 12.0659 11.2752 10.5717 11.2282 10.1176C11.1779 9.63207 10.8484 8.16781 10.4076 7.54811C9.96677 6.9284 10.2471 6.71425 10.6568 6.34621C10.8096 6.20901 11.0678 6.03536 11.3339 5.85485C11.5999 5.67434 11.8772 5.5193 11.9713 5.46702C12.3583 5.25195 12.5979 5.29002 12.8033 5.46702C13.6257 5.13648 14.8149 5 16.1292 5C17.4487 5 18.6564 5.13757 19.4791 5.47096C19.648 5.32338 19.8396 5.26962 20.1172 5.37364C20.2607 5.42742 20.6551 5.65005 20.8967 5.82182C21.1382 5.99358 21.4777 6.20983 21.6295 6.34621C22.0393 6.71425 22.3196 6.9284 21.8788 7.54811C21.438 8.16781 21.1084 9.63207 21.0582 10.1176C21.0111 10.5719 20.7987 12.0672 21.7593 13.9518C21.8516 19.3866 22.3121 24.3412 22.2865 24.811C22.2582 25.3329 22.294 25.4308 21.7434 25.5879C21.1927 25.7451 18.8677 26.3462 16.1434 26.3462Z" fill="white"/>
<path d="M12.8033 5.46702C13.6257 5.13648 14.8149 5 16.1292 5C17.4487 5 18.6564 5.13757 19.4791 5.47096M12.8033 5.46702C12.9623 5.60398 13.1009 5.82413 13.2715 6.07454C13.7162 6.72724 14.658 7.60335 16.1441 7.60335C17.6303 7.60335 18.5708 6.72724 19.0155 6.07454C19.1845 5.82651 19.322 5.60818 19.4791 5.47096M12.8033 5.46702C12.5979 5.29002 12.3583 5.25195 11.9713 5.46702C11.8772 5.5193 11.5999 5.67434 11.3339 5.85485C11.0678 6.03536 10.8096 6.20901 10.6568 6.34621C10.2471 6.71425 9.96677 6.9284 10.4076 7.54811C10.8484 8.16781 11.1779 9.63207 11.2282 10.1176C11.2752 10.5717 11.4875 12.0659 10.5283 13.9494C10.4362 19.3852 9.9755 24.3411 10.001 24.811C10.0294 25.3329 9.99358 25.4308 10.5442 25.5879C11.0948 25.7451 13.4192 26.3462 16.1434 26.3462C18.8677 26.3462 21.1927 25.7451 21.7434 25.5879C22.294 25.4308 22.2582 25.3329 22.2865 24.811C22.3121 24.3412 21.8516 19.3866 21.7593 13.9518C20.7987 12.0672 21.0111 10.5719 21.0582 10.1176C21.1084 9.63207 21.438 8.16781 21.8788 7.54811C22.3196 6.9284 22.0393 6.71425 21.6295 6.34621C21.4777 6.20983 21.1382 5.99358 20.8967 5.82182C20.6551 5.65005 20.2607 5.42742 20.1172 5.37364C19.8396 5.26962 19.648 5.32338 19.4791 5.47096" stroke="#1E1E1E" stroke-width="0.8" stroke-linecap="round"/>
</svg>
