<svg width="32" height="32" viewBox="0 0 32 32" fill="none" xmlns="http://www.w3.org/2000/svg">
<path d="M16.0005 26.6397C18.6567 26.9682 21.6693 27.112 21.8294 27.032C21.9232 26.9852 22.0361 26.8616 22.1524 26.7085C22.0446 27.3791 22.1762 27.6045 22.629 27.7177C23.0861 27.832 25.4861 27.6034 25.829 27.4891C26.1718 27.3748 26.5129 27.0748 26.3995 26.6891C26.2862 26.3034 26.2865 26.3461 26.172 25.8891C26.0576 25.432 26.8578 22.5748 27.0864 21.6605C27.3149 20.7463 25.944 18.8034 25.829 17.7748C25.714 16.7463 25.6004 12.4034 25.0281 11.4891C24.4558 10.5748 23.658 9.66054 22.5149 8.86054C21.5762 8.20353 20.4828 7.54653 18.7931 6.82622C18.7931 6.82622 18.7635 5.56438 18.7289 5.08907C18.6942 4.61376 18.2474 4.28907 17.9046 4.28907C17.9046 4.28907 17.4474 4.20336 16.7617 4.28907C16.5716 4.31283 16.3025 4.32342 16.0005 4.32631C15.2134 4.33385 14.2033 4.28907 13.7903 4.28907C13.2189 4.28907 12.9749 4.61376 12.9403 5.08907C12.9056 5.56438 12.876 6.96923 12.876 6.96923C11.3711 7.63399 10.3601 8.24726 9.48384 8.86054C8.34078 9.66054 7.54297 10.5748 6.97065 11.4891C6.39832 12.4034 6.28473 16.7463 6.16975 17.7748C6.05478 18.8034 4.6838 20.7463 4.91237 21.6605C5.14094 22.5748 5.94118 25.432 5.8267 25.8891C5.71221 26.3461 5.71258 26.3034 5.59922 26.6891C5.48586 27.0748 5.82689 27.3748 6.16975 27.4891C6.51261 27.6034 8.9126 27.832 9.36975 27.7177C9.82345 27.6043 9.95463 27.3783 9.84574 26.7045C9.96305 26.8595 10.077 26.9848 10.1716 27.032C10.3318 27.112 13.3443 26.9682 16.0005 26.6397Z" fill="white"/>
<path d="M9.94381 13.5463C10.1722 14.232 10.6298 14.9177 10.6298 15.4891C10.6298 16.0606 9.02938 21.5463 8.80015 22.232C8.57092 22.9177 9.37184 23.9463 9.60041 24.2891C9.82898 24.632 9.14345 25.6606 9.37184 26.0034C9.50585 26.2046 9.67915 26.4845 9.84574 26.7045M22.0573 13.5463C21.8289 14.232 21.3713 14.9177 21.3713 15.4891C21.3713 16.0606 22.9717 21.5463 23.2009 22.232C23.4302 22.9177 22.6293 23.9463 22.4007 24.2891C22.1721 24.632 22.8576 25.6606 22.6292 26.0034C22.4944 26.2058 22.3199 26.4878 22.1524 26.7085M16.0005 23.7606C17.3467 23.6749 20.3434 22.9606 20.3434 22.1606C20.3434 21.8177 19.6577 21.7034 18.972 21.8177M16.0005 23.7606V26.6397M16.0005 23.7606V4.32631M16.0005 26.6397C18.6567 26.9682 21.6693 27.112 21.8294 27.032C21.9232 26.9852 22.0361 26.8616 22.1524 26.7085M16.0005 26.6397C13.3443 26.9682 10.3318 27.112 10.1716 27.032C10.077 26.9848 9.96305 26.8595 9.84574 26.7045M16.0005 26.6397C17.141 26.4987 18.2157 26.3237 18.9708 26.1177M16.0005 4.32631C15.2134 4.33385 14.2033 4.28907 13.7903 4.28907C13.2189 4.28907 12.9749 4.61376 12.9403 5.08907C12.9056 5.56438 12.876 6.96923 12.876 6.96923C11.3711 7.63399 10.3601 8.24726 9.48384 8.86054C8.34078 9.66054 7.54297 10.5748 6.97065 11.4891C6.39832 12.4034 6.28473 16.7463 6.16975 17.7748C6.05478 18.8034 4.6838 20.7463 4.91237 21.6605C5.14094 22.5748 5.94118 25.432 5.8267 25.8891C5.71221 26.3461 5.71258 26.3034 5.59922 26.6891C5.48586 27.0748 5.82689 27.3748 6.16975 27.4891C6.51261 27.6034 8.9126 27.832 9.36975 27.7177C9.82345 27.6043 9.95463 27.3783 9.84574 26.7045M16.0005 4.32631C16.3025 4.32342 16.5716 4.31283 16.7617 4.28907C17.4474 4.20336 17.9046 4.28907 17.9046 4.28907C18.2474 4.28907 18.6942 4.61376 18.7289 5.08907C18.7635 5.56438 18.7931 6.82622 18.7931 6.82622C20.4828 7.54653 21.5762 8.20353 22.5149 8.86054C23.658 9.66054 24.4558 10.5748 25.0281 11.4891C25.6004 12.4034 25.714 16.7463 25.829 17.7748C25.944 18.8034 27.3149 20.7463 27.0864 21.6605C26.8578 22.5748 26.0576 25.432 26.172 25.8891C26.2865 26.3461 26.2862 26.3034 26.3995 26.6891C26.5129 27.0748 26.1718 27.3748 25.829 27.4891C25.4861 27.6034 23.0861 27.832 22.629 27.7177C22.1762 27.6045 22.0446 27.3791 22.1524 26.7085" stroke="#1E1E1E" stroke-width="0.8" stroke-linecap="round"/>
</svg>
