<svg width="32" height="32" viewBox="0 0 32 32" fill="none" xmlns="http://www.w3.org/2000/svg">
<path d="M16.8177 25.4951C17.9082 25.8132 21.2277 25.9649 21.5705 25.9358C21.8541 25.9116 22.1377 25.751 22.2742 25.4375C22.2621 25.5604 22.2551 25.6798 22.2551 25.7922C22.2551 26.2494 22.3694 26.478 22.8266 26.5922C23.2837 26.7065 25.4551 26.5922 25.798 26.478C26.1409 26.3637 26.3694 26.1351 26.3694 25.7922C26.3694 25.4494 26.3077 25.0635 26.1408 24.7636C26.2649 24.3087 26.3694 22.8208 26.2551 21.4493C26.1408 20.0779 26.016 18.8224 25.7979 17.9065C25.2265 15.5065 25.4551 14.4779 24.7694 11.8494C24.4156 10.4931 23.3979 8.64938 21.9122 7.27795C21.5056 6.90264 21.1276 6.60609 20.6948 6.34338C20.262 6.08068 19.7731 5.80809 19.4772 5.9056C18.6536 5.52019 17.3803 5.36035 15.97 5.36035C14.5594 5.36035 13.2792 5.51756 12.4552 5.90313C12.1613 5.8091 11.5405 6.13417 11.1385 6.39393C10.7365 6.6537 10.499 6.84026 10.0248 7.27799C8.53913 8.64941 7.52151 10.4931 7.1677 11.8494C6.48198 14.478 6.71055 15.5065 6.13912 17.9065C5.92105 18.8224 5.79627 20.0779 5.68198 21.4494C5.5677 22.8208 5.67219 24.3087 5.79627 24.7636C5.62938 25.0635 5.68198 25.4494 5.68198 25.7923C5.68198 26.1351 5.79621 26.3637 6.13907 26.478C6.48192 26.5923 8.65334 26.7066 9.11049 26.5923C9.56764 26.478 9.68191 26.2494 9.68192 25.7923C9.68192 25.771 9.68167 25.7495 9.68119 25.7278C9.85603 25.8491 10.0936 25.9133 10.3694 25.9483C10.7636 25.9983 13.4869 25.9487 15.9703 25.6204C16.2573 25.5824 16.5411 25.5408 16.8177 25.4951Z" fill="white"/>
<path d="M10.1409 12.4208C10.1215 14.357 9.94909 17.1547 9.68361 18.3637C9.40333 19.6401 9.39654 20.7115 9.47629 21.6482M21.7991 12.4208C21.8185 14.357 21.7622 17.1547 22.0277 18.3637C22.3054 19.6283 22.3146 20.6916 22.2372 21.622M15.9703 25.6204C13.4869 25.9487 10.7636 25.9983 10.3694 25.9483C10.0936 25.9133 9.85603 25.8491 9.68119 25.7278M15.9703 25.6204C16.2573 25.5824 16.5411 25.5408 16.8177 25.4951C17.9082 25.8132 21.2277 25.9649 21.5705 25.9358C21.8541 25.9116 22.1377 25.751 22.2742 25.4375M15.9703 25.6204L15.9707 7.96364M15.9707 7.96364C14.4845 7.96364 13.5427 7.08757 13.098 6.43487C12.9017 6.14682 12.6874 5.9774 12.4552 5.90313M15.9707 7.96364C17.4568 7.96364 18.3973 7.08756 18.842 6.43487C19.0361 6.14997 19.2479 5.98113 19.4772 5.9056M22.2372 21.622C20.8865 21.3814 20.0467 19.6759 20.0467 17.9727M22.2372 21.622C22.1872 22.2234 22.101 22.7692 22.0276 23.278C22.2139 23.8367 22.4219 24.7637 22.3391 25.2208C22.3248 25.2999 22.3027 25.372 22.2742 25.4375M9.47629 21.6482C10.9594 21.5688 11.8939 19.7694 11.8939 17.9727M9.47629 21.6482C9.52661 22.2392 9.61138 22.7766 9.68365 23.278C9.50545 23.8126 9.34085 24.5351 9.36566 25.1066C9.37849 25.4022 9.49377 25.5978 9.68119 25.7278M12.4552 5.90313C13.2792 5.51756 14.5594 5.36035 15.97 5.36035C17.3803 5.36035 18.6536 5.52019 19.4772 5.9056M12.4552 5.90313C12.1613 5.8091 11.5405 6.13417 11.1385 6.39393C10.7365 6.6537 10.499 6.84026 10.0248 7.27799C8.53913 8.64941 7.52151 10.4931 7.1677 11.8494C6.48198 14.478 6.71055 15.5065 6.13912 17.9065C5.92105 18.8224 5.79627 20.0779 5.68198 21.4494C5.5677 22.8208 5.67219 24.3087 5.79627 24.7636C5.62938 25.0635 5.68198 25.4494 5.68198 25.7923C5.68198 26.1351 5.79621 26.3637 6.13907 26.478C6.48192 26.5923 8.65334 26.7066 9.11049 26.5923C9.56764 26.478 9.68191 26.2494 9.68192 25.7923C9.68192 25.771 9.68167 25.7495 9.68119 25.7278M19.4772 5.9056C19.7731 5.80809 20.262 6.08068 20.6948 6.34338C21.1276 6.60609 21.5056 6.90264 21.9122 7.27795C23.3979 8.64938 24.4156 10.4931 24.7694 11.8494C25.4551 14.4779 25.2265 15.5065 25.7979 17.9065C26.016 18.8224 26.1408 20.0779 26.2551 21.4493C26.3694 22.8207 26.2649 24.3087 26.1408 24.7636C26.3077 25.0635 26.3694 25.4494 26.3694 25.7922C26.3694 26.1351 26.1408 26.3637 25.798 26.4779C25.4551 26.5922 23.2837 26.7065 22.8266 26.5922C22.3694 26.4779 22.2551 26.2494 22.2551 25.7922C22.2551 25.6798 22.2621 25.5604 22.2742 25.4375" stroke="#1E1E1E" stroke-width="0.8" stroke-linecap="round"/>
</svg>
