<svg width="63" height="84" viewBox="0 0 63 84" fill="none" xmlns="http://www.w3.org/2000/svg">
<path d="M17.9033 27C18.1501 30.3318 17.759 33.863 17.2146 37.1763M31.4033 69C31.4033 72.3 29.8941 72.6607 28.7033 72.9C26.3033 73.3822 19.7043 73.067 17.6029 72.6C14.9029 72 14.9972 71.2299 14.7714 69.9C14.5456 68.5701 14.5036 65.885 14.9032 63.6C15.3028 61.315 15.9815 59.2256 16.1567 56.2993C16.3117 53.7103 15.3788 53.3027 15.356 48.8405C15.3425 46.2137 16.4356 41.9181 17.2146 37.1763M31.4033 69C31.4033 72.3 32.7872 72.6607 33.9779 72.9C36.3779 73.3822 42.9769 73.067 45.0783 72.6C47.7783 72 47.6841 71.2299 47.9099 69.9C48.1356 68.5701 48.1776 65.885 47.778 63.6C47.3785 61.315 46.6998 59.2256 46.5246 56.2993C46.3696 53.7103 47.3024 53.3027 47.3253 48.8405C47.3389 46.1781 46.2158 41.8012 45.4351 36.983M31.4033 69C31.6033 68.3 31.461 64.7402 31.701 58.5002C32.001 50.7002 31.101 46.2002 31.101 41.4002C31.101 38.885 31.4305 33.7339 31.701 28.7957M44.7779 27C44.5359 30.2671 44.9073 33.7259 45.4351 36.983M31.701 28.7957C31.8641 25.8172 32.059 23.7339 32.4493 21.9509C32.6223 21.1606 32.7242 19.9504 33.6518 19.0307C34.5794 18.1109 35.518 18.1287 36.218 17.9003C39.9912 16.6691 41.5195 14.1421 42.356 13.0464C42.785 12.4844 43.273 12.1098 43.7995 11.903M31.701 28.7957C31.239 25.1722 30.869 23.2302 30.6285 21.9509C30.388 20.6716 30.1819 19.6491 29.4948 19.0307C28.8077 18.4123 28.0693 18.3123 27.3012 18.1109C22.9999 16.9834 21.3332 14.2091 20.4456 13.0464C20.0122 12.4786 19.5186 12.1018 18.9859 11.8963M43.7995 11.903C39.9974 10.717 34.8172 10.3154 31.3625 10.3154C27.9141 10.3154 22.7858 10.7155 18.9859 11.8963M43.7995 11.903C44.6566 11.5662 45.8113 12.3048 46.5398 12.8645C47.2683 13.4242 48.0541 14.1516 48.6591 14.6957C49.4363 15.3947 50.069 16.0353 50.5424 16.5504C52.6867 18.8837 54.123 22.234 54.5589 25.6235C54.9948 29.0129 55.7824 30.5353 56.538 32.7376C57.2936 34.94 56.7681 36.2004 55.4492 36.9558C54.1304 37.7112 47.8348 38.5087 46.334 37.7533C45.9509 37.5604 45.6583 37.3023 45.4351 36.983M18.9859 11.8963C18.1329 11.5672 16.7789 12.4848 16.1018 13.0464C15.4246 13.6079 14.8269 14.1557 13.9461 14.9069C13.0654 15.6582 12.7519 16.0126 12.2576 16.5504C10.1133 18.8837 8.677 22.234 8.24112 25.6235C7.80525 29.0129 7.01758 30.5353 6.262 32.7376C5.50641 34.94 6.03189 36.2004 7.35075 36.9558C8.66961 37.7112 14.9652 38.5087 16.466 37.7533C16.7685 37.601 17.0146 37.408 17.2146 37.1763" stroke="#1E1E1E" stroke-width="0.6" stroke-linecap="round"/>
<path d="M34.9969 64.2C34.9969 63.8686 34.7282 63.6 34.3969 63.6C34.0655 63.6 33.7969 63.8686 33.7969 64.2C33.7969 64.5314 34.0655 64.8 34.3969 64.8C34.7282 64.8 34.9969 64.5314 34.9969 64.2Z" fill="#1E1E1E"/>
<path d="M34.9969 51C34.9969 50.6686 34.7282 50.4 34.3969 50.4C34.0655 50.4 33.7969 50.6686 33.7969 51C33.7969 51.3314 34.0655 51.6 34.3969 51.6C34.7282 51.6 34.9969 51.3314 34.9969 51Z" fill="#1E1E1E"/>
<path d="M34.9969 37.8C34.9969 37.4686 34.7282 37.2 34.3969 37.2C34.0655 37.2 33.7969 37.4686 33.7969 37.8C33.7969 38.1314 34.0655 38.4 34.3969 38.4C34.7282 38.4 34.9969 38.1314 34.9969 37.8Z" fill="#1E1E1E"/>
<path d="M34.9969 24.6C34.9969 24.2686 34.7282 24 34.3969 24C34.0655 24 33.7969 24.2686 33.7969 24.6C33.7969 24.9314 34.0655 25.2 34.3969 25.2C34.7282 25.2 34.9969 24.9314 34.9969 24.6Z" fill="#1E1E1E"/>
</svg>
