<svg width="63" height="84" viewBox="0 0 63 84" fill="none" xmlns="http://www.w3.org/2000/svg">
<path d="M44.9015 27C44.591 30.4778 44.6361 33.1032 44.7948 35.1522M31.4014 48.2348C31.4014 51.5348 32.9106 51.8956 34.1014 52.1348C36.5014 52.6171 41.3343 52.4205 43.083 52.1348C44.8316 51.8491 45.9673 49.6921 46.0188 47.5803C46.0703 45.4686 45.6552 42.4563 45.4007 40.1137C45.2687 38.8987 44.9658 37.3601 44.7948 35.1522M31.4014 48.2348C31.4014 51.5348 30.0572 51.8956 28.8665 52.1348C26.4665 52.6171 23.4671 52.5491 20.9314 52.1348C18.3958 51.7205 17.7563 50.1823 17.4236 49.2086C17.091 48.2348 16.9662 46.2712 17.0415 44.1411C17.0862 42.8771 17.6659 39.6217 17.9951 35.6735M31.4014 48.2348C31.4014 46.7898 31.4593 46.3537 31.6993 40.1137C31.9606 33.3196 31.6993 34.7991 31.6993 28.7957M18.0664 27C18.3287 29.9378 18.2207 32.9683 17.9951 35.6735M31.6993 28.7957C31.8624 25.8172 32.4389 22.4545 32.8292 20.6716C33.0022 19.8814 33.4725 19.1088 34.24 18.6732C35.0075 18.2376 35.62 18.1043 36.3559 17.8544C40.0286 16.6073 41.5298 14.1287 42.356 13.0464C42.785 12.4844 43.273 12.1098 43.7995 11.903M31.6993 28.7957C31.0993 24.0895 30.8876 21.7149 30.5204 20.6716C30.353 20.1961 30.0085 19.1088 29.3033 18.6732C28.598 18.2376 27.8267 18.2526 27.22 18.0894C22.9789 16.9484 21.3276 14.2018 20.4456 13.0464C20.0122 12.4786 19.5186 12.1018 18.9859 11.8963M43.7995 11.903C39.9974 10.717 34.8172 10.3154 31.3625 10.3154C27.9141 10.3154 22.7858 10.7155 18.9859 11.8963M43.7995 11.903C44.6566 11.5662 46.9894 13.0464 48.221 13.9834C49.4527 14.9204 49.6579 15.2737 50.9482 16.7106C52.2385 18.1475 54.123 22.234 54.5589 25.6235C54.9948 29.0129 55.7824 30.5353 56.538 32.7376C57.2936 34.94 56.7681 36.2004 55.4492 36.9558C54.1304 37.7112 47.8348 38.5087 46.334 37.7533C45.3771 37.2716 44.9532 36.3822 44.7948 35.1522M18.9859 11.8963C18.1329 11.5672 16.0152 12.8364 14.811 13.9068C13.6068 14.9772 13.0213 15.3842 11.2921 17.4061C9.56291 19.4281 8.677 22.234 8.24112 25.6235C7.80525 29.0129 7.01758 30.5353 6.262 32.7376C5.50641 34.94 6.03189 36.2004 7.35075 36.9558C8.66961 37.7112 14.9652 38.5087 16.466 37.7533C17.2819 37.3426 17.7952 36.6355 17.9951 35.6735" stroke="#1E1E1E" stroke-width="0.6" stroke-linecap="round"/>
<path d="M34.9969 48.5815C34.9969 48.2501 34.7282 47.9815 34.3969 47.9815C34.0655 47.9815 33.7969 48.2501 33.7969 48.5815C33.7969 48.9129 34.0655 49.1815 34.3969 49.1815C34.7282 49.1815 34.9969 48.9129 34.9969 48.5815Z" fill="#1E1E1E"/>
<path d="M34.9969 36.6C34.9969 36.2686 34.7282 36 34.3969 36C34.0655 36 33.7969 36.2686 33.7969 36.6C33.7969 36.9314 34.0655 37.2 34.3969 37.2C34.7282 37.2 34.9969 36.9314 34.9969 36.6Z" fill="#1E1E1E"/>
<path d="M34.9969 24.6C34.9969 24.2686 34.7282 24 34.3969 24C34.0655 24 33.7969 24.2686 33.7969 24.6C33.7969 24.9314 34.0655 25.2 34.3969 25.2C34.7282 25.2 34.9969 24.9314 34.9969 24.6Z" fill="#1E1E1E"/>
</svg>
