<svg width="63" height="84" viewBox="0 0 63 84" fill="none" xmlns="http://www.w3.org/2000/svg">
<path d="M44.7062 27C44.4281 30.1152 44.4353 32.5463 44.5538 34.492M31.2061 48.2348C31.2061 51.5348 32.7153 51.8956 33.9061 52.1348C36.3061 52.6171 41.139 52.4205 42.8876 52.1348C44.6363 51.8491 45.772 49.6921 45.8235 47.5803C45.875 45.4686 45.4599 42.4563 45.2054 40.1137C45.0606 38.7812 44.7103 37.0592 44.5538 34.492M31.2061 48.2348C31.2061 51.5348 29.8619 51.8956 28.6712 52.1348C26.2712 52.6171 23.2718 52.5491 20.7361 52.1348C18.2004 51.7205 17.561 50.1823 17.2283 49.2086C16.8957 48.2348 16.7709 46.2712 16.8462 44.1411C16.8961 42.7289 17.6138 38.8309 17.904 34.2583M31.2061 48.2348C31.2061 46.7898 31.2639 46.3537 31.5039 40.1137C31.7653 33.3196 31.5039 34.7991 31.5039 28.7957M17.8711 27C18.0885 29.4351 18.0515 31.9339 17.904 34.2583M31.5039 28.7957C31.6671 25.8172 32.2436 22.4545 32.6339 20.6716C32.8898 19.5028 33.0903 18.8112 33.8982 18.1678C34.7061 17.5243 36.1215 17.6697 36.6699 17.7328C37.8709 17.8711 38.7496 18.0001 39.3058 18.0001C40.5058 18.0001 41.3366 17.4001 41.8212 16.2001C42.0307 15.6814 42.315 14.8305 42.5734 13.645C42.674 12.646 43.1186 12.146 43.6025 11.9024M31.5039 28.7957C31.042 25.1722 30.7866 22.4808 30.3997 20.6716C30.284 20.1309 29.8849 19.0197 29.3377 18.3763C28.7904 17.7328 27.7181 17.536 27.2456 17.5779C25.2524 17.7548 23.8722 18.0001 23.1051 18.0001C21.9051 18.0001 21.0743 17.4001 20.5897 16.2001C20.3803 15.6814 20.096 14.8305 19.8375 13.645C19.7359 12.636 19.2834 12.1361 18.794 11.8953M18.794 11.8953C22.5936 10.7152 27.7198 10.3154 31.1671 10.3154C34.6214 10.3154 39.8006 10.7168 43.6025 11.9024M18.794 11.8953C18.1227 11.565 17.5506 11.8953 17.0701 12.2092C16.5897 12.5231 16.0441 12.9591 15.515 13.3753C13.9939 14.5719 12.8227 15.723 12.0623 16.5504C9.91796 18.8837 8.48169 22.234 8.04581 25.6235C7.60994 29.0129 6.82227 30.5353 6.06669 32.7376C5.3111 34.94 5.83658 36.2004 7.15544 36.9558C8.4743 37.7112 14.7699 38.5087 16.2707 37.7533C17.4458 37.1617 17.8191 35.9554 17.904 34.2583M43.6025 11.9024C44.2775 11.5627 45.3719 12.2118 45.6735 12.4225C45.9751 12.6332 46.9817 13.3057 47.9632 14.1338C48.9447 14.9619 49.6697 15.8133 50.3471 16.5504C52.4914 18.8837 53.9277 22.234 54.3636 25.6235C54.7994 29.0129 55.5871 30.5353 56.3427 32.7376C57.0983 34.94 56.5728 36.2004 55.2539 36.9558C53.9351 37.7112 47.6394 38.5087 46.1387 37.7533C45.0301 37.1952 44.6612 36.0402 44.5538 34.492" stroke="#1E1E1E" stroke-width="0.6" stroke-linecap="round"/>
<path d="M34.8094 48.5815C34.8094 48.2501 34.5407 47.9815 34.2094 47.9815C33.878 47.9815 33.6094 48.2501 33.6094 48.5815C33.6094 48.9129 33.878 49.1815 34.2094 49.1815C34.5407 49.1815 34.8094 48.9129 34.8094 48.5815Z" fill="#1E1E1E"/>
<path d="M34.8094 36.6C34.8094 36.2686 34.5407 36 34.2094 36C33.878 36 33.6094 36.2686 33.6094 36.6C33.6094 36.9314 33.878 37.2 34.2094 37.2C34.5407 37.2 34.8094 36.9314 34.8094 36.6Z" fill="#1E1E1E"/>
<path d="M34.8094 24.6C34.8094 24.2686 34.5407 24 34.2094 24C33.878 24 33.6094 24.2686 33.6094 24.6C33.6094 24.9314 33.878 25.2 34.2094 25.2C34.5407 25.2 34.8094 24.9314 34.8094 24.6Z" fill="#1E1E1E"/>
</svg>
