<svg width="63" height="84" viewBox="0 0 63 84" fill="none" xmlns="http://www.w3.org/2000/svg">
<path d="M44.503 27.0001C44.2296 30.0633 44.232 32.4652 44.3449 34.3944M31.003 48.2349C31.003 51.5349 32.5122 51.8957 33.7029 52.1349C36.1029 52.6171 40.9359 52.4206 42.6845 52.1349C44.4332 51.8492 45.5688 49.6922 45.6203 47.5804C45.6718 45.4687 45.2568 42.4564 45.0023 40.1138C44.8557 38.7644 44.4983 37.0157 44.3449 34.3944M31.003 48.2349C31.003 51.5349 29.6588 51.8957 28.4681 52.1349C26.068 52.6171 23.0686 52.5492 20.533 52.1349C17.9973 51.7206 17.3579 50.1824 17.0252 49.2087C16.6925 48.2349 16.5678 46.2713 16.6431 44.1412C16.6905 42.8002 17.3401 39.2174 17.6539 34.9441M31.003 48.2349C31.003 46.7899 31.0608 46.3538 31.3008 40.1138C31.5621 33.3197 31.3008 34.7992 31.3008 28.7958M17.668 27.0001C17.9069 29.6766 17.8385 32.4299 17.6539 34.9441M31.3008 28.7958C31.464 25.8173 32.0163 20.5464 32.4066 18.7634M31.3008 28.7958C30.7008 24.0896 30.136 20.4344 29.492 18.7634M32.4066 18.7634C32.4066 18.7634 33.6813 21.231 34.8907 22.1656C36.1001 23.1001 37.4294 22.1593 39.4001 19.8001C41.33 17.4898 43.8996 12.8735 44.505 11.8059M32.4066 18.7634C32.4066 18.7634 34.6221 16.0593 35.7583 14.5336C36.8945 13.0078 39.6063 9.64364 39.6063 9.64364M29.492 18.7634C29.492 18.7634 28.3192 21.231 27.1098 22.1655C25.9004 23.1001 24.1779 21.9984 22.6004 19.8001C21.056 17.648 18.1186 12.8828 17.4965 11.807M29.492 18.7634L25.3791 13.3632L22.3837 9.63286M22.3837 9.63286C24.5356 8.8082 27.5924 8.46631 30.9627 8.46631C34.3477 8.46631 37.4468 8.81118 39.6063 9.64364M22.3837 9.63286C21.613 8.84604 20.96 8.26604 19.9547 8.7045C18.9218 9.15505 18.337 9.53098 17.6881 10.0678C17.0392 10.6046 17.1585 11.2144 17.4597 11.7429C17.4708 11.7626 17.4831 11.784 17.4965 11.807M39.6063 9.64364C40.3815 8.85136 41.0359 8.26406 42.0457 8.70451C43.0787 9.15506 43.6635 9.53099 44.3124 10.0678C44.9613 10.6046 44.842 11.2144 44.5408 11.7429C44.5298 11.7623 44.5178 11.7833 44.505 11.8059M17.6539 34.9441C17.5296 36.3853 17.1267 37.2202 16.0675 37.7534C14.5668 38.5088 8.27117 37.7113 6.95231 36.9559C5.63346 36.2005 5.10798 34.9401 5.86356 32.7377C6.61914 30.5354 7.40681 29.013 7.84269 25.6236C8.27856 22.2341 9.71483 18.8838 11.8591 16.5505C12.9512 15.3623 14.8906 13.5063 17.4965 11.807M44.3449 34.3944C44.4292 36.0956 44.7586 37.1609 45.9356 37.7534C47.4363 38.5088 53.732 37.7113 55.0508 36.9559C56.3697 36.2005 56.8951 34.9401 56.1396 32.7377C55.384 30.5354 54.5963 29.013 54.1604 25.6236C53.7246 22.2341 52.2883 18.8838 50.144 16.5505C49.0517 15.362 47.1118 13.5055 44.505 11.8059" stroke="#1E1E1E" stroke-width="0.6" stroke-linecap="round"/>
<path d="M34.6063 48.5815C34.6063 48.2501 34.3376 47.9815 34.0063 47.9815C33.6749 47.9815 33.4062 48.2501 33.4062 48.5815C33.4062 48.9129 33.6749 49.1815 34.0063 49.1815C34.3376 49.1815 34.6063 48.9129 34.6063 48.5815Z" fill="#1E1E1E"/>
<path d="M34.6063 36.6C34.6063 36.2686 34.3376 36 34.0063 36C33.6749 36 33.4062 36.2686 33.4062 36.6C33.4062 36.9314 33.6749 37.2 34.0063 37.2C34.3376 37.2 34.6063 36.9314 34.6063 36.6Z" fill="#1E1E1E"/>
<path d="M34.6063 24.6C34.6063 24.2686 34.3376 24 34.0063 24C33.6749 24 33.4062 24.2686 33.4062 24.6C33.4062 24.9314 33.6749 25.2 34.0063 25.2C34.3376 25.2 34.6063 24.9314 34.6063 24.6Z" fill="#1E1E1E"/>
</svg>
