<svg width="63" height="84" viewBox="0 0 63 84" fill="none" xmlns="http://www.w3.org/2000/svg">
<path d="M44.9077 27C44.6823 29.5255 44.6443 31.6015 44.7012 33.3336M31.4076 48.2348C31.4076 51.5348 32.9169 51.8956 34.1076 52.1348C36.5076 52.6171 41.3405 52.4206 43.0892 52.1348C44.8379 51.8491 45.9735 49.6921 46.025 47.5803C46.0765 45.4686 45.6615 42.4563 45.407 40.1137C45.2414 38.59 44.8071 36.5572 44.7012 33.3336M31.4076 48.2348C31.4076 51.5348 30.0635 51.8956 28.8727 52.1348C26.4727 52.6171 23.4733 52.5491 20.9377 52.1348C18.402 51.7205 17.7625 50.1823 17.4299 49.2086C17.0972 48.2348 16.9725 46.2712 17.0478 44.1411C17.1033 42.5711 17.9842 37.9286 18.1853 32.7025M31.4076 48.2348C31.4076 46.7898 31.4655 46.3537 31.7055 40.1137C31.9668 33.3196 31.7055 34.7991 31.7055 28.7957M18.0727 27C18.2422 28.8998 18.257 30.8382 18.1853 32.7025M31.7055 28.7957C31.8687 25.8172 32.4452 22.4545 32.8355 20.6716C33.0085 19.8814 33.0899 19.2515 33.8698 18.7239C34.6497 18.1963 35.2829 18.2272 35.9979 17.9901C39.7301 16.7523 41.5299 14.1367 42.3622 13.0464C42.7912 12.4844 43.2792 12.1098 43.8057 11.903M31.7055 28.7957C31.2435 25.1722 30.9882 22.4808 30.6012 20.6716C30.4856 20.1309 30.3292 19.4063 29.8934 18.9204C29.4575 18.4346 28.4802 18.3781 27.8622 18.2438C23.1472 17.2187 21.3766 14.2579 20.4518 13.0464C20.0184 12.4786 19.5249 12.1018 18.9921 11.8963M4.82859 61.1257C6.54248 61.496 10.7506 62.1075 13.8717 61.5907M57.9839 61.1257C56.27 61.496 52.0619 62.1075 48.9408 61.5907M43.8057 11.903C40.0037 10.717 34.8235 10.3154 31.3687 10.3154C27.9204 10.3154 22.7921 10.7155 18.9921 11.8963M43.8057 11.903C44.6628 11.5662 45.6409 11.7155 46.334 11.903C47.0272 12.0904 48.1472 12.5345 48.7147 12.7748C50.5022 13.5316 51.7668 14.3541 52.7074 15.6C55.1049 18.7757 56.0072 23.1 56.0072 28.2C56.0072 33.3 55.978 37.5598 56.6945 43.4182C57.411 49.2766 59.5901 53.5504 59.9071 57C60.2241 60.4496 58.8476 62.9542 57.4877 63.5179C56.1278 64.0816 50.6074 64.3816 49.4074 64.0816C48.2074 63.7816 47.1412 61.4038 46.9409 58.534C46.7406 55.6641 47.8196 53.4258 47.0068 44.2469C46.6275 39.9635 45.3256 38.275 44.7012 33.3336M18.9921 11.8963C18.1392 11.5672 17.7921 11.6891 16.8017 11.8963C15.8113 12.1035 14.8519 12.4633 14.3099 12.6863C12.4097 13.468 11.0825 14.3053 10.1051 15.6C7.70758 18.7757 6.80527 23.1 6.80527 28.2C6.80527 33.3 6.83451 37.5598 6.11801 43.4182C5.40151 49.2766 3.22237 53.5504 2.90539 57C2.5884 60.4496 3.96486 62.9542 5.32478 63.5179C6.6847 64.0816 12.2051 64.3816 13.4051 64.0816C14.6051 63.7816 15.6713 61.4038 15.8716 58.534C16.0719 55.6641 14.9929 53.4258 15.8057 44.2469C16.2007 39.7861 17.5963 38.1396 18.1853 32.7025" stroke="#1E1E1E" stroke-width="0.6" stroke-linecap="round"/>
<path d="M34.9969 48.5815C34.9969 48.2501 34.7282 47.9815 34.3969 47.9815C34.0655 47.9815 33.7969 48.2501 33.7969 48.5815C33.7969 48.9129 34.0655 49.1815 34.3969 49.1815C34.7282 49.1815 34.9969 48.9129 34.9969 48.5815Z" fill="#1E1E1E"/>
<path d="M34.9969 36.6C34.9969 36.2686 34.7282 36 34.3969 36C34.0655 36 33.7969 36.2686 33.7969 36.6C33.7969 36.9314 34.0655 37.2 34.3969 37.2C34.7282 37.2 34.9969 36.9314 34.9969 36.6Z" fill="#1E1E1E"/>
<path d="M34.9969 24.6C34.9969 24.2686 34.7282 24 34.3969 24C34.0655 24 33.7969 24.2686 33.7969 24.6C33.7969 24.9314 34.0655 25.2 34.3969 25.2C34.7282 25.2 34.9969 24.9314 34.9969 24.6Z" fill="#1E1E1E"/>
</svg>
