<svg width="63" height="84" viewBox="0 0 63 84" fill="none" xmlns="http://www.w3.org/2000/svg">
<path d="M17.708 27C17.9548 30.3318 17.5637 33.863 17.0193 37.1763M31.208 69C31.208 72.3 29.6988 72.6607 28.508 72.9C26.108 73.3822 19.509 73.067 17.4076 72.6C14.7076 72 14.8019 71.2299 14.5761 69.9C14.3503 68.5701 14.3083 65.885 14.7079 63.6C15.1075 61.315 15.7862 59.2256 15.9613 56.2993C16.1163 53.7103 15.1835 53.3027 15.1607 48.8405C15.1472 46.2137 16.2403 41.9181 17.0193 37.1763M31.208 69C31.208 72.3 32.5919 72.6607 33.7826 72.9C36.1826 73.3822 42.7816 73.067 44.883 72.6C47.583 72 47.4887 71.2299 47.7145 69.9C47.9403 68.5701 47.9823 65.885 47.5827 63.6C47.1832 61.315 46.5045 59.2256 46.3293 56.2993C46.1743 53.7103 47.1071 53.3027 47.1299 48.8405C47.1436 46.1781 46.0205 41.8012 45.2398 36.983M31.208 69C31.408 68.3 31.2657 64.7402 31.5057 58.5002C31.8057 50.7002 30.9057 46.2002 30.9057 41.4002C30.9057 38.885 31.2352 33.7339 31.5057 28.7957M44.5826 27C44.3406 30.2671 44.712 33.7259 45.2398 36.983M31.5057 28.7957C31.6688 25.8172 32.098 23.108 32.4883 21.3251C32.7404 20.1735 33.0759 19.0764 33.9572 18.5382C34.8385 18.0001 35.4386 18.0001 36.476 18.0001C37.5134 18.0001 38.7585 18.0001 39.3058 18.0001C40.5058 18.0001 41.3366 17.4001 41.8212 16.2001C42.0307 15.6814 42.315 14.8305 42.5734 13.645C42.674 12.646 43.1186 12.146 43.6025 11.9024M31.5057 28.7957C31.0964 25.5855 30.8493 23.1068 30.5292 21.3251C30.38 20.4947 30.1762 19.9976 29.9032 19.4125C29.6302 18.8275 28.4211 17.7354 27.056 17.7744C25.6909 17.8134 23.8616 18.0001 23.1051 18.0001C21.9051 18.0001 21.0743 17.4001 20.5897 16.2001C20.3803 15.6814 20.096 14.8305 19.8375 13.645C19.7359 12.636 19.2834 12.1361 18.794 11.8953M18.794 11.8953C22.5936 10.7152 27.7198 10.3154 31.1671 10.3154C34.6214 10.3154 39.8006 10.7168 43.6025 11.9024M18.794 11.8953C18.1227 11.565 17.62 11.8953 17.0231 12.2956C16.4261 12.696 15.8413 13.1073 15.177 13.645C13.8197 14.7436 12.7653 15.7854 12.0623 16.5504C9.91796 18.8837 8.48169 22.234 8.04581 25.6235C7.60994 29.0129 6.82227 30.5353 6.06669 32.7376C5.3111 34.94 5.83658 36.2004 7.15544 36.9558C8.4743 37.7112 14.7699 38.5087 16.2707 37.7533C16.5732 37.601 16.8193 37.408 17.0193 37.1763M43.6025 11.9024C44.2775 11.5627 45.3284 12.308 45.9552 12.7109C46.5821 13.1138 47.1474 13.5628 47.7709 14.091C48.8709 15.0227 49.74 15.8898 50.3471 16.5504C52.4914 18.8837 53.9277 22.234 54.3636 25.6235C54.7994 29.0129 55.5871 30.5353 56.3427 32.7376C57.0983 34.94 56.5728 36.2004 55.2539 36.9558C53.9351 37.7112 47.6394 38.5087 46.1387 37.7533C45.7556 37.5604 45.463 37.3023 45.2398 36.983" stroke="#1E1E1E" stroke-width="0.6" stroke-linecap="round"/>
<path d="M34.8094 64.2C34.8094 63.8686 34.5407 63.6 34.2094 63.6C33.878 63.6 33.6094 63.8686 33.6094 64.2C33.6094 64.5314 33.878 64.8 34.2094 64.8C34.5407 64.8 34.8094 64.5314 34.8094 64.2Z" fill="#1E1E1E"/>
<path d="M34.8094 51C34.8094 50.6686 34.5407 50.4 34.2094 50.4C33.878 50.4 33.6094 50.6686 33.6094 51C33.6094 51.3314 33.878 51.6 34.2094 51.6C34.5407 51.6 34.8094 51.3314 34.8094 51Z" fill="#1E1E1E"/>
<path d="M34.8094 37.8C34.8094 37.4686 34.5407 37.2 34.2094 37.2C33.878 37.2 33.6094 37.4686 33.6094 37.8C33.6094 38.1314 33.878 38.4 34.2094 38.4C34.5407 38.4 34.8094 38.1314 34.8094 37.8Z" fill="#1E1E1E"/>
<path d="M34.8094 24.6C34.8094 24.2686 34.5407 24 34.2094 24C33.878 24 33.6094 24.2686 33.6094 24.6C33.6094 24.9314 33.878 25.2 34.2094 25.2C34.5407 25.2 34.8094 24.9314 34.8094 24.6Z" fill="#1E1E1E"/>
</svg>
