<svg width="63" height="84" viewBox="0 0 63 84" fill="none" xmlns="http://www.w3.org/2000/svg">
<path d="M17.9079 27C18.5529 34.2255 16.0618 40.8636 16.0846 45.3259C16.1075 49.7881 16.94 51.0943 16.0847 54.0047C15.2294 56.915 15.1434 59.0539 15.2294 60.282C15.2489 60.5602 15.3131 60.8364 15.4321 61.1042M31.4079 59.4C31.4079 62.7 29.8986 63.0607 28.7079 63.3C26.3079 63.7822 21.0742 63.767 18.9728 63.3C16.8843 62.8359 15.8385 62.0189 15.4321 61.1042M31.4079 59.4C31.4079 62.7 32.917 63.0607 34.1077 63.3C36.5077 63.7822 41.7414 63.767 43.8428 63.3C45.9281 62.8366 46.9739 62.0214 47.3816 61.1084M31.4079 59.4C31.6079 58.7 31.4672 55.9188 31.7072 49.6788C31.9685 42.8846 31.0975 42.8196 31.0975 36.8162C31.0975 34.301 31.4367 33.7339 31.7072 28.7957M44.9077 27C44.2627 34.2255 46.7538 40.8636 46.731 45.3259C46.7081 49.7881 45.8756 51.0943 46.7309 54.0047C47.5862 56.915 47.6722 59.0539 47.5862 60.282C47.5666 60.5617 47.5018 60.8393 47.3816 61.1084M31.7072 28.7957C31.8704 25.8172 32.4469 22.4545 32.8372 20.6716C33.0102 19.8813 33.3619 19.0902 34.1691 18.7078C34.9763 18.3254 35.6644 18.0949 36.4126 17.8371C40.0486 16.5845 41.5398 14.1237 42.3622 13.0464C42.7912 12.4844 43.2792 12.1098 43.8057 11.903M31.7072 28.7957C31.281 25.453 31.0307 22.9035 30.6907 21.108C30.552 20.3756 30.0692 19.43 29.5169 18.9627C28.9646 18.4954 27.8938 18.2795 27.0631 18.0443C22.9426 16.8776 21.3224 14.1868 20.4518 13.0464C20.0184 12.4786 19.5249 12.1018 18.9921 11.8963M4.82859 61.1257C6.54248 61.496 10.7506 62.1075 13.8717 61.5907M57.9839 61.1257C56.27 61.496 52.0619 62.1075 48.9408 61.5907M43.8057 11.903C40.0037 10.717 34.8235 10.3154 31.3687 10.3154C27.9204 10.3154 22.7921 10.7155 18.9921 11.8963M43.8057 11.903C44.6628 11.5662 45.6794 11.7508 46.5936 12.032C47.5078 12.3133 48.6579 12.7345 49.3266 13.0464C50.7965 13.7319 51.8779 14.5013 52.7074 15.6C55.1049 18.7757 56.0072 23.1 56.0072 28.2C56.0072 33.3 55.978 37.5598 56.6945 43.4182C57.411 49.2766 59.5901 53.5504 59.9071 57C60.2241 60.4496 58.8476 62.9542 57.4877 63.5179C56.1278 64.0816 50.6074 64.3816 49.4074 64.0816C48.5951 63.8786 47.8442 62.7236 47.3816 61.1084M18.9921 11.8963C18.1392 11.5672 17.066 11.6048 16.2206 11.8963C15.3752 12.1878 14.1546 12.7345 13.4859 13.0464C12.0161 13.7319 10.9346 14.5013 10.1051 15.6C7.70758 18.7757 6.80527 23.1 6.80527 28.2C6.80527 33.3 6.83451 37.5598 6.11801 43.4182C5.40151 49.2766 3.22237 53.5504 2.90539 57C2.5884 60.4496 3.96486 62.9542 5.32478 63.5179C6.6847 64.0816 12.2051 64.3816 13.4051 64.0816C14.2181 63.8784 14.9696 62.7216 15.4321 61.1042" stroke="#1E1E1E" stroke-width="0.6" stroke-linecap="round"/>
<path d="M34.9969 51C34.9969 50.6686 34.7282 50.4 34.3969 50.4C34.0655 50.4 33.7969 50.6686 33.7969 51C33.7969 51.3314 34.0655 51.6 34.3969 51.6C34.7282 51.6 34.9969 51.3314 34.9969 51Z" fill="#1E1E1E"/>
<path d="M34.9969 37.8C34.9969 37.4686 34.7282 37.2 34.3969 37.2C34.0655 37.2 33.7969 37.4686 33.7969 37.8C33.7969 38.1314 34.0655 38.4 34.3969 38.4C34.7282 38.4 34.9969 38.1314 34.9969 37.8Z" fill="#1E1E1E"/>
<path d="M34.9969 24.6C34.9969 24.2686 34.7282 24 34.3969 24C34.0655 24 33.7969 24.2686 33.7969 24.6C33.7969 24.9314 34.0655 25.2 34.3969 25.2C34.7282 25.2 34.9969 24.9314 34.9969 24.6Z" fill="#1E1E1E"/>
</svg>
