<svg width="63" height="84" viewBox="0 0 63 84" fill="none" xmlns="http://www.w3.org/2000/svg">
<path d="M17.5033 27.0001C18.1033 35.1001 14.9332 44.3783 14.956 48.8406M31.0033 69.0001C31.0033 72.3001 29.4941 72.6608 28.3033 72.9001C25.9033 73.3823 19.3043 73.0671 17.2029 72.6001C14.5029 72.0001 14.5972 71.23 14.3714 69.9001C14.1456 68.5702 14.1036 65.8851 14.5032 63.6001C14.6564 62.7241 14.8404 61.961 15.0315 61.0843M31.0033 69.0001C31.0033 72.3001 32.3872 72.6608 33.5779 72.9001C35.9779 73.3823 42.5769 73.0671 44.6783 72.6001C47.3783 72.0001 47.2841 71.23 47.5098 69.9001C47.7356 68.5702 47.7776 65.8851 47.378 63.6001C47.1959 62.5587 47.0439 61.558 46.8199 60.5002M31.0033 69.0001C31.2033 68.3001 31.061 64.7403 31.301 58.5003C31.601 50.7003 30.701 46.2003 30.701 41.4003C30.701 38.8851 31.0305 33.734 31.301 28.7958M44.3779 27.0001C43.7779 35.1001 46.9481 44.3783 46.9253 48.8406C46.9024 53.3028 45.9696 53.7104 46.1246 56.2994C46.2199 57.8921 46.5525 59.2369 46.8199 60.5002M31.301 28.7958C31.4641 25.8173 32.0148 20.5464 32.4051 18.7634M31.301 28.7958C30.701 24.0896 30.1344 20.4344 29.4905 18.7634M32.4051 18.7634C32.4051 18.7634 33.6797 21.231 34.8891 22.1656C36.0986 23.1001 37.4279 22.1593 39.3986 19.8001C41.3693 17.4409 44.0071 12.677 44.5393 11.7429C44.5903 11.6534 44.6361 11.5615 44.6738 11.468M32.4051 18.7634C32.4051 18.7634 34.6205 16.0593 35.7567 14.5336C36.8929 13.0078 39.6047 9.64363 39.6047 9.64363M29.4905 18.7634C29.4905 18.7634 28.3177 21.231 27.1082 22.1655C25.8988 23.1001 24.1764 21.9984 22.5988 19.8001C21.0212 17.6018 17.9903 12.677 17.4581 11.7429C17.4072 11.6536 17.3615 11.562 17.3238 11.4688M29.4905 18.7634L25.3775 13.3632L22.3821 9.63286M15.3995 44.247C14.5866 53.4259 15.6656 55.6642 15.4653 58.5341C15.4013 59.4517 15.2487 60.3191 15.0315 61.0843M4.42234 61.1258C6.13623 61.4961 10.3443 62.1076 13.4655 61.5908M57.5777 61.1258C55.8638 61.4961 51.6557 62.1076 48.5345 61.5908M22.3821 9.63286C24.5341 8.8082 27.5908 8.46631 30.9612 8.46631C34.3462 8.46631 37.4453 8.81118 39.6047 9.64363M22.3821 9.63286C21.6115 8.84604 20.9584 8.26604 19.9532 8.7045C18.9202 9.15505 18.3355 9.53098 17.6865 10.0678C17.1473 10.5139 17.1386 11.0104 17.3238 11.4688M39.6047 9.64363C40.38 8.85136 41.0344 8.26406 42.0442 8.70451C43.0771 9.15506 43.6619 9.53099 44.3108 10.0678C44.8498 10.5136 44.8588 11.0098 44.6738 11.468M15.0315 61.0843C14.5695 62.7121 13.8152 63.8776 12.9989 64.0817C11.7989 64.3817 6.27845 64.0817 4.91853 63.518C3.55861 62.9543 2.18215 60.4497 2.49914 57.0001C2.81612 53.5505 4.99526 49.2767 5.71176 43.4183C6.42826 37.5599 6.39902 33.3001 6.39902 28.2001C6.39902 23.1001 7.30133 18.7758 9.69883 15.6001C11.1793 13.639 13.4626 12.7272 17.3238 11.4688M46.8199 60.5002C47.2564 62.4289 48.0902 63.854 49.0011 64.0817C50.2011 64.3817 55.7215 64.0817 57.0815 63.518C58.4414 62.9543 59.8178 60.4497 59.5009 57.0001C59.1839 53.5505 57.0047 49.2767 56.2882 43.4183C55.5717 37.5599 55.601 33.3001 55.601 28.2001C55.601 23.1001 54.6987 18.7758 52.3012 15.6001C50.8204 13.6386 48.5365 12.7268 44.6738 11.468" stroke="#1E1E1E" stroke-width="0.6" stroke-linecap="round"/>
<path d="M34.6063 64.2C34.6063 63.8686 34.3376 63.6 34.0063 63.6C33.6749 63.6 33.4062 63.8686 33.4062 64.2C33.4062 64.5314 33.6749 64.8 34.0063 64.8C34.3376 64.8 34.6063 64.5314 34.6063 64.2Z" fill="#1E1E1E"/>
<path d="M34.6063 51C34.6063 50.6686 34.3376 50.4 34.0063 50.4C33.6749 50.4 33.4062 50.6686 33.4062 51C33.4062 51.3314 33.6749 51.6 34.0063 51.6C34.3376 51.6 34.6063 51.3314 34.6063 51Z" fill="#1E1E1E"/>
<path d="M34.6063 37.8C34.6063 37.4686 34.3376 37.2 34.0063 37.2C33.6749 37.2 33.4062 37.4686 33.4062 37.8C33.4062 38.1314 33.6749 38.4 34.0063 38.4C34.3376 38.4 34.6063 38.1314 34.6063 37.8Z" fill="#1E1E1E"/>
<path d="M34.6063 24.6C34.6063 24.2686 34.3376 24 34.0063 24C33.6749 24 33.4062 24.2686 33.4062 24.6C33.4062 24.9314 33.6749 25.2 34.0063 25.2C34.3376 25.2 34.6063 24.9314 34.6063 24.6Z" fill="#1E1E1E"/>
</svg>
