<svg width="64" height="84" viewBox="0 0 64 84" fill="none" xmlns="http://www.w3.org/2000/svg">
<path d="M45.2962 27.0001C45.2962 27.0001 46.0206 31.038 46.0208 34.0999C46.0209 35.9682 46.0873 37.1688 46.0985 38.2001M31.8671 39.7401C31.8671 43.0401 33.3057 43.2644 34.4965 43.5036C36.8965 43.9859 41.3191 43.7894 43.0678 43.5036C44.8165 43.2179 45.8427 41.7687 46.0209 40.0994C46.0903 39.4487 46.1056 38.8589 46.0985 38.2001M31.8671 39.7401C31.8671 43.0401 30.4572 43.2215 29.2664 43.4607C26.8664 43.943 23.867 43.875 21.3313 43.4607C18.7957 43.0464 18.1562 41.5082 17.8236 40.5345C17.5954 39.8666 17.4984 39.7867 17.4421 38.389M31.8671 39.7401C31.8671 37.4564 31.8579 37.7403 32.0979 31.5003V28.7958M18.4663 27.0001C18.4663 27.0001 17.3262 31.077 17.3816 35.4569C17.3991 36.8327 17.4163 37.749 17.4421 38.389M32.0979 28.7958C31.9157 27.3669 31.8129 25.144 31.2034 23.6182C30.2672 21.2746 28.3825 18.5542 27.2269 16.719C26.0714 14.8837 22.6153 10.8064 21.374 10.6071M32.0979 28.7958C32.162 27.6249 32.293 25.2995 32.9706 23.6182C34.0168 21.0226 36.6752 17.4327 37.4908 16.1412C38.3065 14.8497 40.9874 10.8064 42.2287 10.6071M5.21921 61.1258C6.93311 61.4961 11.1412 62.1076 14.2624 61.5908M58.3745 61.1258C56.6606 61.4961 52.4526 62.1076 49.3314 61.5908M21.374 10.6071C23.5326 9.56127 28.0005 8.46631 31.7592 8.46631C35.5178 8.46631 40.0701 9.56127 42.2287 10.6071M21.374 10.6071C20.6594 10.4923 20.1279 10.6884 19.2377 11.0163C18.3475 11.3443 17.2381 11.7077 15.2931 12.4499C13.3481 13.1921 11.8269 13.8368 10.4957 15.6001C8.09821 18.7758 7.1959 23.1001 7.1959 28.2001C7.1959 33.3001 7.22514 37.5599 6.50863 43.4183C5.79213 49.2767 3.613 53.5505 3.29601 57.0001C2.97903 60.4497 4.35549 62.9543 5.71541 63.518C7.07533 64.0817 12.5957 64.3817 13.7958 64.0817C14.9958 63.7817 16.0619 61.4039 16.2622 58.5341C16.4625 55.6642 15.3835 53.4259 16.1963 44.247C16.4117 41.8145 16.9247 40.2188 17.4421 38.389M42.2287 10.6071C42.9433 10.4924 43.5119 10.6397 44.6113 11.0523C45.7106 11.4649 47.0404 11.8918 49.0418 12.8366C51.0431 13.7814 53.7327 16.1412 54.8998 18.7545C56.067 21.3679 56.3979 23.1001 56.3979 28.2001C56.3979 33.3001 56.3686 37.5599 57.0851 43.4183C57.8016 49.2767 59.9808 53.5505 60.2977 57.0001C60.6147 60.4497 59.2383 62.9543 57.8783 63.518C56.5184 64.0817 50.998 64.3817 49.798 64.0817C48.598 63.7817 47.5319 61.4039 47.3316 58.5341C47.1313 55.6642 48.2103 53.4259 47.3974 44.247C47.1746 41.7311 46.6336 40.1105 46.0985 38.2001" stroke="#1E1E1E" stroke-width="0.6" stroke-linecap="round"/>
<path d="M35.4031 37.8C35.4031 37.4686 35.1345 37.2 34.8031 37.2C34.4718 37.2 34.2031 37.4686 34.2031 37.8C34.2031 38.1314 34.4718 38.4 34.8031 38.4C35.1345 38.4 35.4031 38.1314 35.4031 37.8Z" fill="#1E1E1E"/>
<path d="M35.4031 24.6C35.4031 24.2686 35.1345 24 34.8031 24C34.4718 24 34.2031 24.2686 34.2031 24.6C34.2031 24.9314 34.4718 25.2 34.8031 25.2C35.1345 25.2 35.4031 24.9314 35.4031 24.6Z" fill="#1E1E1E"/>
</svg>
