<svg width="63" height="84" viewBox="0 0 63 84" fill="none" xmlns="http://www.w3.org/2000/svg">
<path d="M44.4993 27.0001C44.4993 27.0001 45.2237 31.038 45.2239 34.0999C45.224 35.9682 45.2904 37.1688 45.3016 38.2001M31.0702 39.7401C31.0702 43.0401 32.5088 43.2644 33.6996 43.5036C36.0996 43.9859 40.5223 43.7894 42.2709 43.5036C44.0196 43.2179 45.0458 41.7687 45.224 40.0994C45.2934 39.4487 45.3088 38.8589 45.3016 38.2001M31.0702 39.7401C31.0702 43.0401 29.6603 43.2215 28.4695 43.4607C26.0695 43.943 23.0701 43.875 20.5345 43.4607C17.9988 43.0464 17.3593 41.5082 17.0267 40.5345C16.7985 39.8666 16.7015 39.7867 16.6452 38.389M31.0702 39.7401C31.0702 37.4564 31.061 37.7403 31.301 31.5003V28.7958M17.6694 27.0001C17.6694 27.0001 16.5293 31.077 16.5848 35.4569C16.6022 36.8326 16.6194 37.749 16.6452 38.389M31.301 28.7958C31.4641 25.8173 32.0148 20.5464 32.4051 18.7634M31.301 28.7958C30.701 24.0896 30.1344 20.4344 29.4905 18.7634M32.4051 18.7634C32.4051 18.7634 33.6797 21.231 34.8891 22.1656C36.0986 23.1001 37.4279 22.1593 39.3986 19.8001C41.3693 17.4409 44.0071 12.677 44.5393 11.7429C44.5903 11.6534 44.6361 11.5615 44.6738 11.468M32.4051 18.7634C32.4051 18.7634 34.6205 16.0593 35.7567 14.5336C36.8929 13.0078 39.6047 9.64363 39.6047 9.64363M29.4905 18.7634C29.4905 18.7634 28.3177 21.231 27.1082 22.1655C25.8988 23.1001 24.1764 21.9984 22.5988 19.8001C21.0212 17.6018 17.9903 12.677 17.4581 11.7429C17.4072 11.6536 17.3615 11.562 17.3238 11.4688M29.4905 18.7634L25.3775 13.3632L22.3821 9.63286M4.42234 61.1258C6.13623 61.4961 10.3443 62.1076 13.4655 61.5908M57.5777 61.1258C55.8638 61.4961 51.6557 62.1076 48.5345 61.5908M22.3821 9.63286C24.5341 8.8082 27.5908 8.46631 30.9612 8.46631C34.3462 8.46631 37.4453 8.81118 39.6047 9.64363M22.3821 9.63286C21.6115 8.84604 20.9584 8.26604 19.9532 8.7045C18.9202 9.15505 18.3355 9.53098 17.6865 10.0678C17.1473 10.5139 17.1386 11.0104 17.3238 11.4688M39.6047 9.64363C40.38 8.85136 41.0344 8.26406 42.0442 8.70451C43.0771 9.15506 43.6619 9.53099 44.3108 10.0678C44.8498 10.5136 44.8588 11.0098 44.6738 11.468M17.3238 11.4688C13.4626 12.7272 11.1793 13.639 9.69883 15.6001C7.30133 18.7758 6.39902 23.1001 6.39902 28.2001C6.39902 33.3001 6.42826 37.5599 5.71176 43.4183C4.99526 49.2767 2.81612 53.5505 2.49914 57.0001C2.18215 60.4497 3.55861 62.9543 4.91853 63.518C6.27845 64.0817 11.7989 64.3817 12.9989 64.0817C14.1989 63.7817 15.265 61.4039 15.4653 58.5341C15.6656 55.6642 14.5866 53.4259 15.3995 44.247C15.6149 41.8145 16.1278 40.2188 16.6452 38.389M44.6738 11.468C48.5365 12.7268 50.8204 13.6386 52.3012 15.6001C54.6987 18.7758 55.601 23.1001 55.601 28.2001C55.601 33.3001 55.5717 37.5599 56.2882 43.4183C57.0047 49.2767 59.1839 53.5505 59.5009 57.0001C59.8178 60.4497 58.4414 62.9543 57.0815 63.518C55.7215 64.0817 50.2011 64.3817 49.0011 64.0817C47.8011 63.7817 46.735 61.4039 46.5347 58.5341C46.3344 55.6642 47.4134 53.4259 46.6005 44.247C46.3778 41.7311 45.8367 40.1105 45.3016 38.2001" stroke="#1E1E1E" stroke-width="0.6" stroke-linecap="round"/>
<path d="M34.6063 37.8C34.6063 37.4686 34.3376 37.2 34.0063 37.2C33.6749 37.2 33.4062 37.4686 33.4062 37.8C33.4062 38.1314 33.6749 38.4 34.0063 38.4C34.3376 38.4 34.6063 38.1314 34.6063 37.8Z" fill="#1E1E1E"/>
<path d="M34.6063 24.6C34.6063 24.2686 34.3376 24 34.0063 24C33.6749 24 33.4062 24.2686 33.4062 24.6C33.4062 24.9314 33.6749 25.2 34.0063 25.2C34.3376 25.2 34.6063 24.9314 34.6063 24.6Z" fill="#1E1E1E"/>
</svg>
