<svg width="63" height="84" viewBox="0 0 63 84" fill="none" xmlns="http://www.w3.org/2000/svg">
<path d="M17.5049 27.0001C17.7517 30.3319 17.3606 33.8631 16.8162 37.1764M31.0049 69.0001C31.0049 72.3001 29.4956 72.6608 28.3049 72.9001C25.9049 73.3823 19.3059 73.0671 17.2045 72.6001C14.5045 72.0001 14.5988 71.23 14.373 69.9001C14.1472 68.5702 14.1052 65.8851 14.5048 63.6001C14.9044 61.3151 15.583 59.2257 15.7582 56.2994C15.9132 53.7104 14.9804 53.3028 14.9576 48.8406C14.9441 46.2138 16.0371 41.9182 16.8162 37.1764M31.0049 69.0001C31.0049 72.3001 32.3887 72.6608 33.5795 72.9001C35.9795 73.3823 42.5785 73.0671 44.6799 72.6001C47.3799 72.0001 47.2856 71.23 47.5114 69.9001C47.7372 68.5702 47.7792 65.8851 47.3796 63.6001C46.98 61.3151 46.3013 59.2257 46.1262 56.2994C45.9712 53.7104 46.904 53.3028 46.9268 48.8406C46.9404 46.1782 45.8174 41.8013 45.0366 36.9831M31.0049 69.0001C31.2049 68.3001 31.0625 64.7403 31.3025 58.5003C31.6025 50.7003 30.7025 46.2003 30.7025 41.4003C30.7025 38.8851 31.032 33.734 31.3025 28.7958M44.3795 27.0001C44.1375 30.2672 44.5088 33.726 45.0366 36.9831M31.3025 28.7958C31.4657 25.8173 32.0163 20.5464 32.4066 18.7634M31.3025 28.7958C30.7025 24.0896 30.136 20.4344 29.492 18.7634M32.4066 18.7634C32.4066 18.7634 33.6813 21.231 34.8907 22.1656C36.1001 23.1001 37.4294 22.1593 39.4001 19.8001C41.3299 17.4899 43.8995 12.8736 44.505 11.806M32.4066 18.7634C32.4066 18.7634 34.6221 16.0593 35.7583 14.5336C36.8945 13.0078 39.6063 9.64364 39.6063 9.64364M29.492 18.7634C29.492 18.7634 28.3192 21.231 27.1098 22.1655C25.9004 23.1001 24.1779 21.9984 22.6004 19.8001C21.056 17.648 18.1186 12.8828 17.4965 11.807M29.492 18.7634L25.3791 13.3632L22.3837 9.63286M22.3837 9.63286C24.5356 8.8082 27.5924 8.46631 30.9627 8.46631C34.3477 8.46631 37.4468 8.81118 39.6063 9.64364M22.3837 9.63286C21.613 8.84604 20.96 8.26604 19.9547 8.7045C18.9218 9.15505 18.337 9.53098 17.6881 10.0678C17.0392 10.6046 17.1585 11.2144 17.4597 11.7429C17.4708 11.7626 17.4831 11.784 17.4965 11.807M39.6063 9.64364C40.3815 8.85136 41.0359 8.26406 42.0457 8.70451C43.0787 9.15506 43.6635 9.53099 44.3124 10.0678C44.9613 10.6046 44.842 11.2144 44.5408 11.7429C44.5298 11.7623 44.5178 11.7833 44.505 11.806M16.8162 37.1764C16.6161 37.4081 16.3701 37.6011 16.0675 37.7534C14.5668 38.5088 8.27117 37.7113 6.95231 36.9559C5.63346 36.2005 5.10798 34.9401 5.86356 32.7377C6.61914 30.5354 7.40681 29.013 7.84269 25.6236C8.27856 22.2341 9.71483 18.8838 11.8591 16.5505C12.9512 15.3623 14.8906 13.5063 17.4965 11.807M45.0366 36.9831C45.2599 37.3024 45.5525 37.5605 45.9356 37.7534C47.4363 38.5088 53.732 37.7113 55.0508 36.9559C56.3697 36.2005 56.8951 34.9401 56.1396 32.7377C55.384 30.5354 54.5963 29.013 54.1604 25.6236C53.7246 22.2341 52.2883 18.8838 50.144 16.5505C49.0517 15.362 47.1117 13.5056 44.505 11.806" stroke="#1E1E1E" stroke-width="0.6" stroke-linecap="round"/>
<path d="M34.6063 64.2C34.6063 63.8686 34.3376 63.6 34.0063 63.6C33.6749 63.6 33.4062 63.8686 33.4062 64.2C33.4062 64.5314 33.6749 64.8 34.0063 64.8C34.3376 64.8 34.6063 64.5314 34.6063 64.2Z" fill="#1E1E1E"/>
<path d="M34.6063 51C34.6063 50.6686 34.3376 50.4 34.0063 50.4C33.6749 50.4 33.4062 50.6686 33.4062 51C33.4062 51.3314 33.6749 51.6 34.0063 51.6C34.3376 51.6 34.6063 51.3314 34.6063 51Z" fill="#1E1E1E"/>
<path d="M34.6063 37.8C34.6063 37.4686 34.3376 37.2 34.0063 37.2C33.6749 37.2 33.4062 37.4686 33.4062 37.8C33.4062 38.1314 33.6749 38.4 34.0063 38.4C34.3376 38.4 34.6063 38.1314 34.6063 37.8Z" fill="#1E1E1E"/>
<path d="M34.6063 24.6C34.6063 24.2686 34.3376 24 34.0063 24C33.6749 24 33.4062 24.2686 33.4062 24.6C33.4062 24.9314 33.6749 25.2 34.0063 25.2C34.3376 25.2 34.6063 24.9314 34.6063 24.6Z" fill="#1E1E1E"/>
</svg>
