<svg width="63" height="84" viewBox="0 0 63 84" fill="none" xmlns="http://www.w3.org/2000/svg">
<path d="M31.0014 48.2349C31.0014 51.5349 32.5106 51.8957 33.7014 52.1349C36.1014 52.6171 40.9343 52.4206 42.683 52.1349C44.4316 51.8492 45.5673 49.6921 45.6188 47.5804C45.6703 45.4687 45.2552 42.4564 45.0007 40.1138C44.8352 38.5901 44.4008 36.5572 44.295 33.3337C44.9194 38.2751 46.2212 39.9636 46.6005 44.247C47.4134 53.4259 46.3344 55.6642 46.5347 58.5341C46.735 61.4039 47.8011 63.7817 49.0011 64.0817C50.2011 64.3817 55.7215 64.0817 57.0815 63.518C58.4414 62.9543 59.8178 60.4497 59.5009 57.0001C59.1839 53.5505 57.0047 49.2767 56.2882 43.4183C55.5717 37.5599 55.601 33.3001 55.601 28.2001C55.601 23.1001 54.6987 18.7758 52.3012 15.6001C50.8204 13.6386 48.5365 12.7268 44.6738 11.468M31.0014 48.2349C31.0014 51.5349 29.6572 51.8957 28.4665 52.1349C26.0665 52.6171 23.0671 52.5492 20.5314 52.1349C17.9958 51.7206 17.3563 50.1824 17.0236 49.2087C16.691 48.2349 16.5662 46.2713 16.6415 44.1412C16.6953 42.6187 17.5526 37.6674 17.7862 32.6361C17.2014 38.1263 15.7961 39.7681 15.3995 44.247C14.5866 53.4259 15.6656 55.6642 15.4653 58.5341C15.265 61.4039 14.1989 63.7817 12.9989 64.0817C11.7989 64.3817 6.27845 64.0817 4.91853 63.518C3.55861 62.9543 2.18215 60.4497 2.49914 57.0001C2.81612 53.5505 4.99526 49.2767 5.71176 43.4183C6.42826 37.5599 6.39902 33.3001 6.39902 28.2001C6.39902 23.1001 7.30133 18.7758 9.69883 15.6001C11.1793 13.639 13.4626 12.7272 17.3238 11.4688M31.0014 48.2349C31.0014 46.7899 31.2987 43.0585 31.2993 40.1138C31.2998 37.1692 31.2998 32.8527 31.2998 31.5004V28.7959M4.42234 61.1258C6.13623 61.4961 10.3443 62.1076 13.4655 61.5908M57.5777 61.1258C55.8638 61.4961 51.6557 62.1076 48.5345 61.5908M22.3821 9.63286L25.3775 13.3632L29.4893 18.7635M22.3821 9.63286C24.5341 8.8082 27.5908 8.46631 30.9612 8.46631C34.3462 8.46631 37.4453 8.81118 39.6047 9.64363M22.3821 9.63286C21.6115 8.84604 20.9584 8.26604 19.9532 8.7045C18.9202 9.15505 18.3355 9.53098 17.6865 10.0678C17.1473 10.5139 17.1386 11.0104 17.3238 11.4688M39.6047 9.64363C39.6047 9.64363 36.8918 13.0079 35.7556 14.5337C34.6194 16.0594 32.4039 18.7635 32.4039 18.7635M39.6047 9.64363C40.38 8.85136 41.0344 8.26406 42.0442 8.70451C43.0771 9.15506 43.6619 9.53099 44.3108 10.0678C44.8498 10.5136 44.8588 11.0098 44.6738 11.468M17.3238 11.4688C17.3615 11.562 17.4072 11.6536 17.4581 11.7429C17.9903 12.677 21.0201 17.6019 22.5977 19.8002C24.1752 21.9985 25.8977 23.1002 27.1071 22.1657C28.3165 21.2311 29.4893 18.7635 29.4893 18.7635M44.6738 11.468C44.6361 11.5615 44.5903 11.6534 44.5393 11.7429C44.0071 12.677 41.3681 17.441 39.3974 19.8002C37.4267 22.1595 36.0974 23.1002 34.888 22.1657C33.6786 21.2311 32.4039 18.7635 32.4039 18.7635M31.2998 28.7959C31.463 25.8174 32.0136 20.5465 32.4039 18.7635M31.2998 28.7959C30.6998 24.0897 30.1333 20.4345 29.4893 18.7635" stroke="#1E1E1E" stroke-width="0.6" stroke-linecap="round"/>
<path d="M34.6063 48.5815C34.6063 48.2501 34.3376 47.9815 34.0063 47.9815C33.6749 47.9815 33.4062 48.2501 33.4062 48.5815C33.4062 48.9129 33.6749 49.1815 34.0063 49.1815C34.3376 49.1815 34.6063 48.9129 34.6063 48.5815Z" fill="#1E1E1E"/>
<path d="M34.6063 36.6C34.6063 36.2686 34.3376 36 34.0063 36C33.6749 36 33.4062 36.2686 33.4062 36.6C33.4062 36.9314 33.6749 37.2 34.0063 37.2C34.3376 37.2 34.6063 36.9314 34.6063 36.6Z" fill="#1E1E1E"/>
<path d="M34.6063 24.6C34.6063 24.2686 34.3376 24 34.0063 24C33.6749 24 33.4062 24.2686 33.4062 24.6C33.4062 24.9314 33.6749 25.2 34.0063 25.2C34.3376 25.2 34.6063 24.9314 34.6063 24.6Z" fill="#1E1E1E"/>
</svg>
