<svg width="63" height="84" viewBox="0 0 63 84" fill="none" xmlns="http://www.w3.org/2000/svg">
<path d="M44.5009 27.0001C44.5009 27.0001 45.2252 31.038 45.2255 34.0999C45.2255 35.4442 45.2599 36.4428 45.2834 37.2814M31.0717 39.7401C31.0717 43.0401 32.5104 43.2644 33.7011 43.5036C36.1011 43.9859 40.5238 43.7894 42.2725 43.5036C44.0212 43.2179 45.0474 41.7687 45.2256 40.0994C45.3255 39.163 45.3134 38.3528 45.2834 37.2814M31.0717 39.7401C31.0717 43.0401 29.6619 43.2215 28.4711 43.4607C26.0711 43.943 23.0717 43.875 20.536 43.4607C18.0004 43.0464 17.3609 41.5082 17.0282 40.5345C16.7546 39.7333 16.6696 39.7783 16.6172 37.3801M31.0717 39.7401C31.0717 37.4564 31.0625 37.7403 31.3025 31.5003V28.7958M17.671 27.0001C17.671 27.0001 16.5309 31.077 16.5863 35.4569C16.5962 36.2333 16.6059 36.8634 16.6172 37.3801M31.3025 28.7958C31.4657 25.8173 32.0163 20.5464 32.4066 18.7634M31.3025 28.7958C30.7025 24.0896 30.136 20.4344 29.492 18.7634M32.4066 18.7634C32.4066 18.7634 33.6813 21.231 34.8907 22.1656C36.1001 23.1001 37.4294 22.1593 39.4001 19.8001C41.3299 17.4899 43.8995 12.8736 44.505 11.806M32.4066 18.7634C32.4066 18.7634 34.6221 16.0593 35.7583 14.5336C36.8945 13.0078 39.6063 9.64364 39.6063 9.64364M29.492 18.7634C29.492 18.7634 28.3192 21.231 27.1098 22.1655C25.9004 23.1001 24.1779 21.9984 22.6004 19.8001C21.056 17.648 18.1186 12.8828 17.4965 11.807M29.492 18.7634L25.3791 13.3632L22.3837 9.63286M22.3837 9.63286C24.5356 8.8082 27.5924 8.46631 30.9627 8.46631C34.3477 8.46631 37.4468 8.81118 39.6063 9.64364M22.3837 9.63286C21.613 8.84604 20.96 8.26604 19.9547 8.7045C18.9218 9.15505 18.337 9.53098 17.6881 10.0678C17.0392 10.6046 17.1585 11.2144 17.4597 11.7429C17.4708 11.7626 17.4831 11.784 17.4965 11.807M39.6063 9.64364C40.3815 8.85136 41.0359 8.26406 42.0457 8.70451C43.0787 9.15506 43.6635 9.53099 44.3124 10.0678C44.9613 10.6046 44.842 11.2144 44.5408 11.7429C44.5298 11.7623 44.5178 11.7833 44.505 11.806M16.6172 37.3801C16.4587 37.5235 16.2766 37.6482 16.0675 37.7534C14.5668 38.5088 8.27117 37.7113 6.95231 36.9559C5.63346 36.2005 5.10798 34.9401 5.86356 32.7377C6.61914 30.5354 7.40681 29.013 7.84269 25.6236C8.27856 22.2341 9.71483 18.8838 11.8591 16.5505C12.9512 15.3623 14.8906 13.5063 17.4965 11.807M45.2834 37.2814C45.4647 37.467 45.68 37.6247 45.9356 37.7534C47.4363 38.5088 53.732 37.7113 55.0508 36.9559C56.3697 36.2005 56.8951 34.9401 56.1396 32.7377C55.384 30.5354 54.5963 29.013 54.1604 25.6236C53.7246 22.2341 52.2883 18.8838 50.144 16.5505C49.0517 15.362 47.1117 13.5056 44.505 11.806" stroke="#1E1E1E" stroke-width="0.6" stroke-linecap="round"/>
<path d="M34.6063 37.8C34.6063 37.4686 34.3376 37.2 34.0063 37.2C33.6749 37.2 33.4062 37.4686 33.4062 37.8C33.4062 38.1314 33.6749 38.4 34.0063 38.4C34.3376 38.4 34.6063 38.1314 34.6063 37.8Z" fill="#1E1E1E"/>
<path d="M34.6063 24.6C34.6063 24.2686 34.3376 24 34.0063 24C33.6749 24 33.4062 24.2686 33.4062 24.6C33.4062 24.9314 33.6749 25.2 34.0063 25.2C34.3376 25.2 34.6063 24.9314 34.6063 24.6Z" fill="#1E1E1E"/>
</svg>
