<svg width="63" height="84" viewBox="0 0 63 84" fill="none" xmlns="http://www.w3.org/2000/svg">
<path d="M17.5032 27.0001C17.8243 30.5969 17.3682 34.0481 16.832 37.1579M31.0032 59.4001C31.0032 62.7001 29.494 63.0608 28.3032 63.3001C25.9032 63.7823 20.6695 63.7671 18.5681 63.3001C15.8681 62.7001 14.9107 61.5103 14.8247 60.2821C14.7387 59.054 14.8247 56.9151 15.68 54.0048C16.5353 51.0944 15.7028 49.7882 15.6799 45.326C15.6685 43.085 16.291 40.2952 16.832 37.1579M31.0032 59.4001C31.0032 62.7001 32.5123 63.0608 33.703 63.3001C36.103 63.7823 41.3367 63.7671 43.4381 63.3001C46.1381 62.7001 47.0955 61.5103 47.1815 60.2821C47.2675 59.054 47.1815 56.9151 46.3262 54.0048C45.4709 51.0944 46.3035 49.7882 46.3263 45.326C46.3378 43.0861 45.7158 40.298 45.175 37.1625M31.0032 59.4001C31.2032 58.7001 31.0625 55.9189 31.3025 49.6789C31.5638 42.8847 30.6928 42.8197 30.6928 36.8163C30.6928 34.3011 31.032 33.734 31.3025 28.7958M44.503 27.0001C44.1818 30.5987 44.6384 34.0515 45.175 37.1625M31.3025 28.7958C31.4657 25.8173 32.0163 20.5464 32.4066 18.7634M31.3025 28.7958C30.7025 24.0896 30.136 20.4344 29.492 18.7634M32.4066 18.7634C32.4066 18.7634 33.6813 21.231 34.8907 22.1656C36.1001 23.1001 37.4294 22.1593 39.4001 19.8001C41.3299 17.4899 43.8995 12.8736 44.505 11.806M32.4066 18.7634C32.4066 18.7634 34.6221 16.0593 35.7583 14.5336C36.8945 13.0078 39.6063 9.64364 39.6063 9.64364M29.492 18.7634C29.492 18.7634 28.3192 21.231 27.1098 22.1655C25.9004 23.1001 24.1779 21.9984 22.6004 19.8001C21.056 17.648 18.1186 12.8828 17.4965 11.807M29.492 18.7634L25.3791 13.3632L22.3837 9.63286M22.3837 9.63286C24.5356 8.8082 27.5924 8.46631 30.9627 8.46631C34.3477 8.46631 37.4468 8.81118 39.6063 9.64364M22.3837 9.63286C21.613 8.84604 20.96 8.26604 19.9547 8.7045C18.9218 9.15505 18.337 9.53098 17.6881 10.0678C17.0392 10.6046 17.1585 11.2144 17.4597 11.7429C17.4708 11.7626 17.4831 11.784 17.4965 11.807M39.6063 9.64364C40.3815 8.85136 41.0359 8.26406 42.0457 8.70451C43.0787 9.15506 43.6635 9.53099 44.3124 10.0678C44.9613 10.6046 44.842 11.2144 44.5408 11.7429C44.5298 11.7623 44.5178 11.7833 44.505 11.806M45.175 37.1625C45.3772 37.4004 45.627 37.5981 45.9356 37.7534C47.4363 38.5088 53.732 37.7113 55.0508 36.9559C56.3697 36.2005 56.8951 34.9401 56.1396 32.7377C55.384 30.5354 54.5963 29.013 54.1604 25.6236C53.7246 22.2341 52.2883 18.8838 50.144 16.5505C49.0517 15.362 47.1117 13.5056 44.505 11.806M16.832 37.1579C16.6291 37.3978 16.3781 37.5971 16.0675 37.7534C14.5668 38.5088 8.27117 37.7113 6.95231 36.9559C5.63346 36.2005 5.10798 34.9401 5.86356 32.7377C6.61914 30.5354 7.40681 29.013 7.84269 25.6236C8.27856 22.2341 9.71483 18.8838 11.8591 16.5505C12.9512 15.3623 14.8906 13.5063 17.4965 11.807" stroke="#1E1E1E" stroke-width="0.6" stroke-linecap="round"/>
<path d="M34.6063 51C34.6063 50.6686 34.3376 50.4 34.0063 50.4C33.6749 50.4 33.4062 50.6686 33.4062 51C33.4062 51.3314 33.6749 51.6 34.0063 51.6C34.3376 51.6 34.6063 51.3314 34.6063 51Z" fill="#1E1E1E"/>
<path d="M34.6063 37.8C34.6063 37.4686 34.3376 37.2 34.0063 37.2C33.6749 37.2 33.4062 37.4686 33.4062 37.8C33.4062 38.1314 33.6749 38.4 34.0063 38.4C34.3376 38.4 34.6063 38.1314 34.6063 37.8Z" fill="#1E1E1E"/>
<path d="M34.6063 24.6C34.6063 24.2686 34.3376 24 34.0063 24C33.6749 24 33.4062 24.2686 33.4062 24.6C33.4062 24.9314 33.6749 25.2 34.0063 25.2C34.3376 25.2 34.6063 24.9314 34.6063 24.6Z" fill="#1E1E1E"/>
</svg>
