<svg width="64" height="84" viewBox="0 0 64 84" fill="none" xmlns="http://www.w3.org/2000/svg">
<path d="M45.2999 27.0001C45.0336 29.9833 45.0289 32.3392 45.1331 34.2422M31.7998 48.2349C31.7998 51.5349 33.3091 51.8957 34.4998 52.1349C36.8998 52.6171 41.7327 52.4206 43.4814 52.1349C45.2301 51.8492 46.3657 49.6922 46.4172 47.5804C46.4687 45.4687 46.0537 42.4564 45.7991 40.1138C45.6497 38.7385 45.2813 36.9483 45.1331 34.2422M31.7998 48.2349C31.7998 51.5349 30.4557 51.8957 29.2649 52.1349C26.8649 52.6171 23.8655 52.5492 21.3299 52.1349C18.7942 51.7206 18.1547 50.1824 17.8221 49.2087C17.4894 48.2349 17.3647 46.2713 17.44 44.1412C17.4887 42.7624 18.174 39.0141 18.4764 34.582M31.7998 48.2349C31.7998 46.7899 31.8577 46.3538 32.0977 40.1138C32.359 33.3197 32.0977 34.7992 32.0977 28.7958M18.4648 27.0001C18.6923 29.5486 18.6412 32.1668 18.4764 34.582M32.0977 28.7958C32.2608 25.8173 32.0202 23.7112 33.3795 20.6717C34.7389 17.6321 38.8953 12.7925 38.8953 12.7925C39.9475 11.703 40.9889 10.8064 42.2303 10.6071M32.0977 28.7958C31.4977 24.0896 31.4246 23.3087 30.3896 20.6717C29.3546 18.0346 24.7105 12.7925 24.7105 12.7925C24.7105 12.7925 22.6169 10.8064 21.3755 10.6071M21.3755 10.6071C23.5342 9.56127 28.0021 8.46631 31.7607 8.46631C35.5194 8.46631 40.0717 9.56127 42.2303 10.6071M21.3755 10.6071C20.661 10.4923 19.8025 10.8511 19.1311 11.2625C18.4598 11.674 17.7697 12.1495 17.2876 12.4927C15.1856 13.9891 13.6025 15.5206 12.656 16.5505C10.5117 18.8838 9.07544 22.2341 8.63956 25.6236C8.20369 29.013 7.41602 30.5354 6.66044 32.7377C5.90485 34.9401 6.43033 36.2005 7.74919 36.9559C9.06805 37.7113 15.3637 38.5088 16.8644 37.7534C17.9635 37.2002 18.3657 36.1092 18.4764 34.582M42.2303 10.6071C42.9448 10.4924 43.9497 10.8294 44.6428 11.3059C45.3358 11.7823 45.921 12.2126 46.4421 12.5878C48.478 14.0537 50.0144 15.5424 50.9409 16.5505C53.0852 18.8838 54.5214 22.2341 54.9573 25.6236C55.3932 29.013 56.1809 30.5354 56.9364 32.7377C57.692 34.9401 57.1665 36.2005 55.8477 36.9559C54.5288 37.7113 48.2332 38.5088 46.7325 37.7534C45.5535 37.16 45.2168 35.9478 45.1331 34.2422" stroke="#1E1E1E" stroke-width="0.6" stroke-linecap="round"/>
<path d="M35.4031 48.5815C35.4031 48.2501 35.1345 47.9815 34.8031 47.9815C34.4718 47.9815 34.2031 48.2501 34.2031 48.5815C34.2031 48.9129 34.4718 49.1815 34.8031 49.1815C35.1345 49.1815 35.4031 48.9129 35.4031 48.5815Z" fill="#1E1E1E"/>
<path d="M35.4031 36.6C35.4031 36.2686 35.1345 36 34.8031 36C34.4718 36 34.2031 36.2686 34.2031 36.6C34.2031 36.9314 34.4718 37.2 34.8031 37.2C35.1345 37.2 35.4031 36.9314 35.4031 36.6Z" fill="#1E1E1E"/>
<path d="M35.4031 24.6C35.4031 24.2686 35.1345 24 34.8031 24C34.4718 24 34.2031 24.2686 34.2031 24.6C34.2031 24.9314 34.4718 25.2 34.8031 25.2C35.1345 25.2 35.4031 24.9314 35.4031 24.6Z" fill="#1E1E1E"/>
</svg>
