<svg width="64" height="84" viewBox="0 0 64 84" fill="none" xmlns="http://www.w3.org/2000/svg">
<path d="M18.3018 27.0001C18.5486 30.3319 18.1575 33.8631 17.6131 37.1764M31.8018 69.0001C31.8018 72.3001 30.2925 72.6608 29.1018 72.9001C26.7018 73.3823 20.1028 73.0671 18.0014 72.6001C15.3014 72.0001 15.3956 71.23 15.1698 69.9001C14.944 68.5702 14.9021 65.8851 15.3016 63.6001C15.7012 61.3151 16.3799 59.2257 16.5551 56.2994C16.7101 53.7104 15.7773 53.3028 15.7544 48.8406C15.741 46.2138 16.834 41.9182 17.6131 37.1764M31.8018 69.0001C31.8018 72.3001 33.1856 72.6608 34.3764 72.9001C36.7764 73.3823 43.3753 73.0671 45.4767 72.6001C48.1767 72.0001 48.0825 71.23 48.3083 69.9001C48.5341 68.5702 48.5761 65.8851 48.1765 63.6001C47.7769 61.3151 47.0982 59.2257 46.923 56.2994C46.768 53.7104 47.7009 53.3028 47.7237 48.8406C47.7373 46.1782 46.6143 41.8013 45.8335 36.9831M31.8018 69.0001C32.0018 68.3001 31.8594 64.7403 32.0994 58.5003C32.3994 50.7003 31.4994 46.2003 31.4994 41.4003C31.4994 38.8851 31.8289 33.734 32.0994 28.7958M45.1764 27.0001C44.9344 30.2672 45.3057 33.726 45.8335 36.9831M32.0994 28.7958C32.3034 25.0726 33.3331 22.5791 35.195 19.2407C37.0569 15.9023 40.9889 10.8064 42.2303 10.6071M32.0994 28.7958C31.4994 25.0015 30.4904 22.0475 28.5202 19.5188C26.5501 16.9902 22.6169 10.8064 21.3755 10.6071M21.3755 10.6071C23.5342 9.56127 28.0021 8.46631 31.7607 8.46631C35.5194 8.46631 40.0717 9.56127 42.2303 10.6071M21.3755 10.6071C20.661 10.4923 19.8334 10.6919 19.0196 11.2233C18.2059 11.7547 17.6652 12.2173 17.0659 12.652C15.0741 14.0971 13.569 15.5571 12.656 16.5505C10.5117 18.8838 9.07544 22.2341 8.63956 25.6236C8.20369 29.013 7.41602 30.5354 6.66044 32.7377C5.90485 34.9401 6.43033 36.2005 7.74919 36.9559C9.06805 37.7113 15.3637 38.5088 16.8644 37.7534C17.1669 37.6011 17.413 37.4081 17.6131 37.1764M42.2303 10.6071C42.9448 10.4924 43.8259 10.7793 44.8662 11.4555C45.9064 12.1316 46.9207 12.9378 48.013 13.77C49.1052 14.6022 50.0843 15.6184 50.9409 16.5505C53.0852 18.8838 54.5214 22.2341 54.9573 25.6236C55.3932 29.013 56.1809 30.5354 56.9364 32.7377C57.692 34.9401 57.1665 36.2005 55.8477 36.9559C54.5288 37.7113 48.2332 38.5088 46.7325 37.7534C46.3493 37.5605 46.0568 37.3024 45.8335 36.9831" stroke="#1E1E1E" stroke-width="0.6" stroke-linecap="round"/>
<path d="M35.4031 64.2C35.4031 63.8686 35.1345 63.6 34.8031 63.6C34.4718 63.6 34.2031 63.8686 34.2031 64.2C34.2031 64.5314 34.4718 64.8 34.8031 64.8C35.1345 64.8 35.4031 64.5314 35.4031 64.2Z" fill="#1E1E1E"/>
<path d="M35.4031 51C35.4031 50.6686 35.1345 50.4 34.8031 50.4C34.4718 50.4 34.2031 50.6686 34.2031 51C34.2031 51.3314 34.4718 51.6 34.8031 51.6C35.1345 51.6 35.4031 51.3314 35.4031 51Z" fill="#1E1E1E"/>
<path d="M35.4031 37.8C35.4031 37.4686 35.1345 37.2 34.8031 37.2C34.4718 37.2 34.2031 37.4686 34.2031 37.8C34.2031 38.1314 34.4718 38.4 34.8031 38.4C35.1345 38.4 35.4031 38.1314 35.4031 37.8Z" fill="#1E1E1E"/>
<path d="M35.4031 24.6C35.4031 24.2686 35.1345 24 34.8031 24C34.4718 24 34.2031 24.2686 34.2031 24.6C34.2031 24.9314 34.4718 25.2 34.8031 25.2C35.1345 25.2 35.4031 24.9314 35.4031 24.6Z" fill="#1E1E1E"/>
</svg>
