<svg width="63" height="84" viewBox="0 0 63 84" fill="none" xmlns="http://www.w3.org/2000/svg">
<path d="M44.7046 27C44.4919 29.3828 44.4461 31.3653 44.4894 33.0366M31.2045 48.2348C31.2045 51.5348 32.7138 51.8956 33.9045 52.1348C36.3045 52.6171 41.1374 52.4206 42.8861 52.1348C44.6348 51.8491 45.7704 49.6921 45.8219 47.5803C45.8734 45.4686 45.4583 42.4563 45.2038 40.1137C45.0333 38.5437 44.5773 36.4332 44.4894 33.0366M31.2045 48.2348C31.2045 51.5348 29.8604 51.8956 28.6696 52.1348C26.2696 52.6171 23.2702 52.5491 20.7345 52.1348C18.1989 51.7205 17.5594 50.1823 17.2268 49.2086C16.8941 48.2348 16.7693 46.2712 16.8446 44.1411C16.9014 42.5367 17.8201 37.7236 17.9944 32.358M31.2045 48.2348C31.2045 46.7898 31.2624 46.3537 31.5024 40.1137C31.7637 33.3196 31.5024 34.7991 31.5024 28.7957M17.8695 27C18.0287 28.783 18.0515 30.6002 17.9944 32.358M31.5024 28.7957C31.6655 25.8172 32.242 22.4545 32.6324 20.6716C32.7362 20.1974 32.8722 19.7288 33.0961 19.2846C33.4242 18.6339 33.9426 18.2686 34.6363 18.0001C35.33 17.7315 36.1113 17.6687 36.6568 17.7315C37.8637 17.8703 38.7463 18.0001 39.3043 18.0001C40.5043 18.0001 41.335 17.4001 41.8197 16.2001C42.0291 15.6814 42.3134 14.8305 42.5719 13.645C42.6724 12.646 43.1171 12.146 43.601 11.9024M31.5024 28.7957C30.9024 24.0895 30.6764 21.4809 30.341 20.3827C30.0055 19.2846 29.5982 18.394 28.8554 18.0001C28.1126 17.6061 26.8198 17.6692 26.1954 17.7315C24.4993 17.9007 23.7972 18.0001 23.1035 18.0001C21.9035 18.0001 21.0728 17.4001 20.5882 16.2001C20.3787 15.6814 20.0944 14.8305 19.836 13.645C19.7344 12.636 19.2819 12.1361 18.7924 11.8953M4.62546 61.1257C6.33936 61.496 10.5474 62.1075 13.6686 61.5907M57.7808 61.1257C56.0669 61.496 51.8588 62.1075 48.7376 61.5907M18.7924 11.8953C22.592 10.7152 27.7183 10.3154 31.1656 10.3154C34.6199 10.3154 39.7991 10.7168 43.601 11.9024M18.7924 11.8953C18.1212 11.565 17.6681 11.6118 17.2273 11.659C16.7865 11.7062 15.6388 12.0991 14.9921 12.3404C12.6086 13.2293 11.0245 14.1131 9.90195 15.6C7.50446 18.7757 6.60215 23.1 6.60215 28.2C6.60215 33.3 6.63139 37.5598 5.91488 43.4182C5.19838 49.2766 3.01925 53.5504 2.70226 57C2.38528 60.4496 3.76174 62.9542 5.12166 63.5179C6.48158 64.0816 12.002 64.3816 13.202 64.0816C14.402 63.7816 15.4681 61.4038 15.6684 58.534C15.8687 55.6641 14.7897 53.4258 15.6026 44.2469C16.0058 39.6933 17.4282 38.0722 17.9944 32.358M43.601 11.9024C44.276 11.5627 44.8097 11.6638 45.311 11.7354C45.8122 11.807 46.7204 12.083 47.3515 12.317C49.77 13.2139 51.3719 14.1001 52.5043 15.6C54.9018 18.7757 55.8041 23.1 55.8041 28.2C55.8041 33.3 55.7749 37.5598 56.4914 43.4182C57.2079 49.2766 59.387 53.5504 59.704 57C60.021 60.4496 58.6445 62.9542 57.2846 63.5179C55.9247 64.0816 50.4043 64.3816 49.2042 64.0816C48.0042 63.7816 46.9381 61.4038 46.7378 58.534C46.5375 55.6641 47.6165 53.4258 46.8037 44.2469C46.4183 39.8947 45.1013 38.165 44.4894 33.0366" stroke="#1E1E1E" stroke-width="0.6" stroke-linecap="round"/>
<path d="M34.8094 48.5815C34.8094 48.2501 34.5407 47.9815 34.2094 47.9815C33.878 47.9815 33.6094 48.2501 33.6094 48.5815C33.6094 48.9129 33.878 49.1815 34.2094 49.1815C34.5407 49.1815 34.8094 48.9129 34.8094 48.5815Z" fill="#1E1E1E"/>
<path d="M34.8094 36.6C34.8094 36.2686 34.5407 36 34.2094 36C33.878 36 33.6094 36.2686 33.6094 36.6C33.6094 36.9314 33.878 37.2 34.2094 37.2C34.5407 37.2 34.8094 36.9314 34.8094 36.6Z" fill="#1E1E1E"/>
<path d="M34.8094 24.6C34.8094 24.2686 34.5407 24 34.2094 24C33.878 24 33.6094 24.2686 33.6094 24.6C33.6094 24.9314 33.878 25.2 34.2094 25.2C34.5407 25.2 34.8094 24.9314 34.8094 24.6Z" fill="#1E1E1E"/>
</svg>
