<svg width="64" height="84" viewBox="0 0 64 84" fill="none" xmlns="http://www.w3.org/2000/svg">
<path d="M18.3002 27.0001C18.9002 35.1001 15.73 44.3783 15.7529 48.8406C15.7757 53.3028 16.7085 53.7104 16.5535 56.2994C16.4681 57.7259 16.2631 58.9536 16.029 60.102M31.8002 69.0001C31.8002 72.3001 30.2909 72.6608 29.1002 72.9001C26.7002 73.3823 20.1012 73.0671 17.9998 72.6001C15.2998 72.0001 15.3941 71.23 15.1683 69.9001C14.9425 68.5702 14.9005 65.8851 15.3001 63.6001C15.5049 62.429 15.783 61.3093 16.029 60.102M31.8002 69.0001C31.8002 72.3001 33.1841 72.6608 34.3748 72.9001C36.7748 73.3823 43.3738 73.0671 45.4752 72.6001C48.1752 72.0001 48.0809 71.23 48.3067 69.9001C48.5325 68.5702 48.5745 65.8851 48.1749 63.6001C47.9843 62.5099 47.7301 61.4641 47.4974 60.3508M31.8002 69.0001C32.0002 68.3001 31.8579 64.7403 32.0979 58.5003C32.3979 50.7003 31.4979 46.2003 31.4979 41.4003C31.4979 38.8851 31.8273 33.734 32.0979 28.7958M45.1748 27.0001C44.5748 35.1001 47.745 44.3783 47.7221 48.8406C47.6993 53.3028 46.7665 53.7104 46.9215 56.2994C47.0131 57.8295 47.2423 59.1307 47.4974 60.3508M32.0979 28.7958C31.804 26.4911 31.1186 24.6063 29.558 21.2893C27.9974 17.9723 22.6153 10.8064 21.374 10.6071M32.0979 28.7958C32.2047 26.8448 32.5306 24.2618 34.0911 21.2893C35.6517 18.3168 38.1571 13.8197 38.8937 12.7925C39.6303 11.7652 40.9874 10.8064 42.2287 10.6071M5.21921 61.1258C6.93311 61.4961 11.1412 62.1076 14.2624 61.5908M58.3745 61.1258C56.6606 61.4961 52.4526 62.1076 49.3314 61.5908M21.374 10.6071C23.5326 9.56127 28.0005 8.46631 31.7592 8.46631C35.5178 8.46631 40.0701 9.56127 42.2287 10.6071M21.374 10.6071C20.6594 10.4923 19.6614 10.8931 18.3002 11.385C16.939 11.8769 15.7713 12.2346 14.3851 12.8158C12.999 13.3971 11.6443 14.0787 10.4957 15.6001C8.09821 18.7758 7.1959 23.1001 7.1959 28.2001C7.1959 33.3001 7.22514 37.5599 6.50863 43.4183C5.79213 49.2767 3.613 53.5505 3.29601 57.0001C2.97903 60.4497 4.35549 62.9543 5.71541 63.518C7.07533 64.0817 12.5957 64.3817 13.7958 64.0817C14.7659 63.8392 15.6207 62.2227 16.029 60.102M42.2287 10.6071C42.9433 10.4924 43.7764 10.7267 44.6113 11.0523C45.4462 11.3779 47.6439 12.1333 49.2578 12.7925C50.8718 13.4516 52.0231 14.1762 53.098 15.6001C55.4955 18.7758 56.3979 23.1001 56.3979 28.2001C56.3979 33.3001 56.3686 37.5599 57.0851 43.4183C57.8016 49.2767 59.9808 53.5505 60.2977 57.0001C60.6147 60.4497 59.2383 62.9543 57.8783 63.518C56.5184 64.0817 50.998 64.3817 49.798 64.0817C48.8602 63.8472 47.9223 62.3665 47.4974 60.3508" stroke="#1E1E1E" stroke-width="0.6" stroke-linecap="round"/>
<path d="M35.4031 64.2C35.4031 63.8686 35.1345 63.6 34.8031 63.6C34.4718 63.6 34.2031 63.8686 34.2031 64.2C34.2031 64.5314 34.4718 64.8 34.8031 64.8C35.1345 64.8 35.4031 64.5314 35.4031 64.2Z" fill="#1E1E1E"/>
<path d="M35.4031 51C35.4031 50.6686 35.1345 50.4 34.8031 50.4C34.4718 50.4 34.2031 50.6686 34.2031 51C34.2031 51.3314 34.4718 51.6 34.8031 51.6C35.1345 51.6 35.4031 51.3314 35.4031 51Z" fill="#1E1E1E"/>
<path d="M35.4031 37.8C35.4031 37.4686 35.1345 37.2 34.8031 37.2C34.4718 37.2 34.2031 37.4686 34.2031 37.8C34.2031 38.1314 34.4718 38.4 34.8031 38.4C35.1345 38.4 35.4031 38.1314 35.4031 37.8Z" fill="#1E1E1E"/>
<path d="M35.4031 24.6C35.4031 24.2686 35.1345 24 34.8031 24C34.4718 24 34.2031 24.2686 34.2031 24.6C34.2031 24.9314 34.4718 25.2 34.8031 25.2C35.1345 25.2 35.4031 24.9314 35.4031 24.6Z" fill="#1E1E1E"/>
</svg>
