<svg width="63" height="84" viewBox="0 0 63 84" fill="none" xmlns="http://www.w3.org/2000/svg">
<path d="M17.5016 27.0001C18.1467 34.2256 15.6555 40.8637 15.6784 45.326C15.7012 49.7882 16.5337 51.0944 15.6784 54.0048C14.8231 56.9151 14.7372 59.054 14.8232 60.2821C14.8427 60.5603 14.9068 60.8365 15.0258 61.1043M31.0016 59.4001C31.0016 62.7001 29.4924 63.0608 28.3016 63.3001C25.9016 63.7823 20.668 63.7671 18.5666 63.3001C16.4781 62.836 15.4322 62.019 15.0258 61.1043M31.0016 59.4001C31.0016 62.7001 32.5107 63.0608 33.7014 63.3001C36.1014 63.7823 41.3351 63.7671 43.4365 63.3001C46.1365 62.7001 47.0939 61.5103 47.1799 60.2821C47.2659 59.054 47.18 56.9151 46.3247 54.0048C45.4694 51.0944 46.3019 49.7882 46.3247 45.326C46.3476 40.8637 43.8564 34.2256 44.5014 27.0001M31.0016 59.4001C31.2016 58.7001 31.061 55.9189 31.301 49.6789C31.5623 42.8847 30.6913 42.8197 30.6913 36.8163C30.6913 34.3011 31.0304 33.734 31.301 28.7958M31.301 28.7958C31.4641 25.8173 32.0713 20.6531 32.4616 18.8702M31.301 28.7958C30.701 24.0896 30.1344 20.4344 29.4905 18.7634M29.4905 18.7634C29.4905 18.7634 28.3177 21.231 27.1082 22.1655C25.8988 23.1001 24.1764 21.9984 22.5988 19.8001C21.0212 17.6018 17.9903 12.677 17.4581 11.7429C17.4073 11.6537 17.3616 11.5622 17.324 11.4691M29.4905 18.7634L25.3775 13.3632L22.3821 9.63286M4.42234 61.1258C6.13623 61.4961 10.3443 62.1076 13.4655 61.5908M57.5777 61.1258C55.8638 61.4961 51.6557 62.1076 48.5345 61.5908M22.3821 9.63286C24.5341 8.8082 27.5908 8.46631 30.9612 8.46631C34.3462 8.46631 37.4453 8.81118 39.6047 9.64363M22.3821 9.63286C21.6115 8.84604 20.9584 8.26604 19.9532 8.7045C18.9202 9.15505 18.3355 9.53098 17.6865 10.0678C17.1471 10.514 17.1385 11.0106 17.324 11.4691M39.6047 9.64363C39.6047 9.64363 36.8929 13.0078 35.7567 14.5336C34.6205 16.0593 32.4051 18.7634 32.4051 18.7634C32.4051 18.7634 33.6797 21.231 34.8891 22.1656C36.0986 23.1001 37.4279 22.1593 39.3986 19.8001C41.3693 17.4409 44.0071 12.677 44.5393 11.7429C44.5903 11.6534 44.6361 11.5615 44.6738 11.468M39.6047 9.64363C40.38 8.85136 41.0344 8.26406 42.0442 8.70451C43.0771 9.15506 43.6619 9.53099 44.3108 10.0678C44.8498 10.5136 44.8588 11.0098 44.6738 11.468M46.9804 61.1258C47.4433 62.7319 48.1918 63.8794 49.0011 64.0817C50.2011 64.3817 55.7215 64.0817 57.0815 63.518C58.4414 62.9543 59.8178 60.4497 59.5009 57.0001C59.1839 53.5505 57.0047 49.2767 56.2882 43.4183C55.5717 37.5599 55.601 33.3001 55.601 28.2001C55.601 23.1001 54.6987 18.7758 52.3012 15.6001C50.8204 13.6386 48.5365 12.7268 44.6738 11.468M15.0258 61.1043C14.5633 62.7217 13.8118 63.8785 12.9989 64.0817C11.7989 64.3817 6.27845 64.0817 4.91853 63.518C3.55861 62.9543 2.18215 60.4497 2.49914 57.0001C2.81612 53.5505 4.99526 49.2767 5.71176 43.4183C6.42826 37.5599 6.39902 33.3001 6.39902 28.2001C6.39902 23.1001 7.30133 18.7758 9.69883 15.6001C11.1793 13.639 13.4627 12.7274 17.324 11.4691M17.324 11.4691C17.3432 11.4628 17.3046 11.4753 17.324 11.4691Z" stroke="#1E1E1E" stroke-width="0.6" stroke-linecap="round"/>
<path d="M34.6063 51C34.6063 50.6686 34.3376 50.4 34.0063 50.4C33.6749 50.4 33.4062 50.6686 33.4062 51C33.4062 51.3314 33.6749 51.6 34.0063 51.6C34.3376 51.6 34.6063 51.3314 34.6063 51Z" fill="#1E1E1E"/>
<path d="M34.6063 37.8C34.6063 37.4686 34.3376 37.2 34.0063 37.2C33.6749 37.2 33.4062 37.4686 33.4062 37.8C33.4062 38.1314 33.6749 38.4 34.0063 38.4C34.3376 38.4 34.6063 38.1314 34.6063 37.8Z" fill="#1E1E1E"/>
<path d="M34.6063 24.6C34.6063 24.2686 34.3376 24 34.0063 24C33.6749 24 33.4062 24.2686 33.4062 24.6C33.4062 24.9314 33.6749 25.2 34.0063 25.2C34.3376 25.2 34.6063 24.9314 34.6063 24.6Z" fill="#1E1E1E"/>
</svg>
