<svg width="63" height="84" viewBox="0 0 63 84" fill="none" xmlns="http://www.w3.org/2000/svg">
<path d="M44.8993 27C44.8993 27 45.6237 31.0379 45.6239 34.0998C45.624 35.4441 45.6584 36.4427 45.6818 37.2813M31.4702 39.74C31.4702 43.04 32.9088 43.2643 34.0996 43.5035C36.4996 43.9858 40.9223 43.7893 42.6709 43.5035C44.4196 43.2178 45.4458 41.7686 45.624 40.0993C45.7239 39.1629 45.7118 38.3527 45.6818 37.2813M31.4702 39.74C31.4702 43.04 30.0603 43.2214 28.8695 43.4606C26.4695 43.9429 23.4701 43.8749 20.9345 43.4606C18.3988 43.0463 17.7593 41.5081 17.4267 40.5344C17.1531 39.7336 17.0681 39.7781 17.0157 37.3836M31.4702 39.74C31.4702 37.4563 31.461 37.7402 31.701 31.5002V28.7957M18.0694 27C18.0694 27 16.9293 31.0769 16.9848 35.4568C16.9946 36.235 17.0044 36.8662 17.0157 37.3836M31.701 28.7957C31.2961 25.6202 31.05 23.1606 30.7348 21.3832C30.5829 20.5264 30.169 20.036 29.6084 19.3197C29.0478 18.6034 27.9368 18.2886 27.1229 18.0628C22.9536 16.9063 21.3208 14.1929 20.4456 13.0464C20.0122 12.4786 19.5186 12.1018 18.9859 11.8963M31.701 28.7957C31.8444 26.1769 32.3074 23.2611 32.6825 21.3832C32.734 21.1253 32.9096 20.2229 33.7505 19.3197C34.5914 18.4165 35.4821 18.1365 36.159 17.9194C39.9753 16.6954 41.5152 14.1478 42.356 13.0464C42.785 12.4844 43.273 12.1098 43.7995 11.903M43.7995 11.903C39.9974 10.717 34.8172 10.3154 31.3625 10.3154C27.9141 10.3154 22.7858 10.7155 18.9859 11.8963M43.7995 11.903C44.6566 11.5662 46.253 12.5886 47.3347 13.4272C48.4163 14.2658 51.1785 16.9976 52.2364 18.9119C53.2943 20.8261 54.123 22.234 54.5589 25.6235C54.9948 29.0129 55.7824 30.5353 56.538 32.7376C57.2936 34.94 56.7681 36.2004 55.4492 36.9558C54.1304 37.7112 47.8348 38.5087 46.334 37.7533C46.0784 37.6246 45.8631 37.4669 45.6818 37.2813M18.9859 11.8963C18.1329 11.5672 17.2426 12.2485 15.8709 13.2282C14.4992 14.208 12.3305 15.8267 11.0361 17.7732C9.74173 19.7197 8.677 22.234 8.24112 25.6235C7.80525 29.0129 7.01758 30.5353 6.262 32.7376C5.50641 34.94 6.03189 36.2004 7.35075 36.9558C8.66961 37.7112 14.9652 38.5087 16.466 37.7533C16.6989 37.636 16.8984 37.4946 17.0692 37.33L17.0157 37.3836" stroke="#1E1E1E" stroke-width="0.6" stroke-linecap="round"/>
<path d="M34.9969 37.8C34.9969 37.4686 34.7282 37.2 34.3969 37.2C34.0655 37.2 33.7969 37.4686 33.7969 37.8C33.7969 38.1314 34.0655 38.4 34.3969 38.4C34.7282 38.4 34.9969 38.1314 34.9969 37.8Z" fill="#1E1E1E"/>
<path d="M34.9969 24.6C34.9969 24.2686 34.7282 24 34.3969 24C34.0655 24 33.7969 24.2686 33.7969 24.6C33.7969 24.9314 34.0655 25.2 34.3969 25.2C34.7282 25.2 34.9969 24.9314 34.9969 24.6Z" fill="#1E1E1E"/>
</svg>
