<svg width="63" height="84" viewBox="0 0 63 84" fill="none" xmlns="http://www.w3.org/2000/svg">
<path d="M17.9016 27C18.2227 30.5968 17.7667 34.0481 17.2305 37.1578M31.4016 59.4C31.4016 62.7 29.8924 63.0607 28.7016 63.3C26.3016 63.7822 21.068 63.767 18.9666 63.3C16.2666 62.7 15.3092 61.5102 15.2232 60.282C15.1372 59.0539 15.2231 56.915 16.0784 54.0047C16.9337 51.0943 16.1012 49.7881 16.0784 45.3259C16.0669 43.0849 16.6895 40.2951 17.2305 37.1578M31.4016 59.4C31.4016 62.7 32.9107 63.0607 34.1014 63.3C36.5014 63.7822 41.7351 63.767 43.8365 63.3C46.5365 62.7 47.4939 61.5102 47.5799 60.282C47.6659 59.0539 47.58 56.915 46.7247 54.0047C45.8694 51.0943 46.7019 49.7881 46.7247 45.3259C46.7362 43.086 46.1142 40.2979 45.5734 37.1624M31.4016 59.4C31.6016 58.7 31.461 55.9188 31.701 49.6788C31.9623 42.8846 31.0913 42.8196 31.0913 36.8162C31.0913 34.301 31.4304 33.7339 31.701 28.7957M44.9014 27C44.5802 30.5986 45.0369 34.0514 45.5734 37.1624M31.701 28.7957C31.8641 25.8172 32.4406 22.4545 32.8309 20.6716C33.0039 19.8813 33.2036 19.2608 33.7055 18.853C34.2074 18.4452 35.0621 18.2296 35.5924 18.0865C39.8256 16.9438 41.4747 14.2008 42.356 13.0464C42.785 12.4844 43.273 12.1098 43.7995 11.903M31.701 28.7957C31.239 25.1722 30.5925 22.4808 30.2055 20.6716C30.0899 20.1309 29.9099 19.449 29.5962 19.0725C29.2826 18.6961 28.5754 18.303 27.5573 18.0865C22.7963 17.0739 21.3744 14.2631 20.4456 13.0464C20.0122 12.4786 19.5186 12.1018 18.9859 11.8963M43.7995 11.903C39.9974 10.717 34.8172 10.3154 31.3625 10.3154C27.9141 10.3154 22.7858 10.7155 18.9859 11.8963M43.7995 11.903C44.6566 11.5662 46.0431 12.0389 47.6243 13.5898C49.2056 15.1406 49.7781 15.7187 50.5424 16.5504C52.6867 18.8837 54.123 22.234 54.5589 25.6235C54.9948 29.0129 55.7824 30.5353 56.538 32.7376C57.2936 34.94 56.7681 36.2004 55.4492 36.9558C54.1304 37.7112 47.8348 38.5087 46.334 37.7533C46.0255 37.598 45.7756 37.4003 45.5734 37.1624M18.9859 11.8963C18.1329 11.5672 16.9377 12.0689 15.5823 13.2737C14.227 14.4784 13.0875 15.6474 12.2576 16.5504C10.1133 18.8837 8.677 22.234 8.24112 25.6235C7.80525 29.0129 7.01758 30.5353 6.262 32.7376C5.50641 34.94 6.03189 36.2004 7.35075 36.9558C8.66961 37.7112 14.9652 38.5087 16.466 37.7533C16.7765 37.597 17.0276 37.3977 17.2305 37.1578" stroke="#1E1E1E" stroke-width="0.6" stroke-linecap="round"/>
<path d="M34.9969 51C34.9969 50.6686 34.7282 50.4 34.3969 50.4C34.0655 50.4 33.7969 50.6686 33.7969 51C33.7969 51.3314 34.0655 51.6 34.3969 51.6C34.7282 51.6 34.9969 51.3314 34.9969 51Z" fill="#1E1E1E"/>
<path d="M34.9969 37.8C34.9969 37.4686 34.7282 37.2 34.3969 37.2C34.0655 37.2 33.7969 37.4686 33.7969 37.8C33.7969 38.1314 34.0655 38.4 34.3969 38.4C34.7282 38.4 34.9969 38.1314 34.9969 37.8Z" fill="#1E1E1E"/>
<path d="M34.9969 24.6C34.9969 24.2686 34.7282 24 34.3969 24C34.0655 24 33.7969 24.2686 33.7969 24.6C33.7969 24.9314 34.0655 25.2 34.3969 25.2C34.7282 25.2 34.9969 24.9314 34.9969 24.6Z" fill="#1E1E1E"/>
</svg>
