<svg width="63" height="84" viewBox="0 0 63 84" fill="none" xmlns="http://www.w3.org/2000/svg">
<path d="M17.7048 27C18.3498 34.2255 15.8586 40.8636 15.8815 45.3259C15.9043 49.7881 16.7368 51.0943 15.8815 54.0047C15.0263 56.915 14.9403 59.0539 15.0263 60.282C15.0458 60.5602 15.11 60.8364 15.2289 61.1042M31.2048 59.4C31.2048 62.7 29.6955 63.0607 28.5048 63.3C26.1048 63.7822 20.8711 63.767 18.7697 63.3C16.6812 62.8359 15.6353 62.0189 15.2289 61.1042M31.2048 59.4C31.2048 62.7 32.7138 63.0607 33.9046 63.3C36.3046 63.7822 41.5382 63.767 43.6396 63.3C45.7755 62.8254 46.7916 62.0456 47.1778 61.1058M31.2048 59.4C31.4048 58.7 31.2641 55.9188 31.5041 49.6788C31.7654 42.8846 30.8944 42.8196 30.8944 36.8162C30.8944 34.301 31.2336 33.7339 31.5041 28.7957M44.7046 27C44.0595 34.2255 46.5507 40.8636 46.5279 45.3259C46.505 49.7881 45.6725 51.0943 46.5278 54.0047C47.3831 56.915 47.469 59.0539 47.383 60.282C47.3651 60.5387 47.2798 60.8576 47.1778 61.1058M31.5041 28.7957C31.6672 25.8172 32.2437 22.4545 32.6341 20.6716C32.7379 20.1974 32.8739 19.7288 33.0978 19.2846C33.4269 18.632 33.961 18.0862 34.5135 17.8547C35.066 17.6232 36.1218 17.6692 36.7653 17.744C37.9167 17.878 38.7631 18.0001 39.3043 18.0001C40.5043 18.0001 41.335 17.4001 41.8197 16.2001C42.0291 15.6814 42.3134 14.8305 42.5719 13.645C42.6724 12.646 43.1171 12.146 43.601 11.9024M31.5041 28.7957C30.9041 24.0895 30.6526 20.9556 30.0086 19.2846C29.7226 18.5422 29.2718 18.0001 28.6783 17.744C28.0849 17.488 27.0506 17.5908 26.3374 17.6665C24.8263 17.8268 23.7484 18.0001 23.1035 18.0001C21.9035 18.0001 21.0728 17.4001 20.5882 16.2001C20.3787 15.6814 20.0944 14.8305 19.836 13.645C19.7344 12.636 19.2819 12.1361 18.7924 11.8953M4.62546 61.1257C6.33936 61.496 10.5474 62.1075 13.6686 61.5907M57.7808 61.1257C56.0669 61.496 51.8588 62.1075 48.7376 61.5907M18.7924 11.8953C22.592 10.7152 27.7183 10.3154 31.1656 10.3154C34.6199 10.3154 39.7991 10.7168 43.601 11.9024M18.7924 11.8953C18.1212 11.565 17.5648 11.5894 16.8396 11.7556C16.1144 11.9218 15.4072 12.1822 14.8115 12.4083C12.5282 13.2747 10.9959 14.1509 9.90195 15.6C7.50446 18.7757 6.60215 23.1 6.60215 28.2C6.60215 33.3 6.63139 37.5598 5.91488 43.4182C5.19838 49.2766 3.01925 53.5504 2.70226 57C2.38528 60.4496 3.76174 62.9542 5.12166 63.5179C6.48158 64.0816 12.002 64.3816 13.202 64.0816C14.0149 63.8784 14.7664 62.7216 15.2289 61.1042M43.601 11.9024C44.276 11.5627 44.9258 11.6312 45.5247 11.7668C46.1235 11.9024 46.5887 12.0382 47.1615 12.2472C49.6865 13.1683 51.3425 14.0611 52.5043 15.6C54.9018 18.7757 55.8041 23.1 55.8041 28.2C55.8041 33.3 55.7749 37.5598 56.4914 43.4182C57.2079 49.2766 59.387 53.5504 59.704 57C60.021 60.4496 58.6445 62.9542 57.2846 63.5179C55.9247 64.0816 50.4043 64.3816 49.2042 64.0816C48.3916 63.8784 47.6403 62.7223 47.1778 61.1058" stroke="#1E1E1E" stroke-width="0.6" stroke-linecap="round"/>
<path d="M34.8094 51C34.8094 50.6686 34.5407 50.4 34.2094 50.4C33.878 50.4 33.6094 50.6686 33.6094 51C33.6094 51.3314 33.878 51.6 34.2094 51.6C34.5407 51.6 34.8094 51.3314 34.8094 51Z" fill="#1E1E1E"/>
<path d="M34.8094 37.8C34.8094 37.4686 34.5407 37.2 34.2094 37.2C33.878 37.2 33.6094 37.4686 33.6094 37.8C33.6094 38.1314 33.878 38.4 34.2094 38.4C34.5407 38.4 34.8094 38.1314 34.8094 37.8Z" fill="#1E1E1E"/>
<path d="M34.8094 24.6C34.8094 24.2686 34.5407 24 34.2094 24C33.878 24 33.6094 24.2686 33.6094 24.6C33.6094 24.9314 33.878 25.2 34.2094 25.2C34.5407 25.2 34.8094 24.9314 34.8094 24.6Z" fill="#1E1E1E"/>
</svg>
