<svg width="63" height="84" viewBox="0 0 63 84" fill="none" xmlns="http://www.w3.org/2000/svg">
<path d="M17.7063 27C18.0274 30.5968 17.5714 34.0481 17.0351 37.1578M31.2063 59.4C31.2063 62.7 29.6971 63.0607 28.5063 63.3C26.1063 63.7822 20.8727 63.767 18.7713 63.3C16.0713 62.7 15.1139 61.5102 15.0279 60.282C14.9419 59.0539 15.0278 56.915 15.8831 54.0047C16.7384 51.0943 15.9059 49.7881 15.8831 45.3259C15.8716 43.0849 16.4942 40.2951 17.0351 37.1578M31.2063 59.4C31.2063 62.7 32.7154 63.0607 33.9061 63.3C36.3061 63.7822 41.5398 63.767 43.6412 63.3C46.3412 62.7 47.2986 61.5102 47.3846 60.282C47.4706 59.0539 47.3847 56.915 46.5294 54.0047C45.6741 51.0943 46.5066 49.7881 46.5294 45.3259C46.5409 43.086 45.9189 40.2979 45.3781 37.1624M31.2063 59.4C31.4063 58.7 31.2656 55.9188 31.5056 49.6788C31.767 42.8846 30.8959 42.8196 30.8959 36.8162C30.8959 34.301 31.2351 33.7339 31.5056 28.7957M44.7061 27C44.3849 30.5986 44.8415 34.0514 45.3781 37.1624M31.5056 28.7957C31.6688 25.8172 32.2233 23.2261 32.4716 21.9407C32.7199 20.6553 33.0312 18.9356 33.7498 18.308C34.4683 17.6805 35.778 17.6346 36.2019 17.6805C37.645 17.8367 38.6797 18.0001 39.3058 18.0001C40.5058 18.0001 41.3366 17.4001 41.8212 16.2001C42.0307 15.6814 42.315 14.8305 42.5734 13.645C42.674 12.646 43.1186 12.146 43.6025 11.9024M31.5056 28.7957C30.9056 24.0895 30.9565 23.5702 30.6134 21.9407C30.2704 20.3112 30.1274 18.9676 29.3841 18.1671C28.6409 17.3667 27.2407 17.5743 26.5902 17.6404C24.9468 17.8074 23.7851 18.0001 23.1051 18.0001C21.9051 18.0001 21.0743 17.4001 20.5897 16.2001C20.3803 15.6814 20.096 14.8305 19.8375 13.645C19.7359 12.636 19.2834 12.1361 18.794 11.8953M18.794 11.8953C22.5936 10.7152 27.7198 10.3154 31.1671 10.3154C34.6214 10.3154 39.8006 10.7168 43.6025 11.9024M18.794 11.8953C18.1227 11.565 17.2135 12.187 16.7396 12.503C16.2656 12.819 15.735 13.1934 15.177 13.645C13.8197 14.7436 12.7653 15.7854 12.0623 16.5504C9.91796 18.8837 8.48169 22.234 8.04581 25.6235C7.60994 29.0129 6.82227 30.5353 6.06669 32.7376C5.3111 34.94 5.83658 36.2004 7.15544 36.9558C8.4743 37.7112 14.7699 38.5087 16.2707 37.7533C16.5812 37.597 16.8323 37.3977 17.0351 37.1578M43.6025 11.9024C44.2775 11.5627 46.1307 12.6956 47.3106 13.645C48.4906 14.5944 49.644 15.7854 50.3471 16.5504C52.4914 18.8837 53.9277 22.234 54.3636 25.6235C54.7994 29.0129 55.5871 30.5353 56.3427 32.7376C57.0983 34.94 56.5728 36.2004 55.2539 36.9558C53.9351 37.7112 47.6394 38.5087 46.1387 37.7533C45.8301 37.598 45.5803 37.4003 45.3781 37.1624" stroke="#1E1E1E" stroke-width="0.6" stroke-linecap="round"/>
<path d="M34.8094 51C34.8094 50.6686 34.5407 50.4 34.2094 50.4C33.878 50.4 33.6094 50.6686 33.6094 51C33.6094 51.3314 33.878 51.6 34.2094 51.6C34.5407 51.6 34.8094 51.3314 34.8094 51Z" fill="#1E1E1E"/>
<path d="M34.8094 37.8C34.8094 37.4686 34.5407 37.2 34.2094 37.2C33.878 37.2 33.6094 37.4686 33.6094 37.8C33.6094 38.1314 33.878 38.4 34.2094 38.4C34.5407 38.4 34.8094 38.1314 34.8094 37.8Z" fill="#1E1E1E"/>
<path d="M34.8094 24.6C34.8094 24.2686 34.5407 24 34.2094 24C33.878 24 33.6094 24.2686 33.6094 24.6C33.6094 24.9314 33.878 25.2 34.2094 25.2C34.5407 25.2 34.8094 24.9314 34.8094 24.6Z" fill="#1E1E1E"/>
</svg>
