<svg width="63" height="84" viewBox="0 0 63 84" fill="none" xmlns="http://www.w3.org/2000/svg">
<path d="M44.7024 27C44.7024 27 45.4268 31.0379 45.427 34.0998C45.4271 35.9681 45.4935 37.1687 45.5047 38.2M31.2733 39.74C31.2733 43.04 32.712 43.2643 33.9027 43.5035C36.3027 43.9858 40.7254 43.7893 42.4741 43.5035C44.2227 43.2178 45.2489 41.7686 45.4271 40.0993C45.4966 39.4486 45.5119 38.8588 45.5047 38.2M31.2733 39.74C31.2733 43.04 29.8634 43.2214 28.6727 43.4606C26.2727 43.9429 23.2733 43.8749 20.7376 43.4606C18.2019 43.0463 17.5625 41.5081 17.2298 40.5344C17.0016 39.8665 16.9047 39.7866 16.8483 38.3889M31.2733 39.74C31.2733 37.4563 31.2641 37.7402 31.5041 31.5002V28.7957M17.8725 27C17.8725 27 16.7325 31.0769 16.7879 35.4568C16.8053 36.8325 16.8226 37.7489 16.8483 38.3889M31.5041 28.7957C31.6673 25.8172 32.161 21.7385 32.5513 19.9556C32.763 18.9887 33.4385 18.2799 34.132 18.0001C34.8255 17.7202 35.9 17.6449 36.6115 17.7263C37.8416 17.8671 38.7393 18.0001 39.3043 18.0001C40.5043 18.0001 41.335 17.4001 41.8197 16.2001C42.0291 15.6814 42.3134 14.8305 42.5719 13.645C42.6724 12.646 43.1171 12.146 43.601 11.9024M31.5041 28.7957C30.9041 24.0895 30.8094 22.7943 30.4546 21.3749C30.0998 19.9556 29.8589 19.1538 29.1757 18.4195C28.4925 17.6853 26.9175 17.603 26.1625 17.6853C24.7429 17.8401 23.7232 18.0001 23.1035 18.0001C21.9035 18.0001 21.0728 17.4001 20.5882 16.2001C20.3787 15.6814 20.0944 14.8305 19.836 13.645C19.7344 12.636 19.2819 12.1361 18.7924 11.8953M4.62546 61.1257C6.33936 61.496 10.5474 62.1075 13.6686 61.5907M57.7808 61.1257C56.0669 61.496 51.8588 62.1075 48.7376 61.5907M18.7924 11.8953C22.592 10.7152 27.7183 10.3154 31.1656 10.3154C34.6199 10.3154 39.7991 10.7168 43.601 11.9024M18.7924 11.8953C18.1212 11.565 17.548 11.6152 16.9235 11.7477C16.2991 11.8801 15.1462 12.2736 14.454 12.5465C12.3667 13.3694 10.9378 14.2279 9.90195 15.6C7.50446 18.7757 6.60215 23.1 6.60215 28.2C6.60215 33.3 6.63139 37.5598 5.91488 43.4182C5.19838 49.2766 3.01925 53.5504 2.70226 57C2.38528 60.4496 3.76174 62.9542 5.12166 63.5179C6.48158 64.0816 12.002 64.3816 13.202 64.0816C14.402 63.7816 15.4681 61.4038 15.6684 58.534C15.8687 55.6641 14.7897 53.4258 15.6026 44.2469C15.818 41.8144 16.3309 40.2187 16.8483 38.3889M43.601 11.9024C44.276 11.5627 44.9394 11.747 45.7995 11.9024C46.6595 12.0578 47.1963 12.2512 47.8655 12.5125C50.0001 13.3458 51.4541 14.209 52.5043 15.6C54.9018 18.7757 55.8041 23.1 55.8041 28.2C55.8041 33.3 55.7749 37.5598 56.4914 43.4182C57.2079 49.2766 59.387 53.5504 59.704 57C60.021 60.4496 58.6445 62.9542 57.2846 63.5179C55.9247 64.0816 50.4043 64.3816 49.2042 64.0816C48.0042 63.7816 46.9381 61.4038 46.7378 58.534C46.5375 55.6641 47.6165 53.4258 46.8037 44.2469C46.5809 41.7311 46.0398 40.1104 45.5047 38.2" stroke="#1E1E1E" stroke-width="0.6" stroke-linecap="round"/>
<path d="M34.8094 37.8C34.8094 37.4686 34.5407 37.2 34.2094 37.2C33.878 37.2 33.6094 37.4686 33.6094 37.8C33.6094 38.1314 33.878 38.4 34.2094 38.4C34.5407 38.4 34.8094 38.1314 34.8094 37.8Z" fill="#1E1E1E"/>
<path d="M34.8094 24.6C34.8094 24.2686 34.5407 24 34.2094 24C33.878 24 33.6094 24.2686 33.6094 24.6C33.6094 24.9314 33.878 25.2 34.2094 25.2C34.5407 25.2 34.8094 24.9314 34.8094 24.6Z" fill="#1E1E1E"/>
</svg>
