<svg width="63" height="84" viewBox="0 0 63 84" fill="none" xmlns="http://www.w3.org/2000/svg">
<path d="M17.7064 27C18.3064 35.1 15.1363 44.3782 15.1591 48.8405C15.182 53.3027 16.1148 53.7103 15.9598 56.2993C15.8717 57.7714 15.6561 59.0316 15.4128 60.2115M31.2064 69C31.2064 72.3 29.6972 72.6607 28.5064 72.9C26.1064 73.3822 19.5075 73.067 17.4061 72.6C14.7061 72 14.8003 71.2299 14.5745 69.9C14.3487 68.5701 14.3067 65.885 14.7063 63.6C14.9049 62.4644 15.1724 61.3772 15.4128 60.2115M31.2064 69C31.2064 72.3 32.5903 72.6607 33.7811 72.9C36.1811 73.3822 42.78 73.067 44.8814 72.6C47.5814 72 47.4872 71.2299 47.713 69.9C47.9388 68.5701 47.9808 65.885 47.5812 63.6C47.3961 62.5414 47.151 61.5249 46.9239 60.4476M31.2064 69C31.4064 68.3 31.2641 64.7402 31.5041 58.5002C31.8041 50.7002 30.9041 46.2002 30.9041 41.4002C30.9041 38.885 31.2336 33.7339 31.5041 28.7957M44.5811 27C43.9811 35.1 47.1512 44.3782 47.1284 48.8405C47.1055 53.3027 46.1727 53.7103 46.3277 56.2993C46.4217 57.87 46.6608 59.1995 46.9239 60.4476M31.5041 28.7957C31.6673 25.8172 32.2438 22.4545 32.6341 20.6716C32.8899 19.5028 33.2397 18.6249 34.0496 18.1816C34.8596 17.7384 36.1564 17.6735 36.7165 17.7384C37.8929 17.8746 38.7555 18.0001 39.3043 18.0001C40.5043 18.0001 41.335 17.4001 41.8197 16.2001C42.0291 15.6814 42.3134 14.8305 42.5719 13.645C42.6724 12.646 43.1171 12.146 43.601 11.9024M31.5041 28.7957C31.5041 28.7957 31.2471 25.2618 31.0037 23.5058C30.7603 21.7498 30.373 20.2299 30.0087 19.2846C29.7226 18.5422 29.2094 17.9502 28.497 17.7384C27.7847 17.5265 26.5492 17.639 25.691 17.7384C24.5148 17.8746 23.6523 18.0001 23.1035 18.0001C21.9035 18.0001 21.0728 17.4001 20.5882 16.2001C20.3787 15.6814 20.0944 14.8305 19.836 13.645C19.7344 12.636 19.2819 12.1361 18.7924 11.8953M4.62546 61.1257C6.33936 61.496 10.5474 62.1075 13.6686 61.5907M57.7808 61.1257C56.0669 61.496 51.8588 62.1075 48.7376 61.5907M18.7924 11.8953C22.592 10.7152 27.7183 10.3154 31.1656 10.3154C34.6199 10.3154 39.7991 10.7168 43.601 11.9024M18.7924 11.8953C18.1212 11.565 17.4494 11.6796 16.5712 11.8953C15.6929 12.111 14.3239 12.6353 13.0066 13.281C11.6892 13.9268 10.9326 14.2348 9.90195 15.6C7.50446 18.7757 6.60215 23.1 6.60215 28.2C6.60215 33.3 6.63139 37.5598 5.91488 43.4182C5.19838 49.2766 3.01925 53.5504 2.70226 57C2.38528 60.4496 3.76174 62.9542 5.12166 63.5179C6.48158 64.0816 12.002 64.3816 13.202 64.0816C14.1578 63.8427 14.9967 62.2855 15.4128 60.2115M43.601 11.9024C44.276 11.5627 44.6682 11.624 45.2979 11.694C45.9275 11.7639 46.7282 12.0873 47.2776 12.2897C49.7374 13.196 51.3604 14.0848 52.5043 15.6C54.9018 18.7757 55.8041 23.1 55.8041 28.2C55.8041 33.3 55.7749 37.5598 56.4914 43.4182C57.2079 49.2766 59.387 53.5504 59.704 57C60.021 60.4496 58.6445 62.9542 57.2846 63.5179C55.9247 64.0816 50.4043 64.3816 49.2042 64.0816C48.2808 63.8508 47.3553 62.4167 46.9239 60.4476" stroke="#1E1E1E" stroke-width="0.6" stroke-linecap="round"/>
<path d="M34.8094 64.2C34.8094 63.8686 34.5407 63.6 34.2094 63.6C33.878 63.6 33.6094 63.8686 33.6094 64.2C33.6094 64.5314 33.878 64.8 34.2094 64.8C34.5407 64.8 34.8094 64.5314 34.8094 64.2Z" fill="#1E1E1E"/>
<path d="M34.8094 51C34.8094 50.6686 34.5407 50.4 34.2094 50.4C33.878 50.4 33.6094 50.6686 33.6094 51C33.6094 51.3314 33.878 51.6 34.2094 51.6C34.5407 51.6 34.8094 51.3314 34.8094 51Z" fill="#1E1E1E"/>
<path d="M34.8094 37.8C34.8094 37.4686 34.5407 37.2 34.2094 37.2C33.878 37.2 33.6094 37.4686 33.6094 37.8C33.6094 38.1314 33.878 38.4 34.2094 38.4C34.5407 38.4 34.8094 38.1314 34.8094 37.8Z" fill="#1E1E1E"/>
<path d="M34.8094 24.6C34.8094 24.2686 34.5407 24 34.2094 24C33.878 24 33.6094 24.2686 33.6094 24.6C33.6094 24.9314 33.878 25.2 34.2094 25.2C34.5407 25.2 34.8094 24.9314 34.8094 24.6Z" fill="#1E1E1E"/>
</svg>
