<svg width="64" height="84" viewBox="0 0 64 84" fill="none" xmlns="http://www.w3.org/2000/svg">
<path d="M18.3001 27.0001C18.6212 30.597 18.1651 34.0483 17.6289 37.1582M31.8001 59.4001C31.8001 62.7001 30.2908 63.0608 29.1001 63.3001C26.7001 63.7823 21.4664 63.7671 19.365 63.3001C16.665 62.7001 15.7076 61.5103 15.6216 60.2821C15.5356 59.054 15.6216 56.9151 16.4769 54.0048C17.3321 51.0944 16.4996 49.7882 16.4768 45.326C16.4653 43.0851 17.0879 40.2954 17.6289 37.1582M31.8001 59.4001C31.8001 62.7001 33.3091 63.0608 34.4999 63.3001C36.8999 63.7823 42.1336 63.7671 44.235 63.3001C46.935 62.7001 47.8924 61.5103 47.9784 60.2821C48.0644 59.054 47.9784 56.9151 47.1231 54.0048C46.2678 51.0944 47.1003 49.7882 47.1232 45.326C47.1346 43.0862 46.5127 40.2981 45.9719 37.1627M31.8001 59.4001C32.0001 58.7001 31.8594 55.9189 32.0994 49.6789C32.3607 42.8847 31.4897 42.8197 31.4897 36.8163C31.4897 34.3011 31.8289 33.734 32.0994 28.7958M45.2999 27.0001C44.9786 30.5988 45.4353 34.0517 45.9719 37.1627M32.0994 28.7958C32.2626 25.8173 32.5571 24.0773 33.5629 22.2433C34.5687 20.4093 40.9889 10.8064 42.2303 10.6071M32.0994 28.7958C31.4994 24.0896 31.1964 24.2548 30.4273 22.2433C29.6582 20.2318 22.6169 10.8064 21.3755 10.6071M21.3755 10.6071C23.5342 9.56127 28.0021 8.46631 31.7607 8.46631C35.5194 8.46631 40.0717 9.56127 42.2303 10.6071M21.3755 10.6071C20.661 10.4923 19.8265 10.7924 18.9149 11.3495C18.0032 11.9066 17.3144 12.4605 16.6625 12.95C14.8702 14.2956 13.5063 15.6256 12.656 16.5507C10.5117 18.884 9.07544 22.2343 8.63956 25.6237C8.20369 29.0132 7.41602 30.5356 6.66044 32.7379C5.90485 34.9403 6.43033 36.2007 7.74919 36.9561C9.06805 37.7115 15.3637 38.509 16.8644 37.7536C17.1749 37.5973 17.426 37.398 17.6289 37.1582M42.2303 10.6071C43.1451 10.3819 44.2639 11.136 44.777 11.4575C45.29 11.779 46.4146 12.549 47.1914 13.1451C48.8574 14.4233 50.1317 15.6703 50.9409 16.5507C53.0852 18.884 54.5214 22.2343 54.9573 25.6237C55.3932 29.0132 56.1809 30.5356 56.9364 32.7379C57.692 34.9403 57.1665 36.2007 55.8477 36.9561C54.5288 37.7115 48.2332 38.509 46.7325 37.7536C46.4239 37.5983 46.1741 37.4006 45.9719 37.1627" stroke="#1E1E1E" stroke-width="0.6" stroke-linecap="round"/>
<path d="M35.4031 51C35.4031 50.6686 35.1345 50.4 34.8031 50.4C34.4718 50.4 34.2031 50.6686 34.2031 51C34.2031 51.3314 34.4718 51.6 34.8031 51.6C35.1345 51.6 35.4031 51.3314 35.4031 51Z" fill="#1E1E1E"/>
<path d="M35.4031 37.8C35.4031 37.4686 35.1345 37.2 34.8031 37.2C34.4718 37.2 34.2031 37.4686 34.2031 37.8C34.2031 38.1314 34.4718 38.4 34.8031 38.4C35.1345 38.4 35.4031 38.1314 35.4031 37.8Z" fill="#1E1E1E"/>
<path d="M35.4031 24.6C35.4031 24.2686 35.1345 24 34.8031 24C34.4718 24 34.2031 24.2686 34.2031 24.6C34.2031 24.9314 34.4718 25.2 34.8031 25.2C35.1345 25.2 35.4031 24.9314 35.4031 24.6Z" fill="#1E1E1E"/>
</svg>
