<svg width="63" height="84" viewBox="0 0 63 84" fill="none" xmlns="http://www.w3.org/2000/svg">
<path d="M17.9096 27C18.5096 35.1 15.3394 44.3782 15.3622 48.8405C15.3851 53.3027 16.3179 53.7103 16.1629 56.2993C16.052 58.1512 15.7395 59.6679 15.4237 61.1111M31.4096 69C31.4096 72.3 29.9003 72.6607 28.7096 72.9C26.3096 73.3822 19.7106 73.067 17.6092 72.6C14.9092 72 15.0034 71.2299 14.7777 69.9C14.5519 68.5701 14.5099 65.885 14.9095 63.6C15.0562 62.761 15.2405 61.9484 15.4237 61.1111M31.4096 69C31.4096 72.3 32.7934 72.6607 33.9842 72.9C36.3842 73.3822 42.9832 73.067 45.0846 72.6C47.7846 72 47.6903 71.2299 47.9161 69.9C48.1419 68.5701 48.1839 65.885 47.7843 63.6C47.6233 62.6795 47.417 61.7906 47.2166 60.8661M31.4096 69C31.6096 68.3 31.4672 64.7402 31.7072 58.5002C32.0072 50.7002 31.1072 46.2002 31.1072 41.4002C31.1072 38.885 31.4367 33.7339 31.7072 28.7957M44.7842 27C44.1842 35.1 47.3543 44.3782 47.3315 48.8405C47.3087 53.3027 46.3758 53.7103 46.5308 56.2993C46.6355 58.0467 46.9196 59.4957 47.2166 60.8661M31.7072 28.7957C31.8704 25.8172 32.0039 25.0001 32.5039 22.5001C32.8008 21.0155 34.1449 19.6385 35.0039 19.0001C35.5914 18.5635 36.4885 17.9854 37.5039 17.5001C40.0039 16.3053 41.5467 14.1147 42.3622 13.0464C42.7912 12.4844 43.2792 12.1098 43.8057 11.903M31.7072 28.7957C31.7072 25.0001 31.5039 24.0001 31.0039 22.5001C30.5039 21.0001 30.0039 19.0001 26.5039 17.8719C23.0039 16.7436 21.2819 14.1338 20.4518 13.0464C20.0184 12.4786 19.5249 12.1018 18.9921 11.8963M4.82859 61.1257C6.54248 61.496 10.7506 62.1075 13.8717 61.5907M57.9839 61.1257C56.27 61.496 52.0619 62.1075 48.9408 61.5907M43.8057 11.903C40.0037 10.717 34.8235 10.3154 31.3687 10.3154C27.9204 10.3154 22.7921 10.7155 18.9921 11.8963M43.8057 11.903C44.6628 11.5662 46.0039 11.9536 47.5039 12.5C49.0039 13.0464 51.5039 14.5 53.5039 17.5001C55.5039 20.5002 56.0072 23.1 56.0072 28.2C56.0072 33.3 55.978 37.5598 56.6945 43.4182C57.411 49.2766 59.5901 53.5504 59.9071 57C60.2241 60.4496 58.8476 62.9542 57.4877 63.5179C56.1278 64.0816 50.6074 64.3816 49.4074 64.0816C48.5551 63.8685 47.6716 62.6073 47.2166 60.8661M18.9921 11.8963C18.1392 11.5672 16.5039 11.8963 14.5039 13C12.5039 14.1037 10.7896 15 9.00391 17.5001C7.21817 20.0002 6.80527 23.1 6.80527 28.2C6.80527 33.3 6.83451 37.5598 6.11801 43.4182C5.40151 49.2766 3.22237 53.5504 2.90539 57C2.5884 60.4496 3.96486 62.9542 5.32478 63.5179C6.6847 64.0816 12.2051 64.3816 13.4051 64.0816C14.1022 63.9074 14.9605 62.3766 15.4237 61.1111" stroke="#1E1E1E" stroke-width="0.6" stroke-linecap="round"/>
<path d="M34.9969 64.2C34.9969 63.8686 34.7282 63.6 34.3969 63.6C34.0655 63.6 33.7969 63.8686 33.7969 64.2C33.7969 64.5314 34.0655 64.8 34.3969 64.8C34.7282 64.8 34.9969 64.5314 34.9969 64.2Z" fill="#1E1E1E"/>
<path d="M34.9969 51C34.9969 50.6686 34.7282 50.4 34.3969 50.4C34.0655 50.4 33.7969 50.6686 33.7969 51C33.7969 51.3314 34.0655 51.6 34.3969 51.6C34.7282 51.6 34.9969 51.3314 34.9969 51Z" fill="#1E1E1E"/>
<path d="M34.9969 37.8C34.9969 37.4686 34.7282 37.2 34.3969 37.2C34.0655 37.2 33.7969 37.4686 33.7969 37.8C33.7969 38.1314 34.0655 38.4 34.3969 38.4C34.7282 38.4 34.9969 38.1314 34.9969 37.8Z" fill="#1E1E1E"/>
<path d="M34.9969 24.6C34.9969 24.2686 34.7282 24 34.3969 24C34.0655 24 33.7969 24.2686 33.7969 24.6C33.7969 24.9314 34.0655 25.2 34.3969 25.2C34.7282 25.2 34.9969 24.9314 34.9969 24.6Z" fill="#1E1E1E"/>
</svg>
