<svg width="63" height="84" viewBox="0 0 63 84" fill="none" xmlns="http://www.w3.org/2000/svg">
<path d="M44.704 27C44.704 27 45.4284 31.0379 45.4286 34.0998C45.4287 35.4441 45.4631 36.4427 45.4865 37.2813M31.2749 39.74C31.2749 43.04 32.7135 43.2643 33.9043 43.5035C36.3043 43.9858 40.727 43.7893 42.4756 43.5035C44.2243 43.2178 45.2505 41.7686 45.4287 40.0993C45.5286 39.1629 45.5165 38.3527 45.4865 37.2813M31.2749 39.74C31.2749 43.04 29.865 43.2214 28.6742 43.4606C26.2742 43.9429 23.2748 43.8749 20.7392 43.4606C18.2035 43.0463 17.564 41.5081 17.2314 40.5344C16.9577 39.7332 16.8727 39.7782 16.8203 37.38M31.2749 39.74C31.2749 37.4563 31.2657 37.7402 31.5057 31.5002V28.7957M17.8741 27C17.8741 27 16.734 31.0769 16.7895 35.4568C16.7993 36.2332 16.8091 36.8633 16.8203 37.38M31.5057 28.7957C31.6688 25.8172 32.2453 22.4545 32.6356 20.6716C32.8915 19.5028 33.3411 18.7352 34.2041 18.1942C35.0671 17.6533 36.4609 17.7069 37.1143 17.7851C38.0901 17.902 38.8206 18.0001 39.3058 18.0001C40.5058 18.0001 41.3366 17.4001 41.8212 16.2001C42.0307 15.6814 42.315 14.8305 42.5734 13.645C42.674 12.646 43.1186 12.146 43.6025 11.9024M31.5057 28.7957C30.9057 24.0895 30.5226 21.737 30.2278 20.6716C29.9329 19.6061 29.6851 18.784 28.911 18.1942C28.137 17.6044 27.1473 17.5824 26.4651 17.6533C24.8877 17.8171 23.7677 18.0001 23.1051 18.0001C21.9051 18.0001 21.0743 17.4001 20.5897 16.2001C20.3803 15.6814 20.096 14.8305 19.8375 13.645C19.7359 12.636 19.2834 12.1361 18.794 11.8953M18.794 11.8953C22.5936 10.7152 27.7198 10.3154 31.1671 10.3154C34.6214 10.3154 39.8006 10.7168 43.6025 11.9024M18.794 11.8953C18.1227 11.565 17.5841 11.8953 17.1089 12.2237C16.6337 12.552 16.3524 12.7323 15.8827 13.0905C14.1819 14.3876 12.8828 15.6575 12.0623 16.5504C9.91796 18.8837 8.48169 22.234 8.04581 25.6235C7.60994 29.0129 6.82227 30.5353 6.06669 32.7376C5.3111 34.94 5.83658 36.2004 7.15544 36.9558C8.4743 37.7112 14.7699 38.5087 16.2707 37.7533C16.4797 37.6481 16.6618 37.5234 16.8203 37.38M43.6025 11.9024C44.2775 11.5627 44.9019 11.9678 45.2553 12.1714C45.6086 12.375 46.3896 12.978 46.899 13.3789C48.4178 14.5742 49.5875 15.7239 50.3471 16.5504C52.4914 18.8837 53.9277 22.234 54.3636 25.6235C54.7994 29.0129 55.5871 30.5353 56.3427 32.7376C57.0983 34.94 56.5728 36.2004 55.2539 36.9558C53.9351 37.7112 47.6394 38.5087 46.1387 37.7533C45.8831 37.6246 45.6678 37.4669 45.4865 37.2813" stroke="#1E1E1E" stroke-width="0.6" stroke-linecap="round"/>
<path d="M34.8094 37.8C34.8094 37.4686 34.5407 37.2 34.2094 37.2C33.878 37.2 33.6094 37.4686 33.6094 37.8C33.6094 38.1314 33.878 38.4 34.2094 38.4C34.5407 38.4 34.8094 38.1314 34.8094 37.8Z" fill="#1E1E1E"/>
<path d="M34.8094 24.6C34.8094 24.2686 34.5407 24 34.2094 24C33.878 24 33.6094 24.2686 33.6094 24.6C33.6094 24.9314 33.878 25.2 34.2094 25.2C34.5407 25.2 34.8094 24.9314 34.8094 24.6Z" fill="#1E1E1E"/>
</svg>
