<svg width="63" height="84" viewBox="0 0 63 84" fill="none" xmlns="http://www.w3.org/2000/svg">
<path d="M44.9056 27C44.9056 27 45.6299 31.0379 45.6301 34.0998C45.6303 35.9681 45.6966 37.1687 45.7079 38.2M31.4764 39.74C31.4764 43.04 32.9151 43.2643 34.1058 43.5035C36.5058 43.9858 40.9285 43.7893 42.6772 43.5035C44.4259 43.2178 45.4521 41.7686 45.6302 40.0993C45.6997 39.4486 45.715 38.8588 45.7079 38.2M31.4764 39.74C31.4764 43.04 30.0665 43.2214 28.8758 43.4606C26.4758 43.9429 23.4764 43.8749 20.9407 43.4606C18.4051 43.0463 17.7656 41.5081 17.4329 40.5344C17.2048 39.8665 17.1078 39.7866 17.0515 38.3889M31.4764 39.74C31.4764 37.4563 31.4672 37.7402 31.7072 31.5002V28.7957M18.0756 27C18.0756 27 16.9356 31.0769 16.991 35.4568C17.0084 36.8325 17.0257 37.7489 17.0515 38.3889M31.7072 28.7957C31.8704 25.8172 32.4469 22.4545 32.8372 20.6716C33.0085 19.8891 33.3588 19.1254 34.0321 18.7677C34.7054 18.41 35.4026 18.153 35.9902 17.9741C39.9347 16.7729 41.5087 14.1645 42.3622 13.0464C42.7912 12.4844 43.2792 12.1098 43.8057 11.903M31.7072 28.7957C31.2453 25.1722 30.9899 22.4808 30.603 20.6716C30.4873 20.1309 30.3309 19.6018 29.8028 19.0412C29.2747 18.4806 28.0385 18.2834 27.7861 18.227C23.1281 17.1868 21.3716 14.2513 20.4518 13.0464C20.0184 12.4786 19.5249 12.1018 18.9921 11.8963M4.82859 61.1257C6.54248 61.496 10.7506 62.1075 13.8717 61.5907M57.9839 61.1257C56.27 61.496 52.0619 62.1075 48.9408 61.5907M43.8057 11.903C40.0037 10.717 34.8235 10.3154 31.3687 10.3154C27.9204 10.3154 22.7921 10.7155 18.9921 11.8963M43.8057 11.903C44.6628 11.5662 45.8265 11.7584 46.3941 11.903C46.9616 12.0475 47.9448 12.4559 48.5337 12.6991C50.4173 13.4771 51.7354 14.3124 52.7074 15.6C55.1049 18.7757 56.0072 23.1 56.0072 28.2C56.0072 33.3 55.978 37.5598 56.6945 43.4182C57.411 49.2766 59.5901 53.5504 59.9071 57C60.2241 60.4496 58.8476 62.9542 57.4877 63.5179C56.1278 64.0816 50.6074 64.3816 49.4074 64.0816C48.2074 63.7816 47.1412 61.4038 46.9409 58.534C46.7406 55.6641 47.8196 53.4258 47.0068 44.2469C46.784 41.7311 46.243 40.1104 45.7079 38.2M18.9921 11.8963C18.1392 11.5672 17.5162 11.6562 16.8345 11.815C16.1529 11.9738 14.8155 12.4751 14.2067 12.729C12.3615 13.4986 11.0647 14.3289 10.1051 15.6C7.70758 18.7757 6.80527 23.1 6.80527 28.2C6.80527 33.3 6.83451 37.5598 6.11801 43.4182C5.40151 49.2766 3.22237 53.5504 2.90539 57C2.5884 60.4496 3.96486 62.9542 5.32478 63.5179C6.6847 64.0816 12.2051 64.3816 13.4051 64.0816C14.6051 63.7816 15.6713 61.4038 15.8716 58.534C16.0719 55.6641 14.9929 53.4258 15.8057 44.2469C16.0211 41.8144 16.5341 40.2187 17.0515 38.3889" stroke="#1E1E1E" stroke-width="0.6" stroke-linecap="round"/>
<path d="M34.9969 37.8C34.9969 37.4686 34.7282 37.2 34.3969 37.2C34.0655 37.2 33.7969 37.4686 33.7969 37.8C33.7969 38.1314 34.0655 38.4 34.3969 38.4C34.7282 38.4 34.9969 38.1314 34.9969 37.8Z" fill="#1E1E1E"/>
<path d="M34.9969 24.6C34.9969 24.2686 34.7282 24 34.3969 24C34.0655 24 33.7969 24.2686 33.7969 24.6C33.7969 24.9314 34.0655 25.2 34.3969 25.2C34.7282 25.2 34.9969 24.9314 34.9969 24.6Z" fill="#1E1E1E"/>
</svg>
