<svg width="64" height="84" viewBox="0 0 64 84" fill="none" xmlns="http://www.w3.org/2000/svg">
<path d="M45.2984 27.0001C45.0729 29.5256 45.0349 31.6016 45.0918 33.3337M31.7983 48.2349C31.7983 51.5349 33.3075 51.8957 34.4983 52.1349C36.8983 52.6171 41.7312 52.4206 43.4798 52.1349C45.2285 51.8492 46.3641 49.6921 46.4157 47.5804C46.4672 45.4687 46.0521 42.4564 45.7976 40.1138C45.632 38.5901 45.1977 36.5572 45.0918 33.3337M31.7983 48.2349C31.7983 51.5349 30.4541 51.8957 29.2634 52.1349C26.8634 52.6171 23.8639 52.5492 21.3283 52.1349C18.7926 51.7206 18.1532 50.1824 17.8205 49.2087C17.4879 48.2349 17.3631 46.2713 17.4384 44.1412C17.4939 42.5712 18.3748 37.9287 18.5759 32.7026M31.7983 48.2349C31.7983 46.7899 31.8561 46.3538 32.0961 40.1138C32.3574 33.3197 32.0961 34.7992 32.0961 28.7958M18.4633 27.0001C18.6329 28.8999 18.6476 30.8383 18.5759 32.7026M32.0961 28.7958C32.2593 25.8173 32.369 24.1968 32.9055 22.546C33.4421 20.8952 35.0682 18.3776 36.298 16.8506C37.5279 15.3236 40.9874 10.8064 42.2287 10.6071M32.0961 28.7958C31.4961 24.0896 31.5432 24.5707 30.7289 21.999C29.9145 19.4272 24.709 12.7925 24.709 12.7925C24.709 12.7925 22.6153 10.8064 21.374 10.6071M5.21921 61.1258C6.93311 61.4961 11.1412 62.1076 14.2624 61.5908M58.3745 61.1258C56.6606 61.4961 52.4526 62.1076 49.3314 61.5908M21.374 10.6071C23.5326 9.56127 28.0005 8.46631 31.7592 8.46631C35.5178 8.46631 40.0701 9.56127 42.2287 10.6071M21.374 10.6071C20.6594 10.4923 19.7427 10.7418 18.9914 11.0523C18.2401 11.3628 17.3747 11.7109 16.7223 11.935C13.6916 12.9761 11.7879 13.8885 10.4957 15.6001C8.09821 18.7758 7.1959 23.1001 7.1959 28.2001C7.1959 33.3001 7.22514 37.5599 6.50863 43.4183C5.79213 49.2767 3.613 53.5505 3.29601 57.0001C2.97903 60.4497 4.35549 62.9543 5.71541 63.518C7.07533 64.0817 12.5957 64.3817 13.7958 64.0817C14.9958 63.7817 16.0619 61.4039 16.2622 58.5341C16.4625 55.6642 15.3835 53.4259 16.1963 44.247C16.5914 39.7862 17.9869 38.1397 18.5759 32.7026M42.2287 10.6071C42.9433 10.4924 43.5232 10.6828 44.3887 10.9975C45.2541 11.3122 45.9858 11.6343 46.603 11.8434C49.7904 12.9235 51.7681 13.8385 53.098 15.6001C55.4955 18.7758 56.3979 23.1001 56.3979 28.2001C56.3979 33.3001 56.3686 37.5599 57.0851 43.4183C57.8016 49.2767 59.9808 53.5505 60.2977 57.0001C60.6147 60.4497 59.2383 62.9543 57.8783 63.518C56.5184 64.0817 50.998 64.3817 49.798 64.0817C48.598 63.7817 47.5319 61.4039 47.3316 58.5341C47.1313 55.6642 48.2103 53.4259 47.3974 44.247C47.0181 39.9636 45.7162 38.2751 45.0918 33.3337" stroke="#1E1E1E" stroke-width="0.6" stroke-linecap="round"/>
<path d="M35.4031 48.5815C35.4031 48.2501 35.1345 47.9815 34.8031 47.9815C34.4718 47.9815 34.2031 48.2501 34.2031 48.5815C34.2031 48.9129 34.4718 49.1815 34.8031 49.1815C35.1345 49.1815 35.4031 48.9129 35.4031 48.5815Z" fill="#1E1E1E"/>
<path d="M35.4031 36.6C35.4031 36.2686 35.1345 36 34.8031 36C34.4718 36 34.2031 36.2686 34.2031 36.6C34.2031 36.9314 34.4718 37.2 34.8031 37.2C35.1345 37.2 35.4031 36.9314 35.4031 36.6Z" fill="#1E1E1E"/>
<path d="M35.4031 24.6C35.4031 24.2686 35.1345 24 34.8031 24C34.4718 24 34.2031 24.2686 34.2031 24.6C34.2031 24.9314 34.4718 25.2 34.8031 25.2C35.1345 25.2 35.4031 24.9314 35.4031 24.6Z" fill="#1E1E1E"/>
</svg>
