<svg width="64" height="84" viewBox="0 0 64 84" fill="none" xmlns="http://www.w3.org/2000/svg">
<path d="M45.2978 27.0001C45.2978 27.0001 46.0221 31.038 46.0223 34.0999C46.0224 35.4442 46.0568 36.4428 46.0803 37.2814M31.8686 39.7401C31.8686 43.0401 33.3073 43.2644 34.498 43.5036C36.898 43.9859 41.3207 43.7894 43.0694 43.5036C44.818 43.2179 45.8443 41.7687 46.0224 40.0994C46.1224 39.163 46.1102 38.3528 46.0803 37.2814M31.8686 39.7401C31.8686 43.0401 30.4587 43.2215 29.268 43.4607C26.868 43.943 23.8686 43.875 21.3329 43.4607C18.7973 43.0464 18.1578 41.5082 17.8251 40.5345C17.5514 39.7333 17.4665 39.7783 17.4141 37.3801M31.8686 39.7401C31.8686 37.4564 31.8594 37.7403 32.0994 31.5003V28.7958M18.4678 27.0001C18.4678 27.0001 17.3278 31.077 17.3832 35.4569C17.393 36.2333 17.4028 36.8634 17.4141 37.3801M32.0994 28.7958C32.2626 25.8173 32.2606 23.2302 33.6607 20.6717C35.0608 18.1131 40.9889 10.8064 42.2303 10.6071M32.0994 28.7958C31.4994 24.0896 31.5022 24.1053 29.9854 20.6717C28.4686 17.238 22.6169 10.8064 21.3755 10.6071M21.3755 10.6071C23.5342 9.56127 28.0021 8.46631 31.7607 8.46631C35.5194 8.46631 40.0717 9.56127 42.2303 10.6071M21.3755 10.6071C20.661 10.4923 19.9643 10.6071 19.0644 11.2015C18.1646 11.796 17.5203 12.3154 16.8644 12.7995C14.9725 14.1959 13.5379 15.5909 12.656 16.5505C10.5117 18.8838 9.07544 22.2341 8.63956 25.6236C8.20369 29.013 7.41602 30.5354 6.66044 32.7377C5.90485 34.9401 6.43033 36.2005 7.74919 36.9559C9.06805 37.7113 15.3637 38.5088 16.8644 37.7534C17.0734 37.6482 17.2555 37.5235 17.4141 37.3801M42.2303 10.6071C42.9448 10.4924 43.6474 10.7464 44.5025 11.2549C45.3576 11.7633 46.2937 12.4691 46.9265 12.9439C48.7227 14.2915 50.0894 15.624 50.9409 16.5505C53.0852 18.8838 54.5214 22.2341 54.9573 25.6236C55.3932 29.013 56.1809 30.5354 56.9364 32.7377C57.692 34.9401 57.1665 36.2005 55.8477 36.9559C54.5288 37.7113 48.2332 38.5088 46.7325 37.7534C46.4769 37.6247 46.2616 37.467 46.0803 37.2814" stroke="#1E1E1E" stroke-width="0.6" stroke-linecap="round"/>
<path d="M35.4031 37.8C35.4031 37.4686 35.1345 37.2 34.8031 37.2C34.4718 37.2 34.2031 37.4686 34.2031 37.8C34.2031 38.1314 34.4718 38.4 34.8031 38.4C35.1345 38.4 35.4031 38.1314 35.4031 37.8Z" fill="#1E1E1E"/>
<path d="M35.4031 24.6C35.4031 24.2686 35.1345 24 34.8031 24C34.4718 24 34.2031 24.2686 34.2031 24.6C34.2031 24.9314 34.4718 25.2 34.8031 25.2C35.1345 25.2 35.4031 24.9314 35.4031 24.6Z" fill="#1E1E1E"/>
</svg>
