<svg width="64" height="84" viewBox="0 0 64 84" fill="none" xmlns="http://www.w3.org/2000/svg">
<path d="M18.2985 27.0001C18.9435 34.2256 16.4524 40.8637 16.4752 45.326C16.4981 49.7882 17.3306 51.0944 16.4753 54.0048C15.62 56.9151 15.5341 59.054 15.6201 60.2821C15.6395 60.5603 15.7037 60.8365 15.8227 61.1043M31.7985 59.4001C31.7985 62.7001 30.2893 63.0608 29.0985 63.3001C26.6985 63.7823 21.4649 63.7671 19.3634 63.3001C17.2749 62.836 16.2291 62.019 15.8227 61.1043M31.7985 59.4001C31.7985 62.7001 33.3076 63.0608 34.4983 63.3001C36.8983 63.7823 42.132 63.7671 44.2334 63.3001C46.3187 62.8367 47.3645 62.0215 47.7723 61.1085M31.7985 59.4001C31.9985 58.7001 31.8578 55.9189 32.0978 49.6789C32.3591 42.8847 31.4881 42.8197 31.4881 36.8163C31.4881 34.3011 31.8273 33.734 32.0978 28.7958M45.2983 27.0001C44.6533 34.2256 47.1444 40.8637 47.1216 45.326C47.0988 49.7882 46.2663 51.0944 47.1216 54.0048C47.9768 56.9151 48.0628 59.054 47.9768 60.2821C47.9572 60.5618 47.8925 60.8394 47.7723 61.1085M32.0978 28.7958C32.261 25.8173 32.659 23.2673 33.6377 20.9503C34.6164 18.6334 38.0749 13.6403 38.8937 12.7925C39.946 11.703 40.9874 10.8064 42.2287 10.6071M32.0978 28.7958C31.4978 24.0896 31.058 22.6986 30.1466 20.6717C29.2352 18.6447 25.6268 13.7428 24.709 12.7925C23.6567 11.703 22.6153 10.8064 21.374 10.6071M5.21921 61.1258C6.93311 61.4961 11.1412 62.1076 14.2624 61.5908M58.3745 61.1258C56.6606 61.4961 52.4526 62.1076 49.3314 61.5908M21.374 10.6071C23.5326 9.56127 28.0005 8.46631 31.7592 8.46631C35.5178 8.46631 40.0701 9.56127 42.2287 10.6071M21.374 10.6071C20.6594 10.4923 19.907 10.7892 19.1531 11.0405C18.3992 11.2918 17.5135 11.6653 16.8875 11.8785C13.7605 12.9434 11.8112 13.8576 10.4957 15.6001C8.09821 18.7758 7.1959 23.1001 7.1959 28.2001C7.1959 33.3001 7.22514 37.5599 6.50863 43.4183C5.79213 49.2767 3.613 53.5505 3.29601 57.0001C2.97903 60.4497 4.35549 62.9543 5.71541 63.518C7.07533 64.0817 12.5957 64.3817 13.7958 64.0817C14.6087 63.8785 15.3602 62.7217 15.8227 61.1043M42.2287 10.6071C42.9433 10.4924 43.9192 10.8386 44.6154 11.111C45.3116 11.3835 47.7008 12.3545 48.8894 12.7925C50.0781 13.2304 51.7713 13.8427 53.098 15.6001C55.4955 18.7758 56.3979 23.1001 56.3979 28.2001C56.3979 33.3001 56.3686 37.5599 57.0851 43.4183C57.8016 49.2767 59.9808 53.5505 60.2977 57.0001C60.6147 60.4497 59.2383 62.9543 57.8783 63.518C56.5184 64.0817 50.998 64.3817 49.798 64.0817C48.9858 63.8786 48.2349 62.7237 47.7723 61.1085" stroke="#1E1E1E" stroke-width="0.6" stroke-linecap="round"/>
<path d="M35.4031 51C35.4031 50.6686 35.1345 50.4 34.8031 50.4C34.4718 50.4 34.2031 50.6686 34.2031 51C34.2031 51.3314 34.4718 51.6 34.8031 51.6C35.1345 51.6 35.4031 51.3314 35.4031 51Z" fill="#1E1E1E"/>
<path d="M35.4031 37.8C35.4031 37.4686 35.1345 37.2 34.8031 37.2C34.4718 37.2 34.2031 37.4686 34.2031 37.8C34.2031 38.1314 34.4718 38.4 34.8031 38.4C35.1345 38.4 35.4031 38.1314 35.4031 37.8Z" fill="#1E1E1E"/>
<path d="M35.4031 24.6C35.4031 24.2686 35.1345 24 34.8031 24C34.4718 24 34.2031 24.2686 34.2031 24.6C34.2031 24.9314 34.4718 25.2 34.8031 25.2C35.1345 25.2 35.4031 24.9314 35.4031 24.6Z" fill="#1E1E1E"/>
</svg>
