<svg width="63" height="54" viewBox="0 0 63 54" fill="none" xmlns="http://www.w3.org/2000/svg">
<path d="M3.50888 48.3355C3.50888 48.3355 3.30123 49.6178 3.30112 50.2484C3.30101 50.879 3.8428 51.3603 4.90432 51.5263C5.96583 51.6923 8.69069 51.8969 11.8042 51.8945C15.4876 51.8916 19.0786 51.713 20.769 51.5335C22.4593 51.354 23.2344 49.5154 23.2344 49.5154C23.2344 49.5154 23.2047 51.5335 25.0295 51.5335H27.5679C28.5744 51.5335 29.1844 51.2288 29.4592 50.4053C29.734 49.5818 29.4592 44.5059 29.4592 44.5059M3.50888 48.3355C3.50888 48.3355 3.18648 47.6749 3.1875 46.9341C3.18853 46.1934 3.32191 45.374 4.43644 44.3865C5.55097 43.3991 8.6355 43.35 10.4176 43.0514C12.1997 42.7528 14.8769 41.4668 16.4846 39.7729C18.0922 38.079 17.8514 34.0903 18.0922 32.3217C18.333 30.553 19.744 30.8673 20.769 30.8673L26.954 30.8673C28.635 30.8673 28.7 31.5235 28.905 33.0815C29.11 34.6395 29.4592 44.5059 29.4592 44.5059M3.50888 48.3355C3.86771 48.3791 7.46925 48.8103 10.2145 48.8425C13.5534 48.8817 14.5641 48.8768 17.2395 48.4732C19.9148 48.0696 21.6445 46.8724 24.0657 45.8893C26.4868 44.9062 27.6109 44.6807 29.4592 44.5059M59.7485 48.3356C59.7485 48.3356 59.9562 49.6179 59.9563 50.2485C59.9564 50.8791 59.4146 51.3604 58.3531 51.5264C57.2916 51.6923 54.5667 51.8969 51.4532 51.8945C47.7698 51.8916 44.1788 51.713 42.4884 51.5335C40.7981 51.354 40.023 49.5155 40.023 49.5155C40.023 49.5155 40.0527 51.5335 38.2279 51.5335H35.6895C34.683 51.5335 34.073 51.2288 33.7982 50.4053C33.5234 49.5818 33.7982 44.5059 33.7982 44.5059M59.7485 48.3356C59.7485 48.3356 60.0709 47.675 60.0699 46.9342C60.0689 46.1934 59.9355 45.374 58.821 44.3866C57.7064 43.3992 54.6219 43.3501 52.8398 43.0515C51.0577 42.7529 48.3805 41.4669 46.7728 39.7729C45.1652 38.079 45.406 34.0904 45.1652 32.3217C44.9244 30.553 43.5134 30.8674 42.4884 30.8674L36.3034 30.8674C34.6223 30.8674 34.5574 31.5235 34.3524 33.0815C34.1474 34.6396 33.7982 44.5059 33.7982 44.5059M59.7485 48.3356C59.3897 48.3791 55.7881 48.8103 53.0429 48.8426C49.704 48.8817 48.6933 48.8768 46.0179 48.4732C43.3426 48.0697 41.6129 46.8725 39.1917 45.8894C36.7706 44.9063 35.6465 44.6808 33.7982 44.5059" stroke="#1E1E1E" stroke-linecap="round"/>
</svg>
