<svg width="63" height="54" viewBox="0 0 63 54" fill="none" xmlns="http://www.w3.org/2000/svg">
<path d="M29.0611 48.8193C28.9904 48.8169 29.2835 47.3918 29.0611 45.3145C28.9985 44.7301 28.2805 40.5455 28.2805 39.0744C28.2805 37.6033 28.7996 7.24066 28.7996 6.19746C28.7996 4.84341 28.4489 3.93439 26.8107 3.9344C25.1724 3.93441 17.8777 3.89853 17.5489 3.93439C16.4035 4.05932 15.4925 4.75486 15.4925 6.19746C15.4925 7.64005 18.0788 38.9656 17.5193 39.8569C16.7568 41.0714 14.9138 43.024 14.0298 43.6025C12.7388 44.4474 11.6503 44.9905 9.44861 45.5504C7.2469 46.1102 4.21489 45.8088 3.10036 46.7962C2.04333 47.7326 2.43825 49.6464 2.48864 49.8797M29.0611 48.8193C29.0611 48.8193 29.3635 51.626 28.5687 51.626H23.5273C22.5959 51.626 22.3765 50.4813 22.3765 50.4813C22.3765 50.4813 20.5999 50.8016 18.8524 51.0346C17.105 51.2676 15.2345 51.5075 13.7272 51.6366C8.61265 52.0746 4.63391 51.6366 3.92582 51.6366C2.95273 51.6366 2.49032 51.6098 2.49032 50.8221C2.49032 50.517 2.45593 49.9751 2.48864 49.8797M29.0611 48.8193C29.0611 48.8193 25.1617 48.681 23.0687 48.8193C20.9757 48.9575 18.3256 49.2392 13.7272 49.8797C9.12883 50.5202 2.48864 49.8797 2.48864 49.8797M33.3411 48.8193C33.4118 48.8169 33.1187 47.3919 33.3411 45.3146C33.4037 44.7302 34.1217 40.5456 34.1217 39.0745C34.1217 37.6034 33.6026 7.24074 33.6026 6.19754C33.6026 4.84349 33.9533 3.93447 35.5915 3.93448C37.2298 3.93449 44.5245 3.89861 44.8533 3.93447C45.9987 4.0594 46.9097 4.75494 46.9097 6.19754C46.9097 7.64013 44.3234 38.9657 44.8829 39.8569C45.6454 41.0715 47.4884 43.0241 48.3724 43.6025C49.6634 44.4475 50.7519 44.9906 52.9536 45.5505C55.1553 46.1103 58.1873 45.8088 59.3018 46.7962C60.3589 47.7327 59.9623 49.6866 59.9119 49.9199M33.3411 48.8193C33.3411 48.8193 33.0387 51.626 33.8335 51.626H38.8749C39.8063 51.626 40.0257 50.4814 40.0257 50.4814C40.0257 50.4814 41.8023 50.8017 43.5498 51.0347C45.2972 51.2677 47.1677 51.5076 48.675 51.6367C53.7896 52.0747 57.7683 51.6367 58.4764 51.6367C59.4495 51.6367 59.9119 51.6099 59.9119 50.8221C59.9119 50.5171 59.9446 50.0153 59.9119 49.9199M33.3411 48.8193C33.3411 48.8193 37.2405 48.6811 39.3335 48.8193C41.4265 48.9576 43.774 49.2794 48.3724 49.9199C52.9708 50.5604 59.9119 49.9199 59.9119 49.9199" stroke="black" stroke-linecap="round"/>
</svg>
