<svg width="64" height="54" viewBox="0 0 64 54" fill="none" xmlns="http://www.w3.org/2000/svg">
<path d="M4.01063 48.3153C4.01063 48.3153 3.32813 49.5262 3.32813 50.3064C3.32813 51.0866 3.99831 51.3919 4.99903 51.5615C5.99976 51.7311 8.89247 51.8967 12.0059 51.8943C15.6894 51.8914 19.2804 51.7128 20.9707 51.5333C22.6611 51.3538 23.4361 49.5153 23.4361 49.5153C23.4361 49.5153 23.4065 51.5333 25.2312 51.5333H27.7697C28.7762 51.5333 29.3862 51.2286 29.661 50.4051C29.9357 49.5816 29.661 44.5057 29.661 44.5057M4.01063 48.3153C3.6518 48.2717 3.3271 47.6381 3.32813 46.8973C3.32915 46.1565 3.52368 45.3738 4.63821 44.3864C5.75274 43.399 8.83727 43.3499 10.6194 43.0513C12.4015 42.7527 16.6863 39.9379 17.4412 38.2527C18.1961 36.5676 15.9607 6.14121 16.2015 4.37253C16.4423 2.60385 17.9287 2.64171 18.9537 2.64171L27.4177 2.64171C29.0987 2.64171 29.298 3.57413 29.503 5.13215C29.6552 6.28914 28.849 36.5283 28.8823 38.2527C28.9155 39.9772 29.661 44.5057 29.661 44.5057M4.01063 48.3153C4.36946 48.3588 7.67102 48.8101 10.4162 48.8424C13.7552 48.8815 14.7659 48.8766 17.4412 48.473C20.1166 48.0695 21.8463 46.8723 24.2674 45.8892C26.6886 44.9061 27.8127 44.6806 29.661 44.5057M59.5878 48.3152C59.5878 48.3152 60.2703 49.5261 60.2703 50.3063C60.2703 51.0866 59.6001 51.3919 58.5994 51.5615C57.5987 51.7311 54.706 51.8967 51.5925 51.8942C47.909 51.8914 44.3181 51.7128 42.6277 51.5333C40.9374 51.3538 40.1623 49.5152 40.1623 49.5152C40.1623 49.5152 40.192 51.5333 38.3672 51.5333H35.8288C34.8223 51.5333 34.2123 51.2286 33.9375 50.4051C33.6627 49.5816 33.9375 44.5057 33.9375 44.5057M59.5878 48.3152C59.9466 48.2717 60.2713 47.638 60.2703 46.8972C60.2693 46.1564 60.0748 45.3737 58.9602 44.3863C57.8457 43.3989 54.7612 43.3498 52.9791 43.0512C51.1969 42.7526 46.9121 39.9378 46.1572 38.2527C45.4023 36.5676 47.6377 6.14116 47.3969 4.37248C47.1561 2.6038 45.6697 2.64167 44.6447 2.64167L36.1808 2.64167C34.4997 2.64167 34.3004 3.57408 34.0954 5.1321C33.9432 6.28909 34.7494 36.5283 34.7162 38.2527C34.6829 39.9771 33.9375 44.5057 33.9375 44.5057M59.5878 48.3152C59.229 48.3588 55.9274 48.8101 53.1822 48.8423C49.8432 48.8815 48.8325 48.8766 46.1572 48.473C43.4819 48.0694 41.7521 46.8722 39.331 45.8891C36.9099 44.906 35.7858 44.6805 33.9375 44.5057" stroke="#1E1E1E" stroke-linecap="round"/>
</svg>
