<svg width="63" height="54" viewBox="0 0 63 54" fill="none" xmlns="http://www.w3.org/2000/svg">
<path d="M28.8635 48.8191C28.8635 48.8191 29.0859 47.3917 28.8635 45.3143C28.591 42.7688 28.481 33.9976 28.3711 33.0457C28.2613 32.0938 27.7839 31.9959 26.7229 31.9959C25.662 31.9959 19.1381 31.9601 18.8094 31.996C17.664 32.1209 17.5937 32.7254 17.5716 33.4103C17.5495 34.0953 17.0724 40.0954 16.4944 41.2547C15.9164 42.414 15.0601 43.0521 14.1761 43.6305C12.8851 44.4754 11.4528 44.9904 9.25106 45.5502C7.04935 46.1101 4.01733 45.8086 2.90281 46.796C1.84578 47.7325 2.24457 49.6166 2.29496 49.8498M28.8635 48.8191C28.8635 48.8191 29.166 51.6258 28.3711 51.6258H23.3297C22.3983 51.6258 22.1789 50.4811 22.1789 50.4811C22.1789 50.4811 20.4023 50.8015 18.6549 51.0345C16.9074 51.2675 15.0369 51.5073 13.5297 51.6364C8.41509 52.0745 4.43636 51.6364 3.72826 51.6364C2.75518 51.6364 2.29277 51.6096 2.29277 50.8219C2.29277 50.5168 2.26225 49.9453 2.29496 49.8498M28.8635 48.8191C28.8635 48.8191 25.055 48.6808 22.962 48.819C20.8691 48.9572 18.1281 49.2093 13.5297 49.8498C8.93127 50.4903 2.29496 49.8498 2.29496 49.8498M33.1049 48.8191C33.1049 48.8191 32.8825 47.3916 33.1049 45.3143C33.3775 42.7688 33.4875 33.9976 33.5974 33.0457C33.7072 32.0937 34.1845 31.9959 35.2455 31.9959C36.3065 31.9959 42.8303 31.9601 43.1591 31.9959C44.3045 32.1209 44.3748 32.7254 44.3969 33.4103C44.419 34.0952 44.8961 40.0953 45.4741 41.2547C46.0521 42.414 46.9084 43.052 47.7923 43.6305C49.0834 44.4754 50.5157 44.9903 52.7174 45.5502C54.9191 46.11 57.9511 45.8086 59.0657 46.796C60.1227 47.7324 59.7239 49.6166 59.6735 49.8498M33.1049 48.8191C33.1049 48.8191 32.8025 51.6258 33.5974 51.6258H38.6387C39.5701 51.6258 39.7896 50.4811 39.7896 50.4811C39.7896 50.4811 41.5661 50.8014 43.3136 51.0344C45.061 51.2674 46.9315 51.5073 48.4388 51.6364C53.5534 52.0744 57.5321 51.6364 58.2402 51.6364C59.2133 51.6364 59.6757 51.6096 59.6757 50.8219C59.6757 50.5168 59.7062 49.9452 59.6735 49.8498M33.1049 48.8191C33.1049 48.8191 36.9135 48.6807 39.0064 48.819C41.0994 48.9572 43.8404 49.2093 48.4388 49.8498C53.0372 50.4903 59.6735 49.8498 59.6735 49.8498" stroke="black" stroke-linecap="round"/>
</svg>
