<svg width="63" height="129" viewBox="0 0 63 129" fill="none" xmlns="http://www.w3.org/2000/svg">
<path d="M15.1072 27.0001C15.5554 35.0359 13.7672 51.3306 13.7672 55.9653C13.7672 58.9218 13.7801 61.2114 13.8955 63.1059M16.7837 70.7814C16.7837 70.1814 17.0502 68.5982 17.0502 67.7099M16.7837 70.7814C15.2154 69.5387 14.4845 67.6329 14.2072 66.0001C14.0594 65.1295 13.961 64.1814 13.8955 63.1059M16.7837 70.7814C17.5245 71.3685 18.4522 71.8076 19.6072 72.0001C19.714 72.0179 19.8223 72.0346 19.9321 72.0504M19.9321 72.0504C19.8889 71.3878 19.8284 69.6786 19.9321 68.977M19.9321 72.0504C21.0028 72.2037 22.2121 72.2612 23.4439 72.2664M23.4439 72.2664V69.3006M23.4439 72.2664C24.6867 72.2716 25.9525 72.2235 27.122 72.1668M27.122 72.1668C27.122 71.5938 27.19 69.8934 27.2579 69.3006M27.122 72.1668C28.683 72.0911 30.0726 72.0001 31.0072 72.0001L31.0087 15.3M46.9084 27.0001C46.4602 35.0359 48.2484 51.3306 48.2484 55.9653C48.2484 58.9243 48.2355 61.2152 48.1199 63.1107M45.232 70.7814C45.232 70.1814 44.9655 68.5982 44.9655 67.7099M45.232 70.7814C46.8002 69.5387 47.5312 67.6329 47.8084 66.0001C47.956 65.1308 48.0544 64.1842 48.1199 63.1107M45.232 70.7814C44.4911 71.3685 43.5634 71.8076 42.4084 72.0001C42.3017 72.0179 42.1933 72.0346 42.0835 72.0504M42.0835 72.0504C42.1268 71.3878 42.1873 69.6786 42.0835 68.977M42.0835 72.0504C41.0128 72.2037 39.8035 72.2612 38.5717 72.2664M38.5717 72.2664V69.3006M38.5717 72.2664C37.3289 72.2716 36.0631 72.2235 34.8937 72.1668M34.8937 72.1668C34.8937 71.5938 34.8257 69.8934 34.7577 69.3006M34.8937 72.1668C33.3326 72.0911 31.943 72.0001 31.0084 72.0001M31.0087 15.3C31.9777 15.3 32.8584 15.1581 33.6527 14.9186M31.0087 15.3C30.0247 15.3 29.1284 15.1537 28.3246 14.9074M5.20028 63.2156C5.26688 62.3432 5.26421 61.3626 5.36011 60.6114M5.20028 63.2156C5.53281 63.3708 5.85397 63.4727 6.10514 63.5565C6.32219 63.6288 6.73687 63.7193 7.25807 63.8107M5.20028 63.2156C4.3413 62.8145 3.40651 62.0573 3.40651 60.3373C3.40651 57.9513 3.40593 54.9817 3.40651 51.2371C3.40709 47.4925 3.76927 42.4386 4.75884 36.4157C5.74842 30.3927 6.36853 27.686 8.54629 23.1197C10.7241 18.5534 11.5071 17.1001 15.4071 13.5001C16.0081 12.9453 16.6091 12.4475 17.2091 12.0001C17.9483 11.4489 18.2637 11.2346 19.0638 10.7254C19.8639 10.2163 21.0092 9.64428 21.7807 9.89109M7.25807 63.8107C7.25807 62.8636 7.43788 61.4705 7.51779 60.9111M7.25807 63.8107C7.86702 63.9176 8.62136 64.0257 9.3758 64.1079M9.3758 64.1079C9.58224 63.106 9.77936 61.7586 9.87526 61.3706M9.3758 64.1079C10.1558 64.1928 10.9358 64.2499 11.5554 64.2488M11.5554 64.2488C11.8751 63.6495 12.5034 62.2896 12.5034 61.5704M11.5554 64.2488C11.9506 64.2482 12.2804 64.2239 12.5034 64.1682C13.1474 64.0072 13.5659 63.6629 13.8955 63.1059M56.8122 63.2156C56.7456 62.3432 56.7483 61.3626 56.6524 60.6114M56.8122 63.2156C56.4797 63.3708 56.1585 63.4727 55.9074 63.5565C55.6903 63.6288 55.2756 63.7193 54.7544 63.8107M56.8122 63.2156C57.6712 62.8145 58.606 62.0573 58.606 60.3373C58.606 57.9513 58.6066 54.9817 58.606 51.2371C58.6054 47.4925 58.2432 42.4386 57.2537 36.4157C56.2641 30.3927 55.644 27.686 53.4662 23.1197C51.2884 18.5534 50.5055 17.1001 46.6054 13.5001C46.0044 12.9453 45.4034 12.4475 44.8034 12.0001C44.2736 11.605 43.4673 11.0245 42.8102 10.6726C42.1531 10.3208 40.9835 9.64044 40.2041 9.90065M54.7544 63.8107C54.7544 62.8636 54.5746 61.4705 54.4947 60.9111M54.7544 63.8107C54.1455 63.9176 53.3911 64.0257 52.6367 64.1079M52.6367 64.1079C52.4303 63.106 52.2331 61.7586 52.1372 61.3706M52.6367 64.1079C51.824 64.1963 51.0111 64.2546 50.3799 64.2484M50.3799 64.2484C50.0602 63.649 49.5091 62.2896 49.5091 61.5704M50.3799 64.2484C50.0189 64.2449 49.7174 64.2203 49.5091 64.1682C48.8669 64.0076 48.449 63.6649 48.1199 63.1107M20.9577 12.5394C21.3961 12.1673 22.592 11.2038 23.1606 10.8789M23.1606 10.8789C23.2649 11.0033 23.3673 11.1392 23.468 11.2869C23.7493 11.6998 24.1062 12.1468 24.5406 12.5874M23.1606 10.8789C22.7312 10.3665 22.2711 10.048 21.7807 9.89109M22.8011 14.4082C23.126 14.1104 24.0207 13.221 24.5406 12.5874M24.5406 12.5874C25.0377 13.0917 25.6362 13.5877 26.3388 14.0148M25.054 15.9108C25.2272 15.66 25.8371 14.7458 26.3388 14.0148M26.3388 14.0148C26.9272 14.3725 27.5886 14.6818 28.3246 14.9074M27.4908 17.1471C27.6879 16.7581 28.1812 15.5361 28.3246 14.9074M41.0564 12.5394C40.6179 12.1673 39.3814 11.253 38.8128 10.9281M38.8128 10.9281C38.7225 11.0389 38.6336 11.1584 38.5461 11.2869C38.268 11.695 37.9161 12.1364 37.4886 12.572M38.8128 10.9281C39.2453 10.3973 39.7092 10.0659 40.2041 9.90065M39.213 14.4082C38.8881 14.1104 38.0085 13.2056 37.4886 12.572M37.4886 12.572C36.9815 13.0888 36.3681 13.5974 35.6453 14.0329M36.9601 15.9108C36.7869 15.66 36.147 14.764 35.6453 14.0329M35.6453 14.0329C35.0546 14.3888 34.391 14.6959 33.6527 14.9186M34.5233 17.1471C34.3262 16.7581 33.796 15.5473 33.6527 14.9186M21.7807 9.89109C23.9425 8.87897 27.2668 8.46631 30.9695 8.46631C34.6673 8.46631 38.0421 8.89149 40.2041 9.90065" stroke="#1E1E1E" stroke-width="0.6" stroke-linecap="round"/>
<path d="M34.6063 64.2002C34.6063 63.8688 34.3376 63.6002 34.0063 63.6002C33.6749 63.6002 33.4062 63.8688 33.4062 64.2002C33.4062 64.5316 33.6749 64.8002 34.0063 64.8002C34.3376 64.8002 34.6063 64.5316 34.6063 64.2002Z" fill="#1E1E1E"/>
<path d="M34.6063 54.6002C34.6063 54.2688 34.3376 54.0002 34.0063 54.0002C33.6749 54.0002 33.4062 54.2688 33.4062 54.6002C33.4062 54.9316 33.6749 55.2002 34.0063 55.2002C34.3376 55.2002 34.6063 54.9316 34.6063 54.6002Z" fill="#1E1E1E"/>
<path d="M34.6063 47.4002C34.6063 47.0688 34.3376 46.8002 34.0063 46.8002C33.6749 46.8002 33.4062 47.0688 33.4062 47.4002C33.4062 47.7316 33.6749 48.0002 34.0063 48.0002C34.3376 48.0002 34.6063 47.7316 34.6063 47.4002Z" fill="#1E1E1E"/>
<path d="M34.6063 40.2002C34.6063 39.8688 34.3376 39.6002 34.0063 39.6002C33.6749 39.6002 33.4062 39.8688 33.4062 40.2002C33.4062 40.5316 33.6749 40.8002 34.0063 40.8002C34.3376 40.8002 34.6063 40.5316 34.6063 40.2002Z" fill="#1E1E1E"/>
<path d="M34.6063 33.0002C34.6063 32.6688 34.3376 32.4002 34.0063 32.4002C33.6749 32.4002 33.4062 32.6688 33.4062 33.0002C33.4062 33.3316 33.6749 33.6002 34.0063 33.6002C34.3376 33.6002 34.6063 33.3316 34.6063 33.0002Z" fill="#1E1E1E"/>
<path d="M34.6063 25.8002C34.6063 25.4688 34.3376 25.2002 34.0063 25.2002C33.6749 25.2002 33.4062 25.4688 33.4062 25.8002C33.4062 26.1316 33.6749 26.4002 34.0063 26.4002C34.3376 26.4002 34.6063 26.1316 34.6063 25.8002Z" fill="#1E1E1E"/>
</svg>
