<svg width="63" height="129" viewBox="0 0 63 129" fill="none" xmlns="http://www.w3.org/2000/svg">
<path d="M15.3096 27.0001C15.3096 27.0001 13.8268 51.7909 14.5387 55.5473C14.7473 56.648 14.9771 57.6339 15.2883 58.493M16.986 61.1225C16.986 60.5225 17.2525 58.9222 17.2525 58.034M16.986 61.1225C17.6899 61.7161 18.6009 62.1227 19.8096 62.3242C19.9164 62.342 20.0247 62.3587 20.1345 62.3744M16.986 61.1225C16.2078 60.4662 15.6827 59.5815 15.2883 58.493M20.1345 62.3744C20.0913 61.7119 20.0307 60.0026 20.1345 59.3011M20.1345 62.3744C21.2052 62.5278 22.4145 62.5853 23.6463 62.5905M23.6463 62.5905V59.6247M23.6463 62.5905C24.8891 62.5956 26.1549 62.5475 27.3244 62.4908M27.3244 62.4908C27.3244 61.9179 27.3923 60.2175 27.4603 59.6247M27.3244 62.4908C28.8854 62.4152 30.275 62.3242 31.2096 62.3242M47.1122 27.0001C47.1122 27.0001 48.5951 51.7909 47.8832 55.5473C47.6741 56.6506 47.4437 57.6387 47.1313 58.4993M45.4358 61.1225C45.4358 60.5225 45.2549 58.9383 45.1693 58.034M45.4358 61.1225C44.7319 61.7161 43.8209 62.1227 42.6123 62.3242C42.5055 62.342 42.3972 62.3587 42.2874 62.3744M45.4358 61.1225C46.2126 60.4675 46.7372 59.5848 47.1313 58.4993M42.2874 62.3744C42.3306 61.7119 42.3911 60.0026 42.2874 59.3011M42.2874 62.3744C41.2168 62.5278 40.0075 62.5853 38.7755 62.5905M38.7755 62.5905V59.6247M38.7755 62.5905C37.5328 62.5957 36.2671 62.5476 35.0975 62.4909M35.0975 62.4909C35.0975 61.918 35.0295 60.2175 34.9615 59.6247M35.0975 62.4909C33.5352 62.4152 32.1446 62.3242 31.2096 62.3242M31.2096 62.3242L31.2118 15.3M31.2118 15.3C32.1809 15.3 33.0615 15.1581 33.8558 14.9186M31.2118 15.3C30.2278 15.3 29.3316 15.1537 28.5277 14.9074M5.40341 63.2156C5.47 62.3432 5.46734 61.3626 5.56324 60.6114M5.40341 63.2156C5.73593 63.3708 6.05709 63.4727 6.30827 63.5565C6.52531 63.6288 6.93999 63.7193 7.4612 63.8107M5.40341 63.2156C4.54443 62.8145 3.60963 62.0573 3.60963 60.3373C3.60963 57.9513 3.60905 54.9817 3.60963 51.2371C3.61021 47.4925 3.97239 42.4386 4.96197 36.4157C5.95155 30.3927 6.57166 27.686 8.74942 23.1197C10.9272 18.5534 11.7102 17.1001 15.6102 13.5001C16.0801 13.0663 16.5501 12.6673 17.0195 12.3001C17.8303 11.6658 18.4662 11.1641 19.3492 10.5276C20.2322 9.89109 21.2123 9.64428 21.9838 9.89109M7.4612 63.8107C7.4612 62.8636 7.641 61.4705 7.72092 60.9111M7.4612 63.8107C8.07014 63.9176 8.82449 64.0257 9.57892 64.1079M9.57892 64.1079C9.78537 63.106 9.98249 61.7586 10.0784 61.3706M9.57892 64.1079C10.3589 64.1928 11.1389 64.2499 11.7585 64.2488M11.7585 64.2488C12.0782 63.6495 12.7065 62.2896 12.7065 61.5704M11.7585 64.2488C12.1537 64.2482 12.4836 64.2239 12.7065 64.1682C13.9065 63.8682 14.3234 62.9319 14.8415 61.1691C14.9481 60.8063 15.0966 59.8817 15.2883 58.493M57.0153 63.2156C56.9487 62.3432 56.9514 61.3626 56.8555 60.6114M57.0153 63.2156C56.6828 63.3708 56.3617 63.4727 56.1105 63.5565C55.8934 63.6288 55.4788 63.7193 54.9576 63.8107M57.0153 63.2156C57.8743 62.8145 58.8091 62.0573 58.8091 60.3373C58.8091 57.9513 58.8097 54.9817 58.8091 51.2371C58.8085 47.4925 58.4464 42.4386 57.4568 36.4157C56.4672 30.3927 55.8471 27.686 53.6693 23.1197C51.4916 18.5534 50.7086 17.1001 46.8086 13.5001C46.3386 13.0663 45.8687 12.6673 45.3993 12.3001C44.7108 11.7615 43.9225 11.0937 43.2107 10.7169C42.4988 10.34 41.1866 9.64044 40.4072 9.90065M54.9576 63.8107C54.9576 62.8636 54.7777 61.4705 54.6978 60.9111M54.9576 63.8107C54.3486 63.9176 53.5943 64.0257 52.8398 64.1079M52.8398 64.1079C52.6334 63.106 52.4363 61.7586 52.3404 61.3706M52.8398 64.1079C52.0271 64.1963 51.2142 64.2546 50.583 64.2484M50.583 64.2484C50.2633 63.649 49.7122 62.2896 49.7122 61.5704M50.583 64.2484C50.2221 64.2449 49.9205 64.2203 49.7122 64.1682C48.5122 63.8682 48.0954 62.9319 47.5773 61.1691C47.4708 60.8069 47.3226 59.8845 47.1313 58.4993M21.1608 12.5394C21.5993 12.1673 22.7951 11.2038 23.3637 10.8789M23.3637 10.8789C23.468 11.0033 23.5705 11.1392 23.6711 11.2869C23.9524 11.6998 24.3094 12.1468 24.7437 12.5874M23.3637 10.8789C22.9343 10.3665 22.4742 10.048 21.9838 9.89109M23.0042 14.4082C23.3291 14.1104 24.2238 13.221 24.7437 12.5874M24.7437 12.5874C25.2408 13.0917 25.8393 13.5877 26.5419 14.0148M25.2571 15.9108C25.4303 15.66 26.0402 14.7458 26.5419 14.0148M26.5419 14.0148C27.1303 14.3725 27.7917 14.6818 28.5277 14.9074M27.6939 17.1471C27.891 16.7581 28.3844 15.5361 28.5277 14.9074M41.2595 12.5394C40.821 12.1673 39.5845 11.253 39.0159 10.9281M39.0159 10.9281C38.9257 11.0389 38.8367 11.1584 38.7492 11.2869C38.4711 11.695 38.1192 12.1364 37.6917 12.572M39.0159 10.9281C39.4484 10.3973 39.9123 10.0659 40.4072 9.90065M39.4161 14.4082C39.0912 14.1104 38.2116 13.2056 37.6917 12.572M37.6917 12.572C37.1847 13.0888 36.5712 13.5974 35.8484 14.0329M37.1632 15.9108C36.99 15.66 36.3501 14.764 35.8484 14.0329M35.8484 14.0329C35.2578 14.3888 34.5941 14.6959 33.8558 14.9186M34.7264 17.1471C34.5293 16.7581 33.9992 15.5473 33.8558 14.9186M21.9838 9.89109C24.1456 8.87897 27.4699 8.46631 31.1727 8.46631C34.8704 8.46631 38.2452 8.89149 40.4072 9.90065" stroke="#1E1E1E" stroke-width="0.6" stroke-linecap="round"/>
<path d="M34.8094 54.5998C34.8094 54.2684 34.5407 53.9998 34.2094 53.9998C33.878 53.9998 33.6094 54.2684 33.6094 54.5998C33.6094 54.9312 33.878 55.1998 34.2094 55.1998C34.5407 55.1998 34.8094 54.9312 34.8094 54.5998Z" fill="#1E1E1E"/>
<path d="M34.8094 44.9998C34.8094 44.6684 34.5407 44.3998 34.2094 44.3998C33.878 44.3998 33.6094 44.6684 33.6094 44.9998C33.6094 45.3312 33.878 45.5998 34.2094 45.5998C34.5407 45.5998 34.8094 45.3312 34.8094 44.9998Z" fill="#1E1E1E"/>
<path d="M34.8094 37.7998C34.8094 37.4684 34.5407 37.1998 34.2094 37.1998C33.878 37.1998 33.6094 37.4684 33.6094 37.7998C33.6094 38.1312 33.878 38.3998 34.2094 38.3998C34.5407 38.3998 34.8094 38.1312 34.8094 37.7998Z" fill="#1E1E1E"/>
<path d="M34.8094 30.5998C34.8094 30.2684 34.5407 29.9998 34.2094 29.9998C33.878 29.9998 33.6094 30.2684 33.6094 30.5998C33.6094 30.9312 33.878 31.1998 34.2094 31.1998C34.5407 31.1998 34.8094 30.9312 34.8094 30.5998Z" fill="#1E1E1E"/>
<path d="M34.8094 23.3998C34.8094 23.0684 34.5407 22.7998 34.2094 22.7998C33.878 22.7998 33.6094 23.0684 33.6094 23.3998C33.6094 23.7312 33.878 23.9998 34.2094 23.9998C34.5407 23.9998 34.8094 23.7312 34.8094 23.3998Z" fill="#1E1E1E"/>
</svg>
