<svg width="63" height="129" viewBox="0 0 63 129" fill="none" xmlns="http://www.w3.org/2000/svg">
<path d="M15.1065 27C15.1065 27 13.6237 51.7908 14.3355 55.5472C14.5441 56.6479 14.7739 57.6338 15.0852 58.4929M16.7829 61.1224C16.7829 60.5224 17.0494 58.9221 17.0494 58.0339M16.7829 61.1224C17.4868 61.716 18.3978 62.1226 19.6065 62.3241C19.7132 62.3419 19.8216 62.3586 19.9314 62.3743M16.7829 61.1224C16.0046 60.4661 15.4795 59.5814 15.0852 58.4929M19.9314 62.3743C19.8881 61.7118 19.8276 60.0025 19.9314 59.301M19.9314 62.3743C21.002 62.5277 22.2113 62.5852 23.4432 62.5904M23.4432 62.5904V59.6246M23.4432 62.5904C24.686 62.5955 25.9517 62.5474 27.1212 62.4907M27.1212 62.4907C27.1212 61.9178 27.1892 60.2174 27.2572 59.6246M27.1212 62.4907C28.6823 62.4151 30.0719 62.3241 31.0065 62.3241M46.9091 27C46.9091 27 48.3919 51.7908 47.6801 55.5472C47.471 56.6505 47.2406 57.6386 46.9282 58.4992M45.2327 61.1224C45.2327 60.5224 45.0518 58.9382 44.9662 58.0339M45.2327 61.1224C44.5288 61.716 43.6178 62.1226 42.4091 62.3241C42.3024 62.3419 42.1941 62.3586 42.0843 62.3743M45.2327 61.1224C46.0095 60.4674 46.5341 59.5847 46.9282 58.4992M42.0843 62.3743C42.1275 61.7118 42.188 60.0025 42.0843 59.301M42.0843 62.3743C41.0137 62.5277 39.8044 62.5852 38.5724 62.5904M38.5724 62.5904V59.6246M38.5724 62.5904C37.3297 62.5956 36.064 62.5475 34.8944 62.4908M34.8944 62.4908C34.8944 61.9179 34.8264 60.2174 34.7584 59.6246M34.8944 62.4908C33.3321 62.4151 31.9415 62.3241 31.0065 62.3241M31.0065 62.3241L31.0071 18.6M31.0071 18.6C31.5889 18.6 32.1397 18.5751 32.6615 18.5285M31.0071 18.6C30.4253 18.6 29.8744 18.5751 29.3526 18.5285M5.20028 63.2155C5.26688 62.3431 5.26421 61.3625 5.36011 60.6113M5.20028 63.2155C5.53281 63.3707 5.85397 63.4726 6.10514 63.5564C6.32219 63.6287 6.73687 63.7192 7.25807 63.8106M5.20028 63.2155C4.3413 62.8144 3.40651 62.0572 3.40651 60.3372C3.40651 57.9512 3.40593 54.9816 3.40651 51.237C3.40709 47.4924 3.76927 42.4385 4.75884 36.4156C5.74842 30.3927 6.36853 27.6859 8.54629 23.1196C9.92774 20.2231 10.7479 18.5791 12.1585 16.8452C12.9717 15.8457 14.4646 14.3762 15.4071 13.5C16.3495 12.6238 17.7388 11.5676 18.5917 11.8965M7.25807 63.8106C7.25807 62.8635 7.43788 61.4704 7.51779 60.911M7.25807 63.8106C7.86702 63.9175 8.62136 64.0257 9.3758 64.1078M9.3758 64.1078C9.58224 63.1059 9.77936 61.7585 9.87526 61.3705M9.3758 64.1078C10.1558 64.1927 10.9358 64.2498 11.5554 64.2487M11.5554 64.2487C11.8751 63.6494 12.5034 62.2895 12.5034 61.5703M11.5554 64.2487C11.9506 64.2481 12.2804 64.2238 12.5034 64.1681C13.7034 63.8681 14.1202 62.9318 14.6383 61.169C14.7449 60.8062 14.8935 59.8816 15.0852 58.4929M56.8122 63.2155C56.7456 62.3431 56.7483 61.3625 56.6524 60.6113M56.8122 63.2155C56.4797 63.3707 56.1585 63.4726 55.9074 63.5564C55.6903 63.6287 55.2756 63.7192 54.7544 63.8106M56.8122 63.2155C57.6712 62.8144 58.606 62.0572 58.606 60.3372C58.606 57.9512 58.6066 54.9816 58.606 51.237C58.6054 47.4924 58.2432 42.4385 57.2537 36.4156C56.2641 30.3927 55.644 27.6859 53.4662 23.1196C52.0499 20.1499 51.2235 18.4969 49.746 16.7137C48.9516 15.755 47.4714 14.0991 46.9091 13.6945C46.3468 13.2899 44.2628 11.5662 43.4057 11.903M54.7544 63.8106C54.7544 62.8635 54.5746 61.4704 54.4947 60.911M54.7544 63.8106C54.1455 63.9175 53.3911 64.0256 52.6367 64.1078M52.6367 64.1078C52.4303 63.1059 52.2331 61.7585 52.1372 61.3705M52.6367 64.1078C51.824 64.1962 51.0111 64.2545 50.3799 64.2483M50.3799 64.2483C50.0602 63.6489 49.5091 62.2895 49.5091 61.5703M50.3799 64.2483C50.0189 64.2448 49.7174 64.2202 49.5091 64.1681C48.3091 63.8681 47.8923 62.9318 47.3742 61.169C47.2677 60.8068 47.1195 59.8844 46.9282 58.4992M17.2846 14.5978C17.7038 14.2022 18.9448 13.2277 19.8205 12.7676M19.8205 12.7676C19.4456 12.3528 19.032 12.0663 18.5917 11.8965M19.8205 12.7676C19.8994 12.8548 19.9765 12.9477 20.0518 13.0464C20.3924 13.4925 20.8477 14.176 21.5226 14.9126M19.4885 16.7137C19.8224 16.4601 20.7953 15.6547 21.5226 14.9126M21.5226 14.9126C22.1148 15.5591 22.8762 16.2465 23.8775 16.8505M22.0488 19.0513C22.4941 18.6246 23.5807 17.4442 23.8775 16.8505M23.8775 16.8505C24.6195 17.2981 25.4931 17.6998 26.5274 18.0051M25.4267 20.6372C25.6802 20.0187 26.3196 18.4652 26.5274 18.0051M26.5274 18.0051C27.36 18.2509 28.2968 18.4341 29.3526 18.5285M29.0072 21.6131C29.1726 20.8308 29.3526 18.9466 29.3526 18.5285M44.7295 14.5978C44.3103 14.2023 43.0866 13.2086 42.2109 12.7485M42.2109 12.7485C42.126 12.8412 42.0431 12.9405 41.9622 13.0464C41.6217 13.4925 41.1664 14.1759 40.4916 14.9125M42.2109 12.7485C42.5765 12.3492 42.9785 12.0709 43.4057 11.903M42.5256 16.7137C42.1916 16.4601 41.2189 15.6546 40.4916 14.9125M40.4916 14.9125C39.9011 15.5571 39.1425 16.2425 38.1455 16.8452M39.9653 19.0514C39.52 18.6246 38.4424 17.4389 38.1455 16.8452M38.1455 16.8452C37.4034 17.2939 36.5292 17.6967 35.494 18.003M36.5874 20.6372C36.3338 20.0187 35.7018 18.4631 35.494 18.003M35.494 18.003C34.6595 18.2498 33.7204 18.4339 32.6615 18.5285M33.0069 21.6131C32.8415 20.8308 32.6615 18.9466 32.6615 18.5285M43.4057 11.903C39.6037 10.717 34.4235 10.3154 30.9687 10.3154C27.5202 10.3154 22.3917 10.7155 18.5917 11.8965" stroke="#1E1E1E" stroke-width="0.6" stroke-linecap="round"/>
<path d="M34.6063 54.5998C34.6063 54.2684 34.3376 53.9998 34.0063 53.9998C33.6749 53.9998 33.4062 54.2684 33.4062 54.5998C33.4062 54.9312 33.6749 55.1998 34.0063 55.1998C34.3376 55.1998 34.6063 54.9312 34.6063 54.5998Z" fill="#1E1E1E"/>
<path d="M34.6063 44.9998C34.6063 44.6684 34.3376 44.3998 34.0063 44.3998C33.6749 44.3998 33.4062 44.6684 33.4062 44.9998C33.4062 45.3312 33.6749 45.5998 34.0063 45.5998C34.3376 45.5998 34.6063 45.3312 34.6063 44.9998Z" fill="#1E1E1E"/>
<path d="M34.6063 37.7998C34.6063 37.4684 34.3376 37.1998 34.0063 37.1998C33.6749 37.1998 33.4062 37.4684 33.4062 37.7998C33.4062 38.1312 33.6749 38.3998 34.0063 38.3998C34.3376 38.3998 34.6063 38.1312 34.6063 37.7998Z" fill="#1E1E1E"/>
<path d="M34.6063 30.5998C34.6063 30.2684 34.3376 29.9998 34.0063 29.9998C33.6749 29.9998 33.4062 30.2684 33.4062 30.5998C33.4062 30.9312 33.6749 31.1998 34.0063 31.1998C34.3376 31.1998 34.6063 30.9312 34.6063 30.5998Z" fill="#1E1E1E"/>
<path d="M34.6063 23.3998C34.6063 23.0684 34.3376 22.7998 34.0063 22.7998C33.6749 22.7998 33.4062 23.0684 33.4062 23.3998C33.4062 23.7312 33.6749 23.9998 34.0063 23.9998C34.3376 23.9998 34.6063 23.7312 34.6063 23.3998Z" fill="#1E1E1E"/>
</svg>
