<svg width="64" height="129" viewBox="0 0 64 129" fill="none" xmlns="http://www.w3.org/2000/svg">
<path d="M15.8956 27.0001C15.8956 27.0001 14.4127 40.0094 15.1246 43.7658C15.5406 45.9606 16.0409 47.6994 17.1032 48.8854M17.572 49.341C17.572 48.741 17.8385 47.1407 17.8385 46.2524M17.572 49.341C18.2759 49.9345 19.1869 50.3412 20.3956 50.5426C20.5023 50.5604 20.6106 50.5772 20.7204 50.5929M17.572 49.341C17.4044 49.1996 17.2485 49.0477 17.1032 48.8854M20.7204 50.5929C20.6772 49.9303 20.6167 48.2211 20.7204 47.5196M20.7204 50.5929C21.791 50.7463 23.0003 50.8038 24.2323 50.8089M24.2323 50.8089V47.8432M24.2323 50.8089C25.475 50.8141 26.7407 50.7661 27.9103 50.7094M27.9103 50.7094C27.9103 50.1364 27.9783 48.4359 28.0463 47.8432M27.9103 50.7094C29.4726 50.6337 30.8632 50.5426 31.7982 50.5426M47.6982 27.0001C47.6982 27.0001 49.181 40.0094 48.4691 43.7658C48.0528 45.9625 47.552 47.7024 46.4878 48.8885M46.0218 49.341C46.0218 48.741 45.7553 47.1407 45.7553 46.2524M46.0218 49.341C45.3179 49.9345 44.4069 50.3412 43.1982 50.5426C43.0935 50.5601 42.9873 50.5765 42.8796 50.592M46.0218 49.341C46.1883 49.2005 46.3433 49.0496 46.4878 48.8885M42.8796 50.592C42.9228 49.9294 42.9771 48.2211 42.8733 47.5196M42.8796 50.592C42.8775 50.5923 42.8754 50.5926 42.8733 50.5929C41.8027 50.7463 40.5933 50.8038 39.3615 50.8089M39.3615 50.8089V47.8432M39.3615 50.8089C38.1187 50.8141 36.8529 50.766 35.6834 50.7093M35.6834 50.7093C35.6834 50.1363 35.6155 48.4359 35.5475 47.8432M35.6834 50.7093C34.1224 50.6336 32.7328 50.5426 31.7982 50.5426M31.7982 50.5426L31.7978 15.3M31.7978 15.3C32.7668 15.3 33.6475 15.1581 34.4418 14.9186M31.7978 15.3C30.8137 15.3 29.9175 15.1537 29.1136 14.9074M5.98934 63.2156C6.05594 62.3432 6.05328 61.3626 6.14917 60.6114M5.98934 63.2156C6.32187 63.3708 6.64303 63.4727 6.8942 63.5565C7.11125 63.6288 7.52593 63.7193 8.04713 63.8107M5.98934 63.2156C5.13037 62.8145 4.19557 62.0573 4.19557 60.3373C4.19557 57.9513 4.19499 54.9817 4.19557 51.2371C4.19615 47.4925 4.55833 42.4386 5.54791 36.4157C6.53749 30.3927 7.15759 27.686 9.33536 23.1197C11.5131 18.5534 12.2961 17.1001 16.1961 13.5001C17.289 12.4913 18.6941 11.4922 19.6595 10.8789C20.6249 10.2657 21.7982 9.64428 22.5698 9.89109M8.04713 63.8107C8.04713 62.8636 8.22694 61.4705 8.30685 60.9111M8.04713 63.8107C8.65608 63.9176 9.41042 64.0257 10.1649 64.1079M10.1649 64.1079C10.3713 63.106 10.5684 61.7586 10.6643 61.3706M10.1649 64.1079C10.9448 64.1928 11.7249 64.2499 12.3445 64.2488M12.3445 64.2488C12.6641 63.6495 13.2924 62.2896 13.2924 61.5704M12.3445 64.2488C12.7396 64.2482 13.0695 64.2239 13.2924 64.1682C14.4925 63.8682 14.9093 62.9319 15.4274 61.1691C15.7016 60.2362 16.253 55.5871 17.1032 48.8854M57.6013 63.2156C57.5347 62.3432 57.5374 61.3626 57.4415 60.6114M57.6013 63.2156C57.2688 63.3708 56.9476 63.4727 56.6964 63.5565C56.4794 63.6288 56.0647 63.7193 55.5435 63.8107M57.6013 63.2156C58.4603 62.8145 59.3951 62.0573 59.3951 60.3373C59.3951 57.9513 59.3956 54.9817 59.3951 51.2371C59.3945 47.4925 59.0323 42.4386 58.0427 36.4157C57.0531 30.3927 56.433 27.686 54.2553 23.1197C52.0775 18.5534 51.2945 17.1001 47.3945 13.5001C46.3831 12.5665 45.1989 11.6693 44.3656 11.1522C43.5323 10.635 41.7725 9.64044 40.9932 9.90065M55.5435 63.8107C55.5435 62.8636 55.3637 61.4705 55.2838 60.9111M55.5435 63.8107C54.9346 63.9176 54.1802 64.0257 53.4258 64.1079M53.4258 64.1079C53.2193 63.106 53.0222 61.7586 52.9263 61.3706M53.4258 64.1079C52.613 64.1963 51.8002 64.2546 51.1689 64.2484M51.1689 64.2484C50.8493 63.649 50.2982 62.2896 50.2982 61.5704M51.1689 64.2484C50.808 64.2449 50.5064 64.2203 50.2982 64.1682C49.0982 63.8682 48.6813 62.9319 48.1632 61.1691C47.8891 60.2363 47.3378 55.5885 46.4878 48.8885M21.7467 12.5394C22.1852 12.1673 23.3811 11.2038 23.9497 10.8789M23.9497 10.8789C24.0539 11.0033 24.1564 11.1392 24.2571 11.2869C24.5384 11.6998 24.8953 12.1468 25.3296 12.5874M23.9497 10.8789C23.5202 10.3665 23.0602 10.048 22.5698 9.89109M23.5901 14.4082C23.915 14.1104 24.8098 13.221 25.3296 12.5874M25.3296 12.5874C25.8267 13.0917 26.4252 13.5877 27.1279 14.0148M25.843 15.9108C26.0162 15.66 26.6262 14.7458 27.1279 14.0148M27.1279 14.0148C27.7162 14.3725 28.3776 14.6818 29.1136 14.9074M28.2798 17.1471C28.4769 16.7581 28.9703 15.5361 29.1136 14.9074M41.8455 12.5394C41.407 12.1673 40.1705 11.253 39.6019 10.9281M39.6019 10.9281C39.5116 11.0389 39.4227 11.1584 39.3351 11.2869C39.0571 11.695 38.7052 12.1364 38.2777 12.572M39.6019 10.9281C40.0344 10.3973 40.4982 10.0659 40.9932 9.90065M40.0021 14.4082C39.6772 14.1104 38.7975 13.2056 38.2777 12.572M38.2777 12.572C37.7706 13.0888 37.1571 13.5974 36.4344 14.0329M37.7492 15.9108C37.576 15.66 36.9361 14.764 36.4344 14.0329M36.4344 14.0329C35.8437 14.3888 35.18 14.6959 34.4418 14.9186M35.3124 17.1471C35.1153 16.7581 34.5851 15.5473 34.4418 14.9186M22.5698 9.89109C24.7315 8.87897 28.0559 8.46631 31.7586 8.46631C35.4564 8.46631 38.8312 8.89149 40.9932 9.90065" stroke="#1E1E1E" stroke-width="0.6" stroke-linecap="round"/>
<path d="M35.4031 44.9998C35.4031 44.6684 35.1345 44.3998 34.8031 44.3998C34.4718 44.3998 34.2031 44.6684 34.2031 44.9998C34.2031 45.3312 34.4718 45.5998 34.8031 45.5998C35.1345 45.5998 35.4031 45.3312 35.4031 44.9998Z" fill="#1E1E1E"/>
<path d="M35.4031 37.7998C35.4031 37.4684 35.1345 37.1998 34.8031 37.1998C34.4718 37.1998 34.2031 37.4684 34.2031 37.7998C34.2031 38.1312 34.4718 38.3998 34.8031 38.3998C35.1345 38.3998 35.4031 38.1312 35.4031 37.7998Z" fill="#1E1E1E"/>
<path d="M35.4031 30.5998C35.4031 30.2684 35.1345 29.9998 34.8031 29.9998C34.4718 29.9998 34.2031 30.2684 34.2031 30.5998C34.2031 30.9312 34.4718 31.1998 34.8031 31.1998C35.1345 31.1998 35.4031 30.9312 35.4031 30.5998Z" fill="#1E1E1E"/>
<path d="M35.4031 23.3998C35.4031 23.0684 35.1345 22.7998 34.8031 22.7998C34.4718 22.7998 34.2031 23.0684 34.2031 23.3998C34.2031 23.7312 34.4718 23.9998 34.8031 23.9998C35.1345 23.9998 35.4031 23.7312 35.4031 23.3998Z" fill="#1E1E1E"/>
</svg>
