<svg width="63" height="129" viewBox="0 0 63 129" fill="none" xmlns="http://www.w3.org/2000/svg">
<path d="M15.1065 27.0001C15.1065 27.0001 13.6237 40.0094 14.3355 43.7658C14.7515 45.9606 15.2518 47.6994 16.3141 48.8854M16.7829 49.341C16.7829 48.741 17.0494 47.1407 17.0494 46.2524M16.7829 49.341C17.4868 49.9345 18.3978 50.3412 19.6065 50.5426C19.7132 50.5604 19.8216 50.5772 19.9314 50.5929M16.7829 49.341C16.6153 49.1996 16.4595 49.0477 16.3141 48.8854M19.9314 50.5929C19.8881 49.9303 19.8276 48.2211 19.9314 47.5196M19.9314 50.5929C21.0019 50.7463 22.2112 50.8038 23.4432 50.8089M23.4432 50.8089V47.8432M23.4432 50.8089C24.6859 50.8141 25.9517 50.7661 27.1212 50.7094M27.1212 50.7094C27.1212 50.1364 27.1892 48.4359 27.2572 47.8432M27.1212 50.7094C28.6835 50.6337 30.0742 50.5426 31.0091 50.5426M46.9091 27.0001C46.9091 27.0001 48.3919 40.0094 47.6801 43.7658C47.2638 45.9625 46.7629 47.7024 45.6988 48.8885M45.2327 49.341C45.2327 48.741 44.9662 47.1407 44.9662 46.2524M45.2327 49.341C44.5288 49.9345 43.6178 50.3412 42.4091 50.5426C42.3044 50.5601 42.1982 50.5765 42.0906 50.592M45.2327 49.341C45.3993 49.2005 45.5542 49.0496 45.6988 48.8885M42.0906 50.592C42.1338 49.9294 42.188 48.2211 42.0843 47.5196M42.0906 50.592C42.0885 50.5923 42.0864 50.5926 42.0843 50.5929C41.0136 50.7463 39.8043 50.8038 38.5724 50.8089M38.5724 50.8089V47.8432M38.5724 50.8089C37.3296 50.8141 36.0639 50.766 34.8944 50.7093M34.8944 50.7093C34.8944 50.1363 34.8264 48.4359 34.7584 47.8432M34.8944 50.7093C33.3333 50.6336 31.9438 50.5426 31.0091 50.5426M31.0091 50.5426L31.006 18.75M31.006 18.75C31.442 18.75 31.7261 18.6861 32.1435 18.4386M31.006 18.75C30.6259 18.75 30.3707 18.7014 30.0326 18.525M5.20028 63.2156C5.26688 62.3432 5.26421 61.3626 5.36011 60.6114M5.20028 63.2156C5.53281 63.3708 5.85397 63.4727 6.10514 63.5565C6.32219 63.6288 6.73687 63.7193 7.25807 63.8107M5.20028 63.2156C4.3413 62.8145 3.40651 62.0573 3.40651 60.3373C3.40651 57.9513 3.40593 54.9817 3.40651 51.2371C3.40709 47.4925 3.76927 42.4386 4.75884 36.4157C5.74842 30.3927 6.36853 27.686 8.54629 23.1197C10.7241 18.5534 11.5071 17.1001 15.4071 13.5001C16.2408 12.7305 17.4966 11.8139 18.2109 11.3514C18.9251 10.8889 19.8737 10.4916 20.5901 10.6082M7.25807 63.8107C7.25807 62.8636 7.43788 61.4705 7.51779 60.9111M7.25807 63.8107C7.86702 63.9176 8.62136 64.0257 9.3758 64.1079M9.3758 64.1079C9.58224 63.106 9.77936 61.7586 9.87526 61.3706M9.3758 64.1079C10.1558 64.1928 10.9358 64.2499 11.5554 64.2488M11.5554 64.2488C11.8751 63.6495 12.5034 62.2896 12.5034 61.5704M11.5554 64.2488C11.9506 64.2482 12.2804 64.2239 12.5034 64.1682C13.7034 63.8682 14.1202 62.9319 14.6383 61.1691C14.9125 60.2362 15.464 55.5871 16.3141 48.8854M56.8122 63.2156C56.7456 62.3432 56.7483 61.3626 56.6524 60.6114M56.8122 63.2156C56.4797 63.3708 56.1585 63.4727 55.9074 63.5565C55.6903 63.6288 55.2756 63.7193 54.7544 63.8107M56.8122 63.2156C57.6712 62.8145 58.606 62.0573 58.606 60.3373C58.606 57.9513 58.6066 54.9817 58.606 51.2371C58.6054 47.4925 58.2432 42.4386 57.2537 36.4157C56.2641 30.3927 55.644 27.686 53.4662 23.1197C51.2884 18.5534 50.5055 17.1001 46.6054 13.5001C45.8305 12.7848 45.0547 11.9426 44.1458 11.3502C43.237 10.7579 42.0869 10.4831 41.348 10.6228M54.7544 63.8107C54.7544 62.8636 54.5746 61.4705 54.4947 60.9111M54.7544 63.8107C54.1455 63.9176 53.3911 64.0257 52.6367 64.1079M52.6367 64.1079C52.4303 63.106 52.2331 61.7586 52.1372 61.3706M52.6367 64.1079C51.824 64.1963 51.0111 64.2546 50.3799 64.2484M50.3799 64.2484C50.0602 63.649 49.5091 62.2896 49.5091 61.5704M50.3799 64.2484C50.0189 64.2449 49.7174 64.2203 49.5091 64.1682C48.3091 63.8682 47.8923 62.9319 47.3742 61.1691C47.1 60.2363 46.5487 55.5885 45.6988 48.8885M20.1228 13.0444C20.4881 12.7089 21.6032 11.7987 22.301 11.3514M22.301 11.3514C21.7622 10.9752 21.2003 10.7074 20.5901 10.6082M22.301 11.3514C22.8556 11.7387 23.3856 12.2408 23.9183 12.7925C24.0392 12.9176 24.1687 13.0508 24.3052 13.1905M22.4712 14.9678C22.6799 14.7144 23.4464 13.9419 24.3052 13.1905M24.3052 13.1905C24.8466 13.7443 25.4981 14.3991 26.1566 15.0508M24.3722 16.7795C24.6928 16.5036 25.6198 15.6591 26.1566 15.0508M26.1566 15.0508C26.8802 15.7669 27.6123 16.4792 28.2158 17.0493M26.5194 18.9266C26.8623 18.5463 27.7864 17.5682 28.2158 17.0493M28.2158 17.0493C28.8246 17.6244 29.3026 18.0548 29.5092 18.1986C29.7106 18.3387 29.8791 18.445 30.0326 18.525M29.0676 20.6519C29.3125 20.1295 29.7061 19.276 30.0326 18.525M41.8987 13.0444C41.5334 12.7089 40.4199 11.7976 39.7221 11.3502M39.7221 11.3502C40.2357 10.9918 40.7704 10.732 41.348 10.6228M39.7221 11.3502C39.1669 11.7377 38.6364 12.2403 38.1031 12.7925C37.9917 12.9078 37.873 13.03 37.7482 13.1578M39.5503 14.9678C39.3415 14.7144 38.607 13.9093 37.7482 13.1578M37.7482 13.1578C37.1941 13.725 36.5206 14.4021 35.841 15.0744M37.6492 16.7795C37.3286 16.5036 36.3778 15.6827 35.841 15.0744M35.841 15.0744C35.1251 15.7826 34.4025 16.4855 33.8056 17.0493M35.5021 18.9266C35.1591 18.5463 34.2351 17.5682 33.8056 17.0493M33.8056 17.0493C33.1969 17.6244 32.7189 18.0548 32.5122 18.1986C32.3761 18.2932 32.2551 18.3725 32.1435 18.4386M32.93 20.6935C32.788 20.3417 32.4119 19.2278 32.1435 18.4386M20.5901 10.6082C22.7487 9.56235 26.9134 8.46631 31.006 8.46631C35.0986 8.46631 39.1894 9.57702 41.348 10.6228" stroke="#1E1E1E" stroke-width="0.6" stroke-linecap="round"/>
<path d="M34.6063 44.9998C34.6063 44.6684 34.3376 44.3998 34.0063 44.3998C33.6749 44.3998 33.4062 44.6684 33.4062 44.9998C33.4062 45.3312 33.6749 45.5998 34.0063 45.5998C34.3376 45.5998 34.6063 45.3312 34.6063 44.9998Z" fill="#1E1E1E"/>
<path d="M34.6063 37.7998C34.6063 37.4684 34.3376 37.1998 34.0063 37.1998C33.6749 37.1998 33.4062 37.4684 33.4062 37.7998C33.4062 38.1312 33.6749 38.3998 34.0063 38.3998C34.3376 38.3998 34.6063 38.1312 34.6063 37.7998Z" fill="#1E1E1E"/>
<path d="M34.6063 30.5998C34.6063 30.2684 34.3376 29.9998 34.0063 29.9998C33.6749 29.9998 33.4062 30.2684 33.4062 30.5998C33.4062 30.9312 33.6749 31.1998 34.0063 31.1998C34.3376 31.1998 34.6063 30.9312 34.6063 30.5998Z" fill="#1E1E1E"/>
<path d="M34.6063 23.3998C34.6063 23.0684 34.3376 22.7998 34.0063 22.7998C33.6749 22.7998 33.4062 23.0684 33.4062 23.3998C33.4062 23.7312 33.6749 23.9998 34.0063 23.9998C34.3376 23.9998 34.6063 23.7312 34.6063 23.3998Z" fill="#1E1E1E"/>
</svg>
