<svg width="63" height="129" viewBox="0 0 63 129" fill="none" xmlns="http://www.w3.org/2000/svg">
<path d="M15.5057 27C15.9538 35.0358 14.1656 51.3305 14.1656 55.9652C14.1656 58.9217 14.1786 61.2113 14.2939 63.1058M17.1821 70.7813C17.1821 70.1813 17.4486 68.5981 17.4486 67.7098M17.1821 70.7813C15.6138 69.5386 14.8829 67.6328 14.6057 66C14.4579 65.1294 14.3594 64.1813 14.2939 63.1058M17.1821 70.7813C17.9229 71.3684 18.8507 71.8075 20.0057 72C20.1124 72.0178 20.2207 72.0345 20.3305 72.0503M20.3305 72.0503C20.2873 71.3877 20.2268 69.6785 20.3305 68.9769M20.3305 72.0503C21.4012 72.2036 22.6105 72.2611 23.8424 72.2663M23.8424 72.2663V69.3005M23.8424 72.2663C25.0852 72.2715 26.3509 72.2234 27.5204 72.1667M27.5204 72.1667C27.5204 71.5937 27.5884 69.8933 27.6564 69.3005M27.5204 72.1667C29.0815 72.091 30.471 72 31.4057 72L31.4056 18.6M47.3068 27C46.8587 35.0358 48.6469 51.3305 48.6469 55.9652C48.6469 58.9242 48.6339 61.2151 48.5183 63.1106M45.6304 70.7813C45.6304 70.1813 45.3639 68.5981 45.3639 67.7098M45.6304 70.7813C47.1987 69.5386 47.9296 67.6328 48.2068 66C48.3544 65.1307 48.4528 64.1841 48.5183 63.1106M45.6304 70.7813C44.8896 71.3684 43.9618 71.8075 42.8068 72C42.7001 72.0178 42.5918 72.0345 42.482 72.0503M42.482 72.0503C42.5252 71.3877 42.5857 69.6785 42.482 68.9769M42.482 72.0503C41.4113 72.2036 40.202 72.2611 38.9701 72.2663M38.9701 72.2663V69.3005M38.9701 72.2663C37.7273 72.2715 36.4616 72.2234 35.2921 72.1667M35.2921 72.1667C35.2921 71.5937 35.2241 69.8933 35.1561 69.3005M35.2921 72.1667C33.731 72.091 32.3415 72 31.4068 72M31.4056 18.6C31.9873 18.6 32.5382 18.5751 33.0599 18.5285M31.4056 18.6C30.8237 18.6 30.2728 18.5751 29.751 18.5285M5.59872 63.2155C5.66531 62.3431 5.66265 61.3625 5.75855 60.6113M5.59872 63.2155C5.93124 63.3707 6.25241 63.4726 6.50358 63.5564C6.72062 63.6287 7.13531 63.7192 7.65651 63.8106M5.59872 63.2155C4.73974 62.8144 3.80495 62.0572 3.80495 60.3372C3.80495 57.9512 3.80437 54.9816 3.80495 51.237C3.80552 47.4924 4.1677 42.4385 5.15728 36.4156C6.14686 30.3927 6.76697 27.6859 8.94473 23.1196C10.703 19.4329 11.5521 17.7753 13.8666 15.3789C14.4188 14.8072 15.6313 13.6904 16.3832 13.0464C17.1351 12.4023 18.1372 11.5676 18.9901 11.8965M7.65651 63.8106C7.65651 62.8635 7.83632 61.4704 7.91623 60.911M7.65651 63.8106C8.26545 63.9175 9.0198 64.0257 9.77423 64.1078M9.77423 64.1078C9.98068 63.1059 10.1778 61.7585 10.2737 61.3705M9.77423 64.1078C10.5542 64.1927 11.3343 64.2498 11.9538 64.2487M11.9538 64.2487C12.2735 63.6494 12.9018 62.2895 12.9018 61.5703M11.9538 64.2487C12.349 64.2481 12.6789 64.2238 12.9018 64.1681C13.5459 64.0071 13.9643 63.6628 14.2939 63.1058M57.2107 63.2155C57.1441 62.3431 57.1467 61.3625 57.0508 60.6113M57.2107 63.2155C56.8781 63.3707 56.557 63.4726 56.3058 63.5564C56.0888 63.6287 55.6741 63.7192 55.1529 63.8106M57.2107 63.2155C58.0696 62.8144 59.0044 62.0572 59.0044 60.3372C59.0044 57.9512 59.005 54.9816 59.0044 51.237C59.0039 47.4924 58.6417 42.4385 57.6521 36.4156C56.6625 30.3927 56.0424 27.6859 53.8646 23.1196C52.148 19.5202 51.298 17.855 49.1048 15.548C48.5157 14.9283 47.1545 13.5549 46.6829 13.1881C46.2113 12.8213 44.6613 11.5662 43.8042 11.903M55.1529 63.8106C55.1529 62.8635 54.9731 61.4704 54.8931 60.911M55.1529 63.8106C54.5439 63.9175 53.7896 64.0256 53.0351 64.1078M53.0351 64.1078C52.8287 63.1059 52.6316 61.7585 52.5357 61.3705M53.0351 64.1078C52.2224 64.1962 51.4096 64.2545 50.7783 64.2483M50.7783 64.2483C50.4586 63.6489 49.9076 62.2895 49.9076 61.5703M50.7783 64.2483C50.4174 64.2448 50.1158 64.2202 49.9076 64.1681C49.2654 64.0075 48.8475 63.6648 48.5183 63.1106M17.683 14.5978C18.1022 14.2022 19.3433 13.2277 20.219 12.7676M20.219 12.7676C19.844 12.3528 19.4304 12.0663 18.9901 11.8965M20.219 12.7676C20.2978 12.8548 20.375 12.9477 20.4503 13.0464C20.7909 13.4925 21.2462 14.176 21.921 14.9126M19.8869 16.7137C20.2209 16.4601 21.1937 15.6547 21.921 14.9126M21.921 14.9126C22.5133 15.5591 23.2746 16.2465 24.276 16.8505M22.4472 19.0513C22.8925 18.6246 23.9791 17.4442 24.276 16.8505M24.276 16.8505C25.0179 17.2981 25.8916 17.6998 26.9258 18.0051M25.8251 20.6372C26.0787 20.0187 26.718 18.4652 26.9258 18.0051M26.9258 18.0051C27.7585 18.2509 28.6952 18.4341 29.751 18.5285M29.4056 21.6131C29.571 20.8308 29.751 18.9466 29.751 18.5285M45.1279 14.5978C44.7087 14.2023 43.4851 13.2086 42.6094 12.7485M42.6094 12.7485C42.5245 12.8412 42.4415 12.9405 42.3607 13.0464C42.0201 13.4925 41.5648 14.1759 40.8901 14.9125M42.6094 12.7485C42.975 12.3492 43.3769 12.0709 43.8042 11.903M42.924 16.7137C42.5901 16.4601 41.6173 15.6546 40.8901 14.9125M40.8901 14.9125C40.2996 15.5571 39.5409 16.2425 38.5439 16.8452M40.3637 19.0514C39.9184 18.6246 38.8408 17.4389 38.5439 16.8452M38.5439 16.8452C37.8018 17.2939 36.9277 17.6967 35.8924 18.003M36.9858 20.6372C36.7323 20.0187 36.1002 18.4631 35.8924 18.003M35.8924 18.003C35.058 18.2498 34.1189 18.4339 33.0599 18.5285M33.4053 21.6131C33.2399 20.8308 33.0599 18.9466 33.0599 18.5285M43.8042 11.903C40.0021 10.717 34.8219 10.3154 31.3671 10.3154C27.9187 10.3154 22.7901 10.7155 18.9901 11.8965" stroke="#1E1E1E" stroke-width="0.6" stroke-linecap="round"/>
<path d="M34.9969 64.2002C34.9969 63.8688 34.7282 63.6002 34.3969 63.6002C34.0655 63.6002 33.7969 63.8688 33.7969 64.2002C33.7969 64.5316 34.0655 64.8002 34.3969 64.8002C34.7282 64.8002 34.9969 64.5316 34.9969 64.2002Z" fill="#1E1E1E"/>
<path d="M34.9969 54.6002C34.9969 54.2688 34.7282 54.0002 34.3969 54.0002C34.0655 54.0002 33.7969 54.2688 33.7969 54.6002C33.7969 54.9316 34.0655 55.2002 34.3969 55.2002C34.7282 55.2002 34.9969 54.9316 34.9969 54.6002Z" fill="#1E1E1E"/>
<path d="M34.9969 47.4002C34.9969 47.0688 34.7282 46.8002 34.3969 46.8002C34.0655 46.8002 33.7969 47.0688 33.7969 47.4002C33.7969 47.7316 34.0655 48.0002 34.3969 48.0002C34.7282 48.0002 34.9969 47.7316 34.9969 47.4002Z" fill="#1E1E1E"/>
<path d="M34.9969 40.2002C34.9969 39.8688 34.7282 39.6002 34.3969 39.6002C34.0655 39.6002 33.7969 39.8688 33.7969 40.2002C33.7969 40.5316 34.0655 40.8002 34.3969 40.8002C34.7282 40.8002 34.9969 40.5316 34.9969 40.2002Z" fill="#1E1E1E"/>
<path d="M34.9969 33.0002C34.9969 32.6688 34.7282 32.4002 34.3969 32.4002C34.0655 32.4002 33.7969 32.6688 33.7969 33.0002C33.7969 33.3316 34.0655 33.6002 34.3969 33.6002C34.7282 33.6002 34.9969 33.3316 34.9969 33.0002Z" fill="#1E1E1E"/>
<path d="M34.9969 25.8002C34.9969 25.4688 34.7282 25.2002 34.3969 25.2002C34.0655 25.2002 33.7969 25.4688 33.7969 25.8002C33.7969 26.1316 34.0655 26.4002 34.3969 26.4002C34.7282 26.4002 34.9969 26.1316 34.9969 25.8002Z" fill="#1E1E1E"/>
</svg>
