<svg width="63" height="129" viewBox="0 0 63 129" fill="none" xmlns="http://www.w3.org/2000/svg">
<path d="M15.5049 27.0001C15.5049 27.0001 14.0221 51.7909 14.734 55.5473C14.9426 56.648 15.1724 57.6339 15.4836 58.493M17.1814 61.1225C17.1814 60.5225 17.4478 58.9222 17.4478 58.034M17.1814 61.1225C17.8852 61.7161 18.7962 62.1227 20.0049 62.3242C20.1117 62.342 20.22 62.3587 20.3298 62.3744M17.1814 61.1225C16.4031 60.4662 15.878 59.5815 15.4836 58.493M20.3298 62.3744C20.2866 61.7119 20.2261 60.0026 20.3298 59.3011M20.3298 62.3744C21.4005 62.5278 22.6098 62.5853 23.8416 62.5905M23.8416 62.5905V59.6247M23.8416 62.5905C25.0844 62.5956 26.3502 62.5475 27.5197 62.4908M27.5197 62.4908C27.5197 61.9179 27.5877 60.2175 27.6556 59.6247M27.5197 62.4908C29.0807 62.4152 30.4703 62.3242 31.4049 62.3242M47.3075 27.0001C47.3075 27.0001 48.7904 51.7909 48.0785 55.5473C47.8694 56.6506 47.639 57.6387 47.3266 58.4993M45.6311 61.1225C45.6311 60.5225 45.4502 58.9383 45.3646 58.034M45.6311 61.1225C44.9272 61.7161 44.0163 62.1227 42.8076 62.3242C42.7008 62.342 42.5925 62.3587 42.4827 62.3744M45.6311 61.1225C46.4079 60.4675 46.9325 59.5848 47.3266 58.4993M42.4827 62.3744C42.5259 61.7119 42.5864 60.0026 42.4827 59.3011M42.4827 62.3744C41.4122 62.5278 40.2028 62.5853 38.9709 62.5905M38.9709 62.5905V59.6247M38.9709 62.5905C37.7281 62.5957 36.4624 62.5476 35.2928 62.4909M35.2928 62.4909C35.2928 61.918 35.2248 60.2175 35.1569 59.6247M35.2928 62.4909C33.7306 62.4152 32.3399 62.3242 31.4049 62.3242M31.4049 62.3242L31.4045 18.75M31.4045 18.75C31.8405 18.75 32.1246 18.6861 32.542 18.4386M31.4045 18.75C31.0244 18.75 30.7691 18.7014 30.431 18.525M5.59872 63.2156C5.66531 62.3432 5.66265 61.3626 5.75855 60.6114M5.59872 63.2156C5.93124 63.3708 6.25241 63.4727 6.50358 63.5565C6.72062 63.6288 7.13531 63.7193 7.65651 63.8107M5.59872 63.2156C4.73974 62.8145 3.80495 62.0573 3.80495 60.3373C3.80495 57.9513 3.80437 54.9817 3.80495 51.2371C3.80552 47.4925 4.1677 42.4386 5.15728 36.4157C6.14686 30.3927 6.76697 27.686 8.94473 23.1197C11.1225 18.5534 11.9055 17.1001 15.8055 13.5001C16.6559 12.7151 17.7768 11.8095 18.526 11.3514C19.2753 10.8933 20.2721 10.4916 20.9885 10.6082M7.65651 63.8107C7.65651 62.8636 7.83632 61.4705 7.91623 60.9111M7.65651 63.8107C8.26545 63.9176 9.0198 64.0257 9.77423 64.1079M9.77423 64.1079C9.98068 63.106 10.1778 61.7586 10.2737 61.3706M9.77423 64.1079C10.5542 64.1928 11.3343 64.2499 11.9538 64.2488M11.9538 64.2488C12.2735 63.6495 12.9018 62.2896 12.9018 61.5704M11.9538 64.2488C12.349 64.2482 12.6789 64.2239 12.9018 64.1682C14.1018 63.8682 14.5187 62.9319 15.0368 61.1691C15.1434 60.8063 15.2919 59.8817 15.4836 58.493M57.2107 63.2156C57.1441 62.3432 57.1467 61.3626 57.0508 60.6114M57.2107 63.2156C56.8781 63.3708 56.557 63.4727 56.3058 63.5565C56.0888 63.6288 55.6741 63.7193 55.1529 63.8107M57.2107 63.2156C58.0696 62.8145 59.0044 62.0573 59.0044 60.3373C59.0044 57.9513 59.005 54.9817 59.0044 51.2371C59.0039 47.4925 58.6417 42.4386 57.6521 36.4157C56.6625 30.3927 56.0424 27.686 53.8646 23.1197C51.6869 18.5534 50.9039 17.1001 47.0039 13.5001C46.1957 12.754 45.5242 12.1047 44.5603 11.4913C43.5964 10.8779 42.4854 10.4831 41.7464 10.6228M55.1529 63.8107C55.1529 62.8636 54.9731 61.4705 54.8931 60.9111M55.1529 63.8107C54.5439 63.9176 53.7896 64.0257 53.0351 64.1079M53.0351 64.1079C52.8287 63.106 52.6316 61.7586 52.5357 61.3706M53.0351 64.1079C52.2224 64.1963 51.4096 64.2546 50.7783 64.2484M50.7783 64.2484C50.4586 63.649 49.9076 62.2896 49.9076 61.5704M50.7783 64.2484C50.4174 64.2449 50.1158 64.2203 49.9076 64.1682C48.7076 63.8682 48.2907 62.9319 47.7726 61.1691C47.6661 60.8069 47.5179 59.8845 47.3266 58.4993M20.5212 13.0444C20.8865 12.7089 22.0016 11.7987 22.6994 11.3514M22.6994 11.3514C22.1607 10.9752 21.5987 10.7074 20.9885 10.6082M22.6994 11.3514C23.254 11.7387 23.784 12.2408 24.3168 12.7925C24.4376 12.9176 24.5671 13.0508 24.7037 13.1905M22.8696 14.9678C23.0784 14.7144 23.8448 13.9419 24.7037 13.1905M24.7037 13.1905C25.245 13.7443 25.8965 14.3991 26.555 15.0508M24.7707 16.7795C25.0913 16.5036 26.0183 15.6591 26.555 15.0508M26.555 15.0508C27.2787 15.7669 28.0107 16.4792 28.6142 17.0493M26.9178 18.9266C27.2607 18.5463 28.1848 17.5682 28.6142 17.0493M28.6142 17.0493C29.223 17.6244 29.701 18.0548 29.9077 18.1986C30.109 18.3387 30.2776 18.445 30.431 18.525M29.466 20.6519C29.7109 20.1295 30.1045 19.276 30.431 18.525M42.2971 13.0444C41.9318 12.7089 40.8184 11.7976 40.1205 11.3502M40.1205 11.3502C40.6342 10.9918 41.1689 10.732 41.7464 10.6228M40.1205 11.3502C39.5654 11.7377 39.0348 12.2403 38.5015 12.7925C38.3901 12.9078 38.2714 13.03 38.1466 13.1578M39.9487 14.9678C39.74 14.7144 39.0054 13.9093 38.1466 13.1578M38.1466 13.1578C37.5925 13.725 36.919 14.4021 36.2394 15.0744M38.0476 16.7795C37.7271 16.5036 36.7762 15.6827 36.2394 15.0744M36.2394 15.0744C35.5236 15.7826 34.801 16.4855 34.2041 17.0493M35.9005 18.9266C35.5576 18.5463 34.6335 17.5682 34.2041 17.0493M34.2041 17.0493C33.5953 17.6244 33.1173 18.0548 32.9106 18.1986C32.7746 18.2932 32.6535 18.3725 32.542 18.4386M33.3285 20.6935C33.1865 20.3417 32.8104 19.2278 32.542 18.4386M20.9885 10.6082C23.1471 9.56235 27.3119 8.46631 31.4045 8.46631C35.4971 8.46631 39.5878 9.57702 41.7464 10.6228" stroke="#1E1E1E" stroke-width="0.6" stroke-linecap="round"/>
<path d="M34.9969 54.5998C34.9969 54.2684 34.7282 53.9998 34.3969 53.9998C34.0655 53.9998 33.7969 54.2684 33.7969 54.5998C33.7969 54.9312 34.0655 55.1998 34.3969 55.1998C34.7282 55.1998 34.9969 54.9312 34.9969 54.5998Z" fill="#1E1E1E"/>
<path d="M34.9969 44.9998C34.9969 44.6684 34.7282 44.3998 34.3969 44.3998C34.0655 44.3998 33.7969 44.6684 33.7969 44.9998C33.7969 45.3312 34.0655 45.5998 34.3969 45.5998C34.7282 45.5998 34.9969 45.3312 34.9969 44.9998Z" fill="#1E1E1E"/>
<path d="M34.9969 37.7998C34.9969 37.4684 34.7282 37.1998 34.3969 37.1998C34.0655 37.1998 33.7969 37.4684 33.7969 37.7998C33.7969 38.1312 34.0655 38.3998 34.3969 38.3998C34.7282 38.3998 34.9969 38.1312 34.9969 37.7998Z" fill="#1E1E1E"/>
<path d="M34.9969 30.5998C34.9969 30.2684 34.7282 29.9998 34.3969 29.9998C34.0655 29.9998 33.7969 30.2684 33.7969 30.5998C33.7969 30.9312 34.0655 31.1998 34.3969 31.1998C34.7282 31.1998 34.9969 30.9312 34.9969 30.5998Z" fill="#1E1E1E"/>
<path d="M34.9969 23.3998C34.9969 23.0684 34.7282 22.7998 34.3969 22.7998C34.0655 22.7998 33.7969 23.0684 33.7969 23.3998C33.7969 23.7312 34.0655 23.9998 34.3969 23.9998C34.7282 23.9998 34.9969 23.7312 34.9969 23.3998Z" fill="#1E1E1E"/>
</svg>
