<svg width="64" height="129" viewBox="0 0 64 129" fill="none" xmlns="http://www.w3.org/2000/svg">
<path d="M15.8963 27.0001C16.3445 35.0359 14.5562 51.3306 14.5562 55.9653C14.5562 58.9218 14.5692 61.2114 14.6845 63.1059M17.5727 70.7814C17.5727 70.1814 17.8392 68.5982 17.8392 67.7099M17.5727 70.7814C16.0045 69.5387 15.2735 67.6329 14.9963 66.0001C14.8485 65.1295 14.75 64.1814 14.6845 63.1059M17.5727 70.7814C18.3136 71.3685 19.2413 71.8076 20.3963 72.0001C20.503 72.0179 20.6114 72.0346 20.7212 72.0504M20.7212 72.0504C20.6779 71.3878 20.6174 69.6786 20.7212 68.977M20.7212 72.0504C21.7918 72.2037 23.0011 72.2612 24.233 72.2664M24.233 72.2664V69.3006M24.233 72.2664C25.4758 72.2716 26.7415 72.2235 27.911 72.1668M27.911 72.1668C27.911 71.5938 27.979 69.8934 28.047 69.3006M27.911 72.1668C29.4721 72.0911 30.8617 72.0001 31.7963 72.0001L31.7951 18.75M47.6975 27.0001C47.2493 35.0359 49.0375 51.3306 49.0375 55.9653C49.0375 60.6001 49.0057 63.5959 48.5975 66.0001C48.3202 67.6329 47.5893 69.5387 46.021 70.7814M46.021 70.7814C46.021 70.1814 45.7545 68.5982 45.7545 67.7099M46.021 70.7814C45.2802 71.3685 44.3525 71.8076 43.1975 72.0001C43.0907 72.0179 42.9824 72.0346 42.8726 72.0504M42.8726 72.0504C42.9158 71.3878 42.9763 69.6786 42.8726 68.977M42.8726 72.0504C41.8019 72.2037 40.5926 72.2612 39.3608 72.2664M39.3608 72.2664V69.3006M39.3608 72.2664C38.118 72.2716 36.8522 72.2235 35.6827 72.1668M35.6827 72.1668C35.6827 71.5938 35.6147 69.8934 35.5467 69.3006M35.6827 72.1668C34.1217 72.0911 32.7321 72.0001 31.7975 72.0001M31.7951 18.75C31.7951 18.75 32.5152 18.6861 32.9326 18.4386M31.7951 18.75C31.415 18.75 31.1598 18.7014 30.8216 18.525M5.98934 63.2156C6.05594 62.3432 6.05328 61.3626 6.14917 60.6114M5.98934 63.2156C6.32187 63.3708 6.64303 63.4727 6.8942 63.5565C7.11125 63.6288 7.52593 63.7193 8.04713 63.8107M5.98934 63.2156C5.13037 62.8145 4.19557 62.0573 4.19557 60.3373C4.19557 57.9513 4.19499 54.9817 4.19557 51.2371C4.19615 47.4925 4.55833 42.4386 5.54791 36.4157C6.53749 30.3927 7.15759 27.686 9.33536 23.1197C11.5131 18.5534 12.2961 17.1001 16.1961 13.5001C17.105 12.6611 18.2794 11.7672 18.9243 11.3514C19.5693 10.9357 20.6628 10.4916 21.3791 10.6082M8.04713 63.8107C8.04713 62.8636 8.22694 61.4705 8.30685 60.9111M8.04713 63.8107C8.65608 63.9176 9.41042 64.0257 10.1649 64.1079M10.1649 64.1079C10.3713 63.106 10.5684 61.7586 10.6643 61.3706M10.1649 64.1079C10.9448 64.1928 11.7249 64.2499 12.3445 64.2488M12.3445 64.2488C12.6641 63.6495 13.2924 62.2896 13.2924 61.5704M12.3445 64.2488C12.7396 64.2482 13.0695 64.2239 13.2924 64.1682C13.9365 64.0072 14.3549 63.6629 14.6845 63.1059M57.6013 63.2156C57.5347 62.3432 57.5374 61.3626 57.4415 60.6114M57.6013 63.2156C57.2688 63.3708 56.9476 63.4727 56.6964 63.5565C56.4794 63.6288 56.0647 63.7193 55.5435 63.8107M57.6013 63.2156C58.4603 62.8145 59.3951 62.0573 59.3951 60.3373C59.3951 57.9513 59.3956 54.9817 59.3951 51.2371C59.3945 47.4925 59.0323 42.4386 58.0427 36.4157C57.0531 30.3927 56.433 27.686 54.2553 23.1197C52.0775 18.5534 51.2945 17.1001 47.3945 13.5001C46.6329 12.797 45.7102 11.9197 44.8067 11.3502C43.9033 10.7808 42.876 10.4831 42.1371 10.6228M55.5435 63.8107C55.5435 62.8636 55.3637 61.4705 55.2838 60.9111M55.5435 63.8107C54.9346 63.9176 54.1802 64.0257 53.4258 64.1079M53.4258 64.1079C53.2193 63.106 53.0222 61.7586 52.9263 61.3706M53.4258 64.1079C52.613 64.1963 51.8002 64.2546 51.1689 64.2484M51.1689 64.2484C50.8493 63.649 50.2982 62.2896 50.2982 61.5704M51.1689 64.2484C50.808 64.2449 50.5064 64.2203 50.2982 64.1682C49.6541 64.0072 49.2357 63.6629 48.9061 63.1059M20.9118 13.0444C21.2771 12.7089 22.3923 11.7987 23.0901 11.3514M23.0901 11.3514C22.5513 10.9752 21.9894 10.7074 21.3791 10.6082M23.0901 11.3514C23.6446 11.7387 24.1746 12.2408 24.7074 12.7925C24.8283 12.9176 24.9578 13.0508 25.0943 13.1905M23.2602 14.9678C23.469 14.7144 24.2354 13.9419 25.0943 13.1905M25.0943 13.1905C25.6356 13.7443 26.2872 14.3991 26.9457 15.0508M25.1613 16.7795C25.4819 16.5036 26.4089 15.6591 26.9457 15.0508M26.9457 15.0508C27.6693 15.7669 28.4013 16.4792 29.0049 17.0493M27.3084 18.9266C27.6514 18.5463 28.5754 17.5682 29.0049 17.0493M29.0049 17.0493C29.6136 17.6244 30.0916 18.0548 30.2983 18.1986C30.4997 18.3387 30.6682 18.445 30.8216 18.525M29.8566 20.6519C30.1015 20.1295 30.4951 19.276 30.8216 18.525M42.6877 13.0444C42.3224 12.7089 41.209 11.7976 40.5112 11.3502M40.5112 11.3502C41.0248 10.9918 41.5595 10.732 42.1371 10.6228M40.5112 11.3502C39.956 11.7377 39.4255 12.2403 38.8922 12.7925C38.7808 12.9078 38.662 13.03 38.5372 13.1578M40.3393 14.9678C40.1306 14.7144 39.3961 13.9093 38.5372 13.1578M38.5372 13.1578C37.9832 13.725 37.3097 14.4021 36.6301 15.0744M38.4383 16.7795C38.1177 16.5036 37.1668 15.6827 36.6301 15.0744M36.6301 15.0744C35.9142 15.7826 35.1916 16.4855 34.5947 17.0493M36.2911 18.9266C35.9482 18.5463 35.0241 17.5682 34.5947 17.0493M34.5947 17.0493C33.9859 17.6244 33.5079 18.0548 33.3013 18.1986C33.1652 18.2932 33.0441 18.3725 32.9326 18.4386M33.7191 20.6935C33.5771 20.3417 33.201 19.2278 32.9326 18.4386M21.3791 10.6082C23.5377 9.56235 27.7025 8.46631 31.7951 8.46631C35.8877 8.46631 39.9784 9.57702 42.1371 10.6228" stroke="#1E1E1E" stroke-width="0.6" stroke-linecap="round"/>
<path d="M35.4031 64.2002C35.4031 63.8688 35.1345 63.6002 34.8031 63.6002C34.4718 63.6002 34.2031 63.8688 34.2031 64.2002C34.2031 64.5316 34.4718 64.8002 34.8031 64.8002C35.1345 64.8002 35.4031 64.5316 35.4031 64.2002Z" fill="#1E1E1E"/>
<path d="M35.4031 54.6002C35.4031 54.2688 35.1345 54.0002 34.8031 54.0002C34.4718 54.0002 34.2031 54.2688 34.2031 54.6002C34.2031 54.9316 34.4718 55.2002 34.8031 55.2002C35.1345 55.2002 35.4031 54.9316 35.4031 54.6002Z" fill="#1E1E1E"/>
<path d="M35.4031 47.4002C35.4031 47.0688 35.1345 46.8002 34.8031 46.8002C34.4718 46.8002 34.2031 47.0688 34.2031 47.4002C34.2031 47.7316 34.4718 48.0002 34.8031 48.0002C35.1345 48.0002 35.4031 47.7316 35.4031 47.4002Z" fill="#1E1E1E"/>
<path d="M35.4031 40.2002C35.4031 39.8688 35.1345 39.6002 34.8031 39.6002C34.4718 39.6002 34.2031 39.8688 34.2031 40.2002C34.2031 40.5316 34.4718 40.8002 34.8031 40.8002C35.1345 40.8002 35.4031 40.5316 35.4031 40.2002Z" fill="#1E1E1E"/>
<path d="M35.4031 33.0002C35.4031 32.6688 35.1345 32.4002 34.8031 32.4002C34.4718 32.4002 34.2031 32.6688 34.2031 33.0002C34.2031 33.3316 34.4718 33.6002 34.8031 33.6002C35.1345 33.6002 35.4031 33.3316 35.4031 33.0002Z" fill="#1E1E1E"/>
<path d="M35.4031 25.8002C35.4031 25.4688 35.1345 25.2002 34.8031 25.2002C34.4718 25.2002 34.2031 25.4688 34.2031 25.8002C34.2031 26.1316 34.4718 26.4002 34.8031 26.4002C35.1345 26.4002 35.4031 26.1316 35.4031 25.8002Z" fill="#1E1E1E"/>
</svg>
