<svg width="63" height="129" viewBox="0 0 63 129" fill="none" xmlns="http://www.w3.org/2000/svg">
<path d="M15.3096 27C15.3096 27 13.8268 40.0093 14.5387 43.7657C14.9546 45.9605 15.455 47.6993 16.5172 48.8853M16.986 49.3409C16.986 48.7409 17.2525 47.1406 17.2525 46.2523M16.986 49.3409C17.6899 49.9344 18.6009 50.3411 19.8096 50.5425C19.9164 50.5603 20.0247 50.5771 20.1345 50.5928M16.986 49.3409C16.8184 49.1995 16.6626 49.0476 16.5172 48.8853M20.1345 50.5928C20.0913 49.9302 20.0307 48.221 20.1345 47.5195M20.1345 50.5928C21.205 50.7462 22.4144 50.8037 23.6463 50.8088M23.6463 50.8088V47.8431M23.6463 50.8088C24.889 50.814 26.1548 50.766 27.3244 50.7093M27.3244 50.7093C27.3244 50.1363 27.3923 48.4358 27.4603 47.8431M27.3244 50.7093C28.8866 50.6336 30.2773 50.5425 31.2123 50.5425M47.1123 27C47.1123 27 48.5951 40.0093 47.8832 43.7657C47.4669 45.9624 46.9661 47.7023 45.9019 48.8884M45.4358 49.3409C45.4358 48.7409 45.1693 47.1406 45.1693 46.2523M45.4358 49.3409C44.7319 49.9344 43.821 50.3411 42.6123 50.5425C42.5076 50.56 42.4013 50.5764 42.2937 50.5919M45.4358 49.3409C45.6024 49.2004 45.7573 49.0495 45.9019 48.8884M42.2937 50.5919C42.3369 49.9293 42.3911 48.221 42.2874 47.5195M42.2937 50.5919C42.2916 50.5922 42.2895 50.5925 42.2874 50.5928C41.2167 50.7462 40.0074 50.8037 38.7756 50.8088M38.7756 50.8088V47.8431M38.7756 50.8088C37.5328 50.814 36.267 50.7659 35.0975 50.7092M35.0975 50.7092C35.0975 50.1362 35.0295 48.4358 34.9615 47.8431M35.0975 50.7092C33.5365 50.6335 32.1469 50.5425 31.2123 50.5425M31.2123 50.5425L31.2103 18.6M31.2103 18.6C31.792 18.6 32.3429 18.5751 32.8646 18.5285M31.2103 18.6C30.6284 18.6 30.0775 18.5751 29.5557 18.5285M5.40341 63.2155C5.47 62.3431 5.46734 61.3625 5.56324 60.6113M5.40341 63.2155C5.73593 63.3707 6.05709 63.4726 6.30827 63.5564C6.52531 63.6287 6.93999 63.7192 7.4612 63.8106M5.40341 63.2155C4.54443 62.8144 3.60963 62.0572 3.60963 60.3372C3.60963 57.9512 3.60905 54.9816 3.60963 51.237C3.61021 47.4924 3.97239 42.4385 4.96197 36.4156C5.95155 30.3927 6.57166 27.6859 8.74942 23.1196C10.9272 18.5534 11.7102 17.1 15.6102 13.5C16.3458 12.821 16.752 12.5782 17.2266 12.2373C17.7013 11.8965 18.4803 11.7752 18.7948 11.8965M7.4612 63.8106C7.4612 62.8635 7.641 61.4704 7.72092 60.911M7.4612 63.8106C8.07014 63.9175 8.82449 64.0257 9.57892 64.1078M9.57892 64.1078C9.78537 63.1059 9.98249 61.7585 10.0784 61.3705M9.57892 64.1078C10.3589 64.1927 11.1389 64.2498 11.7585 64.2487M11.7585 64.2487C12.0782 63.6494 12.7065 62.2895 12.7065 61.5703M11.7585 64.2487C12.1537 64.2481 12.4836 64.2238 12.7065 64.1681C13.9065 63.8681 14.3234 62.9318 14.8415 61.169C15.1157 60.2361 15.6671 55.587 16.5172 48.8853M57.0153 63.2155C56.9487 62.3431 56.9514 61.3625 56.8555 60.6113M57.0153 63.2155C56.6828 63.3707 56.3617 63.4726 56.1105 63.5564C55.8934 63.6287 55.4788 63.7192 54.9576 63.8106M57.0153 63.2155C57.8743 62.8144 58.8091 62.0572 58.8091 60.3372C58.8091 57.9512 58.8097 54.9816 58.8091 51.237C58.8085 47.4924 58.4464 42.4385 57.4568 36.4156C56.4672 30.3927 55.8471 27.6859 53.6693 23.1196C51.4916 18.5534 50.7086 17.1 46.8086 13.5C46.073 12.821 45.417 12.341 44.9326 12.07C44.4483 11.7989 43.9279 11.7776 43.6089 11.903M54.9576 63.8106C54.9576 62.8635 54.7777 61.4704 54.6978 60.911M54.9576 63.8106C54.3486 63.9175 53.5943 64.0256 52.8398 64.1078M52.8398 64.1078C52.6334 63.1059 52.4363 61.7585 52.3404 61.3705M52.8398 64.1078C52.0271 64.1962 51.2142 64.2545 50.583 64.2483M50.583 64.2483C50.2633 63.6489 49.7122 62.2895 49.7122 61.5703M50.583 64.2483C50.2221 64.2448 49.9205 64.2202 49.7122 64.1681C48.5122 63.8681 48.0954 62.9318 47.5773 61.169C47.3031 60.2362 46.7518 55.5884 45.9019 48.8884M17.4877 14.5978C17.9069 14.2022 19.148 13.2277 20.0237 12.7676M20.0237 12.7676C19.6487 12.3528 19.2351 12.0663 18.7948 11.8965M20.0237 12.7676C20.1025 12.8548 20.1797 12.9477 20.255 13.0464C20.5955 13.4925 21.0508 14.176 21.7257 14.9126M19.6916 16.7137C20.0256 16.4601 20.9984 15.6547 21.7257 14.9126M21.7257 14.9126C22.3179 15.5591 23.0793 16.2465 24.0806 16.8505M22.2519 19.0513C22.6972 18.6246 23.7838 17.4442 24.0806 16.8505M24.0806 16.8505C24.8226 17.2981 25.6963 17.6998 26.7305 18.0051M25.6298 20.6372C25.8834 20.0187 26.5227 18.4652 26.7305 18.0051M26.7305 18.0051C27.5632 18.2509 28.4999 18.4341 29.5557 18.5285M29.2103 21.6131C29.3757 20.8308 29.5557 18.9466 29.5557 18.5285M44.9326 14.5978C44.5134 14.2023 43.2898 13.2086 42.4141 12.7485M42.4141 12.7485C42.3291 12.8412 42.2462 12.9405 42.1653 13.0464C41.8248 13.4925 41.3695 14.1759 40.6947 14.9125M42.4141 12.7485C42.7797 12.3492 43.1816 12.0709 43.6089 11.903M42.7287 16.7137C42.3948 16.4601 41.422 15.6546 40.6947 14.9125M40.6947 14.9125C40.1042 15.5571 39.3456 16.2425 38.3486 16.8452M40.1684 19.0514C39.7231 18.6246 38.6455 17.4389 38.3486 16.8452M38.3486 16.8452C37.6065 17.2939 36.7323 17.6967 35.6971 18.003M36.7905 20.6372C36.537 20.0187 35.9049 18.4631 35.6971 18.003M35.6971 18.003C34.8627 18.2498 33.9235 18.4339 32.8646 18.5285M33.21 21.6131C33.0446 20.8308 32.8646 18.9466 32.8646 18.5285M43.6089 11.903C39.8068 10.717 34.6266 10.3154 31.1718 10.3154C27.7233 10.3154 22.5948 10.7155 18.7948 11.8965" stroke="#1E1E1E" stroke-width="0.6" stroke-linecap="round"/>
<path d="M34.8094 44.9998C34.8094 44.6684 34.5407 44.3998 34.2094 44.3998C33.878 44.3998 33.6094 44.6684 33.6094 44.9998C33.6094 45.3312 33.878 45.5998 34.2094 45.5998C34.5407 45.5998 34.8094 45.3312 34.8094 44.9998Z" fill="#1E1E1E"/>
<path d="M34.8094 37.7998C34.8094 37.4684 34.5407 37.1998 34.2094 37.1998C33.878 37.1998 33.6094 37.4684 33.6094 37.7998C33.6094 38.1312 33.878 38.3998 34.2094 38.3998C34.5407 38.3998 34.8094 38.1312 34.8094 37.7998Z" fill="#1E1E1E"/>
<path d="M34.8094 30.5998C34.8094 30.2684 34.5407 29.9998 34.2094 29.9998C33.878 29.9998 33.6094 30.2684 33.6094 30.5998C33.6094 30.9312 33.878 31.1998 34.2094 31.1998C34.5407 31.1998 34.8094 30.9312 34.8094 30.5998Z" fill="#1E1E1E"/>
<path d="M34.8094 23.3998C34.8094 23.0684 34.5407 22.7998 34.2094 22.7998C33.878 22.7998 33.6094 23.0684 33.6094 23.3998C33.6094 23.7312 33.878 23.9998 34.2094 23.9998C34.5407 23.9998 34.8094 23.7312 34.8094 23.3998Z" fill="#1E1E1E"/>
</svg>
