<svg width="64" height="129" viewBox="0 0 64 129" fill="none" xmlns="http://www.w3.org/2000/svg">
<path d="M16.8992 24.3707C14.7233 51.9202 12.8352 59.838 12.8137 60.9711C12.7922 62.1042 13.5845 62.8198 14.9296 63.0873C15.2716 63.1554 15.7842 63.2224 16.3876 63.2867M31.7944 58.7998C31.7944 58.7998 31.53 62.1392 31.1722 62.8273C30.8144 63.5154 30.3426 64.089 29.1629 64.176C27.9832 64.2629 23.7993 63.8781 22.0294 63.7424C20.7095 63.6411 18.1578 63.4754 16.3876 63.2867M31.7944 58.7998C31.7944 58.7998 32.0621 62.1392 32.4199 62.8273C32.7777 63.5154 33.2495 64.089 34.4292 64.176C35.6089 64.2629 39.7928 63.8781 41.5627 63.7424C43.0311 63.6297 46.0244 63.4373 47.7696 63.2221M31.7944 58.7998L31.7945 18.7498M46.6929 24.3707C48.8687 51.9202 50.7568 59.838 50.7784 60.9711C50.7999 62.1042 50.0076 62.8198 48.6625 63.0873C48.4334 63.1329 48.1278 63.178 47.7696 63.2221M23.3945 10.4998C25.1945 10.7998 27.2945 11.9998 28.7945 13.4998C30.2945 14.9998 31.7943 16.4998 31.7945 18.7498M31.7945 18.7498C31.7947 16.4998 33.2945 14.9998 34.7945 13.4998C36.2945 11.9998 38.3945 10.7998 40.1945 10.4998M31.7945 18.7498C31.2163 18.1302 30.3666 17.5944 29.3945 17.1357M31.7945 18.7498C32.3728 18.1302 33.2225 17.5944 34.1945 17.1357M29.3945 17.1357C28.7945 19.6857 28.1945 27.6598 28.1945 32.6998M29.3945 17.1357C26.8366 15.9287 23.4313 15.2563 21.8945 14.9998C20.3309 14.7388 17.4852 14.5365 16.0979 13.1256M34.1945 17.1357C34.7945 19.6857 35.3945 27.3957 35.3945 32.4357M34.1945 17.1357C36.7525 15.9287 40.1577 15.2563 41.6945 14.9998C43.3561 14.7224 46.4652 14.5114 47.7338 12.8461M16.3876 63.2867C16.0345 64.0036 15.2508 64.3885 14.3272 64.3567C13.1623 64.3165 6.77073 63.5175 5.05792 63.0173C3.34512 62.5171 3.4726 61.8779 3.39388 61.1285C3.31516 60.3791 4.6827 47.0109 5.6495 40.4159C6.61631 33.821 8.51352 23.6763 10.5603 19.9239C12.1099 17.0828 13.9979 14.8171 16.0979 13.1256M47.7696 63.2221C48.1067 63.9804 48.9094 64.3894 49.8603 64.3567C51.0252 64.3165 57.4168 63.5175 59.1296 63.0173C60.8424 62.5171 60.7149 61.8779 60.7936 61.1285C60.8724 60.3791 59.5048 47.0109 58.538 40.4159C57.5712 33.821 55.674 23.6763 53.6273 19.9239C51.9905 16.9233 49.9765 14.5644 47.7338 12.8461M16.0979 13.1256C15.6037 12.6229 15.2945 11.9667 15.2945 11.0998C15.2945 7.7998 19.1945 5.3998 21.8945 4.4998C24.5945 3.5998 27.2057 3.2998 31.7945 3.2998C36.3834 3.2998 38.9945 3.59979 41.6945 4.49979C44.3945 5.39979 48.2945 7.79979 48.2945 11.0998C48.2945 11.8144 48.0845 12.3858 47.7338 12.8461" stroke="#1E1E1E" stroke-width="0.6" stroke-linecap="round"/>
</svg>
