<svg width="64" height="129" viewBox="0 0 64 129" fill="none" xmlns="http://www.w3.org/2000/svg">
<path d="M16.8983 24.3707C15.4496 34.4089 14.2618 49.3206 13.3359 64.2763M31.7952 115.508C31.7348 116.943 31.4058 118.478 31.048 119.166C30.6901 119.854 30.2184 120.428 29.0387 120.515C27.859 120.602 21.875 120.217 20.1052 120.081C18.3353 119.946 14.3505 119.694 13.0054 119.426C11.6602 119.159 10.868 118.443 10.8895 117.31C10.9032 116.59 11.7208 90.3661 13.3359 64.2763M31.7952 115.508C31.8555 116.943 32.1845 118.478 32.5424 119.166C32.9002 119.854 33.372 120.428 34.5517 120.515C35.7314 120.602 41.7153 120.217 43.4851 120.081C45.255 119.946 49.2398 119.694 50.5849 119.426C51.9301 119.159 52.7224 118.443 52.7008 117.31C52.6872 116.59 51.8706 90.4028 50.2578 64.3312M31.7952 115.508L31.7945 18.7498M46.692 24.3707C48.1424 34.4212 49.3315 49.3571 50.2578 64.3312M23.3945 10.4998C25.1945 10.7998 27.2945 11.9998 28.7945 13.4998C30.2945 14.9998 31.7943 16.4998 31.7945 18.7498M31.7945 18.7498C31.7947 16.4998 33.2945 14.9998 34.7945 13.4998C36.2945 11.9998 38.3945 10.7998 40.1945 10.4998M31.7945 18.7498C31.2163 18.1302 30.3666 17.5944 29.3945 17.1357M31.7945 18.7498C32.3728 18.1302 33.2225 17.5944 34.1945 17.1357M29.3945 17.1357C28.7945 19.6857 28.1945 27.6598 28.1945 32.6998M29.3945 17.1357C26.8366 15.9287 23.4313 15.2563 21.8945 14.9998C20.3309 14.7388 17.4852 14.5365 16.0979 13.1256M34.1945 17.1357C34.7945 19.6857 35.3945 27.3957 35.3945 32.4357M34.1945 17.1357C36.7525 15.9287 40.1577 15.2563 41.6945 14.9998C43.3561 14.7224 46.4652 14.5114 47.7338 12.8461M50.2578 64.3312C52.0642 64.1846 57.5604 63.4756 59.1296 63.0173C60.8424 62.5171 60.7149 61.8779 60.7936 61.1285C60.8724 60.3791 59.5048 47.0109 58.538 40.4159C57.5712 33.821 55.674 23.6763 53.6273 19.9239C51.9905 16.9233 49.9765 14.5644 47.7338 12.8461M13.3359 64.2763C11.1347 64.0549 6.48113 63.433 5.05792 63.0173C3.34512 62.5171 3.4726 61.8779 3.39388 61.1285C3.31516 60.3791 4.6827 47.0109 5.6495 40.4159C6.61631 33.821 8.51352 23.6763 10.5603 19.9239C12.1099 17.0828 13.9979 14.8171 16.0979 13.1256M16.0979 13.1256C15.6037 12.6229 15.2945 11.9667 15.2945 11.0998C15.2945 7.7998 19.1945 5.3998 21.8945 4.4998C24.5945 3.5998 27.2057 3.2998 31.7945 3.2998C36.3834 3.2998 38.9945 3.59979 41.6945 4.49979C44.3945 5.39979 48.2945 7.79979 48.2945 11.0998C48.2945 11.8144 48.0845 12.3858 47.7338 12.8461" stroke="#1E1E1E" stroke-width="0.6" stroke-linecap="round"/>
</svg>
