<svg width="63" height="129" viewBox="0 0 63 129" fill="none" xmlns="http://www.w3.org/2000/svg">
<path d="M16.1023 24.371C13.9265 51.9205 12.0384 59.8383 12.0168 60.9714C11.9953 62.1045 12.7876 62.8201 14.1327 63.0876C14.4747 63.1557 14.9873 63.2227 15.5908 63.287M30.9975 58.8001C30.9975 58.8001 30.7331 62.1395 30.3753 62.8276C30.0175 63.5157 29.5457 64.0893 28.366 64.1763C27.1863 64.2632 23.0024 63.8784 21.2325 63.7427C19.9126 63.6414 17.3609 63.4757 15.5908 63.287M30.9975 58.8001C30.9975 58.8001 31.2652 62.1395 31.623 62.8276C31.9808 63.5157 32.4526 64.0893 33.6323 64.1763C34.812 64.2632 38.9959 63.8784 40.7658 63.7427C42.2342 63.63 45.2276 63.4375 46.9728 63.2224M30.9975 58.8001L30.9965 18.1499M45.896 24.371C48.0719 51.9205 49.96 59.8383 49.9815 60.9714C50.003 62.1045 49.2107 62.8201 47.8656 63.0876C47.6365 63.1332 47.3309 63.1783 46.9728 63.2224M30.9965 18.1499C30.9965 18.1499 29.5155 20.6309 28.306 21.5654C27.0966 22.5 26.4461 22.6569 23.7345 19.4108C21.0229 16.1646 19.6627 14.2973 19.1661 13.6546C18.734 13.0954 18.162 12.3148 17.6701 11.5061M30.9965 18.1499C30.9965 18.1499 28.8769 15.9497 26.9164 13.9171C25.8088 12.7686 23.913 10.5128 22.9751 9.42415M30.9965 18.1499C30.9965 18.1499 32.4775 20.6309 33.687 21.5654C34.8964 22.5 35.5469 22.6569 38.2585 19.4108C40.9701 16.1646 42.3303 14.2973 42.8269 13.6546C43.3047 13.0362 43.9537 12.1471 44.4762 11.2487M30.9965 18.1499C30.9965 18.1499 33.1161 15.9497 35.0766 13.9171C36.1811 12.7719 38.0691 10.5258 39.0097 9.4336M22.9751 9.42415C25.0781 8.75005 27.9259 8.46627 30.9965 8.46627C34.0814 8.46627 36.9036 8.7527 39.0097 9.4336M22.9751 9.42415C22.7344 9.1447 22.5568 8.94216 22.4718 8.85498C21.6729 8.03536 21.3705 7.29212 20.0358 7.97609C18.7011 8.66005 18.4639 8.82284 17.6844 9.46767C16.9048 10.1125 17.1548 10.6142 17.4559 11.1428C17.525 11.2641 17.5967 11.3854 17.6701 11.5061M39.0097 9.4336C39.2546 9.14927 39.4353 8.94314 39.5212 8.85498C40.3201 8.03536 40.6225 7.29212 41.9572 7.97609C43.2919 8.66005 43.5291 8.82284 44.3086 9.46767C45.0882 10.1125 44.8382 10.6142 44.5371 11.1428C44.517 11.1781 44.4967 11.2134 44.4762 11.2487M17.6701 11.5061C17.5749 11.5618 17.4792 11.6182 17.3829 11.6755C14.447 13.4231 11.8101 16.1719 9.76338 19.9242C7.71665 23.6766 5.81943 33.8213 4.85263 40.4162C3.88583 47.0112 2.51828 60.3794 2.597 61.1288C2.67572 61.8782 2.54824 62.5174 4.26105 63.0176C5.97385 63.5178 12.3654 64.3168 13.5303 64.357C14.4539 64.3888 15.2376 64.0039 15.5908 63.287M44.4762 11.2487C44.7183 11.3858 44.9628 11.5279 45.2108 11.6755C48.1468 13.4231 50.7836 16.1719 52.8304 19.9242C54.8771 23.6766 56.7743 33.8213 57.7411 40.4162C58.7079 47.0112 60.0755 60.3794 59.9968 61.1288C59.918 61.8782 60.0455 62.5174 58.3327 63.0176C56.6199 63.5178 50.2283 64.3168 49.0635 64.357C48.1125 64.3897 47.3098 63.9807 46.9728 63.2224" stroke="#1E1E1E" stroke-width="0.6" stroke-linecap="round"/>
</svg>
