<svg width="64" height="129" viewBox="0 0 64 129" fill="none" xmlns="http://www.w3.org/2000/svg">
<path d="M16.8995 24.3707C14.9998 37.534 13.5761 52.2719 12.605 64.1982M46.6931 24.3707C48.5962 37.5574 50.0215 52.3244 50.9928 64.2619M31.7963 86.7595C31.9368 87.8334 32.1731 88.8764 32.4228 89.3565C32.7806 90.0446 33.2524 90.6183 34.4321 90.7052C35.6118 90.7922 41.5957 90.4073 43.3656 90.2716C45.1354 90.1358 49.1202 89.8841 50.4654 89.6166C51.8105 89.349 52.6028 88.6335 52.5813 87.5004C52.57 86.9096 52.0508 77.2641 50.9928 64.2619M31.7963 86.7595C31.6558 87.8334 31.4195 88.8764 31.1698 89.3565C30.812 90.0446 30.3402 90.6183 29.1605 90.7052C27.9808 90.7922 21.9969 90.4073 20.2271 90.2716C18.4572 90.1358 14.4724 89.8841 13.1273 89.6166C11.7821 89.349 10.9898 88.6335 11.0114 87.5004C11.0226 86.9087 11.5436 77.2326 12.605 64.1982M31.7963 86.7595L31.7945 18.7498M23.3945 10.4998C25.1945 10.7998 27.2945 11.9998 28.7945 13.4998C30.2945 14.9998 31.7943 16.4998 31.7945 18.7498M31.7945 18.7498C31.7947 16.4998 33.2945 14.9998 34.7945 13.4998C36.2945 11.9998 38.3945 10.7998 40.1945 10.4998M31.7945 18.7498C31.2163 18.1302 30.3666 17.5944 29.3945 17.1357M31.7945 18.7498C32.3728 18.1302 33.2225 17.5944 34.1945 17.1357M29.3945 17.1357C28.7945 19.6857 28.1945 27.6598 28.1945 32.6998M29.3945 17.1357C26.8366 15.9287 23.4313 15.2563 21.8945 14.9998C20.3309 14.7388 17.4852 14.5365 16.0979 13.1256M34.1945 17.1357C34.7945 19.6857 35.3945 27.3957 35.3945 32.4357M34.1945 17.1357C36.7525 15.9287 40.1577 15.2563 41.6945 14.9998C43.3561 14.7224 46.4652 14.5114 47.7338 12.8461M16.0979 13.1256C15.6037 12.6229 15.2945 11.9667 15.2945 11.0998C15.2945 7.7998 19.1945 5.3998 21.8945 4.4998C24.5945 3.5998 27.2057 3.2998 31.7945 3.2998C36.3834 3.2998 38.9945 3.59979 41.6945 4.49979C44.3945 5.39979 48.2945 7.79979 48.2945 11.0998C48.2945 11.8144 48.0845 12.3858 47.7338 12.8461M16.0979 13.1256C13.9979 14.8171 12.1099 17.0828 10.5603 19.9239C8.51352 23.6763 6.61631 33.821 5.6495 40.4159C4.6827 47.0109 3.31516 60.3791 3.39388 61.1285C3.4726 61.8779 3.34512 62.5171 5.05792 63.0173C6.33832 63.3913 10.2333 63.9321 12.605 64.1982M47.7338 12.8461C49.9765 14.5644 51.9905 16.9233 53.6273 19.9239C55.674 23.6763 57.5712 33.821 58.538 40.4159C59.5048 47.0109 60.8724 60.3791 60.7936 61.1285C60.7149 61.8779 60.8424 62.5171 59.1296 63.0173C57.7361 63.4243 53.246 64.0289 50.9928 64.2619" stroke="#1E1E1E" stroke-width="0.6" stroke-linecap="round"/>
</svg>
