<svg width="63" height="129" viewBox="0 0 63 129" fill="none" xmlns="http://www.w3.org/2000/svg">
<path d="M16.1026 24.371C14.2029 37.5343 12.7793 52.2722 11.8081 64.1985M45.8963 24.371C47.7993 37.5577 49.2247 52.3247 50.196 64.2622M30.9994 86.7598L30.9965 18.1499M30.9994 86.7598C31.14 87.8337 31.3762 88.8767 31.6259 89.3568C31.9837 90.0449 32.4555 90.6186 33.6352 90.7055C34.8149 90.7925 40.7988 90.4076 42.5687 90.2719C44.3385 90.1361 48.3234 89.8844 49.6685 89.6169C51.0136 89.3493 51.8059 88.6337 51.7844 87.5006C51.7732 86.9099 51.2539 77.2644 50.196 64.2622M30.9994 86.7598C30.8589 87.8337 30.6226 88.8767 30.373 89.3568C30.0151 90.0449 29.5434 90.6186 28.3637 90.7055C27.184 90.7925 21.2 90.4076 19.4302 90.2719C17.6603 90.1361 13.6755 89.8844 12.3304 89.6169C10.9852 89.3493 10.193 88.6337 10.2145 87.5006C10.2257 86.9089 10.7467 77.2329 11.8081 64.1985M30.9965 18.1499C30.9965 18.1499 29.5155 20.6309 28.306 21.5654C27.0966 22.5 26.4461 22.6569 23.7345 19.4108C21.0229 16.1646 19.6627 14.2973 19.1661 13.6546C18.734 13.0954 18.162 12.3148 17.6701 11.5061M30.9965 18.1499C30.9965 18.1499 28.8769 15.9497 26.9164 13.9171C25.8088 12.7686 23.913 10.5128 22.9751 9.42415M30.9965 18.1499C30.9965 18.1499 32.4775 20.6309 33.687 21.5654C34.8964 22.5 35.5469 22.6569 38.2585 19.4108C40.9701 16.1646 42.3303 14.2973 42.8269 13.6546C43.3047 13.0362 43.9537 12.1471 44.4762 11.2487M30.9965 18.1499C30.9965 18.1499 33.1161 15.9497 35.0766 13.9171C36.1811 12.7719 38.0691 10.5258 39.0097 9.4336M22.9751 9.42415C25.0781 8.75005 27.9259 8.46627 30.9965 8.46627C34.0814 8.46627 36.9036 8.7527 39.0097 9.4336M22.9751 9.42415C22.7344 9.1447 22.5568 8.94216 22.4718 8.85498C21.6729 8.03536 21.3705 7.29212 20.0358 7.97609C18.7011 8.66005 18.4639 8.82284 17.6844 9.46767C16.9048 10.1125 17.1548 10.6142 17.4559 11.1428C17.525 11.2641 17.5967 11.3854 17.6701 11.5061M39.0097 9.4336C39.2546 9.14927 39.4353 8.94314 39.5212 8.85498C40.3201 8.03536 40.6225 7.29212 41.9572 7.97609C43.2919 8.66005 43.5291 8.82284 44.3086 9.46767C45.0882 10.1125 44.8382 10.6142 44.5371 11.1428C44.517 11.1781 44.4967 11.2134 44.4762 11.2487M17.6701 11.5061C17.5749 11.5618 17.4792 11.6182 17.3829 11.6755C14.447 13.4231 11.8101 16.1719 9.76338 19.9242C7.71665 23.6766 5.81943 33.8213 4.85263 40.4162C3.88583 47.0112 2.51828 60.3794 2.597 61.1288C2.67572 61.8782 2.54824 62.5174 4.26105 63.0176C5.54145 63.3916 9.43646 63.9324 11.8081 64.1985M44.4762 11.2487C44.7183 11.3858 44.9628 11.5279 45.2108 11.6755C48.1468 13.4231 50.7836 16.1719 52.8304 19.9242C54.8771 23.6766 56.7743 33.8213 57.7411 40.4162C58.7079 47.0112 60.0755 60.3794 59.9968 61.1288C59.918 61.8782 60.0455 62.5174 58.3327 63.0176C56.9393 63.4246 52.4491 64.0292 50.196 64.2622" stroke="#1E1E1E" stroke-width="0.6" stroke-linecap="round"/>
</svg>
