<svg width="63" height="129" viewBox="0 0 63 129" fill="none" xmlns="http://www.w3.org/2000/svg">
<path d="M16.3054 24.371C14.1296 51.9205 12.2415 59.8383 12.22 60.9714C12.1984 62.1045 12.9907 62.8201 14.3358 63.0876C14.6778 63.1557 15.1904 63.2227 15.7939 63.287M31.2007 58.8001C31.2007 58.8001 30.9363 62.1395 30.5784 62.8276C30.2206 63.5157 29.7488 64.0893 28.5691 64.1763C27.3894 64.2632 23.2055 63.8784 21.4357 63.7427C20.1158 63.6414 17.564 63.4757 15.7939 63.287M31.2007 58.8001C31.2007 58.8001 31.4683 62.1395 31.8261 62.8276C32.1839 63.5157 32.6557 64.0893 33.8354 64.1763C35.0151 64.2632 39.199 63.8784 40.9689 63.7427C42.4374 63.63 45.4307 63.4375 47.1759 63.2224M31.2007 58.8001L31.2008 17.406M46.0991 24.371C48.275 51.9205 50.1631 59.8383 50.1846 60.9714C50.2061 62.1045 49.4138 62.8201 48.0687 63.0876C47.8397 63.1332 47.5341 63.1783 47.1759 63.2224M31.2008 17.406C30.8231 15.4028 29.3102 15.162 28.6735 15.0168C25.9465 14.3948 24.6082 12.676 23.6617 11.2869C23.1465 10.5308 22.584 10.0861 21.9744 9.89109M31.2008 17.406C31.5785 15.4028 33.0897 15.162 33.7264 15.0168C36.4534 14.3948 37.7917 12.676 38.7382 11.2869C39.2474 10.5395 39.8029 10.0964 40.4043 9.89797M21.9744 9.89109C24.1362 8.87897 27.4605 8.46631 31.1633 8.46631C34.8744 8.46631 38.2419 8.88084 40.4043 9.89797M21.9744 9.89109C21.2029 9.64428 17.963 11.2869 15.9777 12.7254C13.9923 14.164 12.0132 16.1719 9.9665 19.9242C7.91977 23.6766 6.02256 33.8213 5.05575 40.4162C4.08895 47.0112 2.72141 60.3794 2.80013 61.1288C2.87885 61.8782 2.75137 62.5174 4.46417 63.0176C6.17698 63.5178 12.5685 64.3168 13.7334 64.3569C14.657 64.3888 15.4408 64.0039 15.7939 63.287M40.4043 9.89797C41.1815 9.64149 42.3015 10.0429 43.2309 10.4752C43.9476 10.8338 44.6649 11.2296 45.4139 11.6755C48.3499 13.4231 50.9868 16.1719 53.0335 19.9242C55.0802 23.6766 56.9774 33.8213 57.9442 40.4162C58.9111 47.0112 60.2786 60.3794 60.1999 61.1288C60.1212 61.8782 60.2486 62.5174 58.5358 63.0176C56.823 63.5178 50.4315 64.3168 49.2666 64.3569C48.3156 64.3897 47.513 63.9807 47.1759 63.2224" stroke="#1E1E1E" stroke-width="0.6" stroke-linecap="round"/>
</svg>
