<svg width="63" height="129" viewBox="0 0 63 129" fill="none" xmlns="http://www.w3.org/2000/svg">
<path d="M16.3046 24.371C14.8559 34.4092 13.668 49.3209 12.7422 64.2766M31.2014 115.509C31.1411 116.943 30.812 118.478 30.4542 119.167C30.0964 119.855 29.6246 120.428 28.4449 120.515C27.2652 120.602 21.2813 120.217 19.5114 120.082C17.7416 119.946 13.7568 119.694 12.4116 119.427C11.0665 119.159 10.2742 118.444 10.2957 117.31C10.3094 116.59 11.1271 90.3664 12.7422 64.2766M31.2014 115.509C31.2618 116.943 31.5908 118.478 31.9486 119.167C32.3064 119.855 32.7782 120.428 33.9579 120.515C35.1376 120.602 41.1215 120.217 42.8914 120.082C44.6612 119.946 48.6461 119.694 49.9912 119.427C51.3363 119.159 52.1286 118.444 52.1071 117.31C52.0934 116.591 51.2769 90.4031 49.664 64.3315M31.2014 115.509L31.2008 17.4057M46.0982 24.371C47.5487 34.4215 48.7377 49.3574 49.664 64.3315M31.2008 17.4057C30.8231 15.4026 29.3102 15.162 28.6735 15.0168C25.9465 14.3948 24.6082 12.676 23.6617 11.2869C23.1465 10.5308 22.584 10.0861 21.9744 9.89109M31.2008 17.4057C31.5785 15.4026 33.0897 15.162 33.7264 15.0168C36.4534 14.3948 37.7917 12.676 38.7382 11.2869C39.2474 10.5395 39.8029 10.0964 40.4043 9.89797M21.9744 9.89109C24.1362 8.87897 27.4605 8.46631 31.1633 8.46631C34.8744 8.46631 38.2419 8.88084 40.4043 9.89797M21.9744 9.89109C21.2029 9.64428 16.6181 12.2489 14.9767 13.7937C13.3354 15.3385 12.0132 16.1719 9.9665 19.9242C7.91977 23.6766 6.02256 33.8213 5.05575 40.4162C4.08895 47.0112 2.72141 60.3794 2.80013 61.1288C2.87885 61.8782 2.75137 62.5174 4.46417 63.0176C5.88738 63.4333 10.541 64.0552 12.7422 64.2766M40.4043 9.89797C41.1815 9.64149 42.2925 10.1008 42.9802 10.3956C43.6678 10.6903 44.6266 11.2069 45.4139 11.6755C48.3499 13.4231 50.9868 16.1719 53.0335 19.9242C55.0802 23.6766 56.9774 33.8213 57.9442 40.4162C58.9111 47.0112 60.2786 60.3794 60.1999 61.1288C60.1212 61.8782 60.2486 62.5174 58.5358 63.0176C56.9667 63.4759 51.4705 64.1849 49.664 64.3315" stroke="#1E1E1E" stroke-width="0.6" stroke-linecap="round"/>
</svg>
