<svg width="63" height="129" viewBox="0 0 63 129" fill="none" xmlns="http://www.w3.org/2000/svg">
<path d="M16.5089 24.371C14.6092 37.5343 13.1855 52.2722 12.2143 64.1985M46.3025 24.371C48.2056 37.5577 49.6309 52.3247 50.6022 64.2622M31.4057 86.7598L31.326 42.2999M31.4057 86.7598C31.5462 87.8337 31.7825 88.8767 32.0321 89.3568C32.39 90.0449 32.8618 90.6186 34.0415 90.7055C35.2212 90.7925 41.2051 90.4076 42.9749 90.2719C44.7448 90.1361 48.7296 89.8844 50.0747 89.6169C51.4199 89.3493 52.2122 88.6337 52.1906 87.5006C52.1794 86.9099 51.6601 77.2644 50.6022 64.2622M31.4057 86.7598C31.2652 87.8337 31.0289 88.8767 30.7792 89.3568C30.4214 90.0449 29.9496 90.6186 28.7699 90.7055C27.5902 90.7925 21.6063 90.4076 19.8364 90.2719C18.0666 90.1361 14.0818 89.8844 12.7366 89.6169C11.3915 89.3493 10.5992 88.6337 10.6207 87.5006C10.632 86.9089 11.1529 77.2329 12.2143 64.1985M31.326 42.2999C27.856 37.6783 23.6342 30.7393 22.6482 28.9024C21.6621 27.0655 19.8441 23.0976 19.2778 21.6562C18.7115 20.2147 18.9068 19.6776 19.4942 18.7502C20.0816 17.8228 22.6482 15.4278 22.6482 15.4278C22.6482 15.4278 20.6628 15.8309 19.4942 16.1535C18.3255 16.4761 16.7766 16.6329 16.7766 15.4278V12.3265M31.326 42.2999C30.0351 36.4946 28.7528 30.3192 27.856 23.0976C26.9092 15.4736 26.8069 9.30492 26.6585 8.88734C26.6412 8.83863 26.6245 8.79011 26.6081 8.74192M31.326 42.2999C34.7961 37.6783 39.1751 30.7393 40.1611 28.9024C41.1472 27.0655 42.9652 23.0976 43.5315 21.6562C44.0978 20.2147 43.9025 19.6776 43.3151 18.7502C42.7277 17.8228 40.1611 15.4278 40.1611 15.4278C40.1611 15.4278 42.1465 15.8309 43.3151 16.1535C44.4838 16.4761 46.0327 16.6329 46.0327 15.4278V12.0377C46.0327 12.0027 46.0327 11.967 46.0326 11.9308M31.326 42.2999C32.617 36.4946 34.0565 30.3192 34.9533 23.0976C35.9001 15.4736 36.0025 9.30492 36.1508 8.88734C36.1675 8.84021 36.1837 8.79326 36.1996 8.74661M26.6081 8.74192C28.0659 8.55222 29.6771 8.46625 31.3672 8.46625C33.0711 8.46625 34.7324 8.55364 36.1996 8.74661M26.6081 8.74192C26.3503 7.98548 26.1577 7.30916 24.6769 7.26139C23.9688 7.23855 21.8823 7.82032 20.7645 8.27761C19.6466 8.73491 18.9599 9.03992 17.8683 9.70046C16.7766 10.361 16.7766 11.3264 16.7766 12.0377V12.3265M36.1996 8.74661C36.4582 7.98828 36.6486 7.30926 38.1324 7.26139C38.8405 7.23855 40.927 7.82032 42.0448 8.27761C43.1627 8.73491 43.8494 9.03992 44.9411 9.70046C45.979 10.3285 46.0301 11.232 46.0326 11.9308M12.2143 64.1985C9.84271 63.9324 5.9477 63.3916 4.6673 63.0176C2.95449 62.5174 3.08197 61.8782 3.00325 61.1288C2.92453 60.3794 4.29208 47.0112 5.25888 40.4162C6.22568 33.8213 8.1229 23.6766 10.1696 19.9242C11.9781 16.6087 14.2473 14.0766 16.7766 12.3265M50.6022 64.2622C52.8554 64.0292 57.3455 63.4246 58.739 63.0176C60.4518 62.5174 60.3243 61.8782 60.403 61.1288C60.4817 60.3794 59.1142 47.0112 58.1474 40.4162C57.1806 33.8213 55.2834 23.6766 53.2366 19.9242C51.2869 16.3498 48.8017 13.686 46.0326 11.9308" stroke="#1E1E1E" stroke-width="0.6" stroke-linecap="round"/>
</svg>
