<svg width="63" height="129" viewBox="0 0 63 129" fill="none" xmlns="http://www.w3.org/2000/svg">
<path d="M16.3057 24.371C14.406 37.5343 12.9824 52.2722 12.0112 64.1985M46.0994 24.371C48.0025 37.5577 49.4278 52.3247 50.3991 64.2622M31.2026 86.7598L31.2008 17.406M31.2026 86.7598C31.3431 87.8337 31.5793 88.8767 31.829 89.3568C32.1868 90.0449 32.6586 90.6186 33.8383 90.7055C35.018 90.7925 41.0019 90.4076 42.7718 90.2719C44.5417 90.1361 48.5265 89.8844 49.8716 89.6169C51.2167 89.3493 52.009 88.6338 51.9875 87.5006C51.9763 86.9099 51.457 77.2644 50.3991 64.2622M31.2026 86.7598C31.062 87.8337 30.8258 88.8767 30.5761 89.3568C30.2183 90.0449 29.7465 90.6186 28.5668 90.7055C27.3871 90.7925 21.4032 90.4076 19.6333 90.2719C17.8635 90.1361 13.8786 89.8844 12.5335 89.6169C11.1884 89.3493 10.3961 88.6338 10.4176 87.5006C10.4289 86.9089 10.9498 77.2329 12.0112 64.1985M31.2008 17.406C30.8231 15.4028 29.3102 15.162 28.6735 15.0168C25.9465 14.3948 24.6082 12.676 23.6617 11.2869C23.1465 10.5308 22.584 10.0861 21.9744 9.89109M31.2008 17.406C31.5785 15.4028 33.0897 15.162 33.7264 15.0168C36.4534 14.3948 37.7917 12.676 38.7382 11.2869C39.2474 10.5395 39.8029 10.0964 40.4043 9.89797M21.9744 9.89109C24.1362 8.87897 27.4605 8.46631 31.1633 8.46631C34.8744 8.46631 38.2419 8.88084 40.4043 9.89797M21.9744 9.89109C21.2029 9.64428 17.1733 11.8014 15.2979 13.4024C13.4225 15.0033 12.0132 16.1719 9.9665 19.9242C7.91977 23.6766 6.02256 33.8213 5.05575 40.4162C4.08895 47.0112 2.72141 60.3794 2.80013 61.1288C2.87885 61.8782 2.75137 62.5174 4.46417 63.0176C5.74457 63.3916 9.63958 63.9324 12.0112 64.1985M40.4043 9.89797C41.1815 9.64149 42.5743 10.1812 43.5038 10.6135C44.1301 10.935 44.7599 11.2862 45.4139 11.6755C48.3499 13.4231 50.9868 16.1719 53.0335 19.9242C55.0802 23.6766 56.9774 33.8213 57.9442 40.4162C58.9111 47.0112 60.2786 60.3794 60.1999 61.1288C60.1212 61.8782 60.2486 62.5174 58.5358 63.0176C57.1424 63.4246 52.6523 64.0292 50.3991 64.2622" stroke="#1E1E1E" stroke-width="0.6" stroke-linecap="round"/>
</svg>
