<svg width="63" height="129" viewBox="0 0 63 129" fill="none" xmlns="http://www.w3.org/2000/svg">
<path d="M16.1015 24.371C14.6528 34.4092 13.4649 49.3209 12.5391 64.2766M30.9983 115.509C30.9379 116.943 30.6089 118.478 30.2511 119.167C29.8933 119.855 29.4215 120.428 28.2418 120.515C27.0621 120.602 21.0782 120.217 19.3083 120.082C17.5385 119.946 13.5536 119.694 12.2085 119.427C10.8634 119.159 10.0711 118.444 10.0926 117.31C10.1063 116.59 10.924 90.3664 12.5391 64.2766M30.9983 115.509C31.0586 116.943 31.3877 118.478 31.7455 119.167C32.1033 119.855 32.5751 120.428 33.7548 120.515C34.9345 120.602 40.9184 120.217 42.6883 120.082C44.4581 119.946 48.4429 119.694 49.7881 119.427C51.1332 119.159 51.9255 118.444 51.904 117.31C51.8903 116.591 51.0737 90.4031 49.4608 64.3315M30.9983 115.509L30.9965 18.1497M45.8951 24.371C47.3456 34.4215 48.5345 49.3574 49.4608 64.3315M30.9965 18.1497C30.9965 18.1497 29.5155 20.6309 28.306 21.5654C27.0966 22.5 26.4461 22.6569 23.7345 19.4108C21.0229 16.1646 19.6627 14.2973 19.1661 13.6546C18.734 13.0954 18.162 12.3148 17.6701 11.5061M30.9965 18.1497C30.9965 18.1497 28.8769 15.9497 26.9164 13.9171C25.8088 12.7686 23.913 10.5128 22.9751 9.42415M30.9965 18.1497C30.9965 18.1497 32.4775 20.6309 33.687 21.5654C34.8964 22.5 35.5469 22.6569 38.2585 19.4108C40.9701 16.1646 42.3303 14.2973 42.8269 13.6546C43.3047 13.0362 43.9537 12.1471 44.4762 11.2487M30.9965 18.1497C30.9965 18.1497 33.1161 15.9497 35.0766 13.9171C36.1811 12.7719 38.0691 10.5258 39.0097 9.4336M22.9751 9.42415C25.0781 8.75005 27.9259 8.46627 30.9965 8.46627C34.0814 8.46627 36.9036 8.7527 39.0097 9.4336M22.9751 9.42415C22.7344 9.1447 22.5568 8.94216 22.4718 8.85498C21.6729 8.03536 21.3705 7.29212 20.0358 7.97609C18.7011 8.66005 18.4639 8.82284 17.6844 9.46767C16.9048 10.1125 17.1548 10.6142 17.4559 11.1428C17.525 11.2641 17.5967 11.3854 17.6701 11.5061M39.0097 9.4336C39.2546 9.14927 39.4353 8.94314 39.5212 8.85498C40.3201 8.03536 40.6225 7.29212 41.9572 7.97609C43.2919 8.66005 43.5291 8.82284 44.3086 9.46767C45.0882 10.1125 44.8382 10.6142 44.5371 11.1428C44.517 11.1781 44.4967 11.2134 44.4762 11.2487M12.5391 64.2766C10.3378 64.0552 5.68426 63.4333 4.26105 63.0176C2.54824 62.5174 2.67572 61.8782 2.597 61.1288C2.51828 60.3794 3.88583 47.0112 4.85263 40.4162C5.81943 33.8213 7.71665 23.6766 9.76338 19.9242C11.8101 16.1719 14.447 13.4231 17.3829 11.6755C17.4792 11.6182 17.5749 11.5618 17.6701 11.5061M49.4608 64.3315C51.2672 64.1849 56.7635 63.4759 58.3327 63.0176C60.0455 62.5174 59.918 61.8782 59.9968 61.1288C60.0755 60.3794 58.7079 47.0112 57.7411 40.4162C56.7743 33.8213 54.8771 23.6766 52.8304 19.9242C50.7836 16.1719 48.1468 13.4231 45.2108 11.6755C44.9628 11.5279 44.7183 11.3858 44.4762 11.2487" stroke="#1E1E1E" stroke-width="0.6" stroke-linecap="round"/>
</svg>
