<svg width="63" height="102" viewBox="0 0 63 102" fill="none" xmlns="http://www.w3.org/2000/svg">
<path d="M30.1313 12.2998C30.13 15.2107 30.1775 18.7964 30.226 19.439C30.2745 20.0815 30.9258 20.2813 31.1874 20.2813C31.4489 20.2813 32.1809 20.0815 32.2294 19.4389C32.2779 18.7964 32.3254 15.2107 32.324 12.2998M30.1313 12.2998H19.6531M30.1313 12.2998L32.324 12.2998M14.4108 20.1783C14.4995 18.4822 14.5995 17.0083 14.7005 16.1998C15 13.7998 15.3011 12.2998 17.7011 12.2998H19.6531M14.4108 20.1783C14.2363 23.5168 14.1057 27.7166 14.0987 29.3998C14.0882 31.9382 12.9692 55.0876 12.8987 61.1998C12.8283 67.312 11.6547 87.1222 11.6563 93.7141V93.7258C11.6562 94.7538 11.6562 95.1458 12.2913 95.6168C12.8257 96.0132 12.8214 95.9998 14.3147 95.9998H27.8743C29.5115 95.9998 29.8781 95.2929 29.8781 94.3399C30.0781 79.9399 29.9998 41.3998 31.1998 35.9998C32.3998 41.3998 32.3188 79.9399 32.5188 94.34C32.5188 95.2929 32.8854 95.9998 34.5225 95.9998H48.0822C49.5754 95.9998 49.5712 96.0132 50.1056 95.6169C50.7406 95.1459 50.7406 94.7538 50.7406 93.7258V93.7141C50.7422 87.1222 49.5686 67.312 49.4982 61.1998C49.4277 55.0876 48.3087 31.9382 48.2982 29.3998C48.2912 27.7166 48.1606 23.5168 47.9861 20.1783M14.4108 20.1783C15.446 20.0973 16.6022 19.6054 17.6534 18.4393C18.7676 17.2035 19.566 14.5894 19.6531 12.2998M28.8828 26.7724H22.6438M28.8828 28.5287L25.1287 29.3766M32.324 12.2998H42.7438M47.9861 20.1783C47.8974 18.4822 47.7973 17.0083 47.6964 16.1998C47.3968 13.7998 47.0957 12.2998 44.6957 12.2998H42.7438M47.9861 20.1783C46.9508 20.0973 45.7947 19.6054 44.7434 18.4393C43.6293 17.2035 42.8309 14.5894 42.7438 12.2998M33.5141 26.7724H39.7531M33.5141 28.5287L37.2682 29.3766" stroke="black" stroke-width="0.6" stroke-linecap="round"/>
</svg>
