<svg width="63" height="102" viewBox="0 0 63 102" fill="none" xmlns="http://www.w3.org/2000/svg">
<path d="M32.5224 12.2998C32.5238 15.2107 32.4763 18.7964 32.4278 19.4389C32.38 20.0726 31.6563 20.2758 31.3857 20.2813M32.5224 12.2998H30.3297M32.5224 12.2998H42.9437M19.8531 12.2998C19.7659 14.5894 18.9675 16.9014 17.8534 18.1372C16.8022 19.3033 15.6461 20.044 14.6109 20.171M19.8531 12.2998H30.3297M19.8531 12.2998H17.9009C15.5009 12.2998 15.1998 13.7998 14.9002 16.1998C14.7994 17.0072 14.6995 18.478 14.6109 20.171M19.8531 12.2998H42.9437M29.0828 26.7724H22.8437M29.0828 28.5287L25.3286 29.3766M42.9437 12.2998C43.0309 14.5894 43.8293 17.2035 44.9434 18.4393C45.9947 19.6055 47.151 20.0974 48.1862 20.1783M42.9437 12.2998H44.8959C47.2959 12.2998 47.597 13.7998 47.8966 16.1998C47.9975 17.0084 48.0976 18.4822 48.1862 20.1783M33.714 26.7724H39.9531M33.714 28.5287L37.4682 29.3766M30.3297 12.2998C30.3283 15.2107 30.3758 18.7964 30.4243 19.439C30.4722 20.0727 31.1168 20.2758 31.3857 20.2813M31.3857 20.2813C31.3893 20.2813 31.382 20.2814 31.3857 20.2813ZM48.1862 20.1783C48.3608 23.5168 48.4914 27.7166 48.4983 29.3998C48.506 31.2456 48.7747 56.8312 48.9681 62.1503C49.1615 67.4695 49.595 92.4419 49.655 94.1942C49.7149 95.9464 47.5162 95.9998 46.7631 95.9998H34.8764C33.1589 95.9998 33.2415 94.6071 33.2239 92.8905C33.2177 92.2922 32.755 87.2794 32.7313 77.9312C32.7281 76.6667 32.7013 71.0929 32.7313 69.6869C32.7613 68.2809 31.8692 38.1238 31.3973 35.9998C30.9253 38.1238 30.0355 68.2809 30.0655 69.6869C30.0955 71.0929 30.0687 76.6667 30.0655 77.9312C30.0418 87.2794 29.5791 92.2922 29.573 92.8905C29.5553 94.6071 29.638 95.9998 27.9205 95.9998H16.0337C15.2806 95.9998 13.0819 95.9464 13.1418 94.1942C13.2018 92.4419 13.6353 67.4695 13.8287 62.1503C14.0222 56.8312 14.2908 31.2456 14.2985 29.3998C14.3054 27.7154 14.4362 23.5107 14.6109 20.171" stroke="black" stroke-width="0.6" stroke-linecap="round"/>
</svg>
