<svg width="64" height="102" viewBox="0 0 64 102" fill="none" xmlns="http://www.w3.org/2000/svg">
<path d="M31.794 12.2998H18.2953C15.8953 12.2998 15.5942 13.7998 15.2946 16.1998C14.9951 18.5998 14.5239 25.6752 14.6929 29.3998C14.9937 41.9998 16.2155 51.4199 16.8155 58.9199C17.4155 66.4199 13.8224 93.1931 13.6621 94.3676C13.5019 95.5421 13.9711 96.1563 15.7532 96.1563C17.5352 96.1563 24.9606 96.3262 27.0411 96.1563C29.1217 95.9865 29.9811 96.0402 29.9799 94.696C29.9788 93.3518 30.594 41.3998 31.794 35.9998M31.794 12.2998H30.7282C30.7268 15.2107 30.7743 18.7964 30.8228 19.439C30.8706 20.0727 31.5263 20.2757 31.7953 20.2812M31.794 12.2998H32.9208C32.9222 15.2107 32.8747 18.7964 32.8262 19.4389C32.7784 20.0726 32.0658 20.2757 31.7953 20.2812M14.6969 20.1905C15.8078 20.1905 17.0935 19.7242 18.2519 18.4393C19.366 17.2035 20.1644 14.8914 20.2516 12.6019M29.4813 26.7724H23.2422M29.4813 28.5287L25.7271 29.3766M31.7998 12.2998H45.2984C47.6984 12.2998 47.9995 13.7998 48.2991 16.1998C48.4059 17.0549 48.5344 18.5036 48.648 20.1828M31.7998 35.9998C32.9998 41.3998 33.615 93.3518 33.6138 94.696C33.6127 96.0402 34.4721 95.9865 36.5526 96.1563C38.6332 96.3262 46.0586 96.1563 47.8406 96.1563C49.6226 96.1563 50.0919 95.5421 49.9316 94.3676C49.7713 93.1931 46.1783 66.4199 46.7783 58.9199C47.3783 51.4199 48.6 41.9998 48.9008 29.3998C49.0097 27.0023 48.8532 23.2164 48.648 20.1828M48.648 20.1828C48.7318 20.188 48.8148 20.1905 48.8969 20.1905M48.648 20.1828C47.5967 20.1172 46.4147 19.6293 45.3419 18.4393C44.2277 17.2035 43.4293 14.8914 43.3422 12.6019M34.1125 26.7724H40.3516M34.1125 28.5287L37.8667 29.3766M31.8063 20.2813C31.8027 20.2813 31.799 20.2813 31.7953 20.2812M31.7953 20.2812C31.7915 20.2813 31.7878 20.2813 31.7842 20.2813" stroke="black" stroke-width="0.6" stroke-linecap="round"/>
</svg>
