<svg width="63" height="129" viewBox="0 0 63 129" fill="none" xmlns="http://www.w3.org/2000/svg">
<path d="M14.7676 49.5C16.4805 49.7 21.8263 50.1 24.7063 50.1M14.7676 49.5C13.6153 45.3749 13.423 41.3442 14.2322 37.4913M14.7676 49.5C14.134 51.4628 13.934 53.3237 13.9859 54.9933M17.2052 20.7C17.0276 21.2328 16.871 21.7489 16.7336 22.2505M16.0822 32.1C17.4569 32.3 22.2463 32.7 25.6063 32.7M16.0822 32.1C15.7513 28.9263 15.7108 25.9857 16.7336 22.2505M16.0822 32.1C15.234 33.8505 14.6188 35.6506 14.2322 37.4913M31.7407 64.6397C27.0962 65.1103 22.19 64.5541 20.3818 64.2296C18.8182 63.949 17.289 63.7031 16.2432 62.5028M31.7407 64.6397C36.3853 65.1103 41.1592 64.5541 42.9674 64.2296C44.4858 63.9571 45.9716 63.7174 47.014 62.6046M31.7407 64.6397C31.7407 36.7562 31.603 42.5833 31.603 14.6999M48.5815 49.5C46.8686 49.7 41.5228 50.1 38.6428 50.1M48.5815 49.5C49.2148 51.4619 49.415 53.3221 49.3633 54.9911M48.5815 49.5C49.7361 45.3671 49.9269 41.329 49.1123 37.4695M46.144 20.7C46.3173 21.2199 46.4705 21.7238 46.6055 22.214M47.2669 32.1C45.8922 32.3 41.1028 32.7 37.7428 32.7M47.2669 32.1C48.1118 33.8436 48.7255 35.6364 49.1123 37.4695M47.2669 32.1C47.5989 28.9159 47.6386 25.9666 46.6055 22.214M31.603 14.6999C27.7019 14.6999 25.233 12.4001 24.0656 10.6868C23.5504 9.93068 22.9879 9.48596 22.3784 9.29099M31.603 14.6999C35.5041 14.6999 37.9764 12.4001 39.1437 10.6868C39.6477 9.94717 40.197 9.50551 40.7912 9.3041M9.10156 54C10.4653 54.6813 12.3111 54.9758 13.9859 54.9933M10.3016 36.6C11.5268 36.9676 12.9063 37.2851 14.2322 37.4913M14.8016 21.6C15.4893 21.8751 16.1297 22.0871 16.7336 22.2505M54.1049 54C52.7798 54.662 50.9996 54.9588 49.3633 54.9911M52.9049 36.6C51.7221 36.9548 50.3956 37.2631 49.1123 37.4695M48.4049 21.6C47.7673 21.855 47.1704 22.0559 46.6055 22.214M40.7912 9.3041C38.6297 8.2887 35.2754 7.86621 31.5672 7.86621C27.8644 7.86621 24.5401 8.27887 22.3784 9.29099M40.7912 9.3041C41.5734 9.03896 42.8722 9.64973 43.8091 10.0855C47.9381 12.3402 51.2396 16.1266 52.3049 20.1C55.6049 21.9 58.3049 30 56.8049 36C59.4867 40.2 61.0049 47.4 58.9026 54C60.1012 55.5 60.7007 59.4 59.4867 61.4288C58.2727 63.4576 48.5853 64.2 47.5053 63.3C47.3442 63.1657 47.1777 62.9246 47.014 62.6046M22.3784 9.29099C21.6068 9.04418 20.3124 9.66039 19.3914 10.0887C15.2652 12.3438 11.9664 16.1285 10.9016 20.1C7.60156 21.9 4.90156 30 6.40156 36C3.71975 40.2 2.20156 47.4 4.30383 54C3.10525 55.5 2.50574 59.4 3.71975 61.4288C4.93376 63.4576 14.6212 64.2 15.7012 63.3C15.8789 63.1518 16.0632 62.8736 16.2432 62.5028M13.9859 54.9933C14.0857 58.2039 15.1172 60.7068 15.7896 61.8656C15.9278 62.1039 16.0796 62.315 16.2432 62.5028M47.014 62.6046C47.213 62.3922 47.3958 62.1479 47.5596 61.8656C48.2321 60.7066 49.2639 58.2027 49.3633 54.9911" stroke="#1E1E1E" stroke-width="0.6" stroke-linecap="round"/>
</svg>
