<svg width="63" height="129" viewBox="0 0 63 129" fill="none" xmlns="http://www.w3.org/2000/svg">
<path d="M14.5051 48.8789C12.6532 54.6161 14.5051 59.4831 15.5271 61.2445C16.549 63.0059 18.3111 63.284 20.1193 63.6085C21.9275 63.933 26.8336 64.4892 31.4782 64.0186M14.5051 48.8789C12.8023 42.783 13.1959 36.8935 15.8197 31.4789M14.5051 48.8789C16.218 49.0789 21.5638 49.4789 24.4438 49.4789M15.8197 31.4789C17.1944 31.6789 21.9838 32.0789 25.3438 32.0789M15.8197 31.4789C15.6641 29.9867 15.5727 28.546 15.6259 27.05C17.4982 24.7581 17.8891 21.2215 17.7433 19.6132C17.5527 17.5115 16.9375 15.579 16.2832 14.5339C15.6289 13.4889 15.8618 12.3451 16.9375 11.379C17.3555 11.0035 18.8499 10.008 19.6927 9.48487C20.5356 8.96172 21.3443 8.42308 22.1159 8.66989M31.4782 64.0186C36.1228 64.4892 40.8967 63.933 42.7049 63.6085C44.5131 63.284 46.2752 63.0059 47.2971 61.2445C48.319 59.4831 50.171 54.6161 48.319 48.8789M31.4782 64.0186C31.4782 36.1352 31.3405 41.9622 31.3405 14.0788M48.319 48.8789C50.0219 42.783 49.6282 36.8935 47.0044 31.4789M48.319 48.8789C46.6061 49.0789 41.2603 49.4789 38.3803 49.4789M47.0044 31.4789C45.6297 31.6789 40.8403 32.0789 37.4803 32.0789M47.0044 31.4789C47.1539 30.0454 47.2441 28.6595 47.2039 27.2264C45.203 24.9436 44.7875 21.2633 44.9372 19.6132C45.1278 17.5115 45.743 15.579 46.3973 14.5339C47.0516 13.4889 46.8187 12.3451 45.743 11.379C45.3249 11.0035 43.7577 10.0657 43.0021 9.57206C42.2464 9.0784 41.3109 8.41787 40.5287 8.68301M31.3405 14.0788C27.4394 14.0788 24.9705 11.7791 23.8031 10.0657C23.2879 9.30958 22.7254 8.86487 22.1159 8.66989M31.3405 14.0788C35.2416 14.0788 37.7139 11.779 38.8812 10.0657C39.3852 9.32607 39.9345 8.88442 40.5287 8.68301M40.5287 8.68301C38.3672 7.66761 35.0129 7.24512 31.3047 7.24512C27.6019 7.24512 24.2776 7.65778 22.1159 8.66989" stroke="#1E1E1E" stroke-width="0.6" stroke-linecap="round"/>
</svg>
