<svg width="63" height="129" viewBox="0 0 63 129" fill="none" xmlns="http://www.w3.org/2000/svg">
<path d="M13.6082 56.8873C15.3774 57.143 20.899 57.6544 23.8737 57.6544M13.6082 56.8873C13.4652 56.2533 13.3364 55.6212 13.2221 54.9909M13.6082 56.8873C12.8677 58.9852 12.5239 61.3447 12.4302 63.6776M13.958 75.8295C17.8008 76.8002 21.612 76.8002 24.4008 76.8002M13.958 75.8295C11.9489 79.405 11.4426 89.9337 13.5316 95.4002M13.958 75.8295C13.3128 74.2275 12.2154 69.0222 12.4302 63.6776M16.1259 20.4002C15.966 20.9943 15.8225 21.5684 15.6943 22.1255M14.9661 34.6411C16.3859 34.8968 21.3328 35.4082 24.8033 35.4082M14.9661 34.6411C14.6184 30.5137 14.5811 26.9635 15.6943 22.1255M14.9661 34.6411C14.5918 35.597 14.2615 36.5645 13.9748 37.5427M13.5316 95.4002C17.3743 96.3709 21.1855 96.3709 23.9743 96.3709M13.5316 95.4002C12.2995 97.3234 11.9215 104.748 12.4039 110.7C12.5988 113.104 13.6029 117 14.8029 118.5C16.0029 120 18.1008 120.9 20.2029 121.2C22.305 121.5 27.4008 121.5 31.0008 121.5M48.3953 56.8873C46.6261 57.143 41.1045 57.6544 38.1298 57.6544M48.3953 56.8873C48.5384 56.2533 48.6671 55.6212 48.7814 54.9909M48.3953 56.8873C49.1358 58.9852 49.4796 61.3447 49.5734 63.6776M48.0455 75.8295C44.2027 76.8002 40.3915 76.8002 37.6027 76.8002M48.0455 75.8295C50.0547 79.405 50.561 89.9337 48.4719 95.4002M48.0455 75.8295C48.6907 74.2275 49.7881 69.0222 49.5734 63.6776M45.8776 20.4002C46.0376 20.9943 46.181 21.5684 46.3092 22.1255M47.0375 34.6411C45.6176 34.8968 40.6707 35.4082 37.2002 35.4082M47.0375 34.6411C47.3851 30.5137 47.4224 26.9635 46.3092 22.1255M47.0375 34.6411C47.4117 35.597 47.742 36.5645 48.0287 37.5426M48.4719 95.4002C44.6292 96.3709 40.818 96.3709 38.0292 96.3709M48.4719 95.4002C49.704 97.3234 50.082 104.748 49.5996 110.7C49.4048 113.104 48.4006 117 47.2006 118.5C46.0006 120 43.9028 120.9 41.8006 121.2C39.6985 121.5 34.6027 121.5 31.0027 121.5L31.0031 15.0834M31.0031 15.0834C31.0031 15.0834 29.7782 17.0018 28.778 17.7244C27.7777 18.447 26.6783 17.7196 25.0484 15.8955C23.8118 14.5117 22.844 13.5476 21.5575 11.9107C21.1483 11.39 20.2444 10.3882 19.8043 9.66608C19.7897 9.64207 19.7756 9.61785 19.7621 9.59344M31.0031 15.0834C31.0031 15.0834 29.2501 13.3826 27.6287 11.811C26.4774 10.6952 24.2738 8.41536 23.9297 8.08537C23.8941 8.05119 23.8588 8.01744 23.8237 7.98424M31.0031 15.0834C31.0031 15.0834 32.228 17.0018 33.2283 17.7244C34.2285 18.447 35.328 17.7196 36.9578 15.8955C38.1944 14.5117 39.1622 13.5476 40.4488 11.9107C40.858 11.39 41.7618 10.3882 42.2019 9.66608C42.2221 9.63292 42.2414 9.59935 42.2593 9.56544M31.0031 15.0834C31.0031 15.0834 32.7561 13.3826 34.3776 11.811C35.5288 10.6952 37.7324 8.41536 38.0765 8.08537C38.1095 8.05376 38.1422 8.02253 38.1746 7.99175M8.5 54.0002C9.81982 54.6595 11.5912 54.9566 13.2221 54.9909M9.7 36.6002C11.0317 36.9997 12.5455 37.3401 13.9748 37.5427M14.2 21.6002C14.724 21.8098 15.2205 21.9828 15.6943 22.1255M53.5033 54.0002C52.1836 54.6595 50.4123 54.9566 48.7814 54.9909M52.3033 36.6002C50.9717 36.9997 49.458 37.3401 48.0287 37.5426M47.8033 21.6002C47.2794 21.8098 46.783 21.9827 46.3092 22.1255M38.1746 7.99175C36.1845 7.4843 33.6562 7.26641 30.9656 7.26641C28.2883 7.26641 25.8089 7.48215 23.8237 7.98424M38.1746 7.99175C38.7926 7.40555 39.3267 6.98592 40.1384 7.31689C40.9927 7.66524 41.4763 7.95589 42.013 8.37092C42.5062 8.75229 42.4628 9.18128 42.2593 9.56544M23.8237 7.98424C23.2091 7.40197 22.6761 6.98733 21.8679 7.31689C21.0136 7.66524 20.5299 7.95589 19.9932 8.37092C19.4881 8.76158 19.5458 9.20221 19.7621 9.59344M19.7621 9.59344C15.1877 11.7593 11.4472 15.8213 10.3 20.1002C7 21.9002 4.3 30.0002 5.8 36.0002C3.11819 40.2002 1.6 47.4002 3.70227 54.0002C2.50368 55.5002 1.90418 59.4002 3.11819 61.429C3.98234 62.8731 9.13982 63.6655 12.4302 63.6776M42.2593 9.56544C46.8318 11.7318 50.5565 15.8226 51.7034 20.1002C55.0033 21.9002 57.7034 30.0002 56.2034 36.0002C58.8852 40.2002 60.4034 47.4002 58.3011 54.0002C59.4997 55.5002 60.0992 59.4002 58.8852 61.429C58.021 62.8731 52.8637 63.6654 49.5734 63.6776M48.0287 37.5426C49.6496 43.0721 49.8787 48.9426 48.7814 54.9909M13.9748 37.5427C12.3539 43.0721 12.1249 48.9426 13.2221 54.9909" stroke="#1E1E1E" stroke-width="0.6" stroke-linecap="round"/>
</svg>
