<svg width="63" height="129" viewBox="0 0 63 129" fill="none" xmlns="http://www.w3.org/2000/svg">
<path d="M14.7637 41.1C13.2997 45.3 14.2 47.7 14.7637 49.2C15.3275 50.7 16.0026 51.9 18.7026 52.5C21.4026 53.1 26.8002 53.7 31.0014 53.1M14.7637 41.1C12.9993 35.1 14.1638 32.4 15.4783 29.7M14.7637 41.1C16.4766 41.3 21.8224 41.7 24.7024 41.7M15.4783 29.7C16.853 29.9 21.6424 30.3 25.0024 30.3M15.4783 29.7C15.4039 28.986 15.3441 28.3075 15.3079 27.6432C17.1607 25.3507 17.5479 21.8361 17.4027 20.2343C17.212 18.1326 16.5969 16.2 15.9426 15.155C15.2883 14.11 15.5212 12.9662 16.5969 12C17.0429 11.5994 18.1356 10.9146 18.8921 10.4213C19.6485 9.92794 21.0037 9.04418 21.7752 9.29099M31.0014 53.1C35.2025 53.7 40.6033 53.1 43.3033 52.5C46.0033 51.9 46.6784 50.7 47.2422 49.2C47.8059 47.7 48.7062 45.3 47.2422 41.1M31.0014 53.1L30.9999 14.6999M47.2422 41.1C49.0066 35.1 47.8421 32.4 46.5276 29.7M47.2422 41.1C45.5293 41.3 40.1835 41.7 37.3035 41.7M46.5276 29.7C45.1529 29.9 40.3635 30.3 37.0035 30.3M46.5276 29.7C46.6017 28.9888 46.6613 28.3127 46.6976 27.6509C44.8394 25.3586 44.4511 21.8379 44.5966 20.2343C44.7872 18.1326 45.4024 16.2 46.0567 15.155C46.711 14.11 46.4781 12.9662 45.4024 12C44.9847 11.625 43.5576 10.6868 42.7672 10.276C41.9768 9.86514 40.9703 9.03896 40.1881 9.3041M30.9999 14.6999C27.0988 14.6999 24.6299 12.4001 23.4625 10.6868C22.9473 9.93068 22.3847 9.48596 21.7752 9.29099M30.9999 14.6999C34.901 14.6999 37.3732 12.4001 38.5406 10.6868C39.0446 9.94717 39.5939 9.50551 40.1881 9.3041M40.1881 9.3041C38.0265 8.2887 34.6723 7.86621 30.9641 7.86621C27.2613 7.86621 23.937 8.27887 21.7752 9.29099" stroke="#1E1E1E" stroke-width="0.6" stroke-linecap="round"/>
</svg>
