<svg width="63" height="129" viewBox="0 0 63 129" fill="none" xmlns="http://www.w3.org/2000/svg">
<path d="M15.3653 41.0998C13.9013 45.2998 14.8016 47.6998 15.3653 49.1998C15.929 50.6998 16.6042 51.8998 19.3042 52.4998C22.0042 53.0998 27.4018 53.6998 31.6029 53.0998M15.3653 41.0998C13.6009 35.0998 14.7654 32.3998 16.0799 29.6998M15.3653 41.0998C17.0782 41.2998 22.424 41.6998 25.304 41.6998M16.0799 29.6998C17.4546 29.8998 22.244 30.2998 25.604 30.2998M16.0799 29.6998C16.0055 28.9858 15.9457 28.3073 15.9095 27.643C17.7623 25.3505 18.1495 21.8359 18.0042 20.2341C17.8136 18.1324 17.1984 16.1999 16.5441 15.1548C15.8898 14.1098 16.1227 12.966 17.1984 11.9999C17.917 11.3545 20.701 9.7296 23.4023 8.69961M31.6029 53.0998C35.804 53.6998 41.2048 53.0998 43.9048 52.4998C46.6048 51.8998 47.28 50.6998 47.8437 49.1998C48.4075 47.6998 49.3077 45.2998 47.8437 41.0998M31.6029 53.0998V2.79737M47.8437 41.0998C49.6081 35.0998 48.4436 32.3998 47.1291 29.6998M47.8437 41.0998C46.1308 41.2998 40.785 41.6998 37.905 41.6998M47.1291 29.6998C45.7544 29.8998 40.965 30.2998 37.605 30.2998M47.1291 29.6998C47.2033 28.9886 47.2628 28.3125 47.2991 27.6507C45.4409 25.3584 45.0527 21.8377 45.1981 20.2341C45.3887 18.1324 46.0039 16.1999 46.6582 15.1548C47.3125 14.1098 47.0796 12.966 46.0039 11.9999C45.2181 11.294 41.9559 9.71965 38.9348 8.69961M23.4023 8.69961C23.4023 8.69961 23.4801 6.0473 23.5711 4.79961C23.6621 3.55192 24.3023 2.69961 25.8023 2.69961C26.8863 2.69961 29.5367 2.81709 31.6029 2.79737M23.4023 8.69961C24.6023 8.9998 26.4023 9.29981 28.2023 9.29981M38.9348 8.69961C38.9348 8.69961 38.8571 6.0473 38.7661 4.79961C38.6751 3.55192 37.5023 2.69961 36.6023 2.69961C36.6023 2.69961 35.4023 2.47461 33.6023 2.69961C33.1031 2.76202 32.396 2.7898 31.6029 2.79737M38.9348 8.69961C37.8023 8.9998 36.0023 9.29981 34.5023 9.29981" stroke="#1E1E1E" stroke-width="0.6" stroke-linecap="round"/>
</svg>
