<svg width="63" height="129" viewBox="0 0 63 129" fill="none" xmlns="http://www.w3.org/2000/svg">
<path d="M14.5723 49.4998C16.2852 49.6998 21.631 50.0998 24.511 50.0998M14.5723 49.4998C13.9387 51.4626 13.7387 53.3235 13.7906 54.9931M14.5723 49.4998C13.42 45.3747 13.2276 41.344 14.0368 37.4911M17.0099 20.6998C16.8323 21.2326 16.6757 21.7487 16.5383 22.2503M15.8869 32.0998C17.2616 32.2998 22.051 32.6998 25.411 32.6998M15.8869 32.0998C15.0386 33.8503 14.4234 35.6504 14.0368 37.4911M15.8869 32.0998C15.556 28.9261 15.5155 25.9855 16.5383 22.2503M31.5454 64.6395C26.9008 65.1101 21.9947 64.5539 20.1865 64.2294C18.6229 63.9488 17.0937 63.7029 16.0479 62.5026M31.5454 64.6395C36.19 65.1101 40.9639 64.5539 42.7721 64.2294C44.2904 63.9569 45.7763 63.7172 46.8187 62.6044M31.5454 64.6395C31.5454 36.7886 31.4104 30.5977 31.4101 2.79736M48.3862 49.4998C46.6733 49.6998 41.3275 50.0998 38.4475 50.0998M48.3862 49.4998C49.5407 45.3669 49.7316 41.3288 48.917 37.4693M48.3862 49.4998C49.0195 51.4617 49.2197 53.3219 49.168 54.9909M45.9487 20.6998C46.122 21.2197 46.2752 21.7236 46.4102 22.2138M47.0716 32.0998C45.6969 32.2998 40.9075 32.6998 37.5475 32.6998M47.0716 32.0998C47.4036 28.9157 47.4433 25.9664 46.4102 22.2138M47.0716 32.0998C47.9165 33.8434 48.5302 35.6362 48.917 37.4693M8.90625 53.9998C10.27 54.6811 12.1158 54.9756 13.7906 54.9931M10.1063 36.5998C11.3315 36.9674 12.7109 37.2849 14.0368 37.4911M14.6063 21.5998C15.294 21.8749 15.9344 22.0869 16.5383 22.2503M53.9096 53.9998C52.5845 54.6618 50.8043 54.9586 49.168 54.9909M52.7096 36.5998C51.5268 36.9546 50.2003 37.2629 48.917 37.4693M48.2096 21.5998C47.572 21.8548 46.9751 22.0557 46.4102 22.2138M23.2086 8.69961C23.2086 8.69961 23.2864 6.0473 23.3773 4.79961C23.4683 3.55192 24.1086 2.69961 25.6086 2.69961C26.6927 2.69961 29.3438 2.81713 31.4101 2.79736M23.2086 8.69961C24.4086 8.9998 26.2086 9.29981 28.0086 9.29981M23.2086 8.69961C17.5691 10.4135 12.0514 15.0828 10.7063 20.0998C7.40625 21.8998 4.70625 29.9998 6.20625 35.9998C3.52444 40.1998 2.00625 47.3998 4.10852 53.9998C2.90993 55.4998 2.31043 59.3998 3.52444 61.4286C4.73845 63.4574 14.4259 64.1998 15.5058 63.2998C15.6836 63.1517 15.8679 62.8734 16.0479 62.5026M38.7411 8.69961C38.7411 8.69961 38.6633 6.0473 38.5723 4.79961C38.4814 3.55192 37.3086 2.69961 36.4086 2.69961C36.4086 2.69961 35.2086 2.47461 33.4086 2.69961C32.9095 2.76199 32.2028 2.78978 31.4101 2.79736M38.7411 8.69961C37.6086 8.9998 35.8086 9.29981 34.3086 9.29981M38.7411 8.69961C44.7541 10.1597 50.6929 14.8158 52.1096 20.0998C55.4096 21.8998 58.1096 29.9998 56.6096 35.9998C59.2914 40.1998 60.8096 47.3998 58.7073 53.9998C59.9059 55.4998 60.5054 59.3998 59.2914 61.4286C58.0774 63.4574 48.3899 64.1998 47.31 63.2998C47.1489 63.1655 46.9824 62.9244 46.8187 62.6044M16.0479 62.5026C15.8843 62.3148 15.7325 62.1037 15.5942 61.8654C14.9219 60.7066 13.8904 58.2037 13.7906 54.9931M49.168 54.9909C49.0686 58.2025 48.0368 60.7064 47.3643 61.8654C47.2005 62.1478 47.0177 62.392 46.8187 62.6044" stroke="#1E1E1E" stroke-width="0.6" stroke-linecap="round"/>
</svg>
