<svg width="63" height="129" viewBox="0 0 63 129" fill="none" xmlns="http://www.w3.org/2000/svg">
<path d="M13.6074 56.8873C11.1704 63.7913 13.0304 73.5281 13.9573 75.8295M13.6074 56.8873C11.8486 49.0935 12.2552 41.5637 14.9653 34.6411M13.6074 56.8873C15.3767 57.143 20.8982 57.6544 23.8729 57.6544M13.9573 75.8295C17.8 76.8002 21.6112 76.8002 24.4 76.8002M13.9573 75.8295C11.9481 79.405 11.4418 89.9337 13.5308 95.4002M14.9653 34.6411C16.3852 34.8968 21.332 35.4082 24.8025 35.4082M14.9653 34.6411C14.7785 32.4237 14.6813 30.3729 14.804 28.1995C17.0919 25.9621 17.5611 21.9724 17.4034 20.2345C17.2128 18.1328 16.5976 16.2002 15.9433 15.1552C15.289 14.1102 15.522 12.9664 16.5976 12.0002C17.0917 11.5565 18.3419 10.7144 19.9528 9.89664M13.5308 95.4002C17.3735 96.3709 21.1847 96.3709 23.9735 96.3709M13.5308 95.4002C12.2987 97.3234 11.9207 104.748 12.4031 110.7C12.598 113.104 13.6021 117 14.8021 118.5C16.0021 120 18.1 120.9 20.2021 121.2C22.3043 121.5 27.4 121.5 31 121.5M48.3945 56.8873C50.8316 63.7913 48.9716 73.5281 48.0447 75.8295M48.3945 56.8873C50.1534 49.0935 49.7468 41.5637 47.0367 34.6411M48.3945 56.8873C46.6253 57.143 41.1037 57.6544 38.129 57.6544M48.0447 75.8295C44.202 76.8002 40.3907 76.8002 37.602 76.8002M48.0447 75.8295C50.0539 79.405 50.5602 89.9337 48.4711 95.4002M47.0367 34.6411C45.6168 34.8968 40.6699 35.4082 37.1995 35.4082M47.0367 34.6411C47.2234 32.4241 47.3206 30.3737 47.1981 28.2007C44.9091 25.9635 44.4397 21.9727 44.5974 20.2345C44.788 18.1328 45.4031 16.2002 46.0574 15.1552C46.7117 14.1102 46.4788 12.9664 45.4031 12.0002C44.9094 11.5568 43.6604 10.7154 42.0509 9.89811M48.4711 95.4002C44.6284 96.3709 40.8172 96.3709 38.0285 96.3709M48.4711 95.4002C49.7033 97.3234 50.0813 104.748 49.5988 110.7C49.404 113.104 48.3998 117 47.1998 118.5C45.9998 120 43.902 120.9 41.7998 121.2C39.6977 121.5 34.602 121.5 31.002 121.5L31.0023 15.0837M31.0023 15.0837C31.0023 15.0837 29.7775 17.0018 28.7772 17.7244C27.7769 18.447 26.6775 17.7196 25.0476 15.8955C23.8111 14.5117 22.8433 13.5476 21.5567 11.9107C21.1895 11.4435 20.4241 10.589 19.9528 9.89664M31.0023 15.0837C31.0023 15.0837 29.2493 13.3826 27.6279 11.811C26.4766 10.6952 24.273 8.41536 23.9289 8.08537C23.8933 8.05119 23.858 8.01744 23.8229 7.98424M31.0023 15.0837C31.0023 15.0837 32.2272 17.0018 33.2275 17.7244C34.2278 18.447 35.3272 17.7196 36.9571 15.8955C38.1936 14.5117 39.1614 13.5476 40.448 11.9107C40.8149 11.4439 41.5795 10.5902 42.0509 9.89811M31.0023 15.0837C31.0023 15.0837 32.7554 13.3826 34.3768 11.811C35.528 10.6952 37.7317 8.41536 38.0757 8.08537C38.1087 8.05376 38.1414 8.02253 38.1738 7.99175M38.1738 7.99175C36.1837 7.4843 33.6554 7.26641 30.9648 7.26641C28.2876 7.26641 25.8081 7.48215 23.8229 7.98424M38.1738 7.99175C38.7918 7.40555 39.3259 6.98592 40.1376 7.31689C40.9919 7.66524 41.4755 7.95589 42.0122 8.37092C42.5489 8.78596 42.4502 9.25741 42.2012 9.66608C42.1557 9.74071 42.1052 9.81834 42.0509 9.89811M23.8229 7.98424C23.2083 7.40197 22.6753 6.98733 21.8671 7.31689C21.0128 7.66524 20.5292 7.95589 19.9925 8.37092C19.4557 8.78596 19.5545 9.25741 19.8035 9.66608C19.8487 9.74026 19.8988 9.81738 19.9528 9.89664" stroke="#1E1E1E" stroke-width="0.6" stroke-linecap="round"/>
</svg>
