<svg width="63" height="129" viewBox="0 0 63 129" fill="none" xmlns="http://www.w3.org/2000/svg">
<path d="M14.9684 41.1002C13.5044 45.3002 14.4047 47.7002 14.9684 49.2002C15.4402 50.4556 15.9901 51.5008 17.7395 52.16M14.9684 41.1002C16.6813 41.3002 22.0271 41.7002 24.9071 41.7002M14.9684 41.1002C14.5753 39.7635 14.3276 38.5906 14.1946 37.545M16.806 18.9002C16.411 20.0852 16.1201 21.1454 15.9128 22.1301M15.683 29.7002C17.0577 29.9002 21.8471 30.3002 25.2071 30.3002M15.683 29.7002C14.6614 31.7987 13.7303 33.8972 14.1946 37.545M15.683 29.7002C15.4065 27.0482 15.3328 24.8847 15.9128 22.1301M31.2061 53.1002C27.0049 53.7002 21.6073 53.1002 18.9073 52.5002C18.467 52.4023 18.0805 52.2885 17.7395 52.16M31.2061 53.1002C35.4072 53.7002 40.8079 53.1002 43.5079 52.5002C43.9461 52.4028 44.3309 52.2897 44.6706 52.162M31.2061 53.1002L31.2063 15.0837M47.4469 41.1002C48.9108 45.3002 48.0106 47.7002 47.4469 49.2002C46.9746 50.4568 46.4241 51.5028 44.6706 52.162M47.4469 41.1002C45.734 41.3002 40.3882 41.7002 37.5082 41.7002M47.4469 41.1002C47.84 39.7632 48.0878 38.59 48.2208 37.5442M45.6093 18.9002C46.0041 20.0846 46.2949 21.1443 46.5022 22.1285M46.7323 29.7002C45.3576 29.9002 40.5682 30.3002 37.2082 30.3002M46.7323 29.7002C47.0088 27.0477 47.0825 24.8838 46.5022 22.1285M46.7323 29.7002C47.7538 31.7985 48.6848 33.8969 48.2208 37.5442M31.2063 15.0837C31.2063 15.0837 29.9814 17.0018 28.9811 17.7244C27.9808 18.447 26.8814 17.7196 25.2515 15.8955C24.015 14.5117 23.0472 13.5476 21.7606 11.9107C21.3514 11.39 20.4476 10.3882 20.0074 9.66608C19.9928 9.64207 19.9787 9.61785 19.9652 9.59344M31.2063 15.0837C31.2063 15.0837 29.4532 13.3826 27.8318 11.811C26.6805 10.6952 24.4769 8.41536 24.1329 8.08537C24.0972 8.05119 24.0619 8.01744 24.0269 7.98424M31.2063 15.0837C31.2063 15.0837 32.4311 17.0018 33.4314 17.7244C34.4317 18.447 35.5311 17.7196 37.161 15.8955C38.3975 14.5117 39.3653 13.5476 40.6519 11.9107C41.0611 11.39 41.9649 10.3882 42.4051 9.66608C42.4195 9.64243 42.4334 9.61857 42.4467 9.59453M31.2063 15.0837C31.2063 15.0837 32.9593 13.3826 34.5807 11.811C35.732 10.6952 37.9356 8.41536 38.2797 8.08537C38.3126 8.05376 38.3453 8.02253 38.3777 7.99175M16.8272 54.6002C17.7031 56.7002 16.3827 62.4002 15.3027 63.3002C14.2228 64.2002 4.53533 63.4578 3.32131 61.429C2.1073 59.4002 2.70681 55.5002 3.9054 54.0002C1.80312 47.4002 3.32131 40.2002 6.00313 36.0002C4.50313 30.0002 7.20312 21.9002 10.5031 20.1002C11.6504 15.8213 15.3908 11.7593 19.9652 9.59344M16.8272 54.6002C15.0031 55.2002 11.1052 55.2002 8.70313 54.0002M16.8272 54.6002C17.144 54.0539 17.4565 53.2122 17.7395 52.16M9.90313 36.6002C11.24 37.0013 12.7604 37.3428 14.1946 37.545M14.4031 21.6002C14.9327 21.812 15.4343 21.9865 15.9128 22.1301M45.5824 54.6002C44.7065 56.7002 46.0269 62.4002 47.1069 63.3002C48.1868 64.2002 57.8743 63.4578 59.0883 61.429C60.3023 59.4002 59.7028 55.5002 58.5042 54.0002C60.6065 47.4002 59.0883 40.2002 56.4065 36.0002C57.9065 30.0002 55.2065 21.9002 51.9065 20.1002C50.7594 15.822 47.0201 11.7607 42.4467 9.59453M45.5824 54.6002C47.4065 55.2002 51.3044 55.2002 53.7065 54.0002M45.5824 54.6002C45.2658 54.0542 44.9535 53.2132 44.6706 52.162M52.5065 36.6002C51.1714 37.0007 49.6533 37.3418 48.2208 37.5442M48.0065 21.6002C47.4788 21.8113 46.979 21.9852 46.5022 22.1285M38.3777 7.99175C36.3876 7.4843 33.8593 7.26641 31.1688 7.26641C28.4915 7.26641 26.012 7.48215 24.0269 7.98424M38.3777 7.99175C38.9957 7.40554 39.5298 6.98592 40.3415 7.31689C41.1958 7.66524 41.6794 7.95589 42.2161 8.37092C42.7218 8.76194 42.6634 9.20303 42.4467 9.59453M24.0269 7.98424C23.4122 7.40197 22.8792 6.98733 22.071 7.31689C21.2167 7.66524 20.7331 7.95589 20.1964 8.37092C19.6912 8.76158 19.749 9.20221 19.9652 9.59344" stroke="#1E1E1E" stroke-width="0.6" stroke-linecap="round"/>
</svg>
