<svg width="63" height="129" viewBox="0 0 63 129" fill="none" xmlns="http://www.w3.org/2000/svg">
<path d="M14.7653 41.1C13.3013 45.3 14.2016 47.7 14.7653 49.2C15.2371 50.4554 15.7869 51.5006 17.5364 52.1599M14.7653 41.1C16.4782 41.3 21.824 41.7 24.704 41.7M14.7653 41.1C14.3722 39.7634 14.1245 38.5905 13.9914 37.5449M16.6029 18.9C16.2079 20.0851 15.917 21.1453 15.7097 22.13M15.4799 29.7C16.8546 29.9 21.644 30.3 25.004 30.3M15.4799 29.7C15.2034 27.0481 15.1297 24.8845 15.7097 22.13M15.4799 29.7C14.4582 31.7985 13.5272 33.897 13.9914 37.5449M31.0029 53.1C26.8018 53.7 21.4042 53.1 18.7042 52.5C18.2639 52.4022 17.8774 52.2884 17.5364 52.1599M31.0029 53.1C35.204 53.7 40.6048 53.1 43.3048 52.5C43.743 52.4027 44.1278 52.2895 44.4675 52.1618M31.0029 53.1L31.0015 14.6999M47.2437 41.1C48.7077 45.3 47.8075 47.7 47.2437 49.2C46.7715 50.4566 46.221 51.5027 44.4675 52.1618M47.2437 41.1C45.5308 41.3 40.185 41.7 37.305 41.7M47.2437 41.1C47.6369 39.763 47.8846 38.5898 48.0177 37.544M45.4062 18.9C45.801 20.0844 46.0917 21.1441 46.299 22.1284M46.5291 29.7C45.1544 29.9 40.365 30.3 37.005 30.3M46.5291 29.7C47.5507 31.7984 48.4817 33.8967 48.0177 37.544M46.5291 29.7C46.8057 27.0476 46.8794 24.8837 46.299 22.1284M31.0015 14.6999C27.1004 14.6999 24.6315 12.4002 23.4641 10.6869C22.9489 9.93071 22.3863 9.486 21.7768 9.29102M31.0015 14.6999C34.9025 14.6999 37.3748 12.4002 38.5422 10.6869C39.0461 9.9472 39.5954 9.50554 40.1896 9.30413M16.6241 54.6C17.5 56.7 16.1795 62.4 15.0996 63.3C14.0197 64.2 4.3322 63.4576 3.11819 61.4288C1.90418 59.4 2.50368 55.5 3.70227 54C1.6 47.4 3.11819 40.2 5.8 36C4.3 30 7 21.9 10.3 20.1C11.3575 16.156 14.6181 12.3963 18.7042 10.1358C19.6252 9.70749 21.0052 9.04421 21.7768 9.29102M16.6241 54.6C14.8 55.2 10.9021 55.2 8.5 54M16.6241 54.6C16.9409 54.0537 17.2534 53.212 17.5364 52.1599M9.7 36.6C11.0369 37.0011 12.5573 37.3426 13.9914 37.5449M14.2 21.6C14.7296 21.8119 15.2312 21.9863 15.7097 22.13M45.3792 54.6C44.5033 56.7 45.8238 62.4 46.9038 63.3C47.9837 64.2 57.6711 63.4576 58.8852 61.4288C60.0992 59.4 59.4997 55.5 58.3011 54C60.4034 47.4 58.8852 40.2 56.2034 36C57.7034 30 55.0033 21.9 51.7034 20.1C50.6702 16.2466 47.5338 12.569 43.5792 10.2939C42.6423 9.85814 40.9718 9.039 40.1896 9.30413M45.3792 54.6C47.2033 55.2 51.1013 55.2 53.5033 54M45.3792 54.6C45.0626 54.054 44.7504 53.213 44.4675 52.1618M52.3033 36.6C50.9683 37.0006 49.4502 37.3417 48.0177 37.544M47.8033 21.6C47.2757 21.8111 46.7759 21.985 46.299 22.1284M40.1896 9.30413C38.0281 8.28873 34.6739 7.86624 30.9656 7.86624C27.2629 7.86624 23.9386 8.2789 21.7768 9.29102" stroke="#1E1E1E" stroke-width="0.6" stroke-linecap="round"/>
</svg>
