<svg width="63" height="129" viewBox="0 0 63 129" fill="none" xmlns="http://www.w3.org/2000/svg">
<path d="M14.2098 56.8871C15.979 57.1428 21.5006 57.6542 24.4753 57.6542M14.2098 56.8871C14.0667 56.2531 13.938 55.621 13.8237 54.9907M14.2098 56.8871C13.4692 58.985 13.1255 61.3445 13.0317 63.6774M14.5596 75.8293C18.4023 76.8 22.2136 76.8 25.0023 76.8M14.5596 75.8293C12.5504 79.4048 12.0441 89.9335 14.1332 95.4M14.5596 75.8293C13.9144 74.2273 12.817 69.022 13.0317 63.6774M16.7275 20.4C16.5675 20.9941 16.4241 21.5683 16.2959 22.1253M15.5676 34.6409C16.9875 34.8966 21.9344 35.408 25.4048 35.408M15.5676 34.6409C15.22 30.5135 15.1827 26.9633 16.2959 22.1253M15.5676 34.6409C15.1988 35.583 14.8727 36.5363 14.5888 37.5C14.5847 37.5142 14.5805 37.5283 14.5763 37.5425M14.1332 95.4C17.9759 96.3707 21.7871 96.3707 24.5758 96.3707M14.1332 95.4C12.901 97.3232 12.523 104.748 13.0055 110.7C13.2003 113.104 14.2045 117 15.4045 118.5C16.6045 120 18.7023 120.9 20.8045 121.2C22.9066 121.5 28.0023 121.5 31.6023 121.5M48.9969 56.8871C47.2276 57.1428 41.7061 57.6542 38.7314 57.6542M48.9969 56.8871C49.1399 56.2531 49.2687 55.621 49.383 54.9907M48.9969 56.8871C49.7374 58.985 50.0812 61.3445 50.175 63.6774M48.647 75.8293C44.8043 76.8 40.9931 76.8 38.2043 76.8M48.647 75.8293C50.6562 79.4048 51.1625 89.9335 49.0735 95.4M48.647 75.8293C49.2923 74.2273 50.3898 69.022 50.175 63.6774M46.4791 20.4C46.6391 20.9941 46.7826 21.5682 46.9107 22.1253M47.639 34.6409C46.2191 34.8966 41.2723 35.408 37.8018 35.408M47.639 34.6409C47.9867 30.5135 48.024 26.9633 46.9107 22.1253M47.639 34.6409C48.0133 35.5968 48.3436 36.5643 48.6303 37.5424M49.0735 95.4C45.2308 96.3707 41.4196 96.3707 38.6308 96.3707M49.0735 95.4C50.3056 97.3232 50.6836 104.748 50.2012 110.7C50.0063 113.104 49.0022 117 47.8022 118.5C46.6022 120 44.5043 120.9 42.4022 121.2C40.3 121.5 35.2043 121.5 31.6043 121.5L31.603 14.6998M31.603 14.6998C27.7019 14.6998 25.233 12.4001 24.0656 10.6868C23.5504 9.93068 22.9879 9.48597 22.3784 9.29099M31.603 14.6998C35.5041 14.6998 37.9764 12.4001 39.1437 10.6868C39.6477 9.94717 40.197 9.50551 40.7912 9.3041M9.10156 54C10.4214 54.6593 12.1928 54.9564 13.8237 54.9907M10.3016 36.6C11.6333 36.9995 13.1471 37.3399 14.5763 37.5425M14.8016 21.6C15.3255 21.8096 15.822 21.9826 16.2959 22.1253M54.1049 54C52.7851 54.6593 51.0138 54.9564 49.383 54.9907M52.9049 36.6C51.5733 36.9995 50.0595 37.3399 48.6303 37.5424M48.4049 21.6C47.881 21.8096 47.3845 21.9825 46.9107 22.1253M40.7912 9.3041C38.6297 8.2887 35.2754 7.86621 31.5672 7.86621C27.8644 7.86621 24.5401 8.27887 22.3784 9.29099M40.7912 9.3041C41.5734 9.03896 42.7286 9.57213 43.6655 10.0079C47.8614 12.2526 51.2272 16.0806 52.3049 20.1C55.6049 21.9 58.3049 30 56.8049 36C59.4867 40.2 61.0049 47.4 58.9026 54C60.1012 55.5 60.7007 59.4 59.4867 61.4288C58.6226 62.8729 53.4653 63.6652 50.175 63.6774M22.3784 9.29099C21.6068 9.04418 20.7985 9.37511 19.8775 9.80345C19.1655 10.1867 18.0992 10.8423 17.4426 11.3098C14.2475 13.5847 11.7925 16.7769 10.9016 20.1C7.60156 21.9 4.90156 30 6.40156 36C3.71975 40.2 2.20156 47.4 4.30383 54C3.10525 55.5 2.50574 59.4 3.71975 61.4288C4.5839 62.8729 9.74138 63.6653 13.0317 63.6774M13.8237 54.9907C12.7264 48.9424 12.9554 43.0719 14.5763 37.5425M48.6303 37.5424C50.2512 43.0719 50.4802 48.9424 49.383 54.9907" stroke="#1E1E1E" stroke-width="0.6" stroke-linecap="round"/>
</svg>
