<svg width="63" height="129" viewBox="0 0 63 129" fill="none" xmlns="http://www.w3.org/2000/svg">
<path d="M14.7629 49.5002C12.911 55.2374 14.7629 60.1044 15.7849 61.8658C16.8068 63.6272 18.5689 63.9053 20.3771 64.2298C22.1853 64.5543 27.0915 65.1105 31.7361 64.6399M14.7629 49.5002C13.0601 43.4043 13.4537 37.5148 16.0775 32.1002M14.7629 49.5002C16.4758 49.7002 21.8216 50.1002 24.7016 50.1002M16.0775 32.1002C17.4522 32.3002 22.2416 32.7002 25.6016 32.7002M16.0775 32.1002C15.9219 30.6079 15.8306 29.1672 15.8837 27.6712C17.756 25.3794 18.147 21.8428 18.0011 20.2345C17.8105 18.1328 17.1953 16.2002 16.541 15.1552C15.8867 14.1102 16.1196 12.9664 17.1953 12.0002C17.6893 11.5565 18.9395 10.7144 20.5505 9.89664M31.7361 64.6399C36.3806 65.1105 41.1545 64.5543 42.9627 64.2298C44.7709 63.9053 46.533 63.6272 47.5549 61.8658C48.5769 60.1044 50.4288 55.2374 48.5769 49.5002M31.7361 64.6399C31.7361 36.7564 31.6 42.9672 31.6 15.0837M48.5769 49.5002C50.2797 43.4043 49.886 37.5148 47.2623 32.1002M48.5769 49.5002C46.864 49.7002 41.5182 50.1002 38.6382 50.1002M47.2623 32.1002C45.8876 32.3002 41.0982 32.7002 37.7382 32.7002M47.2623 32.1002C47.4117 30.6667 47.5019 29.2808 47.4617 27.8477C45.4608 25.5649 45.0453 21.8846 45.195 20.2345C45.3856 18.1328 46.0008 16.2002 46.6551 15.1552C47.3094 14.1102 47.0765 12.9664 46.0008 12.0002C45.5071 11.5568 44.2581 10.7154 42.6485 9.89811M31.6 15.0837C31.6 15.0837 30.3751 17.0018 29.3748 17.7244C28.3746 18.447 27.2752 17.7196 25.6453 15.8955C24.4087 14.5117 23.4409 13.5476 22.1544 11.9107C21.7872 11.4435 21.0218 10.589 20.5505 9.89664M31.6 15.0837C31.6 15.0837 29.847 13.3826 28.2255 11.811C27.0743 10.6952 24.8707 8.41536 24.5266 8.08537C24.491 8.05119 24.4556 8.01744 24.4206 7.98424M31.6 15.0837C31.6 15.0837 32.8249 17.0018 33.8252 17.7244C34.8254 18.447 35.9248 17.7196 37.5547 15.8955C38.7913 14.5117 39.7591 13.5476 41.0456 11.9107C41.4125 11.4439 42.1771 10.5902 42.6485 9.89811M31.6 15.0837C31.6 15.0837 33.353 13.3826 34.9745 11.811C36.1257 10.6952 38.3293 8.41536 38.6734 8.08537C38.7064 8.05376 38.739 8.02253 38.7715 7.99175M38.7715 7.99175C36.7814 7.4843 34.2531 7.26641 31.5625 7.26641C28.8852 7.26641 26.4058 7.48215 24.4206 7.98424M38.7715 7.99175C39.3895 7.40554 39.9235 6.98592 40.7352 7.31689C41.5896 7.66524 42.0732 7.95589 42.6099 8.37092C43.1466 8.78596 43.0479 9.25741 42.7988 9.66608C42.7533 9.74071 42.7029 9.81834 42.6485 9.89811M24.4206 7.98424C23.8059 7.40197 23.273 6.98733 22.4648 7.31689C21.6104 7.66524 21.1268 7.95589 20.5901 8.37092C20.0534 8.78596 20.1521 9.25741 20.4012 9.66608C20.4464 9.74026 20.4965 9.81738 20.5505 9.89664" stroke="#1E1E1E" stroke-width="0.6" stroke-linecap="round"/>
</svg>
