<svg width="63" height="129" viewBox="0 0 63 129" fill="none" xmlns="http://www.w3.org/2000/svg">
<path d="M14.0145 56.8869C15.7837 57.1426 21.3053 57.654 24.2799 57.654M14.0145 56.8869C13.2739 58.9848 12.9302 61.3443 12.8364 63.6772M14.0145 56.8869C13.8714 56.253 13.7427 55.6208 13.6283 54.9905M14.3643 75.8291C18.207 76.7998 22.0183 76.7998 24.807 76.7998M14.3643 75.8291C12.3551 79.4046 11.8488 89.9333 13.9378 95.3998M14.3643 75.8291C13.7191 74.2271 12.6216 69.0218 12.8364 63.6772M16.5322 20.3998C16.3722 20.9939 16.2288 21.5681 16.1006 22.1251M15.3723 34.6407C16.7922 34.8964 21.7391 35.4078 25.2095 35.4078M15.3723 34.6407C14.9981 35.5966 14.6678 36.5641 14.381 37.5423M15.3723 34.6407C15.0246 30.5133 14.9874 26.9631 16.1006 22.1251M13.9378 95.3998C17.7806 96.3705 21.5918 96.3705 24.3805 96.3705M13.9378 95.3998C12.7057 97.323 12.3277 104.748 12.8102 110.7C13.005 113.104 14.0092 117 15.2092 118.5C16.4092 120 18.507 120.9 20.6092 121.2C22.7113 121.5 27.807 121.5 31.407 121.5M48.8016 56.8869C47.0323 57.1426 41.5108 57.654 38.5361 57.654M48.8016 56.8869C48.9446 56.2529 49.0733 55.6208 49.1877 54.9905M48.8016 56.8869C49.5421 58.9848 49.8859 61.3443 49.9796 63.6772M48.4517 75.8291C44.609 76.7998 40.7978 76.7998 38.009 76.7998M48.4517 75.8291C50.4609 79.4046 50.9672 89.9333 48.8782 95.3998M48.4517 75.8291C49.097 74.2271 50.1944 69.0218 49.9796 63.6772M46.2838 20.3998C46.4438 20.9939 46.5872 21.568 46.7154 22.1251M47.4437 34.6407C46.0238 34.8964 41.077 35.4078 37.6065 35.4078M47.4437 34.6407C47.7914 30.5133 47.8287 26.9631 46.7154 22.1251M47.4437 34.6407C47.8179 35.5966 48.1482 36.5641 48.435 37.5422M48.8782 95.3998C45.0355 96.3705 41.2243 96.3705 38.4355 96.3705M48.8782 95.3998C50.1103 97.323 50.4883 104.748 50.0059 110.7C49.811 113.104 48.8069 117 47.6069 118.5C46.4069 120 44.309 120.9 42.2069 121.2C40.1047 121.5 35.009 121.5 31.409 121.5L31.409 2.79737M8.90625 53.9998C10.2261 54.6591 11.9975 54.9562 13.6283 54.9905M10.1063 36.5998C11.438 36.9993 12.9518 37.3397 14.381 37.5423M14.6063 21.5998C15.1302 21.8094 15.6267 21.9824 16.1006 22.1251M53.9096 53.9998C52.5898 54.6591 50.8185 54.9562 49.1877 54.9905M52.7096 36.5998C51.3779 36.9993 49.8642 37.3397 48.435 37.5422M48.2096 21.5998C47.6857 21.8094 47.1892 21.9823 46.7154 22.1251M23.2086 8.69961C23.2086 8.69961 23.2864 6.0473 23.3773 4.79961C23.4683 3.55192 24.1086 2.69961 25.6086 2.69961C26.6925 2.69961 29.3428 2.81709 31.409 2.79737M23.2086 8.69961C24.4086 8.9998 26.2086 9.29981 28.0086 9.29981M23.2086 8.69961C17.4279 10.3242 12.0783 14.9826 10.7063 20.0998C7.40625 21.8998 4.70625 29.9998 6.20625 35.9998C3.52444 40.1998 2.00625 47.3998 4.10852 53.9998C2.90993 55.4998 2.31043 59.3998 3.52444 61.4286C4.38859 62.8727 9.54607 63.6651 12.8364 63.6772M38.7411 8.69961C38.7411 8.69961 38.6633 6.0473 38.5723 4.79961C38.4814 3.55192 37.3086 2.69961 36.4086 2.69961C36.4086 2.69961 35.2086 2.47461 33.4086 2.69961C32.9093 2.76202 32.2022 2.78981 31.409 2.79737M38.7411 8.69961C37.6086 8.9998 35.8086 9.29981 34.3086 9.29981M38.7411 8.69961C44.7866 10.1349 50.6865 14.7922 52.1096 20.0998C55.4096 21.8998 58.1096 29.9998 56.6096 35.9998C59.2914 40.1998 60.8096 47.3998 58.7073 53.9998C59.9059 55.4998 60.5054 59.3998 59.2914 61.4286C58.4273 62.8727 53.27 63.665 49.9796 63.6772M13.6283 54.9905C12.5311 48.9422 12.7601 43.0717 14.381 37.5423M48.435 37.5422C50.0559 43.0717 50.2849 48.9422 49.1877 54.9905" stroke="#1E1E1E" stroke-width="0.6" stroke-linecap="round"/>
</svg>
