<svg width="63" height="129" viewBox="0 0 63 129" fill="none" xmlns="http://www.w3.org/2000/svg">
<path d="M14.166 49.5002C15.8789 49.7002 21.2247 50.1002 24.1047 50.1002M14.166 49.5002C13.0137 45.375 12.8214 41.3444 13.6306 37.4915M14.166 49.5002C13.5325 51.463 13.3324 53.3239 13.3843 54.9935M16.6036 20.7002C16.426 21.233 16.2695 21.749 16.1321 22.2507M15.4807 32.1002C16.8554 32.3002 21.6448 32.7002 25.0048 32.7002M15.4807 32.1002C15.1497 28.9265 15.1093 25.9859 16.1321 22.2507M15.4807 32.1002C14.6324 33.8507 14.0172 35.6508 13.6306 37.4915M31.1392 64.6399C26.4946 65.1105 21.5884 64.5543 19.7802 64.2298C18.2166 63.9492 16.6875 63.7033 15.6416 62.503M31.1392 64.6399C35.7838 65.1105 40.5576 64.5543 42.3658 64.2298C43.8842 63.9573 45.37 63.7176 46.4124 62.6048M31.1392 64.6399C31.1392 36.7564 31.0031 42.9672 31.0031 15.0837M47.98 49.5002C46.2671 49.7002 40.9213 50.1002 38.0413 50.1002M47.98 49.5002C48.6133 51.4621 48.8134 53.3223 48.7618 54.9913M47.98 49.5002C49.1345 45.3673 49.3253 41.3292 48.5108 37.4697M45.5424 20.7002C45.7157 21.2201 45.869 21.724 46.0039 22.2142M46.6654 32.1002C45.2907 32.3002 40.5013 32.7002 37.1413 32.7002M46.6654 32.1002C47.5103 33.8438 48.1239 35.6366 48.5108 37.4697M46.6654 32.1002C46.9974 28.9161 47.037 25.9667 46.0039 22.2142M31.0031 15.0837C31.0031 15.0837 29.7782 17.0018 28.778 17.7244C27.7777 18.447 26.6783 17.7196 25.0484 15.8955C23.8118 14.5117 22.844 13.5476 21.5575 11.9107C21.1483 11.39 20.2444 10.3882 19.8043 9.66608C19.7897 9.64207 19.7756 9.61785 19.7621 9.59344M31.0031 15.0837C31.0031 15.0837 29.2501 13.3826 27.6287 11.811C26.4774 10.6952 24.2738 8.41536 23.9297 8.08537C23.8941 8.05119 23.8588 8.01744 23.8237 7.98424M31.0031 15.0837C31.0031 15.0837 32.228 17.0018 33.2283 17.7244C34.2285 18.447 35.328 17.7196 36.9578 15.8955C38.1944 14.5117 39.1622 13.5476 40.4488 11.9107C40.858 11.39 41.7618 10.3882 42.2019 9.66608C42.2164 9.64243 42.2303 9.61857 42.2436 9.59453M31.0031 15.0837C31.0031 15.0837 32.7561 13.3826 34.3776 11.811C35.5288 10.6952 37.7324 8.41536 38.0765 8.08537C38.1095 8.05376 38.1422 8.02253 38.1746 7.99175M8.5 54.0002C9.86371 54.6815 11.7095 54.976 13.3843 54.9935M9.7 36.6002C10.9253 36.9678 12.3047 37.2853 13.6306 37.4915M14.2 21.6002C14.8877 21.8753 15.5281 22.0873 16.1321 22.2507M53.5033 54.0002C52.1783 54.6622 50.398 54.959 48.7618 54.9913M52.3033 36.6002C51.1205 36.955 49.7941 37.2632 48.5108 37.4697M47.8033 21.6002C47.1658 21.8552 46.5688 22.0561 46.0039 22.2142M38.1746 7.99175C36.1845 7.4843 33.6562 7.26641 30.9656 7.26641C28.2883 7.26641 25.8089 7.48215 23.8237 7.98424M38.1746 7.99175C38.7926 7.40554 39.3267 6.98592 40.1384 7.31689C40.9927 7.66524 41.4763 7.95589 42.013 8.37092C42.5187 8.76194 42.4603 9.20303 42.2436 9.59453M23.8237 7.98424C23.2091 7.40197 22.6761 6.98733 21.8679 7.31689C21.0136 7.66524 20.5299 7.95589 19.9932 8.37092C19.4881 8.76158 19.5458 9.20221 19.7621 9.59344M19.7621 9.59344C15.1877 11.7593 11.4472 15.8213 10.3 20.1002C7 21.9002 4.3 30.0002 5.8 36.0002C3.11819 40.2002 1.6 47.4002 3.70227 54.0002C2.50368 55.5002 1.90418 59.4002 3.11819 61.429C4.3322 63.4578 14.0197 64.2002 15.0996 63.3002C15.2774 63.152 15.4617 62.8738 15.6416 62.503M42.2436 9.59453C46.8169 11.7607 50.5563 15.822 51.7034 20.1002C55.0033 21.9002 57.7034 30.0002 56.2034 36.0002C58.8852 40.2002 60.4034 47.4002 58.3011 54.0002C59.4997 55.5002 60.0992 59.4002 58.8852 61.429C57.6711 63.4578 47.9837 64.2002 46.9038 63.3002C46.7426 63.1659 46.5762 62.9248 46.4124 62.6048M13.3843 54.9935C13.4841 58.2041 14.5157 60.707 15.188 61.8658C15.3262 62.1041 15.478 62.3152 15.6416 62.503M46.4124 62.6048C46.6114 62.3924 46.7942 62.1481 46.958 61.8658C47.6305 60.7068 48.6624 58.2029 48.7618 54.9913" stroke="#1E1E1E" stroke-width="0.6" stroke-linecap="round"/>
</svg>
