<svg width="63" height="129" viewBox="0 0 63 129" fill="none" xmlns="http://www.w3.org/2000/svg">
<path d="M15.17 41.1002C13.706 45.3002 14.6062 47.7002 15.17 49.2002C15.7337 50.7002 16.4089 51.9002 19.1089 52.5002C21.8089 53.1002 27.2065 53.7002 31.4076 53.1002M15.17 41.1002C13.4056 35.1002 14.5701 32.4002 15.8846 29.7002M15.17 41.1002C16.8829 41.3002 22.2287 41.7002 25.1087 41.7002M15.8846 29.7002C17.2593 29.9002 22.0487 30.3002 25.4087 30.3002M15.8846 29.7002C15.8101 28.9862 15.7504 28.3076 15.7142 27.6434C17.567 25.3509 17.9542 21.8363 17.8089 20.2345C17.6183 18.1328 17.0031 16.2002 16.3488 15.1552C15.6945 14.1102 15.9274 12.9664 17.0031 12.0002C17.4971 11.5565 18.7473 10.7144 20.3583 9.89664M31.4076 53.1002C35.6087 53.7002 41.0095 53.1002 43.7095 52.5002C46.4095 51.9002 47.0847 50.7002 47.6484 49.2002C48.2122 47.7002 49.1124 45.3002 47.6484 41.1002M31.4076 53.1002L31.4078 15.0837M47.6484 41.1002C49.4128 35.1002 48.2483 32.4002 46.9338 29.7002M47.6484 41.1002C45.9355 41.3002 40.5897 41.7002 37.7097 41.7002M46.9338 29.7002C45.5591 29.9002 40.7697 30.3002 37.4097 30.3002M46.9338 29.7002C47.008 28.989 47.0675 28.3129 47.1038 27.6511C45.2456 25.3588 44.8574 21.8381 45.0028 20.2345C45.1934 18.1328 45.8086 16.2002 46.4629 15.1552C47.1172 14.1102 46.8843 12.9664 45.8086 12.0002C45.3149 11.5568 44.0659 10.7154 42.4564 9.89811M31.4078 15.0837C31.4078 15.0837 30.1829 17.0018 29.1827 17.7244C28.1824 18.447 27.083 17.7196 25.4531 15.8955C24.2165 14.5117 23.2487 13.5476 21.9622 11.9107C21.595 11.4435 20.8296 10.589 20.3583 9.89664M31.4078 15.0837C31.4078 15.0837 29.6548 13.3826 28.0333 11.811C26.8821 10.6952 24.6785 8.41536 24.3344 8.08537C24.2988 8.05119 24.2635 8.01744 24.2284 7.98424M31.4078 15.0837C31.4078 15.0837 32.6327 17.0018 33.633 17.7244C34.6332 18.447 35.7326 17.7196 37.3625 15.8955C38.5991 14.5117 39.5669 13.5476 40.8534 11.9107C41.2204 11.4439 41.985 10.5902 42.4564 9.89811M31.4078 15.0837C31.4078 15.0837 33.1608 13.3826 34.7823 11.811C35.9335 10.6952 38.1371 8.41536 38.4812 8.08537C38.5142 8.05376 38.5468 8.02253 38.5793 7.99175M38.5793 7.99175C36.5892 7.4843 34.0609 7.26641 31.3703 7.26641C28.693 7.26641 26.2136 7.48215 24.2284 7.98424M38.5793 7.99175C39.1973 7.40554 39.7314 6.98592 40.5431 7.31689C41.3974 7.66524 41.881 7.95589 42.4177 8.37092C42.9544 8.78596 42.8557 9.25741 42.6066 9.66608C42.5611 9.74071 42.5107 9.81834 42.4564 9.89811M24.2284 7.98424C23.6138 7.40197 23.0808 6.98733 22.2726 7.31689C21.4183 7.66524 20.9346 7.95589 20.3979 8.37092C19.8612 8.78596 19.9599 9.25741 20.209 9.66608C20.2542 9.74026 20.3043 9.81738 20.3583 9.89664" stroke="#1E1E1E" stroke-width="0.6" stroke-linecap="round"/>
</svg>
