<svg width="63" height="129" viewBox="0 0 63 129" fill="none" xmlns="http://www.w3.org/2000/svg">
<path d="M14.209 56.8871C11.7719 63.7911 13.632 73.5279 14.5588 75.8293M14.209 56.8871C12.4502 49.0934 12.8568 41.5635 15.5668 34.6409M14.209 56.8871C15.9782 57.1428 21.4998 57.6542 24.4745 57.6542M14.5588 75.8293C18.4016 76.8 22.2128 76.8 25.0016 76.8M14.5588 75.8293C12.5496 79.4048 12.0433 89.9335 14.1324 95.4M15.5668 34.6409C16.9867 34.8966 21.9336 35.408 25.4041 35.408M15.5668 34.6409C15.3801 32.4235 15.2829 30.3727 15.4055 28.1993C17.6934 25.9619 18.1626 21.9722 18.005 20.2343C17.8144 18.1326 17.1992 16.2 16.5449 15.155C15.8906 14.11 16.1235 12.9662 17.1992 12.0001C17.6723 11.5751 18.8273 10.9048 20.3517 10.0004C21.8761 9.09604 22.0831 9.24209 22.3776 9.29099M14.1324 95.4C17.9751 96.3707 21.7863 96.3707 24.5751 96.3707M14.1324 95.4C12.9003 97.3232 12.5223 104.748 13.0047 110.7C13.1995 113.104 14.2037 117 15.4037 118.5C16.6037 120 18.7016 120.9 20.8037 121.2C22.9058 121.5 28.0016 121.5 31.6016 121.5M48.9961 56.8871C51.4331 63.7911 49.5731 73.5279 48.6463 75.8293M48.9961 56.8871C50.7549 49.0934 50.3483 41.5635 47.6383 34.6409M48.9961 56.8871C47.2269 57.1428 41.7053 57.6542 38.7306 57.6542M48.6463 75.8293C44.8035 76.8 40.9923 76.8 38.2035 76.8M48.6463 75.8293C50.6554 79.4048 51.1617 89.9335 49.0727 95.4M47.6383 34.6409C46.2184 34.8966 41.2715 35.408 37.801 35.408M47.6383 34.6409C47.825 32.4239 47.9222 30.3735 47.7996 28.2005C45.5107 25.9633 45.0413 21.9725 45.1989 20.2343C45.3895 18.1326 46.0047 16.2 46.659 15.155C47.3133 14.11 47.0804 12.9662 46.0047 12.0001C45.4489 11.5009 42.6923 9.91049 42.0292 9.59172C41.3661 9.27294 41.1813 9.24194 40.7904 9.3041M49.0727 95.4C45.23 96.3707 41.4188 96.3707 38.63 96.3707M49.0727 95.4C50.3048 97.3232 50.6828 104.748 50.2004 110.7C50.0055 113.104 49.0014 117 47.8014 118.5C46.6014 120 44.5035 120.9 42.4014 121.2C40.2993 121.5 35.2035 121.5 31.6035 121.5L31.6022 14.6998M31.6022 14.6998C27.7011 14.6998 25.2322 12.4001 24.0649 10.6868C23.5497 9.93068 22.672 9.33988 22.3776 9.29099M31.6022 14.6998C35.5033 14.6998 37.9756 12.4001 39.1429 10.6868C39.6469 9.94717 40.3996 9.36626 40.7904 9.3041M40.7904 9.3041C38.6289 8.2887 35.2746 7.86621 31.5664 7.86621C27.8637 7.86621 24.5394 8.27887 22.3776 9.29099" stroke="#1E1E1E" stroke-width="0.6" stroke-linecap="round"/>
</svg>
