<svg width="63" height="129" viewBox="0 0 63 129" fill="none" xmlns="http://www.w3.org/2000/svg">
<path d="M14.7653 41.0998C13.3013 45.2998 14.2016 47.6998 14.7653 49.1998C15.2371 50.4552 15.7869 51.5004 17.5364 52.1597M14.7653 41.0998C16.4782 41.2998 21.824 41.6998 24.704 41.6998M14.7653 41.0998C14.3722 39.7631 14.1245 38.5902 13.9914 37.5446M16.6029 18.8998C16.2079 20.0848 15.917 21.1451 15.7097 22.1297M15.4799 29.6998C16.8546 29.8998 21.644 30.2998 25.004 30.2998M15.4799 29.6998C15.2034 27.0478 15.1297 24.8843 15.7097 22.1297M15.4799 29.6998C14.4582 31.7983 13.5272 33.8968 13.9914 37.5446M31.0029 53.0998C26.8018 53.6998 21.4042 53.0998 18.7042 52.4998C18.2639 52.402 17.8774 52.2881 17.5364 52.1597M31.0029 53.0998C35.204 53.6998 40.6048 53.0998 43.3048 52.4998C43.743 52.4024 44.1278 52.2893 44.4675 52.1616M31.0029 53.0998V2.79737M47.2437 41.0998C48.7077 45.2998 47.8075 47.6998 47.2437 49.1998C46.7715 50.4564 46.221 51.5024 44.4675 52.1616M47.2437 41.0998C45.5308 41.2998 40.185 41.6998 37.305 41.6998M47.2437 41.0998C47.6369 39.7628 47.8846 38.5896 48.0177 37.5438M45.4062 18.8998C45.801 20.0842 46.0917 21.1439 46.299 22.1281M46.5291 29.6998C45.1544 29.8998 40.365 30.2998 37.005 30.2998M46.5291 29.6998C47.5507 31.7981 48.4817 33.8965 48.0177 37.5438M46.5291 29.6998C46.8057 27.0473 46.8794 24.8834 46.299 22.1281M16.6241 54.5998C17.5 56.6998 16.1795 62.3998 15.0996 63.2998C14.0197 64.1998 4.3322 63.4574 3.11819 61.4286C1.90418 59.3998 2.50368 55.4998 3.70227 53.9998C1.6 47.3998 3.11819 40.1998 5.8 35.9998C4.3 29.9998 7 21.8998 10.3 20.0998C11.6324 15.1303 17.2302 10.4534 22.8023 8.69961M16.6241 54.5998C14.8 55.1998 10.9021 55.1998 8.5 53.9998M16.6241 54.5998C16.9409 54.0535 17.2534 53.2118 17.5364 52.1597M9.7 36.5998C11.0369 37.0009 12.5573 37.3424 13.9914 37.5446M14.2 21.5998C14.7296 21.8117 15.2312 21.9861 15.7097 22.1297M45.3792 54.5998C44.5033 56.6998 45.8238 62.3998 46.9038 63.2998C47.9837 64.1998 57.6711 63.4574 58.8852 61.4286C60.0992 59.3998 59.4997 55.4998 58.3011 53.9998C60.4034 47.3998 58.8852 40.1998 56.2034 35.9998C57.7034 29.9998 55.0033 21.8998 51.7034 20.0998C50.2915 14.8339 44.3228 10.1786 38.3348 8.69961M45.3792 54.5998C47.2033 55.1998 51.1013 55.1998 53.5033 53.9998M45.3792 54.5998C45.0626 54.0538 44.7504 53.2128 44.4675 52.1616M52.3033 36.5998C50.9683 37.0003 49.4502 37.3414 48.0177 37.5438M47.8033 21.5998C47.2757 21.8109 46.7759 21.9848 46.299 22.1281M22.8023 8.69961C22.8023 8.69961 22.8801 6.0473 22.9711 4.79961C23.0621 3.55192 23.7023 2.69961 25.2023 2.69961C26.2863 2.69961 28.9367 2.81709 31.0029 2.79737M22.8023 8.69961C24.0023 8.9998 25.8023 9.29981 27.6023 9.29981M38.3348 8.69961C38.3348 8.69961 38.2571 6.0473 38.1661 4.79961C38.0751 3.55192 36.9023 2.69961 36.0023 2.69961C36.0023 2.69961 34.8023 2.47461 33.0023 2.69961C32.5031 2.76202 31.796 2.7898 31.0029 2.79737M38.3348 8.69961C37.2023 8.9998 35.4023 9.29981 33.9023 9.29981" stroke="#1E1E1E" stroke-width="0.6" stroke-linecap="round"/>
</svg>
