<svg width="64" height="54" viewBox="0 0 64 54" fill="none" xmlns="http://www.w3.org/2000/svg">
<path d="M29.8046 46.9805C29.8046 46.9805 29.4283 44.3973 29.1537 42.851L29.1514 42.8379C28.876 41.2866 28.3076 38.0852 27.1932 38.0852C26.0757 38.0852 25.6089 39.4286 22.9675 38.9714C22.4666 38.8847 21.375 38.658 21.0178 38.5467M29.8046 46.9805C29.8046 46.9805 26.4979 46.9805 24.3894 47.5551C22.281 48.1296 21.7684 48.5807 19.8177 49.0777M29.8046 46.9805C30.0418 48.2028 29.9745 50.3956 29.9162 51.0366C29.8579 51.6777 29.0748 52.0227 28.3243 52.073C27.5739 52.1234 25.6412 52.073 24.3894 52.073H22.9968C22.9968 52.073 22.2298 51.0631 20.416 51.5433C18.9378 51.9347 17.0427 51.9389 15.407 51.9389C11.7641 51.9389 10.169 51.8894 8.55469 51.8203C6.94034 51.7513 5.41029 51.6066 4.18142 51.5433C2.95254 51.4801 3.20131 49.8208 3.20131 49.5001M3.20131 49.5001C3.20187 48.2758 2.74773 46.6968 4.71084 45.0677C6.67395 43.4387 11.1043 43.3438 13.2439 43.5342M3.20131 49.5001C3.20131 49.5001 13.9609 49.9527 17.538 49.5001C18.4277 49.3875 19.1719 49.2422 19.8177 49.0777M15.407 44.633C14.2068 44.5251 13.9269 43.9001 13.2439 43.5342M15.407 44.633C16.6778 45.0197 19.339 46.45 19.8177 49.0777M15.407 44.633C15.7661 44.6653 16.2897 44.4431 16.8838 44.0231M13.2439 43.5342C13.6612 43.3012 14.2463 42.9167 14.8891 42.4049M21.0178 38.5467C19.4916 38.0713 19.4045 37.6179 18.7873 37.8016C18.17 37.9852 17.9424 38.8446 17.538 39.6931M21.0178 38.5467C20.7046 39.335 20.3051 40.0856 19.8607 40.7736M17.538 39.6931C18.5665 39.6931 19.4757 40.4018 19.8607 40.7736M17.538 39.6931C17.1344 40.2416 16.6891 40.7468 16.2361 41.2014M19.8607 40.7736C19.4392 41.4262 18.9773 42.0224 18.5102 42.5409M16.2361 41.2014C17.538 41.2014 18.3957 42.2108 18.5102 42.5409M16.2361 41.2014C15.7835 41.6557 15.3232 42.0593 14.8891 42.4049M18.5102 42.5409C17.9555 43.1566 17.3937 43.6627 16.8838 44.0231M14.8891 42.4049C15.9778 42.4049 16.7313 43.7102 16.8838 44.0231M33.8041 46.9805C33.8041 46.9805 34.1804 44.3973 34.4549 42.851L34.4572 42.8379C34.7326 41.2866 35.3011 38.0852 36.4154 38.0852C37.533 38.0852 37.9997 39.4286 40.6411 38.9714C41.1421 38.8847 42.2337 38.658 42.5908 38.5467M33.8041 46.9805C33.8041 46.9805 37.1108 46.9805 39.2192 47.5551C41.3276 48.1296 41.8402 48.5807 43.791 49.0777M33.8041 46.9805C33.5669 48.2028 33.6342 50.3956 33.6925 51.0366C33.7507 51.6777 34.5338 52.0227 35.2843 52.073C36.0348 52.1234 37.9675 52.073 39.2192 52.073H40.6119C40.6119 52.073 41.3789 51.0631 43.1927 51.5433C44.6708 51.9347 46.5659 51.9389 48.2016 51.9389C51.8445 51.9389 53.4396 51.8894 55.054 51.8203C56.6683 51.7513 58.1984 51.6066 59.4272 51.5433C60.6561 51.4801 60.4073 49.8208 60.4073 49.5001M60.4073 49.5001C60.4068 48.2758 60.8609 46.6968 58.8978 45.0677C56.9347 43.4387 52.5043 43.3438 50.3647 43.5342M60.4073 49.5001C60.4073 49.5001 49.6477 49.9527 46.0706 49.5001C45.1809 49.3875 44.4368 49.2422 43.791 49.0777M48.2016 44.633C49.4018 44.5251 49.6817 43.9001 50.3647 43.5342M48.2016 44.633C46.9309 45.0197 44.2696 46.45 43.791 49.0777M48.2016 44.633C47.8425 44.6653 47.319 44.4431 46.7248 44.0231M50.3647 43.5342C49.9474 43.3012 49.3623 42.9167 48.7195 42.4049M42.5908 38.5467C44.1171 38.0713 44.2041 37.6179 44.8214 37.8016C45.4386 37.9852 45.6662 38.8446 46.0706 39.6931M42.5908 38.5467C42.9041 39.335 43.3035 40.0856 43.7479 40.7736M46.0706 39.6931C45.0421 39.6931 44.133 40.4018 43.7479 40.7736M46.0706 39.6931C46.4743 40.2416 46.9196 40.7468 47.3725 41.2014M43.7479 40.7736C44.1695 41.4262 44.6314 42.0224 45.0984 42.5409M47.3725 41.2014C46.0706 41.2014 45.2129 42.2108 45.0984 42.5409M47.3725 41.2014C47.8252 41.6557 48.2855 42.0593 48.7195 42.4049M45.0984 42.5409C45.6531 43.1566 46.215 43.6627 46.7248 44.0231M48.7195 42.4049C47.6309 42.4049 46.8773 43.7102 46.7248 44.0231" stroke="#1E1E1E" stroke-linecap="round" stroke-linejoin="round"/>
</svg>
