<svg width="63" height="54" viewBox="0 0 63 54" fill="none" xmlns="http://www.w3.org/2000/svg">
<path d="M2.68483 50.0049C2.68539 48.7806 2.1373 47.768 4.10041 46.139C6.06352 44.51 10.4939 44.4151 12.6335 44.6055M2.68483 50.0049L16.6298 50.3905C16.6298 50.3905 17.4655 50.402 18.7063 50.416M2.68483 50.0049C2.68483 50.3257 2.18899 51.5185 3.41787 51.5818C4.64675 51.645 7.79114 51.8588 7.79114 51.8588L14.6435 51.9773C14.6435 51.9773 19.5655 51.9773 20.9613 51.9773C22.3571 51.9773 22.5605 50.4515 22.5605 50.4515C22.5605 50.4515 22.829 51.4887 23.8249 51.8588C25.0744 52.323 27.1432 52.1395 27.5608 52.1114C28.3113 52.0611 29.0944 51.7162 29.1526 51.0751C29.2109 50.434 29.4801 49.4826 29.1941 47.5935C28.9082 45.7043 28.8179 45.4686 28.5433 43.9223L28.541 43.9092C28.2656 42.3579 27.6972 39.1565 26.5828 39.1565C25.4652 39.1565 24.9985 40.4999 22.3571 40.0427C21.8561 39.956 20.7646 39.7293 20.4074 39.618M14.7966 45.7043C13.5964 45.5964 13.3165 44.9714 12.6335 44.6055M14.7966 45.7043C15.991 46.3308 18.4451 48.1502 18.7063 50.416M14.7966 45.7043C15.1491 45.736 15.6601 45.5224 16.2409 45.1172M12.6335 44.6055C13.0508 44.3725 13.6359 43.988 14.2787 43.4762M20.4074 39.618C18.8812 39.1426 18.7941 38.6892 18.1768 38.8728C17.5596 39.0565 17.332 39.9159 16.9276 40.7644M20.4074 39.618C20.0895 40.4179 19.6829 41.1791 19.2306 41.8753M29.1915 50.3905C28.7167 50.5115 22.1508 50.4546 18.7063 50.416M16.9276 40.7644C17.9561 40.7644 18.8455 41.5035 19.2306 41.8753M16.9276 40.7644C16.5239 41.3129 16.0787 41.8181 15.6257 42.2727M19.2306 41.8753C18.8008 42.537 18.3298 43.14 17.8548 43.6619M15.6257 42.2727C16.9276 42.2727 17.7402 43.3318 17.8548 43.6619M15.6257 42.2727C15.173 42.7269 14.7127 43.1306 14.2787 43.4762M17.8548 43.6619C17.3029 44.2682 16.7456 44.7651 16.2409 45.1172M14.2787 43.4762C15.3673 43.4762 16.0884 44.8043 16.2409 45.1172M59.5882 50.0049C59.5876 48.7806 60.1357 47.768 58.1726 46.139C56.2095 44.51 51.7791 44.4151 49.6395 44.6055M59.5882 50.0049L45.6432 50.3905C45.6432 50.3905 44.8075 50.402 43.5667 50.416M59.5882 50.0049C59.5882 50.3257 60.084 51.5185 58.8551 51.5818C57.6262 51.645 54.4818 51.8588 54.4818 51.8588L47.6295 51.9773C47.6295 51.9773 42.7075 51.9773 41.3117 51.9773C39.9159 51.9773 39.7125 50.4515 39.7125 50.4515C39.7125 50.4515 39.4439 51.4887 38.4481 51.8588C37.1985 52.323 35.1298 52.1395 34.7122 52.1114C33.9617 52.0611 33.1786 51.7162 33.1204 51.0751C33.0621 50.434 32.7929 49.4826 33.0789 47.5935C33.3648 45.7043 33.4551 45.4686 33.7297 43.9223L33.732 43.9092C34.0074 42.3579 34.5758 39.1565 35.6902 39.1565C36.8077 39.1565 37.2745 40.4999 39.9159 40.0427C40.4168 39.956 41.5084 39.7293 41.8656 39.618M47.4764 45.7043C48.6766 45.5964 48.9565 44.9714 49.6395 44.6055M47.4764 45.7043C46.282 46.3308 43.8279 48.1502 43.5667 50.416M47.4764 45.7043C47.1238 45.736 46.6129 45.5224 46.0321 45.1172M49.6395 44.6055C49.2222 44.3725 48.6371 43.988 47.9943 43.4762M41.8656 39.618C43.3918 39.1426 43.4789 38.6892 44.0962 38.8728C44.7134 39.0565 44.941 39.9159 45.3454 40.7644M41.8656 39.618C42.1834 40.4179 42.5901 41.1791 43.0424 41.8753M33.0815 50.3905C33.5563 50.5115 40.1222 50.4546 43.5667 50.416M45.3454 40.7644C44.3169 40.7644 43.4275 41.5035 43.0424 41.8753M45.3454 40.7644C45.749 41.3129 46.1943 41.8181 46.6473 42.2727M43.0424 41.8753C43.4722 42.537 43.9432 43.14 44.4182 43.6619M46.6473 42.2727C45.3454 42.2727 44.5327 43.3318 44.4182 43.6619M46.6473 42.2727C47.1 42.7269 47.5603 43.1306 47.9943 43.4762M44.4182 43.6619C44.9701 44.2682 45.5274 44.7651 46.0321 45.1172M47.9943 43.4762C46.9056 43.4762 46.1846 44.8043 46.0321 45.1172" stroke="#1E1E1E" stroke-linecap="round" stroke-linejoin="round"/>
</svg>
