<svg width="63" height="54" viewBox="0 0 63 54" fill="none" xmlns="http://www.w3.org/2000/svg">
<path d="M29.0563 49.4023C29.3639 48.3405 29.4258 46.6863 29.241 45.5962C29.0563 44.5062 28.4001 43.7588 28.4001 43.7588C28.4001 43.7588 24.8555 45.062 21.2788 46.0274C20.6426 46.1991 20.0054 46.3602 19.3869 46.5013C17.9596 46.827 16.6321 47.0466 15.6475 47.0466C11.8379 47.0466 10.2706 45.0249 10.2706 45.0249C10.2706 45.0249 5.89383 45.6429 4.25133 46.6988C2.60882 47.7546 2.49152 48.4102 3.1726 50.2751M29.0563 49.4023C29.0563 49.4023 29.0563 51.322 28.031 51.5525C27.0111 51.7817 26.0422 51.7817 24.5533 51.7817H24.5299C23.557 51.7817 22.8507 51.322 22.8507 51.322C22.8507 51.322 22.2562 51.7231 21.5915 51.7817C19.5904 51.9583 15.4762 51.9548 13.1923 51.9959C9.15184 52.0687 6.03325 51.852 5.06355 51.6995C4.09384 51.547 3.1726 51.0764 3.1726 50.2751M29.0563 49.4023C27.1732 50.0797 25.6829 50.0923 23.6553 50.2751C22.2897 50.3983 14.2278 50.4894 9.00179 50.4088C6.46853 50.3697 3.1726 50.2751 3.1726 50.2751M33.3312 49.4022C33.0236 48.3405 32.9617 46.6862 33.1465 45.5962C33.3312 44.5062 33.9874 43.7588 33.9874 43.7588C33.9874 43.7588 37.532 45.0619 41.1087 46.0273C41.7449 46.1991 42.3821 46.3601 43.0006 46.5012C44.4279 46.8269 45.7554 47.0465 46.74 47.0465C50.5496 47.0465 52.117 45.0248 52.117 45.0248C52.117 45.0248 56.4937 45.6429 58.1362 46.6987C59.7787 47.7546 59.896 48.4101 59.2149 50.2751M33.3312 49.4022C33.3312 49.4022 33.3312 51.322 34.3565 51.5524C35.3764 51.7817 36.3453 51.7817 37.8342 51.7817H37.8576C38.8305 51.7817 39.5368 51.322 39.5368 51.322C39.5368 51.322 40.1313 51.723 40.796 51.7817C42.7971 51.9582 46.9113 51.9548 49.1952 51.9959C53.2357 52.0686 56.3543 51.852 57.324 51.6995C58.2937 51.547 59.2149 51.0763 59.2149 50.2751M33.3312 49.4022C35.2143 50.0797 36.4832 50.1081 38.796 50.0101C41.1087 49.9121 47.6798 50.4893 52.9059 50.4087C55.4391 50.3696 59.2149 50.2751 59.2149 50.2751" stroke="black" stroke-linecap="round" stroke-linejoin="round"/>
</svg>
