<svg width="64" height="54" viewBox="0 0 64 54" fill="none" xmlns="http://www.w3.org/2000/svg">
<path d="M29.6656 49.402C29.9733 48.3402 30.0352 46.686 29.8504 45.596C29.6656 44.5059 29.0095 43.7586 29.0095 43.7586C29.0095 43.7586 25.4649 45.0617 21.8882 46.0271M29.6656 49.402C29.6656 49.402 29.6656 51.3218 28.6404 51.5522C27.6205 51.7815 26.6516 51.7814 25.1626 51.7814H25.1393C24.1664 51.7814 23.46 51.3218 23.46 51.3218C23.46 51.3218 22.8656 51.7228 22.2008 51.7814C20.1998 51.958 16.0856 51.9545 13.8017 51.9957C9.76122 52.0684 6.64262 51.8517 5.67292 51.6992C4.70322 51.5467 3.78197 51.0761 3.78197 50.2749M29.6656 49.402C27.7826 50.0795 26.2923 50.092 24.2647 50.2749C22.8991 50.398 14.8372 50.4891 9.61117 50.4085C7.07791 50.3694 3.78197 50.2749 3.78197 50.2749M3.78197 50.2749C3.10089 48.4099 3.2182 47.7543 4.8607 46.6985C6.50321 45.6427 10.8799 45.0246 10.8799 45.0246C10.8799 45.0246 12.4473 47.0463 16.2569 47.0463C17.2415 47.0463 18.5689 46.8267 19.9963 46.501M19.9963 46.501C19.4294 45.7304 17.9845 43.8416 17.0917 43.1401C15.9756 42.2632 17.4636 41.5457 18.0216 41.7849C18.5797 42.024 20.6392 43.9012 21.8882 46.0271M19.9963 46.501C20.6148 46.3599 21.252 46.1988 21.8882 46.0271M33.9406 49.4019C33.633 48.3402 33.5711 46.6859 33.7559 45.5959C33.9406 44.5059 34.5967 43.7585 34.5967 43.7585C34.5967 43.7585 38.1414 45.0616 41.7181 46.0271M33.9406 49.4019C33.9406 49.4019 33.9406 51.3217 34.9658 51.5522C35.9857 51.7814 36.9547 51.7814 38.4436 51.7814H38.467C39.4399 51.7814 40.1462 51.3217 40.1462 51.3217C40.1462 51.3217 40.7407 51.7228 41.4054 51.7814C43.4065 51.9579 47.5207 51.9545 49.8046 51.9956C53.845 52.0683 56.9636 51.8517 57.9333 51.6992C58.903 51.5467 59.8243 51.0761 59.8243 50.2748M33.9406 49.4019C35.8237 50.0794 37.0926 50.1078 39.4053 50.0098C41.7181 49.9118 48.2892 50.4891 53.5152 50.4084C56.0485 50.3694 59.8243 50.2748 59.8243 50.2748M59.8243 50.2748C60.5054 48.4099 60.3881 47.7543 58.7456 46.6985C57.103 45.6426 52.7263 45.0246 52.7263 45.0246C52.7263 45.0246 51.159 47.0462 47.3494 47.0462C46.3648 47.0462 45.0373 46.8266 43.61 46.5009M43.61 46.5009C44.1769 45.7303 45.6217 43.8416 46.5146 43.1401C47.6307 42.2631 46.1427 41.5457 45.5846 41.7848C45.0266 42.024 42.9671 43.9012 41.7181 46.0271M43.61 46.5009C42.9915 46.3598 42.3543 46.1988 41.7181 46.0271" stroke="black" stroke-linecap="round" stroke-linejoin="round"/>
</svg>
