<svg width="58" height="54" viewBox="0 0 58 54" fill="none" xmlns="http://www.w3.org/2000/svg">
<path d="M26.8998 44.1104C26.8998 42.5585 25.85 40.961 25.85 40.961C23.6657 41.9417 20.3273 43.8365 18.2734 44.795C16.2195 45.7535 15.1863 46.3 12.3956 46.8876C9.60492 47.4752 7.38987 45.3942 7.38987 45.3942C7.38987 45.3942 3.60724 46.8091 2.3909 47.4023C1.17456 47.9955 0.790053 49.1309 0.985937 49.9798C1.18182 50.8286 1.73569 51.8229 3.30276 52.1018C4.86983 52.3808 12.2387 52.5465 13.6051 52.3808C14.9715 52.2152 15.9446 51.6562 16.9797 50.7246C17.5714 50.1921 19.1623 48.4233 21.3114 46.825M26.8998 44.1104C26.7844 45.8508 26.0991 49.9754 25.85 52.2682C25.3968 52.4409 23.321 52.3655 22.9601 52.2682C22.9601 50.6313 22.7282 47.9793 21.3114 46.825M26.8998 44.1104C24.8471 44.5245 22.9224 45.6268 21.3114 46.825M30.6987 44.1103C30.6987 42.5585 31.7484 40.9609 31.7484 40.9609C33.9327 41.9416 37.2712 43.8365 39.3251 44.795C41.379 45.7534 42.4121 46.3 45.2028 46.8876C47.9935 47.4751 50.2086 45.3942 50.2086 45.3942C50.2086 45.3942 53.9912 46.8091 55.2075 47.4023C56.4239 47.9954 56.8084 49.1309 56.6125 49.9797C56.4166 50.8285 55.8628 51.8228 54.2957 52.1018C52.7286 52.3808 45.3597 52.5464 43.9933 52.3808C42.6269 52.2152 41.6539 51.6562 40.6187 50.7245C40.0276 50.1925 38.4388 48.4262 36.2923 46.8288M30.6987 44.1103C30.814 45.8507 31.4994 49.9754 31.7484 52.2682C32.2016 52.4408 34.2774 52.3655 34.6383 52.2682C34.6383 50.6313 34.8755 47.9832 36.2923 46.8288M30.6987 44.1103C32.7535 44.5249 34.6802 45.6292 36.2923 46.8288" stroke="#1E1E1E" stroke-linecap="round" stroke-linejoin="round"/>
</svg>
