<svg width="63" height="84" viewBox="0 0 63 84" fill="none" xmlns="http://www.w3.org/2000/svg">
<path d="M14.0071 44.6998L14.3042 44.7408L14.3042 44.7408L14.0071 44.6998ZM15.207 53.6998L15.4753 53.834L15.5424 53.6998L15.4753 53.5657L15.207 53.6998ZM16.4026 26.9462C16.373 26.7831 16.2168 26.675 16.0538 26.7046C15.8908 26.7343 15.7827 26.8904 15.8123 27.0535L16.4026 26.9462ZM17.9073 61.7998L17.8048 62.0817L17.8048 62.0817L17.9073 61.7998ZM48.8023 44.6998L48.5052 44.7408L48.5052 44.7408L48.8023 44.6998ZM47.6024 53.6998L47.3341 53.5657L47.267 53.6998L47.3341 53.834L47.6024 53.6998ZM46.9971 27.0535C47.0267 26.8904 46.9186 26.7343 46.7556 26.7046C46.5926 26.675 46.4364 26.7831 46.4068 26.9462L46.9971 27.0535ZM44.9021 61.7998L45.0046 62.0817L45.0046 62.0817L44.9021 61.7998ZM31.3856 53.7004C31.2203 53.7109 31.0948 53.8535 31.1053 54.0189C31.1158 54.1842 31.2584 54.3097 31.4238 54.2992L31.3856 53.7004ZM39.1554 48.6039C38.992 48.6311 38.8816 48.7857 38.9088 48.9491C38.936 49.1126 39.0906 49.223 39.254 49.1957L39.1554 48.6039ZM39.3069 59.6828C39.4632 59.6278 39.5453 59.4565 39.4903 59.3002C39.4354 59.144 39.2641 59.0618 39.1078 59.1168L39.3069 59.6828ZM5.51381 63.095L5.31633 63.3208L5.31633 63.3208L5.51381 63.095ZM13.2698 64.3709L13.197 64.0799L13.197 64.0799L13.2698 64.3709ZM4.54868 46.9052L4.25336 46.8524L4.25336 46.8524L4.54868 46.9052ZM8.00254 25.4998L7.71225 25.4241L8.00254 25.4998ZM15.2029 13.4998L14.9994 13.2794L14.9994 13.2794L15.2029 13.4998ZM57.2924 63.095L57.4899 63.3208L57.4899 63.3208L57.2924 63.095ZM49.5365 64.3709L49.6092 64.0799L49.6092 64.0799L49.5365 64.3709ZM58.2576 46.9052L58.5529 46.8524L58.5529 46.8524L58.2576 46.9052ZM54.8037 25.4998L55.094 25.4241L55.094 25.4241L54.8037 25.4998ZM47.6034 13.4998L47.8069 13.2794L47.8069 13.2794L47.6034 13.4998ZM23.0532 10.2039C22.8898 10.1766 22.7352 10.287 22.708 10.4505C22.6808 10.6139 22.7912 10.7685 22.9546 10.7957L23.0532 10.2039ZM31.4039 18.7498L31.1846 18.9545C31.2413 19.0153 31.3208 19.0498 31.4039 19.0498C31.4871 19.0498 31.5665 19.0153 31.6232 18.9545L31.4039 18.7498ZM21.5039 14.9998L21.4545 15.2957L21.4545 15.2957L21.5039 14.9998ZM21.5039 4.4998L21.5988 4.78441L21.5988 4.78441L21.5039 4.4998ZM27.5039 32.6998C27.5039 32.8655 27.6382 32.9998 27.8039 32.9998C27.9696 32.9998 28.1039 32.8655 28.1039 32.6998H27.5039ZM39.8532 10.7957C40.0167 10.7684 40.1271 10.6139 40.0998 10.4504C40.0726 10.287 39.918 10.1766 39.7546 10.2038L39.8532 10.7957ZM41.3039 14.9998L41.2545 14.7039L41.2545 14.7039L41.3039 14.9998ZM34.7039 32.6998C34.7039 32.8655 34.8382 32.9998 35.0039 32.9998C35.1696 32.9998 35.3039 32.8655 35.3039 32.6998H34.7039ZM15.6649 13.0816L15.883 12.8756L15.6649 13.0816ZM47.1212 60.4636L46.912 60.2486L46.912 60.2486L47.1212 60.4636ZM13.7099 44.6588C13.1648 48.612 13.7089 51.374 14.9386 53.8339L15.4753 53.5657C14.3055 51.2256 13.7738 48.5876 14.3042 44.7408L13.7099 44.6588ZM15.8123 27.0535C16.4022 30.2985 16.0198 33.705 15.4144 36.8048C15.1119 38.3537 14.7554 39.8188 14.439 41.1475C14.1238 42.4711 13.8466 43.6668 13.7099 44.6588L14.3042 44.7408C14.4363 43.7828 14.7061 42.616 15.0227 41.2865C15.338 39.9621 15.6979 38.4834 16.0033 36.9198C16.6136 33.7946 17.0125 30.3011 16.4026 26.9462L15.8123 27.0535ZM48.5052 44.7408C49.0356 48.5876 48.5039 51.2256 47.3341 53.5657L47.8708 53.8339C49.1005 51.374 49.6446 48.612 49.0995 44.6588L48.5052 44.7408ZM46.4068 26.9462C45.7969 30.3011 46.1958 33.7946 46.8061 36.9198C47.1115 38.4834 47.4714 39.9621 47.7867 41.2865C48.1033 42.616 48.3731 43.7828 48.5052 44.7408L49.0995 44.6588C48.9628 43.6668 48.6856 42.4711 48.3704 41.1475C48.054 39.8188 47.6975 38.3537 47.395 36.8048C46.7896 33.705 46.4072 30.2985 46.9971 27.0535L46.4068 26.9462ZM44.7995 61.5179C43.6676 61.9296 41.713 62.0734 39.3239 61.9822C36.948 61.8916 34.1834 61.5708 31.4578 61.0804L31.3516 61.6709C34.0994 62.1653 36.8922 62.4899 39.301 62.5818C41.6966 62.6732 43.754 62.5366 45.0046 62.0817L44.7995 61.5179ZM31.4238 54.2992C33.2178 54.185 36.0917 53.6547 38.5201 52.889C39.7334 52.5064 40.8526 52.0598 41.6745 51.5677C42.0851 51.3219 42.4349 51.0569 42.6852 50.772C42.9354 50.4871 43.1047 50.1605 43.1047 49.7998H42.5047C42.5047 49.9641 42.4282 50.1555 42.2344 50.376C42.0407 50.5964 41.7484 50.8242 41.3663 51.053C40.6028 51.5101 39.5345 51.94 38.3396 52.3168C35.9514 53.0699 33.1253 53.5896 31.3856 53.7004L31.4238 54.2992ZM43.1047 49.7998C43.1047 49.459 42.9289 49.1905 42.6771 48.9987C42.4324 48.8122 42.1046 48.6869 41.7448 48.607C41.0223 48.4464 40.0819 48.4495 39.1554 48.6039L39.254 49.1957C40.1276 49.0501 40.9871 49.0532 41.6146 49.1927C41.9298 49.2627 42.1645 49.3624 42.3135 49.4759C42.4556 49.5842 42.5047 49.6906 42.5047 49.7998H43.1047ZM17.8048 62.0817C19.0553 62.5366 21.1129 62.673 23.5085 62.5816C25.9175 62.4897 28.7104 62.1652 31.4578 61.6709L31.3516 61.0804C28.6264 61.5706 25.8617 61.8914 23.4857 61.9821C21.0964 62.0732 19.1416 61.9295 18.0099 61.5179L17.8048 62.0817ZM31.4578 61.6709C34.2668 61.1656 37.0368 60.4814 39.3069 59.6828L39.1078 59.1168C36.8761 59.9019 34.1388 60.579 31.3516 61.0804L31.4578 61.6709ZM5.31633 63.3208C5.68282 63.6413 6.28168 63.8978 6.95577 64.1016C7.64037 64.3086 8.44179 64.4724 9.24647 64.5883C10.0517 64.7043 10.8669 64.7734 11.5806 64.789C12.2874 64.8044 12.9181 64.7681 13.3426 64.662L13.197 64.0799C12.853 64.1659 12.2879 64.2043 11.5937 64.1891C10.9066 64.1741 10.1157 64.1073 9.33203 63.9944C8.54777 63.8814 7.77734 63.7232 7.1294 63.5273C6.47094 63.3282 5.97654 63.1011 5.7113 62.8691L5.31633 63.3208ZM4.84399 46.958C5.66265 42.3805 6.26022 38.0456 6.78571 34.3499C7.31233 30.6464 7.76472 27.5999 8.29282 25.5755L7.71225 25.4241C7.17357 27.489 6.71655 30.5742 6.19169 34.2655C5.6657 37.9646 5.06973 42.2877 4.25336 46.8524L4.84399 46.958ZM4.91544 60.5682C5.18975 60.4467 5.18981 60.4468 5.18985 60.4469C5.18986 60.4469 5.1899 60.447 5.18991 60.4471C5.18993 60.4471 5.18992 60.4471 5.18989 60.447C5.18981 60.4468 5.18961 60.4464 5.1893 60.4457C5.18867 60.4442 5.18758 60.4417 5.18603 60.438C5.18294 60.4307 5.17806 60.419 5.17156 60.4029C5.15856 60.3707 5.13908 60.3208 5.11449 60.2534C5.06532 60.1184 4.99571 59.9128 4.91664 59.6364C4.7585 59.0837 4.56246 58.2475 4.41641 57.1262C4.12436 54.8841 4.03181 51.4993 4.84399 46.958L4.25336 46.8524C3.43051 51.4533 3.52135 54.8999 3.82143 57.2037C3.97145 58.3554 4.17367 59.2209 4.33978 59.8015C4.42283 60.0917 4.49683 60.3108 4.55075 60.4588C4.5777 60.5327 4.59963 60.589 4.61516 60.6274C4.62292 60.6467 4.62908 60.6615 4.63347 60.6718C4.63566 60.677 4.63741 60.6811 4.63869 60.6841C4.63934 60.6855 4.63986 60.6867 4.64027 60.6877C4.64047 60.6881 4.64065 60.6885 4.64079 60.6889C4.64086 60.689 4.64095 60.6892 4.64098 60.6893C4.64106 60.6895 4.64113 60.6896 4.91544 60.5682ZM8.29282 25.5755C9.34684 21.5351 11.5533 17.2769 15.4063 13.7202L14.9994 13.2794C11.0524 16.9227 8.79181 21.2858 7.71225 25.4241L8.29282 25.5755ZM13.3426 64.662C13.7953 64.5488 14.1136 64.3122 14.3246 64.0136C14.5312 63.7211 14.6236 63.3859 14.6605 63.0845C14.6974 62.7821 14.6804 62.4976 14.6554 62.2915C14.6428 62.1877 14.6278 62.1017 14.6159 62.0409C14.6099 62.0105 14.6046 61.9862 14.6006 61.969C14.5987 61.9603 14.597 61.9535 14.5958 61.9485C14.5952 61.946 14.5947 61.9439 14.5943 61.9424C14.5941 61.9416 14.594 61.9409 14.5938 61.9404C14.5938 61.9401 14.5937 61.9399 14.5937 61.9397C14.5936 61.9396 14.5936 61.9394 14.5936 61.9394C14.5936 61.9393 14.5935 61.9391 14.3029 62.0134C14.0122 62.0876 14.0122 62.0875 14.0121 62.0874C14.0121 62.0874 14.0121 62.0873 14.0121 62.0872C14.0121 62.0871 14.0121 62.0871 14.012 62.0871C14.012 62.087 14.012 62.0871 14.0121 62.0872C14.0122 62.0876 14.0124 62.0884 14.0127 62.0896C14.0133 62.0921 14.0143 62.0964 14.0156 62.1023C14.0183 62.1141 14.0224 62.1326 14.0272 62.1569C14.0367 62.2055 14.0492 62.2767 14.0598 62.3639C14.0812 62.5398 14.0941 62.7727 14.0649 63.0117C14.0356 63.2516 13.9658 63.4817 13.8346 63.6674C13.7078 63.8468 13.5127 64.001 13.197 64.0799L13.3426 64.662ZM5.7113 62.8691C5.15802 62.3853 5.03364 61.8449 5.04078 61.4223C5.04442 61.2073 5.08258 61.0212 5.11992 60.8893C5.1385 60.8237 5.1566 60.7724 5.16948 60.7387C5.17592 60.7219 5.18101 60.7096 5.18417 60.7022C5.18575 60.6985 5.18685 60.6961 5.18737 60.6949C5.18764 60.6943 5.18776 60.694 5.18773 60.6941C5.18772 60.6941 5.18767 60.6942 5.18758 60.6944C5.18753 60.6945 5.18747 60.6947 5.18741 60.6948C5.18738 60.6949 5.18732 60.695 5.1873 60.695C5.18725 60.6951 5.18718 60.6953 4.91544 60.5682C4.6437 60.4411 4.64363 60.4412 4.64356 60.4414C4.64354 60.4414 4.64347 60.4416 4.64341 60.4417C4.64331 60.4419 4.64319 60.4422 4.64307 60.4424C4.64282 60.443 4.64253 60.4436 4.6422 60.4443C4.64154 60.4457 4.64073 60.4475 4.63977 60.4497C4.63786 60.4539 4.63537 60.4596 4.63239 60.4666C4.62642 60.4806 4.61846 60.4999 4.60918 60.5241C4.59062 60.5726 4.56663 60.641 4.5426 60.7259C4.49472 60.8951 4.44557 61.1336 4.44087 61.4122C4.43133 61.9768 4.60613 62.6998 5.31633 63.3208L5.7113 62.8691ZM4.78001 60.8359C5.33079 61.1145 6.55968 61.524 8.21525 61.8432C9.87776 62.1639 11.99 62.3974 14.3137 62.3132L14.292 61.7136C12.0201 61.7959 9.95363 61.5674 8.32886 61.2541C6.69716 60.9394 5.53017 60.543 5.05088 60.3005L4.78001 60.8359ZM57.095 62.8691C56.8297 63.1011 56.3353 63.3282 55.6769 63.5273C55.0289 63.7232 54.2585 63.8814 53.4742 63.9944C52.6905 64.1073 51.8997 64.1741 51.2125 64.1891C50.5184 64.2043 49.9533 64.1659 49.6092 64.0799L49.4637 64.662C49.8881 64.7681 50.5188 64.8044 51.2256 64.789C51.9394 64.7734 52.7545 64.7043 53.5598 64.5883C54.3645 64.4724 55.1659 64.3086 55.8505 64.1016C56.5246 63.8978 57.1234 63.6413 57.4899 63.3208L57.095 62.8691ZM58.5529 46.8524C57.7365 42.2877 57.1406 37.9646 56.6146 34.2655C56.0897 30.5742 55.6327 27.489 55.094 25.4241L54.5134 25.5755C55.0415 27.5999 55.4939 30.6464 56.0205 34.3499C56.546 38.0456 57.1436 42.3805 57.9623 46.958L58.5529 46.8524ZM57.8908 60.5682C58.1651 60.6896 58.1652 60.6895 58.1653 60.6893C58.1653 60.6892 58.1654 60.689 58.1655 60.6889C58.1656 60.6885 58.1658 60.6881 58.166 60.6877C58.1664 60.6867 58.1669 60.6855 58.1676 60.6841C58.1688 60.6811 58.1706 60.677 58.1728 60.6718C58.1772 60.6615 58.1833 60.6467 58.1911 60.6274C58.2066 60.589 58.2286 60.5327 58.2555 60.4588C58.3094 60.3108 58.3834 60.0917 58.4665 59.8015C58.6326 59.2209 58.8348 58.3554 58.9848 57.2037C59.2849 54.8999 59.3757 51.4533 58.5529 46.8524L57.9623 46.958C58.7744 51.4993 58.6819 54.8841 58.3898 57.1262C58.2438 58.2475 58.0478 59.0837 57.8896 59.6364C57.8105 59.9128 57.7409 60.1184 57.6918 60.2534C57.6672 60.3208 57.6477 60.3707 57.6347 60.4029C57.6282 60.419 57.6233 60.4307 57.6202 60.438C57.6187 60.4417 57.6176 60.4442 57.617 60.4457C57.6166 60.4464 57.6164 60.4468 57.6164 60.447C57.6163 60.4471 57.6163 60.4471 57.6163 60.4471C57.6164 60.447 57.6164 60.4469 57.6164 60.4469C57.6164 60.4468 57.6165 60.4467 57.8908 60.5682ZM55.094 25.4241C54.0144 21.2858 51.7538 16.9227 47.8069 13.2794L47.3999 13.7202C51.253 17.2769 53.4594 21.5351 54.5134 25.5755L55.094 25.4241ZM49.6092 64.0799C49.2935 64.001 49.0984 63.8468 48.9717 63.6674C48.8405 63.4817 48.7707 63.2516 48.7414 63.0117C48.7122 62.7727 48.7251 62.5398 48.7465 62.3639C48.7571 62.2767 48.7695 62.2055 48.7791 62.1569C48.7839 62.1326 48.7879 62.1141 48.7906 62.1023C48.792 62.0964 48.793 62.0921 48.7936 62.0896C48.7939 62.0884 48.7941 62.0876 48.7942 62.0872C48.7942 62.0871 48.7942 62.087 48.7942 62.0871C48.7942 62.0871 48.7942 62.0871 48.7942 62.0872C48.7941 62.0873 48.7941 62.0874 48.7941 62.0874C48.7941 62.0875 48.7941 62.0876 48.5034 62.0134C48.2127 61.9391 48.2127 61.9393 48.2127 61.9394C48.2126 61.9394 48.2126 61.9396 48.2126 61.9397C48.2125 61.9399 48.2125 61.9401 48.2124 61.9404C48.2123 61.9409 48.2121 61.9416 48.2119 61.9424C48.2115 61.9439 48.211 61.946 48.2104 61.9485C48.2092 61.9535 48.2076 61.9603 48.2056 61.969C48.2017 61.9862 48.1964 62.0105 48.1904 62.0409C48.1784 62.1017 48.1635 62.1877 48.1509 62.2915C48.1258 62.4976 48.1088 62.7821 48.1458 63.0845C48.1826 63.3859 48.275 63.7211 48.4816 64.0136C48.6927 64.3122 49.0109 64.5488 49.4637 64.662L49.6092 64.0799ZM57.4899 63.3208C58.2001 62.6998 58.3749 61.9768 58.3654 61.4122C58.3607 61.1336 58.3115 60.8951 58.2637 60.7259C58.2396 60.641 58.2156 60.5726 58.1971 60.5241C58.1878 60.4999 58.1798 60.4806 58.1739 60.4666C58.1709 60.4596 58.1684 60.4539 58.1665 60.4497C58.1655 60.4475 58.1647 60.4458 58.1641 60.4443C58.1637 60.4436 58.1634 60.443 58.1632 60.4424C58.1631 60.4422 58.1629 60.4419 58.1628 60.4417C58.1628 60.4416 58.1627 60.4414 58.1627 60.4414C58.1626 60.4412 58.1626 60.4411 57.8908 60.5682C57.6191 60.6953 57.619 60.6951 57.6189 60.695C57.6189 60.695 57.6189 60.6949 57.6188 60.6948C57.6188 60.6947 57.6187 60.6945 57.6187 60.6944C57.6186 60.6942 57.6185 60.6941 57.6185 60.6941C57.6185 60.694 57.6186 60.6943 57.6189 60.6949C57.6194 60.6961 57.6205 60.6985 57.6221 60.7022C57.6252 60.7096 57.6303 60.7219 57.6368 60.7387C57.6497 60.7724 57.6678 60.8237 57.6863 60.8893C57.7237 61.0212 57.7618 61.2073 57.7655 61.4223C57.7726 61.8449 57.6482 62.3853 57.095 62.8691L57.4899 63.3208ZM57.7554 60.3005C57.2761 60.543 56.1091 60.9394 54.4774 61.2541C52.8526 61.5674 50.7862 61.7959 48.5143 61.7136L48.4925 62.3132C50.8163 62.3974 52.9285 62.1639 54.591 61.8432C56.2466 61.524 57.4755 61.1145 58.0262 60.8359L57.7554 60.3005ZM22.9546 10.7957C24.6791 11.0831 26.725 12.2451 28.1918 13.7119L28.616 13.2876C27.0829 11.7545 24.9287 10.5164 23.0532 10.2039L22.9546 10.7957ZM28.1918 13.7119C29.709 15.2291 31.1037 16.6435 31.1039 18.7498L31.7039 18.7498C31.7037 16.3561 30.0989 14.7705 28.616 13.2876L28.1918 13.7119ZM15.2039 11.0998C15.2039 9.57466 16.1059 8.2254 17.3866 7.12758C18.664 6.03272 20.2777 5.22476 21.5988 4.78441L21.409 4.2152C20.0301 4.67485 18.3438 5.51689 16.9962 6.67203C15.652 7.82421 14.6039 9.32495 14.6039 11.0998H15.2039ZM21.5988 4.78441C24.2543 3.89925 26.8283 3.5998 31.4039 3.5998V2.9998C26.8018 2.9998 24.1536 3.30036 21.409 4.2152L21.5988 4.78441ZM28.7119 17.067C28.4058 18.3678 28.1046 21.0209 27.8798 23.9611C27.6544 26.9086 27.5039 30.1701 27.5039 32.6998H28.1039C28.1039 30.1895 28.2534 26.944 28.478 24.0069C28.7032 21.0625 29.002 18.4536 29.2959 17.2044L28.7119 17.067ZM39.7546 10.2038C37.8791 10.5164 35.725 11.7544 34.1918 13.2876L34.616 13.7119C36.0829 12.2451 38.1287 11.0831 39.8532 10.7957L39.7546 10.2038ZM34.1918 13.2876C32.709 14.7705 31.1041 16.3561 31.1039 18.7498L31.7039 18.7498C31.7041 16.6435 33.0989 15.2291 34.616 13.7119L34.1918 13.2876ZM48.2039 11.0998C48.2039 9.32494 47.1559 7.82419 45.8116 6.67201C44.464 5.51687 42.7777 4.67484 41.3988 4.21518L41.209 4.78439C42.5301 5.22474 44.1438 6.03271 45.4212 7.12757C46.702 8.22539 47.6039 9.57464 47.6039 11.0998H48.2039ZM41.3988 4.21518C38.6543 3.30034 36.006 2.9998 31.4039 2.9998V3.5998C35.9795 3.5998 38.5536 3.89923 41.209 4.78439L41.3988 4.21518ZM33.4479 17.2348C33.7421 18.4852 34.0568 21.0878 34.2979 24.0237C34.5385 26.9533 34.7039 30.1905 34.7039 32.6998H35.3039C35.3039 30.169 35.1373 26.9145 34.8959 23.9746C34.655 21.0413 34.3377 18.397 34.0319 17.0974L33.4479 17.2348ZM21.4545 15.2957C22.9882 15.5517 26.3581 16.219 28.8759 17.407L29.1319 16.8644C26.5338 15.6385 23.0932 14.961 21.5533 14.7039L21.4545 15.2957ZM28.8759 17.407C29.8325 17.8584 30.6435 18.3747 31.1846 18.9545L31.6232 18.5451C31.0078 17.8857 30.1194 17.3303 29.1319 16.8644L28.8759 17.407ZM41.2545 14.7039C39.702 14.963 36.2163 15.6498 33.6105 16.8954L33.8693 17.4368C36.3932 16.2302 39.8065 15.5539 41.3533 15.2957L41.2545 14.7039ZM33.6105 16.8954C32.6496 17.3548 31.7866 17.9001 31.1846 18.5451L31.6232 18.9545C32.1523 18.3876 32.9396 17.8812 33.8693 17.4368L33.6105 16.8954ZM14.6039 11.0998C14.6039 12.0195 14.9256 12.736 15.4469 13.2877L15.883 12.8756C15.4653 12.4336 15.2039 11.8639 15.2039 11.0998H14.6039ZM15.4469 13.2877C16.194 14.0783 17.3303 14.5087 18.4352 14.7773C19.5394 15.0458 20.6905 15.1682 21.4545 15.2957L21.5533 14.7039C20.7376 14.5677 19.6546 14.4563 18.577 14.1943C17.5001 13.9325 16.5067 13.5356 15.883 12.8756L15.4469 13.2877ZM15.4063 13.7202C15.5589 13.5794 15.7115 13.4414 15.864 13.3061L15.4659 12.8572C15.3104 12.9951 15.1549 13.1358 14.9994 13.2794L15.4063 13.7202ZM47.6039 11.0998C47.6039 11.8642 47.3423 12.4341 46.9242 12.8763L47.3601 13.2885C47.8819 12.7367 48.2039 12.02 48.2039 11.0998H47.6039ZM46.9242 12.8763C46.3003 13.536 45.307 13.9327 44.2303 14.1945C43.1528 14.4564 42.0701 14.5677 41.2545 14.7039L41.3533 15.2957C42.1172 15.1682 43.268 15.0458 44.372 14.7775C45.4768 14.5089 46.6128 14.0788 47.3601 13.2885L46.9242 12.8763ZM47.8069 13.2794C47.6517 13.1361 47.4965 12.9956 47.3412 12.858L46.9431 13.3068C47.0953 13.4419 47.2476 13.5797 47.3999 13.7202L47.8069 13.2794ZM48.5034 62.0134C48.6917 61.7798 48.6917 61.7799 48.6918 61.7799C48.6918 61.7799 48.6918 61.7799 48.6919 61.78C48.6919 61.78 48.692 61.78 48.692 61.7801C48.6921 61.7801 48.6921 61.7801 48.6921 61.7801C48.692 61.7801 48.6919 61.78 48.6916 61.7797C48.691 61.7792 48.6898 61.7782 48.688 61.7768C48.6846 61.7739 48.6788 61.7691 48.671 61.7624C48.6553 61.7491 48.6311 61.728 48.5992 61.6991C48.5354 61.6413 48.4407 61.5521 48.3215 61.4297C48.0831 61.1851 47.7467 60.8082 47.3629 60.286L46.8794 60.6413C47.2807 61.1874 47.6354 61.5853 47.8918 61.8485C48.0201 61.9801 48.1237 62.0779 48.1964 62.1438C48.2328 62.1767 48.2613 62.2016 48.2814 62.2187C48.2914 62.2273 48.2993 62.2339 48.305 62.2386C48.3078 62.2409 48.31 62.2428 48.3117 62.2442C48.3126 62.2449 48.3133 62.2455 48.3139 62.2459C48.3141 62.2461 48.3144 62.2463 48.3146 62.2465C48.3147 62.2466 48.3148 62.2467 48.3149 62.2467C48.3149 62.2468 48.315 62.2468 48.315 62.2468C48.315 62.2469 48.3151 62.2469 48.5034 62.0134ZM47.3341 53.834C48.6423 56.45 48.45 58.7524 46.912 60.2486L47.3304 60.6787C49.1207 58.9371 49.2494 56.3226 47.8708 53.5656L47.3341 53.834ZM46.912 60.2486C46.3811 60.765 45.6797 61.1977 44.7995 61.5179L45.0046 62.0817C45.9515 61.7373 46.7295 61.2632 47.3304 60.6787L46.912 60.2486ZM14.3029 62.0134C14.4912 62.2469 14.4912 62.2469 14.4913 62.2468C14.4913 62.2468 14.4913 62.2468 14.4914 62.2467C14.4915 62.2467 14.4916 62.2466 14.4917 62.2465C14.4919 62.2463 14.4921 62.2461 14.4924 62.2459C14.493 62.2455 14.4937 62.2449 14.4945 62.2442C14.4962 62.2428 14.4985 62.2409 14.5013 62.2386C14.507 62.2339 14.5149 62.2273 14.5249 62.2187C14.545 62.2016 14.5736 62.1766 14.61 62.1437C14.6827 62.0778 14.7865 61.9798 14.9148 61.8481C15.1715 61.5846 15.5265 61.1862 15.9281 60.6395L15.4446 60.2843C15.0605 60.8071 14.7237 61.1844 14.4851 61.4293C14.3658 61.5518 14.271 61.6411 14.2071 61.699C14.1752 61.728 14.151 61.749 14.1353 61.7624C14.1274 61.7691 14.1217 61.7739 14.1182 61.7768C14.1165 61.7782 14.1153 61.7792 14.1147 61.7797C14.1144 61.78 14.1142 61.7801 14.1142 61.7801C14.1142 61.7801 14.1142 61.7801 14.1143 61.7801C14.1143 61.78 14.1143 61.78 14.1144 61.78C14.1144 61.7799 14.1145 61.7799 14.1145 61.7799C14.1145 61.7799 14.1146 61.7798 14.3029 62.0134ZM14.9386 53.5656C13.5605 56.3216 13.6886 58.9352 15.4771 60.6768L15.8957 60.247C14.3593 58.7508 14.1676 56.4491 15.4753 53.834L14.9386 53.5656ZM15.4771 60.6768C16.0782 61.2622 16.8569 61.7369 17.8048 62.0817L18.0099 61.5179C17.1288 61.1974 16.4267 60.7641 15.8957 60.247L15.4771 60.6768Z" stroke="#1E1E1E" stroke-width="0.6"/>
</svg>
