<svg width="63" height="84" viewBox="0 0 63 84" fill="none" xmlns="http://www.w3.org/2000/svg">
<path d="M17.1035 26.9998C17.5246 30.7888 16.7639 32.541 16.2034 35.3998C15.5801 38.579 15.8888 42.4218 19.2645 43.7143M45.2997 26.9998C44.8786 30.7888 45.6393 32.541 46.1998 35.3998C46.8233 38.58 46.5143 42.4242 43.1355 43.7155M31.2017 43.4417C35.9747 44.3285 40.5942 44.5683 42.8997 43.7998C42.9799 43.7731 43.0585 43.745 43.1355 43.7155M31.2017 43.4417C26.4293 44.3282 21.8087 44.5682 19.5035 43.7998C19.4222 43.7727 19.3426 43.7442 19.2645 43.7143M31.2017 43.4417C33.8824 42.9437 36.611 42.2417 39.0041 41.3998M31.2017 35.9998C34.7353 35.7748 42.6017 33.8998 42.6017 31.7998C42.6017 30.8998 40.8017 30.5998 39.0017 30.8998M4.71232 60.5682C4.71232 60.5682 2.71052 56.0473 4.34555 46.9052C5.98058 37.7631 6.73263 29.5892 7.79941 25.4998C8.8662 21.4105 11.0997 17.0998 14.9997 13.4998C15.1538 13.3576 15.3078 13.2182 15.4618 13.0816M4.71232 60.5682C4.71232 60.5682 4.04721 61.9901 5.31069 63.095C6.57417 64.1998 11.5297 64.7552 13.0667 64.3709C14.6036 63.9867 14.0997 62.0134 14.0997 62.0134M4.71232 60.5682C5.74239 61.0893 9.50408 62.1799 14.0997 62.0134M14.0997 62.0134C14.0997 62.0134 16.3103 60.2311 17.8169 55.916C18.6171 53.6241 19.042 49.2151 19.2645 43.7143M57.6877 60.5682C57.6877 60.5682 59.6895 56.0473 58.0545 46.9052C56.4194 37.7631 55.6674 29.5892 54.6006 25.4998C53.5338 21.4105 51.3003 17.0998 47.4003 13.4998C47.2465 13.3579 47.0928 13.2188 46.939 13.0824M57.6877 60.5682C57.6877 60.5682 58.3528 61.9901 57.0893 63.095C55.8258 64.1998 50.8703 64.7552 49.3333 64.3709C47.7964 63.9867 48.3003 62.0134 48.3003 62.0134M57.6877 60.5682C56.6576 61.0893 52.8959 62.1799 48.3003 62.0134M48.3003 62.0134C48.3003 62.0134 46.0897 60.2311 44.5831 55.916C43.783 53.6242 43.3581 49.2157 43.1355 43.7155M22.8008 10.4998C24.6008 10.7998 26.7008 11.9998 28.2008 13.4998C29.7008 14.9998 31.2006 16.4998 31.2008 18.7498M31.2008 18.7498C31.201 16.4998 32.7008 14.9998 34.2008 13.4998C35.7008 11.9998 37.8008 10.7998 39.6008 10.4998M31.2008 18.7498C30.6225 18.1302 29.7728 17.5944 28.8008 17.1357M31.2008 18.7498C31.7663 18.1439 32.5915 17.618 33.5368 17.1661M28.8008 17.1357C28.2008 19.6857 27.6008 27.6598 27.6008 32.6998M28.8008 17.1357C26.2429 15.9287 22.8376 15.2563 21.3008 14.9998C19.721 14.7361 16.8327 14.5323 15.4618 13.0816M33.5368 17.1661C34.1368 19.7161 34.8008 27.6598 34.8008 32.6998M33.5368 17.1661C36.1016 15.94 39.5511 15.2585 41.1008 14.9998C42.6803 14.7361 45.5678 14.5324 46.939 13.0824M15.4618 13.0816C14.9923 12.5848 14.7008 11.9417 14.7008 11.0998C14.7008 7.7998 18.6008 5.3998 21.3008 4.4998C24.0008 3.5998 26.6119 3.2998 31.2008 3.2998C35.7896 3.2998 38.4008 3.59979 41.1008 4.49979C43.8008 5.39979 47.7008 7.79979 47.7008 11.0998C47.7008 11.9421 47.409 12.5854 46.939 13.0824" stroke="#1E1E1E" stroke-width="0.6" stroke-linecap="round"/>
</svg>
