<svg width="63" height="84" viewBox="0 0 63 84" fill="none" xmlns="http://www.w3.org/2000/svg">
<path d="M16.1075 26.9998C17.3072 33.5998 14.5448 40.7998 14.0071 44.6998C13.4693 48.5998 14.0072 51.2998 15.207 53.6998C13.8641 56.3853 14.0239 58.843 15.6864 60.4619M46.7019 26.9998C45.5022 33.5998 48.2646 40.7998 48.8023 44.6998C49.3401 48.5998 48.8022 51.2998 47.6024 53.6998C48.9458 56.3863 48.7853 58.8448 47.1212 60.4636M31.4047 61.3757C36.8781 62.3605 42.5195 62.6664 44.9021 61.7998C45.8156 61.4675 46.5553 61.0141 47.1212 60.4636M31.4047 61.3757C25.932 62.3601 20.2896 62.6663 17.9073 61.7998C16.9928 61.4672 16.2525 61.0132 15.6864 60.4619M31.4047 61.3757C34.2028 60.8723 36.9565 60.1917 39.2073 59.3998M31.4047 53.9998C34.9384 53.7748 42.8047 51.8998 42.8047 49.7998C42.8047 48.8998 41.0047 48.5998 39.2047 48.8998M4.91544 60.5682C4.91544 60.5682 2.91364 56.0473 4.54868 46.9052C6.18371 37.7631 6.93575 29.5892 8.00254 25.4998C9.06933 21.4105 11.3029 17.0998 15.2029 13.4998C15.3569 13.3576 15.5109 13.2182 15.6649 13.0816M4.91544 60.5682C4.91544 60.5682 4.25034 61.9901 5.51381 63.095C6.77729 64.1998 11.7328 64.7552 13.2698 64.3709C14.8067 63.9867 14.3029 62.0134 14.3029 62.0134M4.91544 60.5682C5.94552 61.0893 9.7072 62.1799 14.3029 62.0134M14.3029 62.0134C14.3029 62.0134 14.9006 61.5314 15.6864 60.4619M57.8908 60.5682C57.8908 60.5682 59.8926 56.0473 58.2576 46.9052C56.6225 37.7631 55.8705 29.5892 54.8037 25.4998C53.7369 21.4105 51.5034 17.0998 47.6034 13.4998C47.4496 13.3579 47.2959 13.2188 47.1422 13.0824M57.8908 60.5682C57.8908 60.5682 58.5559 61.9901 57.2924 63.095C56.029 64.1998 51.0734 64.7552 49.5365 64.3709C47.9995 63.9867 48.5034 62.0134 48.5034 62.0134M57.8908 60.5682C56.8607 61.0893 53.0991 62.1799 48.5034 62.0134M48.5034 62.0134C48.5034 62.0134 47.9063 61.5319 47.1212 60.4636M23.0039 10.4998C24.8039 10.7998 26.9039 11.9998 28.4039 13.4998C29.9039 14.9998 31.4037 16.4998 31.4039 18.7498M31.4039 18.7498C31.4041 16.4998 32.9039 14.9998 34.4039 13.4998C35.9039 11.9998 38.0039 10.7998 39.8039 10.4998M31.4039 18.7498C30.8256 18.1302 29.976 17.5944 29.0039 17.1357M31.4039 18.7498C31.9695 18.1439 32.7946 17.618 33.7399 17.1661M29.0039 17.1357C28.4039 19.6857 27.8039 27.6598 27.8039 32.6998M29.0039 17.1357C26.446 15.9287 23.0407 15.2563 21.5039 14.9998C19.9242 14.7361 17.0358 14.5323 15.6649 13.0816M33.7399 17.1661C34.3399 19.7161 35.0039 27.6598 35.0039 32.6998M33.7399 17.1661C36.3047 15.94 39.7543 15.2585 41.3039 14.9998C42.8834 14.7361 45.771 14.5324 47.1422 13.0824M15.6649 13.0816C15.1954 12.5848 14.9039 11.9417 14.9039 11.0998C14.9039 7.7998 18.8039 5.3998 21.5039 4.4998C24.2039 3.5998 26.8151 3.2998 31.4039 3.2998C35.9927 3.2998 38.6039 3.59979 41.3039 4.49979C44.0039 5.39979 47.9039 7.79979 47.9039 11.0998C47.9039 11.9421 47.6121 12.5854 47.1422 13.0824" stroke="#1E1E1E" stroke-width="0.6" stroke-linecap="round"/>
</svg>
