<svg width="64" height="84" viewBox="0 0 64 84" fill="none" xmlns="http://www.w3.org/2000/svg">
<path d="M17.6957 26.9998C18.2957 33.5998 14.0957 37.4998 16.4965 42.5998C15.2957 44.6998 14.9951 48.7903 18.5953 50.0998C18.8398 50.1887 19.1173 50.2667 19.4242 50.3341M45.8951 26.9998C45.295 33.5998 49.495 37.4998 47.0943 42.5998C48.295 44.6998 48.5956 48.7903 44.9954 50.0998C44.7501 50.189 44.4715 50.2672 44.1634 50.3348M31.7954 49.9087C34.5746 49.4501 37.3239 48.7991 39.5959 47.9998M31.7954 49.9087C26.9888 50.7019 22.0932 50.9197 19.4242 50.3341M31.7954 49.9087C36.6001 50.7016 41.4937 50.9195 44.1634 50.3348M31.7954 43.1998C35.3291 42.9748 43.1954 41.0998 43.1954 38.9998C43.1954 38.0998 41.3954 37.7998 39.5954 38.0998M5.30607 60.5682C5.30607 60.5682 3.30427 56.0473 4.9393 46.9052C6.57433 37.7631 7.32638 29.5892 8.39316 25.4998C9.45995 21.4105 11.6935 17.0998 15.5935 13.4998C15.7475 13.3576 15.9015 13.2182 16.0556 13.0816M5.30607 60.5682C5.30607 60.5682 4.64096 61.9901 5.90444 63.095C7.16792 64.1998 12.1235 64.7552 13.6604 64.3709C15.1974 63.9867 14.6935 62.0134 14.6935 62.0134M5.30607 60.5682C6.33614 61.0893 10.0978 62.1799 14.6935 62.0134M14.6935 62.0134C14.6935 62.0134 16.9041 60.2311 18.4107 55.916C18.8538 54.6466 19.1819 52.7279 19.4242 50.3341M58.2814 60.5682C58.2814 60.5682 60.2832 56.0473 58.6482 46.9052C57.0132 37.7631 56.2611 29.5892 55.1943 25.4998C54.1276 21.4105 51.894 17.0998 47.994 13.4998C47.8403 13.3579 47.6865 13.2188 47.5328 13.0824M58.2814 60.5682C58.2814 60.5682 58.9465 61.9901 57.6831 63.095C56.4196 64.1998 51.464 64.7552 49.9271 64.3709C48.3901 63.9867 48.894 62.0134 48.894 62.0134M58.2814 60.5682C57.2514 61.0893 53.4897 62.1799 48.894 62.0134M48.894 62.0134C48.894 62.0134 46.6834 60.2311 45.1768 55.916C44.7337 54.6468 44.4057 52.7283 44.1634 50.3348M23.3945 10.4998C25.1945 10.7998 27.2945 11.9998 28.7945 13.4998C30.2945 14.9998 31.7943 16.4998 31.7945 18.7498M31.7945 18.7498C31.7947 16.4998 33.2945 14.9998 34.7945 13.4998C36.2945 11.9998 38.3945 10.7998 40.1945 10.4998M31.7945 18.7498C31.2163 18.1302 30.3666 17.5944 29.3945 17.1357M31.7945 18.7498C32.3601 18.1439 33.1852 17.618 34.1305 17.1661M29.3945 17.1357C28.7945 19.6857 28.1945 27.6598 28.1945 32.6998M29.3945 17.1357C26.8366 15.9287 23.4313 15.2563 21.8945 14.9998C20.3148 14.7361 17.4265 14.5323 16.0556 13.0816M34.1305 17.1661C34.7305 19.7161 35.3945 27.6598 35.3945 32.6998M34.1305 17.1661C36.6954 15.94 40.1449 15.2585 41.6945 14.9998C43.274 14.7361 46.1616 14.5324 47.5328 13.0824M47.5328 13.0824C48.0027 12.5854 48.2945 11.9421 48.2945 11.0998C48.2945 7.79979 44.3945 5.39979 41.6945 4.49979C38.9945 3.59979 36.3834 3.2998 31.7945 3.2998C27.2057 3.2998 24.5945 3.5998 21.8945 4.4998C19.1945 5.3998 15.2945 7.7998 15.2945 11.0998C15.2945 11.9417 15.5861 12.5848 16.0556 13.0816" stroke="#1E1E1E" stroke-width="0.6" stroke-linecap="round"/>
</svg>
