<svg width="63" height="84" viewBox="0 0 63 84" fill="none" xmlns="http://www.w3.org/2000/svg">
<path d="M17.4017 26.9667C17.3834 26.802 17.2351 26.6833 17.0704 26.7016C16.9057 26.7199 16.7871 26.8683 16.8054 27.0329L17.4017 26.9667ZM16.2034 35.3998L16.4978 35.4575L16.4978 35.4575L16.2034 35.3998ZM19.5035 43.7998L19.4087 44.0844L19.4087 44.0844L19.5035 43.7998ZM45.5979 27.0329C45.6162 26.8683 45.4975 26.7199 45.3328 26.7016C45.1682 26.6833 45.0198 26.802 45.0015 26.9667L45.5979 27.0329ZM46.1998 35.3998L46.4942 35.3421L46.4942 35.3421L46.1998 35.3998ZM42.8997 43.7998L42.9946 44.0844L42.9946 44.0844L42.8997 43.7998ZM31.2017 43.4417L31.1469 43.1467L31.1469 43.1467L31.2017 43.4417ZM31.1826 35.7004C31.0173 35.7109 30.8917 35.8535 30.9023 36.0189C30.9128 36.1842 31.0554 36.3097 31.2207 36.2992L31.1826 35.7004ZM38.9524 30.6039C38.7889 30.6311 38.6785 30.7857 38.7058 30.9491C38.733 31.1126 38.8876 31.223 39.051 31.1957L38.9524 30.6039ZM39.1037 41.6828C39.26 41.6278 39.3421 41.4565 39.2871 41.3002C39.2321 41.144 39.0608 41.0618 38.9046 41.1168L39.1037 41.6828ZM5.31069 63.095L5.11321 63.3208L5.11321 63.3208L5.31069 63.095ZM13.0667 64.3709L12.9939 64.0799L12.9939 64.0799L13.0667 64.3709ZM4.34555 46.9052L4.05024 46.8524L4.05024 46.8524L4.34555 46.9052ZM7.79941 25.4998L7.50913 25.4241L7.79941 25.4998ZM14.9997 13.4998L14.7962 13.2794L14.7962 13.2794L14.9997 13.4998ZM17.8169 55.916L17.5337 55.8171L17.5337 55.8171L17.8169 55.916ZM57.0893 63.095L57.2868 63.3208L57.2868 63.3208L57.0893 63.095ZM49.3333 64.3709L49.4061 64.0799L49.4061 64.0799L49.3333 64.3709ZM58.0545 46.9052L58.3498 46.8524L58.3498 46.8524L58.0545 46.9052ZM54.6006 25.4998L54.8909 25.4241L54.8909 25.4241L54.6006 25.4998ZM47.4003 13.4998L47.6038 13.2794L47.6038 13.2794L47.4003 13.4998ZM44.5831 55.916L44.8663 55.8171L44.8663 55.8171L44.5831 55.916ZM22.8501 10.2039C22.6867 10.1766 22.5321 10.287 22.5049 10.4505C22.4776 10.6139 22.588 10.7685 22.7515 10.7957L22.8501 10.2039ZM31.2008 18.7498L30.9815 18.9545C31.0382 19.0153 31.1176 19.0498 31.2008 19.0498C31.2839 19.0498 31.3634 19.0153 31.4201 18.9545L31.2008 18.7498ZM21.3008 14.9998L21.2514 15.2957L21.2514 15.2957L21.3008 14.9998ZM21.3008 4.4998L21.3956 4.78441L21.3956 4.78441L21.3008 4.4998ZM27.3008 32.6998C27.3008 32.8655 27.4351 32.9998 27.6008 32.9998C27.7665 32.9998 27.9008 32.8655 27.9008 32.6998H27.3008ZM39.6501 10.7957C39.8135 10.7684 39.9239 10.6139 39.8967 10.4504C39.8695 10.287 39.7149 10.1766 39.5515 10.2038L39.6501 10.7957ZM41.1008 14.9998L41.0514 14.7039L41.0514 14.7039L41.1008 14.9998ZM34.5008 32.6998C34.5008 32.8655 34.6351 32.9998 34.8008 32.9998C34.9665 32.9998 35.1008 32.8655 35.1008 32.6998H34.5008ZM15.4618 13.0816L15.6799 12.8756L15.6799 12.8756L15.4618 13.0816ZM43.1355 43.7155L43.0284 43.4353L43.0284 43.4353L43.1355 43.7155ZM19.2645 43.7143L19.3718 43.4342L19.2645 43.7143ZM16.8054 27.0329C17.2198 30.7623 16.4767 32.4466 15.909 35.3421L16.4978 35.4575C17.0511 32.6355 17.8294 30.8153 17.4017 26.9667L16.8054 27.0329ZM45.0015 26.9667C44.5739 30.8153 45.3521 32.6355 45.9054 35.4575L46.4942 35.3421C45.9265 32.4466 45.1834 30.7623 45.5979 27.0329L45.0015 26.9667ZM42.8048 43.5152C41.7046 43.8819 40.0173 44.0161 37.987 43.9417C35.965 43.8676 33.6318 43.5881 31.2565 43.1467L31.1469 43.7366C33.5446 44.1821 35.9077 44.4659 37.965 44.5413C40.0141 44.6164 41.7893 44.4861 42.9946 44.0844L42.8048 43.5152ZM31.2207 36.2992C33.0147 36.185 35.8887 35.6547 38.317 34.889C39.5304 34.5064 40.6496 34.0598 41.4715 33.5677C41.882 33.3219 42.2318 33.0569 42.4821 32.772C42.7324 32.4871 42.9017 32.1605 42.9017 31.7998H42.3017C42.3017 31.9641 42.2251 32.1555 42.0314 32.376C41.8377 32.5964 41.5453 32.8242 41.1632 33.053C40.3998 33.5101 39.3315 33.94 38.1366 34.3168C35.7483 35.0699 32.9223 35.5896 31.1826 35.7004L31.2207 36.2992ZM42.9017 31.7998C42.9017 31.459 42.7258 31.1905 42.4741 30.9987C42.2294 30.8122 41.9015 30.6869 41.5417 30.6069C40.8193 30.4464 39.8788 30.4495 38.9524 30.6039L39.051 31.1957C39.9245 31.0501 40.7841 31.0532 41.4116 31.1927C41.7268 31.2627 41.9614 31.3624 42.1105 31.4759C42.2525 31.5841 42.3017 31.6906 42.3017 31.7998H42.9017ZM19.4087 44.0844C20.6138 44.4861 22.3892 44.6162 24.4384 44.5411C26.4959 44.4657 28.8591 44.182 31.2565 43.7366L31.1469 43.1467C28.7719 43.5879 26.4386 43.8674 24.4164 43.9415C22.3859 44.016 20.6985 43.8819 19.5984 43.5152L19.4087 44.0844ZM31.2565 43.7366C33.9499 43.2363 36.6938 42.5306 39.1037 41.6828L38.9046 41.1168C36.5283 41.9528 33.8149 42.6511 31.1469 43.1467L31.2565 43.7366ZM5.11321 63.3208C5.4797 63.6413 6.07855 63.8978 6.75264 64.1016C7.43725 64.3086 8.23867 64.4724 9.04335 64.5883C9.84861 64.7043 10.6638 64.7734 11.3775 64.789C12.0843 64.8044 12.715 64.7681 13.1394 64.662L12.9939 64.0799C12.6499 64.1659 12.0848 64.2043 11.3906 64.1891C10.7035 64.1741 9.91258 64.1073 9.12891 63.9944C8.34464 63.8814 7.57421 63.7232 6.92627 63.5273C6.26781 63.3282 5.77342 63.1011 5.50817 62.8691L5.11321 63.3208ZM4.64087 46.958C5.45953 42.3805 6.0571 38.0456 6.58259 34.3499C7.1092 30.6464 7.56159 27.5999 8.0897 25.5755L7.50913 25.4241C6.97045 27.489 6.51342 30.5742 5.98856 34.2655C5.46258 37.9646 4.86661 42.2877 4.05024 46.8524L4.64087 46.958ZM4.71232 60.5682C4.98663 60.4467 4.98668 60.4468 4.98673 60.4469C4.98673 60.4469 4.98677 60.447 4.98679 60.4471C4.98681 60.4471 4.9868 60.4471 4.98676 60.447C4.98668 60.4468 4.98649 60.4464 4.98617 60.4457C4.98555 60.4442 4.98445 60.4417 4.98291 60.438C4.97982 60.4307 4.97494 60.419 4.96844 60.4029C4.95544 60.3707 4.93596 60.3208 4.91137 60.2534C4.8622 60.1184 4.79258 59.9128 4.71351 59.6364C4.55538 59.0837 4.35934 58.2475 4.21328 57.1262C3.92123 54.8841 3.82869 51.4993 4.64087 46.958L4.05024 46.8524C3.22739 51.4533 3.31822 54.8999 3.61831 57.2037C3.76833 58.3554 3.97055 59.2209 4.13665 59.8015C4.2197 60.0917 4.29371 60.3108 4.34762 60.4588C4.37458 60.5327 4.39651 60.589 4.41203 60.6274C4.41979 60.6467 4.42596 60.6615 4.43034 60.6718C4.43254 60.677 4.43428 60.6811 4.43557 60.6841C4.43621 60.6855 4.43674 60.6867 4.43714 60.6877C4.43735 60.6881 4.43752 60.6885 4.43766 60.6889C4.43774 60.689 4.43782 60.6892 4.43786 60.6893C4.43794 60.6895 4.43801 60.6896 4.71232 60.5682ZM8.0897 25.5755C9.14371 21.5351 11.3501 17.2769 15.2032 13.7202L14.7962 13.2794C10.8493 16.9227 8.58869 21.2858 7.50913 25.4241L8.0897 25.5755ZM13.1394 64.662C13.5922 64.5488 13.9105 64.3122 14.1215 64.0136C14.3281 63.7211 14.4205 63.3859 14.4573 63.0845C14.4943 62.7821 14.4773 62.4976 14.4523 62.2915C14.4396 62.1877 14.4247 62.1017 14.4127 62.0409C14.4067 62.0105 14.4014 61.9862 14.3975 61.969C14.3956 61.9603 14.3939 61.9535 14.3927 61.9485C14.3921 61.946 14.3916 61.9439 14.3912 61.9424C14.391 61.9416 14.3909 61.9409 14.3907 61.9404C14.3907 61.9401 14.3906 61.9399 14.3905 61.9397C14.3905 61.9396 14.3905 61.9394 14.3905 61.9394C14.3904 61.9393 14.3904 61.9391 14.0997 62.0134C13.8091 62.0876 13.809 62.0875 13.809 62.0874C13.809 62.0874 13.809 62.0873 13.809 62.0872C13.8089 62.0871 13.8089 62.0871 13.8089 62.0871C13.8089 62.087 13.8089 62.0871 13.809 62.0872C13.809 62.0876 13.8092 62.0884 13.8095 62.0896C13.8102 62.0921 13.8112 62.0964 13.8125 62.1023C13.8152 62.1141 13.8193 62.1326 13.824 62.1569C13.8336 62.2055 13.846 62.2767 13.8566 62.3639C13.878 62.5398 13.891 62.7727 13.8618 63.0117C13.8325 63.2516 13.7626 63.4817 13.6315 63.6674C13.5047 63.8468 13.3096 64.001 12.9939 64.0799L13.1394 64.662ZM14.0997 62.0134C14.288 62.2469 14.2881 62.2468 14.2882 62.2467C14.2883 62.2467 14.2884 62.2466 14.2885 62.2465C14.2887 62.2464 14.2889 62.2462 14.2892 62.246C14.2897 62.2455 14.2904 62.245 14.2912 62.2443C14.2928 62.243 14.2949 62.2413 14.2975 62.2391C14.3028 62.2348 14.3102 62.2286 14.3195 62.2207C14.3381 62.2048 14.3647 62.1816 14.3986 62.1511C14.4662 62.0901 14.5628 61.9995 14.6825 61.8779C14.922 61.6346 15.2541 61.2669 15.6331 60.7632C16.3912 59.7554 17.3359 58.2038 18.1001 56.0149L17.5337 55.8171C16.7914 57.9432 15.8774 59.4403 15.1536 60.4025C14.7916 60.8837 14.477 61.2313 14.2549 61.457C14.1438 61.5699 14.0559 61.6522 13.9968 61.7056C13.9672 61.7322 13.9448 61.7516 13.9304 61.7639C13.9231 61.7701 13.9179 61.7745 13.9147 61.7771C13.9131 61.7784 13.912 61.7793 13.9115 61.7798C13.9112 61.78 13.9111 61.7801 13.9111 61.7801C13.9111 61.7801 13.9111 61.7801 13.9111 61.7801C13.9112 61.78 13.9112 61.78 13.9113 61.78C13.9113 61.7799 13.9114 61.7798 14.0997 62.0134ZM5.50817 62.8691C4.95489 62.3853 4.83052 61.8449 4.83766 61.4223C4.84129 61.2073 4.87946 61.0212 4.9168 60.8893C4.93538 60.8237 4.95347 60.7724 4.96636 60.7387C4.97279 60.7219 4.97789 60.7096 4.98105 60.7022C4.98263 60.6985 4.98372 60.6961 4.98425 60.6949C4.98451 60.6943 4.98464 60.694 4.98461 60.6941C4.98459 60.6941 4.98454 60.6942 4.98445 60.6944C4.9844 60.6945 4.98435 60.6947 4.98428 60.6948C4.98425 60.6949 4.9842 60.695 4.98418 60.695C4.98412 60.6951 4.98406 60.6953 4.71232 60.5682C4.44057 60.4411 4.44051 60.4412 4.44044 60.4414C4.44041 60.4414 4.44034 60.4416 4.44029 60.4417C4.44018 60.4419 4.44007 60.4422 4.43994 60.4424C4.43969 60.443 4.4394 60.4436 4.43907 60.4443C4.43841 60.4457 4.4376 60.4475 4.43665 60.4497C4.43473 60.4539 4.43224 60.4596 4.42926 60.4666C4.4233 60.4806 4.41534 60.4999 4.40605 60.5241C4.3875 60.5726 4.36351 60.641 4.33947 60.7259C4.29159 60.8951 4.24245 61.1336 4.23774 61.4122C4.2282 61.9768 4.40301 62.6998 5.11321 63.3208L5.50817 62.8691ZM4.57688 60.8359C5.12767 61.1145 6.35655 61.524 8.01212 61.8432C9.67464 62.1639 11.7869 62.3974 14.1106 62.3132L14.0889 61.7136C11.8169 61.7959 9.7505 61.5674 8.12574 61.2541C6.49403 60.9394 5.32704 60.543 4.84775 60.3005L4.57688 60.8359ZM56.8918 62.8691C56.6266 63.1011 56.1322 63.3282 55.4737 63.5273C54.8258 63.7232 54.0554 63.8814 53.2711 63.9944C52.4874 64.1073 51.6965 64.1741 51.0094 64.1891C50.3152 64.2043 49.7501 64.1659 49.4061 64.0799L49.2606 64.662C49.685 64.7681 50.3157 64.8044 51.0225 64.789C51.7362 64.7734 52.5514 64.7043 53.3567 64.5883C54.1613 64.4724 54.9628 64.3086 55.6474 64.1016C56.3215 63.8978 56.9203 63.6413 57.2868 63.3208L56.8918 62.8691ZM58.3498 46.8524C57.5334 42.2877 56.9374 37.9646 56.4114 34.2655C55.8866 30.5742 55.4296 27.489 54.8909 25.4241L54.3103 25.5755C54.8384 27.5999 55.2908 30.6464 55.8174 34.3499C56.3429 38.0456 56.9405 42.3805 57.7591 46.958L58.3498 46.8524ZM57.6877 60.5682C57.962 60.6896 57.9621 60.6895 57.9621 60.6893C57.9622 60.6892 57.9623 60.689 57.9623 60.6889C57.9625 60.6885 57.9627 60.6881 57.9629 60.6877C57.9633 60.6867 57.9638 60.6855 57.9644 60.6841C57.9657 60.6811 57.9675 60.677 57.9697 60.6718C57.974 60.6615 57.9802 60.6467 57.988 60.6274C58.0035 60.589 58.0254 60.5327 58.0524 60.4588C58.1063 60.3108 58.1803 60.0917 58.2633 59.8015C58.4295 59.2209 58.6317 58.3554 58.7817 57.2037C59.0818 54.8999 59.1726 51.4533 58.3498 46.8524L57.7591 46.958C58.5713 51.4993 58.4788 54.8841 58.1867 57.1262C58.0407 58.2475 57.8446 59.0837 57.6865 59.6364C57.6074 59.9128 57.5378 60.1184 57.4886 60.2534C57.464 60.3208 57.4446 60.3707 57.4316 60.4029C57.4251 60.419 57.4202 60.4307 57.4171 60.438C57.4156 60.4417 57.4145 60.4442 57.4138 60.4457C57.4135 60.4464 57.4133 60.4468 57.4132 60.447C57.4132 60.4471 57.4132 60.4471 57.4132 60.4471C57.4132 60.447 57.4133 60.4469 57.4133 60.4469C57.4133 60.4468 57.4134 60.4467 57.6877 60.5682ZM54.8909 25.4241C53.8113 21.2858 51.5507 16.9227 47.6038 13.2794L47.1968 13.7202C51.0499 17.2769 53.2563 21.5351 54.3103 25.5755L54.8909 25.4241ZM49.4061 64.0799C49.0904 64.001 48.8953 63.8468 48.7685 63.6674C48.6374 63.4817 48.5676 63.2516 48.5382 63.0117C48.509 62.7727 48.522 62.5398 48.5434 62.3639C48.554 62.2767 48.5664 62.2055 48.576 62.1569C48.5807 62.1326 48.5848 62.1141 48.5875 62.1023C48.5888 62.0964 48.5899 62.0921 48.5905 62.0896C48.5908 62.0884 48.591 62.0876 48.591 62.0872C48.5911 62.0871 48.5911 62.087 48.5911 62.0871C48.5911 62.0871 48.5911 62.0871 48.591 62.0872C48.591 62.0873 48.591 62.0874 48.591 62.0874C48.591 62.0875 48.5909 62.0876 48.3003 62.0134C48.0096 61.9391 48.0096 61.9393 48.0095 61.9394C48.0095 61.9394 48.0095 61.9396 48.0095 61.9397C48.0094 61.9399 48.0093 61.9401 48.0093 61.9404C48.0091 61.9409 48.009 61.9416 48.0088 61.9424C48.0084 61.9439 48.0079 61.946 48.0073 61.9485C48.0061 61.9535 48.0045 61.9603 48.0025 61.969C47.9986 61.9862 47.9933 62.0105 47.9873 62.0409C47.9753 62.1017 47.9604 62.1877 47.9477 62.2915C47.9227 62.4976 47.9057 62.7821 47.9427 63.0845C47.9795 63.3859 48.0719 63.7211 48.2785 64.0136C48.4895 64.3122 48.8078 64.5488 49.2606 64.662L49.4061 64.0799ZM48.3003 62.0134C48.4886 61.7798 48.4887 61.7799 48.4887 61.78C48.4888 61.78 48.4888 61.78 48.4889 61.7801C48.4889 61.7801 48.4889 61.7801 48.4889 61.7801C48.4889 61.7801 48.4888 61.78 48.4885 61.7798C48.488 61.7793 48.4869 61.7784 48.4853 61.7771C48.4821 61.7745 48.4769 61.7701 48.4696 61.7639C48.4552 61.7516 48.4328 61.7322 48.4033 61.7056C48.3441 61.6522 48.2562 61.5699 48.1452 61.457C47.923 61.2313 47.6084 60.8837 47.2464 60.4025C46.5226 59.4403 45.6086 57.9432 44.8663 55.8171L44.2999 56.0149C45.0641 58.2038 46.0088 59.7554 46.7669 60.7632C47.1459 61.2669 47.478 61.6346 47.7175 61.8779C47.8372 61.9995 47.9338 62.0901 48.0014 62.1511C48.0353 62.1816 48.0619 62.2048 48.0805 62.2207C48.0899 62.2286 48.0972 62.2348 48.1025 62.2391C48.1051 62.2413 48.1072 62.243 48.1088 62.2443C48.1096 62.245 48.1103 62.2455 48.1108 62.246C48.1111 62.2462 48.1113 62.2464 48.1115 62.2465C48.1116 62.2466 48.1117 62.2467 48.1118 62.2467C48.1119 62.2468 48.112 62.2469 48.3003 62.0134ZM57.2868 63.3208C57.997 62.6998 58.1718 61.9768 58.1623 61.4122C58.1576 61.1336 58.1084 60.8951 58.0605 60.7259C58.0365 60.641 58.0125 60.5726 57.994 60.5241C57.9847 60.4999 57.9767 60.4806 57.9707 60.4666C57.9678 60.4596 57.9653 60.4539 57.9634 60.4497C57.9624 60.4475 57.9616 60.4458 57.9609 60.4443C57.9606 60.4436 57.9603 60.443 57.9601 60.4424C57.9599 60.4422 57.9598 60.4419 57.9597 60.4417C57.9597 60.4416 57.9596 60.4414 57.9596 60.4414C57.9595 60.4412 57.9594 60.4411 57.6877 60.5682C57.4159 60.6953 57.4159 60.6951 57.4158 60.695C57.4158 60.695 57.4158 60.6949 57.4157 60.6948C57.4157 60.6947 57.4156 60.6945 57.4156 60.6944C57.4155 60.6942 57.4154 60.6941 57.4154 60.6941C57.4154 60.694 57.4155 60.6943 57.4158 60.6949C57.4163 60.6961 57.4174 60.6985 57.419 60.7022C57.4221 60.7096 57.4272 60.7219 57.4336 60.7387C57.4465 60.7724 57.4646 60.8237 57.4832 60.8893C57.5205 61.0212 57.5587 61.2073 57.5623 61.4223C57.5695 61.8449 57.4451 62.3853 56.8918 62.8691L57.2868 63.3208ZM57.5523 60.3005C57.073 60.543 55.906 60.9394 54.2743 61.2541C52.6495 61.5674 50.5831 61.7959 48.3111 61.7136L48.2894 62.3132C50.6131 62.3974 52.7254 62.1639 54.3879 61.8432C56.0435 61.524 57.2723 61.1145 57.8231 60.8359L57.5523 60.3005ZM22.7515 10.7957C24.476 11.0831 26.5218 12.2451 27.9887 13.7119L28.4129 13.2876C26.8797 11.7545 24.7256 10.5164 22.8501 10.2039L22.7515 10.7957ZM27.9887 13.7119C29.5058 15.2291 30.9006 16.6435 30.9008 18.7498L31.5008 18.7498C31.5006 16.3561 29.8957 14.7705 28.4129 13.2876L27.9887 13.7119ZM15.0008 11.0998C15.0008 9.57466 15.9027 8.2254 17.1835 7.12758C18.4609 6.03272 20.0746 5.22476 21.3956 4.78441L21.2059 4.2152C19.827 4.67485 18.1407 5.51689 16.793 6.67203C15.4488 7.82421 14.4008 9.32495 14.4008 11.0998H15.0008ZM21.3956 4.78441C24.0511 3.89925 26.6252 3.5998 31.2008 3.5998V2.9998C26.5987 2.9998 23.9504 3.30036 21.2059 4.2152L21.3956 4.78441ZM28.5088 17.067C28.2027 18.3678 27.9015 21.0209 27.6767 23.9611C27.4513 26.9086 27.3008 30.1701 27.3008 32.6998H27.9008C27.9008 30.1895 28.0503 26.944 28.2749 24.0069C28.5001 21.0625 28.7989 18.4536 29.0928 17.2044L28.5088 17.067ZM39.5515 10.2038C37.676 10.5164 35.5218 11.7544 33.9886 13.2876L34.4129 13.7119C35.8797 12.2451 37.9256 11.0831 39.6501 10.7957L39.5515 10.2038ZM33.9886 13.2876C32.5058 14.7705 30.901 16.3561 30.9008 18.7498L31.5008 18.7498C31.501 16.6435 32.8957 15.2291 34.4129 13.7119L33.9886 13.2876ZM48.0008 11.0998C48.0008 9.32494 46.9527 7.82419 45.6085 6.67201C44.2609 5.51687 42.5746 4.67484 41.1957 4.21518L41.0059 4.78439C42.327 5.22474 43.9407 6.03271 45.218 7.12757C46.4988 8.22539 47.4008 9.57464 47.4008 11.0998H48.0008ZM41.1957 4.21518C38.4511 3.30034 35.8029 2.9998 31.2008 2.9998V3.5998C35.7764 3.5998 38.3504 3.89923 41.0059 4.78439L41.1957 4.21518ZM33.2447 17.2348C33.539 18.4852 33.8537 21.0878 34.0948 24.0237C34.3354 26.9533 34.5008 30.1905 34.5008 32.6998H35.1008C35.1008 30.169 34.9342 26.9145 34.6928 23.9746C34.4519 21.0413 34.1346 18.397 33.8288 17.0974L33.2447 17.2348ZM21.2514 15.2957C22.7851 15.5517 26.155 16.219 28.6728 17.407L28.9288 16.8644C26.3307 15.6385 22.8901 14.961 21.3502 14.7039L21.2514 15.2957ZM28.6728 17.407C29.6294 17.8584 30.4404 18.3747 30.9815 18.9545L31.4201 18.5451C30.8047 17.8857 29.9163 17.3303 28.9288 16.8644L28.6728 17.407ZM41.0514 14.7039C39.4989 14.963 36.0132 15.6498 33.4074 16.8954L33.6662 17.4368C36.19 16.2302 39.6034 15.5539 41.1502 15.2957L41.0514 14.7039ZM33.4074 16.8954C32.4465 17.3548 31.5835 17.9001 30.9815 18.5451L31.4201 18.9545C31.9492 18.3876 32.7365 17.8812 33.6662 17.4368L33.4074 16.8954ZM14.4008 11.0998C14.4008 12.0195 14.7225 12.736 15.2438 13.2877L15.6799 12.8756C15.2621 12.4336 15.0008 11.8639 15.0008 11.0998H14.4008ZM15.2438 13.2877C15.9909 14.0783 17.1272 14.5087 18.2321 14.7773C19.3363 15.0458 20.4874 15.1682 21.2514 15.2957L21.3502 14.7039C20.5344 14.5677 19.4515 14.4563 18.3739 14.1943C17.297 13.9325 16.3036 13.5356 15.6799 12.8756L15.2438 13.2877ZM15.2032 13.7202C15.3558 13.5794 15.5084 13.4414 15.6609 13.3061L15.2627 12.8572C15.1072 12.9951 14.9517 13.1358 14.7962 13.2794L15.2032 13.7202ZM47.4008 11.0998C47.4008 11.8642 47.1392 12.4341 46.7211 12.8763L47.157 13.2885C47.6788 12.7367 48.0008 12.02 48.0008 11.0998H47.4008ZM46.7211 12.8763C46.0972 13.536 45.1039 13.9327 44.0272 14.1945C42.9497 14.4564 41.867 14.5677 41.0514 14.7039L41.1502 15.2957C41.9141 15.1682 43.0649 15.0458 44.1689 14.7775C45.2736 14.5089 46.4097 14.0788 47.157 13.2885L46.7211 12.8763ZM47.6038 13.2794C47.4486 13.1361 47.2933 12.9956 47.1381 12.858L46.74 13.3068C46.8922 13.4419 47.0445 13.5797 47.1968 13.7202L47.6038 13.2794ZM44.8663 55.8171C44.0835 53.5749 43.6582 49.2125 43.4353 43.7034L42.8358 43.7277C43.0579 49.219 43.4824 53.6736 44.2999 56.0149L44.8663 55.8171ZM45.9054 35.4575C46.2122 37.0221 46.2841 38.7271 45.8794 40.1858C45.478 41.633 44.6119 42.8301 43.0284 43.4353L43.2426 43.9958C45.0379 43.3096 46.0157 41.939 46.4576 40.3462C46.8963 38.765 46.811 36.9578 46.4942 35.3421L45.9054 35.4575ZM43.0284 43.4353C42.9555 43.4632 42.881 43.4898 42.8048 43.5152L42.9946 44.0844C43.0788 44.0563 43.1615 44.0268 43.2426 43.9958L43.0284 43.4353ZM18.1001 56.0149C18.9176 53.6734 19.3421 49.2183 19.5643 43.7264L18.9648 43.7022C18.7419 49.2119 18.3166 53.5747 17.5337 55.8171L18.1001 56.0149ZM15.909 35.3421C15.5924 36.9573 15.507 38.7638 15.9452 40.3447C16.3866 41.9372 17.3636 43.3077 19.1573 43.9945L19.3718 43.4342C17.7898 42.8284 16.9245 41.6313 16.5234 40.1844C16.1192 38.726 16.1912 37.0216 16.4978 35.4575L15.909 35.3421ZM19.1573 43.9945C19.2395 44.0259 19.3232 44.0559 19.4087 44.0844L19.5984 43.5152C19.5212 43.4895 19.4457 43.4624 19.3718 43.4342L19.1573 43.9945Z" stroke="#1E1E1E" stroke-width="0.6"/>
</svg>
