<svg width="63" height="84" viewBox="0 0 63 84" fill="none" xmlns="http://www.w3.org/2000/svg">
<path d="M15.6995 26.9998C16.8993 33.5998 14.7994 37.7998 13.5991 46.4998C12.3989 55.1998 14.3087 56.8978 14.799 60.2998C14.5958 60.7571 14.4205 61.2114 14.2721 61.6608M46.2974 26.9998C45.0977 33.5998 47.1976 37.7998 48.3979 46.4998C49.5981 55.1998 47.6883 56.8978 47.1979 60.2998C47.4019 60.7587 47.5777 61.2147 47.7265 61.6657M30.9985 71.5753C36.472 72.5601 42.115 72.8664 44.4976 71.9998C47.7918 70.8016 49.3279 66.5215 47.7265 61.6657M30.9985 71.5753C25.5253 72.5601 19.8819 72.8664 17.4994 71.9998C14.2041 70.8012 12.668 66.5186 14.2721 61.6608M30.9985 71.5753C33.796 71.072 36.549 70.3915 38.7994 69.5998M30.9985 63.5998C34.5322 63.3748 42.3985 61.4998 42.3985 59.3998C42.3985 58.4998 40.5985 58.1998 38.7985 58.4998M4.50919 60.5682C4.50919 60.5682 2.50739 56.0473 4.14243 46.9052C5.77746 37.7631 6.5295 29.5892 7.59629 25.4998C8.66308 21.4105 10.8966 17.0998 14.7966 13.4998C14.9506 13.3576 15.1047 13.2182 15.2587 13.0816M4.50919 60.5682C4.50919 60.5682 3.84409 61.9901 5.10756 63.095C6.37104 64.1998 11.3266 64.7552 12.8635 64.3709C14.4005 63.9867 13.8966 62.0134 13.8966 62.0134M4.50919 60.5682C5.53927 61.0893 9.30095 62.1799 13.8966 62.0134M13.8966 62.0134C13.8966 62.0134 14.0374 61.8999 14.2721 61.6608M57.4846 60.5682C57.4846 60.5682 59.4864 56.0473 57.8513 46.9052C56.2163 37.7631 55.4642 29.5892 54.3975 25.4998C53.3307 21.4105 51.0971 17.0998 47.1971 13.4998C47.0434 13.3579 46.8896 13.2188 46.7359 13.0824M57.4846 60.5682C57.4846 60.5682 58.1497 61.9901 56.8862 63.095C55.6227 64.1998 50.6672 64.7552 49.1302 64.3709C47.5933 63.9867 48.0971 62.0134 48.0971 62.0134M57.4846 60.5682C56.4545 61.0893 52.6928 62.1799 48.0971 62.0134M48.0971 62.0134C48.0971 62.0134 47.9583 61.9014 47.7265 61.6657M22.5977 10.4998C24.3977 10.7998 26.4977 11.9998 27.9977 13.4998C29.4977 14.9998 30.9974 16.4998 30.9977 18.7498M30.9977 18.7498C30.9979 16.4998 32.4977 14.9998 33.9977 13.4998C35.4977 11.9998 37.5977 10.7998 39.3977 10.4998M30.9977 18.7498C30.4194 18.1302 29.5697 17.5944 28.5977 17.1357M30.9977 18.7498C31.5632 18.1439 32.3883 17.618 33.3336 17.1661M28.5977 17.1357C27.9977 19.6857 27.3977 27.6598 27.3977 32.6998M28.5977 17.1357C26.0397 15.9287 22.6344 15.2563 21.0977 14.9998C19.5179 14.7361 16.6296 14.5323 15.2587 13.0816M33.3336 17.1661C33.9336 19.7161 34.5977 27.6598 34.5977 32.6998M33.3336 17.1661C35.8985 15.94 39.348 15.2585 40.8977 14.9998C42.4771 14.7361 45.3647 14.5324 46.7359 13.0824M15.2587 13.0816C14.7892 12.5848 14.4977 11.9417 14.4977 11.0998C14.4977 7.7998 18.3977 5.3998 21.0977 4.4998C23.7977 3.5998 26.4088 3.2998 30.9977 3.2998C35.5865 3.2998 38.1977 3.59979 40.8977 4.49979C43.5977 5.39979 47.4977 7.79979 47.4977 11.0998C47.4977 11.9421 47.2058 12.5854 46.7359 13.0824" stroke="#1E1E1E" stroke-width="0.6" stroke-linecap="round"/>
</svg>
