<svg width="64" height="84" viewBox="0 0 64 84" fill="none" xmlns="http://www.w3.org/2000/svg">
<path d="M17.9945 26.9726C17.9795 26.8076 17.8335 26.686 17.6685 26.701C17.5035 26.716 17.3819 26.862 17.3969 27.027L17.9945 26.9726ZM16.4965 42.5998L16.7569 42.7487L16.8344 42.6132L16.7679 42.472L16.4965 42.5998ZM18.5953 50.0998L18.6979 49.8179L18.6979 49.8179L18.5953 50.0998ZM46.1938 27.027C46.2088 26.862 46.0872 26.716 45.9222 26.701C45.7572 26.686 45.6113 26.8076 45.5963 26.9726L46.1938 27.027ZM47.0943 42.5998L46.8228 42.472L46.7564 42.6132L46.8338 42.7487L47.0943 42.5998ZM44.9954 50.0998L44.8929 49.8179L44.8929 49.8179L44.9954 50.0998ZM31.7954 49.9087L31.7466 49.6127L31.7466 49.6127L31.7954 49.9087ZM31.7763 42.9004C31.611 42.9109 31.4854 43.0535 31.496 43.2189C31.5065 43.3842 31.6491 43.5097 31.8144 43.4992L31.7763 42.9004ZM39.546 37.8039C39.3826 37.8311 39.2722 37.9857 39.2994 38.1491C39.3267 38.3126 39.4813 38.423 39.6447 38.3957L39.546 37.8039ZM39.6955 48.2828C39.8518 48.2278 39.9339 48.0565 39.8789 47.9002C39.8239 47.744 39.6527 47.6618 39.4964 47.7168L39.6955 48.2828ZM5.90444 63.095L5.70696 63.3208L5.70696 63.3208L5.90444 63.095ZM13.6604 64.3709L13.5877 64.0799L13.5877 64.0799L13.6604 64.3709ZM4.9393 46.9052L4.64399 46.8524L4.64399 46.8524L4.9393 46.9052ZM8.39316 25.4998L8.10288 25.4241L8.39316 25.4998ZM15.5935 13.4998L15.39 13.2794L15.39 13.2794L15.5935 13.4998ZM18.4107 55.916L18.1274 55.8171L18.1274 55.8171L18.4107 55.916ZM57.6831 63.095L57.8805 63.3208L57.8805 63.3208L57.6831 63.095ZM49.9271 64.3709L49.9998 64.0799L49.9998 64.0799L49.9271 64.3709ZM58.6482 46.9052L58.9435 46.8524L58.9435 46.8524L58.6482 46.9052ZM55.1943 25.4998L55.4846 25.4241L55.4846 25.4241L55.1943 25.4998ZM47.994 13.4998L48.1975 13.2794L48.1975 13.2794L47.994 13.4998ZM45.1768 55.916L45.4601 55.8171L45.4601 55.8171L45.1768 55.916ZM23.4439 10.2039C23.2804 10.1766 23.1259 10.287 23.0986 10.4505C23.0714 10.6139 23.1818 10.7685 23.3452 10.7957L23.4439 10.2039ZM31.7945 18.7498L31.5752 18.9545C31.632 19.0153 31.7114 19.0498 31.7945 19.0498C31.8777 19.0498 31.9571 19.0153 32.0138 18.9545L31.7945 18.7498ZM21.8945 14.9998L21.8451 15.2957L21.8451 15.2957L21.8945 14.9998ZM21.8945 4.4998L21.9894 4.78441L21.9894 4.78441L21.8945 4.4998ZM27.8945 32.6998C27.8945 32.8655 28.0288 32.9998 28.1945 32.9998C28.3602 32.9998 28.4945 32.8655 28.4945 32.6998H27.8945ZM40.2439 10.7957C40.4073 10.7684 40.5177 10.6139 40.4905 10.4504C40.4632 10.287 40.3086 10.1766 40.1452 10.2038L40.2439 10.7957ZM41.6945 14.9998L41.6451 14.7039L41.6451 14.7039L41.6945 14.9998ZM35.0945 32.6998C35.0945 32.8655 35.2288 32.9998 35.3945 32.9998C35.5602 32.9998 35.6945 32.8655 35.6945 32.6998H35.0945ZM16.0556 13.0816L16.2736 12.8756L16.2736 12.8756L16.0556 13.0816ZM19.4242 50.3341L19.4885 50.041L19.4242 50.3341ZM44.1634 50.3348L44.0992 50.0417L44.1634 50.3348ZM17.3969 27.027C17.6909 30.2606 16.8117 32.8263 16.1317 35.2823C15.4541 37.7294 14.9754 40.0728 16.2251 42.7276L16.7679 42.472C15.6169 40.0268 16.0377 37.8702 16.7099 35.4424C17.3797 33.0233 18.3005 30.339 17.9945 26.9726L17.3969 27.027ZM16.2361 42.4509C15.6054 43.5539 15.2129 45.1697 15.4491 46.6922C15.6881 48.2327 16.575 49.6842 18.4928 50.3817L18.6979 49.8179C17.0154 49.2059 16.2526 47.9574 16.042 46.6002C15.8287 45.2251 16.1869 43.7457 16.7569 42.7487L16.2361 42.4509ZM45.5963 26.9726C45.2902 30.339 46.211 33.0233 46.8808 35.4424C47.553 37.8702 47.9739 40.0268 46.8228 42.472L47.3657 42.7276C48.6154 40.0728 48.1366 37.7294 47.459 35.2823C46.779 32.8263 45.8998 30.2606 46.1938 27.027L45.5963 26.9726ZM46.8338 42.7487C47.4039 43.7457 47.7621 45.2251 47.5488 46.6002C47.3382 47.9574 46.5754 49.2059 44.8929 49.8179L45.098 50.3817C47.0157 49.6842 47.9027 48.2327 48.1417 46.6922C48.3779 45.1697 47.9854 43.5539 47.3547 42.4509L46.8338 42.7487ZM31.8144 43.4992C33.6084 43.385 36.4824 42.8547 38.9107 42.089C40.1241 41.7064 41.2433 41.2598 42.0652 40.7677C42.4757 40.5219 42.8255 40.2569 43.0758 39.972C43.3261 39.6871 43.4954 39.3605 43.4954 38.9998H42.8954C42.8954 39.1641 42.8188 39.3555 42.6251 39.576C42.4314 39.7964 42.139 40.0242 41.7569 40.253C40.9935 40.7101 39.9252 41.14 38.7303 41.5168C36.342 42.2699 33.516 42.7896 31.7763 42.9004L31.8144 43.4992ZM43.4954 38.9998C43.4954 38.659 43.3195 38.3905 43.0678 38.1987C42.8231 38.0122 42.4952 37.8869 42.1354 37.807C41.413 37.6464 40.4725 37.6495 39.546 37.8039L39.6447 38.3957C40.5182 38.2501 41.3778 38.2532 42.0053 38.3927C42.3205 38.4627 42.5551 38.5624 42.7042 38.6759C42.8462 38.7842 42.8954 38.8906 42.8954 38.9998H43.4954ZM31.8443 50.2047C34.6352 49.7441 37.4025 49.0895 39.6955 48.2828L39.4964 47.7168C37.2454 48.5087 34.5139 49.156 31.7466 49.6127L31.8443 50.2047ZM5.70696 63.3208C6.07345 63.6413 6.6723 63.8978 7.34639 64.1016C8.031 64.3086 8.83242 64.4724 9.6371 64.5883C10.4424 64.7043 11.2575 64.7734 11.9713 64.789C12.678 64.8044 13.3087 64.7681 13.7332 64.662L13.5877 64.0799C13.2436 64.1659 12.6785 64.2043 11.9844 64.1891C11.2972 64.1741 10.5063 64.1073 9.72266 63.9944C8.93839 63.8814 8.16796 63.7232 7.52002 63.5273C6.86156 63.3282 6.36717 63.1011 6.10192 62.8691L5.70696 63.3208ZM5.23462 46.958C6.05328 42.3805 6.65085 38.0456 7.17634 34.3499C7.70295 30.6464 8.15534 27.5999 8.68345 25.5755L8.10288 25.4241C7.5642 27.489 7.10717 30.5742 6.58231 34.2655C6.05633 37.9646 5.46036 42.2877 4.64399 46.8524L5.23462 46.958ZM5.30607 60.5682C5.58038 60.4467 5.58043 60.4468 5.58048 60.4469C5.58048 60.4469 5.58052 60.447 5.58054 60.4471C5.58056 60.4471 5.58055 60.4471 5.58051 60.447C5.58043 60.4468 5.58024 60.4464 5.57992 60.4457C5.5793 60.4442 5.5782 60.4417 5.57666 60.438C5.57357 60.4307 5.56869 60.419 5.56219 60.4029C5.54919 60.3707 5.52971 60.3208 5.50512 60.2534C5.45595 60.1184 5.38633 59.9128 5.30726 59.6364C5.14913 59.0837 4.95309 58.2475 4.80703 57.1262C4.51498 54.8841 4.42244 51.4993 5.23462 46.958L4.64399 46.8524C3.82114 51.4533 3.91197 54.8999 4.21206 57.2037C4.36208 58.3554 4.5643 59.2209 4.7304 59.8015C4.81345 60.0917 4.88746 60.3108 4.94137 60.4588C4.96833 60.5327 4.99026 60.589 5.00578 60.6274C5.01354 60.6467 5.01971 60.6615 5.02409 60.6718C5.02629 60.677 5.02803 60.6811 5.02932 60.6841C5.02996 60.6855 5.03049 60.6867 5.03089 60.6877C5.0311 60.6881 5.03127 60.6885 5.03141 60.6889C5.03149 60.689 5.03157 60.6892 5.03161 60.6893C5.03169 60.6895 5.03176 60.6896 5.30607 60.5682ZM8.68345 25.5755C9.73746 21.5351 11.9439 17.2769 15.797 13.7202L15.39 13.2794C11.4431 16.9227 9.18244 21.2858 8.10288 25.4241L8.68345 25.5755ZM13.7332 64.662C14.186 64.5488 14.5042 64.3122 14.7152 64.0136C14.9219 63.7211 15.0143 63.3859 15.0511 63.0845C15.088 62.7821 15.0711 62.4976 15.046 62.2915C15.0334 62.1877 15.0185 62.1017 15.0065 62.0409C15.0005 62.0105 14.9952 61.9862 14.9913 61.969C14.9893 61.9603 14.9877 61.9535 14.9865 61.9485C14.9859 61.946 14.9854 61.9439 14.985 61.9424C14.9848 61.9416 14.9846 61.9409 14.9845 61.9404C14.9844 61.9401 14.9843 61.9399 14.9843 61.9397C14.9843 61.9396 14.9842 61.9394 14.9842 61.9394C14.9842 61.9393 14.9842 61.9391 14.6935 62.0134C14.4028 62.0876 14.4028 62.0875 14.4028 62.0874C14.4028 62.0874 14.4027 62.0873 14.4027 62.0872C14.4027 62.0871 14.4027 62.0871 14.4027 62.0871C14.4027 62.087 14.4027 62.0871 14.4027 62.0872C14.4028 62.0876 14.403 62.0884 14.4033 62.0896C14.4039 62.0921 14.4049 62.0964 14.4063 62.1023C14.409 62.1141 14.413 62.1326 14.4178 62.1569C14.4274 62.2055 14.4398 62.2767 14.4504 62.3639C14.4718 62.5398 14.4847 62.7727 14.4555 63.0117C14.4262 63.2516 14.3564 63.4817 14.2252 63.6674C14.0985 63.8468 13.9034 64.001 13.5877 64.0799L13.7332 64.662ZM14.6935 62.0134C14.8818 62.2469 14.8819 62.2468 14.882 62.2467C14.882 62.2467 14.8822 62.2466 14.8823 62.2465C14.8825 62.2464 14.8827 62.2462 14.883 62.246C14.8835 62.2455 14.8841 62.245 14.8849 62.2443C14.8865 62.243 14.8886 62.2413 14.8913 62.2391C14.8966 62.2348 14.9039 62.2286 14.9132 62.2207C14.9319 62.2048 14.9585 62.1816 14.9923 62.1511C15.06 62.0901 15.1565 61.9995 15.2763 61.8779C15.5157 61.6346 15.8479 61.2669 16.2268 60.7632C16.985 59.7554 17.9296 58.2038 18.6939 56.0149L18.1274 55.8171C17.3851 57.9432 16.4712 59.4403 15.7474 60.4025C15.3854 60.8837 15.0707 61.2313 14.8486 61.457C14.7375 61.5699 14.6496 61.6522 14.5905 61.7056C14.5609 61.7322 14.5386 61.7516 14.5241 61.7639C14.5169 61.7701 14.5116 61.7745 14.5085 61.7771C14.5069 61.7784 14.5058 61.7793 14.5052 61.7798C14.505 61.78 14.5048 61.7801 14.5048 61.7801C14.5048 61.7801 14.5048 61.7801 14.5049 61.7801C14.5049 61.78 14.505 61.78 14.505 61.78C14.5051 61.7799 14.5052 61.7798 14.6935 62.0134ZM6.10192 62.8691C5.54864 62.3853 5.42427 61.8449 5.43141 61.4223C5.43504 61.2073 5.47321 61.0212 5.51055 60.8893C5.52913 60.8237 5.54722 60.7724 5.56011 60.7387C5.56654 60.7219 5.57164 60.7096 5.5748 60.7022C5.57638 60.6985 5.57747 60.6961 5.578 60.6949C5.57826 60.6943 5.57839 60.694 5.57836 60.6941C5.57834 60.6941 5.57829 60.6942 5.5782 60.6944C5.57815 60.6945 5.5781 60.6947 5.57803 60.6948C5.578 60.6949 5.57795 60.695 5.57793 60.695C5.57787 60.6951 5.57781 60.6953 5.30607 60.5682C5.03432 60.4411 5.03426 60.4412 5.03419 60.4414C5.03416 60.4414 5.03409 60.4416 5.03404 60.4417C5.03393 60.4419 5.03382 60.4422 5.03369 60.4424C5.03344 60.443 5.03315 60.4436 5.03282 60.4443C5.03216 60.4457 5.03135 60.4475 5.0304 60.4497C5.02848 60.4539 5.02599 60.4596 5.02301 60.4666C5.01705 60.4806 5.00909 60.4999 4.9998 60.5241C4.98125 60.5726 4.95726 60.641 4.93322 60.7259C4.88534 60.8951 4.8362 61.1336 4.83149 61.4122C4.82195 61.9768 4.99676 62.6998 5.70696 63.3208L6.10192 62.8691ZM5.17063 60.8359C5.72142 61.1145 6.9503 61.524 8.60587 61.8432C10.2684 62.1639 12.3806 62.3974 14.7043 62.3132L14.6826 61.7136C12.4107 61.7959 10.3443 61.5674 8.71949 61.2541C7.08778 60.9394 5.92079 60.543 5.4415 60.3005L5.17063 60.8359ZM57.4856 62.8691C57.2203 63.1011 56.7259 63.3282 56.0675 63.5273C55.4195 63.7232 54.6491 63.8814 53.8648 63.9944C53.0812 64.1073 52.2903 64.1741 51.6031 64.1891C50.909 64.2043 50.3439 64.1659 49.9998 64.0799L49.8543 64.662C50.2788 64.7681 50.9095 64.8044 51.6162 64.789C52.33 64.7734 53.1451 64.7043 53.9504 64.5883C54.7551 64.4724 55.5565 64.3086 56.2411 64.1016C56.9152 63.8978 57.5141 63.6413 57.8805 63.3208L57.4856 62.8691ZM58.9435 46.8524C58.1271 42.2877 57.5312 37.9646 57.0052 34.2655C56.4803 30.5742 56.0233 27.489 55.4846 25.4241L54.9041 25.5755C55.4322 27.5999 55.8845 30.6464 56.4112 34.3499C56.9367 38.0456 57.5342 42.3805 58.3529 46.958L58.9435 46.8524ZM58.2814 60.5682C58.5557 60.6896 58.5558 60.6895 58.5559 60.6893C58.5559 60.6892 58.556 60.689 58.5561 60.6889C58.5562 60.6885 58.5564 60.6881 58.5566 60.6877C58.557 60.6867 58.5575 60.6855 58.5582 60.6841C58.5595 60.6811 58.5612 60.677 58.5634 60.6718C58.5678 60.6615 58.574 60.6467 58.5817 60.6274C58.5972 60.589 58.6192 60.5327 58.6461 60.4588C58.7 60.3108 58.7741 60.0917 58.8571 59.8015C59.0232 59.2209 59.2254 58.3554 59.3754 57.2037C59.6755 54.8999 59.7664 51.4533 58.9435 46.8524L58.3529 46.958C59.1651 51.4993 59.0725 54.8841 58.7805 57.1262C58.6344 58.2475 58.4384 59.0837 58.2802 59.6364C58.2012 59.9128 58.1316 60.1184 58.0824 60.2534C58.0578 60.3208 58.0383 60.3707 58.0253 60.4029C58.0188 60.419 58.0139 60.4307 58.0108 60.438C58.0093 60.4417 58.0082 60.4442 58.0076 60.4457C58.0073 60.4464 58.0071 60.4468 58.007 60.447C58.007 60.4471 58.0069 60.4471 58.007 60.4471C58.007 60.447 58.007 60.4469 58.007 60.4469C58.0071 60.4468 58.0071 60.4467 58.2814 60.5682ZM55.4846 25.4241C54.4051 21.2858 52.1444 16.9227 48.1975 13.2794L47.7905 13.7202C51.6436 17.2769 53.85 21.5351 54.9041 25.5755L55.4846 25.4241ZM49.9998 64.0799C49.6841 64.001 49.4891 63.8468 49.3623 63.6674C49.2311 63.4817 49.1613 63.2516 49.132 63.0117C49.1028 62.7727 49.1157 62.5398 49.1371 62.3639C49.1477 62.2767 49.1601 62.2055 49.1697 62.1569C49.1745 62.1326 49.1785 62.1141 49.1812 62.1023C49.1826 62.0964 49.1836 62.0921 49.1842 62.0896C49.1845 62.0884 49.1847 62.0876 49.1848 62.0872C49.1848 62.0871 49.1848 62.087 49.1848 62.0871C49.1848 62.0871 49.1848 62.0871 49.1848 62.0872C49.1848 62.0873 49.1847 62.0874 49.1847 62.0874C49.1847 62.0875 49.1847 62.0876 48.894 62.0134C48.6033 61.9391 48.6033 61.9393 48.6033 61.9394C48.6033 61.9394 48.6032 61.9396 48.6032 61.9397C48.6032 61.9399 48.6031 61.9401 48.603 61.9404C48.6029 61.9409 48.6027 61.9416 48.6025 61.9424C48.6021 61.9439 48.6016 61.946 48.601 61.9485C48.5998 61.9535 48.5982 61.9603 48.5962 61.969C48.5923 61.9862 48.587 62.0105 48.581 62.0409C48.569 62.1017 48.5541 62.1877 48.5415 62.2915C48.5164 62.4976 48.4995 62.7821 48.5364 63.0845C48.5732 63.3859 48.6656 63.7211 48.8723 64.0136C49.0833 64.3122 49.4015 64.5488 49.8543 64.662L49.9998 64.0799ZM48.894 62.0134C49.0823 61.7798 49.0824 61.7799 49.0825 61.78C49.0825 61.78 49.0826 61.78 49.0826 61.7801C49.0827 61.7801 49.0827 61.7801 49.0827 61.7801C49.0827 61.7801 49.0825 61.78 49.0823 61.7798C49.0817 61.7793 49.0806 61.7784 49.079 61.7771C49.0759 61.7745 49.0706 61.7701 49.0634 61.7639C49.0489 61.7516 49.0266 61.7322 48.997 61.7056C48.9379 61.6522 48.85 61.5699 48.7389 61.457C48.5168 61.2313 48.2021 60.8837 47.8401 60.4025C47.1163 59.4403 46.2024 57.9432 45.4601 55.8171L44.8936 56.0149C45.6579 58.2038 46.6025 59.7554 47.3607 60.7632C47.7396 61.2669 48.0718 61.6346 48.3112 61.8779C48.431 61.9995 48.5275 62.0901 48.5952 62.1511C48.629 62.1816 48.6556 62.2048 48.6743 62.2207C48.6836 62.2286 48.6909 62.2348 48.6962 62.2391C48.6989 62.2413 48.701 62.243 48.7026 62.2443C48.7034 62.245 48.704 62.2455 48.7045 62.246C48.7048 62.2462 48.705 62.2464 48.7052 62.2465C48.7053 62.2466 48.7055 62.2467 48.7055 62.2467C48.7056 62.2468 48.7057 62.2469 48.894 62.0134ZM57.8805 63.3208C58.5907 62.6998 58.7656 61.9768 58.756 61.4122C58.7513 61.1336 58.7022 60.8951 58.6543 60.7259C58.6302 60.641 58.6063 60.5726 58.5877 60.5241C58.5784 60.4999 58.5705 60.4806 58.5645 60.4666C58.5615 60.4596 58.559 60.4539 58.5571 60.4497C58.5562 60.4475 58.5553 60.4458 58.5547 60.4443C58.5544 60.4436 58.5541 60.443 58.5538 60.4424C58.5537 60.4422 58.5536 60.4419 58.5535 60.4417C58.5534 60.4416 58.5533 60.4414 58.5533 60.4414C58.5532 60.4412 58.5532 60.4411 58.2814 60.5682C58.0097 60.6953 58.0096 60.6951 58.0096 60.695C58.0096 60.695 58.0095 60.6949 58.0095 60.6948C58.0094 60.6947 58.0093 60.6945 58.0093 60.6944C58.0092 60.6942 58.0092 60.6941 58.0091 60.6941C58.0091 60.694 58.0092 60.6943 58.0095 60.6949C58.01 60.6961 58.0111 60.6985 58.0127 60.7022C58.0159 60.7096 58.021 60.7219 58.0274 60.7387C58.0403 60.7724 58.0584 60.8237 58.077 60.8893C58.1143 61.0212 58.1525 61.2073 58.1561 61.4223C58.1632 61.8449 58.0389 62.3853 57.4856 62.8691L57.8805 63.3208ZM58.146 60.3005C57.6667 60.543 56.4997 60.9394 54.868 61.2541C53.2433 61.5674 51.1768 61.7959 48.9049 61.7136L48.8832 62.3132C51.2069 62.3974 53.3191 62.1639 54.9816 61.8432C56.6372 61.524 57.8661 61.1145 58.4169 60.8359L58.146 60.3005ZM23.3452 10.7957C25.0698 11.0831 27.1156 12.2451 28.5824 13.7119L29.0067 13.2876C27.4735 11.7545 25.3193 10.5164 23.4439 10.2039L23.3452 10.7957ZM28.5824 13.7119C30.0996 15.2291 31.4943 16.6435 31.4945 18.7498L32.0945 18.7498C32.0943 16.3561 30.4895 14.7705 29.0067 13.2876L28.5824 13.7119ZM15.5945 11.0998C15.5945 9.57466 16.4965 8.2254 17.7773 7.12758C19.0546 6.03272 20.6684 5.22476 21.9894 4.78441L21.7997 4.2152C20.4207 4.67485 18.7345 5.51689 17.3868 6.67203C16.0426 7.82421 14.9945 9.32495 14.9945 11.0998H15.5945ZM21.9894 4.78441C24.6449 3.89925 27.219 3.5998 31.7945 3.5998V2.9998C27.1924 2.9998 24.5442 3.30036 21.7997 4.2152L21.9894 4.78441ZM29.1025 17.067C28.7964 18.3678 28.4952 21.0209 28.2704 23.9611C28.045 26.9086 27.8945 30.1701 27.8945 32.6998H28.4945C28.4945 30.1895 28.6441 26.944 28.8687 24.0069C29.0938 21.0625 29.3926 18.4536 29.6866 17.2044L29.1025 17.067ZM40.1452 10.2038C38.2698 10.5164 36.1156 11.7544 34.5824 13.2876L35.0067 13.7119C36.4735 12.2451 38.5193 11.0831 40.2439 10.7957L40.1452 10.2038ZM34.5824 13.2876C33.0996 14.7705 31.4948 16.3561 31.4945 18.7498L32.0945 18.7498C32.0947 16.6435 33.4895 15.2291 35.0067 13.7119L34.5824 13.2876ZM48.5945 11.0998C48.5945 9.32494 47.5465 7.82419 46.2023 6.67201C44.8546 5.51687 43.1684 4.67484 41.7894 4.21518L41.5997 4.78439C42.9207 5.22474 44.5345 6.03271 45.8118 7.12757C47.0926 8.22539 47.9945 9.57464 47.9945 11.0998H48.5945ZM41.7894 4.21518C39.0449 3.30034 36.3966 2.9998 31.7945 2.9998V3.5998C36.3701 3.5998 38.9442 3.89923 41.5997 4.78439L41.7894 4.21518ZM33.8385 17.2348C34.1327 18.4852 34.4474 21.0878 34.6885 24.0237C34.9291 26.9533 35.0945 30.1905 35.0945 32.6998H35.6945C35.6945 30.169 35.5279 26.9145 35.2865 23.9746C35.0456 21.0413 34.7283 18.397 34.4225 17.0974L33.8385 17.2348ZM21.8451 15.2957C23.3788 15.5517 26.7488 16.219 29.2665 17.407L29.5226 16.8644C26.9245 15.6385 23.4838 14.961 21.9439 14.7039L21.8451 15.2957ZM29.2665 17.407C30.2231 17.8584 31.0341 18.3747 31.5752 18.9545L32.0138 18.5451C31.3984 17.8857 30.5101 17.3303 29.5226 16.8644L29.2665 17.407ZM41.6451 14.7039C40.0926 14.963 36.6069 15.6498 34.0011 16.8954L34.2599 17.4368C36.7838 16.2302 40.1971 15.5539 41.7439 15.2957L41.6451 14.7039ZM34.0011 16.8954C33.0402 17.3548 32.1772 17.9001 31.5752 18.5451L32.0138 18.9545C32.5429 18.3876 33.3302 17.8812 34.2599 17.4368L34.0011 16.8954ZM47.9945 11.0998C47.9945 11.8642 47.7329 12.4341 47.3148 12.8763L47.7508 13.2885C48.2725 12.7367 48.5945 12.02 48.5945 11.0998H47.9945ZM47.3148 12.8763C46.6909 13.536 45.6976 13.9327 44.6209 14.1945C43.5434 14.4564 42.4607 14.5677 41.6451 14.7039L41.7439 15.2957C42.5078 15.1682 43.6586 15.0458 44.7626 14.7775C45.8674 14.5089 47.0035 14.0788 47.7508 13.2885L47.3148 12.8763ZM48.1975 13.2794C48.0423 13.1361 47.8871 12.9956 47.7319 12.858L47.3337 13.3068C47.4859 13.4419 47.6382 13.5797 47.7905 13.7202L48.1975 13.2794ZM14.9945 11.0998C14.9945 12.0195 15.3162 12.736 15.8375 13.2877L16.2736 12.8756C15.8559 12.4336 15.5945 11.8639 15.5945 11.0998H14.9945ZM15.8375 13.2877C16.5847 14.0783 17.7209 14.5087 18.8258 14.7773C19.93 15.0458 21.0811 15.1682 21.8451 15.2957L21.9439 14.7039C21.1282 14.5677 20.0452 14.4563 18.9676 14.1943C17.8907 13.9325 16.8973 13.5356 16.2736 12.8756L15.8375 13.2877ZM15.797 13.7202C15.9496 13.5794 16.1021 13.4414 16.2546 13.3061L15.8565 12.8572C15.701 12.9951 15.5455 13.1358 15.39 13.2794L15.797 13.7202ZM18.6939 56.0149C19.1494 54.7103 19.48 52.7621 19.7227 50.3643L19.1257 50.3038C18.8838 52.6938 18.5583 54.5829 18.1274 55.8171L18.6939 56.0149ZM18.4928 50.3817C18.7524 50.4762 19.0431 50.5576 19.3599 50.6271L19.4885 50.041C19.1915 49.9759 18.9272 49.9013 18.6979 49.8179L18.4928 50.3817ZM19.3599 50.6271C22.0872 51.2255 27.0298 50.9992 31.8443 50.2047L31.7466 49.6127C26.9479 50.4046 22.0993 50.6139 19.4885 50.041L19.3599 50.6271ZM45.4601 55.8171C45.0292 54.5831 44.7038 52.6942 44.4618 50.3045L43.8649 50.365C44.1076 52.7625 44.4382 54.7105 44.8936 56.0149L45.4601 55.8171ZM44.8929 49.8179C44.6627 49.9016 44.3974 49.9764 44.0992 50.0417L44.2275 50.6278C44.5457 50.5581 44.8375 50.4765 45.098 50.3817L44.8929 49.8179ZM44.0992 50.0417C41.4877 50.6137 36.641 50.4043 31.8443 49.6127L31.7466 50.2047C36.5591 50.9989 41.4997 51.2253 44.2275 50.6278L44.0992 50.0417Z" stroke="#1E1E1E" stroke-width="0.6"/>
</svg>
