<svg width="63" height="84" viewBox="0 0 63 84" fill="none" xmlns="http://www.w3.org/2000/svg">
<path d="M13.5991 46.4998L13.3019 46.4588L13.5991 46.4998ZM14.799 60.2998L15.0732 60.4217L15.1083 60.3426L15.096 60.257L14.799 60.2998ZM15.9947 26.9462C15.9651 26.7831 15.8089 26.675 15.6459 26.7046C15.4829 26.7343 15.3747 26.8904 15.4044 27.0535L15.9947 26.9462ZM17.4994 71.9998L17.602 71.7179L17.602 71.7179L17.4994 71.9998ZM48.3979 46.4998L48.1007 46.5408L48.1007 46.5408L48.3979 46.4998ZM47.1979 60.2998L46.901 60.257L46.8887 60.3426L46.9238 60.4217L47.1979 60.2998ZM46.5926 27.0535C46.6222 26.8904 46.5141 26.7343 46.3511 26.7046C46.1881 26.675 46.0319 26.7831 46.0023 26.9462L46.5926 27.0535ZM44.4976 71.9998L44.395 71.7179L44.395 71.7179L44.4976 71.9998ZM30.9985 71.5753L30.9454 71.2801L30.9454 71.2801L30.9985 71.5753ZM30.9795 63.3004C30.8141 63.3109 30.6886 63.4535 30.6991 63.6189C30.7097 63.7842 30.8522 63.9097 31.0176 63.8992L30.9795 63.3004ZM38.7492 58.2039C38.5858 58.2311 38.4754 58.3857 38.5026 58.5491C38.5299 58.7126 38.6844 58.823 38.8479 58.7957L38.7492 58.2039ZM38.899 69.8828C39.0553 69.8278 39.1374 69.6565 39.0824 69.5002C39.0274 69.344 38.8562 69.2618 38.6999 69.3168L38.899 69.8828ZM5.10756 63.095L4.91008 63.3208L4.91008 63.3208L5.10756 63.095ZM12.8635 64.3709L12.7908 64.0799L12.7908 64.0799L12.8635 64.3709ZM4.14243 46.9052L3.84711 46.8524L3.84711 46.8524L4.14243 46.9052ZM7.59629 25.4998L7.306 25.4241L7.59629 25.4998ZM14.7966 13.4998L14.5931 13.2794L14.5931 13.2794L14.7966 13.4998ZM56.8862 63.095L57.0837 63.3208L57.0837 63.3208L56.8862 63.095ZM49.1302 64.3709L49.203 64.0799L49.203 64.0799L49.1302 64.3709ZM57.8513 46.9052L58.1466 46.8524L58.1466 46.8524L57.8513 46.9052ZM54.3975 25.4998L54.6877 25.4241L54.6877 25.4241L54.3975 25.4998ZM47.1971 13.4998L47.4006 13.2794L47.4006 13.2794L47.1971 13.4998ZM22.647 10.2039C22.4835 10.1766 22.329 10.287 22.3017 10.4505C22.2745 10.6139 22.3849 10.7685 22.5483 10.7957L22.647 10.2039ZM30.9977 18.7498L30.7783 18.9545C30.8351 19.0153 30.9145 19.0498 30.9977 19.0498C31.0808 19.0498 31.1602 19.0153 31.217 18.9545L30.9977 18.7498ZM21.0977 14.9998L21.0483 15.2957L21.0483 15.2957L21.0977 14.9998ZM21.0977 4.4998L21.1925 4.78441L21.1925 4.78441L21.0977 4.4998ZM27.0977 32.6998C27.0977 32.8655 27.232 32.9998 27.3977 32.9998C27.5633 32.9998 27.6977 32.8655 27.6977 32.6998H27.0977ZM39.447 10.7957C39.6104 10.7684 39.7208 10.6139 39.6936 10.4504C39.6663 10.287 39.5118 10.1766 39.3483 10.2038L39.447 10.7957ZM40.8977 14.9998L40.8483 14.7039L40.8483 14.7039L40.8977 14.9998ZM34.2977 32.6998C34.2977 32.8655 34.432 32.9998 34.5977 32.9998C34.7633 32.9998 34.8977 32.8655 34.8977 32.6998H34.2977ZM15.2587 13.0816L15.4767 12.8756L15.2587 13.0816ZM47.7265 61.6657L47.4416 61.7597L47.7265 61.6657ZM13.3019 46.4588C12.0946 55.2104 14.0267 57.0441 14.5021 60.3426L15.096 60.257C14.5907 56.7516 12.7032 55.1892 13.8963 46.5408L13.3019 46.4588ZM15.4044 27.0535C15.9956 30.306 15.7754 32.9675 15.2539 35.91C14.7345 38.8406 13.9023 42.107 13.3019 46.4588L13.8963 46.5408C14.4962 42.1926 15.3141 39.009 15.8447 36.0147C16.3733 33.0322 16.6032 30.2936 15.9947 26.9462L15.4044 27.0535ZM48.1007 46.5408C49.2938 55.1892 47.4062 56.7516 46.901 60.257L47.4949 60.3426C47.9703 57.0441 49.9024 55.2104 48.695 46.4588L48.1007 46.5408ZM46.0023 26.9462C45.3938 30.2936 45.6237 33.0322 46.1522 36.0147C46.6829 39.009 47.5008 42.1926 48.1007 46.5408L48.695 46.4588C48.0947 42.107 47.2624 38.8406 46.743 35.91C46.2215 32.9675 46.0013 30.306 46.5926 27.0535L46.0023 26.9462ZM44.395 71.7179C43.2631 72.1296 41.3081 72.2733 38.9186 72.1821C36.5423 72.0914 33.7773 71.7705 31.0517 71.2801L30.9454 71.8706C33.6932 72.365 36.4865 72.6897 38.8957 72.7816C41.2916 72.8731 43.3495 72.7366 44.6001 72.2817L44.395 71.7179ZM31.0176 63.8992C32.8116 63.785 35.6855 63.2547 38.1139 62.489C39.3273 62.1064 40.4464 61.6598 41.2683 61.1677C41.6789 60.9219 42.0287 60.6569 42.279 60.372C42.5293 60.0871 42.6985 59.7605 42.6985 59.3998H42.0985C42.0985 59.5641 42.022 59.7555 41.8283 59.976C41.6346 60.1964 41.3422 60.4242 40.9601 60.653C40.1966 61.1101 39.1284 61.54 37.9335 61.9168C35.5452 62.6699 32.7191 63.1896 30.9795 63.3004L31.0176 63.8992ZM42.6985 59.3998C42.6985 59.059 42.5227 58.7905 42.271 58.5987C42.0263 58.4122 41.6984 58.2869 41.3386 58.207C40.6161 58.0464 39.6757 58.0495 38.7492 58.2039L38.8479 58.7957C39.7214 58.6501 40.581 58.6532 41.2085 58.7927C41.5237 58.8627 41.7583 58.9624 41.9073 59.0759C42.0494 59.1842 42.0985 59.2906 42.0985 59.3998H42.6985ZM17.3969 72.2817C18.6475 72.7366 20.7054 72.8731 23.1014 72.7816C25.5106 72.6896 28.3039 72.365 31.0517 71.8706L30.9454 71.2801C28.2199 71.7704 25.4549 72.0913 23.0785 72.182C20.6889 72.2733 18.7338 72.1296 17.602 71.7179L17.3969 72.2817ZM31.0517 71.8706C33.86 71.3653 36.6294 70.6813 38.899 69.8828L38.6999 69.3168C36.4686 70.1018 33.732 70.7787 30.9454 71.2801L31.0517 71.8706ZM4.91008 63.3208C5.27657 63.6413 5.87543 63.8978 6.54952 64.1016C7.23412 64.3086 8.03554 64.4724 8.84022 64.5883C9.64548 64.7043 10.4606 64.7734 11.1744 64.789C11.8812 64.8044 12.5119 64.7681 12.9363 64.662L12.7908 64.0799C12.4467 64.1659 11.8816 64.2043 11.1875 64.1891C10.5003 64.1741 9.70946 64.1073 8.92578 63.9944C8.14152 63.8814 7.37109 63.7232 6.72315 63.5273C6.06469 63.3282 5.57029 63.1011 5.30505 62.8691L4.91008 63.3208ZM4.43774 46.958C5.2564 42.3805 5.85397 38.0456 6.37946 34.3499C6.90608 30.6464 7.35847 27.5999 7.88657 25.5755L7.306 25.4241C6.76732 27.489 6.3103 30.5742 5.78544 34.2655C5.25945 37.9646 4.66348 42.2877 3.84711 46.8524L4.43774 46.958ZM4.50919 60.5682C4.7835 60.4467 4.78356 60.4468 4.7836 60.4469C4.78361 60.4469 4.78365 60.447 4.78366 60.4471C4.78368 60.4471 4.78367 60.4471 4.78364 60.447C4.78356 60.4468 4.78336 60.4464 4.78305 60.4457C4.78242 60.4442 4.78133 60.4417 4.77978 60.438C4.77669 60.4307 4.77181 60.419 4.76531 60.4029C4.75231 60.3707 4.73283 60.3208 4.70824 60.2534C4.65907 60.1184 4.58946 59.9128 4.51039 59.6364C4.35225 59.0837 4.15621 58.2475 4.01016 57.1262C3.71811 54.8841 3.62556 51.4993 4.43774 46.958L3.84711 46.8524C3.02426 51.4533 3.1151 54.8999 3.41518 57.2037C3.5652 58.3554 3.76742 59.2209 3.93353 59.8015C4.01658 60.0917 4.09058 60.3108 4.1445 60.4588C4.17145 60.5327 4.19338 60.589 4.20891 60.6274C4.21667 60.6467 4.22283 60.6615 4.22722 60.6718C4.22941 60.677 4.23116 60.6811 4.23244 60.6841C4.23309 60.6855 4.23361 60.6867 4.23402 60.6877C4.23422 60.6881 4.2344 60.6885 4.23454 60.6889C4.23461 60.689 4.2347 60.6892 4.23473 60.6893C4.23481 60.6895 4.23488 60.6896 4.50919 60.5682ZM7.88657 25.5755C8.94059 21.5351 11.147 17.2769 15.0001 13.7202L14.5931 13.2794C10.6462 16.9227 8.38556 21.2858 7.306 25.4241L7.88657 25.5755ZM12.9363 64.662C13.3891 64.5488 13.7074 64.3122 13.9184 64.0136C14.125 63.7211 14.2174 63.3859 14.2542 63.0845C14.2912 62.7821 14.2742 62.4976 14.2491 62.2915C14.2365 62.1877 14.2216 62.1017 14.2096 62.0409C14.2036 62.0105 14.1983 61.9862 14.1944 61.969C14.1924 61.9603 14.1908 61.9535 14.1896 61.9485C14.189 61.946 14.1885 61.9439 14.1881 61.9424C14.1879 61.9416 14.1877 61.9409 14.1876 61.9404C14.1875 61.9401 14.1875 61.9399 14.1874 61.9397C14.1874 61.9396 14.1874 61.9394 14.1873 61.9394C14.1873 61.9393 14.1873 61.9391 13.8966 62.0134C13.6059 62.0876 13.6059 62.0875 13.6059 62.0874C13.6059 62.0874 13.6059 62.0873 13.6058 62.0872C13.6058 62.0871 13.6058 62.0871 13.6058 62.0871C13.6058 62.087 13.6058 62.0871 13.6058 62.0872C13.6059 62.0876 13.6061 62.0884 13.6064 62.0896C13.607 62.0921 13.608 62.0964 13.6094 62.1023C13.6121 62.1141 13.6161 62.1326 13.6209 62.1569C13.6305 62.2055 13.6429 62.2767 13.6535 62.3639C13.6749 62.5398 13.6878 62.7727 13.6586 63.0117C13.6293 63.2516 13.5595 63.4817 13.4283 63.6674C13.3016 63.8468 13.1065 64.001 12.7908 64.0799L12.9363 64.662ZM5.30505 62.8691C4.75177 62.3853 4.62739 61.8449 4.63453 61.4223C4.63817 61.2073 4.67633 61.0212 4.71367 60.8893C4.73225 60.8237 4.75035 60.7724 4.76323 60.7387C4.76967 60.7219 4.77476 60.7096 4.77792 60.7022C4.7795 60.6985 4.7806 60.6961 4.78112 60.6949C4.78139 60.6943 4.78151 60.694 4.78148 60.6941C4.78147 60.6941 4.78142 60.6942 4.78133 60.6944C4.78128 60.6945 4.78122 60.6947 4.78116 60.6948C4.78113 60.6949 4.78107 60.695 4.78105 60.695C4.781 60.6951 4.78093 60.6953 4.50919 60.5682C4.23745 60.4411 4.23738 60.4412 4.23731 60.4414C4.23729 60.4414 4.23722 60.4416 4.23716 60.4417C4.23706 60.4419 4.23694 60.4422 4.23682 60.4424C4.23657 60.443 4.23628 60.4436 4.23595 60.4443C4.23529 60.4457 4.23448 60.4475 4.23352 60.4497C4.23161 60.4539 4.22912 60.4596 4.22614 60.4666C4.22017 60.4806 4.21221 60.4999 4.20293 60.5241C4.18437 60.5726 4.16038 60.641 4.13635 60.7259C4.08847 60.8951 4.03932 61.1336 4.03462 61.4122C4.02508 61.9768 4.19988 62.6998 4.91008 63.3208L5.30505 62.8691ZM4.37376 60.8359C4.92454 61.1145 6.15343 61.524 7.809 61.8432C9.47151 62.1639 11.5837 62.3974 13.9075 62.3132L13.8857 61.7136C11.6138 61.7959 9.54738 61.5674 7.92261 61.2541C6.29091 60.9394 5.12392 60.543 4.64463 60.3005L4.37376 60.8359ZM56.6887 62.8691C56.4235 63.1011 55.9291 63.3282 55.2706 63.5273C54.6227 63.7232 53.8522 63.8814 53.068 63.9944C52.2843 64.1073 51.4934 64.1741 50.8063 64.1891C50.1121 64.2043 49.547 64.1659 49.203 64.0799L49.0575 64.662C49.4819 64.7681 50.1126 64.8044 50.8194 64.789C51.5331 64.7734 52.3483 64.7043 53.1535 64.5883C53.9582 64.4724 54.7596 64.3086 55.4442 64.1016C56.1183 63.8978 56.7172 63.6413 57.0837 63.3208L56.6887 62.8691ZM58.1466 46.8524C57.3303 42.2877 56.7343 37.9646 56.2083 34.2655C55.6835 30.5742 55.2264 27.489 54.6877 25.4241L54.1072 25.5755C54.6353 27.5999 55.0877 30.6464 55.6143 34.3499C56.1398 38.0456 56.7373 42.3805 57.556 46.958L58.1466 46.8524ZM57.4846 60.5682C57.7589 60.6896 57.7589 60.6895 57.759 60.6893C57.7591 60.6892 57.7591 60.689 57.7592 60.6889C57.7594 60.6885 57.7595 60.6881 57.7597 60.6877C57.7601 60.6867 57.7607 60.6855 57.7613 60.6841C57.7626 60.6811 57.7643 60.677 57.7665 60.6718C57.7709 60.6615 57.7771 60.6467 57.7848 60.6274C57.8004 60.589 57.8223 60.5327 57.8493 60.4588C57.9032 60.3108 57.9772 60.0917 58.0602 59.8015C58.2263 59.2209 58.4286 58.3554 58.5786 57.2037C58.8787 54.8999 58.9695 51.4533 58.1466 46.8524L57.556 46.958C58.3682 51.4993 58.2756 54.8841 57.9836 57.1262C57.8375 58.2475 57.6415 59.0837 57.4834 59.6364C57.4043 59.9128 57.3347 60.1184 57.2855 60.2534C57.2609 60.3208 57.2414 60.3707 57.2284 60.4029C57.2219 60.419 57.2171 60.4307 57.214 60.438C57.2124 60.4417 57.2113 60.4442 57.2107 60.4457C57.2104 60.4464 57.2102 60.4468 57.2101 60.447C57.2101 60.4471 57.2101 60.4471 57.2101 60.4471C57.2101 60.447 57.2101 60.4469 57.2101 60.4469C57.2102 60.4468 57.2103 60.4467 57.4846 60.5682ZM54.6877 25.4241C53.6082 21.2858 51.3476 16.9227 47.4006 13.2794L46.9937 13.7202C50.8467 17.2769 53.0532 21.5351 54.1072 25.5755L54.6877 25.4241ZM49.203 64.0799C48.8873 64.001 48.6922 63.8468 48.5654 63.6674C48.4342 63.4817 48.3644 63.2516 48.3351 63.0117C48.3059 62.7727 48.3188 62.5398 48.3402 62.3639C48.3508 62.2767 48.3633 62.2055 48.3728 62.1569C48.3776 62.1326 48.3817 62.1141 48.3844 62.1023C48.3857 62.0964 48.3867 62.0921 48.3873 62.0896C48.3876 62.0884 48.3878 62.0876 48.3879 62.0872C48.388 62.0871 48.388 62.087 48.388 62.0871C48.3879 62.0871 48.3879 62.0871 48.3879 62.0872C48.3879 62.0873 48.3879 62.0874 48.3879 62.0874C48.3878 62.0875 48.3878 62.0876 48.0971 62.0134C47.8065 61.9391 47.8064 61.9393 47.8064 61.9394C47.8064 61.9394 47.8064 61.9396 47.8063 61.9397C47.8063 61.9399 47.8062 61.9401 47.8062 61.9404C47.806 61.9409 47.8059 61.9416 47.8057 61.9424C47.8053 61.9439 47.8048 61.946 47.8042 61.9485C47.803 61.9535 47.8013 61.9603 47.7994 61.969C47.7954 61.9862 47.7901 62.0105 47.7842 62.0409C47.7722 62.1017 47.7572 62.1877 47.7446 62.2915C47.7196 62.4976 47.7026 62.7821 47.7395 63.0845C47.7764 63.3859 47.8688 63.7211 48.0754 64.0136C48.2864 64.3122 48.6047 64.5488 49.0575 64.662L49.203 64.0799ZM57.0837 63.3208C57.7939 62.6998 57.9687 61.9768 57.9591 61.4122C57.9544 61.1336 57.9053 60.8951 57.8574 60.7259C57.8334 60.641 57.8094 60.5726 57.7908 60.5241C57.7815 60.4999 57.7736 60.4806 57.7676 60.4666C57.7646 60.4596 57.7621 60.4539 57.7602 60.4497C57.7593 60.4475 57.7585 60.4458 57.7578 60.4443C57.7575 60.4436 57.7572 60.443 57.7569 60.4424C57.7568 60.4422 57.7567 60.4419 57.7566 60.4417C57.7565 60.4416 57.7565 60.4414 57.7564 60.4414C57.7564 60.4412 57.7563 60.4411 57.4846 60.5682C57.2128 60.6953 57.2128 60.6951 57.2127 60.695C57.2127 60.695 57.2126 60.6949 57.2126 60.6948C57.2125 60.6947 57.2125 60.6945 57.2124 60.6944C57.2123 60.6942 57.2123 60.6941 57.2123 60.6941C57.2122 60.694 57.2124 60.6943 57.2126 60.6949C57.2132 60.6961 57.2142 60.6985 57.2158 60.7022C57.219 60.7096 57.2241 60.7219 57.2305 60.7387C57.2434 60.7724 57.2615 60.8237 57.2801 60.8893C57.3174 61.0212 57.3556 61.2073 57.3592 61.4223C57.3664 61.8449 57.242 62.3853 56.6887 62.8691L57.0837 63.3208ZM57.3491 60.3005C56.8698 60.543 55.7028 60.9394 54.0711 61.2541C52.4464 61.5674 50.3799 61.7959 48.108 61.7136L48.0863 62.3132C50.41 62.3974 52.5222 62.1639 54.1848 61.8432C55.8403 61.524 57.0692 61.1145 57.62 60.8359L57.3491 60.3005ZM22.5483 10.7957C24.2729 11.0831 26.3187 12.2451 27.7855 13.7119L28.2098 13.2876C26.6766 11.7545 24.5224 10.5164 22.647 10.2039L22.5483 10.7957ZM27.7855 13.7119C29.3027 15.2291 30.6975 16.6435 30.6977 18.7498L31.2977 18.7498C31.2974 16.3561 29.6926 14.7705 28.2098 13.2876L27.7855 13.7119ZM14.7977 11.0998C14.7977 9.57466 15.6996 8.2254 16.9804 7.12758C18.2577 6.03272 19.8715 5.22476 21.1925 4.78441L21.0028 4.2152C19.6238 4.67485 17.9376 5.51689 16.5899 6.67203C15.2457 7.82421 14.1977 9.32495 14.1977 11.0998H14.7977ZM21.1925 4.78441C23.848 3.89925 26.4221 3.5998 30.9977 3.5998V2.9998C26.3956 2.9998 23.7473 3.30036 21.0028 4.2152L21.1925 4.78441ZM28.3056 17.067C27.9996 18.3678 27.6984 21.0209 27.4735 23.9611C27.2481 26.9086 27.0977 30.1701 27.0977 32.6998H27.6977C27.6977 30.1895 27.8472 26.944 28.0718 24.0069C28.2969 21.0625 28.5957 18.4536 28.8897 17.2044L28.3056 17.067ZM39.3483 10.2038C37.4729 10.5164 35.3187 11.7544 33.7855 13.2876L34.2098 13.7119C35.6766 12.2451 37.7224 11.0831 39.447 10.7957L39.3483 10.2038ZM33.7855 13.2876C32.3027 14.7705 30.6979 16.3561 30.6977 18.7498L31.2977 18.7498C31.2979 16.6435 32.6926 15.2291 34.2098 13.7119L33.7855 13.2876ZM47.7977 11.0998C47.7977 9.32494 46.7496 7.82419 45.4054 6.67201C44.0577 5.51687 42.3715 4.67484 40.9925 4.21518L40.8028 4.78439C42.1238 5.22474 43.7376 6.03271 45.0149 7.12757C46.2957 8.22539 47.1977 9.57464 47.1977 11.0998H47.7977ZM40.9925 4.21518C38.248 3.30034 35.5997 2.9998 30.9977 2.9998V3.5998C35.5732 3.5998 38.1473 3.89923 40.8028 4.78439L40.9925 4.21518ZM33.0416 17.2348C33.3358 18.4852 33.6505 21.0878 33.8917 24.0237C34.1322 26.9533 34.2977 30.1905 34.2977 32.6998H34.8977C34.8977 30.169 34.7311 26.9145 34.4896 23.9746C34.2487 21.0413 33.9315 18.397 33.6257 17.0974L33.0416 17.2348ZM21.0483 15.2957C22.5819 15.5517 25.9519 16.219 28.4696 17.407L28.7257 16.8644C26.1276 15.6385 22.687 14.961 21.1471 14.7039L21.0483 15.2957ZM28.4696 17.407C29.4262 17.8584 30.2372 18.3747 30.7783 18.9545L31.217 18.5451C30.6015 17.8857 29.7132 17.3303 28.7257 16.8644L28.4696 17.407ZM40.8483 14.7039C39.2958 14.963 35.81 15.6498 33.2043 16.8954L33.463 17.4368C35.9869 16.2302 39.4003 15.5539 40.9471 15.2957L40.8483 14.7039ZM33.2043 16.8954C32.2433 17.3548 31.3804 17.9001 30.7783 18.5451L31.217 18.9545C31.746 18.3876 32.5333 17.8812 33.463 17.4368L33.2043 16.8954ZM14.1977 11.0998C14.1977 12.0195 14.5193 12.736 15.0406 13.2877L15.4767 12.8756C15.059 12.4336 14.7977 11.8639 14.7977 11.0998H14.1977ZM15.0406 13.2877C15.7878 14.0783 16.924 14.5087 18.029 14.7773C19.1332 15.0458 20.2842 15.1682 21.0483 15.2957L21.1471 14.7039C20.3313 14.5677 19.2484 14.4563 18.1707 14.1943C17.0938 13.9325 16.1005 13.5356 15.4767 12.8756L15.0406 13.2877ZM15.0001 13.7202C15.1527 13.5794 15.3052 13.4414 15.4578 13.3061L15.0596 12.8572C14.9041 12.9951 14.7486 13.1358 14.5931 13.2794L15.0001 13.7202ZM47.1977 11.0998C47.1977 11.8642 46.936 12.4341 46.5179 12.8763L46.9539 13.2885C47.4757 12.7367 47.7977 12.02 47.7977 11.0998H47.1977ZM46.5179 12.8763C45.894 13.536 44.9007 13.9327 43.824 14.1945C42.7466 14.4564 41.6639 14.5677 40.8483 14.7039L40.9471 15.2957C41.7109 15.1682 42.8618 15.0458 43.9658 14.7775C45.0705 14.5089 46.2066 14.0788 46.9539 13.2885L46.5179 12.8763ZM47.4006 13.2794C47.2454 13.1361 47.0902 12.9956 46.935 12.858L46.5368 13.3068C46.6891 13.4419 46.8414 13.5797 46.9937 13.7202L47.4006 13.2794ZM48.0971 62.0134C48.2854 61.7798 48.2855 61.7798 48.2855 61.7799C48.2855 61.7799 48.2855 61.7799 48.2855 61.7799C48.2856 61.7799 48.2856 61.7799 48.2856 61.78C48.2857 61.78 48.2857 61.78 48.2857 61.7801C48.2858 61.7801 48.2858 61.7801 48.2858 61.7801C48.2858 61.7801 48.2857 61.78 48.2854 61.7798C48.2848 61.7793 48.2838 61.7784 48.2821 61.7771C48.2789 61.7744 48.2737 61.77 48.2664 61.7638C48.2519 61.7515 48.2294 61.732 48.1997 61.7052C48.1403 61.6516 48.0519 61.5688 47.9404 61.4553L47.5126 61.8761C47.6328 61.9983 47.7298 62.0894 47.7978 62.1507C47.8318 62.1813 47.8585 62.2046 47.8773 62.2205C47.8866 62.2285 47.894 62.2347 47.8993 62.2391C47.902 62.2413 47.9041 62.243 47.9057 62.2443C47.9065 62.245 47.9071 62.2455 47.9077 62.246C47.9079 62.2462 47.9082 62.2464 47.9084 62.2465C47.9085 62.2466 47.9085 62.2467 47.9086 62.2467C47.9087 62.2468 47.9087 62.2468 47.9087 62.2468C47.9088 62.2468 47.9088 62.2469 47.9088 62.2469C47.9088 62.2469 47.9088 62.2469 48.0971 62.0134ZM46.9238 60.4217C47.1238 60.8717 47.296 61.3183 47.4416 61.7597L48.0114 61.5717C47.8595 61.1111 47.68 60.6458 47.4721 60.178L46.9238 60.4217ZM47.4416 61.7597C49.0176 66.5385 47.4706 70.5992 44.395 71.7179L44.6001 72.2817C48.113 71.004 49.6382 66.5044 48.0114 61.5717L47.4416 61.7597ZM13.8966 62.0134C14.0849 62.2469 14.0849 62.2469 14.085 62.2469C14.085 62.2469 14.085 62.2468 14.085 62.2468C14.085 62.2468 14.0851 62.2468 14.0851 62.2467C14.0852 62.2467 14.0853 62.2466 14.0854 62.2465C14.0856 62.2464 14.0858 62.2462 14.0861 62.2459C14.0866 62.2455 14.0873 62.245 14.0881 62.2443C14.0897 62.243 14.0919 62.2412 14.0946 62.239C14.0999 62.2346 14.1074 62.2283 14.1169 62.2202C14.1359 62.204 14.163 62.1805 14.1974 62.1494C14.2662 62.0873 14.3645 61.9949 14.4862 61.8709L14.0581 61.4506C13.9451 61.5657 13.8555 61.6497 13.7953 61.704C13.7652 61.7312 13.7424 61.751 13.7277 61.7636C13.7203 61.7699 13.7149 61.7743 13.7117 61.777C13.71 61.7784 13.7089 61.7793 13.7084 61.7798C13.7081 61.78 13.7079 61.7801 13.7079 61.7801C13.7079 61.7801 13.708 61.7801 13.708 61.7801C13.708 61.78 13.7081 61.78 13.7081 61.78C13.7082 61.7799 13.7082 61.7799 13.7082 61.7799C13.7082 61.7799 13.7083 61.7799 13.7083 61.7799C13.7083 61.7798 13.7083 61.7798 13.8966 62.0134ZM14.5249 60.178C14.3177 60.6441 14.1388 61.1077 13.9873 61.5667L14.557 61.7548C14.7022 61.3151 14.8739 60.87 15.0732 60.4217L14.5249 60.178ZM13.9873 61.5667C12.3578 66.5014 13.8828 71.0035 17.3969 72.2817L17.602 71.7179C14.5253 70.5988 12.9783 66.5358 14.557 61.7548L13.9873 61.5667Z" stroke="#1E1E1E" stroke-width="0.6"/>
</svg>
