<svg width="63" height="129" viewBox="0 0 63 129" fill="none" xmlns="http://www.w3.org/2000/svg">
<path d="M31.207 74.1002C24.0559 74.1002 17.9543 72.522 16.5089 72.1095C15.0635 71.6969 14.1089 71.3999 13.8831 70.0701C13.8074 69.6244 13.7825 67.4954 13.8815 63.9135M31.207 74.1002C38.3582 74.1002 44.4597 72.5219 45.9051 72.1094C47.3505 71.6968 48.3052 71.3998 48.531 70.07C48.6066 69.6245 48.6316 67.4968 48.5326 63.9172M31.207 74.1002L31.2064 18.6005M22.0328 54.2046C22.1299 56.1682 22.0641 60.7083 21.7497 61.4948C21.4353 62.2813 20.9472 62.51 20.2392 62.6205C19.5311 62.731 15.6114 62.8675 13.925 62.4929M14.3224 53.8864C16.215 53.9228 20.3984 53.9936 21.0729 53.9858C21.9161 53.976 22.6602 54.0659 22.7925 53.2197C22.8831 52.6395 22.7548 51.8624 22.5782 51.0028C22.4015 50.1432 22.0328 50.1442 21.4419 50.0607C20.851 49.9771 16.1859 49.8349 14.5713 49.8349M14.3224 53.8864C14.1312 57.2364 14.004 60.1219 13.925 62.4929M14.3224 53.8864C14.3957 52.6031 14.4784 51.2517 14.5713 49.8349M14.5713 49.8349C14.9859 43.5167 15.6054 35.8991 16.509 27.2317M13.925 62.4929C13.9084 62.9891 13.894 63.4628 13.8815 63.9135M40.3813 54.2045C40.2842 56.1681 40.35 60.7082 40.6644 61.4947C40.9788 62.2812 41.4669 62.5099 42.1749 62.6204C42.8829 62.7309 46.8027 62.8674 48.4891 62.4928M48.0916 53.8863C46.199 53.9227 42.0157 53.9935 41.3412 53.9857C40.498 53.9759 39.7538 54.0658 39.6216 53.2196C39.531 52.6394 39.6592 51.8623 39.8359 51.0027C40.0126 50.1431 40.3813 50.1441 40.9722 50.0606C41.5631 49.9771 46.2282 49.8348 47.8427 49.8348M48.0916 53.8863C48.0184 52.603 47.9357 51.2516 47.8427 49.8348M48.0916 53.8863C48.2829 57.2363 48.4101 60.1218 48.4891 62.4928M47.8427 49.8348C47.4281 43.5167 46.8087 35.899 45.905 27.2316M48.4891 62.4928C48.5057 62.9904 48.5202 63.4654 48.5326 63.9172M31.2064 18.6005C23.7628 18.6005 21.7273 14.6916 20.5999 13.2147C20.1665 12.647 19.8123 11.9754 18.7916 11.897M31.2064 18.6005C38.6499 18.6005 40.9608 14.4036 42.0882 12.9267C42.5172 12.3647 42.9048 11.9365 43.6049 11.9032M18.7916 11.897C22.5916 10.716 27.7203 10.3159 31.1688 10.3159C34.6233 10.3159 39.803 10.7174 43.6049 11.9032M18.7916 11.897C17.771 11.8186 16.2091 13.0466 14.6526 14.1282C13.096 15.2098 11.667 16.8709 11.2774 17.3042C9.68828 19.0711 8.31122 24.1555 7.64279 28.5003C6.97436 32.8451 6.63392 37.6782 5.91742 43.5366C5.20092 49.395 4.80469 61.2 4.80469 62.1C4.80469 63 5.10455 63.6 6.00455 63.9C6.90455 64.2 12.0045 64.5 13.2045 64.2C13.4806 64.131 13.7023 64.0339 13.8815 63.9135M43.6049 11.9032C44.3051 11.8699 45.9952 12.5365 47.9398 14.0616C49.8843 15.5867 52.159 17.7337 52.9538 20.5029C53.7486 23.272 54.0974 24.1555 54.7658 28.5003C55.4342 32.8451 55.7747 37.6782 56.4912 43.5366C57.2077 49.395 57.6039 61.2 57.6039 62.1C57.6039 63 57.304 63.6 56.404 63.9C55.504 64.2 50.4041 64.5 49.2041 64.2C48.9308 64.1317 48.7109 64.0359 48.5326 63.9172" stroke="#1E1E1E" stroke-width="0.6" stroke-linecap="round"/>
</svg>
