<svg width="63" height="129" viewBox="0 0 63 129" fill="none" xmlns="http://www.w3.org/2000/svg">
<path d="M31.005 64.5001C23.8538 64.5001 17.7505 62.9222 16.3051 62.5096C14.8597 62.0971 14.9537 61.8403 14.8792 60.4702M31.005 64.5001C38.1561 64.5001 44.2597 62.9221 45.7051 62.5095C47.1505 62.097 47.0566 61.8402 47.131 60.4701M31.005 64.5001L31.0048 15.2999M14.8792 60.4702C14.8583 60.0838 14.9625 58.5419 15.123 56.1678L15.1496 55.7742M14.8792 60.4702C14.8792 60.4702 14.8778 61.36 14.6723 62.3012C14.4668 63.2423 14.2014 63.9 13.0014 64.2C11.8014 64.5 6.70142 64.2 5.80142 63.9C4.90142 63.6 4.60156 63 4.60156 62.1C4.60156 61.2 4.99779 49.3951 5.71429 43.5367C6.43079 37.6783 6.77123 32.8452 7.43966 28.5004C8.10809 24.1556 8.61389 20.3988 10.4977 17.8494C12.3815 15.3 13.253 14.6877 15.6818 12.9111C18.1107 11.1346 20.9543 9.9155 21.7768 9.89109M23.2851 47.5976C23.3822 49.5612 23.3164 54.1013 23.002 54.8878C22.6875 55.6743 22.1994 55.9031 21.4914 56.0136C20.7834 56.1241 16.836 56.1489 15.1496 55.7742M15.6818 47.2795C17.5744 47.3159 21.6506 47.3867 22.3252 47.3789C23.1684 47.3691 23.9125 47.459 24.0447 46.6128C24.1354 46.0326 24.0071 45.2555 23.8305 44.3959C23.6538 43.5363 23.2851 43.5372 22.6942 43.4537C22.1033 43.3702 17.5054 43.2279 15.8909 43.2279M15.6818 47.2795C15.4955 50.6224 15.3009 53.5349 15.1496 55.7742M15.6818 47.2795C15.7538 45.9885 15.8244 44.6333 15.8909 43.2279M15.8909 43.2279C16.1241 38.2966 16.3051 32.7471 16.3051 27.1836M47.131 60.4701C47.152 60.0837 47.0478 58.5418 46.8872 56.1676L46.8682 55.8858M47.131 60.4701C47.131 60.4701 47.2149 61.5099 47.3521 62.3796C47.4894 63.2492 47.8009 63.9 49.0009 64.2C50.2009 64.5 55.3009 64.2 56.2009 63.9C57.1009 63.6 57.4008 63 57.4008 62.1C57.4008 61.2 57.0046 49.3951 56.2881 43.5367C55.5716 37.6783 55.2311 32.8452 54.5627 28.5004C53.8943 24.1556 53.7783 22.2611 51.9504 18.9861C50.1225 15.7112 45.4833 12.9144 44.4018 12.097C43.3204 11.2797 40.9358 9.84535 40.2062 9.89864M38.7252 47.5975C38.6281 49.5611 38.6939 54.1012 39.0083 54.8878C39.3227 55.6743 39.8108 55.903 40.5188 56.0135C41.2268 56.124 45.1818 56.2605 46.8682 55.8858M46.3284 47.2794C44.4358 47.3158 40.3596 47.3866 39.6851 47.3788C38.8419 47.369 38.0977 47.4589 37.9655 46.6127C37.8749 46.0325 38.0031 45.2554 38.1798 44.3958C38.3565 43.5362 38.7252 43.5371 39.3161 43.4536C39.907 43.3701 44.5048 43.2279 46.1194 43.2279M46.3284 47.2794C46.5178 50.6782 46.7159 53.6321 46.8682 55.8858M46.3284 47.2794C46.2565 45.9884 46.1858 44.6332 46.1194 43.2279M46.1194 43.2279C45.8862 38.2965 45.7052 32.747 45.7052 27.1835M31.0048 15.2999C27.1037 15.2999 24.6315 13.0002 23.4641 11.2869C22.9489 10.5308 22.5993 9.86667 21.7768 9.89109M31.0048 15.2999C34.9059 15.2999 37.3748 13.0002 38.5422 11.2869C39.0508 10.5404 39.4767 9.95193 40.2062 9.89864M21.7768 9.89109C23.9386 8.87897 27.2629 8.46631 30.9656 8.46631C34.6666 8.46631 38.0444 8.88756 40.2062 9.89864" stroke="#1E1E1E" stroke-width="0.6" stroke-linecap="round"/>
</svg>
