<svg width="64" height="129" viewBox="0 0 64 129" fill="none" xmlns="http://www.w3.org/2000/svg">
<path d="M31.7919 45.3001C24.6407 45.3001 19.7394 43.7222 18.294 43.3096C17.4121 43.0579 17.1032 42.8642 16.9796 42.4402M31.7919 45.3001C38.9431 45.3001 43.8464 43.7222 45.2918 43.3096C46.1642 43.0606 46.4758 42.8683 46.6021 42.4537M31.7919 45.3001L31.8006 18.7501M17.0939 27.1836C17.0939 35.5768 16.7937 39.9001 16.8681 41.2702C16.8971 41.8043 16.9005 42.1693 16.9796 42.4402M46.4918 27.1836C46.4918 35.5768 46.792 39.9001 46.7176 41.2702C46.6881 41.8133 46.6851 42.1814 46.6021 42.4537M31.8006 18.7501C31.248 18.7501 30.9395 18.6474 30.2944 18.1986C29.6493 17.7498 26.3614 14.5091 24.7035 12.7925C23.6235 11.6742 22.1938 10.5331 21.2698 10.5928M31.8006 18.7501C32.3531 18.7501 32.6523 18.6474 33.2973 18.1986C33.9424 17.7498 37.2303 14.5091 38.8883 12.7925C39.9342 11.7095 41.1092 10.4932 42.2011 10.6107M21.2698 10.5928C23.4284 9.54695 27.9951 8.46631 31.7537 8.46631C35.5123 8.46631 40.0424 9.56491 42.2011 10.6107M21.2698 10.5928C20.3457 10.6524 18.6352 11.9514 17.3435 12.7925C16.0518 13.6335 12.7053 16.3679 11.8633 17.3042C10.2742 19.0712 8.89716 24.1556 8.22873 28.5004C7.5603 32.8452 7.21986 37.6783 6.50336 43.5367C5.78685 49.3951 5.39062 61.2 5.39062 62.1C5.39062 63 5.69049 63.6 6.59049 63.9C7.49049 64.2001 12.5905 64.5 13.7905 64.2001C14.9905 63.9 15.1621 63.0701 15.2905 62.1C15.3747 61.4634 16.0928 52.3238 16.9796 42.4402M42.2011 10.6107C43.2929 10.7282 44.1044 11.3503 45.1354 12.104C46.1663 12.8578 50.6967 16.1101 52.455 18.7501C54.2133 21.3901 54.6833 24.1556 55.3517 28.5004C56.0202 32.8452 56.3606 37.6783 57.0771 43.5367C57.7936 49.3951 58.1898 61.2 58.1898 62.1C58.1898 63 57.89 63.6 56.99 63.9C56.09 64.2001 50.99 64.5 49.79 64.2001C48.59 63.9 48.4184 63.0701 48.29 62.1C48.2058 61.4637 47.4884 52.3321 46.6021 42.4537" stroke="#1E1E1E" stroke-width="0.6" stroke-linecap="round"/>
</svg>
