<svg width="63" height="129" viewBox="0 0 63 129" fill="none" xmlns="http://www.w3.org/2000/svg">
<path d="M31.2081 64.4998C24.0569 64.4998 17.9536 62.9219 16.5082 62.5093C15.0628 62.0968 15.1568 61.84 15.0824 60.4699M31.2081 64.4998C38.3593 64.4998 44.4629 62.9218 45.9083 62.5092C47.3537 62.0967 47.2597 61.8399 47.3341 60.4698M31.2081 64.4998L31.2071 2.79736M15.0824 60.4699C15.0614 60.0835 15.1656 58.5416 15.3261 56.1675L15.3527 55.7739M15.0824 60.4699C15.0824 60.4699 14.9007 61.7873 14.7896 62.5093C14.6786 63.2313 14.4045 63.8997 13.2045 64.1998C12.0045 64.4998 6.90455 64.1998 6.00455 63.8997C5.10455 63.5998 4.80469 62.9998 4.80469 62.0998C4.80469 61.1998 5.20092 49.3948 5.91742 43.5364C6.63392 37.678 6.97436 32.8449 7.64279 28.5001C8.31122 24.1553 8.73485 20.4601 11.2774 17.3039C13.8199 14.1477 18.2092 11.421 23.0055 9.03991C23.0055 9.03991 23.0832 6.0473 23.1742 4.79961C23.2652 3.55192 23.9055 2.69961 25.4055 2.69961C26.4896 2.69961 29.1408 2.81713 31.2071 2.79736M23.4882 47.5973C23.5853 49.5609 23.5195 54.101 23.2051 54.8876C22.8907 55.6741 22.4026 55.9028 21.6946 56.0133C20.9865 56.1238 17.0392 56.1486 15.3527 55.7739M15.8849 47.2792C17.7775 47.3156 21.8538 47.3864 22.5283 47.3786C23.3715 47.3688 24.1156 47.4587 24.2479 46.6125C24.3385 46.0323 24.2102 45.2552 24.0336 44.3956C23.8569 43.536 23.4882 43.5369 22.8973 43.4534C22.3064 43.3699 17.7085 43.2277 16.094 43.2277M15.8849 47.2792C15.6987 50.6221 15.504 53.5346 15.3527 55.7739M15.8849 47.2792C15.9569 45.9882 16.0276 44.633 16.094 43.2277M16.094 43.2277C16.3272 38.2963 16.5082 32.7468 16.5082 27.1833M47.3341 60.4698C47.3551 60.0834 47.2509 58.5415 47.0904 56.1673L47.0713 55.8855M47.3341 60.4698C47.3341 60.4698 47.4757 61.4765 47.5423 62.2759C47.609 63.0752 48.004 63.8997 49.2041 64.1998C50.4041 64.4998 55.504 64.1998 56.404 63.8997C57.304 63.5998 57.6039 62.9998 57.6039 62.0998C57.6039 61.1998 57.2077 49.3948 56.4912 43.5364C55.7747 37.678 55.4342 32.8449 54.7658 28.5001C54.0974 24.1553 53.5439 21.5446 51.5349 18.3484C49.5258 15.1522 43.4857 10.8571 38.5358 8.62883C38.5228 8.19965 38.4514 5.92661 38.3692 4.79961C38.2782 3.55192 37.1055 2.69961 36.2055 2.69961C36.2055 2.69961 35.0055 2.47461 33.2055 2.69961C32.7064 2.76199 31.9998 2.78978 31.2071 2.79736M38.9283 47.5973C38.8312 49.5609 38.897 54.101 39.2114 54.8875C39.5258 55.674 40.0139 55.9027 40.7219 56.0132C41.43 56.1237 45.3849 56.2602 47.0713 55.8855M46.5316 47.2791C44.639 47.3155 40.5627 47.3863 39.8882 47.3785C39.045 47.3687 38.3009 47.4586 38.1686 46.6124C38.078 46.0322 38.2063 45.2551 38.3829 44.3955C38.5596 43.5359 38.9283 43.5368 39.5192 43.4533C40.1101 43.3698 44.708 43.2276 46.3225 43.2276M46.5316 47.2791C46.7209 50.6779 46.919 53.6318 47.0713 55.8855M46.5316 47.2791C46.4596 45.9881 46.3889 44.6329 46.3225 43.2276M46.3225 43.2276C46.0893 38.2962 45.9083 32.7468 45.9083 27.1832" stroke="#1E1E1E" stroke-width="0.6" stroke-linecap="round"/>
</svg>
