<svg width="63" height="129" viewBox="0 0 63 129" fill="none" xmlns="http://www.w3.org/2000/svg">
<path d="M31.4013 45.2997C24.2501 45.2997 19.3487 43.7218 17.9033 43.3092C17.0215 43.0575 16.7126 42.8638 16.5889 42.4398M31.4013 45.2997C38.5525 45.2997 43.4557 43.7218 44.9011 43.3092C45.7736 43.0602 46.0852 42.8679 46.2115 42.4533M31.4013 45.2997L31.4017 18.5998M16.7033 27.1832C16.7033 35.5764 16.4031 39.8997 16.4775 41.2698C16.5065 41.8039 16.5099 42.1689 16.5889 42.4398M46.1012 27.1832C46.1012 35.5764 46.4014 39.8997 46.327 41.2698C46.2975 41.8129 46.2944 42.181 46.2115 42.4533M31.4017 18.5998C23.9582 18.5998 21.5738 14.523 20.4464 13.0461C20.0131 12.4784 19.822 11.9549 18.987 11.8965M31.4017 18.5998C38.8452 18.5998 41.2293 14.523 42.3568 13.0461C42.7858 12.4841 43.0392 11.9304 43.8002 11.9027M18.987 11.8965C22.787 10.7155 27.9156 10.3154 31.3641 10.3154C34.8186 10.3154 39.9983 10.7169 43.8002 11.9027M18.987 11.8965C18.1519 11.838 16.7033 12.7777 15.428 13.7355C14.1528 14.6934 12.253 16.2384 10.4794 18.5998C8.70584 20.9612 8.50653 24.1552 7.8381 28.5C7.16967 32.8448 6.82923 37.6779 6.11273 43.5363C5.39623 49.3947 5 61.1997 5 62.0997C5 62.9997 5.29986 63.5997 6.19986 63.8997C7.09986 64.1997 12.1998 64.4997 13.3998 64.1997C14.5999 63.8997 14.7715 63.0697 14.8998 62.0997C14.9841 61.463 15.7021 52.3234 16.5889 42.4398M43.8002 11.9027C44.5613 11.8749 46.8588 13.376 48.0363 14.3012C49.2139 15.2264 50.6355 16.2649 52.1924 18.5998C53.7493 20.9348 54.2927 24.1552 54.9611 28.5C55.6295 32.8448 55.97 37.6779 56.6865 43.5363C57.403 49.3947 57.7992 61.1997 57.7992 62.0997C57.7992 62.9997 57.4994 63.5997 56.5994 63.8997C55.6994 64.1997 50.5994 64.4997 49.3994 64.1997C48.1994 63.8997 48.0277 63.0697 47.8994 62.0997C47.8152 61.4633 47.0978 52.3317 46.2115 42.4533" stroke="#1E1E1E" stroke-width="0.6" stroke-linecap="round"/>
</svg>
