<svg width="63" height="129" viewBox="0 0 63 129" fill="none" xmlns="http://www.w3.org/2000/svg">
<path d="M31.206 45.3002C24.0548 45.3002 19.1534 43.7223 17.708 43.3097C16.8261 43.058 16.5173 42.8643 16.3936 42.4403M31.206 45.3002C38.3572 45.3002 43.2604 43.7223 44.7058 43.3097C45.5783 43.0607 45.8899 42.8684 46.0162 42.4538M31.206 45.3002L31.2058 40.6491M16.508 27.1837C16.508 35.5769 16.2078 39.9002 16.2822 41.2703C16.3112 41.8044 16.3146 42.1694 16.3936 42.4403M45.9058 27.1837C45.9058 35.5769 46.2061 39.9002 46.1317 41.2703C46.1022 41.8134 46.0991 42.1815 46.0162 42.4538M31.2058 40.6491C29.7944 38.2349 27.1111 34.1032 25.7797 31.8707C24.4484 29.6381 20.6841 23.7224 19.806 22.25C18.9278 20.7776 18.8653 20.1937 19.6222 19.2883C20.2762 18.5059 20.4305 18.3661 20.998 17.805M31.2058 40.6491C30.3477 35.3131 27.6961 23.2839 27.6961 23.2839C27.6961 23.2839 26.4012 17.9612 25.4161 13.9443M31.2058 40.6491C32.6171 38.2349 35.3004 34.103 36.6318 31.8704C37.9631 29.6379 41.7274 23.7222 42.6056 22.2498C43.4837 20.7774 43.5462 20.1935 42.7893 19.2881C42.1313 18.5009 41.9791 18.3642 41.4031 17.7944M31.2058 40.6491C32.0638 35.3131 34.7154 23.2837 34.7154 23.2837C34.7154 23.2837 36.01 17.9622 36.9951 13.9455M20.998 17.805C20.998 17.805 20.067 16.8847 19.2279 15.9121C18.3887 14.9394 18.2934 14.7869 18.3697 14.2338C18.4459 13.6807 19.4758 12.3076 20.067 11.4494C20.2842 11.134 20.6895 10.5945 21.1484 10.0382M20.998 17.805C21.0872 17.7167 21.1867 17.618 21.2999 17.5048C22.1331 16.6716 24.0892 15.0606 25.4161 13.9443M25.4161 13.9443C24.8808 11.762 24.437 9.96508 24.342 9.61655C24.2948 9.44361 24.2529 9.28401 24.2125 9.13836M41.4031 17.7944C41.4031 17.7944 42.3445 16.8845 43.1837 15.9119C44.0228 14.9392 44.1181 14.7867 44.0419 14.2336C43.9656 13.6805 42.9357 12.3074 42.3445 11.4492C42.1277 11.1345 41.7237 10.5966 41.2661 10.0416M41.4031 17.7944C41.3165 17.7088 41.2204 17.6134 41.1116 17.5046C40.2784 16.6714 38.322 15.0617 36.9951 13.9455M36.9951 13.9455C37.5305 11.7625 37.9745 9.96494 38.0696 9.61633C38.1158 9.44683 38.1569 9.29013 38.1966 9.14683M38.1966 9.14683C36.2374 8.67141 33.7781 8.46641 31.1683 8.46641C28.574 8.46641 26.1655 8.66897 24.2125 9.13836M38.1966 9.14683C38.389 8.45312 38.5492 8.07324 39.1024 8.07324C39.5252 8.07324 40.4756 9.08304 41.2661 10.0416M24.2125 9.13836C24.0212 8.45017 23.86 8.07346 23.3091 8.07346C22.8869 8.07346 21.9382 9.08074 21.1484 10.0382M21.1484 10.0382C16.8344 12.5167 12.3476 16.1142 11.2774 17.3043C9.68828 19.0713 8.31122 24.1557 7.64279 28.5005C6.97436 32.8453 6.63392 37.6784 5.91742 43.5368C5.20092 49.3952 4.80469 61.2001 4.80469 62.1001C4.80469 63.0001 5.10455 63.6001 6.00455 63.9001C6.90455 64.2001 12.0045 64.5001 13.2045 64.2001C14.4045 63.9001 14.5762 63.0702 14.7045 62.1001C14.7888 61.4635 15.5068 52.3239 16.3936 42.4403M41.2661 10.0416C45.5783 12.52 49.8784 15.9522 51.5884 18.2955C53.2984 20.6388 54.0974 24.1557 54.7658 28.5005C55.4342 32.8453 55.7747 37.6784 56.4912 43.5368C57.2077 49.3952 57.6039 61.2001 57.6039 62.1001C57.6039 63.0001 57.304 63.6001 56.404 63.9001C55.504 64.2001 50.4041 64.5001 49.2041 64.2001C48.004 63.9001 47.8324 63.0702 47.7041 62.1001C47.6199 61.4638 46.9024 52.3322 46.0162 42.4538" stroke="#1E1E1E" stroke-width="0.6" stroke-linecap="round"/>
</svg>
