<svg width="63" height="129" viewBox="0 0 63 129" fill="none" xmlns="http://www.w3.org/2000/svg">
<path d="M31.4023 74.0998C24.2512 74.0998 18.1497 72.5216 16.7043 72.1091C15.2589 71.6965 14.3042 71.3995 14.0784 70.0697C14.0027 69.624 13.9778 67.4951 14.0768 63.9133M31.4023 74.0998C38.5535 74.0998 44.655 72.5216 46.1004 72.109C47.5458 71.6964 48.5005 71.3995 48.7263 70.0696C48.8019 69.6241 48.8269 67.4965 48.728 63.917M31.4023 74.0998V2.79736M22.2281 54.2042C22.3252 56.1678 22.2594 60.7079 21.945 61.4944C21.6306 62.2809 21.1425 62.5096 20.4345 62.6201C19.7264 62.7307 15.8067 62.8671 14.1203 62.4925M14.5177 53.886C16.4103 53.9224 20.5937 53.9933 21.2682 53.9854C22.1114 53.9756 22.8555 54.0655 22.9878 53.2193C23.0784 52.6391 22.9502 51.862 22.7735 51.0024C22.5968 50.1428 22.2281 50.1438 21.6372 50.0603C21.0463 49.9768 16.3812 49.8345 14.7666 49.8345M14.5177 53.886C14.3265 57.236 14.1993 60.1215 14.1203 62.4925M14.5177 53.886C14.591 52.6027 14.6737 51.2513 14.7666 49.8345M14.7666 49.8345C15.1812 43.5164 15.8007 35.8987 16.7043 27.2313M14.1203 62.4925C14.1037 62.9888 14.0893 63.4625 14.0768 63.9133M40.5766 54.2041C40.4795 56.1677 40.5453 60.7078 40.8597 61.4943C41.1741 62.2808 41.6622 62.5095 42.3702 62.62C43.0782 62.7306 46.998 62.867 48.6844 62.4924M48.287 53.8859C46.3944 53.9223 42.211 53.9932 41.5365 53.9853C40.6933 53.9755 39.9491 54.0654 39.8169 53.2192C39.7263 52.639 39.8545 51.862 40.0312 51.0023C40.2079 50.1427 40.5766 50.1437 41.1675 50.0602C41.7584 49.9767 46.4235 49.8344 48.038 49.8344M48.287 53.8859C48.2137 52.6026 48.131 51.2512 48.038 49.8344M48.287 53.8859C48.4782 57.2359 48.6054 60.1214 48.6844 62.4924M48.038 49.8344C47.6234 43.5163 47.004 35.8986 46.1003 27.2313M48.6844 62.4924C48.701 62.9901 48.7155 63.4651 48.728 63.917M31.4023 2.79736C29.336 2.81713 26.6849 2.69961 25.6008 2.69961C24.1008 2.69961 23.4605 3.55192 23.3695 4.79961C23.2786 6.0473 23.2008 9.03991 23.2008 9.03991C18.4045 11.421 14.0768 14.3097 11.4727 17.3039C8.86853 20.2981 8.50653 24.1553 7.8381 28.5001C7.16967 32.8449 6.82923 37.678 6.11273 43.5364C5.39623 49.3948 5 61.1998 5 62.0998C5 62.9998 5.29986 63.5998 6.19986 63.8997C7.09986 64.1998 12.1998 64.4998 13.3998 64.1998C13.676 64.1307 13.8976 64.0336 14.0768 63.9133M31.4023 2.79736C32.1951 2.78978 32.9017 2.76199 33.4008 2.69961C35.2008 2.47461 36.4008 2.69961 36.4008 2.69961C37.3008 2.69961 38.4735 3.55192 38.5645 4.79961C38.6467 5.92661 38.7181 8.19965 38.7312 8.62883C43.681 10.8571 49.3994 14.3097 51.3265 17.3039C53.2537 20.2981 54.2927 24.1553 54.9611 28.5001C55.6295 32.8449 55.97 37.678 56.6865 43.5364C57.403 49.3948 57.7992 61.1998 57.7992 62.0998C57.7992 62.9998 57.4994 63.5998 56.5994 63.8997C55.6994 64.1998 50.5994 64.4998 49.3994 64.1998C49.1261 64.1314 48.9062 64.0357 48.728 63.917" stroke="#1E1E1E" stroke-width="0.6" stroke-linecap="round"/>
</svg>
