<svg width="63" height="129" viewBox="0 0 63 129" fill="none" xmlns="http://www.w3.org/2000/svg">
<path d="M31.2074 52.4997C24.0807 52.4997 18.5906 50.9326 17.1225 50.5135L17.1076 50.5092C16.167 50.2407 15.8783 50.0383 15.7708 49.552M31.2074 52.4997C38.333 52.4997 43.8222 50.9328 45.2914 50.5134L45.3063 50.5091C46.2359 50.2438 46.5288 50.0429 46.6392 49.5689M31.2074 52.4997L31.2064 18.5997M23.9882 38.9159C24.0853 40.8795 24.0195 45.4196 23.705 46.2061C23.3906 46.9926 22.9025 47.2213 22.1945 47.3318C21.4865 47.4424 17.4406 47.4701 15.7542 47.0955M16.3146 38.5977C18.2072 38.6341 22.3537 38.705 23.0283 38.6971C23.8714 38.6873 24.6156 38.7772 24.7478 37.931C24.8385 37.3508 24.7102 36.5737 24.5335 35.7141C24.3569 34.8545 23.9882 34.8555 23.3973 34.772C22.8064 34.6885 18.0491 34.5462 16.4345 34.5462M16.3146 38.5977C16.3611 37.3977 16.4023 36.0535 16.4345 34.5462M16.3146 38.5977C16.1364 43.2017 15.8807 45.682 15.7542 47.0955M16.4345 34.5462C16.4798 32.4303 16.5075 29.9932 16.5075 27.1832M15.7542 47.0955C15.6962 47.7442 15.6653 48.1683 15.6817 48.4698C15.7077 48.9483 15.7132 49.291 15.7708 49.552M38.4257 38.9158C38.3286 40.8794 38.3944 45.4195 38.7089 46.206C39.0233 46.9925 39.5114 47.2212 40.2194 47.3318C40.9274 47.4423 44.9829 47.5787 46.6693 47.2041M46.0993 38.5976C44.2067 38.634 40.0602 38.7049 39.3856 38.697C38.5425 38.6872 37.7983 38.7771 37.6661 37.9309C37.5754 37.3507 37.7037 36.5737 37.8804 35.7141C38.057 34.8544 38.4257 34.8554 39.0166 34.7719C39.6075 34.6884 44.3648 34.5461 45.9794 34.5461M46.0993 38.5976C46.2822 43.322 46.5466 45.8101 46.6693 47.2041M46.0993 38.5976C46.0528 37.3976 46.0116 36.0534 45.9794 34.5461M45.9794 34.5461C45.9341 32.4302 45.9063 29.9931 45.9063 27.1831M46.6693 47.2041C46.7211 47.7921 46.7476 48.1854 46.7322 48.4697C46.7056 48.9587 46.7005 49.3059 46.6392 49.5689M31.2064 18.5997C23.7628 18.5997 21.3785 14.523 20.2511 13.0461C19.8177 12.4784 19.4588 11.9229 18.7916 11.8965M31.2064 18.5997C38.6499 18.5997 41.034 14.523 42.1614 13.0461C42.5904 12.4841 42.8619 11.8697 43.6049 11.9027M18.7916 11.8965C22.5916 10.7155 27.7203 10.3154 31.1688 10.3154C34.6233 10.3154 39.803 10.7169 43.6049 11.9027M18.7916 11.8965C18.1245 11.8701 16.8568 12.7937 16.0188 13.3957C15.1807 13.9977 11.5862 16.841 10.0199 19.0554C8.45359 21.2699 8.31122 24.1552 7.64279 28.5C6.97436 32.8448 6.63392 37.6779 5.91742 43.5363C5.20092 49.3947 4.80469 61.1997 4.80469 62.0997C4.80469 62.9997 5.10455 63.5997 6.00455 63.8997C6.90455 64.1997 12.0045 64.4997 13.2045 64.1997C14.4045 63.8997 14.5762 63.0697 14.7045 62.0997C14.7678 61.6212 15.189 56.3412 15.7708 49.552M43.6049 11.9027C44.348 11.9356 45.534 12.7386 46.5789 13.4896C47.6238 14.2405 51.1987 17.0469 52.3561 19.3134C53.5134 21.58 54.0974 24.1552 54.7658 28.5C55.4342 32.8448 55.7747 37.6779 56.4912 43.5363C57.2077 49.3947 57.6039 61.1997 57.6039 62.0997C57.6039 62.9997 57.304 63.5997 56.404 63.8997C55.504 64.1997 50.4041 64.4997 49.2041 64.1997C48.004 63.8997 47.8324 63.0697 47.7041 62.0997C47.6408 61.6216 47.2202 56.3499 46.6392 49.5689" stroke="#1E1E1E" stroke-width="0.6" stroke-linecap="round"/>
</svg>
