<svg width="64" height="129" viewBox="0 0 64 129" fill="none" xmlns="http://www.w3.org/2000/svg">
<path d="M31.7919 45.3002C24.6407 45.3002 19.7394 43.7223 18.294 43.3097C17.4121 43.058 17.1032 42.8643 16.9796 42.4403M31.7919 45.3002C38.9431 45.3002 43.8464 43.7223 45.2918 43.3097C46.1642 43.0607 46.4758 42.8684 46.6021 42.4538M31.7919 45.3002L31.791 18.7503M17.0939 27.1837C17.0939 35.5769 16.7937 39.9002 16.8681 41.2703C16.8971 41.8044 16.9005 42.1694 16.9796 42.4403M46.4918 27.1837C46.4918 35.5769 46.792 39.9002 46.7176 41.2703C46.6881 41.8134 46.6851 42.1815 46.6021 42.4538M31.791 18.7503C31.791 18.7503 30.31 21.231 29.1006 22.1656C27.8911 23.1002 27.2406 23.2571 24.529 20.0109C21.8175 16.7647 20.4573 14.8974 19.9606 14.2548C19.5266 13.693 18.9513 12.908 18.458 12.0954M31.791 18.7503C31.791 18.7503 29.6714 16.5499 27.7109 14.5172C26.4031 13.1613 23.9966 10.2615 23.3654 9.56187M31.791 18.7503C31.791 18.7503 33.272 21.231 34.4815 22.1655C35.6909 23.1001 36.3414 23.257 39.053 20.0109C41.7646 16.7647 43.1248 14.8974 43.6214 14.2547C44.0553 13.6932 44.6303 12.9084 45.1236 12.0962M31.791 18.7503C31.791 18.7503 33.9106 16.5498 35.8711 14.5172C37.1726 13.1677 39.5622 10.2894 40.2074 9.57211M23.3654 9.56187C25.5053 8.78857 28.4817 8.46637 31.7535 8.46637C35.0398 8.46637 38.0655 8.79142 40.2074 9.57211M23.3654 9.56187C23.3248 9.51686 23.2915 9.48096 23.2663 9.45516C22.4674 8.63553 22.1651 7.8923 20.8303 8.57626C19.4956 9.26023 19.2584 9.42301 18.4789 10.0678C17.6994 10.7127 17.9493 11.2144 18.2505 11.743C18.3175 11.8606 18.3869 11.9783 18.458 12.0954M40.2074 9.57211C40.2523 9.52224 40.2887 9.48282 40.3157 9.45508C41.1147 8.63546 41.417 7.89222 42.7517 8.57619C44.0865 9.26015 44.3237 9.42294 45.1032 10.0678C45.8827 10.7126 45.6328 11.2143 45.3316 11.7429C45.2644 11.8608 45.1949 11.9788 45.1236 12.0962M18.458 12.0954C15.3531 14.1958 12.6605 16.4179 11.8633 17.3043C10.2742 19.0713 8.89716 24.1557 8.22873 28.5005C7.5603 32.8453 7.21986 37.6784 6.50336 43.5368C5.78685 49.3952 5.39062 61.2001 5.39062 62.1001C5.39062 63.0001 5.69049 63.6001 6.59049 63.9001C7.49049 64.2001 12.5905 64.5001 13.7905 64.2001C14.9905 63.9001 15.1621 63.0702 15.2905 62.1001C15.3747 61.4635 16.0928 52.3239 16.9796 42.4403M45.1236 12.0962C48.228 14.1964 50.7702 16.1598 52.3599 18.3456C53.9496 20.5314 54.6833 24.1557 55.3517 28.5005C56.0202 32.8453 56.3606 37.6784 57.0771 43.5368C57.7936 49.3952 58.1898 61.2001 58.1898 62.1001C58.1898 63.0001 57.89 63.6001 56.99 63.9001C56.09 64.2001 50.99 64.5001 49.79 64.2001C48.59 63.9001 48.4184 63.0702 48.29 62.1001C48.2058 61.4638 47.4884 52.3322 46.6021 42.4538" stroke="#1E1E1E" stroke-width="0.6" stroke-linecap="round"/>
</svg>
