<svg width="64" height="129" viewBox="0 0 64 129" fill="none" xmlns="http://www.w3.org/2000/svg">
<path d="M31.794 64.5001C24.6428 64.5001 18.5396 62.9222 17.0942 62.5096C15.6488 62.097 15.7427 61.8403 15.6683 60.4702M31.794 64.5001C38.9452 64.5001 45.0488 62.9221 46.4942 62.5095C47.9396 62.097 47.8457 61.8402 47.9201 60.4701M31.794 64.5001L31.8006 18.75M15.6683 60.4702C15.6473 60.0838 15.7516 58.5419 15.9121 56.1678L15.9387 55.7742M15.6683 60.4702C15.6683 60.4702 15.5553 61.796 15.4286 62.5096C15.3019 63.2233 14.9905 63.9 13.7905 64.2C12.5905 64.5 7.49049 64.2 6.59049 63.9C5.69049 63.6 5.39062 63 5.39062 62.1C5.39062 61.2 5.78685 49.3951 6.50336 43.5367C7.21986 37.6783 7.5603 32.8452 8.22873 28.5004C8.89716 24.1556 9.6308 19.9463 11.8633 17.3042C14.0958 14.6621 20.1611 10.6334 21.2698 10.5928M24.0741 47.5976C24.1713 49.5612 24.1054 54.1013 23.791 54.8878C23.4766 55.6743 22.9885 55.9031 22.2805 56.0136C21.5725 56.1241 17.6251 56.1489 15.9387 55.7742M16.4709 47.2795C18.3635 47.3159 22.4397 47.3867 23.1142 47.3789C23.9574 47.3691 24.7016 47.459 24.8338 46.6128C24.9245 46.0326 24.7962 45.2555 24.6195 44.3959C24.4428 43.5363 24.0741 43.5372 23.4832 43.4537C22.8923 43.3702 18.2945 43.2279 16.68 43.2279M16.4709 47.2795C16.2846 50.6224 16.0899 53.5349 15.9387 55.7742M16.4709 47.2795C16.5428 45.9885 16.6135 44.6333 16.68 43.2279M16.68 43.2279C16.9131 38.2966 17.0941 32.7471 17.0941 27.1836M47.9201 60.4701C47.9411 60.0837 47.8368 58.5418 47.6763 56.1676L47.6573 55.8858M47.9201 60.4701C47.9201 60.4701 48.0128 61.2377 48.0962 62.1C48.1796 62.9624 48.59 63.9 49.79 64.2C50.99 64.5 56.09 64.2 56.99 63.9C57.89 63.6 58.1898 63 58.1898 62.1C58.1898 61.2 57.7936 49.3951 57.0771 43.5367C56.3606 37.6783 56.0202 32.8452 55.3517 28.5004C54.6833 24.1556 53.7237 20.0096 51.7172 17.3042C49.7106 14.5988 43.2406 10.6309 42.2011 10.6107M39.5142 47.5975C39.4171 49.5611 39.4829 54.1012 39.7974 54.8877C40.1118 55.6743 40.5999 55.903 41.3079 56.0135C42.0159 56.124 45.9708 56.2605 47.6573 55.8858M47.1175 47.2794C45.2249 47.3158 41.1487 47.3866 40.4741 47.3788C39.631 47.369 38.8868 47.4589 38.7546 46.6127C38.6639 46.0325 38.7922 45.2554 38.9689 44.3958C39.1455 43.5362 39.5142 43.5371 40.1051 43.4536C40.696 43.3701 45.2939 43.2279 46.9084 43.2279M47.1175 47.2794C47.3069 50.6782 47.5049 53.6321 47.6573 55.8858M47.1175 47.2794C47.0456 45.9884 46.9749 44.6332 46.9084 43.2279M46.9084 43.2279C46.6753 38.2965 46.4942 32.747 46.4942 27.1835M31.8006 18.75C31.248 18.75 30.9395 18.6474 30.2944 18.1986C29.6493 17.7498 26.3614 14.5091 24.7035 12.7925C23.6235 11.6742 22.3785 10.5521 21.2698 10.5928M31.8006 18.75C32.3531 18.75 32.6523 18.6474 33.2973 18.1986C33.9424 17.7498 37.2303 14.5091 38.8883 12.7925C39.9342 11.7095 41.1615 10.5905 42.2011 10.6107M21.2698 10.5928C23.4284 9.54695 27.9951 8.46631 31.7537 8.46631C35.5123 8.46631 40.0424 9.56491 42.2011 10.6107" stroke="#1E1E1E" stroke-width="0.6" stroke-linecap="round"/>
</svg>
