<svg width="63" height="129" viewBox="0 0 63 129" fill="none" xmlns="http://www.w3.org/2000/svg">
<path d="M31.0043 52.5001C23.8776 52.5001 18.3875 50.9329 16.9194 50.5139L16.9045 50.5096C15.9639 50.2411 15.6752 50.0386 15.5677 49.5524M31.0043 52.5001C38.1298 52.5001 43.6191 50.9332 45.0882 50.5138L45.1032 50.5095C46.0327 50.2442 46.3256 50.0433 46.4361 49.5693M31.0043 52.5001L31.0115 18.75M23.785 38.9163C23.8821 40.8799 23.8163 45.42 23.5019 46.2065C23.1875 46.993 22.6994 47.2217 21.9914 47.3322C21.2834 47.4428 17.2375 47.4705 15.5511 47.0959M16.1115 38.5981C18.0041 38.6345 22.1506 38.7053 22.8251 38.6975C23.6683 38.6877 24.4125 38.7776 24.5447 37.9314C24.6353 37.3512 24.5071 36.5741 24.3304 35.7145C24.1537 34.8549 23.785 34.8559 23.1941 34.7724C22.6032 34.6889 17.8459 34.5466 16.2314 34.5466M16.1115 38.5981C16.158 37.3981 16.1992 36.0538 16.2314 34.5466M16.1115 38.5981C15.9333 43.2021 15.6776 45.6824 15.5511 47.0959M16.2314 34.5466C16.2767 32.4307 16.3044 29.9936 16.3044 27.1836M15.5511 47.0959C15.493 47.7446 15.4622 48.1687 15.4786 48.4702C15.5046 48.9487 15.51 49.2914 15.5677 49.5524M38.2226 38.9162C38.1255 40.8798 38.1913 45.4199 38.5057 46.2064C38.8201 46.9929 39.3082 47.2216 40.0163 47.3321C40.7243 47.4427 44.7798 47.5791 46.4662 47.2045M45.8961 38.598C44.0035 38.6344 39.857 38.7053 39.1825 38.6974C38.3393 38.6876 37.5952 38.7775 37.463 37.9313C37.3723 37.3511 37.5006 36.5741 37.6772 35.7144C37.8539 34.8548 38.2226 34.8558 38.8135 34.7723C39.4044 34.6888 44.1617 34.5465 45.7762 34.5465M45.8961 38.598C46.079 43.3223 46.3435 45.8105 46.4662 47.2045M45.8961 38.598C45.8497 37.398 45.8085 36.0538 45.7762 34.5465M45.7762 34.5465C45.7309 32.4306 45.7032 29.9935 45.7032 27.1835M46.4662 47.2045C46.518 47.7925 46.5445 48.1858 46.5291 48.4701C46.5025 48.9591 46.4974 49.3062 46.4361 49.5693M31.0115 18.75C30.459 18.75 30.1504 18.6474 29.5053 18.1986C28.8602 17.7498 25.5724 14.5091 23.9144 12.7925C22.8344 11.6742 21.2111 10.6184 20.4807 10.5928M31.0115 18.75C31.564 18.75 31.8632 18.6474 32.5083 18.1986C33.1534 17.7498 36.4412 14.5091 38.0992 12.7925C39.1452 11.7095 40.2529 10.603 41.412 10.6107M20.4807 10.5928C22.6393 9.54695 27.206 8.46631 30.9646 8.46631C34.7233 8.46631 39.2534 9.56491 41.412 10.6107M20.4807 10.5928C19.7503 10.5671 18.9189 11.2802 18.1969 11.742C17.4748 12.2039 12.2029 15.7539 10.1755 18.75C8.14822 21.7461 8.10809 24.1556 7.43966 28.5004C6.77123 32.8452 6.43079 37.6783 5.71429 43.5367C4.99779 49.3951 4.60156 61.2 4.60156 62.1C4.60156 63 4.90142 63.6 5.80142 63.9C6.70142 64.2 11.8014 64.5 13.0014 64.2C14.2014 63.9 14.3731 63.0701 14.5014 62.1C14.5647 61.6216 14.9859 56.3416 15.5677 49.5524M41.412 10.6107C42.5711 10.6184 43.5253 11.4649 44.6252 12.1287C45.7251 12.7925 49.7908 16.2111 51.5495 18.3544C53.3081 20.4978 53.8943 24.1556 54.5627 28.5004C55.2311 32.8452 55.5716 37.6783 56.2881 43.5367C57.0046 49.3951 57.4008 61.2 57.4008 62.1C57.4008 63 57.1009 63.6 56.2009 63.9C55.3009 64.2 50.2009 64.5 49.0009 64.2C47.8009 63.9 47.6293 63.0701 47.5009 62.1C47.4377 61.622 47.0171 56.3503 46.4361 49.5693" stroke="#1E1E1E" stroke-width="0.6" stroke-linecap="round"/>
</svg>
