<svg width="63" height="129" viewBox="0 0 63 129" fill="none" xmlns="http://www.w3.org/2000/svg">
<path d="M31.4027 52.4998C24.276 52.4998 18.7859 50.9327 17.3179 50.5136L17.3029 50.5093C16.309 50.2256 16.0429 50.0156 15.9495 49.4666M31.4027 52.4998C38.5283 52.4998 44.0175 50.9329 45.4867 50.5135L45.5016 50.5092C46.4312 50.2439 46.7241 50.043 46.8345 49.569M31.4027 52.4998L31.4018 2.9998M24.1835 38.916C24.2806 40.8796 24.2148 45.4197 23.9004 46.2062C23.5859 46.9927 23.0978 47.2214 22.3898 47.3319C21.6818 47.4425 17.636 47.4702 15.9495 47.0956M16.5099 38.5978C18.4025 38.6342 22.549 38.7051 23.2236 38.6972C24.0668 38.6874 24.8109 38.7773 24.9431 37.9311C25.0338 37.3509 24.9055 36.5738 24.7288 35.7142C24.5522 34.8546 24.1835 34.8556 23.5926 34.7721C23.0017 34.6886 18.2444 34.5463 16.6299 34.5463M16.5099 38.5978C16.5564 37.3978 16.5976 36.0536 16.6299 34.5463M16.5099 38.5978C16.3317 43.2018 16.076 45.6821 15.9495 47.0956M16.6299 34.5463C16.6752 32.4304 16.7029 29.9933 16.7029 27.1833M15.9495 47.0956C15.8915 47.7443 15.8607 48.1684 15.877 48.4699C15.9003 48.8979 15.9071 49.2172 15.9495 49.4666M38.621 38.9159C38.5239 40.8795 38.5897 45.4196 38.9042 46.2061C39.2186 46.9926 39.7067 47.2213 40.4147 47.3319C41.1227 47.4424 45.1782 47.5788 46.8646 47.2042M46.2946 38.5977C44.402 38.6341 40.2555 38.705 39.5809 38.6971C38.7378 38.6873 37.9936 38.7772 37.8614 37.931C37.7707 37.3508 37.899 36.5738 38.0757 35.7142C38.2523 34.8545 38.6211 34.8555 39.2119 34.772C39.8028 34.6885 44.5601 34.5462 46.1747 34.5462M46.2946 38.5977C46.4775 43.3221 46.7419 45.8102 46.8646 47.2042M46.2946 38.5977C46.2481 37.3977 46.2069 36.0535 46.1747 34.5462M46.1747 34.5462C46.1294 32.4303 46.1017 29.9932 46.1017 27.1832M46.8646 47.2042C46.9164 47.7922 46.9429 48.1855 46.9275 48.4698C46.9009 48.9588 46.8958 49.306 46.8345 49.569M15.9495 49.4666C15.3715 56.2149 14.9629 61.6233 14.8998 62.0998C14.7715 63.0698 14.5999 63.8997 13.3998 64.1998C12.1998 64.4998 7.09986 64.1998 6.19986 63.8997C5.29986 63.5998 5 62.9998 5 62.0998C5 61.1998 5.39623 49.3948 6.11273 43.5364C6.82923 37.678 7.16967 32.8449 7.8381 28.5001C8.50653 24.1553 9.88359 19.0709 11.4727 17.3039C12.6983 15.9411 18.4045 11.421 23.2008 9.03991C23.2008 9.03991 23.2786 6.0473 23.3695 4.79961C23.4605 3.55192 24.1008 2.69961 25.6008 2.69961C27.1008 2.69961 31.6008 2.9246 33.4008 2.69961C35.2008 2.47461 36.4008 2.69961 36.4008 2.69961C37.3008 2.69961 38.4735 3.55192 38.5645 4.79961C38.6467 5.92661 38.7181 8.19963 38.7312 8.62883C43.681 10.8571 49.7902 15.3068 51.8609 18.3482C53.9316 21.3897 54.2927 24.1553 54.9611 28.5001C55.6295 32.8449 55.97 37.678 56.6865 43.5364C57.403 49.3948 57.7992 61.1998 57.7992 62.0998C57.7992 62.9998 57.4994 63.5998 56.5994 63.8997C55.6994 64.1998 50.5994 64.4998 49.3994 64.1998C48.1994 63.8997 48.0277 63.0698 47.8994 62.0998C47.8361 61.6217 47.4156 56.35 46.8345 49.569" stroke="#1E1E1E" stroke-width="0.6" stroke-linecap="round"/>
</svg>
