<svg width="63" height="129" viewBox="0 0 63 129" fill="none" xmlns="http://www.w3.org/2000/svg">
<path d="M31.0028 45.3001C23.8517 45.3001 18.9503 43.7222 17.5049 43.3096C16.623 43.0579 16.3142 42.8642 16.1905 42.4402M31.0028 45.3001C38.154 45.3001 43.0573 43.7222 44.5027 43.3096C45.3751 43.0606 45.6867 42.8683 45.8131 42.4537M31.0028 45.3001L31.0048 15.3001M16.3049 27.1836C16.3049 35.5768 16.0046 39.9001 16.079 41.2702C16.1081 41.8043 16.1115 42.1693 16.1905 42.4402M45.7027 27.1836C45.7027 35.5768 46.003 39.9001 45.9286 41.2702C45.8991 41.8133 45.896 42.1814 45.8131 42.4537M31.0048 15.3001C27.1037 15.3001 24.6315 13.0002 23.4641 11.2869C22.9489 10.5308 22.7794 9.98365 21.7768 9.89109M31.0048 15.3001C34.9059 15.3001 37.3748 13.0002 38.5422 11.2869C39.0508 10.5404 39.6057 10.0974 40.2062 9.89864M21.7768 9.89109C23.9386 8.87897 27.2629 8.46631 30.9656 8.46631C34.6666 8.46631 38.0444 8.88756 40.2062 9.89864M21.7768 9.89109C20.7741 9.79852 19.268 10.8638 17.656 12.0365C16.0441 13.2093 12.4669 15.5892 10.4674 17.9989C8.46786 20.4086 8.10809 24.1556 7.43966 28.5004C6.77123 32.8452 6.43079 37.6783 5.71429 43.5367C4.99779 49.3951 4.60156 61.2 4.60156 62.1C4.60156 63 4.90142 63.6 5.80142 63.9C6.70142 64.2 11.8014 64.5 13.0014 64.2C14.2014 63.9 14.3731 63.0701 14.5014 62.1C14.5856 61.4634 15.3037 52.3238 16.1905 42.4402M40.2062 9.89864C40.984 9.64121 42.5333 10.7123 44.3463 12.0169C46.1594 13.3216 49.8565 15.4953 51.937 18.9129C54.0176 22.3304 53.8943 24.1556 54.5627 28.5004C55.2311 32.8452 55.5716 37.6783 56.2881 43.5367C57.0046 49.3951 57.4008 61.2 57.4008 62.1C57.4008 63 57.1009 63.6 56.2009 63.9C55.3009 64.2 50.2009 64.5 49.0009 64.2C47.8009 63.9 47.6293 63.0701 47.5009 62.1C47.4167 61.4637 46.6993 52.3321 45.8131 42.4537" stroke="#1E1E1E" stroke-width="0.6" stroke-linecap="round"/>
</svg>
