<svg width="63" height="129" viewBox="0 0 63 129" fill="none" xmlns="http://www.w3.org/2000/svg">
<path d="M31.4027 52.5002C24.276 52.5002 18.7859 50.933 17.3179 50.514L17.3029 50.5097C16.3623 50.2412 16.0736 50.0387 15.9661 49.5525M31.4027 52.5002C38.5283 52.5002 44.0175 50.9333 45.4867 50.5139L45.5016 50.5096C46.4312 50.2443 46.7241 50.0434 46.8345 49.5694M31.4027 52.5002L31.4011 40.6491M24.1835 38.9164C24.2806 40.88 24.2148 45.4201 23.9004 46.2066C23.5859 46.9931 23.0978 47.2218 22.3898 47.3323C21.6818 47.4428 17.636 47.4706 15.9495 47.096M16.5099 38.5982C18.4025 38.6346 22.549 38.7054 23.2236 38.6976C24.0668 38.6878 24.8109 38.7777 24.9431 37.9315C25.0338 37.3513 24.9055 36.5742 24.7288 35.7146C24.5522 34.855 24.1835 34.856 23.5926 34.7725C23.0017 34.6889 18.2444 34.5467 16.6299 34.5467M16.5099 38.5982C16.5564 37.3982 16.5976 36.0539 16.6299 34.5467M16.5099 38.5982C16.3317 43.2022 16.076 45.6825 15.9495 47.096M16.6299 34.5467C16.6752 32.4308 16.7029 29.9937 16.7029 27.1837M15.9495 47.096C15.8915 47.7447 15.8607 48.1688 15.877 48.4703C15.903 48.9488 15.9085 49.2915 15.9661 49.5525M38.621 38.9163C38.5239 40.8799 38.5897 45.42 38.9042 46.2065C39.2186 46.993 39.7067 47.2217 40.4147 47.3322C41.1227 47.4428 45.1782 47.5792 46.8646 47.2046M46.2946 38.5981C44.402 38.6345 40.2555 38.7054 39.5809 38.6975C38.7378 38.6877 37.9936 38.7776 37.8614 37.9314C37.7707 37.3512 37.899 36.5742 38.0757 35.7145C38.2523 34.8549 38.6211 34.8559 39.2119 34.7724C39.8028 34.6889 44.5601 34.5466 46.1747 34.5466M46.2946 38.5981C46.4775 43.3224 46.7419 45.8106 46.8646 47.2046M46.2946 38.5981C46.2481 37.3981 46.2069 36.0539 46.1747 34.5466M46.1747 34.5466C46.1294 32.4307 46.1017 29.9936 46.1017 27.1836M46.8646 47.2046C46.9164 47.7925 46.9429 48.1859 46.9275 48.4702C46.9009 48.9592 46.8958 49.3063 46.8345 49.5694M31.4011 40.6491C29.9897 38.2349 27.3064 34.1032 25.975 31.8707C24.6437 29.6381 20.8794 23.7224 20.0013 22.25C19.1231 20.7776 19.0606 20.1937 19.8175 19.2883C20.4715 18.5059 20.6258 18.3661 21.1933 17.805M31.4011 40.6491C30.543 35.3131 27.8915 23.2839 27.8915 23.2839C27.8915 23.2839 26.5965 17.9612 25.6114 13.9443M31.4011 40.6491C32.8124 38.2349 35.4958 34.103 36.8271 31.8704C38.1584 29.6379 41.9227 23.7222 42.8009 22.2498C43.679 20.7774 43.7415 20.1935 42.9846 19.2881C42.3266 18.5009 42.1744 18.3642 41.5984 17.7944M31.4011 40.6491C32.2591 35.3131 34.9107 23.2837 34.9107 23.2837C34.9107 23.2837 36.2053 17.9622 37.1904 13.9455M21.1933 17.805C21.1933 17.805 20.2623 16.8847 19.4232 15.9121C18.584 14.9394 18.4887 14.7869 18.565 14.2338C18.6413 13.6807 19.6711 12.3076 20.2623 11.4494C20.4746 11.1412 20.8666 10.6188 21.3127 10.0759M21.1933 17.805C21.2825 17.7167 21.382 17.618 21.4952 17.5048C22.3284 16.6716 24.2845 15.0606 25.6114 13.9443M25.6114 13.9443C25.0761 11.762 24.6323 9.96508 24.5373 9.61655C24.4901 9.44361 24.4483 9.28401 24.4078 9.13836M41.5984 17.7944C41.5984 17.7944 42.5398 16.8845 43.379 15.9119C44.2181 14.9392 44.3134 14.7867 44.2372 14.2336C44.1609 13.6805 43.131 12.3074 42.5398 11.4492C42.323 11.1345 41.919 10.5966 41.4614 10.0416M41.5984 17.7944C41.5118 17.7088 41.4157 17.6134 41.3069 17.5046C40.4737 16.6714 38.5173 15.0617 37.1904 13.9455M37.1904 13.9455C37.7258 11.7625 38.1698 9.96494 38.2649 9.61633C38.3111 9.44683 38.3522 9.29013 38.3919 9.14683M38.3919 9.14683C36.4327 8.67141 33.9734 8.46641 31.3636 8.46641C28.7693 8.46641 26.3608 8.66897 24.4078 9.13836M38.3919 9.14683C38.5843 8.45312 38.7445 8.07324 39.2977 8.07324C39.7205 8.07324 40.671 9.08305 41.4614 10.0416M24.4078 9.13836C24.2165 8.45017 24.0553 8.07346 23.5044 8.07346C23.0767 8.07346 22.1085 9.10737 21.3127 10.0759M21.3127 10.0759C16.9719 12.5558 12.5502 16.1062 11.4727 17.3043C9.88359 19.0713 8.50653 24.1557 7.8381 28.5005C7.16967 32.8453 6.82923 37.6784 6.11273 43.5368C5.39623 49.3952 5 61.2001 5 62.1001C5 63.0001 5.29986 63.6001 6.19986 63.9001C7.09986 64.2001 12.1998 64.5001 13.3998 64.2001C14.5999 63.9001 14.7715 63.0702 14.8998 62.1001C14.9632 61.6217 15.3844 56.3417 15.9661 49.5525M41.4614 10.0416C45.7736 12.52 50.2578 15.9119 51.9681 18.6502C53.6784 21.3885 54.2927 24.1557 54.9611 28.5005C55.6295 32.8453 55.97 37.6784 56.6865 43.5368C57.403 49.3952 57.7992 61.2001 57.7992 62.1001C57.7992 63.0001 57.4994 63.6001 56.5994 63.9001C55.6994 64.2001 50.5994 64.5001 49.3994 64.2001C48.1994 63.9001 48.0277 63.0702 47.8994 62.1001C47.8361 61.6221 47.4156 56.3504 46.8345 49.5694" stroke="#1E1E1E" stroke-width="0.6" stroke-linecap="round"/>
</svg>
