<svg width="64" height="129" viewBox="0 0 64 129" fill="none" xmlns="http://www.w3.org/2000/svg">
<path d="M31.793 74.1001C24.6418 74.1001 18.5403 72.5219 17.0949 72.1094C15.6495 71.6968 14.6948 71.3998 14.469 70.07C14.3934 69.6243 14.3684 67.4953 14.4675 63.9134M31.793 74.1001C38.9442 74.1001 45.0457 72.5218 46.4911 72.1093C47.9365 71.6967 48.8911 71.3997 49.1169 70.0699C49.1926 69.6244 49.2175 67.4967 49.1186 63.9171M31.793 74.1001L31.7939 15.3003M22.6187 54.2045C22.7158 56.1681 22.65 60.7082 22.3356 61.4947C22.0212 62.2812 21.5331 62.5099 20.8251 62.6204C20.1171 62.7309 16.1973 62.8674 14.5109 62.4928M14.9084 53.8863C16.801 53.9227 20.9843 53.9935 21.6588 53.9857C22.502 53.9759 23.2462 54.0658 23.3784 53.2196C23.469 52.6394 23.3408 51.8623 23.1641 51.0027C22.9874 50.1431 22.6187 50.1441 22.0278 50.0606C21.4369 49.977 16.7718 49.8348 15.1573 49.8348M14.9084 53.8863C14.7171 57.2363 14.5899 60.1218 14.5109 62.4928M14.9084 53.8863C14.9816 52.603 15.0643 51.2516 15.1573 49.8348M15.1573 49.8348C15.5719 43.5166 16.1913 35.899 17.095 27.2316M14.5109 62.4928C14.4944 62.989 14.4799 63.4627 14.4675 63.9134M40.9672 54.2044C40.8701 56.168 40.9359 60.7081 41.2503 61.4946C41.5647 62.2811 42.0528 62.5098 42.7608 62.6203C43.4689 62.7309 47.3886 62.8673 49.075 62.4927M48.6776 53.8862C46.785 53.9226 42.6016 53.9935 41.9271 53.9856C41.0839 53.9758 40.3398 54.0657 40.2075 53.2195C40.1169 52.6393 40.2452 51.8622 40.4218 51.0026C40.5985 50.143 40.9672 50.144 41.5581 50.0605C42.149 49.977 46.8141 49.8347 48.4287 49.8347M48.6776 53.8862C48.6043 52.6029 48.5216 51.2515 48.4287 49.8347M48.6776 53.8862C48.8688 57.2362 48.996 60.1217 49.075 62.4927M48.4287 49.8347C48.0141 43.5166 47.3946 35.8989 46.491 27.2315M49.075 62.4927C49.0916 62.9903 49.1061 63.4653 49.1186 63.9171M31.7939 15.3003C27.8928 15.3003 25.4205 13.0002 24.2531 11.2869C23.7379 10.5308 23.2588 10.0353 22.5659 9.89109M31.7939 15.3003C35.6949 15.3003 38.1639 13.0002 39.3312 11.2869C39.8399 10.5404 40.0869 10.1063 40.8375 9.98118M22.5659 9.89109C24.7276 8.87897 28.0519 8.46631 31.7547 8.46631C35.4557 8.46631 38.6756 8.97009 40.8375 9.98118M22.5659 9.89109C21.8729 9.74686 20.6377 10.3582 19.9105 10.812C19.1833 11.2658 18.4007 11.7789 17.6757 12.2771C14.736 14.297 12.6272 16.4547 11.8633 17.3041C10.2742 19.071 8.89716 24.1554 8.22873 28.5002C7.5603 32.845 7.21986 37.6781 6.50336 43.5365C5.78685 49.3949 5.39062 61.1999 5.39062 62.0999C5.39062 62.9999 5.69049 63.5999 6.59049 63.8999C7.49049 64.1999 12.5905 64.4999 13.7905 64.1999C14.0666 64.1309 14.2882 64.0338 14.4675 63.9134M40.8375 9.98118C41.5881 9.85608 42.7401 10.6034 43.5402 11.064C44.3404 11.5247 45.2186 12.1466 46.3043 12.8825C47.39 13.6184 51.7672 16.6414 53.0422 19.4858C54.3173 22.3302 54.6833 24.1554 55.3517 28.5002C56.0202 32.845 56.3606 37.6781 57.0771 43.5365C57.7936 49.3949 58.1898 61.1999 58.1898 62.0999C58.1898 62.9999 57.89 63.5999 56.99 63.8999C56.09 64.1999 50.99 64.4999 49.79 64.1999C49.5167 64.1316 49.2968 64.0358 49.1186 63.9171" stroke="#1E1E1E" stroke-width="0.6" stroke-linecap="round"/>
</svg>
