<svg width="63" height="129" viewBox="0 0 63 129" fill="none" xmlns="http://www.w3.org/2000/svg">
<path d="M31.4023 74.1002C24.2512 74.1002 18.1497 72.522 16.7043 72.1095C15.2589 71.6969 14.3042 71.3999 14.0784 70.0701C14.0027 69.6244 13.9778 67.4954 14.0768 63.9135M31.4023 74.1002C38.5535 74.1002 44.655 72.5219 46.1004 72.1094C47.5458 71.6968 48.5005 71.3998 48.7263 70.07C48.8019 69.6245 48.8269 67.4968 48.728 63.9172M31.4023 74.1002L31.4011 40.6493M22.2281 54.2046C22.3252 56.1682 22.2594 60.7083 21.945 61.4948C21.6306 62.2813 21.1425 62.51 20.4345 62.6205C19.7264 62.731 15.8067 62.8675 14.1203 62.4929M14.5177 53.8864C16.4103 53.9228 20.5937 53.9936 21.2682 53.9858C22.1114 53.976 22.8555 54.0659 22.9878 53.2197C23.0784 52.6395 22.9502 51.8624 22.7735 51.0028C22.5968 50.1432 22.2281 50.1442 21.6372 50.0607C21.0463 49.9771 16.3812 49.8349 14.7666 49.8349M14.5177 53.8864C14.3265 57.2364 14.1993 60.1219 14.1203 62.4929M14.5177 53.8864C14.591 52.6031 14.6737 51.2517 14.7666 49.8349M14.7666 49.8349C15.1812 43.5167 15.8007 35.8991 16.7043 27.2317M14.1203 62.4929C14.1037 62.9891 14.0893 63.4628 14.0768 63.9135M40.5766 54.2045C40.4795 56.1681 40.5453 60.7082 40.8597 61.4947C41.1741 62.2812 41.6622 62.5099 42.3702 62.6204C43.0782 62.7309 46.998 62.8674 48.6844 62.4928M48.287 53.8863C46.3944 53.9227 42.211 53.9935 41.5365 53.9857C40.6933 53.9759 39.9491 54.0658 39.8169 53.2196C39.7263 52.6394 39.8545 51.8623 40.0312 51.0027C40.2079 50.1431 40.5766 50.1441 41.1675 50.0606C41.7584 49.9771 46.4235 49.8348 48.038 49.8348M48.287 53.8863C48.2137 52.603 48.131 51.2516 48.038 49.8348M48.287 53.8863C48.4782 57.2363 48.6054 60.1218 48.6844 62.4928M48.038 49.8348C47.6234 43.5167 47.004 35.899 46.1003 27.2316M48.6844 62.4928C48.701 62.9904 48.7155 63.4654 48.728 63.9172M31.4011 40.6493C29.9897 38.2351 27.3064 34.1032 25.975 31.8707C24.6437 29.6381 20.8794 23.7224 20.0013 22.25C19.1231 20.7776 19.0606 20.1937 19.8175 19.2883C20.4715 18.5059 20.6258 18.3661 21.1933 17.805M31.4011 40.6493C30.543 35.3133 27.8915 23.2839 27.8915 23.2839C27.8915 23.2839 26.5965 17.9612 25.6114 13.9443M31.4011 40.6493C32.8124 38.2351 35.4958 34.103 36.8271 31.8704C38.1584 29.6379 41.9227 23.7222 42.8009 22.2498C43.679 20.7774 43.7415 20.1935 42.9846 19.2881C42.3266 18.5009 42.1744 18.3642 41.5984 17.7944M31.4011 40.6493C32.2591 35.3133 34.9107 23.2837 34.9107 23.2837C34.9107 23.2837 36.2053 17.9622 37.1904 13.9455M21.1933 17.805C21.1933 17.805 20.2623 16.8847 19.4232 15.9121C18.584 14.9394 18.4887 14.7869 18.565 14.2338C18.6413 13.6807 19.6711 12.3076 20.2623 11.4494C20.4796 11.134 20.885 10.5944 21.344 10.038M21.1933 17.805C21.2825 17.7167 21.382 17.618 21.4952 17.5048C22.3284 16.6716 24.2845 15.0606 25.6114 13.9443M25.6114 13.9443C25.0761 11.762 24.6323 9.96508 24.5373 9.61655C24.4901 9.44361 24.4483 9.28401 24.4078 9.13836M41.5984 17.7944C41.5984 17.7944 42.5398 16.8845 43.379 15.9119C44.2181 14.9392 44.3134 14.7867 44.2372 14.2336C44.1609 13.6805 43.131 12.3074 42.5398 11.4492C42.323 11.1345 41.9189 10.5965 41.4611 10.0413M41.5984 17.7944C41.5118 17.7088 41.4157 17.6134 41.3069 17.5046C40.4737 16.6714 38.5173 15.0617 37.1904 13.9455M37.1904 13.9455C37.7258 11.7625 38.1698 9.96494 38.2649 9.61633C38.3111 9.44683 38.3522 9.29013 38.3919 9.14683M38.3919 9.14683C36.4327 8.67141 33.9734 8.46641 31.3636 8.46641C28.7693 8.46641 26.3608 8.66897 24.4078 9.13836M38.3919 9.14683C38.5843 8.45312 38.7445 8.07324 39.2977 8.07324C39.7204 8.07324 40.6708 9.08285 41.4611 10.0413M24.4078 9.13836C24.2165 8.45017 24.0553 8.07346 23.5044 8.07346C23.0822 8.07346 22.1337 9.08055 21.344 10.038M21.344 10.038C17.0299 12.5164 12.5429 16.1141 11.4727 17.3042C9.88359 19.0711 8.50653 24.1555 7.8381 28.5003C7.16967 32.8451 6.82923 37.6782 6.11273 43.5366C5.39623 49.395 5 61.2 5 62.1C5 63 5.29986 63.6 6.19986 63.9C7.09986 64.2 12.1998 64.5 13.3998 64.2C13.676 64.131 13.8976 64.0339 14.0768 63.9135M41.4611 10.0413C45.7734 12.5197 50.2453 15.9119 51.9871 18.3857C53.729 20.8596 54.2927 24.1555 54.9611 28.5003C55.6295 32.8451 55.97 37.6782 56.6865 43.5366C57.403 49.395 57.7992 61.2 57.7992 62.1C57.7992 63 57.4994 63.6 56.5994 63.9C55.6994 64.2 50.5994 64.5 49.3994 64.2C49.1261 64.1317 48.9062 64.0359 48.728 63.9172" stroke="#1E1E1E" stroke-width="0.6" stroke-linecap="round"/>
</svg>
