<svg width="63" height="129" viewBox="0 0 63 129" fill="none" xmlns="http://www.w3.org/2000/svg">
<path d="M31.0039 74.1001C23.8527 74.1001 17.7512 72.5219 16.3058 72.1094C14.8604 71.6968 13.9057 71.3998 13.68 70.07C13.6043 69.6243 13.5793 67.4953 13.6784 63.9136M31.0039 74.1001C38.1551 74.1001 44.2566 72.5218 45.702 72.1093C47.1474 71.6967 48.1021 71.3997 48.3279 70.0699C48.4035 69.6244 48.4285 67.4968 48.3295 63.9173M31.0039 74.1001L31.0115 18.7499M21.8297 54.2045C21.9268 56.1681 21.861 60.7082 21.5466 61.4947C21.2321 62.2812 20.744 62.5099 20.036 62.6204C19.328 62.7309 15.4083 62.8674 13.7218 62.4928M14.1193 53.8863C16.0119 53.9227 20.1952 53.9935 20.8698 53.9857C21.713 53.9759 22.4571 54.0658 22.5893 53.2196C22.68 52.6394 22.5517 51.8623 22.375 51.0027C22.1984 50.1431 21.8297 50.1441 21.2388 50.0606C20.6479 49.977 15.9827 49.8348 14.3682 49.8348M14.1193 53.8863C13.928 57.2363 13.8009 60.1218 13.7218 62.4928M14.1193 53.8863C14.1926 52.603 14.2752 51.2516 14.3682 49.8348M14.3682 49.8348C14.7828 43.5166 15.4022 35.899 16.3059 27.2316M13.7218 62.4928C13.7053 62.9891 13.6909 63.4628 13.6784 63.9136M40.1781 54.2044C40.081 56.168 40.1468 60.7081 40.4613 61.4946C40.7757 62.2811 41.2638 62.5098 41.9718 62.6203C42.6798 62.7309 46.5995 62.8673 48.286 62.4927M47.8885 53.8862C45.9959 53.9226 41.8126 53.9935 41.138 53.9856C40.2949 53.9758 39.5507 54.0657 39.4185 53.2195C39.3278 52.6393 39.4561 51.8622 39.6328 51.0026C39.8094 50.143 40.1781 50.144 40.769 50.0605C41.3599 49.977 46.0251 49.8347 47.6396 49.8347M47.8885 53.8862C47.8153 52.6029 47.7326 51.2515 47.6396 49.8347M47.8885 53.8862C48.0798 57.2362 48.207 60.1217 48.286 62.4927M47.6396 49.8347C47.225 43.5166 46.6056 35.8989 45.7019 27.2315M48.286 62.4927C48.3026 62.9904 48.317 63.4654 48.3295 63.9173M31.0115 18.7499C30.459 18.7499 30.1504 18.6474 29.5053 18.1986C28.8602 17.7498 25.5724 14.5091 23.9144 12.7925C22.8344 11.6742 21.7296 10.6087 20.4807 10.5928M31.0115 18.7499C31.564 18.7499 31.8632 18.6474 32.5083 18.1986C33.1534 17.7498 36.4412 14.5091 38.0992 12.7925C39.1452 11.7095 40.0895 10.6157 41.412 10.6107M20.4807 10.5928C22.6393 9.54695 27.206 8.46631 30.9646 8.46631C34.7233 8.46631 39.2534 9.56491 41.412 10.6107M20.4807 10.5928C19.2318 10.5768 16.9995 12.25 14.915 13.8793C12.8305 15.5085 11.367 16.5832 9.92091 18.7499C8.47478 20.9167 8.10809 24.1556 7.43966 28.5004C6.77123 32.8452 6.43079 37.6783 5.71429 43.5367C4.99779 49.3951 4.60156 61.2 4.60156 62.1C4.60156 63 4.90142 63.6 5.80142 63.9C6.70142 64.2 11.8014 64.5 13.0014 64.2C13.2775 64.131 13.4992 64.0339 13.6784 63.9136M41.412 10.6107C42.7345 10.6057 45.7041 12.9122 47.1457 14.0078C48.5872 15.1034 50.8144 17.0653 52.0998 19.5558C53.3853 22.0464 53.8943 24.1556 54.5627 28.5004C55.2311 32.8452 55.5716 37.6783 56.2881 43.5367C57.0046 49.3951 57.4008 61.2 57.4008 62.1C57.4008 63 57.1009 63.6 56.2009 63.9C55.3009 64.2 50.2009 64.5 49.0009 64.2C48.7277 64.1317 48.5078 64.0359 48.3295 63.9173" stroke="#1E1E1E" stroke-width="0.6" stroke-linecap="round"/>
</svg>
