<svg width="63" height="129" viewBox="0 0 63 129" fill="none" xmlns="http://www.w3.org/2000/svg">
<path d="M31.4034 64.5002C24.2522 64.5002 18.1489 62.9223 16.7035 62.5097C15.2581 62.0971 15.3521 61.8404 15.2777 60.4703M31.4034 64.5002C38.5546 64.5002 44.6582 62.9222 46.1036 62.5096C47.549 62.0971 47.455 61.8403 47.5294 60.4702M31.4034 64.5002L31.4017 18.6002M15.2777 60.4703C15.2567 60.0839 15.3609 58.542 15.5214 56.1679L15.548 55.7743M15.2777 60.4703C15.2777 60.4703 15.2777 61.4605 15.1232 62.3787C14.9687 63.297 14.5999 63.9001 13.3998 64.2001C12.1998 64.5001 7.09986 64.2001 6.19986 63.9001C5.29986 63.6001 5 63.0001 5 62.1001C5 61.2001 5.39623 49.3952 6.11273 43.5368C6.82923 37.6784 7.16967 32.8453 7.8381 28.5005C8.50653 24.1557 8.63829 21.317 10.1687 19.1422C11.699 16.9675 14.8606 14.3327 15.9645 13.5442C17.0684 12.7557 18.1962 11.9288 18.987 11.897M23.6835 47.5977C23.7806 49.5613 23.7148 54.1014 23.4004 54.8879C23.086 55.6744 22.5979 55.9032 21.8899 56.0137C21.1819 56.1242 17.2345 56.1489 15.548 55.7743M16.0803 47.2796C17.9729 47.316 22.0491 47.3868 22.7236 47.379C23.5668 47.3692 24.311 47.4591 24.4432 46.6129C24.5338 46.0327 24.4056 45.2556 24.2289 44.396C24.0522 43.5364 23.6835 43.5373 23.0926 43.4538C22.5017 43.3703 17.9039 43.228 16.2893 43.228M16.0803 47.2796C15.894 50.6225 15.6993 53.535 15.548 55.7743M16.0803 47.2796C16.1522 45.9886 16.2229 44.6334 16.2893 43.228M16.2893 43.228C16.5225 38.2967 16.7035 32.7472 16.7035 27.1837M47.5294 60.4702C47.5504 60.0838 47.4462 58.5419 47.2857 56.1677L47.2666 55.8859M47.5294 60.4702C47.5294 60.4702 47.592 61.3456 47.761 62.3109C47.9299 63.2762 48.1994 63.9001 49.3994 64.2001C50.5994 64.5001 55.6994 64.2001 56.5994 63.9001C57.4994 63.6001 57.7992 63.0001 57.7992 62.1001C57.7992 61.2001 57.403 49.3952 56.6865 43.5368C55.97 37.6784 55.6295 32.8453 54.9611 28.5005C54.2927 24.1557 53.7871 20.9732 52.796 19.1231C51.8049 17.2731 49.4455 15.4548 48.171 14.4487C46.8965 13.4425 44.3425 11.8459 43.5943 11.9378M39.1236 47.5976C39.0265 49.5612 39.0923 54.1013 39.4067 54.8878C39.7211 55.6743 40.2092 55.9031 40.9173 56.0136C41.6253 56.1241 45.5802 56.2606 47.2666 55.8859M46.7269 47.2795C44.8343 47.3159 40.7581 47.3867 40.0835 47.3789C39.2403 47.3691 38.4962 47.459 38.364 46.6128C38.2733 46.0326 38.4016 45.2555 38.5782 44.3959C38.7549 43.5363 39.1236 43.5372 39.7145 43.4537C40.3054 43.3702 44.9033 43.2279 46.5178 43.2279M46.7269 47.2795C46.9163 50.6783 47.1143 53.6321 47.2666 55.8859M46.7269 47.2795C46.6549 45.9885 46.5842 44.6333 46.5178 43.2279M46.5178 43.2279C46.2846 38.2966 46.1036 32.7471 46.1036 27.1836M31.4017 18.6002C23.9582 18.6002 21.5738 14.5235 20.4464 13.0466C20.0131 12.4789 19.7778 11.8651 18.987 11.897M31.4017 18.6002C38.8452 18.6002 41.2293 14.5235 42.3568 13.0466C42.7858 12.4846 42.8461 12.0298 43.5943 11.9378M18.987 11.897C22.787 10.716 27.9156 10.3159 31.3641 10.3159C34.8186 10.3159 39.7923 10.752 43.5943 11.9378" stroke="#1E1E1E" stroke-width="0.6" stroke-linecap="round"/>
</svg>
