<svg width="63" height="129" viewBox="0 0 63 129" fill="none" xmlns="http://www.w3.org/2000/svg">
<path d="M31.0043 52.5002C23.8776 52.5002 18.3875 50.933 16.9194 50.514L16.9045 50.5097C15.9639 50.2412 15.6752 50.0387 15.5677 49.5525M31.0043 52.5002C38.1298 52.5002 43.6191 50.9333 45.0882 50.5139L45.1032 50.5096C46.0327 50.2443 46.3256 50.0434 46.4361 49.5694M31.0043 52.5002L31.002 18.7502M23.785 38.9164C23.8821 40.88 23.8163 45.4201 23.5019 46.2066C23.1875 46.9931 22.6994 47.2218 21.9914 47.3323C21.2834 47.4428 17.2375 47.4706 15.5511 47.096M16.1115 38.5982C18.0041 38.6346 22.1506 38.7054 22.8251 38.6976C23.6683 38.6878 24.4125 38.7777 24.5447 37.9315C24.6353 37.3513 24.5071 36.5742 24.3304 35.7146C24.1537 34.855 23.785 34.856 23.1941 34.7725C22.6032 34.689 17.8459 34.5467 16.2314 34.5467M16.1115 38.5982C16.158 37.3982 16.1992 36.0539 16.2314 34.5467M16.1115 38.5982C15.9333 43.2022 15.6776 45.6825 15.5511 47.096M16.2314 34.5467C16.2767 32.4308 16.3044 29.9937 16.3044 27.1837M15.5511 47.096C15.493 47.7447 15.4622 48.1688 15.4786 48.4703C15.5046 48.9488 15.51 49.2915 15.5677 49.5525M38.2226 38.9163C38.1255 40.8799 38.1913 45.42 38.5057 46.2065C38.8201 46.993 39.3082 47.2217 40.0163 47.3322C40.7243 47.4428 44.7798 47.5792 46.4662 47.2046M45.8961 38.5981C44.0035 38.6345 39.857 38.7054 39.1825 38.6975C38.3393 38.6877 37.5952 38.7776 37.463 37.9314C37.3723 37.3512 37.5006 36.5742 37.6772 35.7145C37.8539 34.8549 38.2226 34.8559 38.8135 34.7724C39.4044 34.6889 44.1617 34.5466 45.7762 34.5466M45.8961 38.5981C46.079 43.3224 46.3435 45.8106 46.4662 47.2046M45.8961 38.5981C45.8497 37.3981 45.8085 36.0539 45.7762 34.5466M45.7762 34.5466C45.7309 32.4307 45.7032 29.9936 45.7032 27.1836M46.4662 47.2046C46.518 47.7925 46.5445 48.1859 46.5291 48.4702C46.5025 48.9592 46.4974 49.3063 46.4361 49.5694M31.002 18.7502C31.002 18.7502 29.521 21.231 28.3115 22.1656C27.1021 23.1002 26.4516 23.2571 23.74 20.0109C21.0284 16.7647 19.6682 14.8974 19.1716 14.2548C18.7375 13.693 18.1623 12.908 17.6689 12.0954M31.002 18.7502C31.002 18.7502 28.8824 16.5499 26.9219 14.5172C25.614 13.1613 23.2075 10.2615 22.5763 9.56187M31.002 18.7502C31.002 18.7502 32.483 21.231 33.6924 22.1655C34.9019 23.1001 35.5524 23.257 38.264 20.0109C40.9755 16.7647 42.3357 14.8974 42.8324 14.2547C43.2663 13.6932 43.8413 12.9084 44.3345 12.0962M31.002 18.7502C31.002 18.7502 33.1216 16.5498 35.0821 14.5172C36.3836 13.1677 38.7731 10.2894 39.4183 9.57211M22.5763 9.56187C24.7162 8.78857 27.6926 8.46637 30.9645 8.46637C34.2507 8.46637 37.2764 8.79142 39.4183 9.57211M22.5763 9.56187C22.5357 9.51686 22.5024 9.48096 22.4773 9.45516C21.6783 8.63553 21.376 7.8923 20.0413 8.57626C18.7065 9.26023 18.4693 9.42301 17.6898 10.0678C16.9103 10.7127 17.1602 11.2144 17.4614 11.743C17.5284 11.8606 17.5978 11.9783 17.6689 12.0954M39.4183 9.57211C39.4632 9.52224 39.4996 9.48282 39.5267 9.45508C40.3256 8.63546 40.6279 7.89222 41.9627 8.57619C43.2974 9.26015 43.5346 9.42294 44.3141 10.0678C45.0936 10.7126 44.8437 11.2143 44.5425 11.7429C44.4754 11.8608 44.4058 11.9788 44.3345 12.0962M17.6689 12.0954C14.564 14.1958 11.8714 16.4179 11.0742 17.3043C9.48515 19.0713 8.10809 24.1557 7.43966 28.5005C6.77123 32.8453 6.43079 37.6784 5.71429 43.5368C4.99779 49.3952 4.60156 61.2001 4.60156 62.1001C4.60156 63.0001 4.90142 63.6001 5.80142 63.9001C6.70142 64.2001 11.8014 64.5001 13.0014 64.2001C14.2014 63.9001 14.3731 63.0702 14.5014 62.1001C14.5647 61.6217 14.9859 56.3417 15.5677 49.5525M44.3345 12.0962C47.4389 14.1964 50.486 16.5769 52.0978 19.1439C53.7097 21.7109 53.8943 24.1557 54.5627 28.5005C55.2311 32.8453 55.5716 37.6784 56.2881 43.5368C57.0046 49.3952 57.4008 61.2001 57.4008 62.1001C57.4008 63.0001 57.1009 63.6001 56.2009 63.9001C55.3009 64.2001 50.2009 64.5001 49.0009 64.2001C47.8009 63.9001 47.6293 63.0702 47.5009 62.1001C47.4377 61.6221 47.0171 56.3504 46.4361 49.5694" stroke="#1E1E1E" stroke-width="0.6" stroke-linecap="round"/>
</svg>
