<svg width="63" height="129" viewBox="0 0 63 129" fill="none" xmlns="http://www.w3.org/2000/svg">
<path d="M31.2081 64.5002C24.0569 64.5002 17.9536 62.9223 16.5082 62.5097C15.0628 62.0971 15.1568 61.8404 15.0824 60.4703M31.2081 64.5002C38.3593 64.5002 44.4629 62.9222 45.9083 62.5096C47.3537 62.0971 47.2597 61.8403 47.3341 60.4702M31.2081 64.5002L31.2058 40.6491M15.0824 60.4703C15.0614 60.0839 15.1656 58.542 15.3261 56.1679L15.3527 55.7743M15.0824 60.4703C15.0824 60.4703 14.9443 62.0471 14.8512 62.6673C14.758 63.2875 14.4045 63.9001 13.2045 64.2001C12.0045 64.5001 6.90455 64.2001 6.00455 63.9001C5.10455 63.6001 4.80469 63.0001 4.80469 62.1001C4.80469 61.2001 5.20092 49.3952 5.91742 43.5368C6.63392 37.6784 6.97436 32.8453 7.64279 28.5005C8.31122 24.1557 8.67521 20.9482 10.3644 18.4301C12.0536 15.9121 16.8344 12.5167 21.1484 10.0382M23.4882 47.5977C23.5853 49.5613 23.5195 54.1014 23.2051 54.8879C22.8907 55.6744 22.4026 55.9032 21.6946 56.0137C20.9865 56.1242 17.0392 56.149 15.3527 55.7743M15.8849 47.2796C17.7775 47.316 21.8538 47.3868 22.5283 47.379C23.3715 47.3692 24.1156 47.4591 24.2479 46.6129C24.3385 46.0327 24.2102 45.2556 24.0336 44.396C23.8569 43.5364 23.4882 43.5373 22.8973 43.4538C22.3064 43.3703 17.7085 43.228 16.094 43.228M15.8849 47.2796C15.6987 50.6225 15.504 53.535 15.3527 55.7743M15.8849 47.2796C15.9569 45.9886 16.0276 44.6334 16.094 43.228M16.094 43.228C16.3272 38.2967 16.5082 32.7472 16.5082 27.1837M47.3341 60.4702C47.3551 60.0838 47.2509 58.5419 47.0904 56.1677L47.0713 55.8859M47.3341 60.4702C47.3341 60.4702 47.4414 61.5521 47.5037 62.321C47.566 63.0898 48.004 63.9001 49.2041 64.2001C50.4041 64.5001 55.504 64.2001 56.404 63.9001C57.304 63.6001 57.6039 63.0001 57.6039 62.1001C57.6039 61.2001 57.2077 49.3952 56.4912 43.5368C55.7747 37.6784 55.4342 32.8453 54.7658 28.5005C54.0974 24.1557 53.6083 21.7859 51.7906 18.849C49.973 15.9121 45.5783 12.52 41.2661 10.0416M38.9283 47.5976C38.8312 49.5612 38.897 54.1013 39.2114 54.8878C39.5258 55.6744 40.0139 55.9031 40.7219 56.0136C41.43 56.1241 45.3849 56.2606 47.0713 55.8859M46.5316 47.2795C44.639 47.3159 40.5627 47.3867 39.8882 47.3789C39.045 47.3691 38.3009 47.459 38.1686 46.6128C38.078 46.0326 38.2063 45.2555 38.3829 44.3959C38.5596 43.5363 38.9283 43.5372 39.5192 43.4537C40.1101 43.3702 44.708 43.228 46.3225 43.228M46.5316 47.2795C46.7209 50.6783 46.919 53.6322 47.0713 55.8859M46.5316 47.2795C46.4596 45.9885 46.3889 44.6333 46.3225 43.228M46.3225 43.228C46.0893 38.2966 45.9083 32.7471 45.9083 27.1836M31.2058 40.6491C29.7944 38.2348 27.1111 34.1032 25.7797 31.8707C24.4484 29.6381 20.6841 23.7224 19.806 22.25C18.9278 20.7776 18.8653 20.1937 19.6222 19.2883C20.2762 18.5059 20.4305 18.3661 20.998 17.805M31.2058 40.6491C30.3477 35.313 27.6961 23.2839 27.6961 23.2839C27.6961 23.2839 26.4012 17.9612 25.4161 13.9443M31.2058 40.6491C32.6171 38.2348 35.3004 34.103 36.6318 31.8704C37.9631 29.6379 41.7274 23.7222 42.6056 22.2498C43.4837 20.7774 43.5462 20.1935 42.7893 19.2881C42.1313 18.5009 41.9791 18.3642 41.4031 17.7944M31.2058 40.6491C32.0638 35.313 34.7154 23.2837 34.7154 23.2837C34.7154 23.2837 36.01 17.9622 36.9951 13.9455M20.998 17.805C20.998 17.805 20.067 16.8847 19.2279 15.9121C18.3887 14.9394 18.2934 14.7869 18.3697 14.2338C18.4459 13.6807 19.4758 12.3076 20.067 11.4494C20.2842 11.134 20.6895 10.5945 21.1484 10.0382M20.998 17.805C21.0872 17.7167 21.1867 17.618 21.2999 17.5048C22.1331 16.6716 24.0892 15.0606 25.4161 13.9443M25.4161 13.9443C24.8808 11.762 24.437 9.96508 24.342 9.61655C24.2948 9.44361 24.2529 9.28401 24.2125 9.13836M41.4031 17.7944C41.4031 17.7944 42.3445 16.8845 43.1837 15.9119C44.0228 14.9392 44.1181 14.7867 44.0419 14.2336C43.9656 13.6805 42.9357 12.3074 42.3445 11.4492C42.1277 11.1345 41.7237 10.5966 41.2661 10.0416M41.4031 17.7944C41.3165 17.7088 41.2204 17.6134 41.1116 17.5046C40.2784 16.6714 38.322 15.0617 36.9951 13.9455M36.9951 13.9455C37.5305 11.7625 37.9745 9.96494 38.0696 9.61633C38.1158 9.44683 38.1569 9.29013 38.1966 9.14683M38.1966 9.14683C36.2374 8.67141 33.7781 8.46641 31.1683 8.46641C28.574 8.46641 26.1655 8.66897 24.2125 9.13836M38.1966 9.14683C38.389 8.45312 38.5492 8.07324 39.1024 8.07324C39.5252 8.07324 40.4756 9.08304 41.2661 10.0416M24.2125 9.13836C24.0212 8.45017 23.86 8.07346 23.3091 8.07346C22.8869 8.07346 21.9382 9.08074 21.1484 10.0382" stroke="#1E1E1E" stroke-width="0.6" stroke-linecap="round"/>
</svg>
