<svg width="64" height="129" viewBox="0 0 64 129" fill="none" xmlns="http://www.w3.org/2000/svg">
<path d="M31.794 64.5002C24.6428 64.5002 18.5396 62.9223 17.0942 62.5097C15.6488 62.0971 15.7427 61.8404 15.6683 60.4703M31.794 64.5002C38.9452 64.5002 45.0488 62.9222 46.4942 62.5096C47.9396 62.0971 47.8457 61.8403 47.9201 60.4702M31.794 64.5002L31.7535 18.7112M15.6683 60.4703C15.6473 60.0839 15.7516 58.542 15.9121 56.1679L15.9387 55.7743M15.6683 60.4703C15.5906 61.3844 15.4433 62.075 15.3251 62.6661C15.2069 63.2573 14.9905 63.9001 13.7905 64.2001C12.5905 64.5001 7.49049 64.2001 6.59049 63.9001C5.69049 63.6001 5.39062 63.0001 5.39062 62.1001C5.39062 61.2001 5.78685 49.3952 6.50336 43.5368C7.21986 37.6784 7.5603 32.8453 8.22873 28.5005C8.89716 24.1557 9.2227 20.0914 11.8633 17.3043C14.5039 14.5172 15.3531 14.1958 18.458 12.0954M24.0741 47.5977C24.1713 49.5613 24.1054 54.1014 23.791 54.8879C23.4766 55.6744 22.9885 55.9032 22.2805 56.0137C21.5725 56.1242 17.6251 56.149 15.9387 55.7743M16.4709 47.2796C18.3635 47.316 22.4397 47.3868 23.1142 47.379C23.9574 47.3692 24.7016 47.4591 24.8338 46.6129C24.9245 46.0327 24.7962 45.2556 24.6195 44.396C24.4428 43.5364 24.0741 43.5373 23.4832 43.4538C22.8923 43.3703 18.2945 43.228 16.68 43.228M16.4709 47.2796C16.5428 45.9886 16.6135 44.6334 16.68 43.228M16.4709 47.2796C16.4134 48.3118 16.3551 49.3029 16.2975 50.2459C16.1685 52.3569 16.0432 54.2264 15.9387 55.7743M16.68 43.228C16.9131 38.2967 17.0941 32.7472 17.0941 27.1837M47.9201 60.4702C47.9411 60.0838 47.8368 58.5419 47.6763 56.1677L47.6573 55.8859M47.9201 60.4702C47.9201 60.4702 48.0351 61.498 48.1747 62.3954C48.3143 63.2928 48.59 63.9001 49.79 64.2001C50.99 64.5001 56.09 64.2001 56.99 63.9001C57.89 63.6001 58.1898 63.0001 58.1898 62.1001C58.1898 61.2001 57.7936 49.3952 57.0771 43.5368C56.3606 37.6784 56.0202 32.8453 55.3517 28.5005C54.6833 24.1557 54.4912 22.2709 53.0253 19.253C51.5595 16.2351 48.228 14.1964 45.1236 12.0962M39.5142 47.5976C39.4171 49.5612 39.4829 54.1013 39.7974 54.8878C40.1118 55.6744 40.5999 55.9031 41.3079 56.0136C42.0159 56.1241 45.9708 56.2606 47.6573 55.8859M47.1175 47.2795C45.2249 47.3159 41.1487 47.3867 40.4741 47.3789C39.631 47.3691 38.8868 47.459 38.7546 46.6128C38.6639 46.0326 38.7922 45.2555 38.9689 44.3959C39.1455 43.5363 39.5142 43.5372 40.1051 43.4537C40.696 43.3702 45.2939 43.228 46.9084 43.228M47.1175 47.2795C47.0456 45.9885 46.9749 44.6333 46.9084 43.228M47.1175 47.2795C47.2056 48.86 47.2955 50.3443 47.3819 51.7067C47.4812 53.2741 47.5758 54.6802 47.6573 55.8859M46.9084 43.228C46.6753 38.2966 46.4942 32.7471 46.4942 27.1836M31.791 18.7502C31.791 18.7502 30.31 21.231 29.1006 22.1656C27.8911 23.1002 27.2406 23.2571 24.529 20.0109C21.8175 16.7647 20.4573 14.8974 19.9606 14.2548C19.5266 13.693 18.9513 12.908 18.458 12.0954M31.791 18.7502C31.791 18.7502 29.6714 16.5499 27.7109 14.5172C26.4031 13.1613 23.9966 10.2615 23.3654 9.56187M31.791 18.7502C31.791 18.7502 33.272 21.231 34.4815 22.1655C35.6909 23.1001 36.3414 23.257 39.053 20.0109C41.7646 16.7647 43.1248 14.8974 43.6214 14.2547C44.0553 13.6932 44.6303 12.9084 45.1236 12.0962M31.791 18.7502C31.791 18.7502 33.9106 16.5498 35.8711 14.5172C37.1726 13.1677 39.5622 10.2894 40.2074 9.57211M23.3654 9.56187C25.5053 8.78857 28.4817 8.46637 31.7535 8.46637C35.0398 8.46637 38.0655 8.79142 40.2074 9.57211M23.3654 9.56187C23.3248 9.51686 23.2915 9.48096 23.2663 9.45516C22.4674 8.63553 22.1651 7.8923 20.8303 8.57626C19.4956 9.26023 19.2584 9.42301 18.4789 10.0678C17.6994 10.7127 17.9493 11.2144 18.2505 11.743C18.3175 11.8606 18.3869 11.9783 18.458 12.0954M40.2074 9.57211C40.2523 9.52224 40.2887 9.48282 40.3157 9.45508C41.1147 8.63546 41.417 7.89222 42.7517 8.57619C44.0865 9.26015 44.3237 9.42294 45.1032 10.0678C45.8827 10.7126 45.6328 11.2143 45.3316 11.7429C45.2644 11.8608 45.1949 11.9788 45.1236 12.0962" stroke="#1E1E1E" stroke-width="0.6" stroke-linecap="round"/>
</svg>
