<svg width="63" height="129" viewBox="0 0 63 129" fill="none" xmlns="http://www.w3.org/2000/svg">
<path d="M31.0039 74.1002C23.8527 74.1002 17.7512 72.522 16.3058 72.1095C14.8604 71.6969 13.9057 71.3999 13.68 70.0701C13.6043 69.6244 13.5793 67.4954 13.6784 63.9135M31.0039 74.1002C38.1551 74.1002 44.2566 72.5219 45.702 72.1094C47.1474 71.6968 48.1021 71.3998 48.3279 70.07C48.4035 69.6245 48.4285 67.4968 48.3295 63.9172M31.0039 74.1002L31.002 18.7505M21.8297 54.2046C21.9268 56.1682 21.861 60.7083 21.5466 61.4948C21.2321 62.2813 20.744 62.51 20.036 62.6205C19.328 62.731 15.4083 62.8675 13.7218 62.4929M14.1193 53.8864C16.0119 53.9228 20.1952 53.9936 20.8698 53.9858C21.713 53.976 22.4571 54.0659 22.5893 53.2197C22.68 52.6395 22.5517 51.8624 22.375 51.0028C22.1984 50.1432 21.8297 50.1442 21.2388 50.0607C20.6479 49.9771 15.9827 49.8349 14.3682 49.8349M14.1193 53.8864C13.928 57.2364 13.8009 60.1219 13.7218 62.4929M14.1193 53.8864C14.1926 52.6031 14.2752 51.2517 14.3682 49.8349M14.3682 49.8349C14.7828 43.5167 15.4022 35.8991 16.3059 27.2317M13.7218 62.4929C13.706 62.9687 13.6905 63.4795 13.6784 63.9135M40.1781 54.2045C40.081 56.1681 40.1468 60.7082 40.4613 61.4947C40.7757 62.2812 41.2638 62.5099 41.9718 62.6204C42.6798 62.7309 46.5995 62.8674 48.286 62.4928M47.8885 53.8863C45.9959 53.9227 41.8126 53.9935 41.138 53.9857C40.2949 53.9759 39.5507 54.0658 39.4185 53.2196C39.3278 52.6394 39.4561 51.8623 39.6328 51.0027C39.8094 50.1431 40.1781 50.1441 40.769 50.0606C41.3599 49.9771 46.0251 49.8348 47.6396 49.8348M47.8885 53.8863C47.8153 52.603 47.7326 51.2516 47.6396 49.8348M47.8885 53.8863C48.0798 57.2363 48.207 60.1218 48.286 62.4928M47.6396 49.8348C47.225 43.5167 46.6056 35.899 45.7019 27.2316M48.286 62.4928C48.3026 62.9904 48.317 63.4654 48.3295 63.9172M31.002 18.7505C31.002 18.7505 29.521 21.231 28.3115 22.1656C27.1021 23.1002 26.4516 23.2571 23.74 20.0109C21.0284 16.7647 19.6682 14.8974 19.1716 14.2548C18.7375 13.693 18.1622 12.9079 17.6689 12.0953M31.002 18.7505C31.002 18.7505 28.8824 16.5499 26.9219 14.5172C25.614 13.1613 23.2075 10.2615 22.5763 9.56187M31.002 18.7505C31.002 18.7505 32.483 21.231 33.6924 22.1655C34.9019 23.1001 35.5524 23.257 38.264 20.0109C40.9755 16.7647 42.3357 14.8974 42.8324 14.2547C43.2663 13.6931 43.8413 12.9083 44.3346 12.096M31.002 18.7505C31.002 18.7505 33.1216 16.5498 35.0821 14.5172C36.3836 13.1677 38.7731 10.2894 39.4183 9.57211M22.5763 9.56187C24.7162 8.78857 27.6926 8.46637 30.9645 8.46637C34.2507 8.46637 37.2764 8.79142 39.4183 9.57211M22.5763 9.56187C22.5357 9.51686 22.5024 9.48096 22.4773 9.45516C21.6783 8.63553 21.376 7.8923 20.0413 8.57626C18.7065 9.26023 18.4693 9.42301 17.6898 10.0678C16.9103 10.7127 17.1602 11.2144 17.4614 11.743C17.5284 11.8606 17.5978 11.9782 17.6689 12.0953M39.4183 9.57211C39.4632 9.52224 39.4996 9.48282 39.5267 9.45508C40.3256 8.63546 40.6279 7.89222 41.9627 8.57619C43.2974 9.26015 43.5346 9.42294 44.3141 10.0678C45.0936 10.7126 44.8437 11.2143 44.5425 11.7429C44.4754 11.8608 44.4058 11.9787 44.3346 12.096M13.6784 63.9135C13.4992 64.0339 13.2775 64.131 13.0014 64.2C11.8014 64.5 6.70142 64.2 5.80142 63.9C4.90142 63.6 4.60156 63 4.60156 62.1C4.60156 61.2 4.99779 49.395 5.71429 43.5366C6.43079 37.6782 6.77123 32.8451 7.43966 28.5003C8.10809 24.1555 9.48515 19.0711 11.0742 17.3042C11.8714 16.4177 14.564 14.1957 17.6689 12.0953M48.3295 63.9172C48.5078 64.0359 48.7277 64.1317 49.0009 64.2C50.2009 64.5 55.3009 64.2 56.2009 63.9C57.1009 63.6 57.4008 63 57.4008 62.1C57.4008 61.2 57.0046 49.395 56.2881 43.5366C55.5716 37.6782 55.2311 32.8451 54.5627 28.5003C53.8943 24.1555 53.3975 20.9901 52.1289 18.7505C50.8602 16.5108 47.439 14.1962 44.3346 12.096" stroke="#1E1E1E" stroke-width="0.6" stroke-linecap="round"/>
</svg>
