<svg width="64" height="129" viewBox="0 0 64 129" fill="none" xmlns="http://www.w3.org/2000/svg">
<path d="M31.7934 52.5001C24.6666 52.5001 19.1766 50.9329 17.7085 50.5139L17.6935 50.5096C16.753 50.2411 16.4642 50.0386 16.3568 49.5524M31.7934 52.5001C38.9189 52.5001 44.4081 50.9332 45.8773 50.5138L45.8923 50.5095C46.8218 50.2442 47.1147 50.0433 47.2252 49.5693M31.7934 52.5001L31.7939 15.3M24.5741 38.9163C24.6712 40.8799 24.6054 45.42 24.291 46.2065C23.9766 46.993 23.4885 47.2217 22.7805 47.3322C22.0724 47.4428 18.0266 47.4705 16.3401 47.0959M16.9006 38.5981C18.7932 38.6345 22.9397 38.7053 23.6142 38.6975C24.4574 38.6877 25.2015 38.7776 25.3338 37.9314C25.4244 37.3512 25.2961 36.5741 25.1195 35.7145C24.9428 34.8549 24.5741 34.8559 23.9832 34.7724C23.3923 34.6889 18.635 34.5466 17.0205 34.5466M16.9006 38.5981C16.947 37.3981 16.9882 36.0538 17.0205 34.5466M16.9006 38.5981C16.7223 43.2021 16.4666 45.6824 16.3401 47.0959M17.0205 34.5466C17.0658 32.4307 17.0935 29.9936 17.0935 27.1836M16.3401 47.0959C16.2821 47.7446 16.2513 48.1687 16.2677 48.4702C16.2936 48.9487 16.2991 49.2914 16.3568 49.5524M39.0117 38.9162C38.9146 40.8798 38.9804 45.4199 39.2948 46.2064C39.6092 46.9929 40.0973 47.2216 40.8053 47.3321C41.5133 47.4427 45.5688 47.5791 47.2553 47.2045M46.6852 38.598C44.7926 38.6344 40.6461 38.7053 39.9716 38.6974C39.1284 38.6876 38.3842 38.7775 38.252 37.9313C38.1614 37.3511 38.2896 36.5741 38.4663 35.7144C38.643 34.8548 39.0117 34.8558 39.6026 34.7723C40.1935 34.6888 44.9508 34.5465 46.5653 34.5465M46.6852 38.598C46.8681 43.3223 47.1326 45.8105 47.2553 47.2045M46.6852 38.598C46.6388 37.398 46.5976 36.0538 46.5653 34.5465M46.5653 34.5465C46.52 32.4306 46.4923 29.9935 46.4923 27.1835M47.2553 47.2045C47.307 47.7925 47.3336 48.1858 47.3181 48.4701C47.2916 48.9591 47.2864 49.3063 47.2252 49.5693M31.7939 15.3C27.8928 15.3 25.4205 13.0002 24.2531 11.2869C23.7379 10.5308 23.3268 9.94545 22.5659 9.89109M31.7939 15.3C35.6949 15.3 38.1639 13.0002 39.3312 11.2869C39.8399 10.5404 40.0401 9.91369 40.9953 9.89864M22.5659 9.89109C24.7276 8.87897 28.0519 8.46631 31.7547 8.46631C35.4557 8.46631 38.8334 8.88756 40.9953 9.89864M22.5659 9.89109C21.8049 9.83673 19.9868 11.0258 18.1381 12.2657C16.2895 13.5056 12.2374 16.0687 10.6682 18.5533C9.09895 21.0379 8.89716 24.1556 8.22873 28.5004C7.5603 32.8452 7.21986 37.6783 6.50336 43.5367C5.78685 49.3951 5.39062 61.2 5.39062 62.1C5.39062 63 5.69049 63.6 6.59049 63.9C7.49049 64.2 12.5905 64.5 13.7905 64.2C14.9905 63.9 15.1621 63.0701 15.2905 62.1C15.3538 61.6216 15.775 56.3416 16.3568 49.5524M40.9953 9.89864C41.9505 9.88359 45.4834 11.9582 47.6848 13.7262C49.8862 15.4942 52.4156 18.0159 53.4006 20.3142C54.3856 22.6125 54.6833 24.1556 55.3517 28.5004C56.0202 32.8452 56.3606 37.6783 57.0771 43.5367C57.7936 49.3951 58.1898 61.2 58.1898 62.1C58.1898 63 57.89 63.6 56.99 63.9C56.09 64.2 50.99 64.5 49.79 64.2C48.59 63.9 48.4184 63.0701 48.29 62.1C48.2268 61.622 47.8062 56.3503 47.2252 49.5693" stroke="#1E1E1E" stroke-width="0.6" stroke-linecap="round"/>
</svg>
