<svg width="63" height="102" viewBox="0 0 63 102" fill="none" xmlns="http://www.w3.org/2000/svg">
<path d="M11.7039 90.6125C11.7024 84.0206 12.8308 67.312 12.9012 61.1998C12.9716 55.0876 14.0441 26.5382 14.0546 23.9998M11.7039 90.6125C11.789 90.6039 11.8807 90.5998 11.9797 90.5998C18.062 90.5998 21.4721 90.5998 27.5545 90.5998C28.1637 90.5998 29.1624 90.5382 29.7231 90.7321M11.7039 90.6125C10.7335 90.7104 10.6336 91.3887 10.6336 93.141C10.6336 94.1777 10.5867 95.1441 11.2242 95.6168C11.7586 96.0132 12.8239 95.9998 14.3172 95.9998H28.3731C30.0102 95.9998 30.4195 95.3645 30.4195 94.4116V92.188C30.4195 91.56 30.2926 90.9291 29.7231 90.7321M29.7231 90.7321C29.9231 76.3321 30.0008 41.3998 31.2008 35.9998M31.2008 35.9998C32.4008 41.3998 32.48 76.3321 32.68 90.7321M31.2008 35.9998L31.192 24.1848M14.0546 23.9998C15.5546 23.9998 17.3279 23.5205 18.8919 22.1998C20.3963 20.9296 21.4743 18.5531 21.5919 16.1998M14.0546 23.9998C14.1164 20.8385 14.4724 17.9643 14.6926 16.1998M28.8859 26.7724H22.6469M28.8859 28.5287L25.1318 29.3766M50.7049 90.6131C50.7064 84.0212 49.5724 67.312 49.5019 61.1998C49.4315 55.0876 48.3509 26.5382 48.3404 23.9998M50.7049 90.6131C50.6182 90.6041 50.5246 90.5998 50.4235 90.5998H34.8486C34.2395 90.5998 33.2407 90.5382 32.68 90.7321M50.7049 90.6131C51.67 90.7131 51.7695 91.3921 51.7695 93.141C51.7695 94.1777 51.8164 95.1441 51.179 95.6168C50.6445 96.0132 49.5792 95.9998 48.0859 95.9998H34.0301C32.3929 95.9998 31.9836 95.3645 31.9836 94.4116V92.188C31.9836 91.56 32.1105 90.9291 32.68 90.7321M48.3404 23.9998C46.8404 23.9998 45.067 23.5205 43.503 22.1998C41.9987 20.9296 40.9207 18.5531 40.803 16.1998M48.3404 23.9998C48.2786 20.8385 47.9233 17.9643 47.703 16.1998M33.5172 26.7724H39.7563M33.5172 28.5287L37.2713 29.3766M47.703 16.1998C47.5256 14.7788 47.305 13.4094 46.8887 12.8546C46.4724 12.2998 45.6807 12.2998 44.7017 12.2998H40.803M47.703 16.1998H40.803M40.803 12.2998H38.103M40.803 12.2998V16.1998M40.803 16.1998H38.103M38.103 16.1998V12.2998M38.103 16.1998H32.3065M38.103 12.2998L21.5919 12.2998M14.6926 16.1998C14.87 14.7788 15.09 13.4094 15.5063 12.8546C15.9226 12.2998 16.7143 12.2998 17.6933 12.2998L21.5919 12.2998M14.6926 16.1998H21.5919M21.5919 12.2998V16.1998M21.5919 16.1998H30.1139M24.292 16.1998V12.2998M31.192 24.1848C30.9231 24.1794 30.2563 23.9762 30.2085 23.3425C30.16 22.6999 30.1125 19.1107 30.1139 16.1998M31.192 24.1848C31.4625 24.1794 32.1641 23.9762 32.2119 23.3425C32.2604 22.6999 32.3079 19.1107 32.3065 16.1998M30.1139 16.1998H32.3065" stroke="black" stroke-width="0.6" stroke-linecap="round"/>
</svg>
