<svg width="63" height="102" viewBox="0 0 63 102" fill="none" xmlns="http://www.w3.org/2000/svg">
<path d="M18.0995 90.6731C17.6 84.1731 16.5503 63.2998 15.9503 55.7998C15.3503 48.2998 14.1524 36.5998 13.8516 23.9998M18.0995 90.6731C18.2553 90.6228 18.4347 90.5998 18.6402 90.5998H27.2802C27.8037 90.5998 28.4118 90.5998 28.8995 90.7807M18.0995 90.6731C17.4362 90.8875 17.2002 91.5977 17.2002 93.141C17.2002 95.0469 17.5602 95.9998 20.4402 95.9998H28.0002C29.4402 95.9998 29.8002 95.3645 29.8002 94.4116V92.188C29.8002 91.3697 29.4179 90.973 28.8995 90.7807M28.8995 90.7807C29.0995 76.3807 29.7995 41.3998 30.9995 35.9998M30.9995 35.9998C32.1995 41.3998 32.9008 76.3807 33.1008 90.7807M30.9995 35.9998L30.989 24.1848M13.8516 23.9998C15.3516 23.9998 17.1249 23.5205 18.6889 22.1998C20.1932 20.9296 21.2713 18.5531 21.3889 16.1998M13.8516 23.9998C13.9133 20.8385 14.2693 17.9643 14.4896 16.1998M28.6846 26.7724H22.4455M28.6846 28.5287L24.9304 29.3766M43.9008 90.6731C44.4004 84.1731 45.4032 68.6998 46.0032 61.1998C46.6032 53.6998 47.8365 36.5998 48.1374 23.9998M43.9008 90.6731C43.745 90.6228 43.5656 90.5998 43.3602 90.5998H34.7202C34.1966 90.5998 33.5885 90.5998 33.1008 90.7807M43.9008 90.6731C44.5641 90.8875 44.8002 91.5977 44.8002 93.141C44.8002 95.0469 44.4402 95.9998 41.5602 95.9998H34.0002C32.5602 95.9998 32.2002 95.3645 32.2002 94.4116V92.188C32.2002 91.3697 32.5825 90.973 33.1008 90.7807M48.1374 23.9998C46.6374 23.9998 44.864 23.5205 43.3 22.1998C41.7957 20.9296 40.7177 18.5531 40.6 16.1998M48.1374 23.9998C48.0756 20.8385 47.7203 17.9643 47.5 16.1998M33.3158 26.7724H39.5549M33.3158 28.5287L37.07 29.3766M47.5 16.1998C47.3226 14.7788 47.102 13.4094 46.6857 12.8546C46.2693 12.2998 45.4777 12.2998 44.4987 12.2998H40.6M47.5 16.1998H40.6M40.6 12.2998H37.9M40.6 12.2998V16.1998M40.6 16.1998H37.9M37.9 16.1998V12.2998M37.9 16.1998H32.1035M37.9 12.2998H21.3889M14.4896 16.1998C14.667 14.7788 14.887 13.4094 15.3033 12.8546C15.7196 12.2998 16.5113 12.2998 17.4903 12.2998H21.3889M14.4896 16.1998H21.3889M21.3889 12.2998V16.1998M21.3889 16.1998H29.9108M24.0889 16.1998V12.2998M30.989 24.1848C30.72 24.1794 30.0533 23.9762 30.0055 23.3425C29.957 22.6999 29.9094 19.1107 29.9108 16.1998M30.989 24.1848C31.2595 24.1794 31.9611 23.9762 32.0089 23.3425C32.0574 22.6999 32.1049 19.1107 32.1035 16.1998M29.9108 16.1998H32.1035" stroke="black" stroke-width="0.6" stroke-linecap="round"/>
</svg>
