<svg width="64" height="102" viewBox="0 0 64 102" fill="none" xmlns="http://www.w3.org/2000/svg">
<path d="M31.794 35.9998C30.594 41.3998 29.9788 93.3518 29.9799 94.696C29.9811 96.0402 29.1217 95.9865 27.0411 96.1563C24.9606 96.3262 17.5352 96.1563 15.7532 96.1563C13.9711 96.1563 13.5019 95.5421 13.6621 94.3676C13.8224 93.1931 17.4155 66.4199 16.8155 58.9199C16.2155 51.4199 14.9507 36.5998 14.6499 23.9998M31.794 35.9998C32.994 41.3998 33.6244 93.3518 33.6232 94.696C33.6221 96.0402 34.4814 95.9865 36.562 96.1563C38.6425 96.3262 46.0679 96.1563 47.85 96.1563C49.632 96.1563 50.1013 95.5421 49.941 94.3676C49.7807 93.1931 46.1877 66.4199 46.7877 58.9199C47.3877 51.4199 48.6349 36.5998 48.9357 23.9998M31.794 35.9998L31.7873 24.1848M14.6499 23.9998C16.1499 23.9998 17.9233 23.5205 19.4873 22.1998C20.9916 20.9296 22.0696 18.5531 22.1873 16.1998M14.6499 23.9998C14.7117 20.8385 15.0677 17.9643 15.2879 16.1998M29.4813 26.7724H23.2422M29.4813 28.5287L25.7271 29.3766M48.9357 23.9998C47.4357 23.9998 45.6623 23.5205 44.0983 22.1998C42.594 20.9296 41.516 18.5531 41.3983 16.1998M48.9357 23.9998C48.8739 20.8385 48.5186 17.9643 48.2983 16.1998M34.1219 26.7724H40.3609M34.1219 28.5287L37.876 29.3766M48.2983 16.1998C48.121 14.7788 47.9003 13.4094 47.484 12.8546C47.0677 12.2998 46.276 12.2998 45.297 12.2998H41.3983M48.2983 16.1998H41.3983M41.3983 12.2998H38.6983M41.3983 12.2998V16.1998M41.3983 16.1998H38.6983M38.6983 16.1998V12.2998M38.6983 16.1998H32.9019M38.6983 12.2998L22.1873 12.2998M15.2879 16.1998C15.4653 14.7788 15.6853 13.4094 16.1016 12.8546C16.5179 12.2998 17.3096 12.2998 18.2886 12.2998L22.1873 12.2998M15.2879 16.1998H22.1873M22.1873 12.2998V16.1998M22.1873 16.1998H30.7092M24.8873 16.1998V12.2998M31.7873 24.1848C31.5184 24.1794 30.8516 23.9762 30.8038 23.3425C30.7553 22.6999 30.7078 19.1107 30.7092 16.1998M31.7873 24.1848C32.0579 24.1794 32.7594 23.9762 32.8072 23.3425C32.8557 22.6999 32.9032 19.1107 32.9019 16.1998M30.7092 16.1998H32.9019" stroke="black" stroke-width="0.6" stroke-linecap="round"/>
</svg>
