<svg width="63" height="102" viewBox="0 0 63 102" fill="none" xmlns="http://www.w3.org/2000/svg">
<path d="M14.2369 90.5998C14.2353 84.0079 14.302 65.1964 14.3016 61.1998C14.3012 57.2032 14.2442 26.5382 14.2547 23.9998M14.2369 90.5998H27.68C28.2048 90.5998 28.8145 90.5998 29.3027 90.782M14.2369 90.5998C13.1569 90.5998 12.7969 91.2351 12.7969 93.141C12.7969 95.0469 13.1569 95.9998 16.0369 95.9998H28.4C29.84 95.9998 30.2 95.3645 30.2 94.4116V92.188C30.2 91.3715 29.8194 90.9747 29.3027 90.782M29.3027 90.782C29.5027 76.382 30.2004 41.3998 31.4004 35.9998M31.4004 35.9998C32.6004 41.3998 33.3004 76.382 33.5004 90.782M31.4004 35.9998L31.3921 24.1848M14.2547 23.9998C15.7547 23.9998 17.528 23.5205 19.092 22.1998C20.5964 20.9296 21.6744 18.5531 21.792 16.1998M14.2547 23.9998C14.3165 20.8385 14.6724 17.9643 14.8927 16.1998M29.0859 26.7724H22.8469M29.0859 28.5287L25.3318 29.3766M48.5662 90.5998C48.5678 84.0079 48.5011 65.1964 48.5015 61.1998C48.5019 57.2032 48.551 26.5382 48.5405 23.9998M48.5662 90.5998H35.1231C34.5984 90.5998 33.9887 90.5998 33.5004 90.782M48.5662 90.5998C49.6462 90.5998 50.0063 91.2351 50.0063 93.141C50.0063 95.0469 49.6463 95.9998 46.7663 95.9998H34.4031C32.9631 95.9998 32.6031 95.3645 32.6031 94.4116V92.188C32.6031 91.3715 32.9837 90.9747 33.5004 90.782M48.5405 23.9998C47.0405 23.9998 45.2671 23.5205 43.7031 22.1998C42.1988 20.9296 41.1208 18.5531 41.0031 16.1998M48.5405 23.9998C48.4787 20.8385 48.1234 17.9643 47.9031 16.1998M33.7172 26.7724H39.9563M33.7172 28.5287L37.4713 29.3766M47.9031 16.1998C47.7257 14.7788 47.5051 13.4094 47.0888 12.8546C46.6725 12.2998 45.8808 12.2998 44.9018 12.2998H41.0031M47.9031 16.1998H41.0031M41.0031 12.2998H38.3031M41.0031 12.2998V16.1998M41.0031 16.1998H38.3031M38.3031 16.1998V12.2998M38.3031 16.1998H32.5066M38.3031 12.2998L21.792 12.2998M14.8927 16.1998C15.0701 14.7788 15.2901 13.4094 15.7064 12.8546C16.1227 12.2998 16.9144 12.2998 17.8934 12.2998L21.792 12.2998M14.8927 16.1998H21.792M21.792 12.2998V16.1998M21.792 16.1998H30.314M24.492 16.1998V12.2998M31.3921 24.1848C31.1232 24.1794 30.4564 23.9762 30.4086 23.3425C30.3601 22.6999 30.3126 19.1107 30.314 16.1998M31.3921 24.1848C31.6626 24.1794 32.3642 23.9762 32.412 23.3425C32.4605 22.6999 32.508 19.1107 32.5066 16.1998M30.314 16.1998H32.5066" stroke="black" stroke-width="0.6" stroke-linecap="round"/>
</svg>
