<svg width="63" height="84" viewBox="0 0 63 84" fill="none" xmlns="http://www.w3.org/2000/svg">
<path d="M16.5098 27C16.5098 27 16.258 33.9634 16.2579 36.3063C16.2578 37.9391 16.2344 40.2961 17.4389 41.778M20.1346 43.1335C20.0914 42.4709 20.0309 40.7617 20.1346 40.0601M20.1346 43.1335C20.0248 43.1177 19.9165 43.101 19.8098 43.0832C18.7187 42.9014 17.9627 42.4224 17.4389 41.778M20.1346 43.1335C21.2053 43.2869 22.4146 43.3444 23.6465 43.3495M23.6465 43.3495V40.3837M23.6465 43.3495C24.8893 43.3547 26.155 43.3066 27.3245 43.2499M27.3245 43.2499C27.3245 42.6769 27.3925 40.9765 27.4605 40.3837M27.3245 43.2499C28.8856 43.1742 30.2775 43.0832 31.2121 43.0832M31.2121 43.0832L31.2098 40.2838M31.2121 43.0832V40.2838M31.2121 43.0832C32.1467 43.0832 33.5363 43.1742 35.0974 43.2499M45.9121 27C45.9121 27 46.1639 33.9634 46.164 36.3063C46.1641 37.9404 46.1878 40.3002 44.9804 41.7818M42.2872 43.1335C42.3305 42.4709 42.391 40.7617 42.2872 40.0601M42.2872 43.1335C42.397 43.1177 42.5054 43.101 42.6121 43.0832C43.7012 42.9017 44.4567 42.4245 44.9804 41.7818M42.2872 43.1335C41.2166 43.2869 40.0073 43.3444 38.7754 43.3495M38.7754 43.3495V40.3837M38.7754 43.3495C37.5326 43.3547 36.2669 43.3066 35.0974 43.2499M35.0974 43.2499C35.0974 42.6769 35.0294 40.9765 34.9614 40.3837M31.2109 36C34.7446 35.775 42.6109 33.9 42.6109 31.8C42.6109 30.9 40.8109 30.6 39.0109 30.9M5.40341 63.2155C5.47 62.3431 5.46734 61.3625 5.56324 60.6113M5.40341 63.2155C5.73593 63.3707 6.05709 63.4726 6.30827 63.5564C6.52531 63.6287 6.93999 63.7192 7.4612 63.8106M5.40341 63.2155C4.54443 62.8144 3.60963 62.0572 3.60963 60.3372C3.60963 57.9512 3.60905 54.9816 3.60963 51.237C3.61021 47.4924 3.97239 42.4385 4.96197 36.4156C5.95155 30.3927 6.57166 27.6859 8.74942 23.1196C9.11765 22.3475 9.44601 21.6644 9.7563 21.0449C10.13 20.2987 10.8063 19.3386 11.2961 18.9053C11.7859 18.472 12.5301 18.1271 13.7582 17.9919M7.4612 63.8106C7.4612 62.8635 7.641 61.4704 7.72092 60.911M7.4612 63.8106C8.07014 63.9175 8.82449 64.0257 9.57892 64.1078M9.57892 64.1078C9.78537 63.1059 9.98249 61.7585 10.0784 61.3705M9.57892 64.1078C10.4267 64.2001 11.2746 64.2595 11.9164 64.2471M11.9164 64.2471C12.2361 63.6478 12.7065 62.2895 12.7065 61.5703M11.9164 64.2471C12.2416 64.2409 12.514 64.2162 12.7065 64.1681C13.9065 63.8681 14.3234 62.9318 14.8415 61.169C15.2045 59.9336 16.0537 52.1825 17.4389 41.778M57.0153 63.2155C56.9487 62.3431 56.9514 61.3625 56.8555 60.6113M57.0153 63.2155C56.6828 63.3707 56.3617 63.4726 56.1105 63.5564C55.8934 63.6287 55.4788 63.7192 54.9576 63.8106M57.0153 63.2155C57.8743 62.8144 58.8091 62.0572 58.8091 60.3372C58.8091 57.9512 58.8097 54.9816 58.8091 51.237C58.8085 47.4924 58.4464 42.4385 57.4568 36.4156C56.4672 30.3927 55.8471 27.6859 53.6693 23.1196C53.4194 22.4177 52.5996 21.1063 51.4108 19.6672C50.5521 18.6277 49.4506 18.1674 47.8558 17.9919M54.9576 63.8106C54.9576 62.8635 54.7777 61.4704 54.6978 60.911M54.9576 63.8106C54.3486 63.9175 53.5943 64.0257 52.8398 64.1078M52.8398 64.1078C52.6334 63.1059 52.4363 61.7585 52.3404 61.3705M52.8398 64.1078C52.0277 64.1962 51.2155 64.2544 50.5844 64.2483M50.5844 64.2483C50.2648 63.649 49.7122 62.2895 49.7122 61.5703M50.5844 64.2483C50.2229 64.2448 49.9208 64.2202 49.7122 64.1681C48.5122 63.8681 48.0954 62.9318 47.5773 61.169C47.2151 59.9368 46.3593 52.1463 44.9804 41.7818M16.1805 12.7998C16.3449 13.503 16.6627 15.6705 16.6188 17.906M16.6188 17.906C16.2279 17.9016 15.9567 17.899 15.8313 17.899C15.0578 17.899 14.3716 17.9244 13.7582 17.9919M16.6188 17.906L17.4015 17.9151M13.1688 20.5844C13.3389 19.8805 13.6283 18.6045 13.7582 17.9919M17.2518 20.4411C17.3369 19.7326 17.4015 18.3125 17.4015 17.9151M17.4015 17.9151L17.5348 17.9167C18.4441 17.9274 19.6483 17.9416 21.0216 17.9552M20.8811 20.5844C20.9198 19.8496 21.003 18.4936 21.0216 17.9552M21.0216 17.9552C22.1728 17.9666 23.4429 17.9776 24.7577 17.9857M24.7577 20.5844C24.7577 19.2849 24.7581 18.2005 24.7577 17.9857M24.7577 17.9857C25.9765 17.9932 27.2339 17.9983 28.4705 17.9989M28.4705 20.5844V17.9989M28.4705 17.9989C29.2619 17.9993 30.0513 17.9979 30.8103 17.9943C31.5691 17.9979 32.352 17.9993 33.1432 17.9989M45.4336 12.7998C45.2692 13.503 44.9514 15.6705 44.9952 17.906M44.9952 17.906C45.3862 17.9016 45.6574 17.899 45.7828 17.899C46.5563 17.899 47.2425 17.9244 47.8558 17.9919M44.9952 17.906L44.2126 17.9151M48.4453 20.5844C48.2751 19.8805 47.9858 18.6045 47.8558 17.9919M44.3623 20.4411C44.2772 19.7326 44.2126 18.3125 44.2126 17.9151M44.2126 17.9151L44.0797 17.9167C43.1703 17.9274 41.966 17.9416 40.5925 17.9552M40.733 20.5844C40.6943 19.8496 40.6111 18.4936 40.5925 17.9552M40.5925 17.9552C39.4413 17.9666 38.1712 17.9776 36.8564 17.9857M36.8564 20.5844C36.8564 19.2849 36.856 18.2005 36.8564 17.9857M36.8564 17.9857C35.6374 17.9932 34.38 17.9983 33.1432 17.9989M33.1435 20.5844L33.1432 17.9989" stroke="#1E1E1E" stroke-width="0.6" stroke-linecap="round"/>
</svg>
