<svg width="63" height="84" viewBox="0 0 63 84" fill="none" xmlns="http://www.w3.org/2000/svg">
<path d="M15.101 27C15.2521 29.7094 15.149 33.3577 14.9459 37.1813M16.7233 70.7379C16.7233 70.1379 17.0439 68.5981 17.0439 67.7098M16.7233 70.7379C15.1923 69.4945 14.475 67.6139 14.201 66C13.7928 63.5958 13.7609 60.6 13.7609 55.9652C13.7609 52.8931 14.5466 44.6983 14.9459 37.1813M16.7233 70.7379C17.473 71.3467 18.4177 71.8028 19.601 72C19.7077 72.0178 19.8161 72.0345 19.9258 72.0503M19.9258 72.0503C19.8826 71.3877 19.8221 69.6785 19.9258 68.9769M19.9258 72.0503C20.9965 72.2036 22.2058 72.2611 23.4377 72.2663M23.4377 72.2663V69.3005M23.4377 72.2663C24.6805 72.2715 25.9462 72.2234 27.1157 72.1667M27.1157 72.1667C27.1157 71.5937 27.1837 69.8933 27.2517 69.3005M27.1157 72.1667C28.6768 72.091 30.0675 72 31.0021 72M31.0021 72L31.001 69.2006M31.0021 72C31.9397 72 33.335 72.0916 34.9019 72.1674M46.9021 27C46.751 29.7093 46.8542 33.3574 47.0573 37.181M45.2257 70.7813C45.2257 70.1813 44.9592 68.5981 44.9592 67.7098M45.2257 70.7813C46.794 69.5386 47.5249 67.6328 47.8022 66C48.2103 63.5958 48.2422 60.6 48.2422 55.9652C48.2422 52.8931 47.4565 44.698 47.0573 37.181M45.2257 70.7813C44.4849 71.3684 43.5572 71.8075 42.4021 72C42.2954 72.0178 42.1871 72.0345 42.0773 72.0503M42.0773 72.0503C42.1205 71.3877 42.181 69.6785 42.0773 68.9769M42.0773 72.0503C41.0066 72.2036 39.7973 72.2611 38.5654 72.2663M38.5654 72.2663V69.3005M38.5654 72.2663C37.3278 72.2715 36.0674 72.2238 34.9019 72.1674M34.9019 72.1674C34.9019 71.5944 34.8194 69.8933 34.7514 69.3005M31.0016 63.6C34.5352 63.375 42.4016 61.5 42.4016 59.4C42.4016 58.5 40.6016 58.2 38.8016 58.5M8.31953 35.8272C8.38613 34.9548 8.38346 34.2779 8.47936 33.5268M8.31953 35.8272C8.86849 36.0095 9.57489 36.2045 10.3777 36.3923M8.31953 35.8272C8.16669 35.7764 8.02605 35.7266 7.89894 35.6782C6.07268 34.9833 5.64322 33.4823 5.69098 32.2823C5.73873 31.0823 6.73409 28.5845 7.89882 24.9C8.43379 23.2076 9.01717 21.8262 9.7088 20.5844C10.0225 20.0212 10.4923 19.3215 11.0626 18.8203C11.6329 18.3191 12.3713 18.1215 13.5489 17.9919M10.3777 36.3923C10.3873 35.4617 10.5594 34.3703 10.637 33.8264M10.3777 36.3923C11.0233 36.5432 11.7312 36.6895 12.4698 36.8206M12.4698 36.8206C12.6762 35.8187 12.8986 34.674 12.9945 34.2859M12.4698 36.8206C13.2036 36.9509 13.9678 37.0663 14.731 37.1566M12.4698 36.8206L14.731 37.1566M14.731 37.1566C14.8027 37.1651 14.8743 37.1733 14.9459 37.1813M53.6805 35.8272C53.6139 34.9548 53.6165 34.2779 53.5206 33.5268M53.6805 35.8272C53.1315 36.0095 52.4251 36.2045 51.6223 36.3923M53.6805 35.8272C53.8333 35.7764 53.9739 35.7266 54.1011 35.6782C55.9273 34.9833 56.3568 33.4823 56.309 32.2823C56.2613 31.0823 55.2659 28.5845 54.1012 24.9C53.8725 24.1767 53.1501 22.4911 52.7481 21.8128C52.3462 21.1344 52.3903 21.1063 51.2014 19.6672C50.3427 18.6277 49.2412 18.1674 47.6465 17.9919M51.6223 36.3923C51.6127 35.4617 51.4406 34.3703 51.363 33.8264M51.6223 36.3923C50.9825 36.5419 50.2815 36.6868 49.5502 36.8171M49.5502 36.8171C49.3437 35.8152 49.1014 34.674 49.0055 34.2859M49.5502 36.8171C48.8087 36.9491 48.036 37.066 47.2642 37.1571C47.1952 37.1653 47.1262 37.1732 47.0573 37.181M15.9711 12.7998C16.1355 13.503 16.4533 15.6705 16.4094 17.906M16.4094 17.906C16.0185 17.9016 15.7473 17.899 15.6219 17.899C14.8484 17.899 14.1622 17.9244 13.5489 17.9919M16.4094 17.906L17.1921 17.9151M12.9594 20.5844C13.1296 19.8805 13.4189 18.6045 13.5489 17.9919M17.0424 20.4411C17.1275 19.7326 17.1921 18.3125 17.1921 17.9151M17.1921 17.9151L17.3254 17.9167C18.2347 17.9274 19.4389 17.9416 20.8122 17.9552M20.6717 20.5844C20.7104 19.8496 20.7936 18.4936 20.8122 17.9552M20.8122 17.9552C21.9634 17.9666 23.2335 17.9776 24.5483 17.9857M24.5483 20.5844C24.5483 19.2849 24.5487 18.2005 24.5483 17.9857M24.5483 17.9857C25.7672 17.9932 27.0245 17.9983 28.2612 17.9989M28.2612 20.5844V17.9989M28.2612 17.9989C29.0525 17.9993 29.8419 17.9979 30.6009 17.9943C31.3598 17.9979 32.1426 17.9993 32.9338 17.9989M45.2242 12.7998C45.0598 13.503 44.742 15.6705 44.7859 17.906M44.7859 17.906C45.1768 17.9016 45.448 17.899 45.5734 17.899C46.3469 17.899 47.0331 17.9244 47.6465 17.9919M44.7859 17.906L44.0032 17.9151M48.2359 20.5844C48.0658 19.8805 47.7764 18.6045 47.6465 17.9919M44.1529 20.4411C44.0678 19.7326 44.0032 18.3125 44.0032 17.9151M44.0032 17.9151L43.8703 17.9167C42.961 17.9274 41.7566 17.9416 40.3831 17.9552M40.5236 20.5844C40.4849 19.8496 40.4017 18.4936 40.3831 17.9552M40.3831 17.9552C39.2319 17.9666 37.9618 17.9776 36.647 17.9857M36.647 20.5844C36.647 19.2849 36.6466 18.2005 36.647 17.9857M36.647 17.9857C35.428 17.9932 34.1706 17.9983 32.9338 17.9989M32.9341 20.5844L32.9338 17.9989" stroke="#1E1E1E" stroke-width="0.6" stroke-linecap="round"/>
</svg>
