<svg width="63" height="84" viewBox="0 0 63 84" fill="none" xmlns="http://www.w3.org/2000/svg">
<path d="M15.1072 27.0001C15.5554 35.0359 13.7672 51.3306 13.7672 55.9653C13.7672 58.9218 13.7801 61.2114 13.8955 63.1059M16.7296 70.738C16.7296 70.138 17.0502 68.5982 17.0502 67.7099M16.7296 70.738C15.1985 69.4946 14.4813 67.614 14.2072 66.0001C14.0594 65.1295 13.961 64.1814 13.8955 63.1059M16.7296 70.738C17.4792 71.3468 18.4239 71.8029 19.6072 72.0001C19.714 72.0179 19.8223 72.0346 19.9321 72.0504M19.9321 72.0504C19.8889 71.3878 19.8284 69.6786 19.9321 68.977M19.9321 72.0504C21.0028 72.2037 22.2121 72.2612 23.4439 72.2664M23.4439 72.2664V69.3006M23.4439 72.2664C24.6867 72.2716 25.9525 72.2235 27.122 72.1668M27.122 72.1668C27.122 71.5938 27.19 69.8934 27.2579 69.3006M27.122 72.1668C28.683 72.0911 30.0738 72.0001 31.0084 72.0001M31.0084 72.0001L31.0072 69.2007M31.0084 72.0001C31.9459 72.0001 33.3412 72.0917 34.9082 72.1675M46.9084 27.0001C46.4602 35.0359 48.2484 51.3306 48.2484 55.9653C48.2484 58.9243 48.2355 61.2152 48.1199 63.1107M45.232 70.7814C45.232 70.1814 44.9655 68.5982 44.9655 67.7099M45.232 70.7814C46.8002 69.5387 47.5312 67.6329 47.8084 66.0001C47.956 65.1308 48.0544 64.1842 48.1199 63.1107M45.232 70.7814C44.4911 71.3685 43.5634 71.8076 42.4084 72.0001C42.3017 72.0179 42.1933 72.0346 42.0835 72.0504M42.0835 72.0504C42.1268 71.3878 42.1873 69.6786 42.0835 68.977M42.0835 72.0504C41.0128 72.2037 39.8035 72.2612 38.5717 72.2664M38.5717 72.2664V69.3006M38.5717 72.2664C37.334 72.2715 36.0736 72.2239 34.9082 72.1675M34.9082 72.1675C34.9082 71.5945 34.8257 69.8934 34.7577 69.3006M31.0078 63.6001C34.5415 63.3751 42.4078 61.5001 42.4078 59.4001C42.4078 58.5001 40.6078 58.2001 38.8078 58.5001M5.20028 63.2156C5.26688 62.3432 5.26421 61.3626 5.36011 60.6114M5.20028 63.2156C5.53281 63.3708 5.85397 63.4727 6.10514 63.5565C6.32219 63.6288 6.73687 63.7193 7.25807 63.8107M5.20028 63.2156C4.3413 62.8145 3.40651 62.0573 3.40651 60.3373C3.40651 57.9513 3.40593 54.9817 3.40651 51.2371C3.40709 47.4925 3.76927 42.4386 4.75884 36.4157C5.74842 30.3927 6.36853 27.686 8.54629 23.1197C10.7241 18.5534 11.5071 17.1001 15.4071 13.5001C16.0681 12.8899 16.7292 12.3486 17.3888 11.8676C18.03 11.3999 19.3035 10.5816 19.7688 10.3353C20.2342 10.0889 21.0092 9.64428 21.7807 9.89109M7.25807 63.8107C7.25807 62.8636 7.43788 61.4705 7.51779 60.9111M7.25807 63.8107C7.86702 63.9176 8.62136 64.0257 9.3758 64.1079M9.3758 64.1079C9.58224 63.106 9.77936 61.7586 9.87526 61.3706M9.3758 64.1079C10.2236 64.2002 11.0715 64.2596 11.7133 64.2472M11.7133 64.2472C12.0329 63.6479 12.5034 62.2896 12.5034 61.5704M11.7133 64.2472C12.0385 64.241 12.3108 64.2163 12.5034 64.1682C13.1474 64.0072 13.5659 63.6629 13.8955 63.1059M56.8122 63.2156C56.7456 62.3432 56.7483 61.3626 56.6524 60.6114M56.8122 63.2156C56.4797 63.3708 56.1585 63.4727 55.9074 63.5565C55.6903 63.6288 55.2756 63.7193 54.7544 63.8107M56.8122 63.2156C57.6712 62.8145 58.606 62.0573 58.606 60.3373C58.606 57.9513 58.6066 54.9817 58.606 51.2371C58.6054 47.4925 58.2432 42.4386 57.2537 36.4157C56.2641 30.3927 55.644 27.686 53.4662 23.1197C51.2884 18.5534 50.5055 17.1001 46.6054 13.5001C46.0926 13.0267 45.5797 12.5947 45.0675 12.2002C44.4381 11.7155 43.4456 10.9703 42.9817 10.7262C42.5178 10.4821 40.9887 9.64136 40.2112 9.89829M54.7544 63.8107C54.7544 62.8636 54.5746 61.4705 54.4947 60.9111M54.7544 63.8107C54.1455 63.9176 53.3911 64.0257 52.6367 64.1079M52.6367 64.1079C52.4303 63.106 52.2331 61.7586 52.1372 61.3706M52.6367 64.1079C51.8246 64.1963 51.0124 64.2545 50.3813 64.2484M50.3813 64.2484C50.0617 63.6491 49.5091 62.2896 49.5091 61.5704M50.3813 64.2484C50.0198 64.2449 49.7177 64.2203 49.5091 64.1682C48.8669 64.0076 48.449 63.6649 48.1199 63.1107M20.9577 12.5394C21.3961 12.1673 22.6336 11.2542 23.2022 10.9293M23.2022 10.9293C23.2922 11.0398 23.3808 11.1589 23.468 11.2869C23.7544 11.7073 24.1193 12.1631 24.5644 12.6115M23.2022 10.9293C22.7609 10.3873 22.287 10.053 21.7807 9.89109M22.8011 14.4082C23.126 14.1104 24.0445 13.245 24.5644 12.6115M24.5644 12.6115C25.058 13.1087 25.6502 13.5969 26.3439 14.0179M25.054 15.9108C25.2272 15.66 25.8422 14.7489 26.3439 14.0179M26.3439 14.0179C26.9278 14.3723 27.5836 14.6792 28.3128 14.9038M27.4908 17.1471C27.6879 16.7581 28.1694 15.5325 28.3128 14.9038M28.3128 14.9038C28.3171 14.9051 28.3214 14.9064 28.3256 14.9077C29.1292 15.1538 30.0218 15.3 31.0054 15.3M31.0054 17.6309V15.3M31.0054 15.3C31.989 15.3 32.8848 15.1538 33.6884 14.9077M41.0564 12.5394C40.6179 12.1673 39.398 11.2327 38.8294 10.9078M38.8294 10.9078C38.7334 11.0243 38.639 11.1506 38.5461 11.2869C38.262 11.7039 37.9008 12.1555 37.4607 12.6003M38.8294 10.9078C39.2593 10.3863 39.7199 10.0606 40.2112 9.89829M39.213 14.4082C38.8881 14.1104 37.9806 13.2339 37.4607 12.6003M37.4607 12.6003C36.9662 13.1002 36.3719 13.5914 35.6752 14.0148M36.9601 15.9108C36.7869 15.66 36.1769 14.7459 35.6752 14.0148M35.6752 14.0148C35.0866 14.3727 34.4248 14.6821 33.6884 14.9077M34.5233 17.1471C34.3262 16.7581 33.8318 15.5364 33.6884 14.9077M40.2112 9.89829C38.0498 8.88093 34.681 8.46631 30.9695 8.46631C27.2668 8.46631 23.9425 8.87897 21.7807 9.89109" stroke="#1E1E1E" stroke-width="0.6" stroke-linecap="round"/>
</svg>
