<svg width="64" height="84" viewBox="0 0 64 84" fill="none" xmlns="http://www.w3.org/2000/svg">
<path d="M15.8956 27.0001C15.8956 27.0001 14.4127 40.0094 15.1246 43.7658C15.5406 45.9606 16.0409 47.6994 17.1032 48.8854M17.572 49.341C17.572 48.741 17.8385 47.1407 17.8385 46.2524M17.572 49.341C18.2759 49.9345 19.1869 50.3412 20.3956 50.5426C20.5023 50.5604 20.6106 50.5772 20.7204 50.5929M17.572 49.341C17.4044 49.1996 17.2485 49.0477 17.1032 48.8854M20.7204 50.5929C20.6772 49.9303 20.6167 48.2211 20.7204 47.5196M20.7204 50.5929C21.7911 50.7463 23.0004 50.8038 24.2323 50.8089M24.2323 50.8089V47.8432M24.2323 50.8089C25.4751 50.8141 26.7408 50.766 27.9103 50.7093M27.9103 50.7093C27.9103 50.1363 27.9783 48.4359 28.0463 47.8432M27.9103 50.7093C29.4714 50.6336 30.8609 50.5426 31.7956 50.5426M31.7956 50.5426V47.7432M31.7956 50.5426L31.7982 47.7432M47.6982 27.0001C47.6982 27.0001 49.181 40.0094 48.4691 43.7658C48.0528 45.9625 47.552 47.7024 46.4878 48.8885M46.0218 49.341C46.0218 48.741 45.7553 47.1407 45.7553 46.2524M46.0218 49.341C45.3179 49.9345 44.4069 50.3412 43.1982 50.5426C43.0915 50.5604 42.9831 50.5772 42.8733 50.5929M46.0218 49.341C46.1883 49.2005 46.3433 49.0496 46.4878 48.8885M42.8733 50.5929C42.9166 49.9303 42.9771 48.2211 42.8733 47.5196M42.8733 50.5929C41.8093 50.7453 40.6084 50.8031 39.3844 50.8088M39.3844 50.8088L39.3615 47.8432M39.3844 50.8088C38.1578 50.8146 36.9081 50.7682 35.75 50.7125M35.75 50.7125C35.75 50.1396 35.6155 48.4359 35.5475 47.8432M35.75 50.7125C34.1619 50.6362 32.7461 50.5426 31.7982 50.5426M31.7969 43.2001C35.3306 42.9751 43.1969 41.1001 43.1969 39.0001C43.1969 38.1001 41.3969 37.8001 39.5969 38.1001M5.98934 63.2156C6.05594 62.3432 6.05328 61.3626 6.14917 60.6114M5.98934 63.2156C6.32187 63.3708 6.64303 63.4727 6.8942 63.5565C7.11125 63.6288 7.52593 63.7193 8.04713 63.8107M5.98934 63.2156C5.13037 62.8145 4.19557 62.0573 4.19557 60.3373C4.19557 57.9513 4.19499 54.9817 4.19557 51.2371C4.19615 47.4925 4.55833 42.4386 5.54791 36.4157C6.53749 30.3927 7.15759 27.686 9.33536 23.1197C11.5131 18.5534 12.2961 17.1001 16.1961 13.5001C17.6922 12.1191 19.1884 11.0912 20.6676 10.315C21.0414 10.1188 21.1914 10.0208 21.5778 9.89109C21.9641 9.76141 22.3164 9.81005 22.5698 9.89109M8.04713 63.8107C8.04713 62.8636 8.22694 61.4705 8.30685 60.9111M8.04713 63.8107C8.65608 63.9176 9.41042 64.0257 10.1649 64.1079M10.1649 64.1079C10.3713 63.106 10.5684 61.7586 10.6643 61.3706M10.1649 64.1079C11.0126 64.2002 11.8605 64.2596 12.5023 64.2472M12.5023 64.2472C12.822 63.6479 13.2924 62.2896 13.2924 61.5704M12.5023 64.2472C12.8276 64.241 13.0999 64.2163 13.2924 64.1682C14.4925 63.8682 14.9093 62.9319 15.4274 61.1691C15.7016 60.2362 16.253 55.5871 17.1032 48.8854M57.6013 63.2156C57.5347 62.3432 57.5374 61.3626 57.4415 60.6114M57.6013 63.2156C57.2688 63.3708 56.9476 63.4727 56.6964 63.5565C56.4794 63.6288 56.0647 63.7193 55.5435 63.8107M57.6013 63.2156C58.4603 62.8145 59.3951 62.0573 59.3951 60.3373C59.3951 57.9513 59.3956 54.9817 59.3951 51.2371C59.3945 47.4925 59.0323 42.4386 58.0427 36.4157C57.0531 30.3927 56.433 27.686 54.2553 23.1197C52.0775 18.5534 51.2945 17.1001 47.3945 13.5001C45.8405 12.0656 44.2865 11.0122 42.7514 10.226C42.4351 10.064 42.1113 9.95296 41.8455 9.89829C41.5796 9.84361 41.26 9.81246 41.0003 9.89829M55.5435 63.8107C55.5435 62.8636 55.3637 61.4705 55.2838 60.9111M55.5435 63.8107C54.9346 63.9176 54.1802 64.0257 53.4258 64.1079M53.4258 64.1079C53.2193 63.106 53.0222 61.7586 52.9263 61.3706M53.4258 64.1079C52.6137 64.1963 51.8014 64.2545 51.1704 64.2484M51.1704 64.2484C50.8507 63.6491 50.2982 62.2896 50.2982 61.5704M51.1704 64.2484C50.8088 64.2449 50.5067 64.2203 50.2982 64.1682C49.0982 63.8682 48.6813 62.9319 48.1632 61.1691C47.8891 60.2363 47.3378 55.5885 46.4878 48.8885M21.7467 12.5394C22.1852 12.1673 23.4227 11.2542 23.9913 10.9293M23.9913 10.9293C24.0812 11.0398 24.1698 11.1589 24.2571 11.2869C24.5435 11.7073 24.9083 12.1631 25.3535 12.6115M23.9913 10.9293C23.55 10.3873 23.0761 10.053 22.5698 9.89109M23.5901 14.4082C23.915 14.1104 24.8336 13.245 25.3535 12.6115M25.3535 12.6115C25.847 13.1087 26.4393 13.5969 27.133 14.0179M25.843 15.9108C26.0162 15.66 26.6313 14.7489 27.133 14.0179M27.133 14.0179C27.7169 14.3723 28.3727 14.6792 29.1018 14.9038M28.2798 17.1471C28.4769 16.7581 28.9585 15.5325 29.1018 14.9038M29.1018 14.9038C29.1061 14.9051 29.1104 14.9064 29.1147 14.9077C29.9183 15.1538 30.8108 15.3 31.7944 15.3M31.7944 17.6309V15.3M31.7944 15.3C32.778 15.3 33.6739 15.1538 34.4775 14.9077M41.8455 12.5394C41.407 12.1673 40.1871 11.2327 39.6185 10.9078M39.6185 10.9078C39.5225 11.0243 39.4281 11.1506 39.3351 11.2869C39.0511 11.7039 38.6899 12.1555 38.2498 12.6003M39.6185 10.9078C40.0483 10.3863 40.509 10.0606 41.0003 9.89829M40.0021 14.4082C39.6772 14.1104 38.7696 13.2339 38.2498 12.6003M38.2498 12.6003C37.7552 13.1002 37.1609 13.5914 36.4643 14.0148M37.7492 15.9108C37.576 15.66 36.966 14.7459 36.4643 14.0148M36.4643 14.0148C35.8756 14.3727 35.2139 14.6821 34.4775 14.9077M35.3124 17.1471C35.1153 16.7581 34.6208 15.5364 34.4775 14.9077M41.0003 9.89829C38.8389 8.88093 35.4701 8.46631 31.7586 8.46631C28.0559 8.46631 24.7315 8.87897 22.5698 9.89109" stroke="#1E1E1E" stroke-width="0.6" stroke-linecap="round"/>
</svg>
