<svg width="63" height="84" viewBox="0 0 63 84" fill="none" xmlns="http://www.w3.org/2000/svg">
<path d="M16.5035 27.0001C16.5035 27.0001 16.2517 33.9635 16.2516 36.3064C16.2516 36.6114 16.2508 36.9416 16.2573 37.2866M20.1284 43.1336C20.0851 42.471 20.0246 40.7618 20.1284 40.0602M20.1284 43.1336C20.0186 43.1178 19.9103 43.1011 19.8035 43.0833C16.6721 42.5614 16.3008 39.5925 16.2573 37.2866M20.1284 43.1336C21.1991 43.2869 22.4084 43.3444 23.6402 43.3496M23.6402 43.3496V40.3838M23.6402 43.3496C24.883 43.3548 26.1488 43.3067 27.3183 43.25M27.3183 43.25C27.3183 42.677 27.3862 40.9766 27.4542 40.3838M27.3183 43.25C28.8793 43.1743 30.2712 43.0833 31.2059 43.0833M31.2059 43.0833L31.2035 40.2839M31.2059 43.0833V40.2839M31.2059 43.0833C32.1405 43.0833 33.5301 43.1743 35.0911 43.25M45.9059 27.0001C45.9059 27.0001 46.1576 33.9635 46.1578 36.3064C46.1578 36.6113 46.1586 36.9414 46.1521 37.2863M42.281 43.1336C42.3242 42.471 42.3847 40.7618 42.281 40.0602M42.281 43.1336C42.3908 43.1178 42.4991 43.1011 42.6059 43.0833C45.7374 42.5614 46.1086 39.5923 46.1521 37.2863M42.281 43.1336C41.2103 43.2869 40.001 43.3444 38.7691 43.3496M38.7691 43.3496V40.3838M38.7691 43.3496C37.5264 43.3548 36.2606 43.3067 35.0911 43.25M35.0911 43.25C35.0911 42.677 35.0231 40.9766 34.9551 40.3838M31.2047 36.0001C34.7384 35.7751 42.6047 33.9001 42.6047 31.8001C42.6047 30.9001 40.8047 30.6001 39.0047 30.9001M8.52266 35.8272C8.58925 34.9549 8.58659 34.278 8.68249 33.5268M8.52266 35.8272C9.07162 36.0096 9.77802 36.2046 10.5809 36.3924M8.52266 35.8272C8.36982 35.7765 8.22918 35.7267 8.10206 35.6783C6.2758 34.9834 5.84635 33.4824 5.8941 32.2824C5.94186 31.0824 6.93722 28.5846 8.10194 24.9001C9.26666 21.2156 10.6608 19.0048 12.9019 16.5001C15.5347 13.5575 17.9277 11.6543 20.2872 10.3778C20.6829 10.1637 20.9245 10.0562 21.1953 9.94141C21.4662 9.82663 21.8126 9.83832 21.9776 9.89109M10.5809 36.3924C10.5904 35.4618 10.7625 34.3704 10.8402 33.8265M10.5809 36.3924C11.2264 36.5433 11.9343 36.6896 12.6729 36.8207M12.6729 36.8207C12.8793 35.8188 13.1017 34.6741 13.1976 34.286M12.6729 36.8207C13.4068 36.951 14.1709 37.0664 14.9342 37.1567M12.6729 36.8207L14.9342 37.1567M14.9342 37.1567C15.3775 37.2091 15.8206 37.2531 16.2573 37.2866M53.8836 35.8272C53.817 34.9549 53.8197 34.278 53.7238 33.5268M53.8836 35.8272C53.3346 36.0096 52.6282 36.2046 51.8254 36.3924M53.8836 35.8272C54.0364 35.7765 54.1771 35.7267 54.3042 35.6783C56.1305 34.9834 56.5599 33.4824 56.5122 32.2824C56.4644 31.0824 55.469 28.5846 54.3043 24.9001C53.1396 21.2156 51.7454 19.0048 49.5043 16.5001C46.951 13.6463 44.6232 11.7701 42.3327 10.495C41.8655 10.2349 41.787 10.1892 41.4179 10.0245C41.0488 9.8598 40.5797 9.84158 40.4081 9.89829M51.8254 36.3924C51.8159 35.4618 51.6438 34.3704 51.5661 33.8265M51.8254 36.3924C51.1856 36.542 50.4847 36.6869 49.7533 36.8172M49.7533 36.8172C49.5469 35.8153 49.3045 34.6741 49.2086 34.286M49.7533 36.8172C49.0118 36.9492 48.2391 37.0661 47.4674 37.1572C47.0266 37.2093 46.5862 37.253 46.1521 37.2863M21.1546 12.5394C21.593 12.1673 22.8305 11.2542 23.3991 10.9293M23.3991 10.9293C23.489 11.0398 23.5776 11.1589 23.6649 11.2869C23.9513 11.7073 24.3161 12.1631 24.7613 12.6115M23.3991 10.9293C22.9578 10.3873 22.4839 10.053 21.9776 9.89109M22.9979 14.4082C23.3228 14.1104 24.2414 13.245 24.7613 12.6115M24.7613 12.6115C25.2548 13.1087 25.8471 13.5969 26.5408 14.0179M25.2508 15.9108C25.424 15.66 26.0391 14.7489 26.5408 14.0179M26.5408 14.0179C27.1247 14.3723 27.7805 14.6792 28.5097 14.9038M27.6877 17.1471C27.8847 16.7581 28.3663 15.5325 28.5097 14.9038M28.5097 14.9038C28.5139 14.9051 28.5182 14.9064 28.5225 14.9077C29.3261 15.1538 30.2186 15.3 31.2022 15.3M31.2022 17.6309V15.3M31.2022 15.3C32.1858 15.3 33.0817 15.1538 33.8853 14.9077M41.2533 12.5394C40.8148 12.1673 39.5949 11.2327 39.0263 10.9078M39.0263 10.9078C38.9303 11.0243 38.8359 11.1506 38.7429 11.2869C38.4589 11.7039 38.0977 12.1555 37.6576 12.6003M39.0263 10.9078C39.4562 10.3863 39.9168 10.0606 40.4081 9.89829M39.4099 14.4082C39.085 14.1104 38.1775 13.2339 37.6576 12.6003M37.6576 12.6003C37.163 13.1002 36.5687 13.5914 35.8721 14.0148M37.157 15.9108C36.9838 15.66 36.3738 14.7459 35.8721 14.0148M35.8721 14.0148C35.2834 14.3727 34.6217 14.6821 33.8853 14.9077M34.7202 17.1471C34.5231 16.7581 34.0286 15.5364 33.8853 14.9077M40.4081 9.89829C38.2467 8.88093 34.8779 8.46631 31.1664 8.46631C27.4637 8.46631 24.1394 8.87897 21.9776 9.89109" stroke="#1E1E1E" stroke-width="0.6" stroke-linecap="round"/>
</svg>
