<svg width="63" height="84" viewBox="0 0 63 84" fill="none" xmlns="http://www.w3.org/2000/svg">
<path d="M15.1072 27C15.5554 35.0358 13.7672 51.3305 13.7672 55.9652C13.7672 58.9217 13.7801 61.2113 13.8955 63.1058M16.7296 70.7379C16.7296 70.1379 17.0502 68.5981 17.0502 67.7098M16.7296 70.7379C15.1985 69.4945 14.4813 67.6139 14.2072 66C14.0594 65.1294 13.961 64.1813 13.8955 63.1058M16.7296 70.7379C17.4792 71.3467 18.4239 71.8028 19.6072 72C19.714 72.0178 19.8223 72.0345 19.9321 72.0503M19.9321 72.0503C19.8889 71.3877 19.8284 69.6785 19.9321 68.9769M19.9321 72.0503C21.0028 72.2036 22.2121 72.2611 23.4439 72.2663M23.4439 72.2663V69.3005M23.4439 72.2663C24.6867 72.2715 25.9525 72.2234 27.122 72.1667M27.122 72.1667C27.122 71.5937 27.19 69.8933 27.2579 69.3005M27.122 72.1667C28.683 72.091 30.0738 72 31.0084 72M31.0084 72L31.0072 69.2006M31.0084 72C31.9459 72 33.3412 72.0916 34.9082 72.1674M46.9084 27C46.4602 35.0358 48.2484 51.3305 48.2484 55.9652C48.2484 58.9242 48.2355 61.2151 48.1199 63.1106M45.232 70.7813C45.232 70.1813 44.9655 68.5981 44.9655 67.7098M45.232 70.7813C46.8002 69.5386 47.5312 67.6328 47.8084 66C47.956 65.1307 48.0544 64.1841 48.1199 63.1106M45.232 70.7813C44.4911 71.3684 43.5634 71.8075 42.4084 72C42.3017 72.0178 42.1933 72.0345 42.0835 72.0503M42.0835 72.0503C42.1268 71.3877 42.1873 69.6785 42.0835 68.9769M42.0835 72.0503C41.0128 72.2036 39.8035 72.2611 38.5717 72.2663M38.5717 72.2663V69.3005M38.5717 72.2663C37.334 72.2715 36.0736 72.2238 34.9082 72.1674M34.9082 72.1674C34.9082 71.5944 34.8257 69.8933 34.7577 69.3005M31.0078 63.6C34.5415 63.375 42.4078 61.5 42.4078 59.4C42.4078 58.5 40.6078 58.2 38.8078 58.5M5.20028 63.2155C5.26688 62.3431 5.26421 61.3625 5.36011 60.6113M5.20028 63.2155C5.53281 63.3707 5.85397 63.4726 6.10514 63.5564C6.32219 63.6287 6.73687 63.7192 7.25807 63.8106M5.20028 63.2155C4.3413 62.8144 3.40651 62.0572 3.40651 60.3372C3.40651 57.9512 3.40593 54.9816 3.40651 51.237C3.40709 47.4924 3.76927 42.4385 4.75884 36.4156C5.74842 30.3927 6.36853 27.6859 8.54629 23.1196C8.95335 22.2661 9.31168 21.5214 9.65075 20.851C9.98783 20.1846 10.9374 19.1453 11.4145 18.8272C11.8916 18.5091 12.3269 18.1271 13.5551 17.9919M7.25807 63.8106C7.25807 62.8635 7.43788 61.4704 7.51779 60.911M7.25807 63.8106C7.86702 63.9175 8.62136 64.0257 9.3758 64.1078M9.3758 64.1078C9.58224 63.1059 9.77936 61.7585 9.87526 61.3705M9.3758 64.1078C10.2236 64.2001 11.0715 64.2595 11.7133 64.2471M11.7133 64.2471C12.0329 63.6478 12.5034 62.2895 12.5034 61.5703M11.7133 64.2471C12.0385 64.2409 12.3108 64.2162 12.5034 64.1681C13.1474 64.0071 13.5659 63.6628 13.8955 63.1058M56.8122 63.2155C56.7456 62.3431 56.7483 61.3625 56.6524 60.6113M56.8122 63.2155C56.4797 63.3707 56.1585 63.4726 55.9074 63.5564C55.6903 63.6287 55.2756 63.7192 54.7544 63.8106M56.8122 63.2155C57.6712 62.8144 58.606 62.0572 58.606 60.3372C58.606 57.9512 58.6066 54.9816 58.606 51.237C58.6054 47.4924 58.2432 42.4385 57.2537 36.4156C56.2641 30.3927 55.644 27.6859 53.4662 23.1196C53.2919 22.7541 52.7662 21.7793 52.4417 21.302C52.1171 20.8247 51.9517 20.5679 51.2076 19.6672C50.349 18.6277 49.2475 18.1674 47.6527 17.9919M54.7544 63.8106C54.7544 62.8635 54.5746 61.4704 54.4947 60.911M54.7544 63.8106C54.1455 63.9175 53.3911 64.0257 52.6367 64.1078M52.6367 64.1078C52.4303 63.1059 52.2331 61.7585 52.1372 61.3705M52.6367 64.1078C51.8246 64.1962 51.0124 64.2544 50.3813 64.2483M50.3813 64.2483C50.0617 63.649 49.5091 62.2895 49.5091 61.5703M50.3813 64.2483C50.0198 64.2448 49.7177 64.2202 49.5091 64.1681C48.8669 64.0075 48.449 63.6648 48.1199 63.1106M15.9774 12.7998C16.1417 13.503 16.4595 15.6705 16.4157 17.906M16.4157 17.906C16.0247 17.9016 15.7536 17.899 15.6281 17.899C14.8547 17.899 14.1684 17.9244 13.5551 17.9919M16.4157 17.906L17.1984 17.9151M12.9656 20.5844C13.1358 19.8805 13.4252 18.6045 13.5551 17.9919M17.0486 20.4411C17.1337 19.7326 17.1984 18.3125 17.1984 17.9151M17.1984 17.9151L17.3317 17.9167C18.2409 17.9274 19.4451 17.9416 20.8184 17.9552M20.678 20.5844C20.7167 19.8496 20.7999 18.4936 20.8184 17.9552M20.8184 17.9552C21.9697 17.9666 23.2398 17.9776 24.5545 17.9857M24.5545 20.5844C24.5545 19.2849 24.5549 18.2005 24.5545 17.9857M24.5545 17.9857C25.7734 17.9932 27.0307 17.9983 28.2674 17.9989M28.2674 20.5844V17.9989M28.2674 17.9989C29.0588 17.9993 29.8481 17.9979 30.6071 17.9943C31.366 17.9979 32.1488 17.9993 32.9401 17.9989M45.2305 12.7998C45.0661 13.503 44.7483 15.6705 44.7921 17.906M44.7921 17.906C45.1831 17.9016 45.4542 17.899 45.5797 17.899C46.3531 17.899 47.0394 17.9244 47.6527 17.9919M44.7921 17.906L44.0094 17.9151M48.2422 20.5844C48.072 19.8805 47.7826 18.6045 47.6527 17.9919M44.1592 20.4411C44.0741 19.7326 44.0094 18.3125 44.0094 17.9151M44.0094 17.9151L43.8765 17.9167C42.9672 17.9274 41.7629 17.9416 40.3894 17.9552M40.5298 20.5844C40.4912 19.8496 40.4079 18.4936 40.3894 17.9552M40.3894 17.9552C39.2381 17.9666 37.9681 17.9776 36.6533 17.9857M36.6533 20.5844C36.6533 19.2849 36.6529 18.2005 36.6533 17.9857M36.6533 17.9857C35.4343 17.9932 34.1769 17.9983 32.9401 17.9989M32.9404 20.5844L32.9401 17.9989" stroke="#1E1E1E" stroke-width="0.6" stroke-linecap="round"/>
</svg>
