<svg width="63" height="84" viewBox="0 0 63 84" fill="none" xmlns="http://www.w3.org/2000/svg">
<path d="M16.5098 27.0001C16.5098 27.0001 16.258 33.9635 16.2579 36.3064C16.2578 37.9392 16.2344 40.2962 17.4389 41.7781M20.1346 43.1336C20.0914 42.471 20.0309 40.7618 20.1346 40.0602M20.1346 43.1336C20.0248 43.1178 19.9165 43.1011 19.8098 43.0833C18.7187 42.9015 17.9627 42.4225 17.4389 41.7781M20.1346 43.1336C21.2053 43.2869 22.4146 43.3444 23.6465 43.3496M23.6465 43.3496V40.3838M23.6465 43.3496C24.8893 43.3548 26.155 43.3067 27.3245 43.25M27.3245 43.25C27.3245 42.677 27.3925 40.9766 27.4605 40.3838M27.3245 43.25C28.8856 43.1743 30.2775 43.0833 31.2121 43.0833M31.2121 43.0833L31.2098 40.2839M31.2121 43.0833V40.2839M31.2121 43.0833C32.1467 43.0833 33.5363 43.1743 35.0974 43.25M45.9121 27.0001C45.9121 27.0001 46.1639 33.9635 46.164 36.3064C46.1641 37.9404 46.1875 40.2997 44.9803 41.7814M42.2872 43.1336C42.3305 42.471 42.391 40.7618 42.2872 40.0602M42.2872 43.1336C42.397 43.1178 42.5054 43.1011 42.6121 43.0833C43.7014 42.9018 44.4566 42.4242 44.9803 41.7814M42.2872 43.1336C41.2166 43.2869 40.0073 43.3444 38.7754 43.3496M38.7754 43.3496V40.3838M38.7754 43.3496C37.5326 43.3548 36.2669 43.3067 35.0974 43.25M35.0974 43.25C35.0974 42.677 35.0294 40.9766 34.9614 40.3838M31.2109 36.0001C34.7446 35.7751 42.6109 33.9001 42.6109 31.8001C42.6109 30.9001 40.8109 30.6001 39.0109 30.9001M5.40341 63.2156C5.47 62.3432 5.46734 61.3626 5.56324 60.6114M5.40341 63.2156C5.73593 63.3708 6.05709 63.4727 6.30827 63.5565C6.52531 63.6288 6.93999 63.7193 7.4612 63.8107M5.40341 63.2156C4.54443 62.8145 3.60963 62.0573 3.60963 60.3373C3.60963 57.9513 3.60905 54.9817 3.60963 51.2371C3.61021 47.4925 3.97239 42.4386 4.96197 36.4157C5.95155 30.3927 6.57166 27.686 8.74942 23.1197C10.9272 18.5534 11.7102 17.1001 15.6102 13.5001C17.0143 12.204 18.4184 11.219 19.8085 10.4611C20.274 10.2073 20.4974 10.1355 20.8696 9.98663C21.2418 9.83775 21.7305 9.81005 21.9838 9.89109M7.4612 63.8107C7.4612 62.8636 7.641 61.4705 7.72092 60.9111M7.4612 63.8107C8.07014 63.9176 8.82449 64.0257 9.57892 64.1079M9.57892 64.1079C9.78537 63.106 9.98249 61.7586 10.0784 61.3706M9.57892 64.1079C10.4267 64.2002 11.2746 64.2596 11.9164 64.2472M11.9164 64.2472C12.2361 63.6479 12.7065 62.2896 12.7065 61.5704M11.9164 64.2472C12.2416 64.241 12.514 64.2163 12.7065 64.1682C13.9065 63.8682 14.3234 62.9319 14.8415 61.1691C15.2045 59.9337 16.0537 52.1826 17.4389 41.7781M57.0153 63.2156C56.9487 62.3432 56.9514 61.3626 56.8555 60.6114M57.0153 63.2156C56.6828 63.3708 56.3617 63.4727 56.1105 63.5565C55.8934 63.6288 55.4788 63.7193 54.9576 63.8107M57.0153 63.2156C57.8743 62.8145 58.8091 62.0573 58.8091 60.3373C58.8091 57.9513 58.8097 54.9817 58.8091 51.2371C58.8085 47.4925 58.4464 42.4386 57.4568 36.4157C56.4672 30.3927 55.8471 27.686 53.6693 23.1197C51.4916 18.5534 50.7086 17.1001 46.8086 13.5001C45.4087 12.2079 44.0088 11.2249 42.6229 10.4679C42.1532 10.2114 41.9138 10.0344 41.5642 9.9397C41.2147 9.84503 40.6741 9.81246 40.4143 9.89829M54.9576 63.8107C54.9576 62.8636 54.7777 61.4705 54.6978 60.9111M54.9576 63.8107C54.3486 63.9176 53.5943 64.0257 52.8398 64.1079M52.8398 64.1079C52.6334 63.106 52.4363 61.7586 52.3404 61.3706M52.8398 64.1079C52.0277 64.1963 51.2155 64.2545 50.5844 64.2484M50.5844 64.2484C50.2648 63.6491 49.7122 62.2896 49.7122 61.5704M50.5844 64.2484C50.2229 64.2449 49.9208 64.2203 49.7122 64.1682C48.5122 63.8682 48.0954 62.9319 47.5773 61.1691C47.2143 59.9339 46.3652 52.1842 44.9803 41.7814M21.1608 12.5394C21.5993 12.1673 22.8367 11.2542 23.4053 10.9293M23.4053 10.9293C23.4953 11.0398 23.5839 11.1589 23.6711 11.2869C23.9576 11.7073 24.3224 12.1631 24.7675 12.6115M23.4053 10.9293C22.964 10.3873 22.4901 10.053 21.9838 9.89109M23.0042 14.4082C23.3291 14.1104 24.2477 13.245 24.7675 12.6115M24.7675 12.6115C25.2611 13.1087 25.8534 13.5969 26.547 14.0179M25.2571 15.9108C25.4303 15.66 26.0453 14.7489 26.547 14.0179M26.547 14.0179C27.131 14.3723 27.7867 14.6792 28.5159 14.9038M27.6939 17.1471C27.891 16.7581 28.3726 15.5325 28.5159 14.9038M28.5159 14.9038C28.5202 14.9051 28.5245 14.9064 28.5288 14.9077C29.3324 15.1538 30.2249 15.3 31.2085 15.3M31.2085 17.6309V15.3M31.2085 15.3C32.1921 15.3 33.088 15.1538 33.8916 14.9077M41.2595 12.5394C40.821 12.1673 39.6012 11.2327 39.0326 10.9078M39.0326 10.9078C38.9366 11.0243 38.8421 11.1506 38.7492 11.2869C38.4651 11.7039 38.104 12.1555 37.6639 12.6003M39.0326 10.9078C39.4624 10.3863 39.9231 10.0606 40.4143 9.89829M39.4161 14.4082C39.0912 14.1104 38.1837 13.2339 37.6639 12.6003M37.6639 12.6003C37.1693 13.1002 36.575 13.5914 35.8783 14.0148M37.1632 15.9108C36.99 15.66 36.38 14.7459 35.8783 14.0148M35.8783 14.0148C35.2897 14.3727 34.628 14.6821 33.8916 14.9077M34.7264 17.1471C34.5293 16.7581 34.0349 15.5364 33.8916 14.9077M40.4143 9.89829C38.253 8.88093 34.8842 8.46631 31.1727 8.46631C27.4699 8.46631 24.1456 8.87897 21.9838 9.89109" stroke="#1E1E1E" stroke-width="0.6" stroke-linecap="round"/>
</svg>
