<svg width="63" height="84" viewBox="0 0 63 84" fill="none" xmlns="http://www.w3.org/2000/svg">
<path d="M16.5035 27C16.5035 27 16.2517 33.9634 16.2516 36.3063C16.2516 36.6113 16.2508 36.9415 16.2573 37.2865M20.1284 43.1335C20.0851 42.4709 20.0246 40.7617 20.1284 40.0601M20.1284 43.1335C20.0186 43.1177 19.9103 43.101 19.8035 43.0832C16.6721 42.5613 16.3008 39.5924 16.2573 37.2865M20.1284 43.1335C21.1991 43.2869 22.4084 43.3444 23.6402 43.3495M23.6402 43.3495V40.3837M23.6402 43.3495C24.883 43.3547 26.1488 43.3066 27.3183 43.2499M27.3183 43.2499C27.3183 42.6769 27.3862 40.9765 27.4542 40.3837M27.3183 43.2499C28.8793 43.1742 30.2712 43.0832 31.2059 43.0832M31.2059 43.0832L31.2035 40.2838M31.2059 43.0832V40.2838M31.2059 43.0832C32.1405 43.0832 33.5301 43.1742 35.0911 43.2499M45.9059 27C45.9059 27 46.1576 33.9634 46.1578 36.3063C46.1578 36.6112 46.1586 36.9413 46.1521 37.2863M42.281 43.1335C42.3242 42.4709 42.3847 40.7617 42.281 40.0601M42.281 43.1335C42.3908 43.1177 42.4991 43.101 42.6059 43.0832C45.7374 42.5613 46.1086 39.5922 46.1521 37.2863M42.281 43.1335C41.2103 43.2869 40.001 43.3444 38.7691 43.3495M38.7691 43.3495V40.3837M38.7691 43.3495C37.5264 43.3547 36.2606 43.3066 35.0911 43.2499M35.0911 43.2499C35.0911 42.6769 35.0231 40.9765 34.9551 40.3837M31.2047 36C34.7384 35.775 42.6047 33.9 42.6047 31.8C42.6047 30.9 40.8047 30.6 39.0047 30.9M8.52266 35.8272C8.58925 34.9548 8.58659 34.2779 8.68249 33.5268M8.52266 35.8272C9.07162 36.0095 9.77802 36.2045 10.5809 36.3923M8.52266 35.8272C8.36982 35.7764 8.22918 35.7266 8.10206 35.6782C6.2758 34.9833 5.84635 33.4823 5.8941 32.2823C5.94186 31.0823 6.93722 28.5845 8.10194 24.9C8.65758 23.1423 9.26543 21.72 9.99254 20.4411C10.283 19.9303 10.9338 19.0611 11.4039 18.691C11.874 18.3209 12.5744 18.1215 13.752 17.9919M10.5809 36.3923C10.5904 35.4617 10.7625 34.3703 10.8402 33.8264M10.5809 36.3923C11.2264 36.5432 11.9343 36.6895 12.6729 36.8206M12.6729 36.8206C12.8793 35.8187 13.1017 34.674 13.1976 34.2859M12.6729 36.8206C13.4068 36.9509 14.1709 37.0663 14.9342 37.1566M12.6729 36.8206L14.9342 37.1566M14.9342 37.1566C15.3775 37.209 15.8206 37.253 16.2573 37.2865M53.8836 35.8272C53.817 34.9548 53.8197 34.2779 53.7238 33.5268M53.8836 35.8272C53.3346 36.0095 52.6282 36.2045 51.8254 36.3923M53.8836 35.8272C54.0364 35.7764 54.1771 35.7266 54.3042 35.6782C56.1305 34.9833 56.5599 33.4823 56.5122 32.2823C56.4644 31.0823 55.469 28.5845 54.3043 24.9C54.1002 24.2543 53.889 23.6538 53.6675 23.0891C53.4175 22.3872 52.5934 21.1063 51.4045 19.6672C50.5459 18.6277 49.4443 18.1674 47.8496 17.9919M51.8254 36.3923C51.8159 35.4617 51.6438 34.3703 51.5661 33.8264M51.8254 36.3923C51.1856 36.5419 50.4847 36.6868 49.7533 36.8171M49.7533 36.8171C49.5469 35.8152 49.3045 34.674 49.2086 34.2859M49.7533 36.8171C49.0118 36.9491 48.2391 37.066 47.4674 37.1571C47.0266 37.2092 46.5862 37.2529 46.1521 37.2863M16.1742 12.7998C16.3386 13.503 16.6564 15.6705 16.6126 17.906M16.6126 17.906C16.2216 17.9016 15.9505 17.899 15.825 17.899C15.0516 17.899 14.3653 17.9244 13.752 17.9919M16.6126 17.906L17.3953 17.9151M13.1625 20.5844C13.3327 19.8805 13.622 18.6045 13.752 17.9919M17.2455 20.4411C17.3306 19.7326 17.3953 18.3125 17.3953 17.9151M17.3953 17.9151L17.5286 17.9167C18.4378 17.9274 19.642 17.9416 21.0153 17.9552M20.8749 20.5844C20.9135 19.8496 20.9968 18.4936 21.0153 17.9552M21.0153 17.9552C22.1666 17.9666 23.4366 17.9776 24.7514 17.9857M24.7514 20.5844C24.7514 19.2849 24.7518 18.2005 24.7514 17.9857M24.7514 17.9857C25.9703 17.9932 27.2276 17.9983 28.4643 17.9989M28.4643 20.5844V17.9989M28.4643 17.9989C29.2557 17.9993 30.045 17.9979 30.804 17.9943C31.5629 17.9979 32.3457 17.9993 33.137 17.9989M45.4273 12.7998C45.263 13.503 44.9452 15.6705 44.989 17.906M44.989 17.906C45.38 17.9016 45.6511 17.899 45.7766 17.899C46.55 17.899 47.2363 17.9244 47.8496 17.9919M44.989 17.906L44.2063 17.9151M48.439 20.5844C48.2689 19.8805 47.9795 18.6045 47.8496 17.9919M44.356 20.4411C44.271 19.7326 44.2063 18.3125 44.2063 17.9151M44.2063 17.9151L44.0734 17.9167C43.1641 17.9274 41.9597 17.9416 40.5862 17.9552M40.7267 20.5844C40.688 19.8496 40.6048 18.4936 40.5862 17.9552M40.5862 17.9552C39.435 17.9666 38.1649 17.9776 36.8502 17.9857M36.8502 20.5844C36.8502 19.2849 36.8498 18.2005 36.8502 17.9857M36.8502 17.9857C35.6312 17.9932 34.3737 17.9983 33.137 17.9989M33.1373 20.5844L33.137 17.9989" stroke="#1E1E1E" stroke-width="0.6" stroke-linecap="round"/>
</svg>
