<svg width="64" height="84" viewBox="0 0 64 84" fill="none" xmlns="http://www.w3.org/2000/svg">
<path d="M15.8979 27.0001C16.049 29.7095 15.9458 33.3578 15.7427 37.1814M17.5202 70.738C17.5202 70.138 17.8408 68.5982 17.8408 67.7099M17.5202 70.738C15.9892 69.4946 15.2719 67.614 14.9979 66.0001C14.5897 63.5959 14.5578 60.6001 14.5578 55.9653C14.5578 52.8932 15.3435 44.6984 15.7427 37.1814M17.5202 70.738C18.2698 71.3468 19.2146 71.8029 20.3979 72.0001C20.5046 72.0179 20.6129 72.0346 20.7227 72.0504M20.7227 72.0504C20.6795 71.3878 20.619 69.6786 20.7227 68.977M20.7227 72.0504C21.7934 72.2037 23.0027 72.2612 24.2346 72.2664M24.2346 72.2664V69.3006M24.2346 72.2664C25.4774 72.2716 26.7431 72.2235 27.9126 72.1668M27.9126 72.1668C27.9126 71.5938 27.9806 69.8934 28.0486 69.3006M27.9126 72.1668C29.4737 72.0911 30.8644 72.0001 31.799 72.0001M31.799 72.0001L31.7979 69.2007M31.799 72.0001C32.7365 72.0001 34.1318 72.0917 35.6988 72.1675M47.699 27.0001C47.5479 29.7094 47.651 33.3575 47.8541 37.1811M46.0226 70.7814C46.0226 70.1814 45.7561 68.5982 45.7561 67.7099M46.0226 70.7814C47.5909 69.5387 48.3218 67.6329 48.599 66.0001C49.0072 63.5959 49.0391 60.6001 49.0391 55.9653C49.0391 52.8932 48.2534 44.6981 47.8541 37.1811M46.0226 70.7814C45.2817 71.3685 44.354 71.8076 43.199 72.0001C43.0923 72.0179 42.9839 72.0346 42.8742 72.0504M42.8742 72.0504C42.9174 71.3878 42.9779 69.6786 42.8742 68.977M42.8742 72.0504C41.8035 72.2037 40.5942 72.2612 39.3623 72.2664M39.3623 72.2664V69.3006M39.3623 72.2664C38.1247 72.2715 36.8642 72.2239 35.6988 72.1675M35.6988 72.1675C35.6988 71.5945 35.6163 69.8934 35.5483 69.3006M31.7984 63.6001C35.3321 63.3751 43.1984 61.5001 43.1984 59.4001C43.1984 58.5001 41.3984 58.2001 39.5984 58.5001M9.11641 35.8272C9.183 34.9549 9.18034 34.278 9.27624 33.5268M9.11641 35.8272C9.66537 36.0096 10.3718 36.2046 11.1746 36.3924M9.11641 35.8272C8.96357 35.7765 8.82293 35.7267 8.69581 35.6783C6.86955 34.9834 6.4401 33.4824 6.48785 32.2824C6.53561 31.0824 7.53097 28.5846 8.69569 24.9001C9.86041 21.2156 11.2546 19.0048 13.4957 16.5001C15.4297 14.3385 17.2344 12.7378 18.9914 11.5343C19.489 11.1935 19.7648 11.0621 20.2338 10.8329C20.7028 10.6037 21.3524 10.6037 21.3524 10.6037M11.1746 36.3924C11.1841 35.4618 11.3562 34.3704 11.4339 33.8265M11.1746 36.3924C11.8202 36.5433 12.5281 36.6896 13.2666 36.8207M13.2666 36.8207C13.4731 35.8188 13.6955 34.6741 13.7914 34.286M13.2666 36.8207C14.0005 36.951 14.7647 37.0664 15.5279 37.1567M13.2666 36.8207L15.5279 37.1567M15.5279 37.1567C15.5995 37.1651 15.6712 37.1734 15.7427 37.1814M54.4773 35.8272C54.4108 34.9549 54.4134 34.278 54.3175 33.5268M54.4773 35.8272C53.9284 36.0096 53.222 36.2046 52.4191 36.3924M54.4773 35.8272C54.6302 35.7765 54.7708 35.7267 54.8979 35.6783C56.7242 34.9834 57.1537 33.4824 57.1059 32.2824C57.0581 31.0824 56.0628 28.5846 54.8981 24.9001C53.7333 21.2156 52.3392 19.0048 50.0981 16.5001C48.1673 14.3422 46.3655 12.7432 44.6113 11.5404C44.0981 11.1885 43.8074 10.9929 43.3486 10.8276C42.8898 10.6622 42.2866 10.5766 41.9174 10.6724M52.4191 36.3924C52.4096 35.4618 52.2375 34.3704 52.1598 33.8265M52.4191 36.3924C51.7794 36.542 51.0784 36.6869 50.3471 36.8172M50.3471 36.8172C50.1406 35.8153 49.8983 34.6741 49.8024 34.286M50.3471 36.8172C49.6056 36.9492 48.8329 37.0661 48.0611 37.1572C47.9921 37.1654 47.9231 37.1733 47.8541 37.1811M20.9134 13.0444C21.2787 12.7089 22.3937 11.7986 23.0915 11.3513M23.0915 11.3513C22.5445 10.9693 21.9735 10.6992 21.3524 10.6037M23.0915 11.3513C23.6461 11.7386 24.1762 12.2408 24.709 12.7925C24.8237 12.9113 24.9463 13.0374 25.0753 13.1694M23.2618 14.9678C23.4705 14.7144 24.2165 13.9209 25.0753 13.1694M25.0753 13.1694C25.6259 13.733 26.293 14.4035 26.9664 15.0697M25.1629 16.7795C25.4835 16.5036 26.4296 15.6781 26.9664 15.0697M26.9664 15.0697C27.6842 15.7799 28.4091 16.4851 29.0075 17.0504M27.31 18.9266C27.6529 18.5463 28.5781 17.5693 29.0075 17.0504M29.0075 17.0504C29.6158 17.6249 30.0933 18.0549 30.2999 18.1986C30.5086 18.3438 30.682 18.4527 30.8399 18.5337M29.8582 20.6519C30.1031 20.1295 30.5134 19.2847 30.8399 18.5337M30.8399 18.5337C31.1701 18.703 31.4322 18.75 31.806 18.75C32.2396 18.75 32.5135 18.6868 32.927 18.4428M42.6893 13.0444C42.324 12.7089 41.2231 11.7888 40.5253 11.3415M40.5253 11.3415C40.9688 11.0336 41.4282 10.7994 41.9174 10.6724M40.5253 11.3415C39.9656 11.7301 39.431 12.2361 38.8937 12.7925C38.7533 12.9379 38.6011 13.0943 38.4398 13.259M40.3409 14.9678C40.1321 14.7144 39.2987 14.0105 38.4398 13.259M38.4398 13.259C37.9068 13.8033 37.2744 14.4385 36.6363 15.0697M38.4398 16.7795C38.1192 16.5036 37.1731 15.6781 36.6363 15.0697M36.6363 15.0697C35.9185 15.7799 35.1936 16.4851 34.5952 17.0504M36.2927 18.9266C35.9498 18.5463 35.0246 17.5693 34.5952 17.0504M34.5952 17.0504C33.9869 17.6249 33.5094 18.0549 33.3028 18.1986C33.1639 18.2953 33.0405 18.3759 32.927 18.4428M33.7207 20.6935C33.5787 20.3417 33.1954 19.232 32.927 18.4428M21.3524 10.6037C23.511 9.55788 28.0005 8.46631 31.7592 8.46631C35.5178 8.46631 39.7588 9.62662 41.9174 10.6724" stroke="#1E1E1E" stroke-width="0.6" stroke-linecap="round"/>
</svg>
