<svg width="63" height="84" viewBox="0 0 63 84" fill="none" xmlns="http://www.w3.org/2000/svg">
<path d="M15.3104 27C15.7585 35.0358 13.9703 51.3305 13.9703 55.9652C13.9703 58.9217 13.9833 61.2113 14.0986 63.1058M16.9327 70.7379C16.9327 70.1379 17.2533 68.5981 17.2533 67.7098M16.9327 70.7379C15.4017 69.4945 14.6844 67.6139 14.4104 66C14.2625 65.1294 14.1641 64.1813 14.0986 63.1058M16.9327 70.7379C17.6823 71.3467 18.6271 71.8028 19.8104 72C19.9171 72.0178 20.0254 72.0345 20.1352 72.0503M20.1352 72.0503C20.092 71.3877 20.0315 69.6785 20.1352 68.9769M20.1352 72.0503C21.2059 72.2036 22.4152 72.2611 23.6471 72.2663M23.6471 72.2663V69.3005M23.6471 72.2663C24.8899 72.2715 26.1556 72.2234 27.3251 72.1667M27.3251 72.1667C27.3251 71.5937 27.3931 69.8933 27.4611 69.3005M27.3251 72.1667C28.8862 72.091 30.2769 72 31.2115 72M31.2115 72L31.2104 69.2006M31.2115 72C32.149 72 33.5443 72.0916 35.1113 72.1674M47.1115 27C46.6634 35.0358 48.4516 51.3305 48.4516 55.9652C48.4516 58.9242 48.4386 61.2151 48.323 63.1106M45.4351 70.7813C45.4351 70.1813 45.1686 68.5981 45.1686 67.7098M45.4351 70.7813C47.0034 69.5386 47.7343 67.6328 48.0115 66C48.1591 65.1307 48.2575 64.1841 48.323 63.1106M45.4351 70.7813C44.6942 71.3684 43.7665 71.8075 42.6115 72C42.5048 72.0178 42.3964 72.0345 42.2867 72.0503M42.2867 72.0503C42.3299 71.3877 42.3904 69.6785 42.2867 68.9769M42.2867 72.0503C41.216 72.2036 40.0067 72.2611 38.7748 72.2663M38.7748 72.2663V69.3005M38.7748 72.2663C37.5372 72.2715 36.2767 72.2238 35.1113 72.1674M35.1113 72.1674C35.1113 71.5944 35.0288 69.8933 34.9608 69.3005M31.2109 63.6C34.7446 63.375 42.6109 61.5 42.6109 59.4C42.6109 58.5 40.8109 58.2 39.0109 58.5M5.40341 63.2155C5.47 62.3431 5.46734 61.3625 5.56324 60.6113M5.40341 63.2155C5.73593 63.3707 6.05709 63.4726 6.30827 63.5564C6.52531 63.6287 6.93999 63.7192 7.4612 63.8106M5.40341 63.2155C4.54443 62.8144 3.60963 62.0572 3.60963 60.3372C3.60963 57.9512 3.60905 54.9816 3.60963 51.237C3.61021 47.4924 3.97239 42.4385 4.96197 36.4156C5.95155 30.3927 6.57166 27.6859 8.74942 23.1196C10.9272 18.5534 11.7102 17.1 15.6102 13.5C15.8467 13.2816 16.0833 13.0721 16.3198 12.871C16.8292 12.4379 17.1545 12.236 17.4978 12.0657C17.841 11.8954 18.4654 11.7312 18.799 11.8954M7.4612 63.8106C7.4612 62.8635 7.641 61.4704 7.72092 60.911M7.4612 63.8106C8.07014 63.9175 8.82449 64.0257 9.57892 64.1078M9.57892 64.1078C9.78537 63.1059 9.98249 61.7585 10.0784 61.3705M9.57892 64.1078C10.4267 64.2001 11.2746 64.2595 11.9164 64.2471M11.9164 64.2471C12.2361 63.6478 12.7065 62.2895 12.7065 61.5703M11.9164 64.2471C12.2416 64.2409 12.514 64.2162 12.7065 64.1681C13.3506 64.0071 13.769 63.6628 14.0986 63.1058M57.0153 63.2155C56.9487 62.3431 56.9514 61.3625 56.8555 60.6113M57.0153 63.2155C56.6828 63.3707 56.3617 63.4726 56.1105 63.5564C55.8934 63.6287 55.4788 63.7192 54.9576 63.8106M57.0153 63.2155C57.8743 62.8144 58.8091 62.0572 58.8091 60.3372C58.8091 57.9512 58.8097 54.9816 58.8091 51.237C58.8085 47.4924 58.4464 42.4385 57.4568 36.4156C56.4672 30.3927 55.8471 27.6859 53.6693 23.1196C51.4916 18.5534 50.7086 17.1 46.8086 13.5C46.6173 13.3234 46.426 13.1527 46.2348 12.9874C45.6801 12.5082 45.489 12.3022 45.0073 12.0228C44.5256 11.7434 43.9442 11.7327 43.6071 11.9024M54.9576 63.8106C54.9576 62.8635 54.7777 61.4704 54.6978 60.911M54.9576 63.8106C54.3486 63.9175 53.5943 64.0256 52.8398 64.1078M52.8398 64.1078C52.6334 63.1059 52.4363 61.7585 52.3404 61.3705M52.8398 64.1078C52.0277 64.1962 51.2155 64.2544 50.5844 64.2483M50.5844 64.2483C50.2648 63.649 49.7122 62.2895 49.7122 61.5703M50.5844 64.2483C50.2229 64.2448 49.9208 64.2202 49.7122 64.1681C49.07 64.0075 48.6521 63.6648 48.323 63.1106M18.0118 14.5026C18.3277 14.2994 19.3368 13.8434 19.8422 13.645M19.8422 13.645C19.7407 12.6363 19.2883 12.1363 18.799 11.8954M19.8422 13.645C20.012 14.4239 20.193 15.0583 20.3565 15.549M18.6239 16.5953C18.8871 16.3979 19.7406 15.9122 20.3565 15.549M20.3565 15.549C20.4419 15.8051 20.5226 16.0221 20.5944 16.2001C20.7789 16.6569 21.0135 17.0267 21.2996 17.3096M20.0058 18.7275C20.1308 18.5827 20.6678 17.9888 21.2996 17.3096M21.2996 17.3096C21.7092 17.7148 22.2244 17.9416 22.8487 17.9901M22.6908 20.1292C22.7105 19.7343 22.7697 18.5903 22.8487 17.9901M22.8487 17.9901C22.8487 17.9901 23.0207 18.0001 23.1098 18.0001C23.6391 18.0001 24.4602 17.8833 25.5731 17.7529M25.5731 19.9515V17.7529M25.5731 17.7529C26.3756 17.6588 27.3298 17.5575 28.4358 17.4877M28.5345 19.7146C28.5081 19.2473 28.4516 18.0089 28.4358 17.4877M28.4358 17.4877C29.2734 17.4349 30.1981 17.4001 31.2098 17.4001M31.2098 19.7146V17.4001M31.2098 17.4001C32.2216 17.4001 33.1464 17.4349 33.9841 17.4877M44.4083 14.5026C44.0925 14.2994 43.0834 13.8434 42.578 13.645M42.578 13.645C42.4082 14.4239 42.2272 15.0583 42.0637 15.5489M42.578 13.645C42.6786 12.6459 43.1232 12.1459 43.6071 11.9024M43.7963 16.5953C43.5331 16.3979 42.6796 15.9122 42.0637 15.5489M42.0637 15.5489C41.9783 15.8051 41.8976 16.0221 41.8258 16.2C41.6403 16.6592 41.4042 17.0305 41.1161 17.314M42.4144 18.7274C42.2893 18.5827 41.7479 17.9931 41.1161 17.314M41.1161 17.314C40.7072 17.7164 40.1935 17.9417 39.5715 17.9901M39.7294 20.1291C39.7097 19.7343 39.6504 18.5903 39.5715 17.9901M39.5715 17.9901C39.4865 17.9967 39.3994 18 39.3104 18C38.7811 18 37.96 17.8833 36.847 17.7529M36.847 19.9515V17.7529M36.847 17.7529C36.0445 17.6588 35.0901 17.5575 33.9841 17.4877M33.8857 19.7145C33.912 19.2473 33.9683 18.0089 33.9841 17.4877M18.799 11.8954C22.6041 10.7153 27.7635 10.3154 31.211 10.3154C34.6652 10.3154 39.8052 10.7168 43.6071 11.9024" stroke="#1E1E1E" stroke-width="0.6" stroke-linecap="round"/>
</svg>
