<svg width="63" height="84" viewBox="0 0 63 84" fill="none" xmlns="http://www.w3.org/2000/svg">
<path d="M16.7066 27.0001C16.7066 27.0001 16.4549 33.9635 16.4547 36.3064C16.4547 36.6114 16.4539 36.9416 16.4604 37.2866M20.3315 43.1336C20.2883 42.471 20.2278 40.7618 20.3315 40.0602M20.3315 43.1336C20.2217 43.1178 20.1134 43.1011 20.0066 43.0833C16.8752 42.5614 16.5039 39.5925 16.4604 37.2866M20.3315 43.1336C21.4022 43.2869 22.6115 43.3444 23.8433 43.3496M23.8433 43.3496V40.3838M23.8433 43.3496C25.0861 43.3548 26.3519 43.3067 27.5214 43.25M27.5214 43.25C27.5214 42.677 27.5894 40.9766 27.6573 40.3838M27.5214 43.25C29.0824 43.1743 30.4744 43.0833 31.409 43.0833M31.409 43.0833L31.4066 40.2839M31.409 43.0833V40.2839M31.409 43.0833C32.3436 43.0833 33.7332 43.1743 35.2942 43.25M46.109 27.0001C46.109 27.0001 46.3607 33.9635 46.3609 36.3064C46.3609 36.6113 46.3617 36.9414 46.3552 37.2863M42.4841 43.1336C42.5273 42.471 42.5879 40.7618 42.4841 40.0602M42.4841 43.1336C42.5939 43.1178 42.7022 43.1011 42.809 43.0833C45.9405 42.5614 46.3117 39.5923 46.3552 37.2863M42.4841 43.1336C41.4134 43.2869 40.2041 43.3444 38.9723 43.3496M38.9723 43.3496V40.3838M38.9723 43.3496C37.7295 43.3548 36.4637 43.3067 35.2942 43.25M35.2942 43.25C35.2942 42.677 35.2262 40.9766 35.1583 40.3838M31.4078 36.0001C34.9415 35.7751 42.8078 33.9001 42.8078 31.8001C42.8078 30.9001 41.0078 30.6001 39.2078 30.9001M8.72578 35.8272C8.79238 34.9549 8.78971 34.278 8.88561 33.5268M8.72578 35.8272C9.27474 36.0096 9.98114 36.2046 10.784 36.3924M8.72578 35.8272C8.57294 35.7765 8.4323 35.7267 8.30519 35.6783C6.47893 34.9834 6.04947 33.4824 6.09723 32.2824C6.14498 31.0824 7.14034 28.5846 8.30507 24.9001C9.46979 21.2156 10.8639 19.0048 13.105 16.5001C15.2115 14.1458 17.1644 12.4569 19.0695 11.2219C19.4209 10.9941 19.7905 10.7972 20.0709 10.6786C20.3514 10.5599 20.6912 10.5621 20.9618 10.6037M10.784 36.3924C10.7935 35.4618 10.9656 34.3704 11.0433 33.8265M10.784 36.3924C11.4295 36.5433 12.1375 36.6896 12.876 36.8207M12.876 36.8207C13.0824 35.8188 13.3049 34.6741 13.4008 34.286M12.876 36.8207C13.6099 36.951 14.374 37.0664 15.1373 37.1567M12.876 36.8207L15.1373 37.1567M15.1373 37.1567C15.5807 37.2091 16.0237 37.2531 16.4604 37.2866M54.0867 35.8272C54.0201 34.9549 54.0228 34.278 53.9269 33.5268M54.0867 35.8272C53.5378 36.0096 52.8314 36.2046 52.0285 36.3924M54.0867 35.8272C54.2396 35.7765 54.3802 35.7267 54.5073 35.6783C56.3336 34.9834 56.763 33.4824 56.7153 32.2824C56.6675 31.0824 55.6722 28.5846 54.5074 24.9001C53.3427 21.2156 51.9486 19.0048 49.7075 16.5001C47.7386 14.2996 45.9038 12.6803 44.1169 11.4697C43.6388 11.1458 43.3327 10.9882 42.9622 10.803C42.5917 10.6177 41.896 10.5766 41.5268 10.6724M52.0285 36.3924C52.019 35.4618 51.8469 34.3704 51.7692 33.8265M52.0285 36.3924C51.3888 36.542 50.6878 36.6869 49.9564 36.8172M49.9564 36.8172C49.75 35.8153 49.5076 34.6741 49.4117 34.286M49.9564 36.8172C49.2149 36.9492 48.4422 37.0661 47.6705 37.1572C47.2298 37.2093 46.7893 37.253 46.3552 37.2863M20.5228 13.0444C20.8881 12.7089 22.003 11.7986 22.7009 11.3513M22.7009 11.3513C22.1538 10.9693 21.5829 10.6992 20.9618 10.6037M22.7009 11.3513C23.2555 11.7386 23.7855 12.2408 24.3183 12.7925C24.4331 12.9113 24.5557 13.0374 24.6847 13.1694M22.8712 14.9678C23.0799 14.7144 23.8258 13.9209 24.6847 13.1694M24.6847 13.1694C25.2353 13.733 25.9024 14.4035 26.5757 15.0697M24.7723 16.7795C25.0928 16.5036 26.039 15.6781 26.5757 15.0697M26.5757 15.0697C27.2936 15.7799 28.0185 16.4851 28.6169 17.0504M26.9194 18.9266C27.2623 18.5463 28.1875 17.5693 28.6169 17.0504M28.6169 17.0504C29.2251 17.6249 29.7027 18.0549 29.9092 18.1986C30.1179 18.3438 30.2914 18.4527 30.4493 18.5337M29.4676 20.6519C29.7125 20.1295 30.1228 19.2847 30.4493 18.5337M30.4493 18.5337C30.7795 18.703 31.0416 18.75 31.4154 18.75C31.8489 18.75 32.1229 18.6868 32.5364 18.4428M42.2987 13.0444C41.9334 12.7089 40.8325 11.7888 40.1347 11.3415M40.1347 11.3415C40.5782 11.0336 41.0376 10.7994 41.5268 10.6724M40.1347 11.3415C39.5749 11.7301 39.0404 12.2361 38.5031 12.7925C38.3626 12.9379 38.2105 13.0943 38.0492 13.259M39.9503 14.9678C39.7415 14.7144 38.908 14.0105 38.0492 13.259M38.0492 13.259C37.5162 13.8033 36.8837 14.4385 36.2457 15.0697M38.0492 16.7795C37.7286 16.5036 36.7825 15.6781 36.2457 15.0697M36.2457 15.0697C35.5279 15.7799 34.8029 16.4851 34.2045 17.0504M35.9021 18.9266C35.5591 18.5463 34.634 17.5693 34.2045 17.0504M34.2045 17.0504C33.5963 17.6249 33.1188 18.0549 32.9122 18.1986C32.7732 18.2953 32.6499 18.3759 32.5364 18.4428M33.33 20.6935C33.188 20.3417 32.8048 19.232 32.5364 18.4428M20.9618 10.6037C23.1204 9.55788 27.6099 8.46631 31.3685 8.46631C35.1272 8.46631 39.3682 9.62662 41.5268 10.6724" stroke="#1E1E1E" stroke-width="0.6" stroke-linecap="round"/>
</svg>
