<svg width="63" height="84" viewBox="0 0 63 84" fill="none" xmlns="http://www.w3.org/2000/svg">
<path d="M15.3096 27C15.3096 27 13.8268 40.0093 14.5387 43.7657C14.9546 45.9605 15.455 47.6993 16.5172 48.8853M16.986 49.3409C16.986 48.7409 17.2525 47.1406 17.2525 46.2523M16.986 49.3409C17.6899 49.9344 18.6009 50.3411 19.8096 50.5425C19.9164 50.5603 20.0247 50.5771 20.1345 50.5928M16.986 49.3409C16.8184 49.1995 16.6626 49.0476 16.5172 48.8853M20.1345 50.5928C20.0913 49.9302 20.0307 48.221 20.1345 47.5195M20.1345 50.5928C21.2052 50.7462 22.4145 50.8037 23.6463 50.8088M23.6463 50.8088V47.8431M23.6463 50.8088C24.8891 50.814 26.1549 50.7659 27.3244 50.7092M27.3244 50.7092C27.3244 50.1362 27.3923 48.4358 27.4603 47.8431M27.3244 50.7092C28.8854 50.6335 30.275 50.5425 31.2096 50.5425M31.2096 50.5425V47.7431M31.2096 50.5425L31.2123 47.7431M47.1123 27C47.1123 27 48.5951 40.0093 47.8832 43.7657C47.4669 45.9624 46.9661 47.7023 45.9019 48.8884M45.4358 49.3409C45.4358 48.7409 45.1693 47.1406 45.1693 46.2523M45.4358 49.3409C44.7319 49.9344 43.821 50.3411 42.6123 50.5425C42.5055 50.5603 42.3972 50.5771 42.2874 50.5928M45.4358 49.3409C45.6024 49.2004 45.7573 49.0495 45.9019 48.8884M42.2874 50.5928C42.3306 49.9302 42.3911 48.221 42.2874 47.5195M42.2874 50.5928C41.2234 50.7452 40.0224 50.803 38.7985 50.8087M38.7985 50.8087L38.7756 47.8431M38.7985 50.8087C37.5719 50.8145 36.3222 50.7681 35.1641 50.7124M35.1641 50.7124C35.1641 50.1395 35.0295 48.4358 34.9615 47.8431M35.1641 50.7124C33.576 50.6361 32.1601 50.5425 31.2123 50.5425M31.2109 43.2C34.7446 42.975 42.6109 41.1 42.6109 39C42.6109 38.1 40.8109 37.8 39.0109 38.1M5.40341 63.2155C5.47 62.3431 5.46734 61.3625 5.56324 60.6113M5.40341 63.2155C5.73593 63.3707 6.05709 63.4726 6.30827 63.5564C6.52531 63.6287 6.93999 63.7192 7.4612 63.8106M5.40341 63.2155C4.54443 62.8144 3.60963 62.0572 3.60963 60.3372C3.60963 57.9512 3.60905 54.9816 3.60963 51.237C3.61021 47.4924 3.97239 42.4385 4.96197 36.4156C5.95155 30.3927 6.57166 27.6859 8.74942 23.1196C10.9272 18.5534 11.7102 17.1 15.6102 13.5C15.9418 13.1939 16.2734 12.9051 16.6049 12.6326C17.0086 12.3007 17.4241 12.0569 17.7092 11.958C17.9943 11.8591 18.4803 11.7752 18.7948 11.8965M7.4612 63.8106C7.4612 62.8635 7.641 61.4704 7.72092 60.911M7.4612 63.8106C8.07014 63.9175 8.82449 64.0257 9.57892 64.1078M9.57892 64.1078C9.78537 63.1059 9.98249 61.7585 10.0784 61.3705M9.57892 64.1078C10.4267 64.2001 11.2746 64.2595 11.9164 64.2471M11.9164 64.2471C12.2361 63.6478 12.7065 62.2895 12.7065 61.5703M11.9164 64.2471C12.2416 64.2409 12.514 64.2162 12.7065 64.1681C13.9065 63.8681 14.3234 62.9318 14.8415 61.169C15.1157 60.2361 15.6671 55.587 16.5172 48.8853M57.0153 63.2155C56.9487 62.3431 56.9514 61.3625 56.8555 60.6113M57.0153 63.2155C56.6828 63.3707 56.3617 63.4726 56.1105 63.5564C55.8934 63.6287 55.4788 63.7192 54.9576 63.8106M57.0153 63.2155C57.8743 62.8144 58.8091 62.0572 58.8091 60.3372C58.8091 57.9512 58.8097 54.9816 58.8091 51.237C58.8085 47.4924 58.4464 42.4385 57.4568 36.4156C56.4672 30.3927 55.8471 27.6859 53.6693 23.1196C51.4916 18.5534 50.7086 17.1 46.8086 13.5C46.4485 13.1676 46.0884 12.8556 45.7285 12.5627C45.3533 12.2574 45.0076 12.0141 44.7115 11.903C44.4154 11.7918 43.9279 11.7776 43.6089 11.903M54.9576 63.8106C54.9576 62.8635 54.7777 61.4704 54.6978 60.911M54.9576 63.8106C54.3486 63.9175 53.5943 64.0256 52.8398 64.1078M52.8398 64.1078C52.6334 63.1059 52.4363 61.7585 52.3404 61.3705M52.8398 64.1078C52.0277 64.1962 51.2155 64.2544 50.5844 64.2483M50.5844 64.2483C50.2648 63.649 49.7122 62.2895 49.7122 61.5703M50.5844 64.2483C50.2229 64.2448 49.9208 64.2202 49.7122 64.1681C48.5122 63.8681 48.0954 62.9318 47.5773 61.169C47.3031 60.2362 46.7518 55.5884 45.9019 48.8884M17.4877 14.5978C17.9069 14.2022 19.1362 13.2147 20.0119 12.7546M20.0119 12.7546C19.64 12.3468 19.2305 12.0645 18.7948 11.8965M20.0119 12.7546C20.0948 12.8456 20.1759 12.9428 20.255 13.0464C20.5981 13.4959 21.0578 14.1864 21.7412 14.9294M19.6916 16.7137C20.0256 16.4601 21.0139 15.6716 21.7412 14.9294M21.7412 14.9294C22.33 15.5697 23.0849 16.249 24.0745 16.8469M22.2519 19.0513C22.6972 18.6246 23.7777 17.4406 24.0745 16.8469M24.0745 16.8469C24.8175 17.2957 25.6927 17.6986 26.7292 18.0047M25.6298 20.6372C25.8834 20.0187 26.5215 18.4648 26.7292 18.0047M26.7292 18.0047C27.5622 18.2507 28.4993 18.4341 29.5557 18.5285M29.2103 21.6131C29.3757 20.8308 29.5557 18.9466 29.5557 18.5285M29.5557 18.5285C30.0775 18.5751 30.6284 18.6 31.2103 18.6C31.792 18.6 32.3429 18.5751 32.8646 18.5285M44.9326 14.5978C44.5134 14.2023 43.2963 13.2015 42.4206 12.7414M42.4206 12.7414C42.3334 12.8361 42.2483 12.9377 42.1653 13.0464C41.8221 13.496 41.3624 14.1866 40.6789 14.9297M42.4206 12.7414C42.7844 12.3459 43.1841 12.0699 43.6089 11.903M42.7287 16.7137C42.3948 16.4601 41.4062 15.6719 40.6789 14.9297M40.6789 14.9297C40.0875 15.5728 39.3286 16.2552 38.3326 16.8549M40.1684 19.0514C39.7231 18.6246 38.6295 17.4486 38.3326 16.8549M38.3326 16.8549C37.5926 17.3005 36.7216 17.7005 35.6912 18.0047M36.7905 20.6372C36.537 20.0187 35.899 18.4648 35.6912 18.0047M35.6912 18.0047C34.8582 18.2507 33.9211 18.4341 32.8646 18.5285M33.21 21.6131C33.0446 20.8308 32.8646 18.9466 32.8646 18.5285M18.7809 11.9008C18.7855 11.8993 18.7902 11.8979 18.7948 11.8965M18.7948 11.8965C22.5949 10.7155 27.7625 10.3154 31.211 10.3154C34.6658 10.3154 39.8068 10.717 43.6089 11.903" stroke="#1E1E1E" stroke-width="0.6" stroke-linecap="round"/>
</svg>
