<svg width="63" height="84" viewBox="0 0 63 84" fill="none" xmlns="http://www.w3.org/2000/svg">
<path d="M15.5065 27C15.5065 27 14.9046 32.2805 14.6519 37.0845M17.1829 49.3409C17.1829 48.7409 17.4494 47.1406 17.4494 46.2523M17.1829 49.3409C15.7903 48.1666 15.2084 46.2608 14.7355 43.7657C14.4772 42.4025 14.5079 39.8208 14.6519 37.0845M17.1829 49.3409C17.8868 49.9344 18.7978 50.3411 20.0065 50.5425C20.1132 50.5603 20.2216 50.5771 20.3314 50.5928M20.3314 50.5928C20.2881 49.9302 20.2276 48.221 20.3314 47.5195M20.3314 50.5928C21.402 50.7462 22.6113 50.8037 23.8432 50.8088M23.8432 50.8088V47.8431M23.8432 50.8088C25.086 50.814 26.3517 50.7659 27.5212 50.7092M27.5212 50.7092C27.5212 50.1362 27.5892 48.4358 27.6572 47.8431M27.5212 50.7092C29.0823 50.6335 30.4719 50.5425 31.4065 50.5425M31.4065 50.5425V47.7431M31.4065 50.5425L31.4091 47.7431M47.3091 27C47.3091 27 47.9119 32.2885 48.1643 37.0954M45.6327 49.3409C45.6327 48.7409 45.3662 47.1406 45.3662 46.2523M45.6327 49.3409C47.0253 48.1666 47.6072 46.2608 48.0801 43.7657C48.3381 42.4043 48.3078 39.8276 48.1643 37.0954M45.6327 49.3409C44.9288 49.9344 44.0178 50.3411 42.8091 50.5425C42.7024 50.5603 42.5941 50.5771 42.4843 50.5928M42.4843 50.5928C42.5275 49.9302 42.588 48.221 42.4843 47.5195M42.4843 50.5928C41.4202 50.7452 40.2193 50.803 38.9954 50.8087M38.9954 50.8087L38.9724 47.8431M38.9954 50.8087C37.7687 50.8145 36.519 50.7681 35.3609 50.7124M35.3609 50.7124C35.3609 50.1395 35.2264 48.4358 35.1584 47.8431M35.3609 50.7124C33.7729 50.6361 32.357 50.5425 31.4091 50.5425M31.4078 43.2C34.9415 42.975 42.8078 41.1 42.8078 39C42.8078 38.1 41.0078 37.8 39.2078 38.1M8.72578 35.8272C8.79238 34.9548 8.78971 34.2779 8.88561 33.5268M8.72578 35.8272C9.27474 36.0095 9.98114 36.2045 10.784 36.3923M8.72578 35.8272C8.57294 35.7764 8.4323 35.7266 8.30519 35.6782C6.47893 34.9833 6.04947 33.4823 6.09723 32.2823C6.14498 31.0823 7.14034 28.5845 8.30507 24.9C9.46979 21.2155 10.8639 19.0047 13.105 16.5C14.3951 15.0582 15.6276 13.8659 16.8268 12.8746C17.3334 12.4558 17.6574 12.2001 18.129 11.9735C18.6006 11.7469 18.9958 11.8954 18.9958 11.8954M10.784 36.3923C10.7935 35.4617 10.9656 34.3703 11.0433 33.8264M10.784 36.3923C11.4295 36.5432 12.1375 36.6895 12.876 36.8206M12.876 36.8206C13.0824 35.8187 13.3049 34.674 13.4008 34.2859M12.876 36.8206L14.6519 37.0845M54.0867 35.8272C54.0201 34.9548 54.0228 34.2779 53.9269 33.5268M54.0867 35.8272C53.5378 36.0095 52.8314 36.2045 52.0285 36.3923M54.0867 35.8272C54.2396 35.7764 54.3802 35.7266 54.5073 35.6782C56.3336 34.9833 56.763 33.4823 56.7153 32.2823C56.6675 31.0823 55.6722 28.5845 54.5074 24.9C53.3427 21.2155 51.9486 19.0047 49.7075 16.5C48.7682 15.4502 47.8594 14.5327 46.9719 13.7288C46.1177 12.9551 45.8357 12.7408 45.2204 12.2547C44.6052 11.7686 44.024 11.7917 43.804 11.9024M52.0285 36.3923C52.019 35.4617 51.8469 34.3703 51.7692 33.8264M52.0285 36.3923C51.3888 36.5419 50.6878 36.6868 49.9564 36.8171M49.9564 36.8171C49.75 35.8152 49.5076 34.674 49.4117 34.2859M49.9564 36.8171C49.3732 36.9209 48.7706 37.0154 48.1643 37.0954M18.2087 14.5026C18.5246 14.2994 19.5337 13.8434 20.0391 13.645M20.0391 13.645C19.9375 12.6363 19.4852 12.1363 18.9958 11.8954M20.0391 13.645C20.2089 14.4239 20.3898 15.0583 20.5534 15.549M18.8207 16.5953C19.084 16.3979 19.9374 15.9122 20.5534 15.549M20.5534 15.549C20.6388 15.8051 20.7194 16.0221 20.7913 16.2001C20.9758 16.6569 21.2104 17.0267 21.4965 17.3096M20.2027 18.7275C20.3277 18.5827 20.8647 17.9888 21.4965 17.3096M21.4965 17.3096C21.9061 17.7148 22.4212 17.9416 23.0456 17.9901M22.8876 20.1292C22.9074 19.7343 22.9666 18.5903 23.0456 17.9901M23.0456 17.9901C23.0456 17.9901 23.2176 18.0001 23.3067 18.0001C23.836 18.0001 24.6571 17.8833 25.77 17.7529M25.77 19.9515V17.7529M25.77 17.7529C26.5725 17.6588 27.5267 17.5575 28.6326 17.4877M28.7313 19.7146C28.705 19.2473 28.6484 18.0089 28.6326 17.4877M28.6326 17.4877C29.4703 17.4349 30.395 17.4001 31.4067 17.4001M31.4067 19.7146V17.4001M31.4067 17.4001C32.4185 17.4001 33.3433 17.4349 34.181 17.4877M44.6052 14.5026C44.2893 14.2994 43.2803 13.8434 42.7749 13.645M42.7749 13.645C42.6051 14.4239 42.4241 15.0583 42.2605 15.5489M42.7749 13.645C42.8754 12.6459 43.3201 12.1459 43.804 11.9024M43.9932 16.5953C43.73 16.3979 42.8765 15.9122 42.2605 15.5489M42.2605 15.5489C42.1751 15.8051 42.0945 16.0221 42.0226 16.2C41.8372 16.6592 41.6011 17.0305 41.313 17.314M42.6112 18.7274C42.4862 18.5827 41.9447 17.9931 41.313 17.314M41.313 17.314C40.9041 17.7164 40.3904 17.9417 39.7684 17.9901M39.9263 20.1291C39.9066 19.7343 39.8473 18.5903 39.7684 17.9901M39.7684 17.9901C39.6834 17.9967 39.5963 18 39.5073 18C38.978 18 38.1569 17.8833 37.0439 17.7529M37.0439 19.9515V17.7529M37.0439 17.7529C36.2413 17.6588 35.287 17.5575 34.181 17.4877M34.0826 19.7145C34.1089 19.2473 34.1652 18.0089 34.181 17.4877M18.9958 11.8954C22.8009 10.7153 27.9604 10.3154 31.4079 10.3154C34.8621 10.3154 40.0021 10.7168 43.804 11.9024" stroke="#1E1E1E" stroke-width="0.6" stroke-linecap="round"/>
</svg>
