<svg width="63" height="84" viewBox="0 0 63 84" fill="none" xmlns="http://www.w3.org/2000/svg">
<path d="M15.3041 27C15.4552 29.7094 15.3521 33.3577 15.149 37.1813M16.9264 70.7379C16.9264 70.1379 17.247 68.5981 17.247 67.7098M16.9264 70.7379C15.3954 69.4945 14.6781 67.6139 14.4041 66C13.9959 63.5958 13.9641 60.6 13.9641 55.9652C13.9641 52.8931 14.7497 44.6983 15.149 37.1813M16.9264 70.7379C17.6761 71.3467 18.6208 71.8028 19.8041 72C19.9108 72.0178 20.0192 72.0345 20.129 72.0503M20.129 72.0503C20.0857 71.3877 20.0252 69.6785 20.129 68.9769M20.129 72.0503C21.1997 72.2036 22.409 72.2611 23.6408 72.2663M23.6408 72.2663V69.3005M23.6408 72.2663C24.8836 72.2715 26.1494 72.2234 27.3189 72.1667M27.3189 72.1667C27.3189 71.5937 27.3868 69.8933 27.4548 69.3005M27.3189 72.1667C28.8799 72.091 30.2707 72 31.2053 72M31.2053 72L31.2041 69.2006M31.2053 72C32.1428 72 33.5381 72.0916 35.105 72.1674M47.1053 27C46.9542 29.7093 47.0573 33.3574 47.2604 37.181M45.4288 70.7813C45.4288 70.1813 45.1623 68.5981 45.1623 67.7098M45.4288 70.7813C46.9971 69.5386 47.728 67.6328 48.0053 66C48.4135 63.5958 48.4453 60.6 48.4453 55.9652C48.4453 52.8931 47.6596 44.698 47.2604 37.181M45.4288 70.7813C44.688 71.3684 43.7603 71.8075 42.6053 72C42.4985 72.0178 42.3902 72.0345 42.2804 72.0503M42.2804 72.0503C42.3236 71.3877 42.3841 69.6785 42.2804 68.9769M42.2804 72.0503C41.2097 72.2036 40.0004 72.2611 38.7686 72.2663M38.7686 72.2663V69.3005M38.7686 72.2663C37.5309 72.2715 36.2705 72.2238 35.105 72.1674M35.105 72.1674C35.105 71.5944 35.0225 69.8933 34.9546 69.3005M31.2047 63.6C34.7384 63.375 42.6047 61.5 42.6047 59.4C42.6047 58.5 40.8047 58.2 39.0047 58.5M8.52266 35.8272C8.58925 34.9548 8.58659 34.2779 8.68249 33.5268M8.52266 35.8272C9.07162 36.0095 9.77802 36.2045 10.5809 36.3923M8.52266 35.8272C8.36982 35.7764 8.22918 35.7266 8.10206 35.6782C6.2758 34.9833 5.84635 33.4823 5.8941 32.2823C5.94186 31.0823 6.93722 28.5845 8.10194 24.9C9.26666 21.2155 10.6608 19.0047 12.9019 16.5C14.3236 14.9111 15.6753 13.6252 16.9896 12.5774C17.3794 12.2667 17.5743 12.1469 17.9035 11.977C18.2327 11.8071 18.5766 11.789 18.7927 11.8954M10.5809 36.3923C10.5904 35.4617 10.7625 34.3703 10.8402 33.8264M10.5809 36.3923C11.2264 36.5432 11.9343 36.6895 12.6729 36.8206M12.6729 36.8206C12.8793 35.8187 13.1017 34.674 13.1976 34.2859M12.6729 36.8206C13.4068 36.9509 14.1709 37.0663 14.9342 37.1566M12.6729 36.8206L14.9342 37.1566M14.9342 37.1566C15.0058 37.1651 15.0774 37.1733 15.149 37.1813M53.8836 35.8272C53.817 34.9548 53.8197 34.2779 53.7238 33.5268M53.8836 35.8272C53.3346 36.0095 52.6282 36.2045 51.8254 36.3923M53.8836 35.8272C54.0364 35.7764 54.1771 35.7266 54.3042 35.6782C56.1305 34.9833 56.5599 33.4823 56.5122 32.2823C56.4644 31.0823 55.469 28.5845 54.3043 24.9C53.1396 21.2155 51.7454 19.0047 49.5043 16.5C48.019 14.8399 46.61 13.5107 45.2403 12.4381C44.9103 12.1797 44.9014 12.1966 44.5658 12.0048C44.2302 11.8131 43.8209 11.7917 43.6008 11.9024M51.8254 36.3923C51.8159 35.4617 51.6438 34.3703 51.5661 33.8264M51.8254 36.3923C51.1856 36.5419 50.4847 36.6868 49.7533 36.8171M49.7533 36.8171C49.5469 35.8152 49.3045 34.674 49.2086 34.2859M49.7533 36.8171C49.0118 36.9491 48.2391 37.066 47.4674 37.1571C47.3983 37.1653 47.3293 37.1732 47.2604 37.181M18.0056 14.5026C18.3215 14.2994 19.3305 13.8434 19.836 13.645M19.836 13.645C19.7344 12.6363 19.282 12.1363 18.7927 11.8954M19.836 13.645C20.0058 14.4239 20.1867 15.0583 20.3503 15.549M18.6176 16.5953C18.8808 16.3979 19.7343 15.9122 20.3503 15.549M20.3503 15.549C20.4357 15.8051 20.5163 16.0221 20.5882 16.2001C20.7726 16.6569 21.0073 17.0267 21.2933 17.3096M19.9996 18.7275C20.1246 18.5827 20.6616 17.9888 21.2933 17.3096M21.2933 17.3096C21.703 17.7148 22.2181 17.9416 22.8424 17.9901M22.6845 20.1292C22.7043 19.7343 22.7635 18.5903 22.8424 17.9901M22.8424 17.9901C22.8424 17.9901 23.0145 18.0001 23.1035 18.0001C23.6328 18.0001 24.4539 17.8833 25.5669 17.7529M25.5669 19.9515V17.7529M25.5669 17.7529C26.3694 17.6588 27.3236 17.5575 28.4295 17.4877M28.5282 19.7146C28.5019 19.2473 28.4453 18.0089 28.4295 17.4877M28.4295 17.4877C29.2671 17.4349 30.1918 17.4001 31.2035 17.4001M31.2035 19.7146V17.4001M31.2035 17.4001C32.2153 17.4001 33.1401 17.4349 33.9779 17.4877M44.4021 14.5026C44.0862 14.2994 43.0771 13.8434 42.5717 13.645M42.5717 13.645C42.4019 14.4239 42.221 15.0583 42.0574 15.5489M42.5717 13.645C42.6723 12.6459 43.117 12.1459 43.6008 11.9024M43.7901 16.5953C43.5268 16.3979 42.6734 15.9122 42.0574 15.5489M42.0574 15.5489C41.972 15.8051 41.8914 16.0221 41.8195 16.2C41.6341 16.6592 41.398 17.0305 41.1099 17.314M42.4081 18.7274C42.2831 18.5827 41.7416 17.9931 41.1099 17.314M41.1099 17.314C40.7009 17.7164 40.1873 17.9417 39.5652 17.9901M39.7232 20.1291C39.7034 19.7343 39.6442 18.5903 39.5652 17.9901M39.5652 17.9901C39.4802 17.9967 39.3932 18 39.3041 18C38.7749 18 37.9537 17.8833 36.8408 17.7529M36.8408 19.9515V17.7529M36.8408 17.7529C36.0382 17.6588 35.0839 17.5575 33.9779 17.4877M33.8795 19.7145C33.9058 19.2473 33.9621 18.0089 33.9779 17.4877M18.7927 11.8954C22.5978 10.7153 27.7573 10.3154 31.2047 10.3154C34.659 10.3154 39.7989 10.7168 43.6008 11.9024" stroke="#1E1E1E" stroke-width="0.6" stroke-linecap="round"/>
</svg>
