<svg width="63" height="84" viewBox="0 0 63 84" fill="none" xmlns="http://www.w3.org/2000/svg">
<path d="M15.5057 27C15.9538 35.0358 14.1656 51.3305 14.1656 55.9652C14.1656 58.9217 14.1786 61.2113 14.2939 63.1058M17.128 70.7379C17.128 70.1379 17.4486 68.5981 17.4486 67.7098M17.128 70.7379C15.597 69.4945 14.8797 67.6139 14.6057 66C14.4579 65.1294 14.3594 64.1813 14.2939 63.1058M17.128 70.7379C17.8776 71.3467 18.8224 71.8028 20.0057 72C20.1124 72.0178 20.2207 72.0345 20.3305 72.0503M20.3305 72.0503C20.2873 71.3877 20.2268 69.6785 20.3305 68.9769M20.3305 72.0503C21.4012 72.2036 22.6105 72.2611 23.8424 72.2663M23.8424 72.2663V69.3005M23.8424 72.2663C25.0852 72.2715 26.3509 72.2234 27.5204 72.1667M27.5204 72.1667C27.5204 71.5937 27.5884 69.8933 27.6564 69.3005M27.5204 72.1667C29.0815 72.091 30.4722 72 31.4068 72M31.4068 72L31.4057 69.2006M31.4068 72C32.3444 72 33.7397 72.0916 35.3066 72.1674M47.3068 27C46.8587 35.0358 48.6469 51.3305 48.6469 55.9652C48.6469 58.9242 48.6339 61.2151 48.5183 63.1106M45.6304 70.7813C45.6304 70.1813 45.3639 68.5981 45.3639 67.7098M45.6304 70.7813C47.1987 69.5386 47.9296 67.6328 48.2068 66C48.3544 65.1307 48.4528 64.1841 48.5183 63.1106M45.6304 70.7813C44.8896 71.3684 43.9618 71.8075 42.8068 72C42.7001 72.0178 42.5918 72.0345 42.482 72.0503M42.482 72.0503C42.5252 71.3877 42.5857 69.6785 42.482 68.9769M42.482 72.0503C41.4113 72.2036 40.202 72.2611 38.9701 72.2663M38.9701 72.2663V69.3005M38.9701 72.2663C37.7325 72.2715 36.4721 72.2238 35.3066 72.1674M35.3066 72.1674C35.3066 71.5944 35.2241 69.8933 35.1561 69.3005M31.4062 63.6C34.9399 63.375 42.8063 61.5 42.8063 59.4C42.8063 58.5 41.0063 58.2 39.2063 58.5M5.59872 63.2155C5.66531 62.3431 5.66265 61.3625 5.75855 60.6113M5.59872 63.2155C5.93124 63.3707 6.25241 63.4726 6.50358 63.5564C6.72062 63.6287 7.13531 63.7192 7.65651 63.8106M5.59872 63.2155C4.73974 62.8144 3.80495 62.0572 3.80495 60.3372C3.80495 57.9512 3.80437 54.9816 3.80495 51.237C3.80552 47.4924 4.1677 42.4385 5.15728 36.4156C6.14686 30.3927 6.76697 27.6859 8.94473 23.1196C11.1225 18.5534 11.9055 17.1 15.8055 13.5C16.211 13.1257 16.6164 12.7774 17.0216 12.4529C17.3514 12.1888 17.7647 11.9761 18.0268 11.8965C18.2888 11.8169 18.6756 11.7752 18.9901 11.8965M7.65651 63.8106C7.65651 62.8635 7.83632 61.4704 7.91623 60.911M7.65651 63.8106C8.26545 63.9175 9.0198 64.0257 9.77423 64.1078M9.77423 64.1078C9.98068 63.1059 10.1778 61.7585 10.2737 61.3705M9.77423 64.1078C10.622 64.2001 11.4699 64.2595 12.1117 64.2471M12.1117 64.2471C12.4314 63.6478 12.9018 62.2895 12.9018 61.5703M12.1117 64.2471C12.437 64.2409 12.7093 64.2162 12.9018 64.1681C13.5459 64.0071 13.9643 63.6628 14.2939 63.1058M57.2107 63.2155C57.1441 62.3431 57.1467 61.3625 57.0508 60.6113M57.2107 63.2155C56.8781 63.3707 56.557 63.4726 56.3058 63.5564C56.0888 63.6287 55.6741 63.7192 55.1529 63.8106M57.2107 63.2155C58.0696 62.8144 59.0044 62.0572 59.0044 60.3372C59.0044 57.9512 59.005 54.9816 59.0044 51.237C59.0039 47.4924 58.6417 42.4385 57.6521 36.4156C56.6625 30.3927 56.0424 27.6859 53.8646 23.1196C51.6869 18.5534 50.9039 17.1 47.0039 13.5C46.716 13.2343 46.4282 12.9817 46.1404 12.7414C45.6929 12.3676 45.5235 12.1826 45.0843 11.9781C44.645 11.7736 44.1233 11.7776 43.8042 11.903M55.1529 63.8106C55.1529 62.8635 54.9731 61.4704 54.8931 60.911M55.1529 63.8106C54.5439 63.9175 53.7896 64.0256 53.0351 64.1078M53.0351 64.1078C52.8287 63.1059 52.6316 61.7585 52.5357 61.3705M53.0351 64.1078C52.223 64.1962 51.4108 64.2544 50.7798 64.2483M50.7798 64.2483C50.4601 63.649 49.9076 62.2895 49.9076 61.5703M50.7798 64.2483C50.4182 64.2448 50.1161 64.2202 49.9076 64.1681C49.2654 64.0075 48.8475 63.6648 48.5183 63.1106M17.683 14.5978C18.1022 14.2022 19.3315 13.2147 20.2072 12.7546M20.2072 12.7546C19.8353 12.3468 19.4258 12.0645 18.9901 11.8965M20.2072 12.7546C20.2901 12.8456 20.3712 12.9428 20.4503 13.0464C20.7935 13.4959 21.2531 14.1864 21.9365 14.9294M19.8869 16.7137C20.2209 16.4601 21.2092 15.6716 21.9365 14.9294M21.9365 14.9294C22.5253 15.5697 23.2802 16.249 24.2698 16.8469M22.4472 19.0513C22.8925 18.6246 23.973 17.4406 24.2698 16.8469M24.2698 16.8469C25.0128 17.2957 25.888 17.6986 26.9246 18.0047M25.8251 20.6372C26.0787 20.0187 26.7168 18.4648 26.9246 18.0047M26.9246 18.0047C27.7575 18.2507 28.6947 18.4341 29.751 18.5285M29.4056 21.6131C29.571 20.8308 29.751 18.9466 29.751 18.5285M29.751 18.5285C30.2728 18.5751 30.8237 18.6 31.4056 18.6C31.9873 18.6 32.5382 18.5751 33.0599 18.5285M45.1279 14.5978C44.7087 14.2023 43.4916 13.2015 42.6159 12.7414M42.6159 12.7414C42.5287 12.8361 42.4436 12.9377 42.3607 13.0464C42.0174 13.496 41.5577 14.1866 40.8742 14.9297M42.6159 12.7414C42.9798 12.3459 43.3794 12.0699 43.8042 11.903M42.924 16.7137C42.5901 16.4601 41.6015 15.6719 40.8742 14.9297M40.8742 14.9297C40.2829 15.5728 39.5239 16.2552 38.528 16.8549M40.3637 19.0514C39.9184 18.6246 38.8248 17.4486 38.528 16.8549M38.528 16.8549C37.7879 17.3005 36.9169 17.7005 35.8866 18.0047M36.9858 20.6372C36.7323 20.0187 36.0943 18.4648 35.8866 18.0047M35.8866 18.0047C35.0535 18.2507 34.1164 18.4341 33.0599 18.5285M33.4053 21.6131C33.2399 20.8308 33.0599 18.9466 33.0599 18.5285M18.9762 11.9008C18.9808 11.8993 18.9855 11.8979 18.9901 11.8965M18.9901 11.8965C22.7902 10.7155 27.9578 10.3154 31.4063 10.3154C34.8611 10.3154 40.0021 10.717 43.8042 11.903" stroke="#1E1E1E" stroke-width="0.6" stroke-linecap="round"/>
</svg>
