<svg width="64" height="84" viewBox="0 0 64 84" fill="none" xmlns="http://www.w3.org/2000/svg">
<path d="M17.0957 27C17.0957 27 16.8439 33.9634 16.8438 36.3063C16.8437 37.9391 16.8204 40.2961 18.0248 41.778M20.7206 43.1335C20.6773 42.4709 20.6168 40.7617 20.7206 40.0601M20.7206 43.1335C20.6108 43.1177 20.5024 43.101 20.3957 43.0832C19.3046 42.9014 18.5486 42.4224 18.0248 41.778M20.7206 43.1335C21.7912 43.2868 23.0006 43.3443 24.2324 43.3495M24.2324 43.3495V40.3837M24.2324 43.3495C25.4752 43.3547 26.7409 43.3066 27.9104 43.2499M27.9104 43.2499C27.9104 42.6769 27.9784 40.9765 28.0464 40.3837M27.9104 43.2499C29.4715 43.1742 30.8634 43.0832 31.798 43.0832M31.798 43.0832L31.7957 40.2838M31.798 43.0832V40.2838M31.798 43.0832C32.7327 43.0832 34.1222 43.1742 35.6833 43.2499M46.498 27C46.498 27 46.7498 33.9634 46.7499 36.3063C46.75 37.9403 46.7734 40.2996 45.5663 41.7813M42.8732 43.1335C42.9164 42.4709 42.9769 40.7617 42.8732 40.0601M42.8732 43.1335C42.983 43.1177 43.0913 43.101 43.198 43.0832C44.2873 42.9017 45.0426 42.4241 45.5663 41.7813M42.8732 43.1335C41.8025 43.2868 40.5932 43.3443 39.3613 43.3495M39.3613 43.3495V40.3837M39.3613 43.3495C38.1185 43.3547 36.8528 43.3066 35.6833 43.2499M35.6833 43.2499C35.6833 42.6769 35.6153 40.9765 35.5473 40.3837M31.7969 36C35.3306 35.775 43.1969 33.9 43.1969 31.8C43.1969 30.9 41.3969 30.6 39.5969 30.9M5.98934 63.2155C6.05594 62.3431 6.05328 61.3625 6.14917 60.6113M5.98934 63.2155C6.32187 63.3707 6.64303 63.4726 6.8942 63.5564C7.11125 63.6287 7.52593 63.7192 8.04713 63.8106M5.98934 63.2155C5.13037 62.8144 4.19557 62.0572 4.19557 60.3372C4.19557 57.9512 4.19499 54.9816 4.19557 51.237C4.19615 47.4924 4.55833 42.4385 5.54791 36.4156C6.53749 30.3927 7.15759 27.6859 9.33536 23.1196C11.5131 18.5534 12.2961 17.1 16.1961 13.5C16.6483 13.0826 17.1004 12.6975 17.5521 12.3419C17.8457 12.1107 18.1457 11.9751 18.4083 11.8954C18.6709 11.8157 19.0514 11.7312 19.3849 11.8954M8.04713 63.8106C8.04713 62.8635 8.22694 61.4704 8.30685 60.911M8.04713 63.8106C8.65608 63.9175 9.41042 64.0257 10.1649 64.1078M10.1649 64.1078C10.3713 63.1059 10.5684 61.7585 10.6643 61.3705M10.1649 64.1078C11.0126 64.2001 11.8605 64.2595 12.5023 64.2471M12.5023 64.2471C12.822 63.6478 13.2924 62.2895 13.2924 61.5703M12.5023 64.2471C12.8276 64.2409 13.0999 64.2162 13.2924 64.1681C14.4925 63.8681 14.9093 62.9318 15.4274 61.169C15.7905 59.9336 16.6397 52.1825 18.0248 41.778M57.6013 63.2155C57.5347 62.3431 57.5374 61.3625 57.4415 60.6113M57.6013 63.2155C57.2688 63.3707 56.9476 63.4726 56.6964 63.5564C56.4794 63.6287 56.0647 63.7192 55.5435 63.8106M57.6013 63.2155C58.4603 62.8144 59.3951 62.0572 59.3951 60.3372C59.3951 57.9512 59.3956 54.9816 59.3951 51.237C59.3945 47.4924 59.0323 42.4385 58.0427 36.4156C57.0531 30.3927 56.433 27.6859 54.2553 23.1196C52.0775 18.5534 51.2945 17.1 47.3945 13.5C47.005 13.1404 46.6155 12.8048 46.2263 12.4914C45.87 12.2044 45.651 12.0389 45.3053 11.9024C44.9596 11.766 44.5302 11.7327 44.193 11.9024M55.5435 63.8106C55.5435 62.8635 55.3637 61.4704 55.2838 60.911M55.5435 63.8106C54.9346 63.9175 54.1802 64.0256 53.4258 64.1078M53.4258 64.1078C53.2193 63.1059 53.0222 61.7585 52.9263 61.3705M53.4258 64.1078C52.6137 64.1962 51.8014 64.2544 51.1704 64.2483M51.1704 64.2483C50.8507 63.649 50.2982 62.2895 50.2982 61.5703M51.1704 64.2483C50.8088 64.2448 50.5067 64.2202 50.2982 64.1681C49.0982 63.8681 48.6813 62.9318 48.1632 61.169C47.8002 59.9338 46.9512 52.1841 45.5663 41.7813M18.5978 14.5026C18.9137 14.2994 19.9227 13.8434 20.4281 13.645M20.4281 13.645C20.3266 12.6363 19.8742 12.1363 19.3849 11.8954M20.4281 13.645C20.5979 14.4239 20.7789 15.0583 20.9425 15.549M19.2098 16.5953C19.473 16.3979 20.3265 15.9122 20.9425 15.549M20.9425 15.549C21.0278 15.8051 21.1085 16.0221 21.1804 16.2001C21.3648 16.6569 21.5995 17.0267 21.8855 17.3096M20.5918 18.7275C20.7168 18.5827 21.2538 17.9888 21.8855 17.3096M21.8855 17.3096C22.2952 17.7148 22.8103 17.9416 23.4346 17.9901M23.2767 20.1292C23.2964 19.7343 23.3557 18.5903 23.4346 17.9901M23.4346 17.9901C23.4346 17.9901 23.6067 18.0001 23.6957 18.0001C24.225 18.0001 25.0461 17.8833 26.1591 17.7529M26.1591 19.9515V17.7529M26.1591 17.7529C26.9616 17.6588 27.9158 17.5575 29.0217 17.4877M29.1204 19.7146C29.0941 19.2473 29.0375 18.0089 29.0217 17.4877M29.0217 17.4877C29.8593 17.4349 30.784 17.4001 31.7957 17.4001M31.7957 19.7146V17.4001M31.7957 17.4001C32.8075 17.4001 33.7323 17.4349 34.5701 17.4877M44.9943 14.5026C44.6784 14.2994 43.6693 13.8434 43.1639 13.645M43.1639 13.645C42.9941 14.4239 42.8132 15.0583 42.6496 15.5489M43.1639 13.645C43.2645 12.6459 43.7091 12.1459 44.193 11.9024M44.3823 16.5953C44.119 16.3979 43.2656 15.9122 42.6496 15.5489M42.6496 15.5489C42.5642 15.8051 42.4836 16.0221 42.4117 16.2C42.2263 16.6592 41.9902 17.0305 41.7021 17.314M43.0003 18.7274C42.8753 18.5827 42.3338 17.9931 41.7021 17.314M41.7021 17.314C41.2931 17.7164 40.7795 17.9417 40.1574 17.9901M40.3154 20.1291C40.2956 19.7343 40.2364 18.5903 40.1574 17.9901M40.1574 17.9901C40.0724 17.9967 39.9854 18 39.8963 18C39.3671 18 38.5459 17.8833 37.433 17.7529M37.433 19.9515V17.7529M37.433 17.7529C36.6304 17.6588 35.6761 17.5575 34.5701 17.4877M34.4717 19.7145C34.498 19.2473 34.5543 18.0089 34.5701 17.4877M19.3849 11.8954C23.19 10.7153 28.3495 10.3154 31.7969 10.3154C35.2512 10.3154 40.3911 10.7168 44.193 11.9024" stroke="#1E1E1E" stroke-width="0.6" stroke-linecap="round"/>
</svg>
