<svg width="64" height="84" viewBox="0 0 64 84" fill="none" xmlns="http://www.w3.org/2000/svg">
<path d="M15.8971 27C15.8971 27 15.2943 32.2888 15.0419 37.0958M17.5735 49.3409C17.5735 48.7409 17.84 47.1406 17.84 46.2523M17.5735 49.3409C16.181 48.1666 15.599 46.2608 15.1262 43.7657C14.8682 42.4044 14.8984 39.8279 15.0419 37.0958M17.5735 49.3409C18.2774 49.9344 19.1884 50.3411 20.3971 50.5425C20.5039 50.5603 20.6122 50.5771 20.722 50.5928M20.722 50.5928C20.6788 49.9302 20.6182 48.221 20.722 47.5195M20.722 50.5928C21.7927 50.7462 23.002 50.8037 24.2338 50.8088M24.2338 50.8088V47.8431M24.2338 50.8088C25.4766 50.814 26.7424 50.7659 27.9119 50.7092M27.9119 50.7092C27.9119 50.1362 27.9798 48.4358 28.0478 47.8431M27.9119 50.7092C29.4729 50.6335 30.8625 50.5425 31.7971 50.5425M31.7971 50.5425V47.7431M31.7971 50.5425L31.7998 47.7431M47.6998 27C47.6998 27 48.3026 32.2885 48.555 37.0954M46.0233 49.3409C46.0233 48.7409 45.7568 47.1406 45.7568 46.2523M46.0233 49.3409C47.4159 48.1666 47.9978 46.2608 48.4707 43.7657C48.7287 42.4043 48.6984 39.8276 48.555 37.0954M46.0233 49.3409C45.3194 49.9344 44.4085 50.3411 43.1998 50.5425C43.093 50.5603 42.9847 50.5771 42.8749 50.5928M42.8749 50.5928C42.9181 49.9302 42.9786 48.221 42.8749 47.5195M42.8749 50.5928C41.8109 50.7452 40.6099 50.803 39.386 50.8087M39.386 50.8087L39.3631 47.8431M39.386 50.8087C38.1594 50.8145 36.9097 50.7681 35.7516 50.7124M35.7516 50.7124C35.7516 50.1395 35.617 48.4358 35.549 47.8431M35.7516 50.7124C34.1635 50.6361 32.7476 50.5425 31.7998 50.5425M31.7984 43.2C35.3321 42.975 43.1984 41.1 43.1984 39C43.1984 38.1 41.3984 37.8 39.5984 38.1M9.11641 35.8272C9.183 34.9548 9.18034 34.2779 9.27624 33.5268M9.11641 35.8272C9.66537 36.0095 10.3718 36.2045 11.1746 36.3923M9.11641 35.8272C8.96357 35.7764 8.82293 35.7266 8.69581 35.6782C6.86955 34.9833 6.4401 33.4823 6.48785 32.2823C6.53561 31.0823 7.53097 28.5845 8.69569 24.9C9.23067 23.2076 9.81405 21.8262 10.5057 20.5844C10.8193 20.0212 11.3763 19.2849 11.9593 18.7894C12.5422 18.2939 13.1682 18.1215 14.3457 17.9919M11.1746 36.3923C11.1841 35.4617 11.3562 34.3703 11.4339 33.8264M11.1746 36.3923C11.8202 36.5432 12.5281 36.6895 13.2666 36.8206M13.2666 36.8206C13.4731 35.8187 13.6955 34.674 13.7914 34.2859M13.2666 36.8206C13.8447 36.9232 14.4415 37.0166 15.0419 37.0958M54.4773 35.8272C54.4108 34.9548 54.4134 34.2779 54.3175 33.5268M54.4773 35.8272C53.9284 36.0095 53.222 36.2045 52.4191 36.3923M54.4773 35.8272C54.6302 35.7764 54.7708 35.7266 54.8979 35.6782C56.7242 34.9833 57.1537 33.4823 57.1059 32.2823C57.0581 31.0823 56.0628 28.5845 54.8981 24.9C54.6939 24.2543 54.4828 23.6538 54.2612 23.0891C54.0113 22.3872 53.1871 21.1063 51.9983 19.6672C51.1396 18.6277 50.0381 18.1674 48.4433 17.9919M52.4191 36.3923C52.4096 35.4617 52.2375 34.3703 52.1598 33.8264M52.4191 36.3923C51.7794 36.5419 51.0784 36.6868 50.3471 36.8171M50.3471 36.8171C50.1406 35.8152 49.8983 34.674 49.8024 34.2859M50.3471 36.8171C49.7638 36.9209 49.1612 37.0154 48.555 37.0954M16.768 12.7998C16.9324 13.503 17.2502 15.6705 17.2063 17.906M17.2063 17.906C16.8154 17.9016 16.5442 17.899 16.4188 17.899C15.6453 17.899 14.9591 17.9244 14.3457 17.9919M17.2063 17.906L17.989 17.9151M13.7563 20.5844C13.9264 19.8805 14.2158 18.6045 14.3457 17.9919M17.8393 20.4411C17.9244 19.7326 17.989 18.3125 17.989 17.9151M17.989 17.9151L18.1223 17.9167C19.0316 17.9274 20.2358 17.9416 21.6091 17.9552M21.4686 20.5844C21.5073 19.8496 21.5905 18.4936 21.6091 17.9552M21.6091 17.9552C22.7603 17.9666 24.0304 17.9776 25.3452 17.9857M25.3452 20.5844C25.3452 19.2849 25.3456 18.2005 25.3452 17.9857M25.3452 17.9857C26.564 17.9932 27.8214 17.9983 29.058 17.9989M29.058 20.5844V17.9989M29.058 17.9989C29.8494 17.9993 30.6388 17.9979 31.3978 17.9943C32.1566 17.9979 32.9395 17.9993 33.7307 17.9989M46.0211 12.7998C45.8567 13.503 45.5389 15.6705 45.5827 17.906M45.5827 17.906C45.9737 17.9016 46.2449 17.899 46.3703 17.899C47.1438 17.899 47.83 17.9244 48.4433 17.9919M45.5827 17.906L44.8001 17.9151M49.0328 20.5844C48.8626 19.8805 48.5733 18.6045 48.4433 17.9919M44.9498 20.4411C44.8647 19.7326 44.8001 18.3125 44.8001 17.9151M44.8001 17.9151L44.6672 17.9167C43.7578 17.9274 42.5535 17.9416 41.18 17.9552M41.3205 20.5844C41.2818 19.8496 41.1986 18.4936 41.18 17.9552M41.18 17.9552C40.0288 17.9666 38.7587 17.9776 37.4439 17.9857M37.4439 20.5844C37.4439 19.2849 37.4435 18.2005 37.4439 17.9857M37.4439 17.9857C36.2249 17.9932 34.9675 17.9983 33.7307 17.9989M33.731 20.5844L33.7307 17.9989" stroke="#1E1E1E" stroke-width="0.6" stroke-linecap="round"/>
</svg>
