<svg width="63" height="84" viewBox="0 0 63 84" fill="none" xmlns="http://www.w3.org/2000/svg">
<path d="M15.1065 27C15.1065 27 13.6237 51.7908 14.3355 55.5472C14.5441 56.6479 14.7739 57.6338 15.0852 58.4929M16.7829 61.1224C16.7829 60.5224 17.0494 58.9221 17.0494 58.0338M16.7829 61.1224C17.4868 61.716 18.3978 62.1226 19.6065 62.3241C19.7132 62.3419 19.8216 62.3586 19.9314 62.3743M16.7829 61.1224C16.0046 60.4661 15.4795 59.5814 15.0852 58.4929M19.9314 62.3743C19.8881 61.7118 19.8276 60.0025 19.9314 59.301M19.9314 62.3743C21.002 62.5277 22.2113 62.5852 23.4432 62.5904M23.4432 62.5904V59.6246M23.4432 62.5904C24.686 62.5955 25.9517 62.5474 27.1212 62.4907M27.1212 62.4907C27.1212 61.9178 27.1892 60.2174 27.2572 59.6246M27.1212 62.4907C28.6823 62.4151 30.0719 62.3241 31.0065 62.3241M31.0065 62.3241V59.5247M31.0065 62.3241L31.0091 59.5247M31.0065 62.3241C31.9411 62.3241 33.3333 62.4151 34.8944 62.4907M46.9091 27C46.9091 27 48.3919 51.7908 47.6801 55.5472C47.471 56.6505 47.2406 57.6386 46.9282 58.4992M45.3134 61.0527C45.3134 60.4527 44.9662 58.9221 44.9662 58.0338M45.3134 61.0527C44.5988 61.6842 43.6646 62.1148 42.4091 62.3241C42.3024 62.3419 42.1941 62.3586 42.0843 62.3743M45.3134 61.0527C46.0461 60.4053 46.5479 59.5467 46.9282 58.4992M42.0843 62.3743C42.1275 61.7118 42.188 60.0025 42.0843 59.301M42.0843 62.3743C41.0136 62.5277 39.8043 62.5852 38.5724 62.5904M38.5724 62.5904V59.6246M38.5724 62.5904C37.3296 62.5955 36.0639 62.5474 34.8944 62.4907M34.8944 62.4907C34.8944 61.9178 34.8264 60.2174 34.7584 59.6246M31.0078 54C34.5415 53.775 42.4078 51.9 42.4078 49.8C42.4078 48.9 40.6078 48.6 38.8078 48.9M5.20028 63.2155C5.26688 62.3431 5.26421 61.3625 5.36011 60.6113M5.20028 63.2155C5.53281 63.3707 5.85397 63.4726 6.10514 63.5564C6.32219 63.6287 6.73687 63.7192 7.25807 63.8106M5.20028 63.2155C4.3413 62.8144 3.40651 62.0572 3.40651 60.3372C3.40651 57.9512 3.40593 54.9816 3.40651 51.237C3.40709 47.4924 3.76927 42.4385 4.75884 36.4156C5.74842 30.3927 6.36853 27.6859 8.54629 23.1196C10.7241 18.5534 11.5071 17.1 15.4071 13.5C15.7336 13.1986 16.0601 12.914 16.3865 12.6452C16.8058 12.2998 17.2031 12.0242 17.5326 11.8954C17.8621 11.7666 18.2623 11.7312 18.5958 11.8954M7.25807 63.8106C7.25807 62.8635 7.43788 61.4704 7.51779 60.911M7.25807 63.8106C7.86702 63.9175 8.62136 64.0257 9.3758 64.1078M9.3758 64.1078C9.58224 63.1059 9.77936 61.7585 9.87526 61.3705M9.3758 64.1078C10.2236 64.2001 11.0715 64.2595 11.7133 64.2471M11.7133 64.2471C12.0329 63.6478 12.5034 62.2895 12.5034 61.5703M11.7133 64.2471C12.0385 64.2409 12.3108 64.2162 12.5034 64.1681C13.7034 63.8681 14.1202 62.9318 14.6383 61.169C14.7449 60.8062 14.8935 59.8816 15.0852 58.4929M56.8122 63.2155C56.7456 62.3431 56.7483 61.3625 56.6524 60.6113M56.8122 63.2155C56.4797 63.3707 56.1585 63.4726 55.9074 63.5564C55.6903 63.6287 55.2756 63.7192 54.7544 63.8106M56.8122 63.2155C57.6712 62.8144 58.606 62.0572 58.606 60.3372C58.606 57.9512 58.6066 54.9816 58.606 51.237C58.6054 47.4924 58.2432 42.4385 57.2537 36.4156C56.2641 30.3927 55.644 27.6859 53.4662 23.1196C51.2884 18.5534 50.5055 17.1 46.6054 13.5C46.0714 13.0391 45.6269 12.6117 45.0105 12.2484C44.394 11.8851 43.7467 11.7299 43.404 11.9024M54.7544 63.8106C54.7544 62.8635 54.5746 61.4704 54.4947 60.911M54.7544 63.8106C54.1455 63.9175 53.3911 64.0256 52.6367 64.1078M52.6367 64.1078C52.4303 63.1059 52.2331 61.7585 52.1372 61.3705M52.6367 64.1078C51.8246 64.1962 51.0124 64.2544 50.3813 64.2483M50.3813 64.2483C50.0617 63.649 49.5091 62.2895 49.5091 61.5703M50.3813 64.2483C50.0198 64.2448 49.7177 64.2202 49.5091 64.1681C48.3091 63.8681 47.8923 62.9318 47.3742 61.169C47.2677 60.8068 47.1195 59.8844 46.9282 58.4992M17.8087 14.5026C18.1246 14.2994 19.1337 13.8434 19.6391 13.645M19.6391 13.645C19.5375 12.6363 19.0852 12.1363 18.5958 11.8954M19.6391 13.645C19.8089 14.4239 19.9898 15.0583 20.1534 15.549M18.4207 16.5953C18.684 16.3979 19.5374 15.9122 20.1534 15.549M20.1534 15.549C20.2388 15.8051 20.3194 16.0221 20.3913 16.2001C20.5758 16.6569 20.8104 17.0267 21.0965 17.3096M19.8027 18.7275C19.9277 18.5827 20.4647 17.9888 21.0965 17.3096M21.0965 17.3096C21.5061 17.7148 22.0212 17.9416 22.6456 17.9901M22.4876 20.1292C22.5074 19.7343 22.5666 18.5903 22.6456 17.9901M22.6456 17.9901C22.6456 17.9901 22.8176 18.0001 22.9067 18.0001C23.436 18.0001 24.2571 17.8833 25.37 17.7529M25.37 19.9515V17.7529M25.37 17.7529C26.1725 17.6588 27.1267 17.5575 28.2326 17.4877M28.3313 19.7146C28.305 19.2473 28.2484 18.0089 28.2326 17.4877M28.2326 17.4877C29.0703 17.4349 29.995 17.4001 31.0067 17.4001M31.0067 19.7146V17.4001M31.0067 17.4001C32.0185 17.4001 32.9433 17.4349 33.781 17.4877M44.2052 14.5026C43.8893 14.2994 42.8803 13.8434 42.3749 13.645M42.3749 13.645C42.2051 14.4239 42.0241 15.0583 41.8605 15.5489M42.3749 13.645C42.4754 12.6459 42.9201 12.1459 43.404 11.9024M43.5932 16.5953C43.33 16.3979 42.4765 15.9122 41.8605 15.5489M41.8605 15.5489C41.7751 15.8051 41.6945 16.0221 41.6226 16.2C41.4372 16.6592 41.2011 17.0305 40.913 17.314M42.2112 18.7274C42.0862 18.5827 41.5447 17.9931 40.913 17.314M40.913 17.314C40.5041 17.7164 39.9904 17.9417 39.3684 17.9901M39.5263 20.1291C39.5066 19.7343 39.4473 18.5903 39.3684 17.9901M39.3684 17.9901C39.2834 17.9967 39.1963 18 39.1073 18C38.578 18 37.7569 17.8833 36.6439 17.7529M36.6439 19.9515V17.7529M36.6439 17.7529C35.8413 17.6588 34.887 17.5575 33.781 17.4877M33.6826 19.7145C33.7089 19.2473 33.7652 18.0089 33.781 17.4877M18.5958 11.8954C22.4009 10.7153 27.5604 10.3154 31.0079 10.3154C34.4621 10.3154 39.6021 10.7168 43.404 11.9024" stroke="#1E1E1E" stroke-width="0.6" stroke-linecap="round"/>
</svg>
