<svg width="63" height="84" viewBox="0 0 63 84" fill="none" xmlns="http://www.w3.org/2000/svg">
<path d="M15.1065 27.0001C15.1065 27.0001 13.6237 40.0094 14.3355 43.7658C14.7512 45.9593 15.2512 47.6973 16.3122 48.8833M16.7829 49.341C16.7829 48.741 17.0494 47.1407 17.0494 46.2524M16.7829 49.341C17.4868 49.9345 18.3978 50.3412 19.6065 50.5426C19.7132 50.5604 19.8216 50.5772 19.9314 50.5929M16.7829 49.341C16.6146 49.199 16.4581 49.0464 16.3122 48.8833M19.9314 50.5929C19.8881 49.9303 19.8276 48.2211 19.9314 47.5196M19.9314 50.5929C21.002 50.7463 22.2113 50.8038 23.4432 50.8089M23.4432 50.8089V47.8432M23.4432 50.8089C24.686 50.8141 25.9517 50.766 27.1212 50.7093M27.1212 50.7093C27.1212 50.1363 27.1892 48.4359 27.2572 47.8432M27.1212 50.7093C28.6823 50.6336 30.0719 50.5426 31.0065 50.5426M31.0065 50.5426V47.7432M31.0065 50.5426L31.0091 47.7432M46.9091 27.0001C46.9091 27.0001 48.3919 40.0094 47.6801 43.7658C47.2638 45.9625 46.7629 47.7024 45.6988 48.8885M45.2327 49.341C45.2327 48.741 44.9662 47.1407 44.9662 46.2524M45.2327 49.341C44.5288 49.9345 43.6178 50.3412 42.4091 50.5426C42.3024 50.5604 42.1941 50.5772 42.0843 50.5929M45.2327 49.341C45.3993 49.2005 45.5542 49.0496 45.6988 48.8885M42.0843 50.5929C42.1275 49.9303 42.188 48.2211 42.0843 47.5196M42.0843 50.5929C41.0202 50.7453 39.8193 50.8031 38.5954 50.8088M38.5954 50.8088L38.5724 47.8432M38.5954 50.8088C37.3687 50.8146 36.119 50.7682 34.9609 50.7125M34.9609 50.7125C34.9609 50.1396 34.8264 48.4359 34.7584 47.8432M34.9609 50.7125C33.3729 50.6362 31.957 50.5426 31.0091 50.5426M31.0078 43.2001C34.5415 42.9751 42.4078 41.1001 42.4078 39.0001C42.4078 38.1001 40.6078 37.8001 38.8078 38.1001M5.20028 63.2156C5.26688 62.3432 5.26421 61.3626 5.36011 60.6114M5.20028 63.2156C5.53281 63.3708 5.85397 63.4727 6.10514 63.5565C6.32219 63.6288 6.73687 63.7193 7.25807 63.8107M5.20028 63.2156C4.3413 62.8145 3.40651 62.0573 3.40651 60.3373C3.40651 57.9513 3.40593 54.9817 3.40651 51.2371C3.40709 47.4925 3.76927 42.4386 4.75884 36.4157C5.74842 30.3927 6.36853 27.686 8.54629 23.1197C10.7241 18.5534 11.5071 17.1001 15.4071 13.5001C16.3397 12.6392 17.2723 11.9156 18.2008 11.3046C18.5479 11.0762 19.1589 10.7617 19.4511 10.6592C19.7432 10.5566 20.1463 10.5398 20.5618 10.6037M7.25807 63.8107C7.25807 62.8636 7.43788 61.4705 7.51779 60.9111M7.25807 63.8107C7.86702 63.9176 8.62136 64.0257 9.3758 64.1079M9.3758 64.1079C9.58224 63.106 9.77936 61.7586 9.87526 61.3706M9.3758 64.1079C10.2236 64.2002 11.0715 64.2596 11.7133 64.2472M11.7133 64.2472C12.0329 63.6479 12.5034 62.2896 12.5034 61.5704M11.7133 64.2472C12.0385 64.241 12.3108 64.2163 12.5034 64.1682C13.7034 63.8682 14.1202 62.9319 14.6383 61.1691C14.9118 60.2385 15.4657 55.5581 16.3122 48.8833M56.8122 63.2156C56.7456 62.3432 56.7483 61.3626 56.6524 60.6114M56.8122 63.2156C56.4797 63.3708 56.1585 63.4727 55.9074 63.5565C55.6903 63.6288 55.2756 63.7193 54.7544 63.8107M56.8122 63.2156C57.6712 62.8145 58.606 62.0573 58.606 60.3373C58.606 57.9513 58.6066 54.9817 58.606 51.2371C58.6054 47.4925 58.2432 42.4386 57.2537 36.4157C56.2641 30.3927 55.644 27.686 53.4662 23.1197C51.2884 18.5534 50.5055 17.1001 46.6054 13.5001C45.917 12.8646 45.2285 12.3039 44.5417 11.8081C43.9483 11.3796 43.5402 11.0654 43.0494 10.852C42.5585 10.6386 41.6358 10.5403 41.1268 10.6724M54.7544 63.8107C54.7544 62.8636 54.5746 61.4705 54.4947 60.9111M54.7544 63.8107C54.1455 63.9176 53.3911 64.0257 52.6367 64.1079M52.6367 64.1079C52.4303 63.106 52.2331 61.7586 52.1372 61.3706M52.6367 64.1079C51.8246 64.1963 51.0124 64.2545 50.3813 64.2484M50.3813 64.2484C50.0617 63.6491 49.5091 62.2896 49.5091 61.5704M50.3813 64.2484C50.0198 64.2449 49.7177 64.2203 49.5091 64.1682C48.3091 63.8682 47.8923 62.9319 47.3742 61.1691C47.1 60.2363 46.5487 55.5885 45.6988 48.8885M20.1228 13.0444C20.4881 12.7089 21.603 11.7986 22.3009 11.3513M22.3009 11.3513C21.7538 10.9693 21.1829 10.6992 20.5618 10.6037M22.3009 11.3513C22.8555 11.7386 23.3855 12.2408 23.9183 12.7925C24.0331 12.9113 24.1557 13.0374 24.2847 13.1694M22.4712 14.9678C22.6799 14.7144 23.4258 13.9209 24.2847 13.1694M24.2847 13.1694C24.8353 13.733 25.5024 14.4035 26.1757 15.0697M24.3722 16.7795C24.6928 16.5036 25.639 15.6781 26.1757 15.0697M26.1757 15.0697C26.8936 15.7799 27.6185 16.4851 28.2169 17.0504M26.5194 18.9266C26.8623 18.5463 27.7875 17.5693 28.2169 17.0504M28.2169 17.0504C28.8251 17.6249 29.3027 18.0549 29.5092 18.1986C29.7179 18.3438 29.8914 18.4527 30.0493 18.5337M29.0676 20.6519C29.3125 20.1295 29.7228 19.2847 30.0493 18.5337M30.0493 18.5337C30.3795 18.703 30.6416 18.75 31.0154 18.75C31.4489 18.75 31.7229 18.6868 32.1364 18.4428M41.8987 13.0444C41.5334 12.7089 40.4325 11.7888 39.7347 11.3415M39.7347 11.3415C40.1782 11.0336 40.6376 10.7994 41.1268 10.6724M39.7347 11.3415C39.1749 11.7301 38.6404 12.2361 38.1031 12.7925C37.9626 12.9379 37.8105 13.0943 37.6492 13.259M39.5503 14.9678C39.3415 14.7144 38.508 14.0105 37.6492 13.259M37.6492 13.259C37.1162 13.8033 36.4837 14.4385 35.8457 15.0697M37.6492 16.7795C37.3286 16.5036 36.3825 15.6781 35.8457 15.0697M35.8457 15.0697C35.1279 15.7799 34.4029 16.4851 33.8045 17.0504M35.5021 18.9266C35.1591 18.5463 34.234 17.5693 33.8045 17.0504M33.8045 17.0504C33.1963 17.6249 32.7188 18.0549 32.5122 18.1986C32.3732 18.2953 32.2499 18.3759 32.1364 18.4428M32.93 20.6935C32.788 20.3417 32.4048 19.232 32.1364 18.4428M20.5618 10.6037C22.7204 9.55788 27.2099 8.46631 30.9685 8.46631C34.7272 8.46631 38.9682 9.62662 41.1268 10.6724" stroke="#1E1E1E" stroke-width="0.6" stroke-linecap="round"/>
</svg>
