<svg width="63" height="84" viewBox="0 0 63 84" fill="none" xmlns="http://www.w3.org/2000/svg">
<path d="M16.3066 27C16.3066 27 16.0549 33.9634 16.0547 36.3063C16.0546 37.9391 16.0313 40.2961 17.2357 41.778M19.9315 43.1335C19.8883 42.4709 19.8278 40.7617 19.9315 40.0601M19.9315 43.1335C19.8217 43.1177 19.7134 43.101 19.6066 43.0832C18.5155 42.9014 17.7595 42.4224 17.2357 41.778M19.9315 43.1335C21.0022 43.2868 22.2115 43.3443 23.4433 43.3495M23.4433 43.3495V40.3837M23.4433 43.3495C24.6861 43.3547 25.9519 43.3066 27.1214 43.2499M27.1214 43.2499C27.1214 42.6769 27.1894 40.9765 27.2573 40.3837M27.1214 43.2499C28.6824 43.1742 30.0744 43.0832 31.009 43.0832M31.009 43.0832L31.0066 40.2838M31.009 43.0832V40.2838M31.009 43.0832C31.9436 43.0832 33.3332 43.1742 34.8942 43.2499M45.709 27C45.709 27 45.9607 33.9634 45.9609 36.3063C45.961 37.9403 45.9843 40.2996 44.7772 41.7813M42.0841 43.1335C42.1273 42.4709 42.1879 40.7617 42.0841 40.0601M42.0841 43.1335C42.1939 43.1177 42.3022 43.101 42.409 43.0832C43.4982 42.9017 44.2535 42.4241 44.7772 41.7813M42.0841 43.1335C41.0134 43.2868 39.8041 43.3443 38.5723 43.3495M38.5723 43.3495V40.3837M38.5723 43.3495C37.3295 43.3547 36.0637 43.3066 34.8942 43.2499M34.8942 43.2499C34.8942 42.6769 34.8263 40.9765 34.7583 40.3837M31.0078 36C34.5415 35.775 42.4078 33.9 42.4078 31.8C42.4078 30.9 40.6078 30.6 38.8078 30.9M5.20028 63.2155C5.26688 62.3431 5.26421 61.3625 5.36011 60.6113M5.20028 63.2155C5.53281 63.3707 5.85397 63.4726 6.10514 63.5564C6.32219 63.6287 6.73687 63.7192 7.25807 63.8106M5.20028 63.2155C4.3413 62.8144 3.40651 62.0572 3.40651 60.3372C3.40651 57.9512 3.40593 54.9816 3.40651 51.237C3.40709 47.4924 3.76927 42.4385 4.75884 36.4156C5.74842 30.3927 6.36853 27.6859 8.54629 23.1196C10.7241 18.5534 11.5071 17.1 15.4071 13.5C15.7595 13.1746 16.112 12.8689 16.4643 12.5814C16.8471 12.2689 17.1552 12.0421 17.506 11.9008C17.8569 11.7595 18.2772 11.7752 18.5917 11.8965M7.25807 63.8106C7.25807 62.8635 7.43788 61.4704 7.51779 60.911M7.25807 63.8106C7.86702 63.9175 8.62136 64.0257 9.3758 64.1078M9.3758 64.1078C9.58224 63.1059 9.77936 61.7585 9.87526 61.3705M9.3758 64.1078C10.2236 64.2001 11.0715 64.2595 11.7133 64.2471M11.7133 64.2471C12.0329 63.6478 12.5034 62.2895 12.5034 61.5703M11.7133 64.2471C12.0385 64.2409 12.3108 64.2162 12.5034 64.1681C13.7034 63.8681 14.1202 62.9318 14.6383 61.169C15.0014 59.9336 15.8506 52.1825 17.2357 41.778M56.8122 63.2155C56.7456 62.3431 56.7483 61.3625 56.6524 60.6113M56.8122 63.2155C56.4797 63.3707 56.1585 63.4726 55.9074 63.5564C55.6903 63.6287 55.2756 63.7192 54.7544 63.8106M56.8122 63.2155C57.6712 62.8144 58.606 62.0572 58.606 60.3372C58.606 57.9512 58.6066 54.9816 58.606 51.237C58.6054 47.4924 58.2432 42.4385 57.2537 36.4156C56.2641 30.3927 55.644 27.6859 53.4662 23.1196C51.2884 18.5534 50.5055 17.1 46.6054 13.5C46.3176 13.2343 46.0297 12.9817 45.742 12.7414C45.2945 12.3676 45.0437 12.1756 44.6793 12.0082C44.3148 11.8407 43.7248 11.7776 43.4058 11.903M54.7544 63.8106C54.7544 62.8635 54.5746 61.4704 54.4947 60.911M54.7544 63.8106C54.1455 63.9175 53.3911 64.0256 52.6367 64.1078M52.6367 64.1078C52.4303 63.1059 52.2331 61.7585 52.1372 61.3705M52.6367 64.1078C51.8246 64.1962 51.0124 64.2544 50.3813 64.2483M50.3813 64.2483C50.0617 63.649 49.5091 62.2895 49.5091 61.5703M50.3813 64.2483C50.0198 64.2448 49.7177 64.2202 49.5091 64.1681C48.3091 63.8681 47.8923 62.9318 47.3742 61.169C47.0111 59.9338 46.1621 52.1841 44.7772 41.7813M17.2846 14.5978C17.7038 14.2022 18.9331 13.2147 19.8088 12.7546M19.8088 12.7546C19.4369 12.3468 19.0273 12.0645 18.5917 11.8965M19.8088 12.7546C19.8917 12.8456 19.9728 12.9428 20.0518 13.0464C20.395 13.4959 20.8547 14.1864 21.538 14.9294M19.4885 16.7137C19.8224 16.4601 20.8108 15.6716 21.538 14.9294M21.538 14.9294C22.1269 15.5697 22.8818 16.249 23.8714 16.8469M22.0488 19.0513C22.4941 18.6246 23.5746 17.4406 23.8714 16.8469M23.8714 16.8469C24.6144 17.2957 25.4896 17.6986 26.5261 18.0047M25.4267 20.6372C25.6802 20.0187 26.3183 18.4648 26.5261 18.0047M26.5261 18.0047C27.3591 18.2507 28.2962 18.4341 29.3526 18.5285M29.0072 21.6131C29.1726 20.8308 29.3526 18.9466 29.3526 18.5285M29.3526 18.5285C29.8744 18.5751 30.4253 18.6 31.0071 18.6C31.5889 18.6 32.1397 18.5751 32.6615 18.5285M44.7295 14.5978C44.3103 14.2023 43.0931 13.2015 42.2174 12.7414M42.2174 12.7414C42.1303 12.8361 42.0451 12.9377 41.9622 13.0464C41.619 13.496 41.1593 14.1866 40.4758 14.9297M42.2174 12.7414C42.5813 12.3459 42.981 12.0699 43.4058 11.903M42.5256 16.7137C42.1916 16.4601 41.2031 15.6719 40.4758 14.9297M40.4758 14.9297C39.8844 15.5728 39.1255 16.2552 38.1295 16.8549M39.9653 19.0514C39.52 18.6246 38.4264 17.4486 38.1295 16.8549M38.1295 16.8549C37.3894 17.3005 36.5185 17.7005 35.4881 18.0047M36.5874 20.6372C36.3338 20.0187 35.6959 18.4648 35.4881 18.0047M35.4881 18.0047C34.6551 18.2507 33.7179 18.4341 32.6615 18.5285M33.0069 21.6131C32.8415 20.8308 32.6615 18.9466 32.6615 18.5285M18.5778 11.9008C18.5824 11.8993 18.587 11.8979 18.5917 11.8965M18.5917 11.8965C22.3917 10.7155 27.5594 10.3154 31.0079 10.3154C34.4626 10.3154 39.6037 10.717 43.4058 11.903" stroke="#1E1E1E" stroke-width="0.6" stroke-linecap="round"/>
</svg>
