<svg width="63" height="84" viewBox="0 0 63 84" fill="none" xmlns="http://www.w3.org/2000/svg">
<path d="M15.5065 27.0001C15.5065 27.0001 15.2315 31.5975 14.9752 37.1326M17.1829 61.1225C17.1829 60.5225 17.4494 58.9222 17.4494 58.0339M17.1829 61.1225C15.7903 59.9482 15.2084 58.0425 14.7355 55.5473C14.3302 53.4085 14.6364 44.4509 14.9752 37.1326M17.1829 61.1225C17.8868 61.7161 18.7978 62.1227 20.0065 62.3242C20.1132 62.342 20.2216 62.3587 20.3314 62.3744M20.3314 62.3744C20.2881 61.7119 20.2276 60.0026 20.3314 59.3011M20.3314 62.3744C21.402 62.5278 22.6113 62.5853 23.8432 62.5905M23.8432 62.5905V59.6247M23.8432 62.5905C25.086 62.5956 26.3517 62.5475 27.5212 62.4908M27.5212 62.4908C27.5212 61.9179 27.5892 60.2175 27.6572 59.6247M27.5212 62.4908C29.0823 62.4152 30.4719 62.3242 31.4065 62.3242M31.4065 62.3242V59.5248M31.4065 62.3242L31.4091 59.5248M31.4065 62.3242C32.3411 62.3242 33.7333 62.4152 35.2944 62.4908M47.3091 27.0001C47.3091 27.0001 47.5842 31.5997 47.8406 37.1367M45.7134 61.0528C45.7134 60.4528 45.3662 58.9222 45.3662 58.0339M45.7134 61.0528C47.048 59.8735 47.6165 57.9937 48.0801 55.5473C48.4853 53.4089 48.1793 44.4543 47.8406 37.1367M45.7134 61.0528C44.9988 61.6843 44.0646 62.1149 42.8091 62.3242C42.7024 62.342 42.5941 62.3587 42.4843 62.3744M42.4843 62.3744C42.5275 61.7119 42.588 60.0026 42.4843 59.3011M42.4843 62.3744C41.4136 62.5278 40.2043 62.5853 38.9724 62.5905M38.9724 62.5905V59.6247M38.9724 62.5905C37.7296 62.5956 36.4639 62.5475 35.2944 62.4908M35.2944 62.4908C35.2944 61.9179 35.2264 60.2175 35.1584 59.6247M31.4078 54.0001C34.9415 53.7751 42.8078 51.9001 42.8078 49.8001C42.8078 48.9001 41.0078 48.6001 39.2078 48.9001M8.72578 35.8272C8.79238 34.9549 8.78971 34.278 8.88561 33.5268M8.72578 35.8272C9.27474 36.0096 9.98114 36.2046 10.784 36.3924M8.72578 35.8272C8.57294 35.7765 8.4323 35.7267 8.30519 35.6783C6.47893 34.9834 6.04947 33.4824 6.09723 32.2824C6.14498 31.0824 7.14034 28.5846 8.30507 24.9001C9.46979 21.2156 10.8639 19.0048 13.105 16.5001C15.8687 13.4113 18.3681 11.4677 20.8419 10.192C21.12 10.0486 21.3503 9.94354 21.535 9.89109C21.7198 9.83863 22.0157 9.83832 22.1807 9.89109M10.784 36.3924C10.7935 35.4618 10.9656 34.3704 11.0433 33.8265M10.784 36.3924C11.4295 36.5433 12.1375 36.6896 12.876 36.8207M12.876 36.8207C13.0824 35.8188 13.3049 34.6741 13.4008 34.286M12.876 36.8207L14.9752 37.1326M54.0867 35.8272C54.0201 34.9549 54.0228 34.278 53.9269 33.5268M54.0867 35.8272C53.5378 36.0096 52.8314 36.2046 52.0285 36.3924M54.0867 35.8272C54.2396 35.7765 54.3802 35.7267 54.5073 35.6783C56.3336 34.9834 56.763 33.4824 56.7153 32.2824C56.6675 31.0824 55.6722 28.5846 54.5074 24.9001C53.3427 21.2156 51.9486 19.0048 49.7075 16.5001C46.9216 13.3865 44.4043 11.4366 41.9111 10.1614C41.653 10.0294 41.5179 9.95645 41.2776 9.89829C41.0373 9.84013 40.7828 9.84158 40.6112 9.89829M52.0285 36.3924C52.019 35.4618 51.8469 34.3704 51.7692 33.8265M52.0285 36.3924C51.3888 36.542 50.6878 36.6869 49.9564 36.8172M49.9564 36.8172C49.75 35.8153 49.5076 34.6741 49.4117 34.286M49.9564 36.8172C49.2694 36.9395 48.5556 37.0488 47.8406 37.1367M21.3577 12.5394C21.7961 12.1673 23.0336 11.2542 23.6022 10.9293M23.6022 10.9293C23.6922 11.0398 23.7808 11.1589 23.868 11.2869C24.1544 11.7073 24.5193 12.1631 24.9644 12.6115M23.6022 10.9293C23.1609 10.3873 22.687 10.053 22.1807 9.89109M23.2011 14.4082C23.526 14.1104 24.4445 13.245 24.9644 12.6115M24.9644 12.6115C25.458 13.1087 26.0502 13.5969 26.7439 14.0179M25.454 15.9108C25.6272 15.66 26.2422 14.7489 26.7439 14.0179M26.7439 14.0179C27.3278 14.3723 27.9836 14.6792 28.7128 14.9038M27.8908 17.1471C28.0879 16.7581 28.5694 15.5325 28.7128 14.9038M28.7128 14.9038C28.7171 14.9051 28.7213 14.9064 28.7256 14.9077C29.5292 15.1538 30.4218 15.3 31.4054 15.3M31.4054 17.6309V15.3M31.4054 15.3C32.389 15.3 33.2848 15.1538 34.0884 14.9077M41.4564 12.5394C41.0179 12.1673 39.798 11.2327 39.2294 10.9078M39.2294 10.9078C39.1334 11.0243 39.039 11.1506 38.9461 11.2869C38.662 11.7039 38.3008 12.1555 37.8607 12.6003M39.2294 10.9078C39.6593 10.3863 40.1199 10.0606 40.6112 9.89829M39.613 14.4082C39.2881 14.1104 38.3806 13.2339 37.8607 12.6003M37.8607 12.6003C37.3662 13.1002 36.7719 13.5914 36.0752 14.0148M37.3601 15.9108C37.1869 15.66 36.5769 14.7459 36.0752 14.0148M36.0752 14.0148C35.4866 14.3727 34.8248 14.6821 34.0884 14.9077M34.9233 17.1471C34.7262 16.7581 34.2318 15.5364 34.0884 14.9077M40.6112 9.89829C38.4498 8.88093 35.081 8.46631 31.3695 8.46631C27.6668 8.46631 24.3425 8.87897 22.1807 9.89109" stroke="#1E1E1E" stroke-width="0.6" stroke-linecap="round"/>
</svg>
