<svg width="63" height="84" viewBox="0 0 63 84" fill="none" xmlns="http://www.w3.org/2000/svg">
<path d="M15.5049 27C15.5049 27 14.0221 51.7908 14.734 55.5472C14.9426 56.6479 15.1724 57.6338 15.4836 58.4929M17.1814 61.1224C17.1814 60.5224 17.4478 58.9221 17.4478 58.0339M17.1814 61.1224C17.8852 61.716 18.7962 62.1226 20.0049 62.3241C20.1117 62.3419 20.22 62.3586 20.3298 62.3743M17.1814 61.1224C16.4031 60.4661 15.878 59.5814 15.4836 58.4929M20.3298 62.3743C20.2866 61.7118 20.2261 60.0025 20.3298 59.301M20.3298 62.3743C21.4005 62.5277 22.6098 62.5852 23.8416 62.5904M23.8416 62.5904V59.6246M23.8416 62.5904C25.0844 62.5956 26.3502 62.5474 27.5197 62.4907M27.5197 62.4907C27.5197 61.9178 27.5877 60.2174 27.6556 59.6246M27.5197 62.4907C29.0807 62.4151 30.4703 62.3241 31.4049 62.3241M31.4049 62.3241V59.5247M31.4049 62.3241L31.4076 59.5247M31.4049 62.3241C32.3395 62.3241 33.7318 62.4151 35.2928 62.4907M47.3075 27C47.3075 27 48.7904 51.7908 48.0785 55.5472C47.8694 56.6505 47.639 57.6386 47.3266 58.4992M45.7119 61.0527C45.7119 60.4527 45.3646 58.9221 45.3646 58.0339M45.7119 61.0527C44.9973 61.6842 44.063 62.1148 42.8076 62.3241C42.7008 62.3419 42.5925 62.3586 42.4827 62.3743M45.7119 61.0527C46.4445 60.4053 46.9463 59.5467 47.3266 58.4992M42.4827 62.3743C42.5259 61.7118 42.5864 60.0025 42.4827 59.301M42.4827 62.3743C41.412 62.5277 40.2027 62.5852 38.9709 62.5904M38.9709 62.5904V59.6246M38.9709 62.5904C37.7281 62.5955 36.4623 62.5474 35.2928 62.4907M35.2928 62.4907C35.2928 61.9178 35.2248 60.2174 35.1569 59.6246M31.4062 54C34.9399 53.775 42.8062 51.9 42.8062 49.8C42.8062 48.9 41.0062 48.6 39.2062 48.9M5.59872 63.2155C5.66531 62.3431 5.66265 61.3625 5.75855 60.6113M5.59872 63.2155C5.93124 63.3707 6.25241 63.4726 6.50358 63.5564C6.72062 63.6287 7.13531 63.7192 7.65651 63.8106M5.59872 63.2155C4.73974 62.8144 3.80495 62.0572 3.80495 60.3372C3.80495 57.9512 3.80437 54.9816 3.80495 51.237C3.80552 47.4924 4.1677 42.4385 5.15728 36.4156C6.14686 30.3927 6.63042 27.5906 8.80818 23.0243C9.18669 22.2307 9.71843 21.337 10.118 20.7154C10.5177 20.0938 10.9134 19.4374 11.6117 18.8313C12.3099 18.2253 12.7254 18.1271 13.9536 17.9919M7.65651 63.8106C7.65651 62.8635 7.83632 61.4704 7.91623 60.911M7.65651 63.8106C8.26545 63.9175 9.0198 64.0257 9.77423 64.1078M9.77423 64.1078C9.98068 63.1059 10.1778 61.7585 10.2737 61.3705M9.77423 64.1078C10.622 64.2001 11.4699 64.2595 12.1117 64.2471M12.1117 64.2471C12.4314 63.6478 12.9018 62.2895 12.9018 61.5703M12.1117 64.2471C12.437 64.2409 12.7093 64.2162 12.9018 64.1681C14.1018 63.8681 14.5187 62.9318 15.0368 61.169C15.1434 60.8062 15.2919 59.8816 15.4836 58.4929M57.2107 63.2155C57.1441 62.3431 57.1467 61.3625 57.0508 60.6113M57.2107 63.2155C56.8781 63.3707 56.557 63.4726 56.3058 63.5564C56.0888 63.6287 55.6741 63.7192 55.1529 63.8106M57.2107 63.2155C58.0696 62.8144 59.0044 62.0572 59.0044 60.3372C59.0044 57.9512 59.005 54.9816 59.0044 51.237C59.0039 47.4924 58.6417 42.4385 57.6521 36.4156C56.6625 30.3927 56.0424 27.6859 53.8646 23.1196C53.688 22.7492 53.1835 21.925 52.7472 21.2625C52.3109 20.6 51.4696 19.5798 50.7996 19.1123C50.1296 18.6449 49.6459 18.1674 48.0511 17.9919M55.1529 63.8106C55.1529 62.8635 54.9731 61.4704 54.8931 60.911M55.1529 63.8106C54.5439 63.9175 53.7896 64.0257 53.0351 64.1078M53.0351 64.1078C52.8287 63.1059 52.6316 61.7585 52.5357 61.3705M53.0351 64.1078C52.223 64.1962 51.4108 64.2544 50.7798 64.2483M50.7798 64.2483C50.4601 63.649 49.9076 62.2895 49.9076 61.5703M50.7798 64.2483C50.4182 64.2448 50.1161 64.2202 49.9076 64.1681C48.7076 63.8681 48.2907 62.9318 47.7726 61.169C47.6661 60.8068 47.5179 59.8844 47.3266 58.4992M16.3758 12.7998C16.5402 13.503 16.858 15.6705 16.8141 17.906M16.8141 17.906C16.4232 17.9016 16.152 17.899 16.0266 17.899C15.2531 17.899 14.5669 17.9244 13.9536 17.9919M16.8141 17.906L17.5968 17.9151M13.3641 20.5844C13.5343 19.8805 13.8236 18.6045 13.9536 17.9919M17.4471 20.4411C17.5322 19.7326 17.5968 18.3125 17.5968 17.9151M17.5968 17.9151L17.7301 17.9167C18.6394 17.9274 19.8436 17.9416 21.2169 17.9552M21.0764 20.5844C21.1151 19.8496 21.1983 18.4936 21.2169 17.9552M21.2169 17.9552C22.3681 17.9666 23.6382 17.9776 24.953 17.9857M24.953 20.5844C24.953 19.2849 24.9534 18.2005 24.953 17.9857M24.953 17.9857C26.1719 17.9932 27.4292 17.9983 28.6659 17.9989M28.6659 20.5844V17.9989M28.6659 17.9989C29.4572 17.9993 30.2466 17.9979 31.0056 17.9943C31.7645 17.9979 32.5473 17.9993 33.3385 17.9989M45.6289 12.7998C45.4645 13.503 45.1467 15.6705 45.1906 17.906M45.1906 17.906C45.5815 17.9016 45.8527 17.899 45.9781 17.899C46.7516 17.899 47.4378 17.9244 48.0511 17.9919M45.1906 17.906L44.4079 17.9151M48.6406 20.5844C48.4704 19.8805 48.1811 18.6045 48.0511 17.9919M44.5576 20.4411C44.4725 19.7326 44.4079 18.3125 44.4079 17.9151M44.4079 17.9151L44.275 17.9167C43.3656 17.9274 42.1613 17.9416 40.7878 17.9552M40.9283 20.5844C40.8896 19.8496 40.8064 18.4936 40.7878 17.9552M40.7878 17.9552C39.6366 17.9666 38.3665 17.9776 37.0517 17.9857M37.0517 20.5844C37.0517 19.2849 37.0513 18.2005 37.0517 17.9857M37.0517 17.9857C35.8327 17.9932 34.5753 17.9983 33.3385 17.9989M33.3388 20.5844L33.3385 17.9989" stroke="#1E1E1E" stroke-width="0.6" stroke-linecap="round"/>
</svg>
