<svg width="64" height="84" viewBox="0 0 64 84" fill="none" xmlns="http://www.w3.org/2000/svg">
<path d="M15.8971 27.0001C15.8971 27.0001 15.2943 32.2889 15.0419 37.0959M17.5735 49.341C17.5735 48.741 17.84 47.1407 17.84 46.2524M17.5735 49.341C16.181 48.1667 15.599 46.2609 15.1262 43.7658C14.8682 42.4045 14.8984 39.828 15.0419 37.0959M17.5735 49.341C18.2774 49.9345 19.1884 50.3412 20.3971 50.5426C20.5039 50.5604 20.6122 50.5772 20.722 50.5929M20.722 50.5929C20.6788 49.9303 20.6182 48.2211 20.722 47.5196M20.722 50.5929C21.7927 50.7463 23.002 50.8038 24.2338 50.8089M24.2338 50.8089V47.8432M24.2338 50.8089C25.4766 50.8141 26.7424 50.766 27.9119 50.7093M27.9119 50.7093C27.9119 50.1363 27.9798 48.4359 28.0478 47.8432M27.9119 50.7093C29.4729 50.6336 30.8625 50.5426 31.7971 50.5426M31.7971 50.5426V47.7432M31.7971 50.5426L31.7998 47.7432M47.6998 27.0001C47.6998 27.0001 48.3025 32.2886 48.555 37.0955M46.0233 49.341C46.0233 48.741 45.7568 47.1407 45.7568 46.2524M46.0233 49.341C47.4159 48.1667 47.9978 46.2609 48.4707 43.7658C48.7287 42.4044 48.6984 39.8277 48.555 37.0955M46.0233 49.341C45.3194 49.9345 44.4085 50.3412 43.1998 50.5426C43.093 50.5604 42.9847 50.5772 42.8749 50.5929M42.8749 50.5929C42.9181 49.9303 42.9786 48.2211 42.8749 47.5196M42.8749 50.5929C41.8109 50.7453 40.6099 50.8031 39.386 50.8088M39.386 50.8088L39.3631 47.8432M39.386 50.8088C38.1594 50.8146 36.9097 50.7682 35.7516 50.7125M35.7516 50.7125C35.7516 50.1396 35.617 48.4359 35.549 47.8432M35.7516 50.7125C34.1635 50.6362 32.7476 50.5426 31.7998 50.5426M31.7984 43.2001C35.3321 42.9751 43.1984 41.1001 43.1984 39.0001C43.1984 38.1001 41.3984 37.8001 39.5984 38.1001M9.11641 35.8272C9.183 34.9549 9.18034 34.278 9.27624 33.5268M9.11641 35.8272C9.66537 36.0096 10.3718 36.2046 11.1746 36.3924M9.11641 35.8272C8.96357 35.7765 8.82293 35.7267 8.69581 35.6783C6.86955 34.9834 6.4401 33.4824 6.48785 32.2824C6.53561 31.0824 7.53097 28.5846 8.69569 24.9001C9.86041 21.2156 11.2546 19.0048 13.4957 16.5001C16.1467 13.5372 18.5546 11.628 20.9299 10.3513C21.3092 10.1475 21.4957 10.0416 21.7483 9.96636C22.0009 9.89109 22.4064 9.83832 22.5713 9.89109M11.1746 36.3924C11.1841 35.4618 11.3562 34.3704 11.4339 33.8265M11.1746 36.3924C11.8202 36.5433 12.5281 36.6896 13.2666 36.8207M13.2666 36.8207C13.4731 35.8188 13.6955 34.6741 13.7914 34.286M13.2666 36.8207C13.8447 36.9233 14.4415 37.0167 15.0419 37.0959M54.4773 35.8272C54.4108 34.9549 54.4134 34.278 54.3175 33.5268M54.4773 35.8272C53.9284 36.0096 53.222 36.2046 52.4191 36.3924M54.4773 35.8272C54.6302 35.7765 54.7708 35.7267 54.8979 35.6783C56.7242 34.9834 57.1537 33.4824 57.1059 32.2824C57.0581 31.0824 56.0628 28.5846 54.8981 24.9001C53.7333 21.2156 52.3392 19.0048 50.0981 16.5001C47.4174 13.5041 44.9854 11.5855 42.5842 10.3088C42.2317 10.1213 42.0692 10.05 41.7838 9.97125C41.4984 9.89252 41.1735 9.84158 41.0018 9.89829M52.4191 36.3924C52.4096 35.4618 52.2375 34.3704 52.1598 33.8265M52.4191 36.3924C51.7794 36.542 51.0784 36.6869 50.3471 36.8172M50.3471 36.8172C50.1406 35.8153 49.8983 34.6741 49.8024 34.286M50.3471 36.8172C49.7638 36.921 49.1612 37.0155 48.555 37.0955M21.7483 12.5394C22.1868 12.1673 23.4242 11.2542 23.9928 10.9293M23.9928 10.9293C24.0828 11.0398 24.1714 11.1589 24.2586 11.2869C24.5451 11.7073 24.9099 12.1631 25.355 12.6115M23.9928 10.9293C23.5515 10.3873 23.0776 10.053 22.5713 9.89109M23.5917 14.4082C23.9166 14.1104 24.8352 13.245 25.355 12.6115M25.355 12.6115C25.8486 13.1087 26.4409 13.5969 27.1345 14.0179M25.8446 15.9108C26.0178 15.66 26.6328 14.7489 27.1345 14.0179M27.1345 14.0179C27.7185 14.3723 28.3742 14.6792 29.1034 14.9038M28.2814 17.1471C28.4785 16.7581 28.9601 15.5325 29.1034 14.9038M29.1034 14.9038C29.1077 14.9051 29.112 14.9064 29.1163 14.9077C29.9199 15.1538 30.8124 15.3 31.796 15.3M31.796 17.6309V15.3M31.796 15.3C32.7796 15.3 33.6755 15.1538 34.4791 14.9077M41.847 12.5394C41.4085 12.1673 40.1887 11.2327 39.6201 10.9078M39.6201 10.9078C39.5241 11.0243 39.4296 11.1506 39.3367 11.2869C39.0526 11.7039 38.6915 12.1555 38.2514 12.6003M39.6201 10.9078C40.0499 10.3863 40.5106 10.0606 41.0018 9.89829M40.0036 14.4082C39.6787 14.1104 38.7712 13.2339 38.2514 12.6003M38.2514 12.6003C37.7568 13.1002 37.1625 13.5914 36.4658 14.0148M37.7507 15.9108C37.5775 15.66 36.9675 14.7459 36.4658 14.0148M36.4658 14.0148C35.8772 14.3727 35.2155 14.6821 34.4791 14.9077M35.3139 17.1471C35.1168 16.7581 34.6224 15.5364 34.4791 14.9077M41.0018 9.89829C38.8405 8.88093 35.4717 8.46631 31.7602 8.46631C28.0574 8.46631 24.7331 8.87897 22.5713 9.89109" stroke="#1E1E1E" stroke-width="0.6" stroke-linecap="round"/>
</svg>
