<svg width="63" height="84" viewBox="0 0 63 84" fill="none" xmlns="http://www.w3.org/2000/svg">
<path d="M15.3034 27C15.3034 27 14.7005 32.2888 14.4482 37.0958M16.9798 49.3409C16.9798 48.7409 17.2463 47.1406 17.2463 46.2523M16.9798 49.3409C15.5872 48.1666 15.0053 46.2608 14.5324 43.7657C14.2744 42.4044 14.3047 39.8279 14.4482 37.0958M16.9798 49.3409C17.6837 49.9344 18.5947 50.3411 19.8034 50.5425C19.9101 50.5603 20.0184 50.5771 20.1282 50.5928M20.1282 50.5928C20.085 49.9302 20.0245 48.221 20.1282 47.5195M20.1282 50.5928C21.1989 50.7462 22.4082 50.8037 23.6401 50.8088M23.6401 50.8088V47.8431M23.6401 50.8088C24.8829 50.814 26.1486 50.7659 27.3181 50.7092M27.3181 50.7092C27.3181 50.1362 27.3861 48.4358 27.4541 47.8431M27.3181 50.7092C28.8792 50.6335 30.2687 50.5425 31.2034 50.5425M31.2034 50.5425V47.7431M31.2034 50.5425L31.206 47.7431M47.106 27C47.106 27 47.7088 32.2885 47.9612 37.0954M45.4296 49.3409C45.4296 48.7409 45.1631 47.1406 45.1631 46.2523M45.4296 49.3409C46.8222 48.1666 47.4041 46.2608 47.877 43.7657C48.1349 42.4043 48.1047 39.8276 47.9612 37.0954M45.4296 49.3409C44.7257 49.9344 43.8147 50.3411 42.606 50.5425C42.4993 50.5603 42.3909 50.5771 42.2811 50.5928M42.2811 50.5928C42.3244 49.9302 42.3849 48.221 42.2811 47.5195M42.2811 50.5928C41.2171 50.7452 40.0162 50.803 38.7922 50.8087M38.7922 50.8087L38.7693 47.8431M38.7922 50.8087C37.5656 50.8145 36.3159 50.7681 35.1578 50.7124M35.1578 50.7124C35.1578 50.1395 35.0233 48.4358 34.9553 47.8431M35.1578 50.7124C33.5697 50.6361 32.1539 50.5425 31.206 50.5425M31.2047 43.2C34.7384 42.975 42.6047 41.1 42.6047 39C42.6047 38.1 40.8047 37.8 39.0047 38.1M8.52266 35.8272C8.58925 34.9548 8.58659 34.2779 8.68249 33.5268M8.52266 35.8272C9.07162 36.0095 9.77802 36.2045 10.5809 36.3923M8.52266 35.8272C8.36982 35.7764 8.22918 35.7266 8.10206 35.6782C6.2758 34.9833 5.84635 33.4823 5.8941 32.2823C5.94186 31.0823 6.93722 28.5845 8.10194 24.9C9.26666 21.2155 10.6608 19.0047 12.9019 16.5C14.1183 15.1405 15.2835 14.0029 16.4179 13.0464C16.9916 12.5626 17.516 12.2172 17.9059 12.0569C18.2958 11.8965 18.571 11.8126 18.7885 11.8965M10.5809 36.3923C10.5904 35.4617 10.7625 34.3703 10.8402 33.8264M10.5809 36.3923C11.2264 36.5432 11.9343 36.6895 12.6729 36.8206M12.6729 36.8206C12.8793 35.8187 13.1017 34.674 13.1976 34.2859M12.6729 36.8206C13.2509 36.9232 13.8478 37.0166 14.4482 37.0958M53.8836 35.8272C53.817 34.9548 53.8197 34.2779 53.7238 33.5268M53.8836 35.8272C53.3346 36.0095 52.6282 36.2045 51.8254 36.3923M53.8836 35.8272C54.0364 35.7764 54.1771 35.7266 54.3042 35.6782C56.1305 34.9833 56.5599 33.4823 56.5122 32.2823C56.4644 31.0823 55.469 28.5845 54.3043 24.9C53.1396 21.2155 51.7454 19.0047 49.5043 16.5C48.2339 15.0801 47.0193 13.9022 45.8374 12.92C45.3154 12.4862 45.0708 12.3763 44.7775 12.204C44.4841 12.0318 43.8249 11.8156 43.6026 11.903M51.8254 36.3923C51.8159 35.4617 51.6438 34.3703 51.5661 33.8264M51.8254 36.3923C51.1856 36.5419 50.4847 36.6868 49.7533 36.8171M49.7533 36.8171C49.5469 35.8152 49.3045 34.674 49.2086 34.2859M49.7533 36.8171C49.17 36.9209 48.5674 37.0154 47.9612 37.0954M17.4814 14.5978C17.9007 14.2022 19.1299 13.2147 20.0056 12.7546M20.0056 12.7546C19.6338 12.3468 19.2242 12.0645 18.7885 11.8965M20.0056 12.7546C20.0886 12.8456 20.1697 12.9428 20.2487 13.0464C20.5919 13.4959 21.0515 14.1864 21.7349 14.9294M19.6854 16.7137C20.0193 16.4601 21.0076 15.6716 21.7349 14.9294M21.7349 14.9294C22.3237 15.5697 23.0787 16.249 24.0683 16.8469M22.2457 19.0513C22.6909 18.6246 23.7714 17.4406 24.0683 16.8469M24.0683 16.8469C24.8112 17.2957 25.6865 17.6986 26.723 18.0047M25.6235 20.6372C25.8771 20.0187 26.5152 18.4648 26.723 18.0047M26.723 18.0047C27.556 18.2507 28.4931 18.4341 29.5495 18.5285M29.2041 21.6131C29.3695 20.8308 29.5495 18.9466 29.5495 18.5285M29.5495 18.5285C30.0713 18.5751 30.6222 18.6 31.204 18.6C31.7858 18.6 32.3366 18.5751 32.8584 18.5285M44.9264 14.5978C44.5071 14.2023 43.29 13.2015 42.4143 12.7414M42.4143 12.7414C42.3271 12.8361 42.242 12.9377 42.1591 13.0464C41.8159 13.496 41.3562 14.1866 40.6727 14.9297M42.4143 12.7414C42.7782 12.3459 43.1779 12.0699 43.6026 11.903M42.7225 16.7137C42.3885 16.4601 41.4 15.6719 40.6727 14.9297M40.6727 14.9297C40.0813 15.5728 39.3224 16.2552 38.3264 16.8549M40.1621 19.0514C39.7169 18.6246 38.6232 17.4486 38.3264 16.8549M38.3264 16.8549C37.5863 17.3005 36.7154 17.7005 35.685 18.0047M36.7843 20.6372C36.5307 20.0187 35.8928 18.4648 35.685 18.0047M35.685 18.0047C34.852 18.2507 33.9148 18.4341 32.8584 18.5285M33.2038 21.6131C33.0384 20.8308 32.8584 18.9466 32.8584 18.5285M18.7747 11.9008C18.7793 11.8993 18.7839 11.8979 18.7885 11.8965M18.7885 11.8965C22.5886 10.7155 27.7563 10.3154 31.2047 10.3154C34.6595 10.3154 39.8006 10.717 43.6026 11.903" stroke="#1E1E1E" stroke-width="0.6" stroke-linecap="round"/>
</svg>
