<svg width="63" height="84" viewBox="0 0 63 84" fill="none" xmlns="http://www.w3.org/2000/svg">
<path d="M15.5072 27C15.6583 29.7094 15.5552 33.3577 15.3521 37.1813M17.1296 70.7379C17.1296 70.1379 17.4502 68.5981 17.4502 67.7098M17.1296 70.7379C15.5985 69.4945 14.8812 67.6139 14.6072 66C14.199 63.5958 14.1672 60.6 14.1672 55.9652C14.1672 52.8931 14.9528 44.6983 15.3521 37.1813M17.1296 70.7379C17.8792 71.3467 18.8239 71.8028 20.0072 72C20.114 72.0178 20.2223 72.0345 20.3321 72.0503M20.3321 72.0503C20.2889 71.3877 20.2284 69.6785 20.3321 68.9769M20.3321 72.0503C21.4028 72.2036 22.6121 72.2611 23.8439 72.2663M23.8439 72.2663V69.3005M23.8439 72.2663C25.0867 72.2715 26.3525 72.2234 27.522 72.1667M27.522 72.1667C27.522 71.5937 27.59 69.8933 27.6579 69.3005M27.522 72.1667C29.083 72.091 30.4738 72 31.4084 72M31.4084 72L31.4072 69.2006M31.4084 72C32.3459 72 33.7412 72.0916 35.3082 72.1674M47.3084 27C47.1573 29.7093 47.2604 33.3574 47.4635 37.181M45.632 70.7813C45.632 70.1813 45.3655 68.5981 45.3655 67.7098M45.632 70.7813C47.2002 69.5386 47.9312 67.6328 48.2084 66C48.6166 63.5958 48.6484 60.6 48.6484 55.9652C48.6484 52.8931 47.8628 44.698 47.4635 37.181M45.632 70.7813C44.8911 71.3684 43.9634 71.8075 42.8084 72C42.7017 72.0178 42.5933 72.0345 42.4835 72.0503M42.4835 72.0503C42.5268 71.3877 42.5873 69.6785 42.4835 68.9769M42.4835 72.0503C41.4128 72.2036 40.2035 72.2611 38.9717 72.2663M38.9717 72.2663V69.3005M38.9717 72.2663C37.734 72.2715 36.4736 72.2238 35.3082 72.1674M35.3082 72.1674C35.3082 71.5944 35.2257 69.8933 35.1577 69.3005M31.4078 63.6C34.9415 63.375 42.8078 61.5 42.8078 59.4C42.8078 58.5 41.0078 58.2 39.2078 58.5M8.72578 35.8272C8.79238 34.9548 8.78971 34.2779 8.88561 33.5268M8.72578 35.8272C9.27474 36.0095 9.98114 36.2045 10.784 36.3923M8.72578 35.8272C8.57294 35.7764 8.4323 35.7266 8.30519 35.6782C6.47893 34.9833 6.04947 33.4823 6.09723 32.2823C6.14498 31.0823 7.14034 28.5845 8.30507 24.9C9.46979 21.2155 10.8639 19.0047 13.105 16.5C14.4476 14.9995 15.7277 13.7693 16.9729 12.7546C17.4265 12.385 17.5966 12.2102 17.9918 12.0126C18.3871 11.815 18.7742 11.8126 18.9917 11.8965M10.784 36.3923C10.7935 35.4617 10.9656 34.3703 11.0433 33.8264M10.784 36.3923C11.4295 36.5432 12.1375 36.6895 12.876 36.8206M12.876 36.8206C13.0824 35.8187 13.3049 34.674 13.4008 34.2859M12.876 36.8206C13.6099 36.9509 14.374 37.0663 15.1373 37.1566M12.876 36.8206L15.1373 37.1566M15.1373 37.1566C15.2089 37.1651 15.2805 37.1733 15.3521 37.1813M54.0867 35.8272C54.0201 34.9548 54.0228 34.2779 53.9269 33.5268M54.0867 35.8272C53.5378 36.0095 52.8314 36.2045 52.0285 36.3923M54.0867 35.8272C54.2396 35.7764 54.3802 35.7266 54.5073 35.6782C56.3336 34.9833 56.763 33.4823 56.7153 32.2823C56.6675 31.0823 55.6722 28.5845 54.5074 24.9C53.3427 21.2155 51.9486 19.0047 49.7075 16.5C48.3591 14.993 47.0736 13.7586 45.8233 12.7414C45.3754 12.3769 45.1627 12.17 44.8066 11.9792C44.4504 11.7885 44.0281 11.8156 43.8057 11.903M52.0285 36.3923C52.019 35.4617 51.8469 34.3703 51.7692 33.8264M52.0285 36.3923C51.3888 36.5419 50.6878 36.6868 49.9564 36.8171M49.9564 36.8171C49.75 35.8152 49.5076 34.674 49.4117 34.2859M49.9564 36.8171C49.2149 36.9491 48.4422 37.066 47.6705 37.1571C47.6015 37.1653 47.5325 37.1732 47.4635 37.181M17.6846 14.5978C18.1038 14.2022 19.3331 13.2147 20.2088 12.7546M20.2088 12.7546C19.8369 12.3468 19.4273 12.0645 18.9917 11.8965M20.2088 12.7546C20.2917 12.8456 20.3728 12.9428 20.4518 13.0464C20.795 13.4959 21.2547 14.1864 21.938 14.9294M19.8885 16.7137C20.2224 16.4601 21.2108 15.6716 21.938 14.9294M21.938 14.9294C22.5269 15.5697 23.2818 16.249 24.2714 16.8469M22.4488 19.0513C22.8941 18.6246 23.9746 17.4406 24.2714 16.8469M24.2714 16.8469C25.0144 17.2957 25.8896 17.6986 26.9261 18.0047M25.8267 20.6372C26.0802 20.0187 26.7183 18.4648 26.9261 18.0047M26.9261 18.0047C27.7591 18.2507 28.6962 18.4341 29.7526 18.5285M29.4072 21.6131C29.5726 20.8308 29.7526 18.9466 29.7526 18.5285M29.7526 18.5285C30.2744 18.5751 30.8253 18.6 31.4071 18.6C31.9889 18.6 32.5397 18.5751 33.0615 18.5285M45.1295 14.5978C44.7103 14.2023 43.4931 13.2015 42.6174 12.7414M42.6174 12.7414C42.5303 12.8361 42.4451 12.9377 42.3622 13.0464C42.019 13.496 41.5593 14.1866 40.8758 14.9297M42.6174 12.7414C42.9813 12.3459 43.381 12.0699 43.8057 11.903M42.9256 16.7137C42.5916 16.4601 41.6031 15.6719 40.8758 14.9297M40.8758 14.9297C40.2844 15.5728 39.5255 16.2552 38.5295 16.8549M40.3653 19.0514C39.92 18.6246 38.8264 17.4486 38.5295 16.8549M38.5295 16.8549C37.7894 17.3005 36.9185 17.7005 35.8881 18.0047M36.9874 20.6372C36.7338 20.0187 36.0959 18.4648 35.8881 18.0047M35.8881 18.0047C35.0551 18.2507 34.1179 18.4341 33.0615 18.5285M33.4069 21.6131C33.2415 20.8308 33.0615 18.9466 33.0615 18.5285M18.9778 11.9008C18.9824 11.8993 18.987 11.8979 18.9917 11.8965M18.9917 11.8965C22.7917 10.7155 27.9594 10.3154 31.4079 10.3154C34.8626 10.3154 40.0037 10.717 43.8057 11.903" stroke="#1E1E1E" stroke-width="0.6" stroke-linecap="round"/>
</svg>
