<svg width="63" height="84" viewBox="0 0 63 84" fill="none" xmlns="http://www.w3.org/2000/svg">
<path d="M15.3096 27.0001C15.3096 27.0001 13.8268 51.7909 14.5387 55.5473C14.7473 56.648 14.9771 57.6339 15.2883 58.493M16.986 61.1225C16.986 60.5225 17.2525 58.9222 17.2525 58.0339M16.986 61.1225C17.6899 61.7161 18.6009 62.1227 19.8096 62.3242C19.9164 62.342 20.0247 62.3587 20.1345 62.3744M16.986 61.1225C16.2078 60.4662 15.6827 59.5815 15.2883 58.493M20.1345 62.3744C20.0913 61.7119 20.0307 60.0026 20.1345 59.3011M20.1345 62.3744C21.2052 62.5278 22.4145 62.5853 23.6463 62.5905M23.6463 62.5905V59.6247M23.6463 62.5905C24.8891 62.5956 26.1549 62.5475 27.3244 62.4908M27.3244 62.4908C27.3244 61.9179 27.3923 60.2175 27.4603 59.6247M27.3244 62.4908C28.8854 62.4152 30.275 62.3242 31.2096 62.3242M31.2096 62.3242V59.5248M31.2096 62.3242L31.2123 59.5248M31.2096 62.3242C32.1442 62.3242 33.5364 62.4152 35.0975 62.4908M47.1122 27.0001C47.1122 27.0001 48.5951 51.7909 47.8832 55.5473C47.6741 56.6506 47.4437 57.6387 47.1313 58.4993M45.5165 61.0528C45.5165 60.4528 45.1693 58.9222 45.1693 58.0339M45.5165 61.0528C44.8019 61.6843 43.8677 62.1149 42.6123 62.3242C42.5055 62.342 42.3972 62.3587 42.2874 62.3744M45.5165 61.0528C46.2492 60.4054 46.751 59.5468 47.1313 58.4993M42.2874 62.3744C42.3306 61.7119 42.3911 60.0026 42.2874 59.3011M42.2874 62.3744C41.2167 62.5278 40.0074 62.5853 38.7755 62.5905M38.7755 62.5905V59.6247M38.7755 62.5905C37.5328 62.5956 36.267 62.5475 35.0975 62.4908M35.0975 62.4908C35.0975 61.9179 35.0295 60.2175 34.9615 59.6247M31.2109 54.0001C34.7446 53.7751 42.6109 51.9001 42.6109 49.8001C42.6109 48.9001 40.8109 48.6001 39.0109 48.9001M5.40341 63.2156C5.47 62.3432 5.46734 61.3626 5.56324 60.6114M5.40341 63.2156C5.73593 63.3708 6.05709 63.4727 6.30827 63.5565C6.52531 63.6288 6.93999 63.7193 7.4612 63.8107M5.40341 63.2156C4.54443 62.8145 3.60963 62.0573 3.60963 60.3373C3.60963 57.9513 3.60905 54.9817 3.60963 51.2371C3.61021 47.4925 3.97239 42.4386 4.96197 36.4157C5.95155 30.3927 6.57166 27.686 8.74942 23.1197C10.9272 18.5534 11.7102 17.1001 15.6102 13.5001C16.383 12.7868 17.1558 12.1676 17.9262 11.6288C18.4331 11.2742 18.9114 10.9844 19.3839 10.794C19.8565 10.6037 20.3494 10.5398 20.7649 10.6037M7.4612 63.8107C7.4612 62.8636 7.641 61.4705 7.72092 60.9111M7.4612 63.8107C8.07014 63.9176 8.82449 64.0257 9.57892 64.1079M9.57892 64.1079C9.78537 63.106 9.98249 61.7586 10.0784 61.3706M9.57892 64.1079C10.4267 64.2002 11.2746 64.2596 11.9164 64.2472M11.9164 64.2472C12.2361 63.6479 12.7065 62.2896 12.7065 61.5704M11.9164 64.2472C12.2416 64.241 12.514 64.2163 12.7065 64.1682C13.9065 63.8682 14.3234 62.9319 14.8415 61.1691C14.9481 60.8063 15.0966 59.8817 15.2883 58.493M57.0153 63.2156C56.9487 62.3432 56.9514 61.3626 56.8555 60.6114M57.0153 63.2156C56.6828 63.3708 56.3617 63.4727 56.1105 63.5565C55.8934 63.6288 55.4788 63.7193 54.9576 63.8107M57.0153 63.2156C57.8743 62.8145 58.8091 62.0573 58.8091 60.3373C58.8091 57.9513 58.8097 54.9817 58.8091 51.2371C58.8085 47.4925 58.4464 42.4386 57.4568 36.4157C56.4672 30.3927 55.8471 27.686 53.6693 23.1197C51.4916 18.5534 50.7086 17.1001 46.8086 13.5001C46.0524 12.802 45.2961 12.1942 44.5421 11.6635C44.0165 11.2936 43.4921 11.0268 42.9545 10.8117C42.4168 10.5966 41.8389 10.5403 41.3299 10.6724M54.9576 63.8107C54.9576 62.8636 54.7777 61.4705 54.6978 60.9111M54.9576 63.8107C54.3486 63.9176 53.5943 64.0257 52.8398 64.1079M52.8398 64.1079C52.6334 63.106 52.4363 61.7586 52.3404 61.3706M52.8398 64.1079C52.0277 64.1963 51.2155 64.2545 50.5844 64.2484M50.5844 64.2484C50.2648 63.6491 49.7122 62.2896 49.7122 61.5704M50.5844 64.2484C50.2229 64.2449 49.9208 64.2203 49.7122 64.1682C48.5122 63.8682 48.0954 62.9319 47.5773 61.1691C47.4708 60.8069 47.3226 59.8845 47.1313 58.4993M20.3259 13.0444C20.6912 12.7089 21.8062 11.7986 22.504 11.3513M22.504 11.3513C21.957 10.9693 21.386 10.6992 20.7649 10.6037M22.504 11.3513C23.0586 11.7386 23.5887 12.2408 24.1215 12.7925C24.2362 12.9113 24.3588 13.0374 24.4878 13.1694M22.6743 14.9678C22.883 14.7144 23.629 13.9209 24.4878 13.1694M24.4878 13.1694C25.0384 13.733 25.7055 14.4035 26.3789 15.0697M24.5754 16.7795C24.8959 16.5036 25.8421 15.6781 26.3789 15.0697M26.3789 15.0697C27.0967 15.7799 27.8216 16.4851 28.42 17.0504M26.7225 18.9266C27.0654 18.5463 27.9906 17.5693 28.42 17.0504M28.42 17.0504C29.0283 17.6249 29.5058 18.0549 29.7124 18.1986C29.9211 18.3438 30.0945 18.4527 30.2524 18.5337M29.2707 20.6519C29.5156 20.1295 29.9259 19.2847 30.2524 18.5337M30.2524 18.5337C30.5826 18.703 30.8447 18.75 31.2185 18.75C31.6521 18.75 31.926 18.6868 32.3395 18.4428M42.1018 13.0444C41.7365 12.7089 40.6356 11.7888 39.9378 11.3415M39.9378 11.3415C40.3813 11.0336 40.8407 10.7994 41.3299 10.6724M39.9378 11.3415C39.3781 11.7301 38.8435 12.2361 38.3062 12.7925C38.1658 12.9379 38.0136 13.0943 37.8523 13.259M39.7534 14.9678C39.5446 14.7144 38.7112 14.0105 37.8523 13.259M37.8523 13.259C37.3193 13.8033 36.6869 14.4385 36.0488 15.0697M37.8523 16.7795C37.5317 16.5036 36.5856 15.6781 36.0488 15.0697M36.0488 15.0697C35.331 15.7799 34.6061 16.4851 34.0077 17.0504M35.7052 18.9266C35.3623 18.5463 34.4371 17.5693 34.0077 17.0504M34.0077 17.0504C33.3994 17.6249 32.9219 18.0549 32.7153 18.1986C32.5764 18.2953 32.453 18.3759 32.3395 18.4428M33.1332 20.6935C32.9912 20.3417 32.6079 19.232 32.3395 18.4428M20.7649 10.6037C22.9235 9.55788 27.413 8.46631 31.1717 8.46631C34.9303 8.46631 39.1713 9.62662 41.3299 10.6724" stroke="#1E1E1E" stroke-width="0.6" stroke-linecap="round"/>
</svg>
