<svg width="63" height="84" viewBox="0 0 63 84" fill="none" xmlns="http://www.w3.org/2000/svg">
<path d="M15.101 27.0001C15.2521 29.7095 15.149 33.3578 14.9459 37.1814M16.7233 70.738C16.7233 70.138 17.0439 68.5982 17.0439 67.7099M16.7233 70.738C15.1923 69.4946 14.475 67.614 14.201 66.0001C13.7928 63.5959 13.7609 60.6001 13.7609 55.9653C13.7609 52.8932 14.5466 44.6984 14.9459 37.1814M16.7233 70.738C17.473 71.3468 18.4177 71.8029 19.601 72.0001C19.7077 72.0179 19.8161 72.0346 19.9258 72.0504M19.9258 72.0504C19.8826 71.3878 19.8221 69.6786 19.9258 68.977M19.9258 72.0504C20.9965 72.2037 22.2058 72.2612 23.4377 72.2664M23.4377 72.2664V69.3006M23.4377 72.2664C24.6805 72.2716 25.9462 72.2235 27.1157 72.1668M27.1157 72.1668C27.1157 71.5938 27.1837 69.8934 27.2517 69.3006M27.1157 72.1668C28.6768 72.0911 30.0675 72.0001 31.0021 72.0001M31.0021 72.0001L31.001 69.2007M31.0021 72.0001C31.9397 72.0001 33.335 72.0917 34.9019 72.1675M46.9021 27.0001C46.751 29.7094 46.8542 33.3575 47.0573 37.1811M45.2257 70.7814C45.2257 70.1814 44.9592 68.5982 44.9592 67.7099M45.2257 70.7814C46.794 69.5387 47.5249 67.6329 47.8022 66.0001C48.2103 63.5959 48.2422 60.6001 48.2422 55.9653C48.2422 52.8932 47.4565 44.6981 47.0573 37.1811M45.2257 70.7814C44.4849 71.3685 43.5572 71.8076 42.4021 72.0001C42.2954 72.0179 42.1871 72.0346 42.0773 72.0504M42.0773 72.0504C42.1205 71.3878 42.181 69.6786 42.0773 68.977M42.0773 72.0504C41.0066 72.2037 39.7973 72.2612 38.5654 72.2664M38.5654 72.2664V69.3006M38.5654 72.2664C37.3278 72.2715 36.0674 72.2239 34.9019 72.1675M34.9019 72.1675C34.9019 71.5945 34.8194 69.8934 34.7514 69.3006M31.0016 63.6001C34.5352 63.3751 42.4016 61.5001 42.4016 59.4001C42.4016 58.5001 40.6016 58.2001 38.8016 58.5001M8.31953 35.8272C8.38613 34.9549 8.38346 34.278 8.47936 33.5268M8.31953 35.8272C8.86849 36.0096 9.57489 36.2046 10.3777 36.3924M8.31953 35.8272C8.16669 35.7765 8.02605 35.7267 7.89894 35.6783C6.07268 34.9834 5.64322 33.4824 5.69098 32.2824C5.73873 31.0824 6.73409 28.5846 7.89882 24.9001C9.06354 21.2156 10.4577 19.0048 12.6988 16.5001C15.1244 13.7891 17.3465 11.9603 19.5263 10.691C19.5263 10.691 20.2641 10.2665 20.6969 10.0788C21.1296 9.89109 21.6222 9.84237 21.7744 9.89109M10.3777 36.3924C10.3873 35.4618 10.5594 34.3704 10.637 33.8265M10.3777 36.3924C11.0233 36.5433 11.7312 36.6896 12.4698 36.8207M12.4698 36.8207C12.6762 35.8188 12.8986 34.6741 12.9945 34.286M12.4698 36.8207C13.2036 36.951 13.9678 37.0664 14.731 37.1567M12.4698 36.8207L14.731 37.1567M14.731 37.1567C14.8027 37.1651 14.8743 37.1734 14.9459 37.1814M53.6805 35.8272C53.6139 34.9549 53.6165 34.278 53.5206 33.5268M53.6805 35.8272C53.1315 36.0096 52.4251 36.2046 51.6223 36.3924M53.6805 35.8272C53.8333 35.7765 53.9739 35.7267 54.1011 35.6783C55.9273 34.9834 56.3568 33.4824 56.309 32.2824C56.2613 31.0824 55.2659 28.5846 54.1012 24.9001C52.9365 21.2156 51.5423 19.0048 49.3012 16.5001C46.7634 13.6637 44.4484 11.793 42.1714 10.5184C41.6902 10.249 41.5264 10.1517 41.154 10.0312C40.7815 9.91069 40.3766 9.84158 40.205 9.89829M51.6223 36.3924C51.6127 35.4618 51.4406 34.3704 51.363 33.8265M51.6223 36.3924C50.9825 36.542 50.2815 36.6869 49.5502 36.8172M49.5502 36.8172C49.3437 35.8153 49.1014 34.6741 49.0055 34.286M49.5502 36.8172C48.8087 36.9492 48.036 37.0661 47.2642 37.1572C47.1952 37.1654 47.1262 37.1733 47.0573 37.1811M20.9514 12.5394C21.3899 12.1673 22.6274 11.2542 23.1959 10.9293M23.1959 10.9293C23.2859 11.0398 23.3745 11.1589 23.4617 11.2869C23.7482 11.7073 24.113 12.1631 24.5581 12.6115M23.1959 10.9293C22.7547 10.3873 22.2807 10.053 21.7744 9.89109M22.7948 14.4082C23.1197 14.1104 24.0383 13.245 24.5581 12.6115M24.5581 12.6115C25.0517 13.1087 25.644 13.5969 26.3377 14.0179M25.0477 15.9108C25.2209 15.66 25.836 14.7489 26.3377 14.0179M26.3377 14.0179C26.9216 14.3723 27.5774 14.6792 28.3065 14.9038M27.4845 17.1471C27.6816 16.7581 28.1632 15.5325 28.3065 14.9038M28.3065 14.9038C28.3108 14.9051 28.3151 14.9064 28.3194 14.9077C29.123 15.1538 30.0155 15.3 30.9991 15.3M30.9991 17.6309V15.3M30.9991 15.3C31.9827 15.3 32.8786 15.1538 33.6822 14.9077M41.0501 12.5394C40.6117 12.1673 39.3918 11.2327 38.8232 10.9078M38.8232 10.9078C38.7272 11.0243 38.6327 11.1506 38.5398 11.2869C38.2557 11.7039 37.8946 12.1555 37.4545 12.6003M38.8232 10.9078C39.253 10.3863 39.7137 10.0606 40.205 9.89829M39.2068 14.4082C38.8819 14.1104 37.9743 13.2339 37.4545 12.6003M37.4545 12.6003C36.9599 13.1002 36.3656 13.5914 35.669 14.0148M36.9538 15.9108C36.7806 15.66 36.1706 14.7459 35.669 14.0148M35.669 14.0148C35.0803 14.3727 34.4186 14.6821 33.6822 14.9077M34.517 17.1471C34.3199 16.7581 33.8255 15.5364 33.6822 14.9077M40.205 9.89829C38.0436 8.88093 34.6748 8.46631 30.9633 8.46631C27.2605 8.46631 23.9362 8.87897 21.7744 9.89109" stroke="#1E1E1E" stroke-width="0.6" stroke-linecap="round"/>
</svg>
