<svg width="63" height="84" viewBox="0 0 63 84" fill="none" xmlns="http://www.w3.org/2000/svg">
<path d="M16.7051 27.0001C16.7051 27.0001 16.4533 33.9635 16.4532 36.3064C16.4531 37.9392 16.4297 40.2962 17.6342 41.7781M20.3299 43.1336C20.2867 42.471 20.2262 40.7618 20.3299 40.0602M20.3299 43.1336C20.2201 43.1178 20.1118 43.1011 20.0051 43.0833C18.914 42.9015 18.158 42.4225 17.6342 41.7781M20.3299 43.1336C21.4006 43.2869 22.6099 43.3444 23.8418 43.3496M23.8418 43.3496V40.3838M23.8418 43.3496C25.0846 43.3548 26.3503 43.3067 27.5198 43.25M27.5198 43.25C27.5198 42.677 27.5878 40.9766 27.6558 40.3838M27.5198 43.25C29.0809 43.1743 30.4728 43.0833 31.4074 43.0833M31.4074 43.0833L31.4051 40.2839M31.4074 43.0833V40.2839M31.4074 43.0833C32.342 43.0833 33.7316 43.1743 35.2927 43.25M46.1074 27.0001C46.1074 27.0001 46.3592 33.9635 46.3593 36.3064C46.3594 37.9404 46.3828 40.2997 45.1756 41.7814M42.4826 43.1336C42.5258 42.471 42.5863 40.7618 42.4826 40.0602M42.4826 43.1336C42.5923 43.1178 42.7007 43.1011 42.8074 43.0833C43.8967 42.9018 44.6519 42.4242 45.1756 41.7814M42.4826 43.1336C41.4119 43.2869 40.2026 43.3444 38.9707 43.3496M38.9707 43.3496V40.3838M38.9707 43.3496C37.7279 43.3548 36.4622 43.3067 35.2927 43.25M35.2927 43.25C35.2927 42.677 35.2247 40.9766 35.1567 40.3838M31.4062 36.0001C34.9399 35.7751 42.8062 33.9001 42.8062 31.8001C42.8062 30.9001 41.0062 30.6001 39.2062 30.9001M5.59872 63.2156C5.66531 62.3432 5.66265 61.3626 5.75855 60.6114M5.59872 63.2156C5.93124 63.3708 6.25241 63.4727 6.50358 63.5565C6.72062 63.6288 7.13531 63.7193 7.65651 63.8107M5.59872 63.2156C4.73974 62.8145 3.80495 62.0573 3.80495 60.3373C3.80495 57.9513 3.80437 54.9817 3.80495 51.2371C3.80552 47.4925 4.1677 42.4386 5.15728 36.4157C6.14686 30.3927 6.76697 27.686 8.94473 23.1197C11.1225 18.5534 11.9055 17.1001 15.8055 13.5001C16.6035 12.7635 17.4015 12.1274 18.1969 11.5763C18.6559 11.2583 19.1858 10.9874 19.585 10.7956C19.9842 10.6037 20.5474 10.5402 20.9602 10.6037M7.65651 63.8107C7.65651 62.8636 7.83632 61.4705 7.91623 60.9111M7.65651 63.8107C8.26545 63.9176 9.0198 64.0257 9.77423 64.1079M9.77423 64.1079C9.98068 63.106 10.1778 61.7586 10.2737 61.3706M9.77423 64.1079C10.622 64.2002 11.4699 64.2596 12.1117 64.2472M12.1117 64.2472C12.4314 63.6479 12.9018 62.2896 12.9018 61.5704M12.1117 64.2472C12.437 64.241 12.7093 64.2163 12.9018 64.1682C14.1018 63.8682 14.5187 62.9319 15.0368 61.1691C15.3998 59.9337 16.249 52.1826 17.6342 41.7781M57.2107 63.2156C57.1441 62.3432 57.1467 61.3626 57.0508 60.6114M57.2107 63.2156C56.8781 63.3708 56.557 63.4727 56.3058 63.5565C56.0888 63.6288 55.6741 63.7193 55.1529 63.8107M57.2107 63.2156C58.0696 62.8145 59.0044 62.0573 59.0044 60.3373C59.0044 57.9513 59.005 54.9817 59.0044 51.2371C59.0039 47.4925 58.6417 42.4386 57.6521 36.4157C56.6625 30.3927 56.0424 27.686 53.8646 23.1197C51.6869 18.5534 50.9039 17.1001 47.0039 13.5001C46.2433 12.798 45.4827 12.1872 44.7243 11.6543C44.2031 11.2881 43.6976 10.9575 43.2068 10.7802C42.7159 10.603 42.0342 10.5403 41.5253 10.6724M55.1529 63.8107C55.1529 62.8636 54.9731 61.4705 54.8931 60.9111M55.1529 63.8107C54.5439 63.9176 53.7896 64.0257 53.0351 64.1079M53.0351 64.1079C52.8287 63.106 52.6316 61.7586 52.5357 61.3706M53.0351 64.1079C52.223 64.1963 51.4108 64.2545 50.7798 64.2484M50.7798 64.2484C50.4601 63.6491 49.9076 62.2896 49.9076 61.5704M50.7798 64.2484C50.4182 64.2449 50.1161 64.2203 49.9076 64.1682C48.7076 63.8682 48.2907 62.9319 47.7726 61.1691C47.4096 59.9339 46.5605 52.1842 45.1756 41.7814M20.5212 13.0444C20.8865 12.7089 22.0015 11.7986 22.6993 11.3513M22.6993 11.3513C22.1523 10.9693 21.5813 10.6992 20.9602 10.6037M22.6993 11.3513C23.2539 11.7386 23.784 12.2408 24.3168 12.7925C24.4316 12.9113 24.5541 13.0374 24.6831 13.1694M22.8696 14.9678C23.0784 14.7144 23.8243 13.9209 24.6831 13.1694M24.6831 13.1694C25.2337 13.733 25.9008 14.4035 26.5742 15.0697M24.7707 16.7795C25.0913 16.5036 26.0374 15.6781 26.5742 15.0697M26.5742 15.0697C27.292 15.7799 28.0169 16.4851 28.6153 17.0504M26.9178 18.9266C27.2607 18.5463 28.1859 17.5693 28.6153 17.0504M28.6153 17.0504C29.2236 17.6249 29.7011 18.0549 29.9077 18.1986C30.1164 18.3438 30.2898 18.4527 30.4477 18.5337M29.466 20.6519C29.7109 20.1295 30.1212 19.2847 30.4477 18.5337M30.4477 18.5337C30.7779 18.703 31.0401 18.75 31.4138 18.75C31.8474 18.75 32.1213 18.6868 32.5348 18.4428M42.2971 13.0444C41.9318 12.7089 40.8309 11.7888 40.1331 11.3415M40.1331 11.3415C40.5767 11.0336 41.0361 10.7994 41.5253 10.6724M40.1331 11.3415C39.5734 11.7301 39.0389 12.2361 38.5015 12.7925C38.3611 12.9379 38.2089 13.0943 38.0476 13.259M39.9487 14.9678C39.74 14.7144 38.9065 14.0105 38.0476 13.259M38.0476 13.259C37.5146 13.8033 36.8822 14.4385 36.2441 15.0697M38.0476 16.7795C37.7271 16.5036 36.7809 15.6781 36.2441 15.0697M36.2441 15.0697C35.5263 15.7799 34.8014 16.4851 34.203 17.0504M35.9005 18.9266C35.5576 18.5463 34.6324 17.5693 34.203 17.0504M34.203 17.0504C33.5947 17.6249 33.1172 18.0549 32.9106 18.1986C32.7717 18.2953 32.6483 18.3759 32.5348 18.4428M33.3285 20.6935C33.1865 20.3417 32.8032 19.232 32.5348 18.4428M20.9602 10.6037C23.1189 9.55788 27.6083 8.46631 31.367 8.46631C35.1256 8.46631 39.3666 9.62662 41.5253 10.6724" stroke="#1E1E1E" stroke-width="0.6" stroke-linecap="round"/>
</svg>
