<svg width="63" height="84" viewBox="0 0 63 84" fill="none" xmlns="http://www.w3.org/2000/svg">
<path d="M15.5065 27C15.5065 27 15.2315 31.5974 14.9752 37.1325M17.1829 61.1224C17.1829 60.5224 17.4494 58.9221 17.4494 58.0339M17.1829 61.1224C15.7903 59.9481 15.2084 58.0424 14.7355 55.5472C14.3302 53.4084 14.6364 44.4508 14.9752 37.1325M17.1829 61.1224C17.8868 61.716 18.7978 62.1226 20.0065 62.3241C20.1132 62.3419 20.2216 62.3586 20.3314 62.3743M20.3314 62.3743C20.2881 61.7118 20.2276 60.0025 20.3314 59.301M20.3314 62.3743C21.402 62.5277 22.6113 62.5852 23.8432 62.5904M23.8432 62.5904V59.6246M23.8432 62.5904C25.086 62.5956 26.3517 62.5474 27.5212 62.4907M27.5212 62.4907C27.5212 61.9178 27.5892 60.2174 27.6572 59.6246M27.5212 62.4907C29.0823 62.4151 30.4719 62.3241 31.4065 62.3241M31.4065 62.3241V59.5247M31.4065 62.3241L31.4091 59.5247M31.4065 62.3241C32.3411 62.3241 33.7333 62.4151 35.2944 62.4907M47.3091 27C47.3091 27 47.5842 31.5996 47.8406 37.1366M45.7134 61.0527C45.7134 60.4527 45.3662 58.9221 45.3662 58.0339M45.7134 61.0527C47.048 59.8734 47.6165 57.9936 48.0801 55.5472C48.4853 53.4088 48.1793 44.4542 47.8406 37.1366M45.7134 61.0527C44.9988 61.6842 44.0646 62.1148 42.8091 62.3241C42.7024 62.3419 42.5941 62.3586 42.4843 62.3743M42.4843 62.3743C42.5275 61.7118 42.588 60.0025 42.4843 59.301M42.4843 62.3743C41.4136 62.5277 40.2043 62.5852 38.9724 62.5904M38.9724 62.5904V59.6246M38.9724 62.5904C37.7296 62.5955 36.4639 62.5474 35.2944 62.4907M35.2944 62.4907C35.2944 61.9178 35.2264 60.2174 35.1584 59.6246M31.4078 54C34.9415 53.775 42.8078 51.9 42.8078 49.8C42.8078 48.9 41.0078 48.6 39.2078 48.9M8.72578 35.8272C8.79238 34.9548 8.78971 34.2779 8.88561 33.5268M8.72578 35.8272C9.27474 36.0095 9.98114 36.2045 10.784 36.3923M8.72578 35.8272C8.57294 35.7764 8.4323 35.7266 8.30519 35.6782C6.47893 34.9833 6.04947 33.4823 6.09723 32.2823C6.14498 31.0823 7.14034 28.5845 8.30507 24.9C8.84004 23.2076 9.42342 21.8262 10.115 20.5844C10.4287 20.0212 10.9579 19.2912 11.559 18.8304C12.16 18.3696 12.7775 18.1215 13.9551 17.9919M10.784 36.3923C10.7935 35.4617 10.9656 34.3703 11.0433 33.8264M10.784 36.3923C11.4295 36.5432 12.1375 36.6895 12.876 36.8206M12.876 36.8206C13.0824 35.8187 13.3049 34.674 13.4008 34.2859M12.876 36.8206L14.9752 37.1325M54.0867 35.8272C54.0201 34.9548 54.0228 34.2779 53.9269 33.5268M54.0867 35.8272C53.5378 36.0095 52.8314 36.2045 52.0285 36.3923M54.0867 35.8272C54.2396 35.7764 54.3802 35.7266 54.5073 35.6782C56.3336 34.9833 56.763 33.4823 56.7153 32.2823C56.6675 31.0823 55.6722 28.5845 54.5074 24.9C54.3033 24.2543 53.648 22.6142 53.2628 21.949C52.8777 21.2838 51.6873 19.6907 51.0571 19.1655C50.4268 18.6403 49.6475 18.1674 48.0527 17.9919M52.0285 36.3923C52.019 35.4617 51.8469 34.3703 51.7692 33.8264M52.0285 36.3923C51.3888 36.5419 50.6878 36.6868 49.9564 36.8171M49.9564 36.8171C49.75 35.8152 49.5076 34.674 49.4117 34.2859M49.9564 36.8171C49.2694 36.9394 48.5556 37.0487 47.8406 37.1366M16.3774 12.7998C16.5417 13.503 16.8595 15.6705 16.8157 17.906M16.8157 17.906C16.4247 17.9016 16.1536 17.899 16.0281 17.899C15.2547 17.899 14.5684 17.9244 13.9551 17.9919M16.8157 17.906L17.5984 17.9151M13.3656 20.5844C13.5358 19.8805 13.8252 18.6045 13.9551 17.9919M17.4486 20.4411C17.5337 19.7326 17.5984 18.3125 17.5984 17.9151M17.5984 17.9151L17.7317 17.9167C18.6409 17.9274 19.8451 17.9416 21.2184 17.9552M21.078 20.5844C21.1167 19.8496 21.1999 18.4936 21.2184 17.9552M21.2184 17.9552C22.3697 17.9666 23.6398 17.9776 24.9545 17.9857M24.9545 20.5844C24.9545 19.2849 24.9549 18.2005 24.9545 17.9857M24.9545 17.9857C26.1734 17.9932 27.4307 17.9983 28.6674 17.9989M28.6674 20.5844V17.9989M28.6674 17.9989C29.4588 17.9993 30.2481 17.9979 31.0071 17.9943C31.766 17.9979 32.5488 17.9993 33.3401 17.9989M45.6305 12.7998C45.4661 13.503 45.1483 15.6705 45.1921 17.906M45.1921 17.906C45.5831 17.9016 45.8542 17.899 45.9797 17.899C46.7531 17.899 47.4394 17.9244 48.0527 17.9919M45.1921 17.906L44.4094 17.9151M48.6422 20.5844C48.472 19.8805 48.1827 18.6045 48.0527 17.9919M44.5592 20.4411C44.4741 19.7326 44.4094 18.3125 44.4094 17.9151M44.4094 17.9151L44.2765 17.9167C43.3672 17.9274 42.1629 17.9416 40.7894 17.9552M40.9298 20.5844C40.8912 19.8496 40.8079 18.4936 40.7894 17.9552M40.7894 17.9552C39.6381 17.9666 38.3681 17.9776 37.0533 17.9857M37.0533 20.5844C37.0533 19.2849 37.0529 18.2005 37.0533 17.9857M37.0533 17.9857C35.8343 17.9932 34.5769 17.9983 33.3401 17.9989M33.3404 20.5844L33.3401 17.9989" stroke="#1E1E1E" stroke-width="0.6" stroke-linecap="round"/>
</svg>
