<svg width="64" height="84" viewBox="0 0 64 84" fill="none" xmlns="http://www.w3.org/2000/svg">
<path d="M15.8956 27C15.8956 27 14.4127 40.0093 15.1246 43.7657C15.5406 45.9605 16.0409 47.6993 17.1032 48.8853M17.572 49.3409C17.572 48.7409 17.8385 47.1406 17.8385 46.2523M17.572 49.3409C18.2759 49.9344 19.1869 50.3411 20.3956 50.5425C20.5023 50.5603 20.6106 50.5771 20.7204 50.5928M17.572 49.3409C17.4044 49.1995 17.2485 49.0476 17.1032 48.8853M20.7204 50.5928C20.6772 49.9302 20.6167 48.221 20.7204 47.5195M20.7204 50.5928C21.7911 50.7462 23.0004 50.8037 24.2323 50.8088M24.2323 50.8088V47.8431M24.2323 50.8088C25.4751 50.814 26.7408 50.7659 27.9103 50.7092M27.9103 50.7092C27.9103 50.1362 27.9783 48.4358 28.0463 47.8431M27.9103 50.7092C29.4714 50.6335 30.8609 50.5425 31.7956 50.5425M31.7956 50.5425V47.7431M31.7956 50.5425L31.7982 47.7431M47.6982 27C47.6982 27 49.181 40.0093 48.4691 43.7657C48.0528 45.9624 47.552 47.7023 46.4878 48.8884M46.0218 49.3409C46.0218 48.7409 45.7553 47.1406 45.7553 46.2523M46.0218 49.3409C45.3179 49.9344 44.4069 50.3411 43.1982 50.5425C43.0915 50.5603 42.9831 50.5771 42.8733 50.5928M46.0218 49.3409C46.1883 49.2004 46.3433 49.0495 46.4878 48.8884M42.8733 50.5928C42.9166 49.9302 42.9771 48.221 42.8733 47.5195M42.8733 50.5928C41.8093 50.7452 40.6084 50.803 39.3844 50.8087M39.3844 50.8087L39.3615 47.8431M39.3844 50.8087C38.1578 50.8145 36.9081 50.7681 35.75 50.7124M35.75 50.7124C35.75 50.1395 35.6155 48.4358 35.5475 47.8431M35.75 50.7124C34.1619 50.6361 32.7461 50.5425 31.7982 50.5425M31.7969 43.2C35.3306 42.975 43.1969 41.1 43.1969 39C43.1969 38.1 41.3969 37.8 39.5969 38.1M5.98934 63.2155C6.05594 62.3431 6.05328 61.3625 6.14917 60.6113M5.98934 63.2155C6.32187 63.3707 6.64303 63.4726 6.8942 63.5564C7.11125 63.6287 7.52593 63.7192 8.04713 63.8106M5.98934 63.2155C5.13037 62.8144 4.19557 62.0572 4.19557 60.3372C4.19557 57.9512 4.19499 54.9816 4.19557 51.237C4.19615 47.4924 4.55833 42.4385 5.54791 36.4156C6.53749 30.3927 7.15759 27.6859 9.33536 23.1196C9.68587 22.3847 10.0003 21.7304 10.2973 21.1348C10.6882 20.351 11.4161 19.3954 12.0363 18.9352C12.6566 18.475 13.116 18.1271 14.3442 17.9919M8.04713 63.8106C8.04713 62.8635 8.22694 61.4704 8.30685 60.911M8.04713 63.8106C8.65608 63.9175 9.41042 64.0257 10.1649 64.1078M10.1649 64.1078C10.3713 63.1059 10.5684 61.7585 10.6643 61.3705M10.1649 64.1078C11.0126 64.2001 11.8605 64.2595 12.5023 64.2471M12.5023 64.2471C12.822 63.6478 13.2924 62.2895 13.2924 61.5703M12.5023 64.2471C12.8276 64.2409 13.0999 64.2162 13.2924 64.1681C14.4925 63.8681 14.9093 62.9318 15.4274 61.169C15.7016 60.2361 16.253 55.587 17.1032 48.8853M57.6013 63.2155C57.5347 62.3431 57.5374 61.3625 57.4415 60.6113M57.6013 63.2155C57.2688 63.3707 56.9476 63.4726 56.6964 63.5564C56.4794 63.6287 56.0647 63.7192 55.5435 63.8106M57.6013 63.2155C58.4603 62.8144 59.3951 62.0572 59.3951 60.3372C59.3951 57.9512 59.3956 54.9816 59.3951 51.237C59.3945 47.4924 59.0323 42.4385 58.0427 36.4156C57.0531 30.3927 56.433 27.6859 54.2553 23.1196C54.0054 22.4177 53.1856 21.1063 51.9967 19.6672C51.1381 18.6277 50.0365 18.1674 48.4418 17.9919M55.5435 63.8106C55.5435 62.8635 55.3637 61.4704 55.2838 60.911M55.5435 63.8106C54.9346 63.9175 54.1802 64.0257 53.4258 64.1078M53.4258 64.1078C53.2193 63.1059 53.0222 61.7585 52.9263 61.3705M53.4258 64.1078C52.6137 64.1962 51.8014 64.2544 51.1704 64.2483M51.1704 64.2483C50.8507 63.649 50.2982 62.2895 50.2982 61.5703M51.1704 64.2483C50.8088 64.2448 50.5067 64.2202 50.2982 64.1681C49.0982 63.8681 48.6813 62.9318 48.1632 61.169C47.8891 60.2362 47.3378 55.5884 46.4878 48.8884M16.7664 12.7998C16.9308 13.503 17.2486 15.6705 17.2048 17.906M17.2048 17.906C16.8138 17.9016 16.5426 17.899 16.4172 17.899C15.6438 17.899 14.9575 17.9244 14.3442 17.9919M17.2048 17.906L17.9874 17.9151M13.7547 20.5844C13.9249 19.8805 14.2142 18.6045 14.3442 17.9919M17.8377 20.4411C17.9228 19.7326 17.9874 18.3125 17.9874 17.9151M17.9874 17.9151L18.1207 17.9167C19.03 17.9274 20.2342 17.9416 21.6075 17.9552M21.467 20.5844C21.5057 19.8496 21.5889 18.4936 21.6075 17.9552M21.6075 17.9552C22.7587 17.9666 24.0288 17.9776 25.3436 17.9857M25.3436 20.5844C25.3436 19.2849 25.344 18.2005 25.3436 17.9857M25.3436 17.9857C26.5625 17.9932 27.8198 17.9983 29.0565 17.9989M29.0565 20.5844V17.9989M29.0565 17.9989C29.8478 17.9993 30.6372 17.9979 31.3962 17.9943C32.1551 17.9979 32.9379 17.9993 33.7291 17.9989M46.0195 12.7998C45.8551 13.503 45.5373 15.6705 45.5812 17.906M45.5812 17.906C45.9721 17.9016 46.2433 17.899 46.3687 17.899C47.1422 17.899 47.8284 17.9244 48.4418 17.9919M45.5812 17.906L44.7985 17.9151M49.0312 20.5844C48.8611 19.8805 48.5717 18.6045 48.4418 17.9919M44.9482 20.4411C44.8631 19.7326 44.7985 18.3125 44.7985 17.9151M44.7985 17.9151L44.6656 17.9167C43.7563 17.9274 42.5519 17.9416 41.1784 17.9552M41.3189 20.5844C41.2802 19.8496 41.197 18.4936 41.1784 17.9552M41.1784 17.9552C40.0272 17.9666 38.7571 17.9776 37.4423 17.9857M37.4423 20.5844C37.4423 19.2849 37.442 18.2005 37.4423 17.9857M37.4423 17.9857C36.2234 17.9932 34.9659 17.9983 33.7291 17.9989M33.7295 20.5844L33.7291 17.9989" stroke="#1E1E1E" stroke-width="0.6" stroke-linecap="round"/>
</svg>
