<svg width="63" height="84" viewBox="0 0 63 84" fill="none" xmlns="http://www.w3.org/2000/svg">
<path d="M15.1003 27C15.1003 27 14.8253 31.5974 14.569 37.1325M16.7767 61.1224C16.7767 60.5224 17.0432 58.9221 17.0432 58.0338M16.7767 61.1224C15.3841 59.9481 14.8022 58.0424 14.3293 55.5472C13.924 53.4084 14.2301 44.4508 14.569 37.1325M16.7767 61.1224C17.4806 61.716 18.3915 62.1226 19.6002 62.3241C19.707 62.3419 19.8153 62.3586 19.9251 62.3743M19.9251 62.3743C19.8819 61.7118 19.8214 60.0025 19.9251 59.301M19.9251 62.3743C20.9958 62.5277 22.2051 62.5852 23.4369 62.5904M23.4369 62.5904V59.6246M23.4369 62.5904C24.6797 62.5955 25.9455 62.5474 27.115 62.4907M27.115 62.4907C27.115 61.9178 27.183 60.2174 27.251 59.6246M27.115 62.4907C28.676 62.4151 30.0656 62.3241 31.0002 62.3241M31.0002 62.3241V59.5247M31.0002 62.3241L31.0029 59.5247M31.0002 62.3241C31.9349 62.3241 33.3271 62.4151 34.8881 62.4907M46.9029 27C46.9029 27 47.178 31.5996 47.4343 37.1366M45.3072 61.0527C45.3072 60.4527 44.96 58.9221 44.96 58.0338M45.3072 61.0527C46.6417 59.8734 47.2102 57.9936 47.6738 55.5472C48.0791 53.4088 47.7731 44.4542 47.4343 37.1366M45.3072 61.0527C44.5926 61.6842 43.6583 62.1148 42.4029 62.3241C42.2961 62.3419 42.1878 62.3586 42.078 62.3743M42.078 62.3743C42.1212 61.7118 42.1818 60.0025 42.078 59.301M42.078 62.3743C41.0073 62.5277 39.798 62.5852 38.5662 62.5904M38.5662 62.5904V59.6246M38.5662 62.5904C37.3234 62.5955 36.0576 62.5474 34.8881 62.4907M34.8881 62.4907C34.8881 61.9178 34.8201 60.2174 34.7522 59.6246M31.0016 54C34.5352 53.775 42.4016 51.9 42.4016 49.8C42.4016 48.9 40.6016 48.6 38.8016 48.9M8.31953 35.8272C8.38613 34.9548 8.38346 34.2779 8.47936 33.5268M8.31953 35.8272C8.86849 36.0095 9.57489 36.2045 10.3777 36.3923M8.31953 35.8272C8.16669 35.7764 8.02605 35.7266 7.89894 35.6782C6.07268 34.9833 5.64322 33.4823 5.69098 32.2823C5.73873 31.0823 6.73409 28.5845 7.89882 24.9C9.06354 21.2155 10.4577 19.0047 12.6988 16.5C14.3715 14.6305 15.9474 13.1805 17.4795 12.0442C17.6282 11.9339 17.9027 11.8256 18.0664 11.8047C18.207 11.7812 18.3735 11.789 18.5896 11.8954M10.3777 36.3923C10.3873 35.4617 10.5594 34.3703 10.637 33.8264M10.3777 36.3923C11.0233 36.5432 11.7312 36.6895 12.4698 36.8206M12.4698 36.8206C12.6762 35.8187 12.8986 34.674 12.9945 34.2859M12.4698 36.8206L14.569 37.1325M53.6805 35.8272C53.6139 34.9548 53.6165 34.2779 53.5206 33.5268M53.6805 35.8272C53.1315 36.0095 52.4251 36.2045 51.6223 36.3923M53.6805 35.8272C53.8333 35.7764 53.9739 35.7266 54.1011 35.6782C55.9273 34.9833 56.3568 33.4823 56.309 32.2823C56.2613 31.0823 55.2659 28.5845 54.1012 24.9C52.9365 21.2155 51.5423 19.0047 49.3012 16.5C47.6843 14.6928 46.1578 13.2777 44.674 12.159C44.4664 12.0024 44.2383 11.9141 44.0781 11.8711C43.918 11.8281 43.6177 11.7917 43.3977 11.9024M51.6223 36.3923C51.6127 35.4617 51.4406 34.3703 51.363 33.8264M51.6223 36.3923C50.9825 36.5419 50.2815 36.6868 49.5502 36.8171M49.5502 36.8171C49.3437 35.8152 49.1014 34.674 49.0055 34.2859M49.5502 36.8171C48.8632 36.9394 48.1493 37.0487 47.4343 37.1366M17.8025 14.5026C18.1183 14.2994 19.1274 13.8434 19.6328 13.645M19.6328 13.645C19.5313 12.6363 19.0789 12.1363 18.5896 11.8954M19.6328 13.645C19.8026 14.4239 19.9836 15.0583 20.1471 15.549M18.4145 16.5953C18.6777 16.3979 19.5312 15.9122 20.1471 15.549M20.1471 15.549C20.2325 15.8051 20.3132 16.0221 20.385 16.2001C20.5695 16.6569 20.8042 17.0267 21.0902 17.3096M19.7964 18.7275C19.9215 18.5827 20.4585 17.9888 21.0902 17.3096M21.0902 17.3096C21.4999 17.7148 22.015 17.9416 22.6393 17.9901M22.4814 20.1292C22.5011 19.7343 22.5604 18.5903 22.6393 17.9901M22.6393 17.9901C22.6393 17.9901 22.8114 18.0001 22.9004 18.0001C23.4297 18.0001 24.2508 17.8833 25.3638 17.7529M25.3638 19.9515V17.7529M25.3638 17.7529C26.1662 17.6588 27.1204 17.5575 28.2264 17.4877M28.3251 19.7146C28.2988 19.2473 28.2422 18.0089 28.2264 17.4877M28.2264 17.4877C29.064 17.4349 29.9887 17.4001 31.0004 17.4001M31.0004 19.7146V17.4001M31.0004 17.4001C32.0122 17.4001 32.937 17.4349 33.7747 17.4877M44.199 14.5026C43.8831 14.2994 42.874 13.8434 42.3686 13.645M42.3686 13.645C42.1988 14.4239 42.0179 15.0583 41.8543 15.5489M42.3686 13.645C42.4692 12.6459 42.9138 12.1459 43.3977 11.9024M43.5869 16.5953C43.3237 16.3979 42.4703 15.9122 41.8543 15.5489M41.8543 15.5489C41.7689 15.8051 41.6882 16.0221 41.6164 16.2C41.431 16.6592 41.1948 17.0305 40.9067 17.314M42.205 18.7274C42.08 18.5827 41.5385 17.9931 40.9067 17.314M40.9067 17.314C40.4978 17.7164 39.9842 17.9417 39.3621 17.9901M39.52 20.1291C39.5003 19.7343 39.4411 18.5903 39.3621 17.9901M39.3621 17.9901C39.2771 17.9967 39.1901 18 39.101 18C38.5718 18 37.7506 17.8833 36.6377 17.7529M36.6377 19.9515V17.7529M36.6377 17.7529C35.8351 17.6588 34.8808 17.5575 33.7747 17.4877M33.6763 19.7145C33.7027 19.2473 33.759 18.0089 33.7747 17.4877M18.5896 11.8954C22.3947 10.7153 27.5542 10.3154 31.0016 10.3154C34.4559 10.3154 39.5958 10.7168 43.3977 11.9024" stroke="#1E1E1E" stroke-width="0.6" stroke-linecap="round"/>
</svg>
