<svg width="63" height="84" viewBox="0 0 63 84" fill="none" xmlns="http://www.w3.org/2000/svg">
<path d="M16.3004 27C16.3004 27 16.0486 33.9634 16.0485 36.3063C16.0485 36.6113 16.0476 36.9415 16.0541 37.2865M19.9252 43.1335C19.882 42.4709 19.8215 40.7617 19.9252 40.0601M19.9252 43.1335C19.8155 43.1177 19.7071 43.101 19.6004 43.0832C16.4689 42.5613 16.0977 39.5924 16.0541 37.2865M19.9252 43.1335C20.9959 43.2868 22.2052 43.3443 23.4371 43.3495M23.4371 43.3495V40.3837M23.4371 43.3495C24.6799 43.3547 25.9456 43.3066 27.1151 43.2499M27.1151 43.2499C27.1151 42.6769 27.1831 40.9765 27.2511 40.3837M27.1151 43.2499C28.6762 43.1742 30.0681 43.0832 31.0027 43.0832M31.0027 43.0832L31.0004 40.2838M31.0027 43.0832V40.2838M31.0027 43.0832C31.9374 43.0832 33.3269 43.1742 34.888 43.2499M45.7027 27C45.7027 27 45.9545 33.9634 45.9546 36.3063C45.9547 36.6112 45.9555 36.9413 45.949 37.2863M42.0779 43.1335C42.1211 42.4709 42.1816 40.7617 42.0779 40.0601M42.0779 43.1335C42.1877 43.1177 42.296 43.101 42.4027 43.0832C45.5343 42.5613 45.9055 39.5922 45.949 37.2863M42.0779 43.1335C41.0072 43.2868 39.7979 43.3443 38.566 43.3495M38.566 43.3495V40.3837M38.566 43.3495C37.3232 43.3547 36.0575 43.3066 34.888 43.2499M34.888 43.2499C34.888 42.6769 34.82 40.9765 34.752 40.3837M31.0016 36C34.5352 35.775 42.4016 33.9 42.4016 31.8C42.4016 30.9 40.6016 30.6 38.8016 30.9M8.31953 35.8272C8.38613 34.9548 8.38346 34.2779 8.47936 33.5268M8.31953 35.8272C8.86849 36.0095 9.57489 36.2045 10.3777 36.3923M8.31953 35.8272C8.16669 35.7764 8.02605 35.7266 7.89894 35.6782C6.07268 34.9833 5.64322 33.4823 5.69098 32.2823C5.73873 31.0823 6.73409 28.5845 7.89882 24.9C9.06354 21.2155 10.4577 19.0047 12.6988 16.5C13.9924 15.0542 15.2281 13.8593 16.4304 12.8664C16.9304 12.4535 17.0521 12.3833 17.4506 12.0954C17.8491 11.8075 18.3679 11.8126 18.5854 11.8965M10.3777 36.3923C10.3873 35.4617 10.5594 34.3703 10.637 33.8264M10.3777 36.3923C11.0233 36.5432 11.7312 36.6895 12.4698 36.8206M12.4698 36.8206C12.6762 35.8187 12.8986 34.674 12.9945 34.2859M12.4698 36.8206C13.2036 36.9509 13.9678 37.0663 14.731 37.1566M12.4698 36.8206L14.731 37.1566M14.731 37.1566C15.1744 37.209 15.6175 37.253 16.0541 37.2865M53.6805 35.8272C53.6139 34.9548 53.6165 34.2779 53.5206 33.5268M53.6805 35.8272C53.1315 36.0095 52.4251 36.2045 51.6223 36.3923M53.6805 35.8272C53.8333 35.7764 53.9739 35.7266 54.1011 35.6782C55.9273 34.9833 56.3568 33.4823 56.309 32.2823C56.2613 31.0823 55.2659 28.5845 54.1012 24.9C52.9365 21.2155 51.5423 19.0047 49.3012 16.5C47.9528 14.993 46.6674 13.7586 45.4171 12.7414C44.9691 12.3769 44.738 12.2043 44.3977 12.0309C44.0574 11.8575 43.6218 11.8156 43.3995 11.903M51.6223 36.3923C51.6127 35.4617 51.4406 34.3703 51.363 33.8264M51.6223 36.3923C50.9825 36.5419 50.2815 36.6868 49.5502 36.8171M49.5502 36.8171C49.3437 35.8152 49.1014 34.674 49.0055 34.2859M49.5502 36.8171C48.8087 36.9491 48.036 37.066 47.2642 37.1571C46.8235 37.2092 46.3831 37.2529 45.949 37.2863M17.2783 14.5978C17.6975 14.2022 18.9268 13.2147 19.8025 12.7546M19.8025 12.7546C19.4307 12.3468 19.0211 12.0645 18.5854 11.8965M19.8025 12.7546C19.8855 12.8456 19.9665 12.9428 20.0456 13.0464C20.3888 13.4959 20.8484 14.1864 21.5318 14.9294M19.4822 16.7137C19.8162 16.4601 20.8045 15.6716 21.5318 14.9294M21.5318 14.9294C22.1206 15.5697 22.8755 16.249 23.8652 16.8469M22.0425 19.0513C22.4878 18.6246 23.5683 17.4406 23.8652 16.8469M23.8652 16.8469C24.6081 17.2957 25.4833 17.6986 26.5199 18.0047M25.4204 20.6372C25.674 20.0187 26.3121 18.4648 26.5199 18.0047M26.5199 18.0047C27.3528 18.2507 28.29 18.4341 29.3463 18.5285M29.0009 21.6131C29.1663 20.8308 29.3463 18.9466 29.3463 18.5285M29.3463 18.5285C29.8681 18.5751 30.4191 18.6 31.0009 18.6C31.5826 18.6 32.1335 18.5751 32.6552 18.5285M44.7233 14.5978C44.304 14.2023 43.0869 13.2015 42.2112 12.7414M42.2112 12.7414C42.124 12.8361 42.0389 12.9377 41.956 13.0464C41.6127 13.496 41.153 14.1866 40.4696 14.9297M42.2112 12.7414C42.5751 12.3459 42.9748 12.0699 43.3995 11.903M42.5193 16.7137C42.1854 16.4601 41.1968 15.6719 40.4696 14.9297M40.4696 14.9297C39.8782 15.5728 39.1192 16.2552 38.1233 16.8549M39.959 19.0514C39.5137 18.6246 38.4201 17.4486 38.1233 16.8549M38.1233 16.8549C37.3832 17.3005 36.5122 17.7005 35.4819 18.0047M36.5811 20.6372C36.3276 20.0187 35.6897 18.4648 35.4819 18.0047M35.4819 18.0047C34.6489 18.2507 33.7117 18.4341 32.6552 18.5285M33.0006 21.6131C32.8352 20.8308 32.6552 18.9466 32.6552 18.5285M18.5715 11.9008C18.5762 11.8993 18.5808 11.8979 18.5854 11.8965M18.5854 11.8965C22.3855 10.7155 27.5531 10.3154 31.0016 10.3154C34.4564 10.3154 39.5974 10.717 43.3995 11.903" stroke="#1E1E1E" stroke-width="0.6" stroke-linecap="round"/>
</svg>
