<svg width="63" height="84" viewBox="0 0 63 84" fill="none" xmlns="http://www.w3.org/2000/svg">
<path d="M15.1002 27.0001C15.1002 27.0001 14.4974 32.2889 14.245 37.0959M16.7767 49.341C16.7767 48.741 17.0432 47.1407 17.0432 46.2524M16.7767 49.341C15.3841 48.1667 14.8022 46.2609 14.3293 43.7658C14.0713 42.4045 14.1016 39.828 14.245 37.0959M16.7767 49.341C17.4806 49.9345 18.3915 50.3412 19.6002 50.5426C19.707 50.5604 19.8153 50.5772 19.9251 50.5929M19.9251 50.5929C19.8819 49.9303 19.8214 48.2211 19.9251 47.5196M19.9251 50.5929C20.9958 50.7463 22.2051 50.8038 23.437 50.8089M23.437 50.8089V47.8432M23.437 50.8089C24.6797 50.8141 25.9455 50.766 27.115 50.7093M27.115 50.7093C27.115 50.1363 27.183 48.4359 27.251 47.8432M27.115 50.7093C28.676 50.6336 30.0656 50.5426 31.0002 50.5426M31.0002 50.5426V47.7432M31.0002 50.5426L31.0029 47.7432M46.9029 27.0001C46.9029 27.0001 47.5057 32.2886 47.7581 37.0955M45.2265 49.341C45.2265 48.741 44.96 47.1407 44.96 46.2524M45.2265 49.341C46.619 48.1667 47.201 46.2609 47.6738 43.7658C47.9318 42.4044 47.9016 39.8277 47.7581 37.0955M45.2265 49.341C44.5226 49.9345 43.6116 50.3412 42.4029 50.5426C42.2961 50.5604 42.1878 50.5772 42.078 50.5929M42.078 50.5929C42.1212 49.9303 42.1818 48.2211 42.078 47.5196M42.078 50.5929C41.014 50.7453 39.813 50.8031 38.5891 50.8088M38.5891 50.8088L38.5662 47.8432M38.5891 50.8088C37.3625 50.8146 36.1128 50.7682 34.9547 50.7125M34.9547 50.7125C34.9547 50.1396 34.8202 48.4359 34.7522 47.8432M34.9547 50.7125C33.3666 50.6362 31.9508 50.5426 31.0029 50.5426M31.0016 43.2001C34.5352 42.9751 42.4016 41.1001 42.4016 39.0001C42.4016 38.1001 40.6016 37.8001 38.8016 38.1001M8.31953 35.8272C8.38613 34.9549 8.38346 34.278 8.47936 33.5268M8.31953 35.8272C8.86849 36.0096 9.57489 36.2046 10.3777 36.3924M8.31953 35.8272C8.16669 35.7765 8.02605 35.7267 7.89894 35.6783C6.07268 34.9834 5.64322 33.4824 5.69098 32.2824C5.73873 31.0824 6.73409 28.5846 7.89882 24.9001C9.06354 21.2156 10.4577 19.0048 12.6988 16.5001C14.7326 14.2271 16.6232 12.5742 18.4659 11.3513C18.8837 11.074 19.0711 10.9147 19.4738 10.7592C19.8766 10.6037 20.285 10.5621 20.5555 10.6037M10.3777 36.3924C10.3873 35.4618 10.5594 34.3704 10.637 33.8265M10.3777 36.3924C11.0233 36.5433 11.7312 36.6896 12.4698 36.8207M12.4698 36.8207C12.6762 35.8188 12.8986 34.6741 12.9945 34.286M12.4698 36.8207C13.0478 36.9233 13.6446 37.0167 14.245 37.0959M53.6805 35.8272C53.6139 34.9549 53.6165 34.278 53.5206 33.5268M53.6805 35.8272C53.1315 36.0096 52.4251 36.2046 51.6223 36.3924M53.6805 35.8272C53.8333 35.7765 53.9739 35.7267 54.1011 35.6783C55.9273 34.9834 56.3568 33.4824 56.309 32.2824C56.2613 31.0824 55.2659 28.5846 54.1012 24.9001C52.9365 21.2156 51.5423 19.0048 49.3012 16.5001C47.3444 14.3131 45.5201 12.7002 43.7435 11.492C43.2543 11.1593 42.8967 10.9789 42.4536 10.8044C42.0105 10.6298 41.4897 10.5766 41.1206 10.6724M51.6223 36.3924C51.6127 35.4618 51.4406 34.3704 51.363 33.8265M51.6223 36.3924C50.9825 36.542 50.2815 36.6869 49.5502 36.8172M49.5502 36.8172C49.3437 35.8153 49.1014 34.6741 49.0055 34.286M49.5502 36.8172C48.9669 36.921 48.3643 37.0155 47.7581 37.0955M20.1165 13.0444C20.4818 12.7089 21.5968 11.7986 22.2946 11.3513M22.2946 11.3513C21.7476 10.9693 21.1767 10.6992 20.5555 10.6037M22.2946 11.3513C22.8492 11.7386 23.3793 12.2408 23.9121 12.7925C24.0269 12.9113 24.1494 13.0374 24.2784 13.1694M22.4649 14.9678C22.6737 14.7144 23.4196 13.9209 24.2784 13.1694M24.2784 13.1694C24.829 13.733 25.4961 14.4035 26.1695 15.0697M24.366 16.7795C24.6866 16.5036 25.6327 15.6781 26.1695 15.0697M26.1695 15.0697C26.8873 15.7799 27.6122 16.4851 28.2107 17.0504M26.5131 18.9266C26.856 18.5463 27.7812 17.5693 28.2107 17.0504M28.2107 17.0504C28.8189 17.6249 29.2964 18.0549 29.503 18.1986C29.7117 18.3438 29.8852 18.4527 30.0431 18.5337M29.0613 20.6519C29.3062 20.1295 29.7165 19.2847 30.0431 18.5337M30.0431 18.5337C30.3732 18.703 30.6354 18.75 31.0092 18.75C31.4427 18.75 31.7166 18.6868 32.1301 18.4428M41.8924 13.0444C41.5271 12.7089 40.4262 11.7888 39.7284 11.3415M39.7284 11.3415C40.172 11.0336 40.6314 10.7994 41.1206 10.6724M39.7284 11.3415C39.1687 11.7301 38.6342 12.2361 38.0968 12.7925C37.9564 12.9379 37.8042 13.0943 37.6429 13.259M39.544 14.9678C39.3353 14.7144 38.5018 14.0105 37.6429 13.259M37.6429 13.259C37.1099 13.8033 36.4775 14.4385 35.8394 15.0697M37.6429 16.7795C37.3224 16.5036 36.3762 15.6781 35.8394 15.0697M35.8394 15.0697C35.1216 15.7799 34.3967 16.4851 33.7983 17.0504M35.4958 18.9266C35.1529 18.5463 34.2277 17.5693 33.7983 17.0504M33.7983 17.0504C33.19 17.6249 32.7125 18.0549 32.5059 18.1986C32.367 18.2953 32.2437 18.3759 32.1301 18.4428M32.9238 20.6935C32.7818 20.3417 32.3985 19.232 32.1301 18.4428M20.5555 10.6037C22.7142 9.55788 27.2036 8.46631 30.9623 8.46631C34.7209 8.46631 38.962 9.62662 41.1206 10.6724" stroke="#1E1E1E" stroke-width="0.6" stroke-linecap="round"/>
</svg>
