<svg width="64" height="84" viewBox="0 0 64 84" fill="none" xmlns="http://www.w3.org/2000/svg">
<path d="M15.8963 27.0001C16.3445 35.0359 14.5562 51.3306 14.5562 55.9653C14.5562 58.9218 14.5692 61.2114 14.6845 63.1059M17.5186 70.738C17.5186 70.138 17.8392 68.5982 17.8392 67.7099M17.5186 70.738C15.9876 69.4946 15.2703 67.614 14.9963 66.0001C14.8485 65.1295 14.75 64.1814 14.6845 63.1059M17.5186 70.738C18.2683 71.3468 19.213 71.8029 20.3963 72.0001C20.503 72.0179 20.6114 72.0346 20.7212 72.0504M20.7212 72.0504C20.6779 71.3878 20.6174 69.6786 20.7212 68.977M20.7212 72.0504C21.7918 72.2037 23.0011 72.2612 24.233 72.2664M24.233 72.2664V69.3006M24.233 72.2664C25.4758 72.2716 26.7415 72.2235 27.911 72.1668M27.911 72.1668C27.911 71.5938 27.979 69.8934 28.047 69.3006M27.911 72.1668C29.4721 72.0911 30.8628 72.0001 31.7975 72.0001M31.7975 72.0001L31.7963 69.2007M31.7975 72.0001C32.735 72.0001 34.1303 72.0917 35.6972 72.1675M47.6975 27.0001C47.2493 35.0359 49.0375 51.3306 49.0375 55.9653C49.0375 58.9243 49.0245 61.2152 48.9089 63.1107M46.021 70.7814C46.021 70.1814 45.7545 68.5982 45.7545 67.7099M46.021 70.7814C47.5893 69.5387 48.3202 67.6329 48.5975 66.0001C48.7451 65.1308 48.8434 64.1842 48.9089 63.1107M46.021 70.7814C45.2802 71.3685 44.3525 71.8076 43.1975 72.0001C43.0907 72.0179 42.9824 72.0346 42.8726 72.0504M42.8726 72.0504C42.9158 71.3878 42.9763 69.6786 42.8726 68.977M42.8726 72.0504C41.8019 72.2037 40.5926 72.2612 39.3608 72.2664M39.3608 72.2664V69.3006M39.3608 72.2664C38.1231 72.2715 36.8627 72.2239 35.6972 72.1675M35.6972 72.1675C35.6972 71.5945 35.6147 69.8934 35.5467 69.3006M31.7969 63.6001C35.3306 63.3751 43.1969 61.5001 43.1969 59.4001C43.1969 58.5001 41.3969 58.2001 39.5969 58.5001M5.98934 63.2156C6.05594 62.3432 6.05328 61.3626 6.14917 60.6114M5.98934 63.2156C6.32187 63.3708 6.64303 63.4727 6.8942 63.5565C7.11125 63.6288 7.52593 63.7193 8.04713 63.8107M5.98934 63.2156C5.13037 62.8145 4.19557 62.0573 4.19557 60.3373C4.19557 57.9513 4.19499 54.9817 4.19557 51.2371C4.19615 47.4925 4.55833 42.4386 5.54791 36.4157C6.53749 30.3927 7.15759 27.686 9.33536 23.1197C11.5131 18.5534 12.2961 17.1001 16.1961 13.5001C16.9499 12.8043 17.7037 12.1981 18.4554 11.6686C18.9813 11.2981 19.4334 11.09 19.853 10.9167C20.2726 10.7434 20.9354 10.5398 21.3509 10.6037M8.04713 63.8107C8.04713 62.8636 8.22694 61.4705 8.30685 60.9111M8.04713 63.8107C8.65608 63.9176 9.41042 64.0257 10.1649 64.1079M10.1649 64.1079C10.3713 63.106 10.5684 61.7586 10.6643 61.3706M10.1649 64.1079C11.0126 64.2002 11.8605 64.2596 12.5023 64.2472M12.5023 64.2472C12.822 63.6479 13.2924 62.2896 13.2924 61.5704M12.5023 64.2472C12.8276 64.241 13.0999 64.2163 13.2924 64.1682C13.9365 64.0072 14.3549 63.6629 14.6845 63.1059M57.6013 63.2156C57.5347 62.3432 57.5374 61.3626 57.4415 60.6114M57.6013 63.2156C57.2688 63.3708 56.9476 63.4727 56.6964 63.5565C56.4794 63.6288 56.0647 63.7193 55.5435 63.8107M57.6013 63.2156C58.4603 62.8145 59.3951 62.0573 59.3951 60.3373C59.3951 57.9513 59.3956 54.9817 59.3951 51.2371C59.3945 47.4925 59.0323 42.4386 58.0427 36.4157C57.0531 30.3927 56.433 27.686 54.2553 23.1197C52.0775 18.5534 51.2945 17.1001 47.3945 13.5001C47.0181 13.1526 46.6416 12.8275 46.2654 12.5231C45.7126 12.0758 45.3537 11.7851 44.6097 11.3105C43.8657 10.8358 42.7142 10.4652 41.9159 10.6724M55.5435 63.8107C55.5435 62.8636 55.3637 61.4705 55.2838 60.9111M55.5435 63.8107C54.9346 63.9176 54.1802 64.0257 53.4258 64.1079M53.4258 64.1079C53.2193 63.106 53.0222 61.7586 52.9263 61.3706M53.4258 64.1079C52.6137 64.1963 51.8014 64.2545 51.1704 64.2484M51.1704 64.2484C50.8507 63.6491 50.2982 62.2896 50.2982 61.5704M51.1704 64.2484C50.8088 64.2449 50.5067 64.2203 50.2982 64.1682C49.656 64.0076 49.2381 63.6649 48.9089 63.1107M20.9118 13.0444C21.2771 12.7089 22.3921 11.7986 23.0899 11.3513M23.0899 11.3513C22.5429 10.9693 21.972 10.6992 21.3509 10.6037M23.0899 11.3513C23.6445 11.7386 24.1746 12.2408 24.7074 12.7925C24.8222 12.9113 24.9448 13.0374 25.0737 13.1694M23.2602 14.9678C23.469 14.7144 24.2149 13.9209 25.0737 13.1694M25.0737 13.1694C25.6243 13.733 26.2915 14.4035 26.9648 15.0697M25.1613 16.7795C25.4819 16.5036 26.428 15.6781 26.9648 15.0697M26.9648 15.0697C27.6826 15.7799 28.4076 16.4851 29.006 17.0504M27.3084 18.9266C27.6514 18.5463 28.5766 17.5693 29.006 17.0504M29.006 17.0504C29.6142 17.6249 30.0917 18.0549 30.2983 18.1986C30.507 18.3438 30.6805 18.4527 30.8384 18.5337M29.8566 20.6519C30.1015 20.1295 30.5119 19.2847 30.8384 18.5337M30.8384 18.5337C31.1686 18.703 31.4307 18.75 31.8045 18.75C32.238 18.75 32.5119 18.6868 32.9254 18.4428M42.6877 13.0444C42.3224 12.7089 41.2215 11.7888 40.5237 11.3415M40.5237 11.3415C40.9673 11.0336 41.4267 10.7994 41.9159 10.6724M40.5237 11.3415C39.964 11.7301 39.4295 12.2361 38.8922 12.7925C38.7517 12.9379 38.5995 13.0943 38.4383 13.259M40.3393 14.9678C40.1306 14.7144 39.2971 14.0105 38.4383 13.259M38.4383 13.259C37.9052 13.8033 37.2728 14.4385 36.6348 15.0697M38.4383 16.7795C38.1177 16.5036 37.1715 15.6781 36.6348 15.0697M36.6348 15.0697C35.9169 15.7799 35.192 16.4851 34.5936 17.0504M36.2911 18.9266C35.9482 18.5463 35.023 17.5693 34.5936 17.0504M34.5936 17.0504C33.9854 17.6249 33.5078 18.0549 33.3013 18.1986C33.1623 18.2953 33.039 18.3759 32.9254 18.4428M33.7191 20.6935C33.5771 20.3417 33.1938 19.232 32.9254 18.4428M21.3509 10.6037C23.5095 9.55788 27.999 8.46631 31.7576 8.46631C35.5162 8.46631 39.7573 9.62662 41.9159 10.6724" stroke="#1E1E1E" stroke-width="0.6" stroke-linecap="round"/>
</svg>
