<svg width="63" height="84" viewBox="0 0 63 84" fill="none" xmlns="http://www.w3.org/2000/svg">
<path d="M15.3034 27.0001C15.3034 27.0001 15.0284 31.5975 14.7721 37.1326M16.9798 61.1225C16.9798 60.5225 17.2463 58.9222 17.2463 58.0339M16.9798 61.1225C15.5872 59.9482 15.0053 58.0425 14.5324 55.5473C14.1271 53.4085 14.4333 44.4509 14.7721 37.1326M16.9798 61.1225C17.6837 61.7161 18.5947 62.1227 19.8034 62.3242C19.9101 62.342 20.0184 62.3587 20.1282 62.3744M20.1282 62.3744C20.085 61.7119 20.0245 60.0026 20.1282 59.3011M20.1282 62.3744C21.1989 62.5278 22.4082 62.5853 23.6401 62.5905M23.6401 62.5905V59.6247M23.6401 62.5905C24.8829 62.5956 26.1486 62.5475 27.3181 62.4908M27.3181 62.4908C27.3181 61.9179 27.3861 60.2175 27.4541 59.6247M27.3181 62.4908C28.8792 62.4152 30.2687 62.3242 31.2034 62.3242M31.2034 62.3242V59.5248M31.2034 62.3242L31.206 59.5248M31.2034 62.3242C32.138 62.3242 33.5302 62.4152 35.0913 62.4908M47.106 27.0001C47.106 27.0001 47.3821 31.6203 47.6384 37.1572M45.5103 61.0528C45.5103 60.4528 45.1631 58.9222 45.1631 58.0339M45.5103 61.0528C46.8449 59.8735 47.4133 57.9937 47.8769 55.5473C48.2818 53.4109 47.9768 44.471 47.6384 37.1572M45.5103 61.0528C44.7957 61.6843 43.8614 62.1149 42.606 62.3242C42.4993 62.342 42.3909 62.3587 42.2811 62.3744M42.2811 62.3744C42.3244 61.7119 42.3849 60.0026 42.2811 59.3011M42.2811 62.3744C41.2105 62.5278 40.0011 62.5853 38.7693 62.5905M38.7693 62.5905V59.6247M38.7693 62.5905C37.5265 62.5956 36.2608 62.5475 35.0913 62.4908M35.0913 62.4908C35.0913 61.9179 35.0233 60.2175 34.9553 59.6247M31.2047 54.0001C34.7384 53.7751 42.6047 51.9001 42.6047 49.8001C42.6047 48.9001 40.8047 48.6001 39.0047 48.9001M8.52266 35.8272C8.58925 34.9549 8.58659 34.278 8.68249 33.5268M8.52266 35.8272C9.07162 36.0096 9.77802 36.2046 10.5809 36.3924M8.52266 35.8272C8.36982 35.7765 8.22918 35.7267 8.10206 35.6783C6.2758 34.9834 5.84635 33.4824 5.8941 32.2824C5.94186 31.0824 6.93722 28.5846 8.10194 24.9001C9.26666 21.2156 10.6608 19.0048 12.9019 16.5001C15.0326 14.1188 17.0062 12.4181 18.9321 11.1794C19.2614 10.9676 19.547 10.7997 19.7958 10.7017C20.0446 10.6037 20.4881 10.5621 20.7587 10.6037M10.5809 36.3924C10.5904 35.4618 10.7625 34.3704 10.8402 33.8265M10.5809 36.3924C11.2264 36.5433 11.9343 36.6896 12.6729 36.8207M12.6729 36.8207C12.8793 35.8188 13.1017 34.6741 13.1976 34.286M12.6729 36.8207L14.7721 37.1326M53.8836 35.8272C53.817 34.9549 53.8197 34.278 53.7238 33.5268M53.8836 35.8272C53.3346 36.0096 52.6282 36.2046 51.8254 36.3924M53.8836 35.8272C54.0364 35.7765 54.1771 35.7267 54.3042 35.6783C56.1305 34.9834 56.5599 33.4824 56.5122 32.2824C56.4644 31.0824 55.469 28.5846 54.3043 24.9001C53.1396 21.2156 51.7454 19.0048 49.5043 16.5001C47.4978 14.2575 45.6306 12.6187 43.8114 11.4008C43.3679 11.1038 42.9898 10.8941 42.5874 10.765C42.1849 10.6359 41.6928 10.5766 41.3237 10.6724M51.8254 36.3924C51.8159 35.4618 51.6438 34.3704 51.5661 33.8265M51.8254 36.3924C51.1856 36.542 50.4847 36.6869 49.7533 36.8172M49.7533 36.8172C49.5469 35.8153 49.3045 34.6741 49.2086 34.286M49.7533 36.8172C49.0663 36.9395 48.3534 37.0693 47.6384 37.1572M20.3196 13.0444C20.685 12.7089 21.7999 11.7986 22.4977 11.3513M22.4977 11.3513C21.9507 10.9693 21.3798 10.6992 20.7587 10.6037M22.4977 11.3513C23.0524 11.7386 23.5824 12.2408 24.1152 12.7925C24.23 12.9113 24.3526 13.0374 24.4816 13.1694M22.668 14.9678C22.8768 14.7144 23.6227 13.9209 24.4816 13.1694M24.4816 13.1694C25.0322 13.733 25.6993 14.4035 26.3726 15.0697M24.5691 16.7795C24.8897 16.5036 25.8358 15.6781 26.3726 15.0697M26.3726 15.0697C27.0904 15.7799 27.8154 16.4851 28.4138 17.0504M26.7162 18.9266C27.0592 18.5463 27.9844 17.5693 28.4138 17.0504M28.4138 17.0504C29.022 17.6249 29.4996 18.0549 29.7061 18.1986C29.9148 18.3438 30.0883 18.4527 30.2462 18.5337M29.2645 20.6519C29.5093 20.1295 29.9197 19.2847 30.2462 18.5337M30.2462 18.5337C30.5764 18.703 30.8385 18.75 31.2123 18.75C31.6458 18.75 31.9197 18.6868 32.3333 18.4428M42.0955 13.0444C41.7302 12.7089 40.6294 11.7888 39.9315 11.3415M39.9315 11.3415C40.3751 11.0336 40.8345 10.7994 41.3237 10.6724M39.9315 11.3415C39.3718 11.7301 38.8373 12.2361 38.3 12.7925C38.1595 12.9379 38.0073 13.0943 37.8461 13.259M39.7471 14.9678C39.5384 14.7144 38.7049 14.0105 37.8461 13.259M37.8461 13.259C37.313 13.8033 36.6806 14.4385 36.0426 15.0697M37.8461 16.7795C37.5255 16.5036 36.5793 15.6781 36.0426 15.0697M36.0426 15.0697C35.3247 15.7799 34.5998 16.4851 34.0014 17.0504M35.699 18.9266C35.356 18.5463 34.4308 17.5693 34.0014 17.0504M34.0014 17.0504C33.3932 17.6249 32.9156 18.0549 32.7091 18.1986C32.5701 18.2953 32.4468 18.3759 32.3333 18.4428M33.1269 20.6935C32.9849 20.3417 32.6016 19.232 32.3333 18.4428M20.7587 10.6037C22.9173 9.55788 27.4068 8.46631 31.1654 8.46631C34.924 8.46631 39.1651 9.62662 41.3237 10.6724M47.6384 37.1572C47.6387 37.1641 47.6381 37.1504 47.6384 37.1572Z" stroke="#1E1E1E" stroke-width="0.6" stroke-linecap="round"/>
</svg>
