<svg width="63" height="84" viewBox="0 0 63 84" fill="none" xmlns="http://www.w3.org/2000/svg">
<path d="M15.5049 27C15.5049 27 14.0221 40.0093 14.734 43.7657C15.1499 45.9605 15.6503 47.6993 16.7126 48.8853M17.1814 49.3409C17.1814 48.7409 17.4479 47.1406 17.4479 46.2523M17.1814 49.3409C17.8852 49.9344 18.7962 50.3411 20.0049 50.5425C20.1117 50.5603 20.22 50.5771 20.3298 50.5928M17.1814 49.3409C17.0138 49.1995 16.8579 49.0476 16.7126 48.8853M20.3298 50.5928C20.2866 49.9302 20.2261 48.221 20.3298 47.5195M20.3298 50.5928C21.4005 50.7462 22.6098 50.8037 23.8416 50.8088M23.8416 50.8088V47.8431M23.8416 50.8088C25.0844 50.814 26.3502 50.7659 27.5197 50.7092M27.5197 50.7092C27.5197 50.1362 27.5877 48.4358 27.6556 47.8431M27.5197 50.7092C29.0807 50.6335 30.4703 50.5425 31.4049 50.5425M31.4049 50.5425V47.7431M31.4049 50.5425L31.4076 47.7431M47.3076 27C47.3076 27 48.7904 40.0093 48.0785 43.7657C47.6622 45.9624 47.1614 47.7023 46.0972 48.8884M45.6311 49.3409C45.6311 48.7409 45.3647 47.1406 45.3647 46.2523M45.6311 49.3409C44.9273 49.9344 44.0163 50.3411 42.8076 50.5425C42.7008 50.5603 42.5925 50.5771 42.4827 50.5928M45.6311 49.3409C45.7977 49.2004 45.9527 49.0495 46.0972 48.8884M42.4827 50.5928C42.5259 49.9302 42.5865 48.221 42.4827 47.5195M42.4827 50.5928C41.4187 50.7452 40.2177 50.803 38.9938 50.8087M38.9938 50.8087L38.9709 47.8431M38.9938 50.8087C37.7672 50.8145 36.5175 50.7681 35.3594 50.7124M35.3594 50.7124C35.3594 50.1395 35.2248 48.4358 35.1569 47.8431M35.3594 50.7124C33.7713 50.6361 32.3555 50.5425 31.4076 50.5425M31.4062 43.2C34.9399 42.975 42.8063 41.1 42.8063 39C42.8063 38.1 41.0063 37.8 39.2063 38.1M5.59872 63.2155C5.66531 62.3431 5.66265 61.3625 5.75855 60.6113M5.59872 63.2155C5.93124 63.3707 6.25241 63.4726 6.50358 63.5564C6.72062 63.6287 7.13531 63.7192 7.65651 63.8106M5.59872 63.2155C4.73974 62.8144 3.80495 62.0572 3.80495 60.3372C3.80495 57.9512 3.80437 54.9816 3.80495 51.237C3.80552 47.4924 4.1677 42.4385 5.15728 36.4156C6.14686 30.3927 6.76697 27.6859 8.94473 23.1196C11.1225 18.5534 11.9055 17.1 15.8055 13.5C16.322 13.0232 16.8385 12.5886 17.3543 12.1918C17.583 12.0159 17.8675 11.8616 18.1347 11.7999C18.4019 11.7383 18.6914 11.7463 18.9943 11.8954M7.65651 63.8106C7.65651 62.8635 7.83632 61.4704 7.91623 60.911M7.65651 63.8106C8.26545 63.9175 9.0198 64.0257 9.77423 64.1078M9.77423 64.1078C9.98068 63.1059 10.1778 61.7585 10.2737 61.3705M9.77423 64.1078C10.622 64.2001 11.4699 64.2595 12.1117 64.2471M12.1117 64.2471C12.4314 63.6478 12.9018 62.2895 12.9018 61.5703M12.1117 64.2471C12.437 64.2409 12.7093 64.2162 12.9018 64.1681C14.1018 63.8681 14.5187 62.9318 15.0368 61.169C15.311 60.2361 15.8624 55.587 16.7126 48.8853M57.2107 63.2155C57.1441 62.3431 57.1467 61.3625 57.0508 60.6113M57.2107 63.2155C56.8781 63.3707 56.557 63.4726 56.3058 63.5564C56.0888 63.6287 55.6741 63.7192 55.1529 63.8106M57.2107 63.2155C58.0696 62.8144 59.0044 62.0572 59.0044 60.3372C59.0044 57.9512 59.005 54.9816 59.0044 51.237C59.0039 47.4924 58.6417 42.4385 57.6521 36.4156C56.6625 30.3927 56.0424 27.6859 53.8646 23.1196C51.6869 18.5534 50.9039 17.1 47.0039 13.5C46.5668 13.0965 46.1297 12.7232 45.6931 12.3775C45.3844 12.1331 45.0815 11.9304 44.7646 11.8282C44.4478 11.726 44.1395 11.7327 43.8024 11.9024M55.1529 63.8106C55.1529 62.8635 54.9731 61.4704 54.8931 60.911M55.1529 63.8106C54.5439 63.9175 53.7896 64.0256 53.0351 64.1078M53.0351 64.1078C52.8287 63.1059 52.6316 61.7585 52.5357 61.3705M53.0351 64.1078C52.223 64.1962 51.4108 64.2544 50.7798 64.2483M50.7798 64.2483C50.4601 63.649 49.9076 62.2895 49.9076 61.5703M50.7798 64.2483C50.4182 64.2448 50.1161 64.2202 49.9076 64.1681C48.7076 63.8681 48.2907 62.9318 47.7726 61.169C47.4985 60.2362 46.9471 55.5884 46.0972 48.8884M18.2072 14.5026C18.523 14.2994 19.5321 13.8434 20.0375 13.645M20.0375 13.645C19.936 12.6363 19.4836 12.1363 18.9943 11.8954M20.0375 13.645C20.2073 14.4239 20.3883 15.0583 20.5518 15.549M18.8192 16.5953C19.0824 16.3979 19.9359 15.9122 20.5518 15.549M20.5518 15.549C20.6372 15.8051 20.7179 16.0221 20.7897 16.2001C20.9742 16.6569 21.2088 17.0267 21.4949 17.3096M20.2011 18.7275C20.3262 18.5827 20.8632 17.9888 21.4949 17.3096M21.4949 17.3096C21.9046 17.7148 22.4197 17.9416 23.044 17.9901M22.8861 20.1292C22.9058 19.7343 22.965 18.5903 23.044 17.9901M23.044 17.9901C23.044 17.9901 23.216 18.0001 23.3051 18.0001C23.8344 18.0001 24.6555 17.8833 25.7684 17.7529M25.7684 19.9515V17.7529M25.7684 17.7529C26.5709 17.6588 27.5251 17.5575 28.6311 17.4877M28.7298 19.7146C28.7035 19.2473 28.6469 18.0089 28.6311 17.4877M28.6311 17.4877C29.4687 17.4349 30.3934 17.4001 31.4051 17.4001M31.4051 19.7146V17.4001M31.4051 17.4001C32.4169 17.4001 33.3417 17.4349 34.1794 17.4877M44.6036 14.5026C44.2878 14.2994 43.2787 13.8434 42.7733 13.645M42.7733 13.645C42.6035 14.4239 42.4225 15.0583 42.259 15.5489M42.7733 13.645C42.8739 12.6459 43.3185 12.1459 43.8024 11.9024M43.9916 16.5953C43.7284 16.3979 42.8749 15.9122 42.259 15.5489M42.259 15.5489C42.1736 15.8051 42.0929 16.0221 42.0211 16.2C41.8356 16.6592 41.5995 17.0305 41.3114 17.314M42.6097 18.7274C42.4846 18.5827 41.9432 17.9931 41.3114 17.314M41.3114 17.314C40.9025 17.7164 40.3889 17.9417 39.7668 17.9901M39.9247 20.1291C39.905 19.7343 39.8458 18.5903 39.7668 17.9901M39.7668 17.9901C39.6818 17.9967 39.5948 18 39.5057 18C38.9764 18 38.1553 17.8833 37.0424 17.7529M37.0424 19.9515V17.7529M37.0424 17.7529C36.2398 17.6588 35.2855 17.5575 34.1794 17.4877M34.081 19.7145C34.1073 19.2473 34.1636 18.0089 34.1794 17.4877M18.9943 11.8954C22.7994 10.7153 27.9588 10.3154 31.4063 10.3154C34.8605 10.3154 40.0005 10.7168 43.8024 11.9024" stroke="#1E1E1E" stroke-width="0.6" stroke-linecap="round"/>
</svg>
