<svg width="64" height="84" viewBox="0 0 64 84" fill="none" xmlns="http://www.w3.org/2000/svg">
<path d="M15.8971 27C15.8971 27 15.622 31.5999 15.3657 37.137M17.5735 61.1224C17.5735 60.5224 17.84 58.9221 17.84 58.0338M17.5735 61.1224C16.181 59.9481 15.599 58.0424 15.1262 55.5472C14.7209 53.4089 15.0269 44.4545 15.3657 37.137M17.5735 61.1224C18.2774 61.716 19.1884 62.1226 20.3971 62.3241C20.5039 62.3419 20.6122 62.3586 20.722 62.3743M20.722 62.3743C20.6788 61.7118 20.6182 60.0025 20.722 59.301M20.722 62.3743C21.7927 62.5277 23.002 62.5852 24.2338 62.5904M24.2338 62.5904V59.6246M24.2338 62.5904C25.4766 62.5955 26.7424 62.5474 27.9119 62.4907M27.9119 62.4907C27.9119 61.9178 27.9798 60.2174 28.0478 59.6246M27.9119 62.4907C29.4729 62.4151 30.8625 62.3241 31.7971 62.3241M31.7971 62.3241V59.5247M31.7971 62.3241L31.7998 59.5247M31.7971 62.3241C32.7317 62.3241 34.1239 62.4151 35.685 62.4907M47.6997 27C47.6997 27 47.9749 31.5996 48.2312 37.1366M46.104 61.0527C46.104 60.4527 45.7568 58.9221 45.7568 58.0338M46.104 61.0527C47.4386 59.8734 48.0071 57.9936 48.4707 55.5472C48.8759 53.4088 48.57 44.4542 48.2312 37.1366M46.104 61.0527C45.3894 61.6842 44.4552 62.1148 43.1998 62.3241C43.093 62.3419 42.9847 62.3586 42.8749 62.3743M42.8749 62.3743C42.9181 61.7118 42.9786 60.0025 42.8749 59.301M42.8749 62.3743C41.8042 62.5277 40.5949 62.5852 39.363 62.5904M39.363 62.5904V59.6246M39.363 62.5904C38.1202 62.5955 36.8545 62.5474 35.685 62.4907M35.685 62.4907C35.685 61.9178 35.617 60.2174 35.549 59.6246M31.7984 54C35.3321 53.775 43.1984 51.9 43.1984 49.8C43.1984 48.9 41.3984 48.6 39.5984 48.9M9.11641 35.8272C9.183 34.9548 9.18034 34.2779 9.27624 33.5268M9.11641 35.8272C9.66537 36.0095 10.3718 36.2045 11.1746 36.3923M9.11641 35.8272C8.96357 35.7764 8.82293 35.7266 8.69581 35.6782C6.86955 34.9833 6.4401 33.4823 6.48785 32.2823C6.53561 31.0823 7.53097 28.5845 8.69569 24.9C9.86041 21.2155 11.2546 19.0047 13.4957 16.5C14.941 14.8847 16.314 13.5825 17.6489 12.5253C18.0057 12.2428 18.2574 12.0994 18.5634 11.9683C18.8695 11.8371 19.1648 11.8126 19.3823 11.8965M11.1746 36.3923C11.1841 35.4617 11.3562 34.3703 11.4339 33.8264M11.1746 36.3923C11.8202 36.5432 12.5281 36.6895 13.2666 36.8206M13.2666 36.8206C13.4731 35.8187 13.6955 34.674 13.7914 34.2859M13.2666 36.8206C13.9485 36.9417 14.6565 37.0499 15.3657 37.137M54.4773 35.8272C54.4108 34.9548 54.4134 34.2779 54.3175 33.5268M54.4773 35.8272C53.9284 36.0095 53.222 36.2045 52.4191 36.3923M54.4773 35.8272C54.6302 35.7764 54.7708 35.7266 54.8979 35.6782C56.7242 34.9833 57.1537 33.4823 57.1059 32.2823C57.0581 31.0823 56.0628 28.5845 54.8981 24.9C53.7333 21.2155 52.3392 19.0047 50.0981 16.5C48.6133 14.8406 47.2048 13.5117 45.8356 12.4393C45.5159 12.1889 45.3224 11.9937 45.0171 11.903C44.7118 11.8122 44.4187 11.8156 44.1964 11.903M52.4191 36.3923C52.4096 35.4617 52.2375 34.3703 52.1598 33.8264M52.4191 36.3923C51.7794 36.5419 51.0784 36.6868 50.3471 36.8171M50.3471 36.8171C50.1406 35.8152 49.8983 34.674 49.8024 34.2859M50.3471 36.8171C49.66 36.9394 48.9462 37.0487 48.2312 37.1366M18.0752 14.5978C18.4944 14.2022 19.7237 13.2147 20.5994 12.7546M20.5994 12.7546C20.2275 12.3468 19.818 12.0645 19.3823 11.8965M20.5994 12.7546C20.6823 12.8456 20.7634 12.9428 20.8425 13.0464C21.1856 13.4959 21.6453 14.1864 22.3287 14.9294M20.2791 16.7137C20.6131 16.4601 21.6014 15.6716 22.3287 14.9294M22.3287 14.9294C22.9175 15.5697 23.6724 16.249 24.662 16.8469M22.8394 19.0513C23.2847 18.6246 24.3652 17.4406 24.662 16.8469M24.662 16.8469C25.405 17.2957 26.2802 17.6986 27.3167 18.0047M26.2173 20.6372C26.4709 20.0187 27.109 18.4648 27.3167 18.0047M27.3167 18.0047C28.1497 18.2507 29.0868 18.4341 30.1432 18.5285M29.7978 21.6131C29.9632 20.8308 30.1432 18.9466 30.1432 18.5285M30.1432 18.5285C30.665 18.5751 31.2159 18.6 31.7978 18.6C32.3795 18.6 32.9304 18.5751 33.4521 18.5285M45.5201 14.5978C45.1009 14.2023 43.8838 13.2015 43.0081 12.7414M43.0081 12.7414C42.9209 12.8361 42.8358 12.9377 42.7528 13.0464C42.4096 13.496 41.9499 14.1866 41.2664 14.9297M43.0081 12.7414C43.3719 12.3459 43.7716 12.0699 44.1964 11.903M43.3162 16.7137C42.9823 16.4601 41.9937 15.6719 41.2664 14.9297M41.2664 14.9297C40.675 15.5728 39.9161 16.2552 38.9201 16.8549M40.7559 19.0514C40.3106 18.6246 39.217 17.4486 38.9201 16.8549M38.9201 16.8549C38.1801 17.3005 37.3091 17.7005 36.2787 18.0047M37.378 20.6372C37.1245 20.0187 36.4865 18.4648 36.2787 18.0047M36.2787 18.0047C35.4457 18.2507 34.5086 18.4341 33.4521 18.5285M33.7975 21.6131C33.6321 20.8308 33.4521 18.9466 33.4521 18.5285M19.3684 11.9008C19.373 11.8993 19.3777 11.8979 19.3823 11.8965M19.3823 11.8965C23.1824 10.7155 28.35 10.3154 31.7985 10.3154C35.2533 10.3154 40.3943 10.717 44.1964 11.903" stroke="#1E1E1E" stroke-width="0.6" stroke-linecap="round"/>
</svg>
