<svg width="64" height="84" viewBox="0 0 64 84" fill="none" xmlns="http://www.w3.org/2000/svg">
<path d="M17.0973 27C17.0973 27 16.8455 33.9634 16.8454 36.3063C16.8453 36.6113 16.8445 36.9415 16.851 37.2865M20.7221 43.1335C20.6789 42.4709 20.6184 40.7617 20.7221 40.0601M20.7221 43.1335C20.6123 43.1177 20.504 43.101 20.3973 43.0832C17.2658 42.5613 16.8945 39.5924 16.851 37.2865M20.7221 43.1335C21.7928 43.2868 23.0021 43.3443 24.234 43.3495M24.234 43.3495V40.3837M24.234 43.3495C25.4768 43.3547 26.7425 43.3066 27.912 43.2499M27.912 43.2499C27.912 42.6769 27.98 40.9765 28.048 40.3837M27.912 43.2499C29.4731 43.1742 30.865 43.0832 31.7996 43.0832M31.7996 43.0832L31.7973 40.2838M31.7996 43.0832V40.2838M31.7996 43.0832C32.7342 43.0832 34.1238 43.1742 35.6849 43.2499M46.4996 27C46.4996 27 46.7514 33.9634 46.7515 36.3063C46.7515 36.6112 46.7524 36.9413 46.7458 37.2863M42.8747 43.1335C42.918 42.4709 42.9785 40.7617 42.8747 40.0601M42.8747 43.1335C42.9845 43.1177 43.0929 43.101 43.1996 43.0832C46.3312 42.5613 46.7024 39.5922 46.7458 37.2863M42.8747 43.1335C41.8041 43.2868 40.5948 43.3443 39.3629 43.3495M39.3629 43.3495V40.3837M39.3629 43.3495C38.1201 43.3547 36.8544 43.3066 35.6849 43.2499M35.6849 43.2499C35.6849 42.6769 35.6169 40.9765 35.5489 40.3837M31.7984 36C35.3321 35.775 43.1984 33.9 43.1984 31.8C43.1984 30.9 41.3984 30.6 39.5984 30.9M9.11641 35.8272C9.183 34.9548 9.18034 34.2779 9.27624 33.5268M9.11641 35.8272C9.66537 36.0095 10.3718 36.2045 11.1746 36.3923M9.11641 35.8272C8.96357 35.7764 8.82293 35.7266 8.69581 35.6782C6.86955 34.9833 6.4401 33.4823 6.48785 32.2823C6.53561 31.0823 7.53097 28.5845 8.69569 24.9C9.86041 21.2155 11.2546 19.0047 13.4957 16.5C14.6872 15.1683 15.8295 14.0495 16.9419 13.1053C17.55 12.5892 18.0165 12.2834 18.3808 12.0894C18.7451 11.8954 19.1962 11.8017 19.3865 11.8954M11.1746 36.3923C11.1841 35.4617 11.3562 34.3703 11.4339 33.8264M11.1746 36.3923C11.8202 36.5432 12.5281 36.6895 13.2666 36.8206M13.2666 36.8206C13.4731 35.8187 13.6955 34.674 13.7914 34.2859M13.2666 36.8206C14.0005 36.9509 14.7647 37.0663 15.5279 37.1566M13.2666 36.8206L15.5279 37.1566M15.5279 37.1566C15.9713 37.209 16.4143 37.253 16.851 37.2865M54.4773 35.8272C54.4108 34.9548 54.4134 34.2779 54.3175 33.5268M54.4773 35.8272C53.9284 36.0095 53.222 36.2045 52.4191 36.3923M54.4773 35.8272C54.6302 35.7764 54.7708 35.7266 54.8979 35.6782C56.7242 34.9833 57.1537 33.4823 57.1059 32.2823C57.0581 31.0823 56.0628 28.5845 54.8981 24.9C53.7333 21.2155 52.3392 19.0047 50.0981 16.5C49.0672 15.3478 48.6416 14.925 48.0994 14.4022C47.5572 13.8794 46.4905 12.9453 45.5754 12.2971C44.6603 11.649 44.1946 11.9024 44.1946 11.9024M52.4191 36.3923C52.4096 35.4617 52.2375 34.3703 52.1598 33.8264M52.4191 36.3923C51.7794 36.5419 51.0784 36.6868 50.3471 36.8171M50.3471 36.8171C50.1406 35.8152 49.8983 34.674 49.8024 34.2859M50.3471 36.8171C49.6056 36.9491 48.8329 37.066 48.0611 37.1571C47.6204 37.2092 47.18 37.2529 46.7458 37.2863M18.5993 14.5026C18.9152 14.2994 19.9243 13.8434 20.4297 13.645M20.4297 13.645C20.3282 12.6363 19.8758 12.1363 19.3865 11.8954M20.4297 13.645C20.5995 14.4239 20.7805 15.0583 20.944 15.549M19.2114 16.5953C19.4746 16.3979 20.3281 15.9122 20.944 15.549M20.944 15.549C21.0294 15.8051 21.1101 16.0221 21.1819 16.2001C21.3664 16.6569 21.601 17.0267 21.8871 17.3096M20.5933 18.7275C20.7184 18.5827 21.2553 17.9888 21.8871 17.3096M21.8871 17.3096C22.2967 17.7148 22.8119 17.9416 23.4362 17.9901M23.2783 20.1292C23.298 19.7343 23.3572 18.5903 23.4362 17.9901M23.4362 17.9901C23.4362 17.9901 23.6082 18.0001 23.6973 18.0001C24.2266 18.0001 25.0477 17.8833 26.1606 17.7529M26.1606 19.9515V17.7529M26.1606 17.7529C26.9631 17.6588 27.9173 17.5575 29.0233 17.4877M29.122 19.7146C29.0956 19.2473 29.0391 18.0089 29.0233 17.4877M29.0233 17.4877C29.8609 17.4349 30.7856 17.4001 31.7973 17.4001M31.7973 19.7146V17.4001M31.7973 17.4001C32.8091 17.4001 33.7339 17.4349 34.5716 17.4877M44.9958 14.5026C44.68 14.2994 43.6709 13.8434 43.1655 13.645M43.1655 13.645C42.9957 14.4239 42.8147 15.0583 42.6512 15.5489M43.1655 13.645C43.266 12.6459 43.7107 12.1459 44.1946 11.9024M44.3838 16.5953C44.1206 16.3979 43.2671 15.9122 42.6512 15.5489M42.6512 15.5489C42.5658 15.8051 42.4851 16.0221 42.4133 16.2C42.2278 16.6592 41.9917 17.0305 41.7036 17.314M43.0019 18.7274C42.8768 18.5827 42.3354 17.9931 41.7036 17.314M41.7036 17.314C41.2947 17.7164 40.781 17.9417 40.159 17.9901M40.3169 20.1291C40.2972 19.7343 40.238 18.5903 40.159 17.9901M40.159 17.9901C40.074 17.9967 39.9869 18 39.8979 18C39.3686 18 38.5475 17.8833 37.4345 17.7529M37.4345 19.9515V17.7529M37.4345 17.7529C36.632 17.6588 35.6776 17.5575 34.5716 17.4877M34.4732 19.7145C34.4995 19.2473 34.5558 18.0089 34.5716 17.4877M19.3865 11.8954C23.1916 10.7153 28.351 10.3154 31.7985 10.3154C35.2527 10.3154 40.3927 10.7168 44.1946 11.9024" stroke="#1E1E1E" stroke-width="0.6" stroke-linecap="round"/>
</svg>
