<svg width="63" height="84" viewBox="0 0 63 84" fill="none" xmlns="http://www.w3.org/2000/svg">
<path d="M15.5049 27.0001C15.5049 27.0001 14.0221 51.7909 14.734 55.5473C14.9426 56.648 15.1724 57.6339 15.4836 58.493M17.1814 61.1225C17.1814 60.5225 17.4478 58.9222 17.4478 58.0339M17.1814 61.1225C17.8852 61.7161 18.7962 62.1227 20.0049 62.3242C20.1117 62.342 20.22 62.3587 20.3298 62.3744M17.1814 61.1225C16.4031 60.4662 15.878 59.5815 15.4836 58.493M20.3298 62.3744C20.2866 61.7119 20.2261 60.0026 20.3298 59.3011M20.3298 62.3744C21.4005 62.5278 22.6098 62.5853 23.8416 62.5905M23.8416 62.5905V59.6247M23.8416 62.5905C25.0844 62.5956 26.3502 62.5475 27.5197 62.4908M27.5197 62.4908C27.5197 61.9179 27.5877 60.2175 27.6556 59.6247M27.5197 62.4908C29.0807 62.4152 30.4703 62.3242 31.4049 62.3242M31.4049 62.3242V59.5248M31.4049 62.3242L31.4076 59.5248M31.4049 62.3242C32.3395 62.3242 33.7318 62.4152 35.2928 62.4908M47.3075 27.0001C47.3075 27.0001 48.7904 51.7909 48.0785 55.5473C47.8694 56.6506 47.639 57.6387 47.3266 58.4993M45.7119 61.0528C45.7119 60.4528 45.3646 58.9222 45.3646 58.0339M45.7119 61.0528C44.9973 61.6843 44.063 62.1149 42.8076 62.3242C42.7008 62.342 42.5925 62.3587 42.4827 62.3744M45.7119 61.0528C46.4445 60.4054 46.9463 59.5468 47.3266 58.4993M42.4827 62.3744C42.5259 61.7119 42.5864 60.0026 42.4827 59.3011M42.4827 62.3744C41.412 62.5278 40.2027 62.5853 38.9709 62.5905M38.9709 62.5905V59.6247M38.9709 62.5905C37.7281 62.5956 36.4623 62.5475 35.2928 62.4908M35.2928 62.4908C35.2928 61.9179 35.2248 60.2175 35.1569 59.6247M31.4062 54.0001C34.9399 53.7751 42.8062 51.9001 42.8062 49.8001C42.8062 48.9001 41.0062 48.6001 39.2062 48.9001M5.59872 63.2156C5.66531 62.3432 5.66265 61.3626 5.75855 60.6114M5.59872 63.2156C5.93124 63.3708 6.25241 63.4727 6.50358 63.5565C6.72062 63.6288 7.13531 63.7193 7.65651 63.8107M5.59872 63.2156C4.73974 62.8145 3.80495 62.0573 3.80495 60.3373C3.80495 57.9513 3.80437 54.9817 3.80495 51.2371C3.80552 47.4925 4.1677 42.4386 5.15728 36.4157C6.14686 30.3927 6.76697 27.686 8.94473 23.1197C11.1225 18.5534 11.9055 17.1001 15.8055 13.5001C17.3155 12.1062 18.8256 11.0721 20.3182 10.2934C20.6782 10.1055 21.0673 9.96312 21.3561 9.89109C21.6449 9.81905 21.9258 9.81005 22.1791 9.89109M7.65651 63.8107C7.65651 62.8636 7.83632 61.4705 7.91623 60.9111M7.65651 63.8107C8.26545 63.9176 9.0198 64.0257 9.77423 64.1079M9.77423 64.1079C9.98068 63.106 10.1778 61.7586 10.2737 61.3706M9.77423 64.1079C10.622 64.2002 11.4699 64.2596 12.1117 64.2472M12.1117 64.2472C12.4314 63.6479 12.9018 62.2896 12.9018 61.5704M12.1117 64.2472C12.437 64.241 12.7093 64.2163 12.9018 64.1682C14.1018 63.8682 14.5187 62.9319 15.0368 61.1691C15.1434 60.8063 15.2919 59.8817 15.4836 58.493M57.2107 63.2156C57.1441 62.3432 57.1467 61.3626 57.0508 60.6114M57.2107 63.2156C56.8781 63.3708 56.557 63.4727 56.3058 63.5565C56.0888 63.6288 55.6741 63.7193 55.1529 63.8107M57.2107 63.2156C58.0696 62.8145 59.0044 62.0573 59.0044 60.3373C59.0044 57.9513 59.005 54.9817 59.0044 51.2371C59.0039 47.4925 58.6417 42.4386 57.6521 36.4157C56.6625 30.3927 56.0424 27.686 53.8646 23.1197C51.6869 18.5534 50.9039 17.1001 47.0039 13.5001C45.517 12.1276 44.0302 11.104 42.56 10.3294C42.1769 10.1276 41.8395 9.96823 41.5845 9.87057C41.3295 9.77291 40.8694 9.81246 40.6097 9.89829M55.1529 63.8107C55.1529 62.8636 54.9731 61.4705 54.8931 60.9111M55.1529 63.8107C54.5439 63.9176 53.7896 64.0257 53.0351 64.1079M53.0351 64.1079C52.8287 63.106 52.6316 61.7586 52.5357 61.3706M53.0351 64.1079C52.223 64.1963 51.4108 64.2545 50.7798 64.2484M50.7798 64.2484C50.4601 63.6491 49.9076 62.2896 49.9076 61.5704M50.7798 64.2484C50.4182 64.2449 50.1161 64.2203 49.9076 64.1682C48.7076 63.8682 48.2907 62.9319 47.7726 61.1691C47.6661 60.8069 47.5179 59.8845 47.3266 58.4993M21.3561 12.5394C21.7946 12.1673 23.0321 11.2542 23.6006 10.9293M23.6006 10.9293C23.6906 11.0398 23.7792 11.1589 23.8664 11.2869C24.1529 11.7073 24.5177 12.1631 24.9628 12.6115M23.6006 10.9293C23.1594 10.3873 22.6854 10.053 22.1791 9.89109M23.1995 14.4082C23.5244 14.1104 24.443 13.245 24.9628 12.6115M24.9628 12.6115C25.4564 13.1087 26.0487 13.5969 26.7423 14.0179M25.4524 15.9108C25.6256 15.66 26.2406 14.7489 26.7423 14.0179M26.7423 14.0179C27.3263 14.3723 27.982 14.6792 28.7112 14.9038M27.8892 17.1471C28.0863 16.7581 28.5679 15.5325 28.7112 14.9038M28.7112 14.9038C28.7155 14.9051 28.7198 14.9064 28.7241 14.9077C29.5277 15.1538 30.4202 15.3 31.4038 15.3M31.4038 17.6309V15.3M31.4038 15.3C32.3874 15.3 33.2833 15.1538 34.0869 14.9077M41.4548 12.5394C41.0164 12.1673 39.7965 11.2327 39.2279 10.9078M39.2279 10.9078C39.1319 11.0243 39.0374 11.1506 38.9445 11.2869C38.6604 11.7039 38.2993 12.1555 37.8592 12.6003M39.2279 10.9078C39.6577 10.3863 40.1184 10.0606 40.6097 9.89829M39.6114 14.4082C39.2865 14.1104 38.379 13.2339 37.8592 12.6003M37.8592 12.6003C37.3646 13.1002 36.7703 13.5914 36.0736 14.0148M37.3585 15.9108C37.1853 15.66 36.5753 14.7459 36.0736 14.0148M36.0736 14.0148C35.485 14.3727 34.8233 14.6821 34.0869 14.9077M34.9217 17.1471C34.7246 16.7581 34.2302 15.5364 34.0869 14.9077M40.6097 9.89829C38.4483 8.88093 35.0795 8.46631 31.368 8.46631C27.6652 8.46631 24.3409 8.87897 22.1791 9.89109" stroke="#1E1E1E" stroke-width="0.6" stroke-linecap="round"/>
</svg>
