<svg width="64" height="84" viewBox="0 0 64 84" fill="none" xmlns="http://www.w3.org/2000/svg">
<path d="M15.8956 27C15.8956 27 14.4127 51.7908 15.1246 55.5472C15.3332 56.6479 15.563 57.6338 15.8743 58.4929M17.572 61.1224C17.572 60.5224 17.8385 58.9221 17.8385 58.0338M17.572 61.1224C18.2759 61.716 19.1869 62.1226 20.3955 62.3241C20.5023 62.3419 20.6106 62.3586 20.7204 62.3743M17.572 61.1224C16.7937 60.4661 16.2686 59.5814 15.8743 58.4929M20.7204 62.3743C20.6772 61.7118 20.6167 60.0025 20.7204 59.301M20.7204 62.3743C21.7911 62.5277 23.0004 62.5852 24.2323 62.5904M24.2323 62.5904V59.6246M24.2323 62.5904C25.4751 62.5955 26.7408 62.5474 27.9103 62.4907M27.9103 62.4907C27.9103 61.9178 27.9783 60.2174 28.0463 59.6246M27.9103 62.4907C29.4714 62.4151 30.8609 62.3241 31.7956 62.3241M31.7956 62.3241V59.5247M31.7956 62.3241L31.7982 59.5247M31.7956 62.3241C32.7302 62.3241 34.1224 62.4151 35.6834 62.4907M47.6982 27C47.6982 27 49.181 51.7908 48.4691 55.5472C48.26 56.6505 48.0296 57.6386 47.7172 58.4992M46.1025 61.0527C46.1025 60.4527 45.7553 58.9221 45.7553 58.0338M46.1025 61.0527C45.3879 61.6842 44.4536 62.1148 43.1982 62.3241C43.0914 62.3419 42.9831 62.3586 42.8733 62.3743M46.1025 61.0527C46.8352 60.4053 47.3369 59.5467 47.7172 58.4992M42.8733 62.3743C42.9166 61.7118 42.9771 60.0025 42.8733 59.301M42.8733 62.3743C41.8026 62.5277 40.5933 62.5852 39.3615 62.5904M39.3615 62.5904V59.6246M39.3615 62.5904C38.1187 62.5955 36.8529 62.5474 35.6834 62.4907M35.6834 62.4907C35.6834 61.9178 35.6155 60.2174 35.5475 59.6246M31.7969 54C35.3306 53.775 43.1969 51.9 43.1969 49.8C43.1969 48.9 41.3969 48.6 39.5969 48.9M5.98934 63.2155C6.05594 62.3431 6.05328 61.3625 6.14917 60.6113M5.98934 63.2155C6.32187 63.3707 6.64303 63.4726 6.8942 63.5564C7.11125 63.6287 7.52593 63.7192 8.04713 63.8106M5.98934 63.2155C5.13037 62.8144 4.19557 62.0572 4.19557 60.3372C4.19557 57.9512 4.19499 54.9816 4.19557 51.237C4.19615 47.4924 4.55833 42.4385 5.54791 36.4156C6.53749 30.3927 7.15759 27.6859 9.33536 23.1196C11.5131 18.5534 12.2961 17.1 16.1961 13.5C16.553 13.1706 16.9098 12.8613 17.2664 12.5707C17.6449 12.2623 18.1048 11.9658 18.3078 11.9008C18.5109 11.8357 19.0663 11.7752 19.3807 11.8965M8.04713 63.8106C8.04713 62.8635 8.22694 61.4704 8.30685 60.911M8.04713 63.8106C8.65608 63.9175 9.41042 64.0257 10.1649 64.1078M10.1649 64.1078C10.3713 63.1059 10.5684 61.7585 10.6643 61.3705M10.1649 64.1078C11.0126 64.2001 11.8605 64.2595 12.5023 64.2471M12.5023 64.2471C12.822 63.6478 13.2924 62.2895 13.2924 61.5703M12.5023 64.2471C12.8276 64.2409 13.0999 64.2162 13.2924 64.1681C14.4925 63.8681 14.9093 62.9318 15.4274 61.169C15.534 60.8062 15.6825 59.8816 15.8743 58.4929M57.6013 63.2155C57.5347 62.3431 57.5374 61.3625 57.4415 60.6113M57.6013 63.2155C57.2688 63.3707 56.9476 63.4726 56.6964 63.5564C56.4794 63.6287 56.0647 63.7192 55.5435 63.8106M57.6013 63.2155C58.4603 62.8144 59.3951 62.0572 59.3951 60.3372C59.3951 57.9512 59.3956 54.9816 59.3951 51.237C59.3945 47.4924 59.0323 42.4385 58.0427 36.4156C57.0531 30.3927 56.433 27.6859 54.2553 23.1196C52.0775 18.5534 51.2945 17.1 47.3945 13.5C46.9698 13.108 46.5451 12.7444 46.1209 12.407C45.8141 12.163 45.6455 12.0361 45.2554 11.903C44.8653 11.7698 44.4652 11.8404 44.1948 11.903M55.5435 63.8106C55.5435 62.8635 55.3637 61.4704 55.2838 60.911M55.5435 63.8106C54.9346 63.9175 54.1802 64.0256 53.4258 64.1078M53.4258 64.1078C53.2193 63.1059 53.0222 61.7585 52.9263 61.3705M53.4258 64.1078C52.6137 64.1962 51.8014 64.2544 51.1704 64.2483M51.1704 64.2483C50.8507 63.649 50.2982 62.2895 50.2982 61.5703M51.1704 64.2483C50.8088 64.2448 50.5067 64.2202 50.2982 64.1681C49.0982 63.8681 48.6813 62.9318 48.1632 61.169C48.0568 60.8068 47.9085 59.8844 47.7172 58.4992M18.0736 14.5978C18.4929 14.2022 19.7221 13.2147 20.5978 12.7546M20.5978 12.7546C20.226 12.3468 19.8164 12.0645 19.3807 11.8965M20.5978 12.7546C20.6808 12.8456 20.7618 12.9428 20.8409 13.0464C21.1841 13.4959 21.6437 14.1864 22.3271 14.9294M20.2775 16.7137C20.6115 16.4601 21.5998 15.6716 22.3271 14.9294M22.3271 14.9294C22.9159 15.5697 23.6708 16.249 24.6605 16.8469M22.8379 19.0513C23.2831 18.6246 24.3636 17.4406 24.6605 16.8469M24.6605 16.8469C25.4034 17.2957 26.2786 17.6986 27.3152 18.0047M26.2157 20.6372C26.4693 20.0187 27.1074 18.4648 27.3152 18.0047M27.3152 18.0047C28.1481 18.2507 29.0853 18.4341 30.1416 18.5285M29.7962 21.6131C29.9617 20.8308 30.1416 18.9466 30.1416 18.5285M30.1416 18.5285C30.6635 18.5751 31.2144 18.6 31.7962 18.6C32.3779 18.6 32.9288 18.5751 33.4505 18.5285M45.5186 14.5978C45.0993 14.2023 43.8822 13.2015 43.0065 12.7414M43.0065 12.7414C42.9193 12.8361 42.8342 12.9377 42.7513 13.0464C42.4081 13.496 41.9484 14.1866 41.2649 14.9297M43.0065 12.7414C43.3704 12.3459 43.7701 12.0699 44.1948 11.903M43.3146 16.7137C42.9807 16.4601 41.9921 15.6719 41.2649 14.9297M41.2649 14.9297C40.6735 15.5728 39.9145 16.2552 38.9186 16.8549M40.7543 19.0514C40.3091 18.6246 39.2154 17.4486 38.9186 16.8549M38.9186 16.8549C38.1785 17.3005 37.3075 17.7005 36.2772 18.0047M37.3765 20.6372C37.1229 20.0187 36.485 18.4648 36.2772 18.0047M36.2772 18.0047C35.4442 18.2507 34.507 18.4341 33.4505 18.5285M33.7959 21.6131C33.6305 20.8308 33.4505 18.9466 33.4505 18.5285M19.3668 11.9008C19.3715 11.8993 19.3761 11.8979 19.3807 11.8965M19.3807 11.8965C23.1808 10.7155 28.3484 10.3154 31.7969 10.3154C35.2517 10.3154 40.3927 10.717 44.1948 11.903" stroke="#1E1E1E" stroke-width="0.6" stroke-linecap="round"/>
</svg>
