<svg width="63" height="102" viewBox="0 0 63 102" fill="none" xmlns="http://www.w3.org/2000/svg">
<path d="M18.4408 90.6C17.9431 84.0751 16.9442 68.6161 16.3464 61.0874C15.7487 53.5586 13.9595 40.9103 13.6598 28.2621C13.4914 24.5232 13.6643 23.7448 13.9607 19.5287C14.2572 15.3126 15.1567 12 15.1567 12H46.8308C46.8308 12 47.7303 15.3126 48.0268 19.5287C48.3232 23.7448 48.4961 24.5232 48.3277 28.2621C48.028 40.9103 46.2388 53.5586 45.6411 61.0874C45.0433 68.6161 44.0444 84.0751 43.5467 90.6H34.581C34.3817 76.1448 34.8764 31.2736 30.9938 31.8759C27.1111 31.2736 27.6058 76.1448 27.4065 90.6H18.4408Z" stroke="black" stroke-width="0.6" stroke-linecap="round"/>
</svg>
