<svg width="63" height="54" viewBox="0 0 63 54" fill="none" xmlns="http://www.w3.org/2000/svg">
<path d="M29.0609 48.2318C29.0609 46.0223 28.9843 45.8113 28.9072 44.9423C28.8301 44.0734 28.5684 42.7882 28.1715 42.148C27.7746 41.5077 26.4341 41.3181 24.7948 41.6059C23.3495 41.8597 21.9155 42.6249 20.7046 43.3252M29.0609 48.2318C29.0609 48.2318 29.3633 51.6259 28.5684 51.6259H23.527C22.5956 51.6259 22.2091 50.4459 22.2091 50.4459C22.2091 50.4459 16.9207 51.363 13.727 51.6366C8.6124 52.0746 4.63367 51.6365 3.92557 51.6365C2.95249 51.6365 2.49008 51.6098 2.49008 50.822C2.49008 50.5171 2.52747 50.3651 2.56017 50.2697M29.0609 48.2318C29.0609 48.2318 25.105 48.5387 23.0411 48.8192C20.9771 49.0998 18.3254 49.6292 13.727 50.2697C9.16707 50.9048 2.66862 50.2802 2.56017 50.2697M2.55874 50.2697H2.56017M2.56017 50.2697C2.56015 50.2697 2.56018 50.2696 2.56017 50.2697ZM2.56017 50.2697C2.51357 50.054 2.11011 48.0647 2.88655 47.0289M20.7046 43.3252C20.39 42.1877 18.8287 41.1614 18.3254 40.9378C17.7277 40.6722 17.1482 40.621 16.537 41.2548C16.2171 41.5865 15.7875 42.0555 15.3239 42.5101M20.7046 43.3252C20.542 43.4193 20.3835 43.5122 20.2295 43.6025C19.6094 43.966 18.7392 44.4062 17.9 44.8088M2.88655 47.0289C4.256 47.5015 6.0325 47.7008 8.11557 47.6328C9.08679 47.6012 11.9464 47.177 14.5788 46.2481M2.88655 47.0289C2.9497 46.9446 3.02061 46.8666 3.10011 46.7962C4.21464 45.8087 7.24665 46.1102 9.44837 45.5504C10.8217 45.2012 11.7618 44.8585 12.5882 44.445M12.5882 44.445C12.6046 44.4571 12.6218 44.4691 12.6397 44.481C13.058 44.7592 13.4736 45.1064 13.8497 45.452C14.1589 45.7362 14.3642 45.9925 14.5788 46.2481M12.5882 44.445C12.2222 44.1749 12.2334 43.8644 12.3541 43.6127C12.5055 43.297 13.4047 42.8536 13.9158 42.5616C14.4269 42.2695 14.7578 42.2774 15.1223 42.4195C15.1854 42.4441 15.2527 42.4742 15.3239 42.5101M15.3239 42.5101C15.6637 42.6813 16.0928 42.9831 16.5896 43.4372C17.1847 43.9811 17.6526 44.4652 17.9 44.8088M14.5788 46.2481C14.6901 46.3807 14.8039 46.513 14.9359 46.649C15.3225 47.047 15.7135 47.0431 16.1273 46.9193C16.541 46.7955 17.5344 46.1918 17.8995 45.9582C18.2645 45.7246 18.1998 45.2875 17.9894 44.9423C17.9639 44.9006 17.9341 44.856 17.9 44.8088M33.3076 48.2318C33.3076 46.0222 33.3841 45.8113 33.4612 44.9423C33.5383 44.0734 33.8 42.7882 34.1969 42.1479C34.5938 41.5077 35.9343 41.3181 37.5736 41.6059C39.0189 41.8597 40.453 42.6249 41.6638 43.3252M33.3076 48.2318C33.3076 48.2318 33.0052 51.6259 33.8 51.6259H38.8414C39.7728 51.6259 40.1594 50.4459 40.1594 50.4459C40.1594 50.4459 45.4477 51.363 48.6415 51.6366C53.756 52.0746 57.7348 51.6365 58.4429 51.6365C59.4159 51.6365 59.8783 51.6098 59.8783 50.822C59.8783 50.5171 59.841 50.3651 59.8083 50.2697M33.3076 48.2318C33.3076 48.2318 37.2634 48.5387 39.3273 48.8192C41.3913 49.0998 44.0431 49.6292 48.6415 50.2697C53.2014 50.9048 59.6998 50.2802 59.8083 50.2697M59.8097 50.2697H59.8083M59.8083 50.2697C59.8083 50.2697 59.8082 50.2696 59.8083 50.2697ZM59.8083 50.2697C59.8549 50.054 60.2583 48.0647 59.4819 47.0289M41.6638 43.3252C41.9784 42.1877 43.5397 41.1614 44.0431 40.9378C44.6408 40.6722 45.2202 40.621 45.8315 41.2548C46.1513 41.5865 46.5809 42.0555 47.0445 42.5101M41.6638 43.3252C41.8264 43.4193 41.9849 43.5121 42.139 43.6024C42.759 43.966 43.6292 44.4062 44.4684 44.8088M59.4819 47.0289C58.1124 47.5015 56.3359 47.7008 54.2529 47.6328C53.2816 47.6012 50.4221 47.177 47.7896 46.2481M59.4819 47.0289C59.4187 46.9446 59.3478 46.8666 59.2683 46.7961C58.1538 45.8087 55.1218 46.1102 52.9201 45.5504C51.5468 45.2012 50.6066 44.8585 49.7802 44.445M49.7802 44.445C49.7638 44.4571 49.7467 44.4691 49.7287 44.481C49.3104 44.7592 48.8948 45.1063 48.5187 45.452C48.2096 45.7362 48.0042 45.9925 47.7896 46.2481M49.7802 44.445C50.1462 44.1749 50.1351 43.8644 50.0144 43.6127C49.863 43.297 48.9637 42.8536 48.4526 42.5616C47.9416 42.2695 47.6106 42.2773 47.2461 42.4195C47.183 42.4441 47.1157 42.4742 47.0445 42.5101M47.0445 42.5101C46.7047 42.6813 46.2756 42.9831 45.7788 43.4372C45.1837 43.9811 44.7158 44.4652 44.4684 44.8088M47.7896 46.2481C47.6783 46.3807 47.5645 46.513 47.4325 46.649C47.0459 47.047 46.6549 47.0431 46.2412 46.9193C45.8274 46.7955 44.834 46.1918 44.4689 45.9582C44.1039 45.7246 44.1686 45.2875 44.3791 44.9423C44.4045 44.9006 44.4344 44.856 44.4684 44.8088" stroke="black" stroke-linecap="round" stroke-linejoin="round"/>
</svg>
