<svg width="64" height="54" viewBox="0 0 64 54" fill="none" xmlns="http://www.w3.org/2000/svg">
<path d="M3.16163 48.4695H3.15971C3.15971 48.4695 6.72563 48.9485 10.6202 48.9942C13.9592 49.0334 16.9525 48.9476 18.5523 48.6402C20.1522 48.3328 19.5273 48.4436 23.1158 47.5824C26.7043 46.7211 27.8136 46.573 29.6618 46.3982M3.16163 48.4695C3.11124 48.2362 2.64406 45.9324 3.70108 44.996C4.81561 44.0085 7.84762 44.31 10.0493 43.7502C11.4226 43.401 12.3628 43.0583 13.1891 42.6448M3.16163 48.4695C3.12892 48.5649 3.09105 48.7168 3.09105 49.0219C3.09105 49.8096 3.55346 51.6364 4.52654 51.6364C4.8509 51.6364 7.78307 51.8976 10.8965 51.8952C14.58 51.8924 17.4497 51.8053 19.1401 51.6258C20.8304 51.4462 22.2262 50.4137 22.2262 50.4137C22.2262 50.4137 23.1281 51.6258 24.0595 51.6258H28.5734C29.2937 51.6258 29.3801 51.4001 29.5178 50.9951C29.9717 49.6608 29.6618 46.3982 29.6618 46.3982M21.4077 41.5897C21.0931 40.4522 19.4297 39.3612 18.9263 39.1376C18.3286 38.8721 17.7492 38.8208 17.1379 39.4546C16.8181 39.7863 16.3885 40.2553 15.9249 40.71M21.4077 41.5897C22.3297 41.2123 23.3426 40.8481 24.7686 40.6193C26.4071 40.3564 28.0994 40.204 28.5734 41.0481C28.7999 41.6971 29.6618 43.4212 29.6618 46.3982M21.4077 41.5897C21.2703 41.646 21.1349 41.7025 21.0005 41.759C19.9641 42.1941 19.661 42.3906 18.4756 42.9738M3.70108 45.315C5.07053 45.7876 6.63347 45.9006 8.71655 45.8326C9.68776 45.801 12.5473 45.3768 15.1797 44.4479M13.1891 42.6448C13.6074 42.923 14.0746 43.3062 14.4507 43.6519C14.7598 43.936 14.9652 44.1924 15.1797 44.4479M13.1891 42.6448C13.1712 42.6329 13.2055 42.6569 13.1891 42.6448ZM13.1891 42.6448C12.8232 42.3748 12.8343 42.0643 12.955 41.8126C13.1064 41.4968 14.0057 41.0535 14.5168 40.7614C15.0278 40.4694 15.3588 40.4772 15.7233 40.6193C15.7864 40.6439 15.8537 40.6741 15.9249 40.71M15.9249 40.71C16.2646 40.8812 16.6938 41.1829 17.1906 41.637C17.7659 42.1629 18.2223 42.6327 18.4756 42.9738M15.1797 44.4479C15.291 44.5805 15.4048 44.7129 15.5369 44.8489C15.9235 45.2469 16.3145 45.243 16.7282 45.1192C17.142 44.9953 18.1354 44.3917 18.5005 44.1581C18.8655 43.9244 18.8008 43.4873 18.5903 43.1422C18.5587 43.0904 18.5203 43.0341 18.4756 42.9738M60.442 48.4694H60.4439C60.4439 48.4694 56.878 48.9484 52.9834 48.9941C49.6444 49.0333 46.6512 48.9475 45.0513 48.6401C43.4515 48.3327 44.0764 48.4435 40.4878 47.5823C36.8993 46.721 35.7901 46.5729 33.9418 46.3981M60.442 48.4694C60.4924 48.2361 60.9596 45.9323 59.9026 44.9959C58.788 44.0084 55.756 44.3099 53.5543 43.7501C52.181 43.4009 51.2409 43.0582 50.4145 42.6447M60.442 48.4694C60.4747 48.5648 60.5126 48.7167 60.5126 49.0217C60.5126 49.8095 60.0502 51.6363 59.0771 51.6363C58.7527 51.6363 55.8206 51.8975 52.7071 51.8951C49.0236 51.8923 46.1539 51.8052 44.4636 51.6257C42.7732 51.4461 41.3775 50.4136 41.3775 50.4136C41.3775 50.4136 40.4756 51.6257 39.5442 51.6257H35.0302C34.3099 51.6257 34.2236 51.4 34.0858 50.995C33.632 49.6607 33.9418 46.3981 33.9418 46.3981M42.1959 41.5896C42.5106 40.4521 44.1739 39.3611 44.6773 39.1375C45.275 38.872 45.8545 38.8207 46.4657 39.4545C46.7856 39.7862 47.2152 40.2552 47.6788 40.7099M42.1959 41.5896C41.274 41.2122 40.2611 40.848 38.8351 40.6192C37.1965 40.3563 35.5042 40.2039 35.0302 41.048C34.8038 41.6969 33.9418 43.4211 33.9418 46.3981M42.1959 41.5896C42.3333 41.6459 42.4687 41.7024 42.6031 41.7589C43.6396 42.194 43.9426 42.3905 45.1281 42.9737M59.9026 45.3149C58.5331 45.7875 56.9702 45.9005 54.8871 45.8325C53.9159 45.8009 51.0563 45.3767 48.4239 44.4478M50.4145 42.6447C49.9962 42.9229 49.529 43.3061 49.153 43.6518C48.8438 43.9359 48.6385 44.1923 48.4239 44.4478M50.4145 42.6447C50.4325 42.6328 50.3981 42.6568 50.4145 42.6447ZM50.4145 42.6447C50.7805 42.3747 50.7693 42.0641 50.6486 41.8125C50.4972 41.4967 49.5979 41.0534 49.0869 40.7613C48.5758 40.4693 48.2449 40.4771 47.8804 40.6192C47.8172 40.6438 47.75 40.674 47.6788 40.7099M47.6788 40.7099C47.339 40.8811 46.9099 41.1828 46.413 41.6369C45.8378 42.1628 45.3814 42.6326 45.1281 42.9737M48.4239 44.4478C48.3126 44.5804 48.1988 44.7128 48.0667 44.8487C47.6802 45.2468 47.2892 45.2429 46.8754 45.1191C46.4616 44.9952 45.4682 44.3916 45.1032 44.158C44.7381 43.9243 44.8029 43.4872 45.0133 43.1421C45.0449 43.0903 45.0833 43.034 45.1281 42.9737" stroke="black" stroke-linecap="round" stroke-linejoin="round"/>
</svg>
