<svg width="63" height="147" viewBox="0 0 63 147" fill="none" xmlns="http://www.w3.org/2000/svg">
<path d="M17.3036 26.4317C16.2106 30.3761 16.1068 34.5819 16.3208 38.0051M44.6949 26.4317C45.7882 30.3776 45.8917 34.5851 45.6774 38.009M40.205 9.89828C38.0436 8.88092 34.6748 8.46631 30.9633 8.46631C27.2605 8.46631 23.9362 8.87897 21.7745 9.89108M40.205 9.89828C40.9824 9.64135 42.9389 10.5869 44.3526 11.5463C45.7664 12.5056 49.9066 15.434 51.6233 18.211C53.34 20.988 53.8925 24.1554 54.561 28.5002C55.2294 32.845 55.5698 37.6781 56.2863 43.5365C57.0028 49.3949 57.5909 60.853 57.5909 61.753C57.5909 62.653 57.7938 63.2164 56.7593 63.5192C55.7248 63.822 52.09 64.2761 50.7527 64.2257C49.4154 64.1752 49.4933 63.6062 49.3649 62.6361C49.2679 61.9031 47.2656 49.5927 45.6774 38.009M40.205 9.89828C39.604 10.0969 39.0488 10.5399 38.5398 11.2869C37.3724 13.0002 34.9002 15.3 30.9991 15.3C27.098 15.3 24.6291 13.0002 23.4617 11.2869C22.9465 10.5308 22.384 10.0861 21.7745 9.89108M21.7745 9.89108C21.0029 9.64427 18.2251 11.1926 16.8581 12.115C15.4911 13.0373 12.6743 14.8492 10.612 17.9428C8.54957 21.0364 8.10514 24.1554 7.43671 28.5002C6.76828 32.845 6.42784 37.6781 5.71134 43.5365C4.99483 49.3949 4.40672 60.853 4.40672 61.753C4.40672 62.653 4.20389 63.2164 5.23839 63.5192C6.27288 63.822 9.90771 64.2761 11.245 64.2257C12.5823 64.1752 12.5044 63.6062 12.6327 62.6361C12.7297 61.903 14.7325 49.5899 16.3208 38.0051M45.6774 38.009C45.4182 42.15 44.6941 45.1449 44.6941 45.1449C44.99 46.6284 46.0944 54.1859 46.8356 60.0001C47.8635 68.0627 48.3976 72.6001 48.9984 80.7001C49.5993 88.8001 49.8984 98.4001 50.4984 111.3C51.0984 124.2 51.3516 138.6 51.3516 138.6C45.0984 139.5 40.5984 140.1 30.9984 140.1C21.3984 140.1 16.8984 139.5 10.6453 138.6C10.6453 138.6 10.8984 124.2 11.4984 111.3C12.0984 98.4001 12.3976 88.8001 12.9984 80.7001C13.5993 72.6001 14.1329 68.0626 15.1613 60.0001C15.9029 54.1858 17.0084 46.6284 17.3043 45.1449C17.3043 45.1449 16.5798 42.1481 16.3208 38.0051" stroke="#1E1E1E" stroke-linecap="round" stroke-linejoin="round"/>
</svg>
