<svg width="63" height="147" viewBox="0 0 63 147" fill="none" xmlns="http://www.w3.org/2000/svg">
<path d="M17.7098 26.4316C16.6169 30.376 16.5131 34.5818 16.7271 38.005M45.1011 26.4316C46.1945 30.3775 46.298 34.585 46.0836 38.0089M16.3774 12.7998C16.5417 13.503 16.8595 15.6705 16.8157 17.906M16.8157 17.906C16.4247 17.9016 16.1536 17.899 16.0281 17.899C13.2435 17.899 11.572 18.1809 10.4002 19.6672C9.22832 21.1535 8.26562 25.7529 7.84296 28.5001C7.17453 32.8449 6.83409 37.678 6.11759 43.5364C5.40108 49.3948 4.81297 60.8529 4.81297 61.7529C4.81297 62.6529 4.61014 63.2163 5.64464 63.5191C6.67913 63.8219 10.314 64.276 11.6512 64.2256C12.9885 64.1751 12.9106 63.6061 13.039 62.636C13.136 61.9029 15.1387 49.5898 16.7271 38.005M16.8157 17.906C19.133 17.932 25.6593 18.0202 31.0007 17.9943C36.3424 18.0202 42.8738 17.932 45.1921 17.906M45.6305 12.7998C45.4661 13.503 45.1483 15.6705 45.1921 17.906M45.1921 17.906C45.5831 17.9016 45.8543 17.899 45.9797 17.899C48.7643 17.899 50.9349 18.2841 52.2332 19.6824C53.5316 21.0806 54.031 23.178 54.4805 25.5751C54.9299 27.9721 55.9761 37.678 56.6926 43.5364C57.4091 49.3948 57.9972 60.8529 57.9972 61.7529C57.9972 62.6529 58.2 63.2163 57.1655 63.5191C56.131 63.8219 52.4962 64.276 51.1589 64.2256C49.8216 64.1751 49.8995 63.6061 49.7712 62.636C49.6742 61.903 47.6719 49.5926 46.0836 38.0089M46.0836 38.0089C45.8244 42.1499 45.1004 45.1448 45.1004 45.1448C45.4081 46.6876 46.6577 54.7159 47.2419 60C47.8261 65.2841 48.8038 72.6 49.4047 80.7C50.0055 88.8 50.3047 98.4 50.9047 111.3C51.5047 124.2 51.7578 138.6 51.7578 138.6C45.5047 139.5 41.0047 140.1 31.4047 140.1C21.8047 140.1 17.3047 139.5 11.0516 138.6C11.0516 138.6 11.3047 124.2 11.9047 111.3C12.5047 98.4 12.8038 88.8 13.4047 80.7C14.0055 72.6 14.9571 65.5779 15.5675 60C16.1779 54.4221 17.4029 46.6876 17.7106 45.1448C17.7106 45.1448 16.986 42.148 16.7271 38.005" stroke="#1E1E1E" stroke-linecap="round" stroke-linejoin="round"/>
</svg>
