<svg width="64" height="147" viewBox="0 0 64 147" fill="none" xmlns="http://www.w3.org/2000/svg">
<path d="M18.1012 26.4317C17.1014 30.0401 16.9293 33.8673 17.0711 37.1139M45.4925 26.4317C46.4923 30.04 46.6644 33.867 46.5227 37.1136M41.0026 9.89828C38.8412 8.88092 35.4724 8.46631 31.7609 8.46631C28.0582 8.46631 24.7339 8.87897 22.5721 9.89108M41.0026 9.89828C41.7801 9.64135 44.3344 10.4733 46.5227 11.9556C48.7109 13.4379 50.2057 14.6461 51.77 17.3279C53.3344 20.0096 54.4591 22.8486 54.9706 25.9472L54.9795 26.0013C55.4965 29.1326 56.0634 32.4486 56.0656 35.0934C56.0668 36.4626 55.2105 36.5927 54.1164 36.8432C53.1538 37.0636 50.162 37.5129 46.5227 37.1136M41.0026 9.89828C40.4016 10.0969 39.8464 10.5399 39.3375 11.2869C38.1701 13.0002 35.6979 15.3 31.7968 15.3C27.8957 15.3 25.4268 13.0002 24.2594 11.2869C23.7442 10.5308 23.1816 10.0861 22.5721 9.89108M22.5721 9.89108C21.8006 9.64427 18.8123 10.9201 17.0711 12.1954C15.3299 13.4708 13.6312 14.768 11.8787 17.3279C10.1263 19.8878 9.13776 22.8486 8.62627 25.9472L8.61733 26.0013C8.10041 29.1326 7.53351 32.4486 7.53125 35.0934C7.53009 36.4626 8.38634 36.5927 9.48043 36.8432C10.4428 37.0636 13.4332 37.5127 17.0711 37.1139M46.5227 37.1136C46.3219 41.7113 45.4918 45.1449 45.4918 45.1449C45.7866 46.623 46.968 54.0634 47.7433 59.2791C48.5186 64.4949 49.1952 72.6001 49.7961 80.7001C50.397 88.8001 50.6961 98.4001 51.2961 111.3C51.8961 124.2 52.1492 138.6 52.1492 138.6C45.8961 139.5 41.3961 140.1 31.7961 140.1C22.1961 140.1 17.6961 139.5 11.443 138.6C11.443 138.6 11.6961 124.2 12.2961 111.3C12.8961 98.4001 13.1952 88.8001 13.7961 80.7001C14.397 72.6001 15.4649 65.4008 16.0004 59.9689C16.5359 54.5371 17.8072 46.623 18.102 45.1449C18.102 45.1449 17.2719 41.7114 17.0711 37.1139" stroke="#1E1E1E" stroke-linecap="round" stroke-linejoin="round"/>
</svg>
