<svg width="63" height="147" viewBox="0 0 63 147" fill="none" xmlns="http://www.w3.org/2000/svg">
<path d="M17.7098 26.0693C16.6169 30.0137 16.5131 34.2195 16.7271 37.6427M45.1011 26.0693C46.1945 30.0152 46.298 34.2227 46.0836 37.6466M43.8038 11.5403C39.9965 10.3546 34.8231 9.95312 31.3687 9.95312C27.9214 9.95312 22.7952 10.3529 18.9956 11.533M43.8038 11.5403C44.4789 11.2004 46.2902 11.6974 48.4303 13.2827C50.5704 14.868 51.7188 16.5384 52.9193 19.3571C54.1199 22.1758 54.2988 23.793 54.9672 28.1378C55.6356 32.4826 55.9761 37.3157 56.6926 43.1741C57.4091 49.0325 57.9972 60.4906 57.9972 61.3906C57.9972 62.2906 58.2 62.854 57.1655 63.1568C56.131 63.4596 52.4962 63.9137 51.1589 63.8633C49.8216 63.8128 49.8995 63.2438 49.7712 62.2737C49.6742 61.5407 47.6719 49.2303 46.0836 37.6466M43.8038 11.5403C43.32 11.7839 42.8755 12.2839 42.775 13.2827C42.5165 14.4682 42.2322 15.3191 42.0228 15.8377C41.5382 17.0377 40.7074 17.6377 39.5074 17.6377C38.3074 17.6377 35.6067 17.0377 31.4067 17.0377C27.2067 17.0377 24.5067 17.6377 23.3067 17.6377C22.1067 17.6377 21.2759 17.0377 20.7913 15.8377C20.5818 15.3191 20.2975 14.4682 20.0391 13.2827C19.9375 12.2737 19.485 11.7738 18.9956 11.533M18.9956 11.533C18.3243 11.2027 16.5372 12.1015 15.0235 13.2827C13.5097 14.4639 11.5784 16.3818 10.3256 18.7829C9.07287 21.184 8.51139 23.793 7.84296 28.1378C7.17453 32.4826 6.83409 37.3157 6.11759 43.1741C5.40108 49.0325 4.81297 60.4906 4.81297 61.3906C4.81297 62.2906 4.61014 62.854 5.64464 63.1568C6.67913 63.4596 10.314 63.9137 11.6512 63.8633C12.9885 63.8128 12.9106 63.2438 13.039 62.2737C13.136 61.5406 15.1387 49.2275 16.7271 37.6427M46.0836 37.6466C45.8244 41.7876 45.1004 44.7825 45.1004 44.7825C45.3837 46.2028 46.5565 53.9998 47.1215 58.332C47.6866 62.6642 48.8038 72.2377 49.4047 80.3377C50.0055 88.4377 50.3047 98.0377 50.9047 110.938C51.5047 123.838 51.7578 138.238 51.7578 138.238C45.5047 139.138 41.0047 139.738 31.4047 139.738C21.8047 139.738 17.3047 139.138 11.0516 138.238C11.0516 138.238 11.3047 123.838 11.9047 110.938C12.5047 98.0377 12.8038 88.4377 13.4047 80.3377C14.0055 72.2377 14.5356 64.5478 15.2891 58.8971C16.0425 53.2464 17.4273 46.2028 17.7106 44.7825C17.7106 44.7825 16.986 41.7857 16.7271 37.6427" stroke="#1E1E1E" stroke-linecap="round" stroke-linejoin="round"/>
</svg>
