<svg width="63" height="147" viewBox="0 0 63 147" fill="none" xmlns="http://www.w3.org/2000/svg">
<path d="M17.3043 26.4317C16.3045 30.0401 16.1325 33.8673 16.2742 37.1139M44.6957 26.4317C45.6955 30.04 45.8675 33.867 45.7258 37.1136M20.3427 10.578C22.5013 9.53219 27.2044 8.46631 30.9631 8.46631C34.7217 8.46631 39.3858 9.54529 41.5444 10.5911M20.3427 10.578C19.6925 10.5215 17.9491 10.9464 15.5318 12.7925C13.1145 14.6385 10.8542 17.2938 10.1082 18.546C8.64595 21.0005 8.34089 22.8486 7.8294 25.9472L7.82045 26.0013C7.30353 29.1326 6.73663 32.4486 6.73438 35.0934C6.73321 36.4626 7.58946 36.5927 8.68356 36.8432C9.64597 37.0636 12.6363 37.5127 16.2742 37.1139M20.3427 10.578C21.689 10.695 22.7949 11.6349 23.9129 12.7925C25.5708 14.5091 28.8587 17.7498 29.5038 18.1986C30.1489 18.6474 30.448 18.75 31.0006 18.75C31.5531 18.75 31.8616 18.6474 32.5067 18.1986C33.1518 17.7498 36.4397 14.5091 38.0976 12.7925C39.1813 11.6705 40.2535 10.753 41.5444 10.5911M41.5444 10.5911C42.2285 10.5053 44.0968 11.2673 46.413 12.7925C48.7293 14.3176 50.326 16.0449 51.6322 18.1986C52.9383 20.3523 53.6622 22.8486 54.1737 25.9472L54.1827 26.0013C54.6996 29.1326 55.2665 32.4486 55.2688 35.0934C55.2699 36.4626 54.4137 36.5927 53.3196 36.8432C52.3569 37.0636 49.3651 37.5129 45.7258 37.1136M16.2742 37.1139C16.475 41.7114 17.3051 45.1449 17.3051 45.1449C16.9978 46.6858 15.7565 54.6858 15.1621 60.0001C14.5676 65.3144 13.6001 72.6001 12.9992 80.7001C12.3984 88.8001 12.0992 98.4001 11.4992 111.3C10.8992 124.2 10.6461 138.6 10.6461 138.6C16.8992 139.5 21.3992 140.1 30.9992 140.1C40.5992 140.1 45.0992 139.5 51.3523 138.6C51.3523 138.6 51.0992 124.2 50.4992 111.3C49.8992 98.4001 49.6001 88.8001 48.9992 80.7001C48.3984 72.6001 47.4339 65.4025 46.8364 60.0001C46.2389 54.5977 45.0022 46.6858 44.6949 45.1449C44.6949 45.1449 45.525 41.7113 45.7258 37.1136" stroke="#1E1E1E" stroke-linecap="round" stroke-linejoin="round"/>
</svg>
