<svg width="63" height="147" viewBox="0 0 63 147" fill="none" xmlns="http://www.w3.org/2000/svg">
<path d="M16.3727 12.7998C16.537 13.503 16.8548 15.6705 16.811 17.906M16.811 17.906C17.0319 17.9085 16.5183 17.9025 16.811 17.906ZM16.811 17.906C19.589 17.9388 26.1637 18.0177 30.996 17.9943C36.3377 18.0202 42.8691 17.932 45.1874 17.906M16.811 17.906C17.3138 19.4721 18.1236 21.7151 18.2598 23.5528C18.3959 25.3906 18.8103 27.4677 16.7876 31.6143C16.1428 38.6807 17.7059 45.1448 17.7059 45.1448C17.4034 46.6615 16.2746 53.775 15.5628 60C14.8511 66.225 14.0009 72.6 13.4 80.7C12.7991 88.8 12.5 98.4 11.9 111.3C11.3 124.2 11.0469 138.6 11.0469 138.6C17.3 139.5 21.8 140.1 31.4 140.1C41 140.1 45.5 139.5 51.7531 138.6C51.7531 138.6 51.5 124.2 50.9 111.3C50.3 98.4 50.0009 88.8 49.4 80.7C48.7991 72.6 48.1358 65.8566 47.2372 60C46.3385 54.1434 45.3982 46.6615 45.0957 45.1448C45.0957 45.1448 46.6584 38.6799 46.0141 31.6143C43.9652 27.4548 44.2032 22.8282 44.2993 21.8998C44.3778 21.1417 44.6831 19.4747 45.1874 17.906M45.6258 12.7998C45.4614 13.503 45.1436 15.6705 45.1874 17.906M45.1874 17.906C45.1767 17.9061 45.1984 17.9059 45.1874 17.906Z" stroke="#1E1E1E" stroke-linecap="round" stroke-linejoin="round"/>
</svg>
