<svg width="63" height="147" viewBox="0 0 63 147" fill="none" xmlns="http://www.w3.org/2000/svg">
<path d="M30.9963 18.7501C30.9963 18.7501 29.5153 21.231 28.3059 22.1655C27.0964 23.1001 25.7671 22.1593 23.7964 19.8001C22.3013 18.0102 21.1311 16.7633 19.5755 14.6461C19.0808 13.9727 17.9879 12.677 17.4558 11.7429C17.3942 11.6349 17.3402 11.5234 17.2989 11.4099M30.9963 18.7501C30.9963 18.7501 28.8768 16.5499 26.9162 14.5172C25.5243 13.074 22.8599 10.1253 22.4438 9.69845C22.4224 9.67644 22.401 9.65457 22.3798 9.63286M30.9963 18.7501C30.9963 18.7501 32.4774 21.231 33.6868 22.1656C34.8962 23.1001 36.2255 22.1593 38.1962 19.8001C39.6914 18.0102 40.8615 16.7633 42.4171 14.6461C42.9119 13.9727 44.0048 12.677 44.5369 11.7429C44.5911 11.6479 44.6394 11.5502 44.6784 11.4507M30.9963 18.7501C30.9963 18.7501 33.1159 16.5499 35.0764 14.5172C36.4684 13.074 39.1328 10.1253 39.5488 9.69846C39.5668 9.67998 39.5848 9.66161 39.6027 9.64334M22.3798 9.63286C24.5317 8.8082 27.5885 8.46631 30.9588 8.46631C34.3434 8.46631 37.4493 8.8111 39.6027 9.64334M22.3798 9.63286C21.6091 8.84604 20.9561 8.26604 19.9508 8.7045C18.9179 9.15505 18.3331 9.53098 17.6842 10.0678C17.1679 10.4949 17.1379 10.9681 17.2989 11.4099M39.6027 9.64334C40.3778 8.85121 41.0322 8.26411 42.0418 8.70451C43.0748 9.15506 43.6595 9.53099 44.3085 10.0678C44.8407 10.508 44.8561 10.9974 44.6784 11.4507M17.2989 11.4099L16.5953 11.9999C15.5196 12.966 14.7839 13.5282 15.941 15.1549C17.0982 16.7816 17.9632 20.6253 18.0952 21.8999C18.1913 22.8281 18.4292 27.4544 16.3814 31.6135C15.7366 38.6798 17.2996 45.1449 17.2996 45.1449C16.988 46.7073 15.8614 54.6484 15.1566 60.0001C14.4518 65.3518 13.5946 72.6001 12.9937 80.7001C12.3929 88.8001 12.0938 98.4001 11.4938 111.3C10.8938 124.2 10.6406 138.6 10.6406 138.6C16.8938 139.5 21.3938 140.1 30.9938 140.1C40.5938 140.1 45.0938 139.5 51.3469 138.6C51.3469 138.6 51.0938 124.2 50.4938 111.3C49.8938 98.4001 49.5946 88.8001 48.9938 80.7001C48.3929 72.6001 47.5926 65.435 46.8309 60.0001C46.0693 54.5652 45.0011 46.7073 44.6894 45.1449C44.6894 45.1449 46.2522 38.681 45.6079 31.6154C43.559 27.4558 43.797 22.8283 43.8931 21.8999C44.025 20.6253 44.8901 16.7816 46.0473 15.1549C47.2044 13.5282 46.4686 12.966 45.393 11.9999C45.2312 11.8546 44.9884 11.6666 44.6784 11.4507" stroke="#1E1E1E" stroke-linecap="round" stroke-linejoin="round"/>
</svg>
