<svg width="64" height="147" viewBox="0 0 64 147" fill="none" xmlns="http://www.w3.org/2000/svg">
<path d="M18.1012 26.4317C17.1014 30.0401 16.9293 33.8673 17.0711 37.1139M45.4925 26.4317C46.4705 29.9611 46.6565 33.6998 46.5315 36.8999C46.5287 36.9714 46.5258 37.0426 46.5227 37.1136M31.7987 18.7501C31.7987 18.7501 30.3177 21.231 29.1082 22.1655C27.8988 23.1001 26.5695 22.1593 24.5988 19.8001C23.1036 18.0102 21.9335 16.7633 20.3779 14.6461C19.9492 14.0627 19.0717 13.0122 18.4988 12.1345M31.7987 18.7501C31.7987 18.7501 29.6791 16.5499 27.7186 14.5172C26.3266 13.074 23.6622 10.1253 23.2462 9.69845C23.2247 9.67644 23.2034 9.65457 23.1821 9.63286M31.7987 18.7501C31.7987 18.7501 33.2797 21.231 34.4891 22.1656C35.6986 23.1001 37.0279 22.1593 38.9986 19.8001C40.4937 18.0102 41.6639 16.7633 43.2195 14.6461C43.6481 14.0628 44.5255 13.0124 45.0985 12.1347M31.7987 18.7501C31.7987 18.7501 33.9183 16.5499 35.8788 14.5172C37.2707 13.074 39.9351 10.1253 40.3512 9.69846C40.3692 9.67998 40.3871 9.66161 40.405 9.64334M23.1821 9.63286C25.3341 8.8082 28.3908 8.46631 31.7612 8.46631C35.1458 8.46631 38.2516 8.8111 40.405 9.64334M23.1821 9.63286C22.4115 8.84604 21.7584 8.26604 20.7532 8.7045C19.7202 9.15505 19.1355 9.53098 18.4865 10.0678C17.8376 10.6046 17.957 11.2144 18.2581 11.7429C18.3292 11.8678 18.4104 11.9991 18.4988 12.1345M40.405 9.64334C41.1801 8.85121 41.8345 8.26411 42.8442 8.70451C43.8771 9.15506 44.4619 9.53099 45.1108 10.0678C45.7598 10.6046 45.6404 11.2144 45.3393 11.7429C45.2681 11.8678 45.1869 11.9992 45.0985 12.1347M18.4988 12.1345C14.9116 14.5379 11.6797 17.2457 10.9051 18.546C9.44282 21.0005 9.13776 22.8486 8.62627 25.9472L8.61733 26.0013C8.10041 29.1326 7.53351 32.4486 7.53125 35.0934C7.53009 36.4626 8.38634 36.5927 9.48043 36.8432C10.4428 37.0636 13.4332 37.5127 17.0711 37.1139M45.0985 12.1347C48.6854 14.5381 51.9172 17.2457 52.6918 18.546C54.1541 21.0005 54.4591 22.8486 54.9706 25.9472L54.9795 26.0013C55.4965 29.1326 56.0634 32.4486 56.0656 35.0934C56.0668 36.4626 55.2105 36.5927 54.1164 36.8432C53.1538 37.0636 50.162 37.5129 46.5227 37.1136M17.0711 37.1139C17.2719 41.7114 18.102 45.1449 18.102 45.1449C17.8009 46.6543 16.79 54.604 15.9589 60.0001C15.1278 65.3962 14.397 72.6001 13.7961 80.7001C13.1952 88.8001 12.8961 98.4001 12.2961 111.3C11.6961 124.2 11.443 138.6 11.443 138.6C17.6961 139.5 22.1961 140.1 31.7961 140.1C41.3961 140.1 45.8961 139.5 52.1492 138.6C52.1492 138.6 51.8961 124.2 51.2961 111.3C50.6961 98.4001 50.397 88.8001 49.7961 80.7001C49.1952 72.6001 48.2698 65.3058 47.6333 60.0001C46.9967 54.6944 45.7928 46.6543 45.4918 45.1449C45.4918 45.1449 46.3219 41.7113 46.5227 37.1136" stroke="#1E1E1E" stroke-linecap="round" stroke-linejoin="round"/>
</svg>
