<svg width="63" height="147" viewBox="0 0 63 147" fill="none" xmlns="http://www.w3.org/2000/svg">
<path d="M17.5075 26.4316C16.5076 30.04 16.3356 33.8672 16.4774 37.1138M44.8988 26.4316C45.8986 30.0399 46.0707 33.8669 45.9289 37.1135M16.175 12.7998C16.3394 13.503 16.6572 15.6705 16.6134 17.906M16.6134 17.906C16.2224 17.9016 15.9512 17.899 15.8258 17.899C13.0412 17.899 11.3867 18.228 10.1978 19.6672C9.71725 20.2489 9.25948 20.8013 8.88668 21.9565C8.51389 23.1117 8.34032 24.0824 8.03252 25.9471L8.02358 26.0013C7.50666 29.1325 6.93976 32.4485 6.9375 35.0933C6.93634 36.4625 7.79259 36.5926 8.88668 36.8431C9.8491 37.0635 12.8395 37.5126 16.4774 37.1138M16.6134 17.906C18.9306 17.932 25.4569 18.0202 30.7983 17.9943C36.14 18.0202 42.6715 17.932 44.9898 17.906M45.4281 12.7998C45.2637 13.503 44.9459 15.6705 44.9898 17.906M44.9898 17.906C45.3808 17.9016 45.6519 17.899 45.7773 17.899C48.562 17.899 50.6558 17.9081 52.0892 19.5524C53.5227 21.1966 53.5227 22.2122 54.3769 25.9471C55.231 29.6819 55.4696 32.4485 55.4719 35.0933C55.473 36.4625 54.6168 36.5926 53.5227 36.8431C52.56 37.0635 49.5682 37.5128 45.9289 37.1135M45.9289 37.1135C45.7282 41.7112 44.898 45.1448 44.898 45.1448C45.208 46.6988 46.7068 52.709 47.2935 58.6118C47.8801 64.5145 48.6015 72.6 49.2023 80.7C49.8032 88.8 50.1023 98.4 50.7023 111.3C51.3023 124.2 51.5555 138.6 51.5555 138.6C45.3023 139.5 40.8023 140.1 31.2023 140.1C21.6023 140.1 17.1023 139.5 10.8492 138.6C10.8492 138.6 11.1023 124.2 11.7023 111.3C12.3023 98.4 12.6015 88.8 13.2023 80.7C13.8032 72.6 14.4251 63.5965 15.1128 58.6118C15.8005 53.627 17.1983 46.6988 17.5082 45.1448C17.5082 45.1448 16.6781 41.7113 16.4774 37.1138" stroke="#1E1E1E" stroke-linecap="round" stroke-linejoin="round"/>
</svg>
