<svg width="64" height="147" viewBox="0 0 64 147" fill="none" xmlns="http://www.w3.org/2000/svg">
<path d="M21.653 10.276C23.8116 9.23024 27.9958 8.46631 31.7545 8.46631C35.5131 8.46631 39.7266 9.23024 41.8852 10.276M21.653 10.276C20.9187 10.1945 20.1845 10.3576 18.6344 11.255C17.0844 12.1524 15.5808 13.5282 16.7379 15.1549C17.8951 16.7816 18.7601 20.6253 18.8921 21.8999C18.9882 22.8283 19.2262 27.4558 17.1773 31.6154C16.533 38.681 18.0965 45.1449 18.0965 45.1449C17.7955 46.654 16.5997 53.6154 15.9535 60.0001C15.3072 66.3848 14.3915 72.6001 13.7906 80.7001C13.1898 88.8001 12.8906 98.4001 12.2906 111.3C11.6906 124.2 11.4375 138.6 11.4375 138.6C17.6906 139.5 22.1906 140.1 31.7906 140.1C41.3906 140.1 45.8906 139.5 52.1438 138.6C52.1438 138.6 51.8906 124.2 51.2906 111.3C50.6906 98.4001 50.3915 88.8001 49.7906 80.7001C49.1898 72.6001 48.8509 66.7377 47.6278 60.0001C46.4047 53.2625 45.7873 46.654 45.4863 45.1449C45.4863 45.1449 47.0491 38.681 46.4047 31.6154C44.3559 27.4558 44.5938 22.8283 44.6899 21.8999C44.8219 20.6253 45.687 16.7816 46.8441 15.1549C48.0013 13.5282 46.413 11.9893 45.1077 11.2958C43.8024 10.6024 43.0274 10.0313 41.8852 10.276M21.653 10.276C22.3872 10.3576 23.5863 11.6349 24.7043 12.7925C26.3622 14.5091 29.6501 17.7498 30.2952 18.1986C30.9403 18.6474 31.2394 18.75 31.792 18.75C32.3445 18.75 32.653 18.6474 33.2981 18.1986C33.9432 17.7498 37.2311 14.5091 38.889 12.7925C39.9727 11.6705 40.7431 10.5208 41.8852 10.276" stroke="#1E1E1E" stroke-linecap="round" stroke-linejoin="round"/>
</svg>
