<svg width="63" height="147" viewBox="0 0 63 147" fill="none" xmlns="http://www.w3.org/2000/svg">
<path d="M17.7098 26.4316C16.6169 30.376 16.5131 34.5818 16.7271 38.005M45.1011 26.4316C46.1945 30.3775 46.298 34.585 46.0836 38.0089M18.9917 11.8965C22.7917 10.7155 27.9202 10.3154 31.3687 10.3154C34.8235 10.3154 40.0037 10.717 43.8057 11.903M18.9917 11.8965C18.1388 11.5676 16.2282 12.7533 15.0646 13.6112C13.901 14.469 11.989 15.9 10.3439 18.6C8.69884 21.3 8.51139 24.1554 7.84296 28.5001C7.17453 32.8449 6.83409 37.678 6.11759 43.5364C5.40108 49.3948 4.81297 60.8529 4.81297 61.7529C4.81297 62.6529 4.61014 63.2163 5.64464 63.5191C6.67913 63.8219 10.314 64.276 11.6512 64.2256C12.9885 64.1751 12.9106 63.6061 13.039 62.636C13.136 61.9029 15.1387 49.5898 16.7271 38.005M18.9917 11.8965C19.5245 12.102 20.0183 12.4784 20.4518 13.0464C21.5792 14.5233 23.9636 18.6 31.4071 18.6C38.8506 18.6 41.2348 14.5233 42.3622 13.0464C42.7912 12.4844 43.2792 12.1098 43.8057 11.903M43.8057 11.903C44.6628 11.5662 46.6074 12.6098 48.1095 13.6112C49.6115 14.6125 51.1851 16.1146 52.5441 18.6C53.9031 21.0854 54.2988 24.1554 54.9672 28.5001C55.6356 32.8449 55.9761 37.678 56.6926 43.5364C57.4091 49.3948 57.9972 60.8529 57.9972 61.7529C57.9972 62.6529 58.2 63.2163 57.1655 63.5191C56.131 63.8219 52.4962 64.276 51.1589 64.2256C49.8216 64.1751 49.8995 63.6061 49.7712 62.636C49.6742 61.903 47.6719 49.5926 46.0836 38.0089M46.0836 38.0089C45.8244 42.1499 45.1004 45.1448 45.1004 45.1448C45.396 46.6269 46.6692 55.7682 47.2419 60C47.8145 64.2318 48.8038 72.6 49.4047 80.7C50.0055 88.8 50.3047 98.4 50.9047 111.3C51.5047 124.2 51.7578 138.6 51.7578 138.6C45.5047 139.5 41.0047 140.1 31.4047 140.1C21.8047 140.1 17.3047 139.5 11.0516 138.6C11.0516 138.6 11.3047 124.2 11.9047 111.3C12.5047 98.4 12.8038 88.8 13.4047 80.7C14.0055 72.6 15.0586 64.8201 15.5675 60C16.0765 55.1799 17.415 46.6269 17.7106 45.1448C17.7106 45.1448 16.986 42.148 16.7271 38.005" stroke="#1E1E1E" stroke-linecap="round" stroke-linejoin="round"/>
</svg>
