<svg width="63" height="147" viewBox="0 0 63 147" fill="none" xmlns="http://www.w3.org/2000/svg">
<path d="M19.294 11.6884C23.0939 10.5075 27.9155 10.3154 31.364 10.3154C34.8188 10.3154 39.7794 10.5221 43.5815 11.7081M19.294 11.6884C19.98 12.0807 20.0136 12.4784 20.4472 13.0464C21.5746 14.5233 23.9589 18.6 31.4024 18.6C38.846 18.6 41.2301 14.5233 42.3575 13.0464C42.7865 12.4844 43.055 11.915 43.5815 11.7081M19.294 11.6884C18.6079 11.2962 17.9105 11.4097 17.0016 11.9998C16.0927 12.5899 15.1901 13.5281 16.3473 15.1548C17.5044 16.7815 18.3695 20.6252 18.5015 21.8998C18.5976 22.828 18.8355 27.4543 16.7876 31.6134C16.1428 38.6797 17.7059 45.1448 17.7059 45.1448C17.404 46.6582 16.4598 54.6201 15.5628 60C14.6659 65.3799 14.0009 72.6 13.4 80.7C12.7991 88.8 12.5 98.4 11.9 111.3C11.3 124.2 11.0469 138.6 11.0469 138.6C17.3 139.5 21.8 140.1 31.4 140.1C41 140.1 45.5 139.5 51.7531 138.6C51.7531 138.6 51.5 124.2 50.9 111.3C50.3 98.4 50.0009 88.8 49.4 80.7C48.7991 72.6 48.0663 65.2227 47.2372 60C46.408 54.7773 45.3975 46.6582 45.0957 45.1448C45.0957 45.1448 46.6584 38.6809 46.0141 31.6153C43.9652 27.4557 44.2032 22.8282 44.2993 21.8998C44.4313 20.6252 45.2964 16.7815 46.4535 15.1548C47.6106 13.5281 46.6503 12.4156 45.7992 11.9998C44.9482 11.584 44.1239 11.4949 43.5815 11.7081" stroke="#1E1E1E" stroke-linecap="round" stroke-linejoin="round"/>
</svg>
