<svg width="63" height="147" viewBox="0 0 63 147" fill="none" xmlns="http://www.w3.org/2000/svg">
<path d="M17.5075 26.4316C16.5076 30.04 16.3356 33.8672 16.4774 37.1138M44.8988 26.4316C45.8993 30.0424 46.0709 33.8723 45.9286 37.1203M18.7893 11.8965C22.5893 10.7155 27.7179 10.3154 31.1664 10.3154C34.6212 10.3154 39.8013 10.717 43.6034 11.903M18.7893 11.8965C17.9365 11.5676 16.4192 12.1601 14.7528 13.4943C13.0865 14.8286 11.8505 15.9904 10.3113 18.5459C8.77222 21.1015 8.54401 22.8485 8.03252 25.9471L8.02358 26.0013C7.50666 29.1325 6.93976 32.4485 6.9375 35.0933C6.93634 36.4625 7.79259 36.5926 8.88668 36.8431C9.8491 37.0635 12.8395 37.5126 16.4774 37.1138M18.7893 11.8965C19.3222 12.102 19.816 12.4784 20.2495 13.0464C21.3769 14.5233 23.7613 18.6 31.2048 18.6C38.6483 18.6 41.0325 14.5233 42.1599 13.0464C42.5889 12.4844 43.0769 12.1098 43.6034 11.903M43.6034 11.903C44.4605 11.5662 47.0347 12.921 48.4546 14.0828C49.8745 15.2445 50.9509 16.5518 52.098 18.5459C53.2451 20.5401 53.8654 22.8485 54.3769 25.9471L54.3858 26.0013C54.9027 29.1325 55.4696 32.4485 55.4719 35.0933C55.473 36.4625 54.6168 36.5926 53.5227 36.8431C52.5485 37.0662 49.6271 37.5451 45.9286 37.1203M45.9286 37.1203C45.7274 41.7145 44.898 45.1448 44.898 45.1448C45.1975 46.6465 45.9286 53.1504 47.0395 60C48.1504 66.8496 48.6015 72.6 49.2023 80.7C49.8032 88.8 50.1023 98.4 50.7023 111.3C51.3023 124.2 51.5555 138.6 51.5555 138.6C45.3023 139.5 40.8023 140.1 31.2023 140.1C21.6023 140.1 17.1023 139.5 10.8492 138.6C10.8492 138.6 11.1023 124.2 11.7023 111.3C12.3023 98.4 12.6015 88.8 13.2023 80.7C13.8032 72.6 14.253 66.3058 15.3652 60C16.4774 53.6942 17.2087 46.6465 17.5082 45.1448C17.5082 45.1448 16.6781 41.7113 16.4774 37.1138" stroke="#1E1E1E" stroke-linecap="round" stroke-linejoin="round"/>
</svg>
