<svg width="63" height="147" viewBox="0 0 63 147" fill="none" xmlns="http://www.w3.org/2000/svg">
<path d="M17.7028 26.4316C16.7029 30.04 16.5309 33.8672 16.6727 37.1138M45.0941 26.4316C46.0939 30.0399 46.266 33.8669 46.1242 37.1135M43.7968 11.9026C39.9895 10.7169 34.8161 10.3154 31.3617 10.3154C27.9144 10.3154 22.7881 10.7152 18.9885 11.8953M43.7968 11.9026C44.4719 11.5627 46.0728 12.3684 47.4949 13.3491C48.917 14.3299 50.9254 16.2001 52.2934 18.5459C53.6613 20.8918 54.0607 22.8485 54.5722 25.9471L54.5811 26.0013C55.098 29.1325 55.6649 32.4485 55.6672 35.0933C55.6684 36.4625 54.8121 36.5926 53.718 36.8431C52.7553 37.0635 49.7635 37.5128 46.1242 37.1135M43.7968 11.9026C43.313 12.1462 42.8685 12.6462 42.768 13.645C42.5095 14.8305 42.2252 15.6814 42.0157 16.2001C41.5311 17.4001 40.7004 18.0001 39.5004 18.0001C38.3004 18.0001 35.5996 17.4001 31.3996 17.4001C27.1996 17.4001 24.4996 18.0001 23.2996 18.0001C22.0996 18.0001 21.2689 17.4001 20.7843 16.2001C20.5748 15.6814 20.2905 14.8305 20.032 13.645C19.9305 12.636 19.478 12.1361 18.9885 11.8953M18.9885 11.8953C18.3173 11.565 16.9765 12.188 15.0329 13.645C13.0892 15.102 11.1498 17.4663 10.5067 18.5459C9.04438 21.0004 8.73932 22.8485 8.22784 25.9471L8.21889 26.0013C7.70197 29.1325 7.13507 32.4485 7.13281 35.0933C7.13165 36.4625 7.9879 36.5926 9.082 36.8431C10.0444 37.0635 13.0348 37.5126 16.6727 37.1138M16.6727 37.1138C16.8734 41.7113 17.7035 45.1448 17.7035 45.1448C17.3964 46.6848 16.179 55.296 15.5605 60C14.942 64.704 13.9985 72.6 13.3977 80.7C12.7968 88.8 12.4977 98.4 11.8977 111.3C11.2977 124.2 11.0445 138.6 11.0445 138.6C17.2977 139.5 21.7977 140.1 31.3977 140.1C40.9977 140.1 45.4977 139.5 51.7508 138.6C51.7508 138.6 51.4977 124.2 50.8977 111.3C50.2977 98.4 49.9985 88.8 49.3977 80.7C48.7968 72.6 48.3454 65.7893 47.2348 60C46.1242 54.2107 45.4005 46.6848 45.0933 45.1448C45.0933 45.1448 45.9235 41.7112 46.1242 37.1135" stroke="#1E1E1E" stroke-linecap="round" stroke-linejoin="round"/>
</svg>
