<svg width="63" height="129" viewBox="0 0 63 129" fill="none" xmlns="http://www.w3.org/2000/svg">
<path d="M12.2191 64.3475C13.7803 64.366 20.2274 64.5417 23.0619 64.1744C23.2883 65.18 23.7411 68.0439 23.7411 71.4544C23.7411 75.7175 23.4499 76.7012 20.3432 77.2915C17.8579 77.7637 10.9603 76.9429 9.34785 76.1885M12.2191 64.3475C11.9633 65.3808 11.7003 66.4459 11.441 67.4993M12.2191 64.3475C12.2334 64.2899 12.2476 64.2323 12.2619 64.1749M9.34785 76.1885C9.23624 76.6868 9.17344 76.9968 9.17344 77.0632C9.17344 78.5632 10.9734 81.2632 10.9734 82.1632C10.9734 83.0632 10.0734 84.2632 10.3734 85.1632C10.6734 86.0632 11.5746 87.5632 11.5746 87.5632C11.8873 87.6914 14.6399 87.8709 15.9494 87.5632C16.4176 87.7484 20.2045 88.6373 20.2045 88.6373L21.9348 87.7486C22.1846 87.9477 24.1832 88.6373 24.1832 88.6373C24.6828 88.4751 26.5565 87.7486 26.5565 87.7486C27.2088 87.9477 28.8465 88.6373 28.8465 88.6373L31.3975 87.7277M9.34785 76.1885C9.70238 74.6055 10.5494 71.1213 11.441 67.4993M11.441 67.4993C12.7009 67.7186 19.362 68.5854 23.3936 67.902M16.7397 56.1456C17.0121 56.2738 17.8423 56.4533 18.9834 56.1456C19.3915 56.3308 22.6915 57.2197 22.6915 57.2197L24.1994 56.331C24.4171 56.5301 26.1587 57.2197 26.1587 57.2197C26.5942 57.0575 28.2269 56.331 28.2269 56.331C28.7954 56.5301 30.2226 57.2197 30.2226 57.2197L31.3975 56.331M31.3975 56.331L32.5724 57.2197C32.5724 57.2197 33.9996 56.5301 34.5681 56.331C34.5681 56.331 36.2009 57.0575 36.6363 57.2197C36.6363 57.2197 38.3779 56.5301 38.5956 56.331L40.1035 57.2197C40.1035 57.2197 43.4035 56.3308 43.8116 56.1456C44.9527 56.4533 45.7829 56.2738 46.0553 56.1456M31.3975 56.331V87.7277M31.3975 56.331V3.89971M16.428 19.5506C16.428 19.5506 17.3294 21.6506 17.3294 22.2506C17.3294 22.578 12.9914 48.9274 12.9914 48.9274L14.2415 56.22C14.2415 56.22 13.7453 58.2024 13.0634 60.9449M31.3975 87.7277L33.9485 88.6373C33.9485 88.6373 35.5862 87.9477 36.2385 87.7486C36.2385 87.7486 38.1122 88.4751 38.6118 88.6373C38.6118 88.6373 40.6104 87.9477 40.8602 87.7486L42.5905 88.6373C42.5905 88.6373 46.3774 87.7484 46.8456 87.5632C48.1551 87.8709 50.9077 87.6914 51.2204 87.5632C51.2204 87.5632 52.1216 86.0632 52.4216 85.1632C52.7216 84.2632 51.8216 83.0632 51.8216 82.1632C51.8216 81.2632 53.6216 78.5632 53.6216 77.0632C53.6216 77.0071 53.5768 76.7772 53.4956 76.4067M21.7038 38.1323L25.1043 30.8489M26.9905 31.8854L23.1708 48.0132M27.9374 11.8093C27.683 14.0954 27.1741 19.9262 27.1741 24.0633M27.9374 11.8093C27.6429 11.6799 27.3568 11.564 27.1741 11.4934M27.9374 11.8093C28.2911 11.9646 28.6569 12.1395 28.8709 12.2788M50.6178 64.517C49.0567 64.5355 42.5676 64.5417 39.7331 64.1744C39.5067 65.18 39.0539 68.0439 39.0539 71.4544C39.0539 75.7175 39.3452 76.7012 42.4518 77.2915C44.9371 77.7637 51.8831 77.1611 53.4956 76.4067M50.6178 64.517C50.8931 65.6294 51.1761 66.7756 51.4531 67.902M50.6178 64.517C50.5895 64.4024 50.5612 64.2882 50.5331 64.1745M53.4956 76.4067C53.1866 74.9974 52.3512 71.5537 51.4531 67.902M51.4531 67.902C50.1932 68.1213 43.433 68.5854 39.4014 67.902M46.367 19.5506C46.367 19.5506 45.4657 21.6506 45.4657 22.2506C45.4657 22.578 49.8036 48.9274 49.8036 48.9274L48.5535 56.22C48.5535 56.22 49.0496 58.202 49.7314 60.944M41.0913 38.1323L37.6907 30.8489M35.8045 31.8854L39.6243 48.0132M34.7905 11.8389C35.0449 14.1251 35.6209 19.9262 35.6209 24.0633M34.7905 11.8389C35.1081 11.6977 35.4243 11.5693 35.6209 11.4934M34.7905 11.8389C34.4583 11.9866 34.1246 12.1483 33.9241 12.2788M31.3975 3.89971L24.1055 3.8999C24.1055 3.8999 23.4439 7.87394 23.0889 9.74846C20.8416 10.7068 18.2353 11.9216 16.8311 12.9358C14.0344 14.9556 10.1677 19.7106 10.1677 19.7106L6.19294 37.7608C6.19294 37.7608 2.43363 49.539 3.03363 51.939C3.63363 54.339 4.10331 56.5339 4.69269 59.4C5.28207 62.266 5.59321 63.6001 5.59321 63.6001C6.12792 63.7783 9.56215 64.0134 12.2619 64.1749M31.3975 3.89971L37.6601 3.8999L38.7906 9.3663C41.2018 10.3665 44.3586 11.7812 45.9572 12.9358C48.7539 14.9556 52.6206 19.7106 52.6206 19.7106L56.5953 37.7608C56.5953 37.7608 60.3547 49.539 59.7547 51.939C59.1547 54.339 58.685 56.5339 58.0956 59.4C57.5062 62.266 57.1951 63.6001 57.1951 63.6001C56.6608 63.7782 53.2318 64.013 50.5331 64.1745M5.9875 60.1768C6.23422 60.0274 6.777 60.3288 6.97438 60.3288C7.17175 60.3288 7.38557 60.6274 7.46781 60.7768C7.71453 60.5528 8.30666 60.1048 8.70141 60.1048C9.19484 60.1048 8.94813 61.0007 9.68828 61.0007C10.4284 61.0007 11.1943 60.3657 11.6878 60.5897C12.0973 60.7755 12.5708 60.8747 13.0634 60.9449M56.8008 60.1768C56.5541 60.0274 56.0113 60.3288 55.8139 60.3288C55.6165 60.3288 55.4027 60.6274 55.3205 60.7768C55.0738 60.5528 54.4816 60.1048 54.0869 60.1048C53.5934 60.1048 53.8402 61.0007 53.1 61.0007C52.3598 61.0007 51.5939 60.3657 51.1005 60.5897C50.6928 60.7747 50.2216 60.8738 49.7314 60.944M13.0634 60.9449C12.8157 61.9408 12.5436 63.037 12.2619 64.1749M49.7314 60.944C49.9791 61.94 50.2513 63.0364 50.5331 64.1745" stroke="#1E1E1E" stroke-width="0.6" stroke-linecap="round"/>
</svg>
