<svg width="63" height="129" viewBox="0 0 63 129" fill="none" xmlns="http://www.w3.org/2000/svg">
<path d="M31.0068 56.331L32.131 57.2198C32.131 57.2198 33.4964 56.5301 34.0402 56.331C34.0402 56.331 35.6023 57.0575 36.0189 57.2198C36.0189 57.2198 37.6851 56.5301 37.8934 56.331L39.336 57.2198C39.336 57.2198 42.4931 56.3309 42.8835 56.1457C43.9752 56.4533 44.7391 56.8447 44.7391 56.8447L46.6942 55.6871L49.0068 56.8447M31.0068 56.331L29.8827 57.2198C29.8827 57.2198 28.5173 56.5301 27.9734 56.331C27.9734 56.331 26.4113 57.0575 25.9948 57.2198C25.9948 57.2198 24.3286 56.5301 24.1203 56.331L22.6777 57.2198C22.6777 57.2198 19.5205 56.3309 19.1302 56.1457C18.0385 56.4533 17.2746 56.8447 17.2746 56.8447L15.3194 55.6871L13.0068 56.8447M31.0068 56.331L31.0086 119.868M31.0068 56.331V3.8999M47.1764 19.5506C47.1764 19.5506 46.008 23.2332 46.008 23.8332L51.6832 48.5804L50.2908 57.0044L50.6698 60.6075M31.0086 119.868L33.5554 120.756C33.5554 120.756 35.1932 120.067 35.8455 119.868C35.8455 119.868 37.7191 120.594 38.2188 120.756C38.2188 120.756 40.2174 120.067 40.4672 119.868L42.1975 120.756L44.0774 119.868L46.0597 120.756L48.1173 119.868L50.3204 120.936L52.2835 120.171C52.2835 120.171 53.1561 120.723 54.25 120.171C55.3438 119.618 53.8497 116.275 53.8497 116.275L55.6285 109.182L53.3684 86.8739M31.0086 119.868L28.4582 120.756C28.4582 120.756 26.8205 120.067 26.1682 119.868C26.1682 119.868 24.2945 120.594 23.7949 120.756C23.7949 120.756 21.7963 120.067 21.5465 119.868L19.8162 120.756L17.9363 119.868L15.954 120.756L13.8964 119.868L11.6933 120.936L9.73016 120.171C9.73016 120.171 8.85758 120.723 7.76373 120.171C6.66988 119.618 8.16395 116.275 8.16395 116.275L6.38516 109.182L8.6453 86.8739M51.6832 70.2403C50.122 70.2646 41.837 70.5756 39.0025 70.0927C38.7761 71.4147 38.3233 75.1795 38.3233 79.6628C38.3233 85.2669 38.6146 86.5602 41.7212 87.3361C44.2065 87.9569 51.756 87.8656 53.3684 86.8739M51.6832 70.2403L52.1647 74.9929M51.6832 70.2403L51.0393 64.1197M40.7006 38.1323L37.3 30.8489M35.4139 31.8854L39.2336 48.0132M34.4669 11.8093C34.7214 14.0954 35.2303 19.9262 35.2303 24.0633M34.4669 11.8093C34.7615 11.6799 35.0475 11.564 35.2303 11.4934M34.4669 11.8093C34.1133 11.9646 33.7474 12.1395 33.5334 12.2788M53.3684 86.8739L52.1647 74.9929M52.1647 74.9929C50.9048 75.2812 42.7024 75.8912 38.6708 74.9929M14.8373 19.5506C14.8373 19.5506 16.0057 23.2332 16.0057 23.8332L10.3305 48.5804L11.7229 57.0044L11.3436 60.6103M10.3305 70.2403C11.8917 70.2646 20.1767 70.5756 23.0112 70.0927C23.2376 71.4147 23.6904 75.1795 23.6904 79.6628C23.6904 85.2669 23.3991 86.5602 20.2925 87.3361C17.8072 87.9569 10.2577 87.8656 8.6453 86.8739M10.3305 70.2403L9.849 74.9929M10.3305 70.2403L10.9743 64.1201M21.3131 38.1323L24.7137 30.8489M26.5998 31.8854L22.7801 48.0132M27.5468 11.8093C27.2923 14.0954 26.7834 19.9262 26.7834 24.0633M27.5468 11.8093C27.2522 11.6799 26.9662 11.564 26.7834 11.4934M27.5468 11.8093C27.9004 11.9646 28.2663 12.1395 28.4803 12.2788M8.6453 86.8739L9.849 74.9929M9.849 74.9929C11.1089 75.2812 19.3113 75.8912 23.3429 74.9929M5.59687 60.1768C5.84359 60.0274 6.38638 60.3288 6.58375 60.3288C6.78113 60.3288 6.99495 60.6274 7.07719 60.7768C7.32391 60.5528 7.91603 60.1048 8.31078 60.1048C8.80422 60.1048 8.5575 61.0007 9.29766 61.0007C10.0378 61.0007 10.8037 60.3657 11.2972 60.5897C11.3126 60.5967 11.328 60.6035 11.3436 60.6103M56.4102 60.1768C56.1634 60.0274 55.6207 60.3288 55.4233 60.3288C55.2259 60.3288 55.0121 60.6274 54.9298 60.7768C54.6831 60.5528 54.091 60.1048 53.6963 60.1048C53.2028 60.1048 53.4495 61.0007 52.7094 61.0007C51.9692 61.0007 51.2033 60.3657 50.7099 60.5897C50.6966 60.5957 50.6832 60.6017 50.6698 60.6075M10.9743 64.1201C8.46277 63.9632 5.67948 63.7591 5.20259 63.6001C5.20259 63.6001 4.89145 62.266 4.30207 59.4C3.71269 56.5339 3.243 54.339 2.643 51.939C2.043 49.539 5.80232 37.7608 5.80232 37.7608L9.77708 19.7106C9.77708 19.7106 13.6438 14.9556 16.4404 12.9358C17.8381 11.9263 20.4268 10.718 22.667 9.7618C23.022 7.88728 23.7149 3.8999 23.7149 3.8999H31.0068M10.9743 64.1201L11.3436 60.6103M31.0068 3.8999H37.2695L38.478 9.39869C40.8788 10.3968 43.9851 11.7936 45.5666 12.9358C48.3632 14.9556 52.23 19.7106 52.23 19.7106L56.2047 37.7608C56.2047 37.7608 59.964 49.539 59.364 51.939C58.764 54.339 58.2943 56.5339 57.705 59.4C57.1156 62.266 56.8044 63.6001 56.8044 63.6001C56.328 63.7589 53.5491 63.9629 51.0393 64.1197M51.0393 64.1197L50.6698 60.6075" stroke="#1E1E1E" stroke-width="0.6" stroke-linecap="round"/>
</svg>
