<svg width="64" height="129" viewBox="0 0 64 129" fill="none" xmlns="http://www.w3.org/2000/svg">
<path d="M12.8831 43.8201C14.4442 43.8338 18.6899 43.7932 21.5244 43.5213C21.7508 44.2656 22.2036 46.3852 22.2036 48.9093C22.2036 52.0645 21.9123 52.7926 18.8057 53.2294C16.3204 53.5789 14.2725 53.3751 13.7224 53.2294M12.8831 43.8201C13.9883 38.3143 17.7353 22.7621 17.7353 22.2506C17.7353 21.6506 16.8339 19.5506 16.8339 19.5506M12.8831 43.8201C12.6918 44.7726 12.5797 45.4245 12.5797 45.6457C12.5797 45.8801 12.6236 46.1438 12.6978 46.4254M13.7224 53.2294C13.7768 52.4199 14.3797 51.4823 14.3797 50.7457C14.3797 49.9863 13.0983 47.9456 12.6978 46.4254M13.7224 53.2294C13.7103 53.409 13.7252 53.5823 13.7797 53.7457C14.0797 54.6457 14.9809 56.1457 14.9809 56.1457C15.2935 56.2739 16.2462 56.4534 17.5556 56.1457C17.6438 56.1806 17.8496 56.2404 18.1257 56.3145M12.6978 46.4254C13.9577 46.5877 17.8245 46.7859 21.8561 46.2801M31.8268 56.3311L30.4528 57.2198C30.4528 57.2198 28.8151 56.5302 28.1627 56.3311C28.1627 56.3311 26.2891 57.0576 25.7894 57.2198C25.7894 57.2198 23.7909 56.5302 23.541 56.3311L21.8107 57.2198C21.8107 57.2198 19.3158 56.6342 18.1257 56.3145M31.8268 56.3311L33.1541 57.2198C33.1541 57.2198 34.7919 56.5302 35.4442 56.3311C35.4442 56.3311 37.3178 57.0576 37.8175 57.2198C37.8175 57.2198 39.816 56.5302 40.0659 56.3311L41.7962 57.2198C41.7962 57.2198 44.2832 56.636 45.4755 56.3161M31.8268 56.3311L31.8038 3.8999M23.1785 35.3792L25.4285 30.8489M27.6151 31.9149L25.4285 42.6625M28.3434 11.8093C28.0889 14.0954 27.58 19.9262 27.58 24.0633M28.3434 11.8093C28.0488 11.6799 27.7628 11.564 27.58 11.4934M28.3434 11.8093C28.697 11.9646 29.0629 12.1395 29.2769 12.2788M50.7239 43.8201C49.1627 43.8338 44.917 43.7932 42.0825 43.5213C41.8561 44.2656 41.4033 46.3852 41.4033 48.9093C41.4033 52.0645 41.6946 52.7926 44.8012 53.2294C47.2865 53.5789 49.3239 53.2659 49.8741 53.1203M50.7239 43.8201C49.6186 38.3143 45.8716 22.7621 45.8716 22.2506C45.8716 21.6506 46.773 19.5506 46.773 19.5506M50.7239 43.8201C50.9151 44.7726 51.0272 45.4245 51.0272 45.6457C51.0272 45.8801 50.9833 46.1438 50.9091 46.4254M49.8741 53.1203C49.7775 52.3366 49.2272 51.4494 49.2272 50.7457C49.2272 49.9863 50.5086 47.9456 50.9091 46.4254M49.8741 53.1203C49.901 53.3389 49.8926 53.5494 49.8272 53.7457C49.5272 54.6457 48.626 56.1457 48.626 56.1457C48.3134 56.2739 47.3607 56.4534 46.0513 56.1457C45.9625 56.1808 45.7544 56.2412 45.4755 56.3161M50.9091 46.4254C49.6492 46.5877 45.7824 46.7859 41.7508 46.2801M40.4285 35.3792L38.1785 30.8489M35.9918 31.9149L38.1785 42.6625M35.2635 11.8093C35.518 14.0954 36.0269 19.9262 36.0269 24.0633M35.2635 11.8093C35.5581 11.6799 35.8441 11.564 36.0269 11.4934M35.2635 11.8093C34.9099 11.9646 34.544 12.1395 34.33 12.2788M6.39375 60.1768C6.64047 60.0274 7.18325 60.3288 7.38063 60.3288C7.578 60.3288 7.79182 60.6274 7.87406 60.7768C8.12078 60.5528 8.71291 60.1048 9.10766 60.1048C9.60109 60.1048 9.35438 61.0007 10.0945 61.0007C10.8347 61.0007 11.6006 60.3657 12.094 60.5897C13.3546 61.1617 15.2225 60.9128 16.3818 61.5242M57.207 60.1768C56.9603 60.0274 56.4175 60.3288 56.2202 60.3288C56.0228 60.3288 55.809 60.6274 55.7267 60.7768C55.48 60.5528 54.8879 60.1048 54.4931 60.1048C53.9997 60.1048 54.2464 61.0007 53.5063 61.0007C52.7661 61.0007 52.0002 60.3657 51.5067 60.5897C50.2462 61.1617 48.3783 60.9128 47.219 61.5242M18.1257 56.3145L16.014 64.3611C16.014 64.3611 6.89946 63.9001 5.99946 63.6001C5.99946 63.6001 5.68832 62.266 5.09894 59.4C4.50956 56.5339 4.03988 54.339 3.43988 51.939C2.83988 49.539 6.59919 37.7608 6.59919 37.7608L10.574 19.7106C10.574 19.7106 14.4407 14.9556 17.2373 12.9358C18.6277 11.9316 21.1967 10.7307 23.4287 9.77683C23.7837 7.90231 24.5117 3.8999 24.5117 3.8999H31.8038M45.4755 56.3161L47.5867 64.3611C47.5867 64.3611 56.7013 63.9001 57.6013 63.6001C57.6013 63.6001 57.9125 62.266 58.5018 59.4C59.0912 56.5339 59.5609 54.339 60.1609 51.939C60.7609 49.539 57.0016 37.7608 57.0016 37.7608L53.0268 19.7106C53.0268 19.7106 49.1601 14.9556 46.3635 12.9358C44.7509 11.7711 41.5529 10.3418 39.1341 9.34027L38.0664 3.8999H31.8038" stroke="#1E1E1E" stroke-width="0.6" stroke-linecap="round"/>
</svg>
