<svg width="64" height="147" viewBox="0 0 64 147" fill="none" xmlns="http://www.w3.org/2000/svg">
<path d="M21.1388 10.578C23.2974 9.53219 28.0005 8.46631 31.7592 8.46631C35.5178 8.46631 40.1819 9.54529 42.3405 10.5911M21.1388 10.578C20.4886 10.5215 19.8707 10.578 18.4385 11.3873C17.0062 12.1967 15.5855 13.5282 16.7426 15.1549C17.8997 16.7816 18.7648 20.6253 18.8968 21.8999C18.9929 22.8281 19.2308 27.4544 17.183 31.6135C16.5382 38.6798 18.1012 45.1449 18.1012 45.1449C17.5873 47.7216 14.9775 61.0255 14.2672 67.0211C13.5569 73.0167 12.1406 88.5001 12.1406 88.5001C12.1406 88.5001 16.4953 90.9001 31.7953 90.9001C47.0953 90.9001 51.45 88.5001 51.45 88.5001C51.45 88.5001 50.7799 74.683 49.325 67.0211C47.8701 59.3591 46.0049 47.7216 45.491 45.1449C45.491 45.1449 47.0537 38.681 46.4094 31.6154C44.3605 27.4558 44.5985 22.8283 44.6946 21.8999C44.8266 20.6253 45.6917 16.7816 46.8488 15.1549C48.006 13.5282 46.3662 12.2209 45.1672 11.6021C43.9683 10.9833 43.0246 10.5053 42.3405 10.5911M21.1388 10.578C22.4851 10.695 23.5909 11.6349 24.709 12.7925C26.3669 14.5091 29.6548 17.7498 30.2999 18.1986C30.945 18.6474 31.2441 18.75 31.7967 18.75C32.3492 18.75 32.6577 18.6474 33.3028 18.1986C33.9479 17.7498 37.2358 14.5091 38.8937 12.7925C39.9774 11.6705 41.0496 10.753 42.3405 10.5911" stroke="#1E1E1E" stroke-linecap="round" stroke-linejoin="round"/>
</svg>
