<svg width="63" height="147" viewBox="0 0 63 147" fill="none" xmlns="http://www.w3.org/2000/svg">
<path d="M17.7098 26.4316C16.6169 30.376 16.5131 34.5818 16.7271 38.005M45.1011 26.4316C46.1945 30.3775 46.298 34.585 46.0836 38.0089M18.9917 11.8965C22.7917 10.7155 27.9202 10.3154 31.3687 10.3154C34.8235 10.3154 40.0037 10.717 43.8057 11.903M18.9917 11.8965C18.0617 11.7708 16.7271 12.6531 15.2564 13.8738C13.7858 15.0946 12.1106 16.6001 11.4775 17.304C9.88844 19.0709 8.51139 24.1554 7.84296 28.5001C7.17453 32.8449 6.83409 37.678 6.11759 43.5364C5.40108 49.3948 4.81297 60.8529 4.81297 61.7529C4.81297 62.6529 4.61014 63.2163 5.64464 63.5191C6.67913 63.8219 10.314 64.276 11.6512 64.2256C12.9885 64.1751 12.9106 63.6061 13.039 62.636C13.136 61.9029 15.1387 49.5898 16.7271 38.005M18.9917 11.8965C19.9216 12.0222 20.0183 12.4784 20.4518 13.0464C21.5792 14.5233 23.9636 18.6 31.4071 18.6C38.8506 18.6 41.2348 14.5233 42.3622 13.0464C42.7912 12.4844 42.8606 11.9745 43.8057 11.903M43.8057 11.903C44.7508 11.8314 46.8544 13.3492 48.1825 14.535C49.5105 15.7207 50.5346 16.7039 52.2494 19.0618C53.9643 21.4197 54.2988 24.1554 54.9672 28.5001C55.6356 32.8449 55.9761 37.678 56.6926 43.5364C57.4091 49.3948 57.9972 60.8529 57.9972 61.7529C57.9972 62.6529 58.2 63.2163 57.1655 63.5191C56.131 63.8219 52.4962 64.276 51.1589 64.2256C49.8216 64.1751 49.8995 63.6061 49.7712 62.636C49.6742 61.903 47.6719 49.5926 46.0836 38.0089M46.0836 38.0089C45.8244 42.1499 45.1004 45.1448 45.1004 45.1448C45.6143 47.7215 47.7779 61.1316 48.9344 67.021C50.0909 72.9104 51.0594 88.5 51.0594 88.5C51.0594 88.5 46.7047 90.9 31.4047 90.9C16.1047 90.9 11.75 88.5 11.75 88.5C11.75 88.5 12.9839 73.616 13.8766 67.021C14.7692 60.4259 17.1966 47.7215 17.7106 45.1448C17.7106 45.1448 16.986 42.148 16.7271 38.005" stroke="#1E1E1E" stroke-linecap="round" stroke-linejoin="round"/>
</svg>
