<svg width="63" height="147" viewBox="0 0 63 147" fill="none" xmlns="http://www.w3.org/2000/svg">
<path d="M17.5075 26.4316C16.5076 30.04 16.3356 33.8672 16.4774 37.1138M44.8988 26.4316C45.8986 30.0399 46.0707 33.8669 45.9289 37.1135M18.7893 11.8965C22.5893 10.7155 27.7179 10.3154 31.1664 10.3154C34.6212 10.3154 39.8013 10.717 43.6034 11.903M18.7893 11.8965C17.9365 11.5676 15.9279 12.5102 14.2828 13.9924C12.6377 15.4746 10.9159 17.5311 10.3113 18.5459C8.84907 21.0004 8.54401 22.8485 8.03252 25.9471L8.02358 26.0013C7.50666 29.1325 6.93976 32.4485 6.9375 35.0933C6.93634 36.4625 7.79259 36.5926 8.88668 36.8431C9.8491 37.0635 12.8395 37.5126 16.4774 37.1138M18.7893 11.8965C19.3222 12.102 19.816 12.4784 20.2495 13.0464C21.3769 14.5233 23.7613 18.6 31.2048 18.6C38.6483 18.6 41.0325 14.5233 42.1599 13.0464C42.5889 12.4844 43.0769 12.1098 43.6034 11.903M43.6034 11.903C44.4605 11.5662 46.221 12.2265 48.3199 13.9851C50.4189 15.7437 51.5197 17.5751 52.098 18.5459C53.5603 21.0004 53.8654 22.8485 54.3769 25.9471L54.3858 26.0013C54.9027 29.1325 55.4696 32.4485 55.4719 35.0933C55.473 36.4625 54.6168 36.5926 53.5227 36.8431C52.56 37.0635 49.5682 37.5128 45.9289 37.1135M45.9289 37.1135C45.7282 41.7112 44.898 45.1448 44.898 45.1448C45.412 47.7215 47.7326 60.419 48.732 67.021C49.7315 73.6229 50.857 88.5 50.857 88.5C50.857 88.5 46.5023 90.9 31.2023 90.9C15.9023 90.9 11.5477 88.5 11.5477 88.5C11.5477 88.5 12.8669 72.5394 13.6742 67.021C14.4816 61.5026 16.9943 47.7215 17.5082 45.1448C17.5082 45.1448 16.6781 41.7113 16.4774 37.1138" stroke="#1E1E1E" stroke-linecap="round" stroke-linejoin="round"/>
</svg>
