<svg width="63" height="147" viewBox="0 0 63 147" fill="none" xmlns="http://www.w3.org/2000/svg">
<path d="M17.8973 26.4316C16.8044 30.376 16.7006 34.5818 16.9146 38.005M45.2886 26.4316C46.382 30.3775 46.4855 34.585 46.2711 38.0089M16.5649 12.7998C16.7292 13.503 17.047 15.6705 17.0032 17.906M17.0032 17.906C16.6122 17.9016 16.3411 17.899 16.2156 17.899C13.431 17.899 11.1918 17.9943 10.0285 20.1259C8.86532 22.2575 8.45527 25.7389 8.03046 28.5001C7.36203 32.8449 7.02159 37.678 6.30509 43.5364C5.58858 49.3948 5.00047 60.8529 5.00047 61.7529C5.00047 62.6529 4.79764 63.2163 5.83214 63.5191C6.86663 63.8219 10.5015 64.276 11.8387 64.2256C13.176 64.1751 13.0981 63.6061 13.2265 62.636C13.3235 61.9029 15.3262 49.5898 16.9146 38.005M17.0032 17.906C19.3205 17.932 25.8468 18.0202 31.1882 17.9943C36.5299 18.0202 43.0613 17.932 45.3796 17.906M45.818 12.7998C45.6536 13.503 45.3358 15.6705 45.3796 17.906M45.3796 17.906C45.7706 17.9016 46.0418 17.899 46.1672 17.899C48.9518 17.899 51.0447 18.1891 52.2336 19.6282C53.4225 21.0674 53.9131 22.2359 54.3109 23.9596C54.7087 25.6834 54.9099 26.9088 55.1547 28.5001C55.8231 32.8449 56.1636 37.678 56.8801 43.5364C57.5966 49.3948 58.1847 60.8529 58.1847 61.7529C58.1847 62.6529 58.3875 63.2163 57.353 63.5191C56.3185 63.8219 52.6837 64.276 51.3464 64.2256C50.0091 64.1751 50.087 63.6061 49.9587 62.636C49.8617 61.903 47.8594 49.5926 46.2711 38.0089M16.9146 38.005C17.1735 42.148 17.8981 45.1448 17.8981 45.1448C17.3841 47.7215 15.2185 60.4053 14.0641 67.021C12.9096 73.6366 11.9375 88.5 11.9375 88.5C11.9375 88.5 16.2922 90.9 31.5922 90.9C46.8922 90.9 51.2469 88.5 51.2469 88.5C51.2469 88.5 50.161 72.8456 49.1219 67.021C48.0827 61.1964 45.8018 47.7215 45.2879 45.1448C45.2879 45.1448 46.0119 42.1499 46.2711 38.0089" stroke="#1E1E1E" stroke-linecap="round" stroke-linejoin="round"/>
</svg>
