<svg width="63" height="147" viewBox="0 0 63 147" fill="none" xmlns="http://www.w3.org/2000/svg">
<path d="M17.5075 26.4316C16.5076 30.04 16.3356 33.8672 16.4774 37.1138M44.8988 26.4316C45.8986 30.0399 46.0707 33.8669 45.9289 37.1135M16.175 12.7998C16.3394 13.503 16.6572 15.6705 16.6134 17.906M16.6134 17.906C16.2224 17.9016 15.9512 17.899 15.8258 17.899C13.0412 17.899 11.3867 18.228 10.1978 19.6672C9.71725 20.2489 9.10938 21.4901 8.79632 22.5467C8.48326 23.6032 8.34032 24.0824 8.03252 25.9471L8.02358 26.0013C7.50666 29.1325 6.93976 32.4485 6.9375 35.0933C6.93634 36.4625 7.79259 36.5926 8.88668 36.8431C9.8491 37.0635 12.8395 37.5126 16.4774 37.1138M16.6134 17.906C18.9306 17.932 25.4569 18.0202 30.7983 17.9943C36.14 18.0202 42.6715 17.932 44.9898 17.906M45.4281 12.7998C45.2637 13.503 44.9459 15.6705 44.9898 17.906M44.9898 17.906C45.3808 17.9016 45.6519 17.899 45.7773 17.899C48.562 17.899 50.8411 18.217 52.03 19.6562C53.2188 21.0953 53.5227 21.9925 53.8141 23.0735C54.1054 24.1546 54.2225 25.0122 54.3769 25.9471L54.3858 26.0013C54.9027 29.1325 55.4696 32.4485 55.4719 35.0933C55.473 36.4625 54.6168 36.5926 53.5227 36.8431C52.56 37.0635 49.5682 37.5128 45.9289 37.1135M16.4774 37.1138C16.6781 41.7113 17.5082 45.1448 17.5082 45.1448C16.9943 47.7215 14.2195 62.5973 13.2185 70.2C12.2174 77.8027 11.5477 88.5 11.5477 88.5C11.5477 88.5 15.9023 90.9 31.2023 90.9C46.5023 90.9 50.857 88.5 50.857 88.5C50.857 88.5 49.6255 72.696 48.732 67.021C47.8386 61.3459 45.412 47.7215 44.898 45.1448C44.898 45.1448 45.7282 41.7112 45.9289 37.1135" stroke="#1E1E1E" stroke-linecap="round" stroke-linejoin="round"/>
</svg>
