<svg width="64" height="147" viewBox="0 0 64 147" fill="none" xmlns="http://www.w3.org/2000/svg">
<path d="M18.1012 26.4317C17.1014 30.0401 16.9293 33.8673 17.0711 37.1139M45.4925 26.4317C46.4923 30.04 46.6644 33.867 46.5227 37.1136M41.0026 9.89828C38.8412 8.88092 35.4724 8.46631 31.7609 8.46631C28.0582 8.46631 24.7339 8.87897 22.5721 9.89108M41.0026 9.89828C41.7801 9.64135 43.5769 10.082 46.5227 11.9301C49.4684 13.7782 51.8739 17.1732 52.6918 18.546C54.1541 21.0005 54.4591 22.8486 54.9706 25.9472L54.9795 26.0013C55.4965 29.1326 56.0634 32.4486 56.0656 35.0934C56.0668 36.4626 55.2105 36.5927 54.1164 36.8432C53.1538 37.0636 50.162 37.5129 46.5227 37.1136M41.0026 9.89828C40.4016 10.0969 39.8464 10.5399 39.3375 11.2869C38.1701 13.0002 35.6979 15.3 31.7968 15.3C27.8957 15.3 25.4268 13.0002 24.2594 11.2869C23.7442 10.5308 23.1816 10.0861 22.5721 9.89108M22.5721 9.89108C21.8006 9.64427 19.4525 10.6556 16.6485 12.6311C13.8445 14.6067 11.7495 17.1286 10.9051 18.546C9.44282 21.0005 9.13776 22.8486 8.62627 25.9472L8.61733 26.0013C8.10041 29.1326 7.53351 32.4486 7.53125 35.0934C7.53009 36.4626 8.38634 36.5927 9.48043 36.8432C10.4428 37.0636 13.4332 37.5127 17.0711 37.1139M46.5227 37.1136C46.3219 41.7113 45.4918 45.1449 45.4918 45.1449C46.0057 47.7216 48.3784 61.1306 49.3258 67.0211C50.2732 72.9116 51.4508 88.5001 51.4508 88.5001C51.4508 88.5001 47.0961 90.9001 31.7961 90.9001C16.4961 90.9001 12.1414 88.5001 12.1414 88.5001C12.1414 88.5001 13.2053 74.5849 14.268 67.0211C15.3307 59.4573 17.588 47.7216 18.102 45.1449C18.102 45.1449 17.2719 41.7114 17.0711 37.1139" stroke="#1E1E1E" stroke-linecap="round" stroke-linejoin="round"/>
</svg>
