<svg width="63" height="147" viewBox="0 0 63 147" fill="none" xmlns="http://www.w3.org/2000/svg">
<path d="M18.9917 11.8965C22.7917 10.7155 27.9202 10.3154 31.3687 10.3154C34.8235 10.3154 40.0037 10.717 43.8057 11.903M18.9917 11.8965C18.1388 11.5676 17.4911 11.644 16.7674 12.2187C16.0436 12.7935 15.1948 13.5281 16.352 15.1548C17.5091 16.7815 18.3742 20.6252 18.5062 21.8998C18.6023 22.828 18.8402 27.4543 16.7923 31.6134C16.1475 38.6797 17.7106 45.1448 17.7106 45.1448C17.1966 47.7215 14.7242 61.8918 13.8766 67.021C13.0289 72.1502 11.75 88.5 11.75 88.5C11.75 88.5 16.1047 90.9 31.4047 90.9C46.7047 90.9 51.0594 88.5 51.0594 88.5C51.0594 88.5 49.9006 72.7671 48.9344 67.021C47.9682 61.2749 45.6143 47.7215 45.1004 45.1448C45.1004 45.1448 46.6631 38.6809 46.0188 31.6153C43.9699 27.4557 44.2079 22.8282 44.304 21.8998C44.436 20.6252 45.301 16.7815 46.4582 15.1548C47.6153 13.5281 46.6085 12.5011 45.9944 12.2054C45.3802 11.9097 44.6628 11.5662 43.8057 11.903M18.9917 11.8965C19.5245 12.102 20.0183 12.4784 20.4518 13.0464C21.5792 14.5233 23.9636 18.6 31.4071 18.6C38.8506 18.6 41.2348 14.5233 42.3622 13.0464C42.7912 12.4844 43.2792 12.1098 43.8057 11.903" stroke="#1E1E1E" stroke-linecap="round" stroke-linejoin="round"/>
</svg>
