<svg width="63" height="147" viewBox="0 0 63 147" fill="none" xmlns="http://www.w3.org/2000/svg">
<path d="M43.6007 11.9026C39.7934 10.7169 34.62 10.3154 31.1656 10.3154C27.7183 10.3154 22.592 10.7152 18.7924 11.8953M43.6007 11.9026C44.2758 11.5627 44.9465 11.6044 45.6008 11.9998C46.2551 12.3952 47.4122 13.5281 46.2551 15.1548C45.0979 16.7815 44.2329 20.6252 44.1009 21.8998C44.0048 22.8282 43.7668 27.4557 45.8157 31.6153C46.46 38.6809 44.8973 45.1448 44.8973 45.1448C45.4112 47.7215 47.7608 61.0904 48.7313 67.021C49.7017 72.9515 50.8563 88.5 50.8563 88.5C50.8563 88.5 46.5016 90.9 31.2016 90.9C15.9016 90.9 11.5469 88.5 11.5469 88.5C11.5469 88.5 12.654 73.4262 13.6734 67.021C14.6929 60.6158 16.9935 47.7215 17.5074 45.1448C17.5074 45.1448 15.9444 38.6797 16.5892 31.6134C18.637 27.4543 18.3991 22.828 18.303 21.8998C18.1711 20.6252 17.306 16.7815 16.1488 15.1548C14.9917 13.5281 16.0263 12.5968 16.795 12.1301C17.5637 11.6634 18.1212 11.565 18.7924 11.8953M43.6007 11.9026C43.1169 12.1462 42.6724 12.6462 42.5719 13.645C42.3134 14.8305 42.0291 15.6814 41.8197 16.2001C41.335 17.4001 40.5043 18.0001 39.3043 18.0001C38.1043 18.0001 35.4035 17.4001 31.2035 17.4001C27.0035 17.4001 24.3035 18.0001 23.1035 18.0001C21.9035 18.0001 21.0728 17.4001 20.5882 16.2001C20.3787 15.6814 20.0944 14.8305 19.836 13.645C19.7344 12.636 19.2819 12.1361 18.7924 11.8953" stroke="#1E1E1E" stroke-linecap="round" stroke-linejoin="round"/>
</svg>
