<svg width="63" height="147" viewBox="0 0 63 147" fill="none" xmlns="http://www.w3.org/2000/svg">
<path d="M17.3043 26.4317C16.3138 30.0067 16.1583 33.8847 16.293 37.1119M44.6957 26.4317C45.6736 29.9611 45.8596 33.6998 45.7346 36.8999C45.7318 36.9714 45.7289 37.0426 45.7258 37.1136M20.3427 10.578C22.5013 9.53219 27.2044 8.46631 30.9631 8.46631C34.7217 8.46631 39.3858 9.54529 41.5444 10.5911M20.3427 10.578C19.6925 10.5215 17.8004 11.3936 15.8457 12.7925C13.8911 14.1913 10.89 17.2338 10.1082 18.546C8.64595 21.0005 8.34089 22.8486 7.8294 25.9472L7.82045 26.0013C7.30353 29.1326 6.73663 32.4486 6.73438 35.0934C6.73321 36.4626 7.58946 36.5927 8.68356 36.8432C9.64762 37.064 12.6466 37.5142 16.293 37.1119M20.3427 10.578C21.689 10.695 22.7949 11.6349 23.9129 12.7925C25.5708 14.5091 28.8587 17.7498 29.5038 18.1986C30.1489 18.6474 30.448 18.75 31.0006 18.75C31.5531 18.75 31.8616 18.6474 32.5067 18.1986C33.1518 17.7498 36.4397 14.5091 38.0976 12.7925C39.1813 11.6705 40.2535 10.753 41.5444 10.5911M41.5444 10.5911C42.2285 10.5053 43.651 11.2089 45.7346 12.522C47.8182 13.835 51.1487 17.2935 51.8949 18.546C53.3572 21.0005 53.6622 22.8486 54.1737 25.9472L54.1827 26.0013C54.6996 29.1326 55.2665 32.4486 55.2688 35.0934C55.2699 36.4626 54.4137 36.5927 53.3196 36.8432C52.3569 37.0636 49.3651 37.5129 45.7258 37.1136M16.293 37.1119C16.4867 41.7547 17.3051 45.1449 17.3051 45.1449C16.7912 47.7216 14.4408 60.5341 13.4711 67.0211C12.5013 73.5081 11.3445 88.5001 11.3445 88.5001C11.3445 88.5001 15.6992 90.9001 30.9992 90.9001C46.2992 90.9001 50.6539 88.5001 50.6539 88.5001C50.6539 88.5001 49.4988 72.4838 48.5289 67.0211C47.559 61.5584 45.2088 47.7216 44.6949 45.1449C44.6949 45.1449 45.525 41.7113 45.7258 37.1136" stroke="#1E1E1E" stroke-linecap="round" stroke-linejoin="round"/>
</svg>
