<svg width="64" height="147" viewBox="0 0 64 147" fill="none" xmlns="http://www.w3.org/2000/svg">
<path d="M18.1004 26.4317C17.0075 30.3761 16.9037 34.5819 17.1177 38.0051M45.4918 26.4317C46.5851 30.3776 46.6886 34.5851 46.4743 38.009M21.1388 10.578C23.2974 9.53219 28.0005 8.46631 31.7592 8.46631C35.5178 8.46631 40.1819 9.54529 42.3405 10.5911M21.1388 10.578C19.8067 10.6992 19.0369 11.3038 17.0499 12.7925C15.063 14.2812 12.7103 16.3677 11.8682 17.3041C10.2791 19.071 8.90201 24.1554 8.23358 28.5002C7.56515 32.845 7.22471 37.6781 6.50821 43.5365C5.79171 49.3949 5.20359 60.853 5.20359 61.753C5.20359 62.653 5.00076 63.2164 6.03526 63.5192C7.06976 63.822 10.7046 64.2761 12.0419 64.2257C13.3791 64.1752 13.3012 63.6062 13.4296 62.6361C13.5266 61.903 15.5293 49.5899 17.1177 38.0051M21.1388 10.578C22.4708 10.4568 23.5909 11.6349 24.709 12.7925C26.3669 14.5091 29.6548 17.7498 30.2999 18.1986C30.945 18.6474 31.2441 18.75 31.7967 18.75C32.3492 18.75 32.6577 18.6474 33.3028 18.1986C33.9479 17.7498 37.2358 14.5091 38.8937 12.7925C39.9774 11.6705 41.0496 10.753 42.3405 10.5911M42.3405 10.5911C43.0246 10.5053 44.722 10.68 47.3318 12.7925C49.9416 14.9049 51.6815 17.1341 52.8233 19.2002C53.9651 21.2663 54.6894 24.1554 55.3578 28.5002C56.0263 32.845 56.3667 37.6781 57.0832 43.5365C57.7997 49.3949 58.3878 60.853 58.3878 61.753C58.3878 62.653 58.5906 63.2164 57.5561 63.5192C56.5216 63.822 52.8868 64.2761 51.5495 64.2257C50.2123 64.1752 50.2902 63.6062 50.1618 62.6361C50.0648 61.9031 48.0625 49.5927 46.4743 38.009M46.4743 38.009C46.2151 42.15 45.491 45.1449 45.491 45.1449C46.0049 47.7216 48.449 61.753 49.325 67.0211C50.201 72.2892 51.45 88.5001 51.45 88.5001C51.45 88.5001 47.0953 90.9001 31.7953 90.9001C16.4953 90.9001 12.1406 88.5001 12.1406 88.5001C12.1406 88.5001 13.1082 74.8682 14.2672 67.0211C15.4262 59.1739 17.5873 47.7216 18.1012 45.1449C18.1012 45.1449 17.3767 42.1481 17.1177 38.0051" stroke="#1E1E1E" stroke-linecap="round" stroke-linejoin="round"/>
</svg>
