<svg width="63" height="147" viewBox="0 0 63 147" fill="none" xmlns="http://www.w3.org/2000/svg">
<path d="M16.3774 12.7998C16.5417 13.503 16.8595 15.6705 16.8157 17.906M16.8157 17.906C19.5936 17.9388 26.1684 18.0177 31.0007 17.9943C36.3424 18.0202 42.9065 17.9316 45.2248 17.9056M16.8157 17.906C17.3185 19.4721 17.9791 20.8846 18.2635 22.6724C18.548 24.4601 18.8402 27.4543 16.7923 31.6134C16.1475 38.6797 17.7106 45.1448 17.7106 45.1448C17.1966 47.7215 14.8879 60.1461 13.8766 67.021C12.8652 73.8959 11.75 88.5 11.75 88.5C11.75 88.5 16.1047 90.9 31.4047 90.9C46.7047 90.9 51.0594 88.5 51.0594 88.5C51.0594 88.5 49.9745 73.8186 48.9344 67.021C47.8942 60.2234 45.6143 47.7215 45.1004 45.1448C45.1004 45.1448 46.6631 38.6809 46.0188 31.6153C43.9699 27.4557 44.2079 22.8282 44.304 21.8998C44.3825 21.1416 44.7204 19.4745 45.2248 17.9056M16.8157 17.906C27.9102 17.9058 45.2248 17.9056 45.2248 17.9056M45.6305 12.7998C45.4661 13.503 45.181 15.6701 45.2248 17.9056" stroke="#1E1E1E" stroke-linecap="round" stroke-linejoin="round"/>
</svg>
