<svg width="63" height="147" viewBox="0 0 63 147" fill="none" xmlns="http://www.w3.org/2000/svg">
<path d="M40.205 9.89828C38.0436 8.88092 34.6748 8.46631 30.9633 8.46631C27.2605 8.46631 23.9362 8.87897 21.7745 9.89108M40.205 9.89828C40.9824 9.64135 41.8472 9.85303 42.7664 10.226C43.6857 10.5989 45.0278 11.6677 45.3976 11.9999C46.4733 12.966 47.2091 13.5282 46.0519 15.1549C44.8948 16.7816 44.0297 20.6253 43.8978 21.8999C43.8016 22.8283 43.5637 27.4558 45.6125 31.6154C46.2569 38.681 44.6941 45.1449 44.6941 45.1449C45.2081 47.7216 47.7421 61.4711 48.5281 67.0211C49.3142 72.571 50.6531 88.5001 50.6531 88.5001C50.6531 88.5001 46.2984 90.9001 30.9984 90.9001C15.6984 90.9001 11.3438 88.5001 11.3438 88.5001C11.3438 88.5001 12.5165 72.513 13.4703 67.0211C14.4241 61.5292 16.7904 47.7216 17.3043 45.1449C17.3043 45.1449 15.7413 38.6798 16.3861 31.6135C18.4339 27.4544 18.196 22.8281 18.0999 21.8999C17.9679 20.6253 17.1029 16.7816 15.9457 15.1549C14.7886 13.5282 15.5243 12.966 16.6 11.9999C16.9699 11.6677 18.4174 10.6896 19.2352 10.226C20.0529 9.76235 21.0029 9.64427 21.7745 9.89108M40.205 9.89828C39.604 10.0969 39.0488 10.5399 38.5398 11.2869C37.3724 13.0002 34.9002 15.3 30.9991 15.3C27.098 15.3 24.6291 13.0002 23.4617 11.2869C22.9465 10.5308 22.384 10.0861 21.7745 9.89108" stroke="#1E1E1E" stroke-linecap="round" stroke-linejoin="round"/>
</svg>
