<svg width="63" height="147" viewBox="0 0 63 147" fill="none" xmlns="http://www.w3.org/2000/svg">
<path d="M31.001 18.7501C31.001 18.7501 29.52 21.231 28.3106 22.1655C27.1011 23.1001 25.7718 22.1593 23.8011 19.8001C22.306 18.0102 21.1358 16.7633 19.5802 14.6461C19.0855 13.9727 17.9926 12.677 17.4604 11.7429C17.4058 11.6471 17.3572 11.5486 17.3181 11.4483M31.001 18.7501C31.001 18.7501 28.8814 16.5499 26.9209 14.5172C25.529 13.074 22.8646 10.1253 22.4485 9.69845C22.4271 9.67644 22.4057 9.65457 22.3844 9.63286M31.001 18.7501C31.001 18.7501 32.482 21.231 33.6915 22.1656C34.9009 23.1001 36.2302 22.1593 38.2009 19.8001C39.6961 18.0102 40.8662 16.7633 42.4218 14.6461C42.9166 13.9727 44.0094 12.677 44.5416 11.7429C44.5958 11.6479 44.6441 11.5502 44.683 11.4507M31.001 18.7501C31.001 18.7501 33.1206 16.5499 35.0811 14.5172C36.4731 13.074 39.1375 10.1253 39.5535 9.69846C39.5715 9.67998 39.5895 9.66161 39.6073 9.64334M22.3844 9.63286C24.5364 8.8082 27.5932 8.46631 30.9635 8.46631C34.3481 8.46631 37.454 8.8111 39.6073 9.64334M22.3844 9.63286C21.6138 8.84604 20.9607 8.26604 19.9555 8.7045C18.9226 9.15505 18.3378 9.53098 17.6889 10.0678C17.1576 10.5073 17.1413 10.9956 17.3181 11.4483M39.6073 9.64334C40.3825 8.85121 41.0368 8.26411 42.0465 8.70451C43.0795 9.15506 43.6642 9.53099 44.3132 10.0678C44.8454 10.508 44.8608 10.9974 44.683 11.4507M17.3181 11.4483C17.0064 11.6652 16.7624 11.8541 16.6 11.9999C15.5243 12.966 14.7886 13.5282 15.9457 15.1549C17.1029 16.7816 17.9679 20.6253 18.0999 21.8999C18.1951 22.8198 18.4296 27.3713 16.4409 31.5009C16.4228 31.5385 16.4045 31.576 16.3861 31.6135C15.7413 38.6798 17.3043 45.1449 17.3043 45.1449C16.7904 47.7216 14.6727 58.7767 13.4703 67.0211C12.268 75.2655 11.3438 88.5001 11.3438 88.5001C11.3438 88.5001 15.6984 90.9001 30.9984 90.9001C46.2984 90.9001 50.6531 88.5001 50.6531 88.5001C50.6531 88.5001 49.8933 75.0356 48.5281 67.0211C47.1629 59.0066 45.2081 47.7216 44.6941 45.1449C44.6941 45.1449 46.2569 38.681 45.6125 31.6154C43.5637 27.4558 43.8016 22.8283 43.8978 21.8999C44.0297 20.6253 44.8948 16.7816 46.0519 15.1549C47.2091 13.5282 46.4733 12.966 45.3976 11.9999C45.2359 11.8546 44.9931 11.6666 44.683 11.4507" stroke="#1E1E1E" stroke-linecap="round" stroke-linejoin="round"/>
</svg>
