<svg width="63" height="84" viewBox="0 0 63 84" fill="none" xmlns="http://www.w3.org/2000/svg">
<path d="M14.5018 27.0001C14.4794 29.2403 14.5934 32.7112 14.625 36.6378M47.5013 27.0001C47.5237 29.2403 47.4098 32.7112 47.3781 36.6377M30.0609 71.3681C33.9936 71.9942 44.2013 72.2192 45.7013 72.1096C47.2013 72.0001 48.2917 71.1001 48.3465 69.6001C48.4013 68.1001 47.9471 66.4376 47.5013 65.1001C47.9916 61.6981 49.3016 60.9001 48.1014 52.2001C47.4301 47.3348 47.3379 41.6196 47.3781 36.6377M30.0609 71.3681C23.8124 72.1227 17.287 72.2347 16.3019 72.1096C14.8019 71.9192 13.9019 71.4001 13.6761 70.0702C13.4503 68.7403 14.022 66.5395 14.5018 65.1001C14.0115 61.6981 12.7015 60.9001 13.9018 52.2001C14.573 47.3348 14.6652 41.6196 14.625 36.6378M30.0609 71.3681C33.3271 70.9737 36.5177 70.4036 38.8017 69.6001M31.0016 63.6001C34.5352 63.3751 42.4016 61.5001 42.4016 59.4001C42.4016 58.5001 40.6016 58.2001 38.8016 58.5001M31.001 18.7501C31.001 18.7501 29.52 21.231 28.3106 22.1655C27.1011 23.1001 25.7718 22.1593 23.8011 19.8001C22.306 18.0102 21.1358 16.7633 19.5802 14.6461C19.1233 14.0243 18.1564 12.8717 17.592 11.9633M31.001 18.7501C31.001 18.7501 28.8814 16.5499 26.9209 14.5172C25.529 13.074 22.8646 10.1253 22.4485 9.69845C22.4271 9.67644 22.4057 9.65457 22.3844 9.63286M31.001 18.7501C31.001 18.7501 32.482 21.231 33.6915 22.1656C34.9009 23.1001 36.2302 22.1593 38.2009 19.8001C39.6961 18.0102 40.8662 16.7633 42.4218 14.6461C42.8785 14.0245 43.8449 12.8726 44.4094 11.9644M31.001 18.7501C31.001 18.7501 33.1206 16.5499 35.0811 14.5172C36.4731 13.074 39.1375 10.1253 39.5535 9.69846C39.5715 9.67998 39.5895 9.66161 39.6073 9.64334M22.3844 9.63286C24.5364 8.8082 27.5932 8.46631 30.9635 8.46631C34.3481 8.46631 37.454 8.8111 39.6073 9.64334M22.3844 9.63286C21.6138 8.84604 20.9607 8.26604 19.9555 8.7045C18.9226 9.15505 18.3378 9.53098 17.6889 10.0678C17.0399 10.6046 17.1593 11.2144 17.4604 11.7429C17.5012 11.8144 17.5452 11.8881 17.592 11.9633M39.6073 9.64334C40.3825 8.85121 41.0368 8.26411 42.0465 8.70451C43.0795 9.15506 43.6642 9.53099 44.3132 10.0678C44.9621 10.6046 44.8428 11.2144 44.5416 11.7429C44.5007 11.8148 44.4564 11.8887 44.4094 11.9644M14.625 36.6378C11.6613 36.5839 8.43414 36.8843 7.48469 36.8434C6.16763 36.7868 5.50152 36.0001 5.54927 34.8001C5.59703 33.6001 6.10176 32.4001 6.70153 31.5001C6.70153 29.4001 7.17047 27.0944 7.90153 24.9001C9.01752 21.5504 10.4604 19.0048 12.7015 16.5001C14.4142 14.5859 16.0255 13.1115 17.592 11.9633M47.3781 36.6377C50.3409 36.5841 53.5662 36.8843 54.5153 36.8434C55.8324 36.7868 56.4985 36.0001 56.4507 34.8001C56.403 33.6001 55.8982 32.4001 55.2985 31.5001C55.2985 29.4001 54.8295 27.0944 54.0985 24.9001C52.9825 21.5504 51.5396 19.0048 49.2985 16.5001C47.5863 14.5865 45.9755 13.1124 44.4094 11.9644" stroke="#1E1E1E" stroke-width="0.6" stroke-linecap="round"/>
</svg>
