<svg width="63" height="84" viewBox="0 0 63 84" fill="none" xmlns="http://www.w3.org/2000/svg">
<path d="M14.5081 27.0001C14.4572 32.0825 15.1083 43.5001 13.908 52.2001C12.9171 59.3825 13.6371 61.1793 14.1944 63.5017M47.5075 27.0001C47.5584 32.0825 46.9074 43.5001 48.1076 52.2001C49.0993 59.3885 48.3773 61.1823 47.8199 63.5076M30.0671 71.3681C33.9999 71.9942 44.2075 72.2192 45.7075 72.1096C47.2075 72.0001 48.298 71.1001 48.3528 69.6001C48.4075 68.1001 47.9534 66.4376 47.5075 65.1001C47.5927 64.509 47.7027 63.9966 47.8199 63.5076M30.0671 71.3681C23.8186 72.1227 17.2932 72.2347 16.3082 72.1096C14.8082 71.9192 13.9081 71.4001 13.6823 70.0702C13.4565 68.7403 14.0283 66.5395 14.5081 65.1001C14.4226 64.5067 14.3121 63.9925 14.1944 63.5017M30.0671 71.3681C33.3334 70.9737 36.524 70.4036 38.808 69.6001M31.0078 63.6001C34.5415 63.3751 42.4078 61.5001 42.4078 59.4001C42.4078 58.5001 40.6078 58.2001 38.8078 58.5001M31.0073 18.7501C31.0073 18.7501 29.5263 21.231 28.3168 22.1655C27.1074 23.1001 25.7781 22.1593 23.8074 19.8001C22.3122 18.0102 21.1421 16.7633 19.5865 14.6461C19.0999 13.9838 18.0348 12.7196 17.4935 11.7895M31.0073 18.7501C31.0073 18.7501 28.8877 16.5499 26.9272 14.5172C25.5352 13.074 22.8708 10.1253 22.4548 9.69845C22.4333 9.67644 22.412 9.65457 22.3907 9.63286M31.0073 18.7501C31.0073 18.7501 32.4883 21.231 33.6977 22.1656C34.9072 23.1001 36.2365 22.1593 38.2072 19.8001C39.7023 18.0102 40.8725 16.7633 42.4281 14.6461C42.9143 13.9844 43.9781 12.7216 44.5197 11.7917M31.0073 18.7501C31.0073 18.7501 33.1269 16.5499 35.0874 14.5172C36.4793 13.074 39.1437 10.1253 39.5598 9.69846C39.5778 9.67998 39.5957 9.66161 39.6136 9.64334M22.3907 9.63286C24.5426 8.8082 27.5994 8.46631 30.9698 8.46631C34.3544 8.46631 37.4602 8.8111 39.6136 9.64334M22.3907 9.63286C21.62 8.84604 20.967 8.26604 19.9618 8.7045C18.9288 9.15505 18.3441 9.53098 17.6951 10.0678C17.0462 10.6046 17.1655 11.2144 17.4667 11.7429C17.4755 11.7584 17.4844 11.7739 17.4935 11.7895M39.6136 9.64334C40.3887 8.85121 41.0431 8.26411 42.0528 8.70451C43.0857 9.15506 43.6705 9.53099 44.3194 10.0678C44.9684 10.6046 44.849 11.2144 44.5479 11.7429C44.5386 11.7591 44.5293 11.7754 44.5197 11.7917M47.8199 63.5076C48.0463 63.834 48.4182 64.0531 49.0063 64.2001C50.2063 64.5001 55.9063 64.2001 56.8063 63.9001C57.7063 63.6001 58.3063 63.0001 58.3063 62.1001C58.3063 61.2001 58.1442 60.1872 57.7061 59.4C58.0318 58.2057 58.3061 54.3 58.0061 50.7C57.7061 47.1 57.3785 43.8042 56.8061 41.4C55.3061 35.1 55.9061 32.4001 54.1061 25.5001C53.1773 21.9398 50.5061 17.1001 46.6061 13.5001C45.9101 12.8576 45.2141 12.2916 44.5197 11.7917M14.1944 63.5017C13.9684 63.8314 13.5955 64.0522 13.0039 64.2001C11.8039 64.5001 6.10392 64.2001 5.20392 63.9001C4.30392 63.6001 4.00406 63.0001 4.00406 62.1001C4.00406 61.2001 3.866 60.1872 4.30407 59.4C3.97836 58.2057 3.70407 54.3 4.00407 50.7C4.30407 47.1 4.63162 43.8042 5.20407 41.4C6.70407 35.1 6.10407 32.4001 7.90407 25.5001C8.83283 21.9398 11.5041 17.1001 15.4041 13.5001C16.1011 12.8567 16.7982 12.2899 17.4935 11.7895" stroke="#1E1E1E" stroke-width="0.6" stroke-linecap="round"/>
</svg>
