<svg width="63" height="84" viewBox="0 0 63 84" fill="none" xmlns="http://www.w3.org/2000/svg">
<path d="M16.1039 27.0001C16.0531 32.0825 15.6005 39.4265 14.9037 42.6001C13.7037 48.065 14.4134 52.0981 14.9038 55.5001C14.436 56.9034 14.0039 58.8001 14.069 60.3001C14.1028 61.0778 14.4066 61.5919 14.9005 61.9331M46.7068 27.0001C46.7577 32.0825 46.6099 39.4265 47.3068 42.6001C48.5068 48.065 47.797 52.0981 47.3067 55.5001C47.7956 56.9666 48.3418 59.4001 48.1243 60.6001C48.0869 60.8066 48.0293 60.9953 47.9549 61.1666M33.5451 61.334C36.4077 62.1691 45.2068 62.5534 46.1068 62.4767C46.852 62.4133 47.5971 61.9911 47.9549 61.1666M33.5451 61.334C26.5501 62.4786 17.8536 62.6556 16.7039 62.5096C15.9816 62.4179 15.3591 62.25 14.9005 61.9331M33.5451 61.334C35.6765 60.9853 37.6498 60.5467 39.2036 60.0001M31.4062 54.0001C34.9399 53.7751 42.8063 51.9001 42.8063 49.8001C42.8063 48.9001 41.0063 48.6001 39.2063 48.9001M31.4057 18.7501C31.4057 18.7501 29.9247 21.231 28.7153 22.1655C27.5058 23.1001 26.1765 22.1593 24.2058 19.8001C22.7107 18.0102 21.5405 16.7633 19.9849 14.6461C19.4983 13.9838 18.4332 12.7196 17.892 11.7895M31.4057 18.7501C31.4057 18.7501 29.2861 16.5499 27.3256 14.5172C25.9336 13.074 23.2692 10.1253 22.8532 9.69845C22.8317 9.67644 22.8104 9.65457 22.7891 9.63286M31.4057 18.7501C31.4057 18.7501 32.8867 21.231 34.0962 22.1656C35.3056 23.1001 36.6349 22.1593 38.6056 19.8001C40.1007 18.0102 41.2709 16.7633 42.8265 14.6461C43.3127 13.9844 44.3765 12.7216 44.9182 11.7917M31.4057 18.7501C31.4057 18.7501 33.5253 16.5499 35.4858 14.5172C36.8778 13.074 39.5422 10.1253 39.9582 9.69846C39.9762 9.67998 39.9942 9.66161 40.012 9.64334M22.7891 9.63286C24.9411 8.8082 27.9979 8.46631 31.3682 8.46631C34.7528 8.46631 37.8587 8.8111 40.012 9.64334M22.7891 9.63286C22.0185 8.84604 21.3654 8.26604 20.3602 8.7045C19.3272 9.15505 18.7425 9.53098 18.0936 10.0678C17.4446 10.6046 17.564 11.2144 17.8651 11.7429C17.8739 11.7584 17.8829 11.7739 17.892 11.7895M40.012 9.64334C40.7872 8.85121 41.4415 8.26411 42.4512 8.70451C43.4842 9.15506 44.0689 9.53099 44.7179 10.0678C45.3668 10.6046 45.2474 11.2144 44.9463 11.7429C44.9371 11.7591 44.9277 11.7754 44.9182 11.7917M14.9005 61.9331C14.9017 61.9894 14.9023 62.045 14.9023 62.1001C14.9023 63.3001 14.6024 63.9001 13.4023 64.2001C12.2023 64.5001 6.50236 64.2001 5.60236 63.9001C4.70236 63.6001 4.40249 63.0001 4.40249 62.1001C4.40249 61.2001 4.26444 60.1872 4.70251 59.4C4.3768 58.2057 4.10251 54.3 4.40251 50.7C4.70251 47.1 5.03006 43.8042 5.60251 41.4C7.10251 35.1 6.50251 32.4001 8.30251 25.5001C9.23127 21.9398 11.9025 17.1001 15.8025 13.5001C16.4996 12.8567 17.1966 12.2899 17.892 11.7895M47.9549 61.1666C47.9229 61.49 47.9047 61.8042 47.9047 62.1001C47.9047 63.3001 48.2047 63.9001 49.4047 64.2001C50.6047 64.5001 56.3047 64.2001 57.2047 63.9001C58.1047 63.6001 58.7047 63.0001 58.7047 62.1001C58.7047 61.2001 58.5426 60.1872 58.1045 59.4C58.4302 58.2057 58.7045 54.3 58.4045 50.7C58.1045 47.1 57.777 43.8042 57.2045 41.4C55.7045 35.1 56.3045 32.4001 54.5045 25.5001C53.5758 21.9398 50.9045 17.1001 47.0045 13.5001C46.3085 12.8576 45.6125 12.2916 44.9182 11.7917" stroke="#1E1E1E" stroke-width="0.6" stroke-linecap="round"/>
</svg>
