<svg width="64" height="84" viewBox="0 0 64 84" fill="none" xmlns="http://www.w3.org/2000/svg">
<path d="M17.5022 27.0317C15.652 37.3389 17.0048 41.1194 17.5024 42.4728C16.3312 45.8051 16.5661 47.7647 17.4435 48.935M46.0915 27.0317C47.9417 37.3389 46.5889 41.1194 46.0913 42.4728C47.2646 45.811 47.0267 47.7716 46.1455 48.9412M31.7289 50.2803C36.7047 50.9908 41.3701 50.8733 43.1107 50.5449C44.2726 50.3257 45.4245 49.8982 46.1455 48.9412M31.7289 50.2803C26.7745 50.9821 22.2172 50.8721 20.483 50.5449C19.3186 50.3252 18.1643 49.8964 17.4435 48.935M31.7289 50.2803C34.1505 49.9373 36.6668 49.4004 38.9948 48.6002M31.7968 43.0126C35.3305 42.7876 43.1968 40.9126 43.1968 38.8126C43.1968 37.9126 41.3968 37.6126 39.5968 37.9126M31.7963 18.7501C31.7963 18.7501 30.3153 21.231 29.1059 22.1655C27.8965 23.1001 26.5671 22.1593 24.5964 19.8001C23.1013 18.0102 21.9311 16.7633 20.3755 14.6461C19.889 13.9838 18.8239 12.7196 18.2826 11.7895M31.7963 18.7501C31.7963 18.7501 29.6768 16.5499 27.7162 14.5172C26.3243 13.074 23.6599 10.1253 23.2438 9.69845C23.2224 9.67644 23.201 9.65457 23.1798 9.63286M31.7963 18.7501C31.7963 18.7501 33.2773 21.231 34.4868 22.1656C35.6962 23.1001 37.0255 22.1593 38.9962 19.8001C40.4914 18.0102 41.6615 16.7633 43.2171 14.6461C43.7033 13.9844 44.7671 12.7216 45.3088 11.7917M31.7963 18.7501C31.7963 18.7501 33.9159 16.5499 35.8764 14.5172C37.2684 13.074 39.9328 10.1253 40.3488 9.69846C40.3669 9.67998 40.3848 9.66161 40.4027 9.64334M23.1798 9.63286C25.3317 8.8082 28.3885 8.46631 31.7588 8.46631C35.1434 8.46631 38.2493 8.8111 40.4027 9.64334M23.1798 9.63286C22.4091 8.84604 21.7561 8.26604 20.7508 8.7045C19.7179 9.15505 19.1331 9.53098 18.4842 10.0678C17.8352 10.6046 17.9546 11.2144 18.2558 11.7429C18.2645 11.7584 18.2735 11.7739 18.2826 11.7895M40.4027 9.64334C41.1778 8.85121 41.8322 8.26411 42.8418 8.70451C43.8748 9.15506 44.4595 9.53099 45.1085 10.0678C45.7574 10.6046 45.6381 11.2144 45.3369 11.7429C45.3277 11.7591 45.3183 11.7754 45.3088 11.7917M46.1455 48.9412C46.5673 52.4107 47.2949 55.533 48.8952 58.2001C48.5953 59.4 48.2953 60.9001 48.2953 62.1001C48.2953 63.3001 48.5953 63.9001 49.7953 64.2001C50.9953 64.5001 56.6953 64.2001 57.5953 63.9001C58.4953 63.6001 59.0953 63.0001 59.0953 62.1001C59.0953 61.2001 58.9332 60.1872 58.4952 59.4C58.8209 58.2057 59.0952 54.3 58.7952 50.7C58.4952 47.1 58.1676 43.8042 57.5952 41.4C56.0952 35.1 56.6952 32.4001 54.8952 25.5001C53.9664 21.9398 51.2952 17.1001 47.3952 13.5001C46.6991 12.8576 46.0031 12.2916 45.3088 11.7917M17.4435 48.935C17.0219 52.407 16.2943 55.5314 14.6931 58.2001C14.993 59.4 15.293 60.9001 15.293 62.1001C15.293 63.3001 14.993 63.9001 13.793 64.2001C12.593 64.5001 6.89298 64.2001 5.99298 63.9001C5.09298 63.6001 4.79312 63.0001 4.79312 62.1001C4.79312 61.2001 4.65506 60.1872 5.09313 59.4C4.76742 58.2057 4.49313 54.3 4.79313 50.7C5.09313 47.1 5.42068 43.8042 5.99313 41.4C7.49313 35.1 6.89313 32.4001 8.69313 25.5001C9.6219 21.9398 12.2931 17.1001 16.1931 13.5001C16.8902 12.8567 17.5872 12.2899 18.2826 11.7895" stroke="#1E1E1E" stroke-width="0.6" stroke-linecap="round"/>
</svg>
