<svg width="63" height="84" viewBox="0 0 63 84" fill="none" xmlns="http://www.w3.org/2000/svg">
<path d="M16.1055 27.0001C16.0766 29.8821 15.9187 33.4913 15.6602 36.655M46.7084 27.0001C46.7373 29.8868 46.7021 33.5031 46.794 36.6704M33.5467 61.334C36.4093 62.1691 45.2084 62.5534 46.1084 62.4767C47.0084 62.4001 47.9084 61.8001 48.1259 60.6001C48.3433 59.4001 47.7971 56.9666 47.3083 55.5001C47.7986 52.0981 48.5084 48.065 47.3084 42.6001C47.0073 41.229 46.8639 39.0796 46.794 36.6704M33.5467 61.334C26.5517 62.4786 17.8552 62.6556 16.7055 62.5096C15.2055 62.3192 14.1357 61.8001 14.0706 60.3001C14.0055 58.8001 14.4375 56.9034 14.9053 55.5001C14.415 52.0981 13.7052 48.065 14.9052 42.6001C15.2069 41.2261 15.4628 39.0704 15.6602 36.655M33.5467 61.334C35.678 60.9853 37.6514 60.5467 39.2052 60.0001M31.4078 54.0001C34.9415 53.7751 42.8078 51.9001 42.8078 49.8001C42.8078 48.9001 41.0078 48.6001 39.2078 48.9001M31.4073 18.7501C31.4073 18.7501 29.9263 21.231 28.7168 22.1655C27.5074 23.1001 26.1781 22.1593 24.2074 19.8001C22.7122 18.0102 21.5421 16.7633 19.9865 14.6461C19.5296 14.0243 18.5627 12.8717 17.9982 11.9633M31.4073 18.7501C31.4073 18.7501 29.2877 16.5499 27.3272 14.5172C25.9352 13.074 23.2708 10.1253 22.8548 9.69845C22.8333 9.67644 22.812 9.65457 22.7907 9.63286M31.4073 18.7501C31.4073 18.7501 32.8883 21.231 34.0977 22.1656C35.3072 23.1001 36.6365 22.1593 38.6072 19.8001C40.1023 18.0102 41.2725 16.7633 42.8281 14.6461C43.2848 14.0245 44.2512 12.8726 44.8157 11.9644M31.4073 18.7501C31.4073 18.7501 33.5269 16.5499 35.4874 14.5172C36.8793 13.074 39.5437 10.1253 39.9598 9.69846C39.9778 9.67998 39.9957 9.66161 40.0136 9.64334M22.7907 9.63286C24.9426 8.8082 27.9994 8.46631 31.3698 8.46631C34.7544 8.46631 37.8602 8.8111 40.0136 9.64334M22.7907 9.63286C22.02 8.84604 21.367 8.26604 20.3618 8.7045C19.3288 9.15505 18.7441 9.53098 18.0951 10.0678C17.4462 10.6046 17.5655 11.2144 17.8667 11.7429C17.9074 11.8144 17.9515 11.8881 17.9982 11.9633M40.0136 9.64334C40.7887 8.85121 41.4431 8.26411 42.4528 8.70451C43.4857 9.15506 44.0705 9.53099 44.7194 10.0678C45.3684 10.6046 45.249 11.2144 44.9479 11.7429C44.9069 11.8148 44.8627 11.8887 44.8157 11.9644M46.794 36.6704C49.9895 36.5119 53.8652 36.8889 54.9216 36.8434C56.2386 36.7868 56.9047 36.0001 56.857 34.8001C56.8092 33.6001 56.3045 32.4001 55.7047 31.5001C55.7047 29.4001 55.2358 27.0944 54.5047 24.9001C53.3887 21.5504 51.9458 19.0048 49.7048 16.5001C47.9925 14.5865 46.3818 13.1124 44.8157 11.9644M15.6602 36.655C12.5393 36.5393 8.90807 36.8872 7.89094 36.8434C6.57388 36.7868 5.90777 36.0001 5.95552 34.8001C6.00328 33.6001 6.50801 32.4001 7.10778 31.5001C7.10778 29.4001 7.57672 27.0944 8.30778 24.9001C9.42377 21.5504 10.8667 19.0048 13.1078 16.5001C14.8205 14.5859 16.4317 13.1115 17.9982 11.9633" stroke="#1E1E1E" stroke-width="0.6" stroke-linecap="round"/>
</svg>
