<svg width="64" height="84" viewBox="0 0 64 84" fill="none" xmlns="http://www.w3.org/2000/svg">
<path d="M17.5038 27.0317C16.7476 31.2442 16.5264 34.3665 16.5632 36.6785M46.093 27.0317C46.8492 31.2441 47.0704 34.3664 47.0336 36.6784M31.7305 50.2803C36.7063 50.9908 41.3716 50.8733 43.1123 50.5449C45.6941 50.0578 48.2262 48.5425 46.0929 42.4728C46.3871 41.6725 46.9804 40.0236 47.0336 36.6784M31.7305 50.2803C26.7761 50.9821 22.2187 50.8721 20.4845 50.5449C17.9027 50.0578 15.3706 48.5425 17.504 42.4728C17.2097 41.6725 16.6165 40.0236 16.5632 36.6785M31.7305 50.2803C34.152 49.9373 36.6684 49.4004 38.9964 48.6002M31.7984 43.0126C35.3321 42.7876 43.1984 40.9126 43.1984 38.8126C43.1984 37.9126 41.3984 37.6126 39.5984 37.9126M31.7979 18.7501C31.7979 18.7501 30.3169 21.231 29.1074 22.1655C27.898 23.1001 26.5687 22.1593 24.598 19.8001C23.1029 18.0102 21.9327 16.7633 20.3771 14.6461C19.9202 14.0243 18.9533 12.8717 18.3889 11.9633M31.7979 18.7501C31.7979 18.7501 29.6783 16.5499 27.7178 14.5172C26.3258 13.074 23.6614 10.1253 23.2454 9.69845C23.2239 9.67644 23.2026 9.65457 23.1813 9.63286M31.7979 18.7501C31.7979 18.7501 33.2789 21.231 34.4883 22.1656C35.6978 23.1001 37.0271 22.1593 38.9978 19.8001C40.4929 18.0102 41.6631 16.7633 43.2187 14.6461C43.6754 14.0245 44.6418 12.8726 45.2063 11.9644M31.7979 18.7501C31.7979 18.7501 33.9175 16.5499 35.878 14.5172C37.27 13.074 39.9344 10.1253 40.3504 9.69846C40.3684 9.67998 40.3864 9.66161 40.4042 9.64334M23.1813 9.63286C25.3333 8.8082 28.3901 8.46631 31.7604 8.46631C35.145 8.46631 38.2509 8.8111 40.4042 9.64334M23.1813 9.63286C22.4107 8.84604 21.7576 8.26604 20.7524 8.7045C19.7194 9.15505 19.1347 9.53098 18.4857 10.0678C17.8368 10.6046 17.9562 11.2144 18.2573 11.7429C18.2981 11.8144 18.3421 11.8881 18.3889 11.9633M40.4042 9.64334C41.1793 8.85121 41.8337 8.26411 42.8434 8.70451C43.8764 9.15506 44.4611 9.53099 45.11 10.0678C45.759 10.6046 45.6396 11.2144 45.3385 11.7429C45.2976 11.8148 45.2533 11.8887 45.2063 11.9644M18.3889 11.9633C16.8223 13.1115 15.2111 14.5859 13.4984 16.5001C11.2573 19.0048 9.8144 21.5504 8.6984 24.9001C7.96735 27.0944 7.4984 29.4001 7.4984 31.5001C6.89863 32.4001 6.3939 33.6001 6.34615 34.8001C6.29839 36.0001 6.9645 36.7868 8.28156 36.8434C9.35493 36.8896 13.3394 36.4996 16.5632 36.6785M45.2063 11.9644C46.7724 13.1124 48.3832 14.5865 50.0954 16.5001C52.3365 19.0048 53.7794 21.5504 54.8953 24.9001C55.6264 27.0944 56.0953 29.4001 56.0953 31.5001C56.6951 32.4001 57.1998 33.6001 57.2476 34.8001C57.2954 36.0001 56.6292 36.7868 55.3122 36.8434C54.2392 36.8896 50.2569 36.4999 47.0336 36.6784" stroke="#1E1E1E" stroke-width="0.6" stroke-linecap="round"/>
</svg>
