<svg width="63" height="84" viewBox="0 0 63 84" fill="none" xmlns="http://www.w3.org/2000/svg">
<path d="M17.9974 27.0001C17.1688 30.6001 16.5689 36.3001 16.7974 38.7001C16.8929 39.703 17.0658 40.6534 17.4535 41.4421M44.3933 27.0001C45.2219 30.6001 45.8218 36.3001 45.5932 38.7001C45.4973 39.7071 45.3234 40.6612 44.9324 41.4518M31.068 43.1496C35.6293 43.832 39.6989 43.6995 41.6932 43.5001C43.4345 43.326 44.3913 42.5454 44.9324 41.4518M31.068 43.1496C26.5616 43.8107 22.6729 43.6976 20.6974 43.5001C18.9509 43.3255 17.9937 42.5408 17.4535 41.4421M31.068 43.1496C33.4053 42.8067 35.9087 42.2556 38.3975 41.4001M31.1953 35.8126C34.729 35.5876 42.5953 33.7126 42.5953 31.6126C42.5953 30.7126 40.7953 30.4126 38.9953 30.7126M31.1948 18.7501C31.1948 18.7501 29.7138 21.231 28.5043 22.1655C27.2949 23.1001 25.9656 22.1593 23.9949 19.8001C22.4997 18.0102 21.3296 16.7633 19.774 14.6461C19.2874 13.9838 18.2223 12.7196 17.681 11.7895M31.1948 18.7501C31.1948 18.7501 29.0752 16.5499 27.1147 14.5172C25.7227 13.074 23.0583 10.1253 22.6423 9.69845C22.6208 9.67644 22.5995 9.65457 22.5782 9.63286M31.1948 18.7501C31.1948 18.7501 32.6758 21.231 33.8852 22.1656C35.0947 23.1001 36.424 22.1593 38.3947 19.8001C39.8898 18.0102 41.06 16.7633 42.6156 14.6461C43.1018 13.9844 44.1656 12.7216 44.7072 11.7917M31.1948 18.7501C31.1948 18.7501 33.3144 16.5499 35.2749 14.5172C36.6668 13.074 39.3312 10.1253 39.7473 9.69846C39.7653 9.67998 39.7832 9.66161 39.8011 9.64334M22.5782 9.63286C24.7301 8.8082 27.7869 8.46631 31.1573 8.46631C34.5419 8.46631 37.6477 8.8111 39.8011 9.64334M22.5782 9.63286C21.8075 8.84604 21.1545 8.26604 20.1493 8.7045C19.1163 9.15505 18.5316 9.53098 17.8826 10.0678C17.2337 10.6046 17.353 11.2144 17.6542 11.7429C17.663 11.7584 17.6719 11.7739 17.681 11.7895M39.8011 9.64334C40.5762 8.85121 41.2306 8.26411 42.2403 8.70451C43.2732 9.15506 43.858 9.53099 44.5069 10.0678C45.1559 10.6046 45.0365 11.2144 44.7354 11.7429C44.7261 11.7591 44.7168 11.7754 44.7072 11.7917M44.9324 41.4518C45.3804 47.9754 45.6102 53.7277 48.2936 58.2001C47.9938 59.4 47.6938 60.9001 47.6938 62.1001C47.6938 63.3001 47.9938 63.9001 49.1938 64.2001C50.3938 64.5001 56.0938 64.2001 56.9938 63.9001C57.8938 63.6001 58.4938 63.0001 58.4938 62.1001C58.4938 61.2001 58.3317 60.1872 57.8936 59.4C58.2193 58.2057 58.4936 54.3 58.1936 50.7C57.8936 47.1 57.566 43.8042 56.9936 41.4C55.4936 35.1 56.0936 32.4001 54.2936 25.5001C53.3648 21.9398 50.6936 17.1001 46.7936 13.5001C46.0976 12.8576 45.4015 12.2916 44.7072 11.7917M17.4535 41.4421C17.005 47.9696 16.7763 53.7255 14.0916 58.2001C14.3914 59.4 14.6914 60.9001 14.6914 62.1001C14.6914 63.3001 14.3914 63.9001 13.1914 64.2001C11.9914 64.5001 6.29142 64.2001 5.39142 63.9001C4.49142 63.6001 4.19156 63.0001 4.19156 62.1001C4.19156 61.2001 4.0535 60.1872 4.49157 59.4C4.16586 58.2057 3.89157 54.3 4.19157 50.7C4.49157 47.1 4.81912 43.8042 5.39157 41.4C6.89157 35.1 6.29157 32.4001 8.09157 25.5001C9.02033 21.9398 11.6916 17.1001 15.5916 13.5001C16.2886 12.8567 16.9857 12.2899 17.681 11.7895" stroke="#1E1E1E" stroke-width="0.6" stroke-linecap="round"/>
</svg>
