<svg width="63" height="84" viewBox="0 0 63 84" fill="none" xmlns="http://www.w3.org/2000/svg">
<path d="M18.0067 27.0001C17.3572 29.8223 16.8482 33.935 16.7686 36.7367M44.4026 27.0001C45.0522 29.8222 45.5612 33.9347 45.6407 36.7364M31.0774 43.1496C35.6387 43.832 39.7082 43.6995 41.7026 43.5001C44.7027 43.2001 45.374 41.1001 45.6026 38.7001C45.652 38.1815 45.6627 37.5088 45.6407 36.7364M31.0774 43.1496C26.571 43.8107 22.6823 43.6976 20.7068 43.5001C17.7067 43.2001 17.0354 41.1001 16.8068 38.7001C16.7574 38.1815 16.7467 37.5089 16.7686 36.7367M31.0774 43.1496C33.4147 42.8067 35.9181 42.2556 38.4069 41.4001M31.2047 35.8126C34.7384 35.5876 42.6047 33.7126 42.6047 31.6126C42.6047 30.7126 40.8047 30.4126 39.0047 30.7126M31.2041 18.7501C31.2041 18.7501 29.7231 21.231 28.5137 22.1655C27.3043 23.1001 25.975 22.1593 24.0043 19.8001C22.5091 18.0102 21.3389 16.7633 19.7834 14.6461C19.3265 14.0243 18.3595 12.8717 17.7951 11.9633M31.2041 18.7501C31.2041 18.7501 29.0846 16.5499 27.124 14.5172C25.7321 13.074 23.0677 10.1253 22.6516 9.69845C22.6302 9.67644 22.6088 9.65457 22.5876 9.63286M31.2041 18.7501C31.2041 18.7501 32.6852 21.231 33.8946 22.1656C35.104 23.1001 36.4333 22.1593 38.404 19.8001C39.8992 18.0102 41.0694 16.7633 42.6249 14.6461C43.0817 14.0245 44.048 12.8726 44.6125 11.9644M31.2041 18.7501C31.2041 18.7501 33.3237 16.5499 35.2842 14.5172C36.6762 13.074 39.3406 10.1253 39.7567 9.69846C39.7747 9.67998 39.7926 9.66161 39.8105 9.64334M22.5876 9.63286C24.7395 8.8082 27.7963 8.46631 31.1666 8.46631C34.5512 8.46631 37.6571 8.8111 39.8105 9.64334M22.5876 9.63286C21.8169 8.84604 21.1639 8.26604 20.1586 8.7045C19.1257 9.15505 18.5409 9.53098 17.892 10.0678C17.2431 10.6046 17.3624 11.2144 17.6636 11.7429C17.7043 11.8144 17.7483 11.8881 17.7951 11.9633M39.8105 9.64334C40.5856 8.85121 41.24 8.26411 42.2496 8.70451C43.2826 9.15506 43.8674 9.53099 44.5163 10.0678C45.1652 10.6046 45.0459 11.2144 44.7447 11.7429C44.7038 11.8148 44.6596 11.8887 44.6125 11.9644M45.6407 36.7364C48.9689 36.4309 53.5547 36.8935 54.7184 36.8434C56.0355 36.7868 56.7016 36.0001 56.6539 34.8001C56.6061 33.6001 56.1014 32.4001 55.5016 31.5001C55.5016 29.4001 55.0327 27.0944 54.3016 24.9001C53.1856 21.5504 51.7427 19.0048 49.5016 16.5001C47.7894 14.5865 46.1786 13.1124 44.6125 11.9644M16.7686 36.7367C13.4402 36.4306 8.85193 36.8935 7.68781 36.8434C6.37075 36.7868 5.70464 36.0001 5.7524 34.8001C5.80015 33.6001 6.30488 32.4001 6.90465 31.5001C6.90465 29.4001 7.3736 27.0944 8.10465 24.9001C9.22065 21.5504 10.6635 19.0048 12.9046 16.5001C14.6174 14.5859 16.2286 13.1115 17.7951 11.9633" stroke="#1E1E1E" stroke-width="0.6" stroke-linecap="round"/>
</svg>
