<svg width="59" height="54" viewBox="0 0 59 54" fill="none" xmlns="http://www.w3.org/2000/svg">
<path d="M27.6645 48.8191C27.6645 48.8191 27.7738 46.9477 27.6645 45.3144C27.5552 43.681 27.5885 43.8445 27.5552 42.2348M27.6645 48.8191C27.6645 48.8191 27.9669 51.6258 27.1721 51.6258H22.1307C22.1307 51.6258 19.2033 50.8015 17.4559 51.0345C15.7084 51.2675 13.8379 51.5074 12.3306 51.6365C7.21607 52.0745 4.44468 51.8451 3.27101 51.7751C2.09735 51.705 1.09375 51.6097 1.09375 50.8219C1.09375 50.1918 1.19606 49.8375 1.19606 49.8375M27.6645 48.8191C27.6645 48.8191 23.7651 48.6809 21.6721 48.8191C21.4536 48.8336 21.2291 48.8491 20.9969 48.8661M1.19606 49.8375C1.19606 49.8375 0.649019 46.4223 2.91735 45.3144C5.18568 44.2065 6.82268 45.2931 9.02439 44.7332C11.2261 44.1734 13.7917 42.9141 15.1211 40.4873C16.4505 38.0605 16.7472 34.0952 16.7693 33.4103C16.7914 32.7254 16.8618 32.1209 18.0072 31.9959C18.3359 31.9601 24.8597 31.9959 25.9207 31.9959C26.9817 31.9959 27.5552 32.5438 27.5552 33.6631C27.5552 34.7823 27.5391 41.2485 27.5552 42.2348M1.19606 49.8375C1.19606 49.8375 7.73225 50.478 12.3306 49.8375C16.449 49.2639 19.0046 49.0118 20.9969 48.8661M20.9969 48.8661C20.9969 46.1982 23.9785 42.2348 27.5552 42.2348M31.9253 48.8192C31.9253 48.8192 31.816 46.9478 31.9253 45.3144C32.0346 43.6811 32.0013 43.8445 32.0346 42.2348M31.9253 48.8192C31.9253 48.8192 31.6229 51.6259 32.4178 51.6259H37.4591C37.4591 51.6259 40.3865 50.8016 42.134 51.0345C43.8814 51.2675 45.7519 51.5074 47.2592 51.6365C52.3738 52.0746 55.1452 51.8452 56.3188 51.7751C57.4925 51.7051 58.4961 51.6097 58.4961 50.822C58.4961 50.1918 58.3938 49.8375 58.3938 49.8375M31.9253 48.8192C31.9253 48.8192 35.8248 48.681 37.9177 48.8192C38.1362 48.8336 38.3608 48.8491 38.593 48.8661M58.3938 49.8375C58.3938 49.8375 58.9408 46.4223 56.6725 45.3144C54.4042 44.2065 52.7672 45.2931 50.5655 44.7333C48.3637 44.1734 45.7982 42.9141 44.4688 40.4873C43.1393 38.0606 42.8426 34.0953 42.8205 33.4103C42.7984 32.7254 42.7281 32.1209 41.5827 31.996C41.2539 31.9601 34.7301 31.9959 33.6691 31.9959C32.6081 31.9959 32.0346 32.5439 32.0346 33.6631C32.0346 34.7823 32.0507 41.2485 32.0346 42.2348M58.3938 49.8375C58.3938 49.8375 51.8576 50.478 47.2592 49.8375C43.1408 49.2639 40.5852 49.0118 38.593 48.8661M38.593 48.8661C38.593 46.1982 35.6113 42.2348 32.0346 42.2348" stroke="#1E1E1E" stroke-linecap="round" stroke-linejoin="round"/>
</svg>
