<svg width="63" height="54" viewBox="0 0 63 54" fill="none" xmlns="http://www.w3.org/2000/svg">
<path d="M28.8676 48.8191C28.8676 48.8191 28.977 46.9477 28.8676 45.3144C28.7583 43.681 28.7917 43.8445 28.7583 42.2348M28.8676 48.8191C28.8676 48.8191 29.1701 51.6258 28.3752 51.6258H23.3338C23.3338 51.6258 20.4064 50.8015 18.659 51.0345C16.9115 51.2675 15.041 51.5074 13.5338 51.6365C8.4192 52.0745 5.6478 51.8451 4.47414 51.7751C3.30048 51.705 2.29688 51.6097 2.29688 50.8219C2.29688 50.1918 2.39919 49.8375 2.39919 49.8375M28.8676 48.8191C28.8676 48.8191 24.9682 48.6809 22.8753 48.8191C22.6568 48.8336 22.4322 48.8491 22.2 48.8661M2.39919 49.8375C2.39919 49.8375 1.85214 46.4223 4.12047 45.3144C6.3888 44.2065 8.0258 45.2931 10.2275 44.7332C12.4292 44.1734 14.9948 42.9141 16.3242 40.4873C17.6537 38.0605 17.9504 34.0952 17.9725 33.4103C17.9946 32.7254 18.0649 32.1209 19.2103 31.9959C19.539 31.9601 26.0629 31.9959 27.1238 31.9959C28.1848 31.9959 28.7583 32.5438 28.7583 33.6631C28.7583 34.7823 28.7422 41.2485 28.7583 42.2348M2.39919 49.8375C2.39919 49.8375 8.93538 50.478 13.5338 49.8375C17.6521 49.2639 20.2078 49.0118 22.2 48.8661M22.2 48.8661C22.2 46.1982 25.1817 42.2348 28.7583 42.2348M33.1284 48.8192C33.1284 48.8192 33.0191 46.9478 33.1284 45.3144C33.2378 43.6811 33.2044 43.8445 33.2378 42.2348M33.1284 48.8192C33.1284 48.8192 32.826 51.6259 33.6209 51.6259H38.6623C38.6623 51.6259 41.5897 50.8016 43.3371 51.0345C45.0846 51.2675 46.9551 51.5074 48.4623 51.6365C53.5769 52.0746 56.3483 51.8452 57.522 51.7751C58.6956 51.7051 59.6992 51.6097 59.6992 50.822C59.6992 50.1918 59.5969 49.8375 59.5969 49.8375M33.1284 48.8192C33.1284 48.8192 37.0279 48.681 39.1208 48.8192C39.3393 48.8336 39.5639 48.8491 39.7961 48.8661M59.5969 49.8375C59.5969 49.8375 60.144 46.4223 57.8756 45.3144C55.6073 44.2065 53.9703 45.2931 51.7686 44.7333C49.5669 44.1734 47.0013 42.9141 45.6719 40.4873C44.3424 38.0606 44.0457 34.0953 44.0236 33.4103C44.0015 32.7254 43.9312 32.1209 42.7858 31.996C42.4571 31.9601 35.9332 31.9959 34.8723 31.9959C33.8113 31.9959 33.2378 32.5439 33.2378 33.6631C33.2378 34.7823 33.2538 41.2485 33.2378 42.2348M59.5969 49.8375C59.5969 49.8375 53.0607 50.478 48.4623 49.8375C44.344 49.2639 41.7883 49.0118 39.7961 48.8661M39.7961 48.8661C39.7961 46.1982 36.8144 42.2348 33.2378 42.2348" stroke="#1E1E1E" stroke-linecap="round"/>
</svg>
