<svg width="59" height="54" viewBox="0 0 59 54" fill="none" xmlns="http://www.w3.org/2000/svg">
<path d="M27.6645 48.8191C27.6645 48.8191 27.7738 46.9477 27.6645 45.3143C27.5552 43.681 27.5885 43.8444 27.5552 42.2347M27.6645 48.8191C27.6645 48.8191 27.9669 51.6258 27.1721 51.6258H22.1307C22.1307 51.6258 19.2033 50.8015 17.4559 51.0345C15.7084 51.2675 13.8379 51.5073 12.3306 51.6364C7.21607 52.0745 4.44468 51.8451 3.27101 51.775C2.09735 51.705 1.09375 51.6096 1.09375 50.8219C1.09375 50.1917 1.19606 49.8375 1.19606 49.8375M27.6645 48.8191C27.6645 48.8191 23.7651 48.6809 21.6721 48.8191C21.4536 48.8335 21.2291 48.8491 20.9969 48.866M1.19606 49.8375C1.19606 49.8375 0.649019 46.4222 2.91735 45.3143C5.18568 44.2065 6.82268 45.293 9.02439 44.7332C11.2261 44.1733 12.7734 42.2248 14.3632 39.5034C15.9531 36.7819 14.0498 6.05276 14.0719 5.36782C14.094 4.68288 14.1643 4.07838 15.3097 3.95345C15.6384 3.9176 24.4629 3.95339 25.5239 3.95339C26.5849 3.95339 27.0622 4.05126 27.1721 5.00319C27.2659 5.81638 27.3599 32.7997 27.5552 42.2347M1.19606 49.8375C1.19606 49.8375 7.73225 50.4779 12.3306 49.8375C16.449 49.2638 19.0046 49.0117 20.9969 48.866M20.9969 48.866C20.9969 46.1981 23.9785 42.2347 27.5552 42.2347M31.9253 48.8191C31.9253 48.8191 31.816 46.9477 31.9253 45.3143C32.0346 43.681 32.0013 43.8444 32.0346 42.2347M31.9253 48.8191C31.9253 48.8191 31.6229 51.6258 32.4178 51.6258H37.4591C37.4591 51.6258 40.3865 50.8015 42.134 51.0345C43.8814 51.2675 45.7519 51.5073 47.2592 51.6364C52.3738 52.0745 55.1452 51.8451 56.3188 51.775C57.4925 51.705 58.4961 51.6096 58.4961 50.8219C58.4961 50.1917 58.3938 49.8375 58.3938 49.8375M31.9253 48.8191C31.9253 48.8191 35.8248 48.6809 37.9177 48.8191C38.1362 48.8335 38.3608 48.8491 38.593 48.866M58.3938 49.8375C58.3938 49.8375 58.9408 46.4222 56.6725 45.3143C54.4042 44.2065 52.7672 45.293 50.5655 44.7332C48.3637 44.1733 46.8164 42.2248 45.2266 39.5034C43.6368 36.7819 45.5401 6.05276 45.518 5.36782C45.4959 4.68288 45.4255 4.07838 44.2802 3.95345C43.9514 3.9176 35.1269 3.95339 34.0659 3.95339C33.0049 3.95339 32.5276 4.05126 32.4178 5.00319C32.3239 5.81638 32.2299 32.7997 32.0346 42.2347M58.3938 49.8375C58.3938 49.8375 51.8576 50.4779 47.2592 49.8375C43.1408 49.2638 40.5852 49.0117 38.593 48.866M38.593 48.866C38.593 46.1981 35.6113 42.2347 32.0346 42.2347" stroke="#1E1E1E" stroke-linecap="round" stroke-linejoin="round"/>
</svg>
