<svg width="63" height="54" viewBox="0 0 63 54" fill="none" xmlns="http://www.w3.org/2000/svg">
<path d="M28.8676 48.8191C28.8676 48.8191 28.977 46.9477 28.8676 45.3143C28.7583 43.681 28.7917 43.8444 28.7583 42.2347M28.8676 48.8191C28.8676 48.8191 29.1701 51.6258 28.3752 51.6258H23.3338C23.3338 51.6258 20.4064 50.8015 18.659 51.0345C16.9115 51.2675 15.041 51.5073 13.5338 51.6364C8.4192 52.0745 5.6478 51.8451 4.47414 51.775C3.30048 51.705 2.29688 51.6096 2.29688 50.8219C2.29688 50.1917 2.39919 49.8375 2.39919 49.8375M28.8676 48.8191C28.8676 48.8191 24.9682 48.6809 22.8753 48.8191C22.6568 48.8335 22.4322 48.8491 22.2 48.866M2.39919 49.8375C2.39919 49.8375 1.85214 46.4222 4.12047 45.3143C6.3888 44.2065 8.0258 45.293 10.2275 44.7332C12.4292 44.1733 13.9766 42.2248 15.5664 39.5034C17.1562 36.7819 15.2529 6.05276 15.275 5.36782C15.2971 4.68288 15.3674 4.07838 16.5128 3.95345C16.8416 3.9176 25.6661 3.95339 26.727 3.95339C27.788 3.95339 28.2654 4.05126 28.3752 5.00319C28.469 5.81638 28.563 32.7997 28.7583 42.2347M2.39919 49.8375C2.39919 49.8375 8.93538 50.4779 13.5338 49.8375C17.6521 49.2638 20.2078 49.0117 22.2 48.866M22.2 48.866C22.2 46.1981 25.1817 42.2347 28.7583 42.2347M33.1284 48.8191C33.1284 48.8191 33.0191 46.9477 33.1284 45.3143C33.2378 43.681 33.2044 43.8444 33.2378 42.2347M33.1284 48.8191C33.1284 48.8191 32.826 51.6258 33.6209 51.6258H38.6623C38.6623 51.6258 41.5897 50.8015 43.3371 51.0345C45.0846 51.2675 46.9551 51.5073 48.4623 51.6364C53.5769 52.0745 56.3483 51.8451 57.522 51.775C58.6956 51.705 59.6992 51.6096 59.6992 50.8219C59.6992 50.1917 59.5969 49.8375 59.5969 49.8375M33.1284 48.8191C33.1284 48.8191 37.0279 48.6809 39.1208 48.8191C39.3393 48.8335 39.5639 48.8491 39.7961 48.866M59.5969 49.8375C59.5969 49.8375 60.144 46.4222 57.8756 45.3143C55.6073 44.2065 53.9703 45.293 51.7686 44.7332C49.5669 44.1733 48.0195 42.2248 46.4297 39.5034C44.8399 36.7819 46.7432 6.05276 46.7211 5.36782C46.699 4.68288 46.6287 4.07838 45.4833 3.95345C45.1545 3.9176 36.33 3.95339 35.2691 3.95339C34.2081 3.95339 33.7307 4.05126 33.6209 5.00319C33.527 5.81638 33.4331 32.7997 33.2378 42.2347M59.5969 49.8375C59.5969 49.8375 53.0607 50.4779 48.4623 49.8375C44.344 49.2638 41.7883 49.0117 39.7961 48.866M39.7961 48.866C39.7961 46.1981 36.8144 42.2347 33.2378 42.2347" stroke="#1E1E1E" stroke-linecap="round"/>
</svg>
