<svg width="63" height="54" viewBox="0 0 63 54" fill="none" xmlns="http://www.w3.org/2000/svg">
<path d="M20.1012 49.5163C20.0349 48.6875 19.2395 46.2527 18.0122 44.6829C17.392 43.8897 16.648 43.2429 16.0879 42.8114C15.5962 42.4327 15.571 42.0624 16.0879 41.8267C16.4939 41.6415 17.209 41.347 17.8483 41.146C18.0226 41.0912 18.4279 40.9795 18.9491 41.4655C19.4702 41.9515 20.6695 43.0374 21.4232 44.4213M20.1012 49.5163C18.9333 49.5525 17.7494 49.5879 16.6047 49.6205M20.1012 49.5163C21.1586 49.4836 22.203 49.4504 23.1934 49.4182M11.4435 49.7493C10.5314 49.7669 9.76716 49.7771 9.21679 49.7771C6.50949 49.7771 4.657 49.3265 3.68804 49.0091C3.16138 48.8367 2.74604 49.0934 2.6581 49.427C2.57016 49.7605 2.41987 50.2505 2.55238 50.6411C2.80677 51.3911 5.53945 52.015 8.75713 52.0986C11.9748 52.1822 27.5313 51.5152 28.8486 51.5152C30.1659 51.5152 29.9845 50.8281 29.9845 50.3138C29.9845 49.7995 29.8514 49.1916 28.6723 49.2345C27.4932 49.2775 25.4711 49.3443 23.1934 49.4182M11.4435 49.7493C12.882 49.7215 14.6886 49.675 16.6047 49.6205M11.4435 49.7493C11.3514 48.5979 9.03089 46.2194 8.75713 46.0207C8.48337 45.8219 8.43414 45.2819 8.91383 45.0499C9.75015 44.6455 11.3091 43.8734 12.017 43.6904C12.7249 43.5075 13.0684 43.811 13.27 43.9952C14.7131 45.3139 15.8905 47.4809 16.6047 49.6205M23.1934 49.4182C23.1934 49.4182 22.9651 48.1074 22.4764 46.7451M22.4764 46.7451C22.2879 46.2197 21.691 44.9654 21.4232 44.4213M22.4764 46.7451C24.9564 45.6216 27.474 44.6628 28.174 44.419C28.8741 44.1753 28.886 43.8677 28.8245 43.6012C28.7847 43.4288 28.3614 42.7324 28.174 42.3546C27.9867 41.9769 27.6419 41.8553 26.9923 42.0794C26.3428 42.3035 22.4062 43.8066 21.4232 44.4213M41.9204 49.5163C41.9867 48.6875 42.782 46.2527 44.0094 44.6829C44.6295 43.8897 45.3736 43.2429 45.9337 42.8114C46.4254 42.4327 46.4505 42.0624 45.9337 41.8266C45.5276 41.6414 44.8125 41.347 44.1733 41.146C43.9989 41.0912 43.5936 40.9795 43.0725 41.4655C42.5513 41.9515 41.3521 43.0374 40.5984 44.4213M41.9204 49.5163C43.0882 49.5525 44.2721 49.5879 45.4168 49.6205M41.9204 49.5163C40.8629 49.4836 39.8185 49.4504 38.8281 49.4182M50.578 49.7493C51.4902 49.7669 52.2544 49.7771 52.8047 49.7771C55.512 49.7771 57.3645 49.3265 58.3335 49.0091C58.8602 48.8367 59.2755 49.0934 59.3634 49.427C59.4514 49.7605 59.6017 50.2505 59.4692 50.6411C59.2148 51.3911 56.4821 52.015 53.2644 52.0986C50.0467 52.1821 34.4902 51.5152 33.1729 51.5152C31.8556 51.5152 32.037 50.828 32.037 50.3137C32.037 49.7995 32.1702 49.1916 33.3493 49.2345C34.5284 49.2775 36.5504 49.3443 38.8281 49.4182M50.578 49.7493C49.1395 49.7215 47.333 49.675 45.4168 49.6205M50.578 49.7493C50.6701 48.5979 52.9907 46.2194 53.2644 46.0207C53.5382 45.8219 53.5874 45.2819 53.1077 45.0499C52.2714 44.6455 50.7124 43.8734 50.0045 43.6904C49.2967 43.5075 48.9531 43.811 48.7516 43.9952C47.3085 45.3139 46.1311 47.4809 45.4168 49.6205M38.8281 49.4182C38.8281 49.4182 39.0565 48.1074 39.5452 46.7451M39.5452 46.7451C39.7337 46.2197 40.3306 44.9654 40.5984 44.4213M39.5452 46.7451C37.0652 45.6216 34.5476 44.6628 33.8475 44.419C33.1474 44.1752 33.1356 43.8677 33.1971 43.6012C33.2369 43.4288 33.6601 42.7324 33.8475 42.3546C34.0349 41.9769 34.3797 41.8553 35.0292 42.0794C35.6788 42.3035 39.6154 43.8066 40.5984 44.4213" stroke="#1E1E1E" stroke-linecap="round"/>
</svg>
