<svg width="59" height="54" viewBox="0 0 59 54" fill="none" xmlns="http://www.w3.org/2000/svg">
<path d="M18.898 49.5163C18.8317 48.6875 18.0364 46.2527 16.8091 44.6829C16.1889 43.8897 15.4449 43.2429 14.8847 42.8114C14.393 42.4327 14.3679 42.0624 14.8847 41.8267C15.2908 41.6415 16.0059 41.347 16.6452 41.146C16.8195 41.0912 17.2248 40.9795 17.746 41.4655C18.2671 41.9515 19.4663 43.0374 20.2201 44.4213M18.898 49.5163C17.7302 49.5525 16.5463 49.5879 15.4016 49.6205M18.898 49.5163C19.9555 49.4836 20.9999 49.4504 21.9903 49.4182M10.2404 49.7493C9.32823 49.7669 8.56404 49.7771 8.01366 49.7771C5.30637 49.7771 3.45387 49.3265 2.48491 49.0091C1.95825 48.8367 1.54291 49.0934 1.45497 49.427C1.36703 49.7605 1.21674 50.2505 1.34925 50.6411C1.60365 51.3911 4.33632 52.015 7.554 52.0986C10.7717 52.1822 26.3282 51.5152 27.6455 51.5152C28.9628 51.5152 28.7814 50.8281 28.7814 50.3138C28.7814 49.7995 28.6482 49.1916 27.4691 49.2345C26.2901 49.2775 24.268 49.3443 21.9903 49.4182M10.2404 49.7493C11.6789 49.7215 13.4854 49.675 15.4016 49.6205M10.2404 49.7493C10.1483 48.5979 7.82776 46.2194 7.554 46.0207C7.28025 45.8219 7.23101 45.2819 7.7107 45.0499C8.54703 44.6455 10.106 43.8734 10.8139 43.6904C11.5218 43.5075 11.8653 43.811 12.0668 43.9952C13.5099 45.3139 14.6874 47.4809 15.4016 49.6205M21.9903 49.4182C21.9903 49.4182 21.762 48.1074 21.2732 46.7451M21.2732 46.7451C21.0847 46.2197 20.4878 44.9654 20.2201 44.4213M21.2732 46.7451C23.7533 45.6216 26.2708 44.6628 26.9709 44.419C27.671 44.1753 27.6828 43.8677 27.6213 43.6012C27.5815 43.4288 27.1583 42.7324 26.9709 42.3546C26.7835 41.9769 26.4388 41.8553 25.7892 42.0794C25.1396 42.3035 21.2031 43.8066 20.2201 44.4213M40.7172 49.5163C40.7836 48.6875 41.5789 46.2527 42.8062 44.6829C43.4264 43.8897 44.1704 43.2429 44.7306 42.8114C45.2223 42.4327 45.2474 42.0624 44.7306 41.8266C44.3245 41.6414 43.6094 41.347 42.9701 41.146C42.7958 41.0912 42.3905 40.9795 41.8693 41.4655C41.3482 41.9515 40.149 43.0374 39.3952 44.4213M40.7172 49.5163C41.8851 49.5525 43.069 49.5879 44.2137 49.6205M40.7172 49.5163C39.6598 49.4836 38.6154 49.4504 37.625 49.4182M49.3749 49.7493C50.2871 49.7669 51.0513 49.7771 51.6016 49.7771C54.3089 49.7771 56.1614 49.3265 57.1304 49.0091C57.657 48.8367 58.0724 49.0934 58.1603 49.427C58.2483 49.7605 58.3985 50.2505 58.266 50.6411C58.0116 51.3911 55.279 52.015 52.0613 52.0986C48.8436 52.1821 33.2871 51.5152 31.9698 51.5152C30.6525 51.5152 30.8339 50.828 30.8339 50.3137C30.8339 49.7995 30.9671 49.1916 32.1461 49.2345C33.3252 49.2775 35.3473 49.3443 37.625 49.4182M49.3749 49.7493C47.9364 49.7215 46.1298 49.675 44.2137 49.6205M49.3749 49.7493C49.467 48.5979 51.7875 46.2194 52.0613 46.0207C52.335 45.8219 52.3843 45.2819 51.9046 45.0499C51.0683 44.6455 49.5093 43.8734 48.8014 43.6904C48.0935 43.5075 47.75 43.811 47.5484 43.9952C46.1054 45.3139 44.9279 47.4809 44.2137 49.6205M37.625 49.4182C37.625 49.4182 37.8533 48.1074 38.3421 46.7451M38.3421 46.7451C38.5306 46.2197 39.1274 44.9654 39.3952 44.4213M38.3421 46.7451C35.862 45.6216 33.3444 44.6628 32.6444 44.419C31.9443 44.1752 31.9325 43.8677 31.994 43.6012C32.0337 43.4288 32.457 42.7324 32.6444 42.3546C32.8317 41.9769 33.1765 41.8553 33.8261 42.0794C34.4757 42.3035 38.4122 43.8066 39.3952 44.4213" stroke="#1E1E1E" stroke-linecap="round" stroke-linejoin="round"/>
</svg>
