<svg width="63" height="129" viewBox="0 0 63 129" fill="none" xmlns="http://www.w3.org/2000/svg">
<path d="M14.3485 63.1595C14.79 62.9924 15.3519 62.945 16.0382 63.1051C16.9946 63.3282 19.4922 64.0538 22.3534 64.4688C25.4278 64.9148 28.9089 65.0666 31.0078 65.0666M14.3485 63.1595C13.7413 63.3893 13.3619 63.8457 13.2001 64.3004M14.3485 63.1595C14.4108 61.4615 14.4654 59.4449 14.5312 57.1642M31.0078 65.0666C33.1068 65.0666 36.5914 64.9148 39.6657 64.4688C42.527 64.0538 45.0245 63.3282 45.981 63.1051C46.6672 62.945 47.2291 62.9924 47.6706 63.1595M31.0078 65.0666L31.0096 74.0999M31.0078 65.0666L31.008 18.7502M31.0096 74.0999C27.686 74.0999 24.2625 73.9835 21.7226 73.6139C18.4037 73.1309 16.5285 72.3432 15.7097 72.1095C14.2643 71.6969 13.3097 70.7999 13.0839 69.4701L13.0801 69.4477C13.0013 68.985 12.9815 68.8688 13.1093 64.7994C13.1093 64.6414 13.1394 64.471 13.2001 64.3004M31.0096 74.0999C34.3331 74.0999 37.7566 73.9835 40.2966 73.6139C43.6155 73.1309 45.4906 72.3432 46.3094 72.1095C47.7548 71.6969 48.7095 70.7999 48.9353 69.4701L48.9391 69.4477C49.0178 68.985 49.0376 68.8688 48.9098 64.7994C48.9098 64.6414 48.8798 64.4712 48.8191 64.3007M47.6706 63.1595C48.2779 63.3894 48.6574 63.8459 48.8191 64.3007M47.6706 63.1595C47.6083 61.4611 47.5538 59.4439 47.4879 57.1625M31.008 18.7502C31.008 18.7502 28.3269 23.631 27.1175 24.5656C25.9081 25.5002 24.3679 24.592 22.546 22.4109C20.7241 20.2298 19.6859 18.5558 18.7824 17.2306C17.8789 15.9055 16.9374 14.3409 16.4604 13.4697C16.3871 13.3359 16.3257 13.2015 16.2775 13.0666M31.008 18.7502C31.008 18.7502 28.8884 16.5499 26.9279 14.5172C25.6201 13.1613 23.2136 10.2616 22.5823 9.5619M31.008 18.7502C31.008 18.7502 33.689 23.631 34.8984 24.5655C36.1078 25.5001 37.648 24.592 39.4699 22.4109C41.2919 20.2297 42.33 18.5557 43.2335 17.2306C44.137 15.9054 45.0785 14.3408 45.5555 13.4696C45.6284 13.3365 45.6896 13.2028 45.7378 13.0685M31.008 18.7502C31.008 18.7502 33.1275 16.5498 35.0881 14.5172C36.3895 13.1678 38.7791 10.2895 39.4243 9.57214M4.7168 56.8685C4.90371 52.8125 5.31664 46.8264 5.71898 43.5367C6.43548 37.6783 6.77592 32.8452 7.44435 28.5004C8.11278 24.1556 9.48984 19.0712 11.0789 17.3042C11.5625 16.7665 12.7438 15.7372 14.2915 14.5416M4.7168 56.8685C4.08324 57.1529 3.5889 57.7059 3.5889 58.2187C3.5889 58.9733 3.40625 61.779 3.40625 62.1001C3.40625 63.0001 3.70611 63.6001 4.60611 63.9001C5.36222 64.1521 10.7766 64.4042 13.2001 64.3004M4.7168 56.8685C5.0156 56.7344 5.34536 56.66 5.66883 56.6778C7.97705 56.8046 11.3838 56.9568 13.9964 57.0836C14.1778 57.0924 14.3583 57.1192 14.5312 57.1642M57.2957 56.8685C57.1088 52.8125 56.6959 46.8264 56.2935 43.5367C55.577 37.6783 55.2366 32.8452 54.5681 28.5004C53.8997 24.1556 52.5227 19.0712 50.9336 17.3042C50.4504 16.767 49.271 15.7392 47.7256 14.5451M57.2957 56.8685C57.9293 57.1529 58.4236 57.7059 58.4236 58.2187C58.4236 58.9733 58.6063 61.779 58.6063 62.1001C58.6063 63.0001 58.3064 63.6001 57.4064 63.9001C56.651 64.1519 51.246 64.4037 48.8191 64.3007M57.2957 56.8685C56.9969 56.7344 56.6671 56.66 56.3437 56.6778C54.0355 56.8046 50.6287 56.9568 48.0161 57.0836C47.837 57.0923 47.6588 57.1185 47.4879 57.1625M22.5823 9.5619C24.7222 8.78861 27.7361 8.46641 31.008 8.46641C34.2942 8.46641 37.2824 8.79145 39.4243 9.57214M22.5823 9.5619C22.5417 9.51688 22.5084 9.48096 22.4833 9.45516C21.6843 8.63553 21.382 7.8923 20.0473 8.57626C18.7125 9.26023 17.808 9.90027 16.908 10.8003C16.1462 11.5621 16.0115 12.3226 16.2775 13.0666M39.4243 9.57214C39.4692 9.52226 39.5056 9.48283 39.5326 9.45508C40.3316 8.63546 40.6339 7.89222 41.9686 8.57619C43.3034 9.26015 44.208 9.9002 45.108 10.8002C45.8704 11.5627 46.0046 12.3239 45.7378 13.0685M14.5312 57.1642C14.7528 49.4843 15.1026 38.8108 16.3098 27.2317C16.4805 24.3178 16.297 17.8696 14.2915 14.5416M47.4879 57.1625C47.2663 49.4828 46.9165 38.81 45.7093 27.2317C45.5387 24.3188 45.722 17.8741 47.7256 14.5451M16.2775 13.0666C15.5719 13.5708 14.903 14.0692 14.2915 14.5416M45.7378 13.0685C46.4441 13.5733 47.1135 14.0723 47.7256 14.5451" stroke="#1E1E1E" stroke-width="0.6" stroke-linecap="round"/>
</svg>
