<svg width="64" height="129" viewBox="0 0 64 129" fill="none" xmlns="http://www.w3.org/2000/svg">
<path d="M16.8902 42.0403C17.098 37.0392 17.098 31.5629 17.098 27.2317C17.2686 24.3179 17.0852 17.8702 15.0799 14.5421M16.8902 42.0403C15.6807 42.1858 15.0987 43.1184 15.0987 43.8137C14.9709 47.883 14.9907 47.9993 15.0695 48.462L15.0732 48.4843C15.2132 49.3084 15.66 49.956 16.3051 50.4776M16.8902 42.0403C17.2218 42.0005 17.6006 42.0198 18.0276 42.1193C18.984 42.3424 20.2815 43.068 23.1428 43.4831C26.2172 43.929 29.6995 44.0374 31.7984 44.0374M31.7984 44.0374C33.8974 44.0374 37.3798 43.929 40.4542 43.4831C43.3155 43.068 44.613 42.3424 45.5694 42.1193C45.9964 42.0198 46.3752 42.0005 46.7068 42.0403M31.7984 44.0374L31.798 53.1142M31.7984 44.0374L31.797 18.7502M31.798 53.1142C28.4745 53.1142 25.0519 52.9977 22.512 52.6281C19.1931 52.1452 18.4869 51.6696 17.6921 51.3076C17.1718 51.0706 16.7011 50.7978 16.3051 50.4776M31.798 53.1142C35.1216 53.1142 38.5451 52.9977 41.085 52.6281C44.4039 52.1452 44.9821 51.8094 46.0143 51.3805C46.4316 51.2071 46.8847 50.9179 47.2914 50.547M46.7068 42.0403C46.499 37.0392 46.499 31.5629 46.499 27.2317C46.3284 24.3189 46.5117 17.8746 48.5151 14.5455M46.7068 42.0403C47.9163 42.1858 48.4983 43.1184 48.4983 43.8137C48.6261 47.883 48.6063 47.9993 48.5275 48.462L48.5237 48.4843C48.3892 49.2766 47.8907 50.0005 47.2914 50.547M31.797 18.7502C31.797 18.7502 29.116 23.631 27.9066 24.5656C26.6971 25.5002 25.157 24.592 23.335 22.4109C21.5131 20.2298 20.475 18.5558 19.5715 17.2306C18.6679 15.9055 17.7265 14.3409 17.2494 13.4697C17.1762 13.3359 17.1148 13.2015 17.0665 13.0666M31.797 18.7502C31.797 18.7502 29.6774 16.5499 27.7169 14.5172C26.4091 13.1613 24.0026 10.2616 23.3714 9.5619M31.797 18.7502C31.797 18.7502 34.478 23.631 35.6875 24.5655C36.8969 25.5001 38.4371 24.592 40.259 22.4109C42.0809 20.2297 43.1191 18.5557 44.0226 17.2306C44.9261 15.9054 45.8675 14.3408 46.3446 13.4696C46.4175 13.3365 46.4787 13.2028 46.5268 13.0685M31.797 18.7502C31.797 18.7502 33.9166 16.5498 35.8771 14.5172C37.1786 13.1678 39.5681 10.2895 40.2134 9.57214M5.50586 56.8685C5.69278 52.8125 6.10571 46.8264 6.50804 43.5367C7.22454 37.6783 7.56498 32.8452 8.23341 28.5004C8.90184 24.1556 10.2789 19.0712 11.868 17.3042C12.3515 16.7666 13.5325 15.7374 15.0799 14.5421M5.50586 56.8685C4.8723 57.1529 4.37796 57.7059 4.37796 58.2187C4.37796 58.9733 4.19531 61.779 4.19531 62.1001C4.19531 63.0001 4.49517 63.6001 5.39517 63.9001C6.29517 64.2001 13.7951 64.5001 14.9952 64.2001C16.1952 63.9001 16.251 63.2183 16.3793 62.2482C16.4109 62.0099 16.4127 60.9927 16.5974 58.779C16.6572 58.0624 16.2747 57.5772 15.7327 57.3145M5.50586 56.8685C5.80466 56.7344 6.13442 56.66 6.45789 56.6778C8.76611 56.8046 12.1729 56.9568 14.7855 57.0836C15.118 57.0998 15.4474 57.1763 15.7327 57.3145M15.7327 57.3145C15.8921 55.4054 16.0867 53.0608 16.3051 50.4776M58.0848 56.8685C57.8979 52.8125 57.4849 46.8264 57.0826 43.5367C56.3661 37.6783 56.0256 32.8452 55.3572 28.5004C54.6888 24.1556 53.3117 19.0712 51.7226 17.3042C51.2395 16.7671 50.0603 15.7394 48.5151 14.5455M58.0848 56.8685C58.7183 57.1529 59.2127 57.7059 59.2127 58.2187C59.2127 58.9733 59.3953 61.779 59.3953 62.1001C59.3953 63.0001 59.0955 63.6001 58.1955 63.9001C57.2955 64.2001 49.7955 64.5001 48.5955 64.2001C47.3955 63.9001 47.3396 63.2183 47.2113 62.2482C47.1797 62.0099 47.1779 60.9927 46.9932 58.779C46.9334 58.0624 47.3159 57.5772 47.8579 57.3145M58.0848 56.8685C57.786 56.7344 57.4562 56.66 57.1327 56.6778C54.8245 56.8046 51.4178 56.9568 48.8052 57.0836C48.4727 57.0998 48.1432 57.1763 47.8579 57.3145M47.8579 57.3145C47.7 55.4225 47.5074 53.1028 47.2914 50.547M23.3714 9.5619C25.5113 8.78861 28.5252 8.46641 31.797 8.46641C35.0833 8.46641 38.0714 8.79145 40.2134 9.57214M23.3714 9.5619C23.3308 9.51688 23.2975 9.48096 23.2723 9.45516C22.4734 8.63553 22.1711 7.8923 20.8363 8.57626C19.5016 9.26023 18.597 9.90027 17.697 10.8003C16.9352 11.5621 16.8006 12.3226 17.0665 13.0666M40.2134 9.57214C40.2582 9.52226 40.2947 9.48283 40.3217 9.45508C41.1207 8.63546 41.423 7.89222 42.7577 8.57619C44.0924 9.26015 44.997 9.9002 45.897 10.8002C46.6595 11.5627 46.7937 12.3239 46.5268 13.0685M15.0799 14.5421C15.6916 14.0695 16.3607 13.571 17.0665 13.0666M48.5151 14.5455C47.9029 14.0725 47.2333 13.5735 46.5268 13.0685" stroke="#1E1E1E" stroke-width="0.6" stroke-linecap="round"/>
</svg>
