<svg width="63" height="129" viewBox="0 0 63 129" fill="none" xmlns="http://www.w3.org/2000/svg">
<path d="M14.7696 53.2472C15.0417 45.8316 15.1358 42.2495 16.7015 27.2317C16.8722 24.3176 16.6887 17.8689 14.6828 14.5411M14.7696 53.2472C13.9156 53.5571 13.5023 54.3116 13.5023 54.8976C13.4745 55.7837 13.4536 56.4824 13.4389 57.0381M14.7696 53.2472C15.2067 53.0886 15.7594 53.0465 16.4311 53.2032C17.3876 53.4263 19.8851 54.1519 22.7464 54.567C25.8208 55.0129 29.3298 55.1416 31.4287 55.1416M31.4287 55.1416C31.4295 57.9569 31.3995 60.8149 31.3995 64.1981M31.4287 55.1416C31.423 34.7537 31.3986 43.2504 31.3986 18.7502M31.4287 55.1416C33.5307 55.1404 36.9955 55.0108 40.0556 54.567C42.9169 54.1519 45.4145 53.4263 46.3709 53.2032C47.0427 53.0465 47.5953 53.0886 48.0325 53.2472M31.3995 64.1981C28.076 64.1981 24.6555 64.0816 22.1155 63.712C18.7966 63.2291 16.9215 62.4413 16.1027 62.2076C16.0642 62.1966 16.026 62.1853 15.9882 62.1736M31.3995 64.1981C34.7231 64.1981 38.1466 64.0816 40.6865 63.712C44.0054 63.2291 45.8806 62.4413 46.6994 62.2076C46.7351 62.1974 46.7706 62.1869 46.8058 62.1761M48.0325 53.2472C47.7603 45.8316 47.6663 42.2495 46.1005 27.2317C45.9299 24.3189 46.1132 17.8745 48.1166 14.5454M48.0325 53.2472C48.8865 53.5571 49.2998 54.3116 49.2998 54.8976C49.3276 55.7835 49.3484 56.4821 49.3632 57.0377M31.3986 18.7502C31.3986 18.7502 28.7176 23.631 27.5081 24.5656C26.2987 25.5002 24.7585 24.592 22.9366 22.4109C21.1147 20.2298 20.0765 18.5558 19.173 17.2306C18.2695 15.9055 17.3281 14.3409 16.851 13.4697C16.7777 13.3359 16.7163 13.2015 16.6681 13.0666M31.3986 18.7502C31.3986 18.7502 29.279 16.5499 27.3185 14.5172C26.0107 13.1613 23.6042 10.2616 22.9729 9.5619M31.3986 18.7502C31.3986 18.7502 34.0796 23.631 35.289 24.5655C36.4985 25.5001 38.0386 24.592 39.8606 22.4109C41.6825 20.2297 42.7206 18.5557 43.6242 17.2306C44.5277 15.9054 45.4691 14.3408 45.9462 13.4696C46.0191 13.3365 46.0802 13.2028 46.1284 13.0685M31.3986 18.7502C31.3986 18.7502 33.5182 16.5498 35.4787 14.5172C36.7802 13.1678 39.1697 10.2895 39.8149 9.57214M5.10743 56.8685C5.29434 52.8125 5.70727 46.8264 6.10961 43.5367C6.82611 37.6783 7.16655 32.8452 7.83498 28.5004C8.50341 24.1556 9.88046 19.0712 11.4696 17.3042C11.9533 16.7664 13.1348 15.7368 14.6828 14.5411M5.10743 56.8685C4.47386 57.1529 3.97953 57.7059 3.97953 58.2187C3.97953 58.9733 3.79688 61.779 3.79688 62.1001C3.79688 63.0001 4.09674 63.6001 4.99674 63.9001C5.89674 64.2001 13.3967 64.5001 14.5967 64.2001C15.7967 63.9001 15.8526 63.2183 15.9809 62.2482C15.9835 62.2286 15.9859 62.2039 15.9882 62.1736M5.10743 56.8685C5.40622 56.7344 5.73598 56.66 6.05946 56.6778C8.09719 56.7897 10.9911 56.9215 13.4389 57.0381M57.6863 56.8685C57.4994 52.8125 57.0865 46.8264 56.6841 43.5367C55.9676 37.6783 55.6272 32.8452 54.9588 28.5004C54.2903 24.1556 52.9133 19.0712 51.3242 17.3042C50.8411 16.7671 49.6619 15.7393 48.1166 14.5454M57.6863 56.8685C58.3199 57.1529 58.8142 57.7059 58.8142 58.2187C58.8142 58.9733 58.9969 61.779 58.9969 62.1001C58.9969 63.0001 58.697 63.6001 57.797 63.9001C56.897 64.2001 49.397 64.5001 48.197 64.2001C46.997 63.9001 46.9412 63.2183 46.8128 62.2482C46.8103 62.2292 46.808 62.2052 46.8058 62.1761M57.6863 56.8685C57.3875 56.7344 57.0578 56.66 56.7343 56.6778C54.6989 56.7896 51.8092 56.9212 49.3632 57.0377M22.9729 9.5619C25.1129 8.78861 28.1267 8.46641 31.3986 8.46641C34.6848 8.46641 37.673 8.79145 39.8149 9.57214M22.9729 9.5619C22.9323 9.51688 22.8991 9.48096 22.8739 9.45516C22.075 8.63553 21.7726 7.8923 20.4379 8.57626C19.1032 9.26023 18.1986 9.90027 17.2986 10.8003C16.5368 11.5621 16.4021 12.3226 16.6681 13.0666M39.8149 9.57214C39.8598 9.52226 39.8962 9.48283 39.9233 9.45508C40.7222 8.63546 41.0245 7.89222 42.3593 8.57619C43.694 9.26015 44.5986 9.9002 45.4986 10.8002C46.2611 11.5627 46.3953 12.3239 46.1284 13.0685M15.9882 62.1736C14.6069 61.7469 13.6966 60.8626 13.4768 59.5682L13.473 59.5459C13.4114 59.1839 13.3859 59.034 13.4389 57.0381M46.8058 62.1761C48.1916 61.7504 49.105 60.8652 49.3252 59.5682L49.329 59.5459C49.3906 59.1839 49.4162 59.0339 49.3632 57.0377M14.6828 14.5411C15.2942 14.0688 15.9628 13.5706 16.6681 13.0666M48.1166 14.5454C47.5045 14.0725 46.8349 13.5734 46.1284 13.0685" stroke="#1E1E1E" stroke-width="0.6" stroke-linecap="round"/>
</svg>
