<svg width="64" height="84" viewBox="0 0 64 84" fill="none" xmlns="http://www.w3.org/2000/svg">
<path d="M31.801 52.5001C24.6742 52.5001 19.1842 50.9329 17.7161 50.5139L17.7011 50.5096C16.761 50.2413 16.4721 50.0388 16.3645 49.5531M31.801 52.5001C38.9258 52.5001 44.413 50.9338 45.8828 50.5142L45.8989 50.5096C46.8325 50.2431 47.1239 50.0417 47.2332 49.5632M31.801 52.5001L31.7995 18.7501M31.7995 18.7501C31.7995 18.7501 30.3184 21.231 29.109 22.1655C27.8996 23.1001 26.5703 22.1593 24.5996 19.8001C23.1044 18.0102 21.9342 16.7633 20.3787 14.6461C19.943 14.0531 19.0435 12.9776 18.4716 12.0914M31.7995 18.7501C31.7995 18.7501 29.6799 16.5499 27.7194 14.5172C26.3274 13.074 23.663 10.1253 23.247 9.69845C23.2255 9.67644 23.2041 9.65457 23.1829 9.63286M31.7995 18.7501C31.7995 18.7501 33.2805 21.231 34.4899 22.1656C35.6993 23.1001 37.0287 22.1593 38.9993 19.8001C40.4945 18.0102 41.6647 16.7633 43.2203 14.6461C43.6558 14.0533 44.5547 12.9784 45.1267 12.0923M31.7995 18.7501C31.7995 18.7501 33.919 16.5499 35.8796 14.5172C37.2715 13.074 39.9359 10.1253 40.352 9.69846C40.37 9.67998 40.3879 9.66161 40.4058 9.64334M5.51555 58.4913C7.72422 58.7922 12.7383 59.2409 15.5986 58.6524M5.51555 58.4913C5.43828 60.4326 5.39844 61.8146 5.39844 62.1C5.39844 63 5.6983 63.6 6.5983 63.9C7.4983 64.2 12.5983 64.5 13.7983 64.2C14.9983 63.9 15.1699 63.0701 15.2983 62.1C15.3277 61.8777 15.4344 60.6183 15.5986 58.6524M5.51555 58.4913C5.68195 54.3109 6.02188 47.5372 6.51117 43.5366C7.22767 37.6782 7.56811 32.8451 8.23654 28.5003C8.90497 24.1555 10.282 19.0711 11.8711 17.3042C12.3567 16.7642 13.5457 15.7286 15.1027 14.5268M15.5986 58.6524C15.7878 56.3882 16.0531 53.1868 16.3645 49.5531M58.0813 58.4913C55.8727 58.7922 50.8586 59.2409 47.9982 58.6524M58.0813 58.4913C58.1586 60.4326 58.1984 61.8146 58.1984 62.1C58.1984 63 57.8986 63.6 56.9986 63.9C56.0986 64.2 50.9986 64.5 49.7986 64.2C48.5986 63.9 48.4269 63.0701 48.2986 62.1C48.2692 61.8777 48.1625 60.6183 47.9982 58.6524M58.0813 58.4913C57.9149 54.3109 57.575 47.5372 57.0857 43.5366C56.3692 37.6782 56.0288 32.8451 55.3603 28.5003C54.6919 24.1555 53.3148 19.0711 51.7258 17.3042C51.2404 16.7644 50.0523 15.7296 48.4963 14.5285M47.9982 58.6524C47.8093 56.3903 47.5442 53.1927 47.2332 49.5632M40.4058 9.64334C38.2524 8.8111 35.184 8.46631 31.7995 8.46631C28.4291 8.46631 25.3348 8.8082 23.1829 9.63286M40.4058 9.64334C41.1809 8.85121 41.8353 8.26411 42.845 8.70451C43.8779 9.15506 44.4627 9.53099 45.1116 10.0678C45.7605 10.6046 45.6412 11.2144 45.34 11.7429C45.2763 11.8548 45.2046 11.9718 45.1267 12.0923M23.1829 9.63286C22.4122 8.84604 21.7592 8.26604 20.754 8.7045C19.721 9.15505 19.1362 9.53098 18.4873 10.0678C17.8384 10.6046 17.9577 11.2144 18.2589 11.7429C18.3224 11.8545 18.394 11.9712 18.4716 12.0914M16.3645 49.5531C16.3067 49.2921 16.3013 48.9492 16.2752 48.4702C16.2008 47.1001 17.1011 43.2001 17.1011 27.1836C17.2712 24.2793 17.0895 17.8643 15.1027 14.5268M47.2332 49.5632C47.2932 49.3009 47.2984 48.9553 47.3248 48.4702C47.3992 47.1001 46.4989 43.2001 46.4989 27.1836C46.3288 24.2798 46.5104 17.8665 48.4963 14.5285M48.4963 14.5285C47.4956 13.756 46.3427 12.9148 45.1267 12.0923M18.4716 12.0914C17.2559 12.9136 16.1033 13.7545 15.1027 14.5268" stroke="#1E1E1E" stroke-width="0.6" stroke-linecap="round"/>
<path d="M35.4031 44.9998C35.4031 44.6684 35.1345 44.3998 34.8031 44.3998C34.4718 44.3998 34.2031 44.6684 34.2031 44.9998C34.2031 45.3312 34.4718 45.5998 34.8031 45.5998C35.1345 45.5998 35.4031 45.3312 35.4031 44.9998Z" fill="#1E1E1E"/>
<path d="M35.4031 37.7998C35.4031 37.4684 35.1345 37.1998 34.8031 37.1998C34.4718 37.1998 34.2031 37.4684 34.2031 37.7998C34.2031 38.1312 34.4718 38.3998 34.8031 38.3998C35.1345 38.3998 35.4031 38.1312 35.4031 37.7998Z" fill="#1E1E1E"/>
<path d="M35.4031 30.5998C35.4031 30.2684 35.1345 29.9998 34.8031 29.9998C34.4718 29.9998 34.2031 30.2684 34.2031 30.5998C34.2031 30.9312 34.4718 31.1998 34.8031 31.1998C35.1345 31.1998 35.4031 30.9312 35.4031 30.5998Z" fill="#1E1E1E"/>
<path d="M35.4031 23.3998C35.4031 23.0684 35.1345 22.7998 34.8031 22.7998C34.4718 22.7998 34.2031 23.0684 34.2031 23.3998C34.2031 23.7312 34.4718 23.9998 34.8031 23.9998C35.1345 23.9998 35.4031 23.7312 35.4031 23.3998Z" fill="#1E1E1E"/>
</svg>
