<svg width="63" height="84" viewBox="0 0 63 84" fill="none" xmlns="http://www.w3.org/2000/svg">
<path d="M31.4016 64.5001C24.2504 64.5001 18.1481 62.9222 16.7027 62.5096C15.2573 62.0971 15.3512 61.8403 15.2768 60.4702C15.2416 59.8215 15.5594 55.9153 15.9038 50.2816M31.4016 64.5001C38.5527 64.5001 44.6551 62.9222 46.1005 62.5096C47.5458 62.0971 47.4519 61.8403 47.5263 60.4702C47.5581 59.8853 47.3029 56.6529 47 51.894M31.4016 64.5001L31.401 18.7501M31.401 18.7501C31.401 18.7501 29.92 21.231 28.7106 22.1655C27.5011 23.1001 26.1718 22.1593 24.2011 19.8001C22.706 18.0102 21.5358 16.7633 19.9802 14.6461C19.5446 14.0531 18.6451 12.9776 18.0731 12.0914M31.401 18.7501C31.401 18.7501 29.2814 16.5499 27.3209 14.5172C25.929 13.074 23.2646 10.1253 22.8485 9.69845C22.8271 9.67644 22.8057 9.65457 22.7844 9.63286M31.401 18.7501C31.401 18.7501 32.882 21.231 34.0915 22.1656C35.3009 23.1001 36.6302 22.1593 38.6009 19.8001C40.0961 18.0102 41.2662 16.7633 42.8218 14.6461C43.2573 14.0533 44.1563 12.9784 44.7283 12.0923M31.401 18.7501C31.401 18.7501 33.5206 16.5499 35.4811 14.5172C36.8731 13.074 39.5375 10.1253 39.9535 9.69846C39.9715 9.67998 39.9895 9.66161 40.0073 9.64334M5.11711 58.4913C7.32578 58.7922 12.3399 59.2409 15.2002 58.6524M5.11711 58.4913C5.03985 60.4326 5 61.8146 5 62.1C5 63 5.29986 63.6 6.19986 63.9C7.09986 64.2 12.1998 64.5 13.3998 64.2C14.5999 63.9 14.7715 63.0701 14.8998 62.1C14.9293 61.8777 15.036 60.6183 15.2002 58.6524M5.11711 58.4913C5.28351 54.3109 5.62344 47.5372 6.11273 43.5366C6.82923 37.6782 7.16967 32.8451 7.8381 28.5003C8.50653 24.1555 9.88359 19.0711 11.4727 17.3042C11.9583 16.7642 13.1472 15.7286 14.7043 14.5268M15.2002 58.6524C15.3766 56.5407 15.6193 53.614 15.9038 50.2816M57.6829 58.4913C55.4742 58.7922 50.4601 59.2409 47.5998 58.6524M57.6829 58.4913C57.7602 60.4326 57.8 61.8146 57.8 62.1C57.8 63 57.5001 63.6 56.6001 63.9C55.7001 64.2 50.6002 64.5 49.4002 64.2C48.2001 63.9 48.0285 63.0701 47.9002 62.1C47.8707 61.8777 47.764 60.6183 47.5998 58.6524M57.6829 58.4913C57.5165 54.3109 57.1766 47.5372 56.6873 43.5366C55.9708 37.6782 55.6303 32.8451 54.9619 28.5003C54.2935 24.1555 52.9164 19.0711 51.3273 17.3042C50.8419 16.7644 49.6539 15.7296 48.0979 14.5285M47.5998 58.6524C47.4453 56.8023 47.2399 54.7201 47 51.894M40.0073 9.64334C37.854 8.8111 34.7856 8.46631 31.401 8.46631C28.0307 8.46631 24.9364 8.8082 22.7844 9.63286M40.0073 9.64334C40.7825 8.85121 41.4368 8.26411 42.4465 8.70451C43.4795 9.15506 44.0642 9.53099 44.7132 10.0678C45.3621 10.6046 45.2428 11.2144 44.9416 11.7429C44.8779 11.8548 44.8061 11.9718 44.7283 12.0923M22.7844 9.63286C22.0138 8.84604 21.3607 8.26604 20.3555 8.7045C19.3226 9.15505 18.7378 9.53098 18.0889 10.0678C17.4399 10.6046 17.5593 11.2144 17.8604 11.7429C17.924 11.8545 17.9955 11.9712 18.0731 12.0914M48.0979 14.5285C46.112 17.8665 45.9304 24.2798 46.1005 27.1836C46.1005 36.3632 46.5933 45.5045 47 51.894M48.0979 14.5285C47.0972 13.756 45.9443 12.9148 44.7283 12.0923M18.0731 12.0914C16.8575 12.9136 15.7049 13.7545 14.7043 14.5268M14.7043 14.5268C16.6911 17.8643 16.8728 24.2793 16.7026 27.1836C16.7026 35.6165 16.2868 44.017 15.9038 50.2816" stroke="#1E1E1E" stroke-width="0.6" stroke-linecap="round"/>
<path d="M34.9969 54.5998C34.9969 54.2684 34.7282 53.9998 34.3969 53.9998C34.0655 53.9998 33.7969 54.2684 33.7969 54.5998C33.7969 54.9312 34.0655 55.1998 34.3969 55.1998C34.7282 55.1998 34.9969 54.9312 34.9969 54.5998Z" fill="#1E1E1E"/>
<path d="M34.9969 44.9998C34.9969 44.6684 34.7282 44.3998 34.3969 44.3998C34.0655 44.3998 33.7969 44.6684 33.7969 44.9998C33.7969 45.3312 34.0655 45.5998 34.3969 45.5998C34.7282 45.5998 34.9969 45.3312 34.9969 44.9998Z" fill="#1E1E1E"/>
<path d="M34.9969 37.7998C34.9969 37.4684 34.7282 37.1998 34.3969 37.1998C34.0655 37.1998 33.7969 37.4684 33.7969 37.7998C33.7969 38.1312 34.0655 38.3998 34.3969 38.3998C34.7282 38.3998 34.9969 38.1312 34.9969 37.7998Z" fill="#1E1E1E"/>
<path d="M34.9969 30.5998C34.9969 30.2684 34.7282 29.9998 34.3969 29.9998C34.0655 29.9998 33.7969 30.2684 33.7969 30.5998C33.7969 30.9312 34.0655 31.1998 34.3969 31.1998C34.7282 31.1998 34.9969 30.9312 34.9969 30.5998Z" fill="#1E1E1E"/>
<path d="M34.9969 23.3998C34.9969 23.0684 34.7282 22.7998 34.3969 22.7998C34.0655 22.7998 33.7969 23.0684 33.7969 23.3998C33.7969 23.7312 34.0655 23.9998 34.3969 23.9998C34.7282 23.9998 34.9969 23.7312 34.9969 23.3998Z" fill="#1E1E1E"/>
</svg>
