<svg width="63" height="84" viewBox="0 0 63 84" fill="none" xmlns="http://www.w3.org/2000/svg">
<path d="M31.0049 74.0998C23.8537 74.0998 17.7504 72.5219 16.305 72.1094C14.8596 71.6968 13.905 71.3998 13.6792 70.07C13.6035 69.6244 13.5786 67.4955 13.6776 63.914M31.0049 74.0998C38.1561 74.0998 44.2558 72.5219 45.7012 72.1094C47.1466 71.6968 48.1013 71.3998 48.3271 70.07C48.4027 69.6244 48.4277 67.4964 48.3287 63.9162M31.0049 74.0998L31.0026 18.7501M31.0026 18.7501C31.0026 18.7501 29.5216 21.231 28.3121 22.1655C27.1027 23.1001 25.7734 22.1593 23.8027 19.8001C22.3076 18.0102 21.1374 16.7633 19.5818 14.6461C19.1461 14.0531 18.2467 12.9776 17.6747 12.0914M31.0026 18.7501C31.0026 18.7501 28.883 16.5499 26.9225 14.5172C25.5305 13.074 22.8661 10.1253 22.4501 9.69845C22.4286 9.67644 22.4073 9.65457 22.386 9.63286M31.0026 18.7501C31.0026 18.7501 32.4836 21.231 33.693 22.1656C34.9025 23.1001 36.2318 22.1593 38.2025 19.8001C39.6976 18.0102 40.8678 16.7633 42.4234 14.6461C42.8589 14.0533 43.7579 12.9784 44.3299 12.0923M31.0026 18.7501C31.0026 18.7501 33.1222 16.5499 35.0827 14.5172C36.4746 13.074 39.1391 10.1253 39.5551 9.69846C39.5731 9.67998 39.591 9.66161 39.6089 9.64334M4.71868 58.4913C4.64141 60.4326 4.60156 61.8146 4.60156 62.1C4.60156 63 4.90142 63.6 5.80142 63.9C6.70142 64.2 11.8014 64.5 13.0014 64.2C13.2771 64.1311 13.4985 64.0342 13.6776 63.914M4.71868 58.4913C4.88507 54.3109 5.22501 47.5372 5.71429 43.5366C6.43079 37.6782 6.77123 32.8451 7.43966 28.5003C8.10809 24.1555 9.48515 19.0711 11.0742 17.3042C11.5579 16.7664 12.7391 15.7371 14.2868 14.5415M4.71868 58.4913C6.70253 58.7616 10.9498 59.1511 13.8666 58.8011M57.2845 58.4913C57.3617 60.4326 57.4016 61.8146 57.4016 62.1C57.4016 63 57.1017 63.6 56.2017 63.9C55.3017 64.2 50.2017 64.5 49.0017 64.2C48.7277 64.1315 48.5072 64.0353 48.3287 63.9162M57.2845 58.4913C57.1181 54.3109 56.7781 47.5372 56.2888 43.5366C55.5723 37.6782 55.2319 32.8451 54.5635 28.5003C53.895 24.1555 52.518 19.0711 50.9289 17.3042C50.4455 16.7666 49.2651 15.738 47.7185 14.5432M57.2845 58.4913C55.3013 58.7615 51.0564 59.1508 48.1396 58.8015M39.6089 9.64334C37.4556 8.8111 34.3872 8.46631 31.0026 8.46631C27.6323 8.46631 24.538 8.8082 22.386 9.63286M39.6089 9.64334C40.384 8.85121 41.0384 8.26411 42.0481 8.70451C43.081 9.15506 43.6658 9.53099 44.3147 10.0678C44.9637 10.6046 44.8443 11.2144 44.5432 11.7429C44.4794 11.8548 44.4077 11.9718 44.3299 12.0923M22.386 9.63286C21.6154 8.84604 20.9623 8.26604 19.9571 8.7045C18.9241 9.15505 18.3394 9.53098 17.6904 10.0678C17.0415 10.6046 17.1609 11.2144 17.462 11.7429C17.5256 11.8545 17.5971 11.9712 17.6747 12.0914M14.2868 14.5415C16.2924 17.8695 16.4758 24.3177 16.3051 27.2316C14.9192 40.524 14.2019 51.3475 13.8666 58.8011M14.2868 14.5415C15.2918 13.7652 16.4513 12.9188 17.6747 12.0914M47.7185 14.5432C45.7138 17.8716 45.5305 24.3181 45.7011 27.2316C47.087 40.5243 47.8044 51.3478 48.1396 58.8015M47.7185 14.5432C46.7134 13.7667 45.5536 12.92 44.3299 12.0923M48.1396 58.8015C48.2268 60.7395 48.2882 62.4496 48.3287 63.9162M13.6776 63.914C13.7182 62.4479 13.7795 60.7383 13.8666 58.8011" stroke="#1E1E1E" stroke-width="0.6" stroke-linecap="round"/>
<path d="M34.6063 64.2002C34.6063 63.8688 34.3376 63.6002 34.0063 63.6002C33.6749 63.6002 33.4062 63.8688 33.4062 64.2002C33.4062 64.5316 33.6749 64.8002 34.0063 64.8002C34.3376 64.8002 34.6063 64.5316 34.6063 64.2002Z" fill="#1E1E1E"/>
<path d="M34.6063 54.6002C34.6063 54.2688 34.3376 54.0002 34.0063 54.0002C33.6749 54.0002 33.4062 54.2688 33.4062 54.6002C33.4062 54.9316 33.6749 55.2002 34.0063 55.2002C34.3376 55.2002 34.6063 54.9316 34.6063 54.6002Z" fill="#1E1E1E"/>
<path d="M34.6063 47.4002C34.6063 47.0688 34.3376 46.8002 34.0063 46.8002C33.6749 46.8002 33.4062 47.0688 33.4062 47.4002C33.4062 47.7316 33.6749 48.0002 34.0063 48.0002C34.3376 48.0002 34.6063 47.7316 34.6063 47.4002Z" fill="#1E1E1E"/>
<path d="M34.6063 40.2002C34.6063 39.8688 34.3376 39.6002 34.0063 39.6002C33.6749 39.6002 33.4062 39.8688 33.4062 40.2002C33.4062 40.5316 33.6749 40.8002 34.0063 40.8002C34.3376 40.8002 34.6063 40.5316 34.6063 40.2002Z" fill="#1E1E1E"/>
<path d="M34.6063 33.0002C34.6063 32.6688 34.3376 32.4002 34.0063 32.4002C33.6749 32.4002 33.4062 32.6688 33.4062 33.0002C33.4062 33.3316 33.6749 33.6002 34.0063 33.6002C34.3376 33.6002 34.6063 33.3316 34.6063 33.0002Z" fill="#1E1E1E"/>
<path d="M34.6063 25.8002C34.6063 25.4688 34.3376 25.2002 34.0063 25.2002C33.6749 25.2002 33.4062 25.4688 33.4062 25.8002C33.4062 26.1316 33.6749 26.4002 34.0063 26.4002C34.3376 26.4002 34.6063 26.1316 34.6063 25.8002Z" fill="#1E1E1E"/>
</svg>
