<svg width="63" height="84" viewBox="0 0 63 84" fill="none" xmlns="http://www.w3.org/2000/svg">
<path d="M31.0049 74.0998C23.8537 74.0998 17.7504 72.5219 16.305 72.1094C14.8596 71.6968 13.905 71.3998 13.6792 70.07C13.4847 68.9248 13.6251 56.6638 15.3444 37.1993M31.0049 74.0998C38.1561 74.0998 44.2558 72.5219 45.7012 72.1094C47.1466 71.6968 48.1013 71.3998 48.3271 70.07C48.5215 68.9248 48.3811 56.6639 46.6619 37.1995M31.0049 74.0998L31.0026 18.7501M31.0026 18.7501C31.0026 18.7501 29.5216 21.231 28.3121 22.1655C27.1027 23.1001 25.7734 22.1593 23.8027 19.8001C22.3076 18.0102 21.1374 16.7633 19.5818 14.6461C19.1531 14.0626 18.2754 13.012 17.7025 12.1342M31.0026 18.7501C31.0026 18.7501 28.883 16.5499 26.9225 14.5172C25.5305 13.074 22.8661 10.1253 22.4501 9.69845C22.4286 9.67644 22.4073 9.65457 22.386 9.63286M31.0026 18.7501C31.0026 18.7501 32.4836 21.231 33.693 22.1656C34.9025 23.1001 36.2318 22.1593 38.2025 19.8001C39.6976 18.0102 40.8678 16.7633 42.4234 14.6461C42.8519 14.0629 43.7291 13.0127 44.3021 12.1351M31.0026 18.7501C31.0026 18.7501 33.1222 16.5499 35.0827 14.5172C36.4747 13.074 39.1391 10.1253 39.5551 9.69846C39.5731 9.67998 39.591 9.66161 39.6089 9.64334M6.86518 32.6294C6.78372 33.4937 6.73503 34.3222 6.73438 35.0935C6.73321 36.4627 7.58946 36.5928 8.68356 36.8433C9.56261 37.0446 12.1335 37.4367 15.3444 37.1993M6.86518 32.6294C7.06305 30.5302 7.45429 28.2195 7.82045 26.0014L7.8294 25.9473C8.34089 22.8487 8.64595 21.0006 10.1082 18.5461C10.6244 17.6796 12.2319 16.188 14.3086 14.578M6.86518 32.6294C8.82647 33.0066 12.4995 33.5019 15.716 33.1447M55.1379 32.6294C55.2194 33.4937 55.2681 34.3222 55.2688 35.0935C55.2699 36.4627 54.4137 36.5928 53.3196 36.8433C52.4408 37.0445 49.8713 37.4364 46.6619 37.1995M55.1379 32.6294C54.9401 30.5302 54.5488 28.2195 54.1827 26.0014L54.1737 25.9473C53.6622 22.8487 53.3572 21.0006 51.8949 18.5461C51.3789 17.6799 49.7723 16.189 47.6967 14.5796M55.1379 32.6294C53.1773 33.0065 49.506 33.5015 46.2903 33.145M39.6089 9.64334C37.4556 8.8111 34.3872 8.46631 31.0026 8.46631C27.6323 8.46631 24.538 8.8082 22.386 9.63286M39.6089 9.64334C40.384 8.85121 41.0384 8.26411 42.0481 8.70451C43.081 9.15506 43.6658 9.53099 44.3147 10.0678C44.9637 10.6046 44.8443 11.2144 44.5432 11.7429C44.4719 11.868 44.3906 11.9995 44.3021 12.1351M22.386 9.63286C21.6154 8.84604 20.9623 8.26604 19.9571 8.7045C18.9241 9.15505 18.3394 9.53098 17.6904 10.0678C17.0415 10.6046 17.1609 11.2144 17.462 11.7429C17.5331 11.8677 17.6142 11.9989 17.7025 12.1342M46.2903 33.145C46.1088 31.2336 45.9127 29.2614 45.7011 27.2316C45.5311 24.3287 45.7125 17.9185 47.6967 14.5796M46.2903 33.145C46.4216 34.5288 46.5454 35.8807 46.6619 37.1995M15.716 33.1447C15.8975 31.2334 16.0935 29.2613 16.3051 27.2316C16.4752 24.3282 16.2937 17.9163 14.3086 14.578M15.716 33.1447C15.5847 34.5285 15.4609 35.8804 15.3444 37.1993M14.3086 14.578C15.3483 13.7719 16.5056 12.9361 17.7025 12.1342M47.6967 14.5796C46.6568 13.7733 45.4993 12.9373 44.3021 12.1351" stroke="#1E1E1E" stroke-width="0.6" stroke-linecap="round"/>
<path d="M34.6063 64.2002C34.6063 63.8688 34.3376 63.6002 34.0063 63.6002C33.6749 63.6002 33.4062 63.8688 33.4062 64.2002C33.4062 64.5316 33.6749 64.8002 34.0063 64.8002C34.3376 64.8002 34.6063 64.5316 34.6063 64.2002Z" fill="#1E1E1E"/>
<path d="M34.6063 54.6002C34.6063 54.2688 34.3376 54.0002 34.0063 54.0002C33.6749 54.0002 33.4062 54.2688 33.4062 54.6002C33.4062 54.9316 33.6749 55.2002 34.0063 55.2002C34.3376 55.2002 34.6063 54.9316 34.6063 54.6002Z" fill="#1E1E1E"/>
<path d="M34.6063 47.4002C34.6063 47.0688 34.3376 46.8002 34.0063 46.8002C33.6749 46.8002 33.4062 47.0688 33.4062 47.4002C33.4062 47.7316 33.6749 48.0002 34.0063 48.0002C34.3376 48.0002 34.6063 47.7316 34.6063 47.4002Z" fill="#1E1E1E"/>
<path d="M34.6063 40.2002C34.6063 39.8688 34.3376 39.6002 34.0063 39.6002C33.6749 39.6002 33.4062 39.8688 33.4062 40.2002C33.4062 40.5316 33.6749 40.8002 34.0063 40.8002C34.3376 40.8002 34.6063 40.5316 34.6063 40.2002Z" fill="#1E1E1E"/>
<path d="M34.6063 33.0002C34.6063 32.6688 34.3376 32.4002 34.0063 32.4002C33.6749 32.4002 33.4062 32.6688 33.4062 33.0002C33.4062 33.3316 33.6749 33.6002 34.0063 33.6002C34.3376 33.6002 34.6063 33.3316 34.6063 33.0002Z" fill="#1E1E1E"/>
<path d="M34.6063 25.8002C34.6063 25.4688 34.3376 25.2002 34.0063 25.2002C33.6749 25.2002 33.4062 25.4688 33.4062 25.8002C33.4062 26.1316 33.6749 26.4002 34.0063 26.4002C34.3376 26.4002 34.6063 26.1316 34.6063 25.8002Z" fill="#1E1E1E"/>
</svg>
