<svg width="63" height="84" viewBox="0 0 63 84" fill="none" xmlns="http://www.w3.org/2000/svg">
<path d="M31.2053 45.3001C24.0541 45.3001 19.1528 43.7222 17.7074 43.3096C16.262 42.8971 16.3559 42.6403 16.2815 41.2702C16.227 40.2673 16.3733 37.682 16.4556 33.0764M31.2053 45.3001C38.3565 45.3001 43.2597 43.7222 44.7051 43.3096C46.1505 42.8971 46.0566 42.6403 46.131 41.2702C46.1668 40.612 46.116 39.2722 46.0537 37.1271M31.2053 45.3001L31.2057 18.7501M31.2057 18.7501C31.2057 18.7501 29.7247 21.231 28.5153 22.1655C27.3058 23.1001 25.9765 22.1593 24.0058 19.8001C22.5107 18.0102 21.3405 16.7633 19.7849 14.6461C19.3562 14.0626 18.4785 13.012 17.9056 12.1342M31.2057 18.7501C31.2057 18.7501 29.0861 16.5499 27.1256 14.5172C25.7336 13.074 23.0692 10.1253 22.6532 9.69845C22.6318 9.67644 22.6104 9.65457 22.5891 9.63286M31.2057 18.7501C31.2057 18.7501 32.6867 21.231 33.8962 22.1656C35.1056 23.1001 36.4349 22.1593 38.4056 19.8001C39.9007 18.0102 41.0709 16.7633 42.6265 14.6461C43.055 14.0629 43.9322 13.0127 44.5052 12.1351M31.2057 18.7501C31.2057 18.7501 33.3253 16.5499 35.2858 14.5172C36.6778 13.074 39.3422 10.1253 39.7582 9.69846C39.7762 9.67998 39.7942 9.66161 39.812 9.64334M7.06831 32.6294C6.98684 33.4937 6.93816 34.3222 6.9375 35.0935C6.93634 36.4627 7.79259 36.5928 8.88668 36.8433C9.83177 37.0597 12.7324 37.4967 16.2815 37.1348M7.06831 32.6294C7.26617 30.5302 7.65741 28.2195 8.02358 26.0014L8.03252 25.9473C8.54401 22.8487 8.84907 21.0006 10.3113 18.5461C10.8291 17.677 12.4448 16.179 14.5305 14.5634M7.06831 32.6294C9.13958 33.0278 13.12 33.5578 16.4556 33.0764M55.3411 32.6294C55.4225 33.4937 55.4712 34.3222 55.4719 35.0935C55.473 36.4627 54.6168 36.5928 53.5227 36.8433C52.571 37.0612 49.6365 37.5028 46.0537 37.1271M55.3411 32.6294C55.1432 30.5302 54.752 28.2195 54.3858 26.0014L54.3769 25.9473C53.8654 22.8487 53.5603 21.0006 52.098 18.5461C51.5806 17.6775 49.9667 16.1809 47.8828 14.5665M55.3411 32.6294C53.2704 33.0276 49.2919 33.5574 45.9569 33.0768M39.812 9.64334C37.6587 8.8111 34.5903 8.46631 31.2057 8.46631C27.8354 8.46631 24.7411 8.8082 22.5891 9.63286M39.812 9.64334C40.5872 8.85121 41.2415 8.26411 42.2512 8.70451C43.2842 9.15506 43.8689 9.53099 44.5179 10.0678C45.1668 10.6046 45.0474 11.2144 44.7463 11.7429C44.675 11.868 44.5938 11.9995 44.5052 12.1351M22.5891 9.63286C21.8185 8.84604 21.1654 8.26604 20.1602 8.7045C19.1272 9.15505 18.5425 9.53098 17.8936 10.0678C17.2446 10.6046 17.364 11.2144 17.6651 11.7429C17.7362 11.8677 17.8173 11.9989 17.9056 12.1342M44.5052 12.1351C45.6959 12.9329 46.8474 13.7642 47.8828 14.5665M17.9056 12.1342C16.716 12.9312 15.5654 13.7618 14.5305 14.5634M14.5305 14.5634C16.4971 17.9109 16.6768 24.2899 16.5073 27.1836C16.5073 29.433 16.4858 31.3901 16.4556 33.0764M47.8828 14.5665C45.9426 17.9267 45.7365 24.3037 45.9052 27.1836C45.9052 29.4332 45.9267 31.3904 45.9569 33.0768M45.9569 33.0768C45.9852 34.6596 46.021 36.0038 46.0537 37.1271" stroke="#1E1E1E" stroke-width="0.6" stroke-linecap="round"/>
<path d="M34.8094 37.7998C34.8094 37.4684 34.5407 37.1998 34.2094 37.1998C33.878 37.1998 33.6094 37.4684 33.6094 37.7998C33.6094 38.1312 33.878 38.3998 34.2094 38.3998C34.5407 38.3998 34.8094 38.1312 34.8094 37.7998Z" fill="#1E1E1E"/>
<path d="M34.8094 30.5998C34.8094 30.2684 34.5407 29.9998 34.2094 29.9998C33.878 29.9998 33.6094 30.2684 33.6094 30.5998C33.6094 30.9312 33.878 31.1998 34.2094 31.1998C34.5407 31.1998 34.8094 30.9312 34.8094 30.5998Z" fill="#1E1E1E"/>
<path d="M34.8094 23.3998C34.8094 23.0684 34.5407 22.7998 34.2094 22.7998C33.878 22.7998 33.6094 23.0684 33.6094 23.3998C33.6094 23.7312 33.878 23.9998 34.2094 23.9998C34.5407 23.9998 34.8094 23.7312 34.8094 23.3998Z" fill="#1E1E1E"/>
</svg>
