<svg width="63" height="84" viewBox="0 0 63 84" fill="none" xmlns="http://www.w3.org/2000/svg">
<path d="M31.4016 64.5001C24.2504 64.5001 18.1481 62.9222 16.7027 62.5096C15.2573 62.0971 15.3512 61.8403 15.2768 60.4702C15.218 59.3879 16.1418 49.2397 16.5325 37.1293M31.4016 64.5001C38.5527 64.5001 44.6551 62.9222 46.1005 62.5096C47.5459 62.0971 47.4519 61.8403 47.5263 60.4702C47.5851 59.3879 46.6614 49.2397 46.2706 37.1293M31.4016 64.5001L31.401 18.7501M31.401 18.7501C31.401 18.7501 29.92 21.231 28.7106 22.1655C27.5011 23.1001 26.1718 22.1593 24.2011 19.8001C22.706 18.0102 21.5358 16.7633 19.9802 14.6461C19.5515 14.0626 18.6739 13.012 18.1009 12.1342M31.401 18.7501C31.401 18.7501 29.2814 16.5499 27.3209 14.5172C25.929 13.074 23.2646 10.1253 22.8485 9.69845C22.8271 9.67644 22.8057 9.65457 22.7844 9.63286M31.401 18.7501C31.401 18.7501 32.882 21.231 34.0915 22.1656C35.3009 23.1001 36.6302 22.1593 38.6009 19.8001C40.0961 18.0102 41.2662 16.7633 42.8218 14.6461C43.2503 14.0629 44.1276 13.0127 44.7005 12.1351M31.401 18.7501C31.401 18.7501 33.5206 16.5499 35.4811 14.5172C36.8731 13.074 39.5375 10.1253 39.9535 9.69846C39.9715 9.67998 39.9895 9.66161 40.0074 9.64334M7.26362 32.6294C7.18216 33.4937 7.13347 34.3222 7.13281 35.0935C7.13165 36.4627 7.9879 36.5928 9.082 36.8433C10.032 37.0608 12.9581 37.5016 16.5325 37.1293M7.26362 32.6294C7.46148 30.5302 7.85273 28.2195 8.21889 26.0014L8.22784 25.9473C8.73932 22.8487 9.04438 21.0006 10.5067 18.5461C11.0244 17.677 12.6401 16.179 14.7258 14.5634M7.26362 32.6294C9.33262 33.0273 13.3065 33.5566 16.6399 33.0779M55.5364 32.6294C55.6178 33.4937 55.6665 34.3222 55.6672 35.0935C55.6684 36.4627 54.8121 36.5928 53.718 36.8433C52.7683 37.0608 49.8436 37.501 46.2706 37.1293M55.5364 32.6294C55.3385 30.5302 54.9473 28.2195 54.5811 26.0014L54.5722 25.9473C54.0607 22.8487 53.7556 21.0006 52.2934 18.5461C51.7757 17.6773 50.161 16.18 48.0763 14.565M55.5364 32.6294C53.468 33.0272 49.496 33.5563 46.1632 33.0784M40.0074 9.64334C37.854 8.8111 34.7856 8.46631 31.401 8.46631C28.0307 8.46631 24.9364 8.8082 22.7844 9.63286M40.0074 9.64334C40.7825 8.85121 41.4368 8.26411 42.4465 8.70451C43.4795 9.15506 44.0642 9.53099 44.7132 10.0678C45.3621 10.6046 45.2428 11.2144 44.9416 11.7429C44.8704 11.868 44.7891 11.9995 44.7005 12.1351M22.7844 9.63286C22.0138 8.84604 21.3607 8.26604 20.3555 8.7045C19.3226 9.15505 18.7378 9.53098 18.0889 10.0678C17.4399 10.6046 17.5593 11.2144 17.8604 11.7429C17.9315 11.8677 18.0126 11.9989 18.1009 12.1342M46.1632 33.0784C46.1233 31.1333 46.1005 29.1593 46.1005 27.1836C45.931 24.2903 46.1107 17.9131 48.0763 14.565M46.1632 33.0784C46.1912 34.4461 46.2277 35.7995 46.2706 37.1293M16.6399 33.0779C16.6798 31.133 16.7026 29.1592 16.7026 27.1836C16.8722 24.2899 16.6924 17.911 14.7258 14.5634M16.6399 33.0779C16.6119 34.4458 16.5754 35.7994 16.5325 37.1293M14.7258 14.5634C15.7607 13.7618 16.9113 12.9312 18.1009 12.1342M48.0763 14.565C47.0413 13.7632 45.8905 12.9324 44.7005 12.1351" stroke="#1E1E1E" stroke-width="0.6" stroke-linecap="round"/>
<path d="M34.9969 54.5998C34.9969 54.2684 34.7282 53.9998 34.3969 53.9998C34.0655 53.9998 33.7969 54.2684 33.7969 54.5998C33.7969 54.9312 34.0655 55.1998 34.3969 55.1998C34.7282 55.1998 34.9969 54.9312 34.9969 54.5998Z" fill="#1E1E1E"/>
<path d="M34.9969 44.9998C34.9969 44.6684 34.7282 44.3998 34.3969 44.3998C34.0655 44.3998 33.7969 44.6684 33.7969 44.9998C33.7969 45.3312 34.0655 45.5998 34.3969 45.5998C34.7282 45.5998 34.9969 45.3312 34.9969 44.9998Z" fill="#1E1E1E"/>
<path d="M34.9969 37.7998C34.9969 37.4684 34.7282 37.1998 34.3969 37.1998C34.0655 37.1998 33.7969 37.4684 33.7969 37.7998C33.7969 38.1312 34.0655 38.3998 34.3969 38.3998C34.7282 38.3998 34.9969 38.1312 34.9969 37.7998Z" fill="#1E1E1E"/>
<path d="M34.9969 30.5998C34.9969 30.2684 34.7282 29.9998 34.3969 29.9998C34.0655 29.9998 33.7969 30.2684 33.7969 30.5998C33.7969 30.9312 34.0655 31.1998 34.3969 31.1998C34.7282 31.1998 34.9969 30.9312 34.9969 30.5998Z" fill="#1E1E1E"/>
<path d="M34.9969 23.3998C34.9969 23.0684 34.7282 22.7998 34.3969 22.7998C34.0655 22.7998 33.7969 23.0684 33.7969 23.3998C33.7969 23.7312 34.0655 23.9998 34.3969 23.9998C34.7282 23.9998 34.9969 23.7312 34.9969 23.3998Z" fill="#1E1E1E"/>
</svg>
