<svg width="63" height="84" viewBox="0 0 63 84" fill="none" xmlns="http://www.w3.org/2000/svg">
<path d="M31.2053 45.3001C24.0541 45.3001 19.1528 43.7222 17.7074 43.3096C16.8682 43.0701 16.5479 42.8831 16.4123 42.5003C16.4056 42.4813 16.3993 42.4619 16.3935 42.4419M31.2053 45.3001C38.3565 45.3001 43.2597 43.7222 44.7051 43.3096C45.5802 43.0598 45.891 42.8672 46.0166 42.45M31.2053 45.3001L31.2057 18.7501M31.2057 18.7501C31.2057 18.7501 29.7247 21.231 28.5153 22.1655C27.3058 23.1001 25.9765 22.1593 24.0058 19.8001C22.5107 18.0102 21.3405 16.7633 19.7849 14.6461C19.3492 14.0531 18.4498 12.9776 17.8778 12.0914M31.2057 18.7501C31.2057 18.7501 29.0861 16.5499 27.1256 14.5172C25.7336 13.074 23.0692 10.1253 22.6532 9.69845C22.6317 9.67644 22.6104 9.65457 22.5891 9.63286M31.2057 18.7501C31.2057 18.7501 32.6867 21.231 33.8962 22.1656C35.1056 23.1001 36.4349 22.1593 38.4056 19.8001C39.9007 18.0102 41.0709 16.7633 42.6265 14.6461C43.062 14.0533 43.961 12.9784 44.533 12.0923M31.2057 18.7501C31.2057 18.7501 33.3253 16.5499 35.2858 14.5172C36.6778 13.074 39.3422 10.1253 39.7582 9.69846C39.7762 9.67998 39.7942 9.66161 39.812 9.64334M4.9218 58.4913C7.13047 58.7922 12.1446 59.2409 15.0049 58.6524M4.9218 58.4913C4.84453 60.4326 4.80469 61.8146 4.80469 62.1C4.80469 63 5.10455 63.6 6.00455 63.9C6.90455 64.2 12.0045 64.5 13.2045 64.2C14.4045 63.9 14.5762 63.0701 14.7045 62.1C14.734 61.8777 14.8407 60.6183 15.0049 58.6524M4.9218 58.4913C5.0882 54.3109 5.42813 47.5372 5.91742 43.5366C6.63392 37.6782 6.97436 32.8451 7.64279 28.5003C8.31122 24.1555 9.68828 19.0711 11.2774 17.3042C11.763 16.7642 12.9519 15.7286 14.5089 14.5268M15.0049 58.6524C15.3109 54.9893 15.8164 48.8732 16.3935 42.4419M57.4876 58.4913C55.2789 58.7922 50.2648 59.2409 47.4045 58.6524M57.4876 58.4913C57.5648 60.4326 57.6047 61.8146 57.6047 62.1C57.6047 63 57.3048 63.6 56.4048 63.9C55.5048 64.2 50.4049 64.5 49.2048 64.2C48.0048 63.9 47.8332 63.0701 47.7048 62.1C47.6754 61.8777 47.5687 60.6183 47.4045 58.6524M57.4876 58.4913C57.3212 54.3109 56.9812 47.5372 56.492 43.5366C55.7755 37.6782 55.435 32.8451 54.7666 28.5003C54.0982 24.1555 52.7211 19.0711 51.132 17.3042C50.6466 16.7644 49.4586 15.7296 47.9026 14.5285M47.4045 58.6524C47.0987 54.9908 46.5934 48.8783 46.0166 42.45M39.812 9.64334C37.6587 8.8111 34.5903 8.46631 31.2057 8.46631C27.8354 8.46631 24.7411 8.8082 22.5891 9.63286M39.812 9.64334C40.5872 8.85121 41.2415 8.26411 42.2512 8.70451C43.2842 9.15506 43.8689 9.53099 44.5179 10.0678C45.1668 10.6046 45.0474 11.2144 44.7463 11.7429C44.6826 11.8548 44.6108 11.9718 44.533 12.0923M22.5891 9.63286C21.8185 8.84604 21.1654 8.26604 20.1602 8.7045C19.1272 9.15505 18.5425 9.53098 17.8936 10.0678C17.2446 10.6046 17.364 11.2144 17.6651 11.7429C17.7287 11.8545 17.8002 11.9712 17.8778 12.0914M47.9026 14.5285C45.9167 17.8665 45.7351 24.2798 45.9052 27.1836C45.9052 35.5769 46.2054 39.9001 46.131 41.2702C46.1016 41.8108 46.0985 42.1781 46.0166 42.45M47.9026 14.5285C46.9019 13.756 45.749 12.9148 44.533 12.0923M14.5089 14.5268C16.4958 17.8643 16.6775 24.2793 16.5073 27.1836C16.5073 35.5769 16.2071 39.9001 16.2815 41.2702C16.3106 41.8055 16.3139 42.1708 16.3935 42.4419M14.5089 14.5268C15.5095 13.7545 16.6622 12.9136 17.8778 12.0914" stroke="#1E1E1E" stroke-width="0.6" stroke-linecap="round"/>
<path d="M34.8094 37.7998C34.8094 37.4684 34.5407 37.1998 34.2094 37.1998C33.878 37.1998 33.6094 37.4684 33.6094 37.7998C33.6094 38.1312 33.878 38.3998 34.2094 38.3998C34.5407 38.3998 34.8094 38.1312 34.8094 37.7998Z" fill="#1E1E1E"/>
<path d="M34.8094 30.5998C34.8094 30.2684 34.5407 29.9998 34.2094 29.9998C33.878 29.9998 33.6094 30.2684 33.6094 30.5998C33.6094 30.9312 33.878 31.1998 34.2094 31.1998C34.5407 31.1998 34.8094 30.9312 34.8094 30.5998Z" fill="#1E1E1E"/>
<path d="M34.8094 23.3998C34.8094 23.0684 34.5407 22.7998 34.2094 22.7998C33.878 22.7998 33.6094 23.0684 33.6094 23.3998C33.6094 23.7312 33.878 23.9998 34.2094 23.9998C34.5407 23.9998 34.8094 23.7312 34.8094 23.3998Z" fill="#1E1E1E"/>
</svg>
