<svg width="64" height="84" viewBox="0 0 64 84" fill="none" xmlns="http://www.w3.org/2000/svg">
<path d="M31.801 52.5001C24.6742 52.5001 19.1842 50.9329 17.7161 50.5139L17.7011 50.5096C16.2557 50.097 16.3497 49.8403 16.2752 48.4702C16.2196 47.4449 16.7097 45.0027 16.9599 37.126M31.801 52.5001C38.9258 52.5001 44.413 50.9338 45.8828 50.5142L45.8989 50.5096C47.3443 50.097 47.2503 49.8403 47.3248 48.4702C47.3804 47.4449 46.8903 45.0028 46.6401 37.1263M31.801 52.5001L31.7995 18.7501M31.7995 18.7501C31.7995 18.7501 30.3184 21.231 29.109 22.1655C27.8996 23.1001 26.5703 22.1593 24.5996 19.8001C23.1044 18.0102 21.9342 16.7633 20.3787 14.6461C19.8839 13.9727 18.791 12.677 18.2589 11.7429C17.9577 11.2144 17.8384 10.6046 18.4873 10.0678C19.1362 9.53098 19.721 9.15505 20.754 8.7045C21.7592 8.26604 22.4122 8.84604 23.1829 9.63286M31.7995 18.7501C31.7995 18.7501 29.6799 16.5499 27.7194 14.5172C26.3274 13.074 23.663 10.1253 23.247 9.69845C23.2255 9.67644 23.2041 9.65457 23.1829 9.63286M31.7995 18.7501C31.7995 18.7501 33.2805 21.231 34.4899 22.1656C35.6993 23.1001 37.0287 22.1593 38.9993 19.8001C40.4945 18.0102 41.6647 16.7633 43.2203 14.6461C43.6488 14.0629 44.526 13.0127 45.099 12.1351M31.7995 18.7501C31.7995 18.7501 33.919 16.5499 35.8796 14.5172C37.2715 13.074 39.9359 10.1253 40.352 9.69846C40.37 9.67998 40.3879 9.66161 40.4058 9.64334M7.66206 32.6294C7.58059 33.4937 7.53191 34.3222 7.53125 35.0935C7.53009 36.4627 8.38634 36.5928 9.48043 36.8433C10.433 37.0614 13.3724 37.5036 16.9599 37.126M7.66206 32.6294C7.85992 30.5302 8.25116 28.2195 8.61733 26.0014L8.62627 25.9473C9.13776 22.8487 9.44282 21.0006 10.9051 18.5461C11.4229 17.677 13.0385 16.179 15.1243 14.5634M7.66206 32.6294C9.73465 33.028 13.7188 33.5585 17.0558 33.0754M55.9348 32.6294C56.0163 33.4937 56.065 34.3222 56.0656 35.0935C56.0668 36.4627 55.2105 36.5928 54.1164 36.8433C53.1641 37.0614 50.2262 37.5034 46.6401 37.1263M55.9348 32.6294C55.737 30.5302 55.3457 28.2195 54.9795 26.0014L54.9706 25.9473C54.4591 22.8487 54.1541 21.0006 52.6918 18.5461C52.1742 17.6773 50.5595 16.18 48.4747 14.565M55.9348 32.6294C53.8629 33.0279 49.8806 33.5581 46.5443 33.0759M40.4058 9.64334C38.2524 8.8111 35.184 8.46631 31.7995 8.46631C28.4291 8.46631 25.3348 8.8082 23.1829 9.63286M40.4058 9.64334C41.1809 8.85121 41.8353 8.26411 42.845 8.70451C43.8779 9.15506 44.4627 9.53099 45.1116 10.0678C45.7605 10.6046 45.6412 11.2144 45.34 11.7429C45.2688 11.868 45.1875 11.9995 45.099 12.1351M46.5443 33.0759C46.5156 31.3203 46.4989 29.3642 46.4989 27.1836C46.3294 24.2903 46.5091 17.9131 48.4747 14.565M46.5443 33.0759C46.5686 34.5653 46.6015 35.9106 46.6401 37.1263M17.0558 33.0754C17.0844 31.3199 17.1011 29.364 17.1011 27.1836C17.2706 24.2899 17.0908 17.911 15.1243 14.5634M17.0558 33.0754C17.0315 34.5649 16.9986 35.9102 16.9599 37.126M15.1243 14.5634C16.1556 13.7645 17.302 12.9368 18.4873 12.1422M45.099 12.1351C46.2889 12.9324 47.4397 13.7632 48.4747 14.565" stroke="#1E1E1E" stroke-width="0.6" stroke-linecap="round"/>
<path d="M35.4031 44.9998C35.4031 44.6684 35.1345 44.3998 34.8031 44.3998C34.4718 44.3998 34.2031 44.6684 34.2031 44.9998C34.2031 45.3312 34.4718 45.5998 34.8031 45.5998C35.1345 45.5998 35.4031 45.3312 35.4031 44.9998Z" fill="#1E1E1E"/>
<path d="M35.4031 37.7998C35.4031 37.4684 35.1345 37.1998 34.8031 37.1998C34.4718 37.1998 34.2031 37.4684 34.2031 37.7998C34.2031 38.1312 34.4718 38.3998 34.8031 38.3998C35.1345 38.3998 35.4031 38.1312 35.4031 37.7998Z" fill="#1E1E1E"/>
<path d="M35.4031 30.5998C35.4031 30.2684 35.1345 29.9998 34.8031 29.9998C34.4718 29.9998 34.2031 30.2684 34.2031 30.5998C34.2031 30.9312 34.4718 31.1998 34.8031 31.1998C35.1345 31.1998 35.4031 30.9312 35.4031 30.5998Z" fill="#1E1E1E"/>
<path d="M35.4031 23.3998C35.4031 23.0684 35.1345 22.7998 34.8031 22.7998C34.4718 22.7998 34.2031 23.0684 34.2031 23.3998C34.2031 23.7312 34.4718 23.9998 34.8031 23.9998C35.1345 23.9998 35.4031 23.7312 35.4031 23.3998Z" fill="#1E1E1E"/>
</svg>
