<svg width="63" height="102" viewBox="0 0 63 102" fill="none" xmlns="http://www.w3.org/2000/svg">
<path d="M31.4023 32.8154C30.8143 35.4651 30.4776 40.5736 30.2512 41.1522C30.0247 41.7311 29.8683 42.0788 28.2872 42.3565C27.5102 42.493 24.9521 42.668 22.3844 42.6512C19.7271 42.6339 15.717 42.3565 13.7339 42.0141C11.7509 41.6717 11.8744 40.7758 11.8775 38.6707C11.8806 36.5656 12.3193 32.7899 12.6864 30.5415C13.0535 28.2931 13.3669 26.1605 13.7497 24.0337M31.4023 32.8154C31.9903 35.4651 32.327 40.5736 32.5534 41.1522C32.78 41.7311 32.9364 42.0788 34.5174 42.3565C35.2944 42.493 37.8525 42.668 40.4203 42.6512C43.0776 42.6339 47.0877 42.3565 49.0707 42.0141C51.0537 41.6717 50.9303 40.7758 50.9272 38.6707C50.9241 36.5656 50.4722 32.3431 50.1182 30.2061C49.7642 28.0692 49.3822 25.9993 49.0707 23.906M31.4023 32.8154L31.3928 24.1848M47.9038 16.1998C47.7264 14.7788 47.5057 13.4094 47.0894 12.8546C46.6731 12.2998 45.8815 12.2998 44.9024 12.2998H41.0038M47.9038 16.1998C48.124 17.9643 48.7592 21.8127 49.0707 23.906M47.9038 16.1998H41.0038M41.0038 12.2998H38.3038M41.0038 12.2998V16.1998M41.0038 16.1998C41.1214 18.5531 42.1995 20.9296 43.7038 22.1998C45.2678 23.5205 47.5707 23.906 49.0707 23.906M41.0038 16.1998H38.3038M38.3038 16.1998V12.2998M38.3038 16.1998H32.5073M38.3038 12.2998L21.7927 12.2998M14.8934 16.1998C15.0708 14.7788 15.2907 13.4094 15.7071 12.8546C16.1234 12.2998 16.915 12.2998 17.894 12.2998L21.7927 12.2998M14.8934 16.1998C14.6731 17.9643 14.1326 21.907 13.7497 24.0337M14.8934 16.1998H21.7927M21.7927 12.2998V16.1998M21.7927 16.1998C21.675 18.5531 20.597 20.9296 19.0927 22.1998C17.5287 23.5205 15.2497 24.0337 13.7497 24.0337M21.7927 16.1998H30.3146M24.4927 16.1998V12.2998M31.3928 24.1848C31.1238 24.1794 30.4571 23.9762 30.4092 23.3425C30.3607 22.6999 30.3132 19.1107 30.3146 16.1998M31.3928 24.1848C31.6633 24.1794 32.3649 23.9762 32.4127 23.3425C32.4612 22.6999 32.5087 19.1107 32.5073 16.1998M30.3146 16.1998H32.5073" stroke="black" stroke-width="0.6" stroke-linecap="round"/>
</svg>
