<svg width="64" height="102" viewBox="0 0 64 102" fill="none" xmlns="http://www.w3.org/2000/svg">
<path d="M31.7983 35.9998C31.2104 38.6544 30.9127 47.9493 30.7119 58.8604C30.7119 59.4813 30.2632 59.886 28.6822 60.1637C27.9052 60.3002 25.3471 60.4753 22.7793 60.4585C20.122 60.4411 16.2544 60.2273 15.5384 60.0988C14.1306 59.8461 11.7154 59.8461 11.7188 58.691C11.7221 57.5359 13.2405 40.9055 13.6842 35.9998C14.1279 31.0941 14.6281 25.1384 14.6503 23.9998M31.7983 35.9998C31.7986 35.9983 31.7979 36.0013 31.7983 35.9998ZM31.7983 35.9998C32.3862 38.6544 32.6818 47.9493 32.8826 58.8604C32.8826 59.4813 33.3313 59.886 34.9124 60.1637C35.6894 60.3002 38.2475 60.4753 40.8152 60.4585C43.4725 60.4411 47.3402 60.2273 48.0561 60.0988C49.4639 59.8461 51.8792 59.8461 51.8758 58.691C51.8724 57.5359 50.6284 40.33 50.1512 36.0044C49.674 31.6788 48.9583 25.1384 48.9361 23.9998M31.7983 35.9998C31.7979 35.9983 31.7966 36.0013 31.7963 35.9998M31.7983 35.9998L31.7877 24.1848M29.4816 26.7724H23.2426M29.4816 28.5287L25.7275 29.3766M34.1129 26.7724H40.352M34.1129 28.5287L37.8671 29.3766M48.2987 16.1998C48.1214 14.7788 47.9007 13.4094 47.4844 12.8546C47.0681 12.2998 46.2764 12.2998 45.2974 12.2998H41.3987M48.2987 16.1998C48.519 17.9643 48.8743 20.8385 48.9361 23.9998M48.2987 16.1998H41.3987M41.3987 12.2998H38.6987M41.3987 12.2998V16.1998M41.3987 16.1998C41.5164 18.5531 42.5944 20.9296 44.0987 22.1998C45.6627 23.5205 47.4361 23.9998 48.9361 23.9998M41.3987 16.1998H38.6987M38.6987 16.1998V12.2998M38.6987 16.1998H32.9023M38.6987 12.2998L22.1877 12.2998M15.2883 16.1998C15.4657 14.7788 15.6857 13.4094 16.102 12.8546C16.5183 12.2998 17.31 12.2998 18.289 12.2998L22.1877 12.2998M15.2883 16.1998C15.0681 17.9643 14.7121 20.8385 14.6503 23.9998M15.2883 16.1998H22.1877M22.1877 12.2998V16.1998M22.1877 16.1998C22.07 18.5531 20.992 20.9296 19.4877 22.1998C17.9237 23.5205 16.1503 23.9998 14.6503 23.9998M22.1877 16.1998H30.7096M24.8877 16.1998V12.2998M31.7877 24.1848C31.5188 24.1794 30.852 23.9762 30.8042 23.3425C30.7557 22.6999 30.7082 19.1107 30.7096 16.1998M31.7877 24.1848C32.0583 24.1794 32.7598 23.9762 32.8076 23.3425C32.8561 22.6999 32.9036 19.1107 32.9023 16.1998M30.7096 16.1998H32.9023" stroke="black" stroke-width="0.6" stroke-linecap="round"/>
</svg>
