<svg width="63" height="102" viewBox="0 0 63 102" fill="none" xmlns="http://www.w3.org/2000/svg">
<path d="M31.3991 35.9998C30.8106 38.6483 30.5136 47.943 30.3127 58.8604C30.3127 59.4813 29.864 59.886 28.283 60.1637C27.506 60.3002 24.7827 60.5074 23.0552 60.525C21.3276 60.5427 18.4036 60.3887 17.5647 60.2784C16.7258 60.168 14.3162 59.8461 14.3196 58.691C14.323 57.5359 14.2488 33.0212 14.2505 30.5463C14.2521 28.0714 14.2299 25.1384 14.2521 23.9998M31.3991 35.9998C31.9877 38.6483 32.2846 47.943 32.4855 58.8604C32.4855 59.4813 32.9342 59.886 34.5152 60.1637C35.2922 60.3002 38.0155 60.5074 39.743 60.525C41.4706 60.5427 44.3946 60.3887 45.2335 60.2784C46.0724 60.168 48.482 59.8461 48.4786 58.691C48.4753 57.5359 48.5379 35.1499 48.5379 32.2632C48.5379 29.3766 48.5602 25.1384 48.5379 23.9998M31.3991 35.9998L31.3896 24.1848M29.0835 26.7724H22.8444M29.0835 28.5287L25.3293 29.3766M33.7147 26.7724H39.9538M33.7147 28.5287L37.4689 29.3766M47.9006 16.1998C47.7232 14.7788 47.5025 13.4094 47.0862 12.8546C46.6699 12.2998 45.8782 12.2998 44.8992 12.2998H41.0006M47.9006 16.1998C48.1208 17.9643 48.4762 20.8385 48.5379 23.9998M47.9006 16.1998H41.0006M41.0006 12.2998H38.3006M41.0006 12.2998V16.1998M41.0006 16.1998C41.1182 18.5531 42.1963 20.9296 43.7006 22.1998C45.2646 23.5205 47.0379 23.9998 48.5379 23.9998M41.0006 16.1998H38.3006M38.3006 16.1998V12.2998M38.3006 16.1998H32.5041M38.3006 12.2998L21.7895 12.2998M14.8902 16.1998C15.0675 14.7788 15.2875 13.4094 15.7038 12.8546C16.1202 12.2998 16.9118 12.2998 17.8908 12.2998L21.7895 12.2998M14.8902 16.1998C14.6699 17.9643 14.3139 20.8385 14.2521 23.9998M14.8902 16.1998H21.7895M21.7895 12.2998V16.1998M21.7895 16.1998C21.6718 18.5531 20.5938 20.9296 19.0895 22.1998C17.5255 23.5205 15.7521 23.9998 14.2521 23.9998M21.7895 16.1998H30.3114M24.4895 16.1998V12.2998M31.3896 24.1848C31.1206 24.1794 30.4539 23.9762 30.406 23.3425C30.3575 22.6999 30.31 19.1107 30.3114 16.1998M31.3896 24.1848C31.6601 24.1794 32.3616 23.9762 32.4095 23.3425C32.458 22.6999 32.5055 19.1107 32.5041 16.1998M30.3114 16.1998H32.5041" stroke="black" stroke-width="0.6" stroke-linecap="round"/>
</svg>
