<svg width="63" height="102" viewBox="0 0 63 102" fill="none" xmlns="http://www.w3.org/2000/svg">
<path d="M31.0007 32.4979C30.4122 35.1464 30.1328 39.8973 29.9143 40.6575C29.6959 41.4176 29.4657 41.683 27.8846 41.9608C27.1076 42.0973 24.3843 42.3044 22.6568 42.3221C20.9292 42.3397 18.0052 42.1858 17.1663 42.0754C16.3274 41.965 13.9178 41.6431 13.9212 40.488C13.9246 39.3329 13.8475 31.1502 13.8507 29.1279C13.8538 27.1056 13.8315 25.1384 13.8538 23.9998M31.0007 32.4979C31.5893 35.1464 31.8687 39.8973 32.0871 40.6575C32.3055 41.4176 32.5358 41.683 34.1168 41.9608C34.8938 42.0973 37.6171 42.3044 39.3447 42.3221C41.0722 42.3397 43.9962 42.1858 44.8351 42.0754C45.6741 41.965 48.0837 41.6431 48.0803 40.488C48.0769 39.3329 48.1395 31.0894 48.1395 28.9197C48.1395 26.7499 48.1618 25.1384 48.1395 23.9998M31.0007 32.4979L30.9912 24.1848M47.5022 16.1998C47.3248 14.7788 47.1042 13.4094 46.6878 12.8546C46.2715 12.2998 45.4799 12.2998 44.5008 12.2998H40.6022M47.5022 16.1998C47.7225 17.9643 48.0778 20.8385 48.1395 23.9998M47.5022 16.1998H40.6022M40.6022 12.2998H37.9022M40.6022 12.2998V16.1998M40.6022 16.1998C40.7199 18.5531 41.7979 20.9296 43.3022 22.1998C44.8662 23.5205 46.6395 23.9998 48.1395 23.9998M40.6022 16.1998H37.9022M37.9022 16.1998V12.2998M37.9022 16.1998H32.1057M37.9022 12.2998L21.3911 12.2998M14.4918 16.1998C14.6692 14.7788 14.8892 13.4094 15.3055 12.8546C15.7218 12.2998 16.5134 12.2998 17.4925 12.2998L21.3911 12.2998M14.4918 16.1998C14.2715 17.9643 13.9155 20.8385 13.8538 23.9998M14.4918 16.1998H21.3911M21.3911 12.2998V16.1998M21.3911 16.1998C21.2734 18.5531 20.1954 20.9296 18.6911 22.1998C17.1271 23.5205 15.3538 23.9998 13.8538 23.9998M21.3911 16.1998H29.913M24.0911 16.1998V12.2998M30.9912 24.1848C30.7222 24.1794 30.0555 23.9762 30.0076 23.3425C29.9591 22.6999 29.9116 19.1107 29.913 16.1998M30.9912 24.1848C31.2617 24.1794 31.9633 23.9762 32.0111 23.3425C32.0596 22.6999 32.1071 19.1107 32.1057 16.1998M29.913 16.1998H32.1057" stroke="black" stroke-width="0.6" stroke-linecap="round"/>
</svg>
