<svg width="63" height="102" viewBox="0 0 63 102" fill="none" xmlns="http://www.w3.org/2000/svg">
<path d="M13.9287 27.4889C13.979 33.3127 16.3221 57.5359 16.3187 58.691C16.3153 59.8461 18.5691 60.3126 19.8885 60.4104C21.2078 60.5081 24.4361 60.5227 25.6301 60.2882C26.8241 60.0537 28.7118 59.4813 28.7118 58.8604C28.9128 47.943 29.4391 37.8223 30.9982 35.9998M30.9982 35.9998C32.5574 37.8223 33.0837 47.943 33.2846 58.8604C33.2846 59.4813 35.1724 60.0537 36.3664 60.2882C37.5604 60.5227 40.7886 60.5081 42.108 60.4104C43.4273 60.3126 45.6812 59.8461 45.6778 58.691C45.6744 57.5359 48.0188 33.3127 48.0691 27.4889C48.1433 26.3142 48.1593 25.1384 48.137 23.9998M30.9982 35.9998L30.9887 24.1848M28.6826 26.7724H22.4435M28.6826 28.5287L24.9285 29.3766M33.3139 26.7724H39.5529M33.3139 28.5287L37.068 29.3766M47.4997 16.1998C47.3223 14.7788 47.1017 13.4094 46.6853 12.8546C46.269 12.2998 45.4774 12.2998 44.4983 12.2998H40.5997M47.4997 16.1998C47.72 17.9643 48.0753 20.8385 48.137 23.9998M47.4997 16.1998H40.5997M40.5997 12.2998H37.8997M40.5997 12.2998V16.1998M40.5997 16.1998C40.7174 18.5531 41.7954 20.9296 43.2997 22.1998C44.8637 23.5205 46.637 23.9998 48.137 23.9998M40.5997 16.1998H37.8997M37.8997 16.1998V12.2998M37.8997 16.1998H32.1032M37.8997 12.2998L21.3886 12.2998M14.4893 16.1998C14.6667 14.7788 14.8867 13.4094 15.303 12.8546C15.7193 12.2998 16.5109 12.2998 17.49 12.2998L21.3886 12.2998M14.4893 16.1998C14.269 17.9643 13.913 20.8385 13.8513 23.9998M14.4893 16.1998H21.3886M13.9306 27.4889C13.8564 26.3142 13.829 25.1384 13.8513 23.9998M21.3886 12.2998V16.1998M21.3886 16.1998C21.271 18.5531 20.1929 20.9296 18.6886 22.1998C17.1246 23.5205 15.3513 23.9998 13.8513 23.9998M21.3886 16.1998H29.9105M24.0886 16.1998V12.2998M30.9887 24.1848C30.7197 24.1794 30.053 23.9762 30.0051 23.3425C29.9567 22.6999 29.9091 19.1107 29.9105 16.1998M30.9887 24.1848C31.2592 24.1794 31.9608 23.9762 32.0086 23.3425C32.0571 22.6999 32.1046 19.1107 32.1032 16.1998M29.9105 16.1998H32.1032" stroke="black" stroke-width="0.6" stroke-linecap="round"/>
</svg>
