<svg width="63" height="102" viewBox="0 0 63 102" fill="none" xmlns="http://www.w3.org/2000/svg">
<path d="M16.0318 41.7913C12.6721 41.1624 11.3438 40.5 11.3438 40.5C11.3438 40.5 12.1028 28.2 13.0006 22.2C13.8984 16.2 15.1618 12 15.1618 12H46.8359C46.8359 12 48.0993 16.2 48.9971 22.2C49.895 28.2 50.654 40.5 50.654 40.5C50.654 40.5 49.3265 41.1949 45.9668 41.8237M16.0318 41.7913C16.1262 38.3071 16.4484 29.13 17.3353 23.0747M16.0318 41.7913C16.0254 42.0293 16.02 42.2408 16.0155 42.4229C17.3625 42.66 19.4274 42.936 21.4603 43.1166M21.4603 43.1166C21.5894 39.4371 21.9244 31.0114 22.5059 23.6727M21.4603 43.1166L21.4478 43.4794C22.9369 43.6052 24.9613 43.7056 26.8533 43.7664M26.8533 43.7664C26.9927 39.8806 27.3651 29.5661 27.588 24.0463M26.8533 43.7664L26.8398 44.1431C28.0619 44.1796 29.5979 44.1997 30.9984 44.1997C32.399 44.1997 33.9358 44.1796 35.1579 44.1431L35.1444 43.7664M45.9668 41.8237C45.8735 38.3644 45.5521 29.1489 44.6625 23.0747M45.9668 41.8237C45.9729 42.0486 45.978 42.2491 45.9822 42.4229M45.9668 41.8237L45.9822 42.4229M45.9822 42.4229C44.6352 42.66 42.5713 42.9635 40.5383 43.1441M40.5383 43.1441C40.41 39.4792 40.0748 31.0297 39.4919 23.6727M40.5383 43.1441L40.55 43.4794C39.0608 43.6052 37.0364 43.7056 35.1444 43.7664M35.1444 43.7664C35.0051 39.8806 34.6326 29.5661 34.4098 24.0463" stroke="black" stroke-width="0.6" stroke-linecap="round"/>
</svg>
