<svg width="63" height="102" viewBox="0 0 63 102" fill="none" xmlns="http://www.w3.org/2000/svg">
<path d="M18.847 90.6C18.847 90.6 17.3504 68.6161 16.7527 61.0874C16.155 53.5586 14.3657 40.9103 14.0661 28.2621C13.8977 24.5232 14.0705 23.7448 14.367 19.5287C14.6634 15.3126 15.563 12 15.563 12H47.237C47.237 12 48.1366 15.3126 48.433 19.5287C48.7295 23.7448 48.9023 24.5232 48.7339 28.2621C48.4343 40.9103 46.645 53.5586 46.0473 61.0874C45.4496 68.6161 43.953 90.6 43.953 90.6C40.7 91.5 35 91.8 31.4 91.8C27.8 91.8 22.1 91.5 18.847 90.6Z" stroke="black" stroke-width="0.6" stroke-linecap="round"/>
</svg>
