<svg width="64" height="102" viewBox="0 0 64 102" fill="none" xmlns="http://www.w3.org/2000/svg">
<path d="M16.034 89.7531C12.4956 89.1243 10.5 88.421 10.5 88.421C11.353 75.282 13.2284 31.242 14.6534 22.2C16.0784 13.158 16.3295 12 16.3295 12H47.2705C47.2705 12 47.5216 13.158 48.9466 22.2C50.3716 31.242 52.247 75.282 53.1 88.421C53.1 88.421 51.104 89.1084 47.5657 89.7372M16.034 89.7531C16.1788 83.2668 17.1941 34.3135 18.6186 23.0747M16.034 89.7531C16.0278 90.0288 16.0232 90.2278 16.0202 90.3439C17.4388 90.581 19.611 90.857 21.752 91.0376M21.752 91.0376C21.9013 85.2077 22.5666 33.6677 23.4641 23.6727M21.752 91.0376C21.7481 91.1905 21.7446 91.3119 21.7414 91.4004C23.3097 91.5262 25.4395 91.6265 27.4321 91.6874M27.4321 91.6874C27.6055 85.557 28.58 29.6101 28.8165 24.0463M27.4321 91.6874C27.4276 91.8475 27.4236 91.9737 27.4202 92.0641C28.7073 92.1006 30.325 92.1207 31.8 92.1207C33.275 92.1207 34.8927 92.1006 36.1798 92.0641C36.1764 91.9737 36.1724 91.8475 36.1679 91.6874M47.5657 89.7372C47.4196 83.1873 46.4047 34.3044 44.9814 23.0747M47.5657 89.7372C47.572 90.0212 47.5767 90.2256 47.5798 90.3439C46.1612 90.581 43.9894 90.8732 41.8484 91.0538M41.8484 91.0538C41.7 85.3041 41.0343 33.677 40.1359 23.6727M41.8484 91.0538C41.8521 91.1991 41.8556 91.3151 41.8586 91.4004C40.2903 91.5262 38.1605 91.6265 36.1679 91.6874M36.1679 91.6874C35.9945 85.557 35.02 29.6101 34.7835 24.0463" stroke="black" stroke-width="0.6" stroke-linecap="round"/>
</svg>
