<svg width="63" height="102" viewBox="0 0 63 102" fill="none" xmlns="http://www.w3.org/2000/svg">
<path d="M31.3955 12.2998H24.4984M14.8962 16.1998C15.1958 13.7998 15.4969 12.2998 17.8969 12.2998H21.7984M14.8962 16.1998H21.7726M14.8962 16.1998C14.7133 17.6655 14.4663 20.8747 14.3402 23.9997M31.3955 35.9998C30.1955 41.3998 29.5803 93.3518 29.5815 94.696C29.5826 96.0402 28.7233 95.9865 26.6427 96.1563C24.5621 96.3262 17.1368 96.1563 15.3547 96.1563C13.5727 96.1563 13.1034 95.5421 13.2637 94.3676C13.424 93.1931 17.017 66.4199 16.417 58.9199C15.817 51.4199 14.5953 41.9998 14.2945 29.3998C14.2287 27.9498 14.2599 25.9919 14.3402 23.9997M21.7938 94.3399C21.7938 81.1759 22.1544 35.1017 22.6236 24.5308M21.7984 12.2998L21.7726 16.1998M21.7984 12.2998H24.4984M21.7726 16.1998C21.6549 18.5531 20.6028 20.9296 19.0984 22.1998C17.5489 23.5082 15.8306 23.9908 14.3402 23.9997M21.7726 16.1998H24.4984M24.4984 16.1998V12.2998M24.4984 16.1998H30.3297M31.4013 12.2998H38.2984M47.9007 16.1998C47.6011 13.7998 47.3 12.2998 44.9 12.2998H40.9984M47.9007 16.1998C48.2003 18.5998 48.6715 25.6752 48.5024 29.3998C48.2016 41.9998 46.9798 51.4199 46.3798 58.9199C45.7798 66.4199 49.3729 93.1931 49.5332 94.3676C49.6935 95.5421 49.2242 96.1563 47.4422 96.1563C45.6601 96.1563 38.2347 96.3262 36.1542 96.1563C34.0736 95.9865 33.2142 96.0402 33.2154 94.696C33.2165 93.3518 32.6013 41.3998 31.4013 35.9998M47.9007 16.1998H40.9984M41.0031 94.3399C41.0031 81.1759 40.6425 35.1017 40.1733 24.5308M40.9984 12.2998V16.1998M40.9984 12.2998H38.2984M40.9984 16.1998C41.1161 18.5531 42.1941 20.9296 43.6984 22.1998C45.2624 23.5205 46.9984 23.9998 48.4984 23.9998M40.9984 16.1998H38.2984M38.2984 16.1998V12.2998M38.2984 16.1998H32.5224M30.3297 16.1998C30.3283 19.1107 30.3758 22.6999 30.4243 23.3425C30.4722 23.9762 31.0691 24.1847 31.3968 24.1847C31.7245 24.1847 32.38 23.9761 32.4278 23.3424C32.4763 22.6999 32.5238 19.1107 32.5224 16.1998M30.3297 16.1998H32.5224" stroke="black" stroke-width="0.6" stroke-linecap="round"/>
</svg>
