<svg width="64" height="102" viewBox="0 0 64 102" fill="none" xmlns="http://www.w3.org/2000/svg">
<path d="M15.2942 16.1998C15.5938 13.7998 15.8949 12.2998 18.2949 12.2998H22.1922M15.2942 16.1998H22.1922M15.2942 16.1998C15.1211 17.5869 14.9506 20.9319 14.8355 23.9984M22.1881 94.34C22.1881 81.1759 22.5488 35.1017 23.0179 24.5308M22.1922 12.2998V16.1998M22.1922 12.2998H24.8922M22.1922 16.1998C22.0745 18.5531 20.9965 20.9296 19.4922 22.1998C17.9777 23.4786 16.302 23.9686 14.8355 23.9984M22.1922 16.1998H24.8922M24.8922 16.1998V12.2998M24.8922 16.1998H30.7235M24.8922 12.2998H38.7016M48.2995 16.1998C48 13.7998 47.6989 12.2998 45.2989 12.2998L41.3932 12.2998M48.2995 16.1998H41.3932M48.2995 16.1998C48.4727 17.5869 48.6432 20.9319 48.7583 23.9984M41.4056 94.34C41.4056 81.1759 41.0449 35.1017 40.5758 24.5308M41.3932 12.2998V16.1998M41.3932 12.2998L38.7016 12.2998M41.3932 16.1998C41.5109 18.5531 42.5972 20.9296 44.1016 22.1998C45.616 23.4786 47.2917 23.9686 48.7583 23.9984M41.3932 16.1998H38.7016M38.7016 16.1998V12.2998M38.7016 16.1998H32.9162M30.7235 16.1998C30.7221 19.1107 30.7696 22.7 30.8181 23.3425C30.8659 23.9762 31.5216 24.1793 31.7906 24.1848M30.7235 16.1998H32.9162M31.8016 24.1849C31.798 24.1849 31.7943 24.1848 31.7906 24.1848M31.7906 24.1848C31.7868 24.1848 31.7831 24.1849 31.7795 24.1849M31.7906 24.1848C32.0611 24.1793 32.7737 23.9762 32.8215 23.3425C32.87 22.6999 32.9175 19.1107 32.9162 16.1998M48.7583 23.9984C48.8423 26.2377 48.8969 28.3285 48.9013 29.3998C48.9118 31.9382 50.0308 55.0876 50.1013 61.1998C50.1717 67.312 51.3453 87.1222 51.3438 93.7141V93.7258C51.3438 94.7538 51.3438 95.1459 50.7087 95.6169C50.1743 96.0132 50.1786 95.9998 48.6853 95.9998H35.1257C33.4885 95.9998 33.1219 95.2929 33.1219 94.34C32.9219 79.94 32.9935 41.3998 31.7935 35.9998C30.5935 41.3998 30.6718 79.94 30.4718 94.34C30.4718 95.2929 30.1052 95.9998 28.4681 95.9998H14.9085C13.4152 95.9998 13.4195 96.0132 12.885 95.6169C12.25 95.1459 12.25 94.7538 12.25 93.7258L12.25 93.7141C12.2485 87.1222 13.422 67.312 13.4925 61.1998C13.5629 55.0876 14.682 31.9382 14.6925 29.3998C14.6969 28.3285 14.7514 26.2377 14.8355 23.9984" stroke="black" stroke-width="0.6" stroke-linecap="round"/>
</svg>
