<svg width="63" height="102" viewBox="0 0 63 102" fill="none" xmlns="http://www.w3.org/2000/svg">
<path d="M30.9972 12.2998H24.0938M30.9972 35.9998C29.7972 41.3998 28.8498 91.174 28.8322 92.8905C28.8145 94.6071 28.8972 95.9998 27.1797 95.9998H15.6313C13.6287 95.9998 13.5951 94.7542 13.5507 93.1063L13.5504 93.0971C13.5059 91.4446 13.8965 65.1964 13.8961 61.1998C13.8957 57.2032 13.8856 31.9382 13.8961 29.3998C13.9005 28.3285 13.955 26.2377 14.0391 23.9983M21.3873 94.3399C21.3873 81.1759 21.748 35.1017 22.2171 24.5308M14.4938 16.1998H21.3938M21.3938 12.2998H24.0938M21.3938 12.2998H17.4985C15.0985 12.2998 14.7974 13.7998 14.4978 16.1998C14.3247 17.5869 14.1542 20.9318 14.0391 23.9983M21.3938 12.2998V16.1998M21.3938 16.1998C21.2761 18.5531 20.1981 20.9296 18.6938 22.1998C17.18 23.478 15.5051 23.9681 14.0391 23.9983M21.3938 16.1998H24.0938M24.0938 16.1998V12.2998M24.0938 16.1998H29.925M30.9903 12.2998H37.8938M47.4897 16.1998C47.1901 13.7998 46.889 12.2998 44.489 12.2998H40.5938M47.4897 16.1998H40.5938M47.4897 16.1998C47.6628 17.5869 47.8333 20.9318 47.9484 23.9983M30.9903 35.9998C32.1903 41.3998 33.1377 91.174 33.1553 92.8905C33.173 94.6071 33.0903 95.9998 34.8078 95.9998H46.3562C48.3588 95.9998 48.3924 94.7542 48.4368 93.1063L48.4371 93.0971C48.4816 91.4446 48.091 65.1964 48.0914 61.1998C48.0918 57.2032 48.1019 31.9382 48.0914 29.3998C48.087 28.3285 48.0325 26.2377 47.9484 23.9983M40.6002 94.3399C40.6002 81.1759 40.2395 35.1017 39.7704 24.5308M40.5938 12.2998V16.1998M40.5938 12.2998H37.8938M40.5938 16.1998C40.7114 18.5531 41.7894 20.9296 43.2938 22.1998C44.8075 23.478 46.4824 23.9681 47.9484 23.9983M40.5938 16.1998H37.8938M37.8938 16.1998H32.1177M37.8938 16.1998V12.2998M29.925 16.1998C29.9236 19.1107 29.9712 22.6999 30.0197 23.3425C30.0675 23.9762 30.7232 24.1793 30.9921 24.1847C31.2627 24.1793 31.9753 23.9762 32.0231 23.3425C32.0716 22.6999 32.1191 19.1107 32.1177 16.1998M29.925 16.1998H32.1177" stroke="black" stroke-width="0.6" stroke-linecap="round"/>
</svg>
