<svg width="63" height="84" viewBox="0 0 63 84" fill="none" xmlns="http://www.w3.org/2000/svg">
<path d="M31.0125 50.2689C35.9883 50.9793 40.5731 50.8733 42.3137 50.5449C44.8956 50.0578 47.4276 48.5425 45.2943 42.4728C45.693 41.3883 46.6408 38.7456 46.0499 32.4353C43.5306 28.0857 43.7944 22.89 43.8968 21.9001C44.0288 20.6255 44.8939 16.7818 46.051 15.1551C47.2082 13.5284 46.4724 12.9662 45.3967 12.0001C45.1417 11.7711 44.6925 11.4219 44.0817 11.0527C43.471 10.6836 42.735 10.241 42.258 10.1058C41.7376 9.9584 41.2625 10.0053 40.8208 10.1796M31.0125 50.2689C26.027 50.9833 21.4296 50.8739 19.686 50.5449C17.1041 50.0578 14.5721 48.5425 16.7054 42.4728C16.3066 41.388 15.3582 38.7438 15.9504 32.429C18.4658 28.0807 18.2022 22.8895 18.0998 21.9001C17.9678 20.6255 17.1027 16.7818 15.9456 15.1551C14.7885 13.5284 15.5242 12.9662 16.5999 12.0001C16.8549 11.7711 17.1733 11.5432 17.9149 11.0527C18.6565 10.5622 19.3605 10.1903 19.8722 10.074C20.3441 9.96676 20.7785 10.0193 21.1848 10.1796M31.0125 50.2689C33.4092 49.9254 35.8956 49.3916 38.1978 48.6002M30.9998 43.0126C34.5335 42.7876 42.3998 40.9126 42.3998 38.8126C42.3998 37.9126 40.5998 37.6126 38.7998 37.9126M21.1848 10.1796C23.3434 9.13383 27.202 8.46631 30.9606 8.46631C34.7192 8.46631 38.6621 9.13383 40.8208 10.1796M21.1848 10.1796C22.4311 10.6716 23.4127 12.1782 24.3999 13.2004C26.0578 14.9169 28.8562 17.7502 29.5013 18.199C30.1464 18.6478 30.4456 18.7504 30.9981 18.7504C31.5506 18.7504 31.8592 18.6478 32.5043 18.199C33.1494 17.7502 35.9478 14.9169 37.6057 13.2004C38.5929 12.1782 39.5745 10.6716 40.8208 10.1796" stroke="#1E1E1E" stroke-width="0.6" stroke-linecap="round"/>
</svg>
