<svg width="63" height="84" viewBox="0 0 63 84" fill="none" xmlns="http://www.w3.org/2000/svg">
<path d="M18.0067 26.9998C17.1781 30.5998 16.5782 36.2998 16.8068 38.6998C17.0354 41.0998 17.7067 43.1998 20.7068 43.4998C22.7005 43.6992 26.6431 43.8125 31.2026 43.1308M31.2026 43.1308C35.7639 43.8131 39.7082 43.6992 41.7026 43.4998C44.7027 43.1998 45.374 41.0998 45.6026 38.6998C45.8277 36.3359 45.2491 30.7703 44.4398 27.1635C43.7348 26.975 42.894 26.791 41.9279 26.6487C41.1896 26.54 40.4011 26.4601 39.5809 26.4015M31.2026 43.1308C33.504 42.7867 35.9625 42.2401 38.4069 41.3998M31.2047 35.8123C34.7384 35.5873 42.6047 33.7123 42.6047 31.6123C42.6047 30.7123 40.8047 30.4123 39.0047 30.7123M19.5659 10.917C20.7628 13.2161 21.9567 24.166 21.9128 26.4015M21.9128 26.4015C21.0927 26.4601 20.3042 26.54 19.5659 26.6487C19.0257 26.7283 18.5246 26.8209 18.0646 26.92M21.9128 26.4015C24.7142 26.2014 27.8854 26.2502 30.6909 26.2502C33.4963 26.2502 36.7795 26.2014 39.5809 26.4015M41.9279 10.917C40.731 13.2161 39.5371 24.166 39.5809 26.4015" stroke="#1E1E1E" stroke-width="0.6" stroke-linecap="round"/>
</svg>
