<svg width="63" height="84" viewBox="0 0 63 84" fill="none" xmlns="http://www.w3.org/2000/svg">
<path d="M31.201 43.1309C35.7622 43.8132 39.7066 43.6993 41.7009 43.4999C44.701 43.1999 45.3723 41.0999 45.6009 38.6999C45.7921 36.6919 45.4034 32.3737 44.786 28.9082C43.8617 25.6365 44.0245 22.6286 44.1 21.8999C44.2319 20.6253 45.097 16.7816 46.2542 15.1549C47.4113 13.5282 46.6755 12.966 45.5999 11.9999C45.2609 11.6955 44.3291 10.9876 43.5287 10.5156C42.7283 10.0436 41.9197 9.53696 41.5173 9.40628C40.8505 9.18976 40.3779 9.33577 39.9584 9.70216M31.201 43.1309C26.6414 43.8126 22.6988 43.6993 20.7051 43.4999C17.705 43.1999 17.0337 41.0999 16.8051 38.6999C16.6133 36.686 17.0049 32.3484 17.6254 28.8779C18.5402 25.6179 18.3781 22.6264 18.3029 21.8999C18.1709 20.6253 17.3059 16.7816 16.1487 15.1549C14.9916 13.5282 15.7273 12.966 16.803 11.9999C17.1803 11.6611 18.1854 10.9875 19.0071 10.4159C19.8288 9.84432 20.4502 9.55624 20.8431 9.42102C21.5268 9.18567 22.0084 9.32511 22.4341 9.69183M31.201 43.1309C33.5023 42.7868 35.9608 42.2402 38.4052 41.3999M31.203 35.8124C34.7367 35.5874 42.603 33.7124 42.603 31.6124C42.603 30.7124 40.803 30.4124 39.003 30.7124M39.9584 9.70216C37.7988 8.82696 34.6286 8.46582 31.1647 8.46582C27.7145 8.46582 24.5929 8.82411 22.4341 9.69183M39.9584 9.70216C39.546 10.0624 39.1849 10.6356 38.7413 11.2867C37.5739 13 35.1016 15.2998 31.2006 15.2998C27.2995 15.2998 24.8306 13 23.6632 11.2867C23.2152 10.6293 22.8515 10.0513 22.4341 9.69183" stroke="#1E1E1E" stroke-width="0.6" stroke-linecap="round"/>
</svg>
