<svg width="63" height="84" viewBox="0 0 63 84" fill="none" xmlns="http://www.w3.org/2000/svg">
<path d="M29.7372 71.4059C33.67 72.0321 44.1981 72.2189 45.6981 72.1093C47.1981 71.9998 48.2886 71.0998 48.3434 69.5998C48.3981 68.0998 47.944 66.4373 47.4982 65.0998C47.9885 61.6978 49.2985 60.8998 48.0982 52.1998C46.9943 44.1982 47.4564 33.8978 47.4982 28.3416C47.4982 28.3416 44.9817 27.1288 41.7216 26.6487C40.9833 26.54 40.1948 26.4601 39.3747 26.4015M29.7372 71.4059C23.5879 72.1262 17.267 72.2323 16.2988 72.1093C14.7988 71.9189 13.8987 71.3998 13.6729 70.0699C13.4471 68.74 14.0189 66.5392 14.4987 65.0998C14.0084 61.6978 12.6984 60.8998 13.8986 52.1998C15.0273 44.0185 14.5189 33.4339 14.4966 27.9744C15.0837 27.7098 16.7726 27.0297 19.3596 26.6487C20.0979 26.54 20.8864 26.4601 21.7066 26.4015M29.7372 71.4059C33.1144 71.0104 36.4399 70.4296 38.7986 69.5998M30.9984 63.5998C34.5321 63.3748 42.3984 61.4998 42.3984 59.3998C42.3984 58.4998 40.5984 58.1998 38.7984 58.4998M19.3596 10.917C20.5565 13.2161 21.7504 24.166 21.7066 26.4015M21.7066 26.4015C24.508 26.2014 27.6792 26.2502 30.4846 26.2502C33.2901 26.2502 36.5733 26.2014 39.3747 26.4015M41.7216 10.917C40.5247 13.2161 39.3308 24.166 39.3747 26.4015" stroke="#1E1E1E" stroke-width="0.6" stroke-linecap="round"/>
</svg>
