<svg width="64" height="84" viewBox="0 0 64 84" fill="none" xmlns="http://www.w3.org/2000/svg">
<path d="M31.7924 43.131C36.3537 43.8133 40.298 43.6994 42.2924 43.5C45.2925 43.2 45.9638 41.1 46.1924 38.7C46.3873 36.6526 45.9794 32.2038 45.341 28.7058C44.4949 25.5338 44.618 22.6098 44.6915 21.9C44.8234 20.6254 45.6885 16.7817 46.8456 15.155C48.0028 13.5283 46.6695 12.6879 45.5938 11.7218C44.8335 11.1609 44.2609 10.9866 43.7477 11.7695M31.7924 43.131C27.2329 43.8127 23.2903 43.6994 21.2966 43.5C18.2965 43.2 17.6252 41.1 17.3966 38.7C17.2048 36.6861 17.5964 32.3485 18.2169 28.878C19.1317 25.618 18.9696 22.6265 18.8944 21.9C18.7624 20.6254 17.8973 16.7817 16.7402 15.155C15.5831 13.5283 16.8928 12.6879 17.9685 11.7218M31.7924 43.131C34.0938 42.7869 36.5523 42.2403 38.9967 41.4M31.7945 35.8125C35.3282 35.5875 43.1945 33.7125 43.1945 31.6125C43.1945 30.7125 41.3945 30.4125 39.5945 30.7125M19.814 11.7661C23.563 10.6859 28.4762 10.3154 31.7945 10.3154C35.1164 10.3154 39.9972 10.6867 43.7477 11.7695M19.814 11.7661C19.3014 10.9871 18.7295 11.1617 17.9703 11.7218M19.814 11.7661C19.9088 11.9102 20.0016 12.0868 20.0931 12.2997C20.6798 13.6637 21.1856 15.1701 21.5931 16.4997C22.0006 17.8294 22.4933 17.9997 23.6933 17.9997C24.8933 17.9997 27.5933 17.3997 31.7933 17.3997C35.9933 17.3997 38.6706 17.9997 39.8706 17.9997C41.0706 17.9997 41.5634 17.8294 41.9709 16.4997C42.3783 15.1701 42.8842 13.6637 43.4709 12.2997C43.5617 12.0885 43.6537 11.9129 43.7477 11.7695" stroke="#1E1E1E" stroke-width="0.6" stroke-linecap="round"/>
</svg>
