<svg width="63" height="84" viewBox="0 0 63 84" fill="none" xmlns="http://www.w3.org/2000/svg">
<path d="M33.357 61.3642C36.2197 62.1993 45.2068 62.5531 46.1068 62.4764C47.0068 62.3998 47.9068 61.7998 48.1243 60.5998C48.3418 59.3998 47.7956 56.9663 47.3067 55.4998C47.797 52.0978 48.5068 48.0647 47.3068 42.5998C46.6481 39.6 46.7441 32.874 46.7136 27.854C45.9587 27.5407 44.3856 26.981 42.1294 26.6487C41.3911 26.54 40.6027 26.4601 39.7825 26.4015M33.357 61.3642C26.3952 62.4815 17.8433 62.654 16.7039 62.5093C15.2039 62.3189 14.1341 61.7998 14.069 60.2998C14.0039 58.7998 14.436 56.9031 14.9038 55.4998C14.4134 52.0978 13.7037 48.0647 14.9037 42.5998C15.5774 39.5314 16.0228 32.5644 16.0975 27.5124C16.9604 27.2207 18.1988 26.8797 19.7674 26.6487C20.5057 26.54 21.2942 26.4601 22.1144 26.4015M33.357 61.3642C35.5603 61.0107 37.6042 60.5625 39.2036 59.9998M31.4062 53.9998C34.9399 53.7748 42.8063 51.8998 42.8063 49.7998C42.8063 48.8998 41.0063 48.5998 39.2063 48.8998M19.7674 10.917C20.9643 13.2161 22.1582 24.166 22.1144 26.4015M22.1144 26.4015C24.9158 26.2014 28.087 26.2502 30.8924 26.2502C33.6979 26.2502 36.9811 26.2014 39.7825 26.4015M42.1294 10.917C40.9325 13.2161 39.7386 24.166 39.7825 26.4015" stroke="#1E1E1E" stroke-width="0.6" stroke-linecap="round"/>
</svg>
