<svg width="63" height="84" viewBox="0 0 63 84" fill="none" xmlns="http://www.w3.org/2000/svg">
<path d="M31.0049 43.131C35.5661 43.8133 39.5105 43.6994 41.5048 43.5C44.5049 43.2 45.1762 41.1 45.4048 38.7C45.596 36.692 45.2073 32.3738 44.5899 28.9083C43.6656 25.6366 43.8285 22.6287 43.9039 21.9C44.0359 20.6254 44.9009 16.7817 46.0581 15.155C47.2152 13.5283 47.2693 13.106 46.1936 12.1399C44.5985 10.5782 43.7183 10.9172 42.9492 11.7664M31.0049 43.131C26.4454 43.8127 22.5028 43.6994 20.509 43.5C17.509 43.2 16.8376 41.1 16.6091 38.7C16.4165 36.6777 16.8121 32.3124 17.4371 28.8347C18.2561 25.6991 18.1796 22.603 18.1068 21.9C17.9749 20.6254 17.1098 16.7817 15.9526 15.155C14.7955 13.5283 14.743 13.106 15.8186 12.1399C17.4084 10.5834 18.2881 10.915 19.0553 11.7578M31.0049 43.131C33.3062 42.7869 35.7647 42.2403 38.2091 41.4M31.0069 35.8125C34.5406 35.5875 42.4069 33.7125 42.4069 31.6125C42.4069 30.7125 40.6069 30.4125 38.8069 30.7125M42.9492 11.7664C39.2001 10.6859 34.2864 10.3154 30.9678 10.3154C27.658 10.3154 22.8004 10.684 19.0553 11.7578M42.9492 11.7664C42.6154 12.1349 42.3026 12.5996 41.9613 13.0466C40.8339 14.5235 38.4498 18.6003 31.0062 18.6003C23.5627 18.6003 21.1784 14.5235 20.051 13.0466C19.7071 12.5961 19.392 12.1277 19.0553 11.7578" stroke="#1E1E1E" stroke-width="0.6" stroke-linecap="round"/>
</svg>
