<svg width="63" height="84" viewBox="0 0 63 84" fill="none" xmlns="http://www.w3.org/2000/svg">
<path d="M29.9403 71.4061C33.8731 72.0323 44.4013 72.2191 45.9013 72.1095C47.4013 72 48.4917 71.1 48.5465 69.6C48.6013 68.1 48.1471 66.4375 47.7013 65.1C48.1916 61.698 49.5016 60.9 48.3014 52.2C47.5244 46.5683 47.5232 39.7978 47.6052 34.3441C43.6483 29.7641 43.9804 23.0405 44.0985 21.9C44.2305 20.6254 45.0956 16.7817 46.2527 15.155C47.4099 13.5283 46.0765 12.6879 45.0008 11.7218C44.2405 11.1609 43.668 10.9866 43.1548 11.7695M29.9403 71.4061C23.791 72.1264 17.4702 72.2325 16.5019 72.1095C15.0019 71.9191 14.1019 71.4 13.8761 70.0701C13.6503 68.7402 14.222 66.5394 14.7018 65.1C14.2115 61.698 12.9015 60.9 14.1018 52.2C14.8789 46.567 14.8799 39.7948 14.7979 34.3405C18.7516 29.7606 18.4195 23.0402 18.3015 21.9C18.1695 20.6254 17.3044 16.7817 16.1473 15.155C14.9901 13.5283 16.3017 12.6879 17.3773 11.7218C18.1365 11.1617 18.7084 10.9871 19.2211 11.7661M29.9403 71.4061C33.3176 71.0106 36.6431 70.4298 39.0017 69.6M31.2016 63.6C34.7352 63.375 42.6016 61.5 42.6016 59.4C42.6016 58.5 40.8016 58.2 39.0016 58.5M19.2211 11.7661C22.97 10.6859 27.8832 10.3154 31.2016 10.3154C34.5235 10.3154 39.4043 10.6867 43.1548 11.7695M19.2211 11.7661C19.3159 11.9102 19.4086 12.0868 19.5002 12.2997C20.0868 13.6637 20.5927 15.1701 21.0002 16.4997C21.4077 17.8294 21.9004 17.9997 23.1004 17.9997C24.3004 17.9997 27.0004 17.3997 31.2004 17.3997C35.4004 17.3997 38.0777 17.9997 39.2777 17.9997C40.4777 17.9997 40.9704 17.8294 41.3779 16.4997C41.7854 15.1701 42.2913 13.6637 42.8779 12.2997C42.9688 12.0885 43.0608 11.9129 43.1548 11.7695" stroke="#1E1E1E" stroke-width="0.6" stroke-linecap="round"/>
</svg>
