<svg width="63" height="84" viewBox="0 0 63 84" fill="none" xmlns="http://www.w3.org/2000/svg">
<path d="M31.2227 50.2688C36.1985 50.9792 40.7832 50.8732 42.5239 50.5448C45.1058 50.0577 47.6378 48.5424 45.5045 42.4727C45.9032 41.3882 46.851 38.7455 46.2601 32.4352C43.7408 28.0856 44.0045 22.8899 44.107 21.9C44.239 20.6254 45.1041 16.7817 46.2612 15.155C47.4183 13.5283 47.4725 13.106 46.3968 12.1399C44.8017 10.5782 43.9214 10.9172 43.1524 11.7664M31.2227 50.2688C26.2372 50.9832 21.6398 50.8738 19.8961 50.5448C17.3143 50.0577 14.7822 48.5424 16.9156 42.4727C16.5167 41.3879 15.5684 38.7437 16.1606 32.4289C18.676 28.0806 18.4124 22.8894 18.31 21.9C18.178 20.6254 17.3129 16.7817 16.1558 15.155C14.9986 13.5283 14.9461 13.106 16.0218 12.1399C17.6115 10.5834 18.4912 10.915 19.2584 11.7578M31.2227 50.2688C33.6194 49.9253 36.1058 49.3915 38.408 48.6001M31.21 43.0125C34.7437 42.7875 42.61 40.9125 42.61 38.8125C42.61 37.9125 40.81 37.6125 39.01 37.9125M43.1524 11.7664C39.4033 10.6859 34.4896 10.3154 31.1709 10.3154C27.8611 10.3154 23.0035 10.684 19.2584 11.7578M43.1524 11.7664C42.8186 12.1349 42.5057 12.5996 42.1645 13.0466C41.0371 14.5235 38.6529 18.6003 31.2094 18.6003C23.7659 18.6003 21.3815 14.5235 20.2541 13.0466C19.9102 12.5961 19.5951 12.1277 19.2584 11.7578" stroke="#1E1E1E" stroke-width="0.6" stroke-linecap="round"/>
</svg>
