<svg width="64" height="84" viewBox="0 0 64 84" fill="none" xmlns="http://www.w3.org/2000/svg">
<path d="M30.5341 71.4062C34.4668 72.0324 44.995 72.2192 46.495 72.1096C47.995 72.0001 49.0855 71.1001 49.1403 69.6001C49.195 68.1001 48.7409 66.4376 48.295 65.1001C48.7853 61.6981 50.0954 60.9001 48.8951 52.2001C48.1161 46.5535 48.1169 39.762 48.1996 34.3009C44.2459 29.721 44.5742 23.0403 44.6923 21.9001C44.8243 20.6255 45.6893 16.7818 46.8465 15.1551C48.0036 13.5284 47.2679 12.9662 46.1922 12.0001C45.9372 11.7711 45.6384 11.5415 44.8772 11.0527C44.1159 10.5639 43.4301 10.1846 42.9145 10.0708C42.4481 9.96783 42.0184 10.0209 41.6162 10.1796M30.5341 71.4062C24.3848 72.1264 18.0639 72.2326 17.0957 72.1096C15.5957 71.9192 14.6956 71.4001 14.4698 70.0702C14.244 68.7403 14.8158 66.5395 15.2956 65.1001C14.8053 61.6981 13.4952 60.9001 14.6955 52.2001C15.4726 46.5671 15.4737 39.7949 15.3916 34.3406C19.3453 29.7607 19.0133 23.0403 18.8952 21.9001C18.7632 20.6255 17.8982 16.7818 16.741 15.1551C15.5839 13.5284 16.3196 12.9662 17.3953 12.0001C17.6881 11.7371 18.4399 11.2423 18.9883 10.8793C19.5367 10.5163 20.4231 10.0573 21.0335 10.0215C21.3668 10.002 21.6812 10.0616 21.9802 10.1796M30.5341 71.4062C33.9113 71.0107 37.2368 70.4299 39.5955 69.6001M31.7953 63.6001C35.329 63.3751 43.1953 61.5001 43.1953 59.4001C43.1953 58.5001 41.3953 58.2001 39.5953 58.5001M21.9802 10.1796C24.1389 9.13383 27.9974 8.46631 31.756 8.46631C35.5147 8.46631 39.4576 9.13383 41.6162 10.1796M21.9802 10.1796C23.2265 10.6716 24.2081 12.1782 25.1953 13.2004C26.8532 14.9169 29.6516 17.7502 30.2967 18.199C30.9418 18.6478 31.241 18.7504 31.7935 18.7504C32.3461 18.7504 32.6546 18.6478 33.2997 18.199C33.9448 17.7502 36.7432 14.9169 38.4012 13.2004C39.3883 12.1782 40.3699 10.6716 41.6162 10.1796" stroke="#1E1E1E" stroke-width="0.6" stroke-linecap="round"/>
</svg>
