<svg width="63" height="84" viewBox="0 0 63 84" fill="none" xmlns="http://www.w3.org/2000/svg">
<path d="M31.4162 50.2688C36.3919 50.9792 40.9767 50.8732 42.7174 50.5448C45.2992 50.0577 47.8313 48.5424 45.6979 42.4727C46.0967 41.3882 47.0445 38.7455 46.4536 32.4352C43.9342 28.0856 44.198 22.8899 44.3005 21.9C44.4325 20.6254 45.2975 16.7817 46.4547 15.155C47.6118 13.5283 46.2784 12.6879 45.2028 11.7218C44.4425 11.1609 43.87 10.9866 43.3568 11.7695M31.4162 50.2688C26.4307 50.9832 21.8332 50.8738 20.0896 50.5448C17.5078 50.0577 14.9757 48.5424 17.1091 42.4727C16.7102 41.3879 15.7619 38.7437 16.354 32.4289C18.8694 28.0806 18.6059 22.8894 18.5034 21.9C18.3715 20.6254 17.5064 16.7817 16.3493 15.155C15.1921 13.5283 16.5036 12.6879 17.5793 11.7218C18.3385 11.1617 18.9104 10.9871 19.423 11.7661M31.4162 50.2688C33.8129 49.9253 36.2993 49.3915 38.6015 48.6001M31.4035 43.0125C34.9372 42.7875 42.8035 40.9125 42.8035 38.8125C42.8035 37.9125 41.0035 37.6125 39.2035 37.9125M19.423 11.7661C23.172 10.6859 28.0852 10.3154 31.4036 10.3154C34.7254 10.3154 39.6063 10.6867 43.3568 11.7695M19.423 11.7661C19.5178 11.9102 19.6106 12.0868 19.7022 12.2997C20.2888 13.6637 20.7947 15.1701 21.2022 16.4997C21.6097 17.8294 22.1024 17.9997 23.3024 17.9997C24.5024 17.9997 27.2024 17.3997 31.4024 17.3997C35.6024 17.3997 38.2797 17.9997 39.4797 17.9997C40.6797 17.9997 41.1724 17.8294 41.5799 16.4997C41.9874 15.1701 42.4933 13.6637 43.0799 12.2997C43.1707 12.0885 43.2628 11.9129 43.3568 11.7695" stroke="#1E1E1E" stroke-width="0.6" stroke-linecap="round"/>
</svg>
