<svg width="63" height="84" viewBox="0 0 63 84" fill="none" xmlns="http://www.w3.org/2000/svg">
<path d="M29.7372 71.406C33.67 72.0322 44.1981 72.219 45.6981 72.1094C47.1981 71.9999 48.2886 71.0999 48.3434 69.5999C48.3981 68.0999 47.944 66.4374 47.4982 65.0999C47.9885 61.6979 49.2985 60.8999 48.0982 52.1999C47.3213 46.5682 47.3201 39.7977 47.4021 34.344C43.4452 29.764 43.7773 23.0404 43.8954 21.8999C44.0274 20.6253 44.8925 16.7816 46.0496 15.1549C47.2067 13.5282 46.471 12.966 45.3953 11.9999C45.085 11.7212 44.2685 11.1117 43.433 10.5761C42.5976 10.0406 41.7543 9.55888 41.3628 9.4231C40.6695 9.18264 40.1837 9.32666 39.7538 9.70216M29.7372 71.406C23.5879 72.1263 17.267 72.2324 16.2988 72.1094C14.7988 71.919 13.8987 71.3999 13.6729 70.07C13.4471 68.7401 14.0189 66.5393 14.4987 65.0999C14.0084 61.6979 12.6984 60.8999 13.8986 52.1999C14.6758 46.5669 14.6768 39.7947 14.5948 34.3404C18.5484 29.7605 18.2164 23.0401 18.0983 21.8999C17.9664 20.6253 17.1013 16.7816 15.9442 15.1549C14.787 13.5282 15.5228 12.966 16.5985 11.9999C16.9763 11.6606 17.9042 10.9729 18.6493 10.4761C19.3945 9.97932 20.2077 9.57782 20.5896 9.43836C21.2994 9.1792 21.7938 9.31643 22.2296 9.69183M29.7372 71.406C33.1144 71.0105 36.4399 70.4297 38.7986 69.5999M30.9984 63.5999C34.5321 63.3749 42.3984 61.4999 42.3984 59.3999C42.3984 58.4999 40.5984 58.1999 38.7984 58.4999M39.7538 9.70216C37.5942 8.82696 34.424 8.46582 30.9602 8.46582C27.5099 8.46582 24.3883 8.82411 22.2296 9.69183M39.7538 9.70216C39.3414 10.0624 38.9804 10.6356 38.5367 11.2867C37.3693 13 34.8971 15.2998 30.996 15.2998C27.0949 15.2998 24.626 13 23.4586 11.2867C23.0107 10.6293 22.647 10.0513 22.2296 9.69183" stroke="#1E1E1E" stroke-width="0.6" stroke-linecap="round"/>
</svg>
