<svg width="63" height="84" viewBox="0 0 63 84" fill="none" xmlns="http://www.w3.org/2000/svg">
<path d="M31.4041 43.1311C35.9653 43.8134 39.9097 43.6995 41.904 43.5001C44.9041 43.2001 45.5754 41.1001 45.804 38.7001C45.9952 36.6921 45.6065 32.3739 44.9891 28.9084C44.0648 25.6367 44.2276 22.6288 44.3031 21.9001C44.4351 20.6255 45.3001 16.7818 46.4573 15.1551C47.6144 13.5284 46.8787 12.9662 45.803 12.0001C45.548 11.7711 44.9661 11.3355 44.488 11.0527C44.0099 10.7699 43.2301 10.2938 42.788 10.1443C42.2189 9.95181 41.7036 9.99154 41.227 10.1796M31.4041 43.1311C26.8446 43.8127 22.902 43.6995 20.9082 43.5001C17.9082 43.2001 17.2368 41.1001 17.0082 38.7001C16.8165 36.6862 17.208 32.3486 17.8285 28.8781C18.7433 25.6181 18.5812 22.6266 18.506 21.9001C18.3741 20.6255 17.509 16.7818 16.3518 15.1551C15.1947 13.5284 15.9305 12.9662 17.0061 12.0001C17.2611 11.7711 17.9989 11.2372 18.5781 10.8335C19.1573 10.4298 19.6237 10.2723 20.0799 10.128C20.6293 9.95427 21.1284 9.99704 21.5911 10.1796M31.4041 43.1311C33.7054 42.787 36.1639 42.2404 38.6083 41.4001M31.4061 35.8126C34.9398 35.5876 42.8061 33.7126 42.8061 31.6126C42.8061 30.7126 41.0061 30.4126 39.2061 30.7126M21.5911 10.1796C23.7497 9.13383 27.6082 8.46631 31.3668 8.46631C35.1255 8.46631 39.0684 9.13383 41.227 10.1796M21.5911 10.1796C22.8374 10.6716 23.8189 12.1782 24.8061 13.2004C26.464 14.9169 29.2625 17.7502 29.9076 18.199C30.5527 18.6478 30.8518 18.7504 31.4043 18.7504C31.9569 18.7504 32.2654 18.6478 32.9105 18.199C33.5556 17.7502 36.354 14.9169 38.012 13.2004C38.9992 12.1782 39.9807 10.6716 41.227 10.1796" stroke="#1E1E1E" stroke-width="0.6" stroke-linecap="round"/>
</svg>
