<svg width="64" height="84" viewBox="0 0 64 84" fill="none" xmlns="http://www.w3.org/2000/svg">
<path d="M31.8142 50.2686C36.79 50.979 41.3748 50.873 43.1154 50.5446C45.6973 50.0575 48.2293 48.5422 46.096 42.4725C46.5858 41.1401 47.9046 37.4556 46.1802 27.5075C45.318 27.2169 44.0846 26.8784 42.5248 26.6487C41.7864 26.54 40.998 26.4601 40.1778 26.4015M31.8142 50.2686C26.8287 50.983 22.2313 50.8736 20.4876 50.5446C17.9058 50.0575 15.3737 48.5422 17.5071 42.4725C17.0124 41.127 15.6724 37.3827 17.4748 27.2114C18.2144 27.0064 19.1149 26.803 20.1627 26.6487C20.9011 26.54 21.6895 26.4601 22.5097 26.4015M31.8142 50.2686C34.2109 49.9251 36.6973 49.3913 38.9995 48.5999M31.8015 43.0123C35.3352 42.7873 43.2015 40.9123 43.2015 38.8123C43.2015 37.9123 41.4015 37.6123 39.6015 37.9123M20.1627 10.917C21.3597 13.2161 22.5536 24.166 22.5097 26.4015M22.5097 26.4015C25.3111 26.2014 28.4823 26.2502 31.2877 26.2502C34.0932 26.2502 37.3764 26.2014 40.1778 26.4015M42.5248 10.917C41.3279 13.2161 40.134 24.166 40.1778 26.4015" stroke="#1E1E1E" stroke-width="0.6" stroke-linecap="round"/>
</svg>
