<svg width="63" height="84" viewBox="0 0 63 84" fill="none" xmlns="http://www.w3.org/2000/svg">
<path d="M33.357 61.3643C36.2197 62.1994 45.2068 62.5532 46.1068 62.4765C47.0068 62.3999 47.9068 61.7999 48.1243 60.5999C48.3418 59.3999 47.7956 56.9664 47.3067 55.4999C47.797 52.0979 48.5068 48.0648 47.3068 42.5999C46.8538 40.5367 46.7577 36.7109 46.732 32.8898C43.9182 28.4555 44.1971 22.9246 44.3032 21.8999C44.4352 20.6253 45.3003 16.7816 46.4574 15.1549C47.6145 13.5282 46.8788 12.966 45.8031 11.9999C45.4099 11.6467 44.5707 10.9589 43.5953 10.3641C42.6198 9.76933 42.0259 9.48418 41.5975 9.36982C40.9948 9.20892 40.5549 9.35872 40.1616 9.70216M33.357 61.3643C26.3952 62.4816 17.8433 62.6541 16.7039 62.5094C15.2039 62.319 14.1341 61.7999 14.069 60.2999C14.0039 58.7999 14.436 56.9032 14.9038 55.4999C14.4134 52.0979 13.7037 48.0648 14.9037 42.5999C15.3456 40.5871 15.6893 36.8967 15.8946 33.1698C18.903 28.6916 18.6145 22.9462 18.5062 21.8999C18.3742 20.6253 17.5091 16.7816 16.352 15.1549C15.1948 13.5282 15.9306 12.966 17.0063 11.9999C17.3865 11.6584 18.4493 10.9389 19.2621 10.3815C20.075 9.8241 20.7864 9.4835 21.2151 9.36939C21.8109 9.21081 22.2476 9.35603 22.6374 9.69183M33.357 61.3643C35.5603 61.0108 37.6042 60.5626 39.2036 59.9999M31.4062 53.9999C34.9399 53.7749 42.8063 51.8999 42.8063 49.7999C42.8063 48.8999 41.0063 48.5999 39.2063 48.8999M40.1616 9.70216C38.002 8.82696 34.8319 8.46582 31.368 8.46582C27.9177 8.46582 24.7961 8.82411 22.6374 9.69183M40.1616 9.70216C39.7492 10.0624 39.3882 10.6356 38.9445 11.2867C37.7771 13 35.3049 15.2998 31.4038 15.2998C27.5027 15.2998 25.0338 13 23.8664 11.2867C23.4185 10.6293 23.0548 10.0513 22.6374 9.69183" stroke="#1E1E1E" stroke-width="0.6" stroke-linecap="round"/>
</svg>
