<svg width="64" height="84" viewBox="0 0 64 84" fill="none" xmlns="http://www.w3.org/2000/svg">
<path d="M33.7477 61.3644C36.6103 62.1995 45.5975 62.5533 46.4975 62.4766C47.3975 62.4 48.2975 61.8 48.5149 60.6C48.7324 59.4 48.1862 56.9665 47.6973 55.5C48.1877 52.098 48.8974 48.0649 47.6974 42.6C47.2444 40.5368 47.1483 36.711 47.1226 32.8899C44.3089 28.4556 44.5878 22.9247 44.6938 21.9C44.8258 20.6254 45.6909 16.7817 46.848 15.155C48.0052 13.5283 48.0593 13.106 46.9836 12.1399C45.3885 10.5782 44.5082 10.9172 43.7392 11.7664M33.7477 61.3644C26.7858 62.4817 18.234 62.6542 17.0945 62.5095C15.5945 62.3191 14.5248 61.8 14.4597 60.3C14.3945 58.8 14.8266 56.9033 15.2944 55.5C14.8041 52.098 14.0943 48.0649 15.2943 42.6C15.7363 40.5872 16.08 36.8968 16.2852 33.1699C19.2936 28.6917 19.0051 22.9463 18.8968 21.9C18.7648 20.6254 17.8997 16.7817 16.7426 15.155C15.5855 13.5283 15.5329 13.106 16.6086 12.1399C18.1983 10.5834 19.0781 10.915 19.8452 11.7578M33.7477 61.3644C35.9509 61.0109 37.9948 60.5627 39.5943 60M31.7969 54C35.3306 53.775 43.1969 51.9 43.1969 49.8C43.1969 48.9 41.3969 48.6 39.5969 48.9M43.7392 11.7664C39.9901 10.6859 35.0764 10.3154 31.7578 10.3154C28.4479 10.3154 23.5903 10.684 19.8452 11.7578M43.7392 11.7664C43.4054 12.1349 43.0925 12.5996 42.7513 13.0466C41.6239 14.5235 39.2397 18.6003 31.7962 18.6003C24.3527 18.6003 21.9683 14.5235 20.8409 13.0466C20.497 12.5961 20.182 12.1277 19.8452 11.7578" stroke="#1E1E1E" stroke-width="0.6" stroke-linecap="round"/>
</svg>
