<svg width="64" height="84" viewBox="0 0 64 84" fill="none" xmlns="http://www.w3.org/2000/svg">
<path d="M31.8094 50.2687C36.7852 50.9791 41.3699 50.8731 43.1106 50.5447C45.6925 50.0576 48.2245 48.5423 46.0912 42.4726C46.4899 41.3881 47.4377 38.7454 46.8468 32.4351C44.3275 28.0855 44.5912 22.8898 44.6937 21.8999C44.8257 20.6253 45.6908 16.7816 46.8479 15.1549C48.005 13.5282 47.2693 12.966 46.1936 11.9999C45.8188 11.6633 44.8461 10.8554 44.0432 10.4174C43.2403 9.9795 42.7051 9.64755 42.359 9.49981C41.5581 9.15798 41.0218 9.29193 40.5521 9.70216M31.8094 50.2687C26.8239 50.9831 22.2265 50.8737 20.4828 50.5447C17.901 50.0576 15.3689 48.5423 17.5023 42.4726C17.1034 41.3878 16.1551 38.7436 16.7473 32.4288C19.2627 28.0805 18.9991 22.8893 18.8967 21.8999C18.7647 20.6253 17.8996 16.7816 16.7425 15.1549C15.5853 13.5282 16.3211 12.966 17.3968 11.9999C17.7733 11.6618 18.8375 10.904 19.6161 10.3931C20.3946 9.88218 21.0083 9.57648 21.391 9.43725C22.0992 9.17959 22.5927 9.31696 23.0279 9.69183M31.8094 50.2687C34.2061 49.9252 36.6925 49.3914 38.9947 48.6M31.7967 43.0124C35.3304 42.7874 43.1967 40.9124 43.1967 38.8124C43.1967 37.9124 41.3967 37.6124 39.5967 37.9124M40.5521 9.70216C38.3925 8.82696 35.2224 8.46582 31.7585 8.46582C28.3082 8.46582 25.1866 8.82411 23.0279 9.69183M40.5521 9.70216C40.1397 10.0624 39.7787 10.6356 39.335 11.2867C38.1676 13 35.6954 15.2998 31.7943 15.2998C27.8932 15.2998 25.4243 13 24.2569 11.2867C23.809 10.6293 23.4453 10.0513 23.0279 9.69183" stroke="#1E1E1E" stroke-width="0.6" stroke-linecap="round"/>
</svg>
