<svg width="63" height="84" viewBox="0 0 63 84" fill="none" xmlns="http://www.w3.org/2000/svg">
<path d="M33.1539 61.3645C36.0165 62.1996 45.0037 62.5534 45.9037 62.4767C46.8037 62.4001 47.7037 61.8001 47.9212 60.6001C48.1386 59.4001 47.5925 56.9666 47.1036 55.5001C47.5939 52.0981 48.3037 48.065 47.1037 42.6001C46.6506 40.5369 46.5546 36.7111 46.5288 32.89C43.7151 28.4557 43.994 22.9248 44.1001 21.9001C44.2321 20.6255 45.0971 16.7818 46.2543 15.1551C47.4114 13.5284 46.6757 12.9662 45.6 12.0001C45.345 11.7711 44.7063 11.3273 44.1001 10.932C43.4939 10.5367 42.9552 10.2508 42.4847 10.1126C41.9551 9.95702 41.4724 10.0026 41.024 10.1796M33.1539 61.3645C26.192 62.4818 17.6402 62.6543 16.5008 62.5096C15.0008 62.3192 13.931 61.8001 13.8659 60.3001C13.8008 58.8001 14.2329 56.9034 14.7006 55.5001C14.2103 52.0981 13.5005 48.065 14.7005 42.6001C15.1425 40.5873 15.4862 36.8969 15.6915 33.17C18.6999 28.6918 18.4114 22.9464 18.303 21.9001C18.1711 20.6255 17.306 16.7818 16.1488 15.1551C14.9917 13.5284 15.7275 12.9662 16.8031 12.0001C17.0581 11.7711 17.422 11.5325 18.1181 11.0527C18.8142 10.5729 19.3786 10.2977 19.8183 10.1473C20.3909 9.95141 20.909 9.99057 21.388 10.1796M33.1539 61.3645C35.3571 61.011 37.4011 60.5628 39.0005 60.0001M31.2031 54.0001C34.7368 53.7751 42.6031 51.9001 42.6031 49.8001C42.6031 48.9001 40.8031 48.6001 39.0031 48.9001M21.388 10.1796C23.5467 9.13383 27.4052 8.46631 31.1638 8.46631C34.9225 8.46631 38.8654 9.13383 41.024 10.1796M21.388 10.1796C22.6344 10.6716 23.6159 12.1782 24.6031 13.2004C26.261 14.9169 29.0595 17.7502 29.7046 18.199C30.3497 18.6478 30.6488 18.7504 31.2013 18.7504C31.7539 18.7504 32.0624 18.6478 32.7075 18.199C33.3526 17.7502 36.151 14.9169 37.809 13.2004C38.7962 12.1782 39.7777 10.6716 41.024 10.1796" stroke="#1E1E1E" stroke-width="0.6" stroke-linecap="round"/>
</svg>
