<svg width="63" height="84" viewBox="0 0 63 84" fill="none" xmlns="http://www.w3.org/2000/svg">
<path d="M32.9508 61.3644C35.8134 62.1995 44.8006 62.5533 45.7006 62.4766C46.6006 62.4 47.5006 61.8 47.7181 60.6C47.9355 59.4 47.3893 56.9665 46.9005 55.5C47.3908 52.098 48.1006 48.0649 46.9006 42.6C46.4475 40.5368 46.3515 36.711 46.3257 32.8899C43.512 28.4556 43.7909 22.9247 43.897 21.9C44.0289 20.6254 44.894 16.7817 46.0512 15.155C47.2083 13.5283 45.8749 12.6879 44.7992 11.7218C44.0389 11.1609 43.4665 10.9866 42.9533 11.7695M32.9508 61.3644C25.9889 62.4817 17.4371 62.6542 16.2977 62.5095C14.7977 62.3191 13.7279 61.8 13.6628 60.3C13.5977 58.8 14.0297 56.9033 14.4975 55.5C14.0072 52.098 13.2974 48.0649 14.4974 42.6C14.9394 40.5872 15.2831 36.8968 15.4884 33.1699C18.4968 28.6917 18.2082 22.9463 18.0999 21.9C17.9679 20.6254 17.1029 16.7817 15.9457 15.155C14.7886 13.5283 16.1001 12.6879 17.1758 11.7218C17.935 11.1617 18.5069 10.9871 19.0195 11.7661M32.9508 61.3644C35.154 61.0109 37.198 60.5627 38.7974 60M31 54C34.5337 53.775 42.4 51.9 42.4 49.8C42.4 48.9 40.6 48.6 38.8 48.9M19.0195 11.7661C22.7685 10.6859 27.6817 10.3154 31 10.3154C34.3219 10.3154 39.2027 10.6867 42.9533 11.7695M19.0195 11.7661C19.1143 11.9102 19.2071 12.0868 19.2986 12.2997C19.8853 13.6637 20.3911 15.1701 20.7986 16.4997C21.2061 17.8294 21.6989 17.9997 22.8989 17.9997C24.0989 17.9997 26.7989 17.3997 30.9989 17.3997C35.1989 17.3997 37.8761 17.9997 39.0761 17.9997C40.2761 17.9997 40.7689 17.8294 41.1764 16.4997C41.5839 15.1701 42.0897 13.6637 42.6764 12.2997C42.7672 12.0885 42.8592 11.9129 42.9533 11.7695" stroke="#1E1E1E" stroke-width="0.6" stroke-linecap="round"/>
</svg>
