<svg width="58" height="54" viewBox="0 0 58 54" fill="none" xmlns="http://www.w3.org/2000/svg">
<path d="M9.24291 49.0651C8.33076 49.0827 7.56657 49.0929 7.0162 49.0929C4.37865 49.0929 2.55242 48.6652 1.5641 48.3498C0.986564 48.1654 0.580659 48.3498 0.555471 48.8082C0.530284 49.2667 0.452127 50.1825 0.696465 50.7236C1.13073 51.6853 3.33886 52.0145 6.55654 52.0981C9.77422 52.1817 25.2762 51.5147 26.5797 51.5147C27.8832 51.5147 27.7713 50.367 27.7548 49.4896C27.7383 48.6122 27.2531 48.5233 26.487 48.5498C24.8069 48.608 21.5939 48.7173 18.205 48.8227M9.24291 49.0651C11.6156 49.0192 14.9895 48.9227 18.205 48.8227M9.24291 49.0651C9.16185 48.0519 7.41521 46.0838 6.92225 45.6862C6.42929 45.2885 6.30586 44.3622 7.43341 43.9469C8.35744 43.6066 11.5125 42.4074 12.754 41.9857C13.9955 41.5639 14.5343 41.681 15.3733 42.4074C16.2122 43.1337 18.1362 45.3335 18.205 48.8227M48.3631 49.0652C49.2752 49.0828 50.0394 49.093 50.5898 49.093C53.2273 49.093 55.0535 48.6653 56.0419 48.3499C56.6194 48.1655 57.0253 48.3499 57.0505 48.8083C57.0757 49.2668 57.1538 50.1826 56.9095 50.7237C56.4752 51.6854 54.2671 52.0146 51.0494 52.0982C47.8317 52.1818 32.3297 51.5148 31.0263 51.5148C29.7228 51.5148 29.8346 50.3671 29.8511 49.4897C29.8676 48.6123 30.3529 48.5234 31.1189 48.5499C32.799 48.6081 36.0121 48.7174 39.4009 48.8228M48.3631 49.0652C45.9903 49.0193 42.6165 48.9228 39.4009 48.8228M48.3631 49.0652C48.4441 48.052 50.1907 46.0839 50.6837 45.6863C51.1767 45.2886 51.3001 44.3623 50.1726 43.947C49.2485 43.6067 46.0935 42.4075 44.852 41.9858C43.6104 41.5641 43.0717 41.6812 42.2327 42.4075C41.3938 43.1338 39.4697 45.3336 39.4009 48.8228" stroke="#1E1E1E" stroke-linecap="round" stroke-linejoin="round"/>
</svg>
