<svg width="63" height="54" viewBox="0 0 63 54" fill="none" xmlns="http://www.w3.org/2000/svg">
<path d="M29.0583 50.8695C29.0583 50.8695 29.3607 52.2258 28.5658 52.2258C27.771 52.2258 5.63972 52.2364 3.92297 52.2364C2.94988 52.2364 2.48748 52.2096 2.48748 51.4219C2.48748 51.1209 2.52236 50.9657 2.55458 50.8695M29.0583 50.8695C29.1027 48.5504 28.9597 46.4976 28.744 44.7993M29.0583 50.8695H22.6293M2.55458 50.8695C1.87903 49.0107 1.86442 47.3252 3.27154 45.9691C4.22119 45.0538 5.72766 44.4838 7.30878 44.0356M2.55458 50.8695H10.5895M22.6293 50.8695C22.8566 48.3836 25.4395 44.7993 28.744 44.7993M22.6293 50.8695H10.5895M28.744 44.7993C28.3951 42.0524 27.8562 40.2333 27.6132 39.7161C27.2199 38.8792 26.4197 38.5099 25.0732 38.8134C23.7267 39.1168 21.9692 38.9697 21.7352 38.8134M7.30878 44.0356C7.88421 44.3308 8.53717 44.7719 9.10854 45.5258M7.30878 44.0356C7.30878 44.0356 8.78839 43.5019 10.5467 42.8181M10.5895 50.8695C10.5296 48.201 9.89671 46.5658 9.10854 45.5258M21.7352 38.8134C21.5012 38.657 20.1631 38.0249 19.042 38.1905C17.9208 38.3562 17.439 39.2718 16.0817 40.3161C15.9845 40.3909 15.8563 40.4741 15.7019 40.564M21.7352 38.8134C20.5107 40.0212 19.1838 40.9939 17.7918 41.8471M10.5467 42.8181C11.5319 43.1518 12.4584 44.3126 12.4584 44.3126M10.5467 42.8181C11.4356 42.4725 12.3957 42.0885 13.2719 41.7158M12.4584 44.3126C10.5967 45.034 9.10854 45.5258 9.10854 45.5258M12.4584 44.3126C13.3342 43.9733 14.2926 43.5831 15.2177 43.1694M13.2719 41.7158C14.3048 42.0495 15.2177 43.1694 15.2177 43.1694M13.2719 41.7158C14.2649 41.2934 15.1502 40.8854 15.7019 40.564M15.2177 43.1694C15.6032 42.9969 15.983 42.8204 16.3485 42.6418C16.8362 42.4035 17.3178 42.1376 17.7918 41.8471M15.7019 40.564C16.6691 40.8032 17.7918 41.8471 17.7918 41.8471M33.2902 50.8695C33.2902 50.8695 32.9878 52.2258 33.7826 52.2258C34.5775 52.2258 56.7087 52.2364 58.4255 52.2364C59.3986 52.2364 59.861 52.2097 59.861 51.4219C59.861 51.121 59.8261 50.9657 59.7939 50.8695M33.2902 50.8695C33.2457 48.5505 33.3888 46.4976 33.6044 44.7994M33.2902 50.8695H39.7192M59.7939 50.8695C60.4694 49.0108 60.484 47.3252 59.0769 45.9691C58.1273 45.0539 56.6208 44.4839 55.0397 44.0356M59.7939 50.8695H51.7589M39.7192 50.8695C39.4919 48.3837 36.9089 44.7994 33.6044 44.7994M39.7192 50.8695H51.7589M33.6044 44.7994C33.9533 42.0525 34.4922 40.2334 34.7352 39.7162C35.1285 38.8792 35.9287 38.51 37.2752 38.8134C38.6217 39.1169 40.3793 38.9698 40.6133 38.8134M55.0397 44.0356C54.4642 44.3308 53.8113 44.7719 53.2399 45.5258M55.0397 44.0356C55.0397 44.0356 53.5601 43.5019 51.8017 42.8182M51.7589 50.8695C51.8188 48.201 52.4517 46.5658 53.2399 45.5258M40.6133 38.8134C40.8473 38.6571 42.1853 38.0249 43.3065 38.1906C44.4277 38.3562 44.9094 39.2718 46.2667 40.3162C46.3639 40.391 46.4922 40.4741 46.6465 40.564M40.6133 38.8134C41.8378 40.0213 43.1647 40.9939 44.5566 41.8471M51.8017 42.8182C50.8165 43.1519 49.89 44.3127 49.89 44.3127M51.8017 42.8182C50.9128 42.4725 49.9527 42.0886 49.0765 41.7158M49.89 44.3127C51.7517 45.0341 53.2399 45.5258 53.2399 45.5258M49.89 44.3127C49.0142 43.9733 48.0558 43.5831 47.1308 43.1694M49.0765 41.7158C48.0437 42.0495 47.1308 43.1694 47.1308 43.1694M49.0765 41.7158C48.0835 41.2934 47.1982 40.8854 46.6465 40.564M47.1308 43.1694C46.7452 42.997 46.3655 42.8205 45.9999 42.6418C45.5123 42.4035 45.0307 42.1377 44.5566 41.8471M46.6465 40.564C45.6793 40.8032 44.5566 41.8471 44.5566 41.8471" stroke="#1E1E1E" stroke-linecap="round" stroke-linejoin="round"/>
</svg>
