<svg width="64" height="54" viewBox="0 0 64 54" fill="none" xmlns="http://www.w3.org/2000/svg">
<path d="M60.4405 50.8695C61.1161 49.0107 61.1323 47.3252 59.7251 45.9691C58.7755 45.0538 57.269 44.4838 55.6879 44.0356M60.4405 50.8695C60.4405 50.8695 60.5092 51.1209 60.5092 51.4219C60.5092 52.2096 60.0468 52.2364 59.0737 52.2364C57.357 52.2364 35.2257 52.2258 34.4309 52.2258C33.636 52.2258 33.9384 50.8695 33.9384 50.8695M60.4405 50.8695H52.4072M33.9384 50.8695H40.3674M33.9384 50.8695C33.9029 49.0159 33.9614 46.9124 34.071 44.8607M40.3674 50.8695C40.1401 48.3836 37.3754 44.8607 34.071 44.8607M40.3674 50.8695H52.4072M34.071 44.8607C34.3202 40.1933 34.8339 35.7936 35.1071 35.2123C35.5004 34.3753 36.5938 33.7946 37.9403 34.0981C39.2868 34.4015 40.7098 34.5438 40.7098 34.5438M55.6879 44.0356C55.0993 44.3375 54.3573 44.7966 53.7955 45.4995M55.6879 44.0356C55.6879 44.0356 54.1966 43.5893 52.3679 42.8994M52.4072 50.8695C52.4661 48.2451 53.0503 46.4317 53.7955 45.4995M40.7098 34.5438C41.721 33.9144 42.8336 33.4729 43.9547 33.6386C44.8634 33.7728 44.4664 36.1661 45.3522 38.2379M40.7098 34.5438C41.0594 36.6892 41.693 38.3454 42.4893 39.4682M52.3679 42.8994C51.3827 43.2331 50.5496 44.3207 50.5496 44.3207M52.3679 42.8994C51.4883 42.5676 50.5307 42.1794 49.6234 41.7575M50.5496 44.3207C52.3639 45.025 53.7955 45.4995 53.7955 45.4995M50.5496 44.3207C49.6716 43.9798 48.7039 43.5851 47.7655 43.1642M49.6234 41.7575C48.5906 42.0912 47.7655 43.1642 47.7655 43.1642M49.6234 41.7575C48.7916 41.3707 48.0022 40.9555 47.354 40.5294M47.7655 43.1642C47.3856 42.9939 47.0106 42.8192 46.6482 42.6421C46.1998 42.423 45.6854 42.1805 45.1487 41.8653M47.354 40.5294C46.3868 40.7686 45.1487 41.8653 45.1487 41.8653M47.354 40.5294C46.8909 40.2249 46.4998 39.9147 46.2171 39.6054C45.8366 39.1891 45.5593 38.7223 45.3522 38.2379M45.1487 41.8653C44.2577 41.3419 43.3049 40.6181 42.4893 39.4682M45.3522 38.2379C44.1827 38.3643 42.4893 39.4682 42.4893 39.4682M3.15672 50.8695C2.48117 49.0107 2.465 47.3252 3.87212 45.9691C4.82177 45.0538 6.32824 44.4838 7.90936 44.0356M3.15672 50.8695C3.15672 50.8695 3.08806 51.1209 3.08806 51.4219C3.08806 52.2096 3.55046 52.2364 4.52355 52.2364C6.2403 52.2364 28.3716 52.2258 29.1664 52.2258C29.9612 52.2258 29.6588 50.8695 29.6588 50.8695M3.15672 50.8695H11.1901M29.6588 50.8695H23.2298M29.6588 50.8695C29.6944 49.0159 29.6359 46.9124 29.5263 44.8607M23.2298 50.8695C23.4571 48.3836 26.2218 44.8607 29.5263 44.8607M23.2298 50.8695H11.1901M29.5263 44.8607C29.277 40.1933 28.7633 35.7936 28.4901 35.2123C28.0969 34.3753 27.0034 33.7946 25.6569 34.0981C24.3105 34.4015 22.8874 34.5438 22.8874 34.5438M7.90936 44.0356C8.49792 44.3375 9.23996 44.7966 9.80176 45.4995M7.90936 44.0356C7.90936 44.0356 9.4007 43.5893 11.2294 42.8994M11.1901 50.8695C11.1312 48.2451 10.5469 46.4317 9.80176 45.4995M22.8874 34.5438C21.8762 33.9144 20.7637 33.4729 19.6425 33.6386C18.7338 33.7728 19.1308 36.1661 18.245 38.2379M22.8874 34.5438C22.5379 36.6892 21.9042 38.3454 21.1079 39.4682M11.2294 42.8994C12.2146 43.2331 13.0476 44.3207 13.0476 44.3207M11.2294 42.8994C12.109 42.5676 13.0666 42.1794 13.9738 41.7575M13.0476 44.3207C11.2334 45.025 9.80176 45.4995 9.80176 45.4995M13.0476 44.3207C13.9257 43.9798 14.8933 43.5851 15.8317 43.1642M13.9738 41.7575C15.0067 42.0912 15.8317 43.1642 15.8317 43.1642M13.9738 41.7575C14.8056 41.3707 15.5951 40.9555 16.2433 40.5294M15.8317 43.1642C16.2116 42.9939 16.5867 42.8192 16.9491 42.6421C17.3975 42.423 17.9118 42.1805 18.4486 41.8653M16.2433 40.5294C17.2105 40.7686 18.4486 41.8653 18.4486 41.8653M16.2433 40.5294C16.7064 40.2249 17.0974 39.9147 17.3802 39.6054C17.7607 39.1891 18.0379 38.7223 18.245 38.2379M18.4486 41.8653C19.3396 41.3419 20.2924 40.6181 21.1079 39.4682M18.245 38.2379C19.4145 38.3643 21.1079 39.4682 21.1079 39.4682" stroke="#1E1E1E" stroke-linecap="round" stroke-linejoin="round"/>
</svg>
