<svg width="63" height="84" viewBox="0 0 63 84" fill="none" xmlns="http://www.w3.org/2000/svg">
<path d="M15.3068 27C15.256 32.0824 13.5496 47.7 13.3016 49.5C13.0537 51.3 12.8848 53.7 13.3016 56.1C13.5447 57.4995 14.3064 58.8842 15.8071 60.0086M47.1088 27C47.1597 32.0824 48.8661 47.7 49.114 49.5C49.362 51.3 49.5308 53.7 49.114 56.1C48.8708 57.5001 48.1086 58.8855 46.6065 60.0101M31.209 61.5413C35.3897 62.3654 39.347 62.595 42.1761 61.9311C44.0838 61.4835 45.5338 60.8133 46.6065 60.0101M31.209 61.5413C27.0274 62.3658 23.0691 62.5951 20.2395 61.9311C18.3306 61.4832 16.88 60.8124 15.8071 60.0086M31.209 61.5413C33.7942 61.0315 36.4648 60.2943 39.0067 59.4M31.2078 53.8125C34.7415 53.5875 42.6078 51.7125 42.6078 49.6125C42.6078 48.7125 40.8078 48.4125 39.0078 48.7125M4.7168 60.5684C4.7168 60.5684 0.314998 56.0475 1.95003 46.9054C3.58506 37.7633 5.87977 29.3643 6.94656 25.2749C7.19647 24.573 8.54642 20.46 10.2669 19.7184M4.7168 60.5684C4.7168 60.5684 4.05169 61.9903 5.31517 63.0952C6.57864 64.2 11.5342 64.7554 13.0711 64.3711C14.6081 63.9869 14.1042 62.0136 14.1042 62.0136M4.7168 60.5684C5.74687 61.0895 9.50856 62.1801 14.1042 62.0136M14.1042 62.0136C14.1042 62.0136 14.8699 61.3962 15.8071 60.0086M57.6957 60.5684C57.6957 60.5684 62.0975 56.0475 60.4625 46.9054C58.8274 37.7633 55.9557 28.2473 55.0949 25.5009C54.2341 22.7545 53.0564 20.46 51.336 19.7184M57.6957 60.5684C57.6957 60.5684 58.3608 61.9903 57.0973 63.0952C55.8339 64.2 50.8783 64.7554 49.3414 64.3711C47.8044 63.9869 48.3083 62.0136 48.3083 62.0136M57.6957 60.5684C56.6656 61.0895 52.9039 62.1801 48.3083 62.0136M48.3083 62.0136C48.3083 62.0136 47.5432 61.3967 46.6065 60.0101M10.2669 19.7184C10.0592 17.899 13.0405 17.899 15.8251 17.899C15.9505 17.899 16.2217 17.9016 16.6126 17.906M10.2669 19.7184C13.823 19.7714 21.5103 20.0235 22.7087 19.8964C24.2067 19.7375 28.6778 19.8964 30.8052 19.8964C32.9326 19.8964 37.3962 19.7375 38.8942 19.8964C40.0926 20.0235 47.7799 19.7714 51.336 19.7184M16.1743 12.7998C16.3387 13.503 16.6565 15.6705 16.6126 17.906M16.6126 17.906C18.9299 17.932 25.4562 18.0202 30.7976 17.9943C36.1394 18.0202 42.6717 17.932 44.9902 17.906M51.336 19.7184C51.5436 17.899 48.5624 17.899 45.7778 17.899C45.6524 17.899 45.3812 17.9016 44.9902 17.906M45.4285 12.7998C45.2642 13.503 44.9464 15.6705 44.9902 17.906" stroke="#1E1E1E" stroke-width="0.6" stroke-linecap="round"/>
</svg>
