<svg width="63" height="84" viewBox="0 0 63 84" fill="none" xmlns="http://www.w3.org/2000/svg">
<path d="M15.5029 27C15.452 32.0824 14.6979 38.4866 13.4977 47.1866C12.5706 53.9065 12.0113 58.8153 12.0301 61.9981M47.3034 27C47.3542 32.0824 48.1083 38.4866 49.3086 47.1866C50.2356 53.9063 50.7949 58.8152 50.7761 61.998M31.4037 71.6688C36.0705 72.5517 40.6601 72.8141 43.5706 72.1311C48.0832 71.0722 50.0567 67.2896 50.5812 64.4875M31.4037 71.6688C26.7365 72.5519 22.1464 72.8142 19.2356 72.1311C14.723 71.0722 12.7495 67.2895 12.225 64.4874M31.4037 71.6688C34.0786 71.1627 36.7788 70.4528 39.2028 69.6M31.4031 63.6C34.9368 63.375 42.8031 61.5 42.8031 59.4C42.8031 58.5 41.0031 58.2 39.2031 58.5M4.91211 60.5684C4.91211 60.5684 0.510311 56.0475 2.14534 46.9054C3.78038 37.7633 6.07509 29.6276 7.14187 25.5383C7.95349 22.4271 8.66558 20.758 9.95501 18.8043C11.2444 16.8506 12.8562 14.9726 14.0416 13.7872C15.2271 12.6017 16.7023 11.7002 17.3023 11.7002M4.91211 60.5684C4.91211 60.5684 4.24701 61.9903 5.51048 63.0952C6.55982 64.0127 10.1558 64.5513 12.225 64.4874M4.91211 60.5684C5.76649 61.0006 8.50011 61.8247 12.0301 61.9981M57.891 60.5684C57.891 60.5684 62.2928 56.0475 60.6578 46.9054C59.0228 37.7633 56.728 29.6276 55.6613 25.5383C54.7349 21.9872 54.2827 20.8932 52.9237 18.2415C51.5647 15.5899 50.3383 14.6618 49.2777 13.7337C48.217 12.8056 46.1023 11.7002 45.5023 11.7002M57.891 60.5684C57.891 60.5684 58.5561 61.9903 57.2926 63.0952C56.2438 64.0123 52.6509 64.5508 50.5812 64.4875M57.891 60.5684C57.0369 61.0005 54.3046 61.8242 50.7761 61.998M17.3023 11.7002C17.8087 12.9527 19.4943 16.0533 21.8314 17.5948C24.7528 19.5217 27.4853 20.5784 31.4024 20.5784C35.3196 20.5784 38.0518 19.5217 40.9732 17.5948C43.3104 16.0533 44.9959 12.9527 45.5023 11.7002M17.3023 11.7002C18.102 10.9005 18.7318 11.1086 19.3967 11.7736M45.5023 11.7002C44.6993 10.8971 44.0676 11.1104 43.3996 11.782M19.3967 11.7736C23.1491 10.6876 28.038 10.3154 31.364 10.3154C34.6987 10.3154 39.6434 10.6895 43.3996 11.782M19.3967 11.7736C19.7295 12.1065 20.0711 12.5538 20.4472 13.0465C21.5746 14.5234 23.9589 18.6001 31.4024 18.6001C38.846 18.6001 41.2301 14.5234 42.3575 13.0465C42.7305 12.558 43.0695 12.114 43.3996 11.782M12.0301 61.9981C12.0357 62.936 12.0915 63.724 12.2028 64.3643C12.2099 64.4051 12.2173 64.4462 12.225 64.4874M50.7761 61.998C50.7706 62.9359 50.7148 63.724 50.6035 64.3643C50.5964 64.4052 50.5889 64.4462 50.5812 64.4875" stroke="#1E1E1E" stroke-width="0.6" stroke-linecap="round"/>
</svg>
