<svg width="63" height="84" viewBox="0 0 63 84" fill="none" xmlns="http://www.w3.org/2000/svg">
<path d="M15.5021 27C15.4513 32.0824 13.7449 47.7 13.4969 49.5C13.249 51.3 13.0801 53.7 13.4969 56.1C13.74 57.4995 14.5017 58.8842 16.0024 60.0086M47.3041 27C47.355 32.0824 49.0614 47.7 49.3093 49.5C49.5573 51.3 49.7261 53.7 49.3093 56.1C49.0662 57.5001 48.3039 58.8856 46.8018 60.0102M31.4043 61.5413C35.585 62.3654 39.5423 62.595 42.3714 61.9311C44.2791 61.4835 45.7291 60.8134 46.8018 60.0102M31.4043 61.5413C27.2228 62.3658 23.2645 62.5951 20.4348 61.9311C18.5259 61.4832 17.0753 60.8124 16.0024 60.0086M31.4043 61.5413C33.9895 61.0315 36.6601 60.2943 39.202 59.4M31.4031 53.8125C34.9368 53.5875 42.8031 51.7125 42.8031 49.6125C42.8031 48.7125 41.0031 48.4125 39.2031 48.7125M4.91211 60.5684C4.91211 60.5684 0.510311 56.0475 2.14534 46.9054C3.78038 37.7633 6.07509 29.6276 7.14187 25.5383C8.02821 22.1407 9.15064 20.2399 10.5301 17.9408C11.9096 15.6417 12.9707 14.5583 13.7842 13.8024C14.5977 13.0465 16.7023 11.7002 17.3023 11.7002M4.91211 60.5684C4.91211 60.5684 4.24701 61.9903 5.51048 63.0952C6.77396 64.2 11.7295 64.7554 13.2665 64.3711C14.8034 63.9869 14.2995 62.0136 14.2995 62.0136M4.91211 60.5684C5.94218 61.0895 9.70387 62.1801 14.2995 62.0136M14.2995 62.0136C14.2995 62.0136 15.0652 61.3962 16.0024 60.0086M57.891 60.5684C57.891 60.5684 62.2928 56.0475 60.6578 46.9054C59.0228 37.7633 56.728 29.6276 55.6613 25.5383C54.809 22.2712 53.723 19.8938 52.6832 17.9132C51.6434 15.9327 50.6986 14.8975 49.5253 13.6876C48.352 12.4776 46.1023 11.7002 45.5023 11.7002M57.891 60.5684C57.891 60.5684 58.5561 61.9903 57.2926 63.0952C56.0292 64.2 51.0736 64.7554 49.5367 64.3711C47.9997 63.9869 48.5036 62.0136 48.5036 62.0136M57.891 60.5684C56.8609 61.0895 53.0993 62.1801 48.5036 62.0136M48.5036 62.0136C48.5036 62.0136 47.7385 61.3967 46.8018 60.0102M17.3023 11.7002C17.8087 12.9527 19.4943 16.0533 21.8314 17.5948C24.7528 19.5217 27.4853 20.5784 31.4024 20.5784C35.3196 20.5784 38.0518 19.5217 40.9732 17.5948C43.3104 16.0533 44.9959 12.9527 45.5023 11.7002M17.3023 11.7002C18.102 10.9005 18.7318 11.1086 19.3967 11.7736M45.5023 11.7002C44.6993 10.8971 44.0676 11.1104 43.3996 11.782M19.3967 11.7736C23.1491 10.6876 28.038 10.3154 31.364 10.3154C34.6987 10.3154 39.6434 10.6895 43.3996 11.782M19.3967 11.7736C19.7295 12.1065 20.0711 12.5538 20.4472 13.0465C21.5746 14.5234 23.9589 18.6001 31.4024 18.6001C38.846 18.6001 41.2301 14.5234 42.3575 13.0465C42.7305 12.558 43.0695 12.114 43.3996 11.782" stroke="#1E1E1E" stroke-width="0.6" stroke-linecap="round"/>
</svg>
