<svg width="63" height="84" viewBox="0 0 63 84" fill="none" xmlns="http://www.w3.org/2000/svg">
<path d="M15.0966 27.0001C15.0458 32.0825 14.2917 38.4867 13.0914 47.1867C12.1643 53.9066 11.6051 58.8154 11.6239 61.9982M46.8971 27.0001C46.948 32.0825 47.7021 38.4867 48.9023 47.1867C49.8294 53.9064 50.3887 58.8153 50.3699 61.9981M30.9975 71.6689C35.6643 72.5518 40.2539 72.8142 43.1644 72.1312C47.6769 71.0723 49.6504 67.2897 50.175 64.4876M30.9975 71.6689C26.3302 72.552 21.7401 72.8143 18.8294 72.1312C14.3168 71.0723 12.3433 67.2896 11.8188 64.4875M30.9975 71.6689C33.6723 71.1628 36.3726 70.4529 38.7965 69.6001M30.9969 63.6001C34.5306 63.3751 42.3969 61.5001 42.3969 59.4001C42.3969 58.5001 40.5969 58.2001 38.7969 58.5001M4.50586 60.5685C4.50586 60.5685 0.104061 56.0476 1.73909 46.9055C3.37413 37.7634 5.66884 29.6277 6.73562 25.5384C7.80241 21.449 10.2933 17.1001 14.1933 13.5001C15.1936 12.5767 15.6593 12.2256 16.8242 11.4005C17.9891 10.5753 19.9656 10.029 20.324 10.2089M4.50586 60.5685C4.50586 60.5685 3.84076 61.9904 5.10423 63.0953C6.15357 64.0128 9.74955 64.5514 11.8188 64.4875M4.50586 60.5685C5.36024 61.0007 8.09386 61.8248 11.6239 61.9982M57.4848 60.5685C57.4848 60.5685 61.8866 56.0476 60.2515 46.9055C58.6165 37.7634 56.3218 29.6277 55.255 25.5384C54.1882 21.449 51.6974 17.1001 47.7974 13.5001C47.3096 13.0499 46.4767 12.3406 45.3963 11.5627C44.3159 10.7848 43.2494 10.2431 42.7437 10.2826C42.477 10.3034 42.2725 10.3638 42.1484 10.4259M57.4848 60.5685C57.4848 60.5685 58.1499 61.9904 56.8864 63.0953C55.8376 64.0124 52.2447 64.5509 50.175 64.4876M57.4848 60.5685C56.6306 61.0006 53.8984 61.8243 50.3699 61.9981M20.324 10.2089C21.2827 12.3938 24.4575 17.1548 30.994 17.1548C37.5305 17.1548 41.1897 12.6107 42.1484 10.4259M20.324 10.2089C20.774 9.47332 21.3641 9.40269 22.0014 9.78415M42.1484 10.4259L42.1473 10.4264C41.6218 9.70338 40.8763 9.53417 40.1144 9.85845M42.1484 10.4259C41.6226 9.70282 40.8766 9.53354 40.1144 9.85845M22.0014 9.78415C22.5016 10.0835 23.0308 10.6613 23.5441 11.4146C24.7114 13.1279 27.0929 15.3002 30.994 15.3002C34.8951 15.3002 37.3637 13.0004 38.5311 11.2871C39.0175 10.5732 39.5702 10.0901 40.1144 9.85845M22.0014 9.78415C24.1653 8.8419 27.3753 8.46631 30.9586 8.46631C34.6213 8.46631 37.9512 8.87009 40.1144 9.85845M40.1144 9.85845C39.5706 10.0903 39.0185 10.5737 38.5325 11.287M50.3699 61.9981C50.3643 62.936 50.3085 63.7241 50.1972 64.3644C50.1901 64.4053 50.1827 64.4463 50.175 64.4876M11.6239 61.9982C11.6295 62.9361 11.6852 63.7241 11.7965 64.3644C11.8036 64.4052 11.8111 64.4463 11.8188 64.4875" stroke="#1E1E1E" stroke-width="0.6" stroke-linecap="round"/>
</svg>
