<svg width="64" height="84" viewBox="0 0 64 84" fill="none" xmlns="http://www.w3.org/2000/svg">
<path d="M15.8928 27.0001C15.8419 32.0825 14.1355 47.7001 13.8875 49.5001C13.6396 51.3001 13.4708 53.7001 13.8876 56.1001C14.1306 57.4996 14.8922 58.8845 16.3929 60.0089M47.6947 27.0001C47.7456 32.0825 49.452 47.7001 49.7 49.5001C49.9479 51.3001 50.1167 53.7001 49.6999 56.1001C49.4568 57.5002 48.6945 58.8856 47.1924 60.0102M31.7949 61.5414C35.9756 62.3655 39.9329 62.5951 42.762 61.9312C44.6697 61.4836 46.1197 60.8134 47.1924 60.0102M31.7949 61.5414C27.6134 62.3659 23.6551 62.5952 20.8255 61.9312C18.9166 61.4833 17.4658 60.8127 16.3929 60.0089M31.7949 61.5414C34.3802 61.0316 37.0507 60.2944 39.5926 59.4001M31.7938 53.8126C35.3274 53.5876 43.1938 51.7126 43.1938 49.6126C43.1938 48.7126 41.3938 48.4126 39.5938 48.7126M5.30273 60.5685C5.30273 60.5685 0.900936 56.0476 2.53597 46.9055C4.171 37.7634 6.46571 29.6277 7.5325 25.5384C8.59929 21.449 11.0901 17.1001 14.9901 13.5001C16.0784 12.4956 16.4192 12.2728 17.3641 11.5642C18.309 10.8555 19.3928 10.8196 19.6543 10.8812M5.30273 60.5685C5.30273 60.5685 4.63763 61.9904 5.90111 63.0953C7.16458 64.2001 12.1201 64.7555 13.6571 64.3712C15.194 63.987 14.6901 62.0137 14.6901 62.0137M5.30273 60.5685C6.33281 61.0896 10.0945 62.1802 14.6901 62.0137M14.6901 62.0137C14.6901 62.0137 15.4558 61.3964 16.3929 60.0089M58.2816 60.5685C58.2816 60.5685 62.6834 56.0476 61.0484 46.9055C59.4134 37.7634 57.1187 29.6277 56.0519 25.5384C54.9851 21.449 52.4942 17.1001 48.5942 13.5001C47.5037 12.4934 47.3281 12.2835 46.4777 11.7383C45.6273 11.1932 44.208 10.8205 43.9503 10.8812M58.2816 60.5685C58.2816 60.5685 58.9467 61.9904 57.6833 63.0953C56.4198 64.2001 51.4642 64.7555 49.9273 64.3712C48.3903 63.987 48.8942 62.0137 48.8942 62.0137M58.2816 60.5685C57.2516 61.0896 53.4899 62.1802 48.8942 62.0137M48.8942 62.0137C48.8942 62.0137 48.1291 61.3968 47.1924 60.0102M19.6543 10.8812C22.0859 13.3246 27.458 18.6675 28.9154 19.5949C30.7141 20.7395 30.9419 20.7564 31.8023 20.8204C32.6626 20.7564 32.8905 20.7395 34.6892 19.5949C36.1465 18.6675 41.5187 13.3246 43.9503 10.8812M19.6543 10.8812C20.1483 10.0029 21.0122 10.0222 21.8389 10.4057M43.9503 10.8812C43.4563 10.0029 42.7065 9.96682 41.8798 10.3503M21.8389 10.4057C23.9976 9.35985 28.0343 8.46631 31.7929 8.46631C35.5515 8.46631 39.7212 9.30451 41.8798 10.3503M21.8389 10.4057C22.8238 10.8625 23.8039 11.8595 24.7052 12.7927C26.3632 14.5093 29.651 17.7501 30.2961 18.1989C30.9412 18.6476 31.2497 18.7502 31.8023 18.7502C32.3548 18.7502 32.6633 18.6476 33.3084 18.1989C33.9535 17.7501 37.2414 14.5093 38.8993 12.7927C39.8007 11.8595 40.8949 10.8072 41.8798 10.3503" stroke="#1E1E1E" stroke-width="0.6" stroke-linecap="round"/>
</svg>
