<svg width="63" height="84" viewBox="0 0 63 84" fill="none" xmlns="http://www.w3.org/2000/svg">
<path d="M16.4043 27C16.1039 33 16.3096 37.8 15.2045 41.4C14.2184 44.6123 15.5128 48.5067 19.0563 50.0716M46.402 27C46.7023 33 46.4967 37.8 47.6018 41.4C48.5881 44.6132 47.2927 48.5089 43.7469 50.073M31.4031 50.142C35.5837 50.9661 39.5398 51.195 42.3688 50.5311C42.8608 50.4157 43.3202 50.2612 43.7469 50.073M31.4031 50.142C27.223 50.9659 23.2662 51.1949 20.4374 50.5311C19.9443 50.4154 19.4839 50.2605 19.0563 50.0716M31.4031 50.142C33.9895 49.6322 36.6614 48.8947 39.2046 48M31.4031 43.0125C34.9368 42.7875 42.8031 40.9125 42.8031 38.8125C42.8031 37.9125 41.0031 37.6125 39.2031 37.9125M4.91211 60.5684C4.91211 60.5684 0.510311 56.0475 2.14534 46.9054C3.78038 37.7633 6.07509 29.6276 7.14187 25.5383C7.82793 22.9084 9.10295 20.1712 10.963 17.5948C11.9952 16.1651 12.3618 15.704 13.5941 14.2543C14.8263 12.8045 16.7023 11.7002 17.3023 11.7002M4.91211 60.5684C4.91211 60.5684 4.24701 61.9903 5.51048 63.0952C6.77396 64.2 11.7295 64.7554 13.2665 64.3711C14.8034 63.9869 14.2995 62.0136 14.2995 62.0136M4.91211 60.5684C5.94218 61.0895 9.70387 62.1801 14.2995 62.0136M14.2995 62.0136C14.2995 62.0136 16.5101 60.2312 18.0167 55.9162C18.476 54.6008 18.8116 52.588 19.0563 50.0716M57.891 60.5684C57.891 60.5684 62.2928 56.0475 60.6578 46.9054C59.0228 37.7633 56.728 29.6276 55.6613 25.5383C54.9014 22.6254 53.4189 19.5807 51.2192 16.7689C50.3309 15.6333 49.9763 15.1306 48.9728 14.0886C47.9693 13.0465 46.1023 11.7002 45.5023 11.7002M57.891 60.5684C57.891 60.5684 58.5561 61.9903 57.2926 63.0952C56.0292 64.2 51.0736 64.7554 49.5367 64.3711C47.9997 63.9869 48.5036 62.0136 48.5036 62.0136M57.891 60.5684C56.8609 61.0895 53.0993 62.1801 48.5036 62.0136M48.5036 62.0136C48.5036 62.0136 46.293 60.2312 44.7864 55.9162C44.3272 54.601 43.9916 52.5887 43.7469 50.073M17.3023 11.7002C17.8087 12.9527 19.4943 16.0533 21.8314 17.5948C24.7528 19.5217 27.4853 20.5784 31.4024 20.5784C35.3196 20.5784 38.0518 19.5217 40.9732 17.5948C43.3104 16.0533 44.9959 12.9527 45.5023 11.7002M17.3023 11.7002C18.102 10.9005 18.7318 11.1086 19.3967 11.7736M45.5023 11.7002C44.6993 10.8971 44.0676 11.1104 43.3996 11.782M19.3967 11.7736C23.1491 10.6876 28.038 10.3154 31.364 10.3154C34.6987 10.3154 39.6434 10.6895 43.3996 11.782M19.3967 11.7736C19.7295 12.1065 20.0711 12.5538 20.4472 13.0465C21.5746 14.5234 23.9589 18.6001 31.4024 18.6001C38.846 18.6001 41.2301 14.5234 42.3575 13.0465C42.7305 12.558 43.0695 12.114 43.3996 11.782" stroke="#1E1E1E" stroke-width="0.6" stroke-linecap="round"/>
</svg>
