<svg width="64" height="84" viewBox="0 0 64 84" fill="none" xmlns="http://www.w3.org/2000/svg">
<path d="M16.1938 27.0001C15.2936 32.7001 15.2935 33.6001 15.2938 37.2001C15.294 40.8001 17.8615 43.069 22.1943 43.5001C24.7824 43.7576 28.113 43.5793 31.7938 42.895M47.3938 27.0001C48.2939 32.7001 48.294 33.6001 48.2938 37.2001C48.2935 40.1037 46.6232 42.1414 43.7036 43.0473M31.7938 42.895C35.4745 43.5793 38.8051 43.7576 41.3932 43.5001C42.2313 43.4167 43.0034 43.2645 43.7036 43.0473M31.7938 42.895C34.2749 42.4338 36.9151 41.7426 39.5942 40.8001M31.7938 35.8126C35.3274 35.5876 43.1938 33.7126 43.1938 31.6126C43.1938 30.7126 41.3938 30.4126 39.5938 30.7126M5.30273 60.5685C5.30273 60.5685 0.900936 56.0476 2.53597 46.9055C4.171 37.7634 6.46571 29.6277 7.5325 25.5384C8.59929 21.449 11.0901 17.1001 14.9901 13.5001C15.5924 12.9441 16.1641 12.4134 17.0696 11.7494C17.9751 11.0854 19.1999 10.7743 19.6543 10.8812M5.30273 60.5685C5.30273 60.5685 4.63763 61.9904 5.90111 63.0953C7.16458 64.2001 12.1201 64.7555 13.6571 64.3712C15.194 63.987 14.6901 62.0137 14.6901 62.0137M5.30273 60.5685C6.33281 61.0896 10.0945 62.1802 14.6901 62.0137M14.6901 62.0137C14.6901 62.0137 16.9007 60.2313 18.4073 55.9163C19.2469 53.5116 19.6733 48.7765 19.8864 42.895M58.2816 60.5685C58.2816 60.5685 62.6834 56.0476 61.0484 46.9055C59.4134 37.7634 57.1187 29.6277 56.0519 25.5384C54.9851 21.449 52.4942 17.1001 48.5942 13.5001C48.0216 12.9715 47.289 12.4277 46.5309 11.9066C45.7729 11.3854 44.4047 10.7743 43.9503 10.8812M58.2816 60.5685C58.2816 60.5685 58.9467 61.9904 57.6833 63.0953C56.4198 64.2001 51.4642 64.7555 49.9273 64.3712C48.3903 63.987 48.8942 62.0137 48.8942 62.0137M58.2816 60.5685C57.2516 61.0896 53.4899 62.1802 48.8942 62.0137M48.8942 62.0137C48.8942 62.0137 46.6836 60.2313 45.1771 55.9163C44.3447 53.5324 43.9185 48.8582 43.7036 43.0473M19.6543 10.8812C22.0859 13.3246 27.458 18.6675 28.9154 19.5949C30.7141 20.7395 30.9419 20.7564 31.8023 20.8204C32.6626 20.7564 32.8905 20.7395 34.6892 19.5949C36.1465 18.6675 41.5187 13.3246 43.9503 10.8812M19.6543 10.8812C20.1483 10.0029 21.0122 10.0222 21.8389 10.4057M43.9503 10.8812C43.4563 10.0029 42.7065 9.96682 41.8798 10.3503M21.8389 10.4057C23.9976 9.35985 28.0343 8.46631 31.7929 8.46631C35.5515 8.46631 39.7212 9.30451 41.8798 10.3503M21.8389 10.4057C22.8238 10.8625 23.8039 11.8595 24.7052 12.7927C26.3632 14.5093 29.651 17.7501 30.2961 18.1989C30.9412 18.6476 31.2497 18.7502 31.8023 18.7502C32.3548 18.7502 32.6633 18.6476 33.3084 18.1989C33.9535 17.7501 37.2414 14.5093 38.8993 12.7927C39.8007 11.8595 40.8949 10.8072 41.8798 10.3503" stroke="#1E1E1E" stroke-width="0.6" stroke-linecap="round"/>
</svg>
