<svg width="63" height="84" viewBox="0 0 63 84" fill="none" xmlns="http://www.w3.org/2000/svg">
<path d="M15.0959 27.0001C15.045 32.0825 13.3386 47.7001 13.0907 49.5001C12.8427 51.3001 12.6739 53.7001 13.0907 56.1001C13.3337 57.4996 14.0954 58.8843 15.5962 60.0087M46.8979 27.0001C46.9487 32.0825 48.6551 47.7001 48.9031 49.5001C49.151 51.3001 49.3199 53.7001 48.9031 56.1001C48.6599 57.5002 47.8977 58.8857 46.3956 60.0103M30.998 61.5414C35.1787 62.3655 39.1361 62.5951 41.9652 61.9312C43.8728 61.4836 45.3229 60.8135 46.3956 60.0103M30.998 61.5414C26.8165 62.3659 22.8582 62.5952 20.0286 61.9312C18.1197 61.4833 16.6691 60.8125 15.5962 60.0087M30.998 61.5414C33.5833 61.0316 36.2539 60.2944 38.7958 59.4001M30.9969 53.8126C34.5306 53.5876 42.3969 51.7126 42.3969 49.6126C42.3969 48.7126 40.5969 48.4126 38.7969 48.7126M4.50586 60.5685C4.50586 60.5685 0.104061 56.0476 1.73909 46.9055C3.37413 37.7634 5.66884 29.6277 6.73562 25.5384C7.80241 21.449 10.2933 17.1001 14.1933 13.5001C15.2195 12.5528 16.4043 11.6253 17.4265 11.0274C18.4487 10.4295 19.9656 10.029 20.324 10.2089M4.50586 60.5685C4.50586 60.5685 3.84076 61.9904 5.10423 63.0953C6.36771 64.2001 11.3233 64.7555 12.8602 64.3712C14.3972 63.987 13.8933 62.0137 13.8933 62.0137M4.50586 60.5685C5.53593 61.0896 9.29762 62.1802 13.8933 62.0137M13.8933 62.0137C13.8933 62.0137 14.6589 61.3963 15.5962 60.0087M57.4848 60.5685C57.4848 60.5685 61.8866 56.0476 60.2515 46.9055C58.6165 37.7634 56.3218 29.6277 55.255 25.5384C54.1882 21.449 51.6974 17.1001 47.7974 13.5001C46.9501 12.718 46.398 12.1974 45.4889 11.4878C44.5798 10.7783 43.2494 10.2428 42.7437 10.2826C42.477 10.3034 42.2725 10.3638 42.1484 10.4259M57.4848 60.5685C57.4848 60.5685 58.1499 61.9904 56.8864 63.0953C55.6229 64.2001 50.6674 64.7555 49.1304 64.3712C47.5935 63.987 48.0974 62.0137 48.0974 62.0137M57.4848 60.5685C56.4547 61.0896 52.693 62.1802 48.0974 62.0137M48.0974 62.0137C48.0974 62.0137 47.3323 61.3968 46.3956 60.0103M20.324 10.2089C21.2827 12.3938 24.4575 17.1548 30.994 17.1548C37.5305 17.1548 41.1897 12.6107 42.1484 10.4259M20.324 10.2089C20.774 9.47332 21.3641 9.40269 22.0014 9.78415M42.1484 10.4259L42.1473 10.4264C41.6218 9.70338 40.8763 9.53417 40.1144 9.85845M42.1484 10.4259C41.6226 9.70282 40.8766 9.53354 40.1144 9.85845M22.0014 9.78415C22.5016 10.0835 23.0308 10.6613 23.5441 11.4146C24.7114 13.1279 27.0929 15.3002 30.994 15.3002C34.8951 15.3002 37.3637 13.0004 38.5311 11.2871C39.0175 10.5732 39.5702 10.0901 40.1144 9.85845M22.0014 9.78415C24.1653 8.8419 27.3753 8.46631 30.9586 8.46631C34.6213 8.46631 37.9512 8.87009 40.1144 9.85845M40.1144 9.85845C39.5706 10.0903 39.0185 10.5737 38.5325 11.287" stroke="#1E1E1E" stroke-width="0.6" stroke-linecap="round"/>
</svg>
