<svg width="63" height="84" viewBox="0 0 63 84" fill="none" xmlns="http://www.w3.org/2000/svg">
<path d="M15.3076 27C15.2567 32.0824 14.5026 38.4866 13.3023 47.1866C12.3709 53.9381 11.8107 58.8615 11.8351 62.043M47.1081 27C47.1589 32.0824 47.913 38.4866 49.1133 47.1866C50.0403 53.9063 50.5996 58.8152 50.5808 61.998M31.2084 71.6688C35.8752 72.5517 40.4648 72.8141 43.3753 72.1311C47.8879 71.0722 49.8622 67.2896 50.3867 64.4875M31.2084 71.6688C26.5412 72.5519 21.9511 72.8142 19.0403 72.1311C14.5277 71.0722 12.5542 67.2895 12.0297 64.4874M31.2084 71.6688C33.8833 71.1627 36.5835 70.4528 39.0075 69.6M31.2078 63.6C34.7415 63.375 42.6078 61.5 42.6078 59.4C42.6078 58.5 40.8078 58.2 39.0078 58.5M4.7168 60.5684C4.7168 60.5684 0.314998 56.0475 1.95003 46.9054C3.58506 37.7633 5.87977 29.6276 6.94656 25.5383C7.15155 24.7525 7.35469 24.2661 7.71918 23.1593C8.08367 22.0525 8.54642 20.46 10.2669 19.7184M4.7168 60.5684C4.7168 60.5684 4.05169 61.9903 5.31517 63.0952C6.36451 64.0127 9.96049 64.5513 12.0297 64.4874M4.7168 60.5684C5.57188 61.001 8.30085 61.8704 11.8351 62.043M57.6957 60.5684C57.6957 60.5684 62.0975 56.0475 60.4625 46.9054C58.8274 37.7633 56.5327 29.6276 55.4659 25.5383C55.261 24.7525 54.7429 23.4402 54.1703 22.4095C53.5978 21.3789 53.0564 20.46 51.336 19.7184M57.6957 60.5684C57.6957 60.5684 58.3608 61.9903 57.0973 63.0952C56.0487 64.0122 52.4566 64.5506 50.3867 64.4875M57.6957 60.5684C56.8416 61.0005 54.1093 61.8242 50.5808 61.998M10.2669 19.7184C10.0592 17.899 13.0405 17.899 15.8251 17.899C15.9505 17.899 16.2217 17.9016 16.6126 17.906M10.2669 19.7184C13.823 19.7714 21.5103 20.0235 22.7087 19.8964C24.2067 19.7375 28.6778 19.8964 30.8052 19.8964C32.9326 19.8964 37.3962 19.7375 38.8942 19.8964C40.0926 20.0235 47.7799 19.7714 51.336 19.7184M16.1743 12.7998C16.3387 13.503 16.6565 15.6705 16.6126 17.906M16.6126 17.906C18.9299 17.932 25.4562 18.0202 30.7976 17.9943C36.1394 18.0202 42.6717 17.932 44.9902 17.906M51.336 19.7184C51.5436 17.899 48.5624 17.899 45.7778 17.899C45.6524 17.899 45.3812 17.9016 44.9902 17.906M45.4285 12.7998C45.2642 13.503 44.9464 15.6705 44.9902 17.906M11.8351 62.043C11.8422 62.9612 11.8979 63.7342 12.0075 64.3643C12.0146 64.4051 12.022 64.4462 12.0297 64.4874M50.5808 61.998C50.5752 62.9359 50.5195 63.724 50.4081 64.3643C50.401 64.4051 50.3945 64.4463 50.3867 64.4875" stroke="#1E1E1E" stroke-width="0.6" stroke-linecap="round"/>
</svg>
