<svg width="64" height="84" viewBox="0 0 64 84" fill="none" xmlns="http://www.w3.org/2000/svg">
<path d="M16.7949 27.0001C16.4945 33.0001 16.7002 37.8001 15.5951 41.4001C14.609 44.6124 15.9034 48.5068 19.4469 50.0717M46.7926 27.0001C47.093 33.0001 46.8873 37.8001 47.9924 41.4001C48.9788 44.6133 47.6834 48.509 44.1376 50.0731M31.7938 50.1421C35.9743 50.9662 39.9304 51.1951 42.7595 50.5312C43.2514 50.4158 43.7108 50.2613 44.1376 50.0731M31.7938 50.1421C27.6136 50.966 23.6568 51.195 20.828 50.5312C20.335 50.4155 19.8746 50.2606 19.4469 50.0717M31.7938 50.1421C34.3801 49.6323 37.0521 48.8948 39.5952 48.0001M31.7938 43.0126C35.3274 42.7876 43.1938 40.9126 43.1938 38.8126C43.1938 37.9126 41.3938 37.6126 39.5938 37.9126M5.30273 60.5685C5.30273 60.5685 0.900936 56.0476 2.53597 46.9055C4.171 37.7634 6.46571 29.6277 7.5325 25.5384C8.59929 21.449 11.0901 17.1001 14.9901 13.5001C15.6481 12.8928 16.0421 12.5272 16.9519 11.8315C17.8618 11.1358 19.1999 10.7743 19.6543 10.8812M5.30273 60.5685C5.30273 60.5685 4.63763 61.9904 5.90111 63.0953C7.16458 64.2001 12.1201 64.7555 13.6571 64.3712C15.194 63.987 14.6901 62.0137 14.6901 62.0137M5.30273 60.5685C6.33281 61.0896 10.0945 62.1802 14.6901 62.0137M14.6901 62.0137C14.6901 62.0137 16.9007 60.2313 18.4073 55.9163C18.8666 54.6009 19.2022 52.5881 19.4469 50.0717M58.2816 60.5685C58.2816 60.5685 62.6834 56.0476 61.0484 46.9055C59.4134 37.7634 57.1187 29.6277 56.0519 25.5384C54.9851 21.449 52.4942 17.1001 48.5942 13.5001C47.9933 12.9454 47.313 12.334 46.4588 11.6628C45.6045 10.9916 44.4047 10.7743 43.9503 10.8812M58.2816 60.5685C58.2816 60.5685 58.9467 61.9904 57.6833 63.0953C56.4198 64.2001 51.4642 64.7555 49.9273 64.3712C48.3903 63.987 48.8942 62.0137 48.8942 62.0137M58.2816 60.5685C57.2516 61.0896 53.4899 62.1802 48.8942 62.0137M48.8942 62.0137C48.8942 62.0137 46.6836 60.2313 45.1771 55.9163C44.7179 54.6011 44.3823 52.5888 44.1376 50.0731M19.6543 10.8812C22.0859 13.3246 27.458 18.6675 28.9154 19.5949C30.7141 20.7395 30.9419 20.7564 31.8023 20.8204C32.6626 20.7564 32.8905 20.7395 34.6892 19.5949C36.1465 18.6675 41.5187 13.3246 43.9503 10.8812M19.6543 10.8812C20.1483 10.0029 21.0122 10.0222 21.8389 10.4057M43.9503 10.8812C43.4563 10.0029 42.7065 9.96682 41.8798 10.3503M21.8389 10.4057C23.9976 9.35985 28.0343 8.46631 31.7929 8.46631C35.5515 8.46631 39.7212 9.30451 41.8798 10.3503M21.8389 10.4057C22.8238 10.8625 23.8039 11.8595 24.7052 12.7927C26.3632 14.5093 29.651 17.7501 30.2961 18.1989C30.9412 18.6476 31.2497 18.7502 31.8023 18.7502C32.3548 18.7502 32.6633 18.6476 33.3084 18.1989C33.9535 17.7501 37.2414 14.5093 38.8993 12.7927C39.8007 11.8595 40.8949 10.8072 41.8798 10.3503" stroke="#1E1E1E" stroke-width="0.6" stroke-linecap="round"/>
</svg>
