<svg width="63" height="84" viewBox="0 0 63 84" fill="none" xmlns="http://www.w3.org/2000/svg">
<path d="M15.8031 27C14.9029 32.7 14.9029 33.6 14.9031 37.2C14.9033 40.0715 16.5368 42.096 19.3967 43.0167C19.4277 43.0266 19.4589 43.0365 19.4902 43.0462M47.0031 27C47.9033 32.7 47.9034 33.6 47.9031 37.2C47.9029 40.1036 46.2326 42.1413 43.313 43.0472M31.4031 42.8949C35.0838 43.5792 38.4145 43.7575 41.0026 43.5C41.8407 43.4166 42.6128 43.2645 43.313 43.0472M31.4031 42.8949C27.7224 43.5792 24.3918 43.7575 21.8036 43.5C20.9643 43.4165 20.1912 43.264 19.4902 43.0462M31.4031 42.8949C33.8843 42.4337 36.5245 41.7425 39.2036 40.8M31.4031 35.8125C34.9368 35.5875 42.8031 33.7125 42.8031 31.6125C42.8031 30.7125 41.0031 30.4125 39.2031 30.7125M4.91211 60.5684C4.91211 60.5684 0.510311 56.0475 2.14534 46.9054C3.78038 37.7633 6.07509 29.6276 7.14187 25.5383C8.02845 22.1398 9.00213 20.3614 10.8537 17.5948C12.7053 14.8283 16.7023 11.7002 17.3023 11.7002M4.91211 60.5684C4.91211 60.5684 4.24701 61.9903 5.51048 63.0952C6.77396 64.2 11.7295 64.7554 13.2665 64.3711C14.8034 63.9869 14.2995 62.0136 14.2995 62.0136M4.91211 60.5684C5.94218 61.0895 9.70387 62.1801 14.2995 62.0136M14.2995 62.0136C14.2995 62.0136 16.5101 60.2312 18.0167 55.9162C18.8491 53.5322 19.2753 48.8576 19.4902 43.0462M57.891 60.5684C57.891 60.5684 62.2928 56.0475 60.6578 46.9054C59.0228 37.7633 56.728 29.6276 55.6613 25.5383C54.7621 22.0917 52.8118 18.7723 51.2893 16.7148C49.7667 14.6574 46.1023 11.7002 45.5023 11.7002M57.891 60.5684C57.891 60.5684 58.5561 61.9903 57.2926 63.0952C56.0292 64.2 51.0736 64.7554 49.5367 64.3711C47.9997 63.9869 48.5036 62.0136 48.5036 62.0136M57.891 60.5684C56.8609 61.0895 53.0993 62.1801 48.5036 62.0136M48.5036 62.0136C48.5036 62.0136 46.293 60.2312 44.7864 55.9162C43.9541 53.5323 43.5278 48.8581 43.313 43.0472M17.3023 11.7002C17.8087 12.9527 19.4943 16.0533 21.8314 17.5948C24.7528 19.5217 27.4853 20.5784 31.4024 20.5784C35.3196 20.5784 38.0518 19.5217 40.9732 17.5948C43.3104 16.0533 44.9959 12.9527 45.5023 11.7002M17.3023 11.7002C18.102 10.9005 18.7318 11.1086 19.3967 11.7736M45.5023 11.7002C44.6993 10.8971 44.0676 11.1104 43.3996 11.782M19.3967 11.7736C23.1491 10.6876 28.038 10.3154 31.364 10.3154C34.6987 10.3154 39.6434 10.6895 43.3996 11.782M19.3967 11.7736C19.7295 12.1065 20.0711 12.5538 20.4472 13.0465C21.5746 14.5234 23.9589 18.6001 31.4024 18.6001C38.846 18.6001 41.2301 14.5234 42.3575 13.0465C42.7305 12.558 43.0695 12.114 43.3996 11.782" stroke="#1E1E1E" stroke-width="0.6" stroke-linecap="round"/>
</svg>
