<svg width="64" height="84" viewBox="0 0 64 84" fill="none" xmlns="http://www.w3.org/2000/svg">
<path d="M15.8935 27.0001C15.8427 32.0825 15.0885 38.4867 13.8883 47.1867C12.9612 53.9066 12.4019 58.8154 12.4208 61.9982M47.694 27.0001C47.7448 32.0825 48.499 38.4867 49.6992 47.1867C50.6263 53.9065 51.1855 58.8153 51.1666 61.9981M31.7943 71.6689C36.4612 72.5518 41.0507 72.8142 43.9613 72.1312C48.4938 71.0676 50.4647 67.2561 50.9787 64.4504M31.7943 71.6689C27.1271 72.552 22.537 72.8143 19.6262 72.1312C15.1137 71.0723 13.1402 67.2896 12.6156 64.4875M31.7943 71.6689C34.4692 71.1628 37.1694 70.4529 39.5934 69.6001M31.7938 63.6001C35.3274 63.3751 43.1938 61.5001 43.1938 59.4001C43.1938 58.5001 41.3937 58.2001 39.5938 58.5001M5.30273 60.5685C5.30273 60.5685 0.900936 56.0476 2.53597 46.9055C4.171 37.7634 6.46571 29.6277 7.5325 25.5384C8.59929 21.449 11.0901 17.1001 14.9901 13.5001C15.6362 12.9038 16.3747 12.1413 17.2632 11.5112C18.1517 10.8812 19.1999 10.7743 19.6543 10.8812M5.30273 60.5685C5.30273 60.5685 4.63763 61.9904 5.90111 63.0953C6.95044 64.0128 10.5464 64.5514 12.6156 64.4875M5.30273 60.5685C6.15711 61.0007 8.89074 61.8248 12.4208 61.9982M58.2816 60.5685C58.2816 60.5685 62.6834 56.0476 61.0484 46.9055C59.4134 37.7634 57.1187 29.6277 56.0519 25.5384C54.9851 21.449 52.4942 17.1001 48.5942 13.5001C47.9671 12.9212 47.5229 12.5238 46.6022 11.8589C45.6816 11.194 44.4047 10.7743 43.9503 10.8812M58.2816 60.5685C58.2816 60.5685 58.9467 61.9904 57.6833 63.0953C56.6339 64.0129 53.0479 64.5143 50.9787 64.4504M58.2816 60.5685C57.4275 61.0006 54.6952 61.8243 51.1666 61.9981M19.6543 10.8812C22.0859 13.3246 27.458 18.6675 28.9154 19.5949C30.7141 20.7395 30.9419 20.7564 31.8023 20.8204C32.6626 20.7564 32.8905 20.7395 34.6892 19.5949C36.1465 18.6675 41.5187 13.3246 43.9503 10.8812M19.6543 10.8812C20.1483 10.0029 21.0122 10.0222 21.8389 10.4057M43.9503 10.8812C43.4563 10.0029 42.7065 9.96682 41.8798 10.3503M21.8389 10.4057C23.9976 9.35985 28.0343 8.46631 31.7929 8.46631C35.5515 8.46631 39.7212 9.30451 41.8798 10.3503M21.8389 10.4057C22.8238 10.8625 23.8039 11.8595 24.7052 12.7927C26.3632 14.5093 29.651 17.7501 30.2961 18.1989C30.9412 18.6476 31.2497 18.7502 31.8023 18.7502C32.3548 18.7502 32.6633 18.6476 33.3084 18.1989C33.9535 17.7501 37.2414 14.5093 38.8993 12.7927C39.8007 11.8595 40.8949 10.8072 41.8798 10.3503M12.4208 61.9982C12.4263 62.9361 12.4821 63.7241 12.5934 64.3644C12.6005 64.4052 12.6079 64.4463 12.6156 64.4875M50.9787 64.4504C50.984 64.4216 50.9891 64.393 50.9941 64.3644C51.1048 63.7276 51.1606 62.9448 51.1666 62.0137C51.1667 62.0085 51.1666 62.0033 51.1666 61.9981" stroke="#1E1E1E" stroke-width="0.6" stroke-linecap="round"/>
</svg>
