<svg width="63" height="84" viewBox="0 0 63 84" fill="none" xmlns="http://www.w3.org/2000/svg">
<path d="M15.998 27.0001C15.6977 33.0001 15.9033 37.8001 14.7982 41.4001C13.8122 44.6124 15.1065 48.5068 18.6501 50.0717M45.9957 27.0001C46.2961 33.0001 46.0904 37.8001 47.1955 41.4001C48.1819 44.6133 46.8865 48.509 43.3407 50.0731M30.9969 50.1421C35.1775 50.9662 39.1336 51.1951 41.9626 50.5312C42.4545 50.4158 42.9139 50.2613 43.3407 50.0731M30.9969 50.1421C26.8167 50.966 22.8599 51.195 20.0312 50.5312C19.5381 50.4155 19.0777 50.2606 18.6501 50.0717M30.9969 50.1421C33.5833 49.6323 36.2552 48.8948 38.7983 48.0001M30.9969 43.0126C34.5306 42.7876 42.3969 40.9126 42.3969 38.8126C42.3969 37.9126 40.5969 37.6126 38.7969 37.9126M4.50586 60.5685C4.50586 60.5685 0.104061 56.0476 1.73909 46.9055C3.37413 37.7634 5.66884 29.6277 6.73562 25.5384C7.80241 21.449 10.2933 17.1001 14.1933 13.5001C15.1666 12.6017 15.8107 12.1267 16.9461 11.4146C18.0815 10.7025 19.9656 10.029 20.324 10.2089M4.50586 60.5685C4.50586 60.5685 3.84076 61.9904 5.10423 63.0953C6.36771 64.2001 11.3233 64.7555 12.8602 64.3712C14.3972 63.987 13.8933 62.0137 13.8933 62.0137M4.50586 60.5685C5.53593 61.0896 9.29762 62.1802 13.8933 62.0137M13.8933 62.0137C13.8933 62.0137 16.1039 60.2313 17.6104 55.9163C18.0697 54.6009 18.4054 52.5881 18.6501 50.0717M57.4848 60.5685C57.4848 60.5685 61.8866 56.0476 60.2515 46.9055C58.6165 37.7634 56.3218 29.6277 55.255 25.5384C54.1882 21.449 51.6974 17.1001 47.7974 13.5001C46.8969 12.6689 46.7263 12.4509 45.5407 11.5262C44.3551 10.6014 43.2494 10.2428 42.7437 10.2826C42.477 10.3034 42.2725 10.3638 42.1484 10.4259M57.4848 60.5685C57.4848 60.5685 58.1499 61.9904 56.8864 63.0953C55.6229 64.2001 50.6674 64.7555 49.1304 64.3712C47.5935 63.987 48.0974 62.0137 48.0974 62.0137M57.4848 60.5685C56.4547 61.0896 52.693 62.1802 48.0974 62.0137M48.0974 62.0137C48.0974 62.0137 45.8868 60.2313 44.3802 55.9163C43.921 54.6011 43.5854 52.5888 43.3407 50.0731M20.324 10.2089C21.2827 12.3938 24.4575 17.1548 30.994 17.1548C37.5305 17.1548 41.1897 12.6107 42.1484 10.4259M20.324 10.2089C20.774 9.47332 21.3641 9.40269 22.0014 9.78415M42.1484 10.4259L42.1473 10.4264C41.6218 9.70338 40.8763 9.53417 40.1144 9.85845M42.1484 10.4259C41.6226 9.70282 40.8766 9.53354 40.1144 9.85845M22.0014 9.78415C22.5016 10.0835 23.0308 10.6613 23.5441 11.4146C24.7114 13.1279 27.0929 15.3002 30.994 15.3002C34.8951 15.3002 37.3637 13.0004 38.5311 11.2871C39.0175 10.5732 39.5702 10.0901 40.1144 9.85845M22.0014 9.78415C24.1653 8.8419 27.3753 8.46631 30.9586 8.46631C34.6213 8.46631 37.9512 8.87009 40.1144 9.85845M40.1144 9.85845C39.5706 10.0903 39.0185 10.5737 38.5325 11.287" stroke="#1E1E1E" stroke-width="0.6" stroke-linecap="round"/>
</svg>
