<svg width="63" height="84" viewBox="0 0 63 84" fill="none" xmlns="http://www.w3.org/2000/svg">
<path d="M15.7055 27C15.6546 32.0824 15.2021 39.4264 14.5052 42.6C13.3052 48.0649 14.015 52.098 14.5053 55.5C14.0375 56.9033 13.6055 58.8 13.6706 60.3C13.7044 61.0777 14.0082 61.5918 14.502 61.933M46.3084 27C46.3593 32.0824 46.2115 39.4264 46.9084 42.6C48.1084 48.0649 47.3986 52.098 46.9083 55.5C47.3971 56.9665 47.9433 59.4 47.7259 60.6C47.6885 60.8065 47.6308 60.9952 47.5565 61.1665M33.1467 61.3339C36.0093 62.169 44.8084 62.5533 45.7084 62.4766C46.4536 62.4132 47.1987 61.991 47.5565 61.1665M33.1467 61.3339C26.1517 62.4785 17.4552 62.6555 16.3055 62.5095C15.5832 62.4178 14.9607 62.2499 14.502 61.933M33.1467 61.3339C35.278 60.9852 37.2514 60.5466 38.8052 60M31.0078 54C34.5415 53.775 42.4078 51.9 42.4078 49.8C42.4078 48.9 40.6078 48.6 38.8078 48.9M18.5956 11.8953C22.3952 10.7152 27.5606 10.3154 31.0079 10.3154C34.4621 10.3154 39.6022 10.7168 43.4041 11.9024M18.5956 11.8953C17.9243 11.565 16.9744 11.7025 15.7055 12.6883C14.4366 13.674 12.1512 15.6807 10.7078 18.2155C9.26442 20.7503 8.83283 21.9397 7.90407 25.5C6.10407 32.4 6.70407 35.0999 5.20407 41.3999C4.63162 43.8041 4.30407 47.0999 4.00407 50.6999C3.70407 54.2999 3.97836 58.2056 4.30407 59.3999C3.866 60.1871 4.00406 61.2 4.00406 62.1C4.00406 63 4.30392 63.6 5.20392 63.9C6.10392 64.2 11.8039 64.5 13.0039 64.2C14.2039 63.9 14.5039 63.3 14.5039 62.1C14.5039 62.0449 14.5033 61.9893 14.502 61.933M18.5956 11.8953C19.085 12.1361 19.5375 12.636 19.6391 13.645C19.8975 14.8305 20.1818 15.6814 20.3913 16.2001C20.8759 17.4001 21.7067 18.0001 22.9067 18.0001C24.1067 18.0001 26.8067 17.4001 31.0067 17.4001C35.2067 17.4001 37.9074 18.0001 39.1074 18.0001C40.3074 18.0001 41.1382 17.4001 41.6228 16.2001C41.8322 15.6814 42.1165 14.8305 42.375 13.645C42.4756 12.646 42.9202 12.146 43.4041 11.9024M43.4041 11.9024C44.0791 11.5627 45.0937 11.9024 45.8683 12.3243C46.6429 12.7461 48.1626 13.7309 50.1603 16.5467C52.1581 19.3624 53.3754 22.241 54.3041 25.8012C56.1041 32.7012 55.3061 35.0999 56.8061 41.3999C57.3785 43.8041 57.7061 47.0999 58.0061 50.6999C58.3061 54.2999 58.0318 58.2056 57.7061 59.3999C58.1442 60.1871 58.3063 61.2 58.3063 62.1C58.3063 63 57.7063 63.6 56.8063 63.9C55.9063 64.2 50.2063 64.5 49.0063 64.2C47.8063 63.9 47.5063 63.3 47.5063 62.1C47.5063 61.8041 47.5245 61.4899 47.5565 61.1665" stroke="#1E1E1E" stroke-linecap="round"/>
</svg>
