<svg width="63" height="84" viewBox="0 0 63 84" fill="none" xmlns="http://www.w3.org/2000/svg">
<path d="M18.2099 27.0001C17.5603 29.8223 17.0513 33.935 16.9718 36.7367M44.6058 27.0001C45.2553 29.8222 45.7643 33.9347 45.8439 36.7364M31.2805 43.1496C35.8418 43.832 39.9114 43.6995 41.9057 43.5001C44.9058 43.2001 45.5771 41.1001 45.8057 38.7001C45.8551 38.1815 45.8658 37.5088 45.8439 36.7364M31.2805 43.1496C26.7741 43.8107 22.8854 43.6976 20.9099 43.5001C17.9098 43.2001 17.2385 41.1001 17.0099 38.7001C16.9606 38.1815 16.9498 37.5089 16.9718 36.7367M31.2805 43.1496C33.6178 42.8067 36.1212 42.2556 38.61 41.4001M31.4078 35.8126C34.9415 35.5876 42.8078 33.7126 42.8078 31.6126C42.8078 30.7126 41.0078 30.4126 39.2078 30.7126M20.9133 10.5966C23.0719 9.55079 27.6474 8.46631 31.406 8.46631C35.1647 8.46631 39.497 9.59583 41.6557 10.6416M20.9133 10.5966C20.2178 10.5003 17.5502 11.0523 14.3585 14.6557C11.1667 18.2591 9.42377 21.5504 8.30778 24.9001C7.57672 27.0944 7.10778 29.4001 7.10778 31.5001C6.50801 32.4001 6.00328 33.6001 5.95552 34.8001C5.90777 36.0001 6.57388 36.7868 7.89094 36.8434C9.05505 36.8935 13.6433 36.4306 16.9718 36.7367M20.9133 10.5966C22.1856 10.7728 23.2464 11.6826 24.3183 12.7925C25.9763 14.5091 29.2641 17.7498 29.9092 18.1986C30.5543 18.6474 30.8629 18.75 31.4154 18.75C31.9679 18.75 32.2671 18.6474 32.9122 18.1986C33.5573 17.7498 36.8452 14.5091 38.5031 12.7925C39.5034 11.7568 40.4939 10.8954 41.6557 10.6416M41.6557 10.6416C42.4195 10.4748 45.5427 11.353 48.7213 14.5448C51.8999 17.7366 53.3887 21.5504 54.5047 24.9001C55.2358 27.0944 55.7047 29.4001 55.7047 31.5001C56.3045 32.4001 56.8092 33.6001 56.857 34.8001C56.9047 36.0001 56.2386 36.7868 54.9216 36.8434C53.7578 36.8935 49.1721 36.4309 45.8439 36.7364" stroke="#1E1E1E" stroke-linecap="round"/>
</svg>
