<svg width="63" height="84" viewBox="0 0 63 84" fill="none" xmlns="http://www.w3.org/2000/svg">
<path d="M17.9989 27C17.3494 29.8222 16.8403 33.9349 16.7608 36.7366M44.3948 27C45.0444 29.8221 45.5534 33.9346 45.6329 36.7363M31.0696 43.1495C35.6309 43.8319 39.7004 43.6994 41.6948 43.5C44.6949 43.2 45.3662 41.1 45.5948 38.7C45.6441 38.1814 45.6548 37.5087 45.6329 36.7363M31.0696 43.1495C26.5632 43.8106 22.6744 43.6975 20.699 43.5C17.6989 43.2 17.0276 41.1 16.799 38.7C16.7496 38.1814 16.7389 37.5088 16.7608 36.7366M31.0696 43.1495C33.4069 42.8066 35.9103 42.2555 38.3991 41.4M31.1969 35.8125C34.7306 35.5875 42.5969 33.7125 42.5969 31.6125C42.5969 30.7125 40.7969 30.4125 38.9969 30.7125M16.1664 12.7998C16.3308 13.503 16.6486 15.6705 16.6048 17.906M16.6048 17.906C16.2138 17.9016 15.9426 17.899 15.8172 17.899C13.0326 17.899 11.3781 18.228 10.1892 19.6672C9.00037 21.1063 8.43885 22.428 7.68 24.4302C6.92114 26.4323 6.89684 29.4 6.89684 31.5C6.29707 32.4 5.79234 33.6 5.74459 34.8C5.69683 36 6.36294 36.7867 7.68 36.8433C8.84412 36.8934 13.4324 36.4305 16.7608 36.7366M16.6048 17.906C18.922 17.932 25.4483 18.0202 30.7897 17.9943C36.1312 18.0202 42.6639 17.932 44.9812 17.906M45.4195 12.7998C45.2551 13.503 44.9373 15.6705 44.9812 17.906M44.9812 17.906C45.3721 17.9016 45.6433 17.899 45.7687 17.899C48.5534 17.899 50.2078 18.228 51.3967 19.6672C52.5856 21.1063 53.6026 22.9868 54.3476 25.082C55.0926 27.1772 55.4938 29.4 55.4938 31.5C56.0936 32.4 56.5983 33.6 56.646 34.8C56.6938 36 56.0277 36.7867 54.7106 36.8433C53.5469 36.8934 48.9611 36.4308 45.6329 36.7363" stroke="#1E1E1E" stroke-linecap="round"/>
</svg>
