<svg width="63" height="84" viewBox="0 0 63 84" fill="none" xmlns="http://www.w3.org/2000/svg">
<path d="M17.1116 27.0316C15.2613 37.3388 16.6142 41.1193 17.1118 42.4727C15.9406 45.805 16.1755 47.7646 17.0529 48.9349M45.7009 27.0316C47.5511 37.3388 46.1983 41.1193 45.7007 42.4727C46.8739 45.8109 46.6361 47.7715 45.7549 48.9411M31.3383 50.2802C36.3141 50.9907 40.9794 50.8732 42.7201 50.5448C43.882 50.3256 45.0338 49.8981 45.7549 48.9411M31.3383 50.2802C26.3839 50.982 21.8266 50.872 20.0923 50.5448C18.9279 50.3251 17.7737 49.8963 17.0529 48.9349M31.3383 50.2802C33.7598 49.9373 36.2762 49.4003 38.6042 48.6001M31.4062 43.0125C34.9399 42.7875 42.8062 40.9125 42.8062 38.8125C42.8062 37.9125 41.0062 37.6125 39.2062 37.9125M18.994 11.8953C22.7936 10.7152 27.959 10.3154 31.4063 10.3154C34.8606 10.3154 40.0006 10.7168 43.8025 11.9024M18.994 11.8953C18.3227 11.565 17.565 12.0468 16.9349 12.5193C16.3049 12.9919 15.8025 13.5 15.8025 13.5C11.9025 17.1 9.23127 21.9397 8.30251 25.5C6.50251 32.4 7.10251 35.0999 5.60251 41.3999C5.03006 43.8041 4.70251 47.0999 4.40251 50.6999C4.10251 54.2999 4.3768 58.2056 4.70251 59.3999C4.26444 60.1871 4.40249 61.2 4.40249 62.1C4.40249 63 4.70236 63.6 5.60236 63.9C6.50236 64.2 12.2023 64.5 13.4023 64.2C14.6024 63.9 14.9023 63.3 14.9023 62.1C14.9024 60.9 14.6024 59.3999 14.3025 58.2C15.9037 55.5313 16.6313 52.4069 17.0529 48.9349M18.994 11.8953C19.4834 12.1361 19.9359 12.636 20.0375 13.645C20.296 14.8305 20.5803 15.6814 20.7897 16.2001C21.2743 17.4001 22.1051 18.0001 23.3051 18.0001C24.5051 18.0001 27.2051 17.4001 31.4051 17.4001C35.6051 17.4001 38.3058 18.0001 39.5058 18.0001C40.7058 18.0001 41.5366 17.4001 42.0212 16.2001C42.2307 15.6814 42.515 14.8305 42.7734 13.645C42.874 12.646 43.3186 12.146 43.8025 11.9024M43.8025 11.9024C44.4775 11.5627 45.1725 12.0286 45.8227 12.493C46.4729 12.9574 47.0045 13.5 47.0045 13.5C50.9045 17.1 53.5758 21.9397 54.5045 25.5C56.3045 32.4 55.7045 35.0999 57.2045 41.3999C57.777 43.8041 58.1045 47.0999 58.4045 50.6999C58.7045 54.2999 58.4302 58.2056 58.1045 59.3999C58.5426 60.1871 58.7047 61.2 58.7047 62.1C58.7047 63 58.1047 63.6 57.2047 63.9C56.3047 64.2 50.6047 64.5 49.4047 64.2C48.2047 63.9 47.9047 63.3 47.9047 62.1C47.9047 60.9 48.2047 59.3999 48.5045 58.2C46.9043 55.5329 46.1766 52.4106 45.7549 48.9411" stroke="#1E1E1E" stroke-linecap="round"/>
</svg>
