<svg width="64" height="84" viewBox="0 0 64 84" fill="none" xmlns="http://www.w3.org/2000/svg">
<path d="M18.5989 27C17.7703 30.6 17.1704 36.3 17.399 38.7C17.4945 39.7029 17.6673 40.6533 18.055 41.442M44.9948 27C45.8234 30.6 46.4233 36.3 46.1948 38.7C46.0989 39.707 45.925 40.6611 45.5339 41.4517M31.6696 43.1495C36.2309 43.8319 40.3004 43.6994 42.2948 43.5C44.0361 43.3259 44.9929 42.5453 45.5339 41.4517M31.6696 43.1495C27.1632 43.8106 23.2744 43.6975 21.299 43.5C19.5525 43.3254 18.5952 42.5407 18.055 41.442M31.6696 43.1495C34.0069 42.8066 36.5103 42.2555 38.9991 41.4M31.7969 35.8125C35.3306 35.5875 43.1969 33.7125 43.1969 31.6125C43.1969 30.7125 41.3969 30.4125 39.5969 30.7125M19.3846 11.8953C23.1842 10.7152 28.3496 10.3154 31.7969 10.3154C35.2512 10.3154 40.3912 10.7168 44.1931 11.9024M19.3846 11.8953C18.7134 11.565 17.2013 12.2237 15.7325 13.645C14.2637 15.0663 13.5246 16.1029 12.426 17.6898C10.632 20.2813 9.26917 23.2919 8.69313 25.5C6.89313 32.4 7.49313 35.0999 5.99313 41.3999C5.42068 43.8041 5.09313 47.0999 4.79313 50.6999C4.49313 54.2999 4.76742 58.2056 5.09313 59.3999C4.65506 60.1871 4.79312 61.2 4.79312 62.1C4.79312 63 5.09298 63.6 5.99298 63.9C6.89298 64.2 12.593 64.5 13.793 64.2C14.993 63.9 15.293 63.3 15.293 62.1C15.293 60.9 14.993 59.3999 14.6931 58.2C17.3778 53.7254 17.6066 47.9695 18.055 41.442M19.3846 11.8953C19.8741 12.1361 20.3266 12.636 20.4281 13.645C20.6866 14.8305 20.9709 15.6814 21.1804 16.2001C21.665 17.4001 22.4957 18.0001 23.6957 18.0001C24.8957 18.0001 27.5957 17.4001 31.7957 17.4001C35.9957 17.4001 38.6965 18.0001 39.8965 18.0001C41.0965 18.0001 41.9272 17.4001 42.4118 16.2001C42.6213 15.6814 42.9056 14.8305 43.1641 13.645C43.2646 12.646 43.7093 12.146 44.1931 11.9024M44.1931 11.9024C44.8682 11.5627 46.3369 12.0293 48.0016 13.645C49.6662 15.2607 50.8812 16.6281 51.8603 18.5287C52.8394 20.4292 54.0234 23.2054 54.5995 25.4135C56.3995 32.3135 56.0952 35.0999 57.5952 41.3999C58.1676 43.8041 58.4952 47.0999 58.7952 50.6999C59.0952 54.2999 58.8209 58.2056 58.4952 59.3999C58.9332 60.1871 59.0953 61.2 59.0953 62.1C59.0953 63 58.4953 63.6 57.5953 63.9C56.6953 64.2 50.9953 64.5 49.7953 64.2C48.5953 63.9 48.2953 63.3 48.2953 62.1C48.2953 60.9 48.5953 59.3999 48.8952 58.2C46.2118 53.7276 45.9819 47.9753 45.5339 41.4517" stroke="#1E1E1E" stroke-linecap="round"/>
</svg>
