<svg width="63" height="84" viewBox="0 0 63 84" fill="none" xmlns="http://www.w3.org/2000/svg">
<path d="M15.893 27.0001C15.8421 32.0825 15.3896 39.4265 14.6927 42.6001C13.4927 48.065 14.2025 52.0981 14.6928 55.5001C14.225 56.9034 13.793 58.8001 13.8581 60.3001C13.8919 61.0778 14.1957 61.5919 14.6895 61.9331M46.4959 27.0001C46.5468 32.0825 46.399 39.4265 47.0959 42.6001C48.2959 48.065 47.5861 52.0981 47.0958 55.5001C47.5846 56.9666 48.1308 59.4001 47.9134 60.6001C47.876 60.8066 47.8183 60.9953 47.744 61.1666M33.3342 61.334C36.1968 62.1691 44.9959 62.5534 45.8959 62.4767C46.6411 62.4133 47.3862 61.9911 47.744 61.1666M33.3342 61.334C26.3392 62.4786 17.6427 62.6556 16.493 62.5096C15.7707 62.4179 15.1482 62.25 14.6895 61.9331M33.3342 61.334C35.4655 60.9853 37.4389 60.5467 38.9927 60.0001M31.1953 54.0001C34.729 53.7751 42.5953 51.9001 42.5953 49.8001C42.5953 48.9001 40.7953 48.6001 38.9953 48.9001M20.7008 10.5966C22.8594 9.55079 27.4349 8.46631 31.1935 8.46631C34.9522 8.46631 39.2845 9.59583 41.4432 10.6416M20.7008 10.5966C20.0053 10.5003 18.0325 11.5431 15.1935 13.9984C12.3545 16.4538 9.02033 21.9398 8.09157 25.5001C6.29157 32.4001 6.89157 35.1 5.39157 41.4C4.81912 43.8042 4.49157 47.1 4.19157 50.7C3.89157 54.3 4.16586 58.2057 4.49157 59.4C4.0535 60.1872 4.19156 61.2001 4.19156 62.1001C4.19156 63.0001 4.49142 63.6001 5.39142 63.9001C6.29142 64.2001 11.9914 64.5001 13.1914 64.2001C14.3914 63.9001 14.6914 63.3001 14.6914 62.1001C14.6914 62.045 14.6908 61.9894 14.6895 61.9331M20.7008 10.5966C21.9731 10.7728 23.0339 11.6826 24.1058 12.7925C25.7638 14.5091 29.0516 17.7498 29.6967 18.1986C30.3418 18.6474 30.6504 18.75 31.2029 18.75C31.7554 18.75 32.0546 18.6474 32.6997 18.1986C33.3448 17.7498 36.6327 14.5091 38.2906 12.7925C39.2909 11.7568 40.2814 10.8954 41.4432 10.6416M41.4432 10.6416C42.207 10.4748 45.5017 11.3129 48.9546 15.3796C52.4074 19.4462 53.0265 22.0389 54.0482 25.8339C55.07 29.6289 55.4936 35.1 56.9936 41.4C57.566 43.8042 57.8936 47.1 58.1936 50.7C58.4936 54.3 58.2193 58.2057 57.8936 59.4C58.3317 60.1872 58.4938 61.2001 58.4938 62.1001C58.4938 63.0001 57.8938 63.6001 56.9938 63.9001C56.0938 64.2001 50.3938 64.5001 49.1938 64.2001C47.9938 63.9001 47.6938 63.3001 47.6938 62.1001C47.6938 61.8042 47.712 61.49 47.744 61.1666" stroke="#1E1E1E" stroke-linecap="round"/>
</svg>
