<svg width="64" height="84" viewBox="0 0 64 84" fill="none" xmlns="http://www.w3.org/2000/svg">
<path d="M15.2987 27.0001C15.2763 29.2403 15.3902 32.7112 15.4219 36.6378M48.2982 27.0001C48.3206 29.2403 48.2066 32.7112 48.175 36.6377M30.8577 71.3681C34.7905 71.9942 44.9981 72.2192 46.4981 72.1096C47.9981 72.0001 49.0886 71.1001 49.1434 69.6001C49.1981 68.1001 48.744 66.4376 48.2982 65.1001C48.7885 61.6981 50.0985 60.9001 48.8982 52.2001C48.227 47.3348 48.1348 41.6196 48.175 36.6377M30.8577 71.3681C24.6093 72.1227 18.0839 72.2347 17.0988 72.1096C15.5988 71.9192 14.6987 71.4001 14.4729 70.0702C14.2471 68.7403 14.8189 66.5395 15.2987 65.1001C14.8084 61.6981 13.4984 60.9001 14.6986 52.2001C15.3699 47.3348 15.4621 41.6196 15.4219 36.6378M30.8577 71.3681C34.124 70.9737 37.3146 70.4036 39.5986 69.6001M31.7984 63.6001C35.3321 63.3751 43.1984 61.5001 43.1984 59.4001C43.1984 58.5001 41.3984 58.2001 39.5984 58.5001M21.3039 10.5966C23.4625 9.55079 28.038 8.46631 31.7967 8.46631C35.5553 8.46631 39.8877 9.59583 42.0463 10.6416M21.3039 10.5966C20.6084 10.5003 18.0678 11.126 15.2987 13.7902C12.5296 16.4544 9.8144 21.5504 8.6984 24.9001C7.96735 27.0944 7.4984 29.4001 7.4984 31.5001C6.89863 32.4001 6.3939 33.6001 6.34615 34.8001C6.29839 36.0001 6.9645 36.7868 8.28156 36.8434C9.23101 36.8843 12.4582 36.5839 15.4219 36.6378M21.3039 10.5966C22.5762 10.7728 23.637 11.6826 24.709 12.7925C26.3669 14.5091 29.6548 17.7498 30.2999 18.1986C30.945 18.6474 31.2535 18.75 31.806 18.75C32.3586 18.75 32.6577 18.6474 33.3028 18.1986C33.9479 17.7498 37.2358 14.5091 38.8937 12.7925C39.894 11.7568 40.8845 10.8954 42.0463 10.6416M42.0463 10.6416C42.8101 10.4748 46.3843 11.1615 49.7874 15.1019C53.1905 19.0424 53.7794 21.5504 54.8953 24.9001C55.6264 27.0944 56.0953 29.4001 56.0953 31.5001C56.6951 32.4001 57.1998 33.6001 57.2476 34.8001C57.2954 36.0001 56.6292 36.7868 55.3122 36.8434C54.3631 36.8843 51.1378 36.5841 48.175 36.6377" stroke="#1E1E1E" stroke-linecap="round"/>
</svg>
