<svg width="63" height="84" viewBox="0 0 63 84" fill="none" xmlns="http://www.w3.org/2000/svg">
<path d="M14.6972 27C14.6747 29.2402 14.7887 32.7111 14.8204 36.6377M47.6966 27C47.719 29.2402 47.6051 32.7111 47.5734 36.6376M30.2562 71.368C34.1889 71.9941 44.3966 72.2191 45.8966 72.1095C47.3966 72 48.487 71.1 48.5418 69.6C48.5966 68.1 48.1424 66.4375 47.6966 65.1C48.1869 61.698 49.4969 60.9 48.2967 52.2C47.6255 47.3347 47.5332 41.6195 47.5734 36.6376M30.2562 71.368C24.0077 72.1226 17.4823 72.2346 16.4972 72.1095C14.9972 71.9191 14.0972 71.4 13.8714 70.0701C13.6456 68.7402 14.2173 66.5394 14.6972 65.1C14.2069 61.698 12.8968 60.9 14.0971 52.2C14.7683 47.3347 14.8605 41.6195 14.8204 36.6377M30.2562 71.368C33.5224 70.9736 36.713 70.4035 38.997 69.6M31.1969 63.6C34.7306 63.375 42.5969 61.5 42.5969 59.4C42.5969 58.5 40.7969 58.2 38.9969 58.5M18.7846 11.8953C22.5842 10.7152 27.7496 10.3154 31.1969 10.3154C34.6512 10.3154 39.7912 10.7168 43.5931 11.9024M18.7846 11.8953C18.1134 11.565 15.5169 11.8953 12.6791 15.4574C9.84138 19.0195 9.21283 21.5503 8.09684 24.9C7.36579 27.0943 6.89684 29.4 6.89684 31.5C6.29707 32.4 5.79234 33.6 5.74459 34.8C5.69683 36 6.36294 36.7867 7.68 36.8433C8.62945 36.8842 11.8566 36.5838 14.8204 36.6377M18.7846 11.8953C19.2741 12.1361 19.7266 12.636 19.8281 13.645C20.0866 14.8305 20.3709 15.6814 20.5803 16.2001C21.065 17.4001 21.8957 18.0001 23.0957 18.0001C24.2957 18.0001 26.9957 17.4001 31.1957 17.4001C35.3957 17.4001 38.0965 18.0001 39.2965 18.0001C40.4965 18.0001 41.3272 17.4001 41.8118 16.2001C42.0213 15.6814 42.3056 14.8305 42.5641 13.645C42.6646 12.646 43.1093 12.146 43.5931 11.9024M43.5931 11.9024C44.2682 11.5627 46.0351 12.0517 48.8034 15.2916C51.5716 18.5315 53.1778 21.5503 54.2938 24.9C55.0248 27.0943 55.4938 29.4 55.4938 31.5C56.0936 32.4 56.5983 33.6 56.646 34.8C56.6938 36 56.0277 36.7867 54.7106 36.8433C53.7615 36.8842 50.5363 36.584 47.5734 36.6376" stroke="#1E1E1E" stroke-linecap="round"/>
</svg>
