<svg width="63" height="84" viewBox="0 0 63 84" fill="none" xmlns="http://www.w3.org/2000/svg">
<path d="M16.9022 27.0316C16.146 31.2441 15.9249 34.3664 15.9617 36.6784M45.4915 27.0316C46.2476 31.244 46.4688 34.3663 46.432 36.6783M31.1289 50.2802C36.1047 50.9907 40.7701 50.8732 42.5107 50.5448C45.0926 50.0577 47.6246 48.5424 45.4913 42.4727C45.7855 41.6724 46.3788 40.0235 46.432 36.6783M31.1289 50.2802C26.1745 50.982 21.6172 50.872 19.883 50.5448C17.3011 50.0577 14.7691 48.5424 16.9024 42.4727C16.6082 41.6724 16.0149 40.0235 15.9617 36.6784M31.1289 50.2802C33.5505 49.9373 36.0668 49.4003 38.3948 48.6001M31.1968 43.0125C34.7305 42.7875 42.5968 40.9125 42.5968 38.8125C42.5968 37.9125 40.7968 37.6125 38.9968 37.9125M18.8004 11.9041C22.6007 10.7224 27.7083 10.3154 31.1578 10.3154C34.6126 10.3154 39.7927 10.717 43.5948 11.903M18.8004 11.9041C17.9425 11.5659 14.9638 13.0464 12.7877 15.8612C10.6116 18.6761 9.21283 21.5503 8.09684 24.9C7.36579 27.0943 6.89684 29.4 6.89684 31.5C6.29707 32.4 5.79234 33.6 5.74459 34.8C5.69683 36 6.36294 36.7867 7.68 36.8433C8.75336 36.8895 12.7378 36.4996 15.9617 36.6784M18.8004 11.9041C19.3257 12.1112 19.8127 12.4854 20.2409 13.0464C21.3683 14.5233 23.7527 18.6 31.1962 18.6C38.6397 18.6 41.0239 14.5233 42.1513 13.0464C42.5803 12.4844 43.0683 12.1098 43.5948 11.903M43.5948 11.903C44.4519 11.5662 47.2574 13.0464 49.6946 15.8612C52.1319 18.6761 53.1778 21.5503 54.2938 24.9C55.0248 27.0943 55.4938 29.4 55.4938 31.5C56.0936 32.4 56.5983 33.6 56.646 34.8C56.6938 36 56.0277 36.7867 54.7106 36.8433C53.6376 36.8895 49.6553 36.4998 46.432 36.6783" stroke="#1E1E1E" stroke-linecap="round"/>
</svg>
