<svg width="63" height="84" viewBox="0 0 63 84" fill="none" xmlns="http://www.w3.org/2000/svg">
<path d="M14.5081 27.0001C14.4572 32.0825 15.1083 43.5001 13.908 52.2001C12.9171 59.3825 13.6371 61.1793 14.1944 63.5017M47.5075 27.0001C47.5584 32.0825 46.9074 43.5001 48.1076 52.2001C49.0993 59.3885 48.3773 61.1823 47.8199 63.5076M30.0671 71.3681C33.9999 71.9942 44.2075 72.2192 45.7075 72.1096C47.2075 72.0001 48.298 71.1001 48.3528 69.6001C48.4075 68.1001 47.9534 66.4376 47.5075 65.1001C47.5927 64.509 47.7027 63.9966 47.8199 63.5076M30.0671 71.3681C23.8186 72.1227 17.2932 72.2347 16.3082 72.1096C14.8082 71.9192 13.9081 71.4001 13.6823 70.0702C13.4565 68.7403 14.0283 66.5395 14.5081 65.1001C14.4226 64.5067 14.3121 63.9925 14.1944 63.5017M30.0671 71.3681C33.3334 70.9737 36.524 70.4036 38.808 69.6001M31.0078 63.6001C34.5415 63.3751 42.4078 61.5001 42.4078 59.4001C42.4078 58.5001 40.6078 58.2001 38.8078 58.5001M31.0054 15.3C27.1043 15.3 24.6354 13.0002 23.468 11.2869C22.9528 10.5308 22.3902 10.0861 21.7807 9.89108M31.0087 15.3C34.9098 15.3 37.3787 13.0002 38.5461 11.2869C39.055 10.5399 39.6102 10.0969 40.2112 9.89828M21.7807 9.89108C23.9425 8.87897 27.2668 8.46631 30.9695 8.46631C34.681 8.46631 38.0498 8.88092 40.2112 9.89828M21.7807 9.89108C21.0092 9.64427 19.2514 10.6054 18.5469 11.08C17.8423 11.5547 16.4536 12.5313 15.4041 13.5001C11.5041 17.1001 8.83283 21.9398 7.90407 25.5001C6.10407 32.4001 6.70407 35.1 5.20407 41.4C4.63162 43.8042 4.30407 47.1 4.00407 50.7C3.70407 54.3 3.97836 58.2057 4.30407 59.4C3.866 60.1872 4.00406 61.2001 4.00406 62.1001C4.00406 63.0001 4.30392 63.6001 5.20392 63.9001C6.10392 64.2001 11.8039 64.5001 13.0039 64.2001C13.5955 64.0522 13.9684 63.8314 14.1944 63.5017M40.2112 9.89828C40.9887 9.64135 42.4918 10.2502 43.5172 10.894C44.5425 11.5378 45.8146 12.7695 46.6061 13.5001C50.5061 17.1001 53.1773 21.9398 54.1061 25.5001C55.9061 32.4001 55.3061 35.1 56.8061 41.4C57.3785 43.8042 57.7061 47.1 58.0061 50.7C58.3061 54.3 58.0318 58.2057 57.7061 59.4C58.1442 60.1872 58.3063 61.2001 58.3063 62.1001C58.3063 63.0001 57.7063 63.6001 56.8063 63.9001C55.9063 64.2001 50.2063 64.5001 49.0063 64.2001C48.4182 64.0531 48.0463 63.834 47.8199 63.5076" stroke="#1E1E1E" stroke-linecap="round"/>
</svg>
