<svg width="63" height="84" viewBox="0 0 63 84" fill="none" xmlns="http://www.w3.org/2000/svg">
<path d="M16.7069 27.0317C15.9507 31.2442 15.7295 34.3665 15.7663 36.6785M45.2962 27.0317C46.0523 31.2441 46.2735 34.3664 46.2367 36.6784M30.9336 50.2803C35.9094 50.9908 40.5748 50.8733 42.3154 50.5449C44.8973 50.0578 47.4293 48.5425 45.296 42.4728C45.5902 41.6725 46.1835 40.0236 46.2367 36.6784M30.9336 50.2803C25.9792 50.9821 21.4219 50.8721 19.6876 50.5449C17.1058 50.0578 14.5737 48.5425 16.7071 42.4728C16.4129 41.6725 15.8196 40.0236 15.7663 36.6785M30.9336 50.2803C33.3551 49.9373 35.8715 49.4004 38.1995 48.6002M31.0015 43.0126C34.5352 42.7876 42.4015 40.9126 42.4015 38.8126C42.4015 37.9126 40.6015 37.6126 38.8015 37.9126M20.507 10.5966C22.6656 9.55079 27.2411 8.46631 30.9998 8.46631C34.7584 8.46631 39.0908 9.59583 41.2494 10.6416M20.507 10.5966C19.8115 10.5003 16.7071 11.5027 14.054 14.4589C11.4009 17.415 9.01752 21.5504 7.90153 24.9001C7.17047 27.0944 6.70153 29.4001 6.70153 31.5001C6.10176 32.4001 5.59703 33.6001 5.54927 34.8001C5.50152 36.0001 6.16763 36.7868 7.48469 36.8434C8.55805 36.8896 12.5425 36.4997 15.7663 36.6785M20.507 10.5966C21.7794 10.7728 22.8401 11.6826 23.9121 12.7925C25.57 14.5091 28.8579 17.7498 29.503 18.1986C30.1481 18.6474 30.4566 18.75 31.0092 18.75C31.5617 18.75 31.8608 18.6474 32.5059 18.1986C33.151 17.7498 36.4389 14.5091 38.0968 12.7925C39.0971 11.7568 40.0876 10.8954 41.2494 10.6416M41.2494 10.6416C42.0132 10.4748 46.2367 11.8312 48.9255 14.8968C51.6143 17.9625 52.9825 21.5504 54.0985 24.9001C54.8295 27.0944 55.2985 29.4001 55.2985 31.5001C55.8982 32.4001 56.403 33.6001 56.4507 34.8001C56.4985 36.0001 55.8324 36.7868 54.5153 36.8434C53.4423 36.8896 49.46 36.4999 46.2367 36.6784" stroke="#1E1E1E" stroke-linecap="round"/>
</svg>
