<svg width="63" height="84" viewBox="0 0 63 84" fill="none" xmlns="http://www.w3.org/2000/svg">
<path d="M16.1055 27.0001C16.0766 29.8821 15.9187 33.4913 15.6602 36.655M46.7084 27.0001C46.7373 29.8868 46.7021 33.5031 46.794 36.6704M33.5467 61.334C36.4093 62.1691 45.2084 62.5534 46.1084 62.4767C47.0084 62.4001 47.9084 61.8001 48.1259 60.6001C48.3433 59.4001 47.7971 56.9666 47.3083 55.5001C47.7986 52.0981 48.5084 48.065 47.3084 42.6001C47.0073 41.229 46.8639 39.0796 46.794 36.6704M33.5467 61.334C26.5517 62.4786 17.8552 62.6556 16.7055 62.5096C15.2055 62.3192 14.1357 61.8001 14.0706 60.3001C14.0055 58.8001 14.4375 56.9034 14.9053 55.5001C14.415 52.0981 13.7052 48.065 14.9052 42.6001C15.2069 41.2261 15.4628 39.0704 15.6602 36.655M33.5467 61.334C35.678 60.9853 37.6514 60.5467 39.2052 60.0001M31.4078 54.0001C34.9415 53.7751 42.8078 51.9001 42.8078 49.8001C42.8078 48.9001 41.0078 48.6001 39.2078 48.9001M31.4054 15.3C27.5043 15.3 25.0354 13.0002 23.868 11.2869C23.3528 10.5308 22.7902 10.0861 22.1807 9.89108M31.4087 15.3C35.3098 15.3 37.7787 13.0002 38.9461 11.2869C39.455 10.5399 40.0102 10.0969 40.6112 9.89828M22.1807 9.89108C24.3425 8.87897 27.6668 8.46631 31.3695 8.46631C35.081 8.46631 38.4498 8.88092 40.6112 9.89828M22.1807 9.89108C21.4092 9.64427 18.4024 10.226 14.9052 13.7659C11.408 17.3059 9.42377 21.5504 8.30778 24.9001C7.57672 27.0944 7.10778 29.4001 7.10778 31.5001C6.50801 32.4001 6.00328 33.6001 5.95552 34.8001C5.90777 36.0001 6.57388 36.7868 7.89094 36.8434C8.90807 36.8872 12.5393 36.5393 15.6602 36.655M40.6112 9.89828C41.3887 9.64135 44.9415 11.2869 48.0863 14.5329C51.2311 17.779 53.3887 21.5504 54.5047 24.9001C55.2358 27.0944 55.7047 29.4001 55.7047 31.5001C56.3045 32.4001 56.8092 33.6001 56.857 34.8001C56.9047 36.0001 56.2386 36.7868 54.9216 36.8434C53.8652 36.8889 49.9895 36.5119 46.794 36.6704" stroke="#1E1E1E" stroke-linecap="round"/>
</svg>
