<svg width="63" height="84" viewBox="0 0 63 84" fill="none" xmlns="http://www.w3.org/2000/svg">
<path d="M16.9006 27.0316C15.0504 37.3388 16.4032 41.1193 16.9008 42.4727C15.7296 45.805 15.9646 47.7646 16.842 48.9349M45.4899 27.0316C47.3402 37.3388 45.9873 41.1193 45.4897 42.4727C46.663 45.8109 46.4251 47.7715 45.544 48.9411M31.1274 50.2802C36.1031 50.9907 40.7685 50.8732 42.5092 50.5448C43.6711 50.3256 44.8229 49.8981 45.544 48.9411M31.1274 50.2802C26.173 50.982 21.6156 50.872 19.8814 50.5448C18.717 50.3251 17.5627 49.8963 16.842 48.9349M31.1274 50.2802C33.5489 49.9373 36.0653 49.4003 38.3932 48.6001M31.1952 43.0125C34.7289 42.7875 42.5953 40.9125 42.5953 38.8125C42.5953 37.9125 40.7953 37.6125 38.9953 37.9125M18.7988 11.9041C22.5991 10.7224 27.7068 10.3154 31.1562 10.3154C34.611 10.3154 39.7912 10.717 43.5933 11.903M18.7988 11.9041C17.9409 11.5659 17.0909 11.5567 15.8939 12.4581C14.6969 13.3594 13.1382 15.0783 11.4215 17.4275C9.70475 19.7766 8.66202 23.3133 8.09157 25.5C6.29157 32.4 6.89157 35.0999 5.39157 41.3999C4.81912 43.8041 4.49157 47.0999 4.19157 50.6999C3.89157 54.2999 4.16586 58.2056 4.49157 59.3999C4.0535 60.1871 4.19156 61.2 4.19156 62.1C4.19156 63 4.49142 63.6 5.39142 63.9C6.29142 64.2 11.9914 64.5 13.1914 64.2C14.3914 63.9 14.6914 63.3 14.6914 62.1C14.6914 60.9 14.3914 59.3999 14.0916 58.2C15.6927 55.5313 16.4203 52.4069 16.842 48.9349M18.7988 11.9041C19.3242 12.1112 19.8111 12.4854 20.2393 13.0464C21.3667 14.5233 23.7511 18.6 31.1946 18.6C38.6381 18.6 41.0223 14.5233 42.1497 13.0464C42.5787 12.4844 43.0667 12.1098 43.5933 11.903M43.5933 11.903C44.4503 11.5662 45.3685 11.8846 46.6528 12.7514C47.937 13.6183 49.9435 15.6992 51.3977 18.6C52.8519 21.5008 53.7619 23.4618 54.2936 25.5C56.0936 32.4 55.4936 35.0999 56.9936 41.3999C57.566 43.8041 57.8936 47.0999 58.1936 50.6999C58.4936 54.2999 58.2193 58.2056 57.8936 59.3999C58.3317 60.1871 58.4938 61.2 58.4938 62.1C58.4938 63 57.8938 63.6 56.9938 63.9C56.0938 64.2 50.3938 64.5 49.1938 64.2C47.9938 63.9 47.6938 63.3 47.6938 62.1C47.6938 60.9 47.9938 59.3999 48.2936 58.2C46.6934 55.5329 45.9657 52.4106 45.544 48.9411" stroke="#1E1E1E" stroke-linecap="round"/>
</svg>
