<svg width="63" height="84" viewBox="0 0 63 84" fill="none" xmlns="http://www.w3.org/2000/svg">
<path d="M15.6992 27C15.6704 29.882 15.5124 33.4912 15.2539 36.6549M46.3022 27C46.331 29.8867 46.2959 33.503 46.3877 36.6703M33.1404 61.3339C36.0031 62.169 44.8022 62.5533 45.7022 62.4766C46.6022 62.4 47.5022 61.8 47.7196 60.6C47.9371 59.4 47.3909 56.9665 46.902 55.5C47.3923 52.098 48.1021 48.0649 46.9021 42.6C46.6011 41.2289 46.4576 39.0795 46.3877 36.6703M33.1404 61.3339C26.1454 62.4785 17.4489 62.6555 16.2992 62.5095C14.7992 62.3191 13.7295 61.8 13.6643 60.3C13.5992 58.8 14.0313 56.9033 14.4991 55.5C14.0088 52.098 13.299 48.0649 14.499 42.6C14.8007 41.226 15.0566 39.0703 15.2539 36.6549M33.1404 61.3339C35.2718 60.9852 37.2451 60.5466 38.7989 60M31.0016 54C34.5352 53.775 42.4016 51.9 42.4016 49.8C42.4016 48.9 40.6016 48.6 38.8016 48.9M18.5893 11.8953C22.3889 10.7152 27.5543 10.3154 31.0016 10.3154C34.4559 10.3154 39.5959 10.7168 43.3978 11.9024M18.5893 11.8953C17.1773 11.7221 15.4322 12.3148 12.5657 15.8536C9.69919 19.3923 9.01752 21.5503 7.90153 24.9C7.17047 27.0943 6.70153 29.4 6.70153 31.5C6.10176 32.4 5.59703 33.6 5.54927 34.8C5.50152 36 6.16763 36.7867 7.48469 36.8433C8.50182 36.8871 12.133 36.5392 15.2539 36.6549M18.5893 11.8953C19.0787 12.1361 19.5313 12.636 19.6328 13.645C19.8913 14.8305 20.1756 15.6814 20.385 16.2001C20.8697 17.4001 21.7004 18.0001 22.9004 18.0001C24.1004 18.0001 26.8004 17.4001 31.0004 17.4001C35.2004 17.4001 37.9011 18.0001 39.1011 18.0001C40.3011 18.0001 41.1319 17.4001 41.6165 16.2001C41.826 15.6814 42.1103 14.8305 42.3687 13.645C42.4693 12.646 42.914 12.146 43.3978 11.9024M43.3978 11.9024C44.0729 11.5627 46.902 12.2804 49.4603 15.3126C52.0185 18.3448 52.9825 21.5503 54.0985 24.9C54.8295 27.0943 55.2985 29.4 55.2985 31.5C55.8982 32.4 56.403 33.6 56.4507 34.8C56.4985 36 55.8324 36.7867 54.5153 36.8433C53.459 36.8888 49.5833 36.5118 46.3877 36.6703" stroke="#1E1E1E" stroke-linecap="round"/>
</svg>
