<svg width="63" height="84" viewBox="0 0 63 84" fill="none" xmlns="http://www.w3.org/2000/svg">
<path d="M17.9989 27.0001C17.3494 29.8223 16.8403 33.935 16.7608 36.7367M44.3948 27.0001C45.0444 29.8222 45.5534 33.9347 45.6329 36.7364M31.0696 43.1496C35.6309 43.832 39.7004 43.6995 41.6948 43.5001C44.6949 43.2001 45.3662 41.1001 45.5948 38.7001C45.6441 38.1815 45.6548 37.5088 45.6329 36.7364M31.0696 43.1496C26.5632 43.8107 22.6744 43.6976 20.699 43.5001C17.6989 43.2001 17.0276 41.1001 16.799 38.7001C16.7496 38.1815 16.7389 37.5089 16.7608 36.7367M31.0696 43.1496C33.4069 42.8067 35.9103 42.2556 38.3991 41.4001M31.1969 35.8126C34.7306 35.5876 42.5969 33.7126 42.5969 31.6126C42.5969 30.7126 40.7969 30.4126 38.9969 30.7126M31.1944 15.3C27.2933 15.3 24.8244 13.0002 23.6571 11.2869C23.1418 10.5308 22.5793 10.0861 21.9698 9.89108M31.1978 15.3C35.0989 15.3 37.5678 13.0002 38.7351 11.2869C39.2441 10.5399 39.7993 10.0969 40.4003 9.89828M21.9698 9.89108C24.1316 8.87897 27.4559 8.46631 31.1586 8.46631C34.8701 8.46631 38.2389 8.88092 40.4003 9.89828M21.9698 9.89108C21.1982 9.64427 17.5549 11.2869 14.498 14.365C11.441 17.4431 9.21283 21.5504 8.09684 24.9001C7.36579 27.0944 6.89684 29.4001 6.89684 31.5001C6.29707 32.4001 5.79234 33.6001 5.74459 34.8001C5.69683 36.0001 6.36294 36.7868 7.68 36.8434C8.84411 36.8935 13.4324 36.4306 16.7608 36.7367M40.4003 9.89828C41.1777 9.64135 45.6329 11.6677 48.9033 15.3C52.1737 18.9323 53.1778 21.5504 54.2938 24.9001C55.0248 27.0944 55.4938 29.4001 55.4938 31.5001C56.0936 32.4001 56.5983 33.6001 56.646 34.8001C56.6938 36.0001 56.0277 36.7868 54.7106 36.8434C53.5469 36.8935 48.9611 36.4309 45.6329 36.7364" stroke="#1E1E1E" stroke-linecap="round"/>
</svg>
