<svg width="64" height="84" viewBox="0 0 64 84" fill="none" xmlns="http://www.w3.org/2000/svg">
<path d="M17.5022 27.0316C15.652 37.3388 17.0048 41.1193 17.5024 42.4727C16.3312 45.805 16.5661 47.7646 17.4435 48.9349M46.0915 27.0316C47.9417 37.3388 46.5889 41.1193 46.0913 42.4727C47.2646 45.8109 47.0267 47.7715 46.1455 48.9411M31.7289 50.2803C36.7047 50.9907 41.3701 50.8732 43.1107 50.5448C44.2726 50.3256 45.4245 49.8981 46.1455 48.9411M31.7289 50.2803C26.7745 50.982 22.2172 50.872 20.483 50.5448C19.3186 50.3251 18.1643 49.8963 17.4435 48.9349M31.7289 50.2803C34.1505 49.9373 36.6668 49.4003 38.9948 48.6001M31.7968 43.0125C35.3305 42.7875 43.1968 40.9125 43.1968 38.8125C43.1968 37.9125 41.3968 37.6125 39.5968 37.9125M16.7664 12.7998C16.9308 13.503 17.2486 15.6705 17.2048 17.906M17.2048 17.906C16.8138 17.9016 16.5426 17.899 16.4172 17.899C13.6326 17.899 11.9781 18.228 10.7892 19.6672C9.60037 21.1063 9.20122 22.3406 8.73381 24.0934C8.2664 25.8462 7.82652 29.2756 7.59686 30.805C7.06406 34.3531 7.04132 36.9975 5.99313 41.3999C5.42068 43.8041 5.09313 47.0999 4.79313 50.6999C4.49313 54.2999 4.76742 58.2056 5.09313 59.3999C4.65506 60.1871 4.79312 61.2 4.79312 62.1C4.79312 63 5.09298 63.6 5.99298 63.9C6.89298 64.2 12.593 64.5 13.793 64.2C14.993 63.9 15.293 63.3 15.293 62.1C15.293 60.9 14.993 59.3999 14.6931 58.2C16.2943 55.5313 17.0219 52.4069 17.4435 48.9349M17.2048 17.906C19.522 17.932 26.0483 18.0202 31.3897 17.9943C36.7312 18.0202 43.2639 17.932 45.5812 17.906M46.0195 12.7998C45.8551 13.503 45.5373 15.6705 45.5812 17.906M45.5812 17.906C45.9721 17.9016 46.2433 17.899 46.3687 17.899C49.1534 17.899 50.8078 18.228 51.9967 19.6672C53.1856 21.1063 53.5737 21.9147 54.4325 24.3685C55.2913 26.8222 55.7618 29.2756 55.9914 30.805C56.5242 34.3531 56.547 36.9975 57.5952 41.3999C58.1676 43.8041 58.4952 47.0999 58.7952 50.6999C59.0952 54.2999 58.8209 58.2056 58.4952 59.3999C58.9332 60.1871 59.0953 61.2 59.0953 62.1C59.0953 63 58.4953 63.6 57.5953 63.9C56.6953 64.2 50.9953 64.5 49.7953 64.2C48.5953 63.9 48.2953 63.3 48.2953 62.1C48.2953 60.9 48.5953 59.3999 48.8952 58.2C47.2949 55.5329 46.5673 52.4106 46.1455 48.9411" stroke="#1E1E1E" stroke-linecap="round"/>
</svg>
