<svg width="64" height="84" viewBox="0 0 64 84" fill="none" xmlns="http://www.w3.org/2000/svg">
<path d="M15.2972 27.0001C15.2463 32.0825 15.8973 43.5001 14.6971 52.2001C13.7062 59.3825 14.4262 61.1793 14.9834 63.5017M48.2966 27.0001C48.3475 32.0825 47.6964 43.5001 48.8967 52.2001C49.8884 59.3885 49.1663 61.1823 48.6089 63.5076M30.8562 71.3681C34.7889 71.9942 44.9966 72.2192 46.4966 72.1096C47.9966 72.0001 49.087 71.1001 49.1418 69.6001C49.1966 68.1001 48.7424 66.4376 48.2966 65.1001C48.3818 64.509 48.4917 63.9966 48.6089 63.5076M30.8562 71.3681C24.6077 72.1227 18.0823 72.2347 17.0972 72.1096C15.5972 71.9192 14.6972 71.4001 14.4714 70.0702C14.2456 68.7403 14.8173 66.5395 15.2972 65.1001C15.2116 64.5067 15.1012 63.9925 14.9834 63.5017M30.8562 71.3681C34.1224 70.9737 37.313 70.4036 39.597 69.6001M31.7969 63.6001C35.3306 63.3751 43.1969 61.5001 43.1969 59.4001C43.1969 58.5001 41.3969 58.2001 39.5969 58.5001M21.3023 10.5966C23.4609 9.55079 28.0365 8.46631 31.7951 8.46631C35.5537 8.46631 39.8861 9.59583 42.0447 10.6416M21.3023 10.5966C22.5747 10.7728 23.6354 11.6826 24.7074 12.7925C26.3654 14.5091 29.6532 17.7498 30.2983 18.1986C30.9434 18.6474 31.2519 18.75 31.8045 18.75C32.357 18.75 32.6562 18.6474 33.3013 18.1986C33.9464 17.7498 37.2342 14.5091 38.8922 12.7925C39.8924 11.7568 40.883 10.8954 42.0447 10.6416M21.3023 10.5966C20.8817 10.5384 17.4003 11.3798 14.3173 14.8053C11.2344 18.2309 9.6219 21.9398 8.69313 25.5001C6.89313 32.4001 7.49313 35.1 5.99313 41.4C5.42068 43.8042 5.09313 47.1 4.79313 50.7C4.49313 54.3 4.76742 58.2057 5.09313 59.4C4.65506 60.1872 4.79312 61.2001 4.79312 62.1001C4.79312 63.0001 5.09298 63.6001 5.99298 63.9001C6.89298 64.2001 12.593 64.5001 13.793 64.2001C14.3846 64.0522 14.7574 63.8314 14.9834 63.5017M42.0447 10.6416C42.4923 10.5439 45.0465 10.6623 48.2966 14.1862C51.5466 17.7102 53.0063 19.7388 54.7065 25.9258C56.4066 32.1128 56.0952 35.1 57.5952 41.4C58.1676 43.8042 58.4952 47.1 58.7952 50.7C59.0952 54.3 58.8209 58.2057 58.4952 59.4C58.9332 60.1872 59.0953 61.2001 59.0953 62.1001C59.0953 63.0001 58.4953 63.6001 57.5953 63.9001C56.6953 64.2001 50.9953 64.5001 49.7953 64.2001C49.2073 64.0531 48.8353 63.834 48.6089 63.5076" stroke="#1E1E1E" stroke-linecap="round"/>
</svg>
