<svg width="63" height="84" viewBox="0 0 63 84" fill="none" xmlns="http://www.w3.org/2000/svg">
<path d="M16.1055 27C16.0766 29.882 15.9186 33.4912 15.6602 36.6549M46.7084 27C46.7373 29.8867 46.7021 33.503 46.794 36.6703M33.5467 61.3339C36.4093 62.169 45.2084 62.5533 46.1084 62.4766C47.0084 62.4 47.9084 61.8 48.1259 60.6C48.3433 59.4 47.7971 56.9665 47.3083 55.5C47.7986 52.098 48.5084 48.0649 47.3084 42.6C47.0073 41.2289 46.8639 39.0795 46.794 36.6703M33.5467 61.3339C26.5517 62.4785 17.8552 62.6555 16.7055 62.5095C15.2055 62.3191 14.1357 61.8 14.0706 60.3C14.0055 58.8 14.4375 56.9033 14.9053 55.5C14.415 52.098 13.7052 48.0649 14.9052 42.6C15.2069 41.226 15.4628 39.0703 15.6602 36.6549M33.5467 61.3339C35.678 60.9852 37.6514 60.5466 39.2052 60M31.4078 54C34.9415 53.775 42.8078 51.9 42.8078 49.8C42.8078 48.9 41.0078 48.6 39.2078 48.9M16.3774 12.7998C16.5417 13.503 16.8595 15.6705 16.8157 17.906M16.8157 17.906C16.4247 17.9016 16.1536 17.899 16.0281 17.899C13.2435 17.899 11.589 18.228 10.4002 19.6672C9.2113 21.1063 8.61607 22.2855 7.89094 24.4605C7.1658 26.6355 7.10778 29.4 7.10778 31.5C6.50801 32.4 6.00328 33.6 5.95552 34.8C5.90777 36 6.57388 36.7867 7.89094 36.8433C8.90807 36.8871 12.5393 36.5392 15.6602 36.6549M16.8157 17.906C19.133 17.932 25.6593 18.0202 31.0007 17.9943C36.3421 18.0202 42.8748 17.932 45.1921 17.906M45.6305 12.7998C45.4661 13.503 45.1483 15.6705 45.1921 17.906M45.1921 17.906C45.5831 17.9016 45.8542 17.899 45.9797 17.899C48.7643 17.899 50.4188 18.228 51.6076 19.6672C52.7965 21.1063 53.5301 22.2311 54.5047 24.9C55.4794 27.5689 55.7047 29.4 55.7047 31.5C56.3045 32.4 56.8092 33.6 56.857 34.8C56.9047 36 56.2386 36.7867 54.9216 36.8433C53.8652 36.8888 49.9895 36.5118 46.794 36.6703" stroke="#1E1E1E" stroke-linecap="round"/>
</svg>
