<svg width="63" height="84" viewBox="0 0 63 84" fill="none" xmlns="http://www.w3.org/2000/svg">
<path d="M17.9974 27.0001C17.1688 30.6001 16.5689 36.3001 16.7974 38.7001C16.8929 39.703 17.0658 40.6534 17.4535 41.4421M44.3933 27.0001C45.2219 30.6001 45.8218 36.3001 45.5932 38.7001C45.4973 39.7071 45.3234 40.6612 44.9324 41.4518M31.068 43.1496C35.6293 43.832 39.6989 43.6995 41.6932 43.5001C43.4345 43.326 44.3913 42.5454 44.9324 41.4518M31.068 43.1496C26.5616 43.8107 22.6729 43.6976 20.6974 43.5001C18.9509 43.3255 17.9937 42.5408 17.4535 41.4421M31.068 43.1496C33.4053 42.8067 35.9087 42.2556 38.3975 41.4001M31.1953 35.8126C34.729 35.5876 42.5953 33.7126 42.5953 31.6126C42.5953 30.7126 40.7953 30.4126 38.9953 30.7126M31.1929 15.3C27.2918 15.3 24.8229 13.0002 23.6555 11.2869C23.1403 10.5308 22.5777 10.0861 21.9682 9.89108M31.1962 15.3C35.0973 15.3 37.5662 13.0002 38.7336 11.2869C39.2425 10.5399 39.7977 10.0969 40.3987 9.89828M21.9682 9.89108C24.13 8.87897 27.4543 8.46631 31.157 8.46631C34.8685 8.46631 38.2373 8.88092 40.3987 9.89828M21.9682 9.89108C21.1967 9.64427 19.7521 10.0755 18.7834 10.777C17.8148 11.4784 16.6648 12.5094 15.5916 13.5001C11.6916 17.1001 9.02033 21.9398 8.09157 25.5001C6.29157 32.4001 6.89157 35.1 5.39157 41.4C4.81912 43.8042 4.49157 47.1 4.19157 50.7C3.89157 54.3 4.16586 58.2057 4.49157 59.4C4.0535 60.1872 4.19156 61.2001 4.19156 62.1001C4.19156 63.0001 4.49142 63.6001 5.39142 63.9001C6.29142 64.2001 11.9914 64.5001 13.1914 64.2001C14.3914 63.9001 14.6914 63.3001 14.6914 62.1001C14.6914 60.9001 14.3914 59.4 14.0916 58.2001C16.7763 53.7255 17.005 47.9696 17.4535 41.4421M40.3987 9.89828C41.1762 9.64135 42.6292 10.1444 43.8608 11.0593C45.0925 11.9743 45.7204 12.5094 46.7936 13.5001C50.6936 17.1001 53.3648 21.9398 54.2936 25.5001C56.0936 32.4001 55.4936 35.1 56.9936 41.4C57.566 43.8042 57.8936 47.1 58.1936 50.7C58.4936 54.3 58.2193 58.2057 57.8936 59.4C58.3317 60.1872 58.4938 61.2001 58.4938 62.1001C58.4938 63.0001 57.8938 63.6001 56.9938 63.9001C56.0938 64.2001 50.3938 64.5001 49.1938 64.2001C47.9938 63.9001 47.6938 63.3001 47.6938 62.1001C47.6938 60.9001 47.9938 59.4 48.2936 58.2001C45.6102 53.7277 45.3804 47.9754 44.9324 41.4518" stroke="#1E1E1E" stroke-linecap="round"/>
</svg>
