<svg width="64" height="84" viewBox="0 0 64 84" fill="none" xmlns="http://www.w3.org/2000/svg">
<path d="M17.5038 27.0317C16.7476 31.2442 16.5264 34.3665 16.5632 36.6785M46.093 27.0317C46.8492 31.2441 47.0704 34.3664 47.0336 36.6784M31.7305 50.2803C36.7063 50.9908 41.3716 50.8733 43.1123 50.5449C45.6941 50.0578 48.2262 48.5425 46.0929 42.4728C46.3871 41.6725 46.9804 40.0236 47.0336 36.6784M31.7305 50.2803C26.7761 50.9821 22.2187 50.8721 20.4845 50.5449C17.9027 50.0578 15.3706 48.5425 17.504 42.4728C17.2097 41.6725 16.6165 40.0236 16.5632 36.6785M31.7305 50.2803C34.152 49.9373 36.6684 49.4004 38.9964 48.6002M31.7984 43.0126C35.3321 42.7876 43.1984 40.9126 43.1984 38.8126C43.1984 37.9126 41.3984 37.6126 39.5984 37.9126M31.796 15.3C27.8949 15.3 25.426 13.0002 24.2586 11.2869C23.7434 10.5308 23.1808 10.0861 22.5713 9.89108M31.7993 15.3C35.7004 15.3 38.1693 13.0002 39.3367 11.2869C39.8457 10.5399 40.4008 10.0969 41.0018 9.89828M22.5713 9.89108C24.7331 8.87897 28.0574 8.46631 31.7602 8.46631C35.4717 8.46631 38.8404 8.88092 41.0018 9.89828M22.5713 9.89108C21.7998 9.64427 18.3238 10.81 14.7439 14.575C11.1641 18.34 9.8144 21.5504 8.6984 24.9001C7.96735 27.0944 7.4984 29.4001 7.4984 31.5001C6.89863 32.4001 6.3939 33.6001 6.34615 34.8001C6.29839 36.0001 6.9645 36.7868 8.28156 36.8434C9.35493 36.8896 13.3394 36.4996 16.5632 36.6785M41.0018 9.89828C41.7793 9.64135 45.2343 10.7483 48.9993 14.5133C52.7643 18.2783 53.7794 21.5504 54.8953 24.9001C55.6264 27.0944 56.0953 29.4001 56.0953 31.5001C56.6951 32.4001 57.1998 33.6001 57.2476 34.8001C57.2954 36.0001 56.6292 36.7868 55.3122 36.8434C54.2392 36.8896 50.2569 36.4999 47.0336 36.6784" stroke="#1E1E1E" stroke-linecap="round"/>
</svg>
