<svg width="64" height="84" viewBox="0 0 64 84" fill="none" xmlns="http://www.w3.org/2000/svg">
<path d="M18.6005 27C17.9509 29.8222 17.4419 33.9349 17.3624 36.7366M44.9964 27C45.6459 29.8221 46.1549 33.9346 46.2345 36.7363M31.6712 43.1495C36.2324 43.8319 40.302 43.6994 42.2963 43.5C45.2964 43.2 45.9678 41.1 46.1963 38.7C46.2457 38.1814 46.2564 37.5087 46.2345 36.7363M31.6712 43.1495C27.1648 43.8106 23.276 43.6975 21.3005 43.5C18.3005 43.2 17.6291 41.1 17.4006 38.7C17.3512 38.1814 17.3405 37.5088 17.3624 36.7366M31.6712 43.1495C34.0084 42.8066 36.5118 42.2555 39.0006 41.4M31.7984 35.8125C35.3321 35.5875 43.1984 33.7125 43.1984 31.6125C43.1984 30.7125 41.3984 30.4125 39.5984 30.7125M19.3862 11.8953C23.1858 10.7152 28.3512 10.3154 31.7985 10.3154C35.2528 10.3154 40.3928 10.7168 44.1947 11.9024M19.3862 11.8953C18.7149 11.565 16.7032 12.2048 14.2716 14.806C11.8401 17.4072 9.8144 21.5503 8.6984 24.9C7.96735 27.0943 7.4984 29.4 7.4984 31.5C6.89863 32.4 6.3939 33.6 6.34615 34.8C6.29839 36 6.9645 36.7867 8.28156 36.8433C9.44568 36.8934 14.0339 36.4305 17.3624 36.7366M19.3862 11.8953C19.8756 12.1361 20.3281 12.636 20.4297 13.645C20.6882 14.8305 20.9724 15.6814 21.1819 16.2001C21.6665 17.4001 22.4973 18.0001 23.6973 18.0001C24.8973 18.0001 27.5973 17.4001 31.7973 17.4001C35.9973 17.4001 38.698 18.0001 39.898 18.0001C41.098 18.0001 41.9288 17.4001 42.4134 16.2001C42.6229 15.6814 42.9072 14.8305 43.1656 13.645C43.2662 12.646 43.7108 12.146 44.1947 11.9024M44.1947 11.9024C44.8697 11.5627 48.0306 12.9965 50.4621 16.2001C52.8937 19.4036 53.7794 21.5503 54.8953 24.9C55.6264 27.0943 56.0953 29.4 56.0953 31.5C56.6951 32.4 57.1998 33.6 57.2476 34.8C57.2954 36 56.6292 36.7867 55.3122 36.8433C54.1484 36.8934 49.5627 36.4308 46.2345 36.7363" stroke="#1E1E1E" stroke-linecap="round"/>
</svg>
