<svg width="64" height="84" viewBox="0 0 64 84" fill="none" xmlns="http://www.w3.org/2000/svg">
<path d="M16.4945 27C16.4437 32.0824 15.9912 39.4264 15.2943 42.6C14.0943 48.0649 14.8041 52.098 15.2944 55.5C14.8266 56.9033 14.3945 58.8 14.4597 60.3C14.4934 61.0777 14.7973 61.5918 15.2911 61.933M47.0975 27C47.1483 32.0824 47.0006 39.4264 47.6974 42.6C48.8974 48.0649 48.1877 52.098 47.6973 55.5C48.1862 56.9665 48.7324 59.4 48.5149 60.6C48.4775 60.8065 48.4199 60.9952 48.3455 61.1665M33.9358 61.3339C36.7984 62.169 45.5975 62.5533 46.4975 62.4766C47.2426 62.4132 47.9878 61.991 48.3455 61.1665M33.9358 61.3339C26.9407 62.4785 18.2442 62.6555 17.0945 62.5095C16.3723 62.4178 15.7497 62.2499 15.2911 61.933M33.9358 61.3339C36.0671 60.9852 38.0405 60.5466 39.5943 60M31.7969 54C35.3306 53.775 43.1969 51.9 43.1969 49.8C43.1969 48.9 41.3969 48.6 39.5969 48.9M19.4004 11.9041C23.2007 10.7224 28.3083 10.3154 31.7578 10.3154C35.2126 10.3154 40.3927 10.717 44.1948 11.903M19.4004 11.9041C18.5425 11.5659 16.4945 12.7066 14.099 15.4901C11.7035 18.2736 9.6219 21.9397 8.69313 25.5C6.89313 32.4 7.49313 35.0999 5.99313 41.3999C5.42068 43.8041 5.09313 47.0999 4.79313 50.6999C4.49313 54.2999 4.76742 58.2056 5.09313 59.3999C4.65506 60.1871 4.79312 61.2 4.79312 62.1C4.79312 63 5.09298 63.6 5.99298 63.9C6.89298 64.2 12.593 64.5 13.793 64.2C14.993 63.9 15.293 63.3 15.293 62.1C15.293 62.0449 15.2923 61.9893 15.2911 61.933M19.4004 11.9041C19.9257 12.1112 20.4127 12.4854 20.8409 13.0464C21.9683 14.5233 24.3527 18.6 31.7962 18.6C39.2397 18.6 41.6239 14.5233 42.7513 13.0464C43.1803 12.4844 43.6683 12.1098 44.1948 11.903M44.1948 11.903C45.0519 11.5662 47.6974 12.5225 49.8536 15.4158C52.0098 18.3091 53.9947 22.7918 54.7843 26.0981C55.5738 29.4044 56.185 35.4935 57.685 41.7935C58.2575 44.1978 58.4952 47.0999 58.7952 50.6999C59.0952 54.2999 58.8209 58.2056 58.4952 59.3999C58.9332 60.1871 59.0953 61.2 59.0953 62.1C59.0953 63 58.4953 63.6 57.5953 63.9C56.6953 64.2 50.9953 64.5 49.7953 64.2C48.5953 63.9 48.2953 63.3 48.2953 62.1C48.2953 61.8041 48.3136 61.4899 48.3455 61.1665" stroke="#1E1E1E" stroke-linecap="round"/>
</svg>
