<svg width="63" height="84" viewBox="0 0 63 84" fill="none" xmlns="http://www.w3.org/2000/svg">
<path d="M16.1039 27.0001C16.0531 32.0825 15.6005 39.4265 14.9037 42.6001C13.7037 48.065 14.4134 52.0981 14.9038 55.5001C14.436 56.9034 14.0039 58.8001 14.069 60.3001C14.1029 61.0795 14.408 61.5941 14.9038 61.9354C15.3621 62.2508 15.9834 62.4181 16.7039 62.5096C17.8536 62.6556 26.5501 62.4786 33.5451 61.334M46.7068 27.0001C46.7577 32.0825 46.6099 39.4265 47.3068 42.6001C48.5068 48.065 47.797 52.0981 47.3067 55.5001C47.7956 56.9666 48.3418 59.4001 48.1243 60.6001C47.9068 61.8001 47.0068 62.4001 46.1068 62.4767C45.2068 62.5534 36.4077 62.1691 33.5451 61.334M33.5451 61.334C35.6765 60.9853 37.6498 60.5467 39.2036 60.0001M31.4062 54.0001C34.9399 53.7751 42.8063 51.9001 42.8063 49.8001C42.8063 48.9001 41.0063 48.6001 39.2063 48.9001M14.9023 62.1001C14.9023 63.3001 14.6024 63.9001 13.4023 64.2001C12.2023 64.5001 6.50236 64.2001 5.60236 63.9001C4.70236 63.6001 4.40249 63.0001 4.40249 62.1001C4.40249 61.2001 4.26444 60.1872 4.70251 59.4C4.3768 58.2057 4.10251 54.3 4.40251 50.7C4.70251 47.1 5.03006 43.8042 5.60251 41.4C7.10251 35.1 6.50251 32.4001 8.30251 25.5001C9.23127 21.9398 11.2671 18.6046 13.1479 16.3655C15.0288 14.1264 17.0888 12.0922 18.6561 10.9916C20.2235 9.89108 21.4076 9.64427 22.1791 9.89108M31.4038 15.3C27.5027 15.3 25.0338 13.0002 23.8664 11.2869C23.3512 10.5308 22.7886 10.0861 22.1791 9.89108M31.4071 15.3C35.3082 15.3 37.7771 13.0002 38.9445 11.2869C39.4535 10.5399 40.0087 10.0969 40.6096 9.89828M22.1791 9.89108C24.3409 8.87897 27.6652 8.46631 31.368 8.46631C35.0795 8.46631 38.4483 8.88092 40.6096 9.89828M40.6096 9.89828C41.3871 9.64135 42.7096 9.89828 44.0994 10.9221C45.4893 11.9458 47.9885 13.9921 50.0037 16.7238C52.0189 19.4555 53.7957 23.1284 54.9593 28.8629C56.1228 34.5974 55.7045 35.1 57.2045 41.4C57.777 43.8042 58.1045 47.1 58.4045 50.7C58.7045 54.3 58.4302 58.2057 58.1045 59.4C58.5426 60.1872 58.7047 61.2001 58.7047 62.1001C58.7047 63.0001 58.1047 63.6001 57.2047 63.9001C56.3047 64.2001 50.6047 64.5001 49.4047 64.2001C48.2047 63.9001 47.9047 63.3001 47.9047 62.1001C47.9047 61.8555 47.9172 61.5985 47.9395 61.334" stroke="#1E1E1E" stroke-linecap="round"/>
</svg>
