<svg width="63" height="84" viewBox="0 0 63 84" fill="none" xmlns="http://www.w3.org/2000/svg">
<path d="M17.1131 27.0316C16.357 31.2441 16.1358 34.3664 16.1726 36.6784M45.7024 27.0316C46.4586 31.244 46.6798 34.3663 46.643 36.6783M31.3399 50.2802C36.3156 50.9907 40.981 50.8732 42.7217 50.5448C45.3035 50.0577 47.8356 48.5424 45.7022 42.4727C45.9965 41.6724 46.5897 40.0235 46.643 36.6783M31.3399 50.2802C26.3855 50.982 21.8281 50.872 20.0939 50.5448C17.512 50.0577 14.98 48.5424 17.1133 42.4727C16.824 41.6857 16.2454 40.0779 16.1757 36.8433C16.1745 36.7888 16.1735 36.7339 16.1726 36.6784M31.3399 50.2802C33.7614 49.9373 36.2778 49.4003 38.6057 48.6001M31.4078 43.0125C34.9414 42.7875 42.8078 40.9125 42.8078 38.8125C42.8078 37.9125 41.0078 37.6125 39.2078 37.9125M18.9956 11.8953C22.7952 10.7152 27.9606 10.3154 31.4079 10.3154C34.8621 10.3154 40.0022 10.7168 43.8041 11.9024M18.9956 11.8953C18.3243 11.565 15.4827 13.1715 13.2245 15.718C10.9663 18.2645 9.42377 21.5503 8.30778 24.9C7.57672 27.0943 7.10778 29.4 7.10778 31.5C6.50801 32.4 6.00328 33.6 5.95552 34.8C5.90777 36 6.57388 36.7867 7.89094 36.8433C8.9643 36.8895 12.9487 36.4996 16.1726 36.6784M18.9956 11.8953C19.485 12.1361 19.9375 12.636 20.0391 13.645C20.2975 14.8305 20.5818 15.6814 20.7913 16.2001C21.2759 17.4001 22.1067 18.0001 23.3067 18.0001C24.5067 18.0001 27.2067 17.4001 31.4067 17.4001C35.6067 17.4001 38.3074 18.0001 39.5074 18.0001C40.7074 18.0001 41.5382 17.4001 42.0228 16.2001C42.2322 15.6814 42.5165 14.8305 42.775 13.645C42.8756 12.646 43.3202 12.146 43.8041 11.9024M43.8041 11.9024C44.4791 11.5627 47.6739 12.7391 50.4125 16.5828C53.1512 20.4266 53.3887 21.5503 54.5047 24.9C55.2358 27.0943 55.7047 29.4 55.7047 31.5C56.3045 32.4 56.8092 33.6 56.857 34.8C56.9047 36 56.2386 36.7867 54.9216 36.8433C53.8485 36.8895 49.8663 36.4998 46.643 36.6783" stroke="#1E1E1E" stroke-linecap="round"/>
</svg>
