<svg width="63" height="84" viewBox="0 0 63 84" fill="none" xmlns="http://www.w3.org/2000/svg">
<path d="M17.8036 27C17.1541 29.8222 16.645 33.9349 16.5655 36.7366M44.1995 27C44.8491 29.8221 45.3581 33.9346 45.4376 36.7363M30.8743 43.1495C35.4355 43.8319 39.5051 43.6994 41.4995 43.5C44.4995 43.2 45.1709 41.1 45.3994 38.7C45.4488 38.1814 45.4595 37.5087 45.4376 36.7363M30.8743 43.1495C26.3679 43.8106 22.4791 43.6975 20.5037 43.5C17.5036 43.2 16.8323 41.1 16.6037 38.7C16.5543 38.1814 16.5436 37.5088 16.5655 36.7366M30.8743 43.1495C33.2116 42.8066 35.715 42.2555 38.2038 41.4M31.0016 35.8125C34.5352 35.5875 42.4016 33.7125 42.4016 31.6125C42.4016 30.7125 40.6016 30.4125 38.8016 30.7125M18.605 11.9041C22.4053 10.7224 27.513 10.3154 30.9625 10.3154C34.4172 10.3154 39.5974 10.717 43.3995 11.903M18.605 11.9041C17.7472 11.5659 15.1699 12.549 12.824 15.4246C10.4781 18.3003 9.01752 21.5503 7.90153 24.9C7.17047 27.0943 6.70153 29.4 6.70153 31.5C6.10176 32.4 5.59703 33.6 5.54927 34.8C5.50152 36 6.16763 36.7867 7.48469 36.8433C8.6488 36.8934 13.2371 36.4305 16.5655 36.7366M18.605 11.9041C19.1304 12.1112 19.6174 12.4854 20.0456 13.0464C21.173 14.5233 23.5574 18.6 31.0009 18.6C38.4444 18.6 40.8286 14.5233 41.956 13.0464C42.385 12.4844 42.873 12.1098 43.3995 11.903M43.3995 11.903C44.2566 11.5662 47.3316 12.549 49.9802 16.3327C52.6288 20.1165 52.9825 21.5503 54.0985 24.9C54.8295 27.0943 55.2985 29.4 55.2985 31.5C55.8982 32.4 56.403 33.6 56.4507 34.8C56.4985 36 55.8324 36.7867 54.5153 36.8433C53.3516 36.8934 48.7658 36.4308 45.4376 36.7363" stroke="#1E1E1E" stroke-linecap="round"/>
</svg>
