<svg width="63" height="84" viewBox="0 0 63 84" fill="none" xmlns="http://www.w3.org/2000/svg">
<path d="M18.2083 27.0001C17.3797 30.6001 16.7798 36.3001 17.0084 38.7001C17.1039 39.703 17.2767 40.6534 17.6644 41.4421M44.6042 27.0001C45.4328 30.6001 46.0327 36.3001 45.8041 38.7001C45.7082 39.7071 45.5344 40.6612 45.1433 41.4518M31.279 43.1496C35.8402 43.832 39.9098 43.6995 41.9042 43.5001C43.6455 43.326 44.6023 42.5454 45.1433 41.4518M31.279 43.1496C26.7726 43.8107 22.8838 43.6976 20.9083 43.5001C19.1619 43.3255 18.2046 42.5408 17.6644 41.4421M31.279 43.1496C33.6162 42.8067 36.1197 42.2556 38.6085 41.4001M31.4062 35.8126C34.9399 35.5876 42.8063 33.7126 42.8063 31.6126C42.8063 30.7126 41.0063 30.4126 39.2062 30.7126M20.9117 10.5966C23.0703 9.55079 27.6458 8.46631 31.4045 8.46631C35.1631 8.46631 39.4955 9.59583 41.6541 10.6416M20.9117 10.5966C20.2162 10.5003 18.7433 10.8316 16.8837 12.3425C15.0242 13.8533 13.4852 15.871 12.5222 17.1611C10.4033 19.9998 8.94106 23.0523 8.30251 25.5001C6.50251 32.4001 7.10251 35.1 5.60251 41.4C5.03006 43.8042 4.70251 47.1 4.40251 50.7C4.10251 54.3 4.3768 58.2057 4.70251 59.4C4.26444 60.1872 4.40249 61.2001 4.40249 62.1001C4.40249 63.0001 4.70236 63.6001 5.60236 63.9001C6.50236 64.2001 12.2023 64.5001 13.4023 64.2001C14.6024 63.9001 14.9023 63.3001 14.9023 62.1001C14.9024 60.9001 14.6024 59.4 14.3025 58.2001C16.9872 53.7255 17.216 47.9696 17.6644 41.4421M20.9117 10.5966C22.184 10.7728 23.2448 11.6826 24.3168 12.7925C25.9747 14.5091 29.2626 17.7498 29.9077 18.1986C30.5528 18.6474 30.8613 18.75 31.4138 18.75C31.9664 18.75 32.2655 18.6474 32.9106 18.1986C33.5557 17.7498 36.8436 14.5091 38.5015 12.7925C39.5018 11.7568 40.4923 10.8954 41.6541 10.6416M41.6541 10.6416C42.4179 10.4748 44.6042 10.9865 46.4427 12.7925C48.2812 14.5984 49.5362 16.1165 50.5643 17.5419C52.5325 20.2707 53.7441 23.2686 54.3542 25.6073C56.1542 32.5073 55.7045 35.1 57.2045 41.4C57.777 43.8042 58.1045 47.1 58.4045 50.7C58.7045 54.3 58.4302 58.2057 58.1045 59.4C58.5426 60.1872 58.7047 61.2001 58.7047 62.1001C58.7047 63.0001 58.1047 63.6001 57.2047 63.9001C56.3047 64.2001 50.6047 64.5001 49.4047 64.2001C48.2047 63.9001 47.9047 63.3001 47.9047 62.1001C47.9047 60.9001 48.2047 59.4 48.5045 58.2001C45.8212 53.7277 45.5913 47.9754 45.1433 41.4518" stroke="#1E1E1E" stroke-linecap="round"/>
</svg>
