<svg width="63" height="84" viewBox="0 0 63 84" fill="none" xmlns="http://www.w3.org/2000/svg">
<path d="M14.6956 27C14.6447 32.0824 15.2958 43.5 14.0955 52.2C13.1046 59.3824 13.8246 61.1792 14.3819 63.5016M47.695 27C47.7459 32.0824 47.0949 43.5 48.2951 52.2C49.2868 59.3884 48.5648 61.1822 48.0074 63.5075M30.2546 71.368C34.1874 71.9941 44.395 72.2191 45.895 72.1095C47.395 72 48.4855 71.1 48.5403 69.6C48.595 68.1 48.1409 66.4375 47.695 65.1C47.7802 64.5089 47.8902 63.9965 48.0074 63.5075M30.2546 71.368C24.0061 72.1226 17.4807 72.2346 16.4957 72.1095C14.9957 71.9191 14.0956 71.4 13.8698 70.0701C13.644 68.7402 14.2158 66.5394 14.6956 65.1C14.6101 64.5066 14.4996 63.9924 14.3819 63.5016M30.2546 71.368C33.5209 70.9736 36.7115 70.4035 38.9955 69.6M31.1953 63.6C34.729 63.375 42.5953 61.5 42.5953 59.4C42.5953 58.5 40.7953 58.2 38.9953 58.5M18.7831 11.8953C22.5827 10.7152 27.7481 10.3154 31.1954 10.3154C34.6496 10.3154 39.7897 10.7168 43.5916 11.9024M18.7831 11.8953C18.1118 11.565 16.3752 12.2516 14.3099 14.3169C12.2446 16.3822 9.02033 21.9397 8.09157 25.5C6.29157 32.4 6.89157 35.0999 5.39157 41.3999C4.81912 43.8041 4.49157 47.0999 4.19157 50.6999C3.89157 54.2999 4.16586 58.2056 4.49157 59.3999C4.0535 60.1871 4.19156 61.2 4.19156 62.1C4.19156 63 4.49142 63.6 5.39142 63.9C6.29142 64.2 11.9914 64.5 13.1914 64.2C13.783 64.0521 14.1559 63.8313 14.3819 63.5016M18.7831 11.8953C19.2725 12.1361 19.725 12.636 19.8266 13.645C20.085 14.8305 20.3693 15.6814 20.5788 16.2001C21.0634 17.4001 21.8942 18.0001 23.0942 18.0001C24.2942 18.0001 26.9942 17.4001 31.1942 17.4001C35.3942 17.4001 38.0949 18.0001 39.2949 18.0001C40.4949 18.0001 41.3257 17.4001 41.8103 16.2001C42.0197 15.6814 42.304 14.8305 42.5625 13.645C42.6631 12.646 43.1077 12.146 43.5916 11.9024M43.5916 11.9024C44.2666 11.5627 45.0101 11.1911 47.2429 13.1447C49.4756 15.0984 52.3256 18.0001 54.1608 25.2835C55.996 32.5669 55.4936 35.0999 56.9936 41.3999C57.566 43.8041 57.8936 47.0999 58.1936 50.6999C58.4936 54.2999 58.2193 58.2056 57.8936 59.3999C58.3317 60.1871 58.4938 61.2 58.4938 62.1C58.4938 63 57.8938 63.6 56.9938 63.9C56.0938 64.2 50.3938 64.5 49.1938 64.2C48.6057 64.053 48.2338 63.8339 48.0074 63.5075" stroke="#1E1E1E" stroke-linecap="round"/>
</svg>
