<svg width="63" height="84" viewBox="0 0 63 84" fill="none" xmlns="http://www.w3.org/2000/svg">
<path d="M17.8099 28C16.9813 31.6 16.3814 37.3 16.6099 39.7C16.7054 40.7029 16.8783 41.6533 17.266 42.442M44.2058 28C45.0344 31.6 45.6343 37.3 45.4057 39.7C45.3098 40.707 45.1359 41.6611 44.7449 42.4517M30.8805 44.1495C35.4418 44.8319 39.5114 44.6994 41.5057 44.5C43.247 44.3259 44.2038 43.5453 44.7449 42.4517M30.8805 44.1495C26.3741 44.8106 22.4854 44.6975 20.5099 44.5C18.7634 44.3254 17.8062 43.5407 17.266 42.442M30.8805 44.1495C33.2178 43.8066 35.7212 43.2555 38.21 42.4M31.0078 36.8125C34.5415 36.5875 42.4078 34.7125 42.4078 32.6125C42.4078 31.7125 40.6078 31.4125 38.8078 31.7125M18.6113 12.9041C22.4116 11.7224 27.5193 11.3154 30.9687 11.3154C34.4235 11.3154 39.6037 11.717 43.4058 12.903M18.6113 12.9041C17.7534 12.5659 16.018 13.3806 13.7319 15.6668C11.4457 17.9529 8.83283 22.9397 7.90407 26.5C6.10407 33.4 6.70407 36.0999 5.20407 42.3999C4.63162 44.8041 4.30407 48.0999 4.00407 51.6999C3.70407 55.2999 3.97836 59.2056 4.30407 60.3999C3.866 61.1871 4.00406 62.2 4.00406 63.1C4.00406 64 4.30392 64.6 5.20392 64.9C6.10392 65.2 11.8039 65.5 13.0039 65.2C14.2039 64.9 14.5039 64.3 14.5039 63.1C14.5039 61.9 14.2039 60.3999 13.9041 59.2C16.5888 54.7254 16.8175 48.9696 17.266 42.442M18.6113 12.9041C19.1367 13.1112 19.6236 13.4854 20.0518 14.0464C21.1792 15.5233 23.5636 19.6 31.0071 19.6C38.4506 19.6 40.8348 15.5233 41.9622 14.0464C42.3912 13.4844 42.8792 13.1098 43.4058 12.903M43.4058 12.903C44.2628 12.5662 45.9631 13.3056 48.4366 16.1165C50.9102 18.9274 53.1773 22.9397 54.1061 26.5C55.9061 33.4 55.3061 36.0999 56.8061 42.3999C57.3785 44.8041 57.7061 48.0999 58.0061 51.6999C58.3061 55.2999 58.0318 59.2056 57.7061 60.3999C58.1442 61.1871 58.3063 62.2 58.3063 63.1C58.3063 64 57.7063 64.6 56.8063 64.9C55.9063 65.2 50.2063 65.5 49.0063 65.2C47.8063 64.9 47.5063 64.3 47.5063 63.1C47.5063 61.9 47.8063 60.3999 48.1061 59.2C45.4227 54.7276 45.1929 48.9753 44.7449 42.4517" stroke="#1E1E1E" stroke-linecap="round"/>
</svg>
