<svg width="64" height="84" viewBox="0 0 64 84" fill="none" xmlns="http://www.w3.org/2000/svg">
<path d="M17.5038 27.0316C16.7476 31.2441 16.5264 34.3664 16.5632 36.6784M46.093 27.0316C46.8492 31.244 47.0704 34.3663 47.0336 36.6783M31.7305 50.2803C36.7063 50.9907 41.3716 50.8732 43.1123 50.5448C45.6941 50.0577 48.2262 48.5424 46.0929 42.4727C46.3871 41.6724 46.9804 40.0235 47.0336 36.6783M31.7305 50.2803C26.7761 50.982 22.2187 50.872 20.4845 50.5448C17.9027 50.0577 15.3706 48.5424 17.504 42.4727C17.2097 41.6724 16.6165 40.0235 16.5632 36.6784M31.7305 50.2803C34.152 49.9373 36.6684 49.4003 38.9964 48.6001M31.7984 43.0125C35.3321 42.7875 43.1984 40.9125 43.1984 38.8125C43.1984 37.9125 41.3984 37.6125 39.5984 37.9125M16.768 12.7998C16.9324 13.503 17.2502 15.6705 17.2063 17.906M17.2063 17.906C16.8154 17.9016 16.5442 17.899 16.4188 17.899C13.6341 17.899 11.9797 18.228 10.7908 19.6672C9.60193 21.1063 9.0447 22.284 8.28156 24.388C7.51842 26.492 7.4984 29.4 7.4984 31.5C6.89863 32.4 6.3939 33.6 6.34615 34.8C6.29839 36 6.9645 36.7867 8.28156 36.8433C9.35493 36.8895 13.3394 36.4996 16.5632 36.6784M17.2063 17.906C19.5236 17.932 26.0499 18.0202 31.3913 17.9943C36.7327 18.0202 43.2655 17.932 45.5827 17.906M46.0211 12.7998C45.8567 13.503 45.5389 15.6705 45.5827 17.906M45.5827 17.906C45.9737 17.9016 46.2449 17.899 46.3703 17.899C49.1549 17.899 50.8094 18.228 51.9983 19.6672C53.1871 21.1063 53.8796 21.8832 54.8314 24.1876C55.7832 26.492 56.0953 29.4 56.0953 31.5C56.6951 32.4 57.1998 33.6 57.2476 34.8C57.2954 36 56.6292 36.7867 55.3122 36.8433C54.2392 36.8895 50.2569 36.4998 47.0336 36.6783" stroke="#1E1E1E" stroke-linecap="round"/>
</svg>
