<svg width="64" height="84" viewBox="0 0 64 84" fill="none" xmlns="http://www.w3.org/2000/svg">
<path d="M17.5022 27.0317C15.652 37.3389 17.0048 41.1194 17.5024 42.4728C16.3312 45.8051 16.5661 47.7647 17.4435 48.935M46.0915 27.0317C47.9417 37.3389 46.5889 41.1194 46.0913 42.4728C47.2646 45.811 47.0267 47.7716 46.1455 48.9412M31.7289 50.2803C36.7047 50.9908 41.3701 50.8733 43.1107 50.5449C44.2726 50.3257 45.4245 49.8982 46.1455 48.9412M31.7289 50.2803C26.7745 50.9821 22.2172 50.8721 20.483 50.5449C19.3185 50.3252 18.1643 49.8964 17.4435 48.935M31.7289 50.2803C34.1505 49.9373 36.6668 49.4004 38.9948 48.6002M31.7968 43.0126C35.3305 42.7876 43.1968 40.9126 43.1968 38.8126C43.1968 37.9126 41.3968 37.6126 39.5968 37.9126M31.7944 15.3C27.8933 15.3 25.4244 13.0002 24.2571 11.2869C23.7419 10.5308 23.1793 10.0861 22.5698 9.89108M31.7978 15.3C35.6989 15.3 38.1678 13.0002 39.3351 11.2869C39.8441 10.5399 40.3993 10.0969 41.0003 9.89828M22.5698 9.89108C24.7316 8.87897 28.0559 8.46631 31.7586 8.46631C35.4701 8.46631 38.8389 8.88092 41.0003 9.89828M22.5698 9.89108C21.7982 9.64427 19.7371 10.2586 18.631 10.9653C17.5249 11.6719 15.7301 12.4951 13.2861 15.8868C10.8421 19.2784 9.6219 21.9398 8.69313 25.5001C6.89313 32.4001 7.49313 35.1 5.99313 41.4C5.42068 43.8042 5.09313 47.1 4.79313 50.7C4.49313 54.3 4.76742 58.2057 5.09313 59.4C4.65506 60.1872 4.79312 61.2001 4.79312 62.1001C4.79312 63.0001 5.09298 63.6001 5.99298 63.9001C6.89298 64.2001 12.593 64.5001 13.793 64.2001C14.993 63.9001 15.293 63.3001 15.293 62.1001C15.293 60.9001 14.993 59.4 14.6931 58.2001C16.2943 55.5314 17.0219 52.407 17.4435 48.935M41.0003 9.89828C41.7777 9.64135 42.7038 9.76835 43.5617 10.226C44.4196 10.6836 47.9075 12.6469 50.5202 16.3833C53.1328 20.1198 53.9664 21.9398 54.8952 25.5001C56.6952 32.4001 56.0952 35.1 57.5952 41.4C58.1676 43.8042 58.4952 47.1 58.7952 50.7C59.0952 54.3 58.8209 58.2057 58.4952 59.4C58.9332 60.1872 59.0953 61.2001 59.0953 62.1001C59.0953 63.0001 58.4953 63.6001 57.5953 63.9001C56.6953 64.2001 50.9953 64.5001 49.7953 64.2001C48.5953 63.9001 48.2953 63.3001 48.2953 62.1001C48.2953 60.9001 48.5953 59.4 48.8952 58.2001C47.2949 55.533 46.5673 52.4107 46.1455 48.9412" stroke="#1E1E1E" stroke-linecap="round"/>
</svg>
