<svg width="63" height="84" viewBox="0 0 63 84" fill="none" xmlns="http://www.w3.org/2000/svg">
<path d="M16.1039 27C16.0531 32.0824 15.6005 39.4264 14.9037 42.6C13.7037 48.0649 14.4134 52.098 14.9038 55.5C14.436 56.9033 14.0039 58.8 14.069 60.3C14.1028 61.0777 14.4066 61.5918 14.9005 61.933M46.7068 27C46.7577 32.0824 46.6099 39.4264 47.3068 42.6C48.5068 48.0649 47.797 52.098 47.3067 55.5C47.7956 56.9665 48.3418 59.4 48.1243 60.6C48.0869 60.8065 48.0293 60.9952 47.9549 61.1665M33.5451 61.3339C36.4077 62.169 45.2068 62.5533 46.1068 62.4766C46.852 62.4132 47.5971 61.991 47.9549 61.1665M33.5451 61.3339C26.5501 62.4785 17.8536 62.6555 16.7039 62.5095C15.9816 62.4178 15.3591 62.2499 14.9005 61.933M33.5451 61.3339C35.6765 60.9852 37.6498 60.5466 39.2036 60M31.4062 54C34.9399 53.775 42.8063 51.9 42.8063 49.8C42.8063 48.9 41.0063 48.6 39.2063 48.9M16.3758 12.7998C16.5402 13.503 16.858 15.6705 16.8141 17.906M16.8141 17.906C16.4232 17.9016 16.152 17.899 16.0266 17.899C13.2419 17.899 11.5875 18.228 10.3986 19.6672C9.20974 21.1063 9.05459 21.606 8.35938 23.0891C7.66416 24.5721 7.04316 27 6.72557 30.5516C6.40798 34.1031 7.10251 35.0999 5.60251 41.3999C5.03006 43.8041 4.70251 47.0999 4.40251 50.6999C4.10251 54.2999 4.3768 58.2056 4.70251 59.3999C4.26444 60.1871 4.40249 61.2 4.40249 62.1C4.40249 63 4.70236 63.6 5.60236 63.9C6.50236 64.2 12.2023 64.5 13.4023 64.2C14.6024 63.9 14.9023 63.3 14.9023 62.1C14.9023 62.045 14.9017 61.9893 14.9005 61.933M16.8141 17.906C19.1314 17.932 25.6577 18.0202 30.9991 17.9943C36.3405 18.0202 42.8733 17.932 45.1906 17.906M45.6289 12.7998C45.4645 13.503 45.1467 15.6705 45.1906 17.906M45.1906 17.906C45.5815 17.9016 45.8527 17.899 45.9781 17.899C48.7627 17.899 50.4172 18.228 51.6061 19.6672C52.7949 21.1063 53.2822 22.4628 53.8341 24.4337C54.3859 26.4045 55.0654 30.4592 55.6521 33.5392C56.2388 36.6192 55.9633 36.1866 57.2045 41.3999C58.4458 46.6131 58.1045 47.0999 58.4045 50.6999C58.7045 54.2999 58.4302 58.2056 58.1045 59.3999C58.5426 60.1871 58.7047 61.2 58.7047 62.1C58.7047 63 58.1047 63.6 57.2047 63.9C56.3047 64.2 50.6047 64.5 49.4047 64.2C48.2047 63.9 47.9047 63.3 47.9047 62.1C47.9047 61.8041 47.9229 61.4899 47.9549 61.1665" stroke="#1E1E1E" stroke-linecap="round"/>
</svg>
