<svg width="63" height="84" viewBox="0 0 63 84" fill="none" xmlns="http://www.w3.org/2000/svg">
<path d="M16.7131 27.0317C14.8629 37.3389 16.2157 41.1194 16.7133 42.4728C15.5421 45.8051 15.7771 47.7647 16.6545 48.935M45.3024 27.0317C47.1527 37.3389 45.7998 41.1194 45.3022 42.4728C46.4755 45.811 46.2376 47.7716 45.3565 48.9412M30.9399 50.2803C35.9156 50.9908 40.581 50.8733 42.3217 50.5449C43.4836 50.3257 44.6354 49.8982 45.3565 48.9412M30.9399 50.2803C25.9855 50.9821 21.4281 50.8721 19.6939 50.5449C18.5295 50.3252 17.3752 49.8964 16.6545 48.935M30.9399 50.2803C33.3614 49.9373 35.8778 49.4004 38.2057 48.6002M31.0077 43.0126C34.5414 42.7876 42.4078 40.9126 42.4078 38.8126C42.4078 37.9126 40.6078 37.6126 38.8078 37.9126M20.5133 10.5966C22.6719 9.55079 27.2474 8.46631 31.006 8.46631C34.7647 8.46631 39.097 9.59583 41.2557 10.6416M20.5133 10.5966C19.8178 10.5003 18.8162 10.7639 17.8228 11.4734C16.8295 12.183 16.2223 12.7448 15.4041 13.5001C11.5041 17.1001 8.83283 21.9398 7.90407 25.5001C6.10407 32.4001 6.70407 35.1 5.20407 41.4C4.63162 43.8042 4.30407 47.1 4.00407 50.7C3.70407 54.3 3.97836 58.2057 4.30407 59.4C3.866 60.1872 4.00406 61.2001 4.00406 62.1001C4.00406 63.0001 4.30392 63.6001 5.20392 63.9001C6.10392 64.2001 11.8039 64.5001 13.0039 64.2001C14.2039 63.9001 14.5039 63.3001 14.5039 62.1001C14.5039 60.9001 14.2039 59.4 13.9041 58.2001C15.5052 55.5314 16.2328 52.407 16.6545 48.935M20.5133 10.5966C21.7856 10.7728 22.8464 11.6826 23.9183 12.7925C25.5763 14.5091 28.8641 17.7498 29.5092 18.1986C30.1543 18.6474 30.4629 18.75 31.0154 18.75C31.5679 18.75 31.8671 18.6474 32.5122 18.1986C33.1573 17.7498 36.4452 14.5091 38.1031 12.7925C39.1034 11.7568 40.0939 10.8954 41.2557 10.6416M41.2557 10.6416C42.0195 10.4748 43.1529 10.8349 44.1935 11.5444C45.2341 12.2539 45.9223 12.8689 46.6061 13.5001C50.5061 17.1001 53.1773 21.9398 54.1061 25.5001C55.9061 32.4001 55.3061 35.1 56.8061 41.4C57.3785 43.8042 57.7061 47.1 58.0061 50.7C58.3061 54.3 58.0318 58.2057 57.7061 59.4C58.1442 60.1872 58.3063 61.2001 58.3063 62.1001C58.3063 63.0001 57.7063 63.6001 56.8063 63.9001C55.9063 64.2001 50.2063 64.5001 49.0063 64.2001C47.8063 63.9001 47.5063 63.3001 47.5063 62.1001C47.5063 60.9001 47.8063 59.4 48.1061 58.2001C46.5059 55.533 45.7782 52.4107 45.3565 48.9412" stroke="#1E1E1E" stroke-linecap="round"/>
</svg>
