<svg width="63" height="84" viewBox="0 0 63 84" fill="none" xmlns="http://www.w3.org/2000/svg">
<path d="M14.9081 27C14.8857 29.2402 14.9996 32.7111 15.0313 36.6377M47.9075 27C47.9299 29.2402 47.816 32.7111 47.7843 36.6376M30.4671 71.368C34.3999 71.9941 44.6075 72.2191 46.1075 72.1095C47.6075 72 48.698 71.1 48.7528 69.6C48.8075 68.1 48.3534 66.4375 47.9075 65.1C48.3978 61.698 49.7079 60.9 48.5076 52.2C47.8364 47.3347 47.7441 41.6195 47.7843 36.6376M30.4671 71.368C24.2186 72.1226 17.6932 72.2346 16.7082 72.1095C15.2082 71.9191 14.3081 71.4 14.0823 70.0701C13.8565 68.7402 14.4283 66.5394 14.9081 65.1C14.4178 61.698 13.1077 60.9 14.308 52.2C14.9792 47.3347 15.0715 41.6195 15.0313 36.6377M30.4671 71.368C33.7334 70.9736 36.924 70.4035 39.208 69.6M31.4078 63.6C34.9415 63.375 42.8078 61.5 42.8078 59.4C42.8078 58.5 41.0078 58.2 39.2078 58.5M19.0113 11.9041C22.8116 10.7224 27.9193 10.3154 31.3687 10.3154C34.8235 10.3154 40.0037 10.717 43.8057 11.903M19.0113 11.9041C18.1534 11.5659 16.0563 12.4284 13.7091 14.8902C11.3618 17.3519 9.42377 21.5503 8.30778 24.9C7.57672 27.0943 7.10778 29.4 7.10778 31.5C6.50801 32.4 6.00328 33.6 5.95552 34.8C5.90777 36 6.57388 36.7867 7.89094 36.8433C8.84039 36.8842 12.0676 36.5838 15.0313 36.6377M19.0113 11.9041C19.5367 12.1112 20.0236 12.4854 20.4518 13.0464C21.5792 14.5233 23.9636 18.6 31.4071 18.6C38.8506 18.6 41.2348 14.5233 42.3622 13.0464C42.7912 12.4844 43.2792 12.1098 43.8057 11.903M43.8057 11.903C44.6628 11.5662 47.4866 12.4284 49.9483 15.5199C52.4101 18.6114 53.3887 21.5503 54.5047 24.9C55.2358 27.0943 55.7047 29.4 55.7047 31.5C56.3045 32.4 56.8092 33.6 56.857 34.8C56.9047 36 56.2386 36.7867 54.9216 36.8433C53.9724 36.8842 50.7472 36.584 47.7843 36.6376" stroke="#1E1E1E" stroke-linecap="round"/>
</svg>
