<svg width="63" height="84" viewBox="0 0 63 84" fill="none" xmlns="http://www.w3.org/2000/svg">
<path d="M14.5018 27C14.4794 29.2402 14.5934 32.7111 14.625 36.6377M47.5013 27C47.5237 29.2402 47.4098 32.7111 47.3781 36.6376M30.0609 71.368C33.9936 71.9941 44.2013 72.2191 45.7013 72.1095C47.2013 72 48.2917 71.1 48.3465 69.6C48.4013 68.1 47.9471 66.4375 47.5013 65.1C47.9916 61.698 49.3016 60.9 48.1014 52.2C47.4301 47.3347 47.3379 41.6195 47.3781 36.6376M30.0609 71.368C23.8124 72.1226 17.287 72.2346 16.3019 72.1095C14.8019 71.9191 13.9019 71.4 13.6761 70.0701C13.4503 68.7402 14.022 66.5394 14.5018 65.1C14.0115 61.698 12.7015 60.9 13.9018 52.2C14.573 47.3347 14.6652 41.6195 14.625 36.6377M30.0609 71.368C33.3271 70.9736 36.5177 70.4035 38.8017 69.6M31.0016 63.6C34.5352 63.375 42.4016 61.5 42.4016 59.4C42.4016 58.5 40.6016 58.2 38.8016 58.5M15.9711 12.7998C16.1355 13.503 16.4533 15.6705 16.4094 17.906M16.4094 17.906C16.0185 17.9016 15.7473 17.899 15.6219 17.899C12.8373 17.899 11.496 17.86 10.3203 19.0956C9.14464 20.3312 8.43305 21.7035 7.48469 24.6781C6.53632 27.6526 6.70153 29.4 6.70153 31.5C6.10176 32.4 5.59703 33.6 5.54927 34.8C5.50152 36 6.16763 36.7867 7.48469 36.8433C8.43414 36.8842 11.6613 36.5838 14.625 36.6377M16.4094 17.906C18.7267 17.932 25.253 18.0202 30.5944 17.9943C35.9359 18.0202 42.4686 17.932 44.7859 17.906M45.2242 12.7998C45.0598 13.503 44.742 15.6705 44.7859 17.906M44.7859 17.906C45.1768 17.9016 45.448 17.899 45.5734 17.899C48.3581 17.899 50.0125 18.228 51.2014 19.6672C52.3903 21.1063 53.2699 22.6881 53.8561 24.713C54.4422 26.7378 55.2985 29.4 55.2985 31.5C55.8982 32.4 56.403 33.6 56.4507 34.8C56.4985 36 55.8324 36.7867 54.5153 36.8433C53.5662 36.8842 50.3409 36.584 47.3781 36.6376" stroke="#1E1E1E" stroke-linecap="round"/>
</svg>
