<svg width="63" height="84" viewBox="0 0 63 84" fill="none" xmlns="http://www.w3.org/2000/svg">
<path d="M14.9065 27C14.8557 32.0824 15.5067 43.5 14.3064 52.2C13.3156 59.3824 14.0356 61.1792 14.5928 63.5016M47.906 27C47.9568 32.0824 47.3058 43.5 48.5061 52.2C49.4978 59.3884 48.7757 61.1822 48.2183 63.5075M30.4655 71.368C34.3983 71.9941 44.606 72.2191 46.106 72.1095C47.606 72 48.6964 71.1 48.7512 69.6C48.806 68.1 48.3518 66.4375 47.906 65.1C47.9912 64.5089 48.1011 63.9965 48.2183 63.5075M30.4655 71.368C24.2171 72.1226 17.6917 72.2346 16.7066 72.1095C15.2066 71.9191 14.3065 71.4 14.0807 70.0701C13.855 68.7402 14.4267 66.5394 14.9065 65.1C14.821 64.5066 14.7105 63.9924 14.5928 63.5016M30.4655 71.368C33.7318 70.9736 36.9224 70.4035 39.2064 69.6M31.4062 63.6C34.9399 63.375 42.8063 61.5 42.8063 59.4C42.8063 58.5 41.0063 58.2 39.2063 58.5M19.0097 11.9041C22.81 10.7224 27.9177 10.3154 31.3671 10.3154C34.8219 10.3154 40.0021 10.717 43.8042 11.903M19.0097 11.9041C18.1519 11.5659 15.0614 13.3453 12.9437 16.012C10.8261 18.6786 9.23127 21.9397 8.30251 25.5C6.50251 32.4 7.10251 35.0999 5.60251 41.3999C5.03006 43.8041 4.70251 47.0999 4.40251 50.6999C4.10251 54.2999 4.3768 58.2056 4.70251 59.3999C4.26444 60.1871 4.40249 61.2 4.40249 62.1C4.40249 63 4.70236 63.6 5.60236 63.9C6.50236 64.2 12.2023 64.5 13.4023 64.2C13.9939 64.0521 14.3668 63.8313 14.5928 63.5016M19.0097 11.9041C19.5351 12.1112 20.0221 12.4854 20.4503 13.0464C21.5777 14.5233 23.9621 18.6 31.4056 18.6C38.8491 18.6 41.2333 14.5233 42.3607 13.0464C42.7897 12.4844 43.2777 12.1098 43.8042 11.903M43.8042 11.903C44.6613 11.5662 47.8486 13.2338 50.053 15.9895C52.2575 18.7452 53.5758 21.9397 54.5045 25.5C56.3045 32.4 55.7045 35.0999 57.2045 41.3999C57.777 43.8041 58.1045 47.0999 58.4045 50.6999C58.7045 54.2999 58.4302 58.2056 58.1045 59.3999C58.5426 60.1871 58.7047 61.2 58.7047 62.1C58.7047 63 58.1047 63.6 57.2047 63.9C56.3047 64.2 50.6047 64.5 49.4047 64.2C48.8166 64.053 48.4447 63.8339 48.2183 63.5075" stroke="#1E1E1E" stroke-linecap="round"/>
</svg>
