<svg width="63" height="84" viewBox="0 0 63 84" fill="none" xmlns="http://www.w3.org/2000/svg">
<path d="M14.5081 27C14.4572 32.0824 15.1083 43.5 13.908 52.2C12.9171 59.3824 13.6371 61.1792 14.1944 63.5016M47.5075 27C47.5584 32.0824 46.9074 43.5 48.1076 52.2C49.0993 59.3884 48.3773 61.1822 47.8199 63.5075M30.0671 71.368C33.9999 71.9941 44.2075 72.2191 45.7075 72.1095C47.2075 72 48.298 71.1 48.3528 69.6C48.4075 68.1 47.9534 66.4375 47.5075 65.1C47.5927 64.5089 47.7027 63.9965 47.8199 63.5075M30.0671 71.368C23.8186 72.1226 17.2932 72.2346 16.3082 72.1095C14.8082 71.9191 13.9081 71.4 13.6823 70.0701C13.4565 68.7402 14.0283 66.5394 14.5081 65.1C14.4226 64.5066 14.3121 63.9924 14.1944 63.5016M30.0671 71.368C33.3334 70.9736 36.524 70.4035 38.808 69.6M31.0078 63.6C34.5415 63.375 42.4078 61.5 42.4078 59.4C42.4078 58.5 40.6078 58.2 38.8078 58.5M15.9774 12.7998C16.1417 13.503 16.4595 15.6705 16.4157 17.906M16.4157 17.906C16.0247 17.9016 15.7536 17.899 15.6281 17.899C12.8435 17.899 11.7781 17.899 10.0002 19.6672C8.22223 21.4353 8.36287 23.0891 7.90407 25.5C7.44527 27.9109 6.70407 35.0999 5.20407 41.3999C4.63162 43.8041 4.30407 47.0999 4.00407 50.6999C3.70407 54.2999 3.97836 58.2056 4.30407 59.3999C3.866 60.1871 4.00406 61.2 4.00406 62.1C4.00406 63 4.30392 63.6 5.20392 63.9C6.10392 64.2 11.8039 64.5 13.0039 64.2C13.5955 64.0521 13.9684 63.8313 14.1944 63.5016M16.4157 17.906C18.733 17.932 25.2593 18.0202 30.6007 17.9943C35.9421 18.0202 42.4748 17.932 44.7921 17.906M45.2305 12.7998C45.0661 13.503 44.7483 15.6705 44.7921 17.906M44.7921 17.906C45.1831 17.9016 45.4542 17.899 45.5797 17.899C48.3643 17.899 50.0776 18.4831 51.2076 19.6672C52.3377 20.8512 53.1676 21.7357 54.1061 25.5C55.0446 29.2643 55.3061 35.0999 56.8061 41.3999C57.3785 43.8041 57.7061 47.0999 58.0061 50.6999C58.3061 54.2999 58.0318 58.2056 57.7061 59.3999C58.1442 60.1871 58.3063 61.2 58.3063 62.1C58.3063 63 57.7063 63.6 56.8063 63.9C55.9063 64.2 50.2063 64.5 49.0063 64.2C48.4182 64.053 48.0463 63.8339 47.8199 63.5075" stroke="#1E1E1E" stroke-linecap="round"/>
</svg>
