<svg width="63" height="84" viewBox="0 0 63 84" fill="none" xmlns="http://www.w3.org/2000/svg">
<path d="M15.8945 27.0001C15.8657 29.8821 15.7077 33.4913 15.4492 36.655M46.4975 27.0001C46.5264 29.8868 46.4912 33.5031 46.5831 36.6704M33.3358 61.334C36.1984 62.1691 44.9975 62.5534 45.8975 62.4767C46.7975 62.4001 47.6975 61.8001 47.9149 60.6001C48.1324 59.4001 47.5862 56.9666 47.0974 55.5001C47.5877 52.0981 48.2974 48.065 47.0974 42.6001C46.7964 41.229 46.653 39.0796 46.5831 36.6704M33.3358 61.334C26.3407 62.4786 17.6442 62.6556 16.4945 62.5096C14.9945 62.3192 13.9248 61.8001 13.8597 60.3001C13.7945 58.8001 14.2266 56.9034 14.6944 55.5001C14.2041 52.0981 13.4943 48.065 14.6943 42.6001C14.996 41.2261 15.2519 39.0704 15.4492 36.655M33.3358 61.334C35.4671 60.9853 37.4405 60.5467 38.9943 60.0001M31.1969 54.0001C34.7306 53.7751 42.5969 51.9001 42.5969 49.8001C42.5969 48.9001 40.7969 48.6001 38.9969 48.9001M20.7023 10.5966C22.8609 9.55079 27.4365 8.46631 31.1951 8.46631C34.9537 8.46631 39.2861 9.59583 41.4447 10.6416M20.7023 10.5966C20.0068 10.5003 16.4945 11.5328 13.8597 14.3624C11.2248 17.192 9.21283 21.5504 8.09684 24.9001C7.36579 27.0944 6.89684 29.4001 6.89684 31.5001C6.29707 32.4001 5.79234 33.6001 5.74459 34.8001C5.69683 36.0001 6.36294 36.7868 7.68 36.8434C8.69713 36.8872 12.3283 36.5393 15.4492 36.655M20.7023 10.5966C21.9747 10.7728 23.0354 11.6826 24.1074 12.7925C25.7654 14.5091 29.0532 17.7498 29.6983 18.1986C30.3434 18.6474 30.6519 18.75 31.2045 18.75C31.757 18.75 32.0562 18.6474 32.7013 18.1986C33.3464 17.7498 36.6342 14.5091 38.2922 12.7925C39.2924 11.7568 40.283 10.8954 41.4447 10.6416M41.4447 10.6416C42.2085 10.4748 45.8975 11.8066 48.4993 14.91C51.101 18.0135 53.1778 21.5504 54.2938 24.9001C55.0248 27.0944 55.4938 29.4001 55.4938 31.5001C56.0936 32.4001 56.5983 33.6001 56.646 34.8001C56.6938 36.0001 56.0277 36.7868 54.7106 36.8434C53.6543 36.8889 49.7786 36.5119 46.5831 36.6704" stroke="#1E1E1E" stroke-linecap="round"/>
</svg>
