<svg width="63" height="84" viewBox="0 0 63 84" fill="none" xmlns="http://www.w3.org/2000/svg">
<path d="M17.9974 27C17.1688 30.6 16.5689 36.3 16.7974 38.7C16.8929 39.7029 17.0658 40.6533 17.4535 41.442M44.3933 27C45.2219 30.6 45.8218 36.3 45.5932 38.7C45.4973 39.707 45.3234 40.6611 44.9324 41.4517M31.068 43.1495C35.6293 43.8319 39.6989 43.6994 41.6932 43.5C43.4345 43.3259 44.3913 42.5453 44.9324 41.4517M31.068 43.1495C26.5616 43.8106 22.6729 43.6975 20.6974 43.5C18.9509 43.3254 17.9937 42.5407 17.4535 41.442M31.068 43.1495C33.4053 42.8066 35.9087 42.2555 38.3975 41.4M31.1953 35.8125C34.729 35.5875 42.5953 33.7125 42.5953 31.6125C42.5953 30.7125 40.7953 30.4125 38.9953 30.7125M16.1649 12.7998C16.3292 13.503 16.647 15.6705 16.6032 17.906M16.6032 17.906C16.2122 17.9016 15.9411 17.899 15.8156 17.899C13.031 17.899 11.3765 18.228 10.1877 19.6672C8.9988 21.1063 8.55719 22.1748 7.97774 24.6858C7.39828 27.1968 7.2381 29.2072 7.00928 30.7125C6.46281 34.3073 6.44884 36.9593 5.39157 41.3999C4.81912 43.8041 4.49157 47.0999 4.19157 50.6999C3.89157 54.2999 4.16586 58.2056 4.49157 59.3999C4.0535 60.1871 4.19156 61.2 4.19156 62.1C4.19156 63 4.49142 63.6 5.39142 63.9C6.29142 64.2 11.9914 64.5 13.1914 64.2C14.3914 63.9 14.6914 63.3 14.6914 62.1C14.6914 60.9 14.3914 59.3999 14.0916 58.2C16.7763 53.7254 17.005 47.9695 17.4535 41.442M16.6032 17.906C18.9205 17.932 25.4468 18.0202 30.7882 17.9943C36.1296 18.0202 42.6623 17.932 44.9796 17.906M45.418 12.7998C45.2536 13.503 44.9358 15.6705 44.9796 17.906M44.9796 17.906C45.3706 17.9016 45.6417 17.899 45.7672 17.899C48.5518 17.899 50.2063 18.228 51.3951 19.6672C52.584 21.1063 53.2396 22.4324 54.0122 24.7502C54.7848 27.068 55.2695 29.8719 55.505 31.6125C55.9323 34.7722 56.0264 37.3376 56.9936 41.3999C57.566 43.8041 57.8936 47.0999 58.1936 50.6999C58.4936 54.2999 58.2193 58.2056 57.8936 59.3999C58.3317 60.1871 58.4938 61.2 58.4938 62.1C58.4938 63 57.8938 63.6 56.9938 63.9C56.0938 64.2 50.3938 64.5 49.1938 64.2C47.9938 63.9 47.6938 63.3 47.6938 62.1C47.6938 60.9 47.9938 59.3999 48.2936 58.2C45.6102 53.7276 45.3804 47.9753 44.9324 41.4517" stroke="#1E1E1E" stroke-linecap="round"/>
</svg>
