<svg width="63" height="102" viewBox="0 0 63 102" fill="none" xmlns="http://www.w3.org/2000/svg">
<path d="M15.8882 92.0892C16.4395 91.7895 17.7265 91.5264 18.8195 91.6414C20.1858 91.7853 20.8812 92.2586 23.1464 91.8734C25.4115 91.4883 26.9057 91.5035 27.9124 91.8734M19.8469 15.7625C19.7597 18.0521 18.9613 20.4469 17.8472 21.6828C16.7451 22.9052 15.5277 23.3868 14.4553 23.4307M19.8469 15.7625H14.9486M19.8469 15.7625H28.1391M28.1391 15.7625V27.3011M28.1391 15.7625H34.6266M46.8774 92.0892C46.3261 91.7895 45.0392 91.5264 43.9461 91.6414C42.5798 91.7853 41.8844 92.2586 39.6193 91.8734C37.3541 91.4883 35.8599 91.5035 34.8532 91.8734M42.9188 15.7625C43.0059 18.0521 43.8043 20.4469 44.9184 21.6828C46.0205 22.9052 47.2379 23.3868 48.3104 23.4307M42.9188 15.7625H47.817M42.9188 15.7625H34.6266M34.6266 15.7625V27.3011M47.817 15.7625C47.5283 13.619 47.1235 12.2998 44.8728 12.2998H17.8929C15.6422 12.2998 15.2374 13.619 14.9486 15.7625M47.817 15.7625C47.8362 15.9047 47.8548 16.0505 47.8734 16.1998C48.0359 17.5017 48.1961 20.5283 48.3104 23.4307M14.9486 15.7625C14.9295 15.9047 14.9108 16.0505 14.8922 16.1998C14.7297 17.5017 14.5695 20.5283 14.4553 23.4307M14.4553 23.4307C14.3589 25.8787 14.2952 28.2384 14.2905 29.3998C14.2866 30.324 12.5625 66.8663 12.5625 71.7863V86.3369C12.5625 89.492 14.4141 91.8734 14.4141 91.8734C14.4141 91.8734 14.0545 92.5206 14.2332 93.9229C14.4119 95.3251 15.5548 95.9998 17.5823 95.9998H27.9124C28.8068 95.9998 29.5956 94.9394 29.6591 93.9229C29.7175 92.9874 29.0838 92.0892 29.0838 92.0892C29.0838 92.0892 30.0808 90.4347 30.0808 87.1714V66.2015C30.0808 58.9196 30.9856 37.7478 31.3741 35.9998C31.7625 37.7478 32.6849 58.9196 32.6849 66.2015V87.1714C32.6849 90.4347 33.6819 92.0892 33.6819 92.0892C33.6819 92.0892 33.0482 92.9874 33.1066 93.9229C33.17 94.9394 33.9588 95.9998 34.8532 95.9998H45.1833C47.2108 95.9998 48.3537 95.3251 48.5324 93.9229C48.7111 92.5206 48.3516 91.8734 48.3516 91.8734C48.3516 91.8734 50.2031 89.492 50.2031 86.3369V71.7863C50.2031 66.8663 48.479 30.324 48.4752 29.3998C48.4704 28.2384 48.4067 25.8787 48.3104 23.4307" stroke="black" stroke-width="0.6" stroke-linecap="round"/>
</svg>
