<svg width="64" height="102" viewBox="0 0 64 102" fill="none" xmlns="http://www.w3.org/2000/svg">
<path d="M13.8582 91.8734C14.4095 91.5738 16.9872 91.3494 18.6341 91.6114C20.2809 91.8734 21.8446 92.4743 24.1098 92.0892C26.375 91.704 26.7448 91.6114 27.8976 91.6114M20.2547 15.7625C20.1675 18.0521 19.3691 20.4469 18.255 21.6828C17.1021 22.9616 15.8231 23.4296 14.7158 23.434M20.2547 15.7625H15.3549M20.2547 15.7625H28.5469M28.5469 15.7625V27.3011M28.5469 15.7625H35.0344M49.723 91.8734C49.1717 91.5738 46.594 91.3494 44.9472 91.6114C43.3003 91.8734 41.7366 92.4743 39.4714 92.0892C37.2063 91.704 36.8365 91.6114 35.6837 91.6114M43.3266 15.7625C43.4137 18.0521 44.2121 20.4469 45.3263 21.6828C46.4791 22.9616 47.7582 23.4296 48.8655 23.434M43.3266 15.7625H48.2263M43.3266 15.7625H35.0344M35.0344 15.7625V27.3011M15.3549 15.7625C15.6437 13.619 16.0485 12.2998 18.2992 12.2998H45.2821C47.5328 12.2998 47.9376 13.619 48.2263 15.7625M15.3549 15.7625C15.3358 15.9047 15.3171 16.0505 15.2985 16.1998C15.0904 17.8666 14.9709 20.2164 14.7158 23.434M48.2263 15.7625C48.2455 15.9047 48.2641 16.0505 48.2827 16.1998C48.4908 17.8666 48.6103 20.2164 48.8655 23.434M48.8655 23.434C48.9777 24.8494 49.1162 26.4327 49.3001 28.1997C49.9018 33.9834 51.3417 60.1759 52.4323 70.5956C53.523 81.0153 53.166 81.5416 53.1661 85.2253C53.1662 88.909 51.1609 91.8734 51.1609 91.8734C51.1609 91.8734 51.5204 92.5206 51.3417 93.9229C51.163 95.3251 50.6201 95.9998 48.5926 95.9998H35.2625C34.3681 95.9998 33.5794 94.9394 33.5159 93.9229C33.4575 92.9874 34.2794 91.8734 34.2794 91.8734C34.2794 91.8734 33.0717 88.9287 33.0717 83.2468C33.0717 77.565 32.9955 58.3342 33.0717 53.3413C33.1479 48.3483 32.1863 37.7478 31.7978 35.9998C31.4094 37.7478 30.4333 48.3483 30.5095 53.3413C30.5857 58.3342 30.5095 77.565 30.5095 83.2468C30.5095 88.9287 29.3018 91.8734 29.3018 91.8734C29.3018 91.8734 30.1238 92.9874 30.0654 93.9229C30.0019 94.9394 29.2131 95.9998 28.3188 95.9998H14.9886C12.9611 95.9998 12.4182 95.3251 12.2395 93.9229C12.0608 92.5206 12.4204 91.8734 12.4204 91.8734C12.4204 91.8734 10.4151 88.909 10.4152 85.2253C10.4153 81.5416 10.0583 81.0153 11.1489 70.5956C12.2395 60.1759 13.6795 33.9834 14.2812 28.1997C14.465 26.4327 14.6035 24.8494 14.7158 23.434" stroke="black" stroke-width="0.6" stroke-linecap="round"/>
</svg>
