<svg width="63" height="129" viewBox="0 0 63 129" fill="none" xmlns="http://www.w3.org/2000/svg">
<path d="M16.4346 19.5504C16.4346 19.5504 17.7073 23.7709 17.7073 24.3709C17.7073 24.5934 14.0137 37.1056 14.0137 37.1056M38.0175 82.8116L36.1085 87.6963C29.269 88.5557 26.4775 88.3232 21.4074 87.6963C16.3373 87.0695 12.993 85.7762 12.993 85.7762C12.993 85.7762 13.5137 75.966 14.2181 64.2865M38.0175 82.8116L40.1288 88.0253C45.1989 87.3985 49.8153 85.7762 49.8153 85.7762C49.8153 85.7762 49.06 76.034 48.154 64.3102M38.0175 82.8116L38.0109 43.5878M14.0137 37.1056C14.0137 37.1056 15.0089 38.3478 15.8739 39.4482C15.4503 44.9519 15.0111 51.5221 14.6071 57.9604M14.0137 37.1056C16.1276 37.783 22.7853 38.7093 31.363 37.74M46.3737 19.5504C46.3737 19.5504 45.101 23.7709 45.101 24.3709C45.101 24.6886 46.4228 41.887 47.6666 57.9998M16.8389 12.9357C16.8176 12.951 16.7964 12.9665 16.775 12.9821M45.9665 12.9357C45.988 12.9512 46.0096 12.9669 46.0312 12.9827M33.0002 31.6332C40.001 26.4185 43.8392 21.6973 43.8392 21.6973L40.1596 16.6279L46.0312 17.5238V12.9827M33.0002 31.6332C32.1109 29.0451 31.2805 26.3882 30.5037 23.7854M33.0002 31.6332C34.4927 35.9762 36.1515 40.1254 38.0031 43.5C38.0031 43.5 31.1259 37.3877 27.5763 32.993C24.0267 28.5982 18.967 21.6973 18.967 21.6973L22.6466 16.6279L16.775 17.5238V12.9821M30.5037 23.7854C32.5242 18.7795 35.335 12.7642 36.673 8.81363M30.5037 23.7854C28.8103 18.1117 27.3711 12.6951 26.1278 8.80879M36.673 8.81363C35.0845 8.57375 33.2931 8.46624 31.4031 8.46624C29.5258 8.46624 27.7084 8.57231 26.1278 8.80879M36.673 8.81363C36.7176 8.68215 36.7605 8.55283 36.8019 8.42578C42.75 9.19519 46.0312 11.2924 46.0312 11.2924V12.9827M26.1278 8.80879C26.0865 8.67941 26.0453 8.55172 26.0043 8.42578C20.0562 9.19519 16.775 11.2924 16.775 11.2924V12.9821M47.9259 61.358L55.6159 60.7983C57.2102 59.2181 56.7383 58.1559 55.1866 57.4422L47.6666 57.9998M47.9259 61.358C48.0028 62.3527 48.0789 63.3383 48.154 64.3102M47.9259 61.358C47.8402 60.248 47.7536 59.1266 47.6666 57.9998M48.154 64.3102C50.5224 64.1822 56.4853 63.8397 57.2043 63.6C57.2043 63.6 57.5155 62.2659 58.1049 59.3999C58.6943 56.5338 59.1639 54.3389 59.7639 51.9389C60.3639 49.5389 56.6046 37.7607 56.6046 37.7607L52.6299 19.7105C52.6299 19.7105 48.8224 15.0283 46.0312 12.9827M14.6071 57.9604L7.61879 57.4422C6.06709 58.1559 5.59513 59.2181 7.18943 60.7983L14.3984 61.323M14.6071 57.9604C14.5364 59.0874 14.4667 60.2104 14.3984 61.323M14.3984 61.323C14.3372 62.3208 14.277 63.3102 14.2181 64.2865M14.2181 64.2865C11.6273 64.1439 6.27956 63.8262 5.60103 63.6C5.60103 63.6 5.28989 62.2659 4.7005 59.3999C4.11112 56.5338 3.64144 54.3389 3.04144 51.9389C2.44144 49.5389 6.20076 37.7607 6.20076 37.7607L10.1755 19.7105C10.1755 19.7105 13.9837 15.0274 16.775 12.9821" stroke="#1E1E1E" stroke-width="0.6" stroke-linecap="round"/>
</svg>
