<svg width="64" height="129" viewBox="0 0 64 129" fill="none" xmlns="http://www.w3.org/2000/svg">
<path d="M16.8315 19.5504C16.8315 19.5504 18.1042 23.7709 18.1042 24.3709C18.1042 24.9709 12.8055 46.7081 12.8055 46.7081L14.9784 56.1455C15.9572 56.322 16.9844 56.4823 18.0434 56.628M38.4463 53.1407L36.5054 58.0657C31.4394 57.8342 24.2022 57.4757 18.0434 56.628M38.4463 53.1407L40.312 58.1028C40.312 58.1028 42.3042 57.7584 45.6376 56.9283M38.4463 53.1407L38.4015 43.5M46.7705 19.5504C46.7705 19.5504 45.4978 23.7709 45.4978 24.3709C45.4978 24.9709 50.7965 46.7081 50.7965 46.7081L48.6236 56.1455C47.5387 56.4438 46.5391 56.7039 45.6376 56.9283M17.2373 12.9357C17.2161 12.951 17.1948 12.9665 17.1734 12.9821M16.7736 61.4668L7.58786 60.7983C5.99357 59.2181 6.46553 58.1559 8.01723 57.4422L17.6425 58.1559M16.7736 61.4668L16.014 64.361C16.014 64.361 6.89946 63.9 5.99946 63.6C5.99946 63.6 5.68832 62.2659 5.09894 59.3999C4.50956 56.5338 4.03988 54.3389 3.43988 51.9389C2.83988 49.5389 6.59919 37.7607 6.59919 37.7607L10.574 19.7105C10.574 19.7105 14.3822 15.0274 17.1734 12.9821M16.7736 61.4668L17.6425 58.1559M17.6425 58.1559L18.0434 56.628M46.8287 61.4668L56.0144 60.7983C57.6087 59.2181 57.1367 58.1559 55.585 57.4422L45.9598 58.1559M46.8287 61.4668L47.5882 64.361C47.5882 64.361 56.7028 63.9 57.6028 63.6C57.6028 63.6 57.9139 62.2659 58.5033 59.3999C59.0927 56.5338 59.5624 54.3389 60.1624 51.9389C60.7624 49.5389 57.0031 37.7607 57.0031 37.7607L53.0283 19.7105C53.0283 19.7105 49.2208 15.0283 46.4296 12.9827M46.8287 61.4668L45.9598 58.1559M45.9598 58.1559L45.6376 56.9283M38.4015 43.5C38.4015 43.5 31.5243 37.3877 27.9747 32.993C24.4251 28.5982 19.3654 21.6973 19.3654 21.6973L23.045 16.6279L17.1734 17.5238V12.9821M38.4015 43.5C36.5499 40.1254 34.8911 35.9762 33.3987 31.6332M33.3987 31.6332C40.3994 26.4185 44.2376 21.6973 44.2376 21.6973L40.558 16.6279L46.4296 17.5238V12.9827M33.3987 31.6332C32.5093 29.0451 31.679 26.3882 30.9021 23.7854M30.9021 23.7854C32.9226 18.7795 35.7334 12.7642 37.0715 8.81363M30.9021 23.7854C29.2088 18.1117 27.7695 12.6951 26.5263 8.80879M37.0715 8.81363C35.4829 8.57375 33.6915 8.46624 31.8015 8.46624C29.9243 8.46624 28.1068 8.57231 26.5263 8.80879M37.0715 8.81363C37.116 8.68215 37.159 8.55283 37.2003 8.42578C43.1485 9.19519 46.4296 11.2924 46.4296 11.2924V12.9827M26.5263 8.80879C26.4849 8.67941 26.4437 8.55172 26.4028 8.42578C20.4546 9.19519 17.1734 11.2924 17.1734 11.2924V12.9821" stroke="#1E1E1E" stroke-width="0.6" stroke-linecap="round"/>
</svg>
