<svg width="63" height="129" viewBox="0 0 63 129" fill="none" xmlns="http://www.w3.org/2000/svg">
<path d="M16.0362 19.5504C16.0362 19.5504 17.3089 23.7709 17.3089 24.3709C17.3089 24.5934 13.6153 37.1056 13.6153 37.1056M37.6339 114.845L35.7101 119.8C28.8705 120.659 24.2791 120.427 19.209 119.8C14.1389 119.173 10.7945 117.88 10.7945 117.88C10.7945 117.88 12.4171 88.1949 13.8583 64.2887M37.6339 114.845L39.4965 120.146C40.5809 120.054 41.6598 119.936 42.7614 119.8C47.8315 119.173 51.1758 117.88 51.1758 117.88C51.1758 117.88 49.5533 88.1966 48.1122 64.2908M37.6339 114.845L37.6047 43.5M13.6153 37.1056C13.6153 37.1056 14.6105 38.3478 15.4755 39.4482C15.1522 43.6489 14.7181 50.2858 14.244 57.963M13.6153 37.1056C15.7292 37.783 22.3869 38.7093 30.9646 37.74M45.9341 19.5504C45.9341 19.5504 44.6614 23.771 44.6614 24.371C44.6614 24.5934 48.355 37.1056 48.355 37.1056M48.355 37.1056C48.355 37.1056 47.3598 38.3478 46.4948 39.4483C46.8181 43.6495 47.2524 50.2875 47.7265 57.9658M48.355 37.1056C46.8289 37.5947 42.7981 38.1242 37.6058 38.1198C36.7802 38.1191 35.9181 38.1002 35.0226 38.0593M31.0058 37.7401C31.202 37.7622 31.3971 37.7833 31.591 37.8033M16.4404 12.9357C16.4192 12.951 16.3979 12.9665 16.3766 12.9821M45.5681 12.9357C45.5896 12.9512 45.6111 12.9669 45.6327 12.9827M37.6047 43.5C36.6988 41.8492 35.8392 40.0129 35.0226 38.0593M37.6047 43.5C37.6047 43.5 34.6348 40.8605 31.591 37.8033M32.6018 31.6332C39.6026 26.4185 43.4407 21.6973 43.4407 21.6973L39.7612 16.6279L45.6327 17.5238V12.9827M32.6018 31.6332C31.7124 29.0451 30.8821 26.3882 30.1053 23.7854M32.6018 31.6332C33.3641 33.8516 34.1699 36.0194 35.0226 38.0593M30.1053 23.7854C32.1258 18.7795 34.9365 12.7642 36.2746 8.81363M30.1053 23.7854C28.4119 18.1117 26.9726 12.6951 25.7294 8.80879M36.2746 8.81363C34.6861 8.57375 32.8947 8.46624 31.0047 8.46624C29.1274 8.46624 27.3099 8.57231 25.7294 8.80879M36.2746 8.81363C36.3191 8.68215 36.3621 8.55283 36.4034 8.42578C42.3516 9.19519 45.6327 11.2924 45.6327 11.2924V12.9827M25.7294 8.80879C25.688 8.67941 25.6468 8.55172 25.6059 8.42578C19.6577 9.19519 16.3766 11.2924 16.3766 11.2924V12.9821M14.244 57.963L7.22035 57.4422C5.66865 58.1559 5.19669 59.2181 6.79099 60.7983L14.0378 61.3257M14.244 57.963C14.176 59.0639 14.1072 60.1862 14.0378 61.3257M14.244 57.963L14.0378 61.3257M14.0378 61.3257C13.9784 62.3016 13.9185 63.2901 13.8583 64.2887M13.8583 64.2887C11.2824 64.1471 5.88451 63.8273 5.20259 63.6C5.20259 63.6 4.89145 62.2659 4.30207 59.3999C3.71269 56.5338 3.243 54.3389 2.643 51.9389C2.043 49.5389 5.80232 37.7607 5.80232 37.7607L9.77708 19.7105C9.77708 19.7105 13.5853 15.0274 16.3766 12.9821M16.3766 12.9821V17.5238L22.2482 16.6279L18.5686 21.6973C18.5686 21.6973 23.6282 28.5982 27.1778 32.993C28.3948 34.4997 30.003 36.2084 31.591 37.8033M45.6327 12.9827C48.4239 15.0283 52.2314 19.7105 52.2314 19.7105L56.2062 37.7607C56.2062 37.7607 59.9655 49.5389 59.3655 51.9389C58.7655 54.3389 58.2958 56.5338 57.7064 59.3999C57.1171 62.2659 56.8059 63.6 56.8059 63.6C56.1206 63.8284 50.6725 64.1502 48.1122 64.2908M47.7265 57.9658L54.7881 57.4422C56.3398 58.1559 56.8118 59.2181 55.2175 60.7983L47.9327 61.3285M47.7265 57.9658C47.7945 59.0667 47.8633 60.189 47.9327 61.3285M47.9327 61.3285C47.9921 62.3041 48.052 63.2924 48.1122 64.2908" stroke="#1E1E1E" stroke-width="0.6" stroke-linecap="round"/>
</svg>
