<svg width="91" height="121" viewBox="0 0 91 121" fill="none" xmlns="http://www.w3.org/2000/svg">
<path d="M77.3428 14.3111C72.2333 19.5544 70.9515 25.2799 70.9515 31.1963C72.7626 41.7017 72.0418 49.0194 72.3287 56.8615M13.0137 14.3111C18.814 21.429 18.5525 25.2799 18.5525 31.1963C16.95 40.4922 17.3298 47.2922 17.2398 54.1681M14.3861 91.0771C9.21392 91.3739 5.47659 91.0563 1.90694 90.1204C1.36051 88.6226 2.42918 85.17 3.09338 83.9341C0.122052 80.6873 1.19384 73.7379 1.90694 69.5018C3.3074 61.1825 2.27301 55.4558 3.09338 46.2256C3.9169 36.96 5.75403 26.0245 11.0137 16.5245C15.9052 8.97631 24.5151 3.62951 28.2086 1.89963C31.6941 0.0346522 33.8669 1.50673 34.8605 2.40345C35.8541 3.30016 39.3462 7.08927 45.2879 7.08927C51.2296 7.08927 55.4559 3.30016 56.4495 2.40345C57.4431 1.50673 59.6159 0.0346522 63.1014 1.89963C72.3287 7.08927 76.5784 13.2853 79.3164 16.6214C84.5761 26.1214 86.4132 37.0569 87.2367 46.3226C88.0571 55.5527 87.0227 61.2795 88.4231 69.5987C89.1362 73.8348 90.208 80.7843 87.2367 84.031C87.9009 85.2669 88.9696 88.7195 88.4231 90.2173C84.8535 91.1533 81.2492 91.6137 75.5368 91.1296M47.1836 109.89C53.0815 109.635 66.3533 106.506 66.047 104.367C65.7406 102.228 62.0722 101.672 59.6148 101.927M58.2668 116.076C39.9655 120.678 17.5468 120.706 15.9616 118.622C13.5288 115.423 13.913 111.912 15.9616 108.071C14.4539 99.7355 14.7951 86.9411 15.9616 78.2699C17.1281 69.5987 16.9788 60.9989 17.1281 57.9672M47.1836 118.279C57.3558 120.538 71.0869 120.519 73.5424 118.004C75.998 115.488 75.591 111.912 73.5424 108.071C75.0502 99.7355 74.5482 83.9119 74.1556 78.3499C73.7629 72.788 72.8214 63.4082 72.6294 61.4533M72.3287 56.8615C73.0582 55.9851 74.9642 53.949 76.7518 52.8151M72.3287 56.8615C72.3836 58.3641 72.4756 59.886 72.6294 61.4533M78.1142 62.628C77.1108 62.6444 74.6091 62.4325 72.6294 61.4533M9.96343 50.9532C11.6393 51.0724 15.4409 51.8822 17.2398 54.1681M17.2398 54.1681C17.2233 55.4267 17.1911 56.6878 17.1281 57.9672M11.8684 58.6923C12.7158 58.2089 14.954 57.3872 17.1281 57.9672" stroke="#1E1E1E" stroke-width="2" stroke-linecap="round" stroke-linejoin="round"/>
</svg>
