<svg width="87" height="121" viewBox="0 0 87 121" fill="none" xmlns="http://www.w3.org/2000/svg">
<path d="M12.0692 14.3467C17.8695 21.4647 18.3969 25.2798 18.3969 31.1963C14.1284 61.5215 12.0006 82.6033 13.93 101.163C11.6065 105.229 11.033 115.886 12.8938 117.918C14.7547 119.951 22.6215 119.428 28.0494 119.285C39.6006 118.982 51.4523 116.947 62.5989 113.597M15.7999 49.6022C10.7863 48.9763 7.86936 48.4778 5.1168 47.469C2.36423 46.4602 1.25723 45.4343 1.25684 42.3184C1.25644 39.2025 5.54639 24.6792 9.17879 18.0854C15.0444 8.96891 20.0382 5.73179 25.7196 2.69192C29.2051 0.82695 31.3779 2.29903 32.3715 3.19575C33.3651 4.09246 36.8572 7.88157 42.7989 7.88157C48.7406 7.88157 52.9669 4.09246 53.9605 3.19575C54.9541 2.29903 57.1269 0.82695 60.6124 2.69192C66.2938 5.73179 71.2876 8.96891 77.1532 18.0854C80.7856 24.6792 85.0756 39.2025 85.0752 42.3184C85.0748 45.4343 83.9678 46.4602 81.2152 47.469C78.4627 48.4778 75.5457 48.9763 70.5322 49.6022M51.1641 116.512C55.535 117.567 61.7223 118.214 66.9558 118.474C70.1506 118.633 72.0365 118.678 73.5686 117.156C75.1007 115.634 76.3247 109.382 72.402 101.163C74.3314 82.6033 72.2036 61.5215 67.9351 31.1963C67.9351 25.2798 68.4625 21.4647 74.2628 14.3467M48.0924 105.265C53.9903 105.009 67.2621 101.881 66.9558 99.7419C66.6494 97.6026 62.981 97.0466 60.5236 97.3021" stroke="#1E1E1E" stroke-width="2" stroke-linecap="round" stroke-linejoin="round"/>
</svg>