<svg width="91" height="101" viewBox="0 0 91 101" fill="none" xmlns="http://www.w3.org/2000/svg">
<path d="M77.2246 14.3111C72.1151 19.5544 70.8334 25.2799 70.8334 31.1963C72.6444 41.7017 71.9236 49.0194 72.2105 56.8615M12.8955 14.3111C18.6958 21.429 18.4343 25.2799 18.4343 31.1963C16.8318 40.4922 17.2117 47.2922 17.1216 54.1681M14.2679 91.0771C9.09576 91.3739 5.35843 91.0563 1.78878 90.1204C1.24235 88.6226 2.31102 85.17 2.97522 83.9341C0.00388753 80.6873 1.07568 73.7379 1.78878 69.5018C3.18923 61.1825 2.15485 55.4558 2.97522 46.2256C3.79874 36.96 5.63586 26.0245 10.8955 16.5245C15.787 8.97631 24.3969 3.62951 28.0904 1.89963C31.576 0.0346522 33.7487 1.50673 34.7423 2.40345C35.7359 3.30016 39.2281 7.08927 45.1697 7.08927C51.1114 7.08927 55.3378 3.30016 56.3314 2.40345C57.3249 1.50673 59.4977 0.0346522 62.9833 1.89963C72.2105 7.08927 76.4602 13.2853 79.1982 16.6214C84.4579 26.1214 86.295 37.0569 87.1185 46.3226C87.9389 55.5527 86.9045 61.2795 88.305 69.5987C89.0181 73.8348 90.0899 80.7843 87.1185 84.031C87.7827 85.2669 88.8514 88.7195 88.305 90.2173C84.7353 91.1533 81.1311 91.6137 75.4186 91.1296M47.0654 89.89C52.9633 89.6346 66.2351 86.5064 65.9288 84.3672C65.6225 82.228 61.954 81.672 59.4966 81.9274M58.1486 96.0761C39.8473 100.678 17.4287 100.706 15.8434 98.6216C13.4106 95.4225 13.7948 91.9119 15.8434 88.0705C14.3357 79.7355 14.3526 76.9636 15.8434 67.5806C15.8434 67.5806 16.8606 60.9989 17.0099 57.9672M47.0654 98.2787C57.2376 100.538 70.9687 100.519 73.4243 98.0037C75.8798 95.4884 75.4729 91.9119 73.4243 88.0705C74.932 79.7355 74.9515 75.155 73.4243 67.5806C73.4243 67.5806 72.7032 63.4082 72.5113 61.4533M72.2105 56.8615C72.94 55.9851 74.846 53.949 76.6337 52.8151M72.2105 56.8615C72.2655 58.3641 72.3574 59.886 72.5113 61.4533M77.996 62.628C76.9926 62.6444 74.491 62.4325 72.5113 61.4533M9.84527 50.9532C11.5212 51.0724 15.3227 51.8822 17.1216 54.1681M17.1216 54.1681C17.1052 55.4267 17.0729 56.6878 17.0099 57.9672M11.7503 58.6923C12.5976 58.2089 14.8359 57.3872 17.0099 57.9672" stroke="#1E1E1E" stroke-width="2" stroke-linecap="round" stroke-linejoin="round"/>
</svg>
