<svg width="93" height="93" viewBox="0 0 93 93" fill="none" xmlns="http://www.w3.org/2000/svg">
<path d="M78.8116 14.3111C73.702 19.5544 72.4203 25.2799 72.4203 31.1963C74.2313 41.7017 71.5105 49.0194 71.7974 56.8615M14.4824 14.3111C20.2827 21.429 20.0213 25.2799 20.0213 31.1963C18.4187 40.4922 20.7986 49.2922 20.7085 56.1681M71.7974 56.8615C72.5269 55.9851 74.4329 53.949 76.2206 52.8151M71.7974 56.8615C71.8524 58.3641 71.9443 59.886 72.0982 61.4533M77.5829 62.628C76.5796 62.6444 74.0779 62.4325 72.0982 61.4533M72.0982 61.4533C72.0982 61.4533 76.4408 67.7633 73.9853 70.2786C71.5504 72.7729 59.5231 72.5422 49.4207 70.335M13.4322 52.9532C15.1081 53.0724 18.9096 53.8822 20.7085 56.1681M20.7085 56.1681C20.6921 57.4267 20.6598 58.6878 20.5968 59.9672M15.3372 60.6923C16.1845 60.2089 18.4228 59.3872 20.5968 59.9672M20.5968 59.9672C19.2328 63.3522 18.4942 68.0506 20.7085 70.2786C22.9229 72.5067 34.6178 72.85 49.4207 70.335M47.1648 61.89C53.0627 61.6345 66.3345 58.5064 66.0282 56.3671C65.7218 54.2279 62.0534 53.6719 59.596 53.9274M49.4207 70.335C53.0124 69.7248 56.6745 68.9745 60.248 68.076M49.4207 70.335C49.3354 70.3164 49.25 70.2976 49.1648 70.2786M21.4078 71.5309C20.7085 84.1657 18.3495 91.1296 18.3495 91.1296C13.1773 91.4264 5.94534 91.0563 2.37569 90.1204C1.82926 88.6226 2.89793 85.17 3.56213 83.9341C0.590802 80.6873 1.66259 73.7379 2.37569 69.5018C3.77615 61.1825 4.74176 55.4558 5.56213 46.2256C6.38565 36.96 7.22278 26.0245 12.4824 16.5245C17.374 8.97631 25.9838 3.62951 29.6773 1.89963C33.1629 0.0346522 35.3357 1.50673 36.3292 2.40345C37.3228 3.30016 40.815 7.08927 46.7566 7.08927C52.6983 7.08927 56.9247 3.30016 57.9183 2.40345C58.9119 1.50673 61.0846 0.0346522 64.5702 1.89963C73.7974 7.08927 78.0471 13.2853 80.7852 16.6214C86.0448 26.1214 87.8819 37.0569 88.7054 46.3226C89.5258 55.5527 89.4914 61.2795 90.8919 69.5987C91.605 73.8348 92.6768 80.7843 89.7054 84.031C90.3696 85.2669 91.4383 88.7195 90.8919 90.2173C87.3222 91.1533 82.718 91.6137 77.0055 91.1296C75.9151 90.6336 73.5376 78.3201 73.5376 71.5309" stroke="#1E1E1E" stroke-width="2" stroke-linecap="round" stroke-linejoin="round"/>
</svg>
