<svg width="86" height="102" viewBox="0 0 86 102" fill="none" xmlns="http://www.w3.org/2000/svg">
<path d="M11.9305 14.3467C17.7308 21.4647 18.2582 25.2798 18.2582 31.1963C13.9897 61.5215 14.7335 74.1639 15.7914 85.1628C15.7914 85.1628 12.1735 90.8258 13.8675 95.412C15.5616 99.9982 22.4828 100.428 27.9107 100.285C39.4619 99.9825 51.3136 97.9471 62.4603 94.5965M15.6612 49.6022C10.6477 48.9763 7.73069 48.4778 4.97812 47.469C2.22556 46.4602 1.11856 45.4343 1.11816 42.3184C1.11777 39.2025 5.40772 24.6792 9.04012 18.0854C14.9058 8.96891 19.8996 5.73179 25.5809 2.69192C29.0665 0.82695 31.2392 2.29903 32.2328 3.19575C33.2264 4.09246 36.7185 7.88157 42.6602 7.88157C48.6019 7.88157 52.8283 4.09246 53.8219 3.19575C54.8154 2.29903 56.9882 0.82695 60.4738 2.69192C66.1551 5.73179 71.1489 8.96891 77.0146 18.0854C80.647 24.6792 84.9369 39.2025 84.9365 42.3184C84.9361 45.4343 83.8291 46.4602 81.0766 47.469C78.324 48.4778 75.407 48.9763 70.3935 49.6022M51.0254 97.5123C55.3964 98.5673 61.5836 99.2143 66.8171 99.474C68.8944 99.5771 71.2592 98.3101 72.2118 94.5965C73.1644 90.8829 70.2633 84.1628 70.2633 84.1628C71.1422 70.6733 72.2118 65.3675 67.7965 31.1963C67.7965 25.2798 68.3239 21.4647 74.1242 14.3467M47.9537 86.2647C53.8516 86.0092 67.1234 82.8811 66.8171 80.7419C66.5108 78.6026 62.8423 78.0466 60.3849 78.3021" stroke="#1E1E1E" stroke-width="2" stroke-linecap="round" stroke-linejoin="round"/>
</svg>
