<svg width="93" height="93" viewBox="0 0 93 93" fill="none" xmlns="http://www.w3.org/2000/svg">
<path d="M78.8116 14.3111C71.7974 20.2395 69.3593 31.8641 69.3593 31.8641C70.6414 40.9579 69.291 45.1082 68.3593 52.9532C69.2403 56.1681 69.6414 57.7269 67.3083 59.9859C64.9752 62.2449 54.9913 61.1843 49.5061 59.9859M14.4824 14.3111C23.0573 21.6131 24.2132 31.1963 24.2132 31.1963C22.621 39.0539 23.9376 43.9081 24.2327 50.444C24.2327 50.444 21.8134 57.0699 25.2132 59.2616C28.613 61.4533 41.0619 61.4205 49.5061 59.9859M45.1648 53.0727C51.0627 52.8173 64.3345 49.6891 64.0282 47.5499C63.7218 45.4107 60.0534 44.8547 57.596 45.1101M49.5061 59.9859C53.0978 59.3757 56.7599 58.6254 60.3334 57.7269M49.5061 59.9859C49.4207 59.9672 49.3354 59.9484 49.2502 59.9295M24.2327 58.567C24.8978 65.4527 22.7608 74.4757 20.2369 81.2539C20.995 87.2875 19.6623 91.3622 18.3495 91.1296C13.1773 91.4264 5.94534 91.0563 2.37569 90.1204C1.82926 88.6226 2.89793 85.17 3.56213 83.9341C0.590802 80.6873 1.66259 73.7379 2.37569 69.5018C3.77615 61.1825 4.74176 55.4558 5.56213 46.2256C6.38565 36.96 7.22278 26.0245 12.4824 16.5245C17.374 8.97631 25.9838 3.62951 29.6773 1.89963C33.1629 0.0346522 35.3357 1.50673 36.3292 2.40345C37.3228 3.30016 40.815 7.08927 46.7566 7.08927C52.6983 7.08927 56.9247 3.30016 57.9183 2.40345C58.9119 1.50673 61.0846 0.0346522 64.5702 1.89963C73.7974 7.08927 78.0471 13.2853 80.7852 16.6214C86.0448 26.1214 87.8819 37.0569 88.7054 46.3226C89.5258 55.5527 89.4914 61.2795 90.8919 69.5987C91.605 73.8348 92.6768 80.7843 89.7054 84.031C90.3696 85.2669 91.4383 88.7195 90.8919 90.2173C87.3222 91.1533 82.718 91.6137 77.0055 91.1296C75.5809 91.0452 73.7144 87.2844 74.3386 82.0809C72.042 74.4339 68.4437 61.85 68.8642 57.7269" stroke="#1E1E1E" stroke-width="2" stroke-linecap="round" stroke-linejoin="round"/>
</svg>
