<svg width="87" height="62" viewBox="0 0 87 62" fill="none" xmlns="http://www.w3.org/2000/svg">
<path d="M12.0106 14.3467C17.8109 21.4647 20.1517 25.2798 20.1517 31.1963C20.4895 32.2995 18.3383 50.1933 18.7941 54.3382C19.2499 58.4831 22.7855 60.3561 27.5445 60.6861C32.3034 61.0161 44.0338 59.8422 54.8201 55.5965M48.2053 57.8988C50.9136 59.6124 57.7601 60.3385 62.2217 60.2878C66.6834 60.2371 68.4429 56.4973 68.6133 53.942C68.7836 51.3866 68.2268 32.8916 67.8765 31.1963C67.8765 25.2798 68.4039 21.4647 74.2042 14.3467M44.0338 50.2647C49.9317 50.0092 61.7701 47.1816 62.8972 44.7419C64.0242 42.3021 60.7917 41.5733 56.465 42.3021M18.3383 49.6022C13.8188 49.6022 7.68104 48.4303 5.0582 47.469C2.30563 46.4602 1.19863 45.4343 1.19824 42.3184C1.19785 39.2025 5.4878 24.6792 9.1202 18.0854C14.9859 8.96891 19.9796 5.73179 25.661 2.69192C29.1465 0.82695 31.3193 2.29903 32.3129 3.19575C33.3065 4.09246 36.7986 7.88157 42.7403 7.88157C48.682 7.88157 52.9084 4.09246 53.9019 3.19575C54.8955 2.29903 57.0683 0.82695 60.5538 2.69192C66.2352 5.73179 71.229 8.96891 77.0947 18.0854C80.727 24.6792 85.017 39.2025 85.0166 42.3184C85.0162 45.4343 83.9092 46.4602 81.1566 47.469C78.5998 48.4061 72.6451 49.7431 68.6223 49.7431" stroke="#1E1E1E" stroke-width="2" stroke-linecap="round" stroke-linejoin="round"/>
</svg>
