<svg width="86" height="74" viewBox="0 0 86 74" fill="none" xmlns="http://www.w3.org/2000/svg">
<path d="M11.9305 13.5544C17.7308 20.6724 18.2582 24.4875 18.2582 30.404C15.7914 42.9832 15.7914 57.3705 15.7914 57.3705C15.7914 57.3705 13.9671 63.0338 15.6612 67.6199C17.3553 72.2061 22.4828 72.6354 27.9107 72.4931C39.4619 72.1902 51.3136 70.1548 62.4603 66.8042M15.6612 48.8099C10.6477 48.184 7.73069 47.6855 4.97812 46.6767C2.22556 45.6679 1.11856 44.642 1.11816 41.5261C1.11777 38.4102 5.40772 23.8869 9.04012 17.2931C14.9058 8.17662 19.8996 4.93949 25.5809 1.89963C29.0665 0.0346524 31.2392 1.50673 32.2328 2.40345C33.2264 3.30016 36.7185 7.08927 42.6602 7.08927C48.6019 7.08927 52.8283 3.30016 53.8219 2.40345C54.8154 1.50673 56.9882 0.0346524 60.4738 1.89963C66.1551 4.93949 71.1489 8.17662 77.0146 17.2931C80.647 23.8869 84.9369 38.4102 84.9365 41.5261C84.9361 44.642 83.8291 45.6679 81.0766 46.6767C78.324 47.6855 75.407 48.184 70.3935 48.8099M51.0254 69.72C55.3964 70.775 61.5836 71.422 66.8171 71.6817C68.8944 71.7848 71.2592 70.5178 72.2118 66.8042C73.1644 63.0906 70.2633 56.3705 70.2633 56.3705C70.2633 56.3705 71.1628 46.181 67.7965 30.404C67.7965 24.4875 68.3239 20.6724 74.1242 13.5544M47.9537 58.4724C53.8516 58.2169 67.1234 55.0888 66.8171 52.9496C66.5108 50.8104 62.8423 50.2543 60.3849 50.5098" stroke="#1E1E1E" stroke-width="2" stroke-linecap="round" stroke-linejoin="round"/>
</svg>
