<svg width="63" height="84" viewBox="0 0 63 84" fill="none" xmlns="http://www.w3.org/2000/svg">
<path d="M16.1055 26.9998C16.0766 29.8818 15.9187 33.491 15.6602 36.6547M46.7084 26.9998C46.7373 29.8865 46.7021 33.5028 46.794 36.6702M33.5467 61.3338C36.4093 62.1688 45.2084 62.5531 46.1084 62.4764C47.0084 62.3998 47.9084 61.7998 48.1259 60.5998C48.3433 59.3998 47.7971 56.9663 47.3083 55.4998C47.7986 52.0978 48.5084 48.0647 47.3084 42.5998C47.0073 41.2287 46.8639 39.0793 46.794 36.6702M33.5467 61.3338C26.5517 62.4783 17.8552 62.6553 16.7055 62.5093C15.2055 62.3189 14.1357 61.7998 14.0706 60.2998C14.0055 58.7998 14.4375 56.9031 14.9053 55.4998C14.415 52.0978 13.7052 48.0647 14.9052 42.5998C15.2069 41.2258 15.4628 39.0701 15.6602 36.6547M33.5467 61.3338C35.678 60.985 37.6514 60.5464 39.2052 59.9998M31.4078 53.9998C34.9415 53.7748 42.8078 51.8998 42.8078 49.7998C42.8078 48.8998 41.0078 48.5998 39.2078 48.8998M46.794 36.6702C49.9895 36.5116 53.8652 36.8886 54.9216 36.8431C56.2386 36.7865 56.9047 35.9998 56.857 34.7998C56.8092 33.5998 56.3045 32.3998 55.7047 31.4998C55.7047 29.3998 55.2358 27.0941 54.5047 24.8998C53.3887 21.5501 51.9458 19.0045 49.7048 16.4998C45.5195 11.8222 41.9404 9.77102 38.1384 8.68829C38.1328 8.49962 38.0575 5.99978 37.97 4.79961C37.879 3.55192 36.7063 2.69961 35.8062 2.69961C35.8062 2.69961 34.6062 2.47461 32.8062 2.69961C31.0062 2.9246 27.7063 2.69961 26.2063 2.69961C24.7063 2.69961 24.066 3.55192 23.975 4.79961C23.884 6.0473 23.8062 8.95414 23.8062 8.95414C20.3217 10.0998 16.9732 12.1796 13.1078 16.4998C10.8667 19.0045 9.42377 21.5501 8.30778 24.8998C7.57672 27.0941 7.10778 29.3998 7.10778 31.4998C6.50801 32.3998 6.00328 33.5998 5.95552 34.7998C5.90777 35.9998 6.57388 36.7865 7.89094 36.8431C8.90807 36.8869 12.5393 36.539 15.6602 36.6547" stroke="#1E1E1E" stroke-width="0.6" stroke-linecap="round"/>
</svg>
