<svg width="64" height="84" viewBox="0 0 64 84" fill="none" xmlns="http://www.w3.org/2000/svg">
<path d="M17.5022 27.0314C15.652 37.3387 17.0048 41.1191 17.5024 42.4725C16.3312 45.8048 16.5661 47.7644 17.4435 48.9347M46.0915 27.0314C47.9417 37.3387 46.5889 41.1191 46.0913 42.4725C47.2646 45.8107 47.0267 47.7713 46.1455 48.9409M31.7289 50.2801C36.7047 50.9905 41.3701 50.873 43.1107 50.5446C44.2726 50.3254 45.4245 49.8979 46.1455 48.9409M31.7289 50.2801C26.7745 50.9818 22.2172 50.8718 20.483 50.5446C19.3185 50.3249 18.1643 49.8961 17.4435 48.9347M31.7289 50.2801C34.1505 49.9371 36.6668 49.4001 38.9948 48.5999M31.7968 43.0123C35.3305 42.7873 43.1968 40.9123 43.1968 38.8123C43.1968 37.9123 41.3968 37.6123 39.5968 37.9123M46.1455 48.9409C46.5673 52.4105 47.2949 55.5327 48.8952 58.1998C48.5953 59.3997 48.2953 60.8998 48.2953 62.0998C48.2953 63.2998 48.5953 63.8998 49.7953 64.1998C50.9953 64.4998 56.6953 64.1998 57.5953 63.8998C58.4953 63.5998 59.0953 62.9998 59.0953 62.0998C59.0953 61.1998 58.9332 60.1869 58.4952 59.3997C58.8209 58.2054 59.0952 54.2997 58.7952 50.6997C58.4952 47.0997 58.1676 43.8039 57.5952 41.3997C56.0952 35.0997 56.6952 32.3998 54.8952 25.4998C53.9664 21.9395 51.2952 17.0998 47.3952 13.4998C44.3931 10.7287 41.391 9.37959 38.5258 8.63162C38.5129 8.20957 38.4414 5.92907 38.3591 4.79961C38.2681 3.55192 37.0953 2.69961 36.1953 2.69961C36.1953 2.69961 34.9953 2.47461 33.1953 2.69961C31.3953 2.9246 28.0953 2.69961 26.5953 2.69961C25.0953 2.69961 24.455 3.55192 24.3641 4.79961C24.2731 6.0473 24.1953 8.87598 24.1953 8.87598C21.5943 9.66489 18.8937 11.0069 16.1931 13.4998C12.2931 17.0998 9.6219 21.9395 8.69313 25.4998C6.89313 32.3998 7.49313 35.0997 5.99313 41.3997C5.42068 43.8039 5.09313 47.0997 4.79313 50.6997C4.49313 54.2997 4.76742 58.2054 5.09313 59.3997C4.65506 60.1869 4.79312 61.1998 4.79312 62.0998C4.79312 62.9998 5.09298 63.5998 5.99298 63.8998C6.89298 64.1998 12.593 64.4998 13.793 64.1998C14.993 63.8998 15.293 63.2998 15.293 62.0998C15.293 60.8998 14.993 59.3997 14.6931 58.1998C16.2943 55.5311 17.0219 52.4067 17.4435 48.9347" stroke="#1E1E1E" stroke-width="0.6" stroke-linecap="round"/>
</svg>
