<svg width="63" height="84" viewBox="0 0 63 84" fill="none" xmlns="http://www.w3.org/2000/svg">
<path d="M16.1039 26.9998C16.0531 32.0822 15.6005 39.4262 14.9037 42.5998C13.7037 48.0647 14.4134 52.0978 14.9038 55.4998C14.436 56.9031 14.0039 58.7998 14.069 60.2998C14.1028 61.0775 14.4066 61.5916 14.9005 61.9328M46.7068 26.9998C46.7577 32.0822 46.6099 39.4262 47.3068 42.5998C48.5068 48.0647 47.797 52.0978 47.3067 55.4998C47.7956 56.9663 48.3418 59.3998 48.1243 60.5998C48.0869 60.8063 48.0293 60.995 47.9549 61.1663M33.5451 61.3338C36.4077 62.1688 45.2068 62.5531 46.1068 62.4764C46.852 62.413 47.5971 61.9908 47.9549 61.1663M33.5451 61.3338C26.5501 62.4783 17.8536 62.6553 16.7039 62.5093C15.9816 62.4176 15.3591 62.2497 14.9005 61.9328M33.5451 61.3338C35.6765 60.985 37.6498 60.5464 39.2036 59.9998M31.4062 53.9998C34.9399 53.7748 42.8063 51.8998 42.8063 49.7998C42.8063 48.8998 41.0063 48.5998 39.2063 48.8998M47.9549 61.1663C47.9229 61.4897 47.9047 61.8039 47.9047 62.0998C47.9047 63.2998 48.2047 63.8998 49.4047 64.1998C50.6047 64.4998 56.3047 64.1998 57.2047 63.8998C58.1047 63.5998 58.7047 62.9998 58.7047 62.0998C58.7047 61.1998 58.5426 60.1869 58.1045 59.3997C58.4302 58.2054 58.7045 54.2997 58.4045 50.6997C58.1045 47.0997 57.777 43.8039 57.2045 41.3997C55.7045 35.0997 56.3045 32.3998 54.5045 25.4998C53.5758 21.9395 50.9045 17.0998 47.0045 13.4998C44.0025 10.7287 41.0004 9.37959 38.1351 8.63162C38.1223 8.20957 38.0508 5.92907 37.9684 4.79961C37.8775 3.55192 36.7047 2.69961 35.8047 2.69961C35.8047 2.69961 34.6047 2.47461 32.8047 2.69961C31.0047 2.9246 27.7047 2.69961 26.2047 2.69961C24.7047 2.69961 24.0644 3.55192 23.9734 4.79961C23.8825 6.0473 23.8047 8.87598 23.8047 8.87598C21.2037 9.66489 18.5031 11.0069 15.8025 13.4998C11.9025 17.0998 9.23127 21.9395 8.30251 25.4998C6.50251 32.3998 7.10251 35.0997 5.60251 41.3997C5.03006 43.8039 4.70251 47.0997 4.40251 50.6997C4.10251 54.2997 4.3768 58.2054 4.70251 59.3997C4.26444 60.1869 4.40249 61.1998 4.40249 62.0998C4.40249 62.9998 4.70236 63.5998 5.60236 63.8998C6.50236 64.1998 12.2023 64.4998 13.4023 64.1998C14.6024 63.8998 14.9023 63.2998 14.9023 62.0998C14.9023 62.0448 14.9017 61.9891 14.9005 61.9328" stroke="#1E1E1E" stroke-width="0.6" stroke-linecap="round"/>
</svg>
