<svg width="64" height="84" viewBox="0 0 64 84" fill="none" xmlns="http://www.w3.org/2000/svg">
<path d="M17.5038 27.0314C16.7476 31.2439 16.5264 34.3662 16.5632 36.6782M46.093 27.0314C46.8492 31.2438 47.0704 34.3661 47.0336 36.6781M31.7305 50.2801C36.7063 50.9905 41.3716 50.873 43.1123 50.5446C45.6941 50.0575 48.2262 48.5422 46.0929 42.4725C46.3871 41.6722 46.9804 40.0233 47.0336 36.6781M31.7305 50.2801C26.7761 50.9818 22.2187 50.8718 20.4845 50.5446C17.9027 50.0575 15.3706 48.5422 17.504 42.4725C17.2097 41.6722 16.6165 40.0233 16.5632 36.6782M31.7305 50.2801C34.152 49.9371 36.6684 49.4001 38.9964 48.5999M31.7984 43.0123C35.3321 42.7873 43.1984 40.9123 43.1984 38.8123C43.1984 37.9123 41.3984 37.6123 39.5984 37.9123M16.5632 36.6782C13.3394 36.4994 9.35493 36.8893 8.28156 36.8431C6.9645 36.7865 6.29839 35.9998 6.34615 34.7998C6.3939 33.5998 6.89863 32.3998 7.4984 31.4998C7.4984 29.3998 7.96735 27.0941 8.6984 24.8998C9.8144 21.5501 11.2573 19.0045 13.4984 16.4998C17.3639 12.1796 20.7123 10.0998 24.1969 8.95414C24.1969 8.95414 24.2746 6.0473 24.3656 4.79961C24.4566 3.55192 25.0969 2.69961 26.5969 2.69961C28.0969 2.69961 31.3969 2.9246 33.1969 2.69961C34.9969 2.47461 36.1969 2.69961 36.1969 2.69961C37.0969 2.69961 38.2696 3.55192 38.3606 4.79961C38.4481 5.99978 38.5234 8.4996 38.529 8.68829C42.331 9.77102 45.9101 11.8222 50.0954 16.4998C52.3365 19.0045 53.7794 21.5501 54.8953 24.8998C55.6264 27.0941 56.0953 29.3998 56.0953 31.4998C56.6951 32.3998 57.1998 33.5998 57.2476 34.7998C57.2954 35.9998 56.6292 36.7865 55.3122 36.8431C54.2392 36.8893 50.2569 36.4996 47.0336 36.6781" stroke="#1E1E1E" stroke-width="0.6" stroke-linecap="round"/>
</svg>
