<svg width="63" height="84" viewBox="0 0 63 84" fill="none" xmlns="http://www.w3.org/2000/svg">
<path d="M14.5018 26.9998C14.4794 29.24 14.5934 32.7109 14.625 36.6375M47.5013 26.9998C47.5237 29.24 47.4098 32.7109 47.3781 36.6374M30.0609 71.3678C33.9936 71.9939 44.2013 72.2189 45.7013 72.1093C47.2013 71.9998 48.2917 71.0998 48.3465 69.5998C48.4013 68.0998 47.9471 66.4373 47.5013 65.0998C47.9916 61.6978 49.3016 60.8998 48.1014 52.1998C47.4301 47.3345 47.3379 41.6193 47.3781 36.6374M30.0609 71.3678C23.8124 72.1224 17.287 72.2344 16.3019 72.1093C14.8019 71.9189 13.9019 71.3998 13.6761 70.0699C13.4503 68.74 14.022 66.5392 14.5018 65.0998C14.0115 61.6978 12.7015 60.8998 13.9018 52.1998C14.573 47.3345 14.6652 41.6193 14.625 36.6375M30.0609 71.3678C33.3271 70.9734 36.5177 70.4033 38.8017 69.5998M31.0016 63.5998C34.5352 63.3748 42.4016 61.4998 42.4016 59.3998C42.4016 58.4998 40.6016 58.1998 38.8016 58.4998M47.3781 36.6374C50.3409 36.5838 53.5662 36.884 54.5153 36.8431C55.8324 36.7865 56.4985 35.9998 56.4507 34.7998C56.403 33.5998 55.8982 32.3998 55.2985 31.4998C55.2985 29.3998 54.8295 27.0941 54.0985 24.8998C52.9825 21.5501 51.5396 19.0045 49.2985 16.4998C45.1133 11.8222 41.5341 9.77102 37.7322 8.68829C37.7266 8.49962 37.6513 5.99978 37.5637 4.79961C37.4728 3.55192 36.3 2.69961 35.4 2.69961C35.4 2.69961 34.2 2.47461 32.4 2.69961C30.6 2.9246 27.3 2.69961 25.8 2.69961C24.3 2.69961 23.6597 3.55192 23.5688 4.79961C23.4778 6.0473 23.4 8.95414 23.4 8.95414C19.9155 10.0998 16.567 12.1796 12.7015 16.4998C10.4604 19.0045 9.01752 21.5501 7.90153 24.8998C7.17047 27.0941 6.70153 29.3998 6.70153 31.4998C6.10176 32.3998 5.59703 33.5998 5.54927 34.7998C5.50152 35.9998 6.16763 36.7865 7.48469 36.8431C8.43414 36.884 11.6613 36.5836 14.625 36.6375" stroke="#1E1E1E" stroke-width="0.6" stroke-linecap="round"/>
</svg>
