<svg width="63" height="84" viewBox="0 0 63 84" fill="none" xmlns="http://www.w3.org/2000/svg">
<path d="M18.013 26.9998C17.1844 30.5998 16.5845 36.2998 16.8131 38.6998C16.9086 39.7027 17.0814 40.6531 17.4691 41.4418M44.4089 26.9998C45.2375 30.5998 45.8374 36.2998 45.6088 38.6998C45.5129 39.7068 45.3391 40.6609 44.948 41.4515M31.0837 43.1493C35.6449 43.8317 39.7145 43.6992 41.7088 43.4998C43.4502 43.3257 44.407 42.5451 44.948 41.4515M31.0837 43.1493C26.5773 43.8104 22.6885 43.6973 20.713 43.4998C18.9666 43.3252 18.0093 42.5405 17.4691 41.4418M31.0837 43.1493C33.4209 42.8064 35.9243 42.2553 38.4131 41.3998M31.2109 35.8123C34.7446 35.5873 42.6109 33.7123 42.6109 31.6123C42.6109 30.7123 40.8109 30.4123 39.0109 30.7123M17.4691 41.4418C17.0207 47.9694 16.7919 53.7252 14.1072 58.1998C14.407 59.3997 14.707 60.8998 14.707 62.0998C14.707 63.2998 14.407 63.8998 13.207 64.1998C12.007 64.4998 6.30704 64.1998 5.40704 63.8998C4.50704 63.5998 4.20718 62.9998 4.20718 62.0998C4.20718 61.1998 4.06912 60.1869 4.5072 59.3997C4.18149 58.2054 3.90719 54.2997 4.20719 50.6997C4.50719 47.0997 4.83475 43.8039 5.40719 41.3997C6.9072 35.0997 6.3072 32.3998 8.1072 25.4998C9.03596 21.9395 11.7072 17.0998 15.6072 13.4998C18.3078 11.0069 21.0084 9.66489 23.6094 8.87598C23.6094 8.87598 23.6871 6.0473 23.7781 4.79961C23.8691 3.55192 24.5094 2.69961 26.0094 2.69961C27.5094 2.69961 30.8094 2.9246 32.6094 2.69961C34.4094 2.47461 35.6094 2.69961 35.6094 2.69961C36.5094 2.69961 37.6821 3.55192 37.7731 4.79961C37.8555 5.92907 37.927 8.20957 37.9398 8.63162C40.8051 9.37959 43.8071 10.7287 46.8092 13.4998C50.7092 17.0998 53.3805 21.9395 54.3092 25.4998C56.1092 32.3998 55.5092 35.0997 57.0092 41.3997C57.5817 43.8039 57.9092 47.0997 58.2092 50.6997C58.5092 54.2997 58.2349 58.2054 57.9092 59.3997C58.3473 60.1869 58.5094 61.1998 58.5094 62.0998C58.5094 62.9998 57.9094 63.5998 57.0094 63.8998C56.1094 64.1998 50.4094 64.4998 49.2094 64.1998C48.0094 63.8998 47.7094 63.2998 47.7094 62.0998C47.7094 60.8998 48.0094 59.3997 48.3092 58.1998C45.6259 53.7274 45.396 47.9751 44.948 41.4515" stroke="#1E1E1E" stroke-width="0.6" stroke-linecap="round"/>
</svg>
