<svg width="63" height="54" viewBox="0 0 63 54" fill="none" xmlns="http://www.w3.org/2000/svg">
<path d="M2.75821 49.0699C2.07713 47.205 1.89718 46.4138 2.82482 44.7828C3.75247 43.1518 5.68284 42.2468 7.2485 41.6343C8.81416 41.0219 10.817 40.5286 13.7267 39.0652M2.75821 49.0699C2.75821 49.0699 2.64346 49.4087 2.65497 49.7519C2.66648 50.0951 2.77378 51.5833 4.24371 51.767C4.9218 51.8518 9.9192 52.2134 15.2329 52.1168C21.4381 52.0041 26.8273 51.4642 27.7237 51.1728C28.6201 50.8815 29.0735 50.609 29.3648 50.0487C29.6562 49.4885 29.523 48.0877 29.523 48.0877M2.75821 49.0699C10.7027 49.2759 15.9018 49.2981 24.074 48.6071M29.523 48.0877C29.523 46.6957 29.48 45.3505 29.415 44.0976M29.523 48.0877C27.5489 48.2938 25.749 48.4654 24.074 48.6071M13.7267 39.0652C13.652 38.9598 13.6105 38.0857 14.1086 37.8233C14.6067 37.5608 15.0686 37.7578 15.4008 38.0425C15.733 38.3273 17.7099 40.8165 21.9597 41.5934C26.2095 42.3702 28.1689 42.1117 28.8976 42.1117C29.6262 42.1117 29.9528 42.7166 29.9528 43.0954C29.9528 43.4743 29.825 43.7983 29.415 44.0976M13.7267 39.0652C14.2753 40.5665 17.0967 43.2298 24.074 43.9452M29.415 44.0976C27.4116 44.1681 25.6384 44.1056 24.074 43.9452M60.0379 49.07C60.719 47.205 60.8989 46.4138 59.9713 44.7828C59.0436 43.1518 57.1133 42.2468 55.5476 41.6344C53.9819 41.0219 51.9791 40.5286 49.0693 39.0653M60.0379 49.07C60.0379 49.07 60.1526 49.4088 60.1411 49.752C60.1296 50.0951 60.0223 51.5833 58.5524 51.7671C57.8743 51.8518 52.8769 52.2134 47.5632 52.1169C41.358 52.0042 35.9688 51.4642 35.0724 51.1729C34.176 50.8815 33.7226 50.609 33.4312 50.0488C33.1399 49.4885 33.2731 48.0878 33.2731 48.0878M60.0379 49.07C52.0935 49.2759 46.8945 49.2981 38.7225 48.6072M33.2731 48.0878C33.2731 46.6957 33.3161 45.3505 33.3811 44.0976M33.2731 48.0878C35.2473 48.2939 37.0474 48.4655 38.7225 48.6072M49.0693 39.0653C49.1441 38.9598 49.1856 38.0857 48.6875 37.8233C48.1894 37.5609 47.7275 37.7578 47.3953 38.0426C47.0631 38.3273 45.0862 40.8166 40.8364 41.5934C36.5866 42.3703 34.6272 42.1117 33.8985 42.1117C33.1698 42.1117 32.8433 42.7166 32.8433 43.0955C32.8433 43.4743 32.9711 43.7983 33.3811 44.0976M49.0693 39.0653C48.5208 40.5665 45.6995 43.2298 38.7225 43.9452M33.3811 44.0976C35.3847 44.1681 37.1581 44.1056 38.7225 43.9452M24.074 43.9452V48.6071M38.7225 43.9452V48.6072" stroke="#1E1E1E" stroke-linecap="round" stroke-linejoin="round"/>
</svg>
