<svg width="64" height="54" viewBox="0 0 64 54" fill="none" xmlns="http://www.w3.org/2000/svg">
<path d="M3.16446 49.6698C10.7002 49.8651 15.7658 49.8951 23.2416 49.308M3.16446 49.6698C2.48338 47.8048 2.30343 47.0136 3.23107 45.3826C4.15872 43.7516 6.5843 42.4018 7.9341 41.7269C9.14298 41.1225 11.2584 40.1738 14.133 39.6651C14.133 38.1445 14.125 35.0419 14.1671 32.0361M3.16446 49.6698C3.16446 49.6698 3.04971 50.0086 3.06122 50.3517C3.07273 50.6949 3.18003 52.1831 4.64996 52.3668C5.32805 52.4516 10.3255 52.8132 15.6392 52.7167C21.8444 52.604 27.2335 52.064 28.1299 51.7726C29.0263 51.4813 29.4798 51.2088 29.7711 50.6486C30.0624 50.0883 29.9292 48.6876 29.9292 48.6876M23.2416 49.308C25.2625 49.1492 27.4596 48.9454 29.9292 48.6876M23.2416 49.308C23.4622 46.7648 23.2376 38.0831 23.2376 31.8593M29.9292 48.6876C29.9292 43.3675 29.3013 38.7318 29.2182 37.3154C29.1351 35.899 28.9192 34.2358 28.6097 32.0361M23.2376 31.8593C20.0121 31.8616 16.2931 31.958 14.1671 32.0361M23.2376 31.8593C25.5242 31.8576 27.5627 31.9032 28.6097 32.0361M14.1671 32.0361C13.9626 31.885 13.2765 31.4751 13.3492 30.6936C13.44 29.7168 14.1412 29.4697 14.5549 29.4413C14.9686 29.413 19.688 29.235 21.747 29.2615C23.806 29.288 27.3231 29.3232 28.2265 29.4413C29.1299 29.5595 29.3996 30.3833 29.4149 30.7787C29.4301 31.1741 29.2808 32.0361 28.6097 32.0361M60.4441 49.6697C52.9084 49.8651 47.8428 49.8951 40.367 49.3079M60.4441 49.6697C61.1252 47.8048 61.3052 47.0136 60.3775 45.3826C59.4499 43.7516 57.0243 42.4018 55.6745 41.7269C54.4656 41.1225 52.3501 40.1738 49.4756 39.665C49.4756 38.1445 49.4836 35.0418 49.4415 32.0361M60.4441 49.6697C60.4441 49.6697 60.5589 50.0085 60.5474 50.3517C60.5359 50.6949 60.4286 52.1831 58.9586 52.3668C58.2805 52.4516 53.2831 52.8132 47.9694 52.7166C41.7642 52.6039 36.3751 52.0639 35.4787 51.7726C34.5823 51.4813 34.1288 51.2088 33.8375 50.6485C33.5462 50.0883 33.6794 48.6875 33.6794 48.6875M40.367 49.3079C38.3461 49.1492 36.149 48.9454 33.6794 48.6875M40.367 49.3079C40.1464 46.7648 40.371 38.0831 40.371 31.8593M33.6794 48.6875C33.6794 43.3675 34.3073 38.7317 34.3904 37.3153C34.4735 35.8989 34.6894 34.2358 34.9989 32.0361M40.371 31.8593C43.5965 31.8616 47.3155 31.958 49.4415 32.0361M40.371 31.8593C38.0844 31.8576 36.0459 31.9032 34.9989 32.0361M49.4415 32.0361C49.6459 31.885 50.3321 31.475 50.2594 30.6936C50.1686 29.7168 49.4674 29.4696 49.0537 29.4413C48.64 29.413 43.9206 29.235 41.8616 29.2615C39.8026 29.2879 36.2855 29.3231 35.3821 29.4413C34.4787 29.5595 34.209 30.3833 34.1937 30.7787C34.1785 31.1741 34.3278 32.0361 34.9989 32.0361" stroke="#1E1E1E" stroke-linecap="round" stroke-linejoin="round"/>
</svg>
