<svg width="63" height="129" viewBox="0 0 63 129" fill="none" xmlns="http://www.w3.org/2000/svg">
<path d="M31.0063 74.1068C23.8551 74.1068 17.7523 72.5219 16.3069 72.1094C14.8615 71.6968 13.3069 70.1998 13.0811 68.8699C12.8575 67.553 12.4883 52.7117 15.031 27.9659C17.1237 25.6941 17.5565 21.9132 17.4042 20.2342C17.2136 18.1325 16.5984 16.1999 15.9441 15.1549C15.2898 14.1099 15.5227 12.966 16.5984 11.9999C16.9749 11.6617 17.6429 11.1786 18.8182 10.3423C19.9935 9.50605 21.5649 9.11467 22.2352 9.69224M31.0063 74.1068C38.1574 74.1068 44.2595 72.5219 45.7049 72.1094C47.1503 71.6968 48.7049 70.1998 48.9307 68.8699C49.1543 67.5532 49.5233 52.7163 46.982 27.9774C44.8801 25.7068 44.4456 21.916 44.5981 20.2342C44.7887 18.1325 45.4039 16.1999 46.0582 15.1549C46.7125 14.1099 46.4796 12.966 45.4039 11.9999C45.0419 11.6747 44.0067 10.8495 42.9661 10.276C41.9255 9.70257 40.4318 9.11488 39.7591 9.70257M31.0063 74.1068L31.0048 15.3003M31.0048 15.3003C27.1037 15.3003 24.6315 13.0003 23.4641 11.287C23.0162 10.6296 22.6525 10.0518 22.2352 9.69224M31.0048 15.3003C34.9059 15.3003 37.3748 13.0003 38.5422 11.287C38.9858 10.6359 39.3468 10.0628 39.7591 9.70257M22.2352 9.69224C24.3939 8.82458 27.5155 8.46631 30.9656 8.46631C34.4294 8.46631 37.5995 8.82742 39.7591 9.70257" stroke="#1E1E1E" stroke-width="0.6" stroke-linecap="round"/>
</svg>
