<svg width="63" height="129" viewBox="0 0 63 129" fill="none" xmlns="http://www.w3.org/2000/svg">
<path d="M31.2047 52.4998C24.0536 52.4998 17.9522 50.9219 16.5068 50.5093C15.0614 50.0968 14.5553 48.64 14.4809 47.2699C14.4076 45.9201 15.2804 43.2793 15.3062 27.8848C17.3356 25.6051 17.7565 21.8933 17.606 20.2341C17.4154 18.1324 16.8002 16.1999 16.1459 15.1548C15.7947 14.594 15.6991 14.0047 15.8522 13.4296M31.2047 52.4998C38.3559 52.4998 44.4592 50.9219 45.9046 50.5093C47.35 50.0968 47.856 48.64 47.9304 47.2699C48.0038 45.9202 47.1312 43.28 47.1052 27.891C45.071 25.6117 44.6493 21.8948 44.7999 20.2341C44.9905 18.1324 45.6057 16.1999 46.26 15.1548C46.6107 14.5948 46.7065 14.0064 46.5544 13.4321M31.2047 52.4998C31.2047 30.1185 31.2049 41.131 31.2049 18.7497M31.2049 18.7497C31.2047 16.4997 29.7049 14.9998 28.2049 13.4998C26.7049 11.9998 24.6049 10.7998 22.8049 10.4998M31.2049 18.7497C31.2051 16.4997 32.7049 14.9998 34.2049 13.4998C35.7049 11.9998 37.8049 10.7998 39.6049 10.4998M31.2049 18.7497C30.6266 18.1301 29.777 17.5944 28.8049 17.1357M31.2049 18.7497C31.7832 18.1301 32.6329 17.5944 33.6049 17.1357M28.8049 17.1357C28.2049 19.6857 27.6049 27.6598 27.6049 32.6998M28.8049 17.1357C26.247 15.9287 22.8417 15.2563 21.3049 14.9998C19.8613 14.7588 17.3248 14.5679 15.8522 13.4296M33.6049 17.1357C34.2049 19.6857 34.8049 27.6598 34.8049 32.6998M33.6049 17.1357C36.1628 15.9287 39.5681 15.2563 41.1049 14.9998C42.5475 14.759 45.0813 14.5682 46.5544 13.4321M15.8522 13.4296C15.1615 12.8957 14.7049 12.1534 14.7049 11.0998C14.7049 7.79981 18.6049 5.3998 21.3049 4.4998C24.0049 3.5998 26.6161 3.2998 31.2049 3.2998C35.7937 3.2998 38.4049 3.59979 41.1049 4.49979C43.8049 5.39979 47.7049 7.79979 47.7049 11.0998C47.7049 12.1551 47.2469 12.8981 46.5544 13.4321" stroke="#1E1E1E" stroke-width="0.6" stroke-linecap="round"/>
</svg>
