<svg width="63" height="129" viewBox="0 0 63 129" fill="none" xmlns="http://www.w3.org/2000/svg">
<path d="M31.6 74.1066C24.4488 74.1066 18.3461 72.5216 16.9007 72.1091C15.4553 71.6965 13.9006 70.1995 13.6748 68.8697C13.4512 67.5528 13.0821 52.7116 15.6247 27.9659C17.7175 25.694 18.1503 21.9131 17.998 20.2341C17.8074 18.1324 17.1922 16.1999 16.5379 15.1548C15.8836 14.1098 16.1165 12.966 17.1922 11.9999C17.9518 11.3176 20.4994 9.69314 23.3972 8.66418C23.4067 8.34582 23.48 5.96256 23.5648 4.79961C23.6558 3.55192 24.2961 2.69961 25.7961 2.69961C26.8806 2.69961 29.5334 2.81722 31.6001 2.79734M31.6 74.1066C38.7512 74.1066 44.8532 72.5216 46.2986 72.1091C47.744 71.6965 49.2987 70.1995 49.5245 68.8697C49.748 67.553 50.1171 52.7162 47.5757 27.9774C45.4739 25.7068 45.0393 21.916 45.1919 20.2341C45.3825 18.1324 45.9977 16.1999 46.652 15.1548C47.3063 14.1098 47.0734 12.966 45.9977 11.9999C45.1624 11.2497 42.1656 9.36047 38.9186 8.37618C38.8948 7.63074 38.8314 5.78082 38.7598 4.79961C38.6689 3.55192 37.4961 2.69961 36.5961 2.69961C36.5961 2.69961 35.3961 2.47461 33.5961 2.69961C33.0975 2.76193 32.3918 2.78972 31.6001 2.79734M31.6 74.1066L31.6001 2.79734" stroke="#1E1E1E" stroke-width="0.6" stroke-linecap="round"/>
</svg>
