<svg width="63" height="84" viewBox="0 0 63 84" fill="none" xmlns="http://www.w3.org/2000/svg">
<path d="M19.5712 10.917C20.7681 13.2161 21.962 24.166 21.9182 26.4015M21.9182 26.4015C21.098 26.4601 20.3095 26.54 19.5712 26.6487C18.3407 26.8299 17.3133 27.0788 16.5111 27.3185C16.5079 35.623 16.2113 39.9072 16.2853 41.2699C16.3597 42.64 16.2658 42.8968 17.7112 43.3093C19.1566 43.7219 24.0598 45.2998 31.211 45.2998C38.3622 45.2998 43.2635 43.7219 44.7089 43.3093C46.1543 42.8968 46.0604 42.64 46.1348 41.2699C46.2079 39.9237 45.9193 35.7266 45.9092 27.6192C45.045 27.3077 43.6981 26.9086 41.9332 26.6487C41.1949 26.54 40.4065 26.4601 39.5863 26.4015M21.9182 26.4015C24.7196 26.2014 28.0028 26.2502 30.8083 26.2502C33.6137 26.2502 36.7849 26.2014 39.5863 26.4015M41.9332 10.917C40.7363 13.2161 39.5424 24.166 39.5863 26.4015" stroke="#1E1E1E" stroke-width="0.6" stroke-linecap="round"/>
</svg>
