<svg width="64" height="84" viewBox="0 0 64 84" fill="none" xmlns="http://www.w3.org/2000/svg">
<path d="M17.983 11.7218C16.9073 12.6879 15.5894 13.5283 16.7465 15.155C17.9036 16.7817 18.7687 20.6254 18.9007 21.9C19.024 23.0907 19.5802 27.0056 17.0716 31.942C16.9955 37.2619 16.8205 40.1876 16.8793 41.2701C16.9537 42.6402 16.8597 42.897 18.3051 43.3095C19.7505 43.7221 24.6538 45.3 31.805 45.3C38.9562 45.3 43.8575 43.7221 45.3029 43.3095C46.7483 42.897 46.6544 42.6402 46.7288 41.2701C46.7875 40.1881 46.6126 37.2642 46.5365 31.9483C44.0243 27.009 44.5809 23.0912 44.7042 21.9C44.8362 20.6254 45.7013 16.7817 46.8584 15.155C48.0156 13.5283 46.6789 12.6879 45.6032 11.7218C44.8429 11.1609 44.2705 10.9866 43.7573 11.7695M19.8235 11.7661C23.5725 10.6859 28.4857 10.3154 31.8041 10.3154C35.1259 10.3154 40.0068 10.6867 43.7573 11.7695M19.8235 11.7661C19.3109 10.9871 18.739 11.1617 17.9798 11.7218M19.8235 11.7661C19.9183 11.9102 20.0111 12.0868 20.1027 12.2997C20.6893 13.6637 21.1952 15.1701 21.6027 16.4997C22.0101 17.8294 22.5029 17.9997 23.7029 17.9997C24.9029 17.9997 27.5802 17.3997 31.7802 17.3997C35.9802 17.3997 38.6802 17.9997 39.8802 17.9997C41.0802 17.9997 41.5729 17.8294 41.9804 16.4997C42.3879 15.1701 42.8938 13.6637 43.4804 12.2997C43.5712 12.0885 43.6633 11.9129 43.7573 11.7695" stroke="#1E1E1E" stroke-width="0.6" stroke-linecap="round"/>
</svg>
