<svg width="63" height="84" viewBox="0 0 63 84" fill="none" xmlns="http://www.w3.org/2000/svg">
<path d="M19.4236 11.7661C23.1726 10.6859 28.0858 10.3154 31.4042 10.3154C34.726 10.3154 39.6068 10.6867 43.3574 11.7695M19.4236 11.7661C18.911 10.9871 18.3391 11.1617 17.5799 11.7218C16.5042 12.6879 15.1895 13.5283 16.3466 15.155C17.5037 16.7817 18.3688 20.6254 18.5008 21.9C18.624 23.0899 19.1795 27.0002 16.677 31.9317C16.5238 44.0077 15.8129 47.247 15.8794 48.4701C15.9538 49.8402 15.8598 50.097 17.3052 50.5095L17.3214 50.5141C18.7912 50.9337 24.2783 52.5 31.4032 52.5C38.5299 52.5 44.02 50.9328 45.4881 50.5138L45.503 50.5095C46.9484 50.097 46.8545 49.8402 46.9289 48.4701C46.9953 47.2472 46.2853 44.009 46.1319 31.9391C43.6251 27.0041 44.1811 23.0905 44.3043 21.9C44.4363 20.6254 45.3014 16.7817 46.4585 15.155C47.6157 13.5283 46.279 12.6879 45.2033 11.7218C44.443 11.1609 43.8706 10.9866 43.3574 11.7695M19.4236 11.7661C19.5184 11.9102 19.6112 12.0868 19.7028 12.2997C20.2894 13.6637 20.7953 15.1701 21.2028 16.4997C21.6102 17.8294 22.103 17.9997 23.303 17.9997C24.503 17.9997 27.1803 17.3997 31.3803 17.3997C35.5803 17.3997 38.2803 17.9997 39.4803 17.9997C40.6803 17.9997 41.173 17.8294 41.5805 16.4997C41.988 15.1701 42.4939 13.6637 43.0805 12.2997C43.1713 12.0885 43.2634 11.9129 43.3574 11.7695" stroke="#1E1E1E" stroke-width="0.6" stroke-linecap="round"/>
</svg>
