<svg width="63" height="84" viewBox="0 0 63 84" fill="none" xmlns="http://www.w3.org/2000/svg">
<path d="M19.049 11.7578C22.7941 10.684 27.6517 10.3154 30.9615 10.3154C34.2802 10.3154 39.1939 10.6859 42.9429 11.7664M19.049 11.7578C18.2818 10.915 17.4021 10.5834 15.8124 12.1399C14.7367 13.106 14.786 13.5283 15.9431 15.155C17.1003 16.7817 17.9653 20.6254 18.0973 21.9C18.2206 23.0907 18.7768 27.0056 16.2683 31.942C16.1922 37.2619 16.0171 40.1876 16.0759 41.2701C16.1503 42.6402 16.0564 42.897 17.5017 43.3095C18.9471 43.7221 23.8504 45.3 31.0016 45.3C38.1528 45.3 43.0541 43.7221 44.4995 43.3095C45.9449 42.897 45.851 42.6402 45.9254 41.2701C45.9842 40.1881 45.8093 37.2642 45.7331 31.9483C43.2209 27.009 43.7775 23.0912 43.9009 21.9C44.0328 20.6254 44.8979 16.7817 46.055 15.155C47.2122 13.5283 47.263 13.106 46.1874 12.1399C44.5922 10.5782 43.712 10.9172 42.9429 11.7664M19.049 11.7578C19.3857 12.1277 19.7008 12.5961 20.0447 13.0466C21.1721 14.5235 23.5564 18.6003 31 18.6003C38.4435 18.6003 40.8276 14.5235 41.955 13.0466C42.2963 12.5996 42.6091 12.1349 42.9429 11.7664" stroke="#1E1E1E" stroke-width="0.6" stroke-linecap="round"/>
</svg>
