<svg width="64" height="84" viewBox="0 0 64 84" fill="none" xmlns="http://www.w3.org/2000/svg">
<path d="M19.8477 11.7578C23.5928 10.684 28.4504 10.3154 31.7602 10.3154C35.0788 10.3154 39.9925 10.6859 43.7416 11.7664M19.8477 11.7578C19.0805 10.915 18.2008 10.5834 16.611 12.1399C15.5353 13.106 15.5846 13.5283 16.7418 15.155C17.8989 16.7817 18.764 20.6254 18.896 21.9C19.0194 23.092 19.5767 27.0142 17.0587 31.9583C16.8168 46.2272 15.6076 59.2367 15.6746 60.4701C15.749 61.8402 15.655 62.097 17.1004 62.5095C18.5458 62.9221 24.6472 64.5 31.7984 64.5C38.9495 64.5 45.0528 62.9221 46.4982 62.5095C47.9436 62.097 47.8497 61.8402 47.9241 60.4701C47.991 59.2368 46.7822 46.2311 46.5401 31.9646C44.0183 27.0176 44.5761 23.0925 44.6995 21.9C44.8315 20.6254 45.6966 16.7817 46.8537 15.155C48.0109 13.5283 48.0617 13.106 46.986 12.1399C45.3909 10.5782 44.5106 10.9172 43.7416 11.7664M19.8477 11.7578C20.1844 12.1277 20.4995 12.5961 20.8433 13.0466C21.9707 14.5235 24.3551 18.6003 31.7986 18.6003C39.2421 18.6003 41.6263 14.5235 42.7537 13.0466C43.095 12.5996 43.4078 12.1349 43.7416 11.7664" stroke="#1E1E1E" stroke-width="0.6" stroke-linecap="round"/>
</svg>
