<svg width="63" height="129" viewBox="0 0 63 129" fill="none" xmlns="http://www.w3.org/2000/svg">
<path d="M31.6032 52.4996C24.452 52.4996 18.3506 50.9217 16.9052 50.5091C15.4598 50.0966 14.9538 48.6398 14.8794 47.2697C14.8061 45.9199 15.6788 43.2791 15.7046 27.8846C17.7341 25.6049 18.1549 21.8931 18.0044 20.2339C17.8138 18.1322 17.1986 16.1997 16.5443 15.1546C15.89 14.1096 16.123 12.9658 17.1986 11.9997C17.4536 11.7706 18.263 11.1391 19.2961 10.5287C20.3291 9.91823 20.9008 9.85107 21.7347 10.1584M31.6032 52.4996C38.7544 52.4996 44.8576 50.9217 46.303 50.5091C47.7484 50.0966 48.2545 48.6398 48.3289 47.2697C48.4022 45.92 47.5297 43.2798 47.5036 27.8908C45.4695 25.6116 45.0477 21.8946 45.1984 20.2339C45.389 18.1322 46.0042 16.1997 46.6584 15.1546C47.3127 14.1096 47.0798 12.9658 46.0041 11.9997C45.7491 11.7706 44.789 11.1049 43.9433 10.6322C43.0975 10.1596 42.3108 9.85068 41.4762 10.1596M31.6032 52.4996C31.6032 30.1183 31.6023 41.1311 31.6023 18.7499M31.6023 18.7499C31.0498 18.7499 30.7507 18.6473 30.1056 18.1985C29.4605 17.7498 26.6621 14.9165 25.0041 13.1999C24.0026 12.1629 23.0069 10.6273 21.7347 10.1584M31.6023 18.7499C32.1549 18.7499 32.4634 18.6473 33.1085 18.1985C33.7536 17.7498 36.552 14.9165 38.21 13.1999C39.2106 12.1638 40.2055 10.6299 41.4762 10.1596M21.7347 10.1584C23.8933 9.11258 27.8437 8.46582 31.6023 8.46582C35.361 8.46582 39.3176 9.11377 41.4762 10.1596" stroke="#1E1E1E" stroke-width="0.6" stroke-linecap="round"/>
</svg>
