<svg width="63" height="84" viewBox="0 0 63 84" fill="none" xmlns="http://www.w3.org/2000/svg">
<path d="M21.5974 10.184C23.7561 9.13818 27.6036 8.46631 31.3623 8.46631C35.1209 8.46631 39.0529 9.13818 41.2115 10.184M21.5974 10.184C22.8385 10.6804 23.8172 12.1812 24.8015 13.2004C26.4595 14.9169 29.2579 17.7502 29.903 18.199C30.5481 18.6478 30.8566 18.7504 31.4092 18.7504C31.9617 18.7504 32.2608 18.6478 32.9059 18.199C33.551 17.7502 36.3495 14.9169 38.0074 13.2004C38.9917 12.1812 39.9704 10.6804 41.2115 10.184M21.5974 10.184C21.1022 9.98592 20.5652 9.94777 19.9694 10.164C19.5432 10.3186 18.8995 10.6231 18.3133 11.0527C17.7271 11.4824 17.2533 11.7711 16.9983 12.0001C15.9226 12.9662 15.1869 13.5284 16.344 15.1551C17.5012 16.7818 18.3662 20.6255 18.4982 21.9001C18.6215 23.0908 19.1777 27.0057 16.6692 31.9421C16.5931 37.262 16.418 40.1877 16.4768 41.2702C16.5512 42.6403 16.4573 42.8971 17.9027 43.3096C19.3481 43.7222 24.2513 45.3001 31.4025 45.3001C38.5537 45.3001 43.4551 43.7222 44.9005 43.3096C46.3459 42.8971 46.2519 42.6403 46.3263 41.2702C46.3851 40.1882 46.2102 37.2643 46.134 31.9484C43.6218 27.0091 44.1784 23.0913 44.3018 21.9001C44.4338 20.6255 45.2988 16.7818 46.456 15.1551C47.6131 13.5284 46.8774 12.9662 45.8017 12.0001C45.5467 11.7711 44.9546 11.3626 44.4867 11.0527C44.0188 10.7428 43.3038 10.3426 42.893 10.184C42.2758 9.94564 41.7215 9.98002 41.2115 10.184" stroke="#1E1E1E" stroke-width="0.6" stroke-linecap="round"/>
</svg>
