<svg width="63" height="84" viewBox="0 0 63 84" fill="none" xmlns="http://www.w3.org/2000/svg">
<path d="M16.302 27.2313C16.2989 27.2612 16.2958 27.2911 16.2927 27.321M19.3612 10.917C20.5581 13.2161 21.752 24.166 21.7082 26.4015M21.7082 26.4015C20.888 26.4601 20.0995 26.54 19.3612 26.6487C18.1263 26.8306 17.0961 27.0806 16.2927 27.321M21.7082 26.4015C24.5095 26.2014 27.7928 26.2502 30.5982 26.2502C33.4037 26.2502 36.5749 26.2014 39.3762 26.4015M41.7232 10.917C40.5263 13.2161 39.3324 24.166 39.3762 26.4015M39.3762 26.4015C40.1964 26.4601 40.9849 26.54 41.7232 26.6487C43.4872 26.9085 44.874 27.3074 45.7383 27.6188C48.3263 52.585 48.5486 68.7466 48.324 70.0697C48.0982 71.3995 47.1435 71.6965 45.6981 72.1091C44.2527 72.5216 38.1494 74.0995 30.9982 74.0995C23.8471 74.0995 17.7473 72.5216 16.3019 72.1091C14.8565 71.6965 13.9018 71.3995 13.676 70.0697C13.4505 68.7414 13.6755 52.4564 16.2927 27.321" stroke="#1E1E1E" stroke-width="0.6" stroke-linecap="round"/>
</svg>
