<svg width="63" height="129" viewBox="0 0 63 129" fill="none" xmlns="http://www.w3.org/2000/svg">
<path d="M31.4082 64.2C24.257 64.2 17.5538 62.6221 16.1084 62.2095C14.663 61.797 14.1569 60.3402 14.0825 58.9701C14.0101 57.6369 14.8605 43.6826 14.9064 28.1753C17.4555 26.0057 17.9725 21.7462 17.8081 19.9343C17.6175 17.8326 17.0023 15.9001 16.348 14.855C15.9969 14.2942 15.9013 13.7049 16.0543 13.1298M31.4082 64.2C38.5594 64.2 45.2617 62.6221 46.7071 62.2095C48.1525 61.797 48.6586 60.3402 48.733 58.9701C48.8054 57.6371 47.9551 43.6853 47.9091 28.1798C45.3554 26.0117 44.8376 21.7474 45.002 19.9343C45.1927 17.8326 45.8078 15.9001 46.4621 14.855C46.8128 14.295 46.9086 13.7066 46.7565 13.1323M31.4082 64.2L31.407 18.4501M31.407 18.4501C31.4068 16.2001 29.907 14.7 28.407 13.2C26.907 11.7 24.807 10.5 23.007 10.2M31.407 18.4501C31.4072 16.2001 32.907 14.7 34.407 13.2C35.907 11.7 38.007 10.4999 39.807 10.2M31.407 18.4501C30.8288 17.8305 29.9791 17.2945 29.007 16.8359M31.407 18.4501C31.9853 17.8305 32.835 17.2945 33.807 16.8359M29.007 16.8359C28.407 19.3859 27.807 27.36 27.807 32.4M29.007 16.8359C26.4491 15.6289 23.0438 14.9565 21.507 14.7C20.0634 14.459 17.5269 14.2681 16.0543 13.1298M33.807 16.8359C34.407 19.3859 35.007 27.36 35.007 32.4M33.807 16.8359C36.365 15.6289 39.7702 14.9565 41.307 14.7C42.7496 14.4592 45.2835 14.2683 46.7565 13.1323M16.0543 13.1298C15.3637 12.5959 14.907 11.8536 14.907 10.8C14.907 7.5 18.807 5.1 21.507 4.2C24.207 3.3 26.8182 3 31.407 3C35.9959 3 38.607 3.29998 41.307 4.19998C44.007 5.09998 47.907 7.49998 47.907 10.8C47.907 11.8553 47.449 12.5982 46.7565 13.1323" stroke="#1E1E1E" stroke-width="0.6" stroke-linecap="round"/>
</svg>
