<svg width="63" height="84" viewBox="0 0 63 84" fill="none" xmlns="http://www.w3.org/2000/svg">
<path d="M22.6322 9.69224C24.7909 8.82458 27.9125 8.46631 31.3626 8.46631C34.8264 8.46631 37.9965 8.82742 40.1561 9.70257M22.6322 9.69224C23.0495 10.0518 23.4132 10.6296 23.8611 11.287C25.0284 13.0003 27.5007 15.3001 31.4018 15.3001C35.3029 15.3001 37.7718 13.0003 38.9391 11.287C39.3827 10.6359 39.7437 10.0628 40.1561 9.70257M22.6322 9.69224C22.0929 9.22761 21.4641 9.12767 20.4481 9.69224C20.2012 9.82947 19.4731 10.2364 18.7748 10.7103C18.0765 11.1841 17.3986 11.64 16.9976 12.0001C15.922 12.9662 15.1862 13.5284 16.3433 15.1551C17.5005 16.7818 18.3656 20.6255 18.4975 21.9001C18.6209 23.0921 19.1782 27.0143 16.6602 31.9584C16.4183 46.2273 15.2091 59.2368 15.2761 60.4702C15.3505 61.8403 15.2566 62.097 16.702 62.5096C18.1474 62.9222 24.2487 64.5001 31.3999 64.5001C38.5511 64.5001 44.6544 62.9222 46.0998 62.5096C47.5452 62.097 47.4512 61.8403 47.5256 60.4702C47.5926 59.2369 46.3838 46.2312 46.1416 31.9647C43.6199 27.0177 44.1776 23.0926 44.3011 21.9001C44.4331 20.6255 45.2981 16.7818 46.4553 15.1551C47.6124 13.5284 46.8767 12.9662 45.801 12.0001C45.4024 11.6421 44.5113 11.0745 43.8772 10.6236C43.2432 10.1727 42.2079 9.58829 41.8311 9.44711C41.1023 9.17405 40.5995 9.31517 40.1561 9.70257" stroke="#1E1E1E" stroke-width="0.6" stroke-linecap="round"/>
</svg>
