<svg width="63" height="84" viewBox="0 0 63 84" fill="none" xmlns="http://www.w3.org/2000/svg">
<path d="M17.1782 11.7661C16.1025 12.7322 14.7878 13.5283 15.9449 15.155C17.102 16.7817 17.9671 20.6254 18.0991 21.9C18.2224 23.0915 18.7793 27.0106 16.2653 31.9514C16.0204 46.1909 14.8108 59.2388 14.8777 60.4701C14.9521 61.8402 14.8581 62.097 16.3035 62.5095C17.7489 62.9221 23.8503 64.5 31.0015 64.5C38.1527 64.5 44.2559 62.9221 45.7013 62.5095C47.1467 62.097 47.0528 61.8402 47.1272 60.4701C47.1942 59.2368 45.9853 46.2311 45.7432 31.9646C43.2215 27.0176 43.7792 23.0925 43.9026 21.9C44.0346 20.6254 44.8997 16.7817 46.0568 15.155C47.214 13.5283 45.8773 12.6879 44.8016 11.7218C44.0413 11.1609 43.4689 10.9866 42.9557 11.7695M19.0219 11.7661C22.7709 10.6859 27.6841 10.3154 31.0025 10.3154C34.3243 10.3154 39.2052 10.6867 42.9557 11.7695M19.0219 11.7661C18.5093 10.9871 17.9374 11.1617 17.1782 11.7218M19.0219 11.7661C19.1167 11.9102 19.2095 12.0868 19.3011 12.2997C19.8877 13.6637 20.3936 15.1701 20.8011 16.4997C21.2085 17.8294 21.7013 17.9997 22.9013 17.9997C24.1013 17.9997 26.7786 17.3997 30.9786 17.3997C35.1786 17.3997 37.8786 17.9997 39.0786 17.9997C40.2786 17.9997 40.7713 17.8294 41.1788 16.4997C41.5863 15.1701 42.0922 13.6637 42.6788 12.2997C42.7696 12.0885 42.8617 11.9129 42.9557 11.7695" stroke="#1E1E1E" stroke-width="0.6" stroke-linecap="round"/>
</svg>
