<svg width="63" height="84" viewBox="0 0 63 84" fill="none" xmlns="http://www.w3.org/2000/svg">
<path d="M19.2226 11.7661C22.9716 10.6859 27.8848 10.3154 31.2032 10.3154C34.525 10.3154 39.4058 10.6867 43.1564 11.7695M19.2226 11.7661C18.71 10.9871 18.1381 11.1617 17.3789 11.7218C16.3032 12.6879 14.9885 13.5283 16.1456 15.155C17.3027 16.7817 18.1678 20.6254 18.2998 21.9C18.4311 23.1688 19.0541 27.5307 15.9369 32.9256C13.8469 54.8581 13.6709 68.8431 13.8792 70.0699C14.105 71.3997 15.0596 71.6967 16.505 72.1093C17.9504 72.5218 24.0502 74.0997 31.2014 74.0997C38.3526 74.0997 44.4558 72.5218 45.9012 72.1093C47.3466 71.6967 48.3013 71.3997 48.5271 70.0699C48.7354 68.8432 48.5594 54.8609 46.47 32.9321C43.3486 27.5342 43.9719 23.1693 44.1033 21.9C44.2353 20.6254 45.1004 16.7817 46.2575 15.155C47.4147 13.5283 46.078 12.6879 45.0023 11.7218C44.242 11.1609 43.6696 10.9866 43.1564 11.7695M19.2226 11.7661C19.3174 11.9102 19.4102 12.0868 19.5018 12.2997C20.0884 13.6637 20.5943 15.1701 21.0018 16.4997C21.4092 17.8294 21.902 17.9997 23.102 17.9997C24.302 17.9997 26.9793 17.3997 31.1793 17.3997C35.3793 17.3997 38.0793 17.9997 39.2793 17.9997C40.4793 17.9997 40.972 17.8294 41.3795 16.4997C41.787 15.1701 42.2929 13.6637 42.8795 12.2997C42.9703 12.0885 43.0624 11.9129 43.1564 11.7695" stroke="#1E1E1E" stroke-width="0.6" stroke-linecap="round"/>
</svg>
