<svg width="63" height="84" viewBox="0 0 63 84" fill="none" xmlns="http://www.w3.org/2000/svg">
<path d="M21.199 10.184C23.3576 9.13818 27.2052 8.46631 30.9638 8.46631C34.7225 8.46631 38.6544 9.13818 40.8131 10.184M21.199 10.184C22.4401 10.6804 23.4188 12.1812 24.4031 13.2004C26.061 14.9169 28.8595 17.7502 29.5046 18.199C30.1497 18.6478 30.4582 18.7504 31.0107 18.7504C31.5633 18.7504 31.8624 18.6478 32.5075 18.199C33.1526 17.7502 35.951 14.9169 37.609 13.2004C38.5933 12.1812 39.572 10.6804 40.8131 10.184M21.199 10.184C20.7631 10.0096 20.2948 9.95921 19.7826 10.0971C19.2967 10.2278 18.6463 10.5374 17.9522 10.9949C17.258 11.4524 16.8705 11.7571 16.5999 12.0001C15.5242 12.9662 14.7885 13.5284 15.9456 15.1551C17.1027 16.7818 17.9678 20.6255 18.0998 21.9001C18.223 23.0901 18.7786 27.0009 16.2754 31.9329C16.1222 44.008 15.4119 47.2471 15.4784 48.4702C15.5528 49.8403 15.4588 50.097 16.9042 50.5096L16.9204 50.5142C18.3902 50.9338 23.8773 52.5001 31.0022 52.5001C38.1289 52.5001 43.619 50.9329 45.0871 50.5139L45.102 50.5096C46.5474 50.097 46.4535 49.8403 46.5279 48.4702C46.5943 47.2473 45.8843 44.0091 45.7309 31.9392C43.2241 27.0042 43.7801 23.0906 43.9033 21.9001C44.0353 20.6255 44.9004 16.7818 46.0575 15.1551C47.2147 13.5284 46.4789 12.9662 45.4032 12.0001C45.1482 11.7711 44.3755 11.2304 43.8309 10.8941C43.2864 10.5577 42.7518 10.2489 42.28 10.1112C41.748 9.95604 41.2633 10.0039 40.8131 10.184" stroke="#1E1E1E" stroke-width="0.6" stroke-linecap="round"/>
</svg>
