<svg width="63" height="84" viewBox="0 0 63 84" fill="none" xmlns="http://www.w3.org/2000/svg">
<path d="M19.7621 10.917C20.959 13.2161 22.1529 24.166 22.109 26.4015M22.109 26.4015C21.2888 26.4601 20.5004 26.54 19.7621 26.6487C18.5315 26.8299 17.5041 27.0788 16.7019 27.3185C16.6935 43.2892 15.2019 59.1037 15.2761 60.4699C15.3505 61.84 15.2566 62.0968 16.702 62.5093C18.1474 62.9219 24.2487 64.4998 31.3999 64.4998C38.5511 64.4998 44.6544 62.9219 46.0998 62.5093C47.5452 62.0968 47.4512 61.84 47.5256 60.4699C47.5994 59.1122 46.1269 43.4871 46.1002 27.6192C45.2359 27.3078 43.889 26.9086 42.1241 26.6487C41.3858 26.54 40.5973 26.4601 39.7771 26.4015M22.109 26.4015C24.9104 26.2014 28.1936 26.2502 30.9991 26.2502C33.8045 26.2502 36.9757 26.2014 39.7771 26.4015M42.1241 10.917C40.9272 13.2161 39.7333 24.166 39.7771 26.4015" stroke="#1E1E1E" stroke-width="0.6" stroke-linecap="round"/>
</svg>
