<svg width="63" height="129" viewBox="0 0 63 129" fill="none" xmlns="http://www.w3.org/2000/svg">
<path d="M31.4047 74.1068C24.2535 74.1068 18.1508 72.5219 16.7054 72.1094C15.26 71.6968 13.7053 70.1998 13.4795 68.8699C13.2559 67.553 12.8868 52.7117 15.4295 27.9659C17.5221 25.6941 17.9549 21.9132 17.8027 20.2342C17.612 18.1325 16.9969 16.1999 16.3426 15.1549C15.6883 14.1099 15.9212 12.966 16.9969 11.9999C17.2518 11.7709 17.9065 11.2268 18.9803 10.6004C20.054 9.97403 20.699 9.85156 21.5329 10.1589M31.4047 74.1068C38.5559 74.1068 44.6579 72.5219 46.1033 72.1094C47.5487 71.6968 49.1034 70.1998 49.3292 68.8699C49.5527 67.5532 49.9218 52.7163 47.3804 27.9774C45.2785 25.7068 44.844 21.916 44.9966 20.2342C45.1872 18.1325 45.8024 16.1999 46.4567 15.1549C47.111 14.1099 46.8781 12.966 45.8024 11.9999C45.5474 11.7709 45.1568 11.504 44.2528 10.8659C43.3488 10.2278 42.1091 9.85117 41.2744 10.1601M31.4047 74.1068L31.4006 18.7506M31.4006 18.7506C30.848 18.7506 30.5489 18.6478 29.9038 18.199C29.2587 17.7502 26.4603 14.9169 24.8023 13.2004C23.8008 12.1634 22.8051 10.6277 21.5329 10.1589M31.4006 18.7506C31.9531 18.7506 32.2616 18.6478 32.9067 18.199C33.5518 17.7502 36.3502 14.9169 38.0082 13.2004C39.0088 12.1643 40.0037 10.6303 41.2744 10.1601M21.5329 10.1589C23.6915 9.11307 27.6419 8.46631 31.4006 8.46631C35.1592 8.46631 39.1158 9.11426 41.2744 10.1601" stroke="#1E1E1E" stroke-width="0.6" stroke-linecap="round"/>
</svg>
