<svg width="64" height="84" viewBox="0 0 64 84" fill="none" xmlns="http://www.w3.org/2000/svg">
<path d="M21.9935 10.184C24.1521 9.13818 27.9997 8.46631 31.7584 8.46631C35.517 8.46631 39.449 9.13818 41.6076 10.184M21.9935 10.184C23.2346 10.6804 24.2133 12.1812 25.1976 13.2004C26.8556 14.9169 29.654 17.7502 30.2991 18.199C30.9442 18.6478 31.2527 18.7504 31.8052 18.7504C32.3578 18.7504 32.6569 18.6478 33.302 18.199C33.9471 17.7502 36.7455 14.9169 38.4035 13.2004C39.3878 12.1812 40.3665 10.6804 41.6076 10.184M21.9935 10.184C21.4835 9.98002 20.9292 9.94564 20.312 10.184C19.9013 10.3426 19.1577 10.7784 18.7477 11.0641C18.3377 11.3499 17.6716 11.7511 17.3944 12.0001C16.3187 12.9662 15.583 13.5284 16.7401 15.1551C17.8973 16.7818 18.7623 20.6255 18.8943 21.9001C19.0257 23.169 19.6487 27.5316 16.5305 32.9273C14.4406 54.8589 14.2646 68.8432 14.4729 70.07C14.6987 71.3998 15.6534 71.6968 17.0988 72.1094C18.5442 72.5219 24.6439 74.0998 31.7951 74.0998C38.9463 74.0998 45.0496 72.5219 46.495 72.1094C47.9404 71.6968 48.895 71.3998 49.1208 70.07C49.3291 68.8432 49.1531 54.8603 47.0636 32.9306C43.9432 27.5334 44.5665 23.1693 44.6979 21.9001C44.8298 20.6255 45.6949 16.7818 46.8521 15.1551C48.0092 13.5284 47.2734 12.9662 46.1978 12.0001C45.9428 11.7711 45.3337 11.3204 44.8828 11.0527C44.4318 10.785 43.6999 10.3426 43.2891 10.184C42.6719 9.94564 42.1176 9.98002 41.6076 10.184" stroke="#1E1E1E" stroke-width="0.6" stroke-linecap="round"/>
</svg>
