<svg width="63" height="84" viewBox="0 0 63 84" fill="none" xmlns="http://www.w3.org/2000/svg">
<path d="M19.4546 11.7578C23.1997 10.684 28.0573 10.3154 31.3671 10.3154C34.6858 10.3154 39.5995 10.6859 43.3486 11.7664M19.4546 11.7578C18.6874 10.915 17.8077 10.5834 16.218 12.1399C15.1423 13.106 15.1916 13.5283 16.3487 15.155C17.5059 16.7817 18.3709 20.6254 18.5029 21.9C18.6343 23.1688 19.2572 27.5307 16.14 32.9256C14.05 54.8581 13.874 68.8431 14.0823 70.0699C14.3081 71.3997 15.2628 71.6967 16.7082 72.1093C18.1536 72.5218 24.2533 74.0997 31.4045 74.0997C38.5557 74.0997 44.6589 72.5218 46.1043 72.1093C47.5497 71.6967 48.5044 71.3997 48.7302 70.0699C48.9385 68.8432 48.7625 54.8609 46.6731 32.9321C43.5517 27.5342 44.1751 23.1693 44.3065 21.9C44.4384 20.6254 45.3035 16.7817 46.4607 15.155C47.6178 13.5283 47.6687 13.106 46.593 12.1399C44.9979 10.5782 44.1176 10.9172 43.3486 11.7664M19.4546 11.7578C19.7913 12.1277 20.1064 12.5961 20.4503 13.0466C21.5777 14.5235 23.9621 18.6003 31.4056 18.6003C38.8491 18.6003 41.2333 14.5235 42.3607 13.0466C42.7019 12.5996 43.0148 12.1349 43.3486 11.7664" stroke="#1E1E1E" stroke-width="0.6" stroke-linecap="round"/>
</svg>
