<svg width="63" height="84" viewBox="0 0 63 84" fill="none" xmlns="http://www.w3.org/2000/svg">
<path d="M22.4376 9.69224C24.5963 8.82458 27.7178 8.46631 31.168 8.46631C34.6318 8.46631 37.8019 8.82742 39.9615 9.70257M22.4376 9.69224C22.8549 10.0518 23.2186 10.6296 23.6664 11.287C24.8338 13.0003 27.306 15.3001 31.2071 15.3001C35.1082 15.3001 37.5771 13.0003 38.7445 11.287C39.1881 10.6359 39.5491 10.0628 39.9615 9.70257M22.4376 9.69224C21.9536 9.2753 21.3976 9.15203 20.5544 9.53907C20.2296 9.68818 19.5047 10.0773 18.8086 10.5277C18.1124 10.9782 17.1467 11.6914 16.803 12.0001C15.7273 12.9662 14.9916 13.5284 16.1487 15.1551C17.3059 16.7818 18.1709 20.6255 18.3029 21.9001C18.4262 23.0908 18.9824 27.0057 16.4739 31.9421C16.3978 37.262 16.2227 40.1877 16.2815 41.2702C16.3559 42.6403 16.262 42.8971 17.7074 43.3096C19.1528 43.7222 24.056 45.3001 31.2072 45.3001C38.3584 45.3001 43.2597 43.7222 44.7051 43.3096C46.1505 42.8971 46.0566 42.6403 46.131 41.2702C46.1898 40.1882 46.0149 37.2643 45.9387 31.9484C43.4265 27.0091 43.9831 23.0913 44.1065 21.9001C44.2384 20.6255 45.1035 16.7818 46.2607 15.1551C47.4178 13.5284 46.682 12.9662 45.6064 12.0001C45.221 11.654 44.3222 11.0466 43.467 10.4898C42.6118 9.93291 41.905 9.52726 41.4976 9.3992C40.8428 9.19337 40.3762 9.34027 39.9615 9.70257" stroke="#1E1E1E" stroke-width="0.6" stroke-linecap="round"/>
</svg>
