<svg width="63" height="84" viewBox="0 0 63 84" fill="none" xmlns="http://www.w3.org/2000/svg">
<path d="M21.4014 10.184C23.56 9.13818 27.4076 8.46631 31.1663 8.46631C34.9249 8.46631 38.8569 9.13818 41.0155 10.184M21.4014 10.184C22.6425 10.6804 23.6212 12.1812 24.6055 13.2004C26.2635 14.9169 29.0619 17.7502 29.707 18.199C30.3521 18.6478 30.6606 18.7504 31.2132 18.7504C31.7657 18.7504 32.0648 18.6478 32.7099 18.199C33.355 17.7502 36.1535 14.9169 37.8114 13.2004C38.7957 12.1812 39.7744 10.6804 41.0155 10.184M21.4014 10.184C20.9456 10.0017 20.4543 9.95485 19.9143 10.1172C19.4482 10.2574 18.7092 10.67 18.1173 11.0527C17.5255 11.4354 17.0573 11.7711 16.8023 12.0001C15.7266 12.9662 14.9909 13.5284 16.148 15.1551C17.3052 16.7818 18.1702 20.6255 18.3022 21.9001C18.4256 23.0921 18.9829 27.0143 16.4649 31.9584C16.223 46.2273 15.0138 59.2368 15.0808 60.4702C15.1552 61.8403 15.0613 62.097 16.5067 62.5096C17.9521 62.9222 24.0534 64.5001 31.2046 64.5001C38.3558 64.5001 44.4591 62.9222 45.9045 62.5096C47.3498 62.097 47.2559 61.8403 47.3303 60.4702C47.3973 59.2369 46.1885 46.2312 45.9463 31.9647C43.4246 27.0177 43.9823 23.0926 44.1058 21.9001C44.2378 20.6255 45.1028 16.7818 46.26 15.1551C47.4171 13.5284 46.6814 12.9662 45.6057 12.0001C45.3507 11.7711 44.7177 11.3304 44.2907 11.0527C43.8637 10.775 43.213 10.4115 42.8453 10.246C42.1682 9.94125 41.566 9.9638 41.0155 10.184" stroke="#1E1E1E" stroke-width="0.6" stroke-linecap="round"/>
</svg>
