<svg width="63" height="129" viewBox="0 0 63 129" fill="none" xmlns="http://www.w3.org/2000/svg">
<path d="M31.0016 52.4998C23.8504 52.4998 17.7491 50.9219 16.3037 50.5093C14.8583 50.0968 14.3522 48.64 14.2778 47.2699C14.2045 45.9201 15.0772 43.2793 15.1031 27.8848C17.1325 25.6051 17.5534 21.8933 17.4029 20.2341C17.2123 18.1324 16.5971 16.1999 15.9428 15.1548C15.2885 14.1098 15.5214 12.966 16.5971 11.9999C17.3567 11.3176 19.9044 9.69313 22.8021 8.66417C22.8116 8.3458 22.885 5.96256 22.9698 4.79961C23.0607 3.55192 23.701 2.69961 25.201 2.69961C26.2853 2.69961 28.9372 2.81717 31.0036 2.79735M31.0016 52.4998C38.1528 52.4998 44.2561 50.9219 45.7015 50.5093C47.1469 50.0968 47.6529 48.64 47.7273 47.2699C47.8006 45.9202 46.9281 43.28 46.9021 27.891C44.8679 25.6117 44.4462 21.8948 44.5968 20.2341C44.7874 18.1324 45.4026 16.1999 46.0569 15.1548C46.7112 14.1098 46.4783 12.966 45.4026 11.9999C44.5673 11.2497 41.5705 9.36047 38.3235 8.37618C38.2997 7.63074 38.2363 5.78082 38.1647 4.79961C38.0738 3.55192 36.901 2.69961 36.001 2.69961C36.001 2.69961 34.801 2.47461 33.001 2.69961C32.5022 2.76196 31.7959 2.78975 31.0036 2.79735M31.0016 52.4998C31.0016 30.1511 31.0036 25.0958 31.0036 2.79735" stroke="#1E1E1E" stroke-width="0.6" stroke-linecap="round"/>
</svg>
