<svg width="64" height="84" viewBox="0 0 64 84" fill="none" xmlns="http://www.w3.org/2000/svg">
<path d="M20.1559 10.917C21.3528 13.2161 22.5467 24.166 22.5029 26.4015M22.5029 26.4015C21.6827 26.4601 20.8943 26.54 20.1559 26.6487C18.9254 26.8299 17.8981 27.0788 17.0958 27.3185C17.0908 43.2218 16.1958 47.1037 16.27 48.4699C16.3444 49.84 16.2505 50.0968 17.6959 50.5093L17.712 50.5139C19.1818 50.9335 24.6689 52.4998 31.7938 52.4998C38.9205 52.4998 44.4106 50.9327 45.8787 50.5136L45.8936 50.5093C47.339 50.0968 47.2451 49.84 47.3195 48.4699C47.3932 47.1123 46.51 43.2708 46.4939 27.6192C45.6296 27.3077 44.2828 26.9086 42.5179 26.6487C41.7796 26.54 40.9912 26.4601 40.171 26.4015M22.5029 26.4015C25.3043 26.2014 28.5875 26.2502 31.393 26.2502C34.1984 26.2502 37.3696 26.2014 40.171 26.4015M42.5179 10.917C41.321 13.2161 40.1271 24.166 40.171 26.4015" stroke="#1E1E1E" stroke-width="0.6" stroke-linecap="round"/>
</svg>
