<svg width="63" height="84" viewBox="0 0 63 84" fill="none" xmlns="http://www.w3.org/2000/svg">
<path d="M22.2313 9.69224C24.39 8.82458 27.5116 8.46631 30.9617 8.46631C34.4255 8.46631 37.5956 8.82742 39.7552 9.70257M22.2313 9.69224C22.6486 10.0518 23.0123 10.6296 23.4602 11.287C24.6276 13.0003 27.0998 15.3001 31.0009 15.3001C34.902 15.3001 37.3709 13.0003 38.5383 11.287C38.9819 10.6359 39.3429 10.0628 39.7552 9.70257M22.2313 9.69224C21.692 9.22761 21.0632 9.12767 20.0473 9.69224C19.8003 9.82947 18.8106 10.4038 18.1113 10.8699C17.4121 11.3361 17.0173 11.6224 16.5968 12.0001C15.5211 12.9662 14.7853 13.5284 15.9425 15.1551C17.0996 16.7818 17.9647 20.6255 18.0967 21.9001C18.228 23.1689 18.8509 27.5308 15.7337 32.9257C13.6438 54.8582 13.4678 68.8432 13.676 70.07C13.9018 71.3998 14.8565 71.6968 16.3019 72.1094C17.7473 72.5219 23.8471 74.0998 30.9982 74.0998C38.1494 74.0998 44.2527 72.5219 45.6981 72.1094C47.1435 71.6968 48.0982 71.3998 48.324 70.07C48.5322 68.8433 48.3563 54.861 46.2669 32.9322C43.1454 27.5343 43.7688 23.1694 43.9002 21.9001C44.0322 20.6255 44.8973 16.7818 46.0544 15.1551C47.2115 13.5284 46.4758 12.9662 45.4001 12.0001C44.9825 11.625 44.1386 11.015 43.4911 10.5932C42.8437 10.1714 41.7006 9.52829 41.2937 9.39995C40.6377 9.19302 40.1704 9.33984 39.7552 9.70257" stroke="#1E1E1E" stroke-width="0.6" stroke-linecap="round"/>
</svg>
