<svg width="63" height="129" viewBox="0 0 63 129" fill="none" xmlns="http://www.w3.org/2000/svg">
<path d="M31.2094 74.1066C24.0582 74.1066 17.9554 72.5216 16.5101 72.1091C15.0647 71.6965 13.51 70.1995 13.2842 68.8697C13.0606 67.5528 12.6915 52.7114 15.2341 27.9656C17.3268 25.6938 17.7596 21.9129 17.6073 20.2339C17.4167 18.1322 16.8015 16.1996 16.1472 15.1546C15.7961 14.5938 15.7005 14.0046 15.8535 13.4296M31.2094 74.1066C38.3606 74.1066 44.4626 72.5216 45.908 72.1091C47.3534 71.6965 48.9081 70.1995 49.1339 68.8697C49.3574 67.553 49.7265 52.716 47.1851 27.9771C45.0832 25.7065 44.6487 21.9157 44.8013 20.2339C44.9919 18.1322 45.6071 16.1996 46.2614 15.1546C46.612 14.5946 46.7078 14.0063 46.5558 13.4321M31.2094 74.1066L31.2063 18.7502M31.2063 18.7502C31.206 16.5002 29.7063 14.9998 28.2063 13.4998C26.7063 11.9998 24.6063 10.7998 22.8063 10.4998M31.2063 18.7502C31.2065 16.5002 32.7062 14.9998 34.2062 13.4998C35.7062 11.9998 37.8062 10.7998 39.6063 10.4998M31.2063 18.7502C30.628 18.1306 29.7783 17.5944 28.8063 17.1357M31.2063 18.7502C31.7845 18.1306 32.6342 17.5944 33.6063 17.1357M28.8063 17.1357C28.2063 19.6857 27.6063 27.6598 27.6063 32.6998M28.8063 17.1357C26.2483 15.9287 22.843 15.2563 21.3063 14.9998C19.8626 14.7588 17.326 14.5679 15.8535 13.4296M33.6063 17.1357C34.2063 19.6857 34.8062 27.6598 34.8062 32.6998M33.6063 17.1357C36.1642 15.9287 39.5695 15.2563 41.1063 14.9998C42.5489 14.759 45.0827 14.5681 46.5558 13.4321M15.8535 13.4296C15.1628 12.8957 14.7063 12.1534 14.7063 11.0998C14.7063 7.79981 18.6062 5.3998 21.3063 4.4998C24.0063 3.5998 26.6174 3.2998 31.2063 3.2998C35.7951 3.2998 38.4063 3.59979 41.1063 4.49979C43.8063 5.39979 47.7063 7.79979 47.7063 11.0998C47.7063 12.155 47.2482 12.898 46.5558 13.4321" stroke="#1E1E1E" stroke-width="0.6" stroke-linecap="round"/>
</svg>
