<svg width="63" height="84" viewBox="0 0 63 84" fill="none" xmlns="http://www.w3.org/2000/svg">
<path d="M16.024 12.1399C14.9483 13.106 14.9961 13.5283 16.1532 15.155C17.3104 16.7817 18.1754 20.6254 18.3074 21.9C18.4306 23.09 18.9862 27.0008 16.483 31.9328C16.3298 44.0079 15.6196 47.247 15.686 48.4701C15.7604 49.8402 15.6665 50.097 17.1119 50.5095L17.128 50.5141C18.5978 50.9337 24.0849 52.5 31.2098 52.5C38.3365 52.5 43.8266 50.9328 45.2947 50.5138L45.3096 50.5095C46.755 50.097 46.6611 49.8402 46.7355 48.4701C46.8019 47.2472 46.0919 44.009 45.9385 31.9391C43.4317 27.0041 43.9877 23.0905 44.111 21.9C44.2429 20.6254 45.108 16.7817 46.2652 15.155C47.4223 13.5283 47.4732 13.106 46.3975 12.1399C44.8024 10.5782 43.9221 10.9172 43.1531 11.7664M19.2591 11.7578C23.0042 10.684 27.8618 10.3154 31.1716 10.3154C34.4903 10.3154 39.404 10.6859 43.1531 11.7664M19.2591 11.7578C18.4919 10.915 17.6122 10.5834 16.0225 12.1399M19.2591 11.7578C19.5958 12.1277 19.9109 12.5961 20.2548 13.0466C21.3822 14.5235 23.7665 18.6003 31.2101 18.6003C38.6536 18.6003 41.0378 14.5235 42.1652 13.0466C42.5064 12.5996 42.8192 12.1349 43.1531 11.7664" stroke="#1E1E1E" stroke-width="0.6" stroke-linecap="round"/>
</svg>
