<svg width="64" height="84" viewBox="0 0 64 84" fill="none" xmlns="http://www.w3.org/2000/svg">
<path d="M23.0313 9.69224C25.19 8.82458 28.3116 8.46631 31.7617 8.46631C35.2255 8.46631 38.3956 8.82742 40.5552 9.70257M23.0313 9.69224C23.4486 10.0518 23.8123 10.6296 24.2602 11.287C25.4276 13.0003 27.8998 15.3001 31.8009 15.3001C35.702 15.3001 38.1709 13.0003 39.3383 11.287C39.7819 10.6359 40.1429 10.0628 40.5552 9.70257M23.0313 9.69224C22.6006 9.32114 22.1127 9.18268 21.4161 9.42964C21.0286 9.56703 20.2068 10.061 19.5193 10.4665C18.8318 10.8719 17.7945 11.6429 17.3968 12.0001C16.3211 12.9662 15.5853 13.5284 16.7425 15.1551C17.8996 16.7818 18.7647 20.6255 18.8967 21.9001C19.0199 23.0901 19.5755 27.0009 17.0723 31.9329C16.9191 44.008 16.2088 47.2471 16.2752 48.4702C16.3497 49.8403 16.2557 50.097 17.7011 50.5096L17.7172 50.5142C19.187 50.9338 24.6742 52.5001 31.799 52.5001C38.9258 52.5001 44.4159 50.9329 45.8839 50.5139L45.8989 50.5096C47.3443 50.097 47.2503 49.8403 47.3248 48.4702C47.3912 47.2473 46.6812 44.0091 46.5278 31.9392C44.0209 27.0042 44.577 23.0906 44.7002 21.9001C44.8322 20.6255 45.6973 16.7818 46.8544 15.1551C48.0115 13.5284 47.2758 12.9662 46.2001 12.0001C45.7994 11.6402 44.8343 10.9072 44.0234 10.4488C43.2124 9.99047 42.4244 9.48696 41.9972 9.37168C41.3913 9.20816 40.9498 9.35788 40.5552 9.70257" stroke="#1E1E1E" stroke-width="0.6" stroke-linecap="round"/>
</svg>
