<svg width="63" height="129" viewBox="0 0 63 129" fill="none" xmlns="http://www.w3.org/2000/svg">
<path d="M31.002 64.5001C23.8508 64.5001 17.1475 62.9222 15.7021 62.5096C14.2567 62.0971 13.7507 60.6403 13.6762 59.2702C13.6038 57.937 14.4543 43.9827 14.5002 28.4754C17.0492 26.3058 17.5662 22.0463 17.4019 20.2344C17.2113 18.1327 16.5961 16.2001 15.9418 15.1551C15.2875 14.1101 15.5204 12.9663 16.5961 12.0001C16.9724 11.6621 17.7407 11.068 19.1113 10.089C20.4819 9.10996 21.5625 9.11467 22.2329 9.69224M31.002 64.5001C38.1531 64.5001 44.8555 62.9222 46.3008 62.5096C47.7462 62.0971 48.2523 60.6403 48.3267 59.2702C48.3991 57.9372 47.5489 43.9854 47.5028 28.4799C44.9492 26.3118 44.4313 22.0475 44.5958 20.2344C44.7864 18.1327 45.4016 16.2001 46.0559 15.1551C46.7102 14.1101 46.4773 12.9663 45.4016 12.0001C45.0171 11.6549 43.7618 10.7738 42.7664 10.226C41.771 9.67824 40.4295 9.11488 39.7568 9.70257M31.002 64.5001L31.0025 15.3M31.0025 15.3C27.1014 15.3 24.6291 13.0003 23.4617 11.287C23.0139 10.6296 22.6502 10.0518 22.2329 9.69224M31.0025 15.3C34.9035 15.3 37.3724 13.0003 38.5398 11.287C38.9834 10.6359 39.3444 10.0628 39.7568 9.70257M22.2329 9.69224C24.3916 8.82458 27.5132 8.46631 30.9633 8.46631C34.4271 8.46631 37.5972 8.82742 39.7568 9.70257" stroke="#1E1E1E" stroke-width="0.6" stroke-linecap="round"/>
</svg>
