<svg width="63" height="129" viewBox="0 0 63 129" fill="none" xmlns="http://www.w3.org/2000/svg">
<path d="M15.1032 26.9998C15.7028 28.7998 16.9039 31.7998 16.9039 33.2998C16.9039 34.7998 12.1727 52.3203 12.4026 53.6998C12.7026 55.4998 14.8032 58.7998 15.1032 60.5998C15.1872 61.1037 14.7534 62.4902 14.3263 63.9121M46.9009 26.9998C46.3014 28.7998 45.1002 31.7998 45.1002 33.2998C45.1002 34.7998 49.8314 52.3203 49.6015 53.6998C49.3015 55.4998 47.2009 58.7998 46.9009 60.5998C46.9009 60.5998 47.2518 62.4934 47.6793 63.9171M31.0039 71.0218C37.3379 71.8472 44.0892 72.2055 44.5012 71.9998C45.1022 71.6998 48.1009 68.6998 48.4009 67.4998C48.5533 66.8905 48.1202 65.3854 47.6793 63.9171M31.0039 71.0218L31.0037 63.5997M31.0039 71.0218C24.67 71.8472 17.9149 72.2055 17.5029 71.9998C16.902 71.6998 13.9032 68.6998 13.6032 67.4998C13.4507 66.8899 13.8849 65.382 14.3263 63.9121M31.0039 71.0218C33.91 70.643 36.7275 70.1659 38.8029 69.5998M31.0021 63.5998L31.0037 63.5997M31.0037 63.5997C34.5382 63.3742 42.4021 61.4995 42.4021 59.3998C42.4021 58.4998 40.6021 58.1998 38.8021 58.4998M31.0037 63.5997L31.0021 2.79736M47.6793 63.9171C47.872 64.0373 48.1117 64.1272 48.4016 64.1997C49.6016 64.4997 55.9016 63.8997 56.8016 63.5997C57.7016 63.2997 58.5968 62.5121 58.2992 61.4997C58.0016 60.4873 58.0026 60.5994 57.7021 59.3996C57.4016 58.1997 59.5022 50.6997 60.1022 48.2997C60.7022 45.8997 57.1034 40.7997 56.8016 38.0997C56.4998 35.3997 56.2016 23.9997 54.6992 21.5997C53.1969 19.1997 51.1026 16.7997 48.1021 14.6997C45.6379 12.9751 42.7678 11.2504 38.3325 9.35963C38.3325 9.35963 38.2547 6.0473 38.1637 4.79961C38.0728 3.55192 36.9 2.69961 36 2.69961C36 2.69961 34.8 2.47461 33 2.69961C32.501 2.76198 31.7946 2.78977 31.0021 2.79736M14.3263 63.9121C14.1323 64.0348 13.89 64.1262 13.5961 64.1997C12.3961 64.4997 6.09609 63.8997 5.19609 63.5997C4.29609 63.2997 3.40086 62.5121 3.69844 61.4997C3.99602 60.4873 3.99504 60.5994 4.29557 59.3996C4.59609 58.1997 2.49546 50.6997 1.89546 48.2997C1.29546 45.8997 4.89428 40.7997 5.19609 38.0997C5.49789 35.3997 5.79609 23.9997 7.29844 21.5997C8.80079 19.1997 10.895 16.7997 13.8956 14.6997C16.1957 13.0899 18.8496 11.48 22.8 9.73502C22.8 9.73502 22.8778 6.0473 22.9688 4.79961C23.0597 3.55192 23.7 2.69961 25.2 2.69961C26.2842 2.69961 28.9357 2.81715 31.0021 2.79736" stroke="#1E1E1E" stroke-width="0.6" stroke-linecap="round"/>
</svg>
