<svg width="63" height="129" viewBox="0 0 63 129" fill="none" xmlns="http://www.w3.org/2000/svg">
<path d="M15.3061 26.9998C15.9057 28.7998 17.1068 30.5998 17.1068 32.0998C17.1068 33.5998 12.9057 47.9998 12.304 49.7998C11.7023 51.5998 13.8047 54.2998 14.4047 55.1998C15.0047 56.0998 13.2052 58.7998 13.8047 59.6998C14.1565 60.2279 14.6114 60.9626 15.0487 61.5402M47.104 26.9998C46.5044 28.7998 45.3032 30.5998 45.3032 32.0998C45.3032 33.5998 49.5043 47.9998 50.1061 49.7998C50.7078 51.5998 48.6054 54.2998 48.0054 55.1998C47.4054 56.0998 49.2049 58.7998 48.6054 59.6998C48.2515 60.2311 47.7933 60.9714 47.3536 61.5505M31.205 53.8123C34.7387 53.5873 42.605 51.7123 42.605 49.6123C42.605 48.7123 40.805 48.4123 39.005 48.7123M31.205 53.8123V61.3701M31.205 53.8123V2.79736M31.205 61.3701C38.1776 62.2322 46.0854 62.6097 46.5059 62.3998C46.7521 62.2769 47.0484 61.9525 47.3536 61.5505M31.205 61.3701C24.2325 62.2322 16.3246 62.6097 15.9042 62.3998C15.6559 62.2758 15.3566 61.947 15.0487 61.5402M31.205 61.3701C34.1986 61 37.0198 60.5405 39.002 59.9998M31.205 2.79736C29.1387 2.81714 26.4873 2.69961 25.4031 2.69961C23.9031 2.69961 23.2629 3.55192 23.1719 4.79961C23.0809 6.0473 23.0031 9.73502 23.0031 9.73502C19.0527 11.48 16.3989 13.0899 14.0987 14.6997C11.0982 16.7997 9.00391 19.1997 7.50156 21.5997C5.99921 23.9997 5.70102 35.3997 5.39921 38.0997C5.0974 40.7997 1.49859 45.8997 2.09859 48.2997C2.69859 50.6997 4.79921 58.1997 4.49869 59.3996C4.19817 60.5994 4.19914 60.4873 3.90156 61.4997C3.60398 62.5121 4.49921 63.2997 5.39921 63.5997C6.29921 63.8997 12.5992 64.4997 13.7992 64.1997C14.9902 63.902 15.3345 63.3087 15.0487 61.5402M31.205 2.79736C31.9976 2.78977 32.7041 2.76198 33.2031 2.69961C35.0031 2.47461 36.2031 2.69961 36.2031 2.69961C37.1031 2.69961 38.2759 3.55192 38.3669 4.79961C38.4578 6.0473 38.5356 9.35963 38.5356 9.35963C42.9709 11.2504 45.841 12.9751 48.3052 14.6997C51.3057 16.7997 53.4 19.1997 54.9023 21.5997C56.4047 23.9997 56.7029 35.3997 57.0047 38.0997C57.3065 40.7997 60.9053 45.8997 60.3053 48.2997C59.7053 50.6997 57.6047 58.1997 57.9052 59.3996C58.2057 60.5994 58.2048 60.4873 58.5023 61.4997C58.7999 62.5121 57.9047 63.2997 57.0047 63.5997C56.1047 63.8997 49.8047 64.4997 48.6047 64.1997C47.4161 63.9026 47.0707 63.311 47.3536 61.5505" stroke="#1E1E1E" stroke-width="0.6" stroke-linecap="round"/>
</svg>
