<svg width="63" height="129" viewBox="0 0 63 129" fill="none" xmlns="http://www.w3.org/2000/svg">
<path d="M16.5022 26.9998C16.5022 26.9998 17.4035 29.0998 17.4035 29.6998C17.4035 30.2998 15.0023 38.3998 15.0023 39.8998C15.0023 41.3998 16.8023 44.0998 16.8023 44.9998C16.8023 45.8998 15.9023 47.0998 16.2023 47.9998C16.5023 48.8998 17.4035 50.3998 17.4035 50.3998C17.4302 50.4131 17.4841 50.4253 17.5632 50.4361M45.9051 26.9998C45.9051 26.9998 45.0037 29.0998 45.0037 29.6998C45.0037 30.2998 47.4049 38.3998 47.4049 39.8998C47.4049 41.3998 45.6049 44.0998 45.6049 44.9998C45.6049 45.8998 46.5049 47.0998 46.2049 47.9998C45.9049 48.8998 45.0037 50.3998 45.0037 50.3998C44.9767 50.4133 44.9217 50.4256 44.8408 50.4366M31.2049 49.8739L31.2047 43.0122M31.2049 49.8739C34.1264 49.577 36.9444 49.1614 39.0032 48.5998M31.2049 49.8739C25.1779 50.4864 18.7109 50.5938 17.5632 50.4361M31.2049 49.8739C37.2255 50.4856 43.6843 50.5935 44.8408 50.4366M31.2036 43.0123L31.2047 43.0122M31.2047 43.0122C34.7389 42.7869 42.6036 40.9121 42.6036 38.8123C42.6036 37.9123 40.8036 37.6123 39.0036 37.9123M31.2047 43.0122L31.2039 18.7497M31.2039 18.7497C31.2037 16.4998 29.7039 14.9998 28.2039 13.4998C26.7039 11.9998 24.6039 10.7998 22.8039 10.4998M31.2039 18.7497C31.2041 16.4998 32.7039 14.9998 34.2039 13.4998C35.7039 11.9998 37.8039 10.7998 39.6039 10.4998M31.2039 18.7497C31.7616 18.1522 32.5717 17.6326 33.5005 17.185M31.2039 18.7497C30.6462 18.1522 29.8361 17.6326 28.9073 17.185M28.9073 17.185C28.3073 19.735 27.6039 27.6598 27.6039 32.6998M28.9073 17.185C26.3385 15.947 22.8615 15.2598 21.3039 14.9998C19.8823 14.7625 17.4008 14.5737 15.9193 13.481M33.5005 17.185C34.1005 19.735 34.8039 27.6598 34.8039 32.6998M33.5005 17.185C36.0693 15.947 39.5463 15.2598 41.1039 14.9998C42.525 14.7626 45.005 14.5739 46.4867 13.4824M17.5632 50.4361C17.0991 52.7721 15.5275 55.8184 14.0987 58.1997C14.3985 59.3996 14.7444 59.6997 15.0421 61.4997C15.3397 63.2997 14.9992 63.8997 13.7992 64.1997C12.5992 64.4997 6.29921 63.8997 5.39921 63.5997C4.49921 63.2997 3.60398 62.5121 3.90156 61.4997C4.19914 60.4873 4.19817 60.5994 4.49869 59.3996C4.79921 58.1997 2.69859 50.6997 2.09859 48.2997C1.49859 45.8997 5.0974 40.7997 5.39921 38.0997C5.70102 35.3997 5.99921 23.9997 7.50156 21.5997C9.00391 19.1997 11.0982 16.7997 14.0987 14.6997C14.6781 14.2942 15.2799 13.8887 15.9193 13.481M44.8408 50.4366C45.305 52.7725 46.8765 55.8185 48.3052 58.1997C48.0054 59.3996 47.6595 59.6997 47.3619 61.4997C47.0642 63.2997 47.4047 63.8997 48.6047 64.1997C49.8047 64.4997 56.1047 63.8997 57.0047 63.5997C57.9047 63.2997 58.7999 62.5121 58.5023 61.4997C58.2048 60.4873 58.2057 60.5994 57.9052 59.3996C57.6047 58.1997 59.7053 50.6997 60.3053 48.2997C60.9053 45.8997 57.3065 40.7997 57.0047 38.0997C56.7029 35.3997 56.4047 23.9997 54.9023 21.5997C53.4 19.1997 51.3057 16.7997 48.3052 14.6997C47.7264 14.2946 47.1253 13.8896 46.4867 13.4824M46.4867 13.4824C47.2163 12.9449 47.7039 12.1886 47.7039 11.0998C47.7039 7.79979 43.8039 5.39979 41.1039 4.49979C38.4039 3.59979 35.7927 3.2998 31.2039 3.2998C26.6151 3.2998 24.0039 3.5998 21.3039 4.4998C18.6039 5.3998 14.7039 7.7998 14.7039 11.0998C14.7039 12.1877 15.1907 12.9437 15.9193 13.481" stroke="#1E1E1E" stroke-width="0.6" stroke-linecap="round"/>
</svg>
