<svg width="63" height="129" viewBox="0 0 63 129" fill="none" xmlns="http://www.w3.org/2000/svg">
<path d="M15.103 26.9998C15.7026 28.7998 16.9037 30.5998 16.9037 32.0998C16.9037 33.5998 12.7026 47.9998 12.1009 49.7998C11.4992 51.5998 13.6016 54.2998 14.2016 55.1998C14.8016 56.0998 13.0021 58.7998 13.6016 59.6998C13.9533 60.2279 14.4082 60.9626 14.8455 61.5402M46.9008 26.9998C46.3013 28.7998 45.1001 30.5998 45.1001 32.0998C45.1001 33.5998 49.3012 47.9998 49.9029 49.7998C50.5047 51.5998 48.4023 54.2998 47.8023 55.1998C47.2023 56.0998 49.0018 58.7998 48.4023 59.6998C48.0484 60.2311 47.5901 60.9714 47.1504 61.5505M31.0019 53.8123C34.5356 53.5873 42.4019 51.7123 42.4019 49.6123C42.4019 48.7123 40.6019 48.4123 38.8019 48.7123M31.0019 53.8123V61.3701M31.0019 53.8123L31.0008 18.7497M31.0019 61.3701C37.9745 62.2322 45.8823 62.6097 46.3028 62.3998C46.549 62.2769 46.8453 61.9525 47.1504 61.5505M31.0019 61.3701C24.0294 62.2322 16.1215 62.6097 15.7011 62.3998C15.4527 62.2758 15.1535 61.947 14.8455 61.5402M31.0019 61.3701C33.9955 61 36.8166 60.5405 38.7988 59.9998M31.0008 18.7497C31.0006 16.4998 29.5008 14.9998 28.0008 13.4998C26.5008 11.9998 24.4008 10.7998 22.6008 10.4998M31.0008 18.7497C31.001 16.4998 32.5008 14.9998 34.0008 13.4998C35.5008 11.9998 37.6008 10.7998 39.4008 10.4998M31.0008 18.7497C31.5585 18.1522 32.3686 17.6326 33.2974 17.185M31.0008 18.7497C30.4431 18.1522 29.633 17.6326 28.7042 17.185M28.7042 17.185C28.1042 19.735 27.4008 27.6598 27.4008 32.6998M28.7042 17.185C26.1354 15.947 22.6584 15.2598 21.1008 14.9998C19.6791 14.7625 17.1977 14.5737 15.7162 13.481M33.2974 17.185C33.8974 19.735 34.6008 27.6598 34.6008 32.6998M33.2974 17.185C35.8662 15.947 39.3432 15.2598 40.9008 14.9998C42.3199 14.7629 44.795 14.5744 46.2775 13.4868M14.8455 61.5402C15.1314 63.3087 14.7871 63.902 13.5961 64.1997C12.3961 64.4997 6.09609 63.8997 5.19609 63.5997C4.29609 63.2997 3.40086 62.5121 3.69844 61.4997C3.99602 60.4873 3.99504 60.5994 4.29557 59.3996C4.59609 58.1997 2.49546 50.6997 1.89546 48.2997C1.29546 45.8997 4.89428 40.7997 5.19609 38.0997C5.49789 35.3997 5.79609 23.9997 7.29844 21.5997C8.80079 19.1997 10.895 16.7997 13.8956 14.6997C14.475 14.2942 15.0768 13.8887 15.7162 13.481M47.1504 61.5505C46.8676 63.311 47.2129 63.9026 48.4016 64.1997C49.6016 64.4997 55.9016 63.8997 56.8016 63.5997C57.7016 63.2997 58.5968 62.5121 58.2992 61.4997C58.0016 60.4873 58.0026 60.5994 57.7021 59.3996C57.4016 58.1997 59.5022 50.6997 60.1022 48.2997C60.7022 45.8997 57.1034 40.7997 56.8016 38.0997C56.4998 35.3997 56.2016 23.9997 54.6992 21.5997C53.1969 19.1997 51.1026 16.7997 48.1021 14.6997C47.5316 14.3004 46.9059 13.8882 46.2775 13.4868M46.2775 13.4868C47.0105 12.9491 47.5008 12.1916 47.5008 11.0998C47.5008 7.79979 43.6008 5.39979 40.9008 4.49979C38.2008 3.59979 35.5896 3.2998 31.0008 3.2998C26.412 3.2998 23.8008 3.5998 21.1008 4.4998C18.4008 5.3998 14.5008 7.7998 14.5008 11.0998C14.5008 12.1877 14.9876 12.9437 15.7162 13.481" stroke="#1E1E1E" stroke-width="0.6" stroke-linecap="round"/>
</svg>
