<svg width="64" height="129" viewBox="0 0 64 129" fill="none" xmlns="http://www.w3.org/2000/svg">
<path d="M15.9001 27.0001C16.4996 28.8001 17.7008 31.8001 17.7008 33.3001C17.7008 34.8001 12.9696 52.3206 13.1995 53.7001C13.4995 55.5001 15.6001 58.8001 15.9001 60.6001C15.984 61.104 15.5502 62.4905 15.1232 63.9124M47.6978 27.0001C47.0982 28.8001 45.8971 31.8001 45.8971 33.3001C45.8971 34.8001 50.6283 52.3206 50.3984 53.7001C50.0984 55.5001 47.9978 58.8001 47.6978 60.6001C47.6137 61.1046 48.0486 62.4937 48.4762 63.9174M31.8008 71.022C38.1347 71.8475 44.8861 72.2057 45.2981 72.0001C45.899 71.7001 48.8978 68.7001 49.1978 67.5001C49.3501 66.8908 48.9171 65.3857 48.4762 63.9174M31.8008 71.022L31.8006 63.6M31.8008 71.022C25.4669 71.8475 18.7118 72.2057 18.2998 72.0001C17.6988 71.7001 14.7001 68.7001 14.4001 67.5001C14.2476 66.8901 14.6818 65.3823 15.1232 63.9124M31.8008 71.022C34.7069 70.6433 37.5243 70.1662 39.5998 69.6001M31.7989 63.6001L31.8006 63.6M31.8006 63.6C35.3351 63.3745 43.1989 61.4998 43.1989 59.4001C43.1989 58.5001 41.3989 58.2001 39.5989 58.5001M31.8006 63.6L31.806 18.75M31.806 18.75C31.2535 18.75 30.945 18.6474 30.2999 18.1986C29.6548 17.7498 26.3669 14.5091 24.709 12.7925C23.6147 11.6595 22.2683 10.3238 21.2242 10.5866M31.806 18.75C32.3586 18.75 32.6577 18.6474 33.3028 18.1986C33.9479 17.7498 37.2358 14.5091 38.8937 12.7925C39.9611 11.6873 41.3527 10.5355 42.2826 10.5989M21.2242 10.5866C23.3829 9.54075 28.0005 8.46631 31.7592 8.46631C35.5178 8.46631 40.124 9.55308 42.2826 10.5989M21.2242 10.5866C20.1802 10.8493 19.4055 11.3657 18.5121 11.9732C17.6187 12.5807 15.9642 13.8099 14.6924 14.7C11.6919 16.8 9.59766 19.2 8.09531 21.6C6.59296 24 6.29477 35.4 5.99296 38.1C5.69115 40.8 2.09234 45.9 2.69234 48.3C3.29234 50.7 5.39296 58.2 5.09244 59.3999C4.79192 60.5997 4.79289 60.4876 4.49531 61.5C4.19773 62.5124 5.09296 63.3 5.99296 63.6C6.89296 63.9 13.193 64.5 14.393 64.2C14.6868 64.1265 14.9292 64.0351 15.1232 63.9124M42.2826 10.5989C43.2125 10.6623 43.5466 10.9501 44.8946 11.8713C46.2425 12.7925 47.736 13.8861 48.899 14.7C51.8995 16.8 53.9937 19.2 55.4961 21.6C56.9984 24 57.2966 35.4 57.5984 38.1C57.9003 40.8 61.4991 45.9 60.8991 48.3C60.2991 50.7 58.1984 58.2 58.499 59.3999C58.7995 60.5997 58.7985 60.4876 59.0961 61.5C59.3937 62.5124 58.4984 63.3 57.5984 63.6C56.6984 63.9 50.3985 64.5 49.1984 64.2C48.9086 64.1275 48.6688 64.0376 48.4762 63.9174" stroke="#1E1E1E" stroke-width="0.6" stroke-linecap="round"/>
</svg>
