<svg width="64" height="129" viewBox="0 0 64 129" fill="none" xmlns="http://www.w3.org/2000/svg">
<path d="M17.0959 26.9998C17.0959 26.9998 17.9973 29.0998 17.9973 29.6998C17.9973 30.2998 15.5961 38.3998 15.5961 39.8998C15.5961 41.3998 17.3961 44.0998 17.3961 44.9998C17.3961 45.8998 16.4961 47.0998 16.7961 47.9998C17.0961 48.8998 17.9973 50.3998 17.9973 50.3998C18.024 50.4131 18.0778 50.4253 18.1569 50.4361M46.4988 26.9998C46.4988 26.9998 45.5975 29.0998 45.5975 29.6998C45.5975 30.2998 47.9987 38.3998 47.9987 39.8998C47.9987 41.3998 46.1987 44.0998 46.1987 44.9998C46.1987 45.8998 47.0987 47.0998 46.7987 47.9998C46.4987 48.8998 45.5975 50.3998 45.5975 50.3998C45.5704 50.4133 45.5155 50.4256 45.4346 50.4366M31.7987 49.8739L31.7985 43.0122M31.7987 49.8739C34.7201 49.577 37.5382 49.1614 39.597 48.5998M31.7987 49.8739C37.8193 50.4856 44.2781 50.5935 45.4346 50.4366M31.7987 49.8739C25.7716 50.4864 19.3047 50.5938 18.1569 50.4361M31.7974 43.0123L31.7985 43.0122M31.7985 43.0122C35.3327 42.7869 43.1974 40.9121 43.1974 38.8123C43.1974 37.9123 41.3974 37.6123 39.5974 37.9123M31.7985 43.0122L31.7974 2.79737M31.7974 2.79737C29.7312 2.81709 27.0808 2.69961 25.9969 2.69961C24.4969 2.69961 23.8566 3.55192 23.7656 4.79961C23.6746 6.0473 23.5969 9.73502 23.5969 9.73502C19.6465 11.48 16.9926 13.0899 14.6924 14.6997C11.6919 16.7997 9.59766 19.1997 8.09531 21.5997C6.59296 23.9997 6.29477 35.3997 5.99296 38.0997C5.69115 40.7997 2.09234 45.8997 2.69234 48.2997C3.29234 50.6997 5.39296 58.1997 5.09244 59.3996C4.79192 60.5994 4.79289 60.4873 4.49531 61.4997C4.19773 62.5121 5.09296 63.2997 5.99296 63.5997C6.89296 63.8997 13.193 64.4997 14.393 64.1997C15.593 63.8997 15.9335 63.2997 15.6358 61.4997C15.3382 59.6997 14.9923 59.3996 14.6924 58.1997C16.1212 55.8184 17.6929 52.7721 18.1569 50.4361M31.7974 2.79737C32.5905 2.7898 33.2976 2.76202 33.7969 2.69961C35.5969 2.47461 36.7969 2.69961 36.7969 2.69961C37.6969 2.69961 38.8696 3.55192 38.9606 4.79961C39.0516 6.0473 39.1294 9.35963 39.1294 9.35963C43.5647 11.2504 46.4348 12.9751 48.899 14.6997C51.8995 16.7997 53.9937 19.1997 55.4961 21.5997C56.9984 23.9997 57.2966 35.3997 57.5984 38.0997C57.9003 40.7997 61.4991 45.8997 60.8991 48.2997C60.2991 50.6997 58.1984 58.1997 58.499 59.3996C58.7995 60.5994 58.7985 60.4873 59.0961 61.4997C59.3937 62.5121 58.4984 63.2997 57.5984 63.5997C56.6984 63.8997 50.3985 64.4997 49.1984 64.1997C47.9984 63.8997 47.658 63.2997 47.9556 61.4997C48.2533 59.6997 48.5991 59.3996 48.899 58.1997C47.4703 55.8185 45.8988 52.7725 45.4346 50.4366" stroke="#1E1E1E" stroke-width="0.6" stroke-linecap="round"/>
</svg>
