<svg width="63" height="129" viewBox="0 0 63 129" fill="none" xmlns="http://www.w3.org/2000/svg">
<path d="M15.5094 26.9998C16.109 28.7998 17.3102 31.7998 17.3102 33.2998C17.3102 34.7998 12.579 52.3203 12.8089 53.6998C13.1089 55.4998 15.2094 58.7998 15.5094 60.5998C15.5934 61.1037 15.1596 62.4902 14.7326 63.9121M47.3072 26.9998C46.7076 28.7998 45.5065 31.7998 45.5065 33.2998C45.5065 34.7998 50.2376 52.3203 50.0077 53.6998C49.7077 55.4998 47.6072 58.7998 47.3072 60.5998C47.2231 61.1043 47.658 62.4934 48.0855 63.9171M31.4102 71.0218C37.7441 71.8472 44.4955 72.2055 44.9074 71.9998C45.5084 71.6998 48.5072 68.6998 48.8072 67.4998C48.9595 66.8905 48.5265 65.3854 48.0855 63.9171M31.4102 71.0218L31.41 63.5997M31.4102 71.0218C25.0762 71.8472 18.3211 72.2055 17.9092 71.9998C17.3082 71.6998 14.3094 68.6998 14.0094 67.4998C13.8569 66.8899 14.2912 65.382 14.7326 63.9121M31.4102 71.0218C34.3163 70.643 37.1337 70.1659 39.2092 69.5998M31.4083 63.5998L31.41 63.5997M31.41 63.5997C34.9445 63.3742 42.8083 61.4995 42.8083 59.3998C42.8083 58.4998 41.0083 58.1998 39.2083 58.4998M31.41 63.5997L31.407 18.7502M31.407 18.7502C31.4068 16.5002 29.907 14.9998 28.407 13.4998C26.907 11.9998 24.807 10.7998 23.007 10.4998M31.407 18.7502C31.4072 16.5002 32.907 14.9998 34.407 13.4998C35.907 11.9998 38.007 10.7998 39.807 10.4998M31.407 18.7502C31.9647 18.1527 32.7748 17.6326 33.7036 17.185M31.407 18.7502C30.8494 18.1527 30.0393 17.6326 29.1104 17.185M29.1104 17.185C28.5104 19.735 27.807 27.6598 27.807 32.6998M29.1104 17.185C26.5416 15.947 23.0646 15.2598 21.507 14.9998C20.0854 14.7625 17.604 14.5737 16.1224 13.481M33.7036 17.185C34.3036 19.735 35.007 27.6598 35.007 32.6998M33.7036 17.185C36.2724 15.947 39.7494 15.2598 41.307 14.9998C42.7281 14.7626 45.2081 14.5739 46.6898 13.4823M14.7326 63.9121C14.5386 64.0348 14.2962 64.1262 14.0023 64.1997C12.8023 64.4997 6.50234 63.8997 5.60234 63.5997C4.70234 63.2997 3.80711 62.5121 4.10469 61.4997C4.40227 60.4873 4.40129 60.5994 4.70182 59.3996C5.00234 58.1997 2.90171 50.6997 2.30171 48.2997C1.70171 45.8997 5.30053 40.7997 5.60234 38.0997C5.90414 35.3997 6.20234 23.9997 7.70469 21.5997C9.20704 19.1997 11.3013 16.7997 14.3018 14.6997C14.8812 14.2942 15.4831 13.8887 16.1224 13.481M48.0855 63.9171C48.2782 64.0373 48.5179 64.1272 48.8078 64.1997C50.0078 64.4997 56.3078 63.8997 57.2078 63.5997C58.1078 63.2997 59.0031 62.5121 58.7055 61.4997C58.4079 60.4873 58.4089 60.5994 58.1083 59.3996C57.8078 58.1997 59.9084 50.6997 60.5084 48.2997C61.1084 45.8997 57.5096 40.7997 57.2078 38.0997C56.906 35.3997 56.6078 23.9997 55.1055 21.5997C53.6031 19.1997 51.5089 16.7997 48.5083 14.6997C47.9296 14.2946 47.3284 13.8896 46.6898 13.4823M16.1224 13.481C15.3938 12.9437 14.907 12.1877 14.907 11.0998C14.907 7.79981 18.807 5.3998 21.507 4.4998C24.207 3.5998 26.8182 3.2998 31.407 3.2998C35.9959 3.2998 38.607 3.59979 41.307 4.49979C44.007 5.39979 47.907 7.79979 47.907 11.0998C47.907 12.1886 47.4194 12.9449 46.6898 13.4823" stroke="#1E1E1E" stroke-width="0.6" stroke-linecap="round"/>
</svg>
