<svg width="63" height="129" viewBox="0 0 63 129" fill="none" xmlns="http://www.w3.org/2000/svg">
<path d="M15.5092 27.0001C16.1088 28.8001 17.31 30.6001 17.31 32.1001C17.31 33.6001 13.1089 48.0001 12.5071 49.8001C11.9054 51.6001 14.0078 54.3001 14.6078 55.2001C15.2078 56.1001 13.4083 58.8001 14.0078 59.7001C14.3596 60.2282 14.8145 60.9629 15.2518 61.5405M47.3071 27.0001C46.7075 28.8001 45.5064 30.6001 45.5064 32.1001C45.5064 33.6001 49.7075 48.0001 50.3092 49.8001C50.9109 51.6001 48.8085 54.3001 48.2085 55.2001C47.6085 56.1001 49.408 58.8001 48.8085 59.7001C48.4546 60.2314 47.9964 60.9717 47.5567 61.5508M31.4082 53.8126C34.9418 53.5876 42.8082 51.7126 42.8082 49.6126C42.8082 48.7126 41.0082 48.4126 39.2082 48.7126M31.4082 53.8126V61.3704M31.4082 53.8126L31.4154 18.7499M31.4082 61.3704C38.3807 62.2325 46.2886 62.61 46.709 62.4001C46.9552 62.2772 47.2515 61.9528 47.5567 61.5508M31.4082 61.3704C24.4356 62.2325 16.5278 62.61 16.1073 62.4001C15.859 62.2761 15.5598 61.9473 15.2518 61.5405M31.4082 61.3704C34.4017 61.0003 37.2229 60.5408 39.2051 60.0001M31.4154 18.7499C30.8629 18.7499 30.5543 18.6474 29.9092 18.1986C29.2641 17.7498 25.9763 14.5091 24.3183 12.7925C23.2241 11.6595 21.7798 10.5249 20.8336 10.5866M31.4154 18.7499C31.9679 18.7499 32.2671 18.6474 32.9122 18.1986C33.5573 17.7498 36.8452 14.5091 38.5031 12.7925C39.5705 11.6873 40.7306 10.4713 41.8919 10.5989M15.2452 61.5C15.2474 61.5136 15.2496 61.5271 15.2518 61.5405M20.8336 10.5866C22.9922 9.54075 27.6099 8.46631 31.3685 8.46631C35.1272 8.46631 39.7333 9.55308 41.8919 10.5989M20.8336 10.5866C19.8874 10.6483 18.943 11.2913 18.0262 11.9236C17.1093 12.5559 15.5736 13.8099 14.3018 14.7C11.3013 16.8 9.20704 19.2 7.70469 21.6C6.20234 24 5.90414 35.4 5.60234 38.1C5.30053 40.8 1.70171 45.9 2.30171 48.3C2.90171 50.7 5.00234 58.2 4.70182 59.3999C4.40129 60.5997 4.40227 60.4876 4.10469 61.5C3.80711 62.5124 4.70234 63.3 5.60234 63.6C6.50234 63.9 12.8023 64.5 14.0023 64.2C15.1933 63.9023 15.5376 63.309 15.2518 61.5405M41.8919 10.5989C43.0532 10.7265 43.7491 11.2853 45.0283 12.1883C46.3075 13.0913 47.4205 13.9387 48.5083 14.7C51.5089 16.8 53.6031 19.2 55.1055 21.6C56.6078 24 56.906 35.4 57.2078 38.1C57.5096 40.8 61.1084 45.9 60.5084 48.3C59.9084 50.7 57.8078 58.2 58.1083 59.3999C58.4089 60.5997 58.4079 60.4876 58.7055 61.5C59.0031 62.5124 58.1078 63.3 57.2078 63.6C56.3078 63.9 50.0078 64.5 48.8078 64.2C47.6192 63.9028 47.2739 63.3113 47.5567 61.5508" stroke="#1E1E1E" stroke-width="0.6" stroke-linecap="round"/>
</svg>
