<svg width="63" height="129" viewBox="0 0 63 129" fill="none" xmlns="http://www.w3.org/2000/svg">
<path d="M16.2991 27.0001C16.2991 27.0001 17.2004 29.1001 17.2004 29.7001C17.2004 30.3001 14.7992 38.4001 14.7992 39.9001C14.7992 41.4001 16.5992 44.1001 16.5992 45.0001C16.5992 45.9001 15.6992 47.1001 15.9992 48.0001C16.2992 48.9001 17.2004 50.4001 17.2004 50.4001C17.2271 50.4134 17.2809 50.4255 17.3601 50.4364M45.7019 27.0001C45.7019 27.0001 44.8006 29.1001 44.8006 29.7001C44.8006 30.3001 47.2018 38.4001 47.2018 39.9001C47.2018 41.4001 45.4018 44.1001 45.4018 45.0001C45.4018 45.9001 46.3018 47.1001 46.0018 48.0001C45.7018 48.9001 44.8006 50.4001 44.8006 50.4001C44.7735 50.4136 44.7186 50.4259 44.6377 50.4369M31.0018 49.8741L31.0016 43.0125M31.0018 49.8741C33.9232 49.5772 36.7413 49.1617 38.8001 48.6001M31.0018 49.8741C24.9748 50.4866 18.5078 50.5941 17.3601 50.4364M31.0018 49.8741C37.0224 50.4858 43.4812 50.5938 44.6377 50.4369M31.0005 43.0126L31.0016 43.0125M31.0016 43.0125C34.5358 42.7872 42.4005 40.9124 42.4005 38.8126C42.4005 37.9126 40.6005 37.6126 38.8005 37.9126M31.0016 43.0125L31.0092 18.75M31.0092 18.75C30.4566 18.75 30.1481 18.6474 29.503 18.1986C28.8579 17.7498 25.57 14.5091 23.9121 12.7925C22.8178 11.6595 21.3945 10.4236 20.4274 10.5866M31.0092 18.75C31.5617 18.75 31.8608 18.6474 32.5059 18.1986C33.151 17.7498 36.4389 14.5091 38.0968 12.7925C39.1643 11.6873 40.4592 10.5416 41.4857 10.5989M20.4274 10.5866C22.586 9.54075 27.2036 8.46631 30.9623 8.46631C34.7209 8.46631 39.3271 9.55308 41.4857 10.5989M20.4274 10.5866C19.4603 10.7496 18.8555 11.3175 17.9258 11.8539C16.996 12.3903 15.1673 13.8099 13.8956 14.7C10.895 16.8 8.80079 19.2 7.29844 21.6C5.79609 24 5.49789 35.4 5.19609 38.1C4.89428 40.8 1.29546 45.9 1.89546 48.3C2.49546 50.7 4.59609 58.2 4.29557 59.3999C3.99504 60.5997 3.99602 60.4876 3.69844 61.5C3.40086 62.5124 4.29609 63.3 5.19609 63.6C6.09609 63.9 12.3961 64.5 13.5961 64.2C14.7961 63.9 15.1366 63.3 14.8389 61.5C14.5413 59.7 14.1954 59.3999 13.8956 58.2C15.3243 55.8187 16.896 52.7724 17.3601 50.4364M41.4857 10.5989C42.5121 10.6562 43.1546 11.2221 44.3106 12.0073C45.4667 12.7925 46.9428 13.8887 48.1021 14.7C51.1026 16.8 53.1969 19.2 54.6992 21.6C56.2016 24 56.4998 35.4 56.8016 38.1C57.1034 40.8 60.7022 45.9 60.1022 48.3C59.5022 50.7 57.4016 58.2 57.7021 59.3999C58.0026 60.5997 58.0016 60.4876 58.2992 61.5C58.5968 62.5124 57.7016 63.3 56.8016 63.6C55.9016 63.9 49.6016 64.5 48.4016 64.2C47.2016 63.9 46.8611 63.3 47.1587 61.5C47.4564 59.7 47.8022 59.3999 48.1021 58.2C46.6734 55.8188 45.1019 52.7728 44.6377 50.4369" stroke="#1E1E1E" stroke-width="0.6" stroke-linecap="round"/>
</svg>
