<svg width="63" height="129" viewBox="0 0 63 129" fill="none" xmlns="http://www.w3.org/2000/svg">
<path d="M15.7008 27.0001C15.6499 32.0825 15.1974 39.4265 14.5005 42.6001C13.7648 45.9507 13.747 48.7631 13.9563 51.2219M46.3037 27.0001C46.3546 32.0825 46.2068 39.4265 46.9037 42.6001C47.6326 45.9196 47.6569 48.7108 47.4537 51.1532M33.2275 61.32C36.0901 62.155 44.8037 62.5534 45.7037 62.4767C46.4482 62.4133 47.1926 61.9919 47.5508 61.1689M33.2275 61.32C35.3261 60.9735 37.2675 60.5394 38.8005 60.0001M33.2275 61.32C32.5014 61.4399 31.7565 61.5492 31.0031 61.6488M31.0031 61.6488C24.4842 62.5108 17.3356 62.641 16.3008 62.5096C15.5769 62.4177 14.9531 62.2492 14.4942 61.9309M31.0031 61.6488L31.0013 18.75M31.0013 18.75C30.4488 18.75 30.1497 18.6474 29.5046 18.1986C28.8595 17.7498 25.5716 14.5091 23.9137 12.7925C22.8388 11.6796 21.7753 10.768 20.4985 10.5952M31.0013 18.75C31.5539 18.75 31.8624 18.6474 32.5075 18.1986C33.1526 17.7498 36.4405 14.5091 38.0984 12.7925C39.1254 11.7291 40.1421 10.8495 41.3445 10.6226M47.4537 51.1532C43.9081 50.5216 41.7038 46.0446 41.7038 41.5737M47.4537 51.1532C47.3224 52.7318 47.0961 54.1646 46.9036 55.5001C47.3925 56.9666 47.9386 59.4001 47.7212 60.6001C47.6836 60.8075 47.6256 60.997 47.5508 61.1689M13.9563 51.2219C17.8494 51.0134 20.3025 46.2901 20.3025 41.5737M13.9563 51.2219C14.0884 52.7733 14.3109 54.184 14.5006 55.5001C14.0329 56.9034 13.6008 58.8001 13.6659 60.3001C13.6996 61.0762 14.0022 61.5896 14.4942 61.9309M20.4985 10.5952C22.6571 9.54941 27.2052 8.46631 30.9638 8.46631C34.7225 8.46631 39.1859 9.57679 41.3445 10.6226M20.4985 10.5952C19.8058 10.5015 18.596 10.9606 17.8825 11.475C17.169 11.9894 16.2145 12.7448 15.3963 13.5001C11.4963 17.1001 8.82502 21.9398 7.89626 25.5001C6.09626 32.4001 6.69626 35.1 5.19626 41.4C4.62381 43.8042 4.29626 47.0999 3.99626 50.6999C3.69626 54.2999 3.97055 58.2057 4.29626 59.4C3.85819 60.1872 3.99624 61.2001 3.99624 62.1001C3.99624 63.0001 4.29611 63.6001 5.19611 63.9001C6.09611 64.2001 11.7961 64.5001 12.9961 64.2001C14.1961 63.9001 14.4961 63.3001 14.4961 62.1001C14.4961 62.0443 14.4954 61.9879 14.4942 61.9309M41.3445 10.6226C42.0831 10.4832 43.3345 10.9516 44.1871 11.5609C45.0397 12.1702 45.7952 12.7566 46.6006 13.5C50.5006 17.1 53.1719 21.9397 54.1006 25.5C55.9006 32.4 55.3006 35.0999 56.8006 41.3999C57.3731 43.8041 57.7006 47.0999 58.0006 50.6999C58.3006 54.2999 58.0263 58.2056 57.7006 59.3999C58.1387 60.1871 58.3008 61.2 58.3008 62.1C58.3008 63 57.7008 63.6 56.8008 63.9C55.9008 64.2 50.2008 64.5 49.0008 64.2C47.8008 63.9 47.5008 63.3 47.5008 62.1C47.5008 61.8048 47.5189 61.4915 47.5508 61.1689" stroke="#1E1E1E" stroke-width="0.6" stroke-linecap="round"/>
</svg>
