<svg width="63" height="129" viewBox="0 0 63 129" fill="none" xmlns="http://www.w3.org/2000/svg">
<path d="M30.9904 50.2725C35.9662 50.9829 40.5763 50.8733 42.317 50.5449C43.4785 50.3257 44.63 49.8985 45.3511 48.942M30.9904 50.2725L31.004 15.3001M30.9904 50.2725C26.0147 50.9829 21.4299 50.8733 19.6892 50.5449C18.5234 50.3249 17.3677 49.8953 16.6471 48.9314M30.9904 50.2725C33.3949 49.9292 35.8908 49.3944 38.2011 48.6002M31.004 15.3001C27.1029 15.3001 24.6307 13.0002 23.4633 11.2869C22.9481 10.5308 22.3855 10.0861 21.776 9.89109M31.004 15.3001C34.9051 15.3001 37.374 13.0002 38.5414 11.2869C39.0509 10.5391 39.6068 10.0958 40.2086 9.89758M45.8788 40.4287C41.8532 40.3971 39.3037 35.5817 39.3037 30.7735M45.8788 40.4287C46.3233 38.1917 46.5813 34.1824 45.2977 27.0317M45.8788 40.4287C45.6825 41.4162 45.4499 42.0583 45.2975 42.4728C46.4711 45.8118 46.2328 47.7725 45.3511 48.942M16.1274 40.4289C20.153 40.3972 22.7024 35.5819 22.7024 30.7737M16.1274 40.4289C15.6829 38.1919 15.4248 34.1826 16.7085 27.0317M16.1274 40.4289C16.3237 41.4163 16.5563 42.0583 16.7086 42.4728C15.5386 45.8017 15.7719 47.7607 16.6471 48.9314M21.776 9.89109C23.9389 8.87897 27.2996 8.46631 31.0023 8.46631C34.7044 8.46631 38.0468 8.88589 40.2086 9.89758M21.776 9.89109C21.0045 9.64427 19.6644 10.3144 18.6133 10.9751C17.5622 11.6358 16.5347 12.4492 15.3963 13.5001C11.4963 17.1001 8.82502 21.9398 7.89626 25.5001C6.09626 32.4001 6.69626 35.1 5.19626 41.4C4.62381 43.8042 4.29626 47.0999 3.99626 50.6999C3.69626 54.2999 3.97055 58.2057 4.29626 59.4C3.85819 60.1872 3.99624 61.2001 3.99624 62.1001C3.99624 63.0001 4.29611 63.6001 5.19611 63.9001C6.09611 64.2001 11.7961 64.5001 12.9961 64.2001C14.1961 63.9001 14.4961 63.3001 14.4961 62.1001C14.4961 60.9001 14.1961 59.4 13.8963 58.2001C15.498 55.5305 16.2255 52.4049 16.6471 48.9314M40.2086 9.89758C40.9856 9.64163 42.434 10.4834 43.3773 11.0295C44.3206 11.5757 45.5241 12.5063 46.6006 13.5C50.5006 17.1 53.1719 21.9397 54.1006 25.5C55.9006 32.4 55.3006 35.0999 56.8006 41.3999C57.3731 43.8041 57.7006 47.0999 58.0006 50.6999C58.3006 54.2999 58.0263 58.2056 57.7006 59.3999C58.1387 60.1871 58.3008 61.2 58.3008 62.1C58.3008 63 57.7008 63.6 56.8008 63.9C55.9008 64.2 50.2008 64.5 49.0008 64.2C47.8008 63.9 47.5008 63.3 47.5008 62.1C47.5008 60.9 47.8008 59.3999 48.1006 58.2C46.5006 55.5332 45.7729 52.4112 45.3511 48.942" stroke="#1E1E1E" stroke-width="0.6" stroke-linecap="round"/>
</svg>
