<svg width="63" height="129" viewBox="0 0 63 129" fill="none" xmlns="http://www.w3.org/2000/svg">
<path d="M14.9018 26.9998C14.851 32.0822 15.502 43.4998 14.3018 52.1998C13.7478 56.2149 13.7286 58.547 13.9166 60.2288M47.9013 26.9998C47.9521 32.0822 47.3011 43.4998 48.5014 52.1998C49.0553 56.2149 49.0746 58.547 48.8865 60.2288M31.4012 71.249C35.334 71.8751 44.6013 72.2189 46.1013 72.1093C47.6013 71.9998 48.6917 71.0998 48.7465 69.5998C48.8013 68.0998 48.3471 66.4373 47.9013 65.0998C47.9863 64.5099 48.096 63.9982 48.2129 63.5101M31.4012 71.249L31.4008 18.7497M31.4012 71.249C24.8831 72.1105 17.7366 72.2407 16.7019 72.1093C15.2019 71.9189 14.3019 71.3998 14.0761 70.0699C13.8503 68.74 14.422 66.5392 14.9018 65.0998C14.8161 64.505 14.7053 63.9898 14.5873 63.4981M31.4012 71.249C34.3329 70.8615 37.1376 70.326 39.2017 69.5998M13.9166 60.2288C17.9653 60.2288 20.7009 55.3975 20.7009 50.5734M13.9166 60.2288C14.0648 61.5539 14.3418 62.4753 14.5873 63.4981M48.8865 60.2288C44.8378 60.2288 42.1022 55.3975 42.1022 50.5734M48.8865 60.2288C48.7377 61.5591 48.4592 62.4825 48.2129 63.5101M31.4008 18.7497C31.4006 16.4998 29.9008 14.9998 28.4008 13.4998C26.9008 11.9998 24.8008 10.7998 23.0008 10.4998M31.4008 18.7497C31.401 16.4998 32.9008 14.9998 34.4008 13.4998C35.9008 11.9998 38.0008 10.7998 39.8008 10.4998M31.4008 18.7497C31.9673 18.1428 32.7943 17.6162 33.7416 17.1638M31.4008 18.7497C30.8351 18.1436 30.0096 17.6177 29.064 17.1657M29.064 17.1657C28.464 19.7157 27.8008 27.6598 27.8008 32.6998M29.064 17.1657C26.4992 15.9399 23.0503 15.2585 21.5008 14.9998C20.0258 14.7536 17.4101 14.5596 15.9538 13.3542M33.7416 17.1638C34.3416 19.7138 35.0008 27.6598 35.0008 32.6998M33.7416 17.1638C36.306 15.9391 39.7521 15.2583 41.3008 14.9998C42.7744 14.7538 45.3866 14.56 46.8437 13.3576M15.9538 13.3542C15.3162 12.8264 14.9008 12.1047 14.9008 11.0998C14.9008 7.7998 18.8008 5.3998 21.5008 4.4998C24.2008 3.5998 26.812 3.2998 31.4008 3.2998C35.9896 3.2998 38.6008 3.59979 41.3008 4.49979C44.0008 5.39979 47.9008 7.79979 47.9008 11.0998C47.9008 12.1068 47.4837 12.8295 46.8437 13.3576M15.9538 13.3542C15.9008 13.4023 15.8477 13.4508 15.7947 13.4998C11.8947 17.0998 9.22346 21.9395 8.2947 25.4998C6.4947 32.3998 7.09469 35.0997 5.59469 41.3997C5.02225 43.8039 4.69469 47.0997 4.39469 50.6997C4.09469 54.2997 4.36899 58.2054 4.6947 59.3997C4.25662 60.1869 4.39468 61.1998 4.39468 62.0998C4.39468 62.9998 4.69454 63.5998 5.59454 63.8998C6.49454 64.1998 12.1945 64.4998 13.3945 64.1998C13.9881 64.0514 14.3615 63.8296 14.5873 63.4981M46.8437 13.3576C46.8955 13.4045 46.9473 13.4519 46.9991 13.4997C50.8991 17.0997 53.5703 21.9394 54.4991 25.4997C56.2991 32.3997 55.6991 35.0996 57.1991 41.3996C57.7715 43.8038 58.0991 47.0996 58.3991 50.6996C58.6991 54.2996 58.4248 58.2053 58.0991 59.3996C58.5371 60.1868 58.6992 61.1997 58.6992 62.0997C58.6992 62.9997 58.0992 63.5997 57.1992 63.8997C56.2992 64.1997 50.5992 64.4997 49.3992 64.1997C48.7928 64.0481 48.4371 63.8537 48.2129 63.5101" stroke="#1E1E1E" stroke-width="0.6" stroke-linecap="round"/>
</svg>
