<svg width="63" height="129" viewBox="0 0 63 129" fill="none" xmlns="http://www.w3.org/2000/svg">
<path d="M15.9039 27C15.8531 32.0824 15.4005 39.4264 14.7037 42.6C13.9679 45.9506 13.9501 48.7631 14.1594 51.2218M46.5068 27C46.5577 32.0824 46.4099 39.4264 47.1068 42.6C47.8357 45.9195 47.86 48.7107 47.6568 51.1531M33.4306 61.3199C36.2933 62.1549 45.0068 62.5533 45.9068 62.4766C46.6513 62.4133 47.3957 61.9918 47.7539 61.1689M33.4306 61.3199C35.5292 60.9734 37.4706 60.5393 39.0036 60M33.4306 61.3199C32.7045 61.4398 31.9596 61.5491 31.2062 61.6488M31.2062 61.6488C24.6873 62.5107 17.5387 62.6409 16.5039 62.5095C15.781 62.4177 15.158 62.2496 14.6992 61.9321M31.2062 61.6488L31.2056 18.6M31.2056 18.6C23.7621 18.6 21.3777 14.5233 20.2503 13.0464C19.8167 12.4784 19.323 12.102 18.7901 11.8965M31.2056 18.6C38.6491 18.6 41.0333 14.5233 42.1607 13.0464C42.5897 12.4844 43.0777 12.1098 43.6042 11.903M47.6568 51.1531C44.1112 50.5215 41.9069 46.0445 41.9069 41.5736M47.6568 51.1531C47.5255 52.7317 47.2992 54.1645 47.1067 55.5C47.5956 56.9665 48.1418 59.4 47.9243 60.6C47.8867 60.8074 47.8287 60.9969 47.7539 61.1689M14.1594 51.2218C18.0525 51.0133 20.5056 46.29 20.5056 41.5736M14.1594 51.2218C14.2915 52.7732 14.5141 54.1839 14.7038 55.5C14.236 56.9033 13.8039 58.8 13.869 60.3C13.9028 61.0771 14.2061 61.5909 14.6992 61.9321M18.7901 11.8965C22.5901 10.7155 27.7187 10.3154 31.1671 10.3154C34.6219 10.3154 39.8021 10.717 43.6042 11.903M18.7901 11.8965C17.9372 11.5676 16.8975 12.2857 16.0609 13.0464C15.2242 13.8071 13.8027 15.2945 13.017 16.2638C10.5204 19.3437 8.80583 22.792 8.09938 25.5C6.29938 32.4 6.89938 35.0999 5.39938 41.3999C4.82693 43.8041 4.49938 47.0999 4.19938 50.6999C3.89938 54.2999 4.17367 58.2056 4.49938 59.3999C4.06131 60.1871 4.19937 61.2 4.19937 62.1C4.19937 63 4.49923 63.6 5.39923 63.9C6.29923 64.2 11.9992 64.5 13.1992 64.2C14.3992 63.9 14.6992 63.3 14.6992 62.1C14.6992 62.0273 14.7014 62.0069 14.6992 61.9321M43.6042 11.903C44.4613 11.5662 45.6995 12.6567 46.6983 13.5027C47.697 14.3487 48.7552 15.4629 49.5964 16.5262C51.9791 19.5383 53.6173 22.8686 54.3038 25.4999C56.1038 32.3999 55.5038 35.0998 57.0038 41.3998C57.5762 43.804 57.9038 47.0998 58.2038 50.6998C58.5038 54.2998 58.2295 58.2055 57.9038 59.3998C58.3418 60.187 58.5039 61.1999 58.5039 62.0999C58.5039 62.9999 57.9039 63.5999 57.0039 63.8999C56.1039 64.1999 50.4039 64.4999 49.2039 64.1999C48.0039 63.8999 47.7039 63.2999 47.7039 62.0999C47.7039 61.8047 47.7221 61.4914 47.7539 61.1689" stroke="#1E1E1E" stroke-width="0.6" stroke-linecap="round"/>
</svg>
