<svg width="64" height="129" viewBox="0 0 64 129" fill="none" xmlns="http://www.w3.org/2000/svg">
<path d="M16.4977 27.0001C16.4468 32.0825 15.9943 39.4265 15.2974 42.6001C14.5617 45.9507 14.5438 48.7632 14.7532 51.2219M47.1006 27.0001C47.1515 32.0825 47.0037 39.4265 47.7006 42.6001C48.4295 45.9196 48.4537 48.7108 48.2506 51.1532M34.0244 61.32C36.887 62.155 45.6006 62.5534 46.5006 62.4767C47.245 62.4134 47.9895 61.9919 48.3477 61.169M34.0244 61.32C36.123 60.9735 38.0644 60.5394 39.5974 60.0001M34.0244 61.32C33.2983 61.4399 32.5533 61.5492 31.8 61.6489M31.8 61.6489C25.2811 62.5108 18.1325 62.641 17.0977 62.5096C16.3737 62.4177 15.75 62.2492 15.2911 61.9309M31.8 61.6489L31.8009 15.2999M31.8009 15.2999C27.8998 15.2999 25.4276 13.0002 24.2602 11.2869C23.745 10.5308 23.1824 10.0861 22.5729 9.89109M31.8009 15.2999C35.702 15.2999 38.1709 13.0002 39.3383 11.2869C39.8478 10.5391 40.4037 10.0958 41.0055 9.89758M48.2506 51.1532C44.7049 50.5216 42.5006 46.0446 42.5006 41.5737M48.2506 51.1532C48.1193 52.7318 47.893 54.1646 47.7005 55.5001C48.1893 56.9666 48.7355 59.4001 48.5181 60.6001C48.4805 60.8075 48.4225 60.997 48.3477 61.169M14.7532 51.2219C18.6463 51.0134 21.0994 46.2901 21.0994 41.5737M14.7532 51.2219C14.8853 52.7733 15.1078 54.184 15.2975 55.5001C14.8297 56.9034 14.3977 58.8001 14.4628 60.3001C14.4965 61.0762 14.7991 61.5896 15.2911 61.9309M22.5729 9.89109C24.7358 8.87897 28.0965 8.46631 31.7992 8.46631C35.5013 8.46631 38.8437 8.88589 41.0055 9.89758M22.5729 9.89109C21.8014 9.64427 20.1718 10.4976 19.1165 11.1795C18.0612 11.8613 17.4379 12.3511 16.1931 13.5001C12.2931 17.1001 9.6219 21.9398 8.69313 25.5001C6.89313 32.4001 7.49313 35.1 5.99313 41.4C5.42068 43.8042 5.09313 47.1 4.79313 50.7C4.49313 54.3 4.76742 58.2057 5.09313 59.4C4.65506 60.1872 4.79312 61.2001 4.79312 62.1001C4.79312 63.0001 5.09298 63.6001 5.99298 63.9001C6.89298 64.2001 12.593 64.5001 13.793 64.2001C14.993 63.9001 15.293 63.3001 15.293 62.1001C15.293 62.0443 15.2923 61.9879 15.2911 61.9309M41.0055 9.89758C41.7824 9.64163 43.0656 10.3572 44.2018 11.0468C45.338 11.7364 46.3302 12.5148 47.3975 13.5C51.2975 17.1 53.9687 21.9397 54.8975 25.5C56.6975 32.4 56.0975 35.0999 57.5975 41.3999C58.17 43.8041 58.4975 47.0999 58.7975 50.6999C59.0975 54.2999 58.8232 58.2056 58.4975 59.3999C58.9356 60.1871 59.0977 61.2 59.0977 62.1C59.0977 63 58.4977 63.6 57.5977 63.9C56.6977 64.2 50.9977 64.5 49.7977 64.2C48.5977 63.9 48.2977 63.3 48.2977 62.1C48.2977 61.8048 48.3158 61.4915 48.3477 61.169" stroke="#1E1E1E" stroke-width="0.6" stroke-linecap="round"/>
</svg>
