<svg width="63" height="129" viewBox="0 0 63 129" fill="none" xmlns="http://www.w3.org/2000/svg">
<path d="M31.1935 50.2722C36.1693 50.9826 40.7794 50.873 42.5201 50.5446C43.6817 50.3255 44.8331 49.8982 45.5542 48.9418M31.1935 50.2722L31.2062 2.79736M31.1935 50.2722C26.2178 50.9826 21.633 50.873 19.8923 50.5446C18.7265 50.3246 17.5708 49.895 16.8502 48.9311M31.1935 50.2722C33.5981 49.9289 36.0939 49.3941 38.4042 48.5999M31.2062 2.79736C29.1399 2.81713 26.4888 2.69961 25.4047 2.69961C23.9047 2.69961 23.2644 3.55192 23.1734 4.79961C23.0825 6.0473 23.0047 9.06642 23.0047 9.06642C20.5886 9.87632 18.094 11.1971 15.5994 13.4998C11.6994 17.0998 9.02815 21.9395 8.09938 25.4998C6.29938 32.3998 6.89938 35.0997 5.39938 41.3997C4.82693 43.8039 4.49938 47.0997 4.19938 50.6997C3.89938 54.2997 4.17367 58.2054 4.49938 59.3997C4.06131 60.1869 4.19937 61.1998 4.19937 62.0998C4.19937 62.9998 4.49923 63.5998 5.39923 63.8998C6.29923 64.1998 11.9992 64.4998 13.1992 64.1998C14.3992 63.8998 14.6992 63.2998 14.6992 62.0998C14.6992 60.8998 14.3992 59.3997 14.0994 58.1998C15.7011 55.5302 16.4286 52.4046 16.8502 48.9311M31.2062 2.79736C31.9989 2.78978 32.7056 2.76199 33.2047 2.69961C35.0047 2.47461 36.2047 2.69961 36.2047 2.69961C37.1047 2.69961 38.2775 3.55192 38.3684 4.79961C38.4594 6.0473 38.5372 8.79747 38.5372 8.79747C41.2193 9.57505 44.0115 10.9223 46.8038 13.4997C50.7038 17.0997 53.375 21.9394 54.3038 25.4997C56.1038 32.3997 55.5038 35.0996 57.0038 41.3996C57.5762 43.8038 57.9038 47.0996 58.2038 50.6996C58.5038 54.2996 58.2295 58.2053 57.9038 59.3996C58.3418 60.1868 58.5039 61.1997 58.5039 62.0997C58.5039 62.9997 57.9039 63.5997 57.0039 63.8997C56.1039 64.1997 50.4039 64.4997 49.2039 64.1997C48.0039 63.8997 47.7039 63.2997 47.7039 62.0997C47.7039 60.8997 48.0039 59.3996 48.3038 58.1997C46.7037 55.5329 45.976 52.4109 45.5542 48.9418M46.0819 40.4284C42.0563 40.3968 39.5068 35.5814 39.5068 30.7732M46.0819 40.4284C46.5265 38.1914 46.7845 34.1821 45.5009 27.0314M46.0819 40.4284C45.8857 41.4159 45.6531 42.058 45.5007 42.4725C46.6742 45.8115 46.436 47.7723 45.5542 48.9418M16.3306 40.4286C20.3561 40.3969 22.9056 35.5816 22.9056 30.7734M16.3306 40.4286C15.886 38.1917 15.6279 34.1823 16.9116 27.0314M16.3306 40.4286C16.5268 41.416 16.7594 42.0581 16.9118 42.4725C15.7418 45.8014 15.975 47.7604 16.8502 48.9311" stroke="#1E1E1E" stroke-width="0.6" stroke-linecap="round"/>
</svg>
