<svg width="63" height="129" viewBox="0 0 63 129" fill="none" xmlns="http://www.w3.org/2000/svg">
<path d="M14.7065 26.9998C14.6557 32.0822 15.3067 43.4998 14.1064 52.1998C13.5525 56.2149 13.5333 58.547 13.7213 60.2288M47.706 26.9998C47.7568 32.0822 47.1058 43.4998 48.3061 52.1998C48.86 56.2149 48.8792 58.547 48.6912 60.2288M31.2059 71.249C35.1387 71.8751 44.406 72.2189 45.906 72.1093C47.406 71.9998 48.4964 71.0998 48.5512 69.5998C48.606 68.0998 48.1518 66.4373 47.706 65.0998C47.7911 64.509 47.901 63.9968 48.0181 63.5081M31.2059 71.249L31.2063 2.79736M31.2059 71.249C24.6878 72.1105 17.5413 72.2407 16.5066 72.1093C15.0066 71.9189 14.1065 71.3998 13.8807 70.0699C13.655 68.74 14.2267 66.5392 14.7065 65.0998C14.6208 64.505 14.51 63.9898 14.392 63.4981M31.2059 71.249C34.1376 70.8615 36.9423 70.326 39.0064 69.5998M13.7213 60.2288C17.77 60.2288 20.5056 55.3975 20.5056 50.5734M13.7213 60.2288C13.8695 61.5539 14.1465 62.4753 14.392 63.4981M48.6912 60.2288C44.6425 60.2288 41.9069 55.3975 41.9069 50.5734M48.6912 60.2288C48.5425 61.5582 48.2642 62.4813 48.0181 63.5081M31.2063 2.79736C29.1399 2.81713 26.4888 2.69961 25.4047 2.69961C23.9047 2.69961 23.2644 3.55192 23.1734 4.79961C23.0825 6.0473 23.0047 9.06642 23.0047 9.06642C20.5886 9.87632 18.094 11.1971 15.5994 13.4998C11.6994 17.0998 9.02815 21.9395 8.09938 25.4998C6.29938 32.3998 6.89938 35.0997 5.39938 41.3997C4.82693 43.8039 4.49938 47.0997 4.19938 50.6997C3.89938 54.2997 4.17367 58.2054 4.49938 59.3997C4.06131 60.1869 4.19937 61.1998 4.19937 62.0998C4.19937 62.9998 4.49923 63.5998 5.39923 63.8998C6.29923 64.1998 11.9992 64.4998 13.1992 64.1998C13.7928 64.0514 14.1662 63.8296 14.392 63.4981M31.2063 2.79736C31.999 2.78978 32.7056 2.76199 33.2047 2.69961C35.0047 2.47461 36.2047 2.69961 36.2047 2.69961C37.1047 2.69961 38.2775 3.55192 38.3684 4.79961C38.4594 6.0473 38.5372 8.79747 38.5372 8.79747C41.2193 9.57505 44.0115 10.9223 46.8038 13.4997C50.7038 17.0997 53.375 21.9394 54.3038 25.4997C56.1038 32.3997 55.5038 35.0996 57.0038 41.3996C57.5762 43.8038 57.9038 47.0996 58.2038 50.6996C58.5038 54.2996 58.2295 58.2053 57.9038 59.3996C58.3418 60.1868 58.5039 61.1997 58.5039 62.0997C58.5039 62.9997 57.9039 63.5997 57.0039 63.8997C56.1039 64.1997 50.4039 64.4997 49.2039 64.1997C48.6164 64.0528 48.2446 63.834 48.0181 63.5081" stroke="#1E1E1E" stroke-width="0.6" stroke-linecap="round"/>
</svg>
