<svg width="63" height="129" viewBox="0 0 63 129" fill="none" xmlns="http://www.w3.org/2000/svg">
<path d="M31.4016 43.1305C35.9628 43.8128 39.9051 43.6992 41.8995 43.4998C43.6401 43.3258 44.5968 42.5458 45.1379 41.4529M31.4016 43.1305V2.79736M31.4016 43.1305C26.853 43.8078 22.8936 43.6988 20.9037 43.4998C19.1542 43.3249 18.1967 42.5379 17.657 41.4362M31.4016 43.1305C33.7104 42.7866 36.1502 42.2432 38.6038 41.3998M31.4016 2.79736C29.3352 2.81713 26.6841 2.69961 25.6 2.69961C24.1 2.69961 23.4597 3.55192 23.3688 4.79961C23.2778 6.0473 23.2 9.06642 23.2 9.06642C20.7839 9.87632 18.2893 11.1971 15.7947 13.4998C11.8947 17.0998 9.22346 21.9395 8.2947 25.4998C6.4947 32.3998 7.09469 35.0997 5.59469 41.3997C5.02225 43.8039 4.69469 47.0997 4.39469 50.6997C4.09469 54.2997 4.36899 58.2054 4.6947 59.3997C4.25662 60.1869 4.39468 61.1998 4.39468 62.0998C4.39468 62.9998 4.69454 63.5998 5.59454 63.8998C6.49454 64.1998 12.1945 64.4998 13.3945 64.1998C14.5945 63.8998 14.8945 63.2998 14.8945 62.0998C14.8945 60.8998 14.5945 59.3997 14.2947 58.1998C16.9802 53.7239 17.2083 47.9661 17.657 41.4362M31.4016 2.79736C32.1943 2.78978 32.9009 2.76199 33.4 2.69961C35.2 2.47461 36.4 2.69961 36.4 2.69961C37.3 2.69961 38.4728 3.64977 38.5637 4.89747C38.6547 6.14516 38.7325 8.79747 38.7325 8.79747C41.4146 9.57505 44.2068 10.9223 46.9991 13.4997C50.8991 17.0997 53.5703 21.9394 54.4991 25.4997C56.2991 32.3997 55.6991 35.0996 57.1991 41.3996C57.7715 43.8038 58.0991 47.0996 58.3991 50.6996C58.6991 54.2996 58.4248 58.2053 58.0991 59.3996C58.5371 60.1868 58.6992 61.1997 58.6992 62.0997C58.6992 62.9997 58.0992 63.5997 57.1992 63.8997C56.2992 64.1997 50.5992 64.4997 49.3992 64.1997C48.1992 63.8997 47.8992 63.2997 47.8992 62.0997C47.8992 60.8997 48.1992 59.3996 48.4991 58.1997C45.8159 53.7277 45.5859 47.9758 45.1379 41.4529M45.8484 37.4066C42.0715 37.0501 39.7022 32.4084 39.7022 27.7732M45.8484 37.4066C45.8418 34.6276 45.3031 30.0566 44.5995 26.9998M45.8484 37.4066C45.8496 37.9004 45.8339 38.3377 45.7994 38.6998C45.7035 39.7074 45.5295 40.662 45.1379 41.4529M16.9547 37.4068C20.7317 37.0503 23.1009 32.4086 23.1009 27.7734M16.9547 37.4068C16.9613 34.6278 17.5 30.0567 18.2036 26.9998M16.9547 37.4068C16.9536 37.9006 16.9692 38.3377 17.0037 38.6998C17.099 39.7003 17.2712 40.6487 17.657 41.4362" stroke="#1E1E1E" stroke-width="0.6" stroke-linecap="round"/>
</svg>
