<svg width="63" height="129" viewBox="0 0 63 129" fill="none" xmlns="http://www.w3.org/2000/svg">
<path d="M31.2063 43.1305C35.7675 43.8128 39.7098 43.6992 41.7042 43.4998C43.4448 43.3258 44.4015 42.5458 44.9426 41.4529M31.2063 43.1305L31.2055 18.7497M31.2063 43.1305C26.6577 43.8078 22.6983 43.6988 20.7083 43.4998C18.9589 43.3249 18.0013 42.5379 17.4617 41.4362M31.2063 43.1305C33.5151 42.7866 35.9549 42.2432 38.4085 41.3998M31.2055 18.7497C31.2053 16.4998 29.7055 14.9998 28.2055 13.4998C26.7055 11.9998 24.6055 10.7998 22.8055 10.4998M31.2055 18.7497C31.2057 16.4998 32.7055 14.9998 34.2055 13.4998C35.7055 11.9998 37.8055 10.7998 39.6055 10.4998M31.2055 18.7497C31.772 18.1428 32.599 17.6162 33.5463 17.1638M31.2055 18.7497C30.6398 18.1436 29.8143 17.6177 28.8687 17.1657M45.6531 37.4066C41.8761 37.0501 39.5069 32.4084 39.5069 27.7732M45.6531 37.4066C45.6465 34.6276 45.1078 30.0566 44.4042 26.9998M45.6531 37.4066C45.6542 37.9004 45.6386 38.3377 45.6041 38.6998C45.5082 39.7074 45.3342 40.662 44.9426 41.4529M16.7594 37.4068C20.5364 37.0503 22.9056 32.4086 22.9056 27.7734M16.7594 37.4068C16.766 34.6278 17.3047 30.0567 18.0083 26.9998M16.7594 37.4068C16.7583 37.9006 16.7739 38.3377 16.8084 38.6998C16.9037 39.7003 17.0759 40.6486 17.4617 41.4362M28.8687 17.1657C28.2687 19.7157 27.6055 27.6598 27.6055 32.6998M28.8687 17.1657C26.3039 15.9399 22.855 15.2585 21.3055 14.9998C19.8305 14.7536 17.2148 14.5596 15.7585 13.3542M33.5463 17.1638C34.1463 19.7138 34.8055 27.6598 34.8055 32.6998M33.5463 17.1638C36.1107 15.9391 39.5568 15.2583 41.1055 14.9998C42.5791 14.7538 45.1913 14.56 46.6484 13.3576M15.7585 13.3542C15.1208 12.8264 14.7055 12.1047 14.7055 11.0998C14.7055 7.7998 18.6055 5.3998 21.3055 4.4998C24.0055 3.5998 26.6166 3.2998 31.2055 3.2998C35.7943 3.2998 38.4055 3.59979 41.1055 4.49979C43.8055 5.39979 47.7055 7.79979 47.7055 11.0998C47.7055 12.1068 47.2883 12.8295 46.6484 13.3576M15.7585 13.3542C15.7055 13.4023 15.6524 13.4508 15.5994 13.4998C11.6994 17.0998 9.02815 21.9395 8.09938 25.4998C6.29938 32.3998 6.89938 35.0997 5.39938 41.3997C4.82693 43.8039 4.49938 47.0997 4.19938 50.6997C3.89938 54.2997 4.17367 58.2054 4.49938 59.3997C4.06131 60.1869 4.19937 61.1998 4.19937 62.0998C4.19937 62.9998 4.49923 63.5998 5.39923 63.8998C6.29923 64.1998 11.9992 64.4998 13.1992 64.1998C14.3992 63.8998 14.6992 63.2998 14.6992 62.0998C14.6992 60.8998 14.3992 59.3997 14.0994 58.1998C16.7849 53.7239 17.013 47.9661 17.4617 41.4362M46.6484 13.3576C46.7002 13.4045 46.752 13.4519 46.8038 13.4997C50.7038 17.0997 53.375 21.9394 54.3038 25.4997C56.1038 32.3997 55.5038 35.0996 57.0038 41.3996C57.5762 43.8038 57.9038 47.0996 58.2038 50.6996C58.5038 54.2996 58.2295 58.2053 57.9038 59.3996C58.3418 60.1868 58.5039 61.1997 58.5039 62.0997C58.5039 62.9997 57.9039 63.5997 57.0039 63.8997C56.1039 64.1997 50.4039 64.4997 49.2039 64.1997C48.0039 63.8997 47.7039 63.2997 47.7039 62.0997C47.7039 60.8997 48.0039 59.3996 48.3038 58.1997C45.6206 53.7277 45.3905 47.9758 44.9426 41.4529" stroke="#1E1E1E" stroke-width="0.6" stroke-linecap="round"/>
</svg>
