<svg width="63" height="129" viewBox="0 0 63 129" fill="none" xmlns="http://www.w3.org/2000/svg">
<path d="M31.3889 50.2722C36.3646 50.9826 40.9748 50.873 42.7154 50.5446C43.877 50.3255 45.0285 49.8982 45.7495 48.9418M31.3889 50.2722L31.4008 18.7497M31.3889 50.2722C26.4131 50.9826 21.8283 50.873 20.0876 50.5446C18.9218 50.3246 17.7661 49.895 17.0455 48.9311M31.3889 50.2722C33.7934 49.9289 36.2892 49.3941 38.5995 48.5999M31.4008 18.7497C31.4006 16.4998 29.9008 14.9998 28.4008 13.4998C26.9008 11.9998 24.8008 10.7998 23.0008 10.4998M31.4008 18.7497C31.401 16.4998 32.9008 14.9998 34.4008 13.4998C35.9008 11.9998 38.0008 10.7998 39.8008 10.4998M31.4008 18.7497C31.9673 18.1428 32.7943 17.6162 33.7416 17.1638M31.4008 18.7497C30.8351 18.1436 30.0096 17.6177 29.064 17.1657M46.2772 40.4284C42.2516 40.3968 39.7021 35.5814 39.7021 30.7732M46.2772 40.4284C46.7218 38.1914 46.9798 34.1821 45.6962 27.0314M46.2772 40.4284C46.081 41.4159 45.8484 42.058 45.696 42.4725C46.8695 45.8115 46.6313 47.7723 45.7495 48.9418M16.5259 40.4286C20.5514 40.3969 23.1009 35.5816 23.1009 30.7734M16.5259 40.4286C16.0813 38.1917 15.8232 34.1823 17.1069 27.0314M16.5259 40.4286C16.7221 41.416 16.9547 42.0581 17.1071 42.4725C15.9371 45.8014 16.1704 47.7604 17.0455 48.9311M29.064 17.1657C28.464 19.7157 27.8008 27.6598 27.8008 32.6998M29.064 17.1657C26.4992 15.9399 23.0503 15.2585 21.5008 14.9998C20.0258 14.7536 17.4101 14.5596 15.9538 13.3542M33.7416 17.1638C34.3416 19.7138 35.0008 27.6598 35.0008 32.6998M33.7416 17.1638C36.306 15.9391 39.7521 15.2583 41.3008 14.9998C42.7744 14.7538 45.3866 14.56 46.8437 13.3576M15.9538 13.3542C15.3162 12.8264 14.9008 12.1047 14.9008 11.0998C14.9008 7.7998 18.8008 5.3998 21.5008 4.4998C24.2008 3.5998 26.812 3.2998 31.4008 3.2998C35.9896 3.2998 38.6008 3.59979 41.3008 4.49979C44.0008 5.39979 47.9008 7.79979 47.9008 11.0998C47.9008 12.1068 47.4837 12.8295 46.8437 13.3576M15.9538 13.3542C15.9008 13.4023 15.8477 13.4508 15.7947 13.4998C11.8947 17.0998 9.22346 21.9395 8.2947 25.4998C6.4947 32.3998 7.09469 35.0997 5.59469 41.3997C5.02225 43.8039 4.69469 47.0997 4.39469 50.6997C4.09469 54.2997 4.36899 58.2054 4.6947 59.3997C4.25662 60.1869 4.39468 61.1998 4.39468 62.0998C4.39468 62.9998 4.69454 63.5998 5.59454 63.8998C6.49454 64.1998 12.1945 64.4998 13.3945 64.1998C14.5945 63.8998 14.8945 63.2998 14.8945 62.0998C14.8945 60.8998 14.5945 59.3997 14.2947 58.1998C15.8964 55.5302 16.624 52.4046 17.0455 48.9311M46.8437 13.3576C46.8955 13.4045 46.9473 13.4519 46.9991 13.4997C50.8991 17.0997 53.5703 21.9394 54.4991 25.4997C56.2991 32.3997 55.6991 35.0996 57.1991 41.3996C57.7715 43.8038 58.0991 47.0996 58.3991 50.6996C58.6991 54.2996 58.4248 58.2053 58.0991 59.3996C58.5371 60.1868 58.6992 61.1997 58.6992 62.0997C58.6992 62.9997 58.0992 63.5997 57.1992 63.8997C56.2992 64.1997 50.5992 64.4997 49.3992 64.1997C48.1992 63.8997 47.8992 63.2997 47.8992 62.0997C47.8992 60.8997 48.1992 59.3996 48.4991 58.1997C46.899 55.5329 46.1713 52.4109 45.7495 48.9418" stroke="#1E1E1E" stroke-width="0.6" stroke-linecap="round"/>
</svg>
