<svg width="63" height="129" viewBox="0 0 63 129" fill="none" xmlns="http://www.w3.org/2000/svg">
<path d="M31.0031 43.1307C35.5644 43.8131 39.5067 43.6995 41.501 43.5001C43.2416 43.326 44.1983 42.5461 44.7395 41.4532M31.0031 43.1307L31.0013 18.75M31.0031 43.1307C26.4546 43.8081 22.4952 43.6991 20.5052 43.5001C18.7558 43.3252 17.7982 42.5381 17.2586 41.4365M31.0031 43.1307C33.3119 42.7869 35.7517 42.2435 38.2053 41.4001M31.0013 18.75C30.4488 18.75 30.1497 18.6474 29.5046 18.1986C28.8595 17.7498 25.5716 14.5091 23.9137 12.7925C22.8388 11.6796 21.7753 10.768 20.4985 10.5952M31.0013 18.75C31.5539 18.75 31.8624 18.6474 32.5075 18.1986C33.1526 17.7498 36.4405 14.5091 38.0984 12.7925C39.1254 11.7291 40.1421 10.8495 41.3445 10.6226M45.4499 37.4069C41.673 37.0504 39.3038 32.4087 39.3038 27.7735M45.4499 37.4069C45.4433 34.6278 44.9046 30.0569 44.2011 27.0001M45.4499 37.4069C45.4511 37.9007 45.4355 38.338 45.401 38.7001C45.305 39.7077 45.1311 40.6623 44.7395 41.4532M16.5563 37.4071C20.3332 37.0506 22.7025 32.4089 22.7025 27.7737M16.5563 37.4071C16.5629 34.6281 17.1016 30.057 17.8052 27.0001M16.5563 37.4071C16.5551 37.9009 16.5708 38.338 16.6052 38.7001C16.7005 39.7006 16.8728 40.6489 17.2586 41.4365M20.4985 10.5952C22.6571 9.54941 27.2052 8.46631 30.9638 8.46631C34.7225 8.46631 39.1859 9.57679 41.3445 10.6226M20.4985 10.5952C19.8058 10.5015 18.9191 10.9337 18.2019 11.3866C17.4848 11.8396 16.2001 12.7581 15.3963 13.5001C11.4963 17.1001 8.82502 21.9398 7.89626 25.5001C6.09626 32.4001 6.69626 35.1 5.19626 41.4C4.62381 43.8042 4.29626 47.0999 3.99626 50.6999C3.69626 54.2999 3.97055 58.2057 4.29626 59.4C3.85819 60.1872 3.99624 61.2001 3.99624 62.1001C3.99624 63.0001 4.29611 63.6001 5.19611 63.9001C6.09611 64.2001 11.7961 64.5001 12.9961 64.2001C14.1961 63.9001 14.4961 63.3001 14.4961 62.1001C14.4961 60.9001 14.1961 59.4 13.8963 58.2001C16.5817 53.7242 16.8099 47.9664 17.2586 41.4365M41.3445 10.6226C42.0831 10.4832 43.3423 11.007 44.2011 11.5705C45.0598 12.1341 45.7999 12.7609 46.6006 13.5C50.5006 17.1 53.1719 21.9397 54.1006 25.5C55.9006 32.4 55.3006 35.0999 56.8006 41.3999C57.3731 43.8041 57.7006 47.0999 58.0006 50.6999C58.3006 54.2999 58.0263 58.2056 57.7006 59.3999C58.1387 60.1871 58.3008 61.2 58.3008 62.1C58.3008 63 57.7008 63.6 56.8008 63.9C55.9008 64.2 50.2008 64.5 49.0008 64.2C47.8008 63.9 47.5008 63.3 47.5008 62.1C47.5008 60.9 47.8008 59.3999 48.1006 58.2C45.4175 53.728 45.1874 47.9761 44.7395 41.4532" stroke="#1E1E1E" stroke-width="0.6" stroke-linecap="round"/>
</svg>
