<svg width="63" height="129" viewBox="0 0 63 129" fill="none" xmlns="http://www.w3.org/2000/svg">
<path d="M31.2063 43.1306C35.7675 43.813 39.7098 43.6994 41.7042 43.5C43.4448 43.3259 44.4015 42.546 44.9426 41.4531M31.2063 43.1306L31.2056 18.6M31.2063 43.1306C26.6577 43.808 22.6983 43.699 20.7083 43.5C18.9589 43.3251 18.0013 42.538 17.4617 41.4364M31.2063 43.1306C33.5151 42.7868 35.9549 42.2434 38.4085 41.4M31.2056 18.6C23.7621 18.6 21.3777 14.5233 20.2503 13.0464C19.8167 12.4784 19.323 12.102 18.7901 11.8965M31.2056 18.6C38.6491 18.6 41.0333 14.5233 42.1607 13.0464C42.5897 12.4844 43.0777 12.1098 43.6042 11.903M45.6531 37.4068C41.8761 37.0503 39.5069 32.4086 39.5069 27.7734M45.6531 37.4068C45.6465 34.6278 45.1078 30.0568 44.4042 27M45.6531 37.4068C45.6542 37.9006 45.6386 38.3379 45.6041 38.7C45.5082 39.7076 45.3342 40.6622 44.9426 41.4531M16.7594 37.407C20.5364 37.0505 22.9056 32.4088 22.9056 27.7736M16.7594 37.407C16.766 34.628 17.3047 30.0569 18.0083 27M16.7594 37.407C16.7583 37.9008 16.7739 38.3379 16.8084 38.7C16.9037 39.7005 17.0759 40.6488 17.4617 41.4364M18.7901 11.8965C22.5901 10.7155 27.7187 10.3154 31.1671 10.3154C34.6219 10.3154 39.8021 10.717 43.6042 11.903M18.7901 11.8965C17.9372 11.5676 16.5261 12.6561 15.5994 13.5C14.6727 14.3439 13.9972 15.0862 13.2842 15.9391C10.6427 19.0994 8.83076 22.6964 8.09938 25.5C6.29938 32.4 6.89938 35.0999 5.39938 41.3999C4.82693 43.8041 4.49938 47.0999 4.19938 50.6999C3.89938 54.2999 4.17367 58.2056 4.49938 59.3999C4.06131 60.1871 4.19937 61.2 4.19937 62.1C4.19937 63 4.49923 63.6 5.39923 63.9C6.29923 64.2 11.9992 64.5 13.1992 64.2C14.3992 63.9 14.6992 63.3 14.6992 62.1C14.6992 60.9 14.3992 59.3999 14.0994 58.2C16.7849 53.7241 17.013 47.9663 17.4617 41.4364M43.6042 11.903C44.4613 11.5662 45.7775 12.6291 46.8038 13.4999C47.83 14.3707 48.4869 15.1723 49.2305 16.0733C51.8115 19.2008 53.5827 22.7359 54.3038 25.4999C56.1038 32.3999 55.5038 35.0998 57.0038 41.3998C57.5762 43.804 57.9038 47.0998 58.2038 50.6998C58.5038 54.2998 58.2295 58.2055 57.9038 59.3998C58.3418 60.187 58.5039 61.1999 58.5039 62.0999C58.5039 62.9999 57.9039 63.5999 57.0039 63.8999C56.1039 64.1999 50.4039 64.4999 49.2039 64.1999C48.0039 63.8999 47.7039 63.2999 47.7039 62.0999C47.7039 60.8999 48.0039 59.3998 48.3038 58.1999C45.6206 53.7279 45.3905 47.976 44.9426 41.4531" stroke="#1E1E1E" stroke-width="0.6" stroke-linecap="round"/>
</svg>
