<svg width="63" height="129" viewBox="0 0 63 129" fill="none" xmlns="http://www.w3.org/2000/svg">
<path d="M14.5034 27.0001C14.4525 32.0825 15.1036 43.5001 13.9033 52.2001C13.3494 56.2152 13.3301 58.5473 13.5182 60.229M47.5028 27.0001C47.5537 32.0825 46.9027 43.5001 48.1029 52.2001C48.6569 56.2152 48.6761 58.5473 48.488 60.229M31.0028 71.2493C34.9355 71.8754 44.2028 72.2192 45.7028 72.1096C47.2028 72.0001 48.2933 71.1001 48.3481 69.6001C48.4028 68.1001 47.9487 66.4375 47.5028 65.1001C47.588 64.5093 47.6978 63.9971 47.815 63.5084M31.0028 71.2493L31.0026 18.7502M31.0028 71.2493C24.4846 72.1108 17.3381 72.241 16.3035 72.1096C14.8035 71.9192 13.9034 71.4001 13.6776 70.0702C13.4518 68.7403 14.0236 66.5395 14.5034 65.1001C14.4177 64.5053 14.3069 63.9901 14.1889 63.4983M31.0028 71.2493C33.9345 70.8617 36.7391 70.3263 38.8033 69.6001M13.5182 60.229C17.5668 60.229 20.3025 55.3978 20.3025 50.5737M13.5182 60.229C13.6664 61.5542 13.9433 62.4755 14.1889 63.4983M48.488 60.229C44.4394 60.229 41.7038 55.3978 41.7038 50.5737M48.488 60.229C48.3394 61.5585 48.0611 62.4816 47.815 63.5084M31.0026 18.7502C31.0026 18.7502 29.5216 21.231 28.3121 22.1655C27.1027 23.1001 25.7734 22.1593 23.8027 19.8001C22.3076 18.0102 21.1374 16.7633 19.5818 14.6461C19.0949 13.9835 18.0289 12.7182 17.4879 11.7879M31.0026 18.7502C31.0026 18.7502 28.883 16.5499 26.9225 14.5172C25.5305 13.074 22.802 10.0597 22.386 9.63286M31.0026 18.7502C31.0026 18.7502 32.4836 21.231 33.693 22.1656C34.9025 23.1001 36.2318 22.1593 38.2025 19.8001C39.6976 18.0102 40.8678 16.7633 42.4234 14.6461C42.9095 13.9844 43.9731 12.7219 44.5149 11.7921M31.0026 18.7502C31.0026 18.7502 33.1222 16.5499 35.0827 14.5172C36.4746 13.074 39.1391 10.1253 39.5551 9.69846C39.5731 9.67998 39.591 9.66161 39.6089 9.64334M22.386 9.63286C24.538 8.8082 27.5948 8.46631 30.9651 8.46631M22.386 9.63286C21.6154 8.84604 20.9623 8.26604 19.9571 8.7045C18.9241 9.15505 18.3394 9.53098 17.6904 10.0678C17.0415 10.6046 17.1609 11.2144 17.462 11.7429C17.4705 11.7578 17.4791 11.7728 17.4879 11.7879M31.0026 8.46631C34.3872 8.46631 37.4556 8.8111 39.6089 9.64334M39.6089 9.64334C40.384 8.85121 41.0384 8.26411 42.0481 8.70451C43.081 9.15506 43.6658 9.53099 44.3147 10.0678C44.9637 10.6046 44.8443 11.2144 44.5432 11.7429C44.5339 11.7592 44.5245 11.7756 44.5149 11.7921M17.4879 11.7879C16.7918 12.2887 16.0941 12.856 15.3963 13.5001C11.4963 17.1001 8.82502 21.9398 7.89626 25.5001C6.09626 32.4001 6.69626 35.1 5.19626 41.4C4.62381 43.8042 4.29626 47.0999 3.99626 50.6999C3.69626 54.2999 3.97055 58.2057 4.29626 59.4C3.85819 60.1872 3.99624 61.2001 3.99624 62.1001C3.99624 63.0001 4.29611 63.6001 5.19611 63.9001C6.09611 64.2001 11.7961 64.5001 12.9961 64.2001C13.5897 64.0517 13.9631 63.8299 14.1889 63.4983M44.5149 11.7921C45.209 12.2918 45.9048 12.8577 46.6006 13.5C50.5006 17.1 53.1719 21.9397 54.1006 25.5C55.9006 32.4 55.3006 35.0999 56.8006 41.3999C57.3731 43.8041 57.7006 47.0999 58.0006 50.6999C58.3006 54.2999 58.0263 58.2056 57.7006 59.3999C58.1387 60.1871 58.3008 61.2 58.3008 62.1C58.3008 63 57.7008 63.6 56.8008 63.9C55.9008 64.2 50.2008 64.5 49.0008 64.2C48.4132 64.0531 48.0415 63.8343 47.815 63.5084" stroke="#1E1E1E" stroke-width="0.6" stroke-linecap="round"/>
</svg>
