<svg width="63" height="129" viewBox="0 0 63 129" fill="none" xmlns="http://www.w3.org/2000/svg">
<path d="M16.0992 26.9998C16.0484 32.0822 15.5959 39.4262 14.899 42.5998C14.1632 45.9504 14.1454 48.7629 14.3547 51.2216M46.7022 26.9998C46.753 32.0822 46.6052 39.4262 47.3021 42.5998C48.031 45.9193 48.0553 48.7105 47.8521 51.153M33.626 61.3197C36.4886 62.1548 45.2022 62.5531 46.1022 62.4764C46.8466 62.4131 47.591 61.9916 47.9492 61.1687M33.626 61.3197C35.7245 60.9733 37.6659 60.5391 39.1989 59.9998M33.626 61.3197C32.8998 61.4396 32.1549 61.549 31.4016 61.6486M31.4016 61.6486C24.8826 62.5105 17.734 62.6407 16.6992 62.5093C15.9753 62.4174 15.3516 62.249 14.8926 61.9306M31.4016 61.6486V2.79736M31.4016 2.79736C29.3352 2.81713 26.6841 2.69961 25.6 2.69961C24.1 2.69961 23.4597 3.55192 23.3688 4.79961C23.2778 6.0473 23.2 9.06642 23.2 9.06642C20.7839 9.87632 18.2893 11.1971 15.7947 13.4998C11.8947 17.0998 9.22346 21.9395 8.2947 25.4998C6.4947 32.3998 7.09469 35.0997 5.59469 41.3997C5.02225 43.8039 4.69469 47.0997 4.39469 50.6997C4.09469 54.2997 4.36899 58.2054 4.6947 59.3997C4.25662 60.1869 4.39468 61.1998 4.39468 62.0998C4.39468 62.9998 4.69454 63.5998 5.59454 63.8998C6.49454 64.1998 12.1945 64.4998 13.3945 64.1998C14.5945 63.8998 14.8945 63.2998 14.8945 62.0998C14.8945 62.044 14.8939 61.9876 14.8926 61.9306M31.4016 2.79736C32.1943 2.78978 32.9009 2.76199 33.4 2.69961C35.2 2.47461 36.4 2.69961 36.4 2.69961C37.3 2.69961 38.4728 3.55192 38.5637 4.79961C38.6547 6.0473 38.7325 8.79747 38.7325 8.79747C41.4146 9.57505 44.2068 10.9223 46.9991 13.4997C50.8991 17.0997 53.5703 21.9394 54.4991 25.4997C56.2991 32.3997 55.6991 35.0996 57.1991 41.3996C57.7715 43.8038 58.0991 47.0996 58.3991 50.6996C58.6991 54.2996 58.4248 58.2053 58.0991 59.3996C58.5371 60.1868 58.6992 61.1997 58.6992 62.0997C58.6992 62.9997 58.0992 63.5997 57.1992 63.8997C56.2992 64.1997 50.5992 64.4997 49.3992 64.1997C48.1992 63.8997 47.8992 63.2997 47.8992 62.0997C47.8992 61.8045 47.9174 61.4912 47.9492 61.1687M47.8521 51.153C44.3065 50.5213 42.1022 46.0443 42.1022 41.5734M47.8521 51.153C47.7208 52.7315 47.4945 54.1643 47.302 55.4998C47.7909 56.9663 48.3371 59.3998 48.1196 60.5998C48.082 60.8072 48.0241 60.9967 47.9492 61.1687M14.3547 51.2216C18.2478 51.0131 20.7009 46.2899 20.7009 41.5734M14.3547 51.2216C14.4868 52.773 14.7094 54.1837 14.8991 55.4998C14.4313 56.9031 13.9992 58.7998 14.0643 60.2998C14.098 61.0759 14.4006 61.5894 14.8926 61.9306" stroke="#1E1E1E" stroke-width="0.6" stroke-linecap="round"/>
</svg>
