<svg width="63" height="129" viewBox="0 0 63 129" fill="none" xmlns="http://www.w3.org/2000/svg">
<path d="M31.3889 50.2724C36.3646 50.9828 40.9748 50.8732 42.7154 50.5448C43.877 50.3256 45.0285 49.8984 45.7495 48.942M31.3889 50.2724L31.4009 18.6M31.3889 50.2724C26.4131 50.9828 21.8283 50.8732 20.0876 50.5448C18.9218 50.3248 17.7661 49.8952 17.0455 48.9313M31.3889 50.2724C33.7934 49.9291 36.2892 49.3943 38.5995 48.6001M31.4009 18.6C23.9574 18.6 21.573 14.5233 20.4456 13.0464C20.0121 12.4784 19.5183 12.102 18.9854 11.8965M31.4009 18.6C38.8444 18.6 41.2286 14.5233 42.356 13.0464C42.785 12.4844 43.273 12.1098 43.7995 11.903M46.2772 40.4286C42.2516 40.397 39.7021 35.5816 39.7021 30.7734M46.2772 40.4286C46.7218 38.1916 46.9798 34.1823 45.6962 27.0316M46.2772 40.4286C46.081 41.4161 45.8484 42.0582 45.696 42.4727C46.8695 45.8117 46.6313 47.7724 45.7495 48.942M16.5259 40.4288C20.5514 40.3971 23.1009 35.5818 23.1009 30.7736M16.5259 40.4288C16.0813 38.1918 15.8232 34.1825 17.1069 27.0316M16.5259 40.4288C16.7221 41.4162 16.9547 42.0583 17.1071 42.4727C15.9371 45.8016 16.1704 47.7606 17.0455 48.9313M18.9854 11.8965C22.7854 10.7155 27.914 10.3154 31.3625 10.3154C34.8172 10.3154 39.9974 10.717 43.7995 11.903M18.9854 11.8965C18.1326 11.5676 16.9334 12.5752 16.1391 13.2518C15.3449 13.9284 14.1296 15.1532 13.3927 16.0435C10.7983 19.1784 9.01803 22.7272 8.2947 25.5C6.4947 32.4 7.09469 35.0999 5.59469 41.3999C5.02225 43.8041 4.69469 47.0999 4.39469 50.6999C4.09469 54.2999 4.36899 58.2056 4.6947 59.3999C4.25662 60.1871 4.39468 61.2 4.39468 62.1C4.39468 63 4.69454 63.6 5.59454 63.9C6.49454 64.2 12.1945 64.5 13.3945 64.2C14.5945 63.9 14.8945 63.3 14.8945 62.1C14.8945 60.9 14.5945 59.3999 14.2947 58.2C15.8964 55.5304 16.624 52.4048 17.0455 48.9313M43.7995 11.903C44.6566 11.5662 45.9473 12.4767 46.9724 13.4356C47.9975 14.3946 48.886 15.3923 49.7043 16.4163C52.1343 19.4571 53.8043 22.8365 54.4991 25.4999C56.2991 32.3999 55.6991 35.0998 57.1991 41.3998C57.7715 43.804 58.0991 47.0998 58.3991 50.6998C58.6991 54.2998 58.4248 58.2055 58.0991 59.3998C58.5371 60.187 58.6992 61.1999 58.6992 62.0999C58.6992 62.9999 58.0992 63.5999 57.1992 63.8999C56.2992 64.1999 50.5992 64.4999 49.3992 64.1999C48.1992 63.8999 47.8992 63.2999 47.8992 62.0999C47.8992 60.8999 48.1992 59.3998 48.4991 58.1999C46.899 55.5331 46.1713 52.4111 45.7495 48.942" stroke="#1E1E1E" stroke-width="0.6" stroke-linecap="round"/>
</svg>
