<svg width="63" height="129" viewBox="0 0 63 129" fill="none" xmlns="http://www.w3.org/2000/svg">
<path d="M14.5034 27.0001C14.4525 32.0825 15.1036 43.5001 13.9033 52.2001C13.3494 56.2152 13.3301 58.5473 13.5182 60.229M47.5028 27.0001C47.5537 32.0825 46.9027 43.5001 48.1029 52.2001C48.6569 56.2152 48.6761 58.5473 48.488 60.229M31.0028 71.2493C34.9355 71.8754 44.2028 72.2192 45.7028 72.1096C47.2028 72.0001 48.2933 71.1001 48.3481 69.6001C48.4028 68.1001 47.9487 66.4376 47.5028 65.1001C47.588 64.5093 47.6979 63.9971 47.815 63.5084M31.0028 71.2493C24.4846 72.1108 17.3381 72.241 16.3035 72.1096C14.8035 71.9192 13.9034 71.4001 13.6776 70.0702C13.4518 68.7403 14.0236 66.5395 14.5034 65.1001C14.4177 64.5053 14.3069 63.9901 14.1889 63.4984M31.0028 71.2493C33.9345 70.8618 36.7391 70.3263 38.8033 69.6001M31.0028 71.2493L31.004 15.3M13.5182 60.229C17.5668 60.229 20.3025 55.3978 20.3025 50.5737M13.5182 60.229C13.6664 61.5542 13.9433 62.4756 14.1889 63.4984M48.488 60.229C44.4394 60.229 41.7038 55.3978 41.7038 50.5737M48.488 60.229C48.3394 61.5585 48.0611 62.4816 47.815 63.5084M31.004 15.3C27.1029 15.3 24.6307 13.0003 23.4633 11.2869C22.9481 10.5308 22.3855 10.0861 21.776 9.8911M31.004 15.3C34.9051 15.3 37.374 13.0002 38.5414 11.2869C39.0509 10.5391 39.6068 10.0959 40.2086 9.89759M21.776 9.8911C23.9389 8.87898 27.3 8.46621 31.0028 8.46621C34.7048 8.46621 38.0468 8.88589 40.2086 9.89759M21.776 9.8911C21.0045 9.64428 19.7371 10.3235 18.7738 10.9163C17.8105 11.5091 16.3379 12.6309 15.3963 13.5001C11.4963 17.1001 8.82502 21.9398 7.89626 25.5001C6.09626 32.4001 6.69626 35.1 5.19626 41.4C4.62381 43.8042 4.29626 47.1 3.99626 50.7C3.69626 54.3 3.97055 58.2057 4.29626 59.4C3.85819 60.1872 3.99624 61.2001 3.99624 62.1001C3.99624 63.0001 4.29611 63.6001 5.19611 63.9001C6.09611 64.2001 11.7961 64.5001 12.9961 64.2001C13.5897 64.0517 13.9631 63.8299 14.1889 63.4984M40.2086 9.89759C40.9856 9.64164 42.0925 10.2683 42.7031 10.5939C43.3136 10.9196 44.0823 11.4694 44.7422 11.9581C45.3609 12.4163 45.9808 12.9278 46.6006 13.5C50.5006 17.1 53.1719 21.9397 54.1006 25.5C55.9006 32.4 55.3006 35.0999 56.8006 41.3999C57.3731 43.8041 57.7006 47.0999 58.0006 50.6999C58.3006 54.2999 58.0263 58.2056 57.7006 59.3999C58.1387 60.1871 58.3008 61.2 58.3008 62.1C58.3008 63 57.7008 63.6 56.8008 63.9C55.9008 64.2 50.2008 64.5 49.0008 64.2C48.4132 64.0531 48.0415 63.8343 47.815 63.5084" stroke="#1E1E1E" stroke-width="0.6" stroke-linecap="round"/>
</svg>
