<svg width="64" height="129" viewBox="0 0 64 129" fill="none" xmlns="http://www.w3.org/2000/svg">
<path d="M31.7873 50.2725C36.763 50.9829 41.3732 50.8733 43.1139 50.5449C44.2754 50.3257 45.4269 49.8985 46.148 48.942M31.7873 50.2725L31.7982 18.75M31.7873 50.2725C26.8115 50.9829 22.2267 50.8733 20.4861 50.5449C19.3202 50.3249 18.1645 49.8953 17.444 48.9314M31.7873 50.2725C34.1918 49.9292 36.6876 49.3944 38.9979 48.6002M31.7982 18.75C31.2457 18.75 30.9465 18.6474 30.3014 18.1986C29.6563 17.7498 26.3685 14.5091 24.7105 12.7925C23.6357 11.6796 22.5722 10.768 21.2954 10.5952M31.7982 18.75C32.3508 18.75 32.6593 18.6474 33.3044 18.1986C33.9495 17.7498 37.2373 14.5091 38.8953 12.7925C39.9223 11.7291 40.939 10.8495 42.1414 10.6226M46.6757 40.4287C42.6501 40.3971 40.1006 35.5817 40.1006 30.7735M46.6757 40.4287C47.1202 38.1917 47.3782 34.1824 46.0946 27.0317M46.6757 40.4287C46.4794 41.4162 46.2468 42.0583 46.0944 42.4728C47.268 45.8118 47.0297 47.7725 46.148 48.942M16.9243 40.4289C20.9499 40.3972 23.4993 35.5819 23.4993 30.7737M16.9243 40.4289C16.4797 38.1919 16.2217 34.1826 17.5053 27.0317M16.9243 40.4289C17.1206 41.4163 17.3531 42.0583 17.5055 42.4728C16.3355 45.8017 16.5688 47.7607 17.444 48.9314M21.2954 10.5952C23.454 9.54941 28.0021 8.46631 31.7607 8.46631C35.5194 8.46631 39.9828 9.57679 42.1414 10.6226M21.2954 10.5952C20.6026 10.5015 19.4253 11.0294 18.6795 11.5109C17.9336 11.9924 17.0229 12.7342 16.1931 13.5001C12.2931 17.1001 9.6219 21.9398 8.69313 25.5001C6.89313 32.4001 7.49313 35.1 5.99313 41.4C5.42068 43.8042 5.09313 47.0999 4.79313 50.6999C4.49313 54.2999 4.76742 58.2057 5.09313 59.4C4.65506 60.1872 4.79312 61.2001 4.79312 62.1001C4.79312 63.0001 5.09298 63.6001 5.99298 63.9001C6.89298 64.2001 12.593 64.5001 13.793 64.2001C14.993 63.9001 15.293 63.3001 15.293 62.1001C15.293 60.9001 14.993 59.4 14.6931 58.2001C16.2949 55.5305 17.0224 52.4049 17.444 48.9314M42.1414 10.6226C42.88 10.4832 44.0899 11.1236 44.9751 11.6869C45.8604 12.2502 46.6313 12.7927 47.3975 13.5C51.2975 17.1 53.9687 21.9397 54.8975 25.5C56.6975 32.4 56.0975 35.0999 57.5975 41.3999C58.17 43.8041 58.4975 47.0999 58.7975 50.6999C59.0975 54.2999 58.8232 58.2056 58.4975 59.3999C58.9356 60.1871 59.0977 61.2 59.0977 62.1C59.0977 63 58.4977 63.6 57.5977 63.9C56.6977 64.2 50.9977 64.5 49.7977 64.2C48.5977 63.9 48.2977 63.3 48.2977 62.1C48.2977 60.9 48.5977 59.3999 48.8975 58.2C47.2974 55.5332 46.5697 52.4112 46.148 48.942" stroke="#1E1E1E" stroke-width="0.6" stroke-linecap="round"/>
</svg>
