<svg width="64" height="129" viewBox="0 0 64 129" fill="none" xmlns="http://www.w3.org/2000/svg">
<path d="M16.4977 27.0001C16.4468 32.0825 15.9943 39.4265 15.2974 42.6001C14.5617 45.9507 14.5438 48.7632 14.7532 51.2219M47.1006 27.0001C47.1515 32.0825 47.0037 39.4265 47.7006 42.6001C48.4295 45.9196 48.4537 48.7108 48.2506 51.1532M34.0244 61.32C36.887 62.155 45.6006 62.5534 46.5006 62.4767C47.0806 62.4274 47.6605 62.1606 48.0578 61.6561M34.0244 61.32C36.123 60.9735 38.0644 60.5394 39.5974 60.0001M34.0244 61.32C33.2983 61.4399 32.5533 61.5492 31.8 61.6489M31.8 61.6489C25.2811 62.5108 18.1325 62.641 17.0977 62.5096C16.3747 62.4178 15.7517 62.2497 15.293 61.9322M31.8 61.6489L31.7995 18.75M31.7995 18.75C31.7995 18.75 30.3184 21.231 29.109 22.1655C27.8996 23.1001 26.5703 22.1593 24.5996 19.8001C23.1044 18.0102 21.9342 16.7633 20.3787 14.6461C19.8918 13.9835 18.8258 12.7182 18.2848 11.7879M31.7995 18.75C31.7995 18.75 29.6799 16.5499 27.7194 14.5172C26.3274 13.074 23.5989 10.0597 23.1829 9.63286M31.7995 18.75C31.7995 18.75 33.2805 21.231 34.4899 22.1656C35.6993 23.1001 37.0287 22.1593 38.9993 19.8001C40.4945 18.0102 41.6647 16.7633 43.2203 14.6461C43.7068 13.9839 44.7719 12.7197 45.3132 11.7896M31.7995 18.75C31.7995 18.75 33.919 16.5499 35.8796 14.5172C37.2715 13.074 39.9359 10.1253 40.352 9.69846C40.37 9.67998 40.3879 9.66161 40.4058 9.64334M48.2506 51.1532C44.7049 50.5216 42.5006 46.0446 42.5006 41.5737M48.2506 51.1532C48.1193 52.7318 47.893 54.1646 47.7005 55.5001C48.1893 56.9666 48.7355 59.4001 48.5181 60.6001C48.4407 61.0268 48.2771 61.3777 48.0578 61.6561M14.7532 51.2219C18.6463 51.0134 21.0994 46.2901 21.0994 41.5737M14.7532 51.2219C14.8853 52.7733 15.1078 54.184 15.2975 55.5001C14.8297 56.9034 14.3977 58.8001 14.4628 60.3001C14.4965 61.0772 14.7999 61.591 15.293 61.9322M15.293 61.9322C15.293 63.1322 14.993 63.9001 13.793 64.2001C12.593 64.5001 6.89298 64.2001 5.99298 63.9001C5.09298 63.6001 4.79312 63.0001 4.79312 62.1001C4.79312 61.2001 4.65506 60.1872 5.09313 59.4C4.76742 58.2057 4.49313 54.3 4.79313 50.7C5.09313 47.1 5.42068 43.8042 5.99313 41.4C7.49313 35.1 6.89313 32.4001 8.69313 25.5001C9.6219 21.9398 12.2931 17.1001 16.1931 13.5001C16.8909 12.856 17.5887 12.2887 18.2848 11.7879M48.0578 61.6561C48.0578 62.8561 48.5977 63.9 49.7977 64.2C50.9977 64.5 56.6977 64.2 57.5977 63.9C58.4977 63.6 59.0977 63 59.0977 62.1C59.0977 61.2 58.9356 60.1871 58.4975 59.3999C58.8232 58.2056 59.0975 54.2999 58.7975 50.6999C58.4975 47.0999 58.17 43.8041 57.5975 41.3999C56.0975 35.0999 56.6975 32.4 54.8975 25.5C53.9687 21.9397 51.2975 17.1 47.3975 13.5C46.6946 12.8512 46.0143 12.293 45.3132 11.7896M23.1829 9.63286C25.3348 8.8082 28.3916 8.46631 31.762 8.46631M23.1829 9.63286C22.4122 8.84604 21.7592 8.26604 20.754 8.7045C19.721 9.15505 19.1362 9.53098 18.4873 10.0678C17.8384 10.6046 17.9577 11.2144 18.2589 11.7429C18.2674 11.7578 18.276 11.7728 18.2848 11.7879M31.7995 8.46631C35.184 8.46631 38.2524 8.8111 40.4058 9.64334M40.4058 9.64334C41.1809 8.85121 41.8353 8.26411 42.845 8.70451C43.8779 9.15506 44.4627 9.53099 45.1116 10.0678C45.7605 10.6046 45.6412 11.2144 45.34 11.7429C45.3312 11.7584 45.3223 11.7739 45.3132 11.7896" stroke="#1E1E1E" stroke-width="0.6" stroke-linecap="round"/>
</svg>
