<svg width="64" height="129" viewBox="0 0 64 129" fill="none" xmlns="http://www.w3.org/2000/svg">
<path d="M31.8 43.1307C36.3613 43.8131 40.3036 43.6995 42.2979 43.5001C44.0385 43.326 44.9952 42.5461 45.5364 41.4532M31.8 43.1307L31.7995 18.7502M31.8 43.1307C27.2515 43.8081 23.2921 43.6991 21.3021 43.5001C19.5527 43.3252 18.5951 42.5382 18.0554 41.4365M31.8 43.1307C34.1088 42.7869 36.5486 42.2435 39.0022 41.4001M31.7995 18.7502C31.7995 18.7502 30.3184 21.231 29.109 22.1655C27.8996 23.1001 26.5703 22.1593 24.5996 19.8001C23.1044 18.0102 21.9342 16.7633 20.3787 14.6461C19.8918 13.9835 18.8258 12.7182 18.2848 11.7879M31.7995 18.7502C31.7995 18.7502 29.6799 16.5499 27.7194 14.5172C26.3274 13.074 23.5989 10.0597 23.1829 9.63286M31.7995 18.7502C31.7995 18.7502 33.2805 21.231 34.4899 22.1656C35.6993 23.1001 37.0287 22.1593 38.9993 19.8001C40.4945 18.0102 41.6647 16.7633 43.2203 14.6461C43.7064 13.9844 44.77 12.7219 45.3117 11.7921M31.7995 18.7502C31.7995 18.7502 33.919 16.5499 35.8796 14.5172C37.2715 13.074 39.9359 10.1253 40.352 9.69846C40.37 9.67998 40.3879 9.66161 40.4058 9.64334M46.2468 37.4069C42.4699 37.0504 40.1006 32.4087 40.1006 27.7735M46.2468 37.4069C46.2402 34.6278 45.7015 30.0569 44.9979 27.0001M46.2468 37.4069C46.248 37.9007 46.2324 38.338 46.1979 38.7001C46.1019 39.7077 45.9279 40.6623 45.5364 41.4532M17.3532 37.4071C21.1301 37.0506 23.4994 32.4089 23.4994 27.7737M17.3532 37.4071C17.3598 34.6281 17.8985 30.057 18.6021 27.0001M17.3532 37.4071C17.352 37.9009 17.3676 38.338 17.4021 38.7001C17.4974 39.7006 17.6696 40.6489 18.0554 41.4365M23.1829 9.63286C25.3348 8.8082 28.3916 8.46631 31.762 8.46631M23.1829 9.63286C22.4122 8.84604 21.7592 8.26604 20.754 8.7045C19.721 9.15505 19.1362 9.53098 18.4873 10.0678C17.8384 10.6046 17.9577 11.2144 18.2589 11.7429C18.2674 11.7578 18.276 11.7728 18.2848 11.7879M31.7995 8.46631C35.184 8.46631 38.2524 8.8111 40.4058 9.64334M40.4058 9.64334C41.1809 8.85121 41.8353 8.26411 42.845 8.70451C43.8779 9.15506 44.4627 9.53099 45.1116 10.0678C45.7605 10.6046 45.6412 11.2144 45.34 11.7429C45.3308 11.7592 45.3213 11.7756 45.3117 11.7921M18.2848 11.7879C17.5887 12.2887 16.8909 12.856 16.1931 13.5001C12.2931 17.1001 9.6219 21.9398 8.69313 25.5001C6.89313 32.4001 7.49313 35.1 5.99313 41.4C5.42068 43.8042 5.09313 47.0999 4.79313 50.6999C4.49313 54.2999 4.76742 58.2057 5.09313 59.4C4.65506 60.1872 4.79312 61.2001 4.79312 62.1001C4.79312 63.0001 5.09298 63.6001 5.99298 63.9001C6.89298 64.2001 12.593 64.5001 13.793 64.2001C14.993 63.9001 15.293 63.3001 15.293 62.1001C15.293 60.9001 14.993 59.4 14.6931 58.2001C17.3786 53.7242 17.6067 47.9664 18.0554 41.4365M45.3117 11.7921C46.0059 12.2918 46.7017 12.8577 47.3975 13.5C51.2975 17.1 53.9687 21.9397 54.8975 25.5C56.6975 32.4 56.0975 35.0999 57.5975 41.3999C58.17 43.8041 58.4975 47.0999 58.7975 50.6999C59.0975 54.2999 58.8232 58.2056 58.4975 59.3999C58.9356 60.1871 59.0977 61.2 59.0977 62.1C59.0977 63 58.4977 63.6 57.5977 63.9C56.6977 64.2 50.9977 64.5 49.7977 64.2C48.5977 63.9 48.2977 63.3 48.2977 62.1C48.2977 60.9 48.5977 59.3999 48.8975 58.2C46.2143 53.728 45.9843 47.9761 45.5364 41.4532" stroke="#1E1E1E" stroke-width="0.6" stroke-linecap="round"/>
</svg>
