<svg width="63" height="129" viewBox="0 0 63 129" fill="none" xmlns="http://www.w3.org/2000/svg">
<path d="M30.9904 50.2725C35.9662 50.9829 40.5763 50.8733 42.317 50.5449C43.4785 50.3257 44.63 49.8985 45.3511 48.942M30.9904 50.2725L31.0026 18.7502M30.9904 50.2725C26.0147 50.9829 21.4299 50.8733 19.6892 50.5449C18.5234 50.3249 17.3677 49.8953 16.6471 48.9314M30.9904 50.2725C33.3949 49.9292 35.8908 49.3944 38.2011 48.6002M31.0026 18.7502C31.0026 18.7502 29.5216 21.231 28.3121 22.1655C27.1027 23.1001 25.7734 22.1593 23.8027 19.8001C22.3076 18.0102 21.1374 16.7633 19.5818 14.6461C19.0949 13.9835 18.0289 12.7182 17.4879 11.7879M31.0026 18.7502C31.0026 18.7502 28.883 16.5499 26.9225 14.5172C25.5305 13.074 22.802 10.0597 22.386 9.63286M31.0026 18.7502C31.0026 18.7502 32.4836 21.231 33.693 22.1656C34.9025 23.1001 36.2318 22.1593 38.2025 19.8001C39.6976 18.0102 40.8678 16.7633 42.4234 14.6461C42.9095 13.9844 43.9731 12.7219 44.5149 11.7921M31.0026 18.7502C31.0026 18.7502 33.1222 16.5499 35.0827 14.5172C36.4746 13.074 39.1391 10.1253 39.5551 9.69846C39.5731 9.67998 39.591 9.66161 39.6089 9.64334M45.8788 40.4287C41.8532 40.3971 39.3037 35.5817 39.3037 30.7735M45.8788 40.4287C46.3233 38.1917 46.5813 34.1824 45.2977 27.0317M45.8788 40.4287C45.6825 41.4162 45.4499 42.0583 45.2975 42.4728C46.4711 45.8118 46.2328 47.7725 45.3511 48.942M16.1274 40.4289C20.153 40.3972 22.7024 35.5819 22.7024 30.7737M16.1274 40.4289C15.6829 38.1919 15.4248 34.1826 16.7085 27.0317M16.1274 40.4289C16.3237 41.4163 16.5563 42.0583 16.7086 42.4728C15.5386 45.8017 15.7719 47.7607 16.6471 48.9314M22.386 9.63286C24.538 8.8082 27.5948 8.46631 30.9651 8.46631M22.386 9.63286C21.6154 8.84604 20.9623 8.26604 19.9571 8.7045C18.9241 9.15505 18.3394 9.53098 17.6904 10.0678C17.0415 10.6046 17.1609 11.2144 17.462 11.7429C17.4705 11.7578 17.4791 11.7728 17.4879 11.7879M31.0026 8.46631C34.3872 8.46631 37.4556 8.8111 39.6089 9.64334M39.6089 9.64334C40.384 8.85121 41.0384 8.26411 42.0481 8.70451C43.081 9.15506 43.6658 9.53099 44.3147 10.0678C44.9637 10.6046 44.8443 11.2144 44.5432 11.7429C44.5339 11.7592 44.5245 11.7756 44.5149 11.7921M17.4879 11.7879C16.7918 12.2887 16.0941 12.856 15.3963 13.5001C11.4963 17.1001 8.82502 21.9398 7.89626 25.5001C6.09626 32.4001 6.69626 35.1 5.19626 41.4C4.62381 43.8042 4.29626 47.0999 3.99626 50.6999C3.69626 54.2999 3.97055 58.2057 4.29626 59.4C3.85819 60.1872 3.99624 61.2001 3.99624 62.1001C3.99624 63.0001 4.29611 63.6001 5.19611 63.9001C6.09611 64.2001 11.7961 64.5001 12.9961 64.2001C14.1961 63.9001 14.4961 63.3001 14.4961 62.1001C14.4961 60.9001 14.1961 59.4 13.8963 58.2001C15.498 55.5305 16.2255 52.4049 16.6471 48.9314M44.5149 11.7921C45.209 12.2918 45.9048 12.8577 46.6006 13.5C50.5006 17.1 53.1719 21.9397 54.1006 25.5C55.9006 32.4 55.3006 35.0999 56.8006 41.3999C57.3731 43.8041 57.7006 47.0999 58.0006 50.6999C58.3006 54.2999 58.0263 58.2056 57.7006 59.3999C58.1387 60.1871 58.3008 61.2 58.3008 62.1C58.3008 63 57.7008 63.6 56.8008 63.9C55.9008 64.2 50.2008 64.5 49.0008 64.2C47.8008 63.9 47.5008 63.3 47.5008 62.1C47.5008 60.9 47.8008 59.3999 48.1006 58.2C46.5006 55.5332 45.7729 52.4112 45.3511 48.942" stroke="#1E1E1E" stroke-width="0.6" stroke-linecap="round"/>
</svg>
