<svg width="63" height="129" viewBox="0 0 63 129" fill="none" xmlns="http://www.w3.org/2000/svg">
<path d="M15.9039 26.9998C15.8531 32.0822 15.4005 39.4262 14.7037 42.5998C13.9679 45.9504 13.9501 48.7629 14.1594 51.2216M46.5068 26.9998C46.5577 32.0822 46.4099 39.4262 47.1068 42.5998C47.8357 45.9193 47.86 48.7105 47.6568 51.153M33.4306 61.3197C36.2933 62.1548 45.0068 62.5531 45.9068 62.4764C46.6513 62.4131 47.3957 61.9916 47.7539 61.1687M33.4306 61.3197C35.5292 60.9733 37.4706 60.5391 39.0036 59.9998M33.4306 61.3197C32.7045 61.4396 31.9596 61.549 31.2062 61.6486M31.2062 61.6486C24.6873 62.5105 17.5387 62.6407 16.5039 62.5093C15.78 62.4174 15.1562 62.249 14.6973 61.9306M31.2062 61.6486L31.2055 18.7497M31.2055 18.7497C31.2053 16.4998 29.7055 14.9998 28.2055 13.4998C26.7055 11.9998 24.6055 10.7998 22.8055 10.4998M31.2055 18.7497C31.2057 16.4998 32.7055 14.9998 34.2055 13.4998C35.7055 11.9998 37.8055 10.7998 39.6055 10.4998M31.2055 18.7497C31.772 18.1428 32.599 17.6162 33.5463 17.1638M31.2055 18.7497C30.6398 18.1436 29.8143 17.6177 28.8687 17.1657M47.6568 51.153C44.1112 50.5213 41.9069 46.0443 41.9069 41.5734M47.6568 51.153C47.5255 52.7315 47.2992 54.1643 47.1067 55.4998C47.5956 56.9663 48.1418 59.3998 47.9243 60.5998C47.8867 60.8072 47.8287 60.9967 47.7539 61.1687M14.1594 51.2216C18.0525 51.0131 20.5056 46.2899 20.5056 41.5734M14.1594 51.2216C14.2915 52.773 14.5141 54.1837 14.7038 55.4998C14.236 56.9031 13.8039 58.7998 13.869 60.2998C13.9027 61.0759 14.2053 61.5894 14.6973 61.9306M28.8687 17.1657C28.2687 19.7157 27.6055 27.6598 27.6055 32.6998M28.8687 17.1657C26.3039 15.9399 22.855 15.2585 21.3055 14.9998C19.8305 14.7536 17.2148 14.5596 15.7585 13.3542M33.5463 17.1638C34.1463 19.7138 34.8055 27.6598 34.8055 32.6998M33.5463 17.1638C36.1107 15.9391 39.5568 15.2583 41.1055 14.9998C42.5791 14.7538 45.1913 14.56 46.6484 13.3576M15.7585 13.3542C15.1208 12.8264 14.7055 12.1047 14.7055 11.0998C14.7055 7.7998 18.6055 5.3998 21.3055 4.4998C24.0055 3.5998 26.6166 3.2998 31.2055 3.2998C35.7943 3.2998 38.4055 3.59979 41.1055 4.49979C43.8055 5.39979 47.7055 7.79979 47.7055 11.0998C47.7055 12.1068 47.2883 12.8295 46.6484 13.3576M15.7585 13.3542C15.7055 13.4023 15.6524 13.4508 15.5994 13.4998C11.6994 17.0998 9.02815 21.9395 8.09938 25.4998C6.29938 32.3998 6.89938 35.0997 5.39938 41.3997C4.82693 43.8039 4.49938 47.0997 4.19938 50.6997C3.89938 54.2997 4.17367 58.2054 4.49938 59.3997C4.06131 60.1869 4.19937 61.1998 4.19937 62.0998C4.19937 62.9998 4.49923 63.5998 5.39923 63.8998C6.29923 64.1998 11.9992 64.4998 13.1992 64.1998C14.3992 63.8998 14.6992 63.2998 14.6992 62.0998C14.6992 62.044 14.6986 61.9876 14.6973 61.9306M46.6484 13.3576C46.7002 13.4045 46.752 13.4519 46.8038 13.4997C50.7038 17.0997 53.375 21.9394 54.3038 25.4997C56.1038 32.3997 55.5038 35.0996 57.0038 41.3996C57.5762 43.8038 57.9038 47.0996 58.2038 50.6996C58.5038 54.2996 58.2295 58.2053 57.9038 59.3996C58.3418 60.1868 58.5039 61.1997 58.5039 62.0997C58.5039 62.9997 57.9039 63.5997 57.0039 63.8997C56.1039 64.1997 50.4039 64.4997 49.2039 64.1997C48.0039 63.8997 47.7039 63.2997 47.7039 62.0997C47.7039 61.8045 47.7221 61.4912 47.7539 61.1687" stroke="#1E1E1E" stroke-width="0.6" stroke-linecap="round"/>
</svg>
