<svg width="16" height="16" viewBox="0 0 16 16" fill="none" xmlns="http://www.w3.org/2000/svg">
<path d="M0.0546875 15.9444V12.4861L12.1241 0.416688C12.2491 0.300994 12.3891 0.214188 12.5443 0.156272C12.6993 0.098355 12.8648 0.069397 13.0407 0.069397C13.1981 0.069397 13.3497 0.0948827 13.4955 0.145855C13.6414 0.196827 13.7814 0.280161 13.9157 0.395855L15.6032 2.08335C15.7282 2.21766 15.8162 2.3612 15.8672 2.51398C15.918 2.66676 15.9434 2.82183 15.9434 2.97919C15.9434 3.14586 15.9145 3.30787 15.8568 3.46523C15.7989 3.62273 15.712 3.75933 15.5964 3.87502L3.51302 15.9444H0.0546875ZM13.0616 3.93065L14.013 2.96523L13.0476 2.0069L12.0824 2.95148L13.0616 3.93065Z" fill="#1E1E1E"/>
</svg>
