<svg width="14" height="14" viewBox="0 0 14 14" fill="none" xmlns="http://www.w3.org/2000/svg">
<path d="M6.99877 9.96926C7.17883 9.96926 7.32981 9.90835 7.45173 9.78653C7.57355 9.66461 7.63446 9.51362 7.63446 9.33357V7.05259C7.63446 6.87244 7.57355 6.72145 7.45173 6.59963C7.32981 6.47781 7.17883 6.4169 6.99877 6.4169C6.81872 6.4169 6.66773 6.47781 6.54581 6.59963C6.42399 6.72145 6.36308 6.87244 6.36308 7.05259V9.33357C6.36308 9.51362 6.42399 9.66461 6.54581 9.78653C6.66773 9.90835 6.81872 9.96926 6.99877 9.96926ZM6.99877 5.31994C7.18378 5.31994 7.3389 5.25738 7.46412 5.13226C7.58925 5.00703 7.65181 4.85192 7.65181 4.6669C7.65181 4.48189 7.58925 4.32677 7.46412 4.20155C7.3389 4.07642 7.18378 4.01386 6.99877 4.01386C6.81376 4.01386 6.65864 4.07642 6.53342 4.20155C6.40829 4.32677 6.34573 4.48189 6.34573 4.6669C6.34573 4.85192 6.40829 5.00703 6.53342 5.13226C6.65864 5.25738 6.81376 5.31994 6.99877 5.31994ZM6.99877 12.9521C6.17326 12.9521 5.39869 12.796 4.67506 12.4837C3.95134 12.1714 3.32183 11.7477 2.78652 11.2125C2.25131 10.6772 1.82757 10.0477 1.51529 9.32394C1.20301 8.60032 1.04688 7.82575 1.04688 7.00024C1.04688 6.17472 1.20301 5.40015 1.51529 4.67653C1.82757 3.9528 2.25131 3.32329 2.78652 2.78799C3.32183 2.25278 3.95134 1.82903 4.67506 1.51676C5.39869 1.20448 6.17326 1.04834 6.99877 1.04834C7.82428 1.04834 8.59885 1.20448 9.32248 1.51676C10.0462 1.82903 10.6757 2.25278 11.211 2.78799C11.7462 3.32329 12.17 3.9528 12.4822 4.67653C12.7945 5.40015 12.9507 6.17472 12.9507 7.00024C12.9507 7.82575 12.7945 8.60032 12.4822 9.32394C12.17 10.0477 11.7462 10.6772 11.211 11.2125C10.6757 11.7477 10.0462 12.1714 9.32248 12.4837C8.59885 12.796 7.82428 12.9521 6.99877 12.9521Z" fill="#BDBDBD"/>
</svg>
