<svg width="180" height="124" viewBox="0 0 180 124" fill="none" xmlns="http://www.w3.org/2000/svg">
<path d="M90.2301 12.3301C86.7268 12.3301 82.2893 11.6294 79.7191 19.3372L63.6173 64.3683C57.7963 67.2575 44.8534 73.6937 41.0804 75.5292C36.3641 77.8236 35.5276 80.3312 35.5276 82.8649C35.5276 85.3986 35.3892 88.4074 41.0804 91.2578C46.7716 94.1082 70.0497 105.035 75.5922 107.727C78.2146 109.001 84.1338 111.762 90.2301 111.684C97.0186 111.599 104.027 108.52 106.947 106.935C112.489 103.926 136.534 92.1189 140.235 90.3562C143.937 88.5936 144.29 85.5971 144.466 83.3056C144.642 81.0141 142.527 77.6857 140.235 76.6075C138.402 75.7449 123.33 68.6353 116.455 65.3519L99.5723 19.3372C98.4045 15.8345 93.7334 12.3301 90.2301 12.3301Z" fill="#FFBE5B"/>
<path d="M106.268 37.3057L111.002 51.234C102.881 56.0546 96.6584 57.1964 89.4343 57.1964C82.5471 57.1964 74.5917 55.4203 68.6289 51.234C68.6289 51.234 71.4202 41.4658 73.2698 37.3057C79.0318 40.4509 85.4171 40.5114 90.1955 40.4509C95.1521 40.3882 100.344 40.4509 106.268 37.3057Z" fill="#F7F6EF"/>
<path d="M90.2329 92.6729C113.028 92.6729 120.128 83.4865 120.829 78.8933L113.577 57.8857C110.18 60.7515 104.676 62.4582 99.5 63.388C99.5 63.388 99.5 71.499 90.2329 71.499C80.9658 71.499 79.5 63.1467 79.5 63.1467C73.8282 61.8376 69.13 59.6772 66.1295 57.886L58.9375 78.8933C59.8714 83.4865 67.4379 92.6729 90.2329 92.6729Z" fill="white"/>
<path d="M63.6173 64.3683C57.7963 67.2575 44.8534 73.6937 41.0804 75.5292C36.3641 77.8236 35.5276 80.3312 35.5276 82.8649C35.5276 85.3986 35.3892 88.4074 41.0804 91.2578C46.7716 94.1082 70.0497 105.035 75.5922 107.727C78.2146 109.001 84.1338 111.762 90.2301 111.684C97.0186 111.599 104.027 108.52 106.947 106.935C112.489 103.926 136.534 92.1189 140.235 90.3562C143.937 88.5936 144.29 85.5971 144.466 83.3056C144.642 81.0141 142.527 77.6857 140.235 76.6075C138.402 75.7449 123.33 68.6353 116.455 65.3519M58.9347 78.8932C65.0061 61.6105 77.663 25.5035 79.7191 19.3372C82.2893 11.6294 86.7268 12.3301 90.2301 12.3301C93.7334 12.3301 98.4045 15.8345 99.5723 19.3372C100.507 22.1393 114.131 60.2087 120.826 78.8932C120.125 83.4864 113.025 92.6728 90.2301 92.6728C67.4352 92.6728 59.8686 83.4864 58.9347 78.8932Z" stroke="#1E1E1E" stroke-width="2" stroke-linecap="round"/>
<ellipse cx="90.0039" cy="47.4123" rx="1.19141" ry="1.14859" fill="#1E1E1E"/>
<path d="M83.4575 52.1387C82.4737 52.5411 84.1276 53.2974 85.151 53.568C86.7694 53.996 89.4041 53.9702 91.3737 53.8668C93.3548 53.7628 95.2458 53.4726 96.1983 52.9295C96.615 52.6919 97.2087 52.2225 96.5725 52.0332" stroke="#1E1E1E" stroke-width="2" stroke-linecap="round"/>
<ellipse cx="84.5071" cy="44.0136" rx="1.35864" ry="1.64542" fill="#1E1E1E"/>
<ellipse cx="95.0071" cy="44.0136" rx="1.35864" ry="1.64542" fill="#1E1E1E"/>
<path d="M66.5 57.999C68 59.499 72.7 62.599 79.5 62.999C80 67.999 85 71.499 90 71.499C95 71.499 98.5 68.499 99.5 62.999C101.833 62.6657 107.8 61.199 113 57.999" stroke="#1E1E1E" stroke-width="2" stroke-linecap="round" stroke-linejoin="round"/>
<path d="M66.5 64.5C68.3333 65.5 73.3 68.6 78.5 69M101 69C103.5 68.5 109.3 66.1 112.5 64.5M65.5 69C69 71 78.8 76.4 90 76C101.2 75.6 110.333 70.6667 113.5 69M64 74C67.6667 76.3333 78 82.3 90 81.5C102 80.7 111.5 77.5 115 74M62.5 78.5C67.5 83.5 79.6 86.9 90 86.5C100.4 86.1 110 84 116.5 78.5" stroke="#9FB1D4" stroke-width="2" stroke-linecap="round"/>
<path d="M111 68.5C108.2 70.5 103.167 72 101 72.5C101 76.5 103 83 108.5 80.5C112.9 78.5 113 73.5 111 68.5Z" fill="white" stroke="#1E1E1E" stroke-width="2" stroke-linecap="round" stroke-linejoin="round"/>
</svg>
