<svg width="72" height="74" viewBox="0 0 56 56" fill="none" xmlns="http://www.w3.org/2000/svg">
<path d="M27.4252 47.1873C29.7153 47.8553 36.7545 48.1627 37.4745 48.1014C38.0289 48.0542 38.6356 47.7588 38.9407 47.1873C38.9228 47.3988 38.9128 47.6044 38.9128 47.8001C38.9128 48.7601 39.1528 49.2401 40.1128 49.4801C41.0728 49.7201 45.6328 49.4801 46.3528 49.2401C47.0728 49.0001 47.5528 48.5201 47.5528 47.8001C47.5528 47.0801 47.4231 46.2698 47.0727 45.64C47.3333 44.6846 47.5527 41.56 47.3127 38.68C47.0727 35.8 46.8106 33.1634 46.3527 31.24C45.1527 26.2 45.4873 25.7979 44.5565 21.2104C43.6256 16.6228 42.2042 13.6844 40.5921 11.499C38.9799 9.31366 36.9805 7.67669 35.8686 6.85767C34.7567 6.03865 33.6988 5.8331 33.0768 6.03865C31.3477 5.22476 28.6526 4.89307 25.6834 4.89307C22.7212 4.89307 20.0618 5.22319 18.3324 6.03288C17.7151 5.83543 16.7679 6.03288 15.514 6.91333C14.2601 7.79379 12.6121 9.42114 11.1074 11.2124C9.60272 13.0037 7.97408 15.6719 7.23107 18.5201C5.79107 24.0401 6.27107 26.2 5.07107 31.24C4.61311 33.1634 4.35107 35.8 4.11107 38.68C3.87107 41.56 4.0905 44.6846 4.35107 45.64C4.00061 46.2698 4.11106 47.0801 4.11106 47.8001C4.11106 48.5201 4.35095 49.0001 5.07095 49.2401C5.79095 49.4801 10.3509 49.7201 11.3109 49.4801C12.2709 49.2401 12.5121 48.6283 12.5121 47.6683C12.8787 47.9207 13.3758 48.0545 13.9522 48.1277C14.872 48.2445 21.8292 48.1029 27.4252 47.1873Z" fill="white"/>
<mask id="mask0_1678_10091" style="mask-type:alpha" maskUnits="userSpaceOnUse" x="4" y="4" width="44" height="46">
<path d="M27.4252 47.1873C29.7153 47.8553 36.7545 48.1627 37.4745 48.1014C38.0289 48.0542 38.6356 47.7588 38.9407 47.1873C38.9228 47.3988 38.9128 47.6044 38.9128 47.8001C38.9128 48.7601 39.1528 49.2401 40.1128 49.4801C41.0728 49.7201 45.6328 49.4801 46.3528 49.2401C47.0728 49.0001 47.5528 48.5201 47.5528 47.8001C47.5528 47.0801 47.4231 46.2698 47.0727 45.64C47.3333 44.6846 47.5527 41.56 47.3127 38.68C47.0727 35.8 46.8106 33.1634 46.3527 31.24C45.1527 26.2 45.4873 25.7979 44.5565 21.2104C43.6256 16.6228 42.2042 13.6844 40.5921 11.499C38.9799 9.31366 36.9805 7.67669 35.8686 6.85767C34.7567 6.03865 33.6988 5.8331 33.0768 6.03865C31.3477 5.22476 28.6526 4.89307 25.6834 4.89307C22.7212 4.89307 20.0618 5.22319 18.3324 6.03288C17.7151 5.83543 16.7679 6.03288 15.514 6.91333C14.2601 7.79379 12.6121 9.42114 11.1074 11.2124C9.60272 13.0037 7.97408 15.6719 7.23107 18.5201C5.79107 24.0401 6.27107 26.2 5.07107 31.24C4.61311 33.1634 4.35107 35.8 4.11107 38.68C3.87107 41.56 4.0905 44.6846 4.35107 45.64C4.00061 46.2698 4.11106 47.0801 4.11106 47.8001C4.11106 48.5201 4.35095 49.0001 5.07095 49.2401C5.79095 49.4801 10.3509 49.7201 11.3109 49.4801C12.2709 49.2401 12.5121 48.6283 12.5121 47.6683C12.8787 47.9207 13.3758 48.0545 13.9522 48.1277C14.872 48.2445 21.8292 48.1029 27.4252 47.1873Z" fill="white"/>
</mask>
<g mask="url(#mask0_1678_10091)">
<path d="M8.34766 39.9449C8.98015 36.6741 11.5864 33.8784 13.7981 32.1794C15.3616 30.9784 16.9186 30.4721 18.7411 30.4433C20.1529 30.421 20.8324 30.5422 21.673 32.0387C22.5228 33.5516 23.0592 35.322 23.5619 37.0475C24.6857 40.9054 28.1005 38.0716 29.9332 36.4376C31.8993 34.6846 33.8467 32.8921 35.7971 31.112C37.1089 29.9147 38.4464 28.2047 39.9789 27.4873" stroke="#F8A426" stroke-width="3.6" stroke-linecap="round"/>
</g>
<path d="M13.4722 19.7201C13.4315 23.786 13.0695 29.6612 12.512 32.2001C11.552 36.572 12.1198 39.7985 12.5121 42.5201C12.1378 43.6427 11.7922 45.1601 11.8443 46.3601C11.8714 46.9836 12.1154 47.3953 12.5121 47.6683C12.8787 47.9207 13.3758 48.0545 13.9522 48.1277C14.872 48.2445 21.8292 48.1029 27.4252 47.1873M37.9545 19.7201C37.9952 23.786 37.877 29.6612 38.4345 32.2001C39.3945 36.572 38.8267 39.7985 38.4344 42.5201C38.8255 43.6933 39.2625 45.6401 39.0885 46.6001C38.9145 47.5601 38.1945 48.0401 37.4745 48.1014C36.7545 48.1627 29.7153 47.8553 27.4252 47.1873M27.4252 47.1873C29.1302 46.9083 30.7089 46.5574 31.952 46.1201M12.5109 47.8001C12.5109 48.7601 12.2709 49.2401 11.3109 49.4801C10.3509 49.7201 5.79095 49.4801 5.07095 49.2401C4.35095 49.0001 4.11106 48.5201 4.11106 47.8001C4.11106 47.0801 4.00061 46.2698 4.35107 45.64C4.0905 44.6846 3.87107 41.56 4.11107 38.68C4.35107 35.8 4.61311 33.1634 5.07107 31.24C6.27107 26.2 5.79107 24.0401 7.23107 18.5201C7.97408 15.6719 9.60272 13.0037 11.1074 11.2124C12.6121 9.42114 14.2601 7.79379 15.514 6.91333C16.7679 6.03288 17.7151 5.83543 18.3324 6.03288M25.7121 10.36C22.5912 10.36 20.6161 8.52021 19.6822 7.14955C19.27 6.54463 18.82 6.18887 18.3324 6.03288M25.7148 10.36C28.8356 10.36 30.8108 8.52021 31.7447 7.14955C32.1518 6.55197 32.596 6.19753 33.0768 6.03865M18.3324 6.03288C20.0618 5.22319 22.7212 4.89307 25.6834 4.89307C28.6526 4.89307 31.3477 5.22476 33.0768 6.03865M33.0768 6.03865C33.6988 5.8331 34.7567 6.03865 35.8686 6.85767C36.9805 7.67669 38.9799 9.31366 40.5921 11.499C42.2042 13.6844 43.6257 16.6228 44.5565 21.2104C45.4873 25.7979 45.1527 26.2 46.3527 31.24C46.8106 33.1634 47.0727 35.8 47.3127 38.68C47.5527 41.56 47.3333 44.6846 47.0727 45.64C47.4231 46.2698 47.5528 47.0801 47.5528 47.8001C47.5528 48.5201 47.0728 49.0001 46.3528 49.2401C45.6328 49.4801 41.0728 49.7201 40.1128 49.4801C39.1528 49.2401 38.9128 48.7601 38.9128 47.8001C38.9128 47.6044 38.9228 47.3988 38.9407 47.1873" stroke="#1E1E1E" stroke-linecap="round"/>
<g filter="url(#filter0_di_1678_10091)">
<path d="M32.921 52.4459L26.5061 46.031L47.8993 24.6684C48.8367 23.7323 50.3554 23.7329 51.2922 24.6697L54.3129 27.6904C55.2507 28.6281 55.2501 30.1487 54.3117 31.0857L32.921 52.4459Z" fill="white"/>
<path d="M25.0549 55.1852C24.2649 55.4604 23.4915 54.687 23.7666 53.8969L26.506 46.031L32.9209 52.4458L25.0549 55.1852Z" fill="#F8A426"/>
<path d="M24.8883 54.7128C24.4932 54.8504 24.099 54.4562 24.2366 54.0611L26.9382 46.3035L48.255 25.0222C48.9972 24.2811 50.1995 24.2815 50.9411 25.0232L53.9619 28.0439C54.7042 28.7863 54.7038 29.99 53.961 30.7318C53.9609 30.7318 53.9609 30.7319 53.9609 30.7319L32.6463 52.011L24.8883 54.7128Z" stroke="#1E1E1E"/>
</g>
<defs>
<filter id="filter0_di_1678_10091" x="7.57903" y="9.85479" width="63.5685" height="63.5314" filterUnits="userSpaceOnUse" color-interpolation-filters="sRGB">
<feFlood flood-opacity="0" result="BackgroundImageFix"/>
<feColorMatrix in="SourceAlpha" type="matrix" values="0 0 0 0 0 0 0 0 0 0 0 0 0 0 0 0 0 0 127 0" result="hardAlpha"/>
<feOffset dy="2.016"/>
<feGaussianBlur stdDeviation="8.064"/>
<feComposite in2="hardAlpha" operator="out"/>
<feColorMatrix type="matrix" values="0 0 0 0 0 0 0 0 0 0 0 0 0 0 0 0 0 0 0.12 0"/>
<feBlend mode="normal" in2="BackgroundImageFix" result="effect1_dropShadow_1678_10091"/>
<feBlend mode="normal" in="SourceGraphic" in2="effect1_dropShadow_1678_10091" result="shape"/>
<feColorMatrix in="SourceAlpha" type="matrix" values="0 0 0 0 0 0 0 0 0 0 0 0 0 0 0 0 0 0 127 0" result="hardAlpha"/>
<feOffset dy="-2.016"/>
<feGaussianBlur stdDeviation="4.032"/>
<feComposite in2="hardAlpha" operator="arithmetic" k2="-1" k3="1"/>
<feColorMatrix type="matrix" values="0 0 0 0 0 0 0 0 0 0 0 0 0 0 0 0 0 0 0.08 0"/>
<feBlend mode="normal" in2="shape" result="effect2_innerShadow_1678_10091"/>
</filter>
</defs>
</svg>
