<svg width="25" height="24" viewBox="0 0 25 24" fill="none" xmlns="http://www.w3.org/2000/svg">
<path d="M7.63731 12.1376L10.3041 14.8043C10.5279 15.0283 10.6366 15.2936 10.6303 15.6001C10.624 15.9066 10.5089 16.1718 10.2851 16.3958C10.0611 16.607 9.79581 16.7158 9.48931 16.7221C9.18281 16.7284 8.91765 16.6197 8.69381 16.3958L4.09956 11.8018C3.87173 11.5738 3.75781 11.3066 3.75781 11.0001C3.75781 10.6936 3.87173 10.4263 4.09956 10.1983L8.69381 5.60435C8.90498 5.39318 9.16698 5.2876 9.47981 5.2876C9.79265 5.2876 10.0611 5.39318 10.2851 5.60435C10.5089 5.82835 10.6208 6.09676 10.6208 6.4096C10.6208 6.72243 10.5089 6.99085 10.2851 7.21485L7.63731 9.8626H16.5671C17.9862 9.8626 19.1973 10.364 20.2003 11.3668C21.2031 12.3698 21.7046 13.5809 21.7046 15.0001V18.0658C21.7046 18.385 21.5948 18.6544 21.3753 18.8741C21.1556 19.0936 20.8862 19.2033 20.5671 19.2033C20.2479 19.2033 19.9785 19.0936 19.7588 18.8741C19.5393 18.6544 19.4296 18.385 19.4296 18.0658V15.0001C19.4296 14.2026 19.1518 13.5262 18.5963 12.9708C18.041 12.4153 17.3646 12.1376 16.5671 12.1376H7.63731Z" fill="#1E1E1E"/>
</svg>
