<svg width="14" height="16" viewBox="0 0 14 16" fill="none" xmlns="http://www.w3.org/2000/svg">
<path d="M6.16536 15.4585C4.48481 15.2502 3.09245 14.5175 1.98828 13.2606C0.884115 12.0036 0.332031 10.5279 0.332031 8.8335C0.332031 7.91683 0.512587 7.03836 0.873698 6.19808C1.23481 5.3578 1.7487 4.62516 2.41536 4.00016L3.60286 5.18766C3.07509 5.65988 2.67578 6.2085 2.40495 6.8335C2.13411 7.4585 1.9987 8.12516 1.9987 8.8335C1.9987 10.0557 2.38759 11.1356 3.16536 12.0731C3.94314 13.0106 4.94314 13.5835 6.16536 13.7918V15.4585ZM7.83203 15.4585V13.7918C9.04036 13.5696 10.0369 12.9932 10.8216 12.0627C11.6063 11.1321 11.9987 10.0557 11.9987 8.8335C11.9987 7.44461 11.5126 6.26405 10.5404 5.29183C9.56814 4.31961 8.38759 3.8335 6.9987 3.8335H6.9362L7.85286 4.75016L6.6862 5.91683L3.76953 3.00016L6.6862 0.0834961L7.85286 1.25016L6.9362 2.16683H6.9987C8.85981 2.16683 10.4362 2.81266 11.7279 4.10433C13.0195 5.396 13.6654 6.97238 13.6654 8.8335C13.6654 10.5141 13.1133 11.9828 12.0091 13.2397C10.9049 14.4967 9.51259 15.2363 7.83203 15.4585Z" fill="#1E1E1E"/>
</svg>
