<svg width="25" height="24" viewBox="0 0 25 24" fill="none" xmlns="http://www.w3.org/2000/svg">
<path d="M17.8236 12.1376L15.1569 14.8043C14.933 15.0283 14.8243 15.2936 14.8306 15.6001C14.837 15.9066 14.952 16.1718 15.1759 16.3958C15.3999 16.607 15.6651 16.7158 15.9716 16.7221C16.2781 16.7284 16.5433 16.6197 16.7671 16.3958L21.3614 11.8018C21.5892 11.5738 21.7031 11.3066 21.7031 11.0001C21.7031 10.6936 21.5892 10.4263 21.3614 10.1983L16.7671 5.60435C16.556 5.39318 16.294 5.2876 15.9811 5.2876C15.6683 5.2876 15.3999 5.39318 15.1759 5.60435C14.952 5.82835 14.8401 6.09676 14.8401 6.4096C14.8401 6.72243 14.952 6.99085 15.1759 7.21485L17.8236 9.8626H8.89388C7.47471 9.8626 6.26362 10.364 5.26062 11.3668C4.25779 12.3698 3.75637 13.5809 3.75637 15.0001V18.0658C3.75637 18.385 3.86613 18.6544 4.08562 18.8741C4.30529 19.0936 4.57471 19.2033 4.89388 19.2033C5.21304 19.2033 5.48246 19.0936 5.70213 18.8741C5.92163 18.6544 6.03137 18.385 6.03137 18.0658V15.0001C6.03137 14.2026 6.30912 13.5262 6.86462 12.9708C7.41996 12.4153 8.09637 12.1376 8.89388 12.1376H17.8236Z" fill="#1E1E1E"/>
</svg>
