<svg width="310" height="170" viewBox="0 0 310 170" fill="none" xmlns="http://www.w3.org/2000/svg">
<path d="M81.2021 88.8319L78.2865 82.2905C76.3846 78.0233 77.8137 73.0065 81.6788 70.3821L82.4478 69.86C86.2563 67.2741 87.3782 62.1617 85.0025 58.2187V58.2187C83.2591 55.325 83.3562 51.6819 85.2514 48.8853L85.7812 48.1035C87.1362 46.1041 87.6575 43.6794 87.6968 41.2645C87.946 25.9882 100.88 18.1076 111.774 19.0205C119.914 18.5597 132.308 25.9644 132.651 40.9998C132.71 43.5847 133.264 46.1815 134.714 48.3219L135.15 48.9643C137.042 51.7567 137.312 55.343 135.86 58.3875C133.892 62.5125 135.139 67.4539 138.829 70.1512L139.856 70.9019C143.223 73.3636 144.915 77.5131 144.229 81.6273L144.212 81.7264V81.7264C143.931 83.4151 143.06 84.9287 142.177 86.3953L138.829 91.9556" stroke="#1E1E1E" stroke-width="1.5" stroke-linecap="round"/>
<path d="M96.5023 31C94.502 34 93.9508 39.9871 98.0023 41C103.002 42.2499 105.003 38.5 105.003 38.5C105.003 38.5 106.502 42.5 110.502 42.5C114.502 42.5 116.503 39.5 116.503 39.5C116.503 39.5 118.203 44 121.003 44" stroke="#1E1E1E" stroke-width="1.5" stroke-linecap="round" stroke-linejoin="round"/>
<path d="M101 54L101 56.3535" stroke="#1E1E1E" stroke-width="1.76" stroke-linecap="round"/>
<path d="M98.3445 49.6864C98.3445 50.0635 98.264 50.2777 98.1794 50.3838C98.1232 50.4544 97.9903 50.5758 97.5796 50.572C97.1592 50.5682 97.0206 50.4447 96.9629 50.3729C96.8801 50.2699 96.8 50.0624 96.8 49.6864C96.8 49.2829 96.8729 49.0881 96.9436 48.9976C96.9855 48.944 97.1136 48.8114 97.5904 48.8006C98.0441 48.7903 98.1575 48.9193 98.1953 48.9689C98.2709 49.068 98.3445 49.2806 98.3445 49.6864Z" fill="#1E1E1E" stroke="#1E1E1E" stroke-width="1.6"/>
<path d="M106.37 50.6355C106.37 51.0126 106.451 51.2268 106.535 51.3329C106.592 51.4035 106.725 51.5249 107.135 51.5211C107.556 51.5173 107.694 51.3938 107.752 51.322C107.835 51.219 107.915 51.0115 107.915 50.6355C107.915 50.2321 107.842 50.0373 107.771 49.9468C107.729 49.8932 107.601 49.7606 107.124 49.7498C106.671 49.7395 106.557 49.8685 106.519 49.9181C106.444 50.0172 106.37 50.2298 106.37 50.6355Z" fill="#1E1E1E" stroke="#1E1E1E" stroke-width="1.6"/>
<path d="M103 69.5L104.228 65.2102C100 65.2102 92 60.7103 92 52.5C92 48.1 94 41.3333 95 38.5" stroke="#1E1E1E" stroke-width="1.5" stroke-linecap="round"/>
<path d="M114.499 69L113.642 65.2101C116.309 64.0434 121.651 61.857 121.651 53.6467C122.846 53.4944 125.281 52.7867 125.238 48.5913C125.195 44.3959 120.999 44 120.999 44" stroke="#1E1E1E" stroke-width="1.5" stroke-linecap="round"/>
<path d="M95.0022 74.0004C89.5022 77.0004 81.5022 85.0004 79.5022 97.5004C76.7022 111.9 86.6689 119.834 92.0022 122L112.002 121L116.645 122C123.2 124.278 133.737 123 136.237 122C138.737 121 143.502 119 143.502 113C143.502 107 141.002 96.5004 135.002 86.5004C130.202 78.5004 123.336 74.8337 120.502 74.0004C118.902 70.4004 116.502 69.8337 115.502 70.0003L105.502 79.5003C105.502 79.5003 103.502 71.0003 102.002 70.0003C100.502 69.0003 96.2774 72.2186 96.2774 73.052L95.0022 74.0004Z" fill="#F2EABE"/>
<path d="M105.5 80.0004L103 69.498C98.2192 69.498 96.1737 72.1331 96.1737 73.6741M105.5 80.0004C105.5 80.0004 103.488 85.385 99.8784 84.9764C96.2688 84.5677 96.1737 78.4741 96.1737 73.6741M105.5 80.0004L114.698 69.498C115.498 69.898 120.559 70.5487 120.5 74.5004M105.5 80.0004C105.5 80.0004 106.375 86.4679 109.764 86.4679C113.153 86.4679 120.441 78.4522 120.5 74.5004M96.1737 73.6741C86.4477 78.6668 81.3333 87.6671 80 93.5005M120.5 74.5004C132.317 78.2233 145 97.0004 142 116.5M140 120C138 122 126.131 125.885 116.5 121.5C116.5 121.5 100.5 131 99 123C97.8 116.6 105.924 112.895 111.091 111.562C115.906 105.929 122.5 104 128.5 104M122.5 91.5005C122.167 93.0005 121.542 100.131 121.542 104.931" stroke="#1E1E1E" stroke-width="1.6" stroke-linecap="round" stroke-linejoin="round"/>
<path d="M88.5022 98.5002L92.955 122.433C95.6216 122.6 101.29 122.433 104.09 122.433C107.59 122.433 117.568 120.758 120.068 123.258C122.068 125.258 119.169 126.834 118.002 127C116.335 127.334 111.302 128.4 104.502 130C96.002 132 90.002 131.5 87.502 131.5C85.002 131.5 62.502 128.5 54.502 127.5C48.102 126.7 47.1686 124.5 47.502 123.5C45.6687 117 41.6022 102.6 40.0022 97.0002C38.4022 91.4002 43.0022 90.6669 45.5022 91.0002C54.8355 91.8336 75.0022 93.6002 81.0022 94.0002C87.0022 94.4002 88.5022 97.1669 88.5022 98.5002Z" fill="#E9E9E9"/>
<path d="M59.5 109C59.5 106.5 61 106 63.5 107.5C65 107 67 106.5 68.5 108.5C70 110.5 69 113 68 114C67 115 65 114.833 64 114C61.5 115 59.5 111.5 59.5 109Z" fill="#BDBDBD"/>
<path d="M117.355 121.73C123.367 123.884 120.502 126 119.502 126.5C118.502 127 111.502 128.5 107.002 129.5C102.502 130.5 94.002 132.5 86.002 131.5C79.602 130.7 70.1695 129.685 60.502 128.5C50.8344 127.315 48.0017 127.5 45.0017 116.5C42.0017 105.5 42.5017 106 41.0017 100.5C39.5017 94.9999 38.0017 90.4999 46.5017 90.9999C53.3017 91.3999 73.6685 93.1666 83.002 94C84.5073 94.3333 88.002 95 89.002 101L93.0566 122.514H98.762" stroke="#1E1E1E" stroke-width="1.6" stroke-linecap="round" stroke-linejoin="round"/>
<path d="M99.0987 123C97.8987 116.6 108.909 111 113.099 111C117.288 111 119.728 112.989 120.028 115.203C120.329 117.418 118.399 120.5 116.599 121.5C116.599 121.5 100.599 131 99.0987 123Z" fill="white"/>
<path d="M113.099 111C107.932 112.333 97.8987 116.6 99.0987 123C100.599 131 116.599 121.5 116.599 121.5" stroke="#1E1E1E" stroke-width="1.6" stroke-linecap="round" stroke-linejoin="round"/>
<path d="M116.689 121.472C121.343 118.094 122.273 111.462 112.898 111.075" stroke="#1E1E1E" stroke-width="1.6" stroke-linecap="round" stroke-linejoin="round"/>
<path d="M193.503 81C195.903 80.2 200.503 80 202.503 80L203.502 75.5C202.301 75.1 200.002 74 199.003 73.5C190.203 67.9 191.336 55.1667 193.003 49.5C196.203 47.9 199.003 40.8333 200.003 37.5C200.803 39.5 203.669 39 205.003 38.5C205.003 40.8333 205.403 46 207.003 48C208.603 50 213.336 49.8333 215.503 49.5C217.503 51.5 220.003 52 221.003 52C223.169 52.1667 227.403 53.5 227.003 57.5C226.603 61.5 223.836 62.5 222.503 62.5C222.503 68.5 216.169 73 213.003 74.5L215.503 80.5C217.903 80.9 221.169 82.3333 222.503 83C220.103 91.4 209.836 92.8333 205.003 92.5C194.603 90.5 193.003 84 193.503 81Z" fill="#F7F6EF"/>
<path d="M192.961 47.127C192.961 47.127 192.152 54.7578 192.152 59.5978C192.152 68.6292 196.514 73.9895 202.431 74.8772L201.721 79.6703C201.721 79.6703 197.937 80.9251 196.381 82.1149" stroke="#1E1E1E" stroke-width="1.76" stroke-linecap="round"/>
<path d="M222.094 82.5987C222.094 82.5987 216.239 80.2577 213.739 79.7577L213 74.4998C215.934 73.2164 222.094 66.9998 222.81 62.6111C224.125 62.4436 225.994 60.9652 226.566 58.5586C227.138 56.152 226.23 54.7498 225.49 53.998" stroke="#1E1E1E" stroke-width="1.76" stroke-linecap="round"/>
<path d="M200.004 62L200.004 63" stroke="#1E1E1E" stroke-width="1.76" stroke-linecap="round"/>
<path d="M198.148 56.6864C198.148 57.6173 197.767 58.3829 196.576 58.372C195.385 58.3611 195.004 57.6173 195.004 56.6864C195.004 55.7554 195.315 55.0294 196.576 55.0008C197.838 54.9721 198.148 55.7554 198.148 56.6864Z" fill="#1E1E1E"/>
<path d="M204.004 57.6863C204.004 58.6172 204.385 59.3828 205.576 59.3719C206.767 59.361 207.148 58.6172 207.148 57.6863C207.148 56.7554 206.838 56.0294 205.576 56.0008C204.315 55.9721 204.004 56.7554 204.004 57.6863Z" fill="#1E1E1E"/>
<path d="M219.991 68.2818C219.991 68.2818 226.879 66.5169 229.999 59.4787C231.41 56.296 232.672 53.0708 232.672 46.8838C232.672 40.6968 231.754 36.6097 227.359 31.8162C222.965 27.0226 210.849 21.9999 204.999 27.3886C204.999 27.3886 197.567 27.0771 192.902 33.3495C190.667 36.3543 190.634 39.4018 190.851 41.6565C191.087 44.1083 188.117 46.8838 188.117 46.8838C201.167 48.7186 202.557 41.4409 203.29 39.2409C202.963 41.5317 205.375 52.8768 216.672 51.0633C218.439 53.7786 219.991 59.4787 219.991 59.4787C219.991 59.4787 221.309 53.9723 225.391 53.749" stroke="#1E1E1E" stroke-width="1.76" stroke-linecap="round" stroke-linejoin="round"/>
<path d="M181.402 90.5454C177.024 95.9721 174.479 99.6897 173.979 105.69C171.579 119.29 180.504 128.166 186.004 130.5L190.504 130C191.704 124.4 202.019 122.865 206.519 121.865C209.185 121.865 215.104 120 221.504 120C229.504 120 237.004 120 243.504 122.5C248.704 124.5 250.337 129.666 250.504 132C253.195 129.516 253.723 123.556 252.271 117.129C250.918 111.136 247.733 104.694 245.918 101.441C242.158 94.6987 239.008 90.6209 233.533 86.5741C227.018 81.7586 222.505 79.99 220.73 81.091C219.784 81.6776 219.266 83.6589 218.174 85.1947C217.465 86.1917 217.477 86.2013 215.348 88.2146C213.218 90.2279 209.049 90.1386 206.523 89.9644C196.123 88.7644 198.555 82.0056 195.82 81.375C193.084 80.7444 185.78 85.1186 181.402 90.5454Z" fill="#717171"/>
<path d="M174.777 102.559C176.786 96.6979 178.656 94.0755 180.043 92.3245C181.43 90.5735 184.967 86.8985 187.741 84.9572C190.514 83.0158 194.485 80.751 196.62 81.9039C198.755 83.0569 197.026 89.5651 206.89 90.1655C214.444 90.6254 216.585 87.4407 217.902 85.5436C219.218 83.6464 219.528 81.6331 220.844 81.0523C222.161 80.4715 222.896 80.394 225.245 81.4871C227.594 82.5801 235.115 86.7788 240.892 94.0005C245.256 99.4555 252.646 113.187 253.047 121.921C253.381 129.199 249.65 131.626 249.65 131.626M226.598 101.441C226.598 101.441 228.673 114.7 228.673 119.5" stroke="#1E1E1E" stroke-width="1.6" stroke-linecap="round" stroke-linejoin="round"/>
<path d="M181.502 107.499L185.502 129.999C188.169 130.166 194.202 130.499 197.002 130.499C200.502 130.499 209.502 130.499 212.002 132.999C214.002 134.999 212.169 135.833 211.002 135.999C209.335 136.333 204.302 137.399 197.502 138.999C189.002 140.999 183.002 140.499 180.502 140.499C178.002 140.499 155.502 137.499 147.502 136.499C141.102 135.699 140.169 133.499 140.502 132.499C138.669 125.999 134.602 111.599 133.002 105.999C131.402 100.399 136.002 99.6659 138.502 99.9992C147.836 100.833 168.002 102.599 174.002 102.999C180.002 103.399 181.502 106.166 181.502 107.499Z" fill="#E9E9E9"/>
<path d="M152.5 117.999C152.5 115.499 154 114.999 156.5 116.499C158 115.999 160 115.499 161.5 117.499C163 119.499 162 121.999 161 122.999C160 123.999 158 123.832 157 122.999C154.5 123.999 152.5 120.499 152.5 117.999Z" fill="#BDBDBD"/>
<path d="M207.438 130.276C208.754 130.803 211.912 131.491 212.543 132.984C213.174 134.476 212.263 135.354 210.609 135.923C208.956 136.491 204.662 137.537 200.162 138.537C195.662 139.537 187.162 141.537 179.162 140.537C172.762 139.737 159.495 138.204 153.662 137.537C149.462 136.891 144.968 137.057 141.86 134.009C140.158 132.34 139.224 129.43 138.162 125.537C135.162 114.537 135.662 115.037 134.162 109.537C132.662 104.037 131.162 99.537 139.662 100.037C146.462 100.437 171.5 102.499 173 102.499C174.5 102.499 180.4 102.499 182 110.499C182.883 114.912 184.667 123.618 186.089 130.537H190" stroke="#1E1E1E" stroke-width="1.6" stroke-linecap="round" stroke-linejoin="round"/>
<path d="M191.501 127.5C194.001 124 200.941 121.891 210.941 120.391C212.941 120.057 217.331 119.87 218.831 119.87C220.331 119.87 233 120 240 121C247 122 249.5 126.5 250 130.5C250.5 134.5 243.552 135.925 239.206 135.563C236.828 135.365 231.878 134.117 227.327 132.231C223.561 130.671 220.217 129.926 217.5 129.473C211.5 128.473 208.251 129.487 207.251 129.987C206.251 130.487 206.001 132.5 198.001 134C190.001 135.5 189.001 131 191.501 127.5Z" fill="#F7F6EF"/>
<path d="M190.501 131.5C189.301 125.1 199.229 122.996 207.736 121.084C216.242 119.172 243.301 120.8 246.501 124C249.701 127.2 249.846 130.167 249.513 131.5C249.259 133.387 246.501 135.5 241.38 135.73C236.259 135.959 232.483 134.145 229.81 133.324C225.263 131.927 219.78 129.833 217.169 129.47C214.557 129.108 211.002 128 205.502 131.5C200.002 135 191.296 135.74 190.501 131.5Z" stroke="#1E1E1E" stroke-width="1.6" stroke-linecap="round" stroke-linejoin="round"/>
</svg>
