<svg width="310" height="170" viewBox="0 0 310 170" fill="none" xmlns="http://www.w3.org/2000/svg">
<path d="M108.574 19.0203C100.386 18.5568 87.8947 26.051 87.6915 41.2641C87.6593 43.6791 87.1362 46.1038 85.7812 48.1032L85.2514 48.885C83.3562 51.6817 83.2591 55.3248 85.0025 58.2185V58.2185C87.3782 62.1615 86.2563 67.2739 82.4478 69.8598L81.2215 70.6924C77.5201 73.2056 75.881 77.8325 77.1751 82.1153L78.5 86.5" stroke="#1E1E1E" stroke-width="1.6" stroke-linecap="round"/>
<path d="M111.774 19.0203C119.914 18.5595 132.308 25.9642 132.651 40.9996C132.71 43.5845 133.264 46.1813 134.714 48.3217L135.15 48.9641C137.042 51.7565 137.312 55.3427 135.86 58.3873V58.3873C133.892 62.5122 135.139 67.4537 138.829 70.1509L139.856 70.9017C143.223 73.3633 144.915 77.5128 144.229 81.627L144.212 81.7261C144.071 82.5726 143.833 83.4 143.503 84.1921L141.5 89" stroke="#1E1E1E" stroke-width="1.6" stroke-linecap="round"/>
<path d="M96.5023 31C94.502 34 93.9508 39.9871 98.0023 41C103.002 42.2499 105.003 38.5 105.003 38.5C105.003 38.5 106.502 42.5 110.502 42.5C114.502 42.5 116.503 39.5 116.503 39.5C116.503 39.5 118.203 44 121.003 44" stroke="#1E1E1E" stroke-width="1.6" stroke-linecap="round" stroke-linejoin="round"/>
<path d="M101 54L101 56.3535" stroke="#1E1E1E" stroke-width="1.76" stroke-linecap="round"/>
<path d="M98.3445 49.6864C98.3445 50.0635 98.264 50.2777 98.1794 50.3838C98.1232 50.4544 97.9903 50.5758 97.5796 50.572C97.1592 50.5682 97.0206 50.4447 96.9629 50.3729C96.8801 50.2699 96.8 50.0624 96.8 49.6864C96.8 49.2829 96.8729 49.0881 96.9436 48.9976C96.9855 48.944 97.1136 48.8114 97.5904 48.8006C98.0441 48.7903 98.1575 48.9193 98.1953 48.9689C98.2709 49.068 98.3445 49.2806 98.3445 49.6864Z" fill="#1E1E1E" stroke="#1E1E1E" stroke-width="1.6"/>
<path d="M106.37 50.6355C106.37 51.0126 106.451 51.2268 106.535 51.3329C106.592 51.4035 106.725 51.5249 107.135 51.5211C107.556 51.5173 107.694 51.3938 107.752 51.322C107.835 51.219 107.915 51.0115 107.915 50.6355C107.915 50.2321 107.842 50.0373 107.771 49.9468C107.729 49.8932 107.601 49.7606 107.124 49.7498C106.671 49.7395 106.557 49.8685 106.519 49.9181C106.444 50.0172 106.37 50.2298 106.37 50.6355Z" fill="#1E1E1E" stroke="#1E1E1E" stroke-width="1.6"/>
<path d="M103 69.5L104.228 65.2102C100 65.2102 92 60.7103 92 52.5C92 48.1 94 41.3333 95 38.5" stroke="#1E1E1E" stroke-width="1.6" stroke-linecap="round"/>
<path d="M114.499 69L113.642 65.2101C116.309 64.0434 121.651 61.857 121.651 53.6467C122.846 53.4944 125.281 52.7867 125.238 48.5913C125.195 44.3959 120.999 44 120.999 44" stroke="#1E1E1E" stroke-width="1.6" stroke-linecap="round"/>
<path d="M95.0022 73.9999C89.5022 76.9999 81.5022 84.9999 79.5022 97.4999C76.7022 111.9 86.6689 119.833 92.0022 122L112.002 121L120.502 125.5C125.502 126.5 133.502 124 136.002 123C138.502 122 143.502 119 143.502 113C143.502 107 141.002 96.4999 135.002 86.4999C130.202 78.4999 123.336 74.8332 120.502 73.9999C118.902 70.3999 116.502 69.8332 115.502 69.9999L105.502 79.4999C105.502 79.4999 103.502 70.9998 102.002 69.9998C100.502 68.9998 97.5022 72.1666 97.5022 72.9999L95.0022 73.9999Z" fill="#F2EABE"/>
<path d="M103 72L105.5 80M105.5 80L102 86C101 84.6667 97.5 77.7263 97.5 72.9263C97.5 71.3853 99.5 70.3333 100.5 70M105.5 80L113 72.9263M105.5 80L108 87.5C109.833 86.3333 120.5 76.5 120.5 74.5C120.5 72.5 118.3 70.9 117.5 70.5M80 93.5C81.3333 87.6667 87 79 95 74M123 75C131.833 78.3333 145 97 142 116.5M140 120C138 122 131.9 125.9 123.5 125.5M113 111C107.833 112.333 97.8 116.6 99 123C100.5 131 116.5 121.5 116.5 121.5M111 109C115 105 122.5 104 128.5 104M122.5 91.5C122.167 93 121.5 97.2 121.5 102" stroke="#1E1E1E" stroke-width="1.6" stroke-linecap="round" stroke-linejoin="round"/>
<path d="M88.5022 98.5002L92.5022 121C95.1688 121.167 101.202 121.5 104.002 121.5C107.502 121.5 116.502 121.5 119.002 124C121.002 126 119.169 126.834 118.002 127C116.335 127.334 111.302 128.4 104.502 130C96.002 132 90.002 131.5 87.502 131.5C85.002 131.5 62.502 128.5 54.502 127.5C48.102 126.7 47.1686 124.5 47.502 123.5C45.6687 117 41.6022 102.6 40.0022 97.0002C38.4022 91.4002 43.0022 90.6669 45.5022 91.0002C54.8355 91.8336 75.0022 93.6002 81.0022 94.0002C87.0022 94.4002 88.5022 97.1669 88.5022 98.5002Z" fill="#E9E9E9"/>
<path d="M59.5 109C59.5 106.5 61 106 63.5 107.5C65 107 67 106.5 68.5 108.5C70 110.5 69 113 68 114C67 115 65 114.833 64 114C61.5 115 59.5 111.5 59.5 109Z" fill="#BDBDBD"/>
<path d="M55.0017 127.5C48.5017 126.5 48.0017 127.5 45.0017 116.5C42.0017 105.5 42.5017 106 41.0017 100.5C39.5017 94.9999 38.0017 90.4999 46.5017 90.9999C53.3017 91.3999 73.6685 93.1666 83.002 94C84.5073 94.3333 88.002 95 89.002 101L94.002 128.5M60.502 128.5C66.3353 129.167 79.602 130.7 86.002 131.5C94.002 132.5 102.502 130.5 107.002 129.5C111.502 128.5 118.502 127 119.502 126.5C120.502 126 121.002 124.5 118.502 123.5M98.502 121.5H95.002" stroke="#1E1E1E" stroke-width="1.6" stroke-linecap="round" stroke-linejoin="round"/>
<path d="M99.0987 123C97.8987 116.6 107.932 112.333 113.099 111C120.697 110 122 114.5 122 116.5C122 118.1 118.399 120.5 116.599 121.5C116.599 121.5 100.599 131 99.0987 123Z" fill="white"/>
<path d="M113.099 111C107.932 112.333 97.8987 116.6 99.0987 123C100.599 131 116.599 121.5 116.599 121.5" stroke="#1E1E1E" stroke-width="1.6" stroke-linecap="round" stroke-linejoin="round"/>
<path d="M120 120C122 118.667 124.6 115 119 111" stroke="#1E1E1E" stroke-width="1.6" stroke-linecap="round" stroke-linejoin="round"/>
<path d="M193.503 81C195.903 80.2 200.503 80 202.503 80L203.502 75.5C202.301 75.1 200.002 74 199.003 73.5C190.203 67.9 191.336 55.1667 193.003 49.5C196.203 47.9 199.003 40.8333 200.003 37.5C200.803 39.5 203.669 39 205.003 38.5C205.003 40.8333 205.403 46 207.003 48C208.603 50 213.336 49.8333 215.503 49.5C217.503 51.5 220.003 52 221.003 52C223.169 52.1667 227.403 53.5 227.003 57.5C226.603 61.5 223.836 62.5 222.503 62.5C222.503 68.5 216.169 73 213.003 74.5L215.503 80.5C217.903 80.9 221.169 82.3333 222.503 83C220.103 91.4 209.836 92.8333 205.003 92.5C194.603 90.5 193.003 84 193.503 81Z" fill="#F7F6EF"/>
<path d="M193.431 45.8481C193.431 45.8481 192.152 54.7581 192.152 59.5981C192.152 68.6295 198.931 75.2293 203.582 75.2293L202.502 80C201.669 80 199.402 80.1 197.002 80.5" stroke="#1E1E1E" stroke-width="1.76" stroke-linecap="round"/>
<path d="M222.095 52C222.095 52 226.71 52.4355 226.757 57.0504C226.805 61.6654 224.127 62.4439 222.811 62.6113C222.095 67 215.935 73.2167 213.002 74.5L215.002 80.5C217.502 81 219.502 82 219.502 82" stroke="#1E1E1E" stroke-width="1.76" stroke-linecap="round"/>
<path d="M200.004 62L200.004 63" stroke="#1E1E1E" stroke-width="1.76" stroke-linecap="round"/>
<path d="M198.148 56.6864C198.148 57.6173 197.767 58.3829 196.576 58.372C195.385 58.3611 195.004 57.6173 195.004 56.6864C195.004 55.7554 195.315 55.0294 196.576 55.0008C197.838 54.9721 198.148 55.7554 198.148 56.6864Z" fill="#1E1E1E"/>
<path d="M204.004 57.6863C204.004 58.6172 204.385 59.3828 205.576 59.3719C206.767 59.361 207.148 58.6172 207.148 57.6863C207.148 56.7554 206.838 56.0294 205.576 56.0008C204.315 55.9721 204.004 56.7554 204.004 57.6863Z" fill="#1E1E1E"/>
<path d="M200 37.5981C199.266 39.7981 199.3 40.4999 196.5 45.9999M205 38.4999C204.633 41.0665 205.5 47.4999 208.5 48.4999M229 54.4999C229 54.4999 235 44.9999 230 34.9999C226.718 28.4367 210.85 21.9999 205 27.3886M189 44.9999C189 44.9999 190.999 37.6112 194.5 32.4999C198 27.3885 201.5 27.3886 201.5 27.3886M215.205 49.4999C210.569 45.4999 210.137 41.1665 210.5 39.4999" stroke="#1E1E1E" stroke-width="1.76" stroke-linecap="round" stroke-linejoin="round"/>
<path d="M185.502 84.5C178.002 88.5 173.002 100.5 172.502 106.5C170.102 120.1 180.502 128.167 186.002 130.5L190.502 130C191.702 124.4 201.002 121 205.502 120H221.502C229.502 120 237.002 120 243.502 122.5C248.702 124.5 250.335 129.667 250.502 132C255.702 127.2 252.002 112.333 249.502 105.5C244.702 87.9 229.502 82.5 222.502 82C220.502 91.2 210.335 92.8333 205.502 92.5C195.102 91.3 193.169 84.3333 193.502 81C190.302 81.4 186.835 83.5 185.502 84.5Z" fill="#717171"/>
<path d="M173.164 102.5C173.164 102.5 173.502 99 179.002 91C184.502 83 193.664 81 193.664 81C192.223 84.3333 197.572 92.5 206.502 92.5C216.102 92.5 220.002 89 222.502 82C222.502 82 235.502 83.5 243.502 93.5C251.502 103.5 253.002 122.5 253.002 122.5M209.502 119.5C209.502 119.5 214.502 118.5 222.502 120M227.502 102.5C227.502 102.5 225.002 112.2 225.002 117" stroke="#1E1E1E" stroke-width="1.6" stroke-linecap="round" stroke-linejoin="round"/>
<path d="M181.502 107.5L185.502 130C188.169 130.166 194.202 130.5 197.002 130.5C200.502 130.5 209.502 130.5 212.002 133C214.002 135 212.169 135.833 211.002 136C209.335 136.333 204.302 137.4 197.502 139C189.002 141 183.002 140.5 180.502 140.5C178.002 140.5 155.502 137.5 147.502 136.5C141.102 135.7 140.169 133.5 140.502 132.5C138.669 126 134.602 111.6 133.002 106C131.402 100.4 136.002 99.6664 138.502 99.9997C147.836 100.833 168.002 102.6 174.002 103C180.002 103.4 181.502 106.166 181.502 107.5Z" fill="#E9E9E9"/>
<path d="M152.5 118C152.5 115.5 154 115 156.5 116.5C158 116 160 115.5 161.5 117.5C163 119.5 162 122 161 123C160 124 158 123.833 157 123C154.5 124 152.5 120.5 152.5 118Z" fill="#BDBDBD"/>
<path d="M148.162 136.538C141.662 135.538 141.162 136.538 138.162 125.538C135.162 114.538 135.662 115.038 134.162 109.538C132.662 104.038 131.162 99.538 139.662 100.038C146.462 100.438 171.5 102.5 173 102.5C174.5 102.5 180.4 102.5 182 110.5C183.6 118.5 187.162 137.538 187.162 137.538M153.662 137.538C159.495 138.205 172.762 139.738 179.162 140.538C187.162 141.538 195.662 139.538 200.162 138.538C204.662 137.538 211.662 136.038 212.662 135.538C213.662 135.038 214.162 133.538 211.662 132.538M190 130.538H188.162" stroke="#1E1E1E" stroke-width="1.6" stroke-linecap="round" stroke-linejoin="round"/>
<path d="M191.501 127.5C194.001 124 201.001 120.5 211.001 119C213.002 118.666 216 119 217.5 119C219 119 233 120 240 121C247 122 249.5 126.5 250 130.5C250.5 134.5 246 134 242.5 134C239 134 223.5 129 217.5 128C211.5 127 210 128.5 209 129C208 129.5 206.001 132.5 198.001 134C190.001 135.5 189.001 131 191.501 127.5Z" fill="#F7F6EF"/>
<path d="M206.162 120C200.996 121.333 189.3 125.1 190.5 131.5C191.295 135.74 200 135 205.5 131.5C211 128 210 129 213 128C216 127 233.5 132 233.5 132M227.5 120C232.5 120 243.3 120.8 246.5 124C249.7 127.2 249.833 130.667 249.5 132" stroke="#1E1E1E" stroke-width="1.6" stroke-linecap="round" stroke-linejoin="round"/>
</svg>
