<svg width="236" height="52" viewBox="0 0 236 52" fill="none" xmlns="http://www.w3.org/2000/svg">
<path d="M46.2969 35.7227C46.2969 35.7227 46.3423 35.6059 46.4266 35.4048C46.3682 35.5086 46.3163 35.6124 46.2969 35.7227Z" fill="#2F2F2F"/>
<path d="M27.54 19.6446C24.0495 19.424 19.8776 21.2796 17.4836 23.0314C12.8576 26.4117 9.82115 30.6938 8.34836 35.7026C7.66063 38.0448 7.76444 41.8209 9.86657 44.0203C12.2477 46.5117 16.9126 47.2059 20.8379 45.6942C20.8379 45.6942 27.5076 20.0274 27.54 19.6446Z" fill="#2F2F2F"/>
<path d="M44.0479 19.6446C40.5573 19.424 36.3855 21.2796 33.9914 23.0314C29.3654 26.4117 26.329 30.6938 24.8562 35.7026C24.1684 38.0448 24.2722 41.8209 26.3744 44.0203C28.7555 46.5117 33.4204 47.2059 37.3457 45.6942C37.3457 45.6942 44.0154 20.0274 44.0479 19.6446Z" fill="#2F2F2F"/>
<path d="M71.234 21.8773C70.0012 21.9227 68.8269 22.2925 67.9834 23.1295C62.8708 17.1994 53.4761 20.0736 48.4284 26.5097C45.7229 29.9549 42.8422 35.6579 44.7497 39.6805C45.6061 41.4777 48.104 44.6633 52.0488 45.6171C55.9935 46.5644 60.7103 45.7858 63.1953 43.5734C62.9422 44.566 63.2796 45.7079 63.9608 46.1361C64.428 46.4346 65.0638 46.5449 65.6542 46.5773C66.595 46.6227 67.4514 46.0388 67.7239 45.137L73.8292 25.3289C74.0952 24.4595 74.2185 23.5901 73.7319 22.9283C73.2453 22.2665 72.1423 21.8318 71.234 21.8708V21.8773ZM55.8248 34.0618C52.8792 31.6677 57.9334 25.3873 60.9699 27.6581C64.0063 29.9289 58.7639 36.4624 55.8248 34.0618Z" fill="#2F2F2F"/>
<path d="M105.255 36.7392C103.834 33.9493 99.9221 32.5674 94.9393 33.6379C90.4041 34.6176 84.7725 38.4391 85.3629 38.6207C87.8608 31.3282 92.2921 16.9441 94.3748 10.9037C94.829 9.59961 94.5565 8.45771 93.3497 7.44557C90.6571 5.22016 83.968 5.18123 82.4497 8.89241L71.0762 42.9807C70.4858 44.752 71.8028 46.5751 73.6649 46.5751H101.577C105.333 45.7382 106.611 40.1325 105.249 36.7392H105.255Z" fill="#2F2F2F"/>
<path d="M16.1139 5.38969C20.5128 5.44159 26.2158 5.37671 26.8906 5.37671C31.004 5.37671 46.9127 5.47403 51.8112 5.66218C56.7097 5.85683 57.7478 9.568 56.6124 12.4617C54.3156 18.3269 49.5793 18.9822 46.4715 18.9108C43.3637 18.8395 10.1579 18.9822 10.1579 18.9822C5.64866 18.7875 3.67629 15.3489 5.94711 11.0213C8.21793 6.69379 11.715 5.33778 16.1139 5.38969Z" fill="#2F2F2F"/>
<path d="M164.365 6.38514C160.42 6.43055 157.767 8.60405 156.82 11.6794C155.243 16.792 154.108 17.5576 152.953 19.0109C151.344 21.0352 149.761 21.937 147.898 23.3774C148.009 23.2217 148.139 23.066 148.249 22.9297C148.385 22.761 152.211 13.7865 153.082 11.3161C153.954 8.84566 153.816 7.27485 153.082 6.28292C151.724 4.44571 147.938 4.3578 145.53 4.64628C143.123 4.93475 141.17 5.83322 139.639 10.5371C138.75 13.3983 137.258 17.3694 135.389 23.4033C135.863 23.6823 136.395 24.0197 136.966 24.4025C135.169 24.5323 133.469 24.7139 131.866 24.941C133.482 19.8089 135.876 13.8072 136.421 11.2832C136.966 8.75923 137.149 7.75558 136.584 6.75923C135.272 4.4444 131.18 4.54876 128.214 4.68483L128.246 4.63941C124.911 5.18441 123.886 5.82673 122.355 10.5306C121.447 13.4632 119.766 18.0312 117.956 23.8705C119.228 24.675 120.772 25.8104 122.355 27.3027C115.095 30.1444 111.423 34.8742 110.955 41.3688H110.962C110.618 44.6777 113.966 46.6955 117.223 46.676C120.48 46.6566 124.172 44.7231 124.658 41.4921C125.203 38.7087 126.306 36.2757 127.76 34.1735C129.336 36.9439 130.601 40.2334 131.185 44.1132C131.406 45.5731 132.658 46.6501 134.131 46.6501H144.46C145.543 46.6501 146.354 45.6834 146.205 44.6128C144.862 35.2895 139.263 29.9044 135.461 27.2637C136.544 26.6474 137.647 26.1218 138.737 25.6871C142.903 28.9701 148.061 34.7834 149.41 43.9965C149.631 45.5276 150.941 46.6631 152.492 46.676C155.483 46.6955 159.655 46.6631 162.237 46.6371C163.47 46.6241 164.424 45.5276 164.242 44.3079C164.242 44.3014 164.242 44.2949 164.242 44.2884C164.235 44.256 164.229 44.23 164.222 44.1911C164.222 44.1911 164.222 44.1976 164.229 44.2041C164.132 43.5877 164.015 42.9973 163.885 42.4199C163.269 40.0193 162.127 36.918 160.031 33.6285C155.866 27.6984 150.293 25.3498 149.923 25.2005L149.936 25.1746C149.248 24.9151 148.58 24.7334 147.937 24.6296C156.482 24.9021 169.776 22.6313 170.555 11.7962H170.548C170.808 8.70786 168.342 6.33323 164.398 6.37865L164.365 6.38514Z" fill="#2F2F2F"/>
<path d="M191.134 22.9626C190.647 22.3073 189.544 21.8662 188.636 21.9051C187.403 21.9505 186.229 22.3203 185.385 23.1573C180.273 17.2272 170.878 20.1014 165.83 26.5376C164.228 28.5813 162.573 31.4101 161.879 34.213C164.046 37.9501 165.039 41.3433 165.499 43.718C166.589 44.5549 167.906 45.2751 169.45 45.6449C173.395 46.5922 178.112 45.8136 180.597 43.6012C180.344 44.5939 180.681 45.7358 181.363 46.164C181.83 46.4624 182.466 46.5727 183.056 46.6052C183.997 46.6506 184.853 46.0667 185.126 45.1648L191.231 25.3567C191.497 24.4873 191.62 23.6179 191.134 22.9562V22.9626ZM173.227 34.0897C170.281 31.6956 175.335 25.4151 178.372 27.686C181.408 29.9568 176.166 36.4903 173.227 34.0897Z" fill="#2F2F2F"/>
<path d="M230.327 11.802C230.327 11.802 230.048 8.82398 228.484 7.64964C226.921 6.4753 224.663 6.38447 223.177 6.37798C218.798 6.37798 216.579 8.59691 215.632 11.6723C214.055 16.7849 212.92 17.5505 211.765 19.0038C210.396 20.7231 209.053 21.6315 207.541 22.7474C209.13 17.6737 211.228 10.7594 211.765 8.95937C212.301 7.15937 211.96 5.92373 210.901 5.27069C209.097 4.15832 206.002 3.80248 204.342 4.10091C201.702 4.57454 200.015 5.24281 198.484 9.94666C196.991 14.7673 194.753 21.6704 193.339 26.2445L193.39 26.225L189.206 39.5839L189.134 39.811L188.855 40.7063C188.855 40.7063 188.842 40.7518 188.836 40.7777L187.824 44.0672C187.447 45.2804 188.362 46.5132 189.634 46.5067C191.561 46.4937 194.104 46.4872 196.167 46.4548C196.284 46.4548 196.401 46.4353 196.518 46.4223L198.484 46.4418C199.476 46.4548 200.359 45.8125 200.657 44.8587L202.376 39.3179C202.558 38.7859 202.72 38.2539 202.87 37.7283C202.87 37.7153 202.857 37.7024 202.85 37.6894L205.958 27.9184C211.408 31.0781 211.564 38.9351 210.454 44.3072C210.233 45.3778 211.051 46.3704 212.141 46.3704H224.598C225.733 46.3704 226.629 45.3972 226.531 44.2683C225.811 35.73 220.595 25.5438 206.931 24.6873C206.931 24.6873 206.938 24.6679 206.944 24.6354C215.606 24.8625 229.555 22.5333 230.327 11.7955V11.802Z" fill="#2F2F2F"/>
</svg>
