<svg width="86" height="84" viewBox="0 0 86 84" fill="none" xmlns="http://www.w3.org/2000/svg">
<path d="M31.6093 8.9336L33.207 5.13185C33.5675 4.27391 34.7178 4.38583 35.2479 4.54904L44.499 6.30299C45.2881 5.19222 47.4014 3.11974 49.541 3.71602C51.6806 4.31229 52.3616 6.77047 52.4347 7.92502C54.6123 8.43653 59.3269 9.51217 60.765 9.72262C62.2031 9.93307 62.5918 10.921 62.6065 11.3887C62.5042 11.7394 62.1943 12.8794 61.7734 14.6331C61.3525 16.3869 59.9612 16.3869 59.3182 16.1677C51.2801 14.5747 34.8046 11.301 33.207 10.9502C31.6094 10.5995 31.4762 9.45967 31.6093 8.9336Z" fill="#EFEDE5"/>
<path d="M78.1434 65.4141L71.8973 64.8589L71.4805 68.9771L72.3597 70.4579L76.6632 71.0132L77.5424 70.1339L78.1434 65.4141Z" fill="#E1B5C2"/>
<path d="M78.2383 65.6135L71.9062 64.7405L77.2198 25.4399L83.3332 25.9494L78.2383 65.6135Z" fill="#FFBE5B"/>
<path d="M83.4141 25.7124L77.3086 25.0698L79.3066 21.2847H82.4132L83.4141 25.7124Z" fill="#D6D3C4"/>
<path d="M61.8392 14.0785C61.4344 15.293 61.5356 16.5074 59.0038 16.1027C56.4719 15.698 38.1567 11.854 32.7931 10.6396C31.4731 10.3461 31.568 9.37876 32.0081 8.1869M61.8392 14.0785C62.0774 13.4404 62.5483 12.1654 62.5351 11.4572M61.8392 14.0785C61.8392 14.0785 63.3 14.4842 65.1345 14.9365C66.969 15.3889 66.9084 17.7373 66.4561 19.6723C66.0038 21.6073 51.7078 70.9643 51.4573 71.9488C51.1696 73.0792 50.3942 75.1729 47.1373 74.2424C43.8805 73.3119 14.8582 65.032 12.9629 64.481C10.681 63.8176 10.0781 61.813 10.61 60.0925C13.9567 49.268 25.6887 13.1472 26.2712 11.3048C26.9462 9.16955 28.1909 7.85875 29.4796 7.85875C30.7684 7.85875 32.0081 8.1869 32.0081 8.1869M33.0004 5.56052C33.2322 4.89356 33.769 4.14377 35.5262 4.56551C36.538 4.80833 44.4434 6.38926 44.4434 6.38926C44.4434 6.38926 45.8936 3.05322 49.1594 3.64382C52.4251 4.23441 52.3971 7.97257 52.3971 7.97257C57.5179 8.98843 60.2424 9.51333 61.232 9.82795C62.2061 10.1376 62.522 10.7568 62.5351 11.4572M33.0004 5.56052C32.8985 5.85385 32.8555 6.13117 32.7937 6.28574C32.7261 6.45466 32.2286 7.58965 32.0081 8.1869M33.0004 5.56052C31.7945 5.33163 30.8719 5.16054 30.3338 5.06696C26.2729 4.3607 24.1541 5.59664 22.3883 10.3637C20.6225 15.1308 10.423 42.0627 6.71578 60.4255C6.18052 62.9558 6.66292 66.9232 11.9592 68.5123C17.2554 70.1014 43.9425 78.864 48.8863 78.6875C53.8301 78.5109 55.1886 74.6774 56.0714 71.4992C56.9542 68.3211 68.7845 28.0482 70.197 22.2216C71.6095 16.395 70.8869 13.5119 66.8764 12.4799C62.8658 11.4479 63.5068 11.6654 62.5351 11.4572M72.1363 64.8509L77.6663 65.4841M77.4349 25.3649L82.946 25.9236M79.7489 21.1935L82.063 21.4066M29.0112 16.5553C28.0381 19.3989 27.844 19.6644 27.5615 20.7061C27.2789 21.7478 27.7304 22.9861 29.0079 23.4122C30.2855 23.8384 30.8937 23.8974 32.1721 24.2762C33.4505 24.655 34.0727 24.1815 34.616 23.1872C35.1593 22.1929 35.7275 20.1096 36.0589 19.0206C36.3904 17.9315 35.5854 16.8899 34.616 16.5553C33.6466 16.2207 32.1721 15.7534 31.2767 15.564C30.3814 15.3746 29.3036 15.6794 29.0112 16.5553ZM24.6026 28.971C23.6294 31.8145 23.4353 32.0801 23.1528 33.1218C22.8703 34.1634 23.3217 35.4018 24.5993 35.8279C25.8769 36.254 26.485 36.3131 27.7634 36.6919C29.0418 37.0707 29.664 36.5972 30.2073 35.6029C30.7506 34.6086 31.3188 32.5252 31.6503 31.4362C31.9817 30.3472 31.1768 29.3055 30.2073 28.971C29.2379 28.6364 27.7634 28.169 26.8681 27.9797C25.9727 27.7903 24.8949 28.0951 24.6026 28.971ZM20.8873 41.7685C19.9142 44.6121 19.72 44.8776 19.4375 45.9193C19.155 46.961 19.6064 48.1993 20.884 48.6255C22.1616 49.0516 22.7697 49.1107 24.0481 49.4894C25.3265 49.8682 25.9488 49.3947 26.4921 48.4004C27.0354 47.4061 27.6035 45.3228 27.935 44.2338C28.2664 43.1448 27.4615 42.1031 26.4921 41.7685C25.5226 41.434 24.0481 40.9666 23.1528 40.7772C22.2575 40.5878 21.1796 40.8926 20.8873 41.7685ZM17.2201 53.754C16.247 56.5976 16.0528 56.8632 15.7703 57.9048C15.4878 58.9465 15.9392 60.1848 17.2168 60.611C18.4944 61.0371 19.1025 61.0962 20.3809 61.475C21.6593 61.8537 22.2816 61.3803 22.8249 60.3859C23.3682 59.3916 23.9364 57.3083 24.2678 56.2193C24.5992 55.1303 23.7943 54.0886 22.8249 53.754C21.8554 53.4195 20.3809 52.9521 19.4856 52.7627C18.5903 52.5733 17.5124 52.8781 17.2201 53.754ZM71.4768 68.0545L77.1491 25.0753C78.2207 22.9245 80.544 18.6231 81.2641 18.6231C81.9841 18.6231 82.9642 23.4901 83.3642 25.9236C81.5388 39.6259 77.8437 67.4075 77.6663 68.9153C77.4445 70.8001 76.6727 71.0229 75.564 71.0229C74.4553 71.0229 74.0785 70.8586 72.8781 70.6923C71.6778 70.526 71.3199 69.2435 71.4768 68.0545Z" stroke="black" stroke-linecap="round"/>
<path d="M82.2227 21.1692L79.7305 20.9686L81.2536 18.7271L82.2227 21.1692Z" fill="black"/>
<path d="M58.0158 27.7462C57.833 28.2499 57.2892 28.5209 56.7758 28.3674C52.8531 27.1945 44.9557 25.1359 39.6332 23.8951C39.066 23.7628 38.7289 23.178 38.9009 22.6215L39.2207 21.5868C39.3746 21.0892 39.8813 20.7921 40.3891 20.9076C45.4339 22.055 54.2737 24.2574 57.8204 25.3465C58.3499 25.5091 58.6203 26.0812 58.4313 26.6018L58.0158 27.7462Z" fill="#CCC7B3" stroke="black" stroke-linecap="round"/>
<path d="M54.2931 39.4313C54.1103 39.9349 53.5665 40.206 53.0532 40.0525C49.1305 38.8796 41.233 36.821 35.9106 35.5801C35.3433 35.4479 35.0062 34.8631 35.1782 34.3066L35.4981 33.2719C35.6519 32.7743 36.1586 32.4772 36.6665 32.5927C41.7113 33.74 50.551 35.9425 54.0978 37.0316C54.6272 37.1941 54.8976 37.7663 54.7086 38.2869L54.2931 39.4313Z" fill="#CCC7B3" stroke="black" stroke-linecap="round"/>
<path d="M49.7345 52.567C49.5517 53.0707 49.0079 53.3417 48.4946 53.1882C44.5719 52.0153 36.6744 49.9567 31.352 48.7159C30.7847 48.5836 30.4476 47.9988 30.6196 47.4423L30.9395 46.4076C31.0933 45.91 31.6 45.6129 32.1079 45.7284C37.1527 46.8758 45.9925 49.0782 49.5392 50.1673C50.0686 50.3299 50.339 50.902 50.15 51.4226L49.7345 52.567Z" fill="#CCC7B3" stroke="black" stroke-linecap="round"/>
<path d="M46.1134 64.7028C45.9306 65.2064 45.3868 65.4775 44.8735 65.324C40.9508 64.1511 33.0533 62.0925 27.7309 60.8516C27.1636 60.7194 26.8265 60.1345 26.9986 59.5781L27.3184 58.5433C27.4722 58.0458 27.9789 57.7487 28.4868 57.8641C33.5316 59.0115 42.3714 61.214 45.9181 62.303C46.4475 62.4656 46.7179 63.0377 46.5289 63.5584L46.1134 64.7028Z" fill="#CCC7B3" stroke="black" stroke-linecap="round"/>
<path d="M27.5614 20.7063C27.8439 19.6646 28.038 19.399 29.0112 16.5555C29.3035 15.6796 30.3813 15.3748 31.2767 15.5642C32.172 15.7536 33.6465 16.2209 34.6159 16.5555C35.5854 16.89 36.3903 17.9317 36.0589 19.0207C35.7274 20.1097 35.1592 22.1931 34.6159 23.1874C34.0726 24.1817 33.4504 24.6552 32.172 24.2764C30.8936 23.8976 30.2855 23.8386 29.0079 23.4124C27.7303 22.9863 27.2789 21.7479 27.5614 20.7063Z" fill="black"/>
<path d="M29.4961 19.4629C29.732 20.2683 30.2744 21.9085 30.5569 22.0265C30.91 22.1739 33.7094 19.8754 34.2398 19.4629" stroke="white" stroke-linecap="round"/>
</svg>
