<svg width="24" height="24" viewBox="0 0 24 24" fill="none" xmlns="http://www.w3.org/2000/svg">
<g clip-path="url(#clip0_1043_4934)">
<path d="M21.6022 18.2002L13.0022 11.7502V10.8402C14.6522 10.3502 15.8022 8.67016 15.4322 6.79016C15.1722 5.48016 14.1322 4.39016 12.8222 4.09016C10.5422 3.57016 8.50221 5.30016 8.50221 7.50016H10.5022C10.5022 6.67016 11.1722 6.00016 12.0022 6.00016C12.8322 6.00016 13.5022 6.67016 13.5022 7.50016C13.5022 8.34016 12.8122 9.02016 11.9722 9.00016H11.0022V11.7502L2.40221 18.2002C1.63221 18.7802 2.04221 20.0002 3.00221 20.0002H12.0022H21.0022C21.9622 20.0002 22.3722 18.7802 21.6022 18.2002ZM6.00221 18.0002L12.0022 13.5002L18.0022 18.0002H6.00221Z" fill="#1E1E1E"/>
</g>
<defs>
<clipPath id="clip0_1043_4934">
<rect width="24" height="24" fill="white"/>
</clipPath>
</defs>
</svg>
